0, 0, Header, 0, 1, 43
1, 0, Start_track
1, 0, Tempo, 500000
1, 0, Program_c, 0, 0
1, 0, Note_on_c, 0, 61, 20
1, 5, Note_off_c, 0, 61, 64
1, 8, Note_on_c, 0, 61, 15
1, 12, Note_off_c, 0, 61, 64
1, 20, Note_on_c, 0, 69, 12
1, 25, Note_off_c, 0, 69, 64
1, 31, Note_on_c, 0, 61, 28
1, 32, Note_on_c, 0, 69, 14
1, 35, Note_off_c, 0, 69, 64
1, 37, Note_on_c, 0, 69, 16
1, 39, Note_on_c, 0, 66, 22
1, 40, Note_on_c, 0, 76, 11
1, 43, Note_off_c, 0, 61, 64
1, 43, Note_off_c, 0, 69, 64
1, 43, Note_off_c, 0, 76, 64
1, 45, Note_off_c, 0, 66, 64
1, 46, Note_on_c, 0, 61, 20
1, 49, Note_on_c, 0, 75, 13
1, 51, Note_off_c, 0, 61, 64
1, 52, Note_on_c, 0, 61, 16
1, 52, Note_off_c, 0, 75, 64
1, 55, Note_off_c, 0, 61, 64
1, 56, Note_on_c, 0, 61, 10
1, 56, Note_on_c, 0, 76, 12
1, 58, Note_on_c, 0, 81, 13
1, 59, Note_off_c, 0, 61, 64
1, 60, Note_off_c, 0, 76, 64
1, 61, Note_off_c, 0, 81, 64
1, 63, Note_on_c, 0, 69, 23
1, 66, Note_on_c, 0, 87, 12
1, 66, Note_on_c, 0, 89, 15
1, 67, Note_on_c, 0, 61, 13
1, 70, Note_off_c, 0, 61, 64
1, 71, Note_off_c, 0, 69, 64
1, 71, Note_on_c, 0, 84, 12
1, 71, Note_off_c, 0, 87, 64
1, 71, Note_off_c, 0, 89, 64
1, 72, Note_on_c, 0, 54, 17
1, 73, Note_on_c, 0, 61, 21
1, 74, Note_on_c, 0, 77, 11
1, 75, Note_on_c, 0, 81, 15
1, 75, Note_off_c, 0, 84, 64
1, 76, Note_on_c, 0, 69, 18
1, 77, Note_off_c, 0, 54, 64
1, 77, Note_off_c, 0, 61, 64
1, 78, Note_off_c, 0, 77, 64
1, 79, Note_on_c, 0, 61, 15
1, 79, Note_off_c, 0, 69, 64
1, 81, Note_on_c, 0, 76, 15
1, 83, Note_off_c, 0, 61, 64
1, 83, Note_on_c, 0, 64, 35
1, 83, Note_on_c, 0, 69, 29
1, 83, Note_off_c, 0, 81, 64
1, 83, Note_on_c, 0, 93, 12
1, 84, Note_off_c, 0, 76, 64
1, 85, Note_on_c, 0, 78, 14
1, 86, Note_off_c, 0, 93, 64
1, 87, Note_off_c, 0, 69, 64
1, 88, Note_off_c, 0, 78, 64
1, 91, Note_off_c, 0, 64, 64
1, 91, Note_on_c, 0, 70, 11
1, 94, Note_off_c, 0, 70, 64
1, 98, Note_on_c, 0, 61, 16
1, 99, Note_on_c, 0, 67, 17
1, 101, Note_off_c, 0, 61, 64
1, 102, Note_on_c, 0, 69, 26
1, 103, Note_on_c, 0, 89, 17
1, 104, Note_on_c, 0, 64, 13
1, 104, Note_off_c, 0, 67, 64
1, 105, Note_on_c, 0, 61, 25
1, 106, Note_off_c, 0, 89, 64
1, 107, Note_off_c, 0, 69, 64
1, 108, Note_off_c, 0, 64, 64
1, 108, Note_on_c, 0, 66, 17
1, 111, Note_off_c, 0, 66, 64
1, 112, Note_on_c, 0, 57, 27
1, 112, Note_on_c, 0, 64, 25
1, 112, Note_on_c, 0, 67, 21
1, 114, Note_on_c, 0, 92, 12
1, 115, Note_off_c, 0, 61, 64
1, 115, Note_off_c, 0, 64, 64
1, 115, Note_on_c, 0, 66, 19
1, 115, Note_off_c, 0, 67, 64
1, 115, Note_on_c, 0, 73, 14
1, 116, Note_on_c, 0, 61, 33
1, 116, Note_on_c, 0, 76, 13
1, 117, Note_on_c, 0, 69, 35
1, 118, Note_off_c, 0, 66, 64
1, 118, Note_off_c, 0, 73, 64
1, 118, Note_on_c, 0, 75, 16
1, 121, Note_on_c, 0, 64, 21
1, 121, Note_off_c, 0, 76, 64
1, 121, Note_on_c, 0, 77, 13
1, 121, Note_off_c, 0, 92, 64
1, 122, Note_off_c, 0, 75, 64
1, 124, Note_off_c, 0, 77, 64
1, 125, Note_off_c, 0, 57, 64
1, 125, Note_off_c, 0, 61, 64
1, 125, Note_off_c, 0, 64, 64
1, 130, Note_off_c, 0, 69, 64
1, 130, Note_on_c, 0, 70, 15
1, 133, Note_on_c, 0, 69, 26
1, 133, Note_off_c, 0, 70, 64
1, 135, Note_on_c, 0, 77, 9
1, 138, Note_off_c, 0, 69, 64
1, 138, Note_off_c, 0, 77, 64
1, 139, Note_on_c, 0, 69, 28
1, 140, Note_on_c, 0, 87, 12
1, 143, Note_off_c, 0, 69, 64
1, 143, Note_on_c, 0, 84, 15
1, 143, Note_off_c, 0, 87, 64
1, 144, Note_on_c, 0, 64, 17
1, 144, Note_on_c, 0, 69, 30
1, 144, Note_on_c, 0, 73, 9
1, 145, Note_on_c, 0, 78, 13
1, 147, Note_off_c, 0, 69, 64
1, 147, Note_off_c, 0, 73, 64
1, 147, Note_on_c, 0, 81, 17
1, 148, Note_off_c, 0, 64, 64
1, 148, Note_on_c, 0, 69, 33
1, 148, Note_off_c, 0, 78, 64
1, 148, Note_on_c, 0, 89, 11
1, 149, Note_off_c, 0, 84, 64
1, 149, Note_on_c, 0, 91, 10
1, 150, Note_on_c, 0, 61, 30
1, 152, Note_on_c, 0, 54, 18
1, 152, Note_off_c, 0, 81, 64
1, 153, Note_on_c, 0, 76, 19
1, 153, Note_off_c, 0, 89, 64
1, 154, Note_on_c, 0, 64, 29
1, 154, Note_on_c, 0, 68, 35
1, 154, Note_off_c, 0, 69, 64
1, 156, Note_off_c, 0, 64, 64
1, 156, Note_on_c, 0, 79, 18
1, 157, Note_on_c, 0, 69, 29
1, 157, Note_off_c, 0, 76, 64
1, 157, Note_on_c, 0, 95, 13
1, 158, Note_off_c, 0, 54, 64
1, 158, Note_off_c, 0, 91, 64
1, 158, Note_on_c, 0, 96, 11
1, 159, Note_off_c, 0, 68, 64
1, 159, Note_off_c, 0, 79, 64
1, 162, Note_off_c, 0, 95, 64
1, 162, Note_off_c, 0, 96, 64
1, 164, Note_off_c, 0, 61, 64
1, 176, Note_on_c, 0, 89, 15
1, 178, Note_off_c, 0, 69, 64
1, 178, Note_on_c, 0, 87, 14
1, 179, Note_on_c, 0, 92, 14
1, 180, Note_on_c, 0, 69, 35
1, 181, Note_on_c, 0, 95, 18
1, 182, Note_off_c, 0, 87, 64
1, 183, Note_off_c, 0, 69, 64
1, 183, Note_off_c, 0, 92, 64
1, 184, Note_on_c, 0, 69, 36
1, 185, Note_off_c, 0, 89, 64
1, 185, Note_off_c, 0, 95, 64
1, 186, Note_on_c, 0, 94, 14
1, 187, Note_on_c, 0, 75, 15
1, 187, Note_on_c, 0, 95, 10
1, 188, Note_on_c, 0, 63, 30
1, 188, Note_off_c, 0, 69, 64
1, 189, Note_on_c, 0, 69, 46
1, 189, Note_on_c, 0, 97, 15
1, 190, Note_off_c, 0, 95, 64
1, 191, Note_on_c, 0, 96, 14
1, 191, Note_on_c, 0, 99, 11
1, 192, Note_on_c, 0, 73, 18
1, 192, Note_off_c, 0, 75, 64
1, 193, Note_off_c, 0, 63, 64
1, 194, Note_on_c, 0, 57, 12
1, 195, Note_on_c, 0, 63, 19
1, 195, Note_on_c, 0, 68, 34
1, 195, Note_off_c, 0, 69, 64
1, 195, Note_on_c, 0, 88, 9
1, 195, Note_off_c, 0, 94, 64
1, 196, Note_on_c, 0, 95, 23
1, 197, Note_on_c, 0, 67, 35
1, 197, Note_on_c, 0, 93, 10
1, 197, Note_on_c, 0, 94, 10
1, 197, Note_off_c, 0, 99, 64
1, 198, Note_off_c, 0, 57, 64
1, 198, Note_off_c, 0, 63, 64
1, 198, Note_off_c, 0, 68, 64
1, 198, Note_off_c, 0, 73, 64
1, 198, Note_off_c, 0, 88, 64
1, 198, Note_off_c, 0, 96, 64
1, 198, Note_off_c, 0, 97, 64
1, 199, Note_on_c, 0, 69, 37
1, 199, Note_off_c, 0, 95, 64
1, 200, Note_off_c, 0, 67, 64
1, 201, Note_on_c, 0, 61, 32
1, 201, Note_on_c, 0, 68, 32
1, 201, Note_off_c, 0, 69, 64
1, 201, Note_on_c, 0, 84, 31
1, 201, Note_on_c, 0, 87, 27
1, 201, Note_on_c, 0, 89, 33
1, 201, Note_on_c, 0, 90, 23
1, 201, Note_off_c, 0, 93, 64
1, 202, Note_on_c, 0, 85, 22
1, 202, Note_on_c, 0, 86, 23
1, 202, Note_off_c, 0, 94, 64
1, 203, Note_off_c, 0, 68, 64
1, 204, Note_on_c, 0, 68, 35
1, 204, Note_off_c, 0, 87, 64
1, 205, Note_off_c, 0, 61, 64
1, 205, Note_off_c, 0, 84, 64
1, 205, Note_off_c, 0, 86, 64
1, 205, Note_off_c, 0, 90, 64
1, 207, Note_off_c, 0, 68, 64
1, 207, Note_off_c, 0, 85, 64
1, 207, Note_off_c, 0, 89, 64
1, 211, Note_on_c, 0, 69, 21
1, 214, Note_on_c, 0, 68, 32
1, 214, Note_off_c, 0, 69, 64
1, 216, Note_on_c, 0, 71, 16
1, 217, Note_on_c, 0, 63, 29
1, 219, Note_off_c, 0, 71, 64
1, 219, Note_on_c, 0, 91, 30
1, 219, Note_on_c, 0, 96, 22
1, 219, Note_on_c, 0, 98, 21
1, 219, Note_on_c, 0, 99, 25
1, 219, Note_on_c, 0, 100, 16
1, 219, Note_on_c, 0, 102, 21
1, 220, Note_on_c, 0, 83, 17
1, 220, Note_on_c, 0, 85, 20
1, 220, Note_on_c, 0, 88, 21
1, 220, Note_on_c, 0, 90, 21
1, 220, Note_on_c, 0, 97, 21
1, 220, Note_on_c, 0, 101, 19
1, 221, Note_on_c, 0, 74, 18
1, 221, Note_on_c, 0, 89, 15
1, 221, Note_on_c, 0, 93, 15
1, 222, Note_on_c, 0, 57, 30
1, 222, Note_off_c, 0, 68, 64
1, 222, Note_on_c, 0, 69, 39
1, 222, Note_off_c, 0, 100, 64
1, 222, Note_off_c, 0, 102, 64
1, 223, Note_off_c, 0, 63, 64
1, 223, Note_off_c, 0, 88, 64
1, 223, Note_off_c, 0, 91, 64
1, 223, Note_off_c, 0, 98, 64
1, 224, Note_on_c, 0, 63, 36
1, 224, Note_off_c, 0, 74, 64
1, 224, Note_off_c, 0, 83, 64
1, 225, Note_on_c, 0, 73, 16
1, 225, Note_off_c, 0, 85, 64
1, 226, Note_off_c, 0, 57, 64
1, 226, Note_off_c, 0, 89, 64
1, 227, Note_on_c, 0, 68, 39
1, 227, Note_off_c, 0, 90, 64
1, 227, Note_off_c, 0, 93, 64
1, 227, Note_on_c, 0, 94, 19
1, 227, Note_on_c, 0, 102, 14
1, 228, Note_off_c, 0, 69, 64
1, 228, Note_off_c, 0, 73, 64
1, 228, Note_on_c, 0, 84, 9
1, 229, Note_off_c, 0, 68, 64
1, 229, Note_on_c, 0, 69, 50
1, 229, Note_on_c, 0, 72, 20
1, 229, Note_off_c, 0, 96, 64
1, 230, Note_off_c, 0, 97, 64
1, 230, Note_off_c, 0, 102, 64
1, 231, Note_on_c, 0, 56, 21
1, 231, Note_off_c, 0, 63, 64
1, 231, Note_off_c, 0, 94, 64
1, 231, Note_off_c, 0, 101, 64
1, 232, Note_on_c, 0, 63, 45
1, 232, Note_off_c, 0, 84, 64
1, 233, Note_off_c, 0, 69, 64
1, 233, Note_on_c, 0, 101, 10
1, 234, Note_off_c, 0, 56, 64
1, 234, Note_on_c, 0, 67, 36
1, 234, Note_off_c, 0, 72, 64
1, 234, Note_on_c, 0, 80, 13
1, 236, Note_off_c, 0, 63, 64
1, 236, Note_on_c, 0, 64, 30
1, 236, Note_off_c, 0, 67, 64
1, 236, Note_on_c, 0, 69, 44
1, 236, Note_off_c, 0, 99, 64
1, 236, Note_off_c, 0, 101, 64
1, 237, Note_on_c, 0, 67, 29
1, 237, Note_off_c, 0, 80, 64
1, 238, Note_on_c, 0, 63, 38
1, 238, Note_off_c, 0, 64, 64
1, 239, Note_on_c, 0, 57, 26
1, 239, Note_off_c, 0, 67, 64
1, 239, Note_on_c, 0, 82, 30
1, 239, Note_on_c, 0, 85, 26
1, 239, Note_on_c, 0, 90, 22
1, 239, Note_on_c, 0, 91, 24
1, 239, Note_on_c, 0, 92, 21
1, 239, Note_on_c, 0, 95, 19
1, 239, Note_on_c, 0, 96, 24
1, 239, Note_on_c, 0, 98, 14
1, 239, Note_on_c, 0, 99, 20
1, 240, Note_off_c, 0, 69, 64
1, 240, Note_on_c, 0, 78, 29
1, 240, Note_on_c, 0, 81, 31
1, 241, Note_off_c, 0, 63, 64
1, 241, Note_on_c, 0, 88, 16
1, 242, Note_off_c, 0, 57, 64
1, 242, Note_on_c, 0, 79, 23
1, 242, Note_off_c, 0, 96, 64
1, 243, Note_on_c, 0, 73, 30
1, 243, Note_off_c, 0, 78, 64
1, 243, Note_off_c, 0, 91, 64
1, 243, Note_off_c, 0, 92, 64
1, 243, Note_off_c, 0, 99, 64
1, 244, Note_on_c, 0, 76, 28
1, 244, Note_off_c, 0, 85, 64
1, 244, Note_off_c, 0, 88, 64
1, 244, Note_off_c, 0, 90, 64
1, 244, Note_off_c, 0, 98, 64
1, 245, Note_on_c, 0, 63, 22
1, 246, Note_on_c, 0, 68, 13
1, 246, Note_off_c, 0, 73, 64
1, 246, Note_on_c, 0, 74, 32
1, 246, Note_on_c, 0, 78, 16
1, 246, Note_on_c, 0, 84, 13
1, 246, Note_on_c, 0, 92, 9
1, 247, Note_off_c, 0, 79, 64
1, 247, Note_on_c, 0, 89, 23
1, 247, Note_on_c, 0, 98, 14
1, 248, Note_on_c, 0, 56, 13
1, 248, Note_on_c, 0, 71, 17
1, 248, Note_on_c, 0, 79, 32
1, 248, Note_on_c, 0, 97, 15
1, 249, Note_off_c, 0, 63, 64
1, 249, Note_off_c, 0, 68, 64
1, 249, Note_off_c, 0, 78, 64
1, 249, Note_off_c, 0, 82, 64
1, 249, Note_off_c, 0, 84, 64
1, 250, Note_on_c, 0, 69, 34
1, 250, Note_off_c, 0, 74, 64
1, 250, Note_on_c, 0, 90, 22
1, 251, Note_off_c, 0, 71, 64
1, 251, Note_off_c, 0, 76, 64
1, 251, Note_off_c, 0, 79, 64
1, 251, Note_on_c, 0, 84, 13
1, 251, Note_off_c, 0, 92, 64
1, 251, Note_off_c, 0, 98, 64
1, 252, Note_off_c, 0, 56, 64
1, 252, Note_off_c, 0, 81, 64
1, 252, Note_on_c, 0, 87, 14
1, 253, Note_on_c, 0, 65, 27
1, 253, Note_on_c, 0, 71, 19
1, 253, Note_on_c, 0, 78, 31
1, 253, Note_on_c, 0, 85, 14
1, 253, Note_on_c, 0, 91, 18
1, 253, Note_on_c, 0, 94, 15
1, 254, Note_on_c, 0, 68, 41
1, 254, Note_off_c, 0, 69, 64
1, 254, Note_on_c, 0, 74, 27
1, 254, Note_off_c, 0, 95, 64
1, 255, Note_off_c, 0, 84, 64
1, 255, Note_off_c, 0, 87, 64
1, 255, Note_on_c, 0, 88, 24
1, 255, Note_on_c, 0, 96, 14
1, 256, Note_off_c, 0, 71, 64
1, 256, Note_off_c, 0, 78, 64
1, 256, Note_on_c, 0, 79, 23
1, 256, Note_off_c, 0, 85, 64
1, 257, Note_on_c, 0, 62, 26
1, 257, Note_off_c, 0, 65, 64
1, 257, Note_off_c, 0, 68, 64
1, 257, Note_off_c, 0, 74, 64
1, 257, Note_on_c, 0, 77, 20
1, 257, Note_on_c, 0, 84, 37
1, 257, Note_on_c, 0, 86, 15
1, 257, Note_on_c, 0, 87, 26
1, 257, Note_off_c, 0, 97, 64
1, 258, Note_on_c, 0, 68, 36
1, 258, Note_off_c, 0, 89, 64
1, 258, Note_off_c, 0, 94, 64
1, 259, Note_on_c, 0, 56, 21
1, 259, Note_off_c, 0, 79, 64
1, 259, Note_on_c, 0, 85, 23
1, 259, Note_on_c, 0, 89, 25
1, 259, Note_off_c, 0, 96, 64
1, 260, Note_off_c, 0, 68, 64
1, 260, Note_on_c, 0, 69, 33
1, 260, Note_on_c, 0, 76, 21
1, 260, Note_off_c, 0, 77, 64
1, 260, Note_on_c, 0, 79, 20
1, 261, Note_off_c, 0, 62, 64
1, 261, Note_off_c, 0, 88, 64
1, 261, Note_off_c, 0, 90, 64
1, 262, Note_on_c, 0, 65, 37
1, 262, Note_on_c, 0, 68, 50
1, 262, Note_off_c, 0, 69, 64
1, 262, Note_on_c, 0, 72, 19
1, 262, Note_off_c, 0, 84, 64
1, 262, Note_off_c, 0, 87, 64
1, 263, Note_off_c, 0, 76, 64
1, 263, Note_off_c, 0, 79, 64
1, 263, Note_off_c, 0, 86, 64
1, 263, Note_off_c, 0, 89, 64
1, 263, Note_off_c, 0, 91, 64
1, 264, Note_off_c, 0, 65, 64
1, 264, Note_on_c, 0, 76, 22
1, 267, Note_off_c, 0, 56, 64
1, 267, Note_on_c, 0, 57, 25
1, 267, Note_on_c, 0, 64, 30
1, 267, Note_on_c, 0, 77, 24
1, 267, Note_on_c, 0, 79, 21
1, 268, Note_off_c, 0, 72, 64
1, 268, Note_off_c, 0, 76, 64
1, 268, Note_off_c, 0, 85, 64
1, 269, Note_on_c, 0, 63, 43
1, 269, Note_off_c, 0, 64, 64
1, 269, Note_on_c, 0, 100, 17
1, 270, Note_off_c, 0, 77, 64
1, 271, Note_off_c, 0, 57, 64
1, 271, Note_on_c, 0, 72, 17
1, 271, Note_off_c, 0, 79, 64
1, 271, Note_on_c, 0, 85, 37
1, 271, Note_on_c, 0, 103, 14
1, 272, Note_on_c, 0, 89, 16
1, 272, Note_off_c, 0, 100, 64
1, 274, Note_on_c, 0, 91, 28
1, 275, Note_off_c, 0, 72, 64
1, 275, Note_on_c, 0, 83, 35
1, 275, Note_on_c, 0, 86, 27
1, 275, Note_on_c, 0, 90, 26
1, 275, Note_on_c, 0, 94, 29
1, 275, Note_on_c, 0, 96, 15
1, 275, Note_on_c, 0, 99, 25
1, 275, Note_off_c, 0, 103, 64
1, 276, Note_on_c, 0, 73, 21
1, 276, Note_on_c, 0, 78, 20
1, 276, Note_on_c, 0, 88, 28
1, 276, Note_off_c, 0, 89, 64
1, 276, Note_on_c, 0, 93, 20
1, 277, Note_on_c, 0, 57, 67
1, 277, Note_off_c, 0, 63, 64
1, 277, Note_on_c, 0, 81, 23
1, 277, Note_off_c, 0, 83, 64
1, 277, Note_on_c, 0, 84, 35
1, 277, Note_on_c, 0, 87, 35
1, 278, Note_on_c, 0, 51, 74
1, 278, Note_off_c, 0, 57, 64
1, 278, Note_off_c, 0, 68, 64
1, 278, Note_on_c, 0, 89, 35
1, 278, Note_off_c, 0, 96, 64
1, 279, Note_on_c, 0, 50, 82
1, 279, Note_off_c, 0, 51, 64
1, 279, Note_off_c, 0, 73, 64
1, 279, Note_on_c, 0, 75, 16
1, 279, Note_off_c, 0, 78, 64
1, 279, Note_off_c, 0, 85, 64
1, 279, Note_off_c, 0, 86, 64
1, 279, Note_off_c, 0, 90, 64
1, 280, Note_on_c, 0, 48, 83
1, 280, Note_off_c, 0, 50, 64
1, 280, Note_on_c, 0, 68, 19
1, 280, Note_on_c, 0, 83, 31
1, 280, Note_off_c, 0, 84, 64
1, 280, Note_off_c, 0, 88, 64
1, 281, Note_on_c, 0, 45, 79
1, 281, Note_off_c, 0, 48, 64
1, 281, Note_off_c, 0, 81, 64
1, 281, Note_on_c, 0, 88, 21
1, 281, Note_on_c, 0, 92, 18
1, 281, Note_off_c, 0, 93, 64
1, 282, Note_on_c, 0, 44, 69
1, 282, Note_off_c, 0, 45, 64
1, 282, Note_on_c, 0, 57, 31
1, 282, Note_off_c, 0, 75, 64
1, 283, Note_on_c, 0, 42, 69
1, 283, Note_off_c, 0, 44, 64
1, 283, Note_on_c, 0, 77, 17
1, 283, Note_on_c, 0, 90, 30
1, 284, Note_on_c, 0, 40, 67
1, 284, Note_off_c, 0, 42, 64
1, 284, Note_off_c, 0, 68, 64
1, 284, Note_on_c, 0, 86, 30
1, 285, Note_on_c, 0, 38, 70
1, 285, Note_off_c, 0, 40, 64
1, 285, Note_on_c, 0, 63, 13
1, 285, Note_off_c, 0, 87, 64
1, 285, Note_off_c, 0, 92, 64
1, 286, Note_on_c, 0, 36, 68
1, 286, Note_off_c, 0, 38, 64
1, 286, Note_off_c, 0, 57, 64
1, 286, Note_on_c, 0, 84, 24
1, 286, Note_on_c, 0, 87, 37
1, 286, Note_off_c, 0, 88, 64
1, 286, Note_on_c, 0, 92, 29
1, 287, Note_on_c, 0, 35, 63
1, 287, Note_off_c, 0, 36, 64
1, 287, Note_on_c, 0, 73, 10
1, 287, Note_off_c, 0, 86, 64
1, 287, Note_on_c, 0, 88, 20
1, 287, Note_off_c, 0, 89, 64
1, 287, Note_off_c, 0, 94, 64
1, 288, Note_off_c, 0, 63, 64
1, 288, Note_off_c, 0, 77, 64
1, 288, Note_on_c, 0, 82, 25
1, 288, Note_on_c, 0, 85, 19
1, 288, Note_off_c, 0, 99, 64
1, 289, Note_on_c, 0, 45, 43
1, 289, Note_off_c, 0, 83, 64
1, 289, Note_on_c, 0, 89, 11
1, 289, Note_off_c, 0, 91, 64
1, 290, Note_off_c, 0, 35, 64
1, 290, Note_on_c, 0, 63, 19
1, 290, Note_on_c, 0, 68, 25
1, 290, Note_off_c, 0, 84, 64
1, 291, Note_on_c, 0, 34, 39
1, 291, Note_off_c, 0, 45, 64
1, 291, Note_on_c, 0, 91, 33
1, 292, Note_off_c, 0, 73, 64
1, 292, Note_on_c, 0, 74, 13
1, 292, Note_on_c, 0, 84, 25
1, 292, Note_off_c, 0, 88, 64
1, 293, Note_on_c, 0, 32, 39
1, 293, Note_off_c, 0, 34, 64
1, 293, Note_on_c, 0, 47, 47
1, 293, Note_off_c, 0, 63, 64
1, 293, Note_on_c, 0, 80, 28
1, 293, Note_off_c, 0, 82, 64
1, 293, Note_off_c, 0, 85, 64
1, 293, Note_off_c, 0, 89, 64
1, 294, Note_off_c, 0, 68, 64
1, 294, Note_on_c, 0, 83, 40
1, 295, Note_off_c, 0, 47, 64
1, 295, Note_on_c, 0, 68, 36
1, 295, Note_off_c, 0, 74, 64
1, 295, Note_on_c, 0, 78, 35
1, 295, Note_on_c, 0, 85, 35
1, 295, Note_on_c, 0, 96, 27
1, 295, Note_on_c, 0, 101, 15
1, 296, Note_off_c, 0, 32, 64
1, 296, Note_off_c, 0, 80, 64
1, 296, Note_on_c, 0, 81, 36
1, 296, Note_off_c, 0, 84, 64
1, 296, Note_on_c, 0, 86, 31
1, 296, Note_on_c, 0, 88, 31
1, 297, Note_on_c, 0, 63, 31
1, 297, Note_on_c, 0, 75, 32
1, 297, Note_on_c, 0, 82, 41
1, 297, Note_off_c, 0, 87, 64
1, 298, Note_off_c, 0, 68, 64
1, 298, Note_on_c, 0, 79, 26
1, 298, Note_off_c, 0, 83, 64
1, 298, Note_on_c, 0, 84, 30
1, 298, Note_off_c, 0, 92, 64
1, 299, Note_on_c, 0, 35, 56
1, 299, Note_on_c, 0, 48, 65
1, 299, Note_on_c, 0, 56, 44
1, 299, Note_off_c, 0, 75, 64
1, 299, Note_on_c, 0, 89, 29
1, 300, Note_off_c, 0, 48, 64
1, 300, Note_on_c, 0, 66, 31
1, 300, Note_on_c, 0, 68, 45
1, 300, Note_on_c, 0, 76, 31
1, 300, Note_off_c, 0, 91, 64
1, 300, Note_off_c, 0, 101, 64
1, 301, Note_off_c, 0, 35, 64
1, 301, Note_on_c, 0, 40, 61
1, 301, Note_off_c, 0, 63, 64
1, 301, Note_off_c, 0, 79, 64
1, 301, Note_off_c, 0, 81, 64
1, 302, Note_off_c, 0, 56, 64
1, 302, Note_off_c, 0, 66, 64
1, 302, Note_on_c, 0, 74, 26
1, 302, Note_off_c, 0, 84, 64
1, 302, Note_off_c, 0, 88, 64
1, 302, Note_on_c, 0, 91, 24
1, 303, Note_off_c, 0, 40, 64
1, 303, Note_on_c, 0, 77, 33
1, 304, Note_on_c, 0, 56, 39
1, 304, Note_off_c, 0, 76, 64
1, 304, Note_off_c, 0, 78, 64
1, 304, Note_off_c, 0, 90, 64
1, 304, Note_on_c, 0, 93, 18
1, 305, Note_on_c, 0, 73, 15
1, 305, Note_off_c, 0, 74, 64
1, 305, Note_on_c, 0, 83, 25
1, 305, Note_off_c, 0, 91, 64
1, 305, Note_on_c, 0, 99, 11
1, 306, Note_on_c, 0, 65, 37
1, 306, Note_on_c, 0, 81, 19
1, 306, Note_on_c, 0, 103, 12
1, 307, Note_off_c, 0, 56, 64
1, 307, Note_on_c, 0, 57, 42
1, 307, Note_on_c, 0, 67, 38
1, 307, Note_off_c, 0, 68, 64
1, 307, Note_on_c, 0, 75, 33
1, 307, Note_off_c, 0, 77, 64
1, 307, Note_off_c, 0, 82, 64
1, 307, Note_on_c, 0, 91, 28
1, 308, Note_on_c, 0, 63, 36
1, 308, Note_on_c, 0, 84, 29
1, 308, Note_on_c, 0, 90, 31
1, 308, Note_off_c, 0, 99, 64
1, 309, Note_off_c, 0, 65, 64
1, 309, Note_on_c, 0, 66, 40
1, 309, Note_off_c, 0, 67, 64
1, 309, Note_off_c, 0, 103, 64
1, 310, Note_on_c, 0, 39, 43
1, 310, Note_on_c, 0, 50, 35
1, 310, Note_off_c, 0, 57, 64
1, 310, Note_on_c, 0, 67, 38
1, 310, Note_off_c, 0, 73, 64
1, 310, Note_on_c, 0, 77, 24
1, 311, Note_off_c, 0, 63, 64
1, 311, Note_off_c, 0, 66, 64
1, 311, Note_off_c, 0, 75, 64
1, 311, Note_off_c, 0, 85, 64
1, 311, Note_on_c, 0, 94, 26
1, 312, Note_off_c, 0, 39, 64
1, 312, Note_off_c, 0, 50, 64
1, 312, Note_on_c, 0, 51, 39
1, 312, Note_on_c, 0, 87, 28
1, 313, Note_off_c, 0, 93, 64
1, 313, Note_on_c, 0, 97, 13
1, 314, Note_off_c, 0, 51, 64
1, 314, Note_off_c, 0, 67, 64
1, 314, Note_on_c, 0, 68, 23
1, 314, Note_on_c, 0, 73, 11
1, 314, Note_off_c, 0, 81, 64
1, 314, Note_off_c, 0, 83, 64
1, 315, Note_on_c, 0, 61, 31
1, 315, Note_on_c, 0, 82, 27
1, 315, Note_off_c, 0, 86, 64
1, 315, Note_off_c, 0, 96, 64
1, 316, Note_on_c, 0, 50, 48
1, 316, Note_on_c, 0, 55, 41
1, 316, Note_off_c, 0, 77, 64
1, 316, Note_off_c, 0, 89, 64
1, 317, Note_off_c, 0, 61, 64
1, 317, Note_on_c, 0, 66, 18
1, 317, Note_on_c, 0, 72, 14
1, 317, Note_off_c, 0, 73, 64
1, 317, Note_on_c, 0, 75, 25
1, 317, Note_off_c, 0, 84, 64
1, 317, Note_on_c, 0, 86, 19
1, 317, Note_on_c, 0, 89, 22
1, 318, Note_off_c, 0, 50, 64
1, 318, Note_off_c, 0, 55, 64
1, 318, Note_off_c, 0, 68, 64
1, 318, Note_on_c, 0, 84, 16
1, 318, Note_off_c, 0, 87, 64
1, 318, Note_off_c, 0, 97, 64
1, 319, Note_on_c, 0, 69, 15
1, 320, Note_off_c, 0, 66, 64
1, 320, Note_off_c, 0, 75, 64
1, 320, Note_on_c, 0, 76, 26
1, 320, Note_on_c, 0, 83, 27
1, 320, Note_off_c, 0, 94, 64
1, 321, Note_on_c, 0, 50, 47
1, 321, Note_on_c, 0, 81, 22
1, 321, Note_off_c, 0, 82, 64
1, 322, Note_on_c, 0, 57, 37
1, 322, Note_off_c, 0, 72, 64
1, 322, Note_on_c, 0, 78, 22
1, 323, Note_off_c, 0, 69, 64
1, 323, Note_off_c, 0, 86, 64
1, 323, Note_off_c, 0, 90, 64
1, 324, Note_off_c, 0, 50, 64
1, 324, Note_off_c, 0, 76, 64
1, 324, Note_off_c, 0, 84, 64
1, 325, Note_on_c, 0, 84, 22
1, 325, Note_off_c, 0, 89, 64
1, 326, Note_on_c, 0, 45, 53
1, 326, Note_off_c, 0, 57, 64
1, 326, Note_on_c, 0, 97, 11
1, 327, Note_on_c, 0, 52, 45
1, 327, Note_on_c, 0, 56, 42
1, 327, Note_on_c, 0, 74, 17
1, 327, Note_off_c, 0, 91, 64
1, 328, Note_off_c, 0, 45, 64
1, 328, Note_on_c, 0, 82, 20
1, 328, Note_on_c, 0, 88, 16
1, 329, Note_off_c, 0, 52, 64
1, 329, Note_off_c, 0, 56, 64
1, 329, Note_off_c, 0, 78, 64
1, 329, Note_off_c, 0, 81, 64
1, 329, Note_off_c, 0, 84, 64
1, 329, Note_on_c, 0, 85, 20
1, 329, Note_off_c, 0, 97, 64
1, 330, Note_on_c, 0, 84, 18
1, 330, Note_on_c, 0, 87, 18
1, 332, Note_on_c, 0, 47, 48
1, 332, Note_on_c, 0, 54, 44
1, 332, Note_on_c, 0, 73, 21
1, 332, Note_off_c, 0, 74, 64
1, 332, Note_on_c, 0, 80, 27
1, 332, Note_off_c, 0, 88, 64
1, 332, Note_on_c, 0, 89, 18
1, 332, Note_on_c, 0, 90, 21
1, 333, Note_on_c, 0, 60, 39
1, 333, Note_off_c, 0, 84, 64
1, 334, Note_off_c, 0, 47, 64
1, 334, Note_off_c, 0, 54, 64
1, 334, Note_off_c, 0, 83, 64
1, 334, Note_on_c, 0, 84, 21
1, 334, Note_off_c, 0, 85, 64
1, 335, Note_on_c, 0, 48, 58
1, 335, Note_off_c, 0, 60, 64
1, 335, Note_off_c, 0, 73, 64
1, 335, Note_on_c, 0, 85, 14
1, 335, Note_off_c, 0, 87, 64
1, 336, Note_on_c, 0, 68, 42
1, 336, Note_off_c, 0, 80, 64
1, 336, Note_on_c, 0, 81, 27
1, 336, Note_off_c, 0, 82, 64
1, 336, Note_on_c, 0, 83, 25
1, 336, Note_on_c, 0, 86, 26
1, 336, Note_on_c, 0, 88, 21
1, 336, Note_off_c, 0, 90, 64
1, 337, Note_off_c, 0, 48, 64
1, 337, Note_on_c, 0, 56, 41
1, 337, Note_off_c, 0, 84, 64
1, 337, Note_on_c, 0, 87, 16
1, 337, Note_off_c, 0, 89, 64
1, 337, Note_on_c, 0, 92, 10
1, 338, Note_on_c, 0, 40, 46
1, 338, Note_on_c, 0, 80, 42
1, 338, Note_on_c, 0, 84, 13
1, 338, Note_on_c, 0, 90, 26
1, 339, Note_off_c, 0, 56, 64
1, 339, Note_off_c, 0, 88, 64
1, 340, Note_off_c, 0, 40, 64
1, 340, Note_on_c, 0, 74, 17
1, 340, Note_off_c, 0, 81, 64
1, 340, Note_on_c, 0, 94, 14
1, 341, Note_on_c, 0, 57, 50
1, 342, Note_on_c, 0, 66, 36
1, 342, Note_off_c, 0, 84, 64
1, 342, Note_off_c, 0, 92, 64
1, 343, Note_on_c, 0, 45, 55
1, 343, Note_on_c, 0, 56, 36
1, 343, Note_off_c, 0, 57, 64
1, 343, Note_off_c, 0, 68, 64
1, 343, Note_on_c, 0, 73, 22
1, 343, Note_off_c, 0, 74, 64
1, 343, Note_on_c, 0, 96, 15
1, 344, Note_on_c, 0, 63, 29
1, 344, Note_off_c, 0, 66, 64
1, 344, Note_on_c, 0, 69, 29
1, 344, Note_on_c, 0, 76, 18
1, 344, Note_off_c, 0, 85, 64
1, 344, Note_off_c, 0, 87, 64
1, 345, Note_off_c, 0, 45, 64
1, 345, Note_off_c, 0, 56, 64
1, 345, Note_on_c, 0, 57, 41
1, 345, Note_off_c, 0, 86, 64
1, 345, Note_on_c, 0, 87, 27
1, 346, Note_off_c, 0, 63, 64
1, 346, Note_on_c, 0, 68, 40
1, 346, Note_off_c, 0, 69, 64
1, 346, Note_on_c, 0, 78, 12
1, 346, Note_off_c, 0, 83, 64
1, 346, Note_on_c, 0, 86, 30
1, 346, Note_off_c, 0, 96, 64
1, 347, Note_off_c, 0, 57, 64
1, 347, Note_off_c, 0, 73, 64
1, 347, Note_on_c, 0, 88, 21
1, 348, Note_on_c, 0, 63, 38
1, 348, Note_off_c, 0, 76, 64
1, 348, Note_off_c, 0, 94, 64
1, 349, Note_on_c, 0, 84, 14
1, 350, Note_on_c, 0, 48, 37
1, 350, Note_on_c, 0, 57, 51
1, 350, Note_on_c, 0, 67, 40
1, 350, Note_off_c, 0, 68, 64
1, 350, Note_off_c, 0, 78, 64
1, 351, Note_on_c, 0, 72, 29
1, 351, Note_on_c, 0, 82, 24
1, 351, Note_on_c, 0, 91, 24
1, 352, Note_off_c, 0, 48, 64
1, 352, Note_off_c, 0, 67, 64
1, 352, Note_on_c, 0, 78, 29
1, 352, Note_on_c, 0, 96, 18
1, 353, Note_off_c, 0, 63, 64
1, 353, Note_off_c, 0, 80, 64
1, 353, Note_on_c, 0, 81, 40
1, 353, Note_off_c, 0, 84, 64
1, 353, Note_on_c, 0, 85, 25
1, 353, Note_off_c, 0, 88, 64
1, 354, Note_off_c, 0, 57, 64
1, 354, Note_on_c, 0, 77, 25
1, 354, Note_off_c, 0, 78, 64
1, 354, Note_off_c, 0, 91, 64
1, 355, Note_on_c, 0, 45, 56
1, 355, Note_off_c, 0, 72, 64
1, 355, Note_on_c, 0, 73, 28
1, 355, Note_on_c, 0, 91, 13
1, 355, Note_off_c, 0, 96, 64
1, 356, Note_on_c, 0, 56, 34
1, 356, Note_off_c, 0, 86, 64
1, 356, Note_off_c, 0, 90, 64
1, 357, Note_off_c, 0, 45, 64
1, 357, Note_on_c, 0, 76, 31
1, 357, Note_off_c, 0, 77, 64
1, 357, Note_on_c, 0, 79, 29
1, 357, Note_on_c, 0, 89, 10
1, 358, Note_off_c, 0, 56, 64
1, 358, Note_off_c, 0, 73, 64
1, 358, Note_on_c, 0, 74, 32
1, 358, Note_off_c, 0, 82, 64
1, 358, Note_off_c, 0, 91, 64
1, 359, Note_on_c, 0, 77, 30
1, 359, Note_off_c, 0, 79, 64
1, 359, Note_off_c, 0, 81, 64
1, 359, Note_off_c, 0, 85, 64
1, 359, Note_on_c, 0, 94, 16
1, 360, Note_on_c, 0, 81, 42
1, 360, Note_on_c, 0, 83, 15
1, 360, Note_off_c, 0, 87, 64
1, 361, Note_on_c, 0, 55, 35
1, 361, Note_on_c, 0, 72, 30
1, 361, Note_on_c, 0, 92, 25
1, 362, Note_off_c, 0, 74, 64
1, 362, Note_on_c, 0, 75, 35
1, 362, Note_off_c, 0, 77, 64
1, 362, Note_off_c, 0, 89, 64
1, 362, Note_on_c, 0, 90, 21
1, 362, Note_on_c, 0, 96, 15
1, 363, Note_off_c, 0, 55, 64
1, 363, Note_off_c, 0, 76, 64
1, 363, Note_on_c, 0, 77, 33
1, 363, Note_on_c, 0, 80, 34
1, 363, Note_off_c, 0, 83, 64
1, 363, Note_on_c, 0, 87, 36
1, 363, Note_off_c, 0, 94, 64
1, 364, Note_on_c, 0, 74, 17
1, 364, Note_off_c, 0, 75, 64
1, 364, Note_off_c, 0, 81, 64
1, 364, Note_off_c, 0, 92, 64
1, 364, Note_on_c, 0, 97, 17
1, 365, Note_off_c, 0, 96, 64
1, 366, Note_on_c, 0, 47, 40
1, 366, Note_off_c, 0, 77, 64
1, 366, Note_on_c, 0, 78, 26
1, 366, Note_on_c, 0, 82, 18
1, 368, Note_off_c, 0, 47, 64
1, 368, Note_off_c, 0, 74, 64
1, 368, Note_on_c, 0, 86, 29
1, 368, Note_off_c, 0, 87, 64
1, 369, Note_off_c, 0, 72, 64
1, 369, Note_off_c, 0, 78, 64
1, 369, Note_off_c, 0, 82, 64
1, 369, Note_on_c, 0, 83, 26
1, 369, Note_on_c, 0, 87, 35
1, 370, Note_on_c, 0, 75, 35
1, 370, Note_on_c, 0, 77, 24
1, 370, Note_on_c, 0, 84, 21
1, 371, Note_on_c, 0, 79, 32
1, 371, Note_off_c, 0, 80, 64
1, 371, Note_on_c, 0, 81, 44
1, 371, Note_on_c, 0, 92, 28
1, 371, Note_off_c, 0, 97, 64
1, 372, Note_on_c, 0, 46, 42
1, 372, Note_on_c, 0, 72, 36
1, 372, Note_on_c, 0, 74, 38
1, 372, Note_off_c, 0, 75, 64
1, 372, Note_on_c, 0, 82, 30
1, 373, Note_off_c, 0, 79, 64
1, 373, Note_on_c, 0, 80, 41
1, 373, Note_off_c, 0, 81, 64
1, 373, Note_off_c, 0, 83, 64
1, 373, Note_off_c, 0, 84, 64
1, 373, Note_off_c, 0, 86, 64
1, 374, Note_on_c, 0, 45, 45
1, 374, Note_off_c, 0, 46, 64
1, 374, Note_on_c, 0, 66, 41
1, 374, Note_off_c, 0, 74, 64
1, 374, Note_off_c, 0, 77, 64
1, 374, Note_on_c, 0, 85, 10
1, 374, Note_on_c, 0, 89, 18
1, 374, Note_off_c, 0, 90, 64
1, 375, Note_on_c, 0, 36, 45
1, 375, Note_on_c, 0, 53, 38
1, 375, Note_on_c, 0, 68, 40
1, 376, Note_off_c, 0, 45, 64
1, 377, Note_off_c, 0, 36, 64
1, 377, Note_off_c, 0, 53, 64
1, 377, Note_off_c, 0, 66, 64
1, 377, Note_off_c, 0, 68, 64
1, 377, Note_on_c, 0, 83, 30
1, 377, Note_off_c, 0, 89, 64
1, 377, Note_off_c, 0, 92, 64
1, 378, Note_on_c, 0, 45, 42
1, 378, Note_on_c, 0, 66, 47
1, 378, Note_off_c, 0, 72, 64
1, 378, Note_on_c, 0, 77, 20
1, 378, Note_off_c, 0, 82, 64
1, 378, Note_off_c, 0, 85, 64
1, 379, Note_on_c, 0, 82, 18
1, 379, Note_on_c, 0, 85, 21
1, 380, Note_off_c, 0, 45, 64
1, 380, Note_on_c, 0, 50, 34
1, 380, Note_on_c, 0, 56, 39
1, 380, Note_on_c, 0, 61, 42
1, 380, Note_off_c, 0, 83, 64
1, 380, Note_on_c, 0, 91, 17
1, 381, Note_off_c, 0, 77, 64
1, 382, Note_off_c, 0, 50, 64
1, 382, Note_off_c, 0, 66, 64
1, 382, Note_on_c, 0, 84, 22
1, 382, Note_off_c, 0, 85, 64
1, 383, Note_on_c, 0, 50, 37
1, 383, Note_off_c, 0, 56, 64
1, 383, Note_on_c, 0, 63, 36
1, 383, Note_off_c, 0, 87, 64
1, 383, Note_off_c, 0, 91, 64
1, 384, Note_off_c, 0, 61, 64
1, 384, Note_on_c, 0, 74, 24
1, 384, Note_on_c, 0, 85, 13
1, 385, Note_on_c, 0, 67, 27
1, 386, Note_off_c, 0, 50, 64
1, 386, Note_off_c, 0, 63, 64
1, 386, Note_off_c, 0, 82, 64
1, 387, Note_on_c, 0, 69, 27
1, 387, Note_off_c, 0, 74, 64
1, 387, Note_on_c, 0, 78, 24
1, 387, Note_off_c, 0, 80, 64
1, 387, Note_off_c, 0, 84, 64
1, 388, Note_off_c, 0, 67, 64
1, 388, Note_on_c, 0, 88, 23
1, 389, Note_on_c, 0, 46, 32
1, 389, Note_on_c, 0, 57, 32
1, 389, Note_on_c, 0, 65, 25
1, 389, Note_on_c, 0, 74, 36
1, 389, Note_on_c, 0, 80, 47
1, 389, Note_on_c, 0, 84, 17
1, 390, Note_on_c, 0, 68, 21
1, 390, Note_off_c, 0, 69, 64
1, 390, Note_on_c, 0, 72, 37
1, 390, Note_off_c, 0, 78, 64
1, 390, Note_off_c, 0, 85, 64
1, 390, Note_on_c, 0, 87, 35
1, 390, Note_on_c, 0, 90, 13
1, 391, Note_off_c, 0, 46, 64
1, 391, Note_on_c, 0, 51, 44
1, 392, Note_off_c, 0, 57, 64
1, 392, Note_off_c, 0, 65, 64
1, 392, Note_off_c, 0, 72, 64
1, 392, Note_off_c, 0, 74, 64
1, 392, Note_on_c, 0, 83, 17
1, 393, Note_off_c, 0, 51, 64
1, 394, Note_off_c, 0, 68, 64
1, 394, Note_on_c, 0, 85, 18
1, 394, Note_off_c, 0, 87, 64
1, 394, Note_off_c, 0, 88, 64
1, 395, Note_on_c, 0, 66, 26
1, 395, Note_on_c, 0, 82, 20
1, 395, Note_off_c, 0, 84, 64
1, 396, Note_off_c, 0, 83, 64
1, 396, Note_on_c, 0, 86, 12
1, 398, Note_on_c, 0, 45, 58
1, 398, Note_off_c, 0, 66, 64
1, 398, Note_off_c, 0, 80, 64
1, 398, Note_off_c, 0, 85, 64
1, 399, Note_on_c, 0, 73, 10
1, 399, Note_off_c, 0, 86, 64
1, 399, Note_off_c, 0, 90, 64
1, 400, Note_on_c, 0, 66, 28
1, 400, Note_on_c, 0, 80, 32
1, 400, Note_off_c, 0, 82, 64
1, 400, Note_on_c, 0, 87, 23
1, 401, Note_off_c, 0, 45, 64
1, 401, Note_on_c, 0, 46, 47
1, 401, Note_on_c, 0, 53, 35
1, 402, Note_on_c, 0, 63, 15
1, 402, Note_off_c, 0, 73, 64
1, 403, Note_off_c, 0, 53, 64
1, 403, Note_on_c, 0, 84, 12
1, 403, Note_on_c, 0, 86, 13
1, 404, Note_off_c, 0, 46, 64
1, 404, Note_off_c, 0, 87, 64
1, 406, Note_off_c, 0, 84, 64
1, 407, Note_on_c, 0, 52, 36
1, 407, Note_off_c, 0, 63, 64
1, 407, Note_off_c, 0, 66, 64
1, 407, Note_on_c, 0, 68, 21
1, 407, Note_on_c, 0, 85, 13
1, 407, Note_off_c, 0, 86, 64
1, 407, Note_on_c, 0, 89, 15
1, 407, Note_on_c, 0, 90, 22
1, 408, Note_on_c, 0, 78, 18
1, 409, Note_on_c, 0, 75, 18
1, 409, Note_on_c, 0, 94, 15
1, 410, Note_off_c, 0, 52, 64
1, 410, Note_on_c, 0, 66, 47
1, 410, Note_on_c, 0, 79, 25
1, 410, Note_on_c, 0, 82, 26
1, 410, Note_off_c, 0, 89, 64
1, 411, Note_on_c, 0, 53, 41
1, 411, Note_on_c, 0, 63, 34
1, 411, Note_off_c, 0, 68, 64
1, 411, Note_on_c, 0, 88, 16
1, 412, Note_on_c, 0, 45, 54
1, 412, Note_off_c, 0, 80, 64
1, 412, Note_off_c, 0, 90, 64
1, 413, Note_off_c, 0, 78, 64
1, 413, Note_off_c, 0, 94, 64
1, 414, Note_off_c, 0, 45, 64
1, 414, Note_off_c, 0, 53, 64
1, 414, Note_off_c, 0, 75, 64
1, 414, Note_off_c, 0, 88, 64
1, 415, Note_off_c, 0, 79, 64
1, 415, Note_on_c, 0, 80, 33
1, 415, Note_off_c, 0, 82, 64
1, 415, Note_on_c, 0, 83, 15
1, 415, Note_off_c, 0, 85, 64
1, 416, Note_on_c, 0, 45, 37
1, 416, Note_off_c, 0, 63, 64
1, 417, Note_on_c, 0, 76, 18
1, 417, Note_on_c, 0, 79, 28
1, 417, Note_on_c, 0, 94, 18
1, 418, Note_on_c, 0, 63, 30
1, 418, Note_on_c, 0, 73, 23
1, 418, Note_on_c, 0, 81, 25
1, 418, Note_on_c, 0, 89, 20
1, 419, Note_off_c, 0, 45, 64
1, 419, Note_on_c, 0, 47, 29
1, 419, Note_on_c, 0, 102, 17
1, 420, Note_off_c, 0, 76, 64
1, 420, Note_off_c, 0, 79, 64
1, 420, Note_on_c, 0, 82, 21
1, 420, Note_off_c, 0, 83, 64
1, 420, Note_off_c, 0, 94, 64
1, 420, Note_on_c, 0, 99, 10
1, 421, Note_off_c, 0, 47, 64
1, 421, Note_on_c, 0, 61, 25
1, 421, Note_off_c, 0, 63, 64
1, 421, Note_off_c, 0, 66, 64
1, 421, Note_off_c, 0, 81, 64
1, 421, Note_on_c, 0, 87, 16
1, 422, Note_on_c, 0, 66, 35
1, 422, Note_off_c, 0, 73, 64
1, 422, Note_off_c, 0, 80, 64
1, 423, Note_on_c, 0, 84, 21
1, 423, Note_on_c, 0, 85, 21
1, 423, Note_on_c, 0, 92, 20
1, 423, Note_on_c, 0, 103, 13
1, 424, Note_off_c, 0, 61, 64
1, 424, Note_off_c, 0, 66, 64
1, 424, Note_off_c, 0, 82, 64
1, 424, Note_off_c, 0, 99, 64
1, 425, Note_on_c, 0, 47, 34
1, 425, Note_on_c, 0, 60, 25
1, 425, Note_on_c, 0, 66, 23
1, 425, Note_off_c, 0, 89, 64
1, 425, Note_off_c, 0, 102, 64
1, 426, Note_on_c, 0, 75, 12
1, 426, Note_off_c, 0, 92, 64
1, 426, Note_off_c, 0, 103, 64
1, 427, Note_on_c, 0, 88, 14
1, 428, Note_on_c, 0, 45, 31
1, 428, Note_off_c, 0, 47, 64
1, 428, Note_off_c, 0, 66, 64
1, 428, Note_off_c, 0, 85, 64
1, 428, Note_on_c, 0, 92, 14
1, 429, Note_off_c, 0, 60, 64
1, 429, Note_on_c, 0, 69, 13
1, 429, Note_off_c, 0, 75, 64
1, 429, Note_off_c, 0, 84, 64
1, 430, Note_on_c, 0, 55, 30
1, 431, Note_off_c, 0, 45, 64
1, 431, Note_off_c, 0, 87, 64
1, 431, Note_off_c, 0, 92, 64
1, 432, Note_off_c, 0, 55, 64
1, 432, Note_on_c, 0, 61, 30
1, 432, Note_on_c, 0, 66, 23
1, 433, Note_on_c, 0, 53, 33
1, 434, Note_off_c, 0, 69, 64
1, 434, Note_on_c, 0, 80, 15
1, 434, Note_on_c, 0, 86, 16
1, 434, Note_off_c, 0, 88, 64
1, 436, Note_off_c, 0, 53, 64
1, 436, Note_off_c, 0, 66, 64
1, 437, Note_on_c, 0, 45, 41
1, 437, Note_on_c, 0, 55, 43
1, 438, Note_off_c, 0, 61, 64
1, 439, Note_on_c, 0, 54, 36
1, 439, Note_off_c, 0, 55, 64
1, 439, Note_on_c, 0, 79, 14
1, 440, Note_off_c, 0, 45, 64
1, 440, Note_on_c, 0, 46, 46
1, 440, Note_on_c, 0, 61, 25
1, 440, Note_off_c, 0, 80, 64
1, 441, Note_off_c, 0, 54, 64
1, 441, Note_off_c, 0, 86, 64
1, 442, Note_on_c, 0, 45, 51
1, 442, Note_off_c, 0, 46, 64
1, 442, Note_on_c, 0, 66, 16
1, 442, Note_off_c, 0, 79, 64
1, 442, Note_on_c, 0, 90, 14
1, 443, Note_off_c, 0, 61, 64
1, 444, Note_off_c, 0, 45, 64
1, 444, Note_on_c, 0, 46, 40
1, 445, Note_off_c, 0, 66, 64
1, 445, Note_on_c, 0, 91, 11
1, 445, Note_on_c, 0, 93, 16
1, 446, Note_on_c, 0, 45, 46
1, 446, Note_off_c, 0, 46, 64
1, 446, Note_on_c, 0, 89, 19
1, 446, Note_off_c, 0, 90, 64
1, 446, Note_on_c, 0, 95, 12
1, 447, Note_on_c, 0, 64, 22
1, 447, Note_on_c, 0, 80, 27
1, 447, Note_on_c, 0, 85, 15
1, 448, Note_on_c, 0, 87, 19
1, 448, Note_off_c, 0, 93, 64
1, 448, Note_on_c, 0, 98, 17
1, 448, Note_on_c, 0, 100, 13
1, 448, Note_on_c, 0, 102, 23
1, 449, Note_on_c, 0, 84, 15
1, 449, Note_off_c, 0, 89, 64
1, 450, Note_off_c, 0, 45, 64
1, 450, Note_on_c, 0, 61, 37
1, 450, Note_off_c, 0, 64, 64
1, 450, Note_off_c, 0, 80, 64
1, 450, Note_off_c, 0, 91, 64
1, 450, Note_off_c, 0, 95, 64
1, 451, Note_off_c, 0, 85, 64
1, 451, Note_off_c, 0, 87, 64
1, 451, Note_on_c, 0, 88, 15
1, 451, Note_off_c, 0, 100, 64
1, 452, Note_on_c, 0, 66, 37
1, 452, Note_on_c, 0, 69, 26
1, 452, Note_on_c, 0, 93, 13
1, 453, Note_on_c, 0, 47, 36
1, 453, Note_on_c, 0, 92, 11
1, 453, Note_off_c, 0, 102, 64
1, 454, Note_on_c, 0, 95, 15
1, 455, Note_off_c, 0, 47, 64
1, 455, Note_on_c, 0, 53, 34
1, 455, Note_off_c, 0, 66, 64
1, 455, Note_on_c, 0, 68, 17
1, 455, Note_off_c, 0, 69, 64
1, 455, Note_off_c, 0, 88, 64
1, 455, Note_off_c, 0, 93, 64
1, 456, Note_on_c, 0, 87, 16
1, 456, Note_on_c, 0, 94, 14
1, 456, Note_off_c, 0, 98, 64
1, 457, Note_off_c, 0, 53, 64
1, 457, Note_off_c, 0, 61, 64
1, 457, Note_on_c, 0, 81, 23
1, 457, Note_on_c, 0, 86, 16
1, 457, Note_on_c, 0, 97, 12
1, 457, Note_on_c, 0, 103, 15
1, 458, Note_off_c, 0, 68, 64
1, 459, Note_on_c, 0, 66, 41
1, 459, Note_on_c, 0, 80, 17
1, 459, Note_off_c, 0, 87, 64
1, 459, Note_off_c, 0, 92, 64
1, 459, Note_off_c, 0, 94, 64
1, 460, Note_off_c, 0, 81, 64
1, 460, Note_off_c, 0, 103, 64
1, 461, Note_on_c, 0, 82, 19
1, 461, Note_off_c, 0, 84, 64
1, 461, Note_off_c, 0, 86, 64
1, 461, Note_off_c, 0, 95, 64
1, 462, Note_on_c, 0, 69, 24
1, 462, Note_on_c, 0, 76, 18
1, 462, Note_off_c, 0, 80, 64
1, 463, Note_off_c, 0, 66, 64
1, 464, Note_off_c, 0, 97, 64
1, 465, Note_off_c, 0, 76, 64
1, 466, Note_off_c, 0, 69, 64
1, 467, Note_off_c, 0, 82, 64
1, 468, Note_on_c, 0, 46, 31
1, 469, Note_on_c, 0, 66, 27
1, 469, Note_on_c, 0, 76, 18
1, 469, Note_on_c, 0, 85, 12
1, 470, Note_off_c, 0, 46, 64
1, 470, Note_on_c, 0, 47, 32
1, 471, Note_on_c, 0, 83, 10
1, 472, Note_off_c, 0, 47, 64
1, 472, Note_off_c, 0, 85, 64
1, 473, Note_off_c, 0, 66, 64
1, 473, Note_off_c, 0, 76, 64
1, 473, Note_on_c, 0, 81, 29
1, 473, Note_on_c, 0, 86, 28
1, 474, Note_on_c, 0, 64, 16
1, 475, Note_off_c, 0, 83, 64
1, 476, Note_on_c, 0, 80, 22
1, 476, Note_off_c, 0, 81, 64
1, 476, Note_on_c, 0, 87, 26
1, 478, Note_on_c, 0, 55, 30
1, 478, Note_off_c, 0, 86, 64
1, 478, Note_on_c, 0, 90, 18
1, 479, Note_on_c, 0, 78, 13
1, 479, Note_on_c, 0, 84, 19
1, 479, Note_off_c, 0, 87, 64
1, 480, Note_on_c, 0, 45, 40
1, 480, Note_off_c, 0, 64, 64
1, 480, Note_on_c, 0, 73, 12
1, 481, Note_on_c, 0, 66, 35
1, 481, Note_on_c, 0, 85, 16
1, 481, Note_off_c, 0, 90, 64
1, 482, Note_off_c, 0, 78, 64
1, 482, Note_on_c, 0, 82, 11
1, 482, Note_off_c, 0, 84, 64
1, 483, Note_off_c, 0, 45, 64
1, 483, Note_off_c, 0, 55, 64
1, 483, Note_off_c, 0, 73, 64
1, 483, Note_on_c, 0, 77, 9
1, 483, Note_on_c, 0, 89, 16
1, 484, Note_off_c, 0, 80, 64
1, 484, Note_off_c, 0, 85, 64
1, 485, Note_on_c, 0, 45, 39
1, 485, Note_on_c, 0, 56, 27
1, 485, Note_on_c, 0, 61, 40
1, 485, Note_on_c, 0, 80, 17
1, 485, Note_off_c, 0, 82, 64
1, 486, Note_off_c, 0, 77, 64
1, 486, Note_off_c, 0, 89, 64
1, 486, Note_on_c, 0, 95, 19
1, 487, Note_on_c, 0, 96, 11
1, 487, Note_on_c, 0, 101, 10
1, 488, Note_off_c, 0, 45, 64
1, 488, Note_on_c, 0, 46, 29
1, 488, Note_off_c, 0, 56, 64
1, 488, Note_off_c, 0, 66, 64
1, 488, Note_off_c, 0, 80, 64
1, 488, Note_on_c, 0, 85, 19
1, 489, Note_off_c, 0, 61, 64
1, 489, Note_on_c, 0, 62, 35
1, 489, Note_on_c, 0, 66, 49
1, 489, Note_on_c, 0, 92, 10
1, 489, Note_on_c, 0, 102, 15
1, 490, Note_on_c, 0, 64, 31
1, 490, Note_on_c, 0, 80, 10
1, 490, Note_off_c, 0, 96, 64
1, 490, Note_off_c, 0, 101, 64
1, 491, Note_off_c, 0, 62, 64
1, 491, Note_on_c, 0, 73, 22
1, 491, Note_on_c, 0, 83, 13
1, 491, Note_on_c, 0, 100, 11
1, 492, Note_on_c, 0, 45, 33
1, 492, Note_off_c, 0, 46, 64
1, 492, Note_on_c, 0, 61, 31
1, 492, Note_on_c, 0, 89, 14
1, 492, Note_on_c, 0, 91, 10
1, 492, Note_off_c, 0, 92, 64
1, 493, Note_off_c, 0, 64, 64
1, 493, Note_off_c, 0, 80, 64
1, 493, Note_on_c, 0, 88, 12
1, 493, Note_off_c, 0, 95, 64
1, 494, Note_off_c, 0, 45, 64
1, 494, Note_on_c, 0, 95, 18
1, 494, Note_on_c, 0, 99, 13
1, 494, Note_off_c, 0, 100, 64
1, 494, Note_on_c, 0, 103, 19
1, 495, Note_off_c, 0, 89, 64
1, 495, Note_off_c, 0, 91, 64
1, 496, Note_on_c, 0, 76, 15
1, 496, Note_off_c, 0, 85, 64
1, 496, Note_off_c, 0, 88, 64
1, 496, Note_on_c, 0, 93, 11
1, 496, Note_on_c, 0, 96, 14
1, 496, Note_on_c, 0, 101, 19
1, 497, Note_off_c, 0, 61, 64
1, 497, Note_off_c, 0, 66, 64
1, 497, Note_on_c, 0, 67, 31
1, 497, Note_off_c, 0, 73, 64
1, 497, Note_on_c, 0, 78, 14
1, 497, Note_on_c, 0, 82, 24
1, 497, Note_off_c, 0, 83, 64
1, 497, Note_on_c, 0, 89, 10
1, 497, Note_on_c, 0, 90, 14
1, 498, Note_on_c, 0, 83, 17
1, 498, Note_on_c, 0, 98, 10
1, 498, Note_off_c, 0, 99, 64
1, 498, Note_off_c, 0, 103, 64
1, 499, Note_on_c, 0, 69, 18
1, 500, Note_off_c, 0, 82, 64
1, 500, Note_on_c, 0, 85, 10
1, 500, Note_off_c, 0, 93, 64
1, 500, Note_off_c, 0, 101, 64
1, 500, Note_off_c, 0, 102, 64
1, 501, Note_off_c, 0, 76, 64
1, 501, Note_on_c, 0, 81, 21
1, 501, Note_off_c, 0, 83, 64
1, 501, Note_off_c, 0, 89, 64
1, 501, Note_off_c, 0, 96, 64
1, 501, Note_off_c, 0, 98, 64
1, 502, Note_off_c, 0, 67, 64
1, 502, Note_off_c, 0, 69, 64
1, 502, Note_on_c, 0, 84, 9
1, 502, Note_on_c, 0, 92, 20
1, 503, Note_on_c, 0, 61, 22
1, 503, Note_off_c, 0, 78, 64
1, 503, Note_off_c, 0, 85, 64
1, 503, Note_off_c, 0, 90, 64
1, 503, Note_off_c, 0, 95, 64
1, 504, Note_on_c, 0, 79, 13
1, 505, Note_off_c, 0, 81, 64
1, 505, Note_off_c, 0, 92, 64
1, 506, Note_on_c, 0, 66, 30
1, 506, Note_off_c, 0, 84, 64
1, 507, Note_off_c, 0, 79, 64
1, 508, Note_off_c, 0, 61, 64
1, 510, Note_on_c, 0, 58, 18
1, 512, Note_on_c, 0, 80, 13
1, 514, Note_off_c, 0, 58, 64
1, 515, Note_off_c, 0, 80, 64
1, 517, Note_on_c, 0, 80, 26
1, 519, Note_on_c, 0, 54, 24
1, 520, Note_on_c, 0, 94, 19
1, 521, Note_off_c, 0, 66, 64
1, 521, Note_on_c, 0, 99, 14
1, 522, Note_off_c, 0, 54, 64
1, 522, Note_on_c, 0, 66, 30
1, 522, Note_on_c, 0, 96, 20
1, 522, Note_on_c, 0, 100, 17
1, 522, Note_on_c, 0, 102, 19
1, 522, Note_on_c, 0, 103, 18
1, 523, Note_on_c, 0, 90, 17
1, 524, Note_on_c, 0, 61, 29
1, 524, Note_on_c, 0, 65, 31
1, 524, Note_on_c, 0, 75, 18
1, 524, Note_off_c, 0, 80, 64
1, 524, Note_on_c, 0, 83, 15
1, 524, Note_on_c, 0, 95, 16
1, 525, Note_off_c, 0, 66, 64
1, 525, Note_on_c, 0, 101, 25
1, 526, Note_off_c, 0, 65, 64
1, 526, Note_on_c, 0, 66, 40
1, 526, Note_off_c, 0, 94, 64
1, 527, Note_off_c, 0, 75, 64
1, 527, Note_on_c, 0, 76, 13
1, 527, Note_on_c, 0, 87, 16
1, 527, Note_on_c, 0, 98, 16
1, 527, Note_off_c, 0, 103, 64
1, 528, Note_on_c, 0, 93, 16
1, 528, Note_off_c, 0, 96, 64
1, 528, Note_off_c, 0, 99, 64
1, 528, Note_off_c, 0, 102, 64
1, 529, Note_on_c, 0, 45, 25
1, 529, Note_off_c, 0, 83, 64
1, 529, Note_off_c, 0, 90, 64
1, 530, Note_off_c, 0, 61, 64
1, 530, Note_off_c, 0, 76, 64
1, 530, Note_on_c, 0, 80, 22
1, 530, Note_off_c, 0, 87, 64
1, 530, Note_on_c, 0, 94, 15
1, 530, Note_off_c, 0, 95, 64
1, 530, Note_on_c, 0, 103, 18
1, 531, Note_on_c, 0, 73, 22
1, 531, Note_off_c, 0, 93, 64
1, 531, Note_on_c, 0, 99, 14
1, 531, Note_on_c, 0, 102, 14
1, 532, Note_off_c, 0, 45, 64
1, 532, Note_on_c, 0, 77, 18
1, 532, Note_on_c, 0, 87, 21
1, 532, Note_on_c, 0, 95, 20
1, 532, Note_off_c, 0, 98, 64
1, 533, Note_on_c, 0, 92, 23
1, 534, Note_off_c, 0, 66, 64
1, 534, Note_on_c, 0, 98, 18
1, 535, Note_off_c, 0, 73, 64
1, 535, Note_off_c, 0, 77, 64
1, 535, Note_off_c, 0, 80, 64
1, 535, Note_off_c, 0, 87, 64
1, 535, Note_on_c, 0, 90, 10
1, 535, Note_off_c, 0, 103, 64
1, 536, Note_on_c, 0, 67, 38
1, 536, Note_off_c, 0, 100, 64
1, 536, Note_off_c, 0, 102, 64
1, 537, Note_off_c, 0, 92, 64
1, 537, Note_off_c, 0, 94, 64
1, 537, Note_off_c, 0, 98, 64
1, 537, Note_off_c, 0, 99, 64
1, 537, Note_off_c, 0, 101, 64
1, 538, Note_off_c, 0, 90, 64
1, 539, Note_on_c, 0, 66, 33
1, 539, Note_off_c, 0, 67, 64
1, 539, Note_on_c, 0, 80, 26
1, 540, Note_on_c, 0, 83, 9
1, 540, Note_off_c, 0, 95, 64
1, 543, Note_off_c, 0, 66, 64
1, 543, Note_off_c, 0, 80, 64
1, 544, Note_off_c, 0, 83, 64
1, 545, Note_on_c, 0, 66, 28
1, 546, Note_on_c, 0, 61, 17
1, 547, Note_on_c, 0, 77, 14
1, 550, Note_off_c, 0, 61, 64
1, 550, Note_off_c, 0, 77, 64
1, 556, Note_on_c, 0, 61, 36
1, 556, Note_off_c, 0, 66, 64
1, 556, Note_on_c, 0, 67, 25
1, 557, Note_on_c, 0, 79, 40
1, 557, Note_on_c, 0, 83, 29
1, 557, Note_on_c, 0, 87, 24
1, 557, Note_on_c, 0, 100, 19
1, 557, Note_on_c, 0, 101, 20
1, 557, Note_on_c, 0, 102, 35
1, 558, Note_on_c, 0, 78, 31
1, 558, Note_on_c, 0, 93, 27
1, 558, Note_on_c, 0, 94, 11
1, 558, Note_on_c, 0, 98, 18
1, 559, Note_on_c, 0, 66, 29
1, 559, Note_off_c, 0, 67, 64
1, 559, Note_on_c, 0, 75, 17
1, 559, Note_on_c, 0, 80, 31
1, 559, Note_off_c, 0, 83, 64
1, 559, Note_on_c, 0, 85, 26
1, 559, Note_on_c, 0, 95, 27
1, 559, Note_on_c, 0, 96, 19
1, 559, Note_on_c, 0, 97, 34
1, 560, Note_on_c, 0, 55, 32
1, 560, Note_off_c, 0, 79, 64
1, 560, Note_on_c, 0, 84, 22
1, 561, Note_off_c, 0, 61, 64
1, 561, Note_off_c, 0, 66, 64
1, 561, Note_on_c, 0, 76, 26
1, 561, Note_on_c, 0, 89, 15
1, 561, Note_off_c, 0, 94, 64
1, 561, Note_on_c, 0, 103, 25
1, 562, Note_off_c, 0, 55, 64
1, 562, Note_off_c, 0, 75, 64
1, 562, Note_off_c, 0, 78, 64
1, 562, Note_off_c, 0, 80, 64
1, 562, Note_on_c, 0, 81, 19
1, 562, Note_on_c, 0, 94, 23
1, 563, Note_on_c, 0, 61, 27
1, 563, Note_on_c, 0, 63, 31
1, 563, Note_on_c, 0, 78, 25
1, 563, Note_off_c, 0, 100, 64
1, 563, Note_off_c, 0, 102, 64
1, 564, Note_on_c, 0, 80, 25
1, 564, Note_off_c, 0, 85, 64
1, 564, Note_off_c, 0, 87, 64
1, 564, Note_off_c, 0, 89, 64
1, 564, Note_off_c, 0, 96, 64
1, 564, Note_off_c, 0, 101, 64
1, 565, Note_off_c, 0, 76, 64
1, 565, Note_on_c, 0, 85, 20
1, 565, Note_off_c, 0, 103, 64
1, 566, Note_off_c, 0, 63, 64
1, 566, Note_on_c, 0, 66, 52
1, 566, Note_off_c, 0, 81, 64
1, 566, Note_off_c, 0, 98, 64
1, 567, Note_off_c, 0, 61, 64
1, 567, Note_on_c, 0, 72, 14
1, 567, Note_off_c, 0, 78, 64
1, 567, Note_on_c, 0, 90, 20
1, 567, Note_on_c, 0, 100, 28
1, 567, Note_on_c, 0, 101, 33
1, 567, Note_on_c, 0, 102, 34
1, 568, Note_on_c, 0, 76, 14
1, 568, Note_on_c, 0, 82, 15
1, 568, Note_on_c, 0, 86, 16
1, 569, Note_on_c, 0, 54, 24
1, 569, Note_off_c, 0, 80, 64
1, 569, Note_on_c, 0, 89, 17
1, 569, Note_on_c, 0, 96, 26
1, 569, Note_on_c, 0, 98, 21
1, 569, Note_on_c, 0, 99, 23
1, 570, Note_off_c, 0, 72, 64
1, 570, Note_on_c, 0, 73, 26
1, 570, Note_on_c, 0, 88, 21
1, 570, Note_on_c, 0, 91, 14
1, 571, Note_off_c, 0, 84, 64
1, 571, Note_off_c, 0, 86, 64
1, 572, Note_off_c, 0, 54, 64
1, 572, Note_on_c, 0, 70, 25
1, 573, Note_off_c, 0, 90, 64
1, 573, Note_off_c, 0, 94, 64
1, 573, Note_off_c, 0, 96, 64
1, 574, Note_off_c, 0, 66, 64
1, 574, Note_on_c, 0, 67, 40
1, 574, Note_off_c, 0, 76, 64
1, 574, Note_off_c, 0, 88, 64
1, 574, Note_off_c, 0, 89, 64
1, 574, Note_off_c, 0, 93, 64
1, 574, Note_off_c, 0, 99, 64
1, 574, Note_off_c, 0, 101, 64
1, 575, Note_on_c, 0, 61, 16
1, 575, Note_off_c, 0, 73, 64
1, 575, Note_off_c, 0, 82, 64
1, 575, Note_off_c, 0, 97, 64
1, 575, Note_off_c, 0, 100, 64
1, 576, Note_off_c, 0, 70, 64
1, 576, Note_on_c, 0, 75, 19
1, 576, Note_on_c, 0, 78, 13
1, 576, Note_off_c, 0, 85, 64
1, 576, Note_on_c, 0, 90, 27
1, 576, Note_off_c, 0, 91, 64
1, 576, Note_on_c, 0, 93, 17
1, 576, Note_on_c, 0, 99, 22
1, 576, Note_on_c, 0, 100, 25
1, 577, Note_off_c, 0, 67, 64
1, 577, Note_on_c, 0, 86, 20
1, 577, Note_on_c, 0, 94, 29
1, 578, Note_off_c, 0, 61, 64
1, 578, Note_on_c, 0, 82, 14
1, 578, Note_on_c, 0, 83, 17
1, 578, Note_on_c, 0, 85, 15
1, 578, Note_on_c, 0, 92, 21
1, 579, Note_off_c, 0, 78, 64
1, 579, Note_off_c, 0, 93, 64
1, 579, Note_on_c, 0, 96, 19
1, 580, Note_on_c, 0, 66, 20
1, 580, Note_off_c, 0, 86, 64
1, 580, Note_on_c, 0, 97, 21
1, 581, Note_off_c, 0, 75, 64
1, 581, Note_off_c, 0, 82, 64
1, 582, Note_off_c, 0, 85, 64
1, 582, Note_off_c, 0, 100, 64
1, 582, Note_off_c, 0, 102, 64
1, 583, Note_off_c, 0, 92, 64
1, 583, Note_off_c, 0, 94, 64
1, 583, Note_off_c, 0, 96, 64
1, 583, Note_off_c, 0, 97, 64
1, 583, Note_off_c, 0, 98, 64
1, 584, Note_off_c, 0, 90, 64
1, 584, Note_off_c, 0, 99, 64
1, 585, Note_off_c, 0, 83, 64
1, 585, Note_off_c, 0, 95, 64
1, 585, Note_on_c, 0, 99, 24
1, 586, Note_on_c, 0, 64, 12
1, 586, Note_off_c, 0, 66, 64
1, 586, Note_on_c, 0, 87, 13
1, 586, Note_on_c, 0, 98, 22
1, 586, Note_on_c, 0, 102, 21
1, 586, Note_on_c, 0, 103, 28
1, 587, Note_on_c, 0, 82, 22
1, 587, Note_on_c, 0, 90, 16
1, 587, Note_on_c, 0, 96, 20
1, 588, Note_on_c, 0, 85, 17
1, 589, Note_off_c, 0, 87, 64
1, 590, Note_off_c, 0, 103, 64
1, 591, Note_on_c, 0, 61, 16
1, 591, Note_on_c, 0, 66, 30
1, 591, Note_off_c, 0, 82, 64
1, 591, Note_on_c, 0, 89, 28
1, 591, Note_on_c, 0, 92, 19
1, 591, Note_off_c, 0, 102, 64
1, 592, Note_on_c, 0, 54, 10
1, 592, Note_off_c, 0, 64, 64
1, 592, Note_off_c, 0, 85, 64
1, 592, Note_off_c, 0, 90, 64
1, 592, Note_off_c, 0, 96, 64
1, 592, Note_off_c, 0, 99, 64
1, 593, Note_off_c, 0, 98, 64
1, 594, Note_off_c, 0, 61, 64
1, 594, Note_off_c, 0, 66, 64
1, 594, Note_on_c, 0, 99, 24
1, 594, Note_on_c, 0, 100, 30
1, 595, Note_off_c, 0, 54, 64
1, 595, Note_on_c, 0, 66, 33
1, 595, Note_on_c, 0, 94, 21
1, 595, Note_on_c, 0, 96, 15
1, 595, Note_on_c, 0, 97, 30
1, 595, Note_on_c, 0, 98, 39
1, 595, Note_on_c, 0, 103, 24
1, 596, Note_on_c, 0, 81, 16
1, 596, Note_on_c, 0, 85, 14
1, 596, Note_on_c, 0, 87, 13
1, 596, Note_on_c, 0, 102, 33
1, 597, Note_on_c, 0, 54, 18
1, 597, Note_on_c, 0, 61, 33
1, 597, Note_on_c, 0, 76, 18
1, 597, Note_on_c, 0, 88, 18
1, 597, Note_on_c, 0, 91, 20
1, 598, Note_off_c, 0, 94, 64
1, 599, Note_off_c, 0, 85, 64
1, 600, Note_on_c, 0, 64, 28
1, 600, Note_off_c, 0, 81, 64
1, 600, Note_on_c, 0, 85, 31
1, 600, Note_off_c, 0, 87, 64
1, 600, Note_on_c, 0, 93, 26
1, 600, Note_off_c, 0, 103, 64
1, 601, Note_off_c, 0, 66, 64
1, 601, Note_off_c, 0, 76, 64
1, 601, Note_off_c, 0, 99, 64
1, 602, Note_off_c, 0, 61, 64
1, 602, Note_on_c, 0, 80, 27
1, 602, Note_off_c, 0, 91, 64
1, 602, Note_off_c, 0, 96, 64
1, 602, Note_off_c, 0, 97, 64
1, 602, Note_off_c, 0, 100, 64
1, 602, Note_off_c, 0, 102, 64
1, 603, Note_off_c, 0, 54, 64
1, 603, Note_off_c, 0, 64, 64
1, 603, Note_on_c, 0, 66, 39
1, 603, Note_on_c, 0, 99, 31
1, 603, Note_on_c, 0, 100, 38
1, 603, Note_on_c, 0, 101, 40
1, 603, Note_on_c, 0, 102, 36
1, 604, Note_off_c, 0, 92, 64
1, 604, Note_on_c, 0, 96, 24
1, 604, Note_on_c, 0, 97, 31
1, 604, Note_on_c, 0, 103, 24
1, 605, Note_on_c, 0, 61, 22
1, 605, Note_on_c, 0, 79, 22
1, 605, Note_on_c, 0, 86, 23
1, 605, Note_off_c, 0, 88, 64
1, 605, Note_on_c, 0, 94, 32
1, 606, Note_on_c, 0, 76, 24
1, 606, Note_off_c, 0, 80, 64
1, 606, Note_off_c, 0, 89, 64
1, 606, Note_on_c, 0, 90, 15
1, 607, Note_off_c, 0, 96, 64
1, 608, Note_off_c, 0, 79, 64
1, 608, Note_on_c, 0, 89, 18
1, 608, Note_on_c, 0, 95, 18
1, 609, Note_on_c, 0, 55, 11
1, 609, Note_off_c, 0, 61, 64
1, 609, Note_on_c, 0, 87, 19
1, 609, Note_on_c, 0, 91, 20
1, 609, Note_off_c, 0, 94, 64
1, 609, Note_on_c, 0, 96, 23
1, 609, Note_off_c, 0, 103, 64
1, 610, Note_on_c, 0, 61, 38
1, 610, Note_off_c, 0, 93, 64
1, 610, Note_off_c, 0, 102, 64
1, 611, Note_off_c, 0, 66, 64
1, 611, Note_off_c, 0, 76, 64
1, 611, Note_off_c, 0, 95, 64
1, 612, Note_off_c, 0, 55, 64
1, 612, Note_on_c, 0, 60, 34
1, 612, Note_off_c, 0, 61, 64
1, 612, Note_off_c, 0, 86, 64
1, 612, Note_off_c, 0, 89, 64
1, 612, Note_off_c, 0, 91, 64
1, 612, Note_off_c, 0, 96, 64
1, 612, Note_off_c, 0, 97, 64
1, 612, Note_off_c, 0, 98, 64
1, 612, Note_off_c, 0, 99, 64
1, 612, Note_off_c, 0, 100, 64
1, 613, Note_off_c, 0, 85, 64
1, 613, Note_on_c, 0, 86, 10
1, 613, Note_off_c, 0, 101, 64
1, 614, Note_off_c, 0, 60, 64
1, 614, Note_on_c, 0, 100, 19
1, 614, Note_on_c, 0, 102, 23
1, 615, Note_on_c, 0, 76, 11
1, 615, Note_off_c, 0, 90, 64
1, 616, Note_on_c, 0, 78, 10
1, 616, Note_on_c, 0, 85, 15
1, 616, Note_off_c, 0, 86, 64
1, 616, Note_off_c, 0, 87, 64
1, 616, Note_on_c, 0, 97, 16
1, 617, Note_on_c, 0, 93, 16
1, 617, Note_on_c, 0, 101, 10
1, 618, Note_on_c, 0, 66, 14
1, 618, Note_off_c, 0, 76, 64
1, 618, Note_on_c, 0, 92, 16
1, 619, Note_off_c, 0, 78, 64
1, 620, Note_off_c, 0, 93, 64
1, 620, Note_off_c, 0, 97, 64
1, 620, Note_off_c, 0, 100, 64
1, 620, Note_off_c, 0, 101, 64
1, 620, Note_off_c, 0, 102, 64
1, 622, Note_off_c, 0, 92, 64
1, 623, Note_off_c, 0, 66, 64
1, 623, Note_off_c, 0, 85, 64
1, 623, Note_on_c, 0, 86, 19
1, 623, Note_on_c, 0, 98, 25
1, 623, Note_on_c, 0, 101, 19
1, 624, Note_on_c, 0, 92, 13
1, 624, Note_on_c, 0, 99, 17
1, 624, Note_on_c, 0, 100, 24
1, 624, Note_on_c, 0, 103, 12
1, 625, Note_on_c, 0, 85, 11
1, 625, Note_on_c, 0, 97, 16
1, 625, Note_on_c, 0, 102, 20
1, 626, Note_off_c, 0, 86, 64
1, 627, Note_on_c, 0, 61, 15
1, 627, Note_on_c, 0, 66, 31
1, 627, Note_on_c, 0, 94, 31
1, 627, Note_on_c, 0, 96, 22
1, 627, Note_off_c, 0, 103, 64
1, 628, Note_on_c, 0, 55, 12
1, 628, Note_off_c, 0, 92, 64
1, 628, Note_off_c, 0, 97, 64
1, 628, Note_off_c, 0, 99, 64
1, 628, Note_off_c, 0, 101, 64
1, 629, Note_off_c, 0, 85, 64
1, 629, Note_off_c, 0, 100, 64
1, 629, Note_off_c, 0, 102, 64
1, 630, Note_off_c, 0, 61, 64
1, 630, Note_off_c, 0, 96, 64
1, 630, Note_off_c, 0, 98, 64
1, 631, Note_off_c, 0, 55, 64
1, 632, Note_on_c, 0, 86, 16
1, 632, Note_on_c, 0, 91, 30
1, 632, Note_on_c, 0, 92, 22
1, 632, Note_on_c, 0, 96, 32
1, 632, Note_on_c, 0, 98, 35
1, 632, Note_on_c, 0, 99, 24
1, 632, Note_on_c, 0, 100, 33
1, 632, Note_on_c, 0, 101, 34
1, 633, Note_on_c, 0, 90, 17
1, 633, Note_on_c, 0, 95, 33
1, 633, Note_on_c, 0, 97, 29
1, 633, Note_on_c, 0, 102, 28
1, 634, Note_on_c, 0, 87, 18
1, 634, Note_on_c, 0, 89, 17
1, 634, Note_on_c, 0, 93, 28
1, 634, Note_off_c, 0, 101, 64
1, 635, Note_on_c, 0, 69, 30
1, 635, Note_on_c, 0, 85, 28
1, 635, Note_on_c, 0, 101, 38
1, 636, Note_off_c, 0, 66, 64
1, 636, Note_on_c, 0, 84, 12
1, 636, Note_off_c, 0, 90, 64
1, 637, Note_off_c, 0, 101, 64
1, 638, Note_on_c, 0, 66, 20
1, 638, Note_on_c, 0, 73, 22
1, 638, Note_off_c, 0, 89, 64
1, 638, Note_off_c, 0, 92, 64
1, 638, Note_off_c, 0, 94, 64
1, 638, Note_off_c, 0, 102, 64
1, 639, Note_on_c, 0, 61, 15
1, 639, Note_on_c, 0, 83, 16
1, 639, Note_off_c, 0, 84, 64
1, 639, Note_on_c, 0, 89, 29
1, 639, Note_off_c, 0, 96, 64
1, 639, Note_off_c, 0, 99, 64
1, 640, Note_on_c, 0, 64, 16
1, 640, Note_on_c, 0, 84, 23
1, 640, Note_off_c, 0, 87, 64
1, 640, Note_on_c, 0, 88, 21
1, 640, Note_off_c, 0, 98, 64
1, 640, Note_off_c, 0, 100, 64
1, 641, Note_off_c, 0, 66, 64
1, 641, Note_off_c, 0, 86, 64
1, 641, Note_on_c, 0, 90, 17
1, 641, Note_on_c, 0, 96, 30
1, 641, Note_on_c, 0, 99, 33
1, 641, Note_on_c, 0, 101, 29
1, 642, Note_off_c, 0, 61, 64
1, 642, Note_off_c, 0, 73, 64
1, 642, Note_off_c, 0, 83, 64
1, 642, Note_on_c, 0, 86, 23
1, 642, Note_on_c, 0, 102, 29
1, 643, Note_on_c, 0, 54, 26
1, 643, Note_off_c, 0, 64, 64
1, 643, Note_on_c, 0, 66, 35
1, 643, Note_on_c, 0, 76, 31
1, 643, Note_on_c, 0, 79, 28
1, 643, Note_on_c, 0, 92, 29
1, 643, Note_on_c, 0, 98, 39
1, 643, Note_on_c, 0, 100, 38
1, 644, Note_on_c, 0, 61, 16
1, 644, Note_on_c, 0, 81, 31
1, 644, Note_on_c, 0, 94, 28
1, 645, Note_on_c, 0, 82, 25
1, 646, Note_off_c, 0, 66, 64
1, 646, Note_on_c, 0, 73, 26
1, 646, Note_off_c, 0, 81, 64
1, 646, Note_off_c, 0, 88, 64
1, 646, Note_off_c, 0, 93, 64
1, 646, Note_off_c, 0, 99, 64
1, 647, Note_off_c, 0, 61, 64
1, 647, Note_on_c, 0, 93, 28
1, 647, Note_off_c, 0, 95, 64
1, 648, Note_off_c, 0, 54, 64
1, 648, Note_on_c, 0, 55, 31
1, 648, Note_on_c, 0, 66, 30
1, 648, Note_off_c, 0, 84, 64
1, 648, Note_off_c, 0, 96, 64
1, 648, Note_off_c, 0, 98, 64
1, 648, Note_off_c, 0, 101, 64
1, 649, Note_off_c, 0, 89, 64
1, 649, Note_off_c, 0, 92, 64
1, 649, Note_off_c, 0, 94, 64
1, 649, Note_off_c, 0, 97, 64
1, 650, Note_on_c, 0, 61, 16
1, 650, Note_off_c, 0, 73, 64
1, 650, Note_off_c, 0, 85, 64
1, 650, Note_off_c, 0, 86, 64
1, 650, Note_off_c, 0, 90, 64
1, 650, Note_off_c, 0, 93, 64
1, 650, Note_on_c, 0, 95, 22
1, 651, Note_off_c, 0, 55, 64
1, 651, Note_on_c, 0, 97, 15
1, 651, Note_on_c, 0, 101, 22
1, 652, Note_off_c, 0, 66, 64
1, 652, Note_off_c, 0, 69, 64
1, 652, Note_off_c, 0, 79, 64
1, 652, Note_on_c, 0, 93, 20
1, 652, Note_on_c, 0, 98, 17
1, 653, Note_off_c, 0, 61, 64
1, 653, Note_off_c, 0, 76, 64
1, 653, Note_off_c, 0, 82, 64
1, 655, Note_on_c, 0, 90, 20
1, 655, Note_off_c, 0, 91, 64
1, 655, Note_off_c, 0, 93, 64
1, 656, Note_off_c, 0, 97, 64
1, 656, Note_off_c, 0, 100, 64
1, 656, Note_off_c, 0, 101, 64
1, 656, Note_off_c, 0, 102, 64
1, 657, Note_off_c, 0, 95, 64
1, 657, Note_off_c, 0, 98, 64
1, 658, Note_on_c, 0, 63, 13
1, 658, Note_off_c, 0, 90, 64
1, 660, Note_on_c, 0, 88, 13
1, 660, Note_on_c, 0, 95, 24
1, 660, Note_on_c, 0, 96, 15
1, 660, Note_on_c, 0, 98, 18
1, 660, Note_on_c, 0, 99, 20
1, 661, Note_on_c, 0, 87, 11
1, 661, Note_on_c, 0, 91, 18
1, 661, Note_on_c, 0, 92, 16
1, 661, Note_on_c, 0, 94, 18
1, 662, Note_off_c, 0, 63, 64
1, 662, Note_on_c, 0, 89, 22
1, 663, Note_on_c, 0, 97, 23
1, 664, Note_on_c, 0, 61, 20
1, 664, Note_off_c, 0, 87, 64
1, 664, Note_on_c, 0, 90, 20
1, 664, Note_off_c, 0, 96, 64
1, 665, Note_on_c, 0, 66, 16
1, 665, Note_on_c, 0, 79, 9
1, 665, Note_off_c, 0, 91, 64
1, 665, Note_off_c, 0, 94, 64
1, 665, Note_off_c, 0, 98, 64
1, 665, Note_off_c, 0, 99, 64
1, 666, Note_off_c, 0, 88, 64
1, 666, Note_off_c, 0, 97, 64
1, 667, Note_off_c, 0, 61, 64
1, 667, Note_off_c, 0, 90, 64
1, 667, Note_off_c, 0, 92, 64
1, 668, Note_off_c, 0, 66, 64
1, 668, Note_off_c, 0, 79, 64
1, 668, Note_off_c, 0, 95, 64
1, 669, Note_on_c, 0, 64, 26
1, 669, Note_on_c, 0, 66, 21
1, 669, Note_on_c, 0, 82, 24
1, 669, Note_on_c, 0, 85, 15
1, 669, Note_off_c, 0, 89, 64
1, 669, Note_on_c, 0, 92, 33
1, 669, Note_on_c, 0, 93, 30
1, 669, Note_on_c, 0, 96, 20
1, 669, Note_on_c, 0, 100, 21
1, 669, Note_on_c, 0, 102, 17
1, 670, Note_on_c, 0, 61, 26
1, 670, Note_on_c, 0, 90, 33
1, 670, Note_on_c, 0, 91, 44
1, 670, Note_on_c, 0, 94, 30
1, 670, Note_on_c, 0, 95, 36
1, 670, Note_on_c, 0, 97, 34
1, 670, Note_on_c, 0, 98, 32
1, 670, Note_on_c, 0, 99, 35
1, 670, Note_on_c, 0, 101, 25
1, 671, Note_on_c, 0, 88, 29
1, 672, Note_off_c, 0, 66, 64
1, 672, Note_on_c, 0, 69, 28
1, 672, Note_off_c, 0, 93, 64
1, 673, Note_off_c, 0, 82, 64
1, 673, Note_on_c, 0, 83, 24
1, 673, Note_on_c, 0, 86, 29
1, 673, Note_on_c, 0, 93, 29
1, 674, Note_off_c, 0, 61, 64
1, 674, Note_off_c, 0, 85, 64
1, 674, Note_on_c, 0, 87, 21
1, 675, Note_off_c, 0, 64, 64
1, 675, Note_on_c, 0, 82, 18
1, 675, Note_off_c, 0, 102, 64
1, 676, Note_on_c, 0, 79, 19
1, 676, Note_off_c, 0, 86, 64
1, 676, Note_off_c, 0, 90, 64
1, 676, Note_off_c, 0, 96, 64
1, 676, Note_off_c, 0, 100, 64
1, 676, Note_off_c, 0, 101, 64
1, 677, Note_on_c, 0, 54, 16
1, 677, Note_on_c, 0, 64, 34
1, 677, Note_on_c, 0, 84, 10
1, 677, Note_off_c, 0, 87, 64
1, 677, Note_on_c, 0, 89, 36
1, 677, Note_on_c, 0, 90, 18
1, 677, Note_off_c, 0, 93, 64
1, 677, Note_off_c, 0, 98, 64
1, 677, Note_off_c, 0, 99, 64
1, 678, Note_off_c, 0, 83, 64
1, 678, Note_on_c, 0, 85, 22
1, 678, Note_on_c, 0, 93, 39
1, 678, Note_off_c, 0, 94, 64
1, 678, Note_on_c, 0, 96, 32
1, 679, Note_on_c, 0, 76, 39
1, 679, Note_on_c, 0, 87, 24
1, 679, Note_off_c, 0, 88, 64
1, 679, Note_on_c, 0, 98, 31
1, 679, Note_on_c, 0, 99, 27
1, 679, Note_on_c, 0, 100, 36
1, 679, Note_on_c, 0, 102, 23
1, 680, Note_off_c, 0, 54, 64
1, 680, Note_on_c, 0, 67, 36
1, 680, Note_off_c, 0, 69, 64
1, 680, Note_off_c, 0, 79, 64
1, 680, Note_on_c, 0, 83, 20
1, 680, Note_off_c, 0, 84, 64
1, 680, Note_off_c, 0, 90, 64
1, 680, Note_on_c, 0, 94, 36
1, 681, Note_off_c, 0, 64, 64
1, 682, Note_on_c, 0, 69, 39
1, 682, Note_on_c, 0, 78, 29
1, 683, Note_on_c, 0, 65, 37
1, 683, Note_off_c, 0, 82, 64
1, 683, Note_off_c, 0, 83, 64
1, 683, Note_on_c, 0, 84, 31
1, 683, Note_off_c, 0, 85, 64
1, 683, Note_off_c, 0, 92, 64
1, 683, Note_off_c, 0, 93, 64
1, 684, Note_on_c, 0, 64, 31
1, 684, Note_off_c, 0, 67, 64
1, 684, Note_off_c, 0, 78, 64
1, 684, Note_on_c, 0, 92, 32
1, 684, Note_on_c, 0, 93, 25
1, 684, Note_off_c, 0, 99, 64
1, 684, Note_off_c, 0, 102, 64
1, 685, Note_off_c, 0, 65, 64
1, 685, Note_off_c, 0, 84, 64
1, 685, Note_off_c, 0, 91, 64
1, 686, Note_off_c, 0, 64, 64
1, 686, Note_on_c, 0, 83, 17
1, 686, Note_off_c, 0, 87, 64
1, 686, Note_off_c, 0, 89, 64
1, 686, Note_off_c, 0, 92, 64
1, 686, Note_off_c, 0, 97, 64
1, 686, Note_off_c, 0, 100, 64
1, 687, Note_off_c, 0, 95, 64
1, 687, Note_off_c, 0, 96, 64
1, 687, Note_off_c, 0, 98, 64
1, 688, Note_on_c, 0, 64, 22
1, 688, Note_off_c, 0, 69, 64
1, 688, Note_off_c, 0, 76, 64
1, 688, Note_on_c, 0, 92, 21
1, 690, Note_on_c, 0, 97, 15
1, 690, Note_on_c, 0, 98, 23
1, 691, Note_off_c, 0, 64, 64
1, 691, Note_off_c, 0, 83, 64
1, 691, Note_on_c, 0, 87, 14
1, 691, Note_off_c, 0, 93, 64
1, 692, Note_on_c, 0, 69, 17
1, 692, Note_on_c, 0, 93, 23
1, 692, Note_off_c, 0, 94, 64
1, 693, Note_off_c, 0, 97, 64
1, 693, Note_off_c, 0, 98, 64
1, 694, Note_off_c, 0, 87, 64
1, 694, Note_off_c, 0, 92, 64
1, 695, Note_off_c, 0, 69, 64
1, 695, Note_off_c, 0, 93, 64
1, 697, Note_on_c, 0, 90, 13
1, 698, Note_on_c, 0, 81, 19
1, 698, Note_on_c, 0, 86, 22
1, 698, Note_on_c, 0, 88, 17
1, 698, Note_on_c, 0, 96, 26
1, 699, Note_on_c, 0, 87, 19
1, 699, Note_on_c, 0, 94, 30
1, 699, Note_on_c, 0, 97, 12
1, 700, Note_on_c, 0, 78, 18
1, 700, Note_on_c, 0, 84, 24
1, 701, Note_on_c, 0, 64, 18
1, 701, Note_off_c, 0, 81, 64
1, 701, Note_off_c, 0, 86, 64
1, 701, Note_off_c, 0, 88, 64
1, 701, Note_on_c, 0, 89, 20
1, 701, Note_on_c, 0, 93, 33
1, 701, Note_on_c, 0, 95, 11
1, 702, Note_on_c, 0, 69, 21
1, 702, Note_on_c, 0, 85, 13
1, 702, Note_on_c, 0, 91, 34
1, 702, Note_off_c, 0, 97, 64
1, 703, Note_off_c, 0, 87, 64
1, 703, Note_off_c, 0, 94, 64
1, 703, Note_off_c, 0, 96, 64
1, 704, Note_on_c, 0, 57, 23
1, 704, Note_off_c, 0, 78, 64
1, 704, Note_on_c, 0, 79, 19
1, 704, Note_off_c, 0, 90, 64
1, 704, Note_off_c, 0, 95, 64
1, 705, Note_off_c, 0, 64, 64
1, 705, Note_off_c, 0, 84, 64
1, 706, Note_on_c, 0, 66, 17
1, 706, Note_on_c, 0, 84, 24
1, 706, Note_on_c, 0, 88, 25
1, 706, Note_off_c, 0, 89, 64
1, 706, Note_on_c, 0, 90, 19
1, 706, Note_on_c, 0, 92, 35
1, 706, Note_on_c, 0, 94, 27
1, 707, Note_on_c, 0, 76, 16
1, 707, Note_on_c, 0, 81, 27
1, 707, Note_off_c, 0, 85, 64
1, 707, Note_on_c, 0, 96, 29
1, 708, Note_on_c, 0, 78, 18
1, 708, Note_off_c, 0, 79, 64
1, 708, Note_on_c, 0, 85, 29
1, 708, Note_on_c, 0, 89, 45
1, 708, Note_on_c, 0, 95, 34
1, 708, Note_on_c, 0, 97, 29
1, 709, Note_on_c, 0, 64, 38
1, 709, Note_off_c, 0, 66, 64
1, 709, Note_off_c, 0, 69, 64
1, 709, Note_off_c, 0, 84, 64
1, 709, Note_on_c, 0, 102, 19
1, 710, Note_on_c, 0, 69, 43
1, 710, Note_on_c, 0, 86, 28
1, 710, Note_on_c, 0, 87, 34
1, 710, Note_off_c, 0, 90, 64
1, 711, Note_on_c, 0, 73, 28
1, 711, Note_off_c, 0, 76, 64
1, 711, Note_off_c, 0, 85, 64
1, 711, Note_off_c, 0, 88, 64
1, 712, Note_off_c, 0, 78, 64
1, 713, Note_off_c, 0, 57, 64
1, 713, Note_on_c, 0, 88, 40
1, 713, Note_off_c, 0, 102, 64
1, 714, Note_off_c, 0, 86, 64
1, 714, Note_off_c, 0, 87, 64
1, 714, Note_off_c, 0, 95, 64
1, 714, Note_off_c, 0, 96, 64
1, 715, Note_off_c, 0, 94, 64
1, 715, Note_off_c, 0, 97, 64
1, 716, Note_off_c, 0, 89, 64
1, 716, Note_on_c, 0, 95, 31
1, 716, Note_on_c, 0, 98, 24
1, 717, Note_on_c, 0, 82, 23
1, 717, Note_on_c, 0, 84, 26
1, 717, Note_on_c, 0, 89, 34
1, 717, Note_on_c, 0, 90, 31
1, 717, Note_on_c, 0, 94, 33
1, 717, Note_on_c, 0, 99, 25
1, 718, Note_on_c, 0, 79, 18
1, 718, Note_on_c, 0, 80, 12
1, 718, Note_on_c, 0, 87, 25
1, 719, Note_on_c, 0, 67, 30
1, 719, Note_on_c, 0, 86, 35
1, 719, Note_on_c, 0, 97, 31
1, 720, Note_off_c, 0, 82, 64
1, 720, Note_on_c, 0, 83, 24
1, 721, Note_off_c, 0, 80, 64
1, 721, Note_off_c, 0, 84, 64
1, 721, Note_off_c, 0, 90, 64
1, 722, Note_off_c, 0, 67, 64
1, 722, Note_off_c, 0, 81, 64
1, 722, Note_on_c, 0, 90, 24
1, 723, Note_off_c, 0, 87, 64
1, 723, Note_off_c, 0, 88, 64
1, 723, Note_off_c, 0, 89, 64
1, 723, Note_off_c, 0, 91, 64
1, 723, Note_on_c, 0, 96, 9
1, 723, Note_off_c, 0, 98, 64
1, 723, Note_off_c, 0, 99, 64
1, 724, Note_off_c, 0, 92, 64
1, 724, Note_off_c, 0, 94, 64
1, 724, Note_off_c, 0, 97, 64
1, 725, Note_off_c, 0, 69, 64
1, 725, Note_off_c, 0, 79, 64
1, 725, Note_off_c, 0, 83, 64
1, 725, Note_on_c, 0, 91, 18
1, 725, Note_on_c, 0, 92, 18
1, 725, Note_off_c, 0, 95, 64
1, 726, Note_on_c, 0, 69, 20
1, 726, Note_off_c, 0, 73, 64
1, 726, Note_on_c, 0, 88, 27
1, 727, Note_off_c, 0, 90, 64
1, 728, Note_on_c, 0, 85, 13
1, 728, Note_off_c, 0, 86, 64
1, 728, Note_on_c, 0, 87, 26
1, 728, Note_on_c, 0, 89, 14
1, 728, Note_off_c, 0, 91, 64
1, 729, Note_on_c, 0, 91, 25
1, 729, Note_off_c, 0, 96, 64
1, 730, Note_off_c, 0, 92, 64
1, 731, Note_off_c, 0, 89, 64
1, 732, Note_off_c, 0, 64, 64
1, 732, Note_off_c, 0, 69, 64
1, 732, Note_off_c, 0, 87, 64
1, 732, Note_off_c, 0, 93, 64
1, 733, Note_off_c, 0, 85, 64
1, 733, Note_off_c, 0, 88, 64
1, 735, Note_on_c, 0, 87, 15
1, 735, Note_off_c, 0, 91, 64
1, 735, Note_on_c, 0, 97, 13
1, 736, Note_on_c, 0, 67, 15
1, 736, Note_on_c, 0, 79, 18
1, 736, Note_on_c, 0, 89, 26
1, 736, Note_on_c, 0, 91, 25
1, 736, Note_on_c, 0, 94, 9
1, 737, Note_on_c, 0, 69, 38
1, 737, Note_on_c, 0, 85, 14
1, 737, Note_on_c, 0, 95, 17
1, 738, Note_on_c, 0, 88, 28
1, 738, Note_on_c, 0, 90, 19
1, 738, Note_off_c, 0, 97, 64
1, 739, Note_off_c, 0, 67, 64
1, 739, Note_on_c, 0, 83, 20
1, 739, Note_off_c, 0, 87, 64
1, 739, Note_on_c, 0, 93, 9
1, 739, Note_off_c, 0, 94, 64
1, 740, Note_off_c, 0, 85, 64
1, 740, Note_off_c, 0, 95, 64
1, 741, Note_on_c, 0, 76, 11
1, 741, Note_off_c, 0, 79, 64
1, 741, Note_off_c, 0, 89, 64
1, 741, Note_off_c, 0, 90, 64
1, 742, Note_off_c, 0, 93, 64
1, 743, Note_on_c, 0, 57, 21
1, 743, Note_on_c, 0, 85, 32
1, 744, Note_off_c, 0, 76, 64
1, 744, Note_on_c, 0, 82, 18
1, 744, Note_on_c, 0, 86, 33
1, 744, Note_on_c, 0, 89, 39
1, 744, Note_on_c, 0, 92, 27
1, 744, Note_on_c, 0, 93, 32
1, 744, Note_on_c, 0, 95, 21
1, 744, Note_on_c, 0, 99, 25
1, 745, Note_on_c, 0, 64, 30
1, 745, Note_on_c, 0, 80, 15
1, 745, Note_on_c, 0, 90, 34
1, 745, Note_on_c, 0, 94, 30
1, 746, Note_off_c, 0, 83, 64
1, 746, Note_on_c, 0, 84, 33
1, 747, Note_on_c, 0, 79, 17
1, 748, Note_off_c, 0, 80, 64
1, 749, Note_on_c, 0, 75, 22
1, 749, Note_off_c, 0, 85, 64
1, 749, Note_off_c, 0, 88, 64
1, 749, Note_off_c, 0, 92, 64
1, 750, Note_on_c, 0, 73, 25
1, 750, Note_off_c, 0, 79, 64
1, 750, Note_off_c, 0, 86, 64
1, 750, Note_on_c, 0, 88, 24
1, 750, Note_off_c, 0, 99, 64
1, 751, Note_off_c, 0, 64, 64
1, 751, Note_on_c, 0, 76, 24
1, 751, Note_on_c, 0, 78, 21
1, 751, Note_off_c, 0, 84, 64
1, 751, Note_off_c, 0, 89, 64
1, 751, Note_off_c, 0, 91, 64
1, 751, Note_off_c, 0, 93, 64
1, 752, Note_off_c, 0, 57, 64
1, 752, Note_on_c, 0, 64, 27
1, 752, Note_off_c, 0, 75, 64
1, 752, Note_on_c, 0, 85, 45
1, 752, Note_off_c, 0, 95, 64
1, 753, Note_off_c, 0, 69, 64
1, 753, Note_off_c, 0, 73, 64
1, 753, Note_on_c, 0, 83, 17
1, 753, Note_on_c, 0, 84, 28
1, 753, Note_on_c, 0, 86, 34
1, 753, Note_off_c, 0, 88, 64
1, 753, Note_on_c, 0, 89, 38
1, 754, Note_on_c, 0, 69, 42
1, 754, Note_off_c, 0, 82, 64
1, 754, Note_on_c, 0, 88, 33
1, 754, Note_on_c, 0, 93, 34
1, 755, Note_on_c, 0, 80, 27
1, 755, Note_on_c, 0, 91, 38
1, 755, Note_on_c, 0, 99, 12
1, 756, Note_on_c, 0, 82, 24
1, 756, Note_off_c, 0, 83, 64
1, 756, Note_off_c, 0, 88, 64
1, 757, Note_on_c, 0, 77, 21
1, 757, Note_off_c, 0, 78, 64
1, 757, Note_on_c, 0, 88, 37
1, 757, Note_on_c, 0, 95, 23
1, 758, Note_on_c, 0, 57, 18
1, 758, Note_off_c, 0, 76, 64
1, 758, Note_off_c, 0, 86, 64
1, 758, Note_on_c, 0, 87, 40
1, 759, Note_on_c, 0, 75, 21
1, 759, Note_on_c, 0, 86, 39
1, 759, Note_off_c, 0, 99, 64
1, 760, Note_off_c, 0, 89, 64
1, 760, Note_off_c, 0, 91, 64
1, 760, Note_off_c, 0, 93, 64
1, 761, Note_off_c, 0, 77, 64
1, 761, Note_off_c, 0, 80, 64
1, 761, Note_off_c, 0, 85, 64
1, 761, Note_on_c, 0, 89, 19
1, 761, Note_off_c, 0, 95, 64
1, 762, Note_off_c, 0, 57, 64
1, 762, Note_off_c, 0, 64, 64
1, 762, Note_off_c, 0, 69, 64
1, 762, Note_on_c, 0, 79, 12
1, 762, Note_off_c, 0, 82, 64
1, 762, Note_off_c, 0, 90, 64
1, 762, Note_on_c, 0, 91, 17
1, 762, Note_on_c, 0, 97, 10
1, 763, Note_on_c, 0, 69, 30
1, 763, Note_off_c, 0, 75, 64
1, 763, Note_off_c, 0, 87, 64
1, 763, Note_off_c, 0, 94, 64
1, 764, Note_on_c, 0, 82, 10
1, 765, Note_off_c, 0, 79, 64
1, 765, Note_off_c, 0, 84, 64
1, 765, Note_on_c, 0, 87, 23
1, 765, Note_off_c, 0, 91, 64
1, 766, Note_on_c, 0, 92, 15
1, 767, Note_on_c, 0, 64, 17
1, 767, Note_off_c, 0, 86, 64
1, 767, Note_off_c, 0, 97, 64
1, 768, Note_off_c, 0, 88, 64
1, 768, Note_off_c, 0, 89, 64
1, 769, Note_off_c, 0, 69, 64
1, 769, Note_off_c, 0, 82, 64
1, 769, Note_off_c, 0, 87, 64
1, 769, Note_off_c, 0, 92, 64
1, 770, Note_off_c, 0, 64, 64
1, 771, Note_on_c, 0, 69, 36
1, 771, Note_on_c, 0, 88, 36
1, 772, Note_on_c, 0, 80, 18
1, 772, Note_on_c, 0, 84, 17
1, 773, Note_on_c, 0, 82, 15
1, 773, Note_on_c, 0, 87, 28
1, 773, Note_on_c, 0, 91, 14
1, 773, Note_on_c, 0, 92, 18
1, 774, Note_on_c, 0, 85, 26
1, 774, Note_on_c, 0, 89, 27
1, 775, Note_off_c, 0, 80, 64
1, 775, Note_off_c, 0, 84, 64
1, 776, Note_on_c, 0, 64, 19
1, 776, Note_on_c, 0, 86, 13
1, 776, Note_off_c, 0, 91, 64
1, 777, Note_off_c, 0, 82, 64
1, 777, Note_off_c, 0, 92, 64
1, 778, Note_off_c, 0, 85, 64
1, 779, Note_on_c, 0, 73, 10
1, 779, Note_off_c, 0, 89, 64
1, 780, Note_off_c, 0, 87, 64
1, 781, Note_on_c, 0, 80, 29
1, 781, Note_on_c, 0, 83, 26
1, 781, Note_off_c, 0, 86, 64
1, 782, Note_off_c, 0, 73, 64
1, 782, Note_on_c, 0, 74, 18
1, 782, Note_on_c, 0, 84, 34
1, 782, Note_on_c, 0, 91, 25
1, 782, Note_on_c, 0, 94, 13
1, 783, Note_off_c, 0, 64, 64
1, 783, Note_on_c, 0, 76, 11
1, 783, Note_on_c, 0, 78, 20
1, 783, Note_on_c, 0, 86, 36
1, 783, Note_on_c, 0, 87, 37
1, 783, Note_on_c, 0, 97, 16
1, 784, Note_on_c, 0, 93, 28
1, 785, Note_on_c, 0, 73, 12
1, 785, Note_off_c, 0, 83, 64
1, 785, Note_off_c, 0, 87, 64
1, 785, Note_on_c, 0, 89, 21
1, 785, Note_off_c, 0, 94, 64
1, 786, Note_on_c, 0, 68, 38
1, 786, Note_off_c, 0, 69, 64
1, 786, Note_off_c, 0, 74, 64
1, 786, Note_on_c, 0, 75, 17
1, 786, Note_off_c, 0, 76, 64
1, 786, Note_off_c, 0, 78, 64
1, 786, Note_on_c, 0, 82, 27
1, 786, Note_on_c, 0, 85, 29
1, 786, Note_off_c, 0, 97, 64
1, 787, Note_on_c, 0, 78, 21
1, 787, Note_off_c, 0, 84, 64
1, 787, Note_off_c, 0, 91, 64
1, 787, Note_off_c, 0, 93, 64
1, 788, Note_off_c, 0, 73, 64
1, 788, Note_on_c, 0, 81, 19
1, 788, Note_on_c, 0, 87, 40
1, 788, Note_off_c, 0, 89, 64
1, 790, Note_off_c, 0, 75, 64
1, 790, Note_on_c, 0, 76, 31
1, 790, Note_off_c, 0, 86, 64
1, 790, Note_off_c, 0, 88, 64
1, 790, Note_on_c, 0, 93, 31
1, 791, Note_on_c, 0, 64, 31
1, 791, Note_off_c, 0, 68, 64
1, 791, Note_on_c, 0, 69, 29
1, 791, Note_off_c, 0, 78, 64
1, 791, Note_off_c, 0, 81, 64
1, 791, Note_on_c, 0, 83, 39
1, 791, Note_on_c, 0, 91, 35
1, 791, Note_on_c, 0, 100, 13
1, 792, Note_on_c, 0, 77, 32
1, 792, Note_off_c, 0, 80, 64
1, 792, Note_on_c, 0, 86, 37
1, 792, Note_on_c, 0, 90, 30
1, 792, Note_on_c, 0, 96, 17
1, 793, Note_on_c, 0, 80, 38
1, 793, Note_on_c, 0, 81, 32
1, 793, Note_off_c, 0, 82, 64
1, 793, Note_off_c, 0, 85, 64
1, 793, Note_on_c, 0, 94, 27
1, 794, Note_on_c, 0, 57, 24
1, 794, Note_off_c, 0, 76, 64
1, 794, Note_off_c, 0, 77, 64
1, 794, Note_on_c, 0, 82, 42
1, 794, Note_on_c, 0, 85, 40
1, 794, Note_on_c, 0, 89, 39
1, 794, Note_off_c, 0, 90, 64
1, 795, Note_off_c, 0, 69, 64
1, 795, Note_off_c, 0, 81, 64
1, 795, Note_off_c, 0, 83, 64
1, 795, Note_off_c, 0, 93, 64
1, 795, Note_on_c, 0, 95, 16
1, 795, Note_off_c, 0, 100, 64
1, 796, Note_off_c, 0, 64, 64
1, 796, Note_on_c, 0, 69, 39
1, 796, Note_on_c, 0, 75, 21
1, 796, Note_on_c, 0, 78, 18
1, 796, Note_on_c, 0, 93, 14
1, 797, Note_on_c, 0, 83, 20
1, 797, Note_on_c, 0, 84, 30
1, 797, Note_off_c, 0, 87, 64
1, 797, Note_off_c, 0, 91, 64
1, 797, Note_off_c, 0, 94, 64
1, 797, Note_off_c, 0, 96, 64
1, 798, Note_on_c, 0, 74, 18
1, 798, Note_off_c, 0, 80, 64
1, 798, Note_off_c, 0, 85, 64
1, 798, Note_on_c, 0, 87, 32
1, 799, Note_off_c, 0, 75, 64
1, 799, Note_off_c, 0, 89, 64
1, 799, Note_off_c, 0, 95, 64
1, 800, Note_off_c, 0, 57, 64
1, 800, Note_off_c, 0, 78, 64
1, 800, Note_off_c, 0, 83, 64
1, 800, Note_on_c, 0, 85, 28
1, 800, Note_on_c, 0, 88, 32
1, 800, Note_on_c, 0, 92, 9
1, 800, Note_off_c, 0, 93, 64
1, 801, Note_off_c, 0, 74, 64
1, 801, Note_off_c, 0, 82, 64
1, 801, Note_on_c, 0, 90, 25
1, 802, Note_on_c, 0, 80, 18
1, 803, Note_off_c, 0, 86, 64
1, 803, Note_off_c, 0, 92, 64
1, 804, Note_on_c, 0, 64, 20
1, 804, Note_off_c, 0, 88, 64
1, 804, Note_off_c, 0, 90, 64
1, 805, Note_off_c, 0, 84, 64
1, 806, Note_off_c, 0, 87, 64
1, 807, Note_off_c, 0, 64, 64
1, 807, Note_off_c, 0, 85, 64
1, 808, Note_off_c, 0, 69, 64
1, 808, Note_off_c, 0, 80, 64
1, 810, Note_on_c, 0, 68, 22
1, 810, Note_on_c, 0, 78, 19
1, 810, Note_on_c, 0, 81, 14
1, 810, Note_on_c, 0, 85, 28
1, 811, Note_on_c, 0, 87, 21
1, 811, Note_on_c, 0, 94, 10
1, 813, Note_off_c, 0, 81, 64
1, 813, Note_on_c, 0, 82, 20
1, 813, Note_on_c, 0, 84, 23
1, 813, Note_on_c, 0, 88, 14
1, 814, Note_off_c, 0, 68, 64
1, 814, Note_on_c, 0, 69, 39
1, 814, Note_off_c, 0, 78, 64
1, 814, Note_off_c, 0, 94, 64
1, 815, Note_on_c, 0, 57, 17
1, 816, Note_off_c, 0, 82, 64
1, 816, Note_off_c, 0, 88, 64
1, 818, Note_on_c, 0, 63, 28
1, 818, Note_off_c, 0, 87, 64
1, 818, Note_on_c, 0, 90, 27
1, 819, Note_on_c, 0, 78, 28
1, 819, Note_on_c, 0, 80, 38
1, 819, Note_on_c, 0, 83, 34
1, 819, Note_on_c, 0, 86, 45
1, 819, Note_on_c, 0, 87, 26
1, 819, Note_on_c, 0, 96, 26
1, 819, Note_on_c, 0, 100, 15
1, 819, Note_on_c, 0, 101, 18
1, 820, Note_on_c, 0, 56, 35
1, 820, Note_off_c, 0, 57, 64
1, 820, Note_on_c, 0, 73, 15
1, 820, Note_on_c, 0, 77, 30
1, 820, Note_off_c, 0, 84, 64
1, 820, Note_on_c, 0, 88, 24
1, 820, Note_on_c, 0, 92, 38
1, 821, Note_off_c, 0, 63, 64
1, 821, Note_on_c, 0, 82, 35
1, 821, Note_on_c, 0, 89, 31
1, 821, Note_on_c, 0, 93, 25
1, 822, Note_on_c, 0, 63, 39
1, 822, Note_on_c, 0, 84, 36
1, 822, Note_off_c, 0, 87, 64
1, 822, Note_off_c, 0, 90, 64
1, 822, Note_on_c, 0, 91, 18
1, 823, Note_off_c, 0, 73, 64
1, 823, Note_off_c, 0, 77, 64
1, 823, Note_off_c, 0, 83, 64
1, 823, Note_off_c, 0, 85, 64
1, 823, Note_off_c, 0, 100, 64
1, 824, Note_on_c, 0, 68, 47
1, 824, Note_off_c, 0, 69, 64
1, 824, Note_off_c, 0, 101, 64
1, 825, Note_off_c, 0, 78, 64
1, 825, Note_off_c, 0, 80, 64
1, 825, Note_on_c, 0, 85, 24
1, 825, Note_off_c, 0, 89, 64
1, 825, Note_off_c, 0, 91, 64
1, 825, Note_off_c, 0, 92, 64
1, 826, Note_off_c, 0, 82, 64
1, 826, Note_on_c, 0, 87, 31
1, 826, Note_off_c, 0, 88, 64
1, 826, Note_on_c, 0, 91, 32
1, 826, Note_on_c, 0, 94, 16
1, 826, Note_off_c, 0, 96, 64
1, 827, Note_off_c, 0, 86, 64
1, 828, Note_on_c, 0, 79, 34
1, 828, Note_on_c, 0, 88, 19
1, 829, Note_on_c, 0, 81, 41
1, 829, Note_on_c, 0, 83, 40
1, 829, Note_off_c, 0, 85, 64
1, 829, Note_on_c, 0, 86, 38
1, 829, Note_on_c, 0, 89, 20
1, 829, Note_off_c, 0, 93, 64
1, 829, Note_on_c, 0, 97, 15
1, 830, Note_on_c, 0, 76, 28
1, 830, Note_off_c, 0, 84, 64
1, 830, Note_on_c, 0, 90, 25
1, 831, Note_on_c, 0, 73, 27
1, 831, Note_on_c, 0, 82, 38
1, 831, Note_on_c, 0, 84, 40
1, 832, Note_off_c, 0, 63, 64
1, 832, Note_off_c, 0, 83, 64
1, 832, Note_on_c, 0, 85, 39
1, 832, Note_off_c, 0, 88, 64
1, 832, Note_off_c, 0, 91, 64
1, 832, Note_off_c, 0, 97, 64
1, 833, Note_on_c, 0, 63, 33
1, 833, Note_off_c, 0, 68, 64
1, 833, Note_off_c, 0, 79, 64
1, 833, Note_on_c, 0, 80, 40
1, 833, Note_off_c, 0, 84, 64
1, 833, Note_off_c, 0, 94, 64
1, 834, Note_on_c, 0, 78, 22
1, 834, Note_off_c, 0, 82, 64
1, 834, Note_off_c, 0, 87, 64
1, 835, Note_on_c, 0, 69, 42
1, 835, Note_off_c, 0, 81, 64
1, 835, Note_on_c, 0, 82, 25
1, 835, Note_on_c, 0, 83, 27
1, 835, Note_off_c, 0, 86, 64
1, 835, Note_off_c, 0, 89, 64
1, 836, Note_off_c, 0, 63, 64
1, 836, Note_on_c, 0, 75, 35
1, 836, Note_off_c, 0, 76, 64
1, 836, Note_off_c, 0, 85, 64
1, 836, Note_off_c, 0, 90, 64
1, 837, Note_off_c, 0, 56, 64
1, 837, Note_on_c, 0, 63, 23
1, 837, Note_on_c, 0, 68, 41
1, 837, Note_off_c, 0, 69, 64
1, 837, Note_off_c, 0, 73, 64
1, 837, Note_on_c, 0, 91, 27
1, 838, Note_off_c, 0, 78, 64
1, 838, Note_on_c, 0, 79, 32
1, 838, Note_off_c, 0, 80, 64
1, 838, Note_off_c, 0, 82, 64
1, 838, Note_on_c, 0, 85, 35
1, 838, Note_on_c, 0, 90, 21
1, 838, Note_on_c, 0, 96, 18
1, 838, Note_on_c, 0, 99, 25
1, 838, Note_on_c, 0, 101, 14
1, 838, Note_on_c, 0, 102, 24
1, 839, Note_on_c, 0, 78, 33
1, 839, Note_on_c, 0, 82, 35
1, 839, Note_on_c, 0, 88, 24
1, 839, Note_on_c, 0, 98, 15
1, 840, Note_off_c, 0, 63, 64
1, 840, Note_off_c, 0, 79, 64
1, 840, Note_off_c, 0, 83, 64
1, 840, Note_off_c, 0, 91, 64
1, 840, Note_on_c, 0, 93, 29
1, 841, Note_off_c, 0, 68, 64
1, 841, Note_on_c, 0, 69, 30
1, 841, Note_on_c, 0, 73, 34
1, 841, Note_on_c, 0, 81, 39
1, 842, Note_off_c, 0, 78, 64
1, 842, Note_off_c, 0, 85, 64
1, 842, Note_off_c, 0, 102, 64
1, 843, Note_off_c, 0, 69, 64
1, 843, Note_on_c, 0, 76, 32
1, 843, Note_on_c, 0, 78, 26
1, 843, Note_on_c, 0, 79, 27
1, 843, Note_off_c, 0, 93, 64
1, 843, Note_off_c, 0, 98, 64
1, 843, Note_off_c, 0, 99, 64
1, 843, Note_off_c, 0, 101, 64
1, 844, Note_off_c, 0, 75, 64
1, 844, Note_off_c, 0, 81, 64
1, 844, Note_off_c, 0, 96, 64
1, 845, Note_on_c, 0, 68, 19
1, 845, Note_on_c, 0, 74, 25
1, 845, Note_on_c, 0, 81, 13
1, 845, Note_on_c, 0, 86, 35
1, 845, Note_off_c, 0, 90, 64
1, 846, Note_off_c, 0, 73, 64
1, 846, Note_off_c, 0, 79, 64
1, 846, Note_off_c, 0, 88, 64
1, 847, Note_off_c, 0, 76, 64
1, 847, Note_off_c, 0, 82, 64
1, 847, Note_on_c, 0, 83, 23
1, 847, Note_on_c, 0, 88, 16
1, 847, Note_on_c, 0, 96, 15
1, 848, Note_off_c, 0, 68, 64
1, 848, Note_off_c, 0, 81, 64
1, 848, Note_on_c, 0, 84, 29
1, 848, Note_on_c, 0, 87, 20
1, 848, Note_on_c, 0, 90, 35
1, 849, Note_off_c, 0, 78, 64
1, 849, Note_on_c, 0, 92, 19
1, 849, Note_on_c, 0, 97, 16
1, 849, Note_on_c, 0, 103, 16
1, 850, Note_on_c, 0, 68, 24
1, 850, Note_off_c, 0, 74, 64
1, 850, Note_off_c, 0, 88, 64
1, 850, Note_off_c, 0, 96, 64
1, 851, Note_on_c, 0, 60, 18
1, 851, Note_on_c, 0, 80, 30
1, 851, Note_off_c, 0, 83, 64
1, 851, Note_off_c, 0, 87, 64
1, 851, Note_on_c, 0, 88, 29
1, 851, Note_on_c, 0, 89, 20
1, 851, Note_on_c, 0, 91, 20
1, 852, Note_on_c, 0, 76, 32
1, 852, Note_on_c, 0, 81, 18
1, 852, Note_on_c, 0, 83, 14
1, 852, Note_off_c, 0, 84, 64
1, 852, Note_off_c, 0, 86, 64
1, 852, Note_off_c, 0, 103, 64
1, 853, Note_on_c, 0, 63, 35
1, 853, Note_on_c, 0, 74, 26
1, 853, Note_on_c, 0, 82, 20
1, 853, Note_on_c, 0, 84, 45
1, 853, Note_off_c, 0, 92, 64
1, 854, Note_off_c, 0, 60, 64
1, 854, Note_off_c, 0, 76, 64
1, 854, Note_on_c, 0, 78, 31
1, 854, Note_on_c, 0, 85, 15
1, 855, Note_off_c, 0, 63, 64
1, 855, Note_on_c, 0, 64, 29
1, 855, Note_off_c, 0, 68, 64
1, 855, Note_on_c, 0, 69, 31
1, 855, Note_on_c, 0, 72, 13
1, 855, Note_off_c, 0, 81, 64
1, 855, Note_off_c, 0, 83, 64
1, 855, Note_on_c, 0, 87, 35
1, 855, Note_off_c, 0, 90, 64
1, 856, Note_off_c, 0, 74, 64
1, 856, Note_off_c, 0, 78, 64
1, 856, Note_on_c, 0, 79, 30
1, 856, Note_off_c, 0, 80, 64
1, 856, Note_off_c, 0, 82, 64
1, 856, Note_off_c, 0, 89, 64
1, 856, Note_on_c, 0, 90, 26
1, 857, Note_off_c, 0, 64, 64
1, 857, Note_on_c, 0, 68, 56
1, 857, Note_off_c, 0, 69, 64
1, 857, Note_on_c, 0, 75, 29
1, 857, Note_on_c, 0, 82, 37
1, 857, Note_off_c, 0, 85, 64
1, 857, Note_on_c, 0, 93, 11
1, 858, Note_off_c, 0, 72, 64
1, 858, Note_on_c, 0, 78, 42
1, 858, Note_off_c, 0, 79, 64
1, 858, Note_off_c, 0, 88, 64
1, 858, Note_on_c, 0, 89, 36
1, 858, Note_off_c, 0, 97, 64
1, 858, Note_on_c, 0, 98, 12
1, 859, Note_on_c, 0, 56, 25
1, 859, Note_on_c, 0, 85, 21
1, 859, Note_on_c, 0, 88, 32
1, 860, Note_on_c, 0, 74, 35
1, 860, Note_off_c, 0, 82, 64
1, 860, Note_on_c, 0, 83, 27
1, 861, Note_on_c, 0, 77, 27
1, 861, Note_on_c, 0, 82, 30
1, 861, Note_off_c, 0, 89, 64
1, 861, Note_off_c, 0, 93, 64
1, 862, Note_on_c, 0, 72, 40
1, 862, Note_off_c, 0, 75, 64
1, 862, Note_on_c, 0, 79, 29
1, 862, Note_on_c, 0, 81, 24
1, 862, Note_off_c, 0, 84, 64
1, 862, Note_off_c, 0, 98, 64
1, 863, Note_on_c, 0, 63, 31
1, 863, Note_off_c, 0, 83, 64
1, 863, Note_off_c, 0, 88, 64
1, 863, Note_off_c, 0, 90, 64
1, 863, Note_off_c, 0, 91, 64
1, 864, Note_off_c, 0, 74, 64
1, 864, Note_off_c, 0, 77, 64
1, 864, Note_off_c, 0, 79, 64
1, 864, Note_off_c, 0, 87, 64
1, 865, Note_off_c, 0, 78, 64
1, 865, Note_off_c, 0, 81, 64
1, 866, Note_on_c, 0, 78, 29
1, 866, Note_on_c, 0, 83, 46
1, 866, Note_on_c, 0, 91, 15
1, 866, Note_on_c, 0, 92, 15
1, 866, Note_on_c, 0, 96, 20
1, 867, Note_off_c, 0, 72, 64
1, 867, Note_on_c, 0, 74, 36
1, 867, Note_on_c, 0, 81, 36
1, 867, Note_off_c, 0, 82, 64
1, 867, Note_off_c, 0, 85, 64
1, 868, Note_on_c, 0, 72, 39
1, 869, Note_off_c, 0, 68, 64
1, 869, Note_on_c, 0, 69, 35
1, 869, Note_on_c, 0, 75, 34
1, 869, Note_on_c, 0, 77, 44
1, 869, Note_off_c, 0, 78, 64
1, 869, Note_on_c, 0, 79, 41
1, 869, Note_off_c, 0, 81, 64
1, 869, Note_on_c, 0, 82, 36
1, 869, Note_on_c, 0, 85, 33
1, 870, Note_off_c, 0, 74, 64
1, 870, Note_on_c, 0, 78, 40
1, 870, Note_on_c, 0, 88, 30
1, 871, Note_on_c, 0, 62, 31
1, 871, Note_off_c, 0, 63, 64
1, 871, Note_on_c, 0, 68, 42
1, 871, Note_off_c, 0, 69, 64
1, 871, Note_off_c, 0, 79, 64
1, 871, Note_off_c, 0, 83, 64
1, 871, Note_off_c, 0, 85, 64
1, 871, Note_off_c, 0, 91, 64
1, 871, Note_off_c, 0, 92, 64
1, 872, Note_off_c, 0, 88, 64
1, 873, Note_off_c, 0, 56, 64
1, 873, Note_off_c, 0, 62, 64
1, 873, Note_on_c, 0, 63, 41
1, 873, Note_off_c, 0, 82, 64
1, 873, Note_on_c, 0, 83, 58
1, 874, Note_off_c, 0, 68, 64
1, 874, Note_off_c, 0, 72, 64
1, 874, Note_off_c, 0, 78, 64
1, 874, Note_on_c, 0, 82, 53
1, 874, Note_on_c, 0, 90, 34
1, 874, Note_on_c, 0, 92, 33
1, 874, Note_on_c, 0, 99, 23
1, 875, Note_on_c, 0, 68, 32
1, 875, Note_on_c, 0, 70, 25
1, 875, Note_off_c, 0, 75, 64
1, 875, Note_on_c, 0, 76, 47
1, 875, Note_off_c, 0, 77, 64
1, 875, Note_on_c, 0, 84, 37
1, 875, Note_on_c, 0, 87, 39
1, 875, Note_on_c, 0, 91, 36
1, 875, Note_on_c, 0, 93, 28
1, 876, Note_on_c, 0, 74, 43
1, 876, Note_on_c, 0, 78, 55
1, 876, Note_on_c, 0, 85, 53
1, 877, Note_on_c, 0, 81, 39
1, 877, Note_off_c, 0, 84, 64
1, 878, Note_off_c, 0, 63, 64
1, 878, Note_on_c, 0, 66, 23
1, 878, Note_off_c, 0, 70, 64
1, 878, Note_on_c, 0, 72, 30
1, 878, Note_on_c, 0, 79, 56
1, 878, Note_on_c, 0, 84, 33
1, 878, Note_off_c, 0, 92, 64
1, 878, Note_off_c, 0, 93, 64
1, 878, Note_off_c, 0, 99, 64
1, 879, Note_on_c, 0, 64, 26
1, 879, Note_off_c, 0, 68, 64
1, 879, Note_on_c, 0, 73, 37
1, 879, Note_off_c, 0, 74, 64
1, 879, Note_off_c, 0, 81, 64
1, 879, Note_off_c, 0, 85, 64
1, 879, Note_on_c, 0, 92, 27
1, 880, Note_off_c, 0, 72, 64
1, 880, Note_off_c, 0, 79, 64
1, 880, Note_on_c, 0, 80, 45
1, 880, Note_off_c, 0, 82, 64
1, 881, Note_off_c, 0, 66, 64
1, 881, Note_on_c, 0, 72, 37
1, 881, Note_on_c, 0, 79, 47
1, 881, Note_on_c, 0, 82, 33
1, 881, Note_off_c, 0, 84, 64
1, 881, Note_off_c, 0, 96, 64
1, 882, Note_off_c, 0, 73, 64
1, 882, Note_on_c, 0, 74, 41
1, 882, Note_off_c, 0, 78, 64
1, 882, Note_off_c, 0, 80, 64
1, 882, Note_on_c, 0, 89, 21
1, 882, Note_off_c, 0, 91, 64
1, 883, Note_on_c, 0, 59, 11
1, 883, Note_off_c, 0, 64, 64
1, 883, Note_off_c, 0, 72, 64
1, 883, Note_on_c, 0, 73, 35
1, 883, Note_off_c, 0, 76, 64
1, 883, Note_on_c, 0, 77, 42
1, 883, Note_off_c, 0, 83, 64
1, 883, Note_on_c, 0, 84, 36
1, 883, Note_off_c, 0, 92, 64
1, 883, Note_on_c, 0, 95, 11
1, 884, Note_on_c, 0, 68, 33
1, 884, Note_off_c, 0, 74, 64
1, 884, Note_on_c, 0, 75, 39
1, 885, Note_on_c, 0, 63, 31
1, 885, Note_on_c, 0, 71, 21
1, 885, Note_off_c, 0, 73, 64
1, 885, Note_off_c, 0, 77, 64
1, 885, Note_on_c, 0, 81, 28
1, 885, Note_on_c, 0, 86, 20
1, 886, Note_off_c, 0, 59, 64
1, 887, Note_off_c, 0, 63, 64
1, 887, Note_on_c, 0, 64, 31
1, 887, Note_off_c, 0, 68, 64
1, 887, Note_off_c, 0, 82, 64
1, 887, Note_off_c, 0, 90, 64
1, 888, Note_on_c, 0, 73, 16
1, 888, Note_off_c, 0, 79, 64
1, 888, Note_off_c, 0, 81, 64
1, 888, Note_on_c, 0, 82, 35
1, 888, Note_off_c, 0, 89, 64
1, 888, Note_off_c, 0, 95, 64
1, 889, Note_off_c, 0, 64, 64
1, 889, Note_off_c, 0, 75, 64
1, 889, Note_on_c, 0, 76, 30
1, 889, Note_off_c, 0, 84, 64
1, 890, Note_on_c, 0, 63, 27
1, 890, Note_off_c, 0, 71, 64
1, 890, Note_on_c, 0, 79, 22
1, 890, Note_off_c, 0, 87, 64
1, 891, Note_on_c, 0, 67, 18
1, 891, Note_on_c, 0, 77, 18
1, 891, Note_off_c, 0, 86, 64
1, 892, Note_on_c, 0, 89, 32
1, 893, Note_on_c, 0, 66, 26
1, 893, Note_on_c, 0, 75, 41
1, 893, Note_off_c, 0, 76, 64
1, 893, Note_off_c, 0, 79, 64
1, 893, Note_on_c, 0, 81, 53
1, 893, Note_off_c, 0, 82, 64
1, 893, Note_on_c, 0, 83, 47
1, 893, Note_on_c, 0, 86, 39
1, 894, Note_off_c, 0, 63, 64
1, 894, Note_off_c, 0, 67, 64
1, 894, Note_on_c, 0, 68, 49
1, 894, Note_on_c, 0, 71, 30
1, 894, Note_off_c, 0, 73, 64
1, 894, Note_on_c, 0, 90, 40
1, 894, Note_on_c, 0, 91, 36
1, 894, Note_on_c, 0, 94, 38
1, 895, Note_on_c, 0, 74, 40
1, 895, Note_off_c, 0, 75, 64
1, 895, Note_off_c, 0, 77, 64
1, 895, Note_on_c, 0, 78, 44
1, 895, Note_on_c, 0, 84, 53
1, 895, Note_on_c, 0, 88, 35
1, 896, Note_on_c, 0, 70, 24
1, 896, Note_off_c, 0, 71, 64
1, 896, Note_on_c, 0, 76, 42
1, 896, Note_on_c, 0, 85, 51
1, 896, Note_off_c, 0, 86, 64
1, 896, Note_on_c, 0, 92, 33
1, 897, Note_on_c, 0, 63, 30
1, 897, Note_off_c, 0, 66, 64
1, 897, Note_off_c, 0, 83, 64
1, 897, Note_off_c, 0, 89, 64
1, 897, Note_off_c, 0, 94, 64
1, 898, Note_on_c, 0, 73, 44
1, 898, Note_off_c, 0, 74, 64
1, 898, Note_on_c, 0, 75, 41
1, 898, Note_on_c, 0, 77, 50
1, 898, Note_off_c, 0, 78, 64
1, 898, Note_on_c, 0, 79, 44
1, 898, Note_on_c, 0, 83, 37
1, 898, Note_off_c, 0, 84, 64
1, 898, Note_on_c, 0, 94, 23
1, 899, Note_off_c, 0, 70, 64
1, 899, Note_on_c, 0, 71, 32
1, 899, Note_off_c, 0, 76, 64
1, 899, Note_on_c, 0, 84, 39
1, 899, Note_off_c, 0, 92, 64
1, 900, Note_on_c, 0, 76, 48
1, 900, Note_off_c, 0, 77, 64
1, 900, Note_on_c, 0, 78, 53
1, 900, Note_off_c, 0, 90, 64
1, 901, Note_off_c, 0, 73, 64
1, 901, Note_off_c, 0, 75, 64
1, 901, Note_off_c, 0, 79, 64
1, 901, Note_off_c, 0, 91, 64
1, 902, Note_off_c, 0, 71, 64
1, 902, Note_off_c, 0, 81, 64
1, 902, Note_on_c, 0, 82, 35
1, 902, Note_off_c, 0, 83, 64
1, 903, Note_off_c, 0, 63, 64
1, 903, Note_on_c, 0, 72, 38
1, 903, Note_on_c, 0, 75, 42
1, 903, Note_off_c, 0, 76, 64
1, 903, Note_on_c, 0, 83, 44
1, 903, Note_off_c, 0, 85, 64
1, 904, Note_on_c, 0, 64, 30
1, 904, Note_on_c, 0, 69, 44
1, 904, Note_off_c, 0, 88, 64
1, 904, Note_on_c, 0, 89, 28
1, 905, Note_off_c, 0, 68, 64
1, 905, Note_off_c, 0, 78, 64
1, 905, Note_off_c, 0, 84, 64
1, 905, Note_on_c, 0, 85, 32
1, 905, Note_on_c, 0, 88, 24
1, 906, Note_off_c, 0, 64, 64
1, 906, Note_on_c, 0, 78, 50
1, 906, Note_on_c, 0, 86, 32
1, 907, Note_off_c, 0, 69, 64
1, 907, Note_off_c, 0, 72, 64
1, 907, Note_on_c, 0, 81, 51
1, 907, Note_off_c, 0, 82, 64
1, 907, Note_off_c, 0, 85, 64
1, 907, Note_off_c, 0, 94, 64
1, 907, Note_on_c, 0, 97, 12
1, 908, Note_on_c, 0, 57, 27
1, 908, Note_on_c, 0, 71, 41
1, 908, Note_on_c, 0, 74, 32
1, 908, Note_off_c, 0, 75, 64
1, 908, Note_on_c, 0, 77, 43
1, 909, Note_on_c, 0, 67, 27
1, 909, Note_on_c, 0, 75, 45
1, 909, Note_off_c, 0, 78, 64
1, 909, Note_on_c, 0, 85, 25
1, 909, Note_off_c, 0, 86, 64
1, 910, Note_off_c, 0, 97, 64
1, 911, Note_off_c, 0, 57, 64
1, 911, Note_off_c, 0, 74, 64
1, 911, Note_on_c, 0, 79, 31
1, 912, Note_off_c, 0, 71, 64
1, 912, Note_on_c, 0, 86, 25
1, 912, Note_off_c, 0, 88, 64
1, 912, Note_on_c, 0, 90, 26
1, 913, Note_off_c, 0, 67, 64
1, 913, Note_off_c, 0, 79, 64
1, 913, Note_off_c, 0, 83, 64
1, 913, Note_on_c, 0, 84, 33
1, 913, Note_on_c, 0, 91, 16
1, 915, Note_on_c, 0, 79, 31
1, 915, Note_off_c, 0, 85, 64
1, 916, Note_on_c, 0, 64, 25
1, 916, Note_on_c, 0, 74, 34
1, 916, Note_off_c, 0, 75, 64
1, 916, Note_off_c, 0, 90, 64
1, 916, Note_off_c, 0, 91, 64
1, 917, Note_on_c, 0, 68, 24
1, 918, Note_off_c, 0, 79, 64
1, 918, Note_off_c, 0, 84, 64
1, 918, Note_off_c, 0, 86, 64
1, 919, Note_off_c, 0, 64, 64
1, 919, Note_off_c, 0, 81, 64
1, 921, Note_off_c, 0, 68, 64
1, 921, Note_on_c, 0, 69, 17
1, 921, Note_off_c, 0, 74, 64
1, 921, Note_off_c, 0, 77, 64
1, 921, Note_on_c, 0, 85, 37
1, 922, Note_on_c, 0, 66, 25
1, 922, Note_on_c, 0, 71, 19
1, 922, Note_on_c, 0, 79, 30
1, 922, Note_on_c, 0, 87, 24
1, 923, Note_on_c, 0, 73, 36
1, 923, Note_on_c, 0, 80, 30
1, 923, Note_on_c, 0, 84, 32
1, 923, Note_on_c, 0, 90, 22
1, 924, Note_on_c, 0, 75, 30
1, 924, Note_off_c, 0, 79, 64
1, 924, Note_on_c, 0, 81, 30
1, 925, Note_off_c, 0, 69, 64
1, 926, Note_off_c, 0, 66, 64
1, 926, Note_off_c, 0, 71, 64
1, 926, Note_off_c, 0, 75, 64
1, 926, Note_off_c, 0, 81, 64
1, 926, Note_on_c, 0, 82, 26
1, 926, Note_on_c, 0, 88, 30
1, 927, Note_on_c, 0, 75, 25
1, 927, Note_on_c, 0, 77, 30
1, 927, Note_on_c, 0, 78, 29
1, 927, Note_off_c, 0, 87, 64
1, 928, Note_on_c, 0, 72, 18
1, 928, Note_off_c, 0, 73, 64
1, 928, Note_on_c, 0, 74, 16
1, 928, Note_off_c, 0, 84, 64
1, 928, Note_off_c, 0, 89, 64
1, 928, Note_off_c, 0, 90, 64
1, 929, Note_off_c, 0, 77, 64
1, 929, Note_off_c, 0, 80, 64
1, 929, Note_off_c, 0, 82, 64
1, 930, Note_on_c, 0, 68, 46
1, 930, Note_off_c, 0, 75, 64
1, 931, Note_off_c, 0, 74, 64
1, 931, Note_on_c, 0, 79, 36
1, 931, Note_on_c, 0, 82, 39
1, 931, Note_on_c, 0, 83, 37
1, 931, Note_on_c, 0, 89, 27
1, 931, Note_on_c, 0, 93, 15
1, 932, Note_off_c, 0, 72, 64
1, 932, Note_on_c, 0, 74, 27
1, 932, Note_on_c, 0, 77, 35
1, 932, Note_off_c, 0, 78, 64
1, 933, Note_on_c, 0, 65, 34
1, 933, Note_on_c, 0, 72, 36
1, 933, Note_on_c, 0, 90, 24
1, 934, Note_off_c, 0, 77, 64
1, 934, Note_on_c, 0, 78, 45
1, 934, Note_off_c, 0, 79, 64
1, 935, Note_off_c, 0, 65, 64
1, 935, Note_off_c, 0, 72, 64
1, 935, Note_on_c, 0, 73, 43
1, 935, Note_off_c, 0, 74, 64
1, 935, Note_on_c, 0, 76, 34
1, 935, Note_on_c, 0, 87, 23
1, 935, Note_off_c, 0, 89, 64
1, 936, Note_on_c, 0, 81, 18
1, 936, Note_on_c, 0, 84, 25
1, 936, Note_off_c, 0, 88, 64
1, 936, Note_on_c, 0, 89, 17
1, 937, Note_on_c, 0, 72, 32
1, 937, Note_off_c, 0, 73, 64
1, 937, Note_on_c, 0, 75, 29
1, 937, Note_off_c, 0, 76, 64
1, 937, Note_off_c, 0, 82, 64
1, 937, Note_off_c, 0, 85, 64
1, 937, Note_off_c, 0, 93, 64
1, 938, Note_on_c, 0, 73, 45
1, 938, Note_on_c, 0, 77, 39
1, 938, Note_off_c, 0, 78, 64
1, 938, Note_off_c, 0, 83, 64
1, 939, Note_off_c, 0, 72, 64
1, 939, Note_off_c, 0, 81, 64
1, 939, Note_off_c, 0, 84, 64
1, 939, Note_on_c, 0, 88, 16
1, 939, Note_off_c, 0, 89, 64
1, 939, Note_off_c, 0, 90, 64
1, 939, Note_on_c, 0, 91, 20
1, 940, Note_off_c, 0, 75, 64
1, 940, Note_on_c, 0, 83, 33
1, 941, Note_on_c, 0, 62, 22
1, 941, Note_on_c, 0, 81, 36
1, 941, Note_on_c, 0, 84, 32
1, 942, Note_on_c, 0, 69, 41
1, 942, Note_on_c, 0, 78, 39
1, 942, Note_off_c, 0, 87, 64
1, 942, Note_on_c, 0, 98, 14
1, 943, Note_off_c, 0, 68, 64
1, 943, Note_on_c, 0, 80, 33
1, 943, Note_on_c, 0, 87, 15
1, 943, Note_on_c, 0, 94, 15
1, 944, Note_off_c, 0, 62, 64
1, 944, Note_on_c, 0, 63, 27
1, 944, Note_on_c, 0, 71, 31
1, 944, Note_on_c, 0, 76, 39
1, 944, Note_off_c, 0, 77, 64
1, 944, Note_off_c, 0, 81, 64
1, 944, Note_off_c, 0, 88, 64
1, 945, Note_on_c, 0, 56, 31
1, 945, Note_off_c, 0, 69, 64
1, 945, Note_off_c, 0, 80, 64
1, 945, Note_on_c, 0, 81, 32
1, 945, Note_on_c, 0, 82, 23
1, 945, Note_off_c, 0, 91, 64
1, 945, Note_off_c, 0, 98, 64
1, 946, Note_on_c, 0, 66, 33
1, 946, Note_on_c, 0, 68, 38
1, 946, Note_off_c, 0, 76, 64
1, 946, Note_off_c, 0, 78, 64
1, 946, Note_off_c, 0, 83, 64
1, 947, Note_off_c, 0, 73, 64
1, 947, Note_off_c, 0, 81, 64
1, 947, Note_off_c, 0, 94, 64
1, 948, Note_off_c, 0, 66, 64
1, 948, Note_off_c, 0, 71, 64
1, 948, Note_on_c, 0, 77, 29
1, 948, Note_on_c, 0, 81, 25
1, 948, Note_off_c, 0, 84, 64
1, 949, Note_off_c, 0, 68, 64
1, 949, Note_on_c, 0, 73, 14
1, 949, Note_on_c, 0, 85, 39
1, 949, Note_off_c, 0, 87, 64
1, 950, Note_off_c, 0, 56, 64
1, 950, Note_off_c, 0, 63, 64
1, 950, Note_on_c, 0, 68, 30
1, 950, Note_on_c, 0, 80, 34
1, 950, Note_on_c, 0, 90, 33
1, 950, Note_on_c, 0, 91, 27
1, 950, Note_on_c, 0, 95, 19
1, 951, Note_off_c, 0, 77, 64
1, 951, Note_on_c, 0, 78, 30
1, 951, Note_off_c, 0, 81, 64
1, 951, Note_on_c, 0, 83, 14
1, 951, Note_on_c, 0, 93, 15
1, 951, Note_on_c, 0, 96, 17
1, 952, Note_off_c, 0, 73, 64
1, 952, Note_on_c, 0, 81, 35
1, 952, Note_off_c, 0, 82, 64
1, 952, Note_on_c, 0, 98, 10
1, 953, Note_on_c, 0, 66, 26
1, 953, Note_off_c, 0, 68, 64
1, 954, Note_on_c, 0, 73, 23
1, 954, Note_off_c, 0, 80, 64
1, 954, Note_off_c, 0, 83, 64
1, 954, Note_off_c, 0, 95, 64
1, 954, Note_off_c, 0, 96, 64
1, 955, Note_on_c, 0, 82, 36
1, 955, Note_off_c, 0, 90, 64
1, 955, Note_off_c, 0, 98, 64
1, 956, Note_on_c, 0, 64, 16
1, 956, Note_off_c, 0, 66, 64
1, 956, Note_off_c, 0, 81, 64
1, 956, Note_off_c, 0, 91, 64
1, 956, Note_off_c, 0, 93, 64
1, 957, Note_off_c, 0, 73, 64
1, 957, Note_on_c, 0, 74, 29
1, 957, Note_on_c, 0, 76, 23
1, 958, Note_on_c, 0, 81, 21
1, 958, Note_off_c, 0, 82, 64
1, 959, Note_on_c, 0, 70, 21
1, 959, Note_on_c, 0, 77, 36
1, 959, Note_off_c, 0, 78, 64
1, 959, Note_on_c, 0, 83, 34
1, 959, Note_on_c, 0, 90, 21
1, 960, Note_off_c, 0, 64, 64
1, 960, Note_off_c, 0, 76, 64
1, 960, Note_on_c, 0, 79, 37
1, 960, Note_off_c, 0, 85, 64
1, 960, Note_on_c, 0, 86, 40
1, 961, Note_on_c, 0, 76, 36
1, 961, Note_off_c, 0, 81, 64
1, 961, Note_on_c, 0, 82, 32
1, 962, Note_off_c, 0, 70, 64
1, 962, Note_off_c, 0, 77, 64
1, 962, Note_on_c, 0, 78, 31
1, 963, Note_on_c, 0, 77, 36
1, 963, Note_on_c, 0, 84, 21
1, 964, Note_off_c, 0, 74, 64
1, 964, Note_off_c, 0, 78, 64
1, 964, Note_on_c, 0, 80, 30
1, 964, Note_on_c, 0, 81, 30
1, 964, Note_off_c, 0, 82, 64
1, 965, Note_off_c, 0, 76, 64
1, 965, Note_off_c, 0, 77, 64
1, 965, Note_on_c, 0, 82, 20
1, 965, Note_off_c, 0, 86, 64
1, 965, Note_off_c, 0, 90, 64
1, 966, Note_off_c, 0, 81, 64
1, 966, Note_off_c, 0, 83, 64
1, 966, Note_off_c, 0, 84, 64
1, 967, Note_on_c, 0, 87, 13
1, 967, Note_on_c, 0, 90, 17
1, 968, Note_on_c, 0, 73, 38
1, 968, Note_off_c, 0, 82, 64
1, 969, Note_on_c, 0, 81, 18
1, 969, Note_on_c, 0, 84, 20
1, 969, Note_on_c, 0, 86, 22
1, 970, Note_on_c, 0, 70, 39
1, 970, Note_off_c, 0, 79, 64
1, 970, Note_off_c, 0, 87, 64
1, 971, Note_on_c, 0, 76, 27
1, 971, Note_on_c, 0, 79, 33
1, 971, Note_off_c, 0, 80, 64
1, 971, Note_off_c, 0, 90, 64
1, 972, Note_on_c, 0, 61, 30
1, 972, Note_on_c, 0, 66, 38
1, 972, Note_on_c, 0, 68, 51
1, 972, Note_off_c, 0, 81, 64
1, 972, Note_off_c, 0, 86, 64
1, 973, Note_on_c, 0, 82, 39
1, 974, Note_off_c, 0, 61, 64
1, 974, Note_on_c, 0, 62, 36
1, 974, Note_off_c, 0, 79, 64
1, 974, Note_on_c, 0, 92, 11
1, 975, Note_off_c, 0, 66, 64
1, 975, Note_off_c, 0, 70, 64
1, 976, Note_on_c, 0, 54, 26
1, 976, Note_off_c, 0, 73, 64
1, 976, Note_on_c, 0, 74, 40
1, 976, Note_off_c, 0, 76, 64
1, 976, Note_on_c, 0, 77, 30
1, 976, Note_off_c, 0, 84, 64
1, 977, Note_on_c, 0, 61, 29
1, 977, Note_off_c, 0, 62, 64
1, 977, Note_on_c, 0, 66, 42
1, 977, Note_on_c, 0, 73, 31
1, 977, Note_off_c, 0, 92, 64
1, 979, Note_off_c, 0, 54, 64
1, 979, Note_on_c, 0, 84, 31
1, 980, Note_on_c, 0, 57, 29
1, 980, Note_off_c, 0, 61, 64
1, 980, Note_off_c, 0, 66, 64
1, 980, Note_off_c, 0, 73, 64
1, 980, Note_on_c, 0, 76, 41
1, 980, Note_off_c, 0, 77, 64
1, 981, Note_off_c, 0, 74, 64
1, 981, Note_on_c, 0, 85, 27
1, 982, Note_off_c, 0, 57, 64
1, 982, Note_on_c, 0, 64, 42
1, 982, Note_off_c, 0, 68, 64
1, 982, Note_on_c, 0, 69, 50
1, 982, Note_on_c, 0, 78, 33
1, 983, Note_on_c, 0, 72, 52
1, 983, Note_on_c, 0, 75, 26
1, 983, Note_off_c, 0, 76, 64
1, 983, Note_on_c, 0, 80, 13
1, 983, Note_on_c, 0, 89, 17
1, 985, Note_off_c, 0, 64, 64
1, 985, Note_off_c, 0, 69, 64
1, 986, Note_off_c, 0, 72, 64
1, 986, Note_on_c, 0, 74, 28
1, 986, Note_off_c, 0, 75, 64
1, 986, Note_off_c, 0, 80, 64
1, 986, Note_on_c, 0, 81, 26
1, 986, Note_on_c, 0, 83, 29
1, 987, Note_on_c, 0, 88, 14
1, 987, Note_off_c, 0, 89, 64
1, 987, Note_on_c, 0, 91, 18
1, 988, Note_on_c, 0, 66, 16
1, 988, Note_on_c, 0, 73, 29
1, 988, Note_off_c, 0, 82, 64
1, 988, Note_off_c, 0, 84, 64
1, 988, Note_off_c, 0, 85, 64
1, 989, Note_on_c, 0, 85, 34
1, 990, Note_off_c, 0, 73, 64
1, 990, Note_off_c, 0, 78, 64
1, 990, Note_on_c, 0, 79, 25
1, 990, Note_off_c, 0, 81, 64
1, 991, Note_off_c, 0, 66, 64
1, 991, Note_on_c, 0, 80, 29
1, 991, Note_on_c, 0, 81, 20
1, 991, Note_off_c, 0, 85, 64
1, 991, Note_off_c, 0, 88, 64
1, 991, Note_on_c, 0, 89, 10
1, 992, Note_on_c, 0, 68, 26
1, 992, Note_off_c, 0, 74, 64
1, 992, Note_on_c, 0, 76, 19
1, 992, Note_off_c, 0, 83, 64
1, 993, Note_off_c, 0, 91, 64
1, 994, Note_off_c, 0, 89, 64
1, 995, Note_off_c, 0, 76, 64
1, 995, Note_on_c, 0, 77, 14
1, 995, Note_off_c, 0, 79, 64
1, 995, Note_off_c, 0, 80, 64
1, 995, Note_off_c, 0, 81, 64
1, 996, Note_on_c, 0, 66, 21
1, 996, Note_off_c, 0, 68, 64
1, 998, Note_on_c, 0, 76, 18
1, 999, Note_off_c, 0, 66, 64
1, 999, Note_on_c, 0, 72, 34
1, 999, Note_off_c, 0, 77, 64
1, 1001, Note_off_c, 0, 76, 64
1, 1002, Note_on_c, 0, 63, 22
1, 1002, Note_on_c, 0, 76, 17
1, 1003, Note_on_c, 0, 66, 22
1, 1003, Note_on_c, 0, 68, 18
1, 1003, Note_off_c, 0, 72, 64
1, 1003, Note_on_c, 0, 73, 13
1, 1003, Note_on_c, 0, 78, 34
1, 1003, Note_on_c, 0, 82, 15
1, 1005, Note_off_c, 0, 63, 64
1, 1006, Note_off_c, 0, 68, 64
1, 1006, Note_off_c, 0, 73, 64
1, 1006, Note_off_c, 0, 76, 64
1, 1007, Note_on_c, 0, 54, 29
1, 1007, Note_on_c, 0, 63, 42
1, 1007, Note_off_c, 0, 66, 64
1, 1007, Note_on_c, 0, 85, 26
1, 1007, Note_on_c, 0, 91, 19
1, 1007, Note_on_c, 0, 92, 17
1, 1008, Note_on_c, 0, 81, 40
1, 1008, Note_off_c, 0, 82, 64
1, 1008, Note_on_c, 0, 84, 25
1, 1009, Note_on_c, 0, 80, 25
1, 1010, Note_on_c, 0, 67, 35
1, 1010, Note_on_c, 0, 70, 39
1, 1010, Note_on_c, 0, 74, 38
1, 1010, Note_on_c, 0, 76, 33
1, 1010, Note_on_c, 0, 83, 30
1, 1010, Note_on_c, 0, 87, 11
1, 1010, Note_off_c, 0, 91, 64
1, 1010, Note_off_c, 0, 92, 64
1, 1011, Note_off_c, 0, 54, 64
1, 1012, Note_off_c, 0, 63, 64
1, 1012, Note_off_c, 0, 67, 64
1, 1012, Note_on_c, 0, 68, 43
1, 1012, Note_on_c, 0, 79, 29
1, 1012, Note_off_c, 0, 80, 64
1, 1012, Note_off_c, 0, 84, 64
1, 1013, Note_on_c, 0, 54, 26
1, 1013, Note_on_c, 0, 61, 34
1, 1013, Note_off_c, 0, 70, 64
1, 1013, Note_off_c, 0, 81, 64
1, 1014, Note_on_c, 0, 66, 45
1, 1014, Note_off_c, 0, 74, 64
1, 1014, Note_off_c, 0, 87, 64
1, 1015, Note_on_c, 0, 70, 38
1, 1015, Note_off_c, 0, 76, 64
1, 1016, Note_off_c, 0, 61, 64
1, 1016, Note_off_c, 0, 66, 64
1, 1016, Note_off_c, 0, 68, 64
1, 1016, Note_on_c, 0, 73, 34
1, 1016, Note_off_c, 0, 78, 64
1, 1016, Note_off_c, 0, 79, 64
1, 1016, Note_on_c, 0, 89, 19
1, 1017, Note_off_c, 0, 54, 64
1, 1017, Note_on_c, 0, 66, 43
1, 1017, Note_on_c, 0, 90, 15
1, 1017, Note_on_c, 0, 96, 11
1, 1018, Note_on_c, 0, 63, 31
1, 1018, Note_on_c, 0, 69, 38
1, 1018, Note_off_c, 0, 70, 64
1, 1018, Note_on_c, 0, 71, 33
1, 1019, Note_off_c, 0, 89, 64
1, 1020, Note_on_c, 0, 54, 9
1, 1020, Note_off_c, 0, 63, 64
1, 1020, Note_off_c, 0, 71, 64
1, 1020, Note_off_c, 0, 73, 64
1, 1020, Note_off_c, 0, 96, 64
1, 1021, Note_off_c, 0, 69, 64
1, 1021, Note_on_c, 0, 76, 19
1, 1021, Note_on_c, 0, 81, 19
1, 1021, Note_off_c, 0, 83, 64
1, 1022, Note_on_c, 0, 61, 33
1, 1022, Note_on_c, 0, 79, 21
1, 1023, Note_off_c, 0, 54, 64
1, 1023, Note_on_c, 0, 74, 15
1, 1024, Note_off_c, 0, 61, 64
1, 1024, Note_off_c, 0, 66, 64
1, 1024, Note_off_c, 0, 81, 64
1, 1025, Note_on_c, 0, 61, 34
1, 1025, Note_off_c, 0, 76, 64
1, 1025, Note_off_c, 0, 79, 64
1, 1025, Note_on_c, 0, 82, 14
1, 1025, Note_on_c, 0, 84, 18
1, 1025, Note_on_c, 0, 89, 16
1, 1026, Note_on_c, 0, 77, 22
1, 1027, Note_off_c, 0, 74, 64
1, 1027, Note_off_c, 0, 85, 64
1, 1027, Note_off_c, 0, 90, 64
1, 1028, Note_off_c, 0, 61, 64
1, 1028, Note_on_c, 0, 74, 20
1, 1028, Note_off_c, 0, 82, 64
1, 1028, Note_off_c, 0, 89, 64
1, 1029, Note_off_c, 0, 77, 64
1, 1029, Note_on_c, 0, 78, 13
1, 1029, Note_off_c, 0, 84, 64
1, 1030, Note_on_c, 0, 61, 22
1, 1031, Note_off_c, 0, 74, 64
1, 1032, Note_on_c, 0, 76, 19
1, 1033, Note_on_c, 0, 68, 22
1, 1033, Note_on_c, 0, 74, 17
1, 1033, Note_off_c, 0, 78, 64
1, 1034, Note_on_c, 0, 84, 18
1, 1035, Note_on_c, 0, 54, 21
1, 1035, Note_off_c, 0, 61, 64
1, 1035, Note_on_c, 0, 78, 27
1, 1036, Note_on_c, 0, 63, 17
1, 1036, Note_off_c, 0, 76, 64
1, 1036, Note_on_c, 0, 77, 14
1, 1037, Note_on_c, 0, 66, 29
1, 1037, Note_off_c, 0, 68, 64
1, 1037, Note_off_c, 0, 74, 64
1, 1038, Note_off_c, 0, 84, 64
1, 1039, Note_off_c, 0, 63, 64
1, 1039, Note_on_c, 0, 65, 26
1, 1039, Note_off_c, 0, 66, 64
1, 1039, Note_off_c, 0, 77, 64
1, 1040, Note_on_c, 0, 61, 22
1, 1040, Note_on_c, 0, 82, 20
1, 1042, Note_off_c, 0, 65, 64
1, 1042, Note_on_c, 0, 66, 54
1, 1042, Note_on_c, 0, 85, 30
1, 1043, Note_off_c, 0, 78, 64
1, 1044, Note_off_c, 0, 61, 64
1, 1044, Note_on_c, 0, 79, 23
1, 1044, Note_on_c, 0, 83, 27
1, 1044, Note_on_c, 0, 88, 17
1, 1045, Note_off_c, 0, 54, 64
1, 1045, Note_on_c, 0, 62, 41
1, 1045, Note_on_c, 0, 89, 16
1, 1045, Note_on_c, 0, 92, 15
1, 1046, Note_on_c, 0, 70, 29
1, 1046, Note_on_c, 0, 73, 31
1, 1046, Note_on_c, 0, 81, 16
1, 1046, Note_off_c, 0, 82, 64
1, 1047, Note_on_c, 0, 55, 19
1, 1047, Note_on_c, 0, 61, 34
1, 1047, Note_off_c, 0, 62, 64
1, 1047, Note_on_c, 0, 76, 26
1, 1047, Note_off_c, 0, 85, 64
1, 1047, Note_off_c, 0, 88, 64
1, 1048, Note_off_c, 0, 70, 64
1, 1048, Note_off_c, 0, 89, 64
1, 1048, Note_off_c, 0, 92, 64
1, 1049, Note_on_c, 0, 70, 36
1, 1049, Note_on_c, 0, 80, 34
1, 1049, Note_off_c, 0, 81, 64
1, 1050, Note_off_c, 0, 55, 64
1, 1050, Note_off_c, 0, 61, 64
1, 1050, Note_off_c, 0, 76, 64
1, 1050, Note_off_c, 0, 79, 64
1, 1050, Note_off_c, 0, 83, 64
1, 1050, Note_on_c, 0, 87, 20
1, 1050, Note_on_c, 0, 88, 14
1, 1051, Note_off_c, 0, 73, 64
1, 1052, Note_off_c, 0, 70, 64
1, 1053, Note_on_c, 0, 70, 33
1, 1053, Note_on_c, 0, 76, 31
1, 1053, Note_on_c, 0, 84, 15
1, 1053, Note_off_c, 0, 87, 64
1, 1053, Note_off_c, 0, 88, 64
1, 1054, Note_on_c, 0, 74, 25
1, 1055, Note_on_c, 0, 62, 41
1, 1055, Note_on_c, 0, 85, 19
1, 1056, Note_off_c, 0, 84, 64
1, 1057, Note_off_c, 0, 62, 64
1, 1057, Note_on_c, 0, 69, 40
1, 1057, Note_off_c, 0, 70, 64
1, 1057, Note_on_c, 0, 73, 32
1, 1057, Note_off_c, 0, 74, 64
1, 1059, Note_on_c, 0, 61, 39
1, 1059, Note_off_c, 0, 69, 64
1, 1059, Note_on_c, 0, 70, 31
1, 1059, Note_off_c, 0, 73, 64
1, 1059, Note_off_c, 0, 76, 64
1, 1060, Note_off_c, 0, 85, 64
1, 1061, Note_off_c, 0, 66, 64
1, 1061, Note_on_c, 0, 67, 34
1, 1061, Note_on_c, 0, 76, 17
1, 1063, Note_off_c, 0, 70, 64
1, 1063, Note_on_c, 0, 85, 21
1, 1064, Note_off_c, 0, 67, 64
1, 1064, Note_off_c, 0, 76, 64
1, 1065, Note_off_c, 0, 61, 64
1, 1065, Note_on_c, 0, 66, 26
1, 1065, Note_on_c, 0, 79, 23
1, 1066, Note_off_c, 0, 80, 64
1, 1066, Note_on_c, 0, 82, 23
1, 1068, Note_on_c, 0, 76, 16
1, 1068, Note_off_c, 0, 79, 64
1, 1068, Note_off_c, 0, 85, 64
1, 1069, Note_off_c, 0, 66, 64
1, 1069, Note_off_c, 0, 82, 64
1, 1072, Note_on_c, 0, 71, 19
1, 1072, Note_on_c, 0, 78, 22
1, 1073, Note_on_c, 0, 61, 22
1, 1073, Note_on_c, 0, 82, 18
1, 1074, Note_on_c, 0, 79, 20
1, 1074, Note_on_c, 0, 89, 14
1, 1076, Note_off_c, 0, 61, 64
1, 1076, Note_off_c, 0, 71, 64
1, 1076, Note_off_c, 0, 76, 64
1, 1076, Note_off_c, 0, 78, 64
1, 1076, Note_off_c, 0, 82, 64
1, 1077, Note_on_c, 0, 58, 15
1, 1077, Note_on_c, 0, 61, 21
1, 1078, Note_off_c, 0, 89, 64
1, 1079, Note_on_c, 0, 66, 46
1, 1079, Note_off_c, 0, 79, 64
1, 1080, Note_off_c, 0, 58, 64
1, 1080, Note_on_c, 0, 82, 16
1, 1080, Note_on_c, 0, 87, 9
1, 1081, Note_off_c, 0, 61, 64
1, 1081, Note_on_c, 0, 62, 34
1, 1081, Note_on_c, 0, 88, 11
1, 1082, Note_on_c, 0, 70, 28
1, 1082, Note_on_c, 0, 77, 15
1, 1083, Note_on_c, 0, 61, 44
1, 1083, Note_off_c, 0, 62, 64
1, 1083, Note_off_c, 0, 82, 64
1, 1083, Note_on_c, 0, 83, 22
1, 1085, Note_off_c, 0, 66, 64
1, 1085, Note_off_c, 0, 70, 64
1, 1085, Note_off_c, 0, 87, 64
1, 1085, Note_off_c, 0, 88, 64
1, 1086, Note_on_c, 0, 70, 23
1, 1086, Note_on_c, 0, 75, 13
1, 1086, Note_off_c, 0, 83, 64
1, 1087, Note_off_c, 0, 77, 64
1, 1087, Note_on_c, 0, 82, 23
1, 1088, Note_off_c, 0, 61, 64
1, 1088, Note_on_c, 0, 62, 30
1, 1089, Note_on_c, 0, 54, 31
1, 1089, Note_on_c, 0, 67, 30
1, 1089, Note_off_c, 0, 70, 64
1, 1089, Note_off_c, 0, 75, 64
1, 1089, Note_on_c, 0, 76, 18
1, 1090, Note_on_c, 0, 61, 35
1, 1090, Note_off_c, 0, 62, 64
1, 1091, Note_on_c, 0, 66, 40
1, 1091, Note_off_c, 0, 67, 64
1, 1091, Note_on_c, 0, 70, 42
1, 1091, Note_off_c, 0, 82, 64
1, 1092, Note_off_c, 0, 76, 64
1, 1092, Note_on_c, 0, 80, 14
1, 1092, Note_on_c, 0, 88, 9
1, 1092, Note_on_c, 0, 92, 15
1, 1093, Note_off_c, 0, 61, 64
1, 1093, Note_off_c, 0, 66, 64
1, 1093, Note_on_c, 0, 68, 39
1, 1093, Note_on_c, 0, 75, 24
1, 1094, Note_on_c, 0, 61, 37
1, 1094, Note_on_c, 0, 66, 39
1, 1095, Note_off_c, 0, 54, 64
1, 1095, Note_off_c, 0, 70, 64
1, 1095, Note_off_c, 0, 80, 64
1, 1095, Note_off_c, 0, 88, 64
1, 1096, Note_off_c, 0, 61, 64
1, 1096, Note_off_c, 0, 92, 64
1, 1097, Note_on_c, 0, 63, 30
1, 1097, Note_off_c, 0, 75, 64
1, 1097, Note_on_c, 0, 76, 14
1, 1097, Note_on_c, 0, 83, 9
1, 1097, Note_on_c, 0, 85, 24
1, 1098, Note_off_c, 0, 66, 64
1, 1099, Note_off_c, 0, 63, 64
1, 1099, Note_off_c, 0, 68, 64
1, 1100, Note_on_c, 0, 66, 36
1, 1100, Note_off_c, 0, 76, 64
1, 1100, Note_off_c, 0, 83, 64
1, 1101, Note_on_c, 0, 83, 19
1, 1101, Note_off_c, 0, 85, 64
1, 1102, Note_off_c, 0, 66, 64
1, 1102, Note_on_c, 0, 81, 9
1, 1103, Note_on_c, 0, 64, 29
1, 1103, Note_on_c, 0, 79, 16
1, 1105, Note_off_c, 0, 83, 64
1, 1106, Note_off_c, 0, 64, 64
1, 1106, Note_off_c, 0, 81, 64
1, 1107, Note_off_c, 0, 79, 64
1, 1108, Note_on_c, 0, 61, 27
1, 1110, Note_on_c, 0, 66, 25
1, 1111, Note_on_c, 0, 80, 9
1, 1112, Note_on_c, 0, 82, 10
1, 1113, Note_off_c, 0, 66, 64
1, 1113, Note_on_c, 0, 70, 23
1, 1114, Note_on_c, 0, 54, 28
1, 1114, Note_off_c, 0, 61, 64
1, 1114, Note_off_c, 0, 80, 64
1, 1115, Note_off_c, 0, 82, 64
1, 1116, Note_on_c, 0, 61, 25
1, 1116, Note_off_c, 0, 70, 64
1, 1118, Note_on_c, 0, 82, 10
1, 1119, Note_off_c, 0, 61, 64
1, 1119, Note_on_c, 0, 68, 37
1, 1119, Note_on_c, 0, 90, 13
1, 1121, Note_on_c, 0, 73, 25
1, 1121, Note_on_c, 0, 81, 23
1, 1121, Note_on_c, 0, 92, 13
1, 1122, Note_off_c, 0, 54, 64
1, 1123, Note_on_c, 0, 59, 32
1, 1123, Note_off_c, 0, 68, 64
1, 1123, Note_on_c, 0, 70, 29
1, 1123, Note_off_c, 0, 82, 64
1, 1123, Note_off_c, 0, 90, 64
1, 1124, Note_on_c, 0, 66, 54
1, 1124, Note_off_c, 0, 73, 64
1, 1124, Note_off_c, 0, 81, 64
1, 1125, Note_off_c, 0, 59, 64
1, 1125, Note_on_c, 0, 85, 16
1, 1125, Note_on_c, 0, 90, 21
1, 1125, Note_off_c, 0, 92, 64
1, 1126, Note_on_c, 0, 80, 16
1, 1128, Note_on_c, 0, 69, 32
1, 1129, Note_off_c, 0, 70, 64
1, 1130, Note_on_c, 0, 60, 40
1, 1131, Note_off_c, 0, 69, 64
1, 1131, Note_on_c, 0, 73, 26
1, 1132, Note_off_c, 0, 60, 64
1, 1132, Note_on_c, 0, 69, 31
1, 1133, Note_on_c, 0, 75, 19
1, 1134, Note_off_c, 0, 69, 64
1, 1134, Note_off_c, 0, 80, 64
1, 1134, Note_on_c, 0, 82, 14
1, 1135, Note_on_c, 0, 54, 29
1, 1135, Note_on_c, 0, 61, 29
1, 1135, Note_off_c, 0, 90, 64
1, 1136, Note_off_c, 0, 73, 64
1, 1136, Note_off_c, 0, 75, 64
1, 1137, Note_off_c, 0, 54, 64
1, 1137, Note_off_c, 0, 66, 64
1, 1137, Note_off_c, 0, 85, 64
1, 1139, Note_off_c, 0, 82, 64
1, 1141, Note_on_c, 0, 66, 16
1, 1144, Note_off_c, 0, 66, 64
1, 1147, Note_on_c, 0, 66, 40
1, 1149, Note_on_c, 0, 72, 10
1, 1151, Note_off_c, 0, 61, 64
1, 1152, Note_off_c, 0, 72, 64
1, 1153, Note_on_c, 0, 65, 29
1, 1153, Note_off_c, 0, 66, 64
1, 1155, Note_off_c, 0, 65, 64
1, 1155, Note_on_c, 0, 85, 14
1, 1156, Note_on_c, 0, 65, 39
1, 1156, Note_on_c, 0, 83, 18
1, 1157, Note_on_c, 0, 78, 33
1, 1158, Note_on_c, 0, 84, 11
1, 1159, Note_on_c, 0, 59, 24
1, 1159, Note_on_c, 0, 69, 32
1, 1159, Note_off_c, 0, 83, 64
1, 1159, Note_off_c, 0, 85, 64
1, 1160, Note_on_c, 0, 61, 44
1, 1160, Note_off_c, 0, 65, 64
1, 1160, Note_on_c, 0, 66, 41
1, 1161, Note_off_c, 0, 69, 64
1, 1161, Note_on_c, 0, 70, 18
1, 1161, Note_off_c, 0, 84, 64
1, 1162, Note_on_c, 0, 55, 17
1, 1162, Note_off_c, 0, 59, 64
1, 1163, Note_on_c, 0, 92, 20
1, 1164, Note_off_c, 0, 66, 64
1, 1164, Note_off_c, 0, 70, 64
1, 1165, Note_off_c, 0, 55, 64
1, 1165, Note_on_c, 0, 66, 42
1, 1166, Note_on_c, 0, 76, 22
1, 1167, Note_off_c, 0, 66, 64
1, 1167, Note_on_c, 0, 67, 40
1, 1167, Note_on_c, 0, 80, 12
1, 1168, Note_off_c, 0, 92, 64
1, 1169, Note_on_c, 0, 65, 37
1, 1169, Note_on_c, 0, 70, 28
1, 1169, Note_on_c, 0, 94, 17
1, 1170, Note_on_c, 0, 63, 38
1, 1170, Note_off_c, 0, 67, 64
1, 1170, Note_off_c, 0, 80, 64
1, 1171, Note_off_c, 0, 61, 64
1, 1171, Note_off_c, 0, 76, 64
1, 1172, Note_off_c, 0, 63, 64
1, 1172, Note_off_c, 0, 65, 64
1, 1172, Note_on_c, 0, 76, 11
1, 1173, Note_on_c, 0, 67, 41
1, 1173, Note_off_c, 0, 94, 64
1, 1175, Note_on_c, 0, 66, 24
1, 1175, Note_off_c, 0, 67, 64
1, 1175, Note_off_c, 0, 70, 64
1, 1175, Note_off_c, 0, 76, 64
1, 1175, Note_on_c, 0, 80, 24
1, 1177, Note_on_c, 0, 87, 13
1, 1178, Note_on_c, 0, 73, 14
1, 1178, Note_on_c, 0, 94, 13
1, 1180, Note_off_c, 0, 78, 64
1, 1180, Note_off_c, 0, 80, 64
1, 1180, Note_on_c, 0, 81, 24
1, 1180, Note_off_c, 0, 87, 64
1, 1181, Note_off_c, 0, 73, 64
1, 1181, Note_on_c, 0, 84, 10
1, 1182, Note_on_c, 0, 61, 13
1, 1182, Note_on_c, 0, 85, 25
1, 1182, Note_on_c, 0, 88, 17
1, 1183, Note_on_c, 0, 89, 20
1, 1183, Note_off_c, 0, 94, 64
1, 1184, Note_off_c, 0, 84, 64
1, 1185, Note_off_c, 0, 61, 64
1, 1185, Note_off_c, 0, 66, 64
1, 1185, Note_off_c, 0, 88, 64
1, 1185, Note_on_c, 0, 91, 12
1, 1186, Note_on_c, 0, 79, 15
1, 1186, Note_off_c, 0, 81, 64
1, 1187, Note_on_c, 0, 66, 30
1, 1187, Note_on_c, 0, 93, 10
1, 1188, Note_on_c, 0, 87, 19
1, 1189, Note_off_c, 0, 91, 64
1, 1189, Note_on_c, 0, 94, 10
1, 1190, Note_off_c, 0, 66, 64
1, 1191, Note_on_c, 0, 61, 31
1, 1191, Note_on_c, 0, 66, 35
1, 1191, Note_off_c, 0, 79, 64
1, 1191, Note_on_c, 0, 82, 19
1, 1191, Note_on_c, 0, 84, 19
1, 1191, Note_on_c, 0, 88, 18
1, 1191, Note_on_c, 0, 92, 17
1, 1191, Note_off_c, 0, 93, 64
1, 1192, Note_off_c, 0, 87, 64
1, 1192, Note_off_c, 0, 94, 64
1, 1193, Note_off_c, 0, 85, 64
1, 1194, Note_off_c, 0, 89, 64
1, 1195, Note_off_c, 0, 61, 64
1, 1196, Note_on_c, 0, 61, 44
1, 1196, Note_on_c, 0, 79, 10
1, 1196, Note_on_c, 0, 81, 18
1, 1196, Note_on_c, 0, 90, 25
1, 1197, Note_off_c, 0, 66, 64
1, 1197, Note_off_c, 0, 82, 64
1, 1198, Note_on_c, 0, 57, 23
1, 1198, Note_on_c, 0, 72, 17
1, 1199, Note_on_c, 0, 66, 49
1, 1199, Note_off_c, 0, 79, 64
1, 1199, Note_on_c, 0, 85, 21
1, 1200, Note_on_c, 0, 70, 24
1, 1200, Note_off_c, 0, 81, 64
1, 1201, Note_off_c, 0, 57, 64
1, 1201, Note_off_c, 0, 72, 64
1, 1201, Note_off_c, 0, 92, 64
1, 1202, Note_on_c, 0, 54, 18
1, 1203, Note_off_c, 0, 70, 64
1, 1203, Note_off_c, 0, 84, 64
1, 1204, Note_on_c, 0, 76, 29
1, 1204, Note_off_c, 0, 88, 64
1, 1205, Note_off_c, 0, 54, 64
1, 1205, Note_off_c, 0, 61, 64
1, 1205, Note_off_c, 0, 66, 64
1, 1206, Note_on_c, 0, 66, 40
1, 1206, Note_on_c, 0, 70, 24
1, 1206, Note_off_c, 0, 90, 64
1, 1207, Note_on_c, 0, 81, 23
1, 1208, Note_on_c, 0, 58, 27
1, 1208, Note_off_c, 0, 66, 64
1, 1210, Note_off_c, 0, 70, 64
1, 1210, Note_off_c, 0, 81, 64
1, 1210, Note_on_c, 0, 82, 11
1, 1211, Note_off_c, 0, 58, 64
1, 1212, Note_off_c, 0, 76, 64
1, 1212, Note_off_c, 0, 85, 64
1, 1212, Note_on_c, 0, 92, 18
1, 1213, Note_off_c, 0, 82, 64
1, 1213, Note_on_c, 0, 83, 16
1, 1213, Note_on_c, 0, 87, 18
1, 1213, Note_on_c, 0, 97, 16
1, 1214, Note_on_c, 0, 81, 32
1, 1214, Note_on_c, 0, 94, 24
1, 1215, Note_on_c, 0, 61, 26
1, 1216, Note_off_c, 0, 87, 64
1, 1216, Note_on_c, 0, 88, 13
1, 1216, Note_off_c, 0, 97, 64
1, 1217, Note_on_c, 0, 84, 25
1, 1217, Note_off_c, 0, 94, 64
1, 1218, Note_off_c, 0, 83, 64
1, 1218, Note_on_c, 0, 89, 28
1, 1219, Note_off_c, 0, 88, 64
1, 1219, Note_on_c, 0, 90, 12
1, 1220, Note_on_c, 0, 66, 22
1, 1220, Note_on_c, 0, 87, 13
1, 1220, Note_on_c, 0, 91, 16
1, 1222, Note_on_c, 0, 57, 22
1, 1222, Note_on_c, 0, 70, 20
1, 1222, Note_on_c, 0, 76, 15
1, 1222, Note_off_c, 0, 92, 64
1, 1223, Note_off_c, 0, 66, 64
1, 1223, Note_off_c, 0, 81, 64
1, 1223, Note_on_c, 0, 85, 30
1, 1223, Note_off_c, 0, 87, 64
1, 1223, Note_off_c, 0, 90, 64
1, 1224, Note_off_c, 0, 61, 64
1, 1224, Note_off_c, 0, 84, 64
1, 1225, Note_off_c, 0, 57, 64
1, 1225, Note_on_c, 0, 58, 19
1, 1225, Note_off_c, 0, 70, 64
1, 1225, Note_on_c, 0, 81, 14
1, 1225, Note_on_c, 0, 83, 19
1, 1225, Note_on_c, 0, 87, 26
1, 1226, Note_off_c, 0, 91, 64
1, 1226, Note_on_c, 0, 94, 12
1, 1227, Note_off_c, 0, 76, 64
1, 1227, Note_on_c, 0, 92, 19
1, 1228, Note_on_c, 0, 69, 35
1, 1228, Note_off_c, 0, 83, 64
1, 1228, Note_on_c, 0, 84, 15
1, 1228, Note_on_c, 0, 91, 13
1, 1229, Note_off_c, 0, 58, 64
1, 1229, Note_off_c, 0, 81, 64
1, 1229, Note_off_c, 0, 94, 64
1, 1230, Note_off_c, 0, 85, 64
1, 1230, Note_on_c, 0, 88, 14
1, 1230, Note_on_c, 0, 90, 18
1, 1231, Note_on_c, 0, 66, 31
1, 1231, Note_off_c, 0, 84, 64
1, 1231, Note_off_c, 0, 87, 64
1, 1231, Note_off_c, 0, 89, 64
1, 1232, Note_on_c, 0, 81, 35
1, 1232, Note_off_c, 0, 92, 64
1, 1233, Note_on_c, 0, 61, 37
1, 1233, Note_off_c, 0, 88, 64
1, 1233, Note_off_c, 0, 91, 64
1, 1234, Note_off_c, 0, 90, 64
1, 1236, Note_on_c, 0, 88, 12
1, 1237, Note_on_c, 0, 64, 31
1, 1237, Note_off_c, 0, 66, 64
1, 1237, Note_on_c, 0, 92, 15
1, 1239, Note_off_c, 0, 88, 64
1, 1239, Note_on_c, 0, 90, 11
1, 1240, Note_on_c, 0, 88, 16
1, 1240, Note_off_c, 0, 92, 64
1, 1241, Note_off_c, 0, 61, 64
1, 1241, Note_off_c, 0, 64, 64
1, 1241, Note_on_c, 0, 66, 36
1, 1241, Note_off_c, 0, 81, 64
1, 1241, Note_on_c, 0, 82, 13
1, 1242, Note_off_c, 0, 69, 64
1, 1242, Note_on_c, 0, 85, 26
1, 1243, Note_on_c, 0, 54, 29
1, 1243, Note_on_c, 0, 61, 46
1, 1243, Note_on_c, 0, 79, 26
1, 1244, Note_off_c, 0, 66, 64
1, 1244, Note_off_c, 0, 82, 64
1, 1244, Note_off_c, 0, 88, 64
1, 1244, Note_off_c, 0, 90, 64
1, 1245, Note_on_c, 0, 76, 34
1, 1245, Note_on_c, 0, 93, 14
1, 1246, Note_on_c, 0, 81, 20
1, 1248, Note_on_c, 0, 92, 11
1, 1249, Note_off_c, 0, 54, 64
1, 1249, Note_on_c, 0, 78, 11
1, 1249, Note_off_c, 0, 79, 64
1, 1249, Note_off_c, 0, 93, 64
1, 1250, Note_off_c, 0, 81, 64
1, 1250, Note_off_c, 0, 85, 64
1, 1250, Note_on_c, 0, 87, 15
1, 1252, Note_off_c, 0, 76, 64
1, 1252, Note_off_c, 0, 78, 64
1, 1252, Note_off_c, 0, 92, 64
1, 1252, Note_on_c, 0, 94, 21
1, 1253, Note_on_c, 0, 91, 18
1, 1254, Note_on_c, 0, 81, 23
1, 1254, Note_on_c, 0, 85, 23
1, 1255, Note_off_c, 0, 87, 64
1, 1255, Note_off_c, 0, 94, 64
1, 1257, Note_off_c, 0, 85, 64
1, 1257, Note_off_c, 0, 91, 64
1, 1258, Note_on_c, 0, 66, 12
1, 1258, Note_on_c, 0, 89, 25
1, 1258, Note_on_c, 0, 90, 12
1, 1258, Note_on_c, 0, 92, 13
1, 1259, Note_on_c, 0, 60, 16
1, 1259, Note_off_c, 0, 61, 64
1, 1259, Note_on_c, 0, 85, 24
1, 1259, Note_on_c, 0, 88, 15
1, 1260, Note_on_c, 0, 73, 14
1, 1261, Note_off_c, 0, 66, 64
1, 1261, Note_on_c, 0, 69, 22
1, 1261, Note_off_c, 0, 81, 64
1, 1261, Note_off_c, 0, 92, 64
1, 1261, Note_on_c, 0, 93, 19
1, 1262, Note_off_c, 0, 60, 64
1, 1263, Note_on_c, 0, 65, 18
1, 1263, Note_off_c, 0, 73, 64
1, 1263, Note_off_c, 0, 88, 64
1, 1264, Note_on_c, 0, 87, 23
1, 1264, Note_off_c, 0, 90, 64
1, 1264, Note_off_c, 0, 93, 64
1, 1265, Note_on_c, 0, 92, 14
1, 1266, Note_off_c, 0, 65, 64
1, 1266, Note_off_c, 0, 69, 64
1, 1266, Note_on_c, 0, 84, 10
1, 1266, Note_on_c, 0, 88, 20
1, 1267, Note_off_c, 0, 89, 64
1, 1268, Note_on_c, 0, 57, 27
1, 1268, Note_on_c, 0, 61, 35
1, 1268, Note_on_c, 0, 64, 29
1, 1268, Note_on_c, 0, 69, 36
1, 1268, Note_on_c, 0, 86, 15
1, 1269, Note_on_c, 0, 82, 24
1, 1269, Note_off_c, 0, 87, 64
1, 1269, Note_off_c, 0, 92, 64
1, 1270, Note_off_c, 0, 64, 64
1, 1271, Note_on_c, 0, 67, 30
1, 1271, Note_on_c, 0, 76, 13
1, 1271, Note_off_c, 0, 84, 64
1, 1271, Note_off_c, 0, 86, 64
1, 1272, Note_off_c, 0, 57, 64
1, 1272, Note_off_c, 0, 82, 64
1, 1273, Note_off_c, 0, 67, 64
1, 1274, Note_off_c, 0, 76, 64
1, 1274, Note_on_c, 0, 91, 14
1, 1275, Note_on_c, 0, 79, 29
1, 1276, Note_off_c, 0, 61, 64
1, 1276, Note_off_c, 0, 85, 64
1, 1277, Note_on_c, 0, 64, 42
1, 1277, Note_off_c, 0, 88, 64
1, 1277, Note_off_c, 0, 91, 64
1, 1278, Note_on_c, 0, 70, 19
1, 1278, Note_on_c, 0, 73, 22
1, 1278, Note_on_c, 0, 85, 30
1, 1279, Note_on_c, 0, 68, 33
1, 1279, Note_off_c, 0, 69, 64
1, 1279, Note_off_c, 0, 79, 64
1, 1280, Note_off_c, 0, 64, 64
1, 1280, Note_on_c, 0, 78, 25
1, 1280, Note_on_c, 0, 84, 18
1, 1281, Note_on_c, 0, 61, 31
1, 1281, Note_off_c, 0, 68, 64
1, 1281, Note_on_c, 0, 69, 40
1, 1281, Note_off_c, 0, 70, 64
1, 1282, Note_on_c, 0, 64, 30
1, 1283, Note_off_c, 0, 73, 64
1, 1283, Note_off_c, 0, 84, 64
1, 1284, Note_off_c, 0, 85, 64
1, 1285, Note_off_c, 0, 64, 64
1, 1285, Note_off_c, 0, 78, 64
1, 1286, Note_off_c, 0, 69, 64
1, 1288, Note_on_c, 0, 66, 14
1, 1288, Note_on_c, 0, 97, 15
1, 1289, Note_off_c, 0, 61, 64
1, 1291, Note_on_c, 0, 69, 22
1, 1291, Note_off_c, 0, 97, 64
1, 1292, Note_on_c, 0, 61, 21
1, 1292, Note_on_c, 0, 85, 20
1, 1293, Note_off_c, 0, 66, 64
1, 1294, Note_off_c, 0, 69, 64
1, 1294, Note_on_c, 0, 81, 23
1, 1295, Note_on_c, 0, 64, 16
1, 1295, Note_on_c, 0, 69, 29
1, 1296, Note_off_c, 0, 61, 64
1, 1298, Note_off_c, 0, 81, 64
1, 1299, Note_on_c, 0, 89, 19
1, 1299, Note_on_c, 0, 93, 14
1, 1301, Note_off_c, 0, 69, 64
1, 1301, Note_on_c, 0, 87, 20
1, 1302, Note_on_c, 0, 61, 17
1, 1302, Note_off_c, 0, 64, 64
1, 1302, Note_on_c, 0, 76, 22
1, 1302, Note_on_c, 0, 91, 16
1, 1303, Note_on_c, 0, 69, 42
1, 1304, Note_on_c, 0, 64, 46
1, 1304, Note_off_c, 0, 85, 64
1, 1304, Note_off_c, 0, 87, 64
1, 1304, Note_off_c, 0, 89, 64
1, 1304, Note_off_c, 0, 93, 64
1, 1305, Note_on_c, 0, 79, 18
1, 1305, Note_off_c, 0, 91, 64
1, 1306, Note_on_c, 0, 73, 26
1, 1308, Note_off_c, 0, 61, 64
1, 1309, Note_on_c, 0, 66, 37
1, 1309, Note_off_c, 0, 76, 64
1, 1309, Note_on_c, 0, 87, 15
1, 1310, Note_off_c, 0, 79, 64
1, 1311, Note_off_c, 0, 66, 64
1, 1311, Note_on_c, 0, 79, 24
1, 1313, Note_off_c, 0, 69, 64
1, 1313, Note_off_c, 0, 87, 64
1, 1315, Note_off_c, 0, 64, 64
1, 1315, Note_on_c, 0, 65, 38
1, 1315, Note_on_c, 0, 69, 44
1, 1316, Note_on_c, 0, 61, 33
1, 1316, Note_off_c, 0, 79, 64
1, 1317, Note_on_c, 0, 64, 47
1, 1317, Note_off_c, 0, 65, 64
1, 1318, Note_on_c, 0, 53, 17
1, 1318, Note_off_c, 0, 61, 64
1, 1319, Note_on_c, 0, 58, 29
1, 1319, Note_off_c, 0, 73, 64
1, 1319, Note_on_c, 0, 79, 25
1, 1321, Note_off_c, 0, 53, 64
1, 1321, Note_off_c, 0, 58, 64
1, 1321, Note_off_c, 0, 69, 64
1, 1321, Note_on_c, 0, 73, 20
1, 1322, Note_on_c, 0, 69, 36
1, 1326, Note_off_c, 0, 73, 64
1, 1326, Note_off_c, 0, 79, 64
1, 1327, Note_off_c, 0, 64, 64
1, 1329, Note_on_c, 0, 61, 12
1, 1330, Note_off_c, 0, 69, 64
1, 1331, Note_on_c, 0, 69, 25
1, 1332, Note_off_c, 0, 61, 64
1, 1334, Note_on_c, 0, 63, 18
1, 1336, Note_on_c, 0, 88, 14
1, 1336, Note_on_c, 0, 93, 10
1, 1337, Note_on_c, 0, 61, 22
1, 1337, Note_off_c, 0, 63, 64
1, 1337, Note_on_c, 0, 64, 19
1, 1338, Note_off_c, 0, 69, 64
1, 1338, Note_on_c, 0, 85, 29
1, 1338, Note_on_c, 0, 87, 14
1, 1339, Note_on_c, 0, 57, 23
1, 1339, Note_on_c, 0, 89, 15
1, 1339, Note_off_c, 0, 93, 64
1, 1340, Note_off_c, 0, 64, 64
1, 1340, Note_on_c, 0, 69, 34
1, 1340, Note_on_c, 0, 91, 15
1, 1341, Note_on_c, 0, 76, 23
1, 1341, Note_off_c, 0, 87, 64
1, 1342, Note_off_c, 0, 89, 64
1, 1343, Note_off_c, 0, 88, 64
1, 1344, Note_off_c, 0, 91, 64
1, 1345, Note_on_c, 0, 64, 33
1, 1345, Note_on_c, 0, 79, 15
1, 1346, Note_off_c, 0, 61, 64
1, 1346, Note_on_c, 0, 72, 21
1, 1346, Note_on_c, 0, 95, 14
1, 1347, Note_off_c, 0, 57, 64
1, 1347, Note_off_c, 0, 69, 64
1, 1347, Note_on_c, 0, 91, 15
1, 1348, Note_off_c, 0, 64, 64
1, 1348, Note_on_c, 0, 65, 30
1, 1349, Note_on_c, 0, 68, 31
1, 1349, Note_on_c, 0, 75, 27
1, 1349, Note_off_c, 0, 76, 64
1, 1349, Note_off_c, 0, 79, 64
1, 1350, Note_on_c, 0, 61, 23
1, 1350, Note_off_c, 0, 65, 64
1, 1350, Note_on_c, 0, 76, 19
1, 1350, Note_on_c, 0, 79, 18
1, 1350, Note_off_c, 0, 91, 64
1, 1351, Note_off_c, 0, 68, 64
1, 1351, Note_on_c, 0, 69, 51
1, 1351, Note_off_c, 0, 72, 64
1, 1351, Note_on_c, 0, 73, 23
1, 1351, Note_on_c, 0, 88, 23
1, 1352, Note_on_c, 0, 57, 19
1, 1352, Note_on_c, 0, 64, 42
1, 1352, Note_on_c, 0, 72, 24
1, 1352, Note_off_c, 0, 75, 64
1, 1352, Note_off_c, 0, 95, 64
1, 1353, Note_off_c, 0, 61, 64
1, 1353, Note_off_c, 0, 79, 64
1, 1353, Note_on_c, 0, 91, 18
1, 1354, Note_off_c, 0, 73, 64
1, 1354, Note_on_c, 0, 79, 17
1, 1355, Note_off_c, 0, 72, 64
1, 1355, Note_off_c, 0, 76, 64
1, 1355, Note_on_c, 0, 77, 18
1, 1356, Note_off_c, 0, 57, 64
1, 1356, Note_on_c, 0, 73, 19
1, 1358, Note_off_c, 0, 77, 64
1, 1358, Note_off_c, 0, 79, 64
1, 1359, Note_on_c, 0, 79, 16
1, 1359, Note_off_c, 0, 91, 64
1, 1360, Note_on_c, 0, 61, 15
1, 1360, Note_off_c, 0, 73, 64
1, 1361, Note_off_c, 0, 88, 64
1, 1362, Note_off_c, 0, 79, 64
1, 1362, Note_off_c, 0, 85, 64
1, 1363, Note_off_c, 0, 61, 64
1, 1363, Note_off_c, 0, 64, 64
1, 1366, Note_off_c, 0, 69, 64
1, 1367, Note_on_c, 0, 69, 50
1, 1372, Note_on_c, 0, 64, 10
1, 1375, Note_off_c, 0, 64, 64
1, 1377, Note_on_c, 0, 64, 13
1, 1377, Note_on_c, 0, 80, 15
1, 1380, Note_off_c, 0, 64, 64
1, 1380, Note_on_c, 0, 91, 10
1, 1382, Note_off_c, 0, 80, 64
1, 1383, Note_on_c, 0, 84, 13
1, 1384, Note_on_c, 0, 64, 29
1, 1384, Note_off_c, 0, 91, 64
1, 1385, Note_on_c, 0, 75, 33
1, 1386, Note_on_c, 0, 78, 20
1, 1387, Note_off_c, 0, 64, 64
1, 1387, Note_on_c, 0, 80, 27
1, 1389, Note_off_c, 0, 84, 64
1, 1390, Note_on_c, 0, 64, 32
1, 1390, Note_off_c, 0, 75, 64
1, 1390, Note_off_c, 0, 78, 64
1, 1391, Note_on_c, 0, 61, 34
1, 1391, Note_off_c, 0, 80, 64
1, 1391, Note_on_c, 0, 90, 15
1, 1392, Note_on_c, 0, 78, 23
1, 1393, Note_off_c, 0, 64, 64
1, 1393, Note_on_c, 0, 75, 26
1, 1393, Note_on_c, 0, 80, 19
1, 1394, Note_on_c, 0, 64, 28
1, 1395, Note_off_c, 0, 90, 64
1, 1396, Note_on_c, 0, 72, 18
1, 1396, Note_off_c, 0, 75, 64
1, 1396, Note_on_c, 0, 91, 14
1, 1397, Note_on_c, 0, 75, 27
1, 1397, Note_off_c, 0, 80, 64
1, 1397, Note_on_c, 0, 90, 25
1, 1398, Note_off_c, 0, 61, 64
1, 1398, Note_on_c, 0, 84, 28
1, 1398, Note_on_c, 0, 85, 24
1, 1399, Note_off_c, 0, 64, 64
1, 1399, Note_off_c, 0, 72, 64
1, 1399, Note_off_c, 0, 78, 64
1, 1399, Note_on_c, 0, 87, 27
1, 1399, Note_off_c, 0, 91, 64
1, 1400, Note_on_c, 0, 86, 23
1, 1401, Note_on_c, 0, 80, 14
1, 1401, Note_on_c, 0, 89, 31
1, 1402, Note_on_c, 0, 64, 26
1, 1402, Note_on_c, 0, 94, 18
1, 1403, Note_off_c, 0, 86, 64
1, 1403, Note_off_c, 0, 90, 64
1, 1404, Note_off_c, 0, 80, 64
1, 1404, Note_off_c, 0, 87, 64
1, 1405, Note_off_c, 0, 69, 64
1, 1405, Note_off_c, 0, 84, 64
1, 1405, Note_off_c, 0, 85, 64
1, 1405, Note_off_c, 0, 89, 64
1, 1405, Note_off_c, 0, 94, 64
1, 1406, Note_on_c, 0, 63, 16
1, 1406, Note_off_c, 0, 64, 64
1, 1406, Note_off_c, 0, 75, 64
1, 1407, Note_on_c, 0, 69, 27
1, 1409, Note_off_c, 0, 63, 64
1, 1409, Note_on_c, 0, 64, 20
1, 1412, Note_on_c, 0, 63, 24
1, 1412, Note_off_c, 0, 64, 64
1, 1413, Note_off_c, 0, 69, 64
1, 1416, Note_on_c, 0, 69, 53
1, 1416, Note_on_c, 0, 84, 17
1, 1417, Note_on_c, 0, 56, 25
1, 1417, Note_on_c, 0, 90, 25
1, 1418, Note_on_c, 0, 85, 18
1, 1418, Note_on_c, 0, 91, 35
1, 1418, Note_on_c, 0, 96, 20
1, 1418, Note_on_c, 0, 98, 21
1, 1419, Note_off_c, 0, 63, 64
1, 1419, Note_on_c, 0, 83, 14
1, 1419, Note_off_c, 0, 84, 64
1, 1419, Note_on_c, 0, 86, 26
1, 1419, Note_on_c, 0, 88, 18
1, 1419, Note_on_c, 0, 92, 14
1, 1419, Note_on_c, 0, 93, 14
1, 1419, Note_on_c, 0, 94, 22
1, 1420, Note_on_c, 0, 75, 22
1, 1421, Note_off_c, 0, 56, 64
1, 1421, Note_off_c, 0, 98, 64
1, 1422, Note_on_c, 0, 63, 34
1, 1422, Note_on_c, 0, 72, 14
1, 1422, Note_off_c, 0, 85, 64
1, 1422, Note_off_c, 0, 86, 64
1, 1422, Note_on_c, 0, 89, 9
1, 1423, Note_on_c, 0, 56, 16
1, 1423, Note_off_c, 0, 83, 64
1, 1423, Note_off_c, 0, 92, 64
1, 1424, Note_off_c, 0, 63, 64
1, 1424, Note_on_c, 0, 64, 36
1, 1424, Note_on_c, 0, 80, 30
1, 1424, Note_off_c, 0, 90, 64
1, 1424, Note_off_c, 0, 96, 64
1, 1425, Note_off_c, 0, 72, 64
1, 1425, Note_off_c, 0, 75, 64
1, 1425, Note_on_c, 0, 84, 21
1, 1425, Note_on_c, 0, 87, 20
1, 1425, Note_off_c, 0, 89, 64
1, 1426, Note_off_c, 0, 56, 64
1, 1426, Note_off_c, 0, 64, 64
1, 1426, Note_on_c, 0, 72, 28
1, 1426, Note_on_c, 0, 74, 29
1, 1426, Note_off_c, 0, 88, 64
1, 1427, Note_off_c, 0, 93, 64
1, 1428, Note_on_c, 0, 56, 21
1, 1428, Note_off_c, 0, 74, 64
1, 1428, Note_on_c, 0, 75, 29
1, 1428, Note_on_c, 0, 90, 18
1, 1428, Note_off_c, 0, 91, 64
1, 1429, Note_on_c, 0, 76, 14
1, 1429, Note_off_c, 0, 94, 64
1, 1430, Note_off_c, 0, 75, 64
1, 1431, Note_on_c, 0, 78, 18
1, 1431, Note_off_c, 0, 90, 64
1, 1432, Note_off_c, 0, 69, 64
1, 1432, Note_off_c, 0, 72, 64
1, 1432, Note_off_c, 0, 87, 64
1, 1433, Note_on_c, 0, 64, 34
1, 1433, Note_on_c, 0, 69, 31
1, 1434, Note_off_c, 0, 78, 64
1, 1435, Note_on_c, 0, 72, 12
1, 1435, Note_on_c, 0, 75, 39
1, 1435, Note_off_c, 0, 76, 64
1, 1435, Note_off_c, 0, 80, 64
1, 1436, Note_off_c, 0, 56, 64
1, 1437, Note_on_c, 0, 57, 24
1, 1437, Note_on_c, 0, 81, 31
1, 1437, Note_on_c, 0, 85, 26
1, 1437, Note_on_c, 0, 90, 29
1, 1437, Note_on_c, 0, 91, 25
1, 1437, Note_on_c, 0, 99, 21
1, 1437, Note_on_c, 0, 101, 22
1, 1438, Note_off_c, 0, 64, 64
1, 1438, Note_off_c, 0, 72, 64
1, 1438, Note_on_c, 0, 82, 28
1, 1438, Note_off_c, 0, 84, 64
1, 1438, Note_on_c, 0, 96, 25
1, 1438, Note_on_c, 0, 98, 19
1, 1438, Note_on_c, 0, 100, 10
1, 1439, Note_on_c, 0, 68, 23
1, 1439, Note_off_c, 0, 69, 64
1, 1439, Note_on_c, 0, 88, 12
1, 1440, Note_on_c, 0, 73, 29
1, 1440, Note_on_c, 0, 79, 27
1, 1440, Note_off_c, 0, 99, 64
1, 1441, Note_off_c, 0, 57, 64
1, 1441, Note_off_c, 0, 85, 64
1, 1441, Note_off_c, 0, 91, 64
1, 1441, Note_on_c, 0, 95, 12
1, 1442, Note_off_c, 0, 75, 64
1, 1442, Note_on_c, 0, 76, 28
1, 1442, Note_off_c, 0, 90, 64
1, 1442, Note_off_c, 0, 96, 64
1, 1442, Note_off_c, 0, 100, 64
1, 1442, Note_off_c, 0, 101, 64
1, 1443, Note_off_c, 0, 81, 64
1, 1443, Note_off_c, 0, 88, 64
1, 1444, Note_on_c, 0, 74, 27
1, 1444, Note_on_c, 0, 96, 9
1, 1444, Note_off_c, 0, 98, 64
1, 1445, Note_off_c, 0, 68, 64
1, 1445, Note_off_c, 0, 73, 64
1, 1445, Note_off_c, 0, 76, 64
1, 1445, Note_on_c, 0, 77, 27
1, 1445, Note_off_c, 0, 79, 64
1, 1446, Note_on_c, 0, 68, 32
1, 1446, Note_on_c, 0, 79, 32
1, 1446, Note_on_c, 0, 81, 14
1, 1446, Note_off_c, 0, 95, 64
1, 1447, Note_off_c, 0, 82, 64
1, 1448, Note_off_c, 0, 74, 64
1, 1448, Note_on_c, 0, 90, 22
1, 1449, Note_on_c, 0, 63, 39
1, 1449, Note_off_c, 0, 77, 64
1, 1449, Note_off_c, 0, 81, 64
1, 1449, Note_on_c, 0, 87, 26
1, 1449, Note_on_c, 0, 95, 10
1, 1449, Note_off_c, 0, 96, 64
1, 1450, Note_on_c, 0, 77, 36
1, 1450, Note_off_c, 0, 79, 64
1, 1450, Note_on_c, 0, 81, 26
1, 1451, Note_off_c, 0, 68, 64
1, 1451, Note_on_c, 0, 69, 35
1, 1451, Note_on_c, 0, 74, 28
1, 1451, Note_on_c, 0, 94, 17
1, 1452, Note_on_c, 0, 80, 18
1, 1453, Note_on_c, 0, 79, 25
1, 1453, Note_off_c, 0, 81, 64
1, 1453, Note_on_c, 0, 88, 22
1, 1454, Note_off_c, 0, 63, 64
1, 1454, Note_off_c, 0, 77, 64
1, 1454, Note_on_c, 0, 97, 16
1, 1455, Note_off_c, 0, 95, 64
1, 1456, Note_on_c, 0, 68, 39
1, 1456, Note_off_c, 0, 69, 64
1, 1456, Note_on_c, 0, 75, 17
1, 1456, Note_on_c, 0, 82, 23
1, 1456, Note_on_c, 0, 84, 36
1, 1457, Note_off_c, 0, 74, 64
1, 1457, Note_off_c, 0, 79, 64
1, 1457, Note_on_c, 0, 85, 26
1, 1457, Note_on_c, 0, 89, 29
1, 1457, Note_on_c, 0, 91, 11
1, 1457, Note_off_c, 0, 97, 64
1, 1458, Note_on_c, 0, 76, 22
1, 1458, Note_on_c, 0, 79, 17
1, 1458, Note_off_c, 0, 88, 64
1, 1458, Note_off_c, 0, 94, 64
1, 1459, Note_on_c, 0, 63, 30
1, 1459, Note_off_c, 0, 75, 64
1, 1459, Note_off_c, 0, 80, 64
1, 1459, Note_off_c, 0, 82, 64
1, 1459, Note_off_c, 0, 89, 64
1, 1459, Note_off_c, 0, 90, 64
1, 1460, Note_on_c, 0, 72, 19
1, 1460, Note_on_c, 0, 75, 36
1, 1460, Note_off_c, 0, 87, 64
1, 1460, Note_off_c, 0, 91, 64
1, 1461, Note_off_c, 0, 63, 64
1, 1461, Note_on_c, 0, 64, 39
1, 1461, Note_off_c, 0, 76, 64
1, 1461, Note_on_c, 0, 82, 11
1, 1461, Note_off_c, 0, 84, 64
1, 1463, Note_off_c, 0, 68, 64
1, 1463, Note_on_c, 0, 78, 26
1, 1463, Note_off_c, 0, 79, 64
1, 1463, Note_on_c, 0, 80, 20
1, 1464, Note_on_c, 0, 56, 21
1, 1464, Note_on_c, 0, 68, 45
1, 1465, Note_on_c, 0, 63, 39
1, 1465, Note_off_c, 0, 64, 64
1, 1465, Note_on_c, 0, 77, 26
1, 1465, Note_off_c, 0, 85, 64
1, 1466, Note_off_c, 0, 68, 64
1, 1466, Note_on_c, 0, 69, 24
1, 1466, Note_off_c, 0, 72, 64
1, 1466, Note_off_c, 0, 78, 64
1, 1467, Note_on_c, 0, 72, 28
1, 1468, Note_off_c, 0, 63, 64
1, 1468, Note_off_c, 0, 82, 64
1, 1469, Note_on_c, 0, 68, 27
1, 1470, Note_on_c, 0, 63, 43
1, 1470, Note_off_c, 0, 69, 64
1, 1470, Note_off_c, 0, 77, 64
1, 1470, Note_on_c, 0, 85, 35
1, 1471, Note_on_c, 0, 66, 24
1, 1471, Note_on_c, 0, 89, 9
1, 1472, Note_off_c, 0, 56, 64
1, 1472, Note_on_c, 0, 77, 17
1, 1472, Note_on_c, 0, 86, 31
1, 1473, Note_on_c, 0, 58, 43
1, 1473, Note_on_c, 0, 73, 19
1, 1473, Note_off_c, 0, 80, 64
1, 1473, Note_on_c, 0, 90, 29
1, 1474, Note_off_c, 0, 66, 64
1, 1474, Note_off_c, 0, 68, 64
1, 1474, Note_off_c, 0, 72, 64
1, 1474, Note_on_c, 0, 83, 33
1, 1474, Note_on_c, 0, 88, 32
1, 1474, Note_off_c, 0, 89, 64
1, 1474, Note_on_c, 0, 91, 22
1, 1474, Note_on_c, 0, 93, 19
1, 1474, Note_on_c, 0, 94, 30
1, 1474, Note_on_c, 0, 96, 26
1, 1474, Note_on_c, 0, 99, 24
1, 1474, Note_on_c, 0, 103, 22
1, 1475, Note_on_c, 0, 57, 66
1, 1475, Note_off_c, 0, 58, 64
1, 1475, Note_off_c, 0, 63, 64
1, 1475, Note_on_c, 0, 66, 30
1, 1475, Note_off_c, 0, 77, 64
1, 1476, Note_on_c, 0, 55, 70
1, 1476, Note_off_c, 0, 57, 64
1, 1476, Note_on_c, 0, 63, 28
1, 1476, Note_on_c, 0, 81, 17
1, 1476, Note_on_c, 0, 84, 34
1, 1476, Note_on_c, 0, 92, 18
1, 1477, Note_on_c, 0, 51, 81
1, 1477, Note_off_c, 0, 55, 64
1, 1477, Note_on_c, 0, 69, 15
1, 1477, Note_off_c, 0, 83, 64
1, 1477, Note_off_c, 0, 85, 64
1, 1477, Note_off_c, 0, 88, 64
1, 1477, Note_on_c, 0, 89, 38
1, 1477, Note_off_c, 0, 90, 64
1, 1478, Note_on_c, 0, 48, 84
1, 1478, Note_off_c, 0, 51, 64
1, 1478, Note_off_c, 0, 66, 64
1, 1478, Note_on_c, 0, 82, 18
1, 1479, Note_on_c, 0, 46, 80
1, 1479, Note_off_c, 0, 48, 64
1, 1479, Note_off_c, 0, 73, 64
1, 1479, Note_off_c, 0, 81, 64
1, 1479, Note_on_c, 0, 83, 31
1, 1479, Note_off_c, 0, 86, 64
1, 1479, Note_off_c, 0, 92, 64
1, 1480, Note_on_c, 0, 44, 74
1, 1480, Note_off_c, 0, 46, 64
1, 1480, Note_off_c, 0, 69, 64
1, 1480, Note_on_c, 0, 77, 16
1, 1480, Note_off_c, 0, 84, 64
1, 1480, Note_on_c, 0, 88, 21
1, 1480, Note_off_c, 0, 93, 64
1, 1481, Note_on_c, 0, 42, 71
1, 1481, Note_off_c, 0, 44, 64
1, 1481, Note_off_c, 0, 63, 64
1, 1481, Note_on_c, 0, 80, 17
1, 1482, Note_on_c, 0, 41, 62
1, 1482, Note_off_c, 0, 42, 64
1, 1482, Note_on_c, 0, 63, 11
1, 1482, Note_on_c, 0, 84, 20
1, 1483, Note_on_c, 0, 68, 31
1, 1483, Note_off_c, 0, 75, 64
1, 1483, Note_off_c, 0, 82, 64
1, 1483, Note_on_c, 0, 86, 28
1, 1483, Note_on_c, 0, 93, 21
1, 1483, Note_off_c, 0, 103, 64
1, 1484, Note_on_c, 0, 37, 70
1, 1484, Note_off_c, 0, 41, 64
1, 1484, Note_off_c, 0, 80, 64
1, 1484, Note_on_c, 0, 82, 26
1, 1484, Note_on_c, 0, 85, 29
1, 1484, Note_off_c, 0, 91, 64
1, 1484, Note_on_c, 0, 92, 27
1, 1485, Note_on_c, 0, 35, 73
1, 1485, Note_off_c, 0, 37, 64
1, 1485, Note_on_c, 0, 66, 18
1, 1485, Note_on_c, 0, 87, 37
1, 1485, Note_off_c, 0, 88, 64
1, 1486, Note_on_c, 0, 34, 75
1, 1486, Note_off_c, 0, 35, 64
1, 1486, Note_off_c, 0, 63, 64
1, 1486, Note_off_c, 0, 68, 64
1, 1486, Note_off_c, 0, 83, 64
1, 1486, Note_off_c, 0, 84, 64
1, 1487, Note_on_c, 0, 32, 72
1, 1487, Note_off_c, 0, 34, 64
1, 1487, Note_off_c, 0, 77, 64
1, 1487, Note_off_c, 0, 85, 64
1, 1488, Note_on_c, 0, 52, 29
1, 1488, Note_off_c, 0, 66, 64
1, 1488, Note_off_c, 0, 82, 64
1, 1488, Note_off_c, 0, 96, 64
1, 1489, Note_on_c, 0, 31, 64
1, 1489, Note_off_c, 0, 32, 64
1, 1489, Note_on_c, 0, 63, 33
1, 1489, Note_on_c, 0, 76, 17
1, 1489, Note_on_c, 0, 88, 21
1, 1489, Note_on_c, 0, 90, 32
1, 1489, Note_off_c, 0, 93, 64
1, 1489, Note_off_c, 0, 99, 64
1, 1490, Note_off_c, 0, 52, 64
1, 1490, Note_on_c, 0, 95, 28
1, 1491, Note_off_c, 0, 31, 64
1, 1491, Note_on_c, 0, 47, 48
1, 1491, Note_on_c, 0, 80, 24
1, 1491, Note_on_c, 0, 84, 27
1, 1491, Note_off_c, 0, 89, 64
1, 1491, Note_on_c, 0, 91, 27
1, 1492, Note_on_c, 0, 55, 36
1, 1492, Note_on_c, 0, 68, 36
1, 1492, Note_off_c, 0, 76, 64
1, 1492, Note_on_c, 0, 83, 34
1, 1492, Note_on_c, 0, 85, 39
1, 1492, Note_off_c, 0, 86, 64
1, 1493, Note_on_c, 0, 34, 47
1, 1493, Note_off_c, 0, 47, 64
1, 1493, Note_on_c, 0, 75, 36
1, 1493, Note_off_c, 0, 88, 64
1, 1493, Note_on_c, 0, 93, 31
1, 1493, Note_on_c, 0, 98, 26
1, 1494, Note_off_c, 0, 55, 64
1, 1494, Note_off_c, 0, 63, 64
1, 1494, Note_on_c, 0, 78, 39
1, 1494, Note_off_c, 0, 80, 64
1, 1494, Note_on_c, 0, 88, 31
1, 1494, Note_on_c, 0, 101, 12
1, 1495, Note_off_c, 0, 34, 64
1, 1495, Note_on_c, 0, 82, 41
1, 1495, Note_off_c, 0, 84, 64
1, 1495, Note_on_c, 0, 86, 29
1, 1496, Note_on_c, 0, 30, 59
1, 1496, Note_on_c, 0, 51, 67
1, 1496, Note_on_c, 0, 81, 25
1, 1496, Note_off_c, 0, 83, 64
1, 1496, Note_on_c, 0, 84, 32
1, 1496, Note_off_c, 0, 87, 64
1, 1496, Note_on_c, 0, 89, 26
1, 1496, Note_off_c, 0, 92, 64
1, 1497, Note_on_c, 0, 48, 68
1, 1497, Note_off_c, 0, 51, 64
1, 1497, Note_on_c, 0, 56, 46
1, 1497, Note_on_c, 0, 73, 31
1, 1497, Note_off_c, 0, 78, 64
1, 1497, Note_on_c, 0, 79, 24
1, 1497, Note_on_c, 0, 83, 30
1, 1498, Note_off_c, 0, 30, 64
1, 1498, Note_on_c, 0, 47, 61
1, 1498, Note_off_c, 0, 48, 64
1, 1498, Note_off_c, 0, 68, 64
1, 1498, Note_on_c, 0, 69, 32
1, 1498, Note_off_c, 0, 75, 64
1, 1498, Note_on_c, 0, 76, 33
1, 1498, Note_on_c, 0, 78, 28
1, 1498, Note_off_c, 0, 85, 64
1, 1498, Note_off_c, 0, 86, 64
1, 1498, Note_off_c, 0, 101, 64
1, 1499, Note_on_c, 0, 85, 36
1, 1499, Note_off_c, 0, 94, 64
1, 1499, Note_off_c, 0, 98, 64
1, 1500, Note_on_c, 0, 40, 61
1, 1500, Note_off_c, 0, 47, 64
1, 1500, Note_off_c, 0, 56, 64
1, 1500, Note_on_c, 0, 57, 46
1, 1500, Note_off_c, 0, 69, 64
1, 1500, Note_off_c, 0, 79, 64
1, 1500, Note_off_c, 0, 81, 64
1, 1500, Note_off_c, 0, 83, 64
1, 1500, Note_on_c, 0, 86, 24
1, 1500, Note_on_c, 0, 87, 28
1, 1501, Note_on_c, 0, 47, 51
1, 1501, Note_off_c, 0, 73, 64
1, 1501, Note_on_c, 0, 74, 33
1, 1501, Note_off_c, 0, 89, 64
1, 1501, Note_off_c, 0, 93, 64
1, 1502, Note_off_c, 0, 40, 64
1, 1502, Note_on_c, 0, 56, 46
1, 1502, Note_off_c, 0, 57, 64
1, 1502, Note_off_c, 0, 76, 64
1, 1502, Note_off_c, 0, 91, 64
1, 1502, Note_on_c, 0, 93, 20
1, 1502, Note_off_c, 0, 95, 64
1, 1503, Note_off_c, 0, 47, 64
1, 1503, Note_on_c, 0, 77, 35
1, 1503, Note_off_c, 0, 78, 64
1, 1503, Note_off_c, 0, 82, 64
1, 1503, Note_on_c, 0, 83, 27
1, 1503, Note_off_c, 0, 85, 64
1, 1504, Note_on_c, 0, 79, 31
1, 1504, Note_on_c, 0, 81, 24
1, 1504, Note_off_c, 0, 84, 64
1, 1504, Note_on_c, 0, 85, 27
1, 1504, Note_off_c, 0, 88, 64
1, 1505, Note_off_c, 0, 56, 64
1, 1505, Note_on_c, 0, 63, 39
1, 1505, Note_off_c, 0, 74, 64
1, 1505, Note_on_c, 0, 75, 41
1, 1506, Note_off_c, 0, 77, 64
1, 1506, Note_on_c, 0, 78, 39
1, 1506, Note_on_c, 0, 84, 32
1, 1507, Note_off_c, 0, 79, 64
1, 1507, Note_off_c, 0, 86, 64
1, 1507, Note_off_c, 0, 93, 64
1, 1507, Note_on_c, 0, 94, 21
1, 1508, Note_on_c, 0, 50, 42
1, 1508, Note_on_c, 0, 68, 30
1, 1508, Note_on_c, 0, 86, 30
1, 1510, Note_off_c, 0, 50, 64
1, 1510, Note_on_c, 0, 51, 47
1, 1510, Note_off_c, 0, 68, 64
1, 1510, Note_on_c, 0, 73, 19
1, 1510, Note_on_c, 0, 82, 22
1, 1510, Note_off_c, 0, 83, 64
1, 1510, Note_on_c, 0, 89, 28
1, 1511, Note_on_c, 0, 56, 45
1, 1511, Note_off_c, 0, 78, 64
1, 1511, Note_on_c, 0, 79, 25
1, 1511, Note_off_c, 0, 81, 64
1, 1512, Note_off_c, 0, 63, 64
1, 1512, Note_off_c, 0, 75, 64
1, 1512, Note_on_c, 0, 77, 27
1, 1512, Note_on_c, 0, 93, 16
1, 1512, Note_off_c, 0, 94, 64
1, 1513, Note_off_c, 0, 56, 64
1, 1513, Note_on_c, 0, 81, 17
1, 1513, Note_off_c, 0, 86, 64
1, 1514, Note_on_c, 0, 50, 51
1, 1514, Note_off_c, 0, 51, 64
1, 1514, Note_on_c, 0, 55, 43
1, 1514, Note_on_c, 0, 66, 24
1, 1514, Note_on_c, 0, 88, 22
1, 1515, Note_on_c, 0, 32, 43
1, 1515, Note_off_c, 0, 77, 64
1, 1515, Note_off_c, 0, 79, 64
1, 1515, Note_off_c, 0, 85, 64
1, 1515, Note_on_c, 0, 86, 17
1, 1515, Note_off_c, 0, 93, 64
1, 1516, Note_off_c, 0, 50, 64
1, 1516, Note_off_c, 0, 55, 64
1, 1516, Note_off_c, 0, 73, 64
1, 1516, Note_on_c, 0, 83, 27
1, 1516, Note_off_c, 0, 87, 64
1, 1517, Note_on_c, 0, 39, 62
1, 1517, Note_off_c, 0, 81, 64
1, 1517, Note_off_c, 0, 82, 64
1, 1517, Note_off_c, 0, 89, 64
1, 1518, Note_off_c, 0, 32, 64
1, 1518, Note_off_c, 0, 66, 64
1, 1518, Note_on_c, 0, 76, 19
1, 1518, Note_off_c, 0, 86, 64
1, 1518, Note_on_c, 0, 87, 14
1, 1518, Note_on_c, 0, 89, 19
1, 1519, Note_on_c, 0, 37, 70
1, 1519, Note_off_c, 0, 39, 64
1, 1519, Note_on_c, 0, 50, 44
1, 1519, Note_on_c, 0, 68, 27
1, 1519, Note_on_c, 0, 81, 25
1, 1519, Note_off_c, 0, 90, 64
1, 1520, Note_on_c, 0, 36, 69
1, 1520, Note_off_c, 0, 37, 64
1, 1520, Note_on_c, 0, 78, 24
1, 1520, Note_on_c, 0, 91, 20
1, 1520, Note_on_c, 0, 94, 13
1, 1521, Note_on_c, 0, 34, 66
1, 1521, Note_off_c, 0, 36, 64
1, 1521, Note_on_c, 0, 57, 30
1, 1521, Note_off_c, 0, 88, 64
1, 1522, Note_off_c, 0, 50, 64
1, 1522, Note_on_c, 0, 66, 16
1, 1522, Note_on_c, 0, 75, 22
1, 1522, Note_off_c, 0, 76, 64
1, 1522, Note_off_c, 0, 84, 64
1, 1523, Note_off_c, 0, 34, 64
1, 1523, Note_on_c, 0, 63, 18
1, 1523, Note_on_c, 0, 73, 14
1, 1523, Note_off_c, 0, 87, 64
1, 1523, Note_off_c, 0, 89, 64
1, 1523, Note_off_c, 0, 94, 64
1, 1524, Note_on_c, 0, 31, 66
1, 1524, Note_on_c, 0, 45, 53
1, 1524, Note_off_c, 0, 57, 64
1, 1524, Note_off_c, 0, 68, 64
1, 1525, Note_on_c, 0, 52, 43
1, 1525, Note_on_c, 0, 74, 12
1, 1525, Note_off_c, 0, 75, 64
1, 1525, Note_on_c, 0, 85, 19
1, 1525, Note_off_c, 0, 91, 64
1, 1526, Note_off_c, 0, 45, 64
1, 1526, Note_off_c, 0, 73, 64
1, 1526, Note_on_c, 0, 82, 26
1, 1527, Note_on_c, 0, 46, 38
1, 1527, Note_off_c, 0, 52, 64
1, 1527, Note_off_c, 0, 63, 64
1, 1527, Note_off_c, 0, 66, 64
1, 1527, Note_on_c, 0, 75, 22
1, 1527, Note_off_c, 0, 78, 64
1, 1527, Note_off_c, 0, 81, 64
1, 1527, Note_on_c, 0, 88, 11
1, 1527, Note_on_c, 0, 89, 19
1, 1528, Note_off_c, 0, 31, 64
1, 1529, Note_off_c, 0, 46, 64
1, 1529, Note_on_c, 0, 55, 42
1, 1529, Note_on_c, 0, 68, 33
1, 1530, Note_off_c, 0, 88, 64
1, 1530, Note_on_c, 0, 90, 27
1, 1530, Note_on_c, 0, 93, 18
1, 1531, Note_off_c, 0, 55, 64
1, 1531, Note_on_c, 0, 60, 37
1, 1531, Note_on_c, 0, 73, 25
1, 1531, Note_off_c, 0, 74, 64
1, 1532, Note_on_c, 0, 78, 27
1, 1533, Note_off_c, 0, 60, 64
1, 1533, Note_off_c, 0, 82, 64
1, 1533, Note_on_c, 0, 84, 21
1, 1533, Note_off_c, 0, 85, 64
1, 1533, Note_on_c, 0, 91, 17
1, 1534, Note_on_c, 0, 63, 23
1, 1534, Note_off_c, 0, 68, 64
1, 1534, Note_off_c, 0, 73, 64
1, 1534, Note_on_c, 0, 87, 22
1, 1534, Note_off_c, 0, 90, 64
1, 1535, Note_on_c, 0, 68, 42
1, 1535, Note_off_c, 0, 78, 64
1, 1535, Note_off_c, 0, 89, 64
1, 1535, Note_on_c, 0, 92, 23
1, 1535, Note_off_c, 0, 93, 64
1, 1536, Note_on_c, 0, 76, 19
1, 1536, Note_on_c, 0, 78, 9
1, 1536, Note_off_c, 0, 84, 64
1, 1536, Note_on_c, 0, 85, 25
1, 1537, Note_off_c, 0, 63, 64
1, 1537, Note_on_c, 0, 72, 29
1, 1537, Note_on_c, 0, 86, 31
1, 1537, Note_off_c, 0, 87, 64
1, 1537, Note_on_c, 0, 90, 29
1, 1537, Note_off_c, 0, 91, 64
1, 1538, Note_off_c, 0, 68, 64
1, 1538, Note_off_c, 0, 75, 64
1, 1538, Note_on_c, 0, 87, 18
1, 1538, Note_off_c, 0, 92, 64
1, 1538, Note_on_c, 0, 93, 16
1, 1539, Note_on_c, 0, 57, 47
1, 1539, Note_off_c, 0, 76, 64
1, 1539, Note_on_c, 0, 77, 18
1, 1539, Note_off_c, 0, 78, 64
1, 1539, Note_on_c, 0, 82, 18
1, 1539, Note_off_c, 0, 83, 64
1, 1540, Note_on_c, 0, 68, 35
1, 1540, Note_on_c, 0, 95, 13
1, 1541, Note_off_c, 0, 57, 64
1, 1541, Note_on_c, 0, 63, 32
1, 1541, Note_on_c, 0, 76, 26
1, 1541, Note_on_c, 0, 83, 18
1, 1541, Note_off_c, 0, 85, 64
1, 1542, Note_on_c, 0, 30, 51
1, 1542, Note_off_c, 0, 72, 64
1, 1542, Note_on_c, 0, 73, 32
1, 1542, Note_off_c, 0, 87, 64
1, 1543, Note_on_c, 0, 57, 40
1, 1543, Note_off_c, 0, 95, 64
1, 1544, Note_on_c, 0, 29, 53
1, 1544, Note_off_c, 0, 30, 64
1, 1544, Note_on_c, 0, 48, 49
1, 1544, Note_on_c, 0, 66, 22
1, 1544, Note_off_c, 0, 77, 64
1, 1544, Note_on_c, 0, 78, 34
1, 1544, Note_on_c, 0, 80, 38
1, 1544, Note_off_c, 0, 82, 64
1, 1544, Note_on_c, 0, 87, 25
1, 1545, Note_off_c, 0, 68, 64
1, 1545, Note_off_c, 0, 83, 64
1, 1545, Note_off_c, 0, 93, 64
1, 1546, Note_off_c, 0, 29, 64
1, 1546, Note_on_c, 0, 31, 51
1, 1546, Note_on_c, 0, 44, 58
1, 1546, Note_off_c, 0, 48, 64
1, 1546, Note_off_c, 0, 57, 64
1, 1546, Note_on_c, 0, 75, 39
1, 1546, Note_off_c, 0, 76, 64
1, 1546, Note_on_c, 0, 82, 24
1, 1546, Note_on_c, 0, 84, 22
1, 1547, Note_off_c, 0, 63, 64
1, 1547, Note_off_c, 0, 66, 64
1, 1547, Note_on_c, 0, 67, 22
1, 1547, Note_on_c, 0, 70, 22
1, 1547, Note_on_c, 0, 77, 19
1, 1548, Note_off_c, 0, 31, 64
1, 1548, Note_on_c, 0, 35, 49
1, 1548, Note_off_c, 0, 44, 64
1, 1549, Note_on_c, 0, 57, 54
1, 1549, Note_off_c, 0, 78, 64
1, 1549, Note_on_c, 0, 91, 29
1, 1550, Note_off_c, 0, 35, 64
1, 1550, Note_off_c, 0, 67, 64
1, 1550, Note_on_c, 0, 72, 35
1, 1550, Note_off_c, 0, 73, 64
1, 1550, Note_on_c, 0, 96, 25
1, 1550, Note_on_c, 0, 97, 13
1, 1551, Note_off_c, 0, 70, 64
1, 1551, Note_off_c, 0, 77, 64
1, 1551, Note_off_c, 0, 80, 64
1, 1551, Note_on_c, 0, 81, 42
1, 1551, Note_on_c, 0, 85, 28
1, 1552, Note_off_c, 0, 57, 64
1, 1552, Note_off_c, 0, 84, 64
1, 1552, Note_off_c, 0, 86, 64
1, 1553, Note_on_c, 0, 44, 63
1, 1553, Note_on_c, 0, 61, 21
1, 1553, Note_off_c, 0, 75, 64
1, 1554, Note_off_c, 0, 72, 64
1, 1554, Note_on_c, 0, 73, 30
1, 1554, Note_on_c, 0, 76, 29
1, 1554, Note_off_c, 0, 85, 64
1, 1554, Note_off_c, 0, 96, 64
1, 1555, Note_off_c, 0, 44, 64
1, 1555, Note_on_c, 0, 79, 31
1, 1555, Note_on_c, 0, 83, 22
1, 1555, Note_off_c, 0, 97, 64
1, 1556, Note_off_c, 0, 73, 64
1, 1556, Note_on_c, 0, 74, 29
1, 1556, Note_off_c, 0, 82, 64
1, 1556, Note_on_c, 0, 86, 29
1, 1557, Note_on_c, 0, 82, 13
1, 1557, Note_off_c, 0, 91, 64
1, 1558, Note_on_c, 0, 35, 64
1, 1558, Note_off_c, 0, 61, 64
1, 1558, Note_on_c, 0, 77, 31
1, 1558, Note_off_c, 0, 81, 64
1, 1558, Note_off_c, 0, 87, 64
1, 1559, Note_on_c, 0, 55, 34
1, 1559, Note_on_c, 0, 81, 45
1, 1559, Note_off_c, 0, 90, 64
1, 1560, Note_off_c, 0, 35, 64
1, 1560, Note_on_c, 0, 45, 45
1, 1560, Note_on_c, 0, 72, 30
1, 1560, Note_off_c, 0, 74, 64
1, 1560, Note_on_c, 0, 75, 35
1, 1560, Note_off_c, 0, 77, 64
1, 1560, Note_off_c, 0, 79, 64
1, 1560, Note_off_c, 0, 82, 64
1, 1560, Note_on_c, 0, 87, 35
1, 1560, Note_on_c, 0, 91, 12
1, 1560, Note_on_c, 0, 92, 24
1, 1561, Note_on_c, 0, 32, 67
1, 1561, Note_off_c, 0, 76, 64
1, 1561, Note_on_c, 0, 77, 32
1, 1561, Note_on_c, 0, 90, 24
1, 1561, Note_on_c, 0, 96, 18
1, 1562, Note_on_c, 0, 31, 68
1, 1562, Note_off_c, 0, 32, 64
1, 1562, Note_off_c, 0, 45, 64
1, 1562, Note_off_c, 0, 55, 64
1, 1562, Note_on_c, 0, 58, 25
1, 1562, Note_on_c, 0, 66, 23
1, 1562, Note_off_c, 0, 75, 64
1, 1562, Note_on_c, 0, 85, 9
1, 1563, Note_on_c, 0, 45, 45
1, 1563, Note_off_c, 0, 72, 64
1, 1563, Note_on_c, 0, 80, 37
1, 1563, Note_off_c, 0, 81, 64
1, 1563, Note_on_c, 0, 82, 22
1, 1563, Note_off_c, 0, 92, 64
1, 1563, Note_on_c, 0, 97, 11
1, 1564, Note_off_c, 0, 77, 64
1, 1564, Note_on_c, 0, 79, 25
1, 1564, Note_off_c, 0, 83, 64
1, 1565, Note_on_c, 0, 29, 56
1, 1565, Note_off_c, 0, 31, 64
1, 1565, Note_off_c, 0, 45, 64
1, 1565, Note_off_c, 0, 58, 64
1, 1565, Note_off_c, 0, 66, 64
1, 1565, Note_off_c, 0, 85, 64
1, 1566, Note_on_c, 0, 73, 25
1, 1566, Note_off_c, 0, 87, 64
1, 1566, Note_off_c, 0, 91, 64
1, 1566, Note_off_c, 0, 97, 64
1, 1567, Note_off_c, 0, 29, 64
1, 1567, Note_on_c, 0, 45, 58
1, 1567, Note_on_c, 0, 77, 28
1, 1567, Note_on_c, 0, 84, 19
1, 1567, Note_on_c, 0, 93, 13
1, 1568, Note_on_c, 0, 63, 33
1, 1568, Note_on_c, 0, 68, 22
1, 1568, Note_off_c, 0, 79, 64
1, 1568, Note_off_c, 0, 82, 64
1, 1568, Note_on_c, 0, 83, 24
1, 1568, Note_on_c, 0, 87, 36
1, 1568, Note_on_c, 0, 88, 21
1, 1568, Note_on_c, 0, 91, 15
1, 1569, Note_off_c, 0, 45, 64
1, 1569, Note_on_c, 0, 72, 37
1, 1569, Note_off_c, 0, 73, 64
1, 1569, Note_on_c, 0, 79, 30
1, 1569, Note_off_c, 0, 80, 64
1, 1569, Note_on_c, 0, 81, 48
1, 1569, Note_on_c, 0, 92, 34
1, 1570, Note_on_c, 0, 74, 38
1, 1570, Note_on_c, 0, 82, 35
1, 1570, Note_off_c, 0, 86, 64
1, 1571, Note_on_c, 0, 56, 34
1, 1571, Note_off_c, 0, 63, 64
1, 1571, Note_off_c, 0, 68, 64
1, 1571, Note_off_c, 0, 79, 64
1, 1571, Note_on_c, 0, 80, 40
1, 1571, Note_off_c, 0, 81, 64
1, 1571, Note_off_c, 0, 83, 64
1, 1571, Note_off_c, 0, 88, 64
1, 1572, Note_off_c, 0, 84, 64
1, 1572, Note_on_c, 0, 85, 25
1, 1572, Note_off_c, 0, 90, 64
1, 1572, Note_off_c, 0, 91, 64
1, 1572, Note_off_c, 0, 93, 64
1, 1573, Note_on_c, 0, 53, 37
1, 1573, Note_off_c, 0, 56, 64
1, 1573, Note_on_c, 0, 64, 28
1, 1573, Note_on_c, 0, 68, 36
1, 1573, Note_off_c, 0, 96, 64
1, 1574, Note_off_c, 0, 77, 64
1, 1574, Note_on_c, 0, 78, 23
1, 1575, Note_off_c, 0, 68, 64
1, 1575, Note_on_c, 0, 83, 27
1, 1576, Note_on_c, 0, 30, 53
1, 1576, Note_on_c, 0, 45, 45
1, 1576, Note_off_c, 0, 64, 64
1, 1576, Note_on_c, 0, 66, 39
1, 1576, Note_off_c, 0, 72, 64
1, 1576, Note_on_c, 0, 73, 25
1, 1577, Note_off_c, 0, 53, 64
1, 1577, Note_off_c, 0, 74, 64
1, 1577, Note_on_c, 0, 91, 20
1, 1578, Note_off_c, 0, 45, 64
1, 1578, Note_on_c, 0, 72, 23
1, 1578, Note_off_c, 0, 78, 64
1, 1579, Note_off_c, 0, 73, 64
1, 1579, Note_on_c, 0, 76, 19
1, 1579, Note_off_c, 0, 80, 64
1, 1579, Note_on_c, 0, 84, 24
1, 1579, Note_off_c, 0, 92, 64
1, 1580, Note_off_c, 0, 30, 64
1, 1580, Note_on_c, 0, 56, 29
1, 1580, Note_on_c, 0, 63, 24
1, 1580, Note_off_c, 0, 83, 64
1, 1580, Note_off_c, 0, 85, 64
1, 1581, Note_on_c, 0, 29, 57
1, 1581, Note_on_c, 0, 70, 21
1, 1581, Note_off_c, 0, 72, 64
1, 1581, Note_off_c, 0, 91, 64
1, 1582, Note_off_c, 0, 66, 64
1, 1582, Note_off_c, 0, 76, 64
1, 1582, Note_on_c, 0, 80, 25
1, 1583, Note_off_c, 0, 29, 64
1, 1583, Note_off_c, 0, 56, 64
1, 1583, Note_off_c, 0, 63, 64
1, 1583, Note_on_c, 0, 66, 38
1, 1583, Note_on_c, 0, 74, 20
1, 1583, Note_off_c, 0, 87, 64
1, 1584, Note_on_c, 0, 31, 49
1, 1584, Note_on_c, 0, 44, 44
1, 1584, Note_on_c, 0, 61, 29
1, 1584, Note_on_c, 0, 77, 15
1, 1584, Note_on_c, 0, 92, 39
1, 1585, Note_on_c, 0, 63, 23
1, 1585, Note_off_c, 0, 70, 64
1, 1586, Note_off_c, 0, 31, 64
1, 1586, Note_off_c, 0, 44, 64
1, 1586, Note_off_c, 0, 61, 64
1, 1586, Note_off_c, 0, 66, 64
1, 1586, Note_off_c, 0, 74, 64
1, 1586, Note_off_c, 0, 80, 64
1, 1587, Note_on_c, 0, 74, 37
1, 1587, Note_on_c, 0, 75, 32
1, 1587, Note_on_c, 0, 80, 46
1, 1587, Note_on_c, 0, 91, 11
1, 1588, Note_on_c, 0, 51, 47
1, 1588, Note_on_c, 0, 57, 38
1, 1588, Note_on_c, 0, 65, 28
1, 1588, Note_on_c, 0, 72, 38
1, 1588, Note_off_c, 0, 77, 64
1, 1588, Note_off_c, 0, 82, 64
1, 1588, Note_on_c, 0, 87, 35
1, 1588, Note_on_c, 0, 95, 18
1, 1589, Note_off_c, 0, 63, 64
1, 1589, Note_off_c, 0, 75, 64
1, 1591, Note_off_c, 0, 51, 64
1, 1591, Note_on_c, 0, 56, 43
1, 1591, Note_off_c, 0, 57, 64
1, 1591, Note_off_c, 0, 65, 64
1, 1591, Note_on_c, 0, 83, 15
1, 1591, Note_off_c, 0, 91, 64
1, 1591, Note_off_c, 0, 95, 64
1, 1592, Note_off_c, 0, 74, 64
1, 1592, Note_on_c, 0, 85, 18
1, 1593, Note_on_c, 0, 48, 49
1, 1593, Note_on_c, 0, 77, 16
1, 1593, Note_off_c, 0, 84, 64
1, 1593, Note_off_c, 0, 92, 64
1, 1594, Note_off_c, 0, 56, 64
1, 1594, Note_on_c, 0, 57, 32
1, 1594, Note_off_c, 0, 72, 64
1, 1594, Note_on_c, 0, 82, 21
1, 1595, Note_on_c, 0, 36, 66
1, 1595, Note_off_c, 0, 48, 64
1, 1595, Note_on_c, 0, 63, 15
1, 1595, Note_off_c, 0, 85, 64
1, 1595, Note_off_c, 0, 87, 64
1, 1596, Note_on_c, 0, 35, 67
1, 1596, Note_off_c, 0, 36, 64
1, 1596, Note_on_c, 0, 55, 40
1, 1596, Note_off_c, 0, 57, 64
1, 1596, Note_off_c, 0, 77, 64
1, 1596, Note_off_c, 0, 83, 64
1, 1597, Note_on_c, 0, 34, 65
1, 1597, Note_off_c, 0, 35, 64
1, 1597, Note_on_c, 0, 45, 57
1, 1597, Note_on_c, 0, 78, 13
1, 1598, Note_on_c, 0, 32, 69
1, 1598, Note_off_c, 0, 34, 64
1, 1598, Note_off_c, 0, 63, 64
1, 1598, Note_on_c, 0, 66, 24
1, 1599, Note_on_c, 0, 31, 72
1, 1599, Note_off_c, 0, 32, 64
1, 1599, Note_off_c, 0, 45, 64
1, 1599, Note_on_c, 0, 46, 47
1, 1599, Note_on_c, 0, 53, 40
1, 1599, Note_off_c, 0, 55, 64
1, 1600, Note_off_c, 0, 82, 64
1, 1601, Note_off_c, 0, 53, 64
1, 1601, Note_on_c, 0, 54, 29
1, 1601, Note_on_c, 0, 61, 24
1, 1601, Note_on_c, 0, 86, 13
1, 1603, Note_on_c, 0, 29, 59
1, 1603, Note_off_c, 0, 31, 64
1, 1603, Note_off_c, 0, 54, 64
1, 1603, Note_off_c, 0, 66, 64
1, 1603, Note_on_c, 0, 82, 31
1, 1604, Note_off_c, 0, 46, 64
1, 1604, Note_off_c, 0, 61, 64
1, 1604, Note_off_c, 0, 78, 64
1, 1605, Note_off_c, 0, 29, 64
1, 1605, Note_on_c, 0, 57, 29
1, 1605, Note_on_c, 0, 66, 42
1, 1605, Note_off_c, 0, 86, 64
1, 1606, Note_on_c, 0, 73, 25
1, 1606, Note_on_c, 0, 75, 19
1, 1607, Note_on_c, 0, 70, 17
1, 1607, Note_on_c, 0, 88, 20
1, 1608, Note_off_c, 0, 57, 64
1, 1609, Note_on_c, 0, 61, 43
1, 1609, Note_off_c, 0, 73, 64
1, 1610, Note_on_c, 0, 46, 51
1, 1610, Note_on_c, 0, 53, 32
1, 1610, Note_on_c, 0, 68, 38
1, 1610, Note_on_c, 0, 79, 18
1, 1610, Note_on_c, 0, 85, 17
1, 1611, Note_off_c, 0, 70, 64
1, 1611, Note_off_c, 0, 80, 64
1, 1612, Note_off_c, 0, 53, 64
1, 1612, Note_off_c, 0, 68, 64
1, 1612, Note_on_c, 0, 74, 21
1, 1612, Note_on_c, 0, 84, 21
1, 1613, Note_on_c, 0, 29, 52
1, 1613, Note_off_c, 0, 46, 64
1, 1613, Note_off_c, 0, 75, 64
1, 1613, Note_on_c, 0, 76, 17
1, 1613, Note_off_c, 0, 79, 64
1, 1613, Note_on_c, 0, 80, 36
1, 1613, Note_on_c, 0, 83, 17
1, 1614, Note_off_c, 0, 82, 64
1, 1614, Note_off_c, 0, 85, 64
1, 1615, Note_on_c, 0, 45, 45
1, 1615, Note_on_c, 0, 56, 33
1, 1615, Note_on_c, 0, 68, 37
1, 1615, Note_on_c, 0, 87, 15
1, 1615, Note_on_c, 0, 89, 21
1, 1616, Note_off_c, 0, 29, 64
1, 1616, Note_off_c, 0, 66, 64
1, 1616, Note_off_c, 0, 74, 64
1, 1616, Note_off_c, 0, 76, 64
1, 1616, Note_off_c, 0, 83, 64
1, 1616, Note_on_c, 0, 86, 29
1, 1617, Note_off_c, 0, 45, 64
1, 1617, Note_off_c, 0, 56, 64
1, 1617, Note_on_c, 0, 70, 19
1, 1617, Note_on_c, 0, 81, 31
1, 1617, Note_off_c, 0, 84, 64
1, 1618, Note_on_c, 0, 66, 35
1, 1618, Note_off_c, 0, 68, 64
1, 1618, Note_on_c, 0, 84, 16
1, 1618, Note_off_c, 0, 87, 64
1, 1619, Note_on_c, 0, 29, 61
1, 1619, Note_on_c, 0, 54, 36
1, 1619, Note_off_c, 0, 81, 64
1, 1619, Note_off_c, 0, 86, 64
1, 1619, Note_on_c, 0, 87, 24
1, 1620, Note_off_c, 0, 70, 64
1, 1620, Note_on_c, 0, 76, 19
1, 1621, Note_off_c, 0, 29, 64
1, 1621, Note_on_c, 0, 30, 51
1, 1621, Note_off_c, 0, 66, 64
1, 1621, Note_on_c, 0, 67, 29
1, 1621, Note_on_c, 0, 86, 13
1, 1622, Note_off_c, 0, 54, 64
1, 1622, Note_off_c, 0, 80, 64
1, 1623, Note_off_c, 0, 30, 64
1, 1623, Note_off_c, 0, 76, 64
1, 1623, Note_on_c, 0, 82, 11
1, 1623, Note_off_c, 0, 84, 64
1, 1623, Note_off_c, 0, 88, 64
1, 1624, Note_on_c, 0, 47, 32
1, 1624, Note_on_c, 0, 66, 31
1, 1624, Note_off_c, 0, 67, 64
1, 1624, Note_on_c, 0, 72, 11
1, 1624, Note_off_c, 0, 86, 64
1, 1624, Note_off_c, 0, 89, 64
1, 1625, Note_on_c, 0, 77, 11
1, 1625, Note_on_c, 0, 80, 27
1, 1625, Note_off_c, 0, 87, 64
1, 1625, Note_on_c, 0, 88, 19
1, 1626, Note_on_c, 0, 46, 40
1, 1626, Note_off_c, 0, 47, 64
1, 1626, Note_on_c, 0, 53, 31
1, 1626, Note_off_c, 0, 82, 64
1, 1626, Note_on_c, 0, 87, 18
1, 1627, Note_off_c, 0, 72, 64
1, 1629, Note_off_c, 0, 46, 64
1, 1629, Note_off_c, 0, 53, 64
1, 1629, Note_off_c, 0, 77, 64
1, 1630, Note_off_c, 0, 61, 64
1, 1630, Note_on_c, 0, 85, 18
1, 1630, Note_off_c, 0, 87, 64
1, 1631, Note_on_c, 0, 76, 9
1, 1632, Note_on_c, 0, 36, 68
1, 1632, Note_on_c, 0, 53, 34
1, 1632, Note_on_c, 0, 61, 28
1, 1632, Note_off_c, 0, 80, 64
1, 1632, Note_off_c, 0, 88, 64
1, 1633, Note_on_c, 0, 35, 66
1, 1633, Note_off_c, 0, 36, 64
1, 1634, Note_on_c, 0, 33, 69
1, 1634, Note_off_c, 0, 35, 64
1, 1634, Note_off_c, 0, 53, 64
1, 1634, Note_on_c, 0, 81, 16
1, 1635, Note_off_c, 0, 76, 64
1, 1635, Note_off_c, 0, 85, 64
1, 1635, Note_on_c, 0, 86, 20
1, 1636, Note_on_c, 0, 32, 74
1, 1636, Note_off_c, 0, 33, 64
1, 1636, Note_on_c, 0, 80, 13
1, 1637, Note_on_c, 0, 31, 75
1, 1637, Note_off_c, 0, 32, 64
1, 1637, Note_on_c, 0, 54, 41
1, 1637, Note_off_c, 0, 81, 64
1, 1638, Note_off_c, 0, 86, 64
1, 1639, Note_off_c, 0, 54, 64
1, 1639, Note_on_c, 0, 55, 43
1, 1639, Note_off_c, 0, 61, 64
1, 1639, Note_off_c, 0, 80, 64
1, 1640, Note_on_c, 0, 29, 62
1, 1640, Note_off_c, 0, 31, 64
1, 1640, Note_on_c, 0, 45, 49
1, 1640, Note_on_c, 0, 82, 14
1, 1641, Note_off_c, 0, 66, 64
1, 1642, Note_off_c, 0, 29, 64
1, 1642, Note_off_c, 0, 55, 64
1, 1642, Note_on_c, 0, 58, 27
1, 1642, Note_on_c, 0, 66, 45
1, 1642, Note_on_c, 0, 85, 23
1, 1642, Note_on_c, 0, 88, 12
1, 1643, Note_off_c, 0, 45, 64
1, 1643, Note_on_c, 0, 46, 40
1, 1643, Note_on_c, 0, 54, 32
1, 1643, Note_off_c, 0, 82, 64
1, 1643, Note_on_c, 0, 83, 14
1, 1644, Note_on_c, 0, 73, 23
1, 1644, Note_on_c, 0, 84, 16
1, 1644, Note_on_c, 0, 92, 17
1, 1645, Note_off_c, 0, 58, 64
1, 1645, Note_on_c, 0, 81, 32
1, 1645, Note_on_c, 0, 87, 23
1, 1645, Note_off_c, 0, 88, 64
1, 1646, Note_on_c, 0, 80, 21
1, 1646, Note_on_c, 0, 82, 16
1, 1646, Note_off_c, 0, 83, 64
1, 1647, Note_on_c, 0, 45, 40
1, 1647, Note_off_c, 0, 46, 64
1, 1647, Note_off_c, 0, 54, 64
1, 1647, Note_off_c, 0, 66, 64
1, 1647, Note_on_c, 0, 68, 37
1, 1647, Note_off_c, 0, 81, 64
1, 1647, Note_off_c, 0, 92, 64
1, 1648, Note_on_c, 0, 30, 55
1, 1648, Note_on_c, 0, 61, 20
1, 1648, Note_on_c, 0, 78, 20
1, 1649, Note_off_c, 0, 45, 64
1, 1649, Note_off_c, 0, 68, 64
1, 1649, Note_off_c, 0, 87, 64
1, 1649, Note_on_c, 0, 88, 17
1, 1650, Note_off_c, 0, 30, 64
1, 1650, Note_on_c, 0, 66, 43
1, 1650, Note_on_c, 0, 70, 19
1, 1650, Note_off_c, 0, 82, 64
1, 1651, Note_off_c, 0, 78, 64
1, 1651, Note_on_c, 0, 82, 28
1, 1652, Note_on_c, 0, 47, 33
1, 1653, Note_off_c, 0, 61, 64
1, 1653, Note_off_c, 0, 73, 64
1, 1654, Note_on_c, 0, 31, 59
1, 1654, Note_on_c, 0, 46, 34
1, 1654, Note_off_c, 0, 47, 64
1, 1654, Note_on_c, 0, 53, 32
1, 1654, Note_on_c, 0, 73, 36
1, 1654, Note_on_c, 0, 81, 19
1, 1654, Note_off_c, 0, 84, 64
1, 1654, Note_off_c, 0, 85, 64
1, 1654, Note_on_c, 0, 87, 17
1, 1654, Note_off_c, 0, 88, 64
1, 1655, Note_on_c, 0, 61, 38
1, 1655, Note_off_c, 0, 70, 64
1, 1655, Note_on_c, 0, 90, 24
1, 1656, Note_off_c, 0, 31, 64
1, 1656, Note_off_c, 0, 66, 64
1, 1656, Note_on_c, 0, 84, 11
1, 1657, Note_off_c, 0, 53, 64
1, 1657, Note_on_c, 0, 55, 34
1, 1657, Note_on_c, 0, 78, 21
1, 1657, Note_off_c, 0, 82, 64
1, 1658, Note_off_c, 0, 46, 64
1, 1658, Note_on_c, 0, 66, 36
1, 1658, Note_on_c, 0, 70, 26
1, 1658, Note_off_c, 0, 81, 64
1, 1659, Note_off_c, 0, 55, 64
1, 1659, Note_off_c, 0, 73, 64
1, 1659, Note_on_c, 0, 76, 25
1, 1660, Note_off_c, 0, 84, 64
1, 1661, Note_on_c, 0, 50, 16
1, 1661, Note_off_c, 0, 61, 64
1, 1661, Note_off_c, 0, 66, 64
1, 1661, Note_off_c, 0, 80, 64
1, 1661, Note_off_c, 0, 87, 64
1, 1662, Note_on_c, 0, 61, 31
1, 1663, Note_off_c, 0, 70, 64
1, 1663, Note_off_c, 0, 76, 64
1, 1663, Note_on_c, 0, 81, 15
1, 1664, Note_off_c, 0, 50, 64
1, 1664, Note_on_c, 0, 66, 19
1, 1664, Note_on_c, 0, 86, 13
1, 1665, Note_off_c, 0, 78, 64
1, 1665, Note_on_c, 0, 79, 16
1, 1665, Note_off_c, 0, 90, 64
1, 1667, Note_on_c, 0, 76, 19
1, 1667, Note_off_c, 0, 81, 64
1, 1667, Note_off_c, 0, 86, 64
1, 1668, Note_off_c, 0, 79, 64
1, 1669, Note_on_c, 0, 37, 66
1, 1670, Note_on_c, 0, 35, 67
1, 1670, Note_off_c, 0, 37, 64
1, 1671, Note_on_c, 0, 34, 72
1, 1671, Note_off_c, 0, 35, 64
1, 1671, Note_off_c, 0, 76, 64
1, 1671, Note_on_c, 0, 81, 29
1, 1672, Note_off_c, 0, 66, 64
1, 1672, Note_on_c, 0, 86, 19
1, 1673, Note_on_c, 0, 32, 75
1, 1673, Note_off_c, 0, 34, 64
1, 1673, Note_on_c, 0, 87, 23
1, 1674, Note_on_c, 0, 66, 10
1, 1675, Note_on_c, 0, 31, 74
1, 1675, Note_off_c, 0, 32, 64
1, 1675, Note_on_c, 0, 80, 26
1, 1675, Note_off_c, 0, 81, 64
1, 1676, Note_off_c, 0, 61, 64
1, 1676, Note_on_c, 0, 82, 16
1, 1676, Note_off_c, 0, 86, 64
1, 1676, Note_on_c, 0, 90, 17
1, 1677, Note_on_c, 0, 30, 69
1, 1677, Note_off_c, 0, 31, 64
1, 1677, Note_on_c, 0, 55, 29
1, 1677, Note_on_c, 0, 61, 29
1, 1677, Note_off_c, 0, 66, 64
1, 1677, Note_on_c, 0, 84, 14
1, 1677, Note_off_c, 0, 87, 64
1, 1678, Note_on_c, 0, 29, 59
1, 1678, Note_off_c, 0, 30, 64
1, 1680, Note_off_c, 0, 29, 64
1, 1680, Note_off_c, 0, 55, 64
1, 1680, Note_on_c, 0, 85, 18
1, 1680, Note_on_c, 0, 87, 11
1, 1680, Note_off_c, 0, 90, 64
1, 1681, Note_on_c, 0, 89, 14
1, 1682, Note_off_c, 0, 61, 64
1, 1682, Note_off_c, 0, 84, 64
1, 1683, Note_off_c, 0, 82, 64
1, 1684, Note_on_c, 0, 28, 65
1, 1684, Note_on_c, 0, 44, 45
1, 1684, Note_on_c, 0, 55, 36
1, 1684, Note_on_c, 0, 78, 31
1, 1684, Note_off_c, 0, 89, 64
1, 1685, Note_off_c, 0, 28, 64
1, 1685, Note_on_c, 0, 66, 40
1, 1685, Note_off_c, 0, 87, 64
1, 1686, Note_on_c, 0, 30, 58
1, 1686, Note_off_c, 0, 44, 64
1, 1686, Note_off_c, 0, 55, 64
1, 1686, Note_off_c, 0, 80, 64
1, 1687, Note_on_c, 0, 82, 12
1, 1688, Note_on_c, 0, 29, 57
1, 1688, Note_off_c, 0, 30, 64
1, 1688, Note_on_c, 0, 46, 35
1, 1688, Note_on_c, 0, 61, 29
1, 1688, Note_off_c, 0, 66, 64
1, 1689, Note_on_c, 0, 73, 32
1, 1689, Note_off_c, 0, 85, 64
1, 1690, Note_on_c, 0, 75, 19
1, 1690, Note_on_c, 0, 92, 14
1, 1691, Note_off_c, 0, 29, 64
1, 1691, Note_on_c, 0, 45, 32
1, 1691, Note_off_c, 0, 46, 64
1, 1691, Note_on_c, 0, 66, 42
1, 1691, Note_on_c, 0, 80, 15
1, 1691, Note_off_c, 0, 82, 64
1, 1692, Note_off_c, 0, 61, 64
1, 1694, Note_off_c, 0, 45, 64
1, 1694, Note_on_c, 0, 65, 41
1, 1694, Note_off_c, 0, 66, 64
1, 1694, Note_off_c, 0, 75, 64
1, 1694, Note_on_c, 0, 76, 23
1, 1694, Note_off_c, 0, 80, 64
1, 1694, Note_on_c, 0, 82, 31
1, 1694, Note_on_c, 0, 84, 13
1, 1695, Note_on_c, 0, 30, 61
1, 1696, Note_off_c, 0, 65, 64
1, 1696, Note_on_c, 0, 66, 48
1, 1696, Note_off_c, 0, 73, 64
1, 1696, Note_on_c, 0, 75, 21
1, 1696, Note_on_c, 0, 85, 24
1, 1696, Note_off_c, 0, 92, 64
1, 1697, Note_off_c, 0, 76, 64
1, 1697, Note_off_c, 0, 84, 64
1, 1698, Note_off_c, 0, 30, 64
1, 1698, Note_on_c, 0, 33, 48
1, 1698, Note_off_c, 0, 66, 64
1, 1698, Note_on_c, 0, 67, 41
1, 1699, Note_off_c, 0, 82, 64
1, 1700, Note_off_c, 0, 33, 64
1, 1700, Note_off_c, 0, 67, 64
1, 1700, Note_off_c, 0, 75, 64
1, 1700, Note_on_c, 0, 92, 21
1, 1701, Note_off_c, 0, 85, 64
1, 1702, Note_on_c, 0, 66, 32
1, 1702, Note_off_c, 0, 78, 64
1, 1703, Note_on_c, 0, 85, 18
1, 1703, Note_off_c, 0, 92, 64
1, 1706, Note_on_c, 0, 37, 66
1, 1706, Note_off_c, 0, 85, 64
1, 1707, Note_on_c, 0, 36, 68
1, 1707, Note_off_c, 0, 37, 64
1, 1707, Note_on_c, 0, 70, 10
1, 1708, Note_on_c, 0, 35, 70
1, 1708, Note_off_c, 0, 36, 64
1, 1708, Note_on_c, 0, 58, 10
1, 1708, Note_on_c, 0, 82, 18
1, 1709, Note_on_c, 0, 34, 73
1, 1709, Note_off_c, 0, 35, 64
1, 1710, Note_on_c, 0, 33, 75
1, 1710, Note_off_c, 0, 34, 64
1, 1710, Note_off_c, 0, 70, 64
1, 1711, Note_on_c, 0, 32, 78
1, 1711, Note_off_c, 0, 33, 64
1, 1711, Note_off_c, 0, 58, 64
1, 1711, Note_on_c, 0, 61, 43
1, 1711, Note_on_c, 0, 80, 13
1, 1711, Note_off_c, 0, 82, 64
1, 1712, Note_on_c, 0, 31, 78
1, 1712, Note_off_c, 0, 32, 64
1, 1712, Note_on_c, 0, 54, 21
1, 1712, Note_on_c, 0, 82, 11
1, 1714, Note_off_c, 0, 80, 64
1, 1715, Note_on_c, 0, 30, 66
1, 1715, Note_off_c, 0, 31, 64
1, 1715, Note_off_c, 0, 54, 64
1, 1716, Note_off_c, 0, 30, 64
1, 1716, Note_on_c, 0, 85, 9
1, 1719, Note_off_c, 0, 66, 64
1, 1719, Note_on_c, 0, 80, 27
1, 1719, Note_on_c, 0, 90, 12
1, 1720, Note_on_c, 0, 66, 48
1, 1720, Note_off_c, 0, 82, 64
1, 1721, Note_on_c, 0, 29, 65
1, 1721, Note_off_c, 0, 85, 64
1, 1722, Note_on_c, 0, 28, 66
1, 1722, Note_off_c, 0, 29, 64
1, 1722, Note_on_c, 0, 70, 24
1, 1722, Note_off_c, 0, 90, 64
1, 1723, Note_off_c, 0, 28, 64
1, 1723, Note_on_c, 0, 30, 61
1, 1724, Note_on_c, 0, 68, 34
1, 1725, Note_on_c, 0, 29, 59
1, 1725, Note_off_c, 0, 30, 64
1, 1727, Note_off_c, 0, 70, 64
1, 1728, Note_off_c, 0, 29, 64
1, 1728, Note_off_c, 0, 68, 64
1, 1729, Note_on_c, 0, 31, 62
1, 1730, Note_on_c, 0, 54, 31
1, 1730, Note_off_c, 0, 61, 64
1, 1730, Note_on_c, 0, 62, 33
1, 1731, Note_on_c, 0, 29, 65
1, 1731, Note_off_c, 0, 31, 64
1, 1731, Note_off_c, 0, 66, 64
1, 1731, Note_on_c, 0, 82, 23
1, 1732, Note_on_c, 0, 61, 45
1, 1732, Note_off_c, 0, 62, 64
1, 1732, Note_on_c, 0, 66, 40
1, 1732, Note_on_c, 0, 70, 20
1, 1733, Note_off_c, 0, 29, 64
1, 1733, Note_on_c, 0, 30, 60
1, 1733, Note_off_c, 0, 54, 64
1, 1733, Note_off_c, 0, 80, 64
1, 1734, Note_on_c, 0, 86, 12
1, 1735, Note_off_c, 0, 30, 64
1, 1735, Note_off_c, 0, 66, 64
1, 1736, Note_off_c, 0, 61, 64
1, 1736, Note_on_c, 0, 64, 30
1, 1736, Note_off_c, 0, 70, 64
1, 1736, Note_on_c, 0, 80, 30
1, 1736, Note_on_c, 0, 88, 13
1, 1737, Note_on_c, 0, 61, 21
1, 1737, Note_on_c, 0, 66, 18
1, 1738, Note_off_c, 0, 64, 64
1, 1738, Note_off_c, 0, 82, 64
1, 1739, Note_off_c, 0, 86, 64
1, 1739, Note_on_c, 0, 87, 11
1, 1741, Note_off_c, 0, 88, 64
1, 1742, Note_off_c, 0, 80, 64
1, 1742, Note_off_c, 0, 87, 64
1, 1743, Note_on_c, 0, 38, 68
1, 1744, Note_on_c, 0, 36, 71
1, 1744, Note_off_c, 0, 38, 64
1, 1745, Note_on_c, 0, 35, 72
1, 1745, Note_off_c, 0, 36, 64
1, 1746, Note_on_c, 0, 34, 76
1, 1746, Note_off_c, 0, 35, 64
1, 1746, Note_off_c, 0, 66, 64
1, 1747, Note_off_c, 0, 61, 64
1, 1748, Note_on_c, 0, 32, 78
1, 1748, Note_off_c, 0, 34, 64
1, 1748, Note_on_c, 0, 61, 9
1, 1748, Note_on_c, 0, 66, 44
1, 1748, Note_on_c, 0, 80, 9
1, 1749, Note_on_c, 0, 31, 80
1, 1749, Note_off_c, 0, 32, 64
1, 1751, Note_off_c, 0, 61, 64
1, 1751, Note_off_c, 0, 80, 64
1, 1752, Note_on_c, 0, 30, 72
1, 1752, Note_off_c, 0, 31, 64
1, 1753, Note_on_c, 0, 29, 63
1, 1753, Note_off_c, 0, 30, 64
1, 1755, Note_off_c, 0, 29, 64
1, 1755, Note_on_c, 0, 85, 21
1, 1755, Note_on_c, 0, 92, 21
1, 1756, Note_on_c, 0, 72, 22
1, 1756, Note_on_c, 0, 87, 19
1, 1756, Note_on_c, 0, 89, 12
1, 1757, Note_on_c, 0, 80, 35
1, 1757, Note_on_c, 0, 81, 22
1, 1757, Note_on_c, 0, 95, 13
1, 1757, Note_on_c, 0, 102, 14
1, 1757, Note_on_c, 0, 103, 12
1, 1758, Note_on_c, 0, 30, 65
1, 1759, Note_on_c, 0, 28, 68
1, 1759, Note_off_c, 0, 30, 64
1, 1759, Note_on_c, 0, 61, 34
1, 1759, Note_off_c, 0, 87, 64
1, 1760, Note_off_c, 0, 28, 64
1, 1760, Note_off_c, 0, 80, 64
1, 1760, Note_off_c, 0, 102, 64
1, 1760, Note_off_c, 0, 103, 64
1, 1761, Note_on_c, 0, 30, 61
1, 1761, Note_off_c, 0, 72, 64
1, 1761, Note_on_c, 0, 83, 13
1, 1762, Note_on_c, 0, 80, 28
1, 1762, Note_off_c, 0, 81, 64
1, 1762, Note_off_c, 0, 89, 64
1, 1762, Note_on_c, 0, 94, 17
1, 1762, Note_off_c, 0, 95, 64
1, 1763, Note_on_c, 0, 29, 60
1, 1763, Note_off_c, 0, 30, 64
1, 1763, Note_on_c, 0, 84, 10
1, 1764, Note_on_c, 0, 55, 33
1, 1765, Note_on_c, 0, 82, 20
1, 1765, Note_off_c, 0, 83, 64
1, 1765, Note_on_c, 0, 88, 22
1, 1766, Note_off_c, 0, 29, 64
1, 1767, Note_off_c, 0, 80, 64
1, 1767, Note_off_c, 0, 85, 64
1, 1768, Note_on_c, 0, 30, 66
1, 1769, Note_on_c, 0, 29, 67
1, 1769, Note_off_c, 0, 30, 64
1, 1769, Note_off_c, 0, 84, 64
1, 1769, Note_off_c, 0, 92, 64
1, 1770, Note_off_c, 0, 55, 64
1, 1770, Note_on_c, 0, 76, 14
1, 1770, Note_on_c, 0, 80, 10
1, 1771, Note_off_c, 0, 29, 64
1, 1771, Note_on_c, 0, 30, 60
1, 1772, Note_off_c, 0, 61, 64
1, 1772, Note_off_c, 0, 88, 64
1, 1772, Note_off_c, 0, 94, 64
1, 1773, Note_off_c, 0, 30, 64
1, 1773, Note_on_c, 0, 64, 16
1, 1773, Note_off_c, 0, 66, 64
1, 1773, Note_off_c, 0, 76, 64
1, 1773, Note_off_c, 0, 80, 64
1, 1774, Note_on_c, 0, 84, 15
1, 1775, Note_on_c, 0, 21, 37
1, 1775, Note_on_c, 0, 75, 13
1, 1775, Note_on_c, 0, 86, 17
1, 1775, Note_on_c, 0, 92, 20
1, 1775, Note_on_c, 0, 94, 21
1, 1775, Note_on_c, 0, 95, 22
1, 1775, Note_on_c, 0, 98, 20
1, 1775, Note_on_c, 0, 99, 15
1, 1775, Note_on_c, 0, 100, 20
1, 1776, Note_off_c, 0, 64, 64
1, 1776, Note_on_c, 0, 66, 28
1, 1776, Note_on_c, 0, 96, 25
1, 1777, Note_off_c, 0, 21, 64
1, 1777, Note_off_c, 0, 84, 64
1, 1778, Note_off_c, 0, 86, 64
1, 1778, Note_on_c, 0, 87, 13
1, 1779, Note_off_c, 0, 75, 64
1, 1779, Note_off_c, 0, 99, 64
1, 1780, Note_on_c, 0, 38, 67
1, 1780, Note_off_c, 0, 82, 64
1, 1780, Note_off_c, 0, 100, 64
1, 1781, Note_on_c, 0, 37, 71
1, 1781, Note_off_c, 0, 38, 64
1, 1781, Note_on_c, 0, 76, 11
1, 1781, Note_off_c, 0, 87, 64
1, 1782, Note_on_c, 0, 36, 73
1, 1782, Note_off_c, 0, 37, 64
1, 1782, Note_off_c, 0, 92, 64
1, 1782, Note_off_c, 0, 94, 64
1, 1782, Note_off_c, 0, 95, 64
1, 1782, Note_off_c, 0, 96, 64
1, 1782, Note_off_c, 0, 98, 64
1, 1783, Note_on_c, 0, 35, 74
1, 1783, Note_off_c, 0, 36, 64
1, 1784, Note_on_c, 0, 34, 76
1, 1784, Note_off_c, 0, 35, 64
1, 1784, Note_on_c, 0, 61, 33
1, 1784, Note_off_c, 0, 66, 64
1, 1784, Note_on_c, 0, 79, 16
1, 1784, Note_on_c, 0, 81, 28
1, 1784, Note_on_c, 0, 87, 12
1, 1784, Note_on_c, 0, 90, 14
1, 1785, Note_on_c, 0, 33, 78
1, 1785, Note_off_c, 0, 34, 64
1, 1786, Note_on_c, 0, 32, 81
1, 1786, Note_off_c, 0, 33, 64
1, 1786, Note_off_c, 0, 76, 64
1, 1787, Note_on_c, 0, 31, 81
1, 1787, Note_off_c, 0, 32, 64
1, 1787, Note_off_c, 0, 81, 64
1, 1787, Note_on_c, 0, 84, 11
1, 1787, Note_on_c, 0, 85, 10
1, 1788, Note_off_c, 0, 87, 64
1, 1789, Note_off_c, 0, 79, 64
1, 1789, Note_on_c, 0, 92, 12
1, 1790, Note_on_c, 0, 30, 69
1, 1790, Note_off_c, 0, 31, 64
1, 1790, Note_on_c, 0, 66, 15
1, 1790, Note_off_c, 0, 84, 64
1, 1790, Note_off_c, 0, 85, 64
1, 1791, Note_off_c, 0, 30, 64
1, 1792, Note_on_c, 0, 82, 17
1, 1793, Note_off_c, 0, 66, 64
1, 1793, Note_off_c, 0, 90, 64
1, 1794, Note_on_c, 0, 81, 14
1, 1795, Note_on_c, 0, 66, 45
1, 1795, Note_off_c, 0, 82, 64
1, 1795, Note_on_c, 0, 88, 17
1, 1795, Note_on_c, 0, 90, 31
1, 1796, Note_on_c, 0, 29, 70
1, 1796, Note_on_c, 0, 76, 21
1, 1796, Note_off_c, 0, 92, 64
1, 1797, Note_on_c, 0, 28, 69
1, 1797, Note_off_c, 0, 29, 64
1, 1797, Note_off_c, 0, 81, 64
1, 1797, Note_on_c, 0, 82, 12
1, 1797, Note_on_c, 0, 85, 18
1, 1798, Note_off_c, 0, 28, 64
1, 1799, Note_off_c, 0, 76, 64
1, 1800, Note_on_c, 0, 29, 62
1, 1800, Note_on_c, 0, 69, 15
1, 1801, Note_off_c, 0, 61, 64
1, 1801, Note_off_c, 0, 82, 64
1, 1801, Note_on_c, 0, 92, 13
1, 1802, Note_on_c, 0, 61, 27
1, 1803, Note_off_c, 0, 29, 64
1, 1803, Note_off_c, 0, 66, 64
1, 1803, Note_off_c, 0, 69, 64
1, 1803, Note_on_c, 0, 96, 11
1, 1804, Note_on_c, 0, 54, 17
1, 1804, Note_on_c, 0, 66, 50
1, 1804, Note_on_c, 0, 76, 27
1, 1804, Note_off_c, 0, 90, 64
1, 1804, Note_off_c, 0, 92, 64
1, 1804, Note_on_c, 0, 94, 13
1, 1805, Note_on_c, 0, 30, 66
1, 1805, Note_off_c, 0, 61, 64
1, 1805, Note_off_c, 0, 88, 64
1, 1806, Note_on_c, 0, 29, 69
1, 1806, Note_off_c, 0, 30, 64
1, 1806, Note_on_c, 0, 81, 14
1, 1806, Note_off_c, 0, 96, 64
1, 1807, Note_on_c, 0, 69, 24
1, 1807, Note_off_c, 0, 94, 64
1, 1808, Note_off_c, 0, 29, 64
1, 1808, Note_on_c, 0, 30, 63
1, 1808, Note_off_c, 0, 54, 64
1, 1808, Note_on_c, 0, 82, 23
1, 1808, Note_off_c, 0, 85, 64
1, 1809, Note_off_c, 0, 81, 64
1, 1810, Note_off_c, 0, 30, 64
1, 1810, Note_off_c, 0, 69, 64
1, 1810, Note_off_c, 0, 76, 64
1, 1811, Note_on_c, 0, 61, 17
1, 1812, Note_on_c, 0, 76, 12
1, 1813, Note_on_c, 0, 87, 10
1, 1816, Note_off_c, 0, 76, 64
1, 1816, Note_off_c, 0, 87, 64
1, 1817, Note_on_c, 0, 40, 67
1, 1818, Note_on_c, 0, 38, 72
1, 1818, Note_off_c, 0, 40, 64
1, 1818, Note_off_c, 0, 82, 64
1, 1819, Note_on_c, 0, 36, 75
1, 1819, Note_off_c, 0, 38, 64
1, 1819, Note_off_c, 0, 61, 64
1, 1820, Note_on_c, 0, 35, 76
1, 1820, Note_off_c, 0, 36, 64
1, 1821, Note_on_c, 0, 34, 77
1, 1821, Note_off_c, 0, 35, 64
1, 1822, Note_on_c, 0, 33, 80
1, 1822, Note_off_c, 0, 34, 64
1, 1823, Note_on_c, 0, 32, 83
1, 1823, Note_off_c, 0, 33, 64
1, 1823, Note_on_c, 0, 88, 17
1, 1824, Note_on_c, 0, 31, 84
1, 1824, Note_off_c, 0, 32, 64
1, 1825, Note_off_c, 0, 66, 64
1, 1826, Note_on_c, 0, 85, 17
1, 1827, Note_on_c, 0, 30, 75
1, 1827, Note_off_c, 0, 31, 64
1, 1827, Note_on_c, 0, 69, 15
1, 1827, Note_off_c, 0, 88, 64
1, 1828, Note_on_c, 0, 29, 66
1, 1828, Note_off_c, 0, 30, 64
1, 1830, Note_off_c, 0, 29, 64
1, 1830, Note_off_c, 0, 85, 64
1, 1831, Note_off_c, 0, 69, 64
1, 1832, Note_on_c, 0, 69, 26
1, 1832, Note_on_c, 0, 73, 29
1, 1833, Note_on_c, 0, 29, 70
1, 1833, Note_on_c, 0, 66, 45
1, 1834, Note_on_c, 0, 28, 72
1, 1834, Note_off_c, 0, 29, 64
1, 1834, Note_on_c, 0, 81, 31
1, 1834, Note_on_c, 0, 88, 18
1, 1835, Note_off_c, 0, 28, 64
1, 1835, Note_on_c, 0, 29, 68
1, 1835, Note_on_c, 0, 92, 17
1, 1836, Note_off_c, 0, 29, 64
1, 1836, Note_on_c, 0, 30, 65
1, 1836, Note_on_c, 0, 76, 17
1, 1837, Note_on_c, 0, 79, 22
1, 1838, Note_on_c, 0, 29, 64
1, 1838, Note_off_c, 0, 30, 64
1, 1838, Note_on_c, 0, 61, 28
1, 1839, Note_on_c, 0, 83, 15
1, 1839, Note_off_c, 0, 92, 64
1, 1840, Note_off_c, 0, 66, 64
1, 1840, Note_off_c, 0, 76, 64
1, 1841, Note_off_c, 0, 29, 64
1, 1841, Note_on_c, 0, 66, 37
1, 1841, Note_on_c, 0, 72, 27
1, 1841, Note_off_c, 0, 73, 64
1, 1841, Note_on_c, 0, 76, 36
1, 1841, Note_off_c, 0, 79, 64
1, 1842, Note_on_c, 0, 31, 65
1, 1842, Note_on_c, 0, 79, 27
1, 1842, Note_on_c, 0, 87, 22
1, 1843, Note_on_c, 0, 30, 69
1, 1843, Note_off_c, 0, 31, 64
1, 1843, Note_on_c, 0, 68, 26
1, 1843, Note_off_c, 0, 69, 64
1, 1843, Note_off_c, 0, 88, 64
1, 1844, Note_on_c, 0, 29, 69
1, 1844, Note_off_c, 0, 30, 64
1, 1844, Note_off_c, 0, 66, 64
1, 1844, Note_off_c, 0, 72, 64
1, 1844, Note_on_c, 0, 73, 33
1, 1844, Note_on_c, 0, 78, 21
1, 1844, Note_off_c, 0, 83, 64
1, 1845, Note_off_c, 0, 79, 64
1, 1845, Note_on_c, 0, 91, 11
1, 1846, Note_off_c, 0, 29, 64
1, 1846, Note_on_c, 0, 30, 64
1, 1846, Note_off_c, 0, 68, 64
1, 1846, Note_on_c, 0, 79, 14
1, 1847, Note_on_c, 0, 72, 16
1, 1847, Note_off_c, 0, 73, 64
1, 1847, Note_off_c, 0, 78, 64
1, 1848, Note_off_c, 0, 30, 64
1, 1848, Note_off_c, 0, 61, 64
1, 1848, Note_on_c, 0, 66, 19
1, 1848, Note_off_c, 0, 76, 64
1, 1848, Note_on_c, 0, 86, 12
1, 1848, Note_off_c, 0, 87, 64
1, 1848, Note_on_c, 0, 88, 13
1, 1848, Note_off_c, 0, 91, 64
1, 1849, Note_on_c, 0, 76, 17
1, 1849, Note_off_c, 0, 79, 64
1, 1849, Note_off_c, 0, 81, 64
1, 1851, Note_off_c, 0, 66, 64
1, 1851, Note_off_c, 0, 72, 64
1, 1851, Note_off_c, 0, 86, 64
1, 1852, Note_off_c, 0, 76, 64
1, 1852, Note_off_c, 0, 88, 64
1, 1852, Note_on_c, 0, 98, 9
1, 1854, Note_on_c, 0, 40, 69
1, 1855, Note_on_c, 0, 38, 72
1, 1855, Note_off_c, 0, 40, 64
1, 1855, Note_off_c, 0, 98, 64
1, 1856, Note_on_c, 0, 37, 76
1, 1856, Note_off_c, 0, 38, 64
1, 1856, Note_on_c, 0, 61, 14
1, 1857, Note_on_c, 0, 36, 78
1, 1857, Note_off_c, 0, 37, 64
1, 1858, Note_on_c, 0, 35, 79
1, 1858, Note_off_c, 0, 36, 64
1, 1859, Note_on_c, 0, 34, 81
1, 1859, Note_off_c, 0, 35, 64
1, 1860, Note_on_c, 0, 33, 83
1, 1860, Note_off_c, 0, 34, 64
1, 1860, Note_on_c, 0, 66, 16
1, 1861, Note_on_c, 0, 32, 85
1, 1861, Note_off_c, 0, 33, 64
1, 1861, Note_off_c, 0, 61, 64
1, 1861, Note_on_c, 0, 69, 18
1, 1862, Note_on_c, 0, 31, 85
1, 1862, Note_off_c, 0, 32, 64
1, 1863, Note_on_c, 0, 85, 21
1, 1865, Note_on_c, 0, 30, 73
1, 1865, Note_off_c, 0, 31, 64
1, 1865, Note_off_c, 0, 69, 64
1, 1866, Note_off_c, 0, 30, 64
1, 1866, Note_off_c, 0, 66, 64
1, 1867, Note_on_c, 0, 61, 19
1, 1867, Note_on_c, 0, 76, 26
1, 1869, Note_on_c, 0, 66, 36
1, 1869, Note_on_c, 0, 79, 11
1, 1869, Note_on_c, 0, 81, 33
1, 1870, Note_on_c, 0, 30, 66
1, 1871, Note_on_c, 0, 29, 73
1, 1871, Note_off_c, 0, 30, 64
1, 1871, Note_on_c, 0, 69, 22
1, 1871, Note_on_c, 0, 73, 36
1, 1872, Note_off_c, 0, 61, 64
1, 1872, Note_off_c, 0, 85, 64
1, 1873, Note_off_c, 0, 29, 64
1, 1873, Note_on_c, 0, 30, 67
1, 1873, Note_on_c, 0, 64, 27
1, 1873, Note_off_c, 0, 76, 64
1, 1873, Note_off_c, 0, 79, 64
1, 1874, Note_off_c, 0, 69, 64
1, 1874, Note_on_c, 0, 79, 30
1, 1875, Note_on_c, 0, 29, 66
1, 1875, Note_off_c, 0, 30, 64
1, 1875, Note_on_c, 0, 69, 41
1, 1876, Note_off_c, 0, 64, 64
1, 1876, Note_off_c, 0, 66, 64
1, 1877, Note_on_c, 0, 64, 37
1, 1877, Note_on_c, 0, 76, 45
1, 1878, Note_off_c, 0, 29, 64
1, 1879, Note_on_c, 0, 31, 65
1, 1879, Note_on_c, 0, 57, 19
1, 1879, Note_off_c, 0, 69, 64
1, 1879, Note_on_c, 0, 78, 20
1, 1880, Note_on_c, 0, 30, 70
1, 1880, Note_off_c, 0, 31, 64
1, 1880, Note_off_c, 0, 79, 64
1, 1880, Note_on_c, 0, 82, 15
1, 1881, Note_on_c, 0, 29, 72
1, 1881, Note_off_c, 0, 30, 64
1, 1881, Note_on_c, 0, 67, 27
1, 1882, Note_on_c, 0, 69, 28
1, 1883, Note_off_c, 0, 29, 64
1, 1883, Note_on_c, 0, 30, 67
1, 1883, Note_off_c, 0, 82, 64
1, 1884, Note_off_c, 0, 64, 64
1, 1884, Note_off_c, 0, 67, 64
1, 1885, Note_off_c, 0, 30, 64
1, 1885, Note_on_c, 0, 33, 59
1, 1885, Note_off_c, 0, 57, 64
1, 1887, Note_off_c, 0, 33, 64
1, 1887, Note_off_c, 0, 78, 64
1, 1887, Note_off_c, 0, 81, 64
1, 1888, Note_off_c, 0, 73, 64
1, 1888, Note_off_c, 0, 76, 64
1, 1890, Note_off_c, 0, 69, 64
1, 1891, Note_on_c, 0, 41, 69
1, 1892, Note_on_c, 0, 40, 71
1, 1892, Note_off_c, 0, 41, 64
1, 1892, Note_on_c, 0, 73, 17
1, 1893, Note_on_c, 0, 38, 77
1, 1893, Note_off_c, 0, 40, 64
1, 1894, Note_on_c, 0, 36, 79
1, 1894, Note_off_c, 0, 38, 64
1, 1895, Note_on_c, 0, 35, 81
1, 1895, Note_off_c, 0, 36, 64
1, 1895, Note_on_c, 0, 64, 36
1, 1895, Note_off_c, 0, 73, 64
1, 1896, Note_on_c, 0, 34, 82
1, 1896, Note_off_c, 0, 35, 64
1, 1896, Note_on_c, 0, 69, 35
1, 1897, Note_on_c, 0, 33, 84
1, 1897, Note_off_c, 0, 34, 64
1, 1898, Note_on_c, 0, 32, 87
1, 1898, Note_off_c, 0, 33, 64
1, 1899, Note_on_c, 0, 31, 87
1, 1899, Note_off_c, 0, 32, 64
1, 1902, Note_on_c, 0, 30, 78
1, 1902, Note_off_c, 0, 31, 64
1, 1902, Note_on_c, 0, 61, 21
1, 1903, Note_on_c, 0, 29, 68
1, 1903, Note_off_c, 0, 30, 64
1, 1904, Note_on_c, 0, 67, 18
1, 1904, Note_on_c, 0, 79, 29
1, 1905, Note_off_c, 0, 29, 64
1, 1907, Note_off_c, 0, 61, 64
1, 1907, Note_off_c, 0, 67, 64
1, 1907, Note_on_c, 0, 85, 12
1, 1908, Note_on_c, 0, 30, 72
1, 1908, Note_on_c, 0, 57, 17
1, 1908, Note_on_c, 0, 87, 21
1, 1909, Note_on_c, 0, 29, 74
1, 1909, Note_off_c, 0, 30, 64
1, 1909, Note_off_c, 0, 69, 64
1, 1910, Note_on_c, 0, 61, 28
1, 1910, Note_off_c, 0, 64, 64
1, 1910, Note_on_c, 0, 66, 30
1, 1910, Note_on_c, 0, 76, 41
1, 1911, Note_off_c, 0, 29, 64
1, 1911, Note_on_c, 0, 30, 68
1, 1911, Note_off_c, 0, 57, 64
1, 1911, Note_on_c, 0, 69, 32
1, 1912, Note_on_c, 0, 73, 29
1, 1912, Note_off_c, 0, 87, 64
1, 1913, Note_on_c, 0, 29, 67
1, 1913, Note_off_c, 0, 30, 64
1, 1913, Note_off_c, 0, 61, 64
1, 1913, Note_on_c, 0, 64, 37
1, 1913, Note_off_c, 0, 66, 64
1, 1913, Note_off_c, 0, 85, 64
1, 1915, Note_on_c, 0, 78, 19
1, 1915, Note_off_c, 0, 79, 64
1, 1916, Note_off_c, 0, 29, 64
1, 1917, Note_on_c, 0, 31, 69
1, 1918, Note_on_c, 0, 30, 73
1, 1918, Note_off_c, 0, 31, 64
1, 1918, Note_off_c, 0, 64, 64
1, 1918, Note_off_c, 0, 73, 64
1, 1918, Note_off_c, 0, 78, 64
1, 1918, Note_on_c, 0, 79, 27
1, 1919, Note_on_c, 0, 29, 73
1, 1919, Note_off_c, 0, 30, 64
1, 1920, Note_off_c, 0, 29, 64
1, 1920, Note_on_c, 0, 30, 69
1, 1921, Note_on_c, 0, 66, 35
1, 1921, Note_off_c, 0, 69, 64
1, 1921, Note_on_c, 0, 72, 14
1, 1922, Note_on_c, 0, 69, 34
1, 1922, Note_off_c, 0, 76, 64
1, 1923, Note_off_c, 0, 30, 64
1, 1923, Note_on_c, 0, 64, 16
1, 1923, Note_off_c, 0, 66, 64
1, 1923, Note_off_c, 0, 79, 64
1, 1924, Note_off_c, 0, 72, 64
1, 1925, Note_on_c, 0, 95, 12
1, 1928, Note_on_c, 0, 42, 66
1, 1929, Note_on_c, 0, 40, 73
1, 1929, Note_off_c, 0, 42, 64
1, 1930, Note_on_c, 0, 38, 77
1, 1930, Note_off_c, 0, 40, 64
1, 1930, Note_off_c, 0, 95, 64
1, 1931, Note_on_c, 0, 37, 80
1, 1931, Note_off_c, 0, 38, 64
1, 1931, Note_off_c, 0, 64, 64
1, 1932, Note_on_c, 0, 36, 82
1, 1932, Note_off_c, 0, 37, 64
1, 1933, Note_on_c, 0, 35, 83
1, 1933, Note_off_c, 0, 36, 64
1, 1934, Note_on_c, 0, 34, 84
1, 1934, Note_off_c, 0, 35, 64
1, 1935, Note_on_c, 0, 33, 86
1, 1935, Note_off_c, 0, 34, 64
1, 1936, Note_on_c, 0, 32, 89
1, 1936, Note_off_c, 0, 33, 64
1, 1936, Note_on_c, 0, 64, 30
1, 1937, Note_on_c, 0, 31, 88
1, 1937, Note_off_c, 0, 32, 64
1, 1939, Note_on_c, 0, 30, 82
1, 1939, Note_off_c, 0, 31, 64
1, 1941, Note_off_c, 0, 30, 64
1, 1941, Note_on_c, 0, 85, 26
1, 1944, Note_on_c, 0, 57, 17
1, 1945, Note_on_c, 0, 30, 71
1, 1945, Note_off_c, 0, 64, 64
1, 1945, Note_on_c, 0, 66, 25
1, 1945, Note_off_c, 0, 69, 64
1, 1945, Note_on_c, 0, 81, 25
1, 1945, Note_on_c, 0, 91, 14
1, 1946, Note_on_c, 0, 29, 76
1, 1946, Note_off_c, 0, 30, 64
1, 1946, Note_on_c, 0, 69, 35
1, 1946, Note_on_c, 0, 72, 28
1, 1946, Note_on_c, 0, 83, 16
1, 1948, Note_off_c, 0, 29, 64
1, 1948, Note_on_c, 0, 30, 71
1, 1948, Note_off_c, 0, 66, 64
1, 1948, Note_on_c, 0, 75, 22
1, 1948, Note_on_c, 0, 78, 21
1, 1949, Note_off_c, 0, 72, 64
1, 1949, Note_on_c, 0, 73, 22
1, 1950, Note_on_c, 0, 29, 69
1, 1950, Note_off_c, 0, 30, 64
1, 1950, Note_off_c, 0, 91, 64
1, 1951, Note_off_c, 0, 57, 64
1, 1951, Note_off_c, 0, 75, 64
1, 1951, Note_off_c, 0, 83, 64
1, 1952, Note_on_c, 0, 77, 20
1, 1952, Note_off_c, 0, 78, 64
1, 1952, Note_on_c, 0, 79, 25
1, 1952, Note_on_c, 0, 87, 17
1, 1953, Note_off_c, 0, 29, 64
1, 1953, Note_on_c, 0, 30, 65
1, 1954, Note_off_c, 0, 30, 64
1, 1954, Note_on_c, 0, 31, 68
1, 1954, Note_on_c, 0, 57, 18
1, 1954, Note_on_c, 0, 72, 17
1, 1955, Note_on_c, 0, 30, 73
1, 1955, Note_off_c, 0, 31, 64
1, 1955, Note_off_c, 0, 73, 64
1, 1955, Note_on_c, 0, 76, 29
1, 1956, Note_on_c, 0, 29, 75
1, 1956, Note_off_c, 0, 30, 64
1, 1956, Note_on_c, 0, 67, 33
1, 1956, Note_off_c, 0, 77, 64
1, 1956, Note_off_c, 0, 87, 64
1, 1957, Note_off_c, 0, 69, 64
1, 1957, Note_off_c, 0, 72, 64
1, 1957, Note_on_c, 0, 73, 16
1, 1957, Note_on_c, 0, 77, 18
1, 1957, Note_off_c, 0, 79, 64
1, 1958, Note_off_c, 0, 29, 64
1, 1958, Note_on_c, 0, 30, 69
1, 1958, Note_on_c, 0, 69, 38
1, 1959, Note_off_c, 0, 57, 64
1, 1959, Note_off_c, 0, 67, 64
1, 1960, Note_off_c, 0, 30, 64
1, 1960, Note_on_c, 0, 33, 62
1, 1960, Note_off_c, 0, 73, 64
1, 1960, Note_off_c, 0, 76, 64
1, 1961, Note_off_c, 0, 85, 64
1, 1962, Note_off_c, 0, 33, 64
1, 1962, Note_off_c, 0, 77, 64
1, 1963, Note_off_c, 0, 69, 64
1, 1964, Note_on_c, 0, 69, 21
1, 1965, Note_off_c, 0, 81, 64
1, 1966, Note_on_c, 0, 41, 74
1, 1967, Note_on_c, 0, 39, 76
1, 1967, Note_off_c, 0, 41, 64
1, 1968, Note_on_c, 0, 37, 81
1, 1968, Note_off_c, 0, 39, 64
1, 1969, Note_on_c, 0, 36, 83
1, 1969, Note_off_c, 0, 37, 64
1, 1970, Note_on_c, 0, 35, 84
1, 1970, Note_off_c, 0, 36, 64
1, 1971, Note_on_c, 0, 34, 85
1, 1971, Note_off_c, 0, 35, 64
1, 1972, Note_on_c, 0, 33, 87
1, 1972, Note_off_c, 0, 34, 64
1, 1972, Note_off_c, 0, 69, 64
1, 1973, Note_on_c, 0, 32, 90
1, 1973, Note_off_c, 0, 33, 64
1, 1974, Note_on_c, 0, 31, 90
1, 1974, Note_off_c, 0, 32, 64
1, 1976, Note_on_c, 0, 64, 17
1, 1976, Note_on_c, 0, 69, 24
1, 1976, Note_on_c, 0, 80, 16
1, 1977, Note_on_c, 0, 30, 80
1, 1977, Note_off_c, 0, 31, 64
1, 1978, Note_on_c, 0, 29, 69
1, 1978, Note_off_c, 0, 30, 64
1, 1980, Note_off_c, 0, 29, 64
1, 1980, Note_off_c, 0, 69, 64
1, 1981, Note_on_c, 0, 69, 27
1, 1981, Note_on_c, 0, 73, 28
1, 1982, Note_on_c, 0, 31, 67
1, 1982, Note_off_c, 0, 64, 64
1, 1982, Note_off_c, 0, 80, 64
1, 1983, Note_on_c, 0, 29, 77
1, 1983, Note_off_c, 0, 31, 64
1, 1983, Note_on_c, 0, 84, 18
1, 1984, Note_off_c, 0, 69, 64
1, 1984, Note_on_c, 0, 80, 30
1, 1985, Note_on_c, 0, 75, 31
1, 1985, Note_on_c, 0, 81, 16
1, 1986, Note_off_c, 0, 29, 64
1, 1986, Note_on_c, 0, 30, 71
1, 1986, Note_off_c, 0, 73, 64
1, 1986, Note_on_c, 0, 78, 16
1, 1986, Note_off_c, 0, 84, 64
1, 1988, Note_on_c, 0, 29, 70
1, 1988, Note_off_c, 0, 30, 64
1, 1988, Note_off_c, 0, 81, 64
1, 1989, Note_on_c, 0, 68, 29
1, 1989, Note_off_c, 0, 75, 64
1, 1989, Note_on_c, 0, 76, 27
1, 1989, Note_off_c, 0, 78, 64
1, 1990, Note_on_c, 0, 57, 21
1, 1991, Note_off_c, 0, 29, 64
1, 1991, Note_on_c, 0, 30, 68
1, 1991, Note_on_c, 0, 69, 28
1, 1991, Note_on_c, 0, 73, 20
1, 1991, Note_on_c, 0, 78, 26
1, 1992, Note_off_c, 0, 30, 64
1, 1992, Note_on_c, 0, 31, 73
1, 1992, Note_off_c, 0, 68, 64
1, 1992, Note_on_c, 0, 75, 28
1, 1992, Note_off_c, 0, 76, 64
1, 1993, Note_on_c, 0, 30, 76
1, 1993, Note_off_c, 0, 31, 64
1, 1993, Note_on_c, 0, 63, 36
1, 1993, Note_on_c, 0, 84, 20
1, 1994, Note_on_c, 0, 29, 75
1, 1994, Note_off_c, 0, 30, 64
1, 1994, Note_on_c, 0, 68, 38
1, 1994, Note_off_c, 0, 69, 64
1, 1995, Note_off_c, 0, 29, 64
1, 1995, Note_on_c, 0, 30, 72
1, 1995, Note_off_c, 0, 57, 64
1, 1995, Note_off_c, 0, 63, 64
1, 1995, Note_on_c, 0, 64, 31
1, 1995, Note_off_c, 0, 73, 64
1, 1995, Note_off_c, 0, 75, 64
1, 1995, Note_off_c, 0, 78, 64
1, 1996, Note_off_c, 0, 84, 64
1, 1996, Note_on_c, 0, 90, 26
1, 1996, Note_on_c, 0, 91, 17
1, 1997, Note_off_c, 0, 30, 64
1, 1997, Note_off_c, 0, 68, 64
1, 1997, Note_off_c, 0, 80, 64
1, 1997, Note_on_c, 0, 84, 25
1, 1999, Note_on_c, 0, 69, 23
1, 1999, Note_on_c, 0, 86, 19
1, 1999, Note_on_c, 0, 87, 24
1, 1999, Note_off_c, 0, 91, 64
1, 2000, Note_on_c, 0, 61, 25
1, 2000, Note_off_c, 0, 64, 64
1, 2000, Note_on_c, 0, 75, 17
1, 2000, Note_on_c, 0, 89, 32
1, 2001, Note_on_c, 0, 88, 30
1, 2002, Note_on_c, 0, 68, 28
1, 2002, Note_off_c, 0, 69, 64
1, 2002, Note_off_c, 0, 86, 64
1, 2002, Note_off_c, 0, 89, 64
1, 2003, Note_on_c, 0, 42, 73
1, 2003, Note_off_c, 0, 61, 64
1, 2003, Note_off_c, 0, 88, 64
1, 2003, Note_off_c, 0, 90, 64
1, 2004, Note_on_c, 0, 40, 78
1, 2004, Note_off_c, 0, 42, 64
1, 2004, Note_off_c, 0, 84, 64
1, 2005, Note_on_c, 0, 38, 82
1, 2005, Note_off_c, 0, 40, 64
1, 2005, Note_off_c, 0, 68, 64
1, 2005, Note_on_c, 0, 69, 19
1, 2005, Note_off_c, 0, 75, 64
1, 2005, Note_off_c, 0, 87, 64
1, 2006, Note_on_c, 0, 37, 84
1, 2006, Note_off_c, 0, 38, 64
1, 2007, Note_on_c, 0, 36, 86
1, 2007, Note_off_c, 0, 37, 64
1, 2008, Note_on_c, 0, 34, 88
1, 2008, Note_off_c, 0, 36, 64
1, 2008, Note_on_c, 0, 63, 11
1, 2008, Note_off_c, 0, 69, 64
1, 2010, Note_on_c, 0, 33, 90
1, 2010, Note_off_c, 0, 34, 64
1, 2011, Note_on_c, 0, 32, 91
1, 2011, Note_off_c, 0, 33, 64
1, 2011, Note_off_c, 0, 63, 64
1, 2012, Note_on_c, 0, 31, 91
1, 2012, Note_off_c, 0, 32, 64
1, 2012, Note_on_c, 0, 69, 19
1, 2014, Note_on_c, 0, 30, 84
1, 2014, Note_off_c, 0, 31, 64
1, 2015, Note_off_c, 0, 69, 64
1, 2016, Note_off_c, 0, 30, 64
1, 2017, Note_on_c, 0, 90, 26
1, 2017, Note_on_c, 0, 91, 31
1, 2017, Note_on_c, 0, 99, 17
1, 2017, Note_on_c, 0, 101, 13
1, 2018, Note_on_c, 0, 69, 36
1, 2018, Note_on_c, 0, 83, 18
1, 2018, Note_on_c, 0, 86, 27
1, 2018, Note_on_c, 0, 93, 17
1, 2018, Note_on_c, 0, 96, 17
1, 2019, Note_on_c, 0, 64, 36
1, 2019, Note_on_c, 0, 85, 12
1, 2019, Note_on_c, 0, 88, 14
1, 2019, Note_on_c, 0, 92, 15
1, 2020, Note_on_c, 0, 30, 75
1, 2020, Note_on_c, 0, 72, 26
1, 2020, Note_on_c, 0, 89, 15
1, 2020, Note_off_c, 0, 99, 64
1, 2020, Note_off_c, 0, 101, 64
1, 2021, Note_on_c, 0, 29, 78
1, 2021, Note_off_c, 0, 30, 64
1, 2021, Note_off_c, 0, 86, 64
1, 2021, Note_on_c, 0, 87, 20
1, 2021, Note_off_c, 0, 91, 64
1, 2022, Note_off_c, 0, 85, 64
1, 2022, Note_off_c, 0, 90, 64
1, 2022, Note_on_c, 0, 91, 11
1, 2022, Note_off_c, 0, 92, 64
1, 2023, Note_off_c, 0, 29, 64
1, 2023, Note_on_c, 0, 30, 72
1, 2023, Note_off_c, 0, 72, 64
1, 2023, Note_off_c, 0, 83, 64
1, 2023, Note_off_c, 0, 96, 64
1, 2024, Note_on_c, 0, 68, 34
1, 2024, Note_on_c, 0, 72, 30
1, 2024, Note_off_c, 0, 88, 64
1, 2024, Note_off_c, 0, 89, 64
1, 2024, Note_on_c, 0, 94, 22
1, 2025, Note_on_c, 0, 29, 71
1, 2025, Note_off_c, 0, 30, 64
1, 2025, Note_off_c, 0, 69, 64
1, 2025, Note_on_c, 0, 78, 16
1, 2026, Note_off_c, 0, 64, 64
1, 2027, Note_on_c, 0, 61, 17
1, 2027, Note_on_c, 0, 64, 28
1, 2027, Note_off_c, 0, 68, 64
1, 2027, Note_off_c, 0, 91, 64
1, 2027, Note_off_c, 0, 93, 64
1, 2028, Note_off_c, 0, 29, 64
1, 2028, Note_on_c, 0, 30, 68
1, 2028, Note_on_c, 0, 68, 40
1, 2028, Note_off_c, 0, 78, 64
1, 2028, Note_off_c, 0, 94, 64
1, 2029, Note_off_c, 0, 30, 64
1, 2029, Note_on_c, 0, 31, 71
1, 2029, Note_on_c, 0, 78, 22
1, 2030, Note_on_c, 0, 30, 76
1, 2030, Note_off_c, 0, 31, 64
1, 2030, Note_off_c, 0, 72, 64
1, 2030, Note_on_c, 0, 73, 20
1, 2031, Note_on_c, 0, 29, 78
1, 2031, Note_off_c, 0, 30, 64
1, 2031, Note_off_c, 0, 68, 64
1, 2032, Note_on_c, 0, 68, 43
1, 2032, Note_on_c, 0, 84, 24
1, 2032, Note_off_c, 0, 87, 64
1, 2032, Note_on_c, 0, 91, 23
1, 2033, Note_off_c, 0, 29, 64
1, 2033, Note_on_c, 0, 30, 73
1, 2034, Note_off_c, 0, 61, 64
1, 2034, Note_off_c, 0, 73, 64
1, 2035, Note_off_c, 0, 30, 64
1, 2035, Note_on_c, 0, 33, 64
1, 2035, Note_on_c, 0, 63, 32
1, 2035, Note_off_c, 0, 64, 64
1, 2035, Note_on_c, 0, 67, 39
1, 2035, Note_off_c, 0, 68, 64
1, 2035, Note_on_c, 0, 75, 42
1, 2036, Note_on_c, 0, 72, 26
1, 2036, Note_on_c, 0, 90, 26
1, 2037, Note_off_c, 0, 33, 64
1, 2037, Note_off_c, 0, 78, 64
1, 2037, Note_on_c, 0, 82, 30
1, 2037, Note_on_c, 0, 85, 26
1, 2037, Note_on_c, 0, 98, 19
1, 2038, Note_off_c, 0, 63, 64
1, 2038, Note_off_c, 0, 67, 64
1, 2038, Note_on_c, 0, 78, 25
1, 2038, Note_on_c, 0, 80, 29
1, 2038, Note_on_c, 0, 93, 20
1, 2038, Note_on_c, 0, 95, 9
1, 2039, Note_off_c, 0, 72, 64
1, 2039, Note_on_c, 0, 79, 31
1, 2039, Note_on_c, 0, 81, 27
1, 2039, Note_off_c, 0, 84, 64
1, 2039, Note_off_c, 0, 91, 64
1, 2040, Note_on_c, 0, 42, 68
1, 2040, Note_on_c, 0, 73, 26
1, 2040, Note_off_c, 0, 80, 64
1, 2040, Note_on_c, 0, 88, 16
1, 2041, Note_on_c, 0, 41, 78
1, 2041, Note_off_c, 0, 42, 64
1, 2041, Note_on_c, 0, 76, 28
1, 2041, Note_off_c, 0, 85, 64
1, 2041, Note_on_c, 0, 97, 21
1, 2042, Note_on_c, 0, 38, 81
1, 2042, Note_off_c, 0, 41, 64
1, 2042, Note_off_c, 0, 75, 64
1, 2042, Note_off_c, 0, 81, 64
1, 2042, Note_off_c, 0, 95, 64
1, 2042, Note_off_c, 0, 98, 64
1, 2043, Note_on_c, 0, 37, 85
1, 2043, Note_off_c, 0, 38, 64
1, 2043, Note_on_c, 0, 63, 41
1, 2043, Note_on_c, 0, 68, 12
1, 2043, Note_off_c, 0, 73, 64
1, 2043, Note_on_c, 0, 74, 29
1, 2043, Note_off_c, 0, 78, 64
1, 2043, Note_off_c, 0, 88, 64
1, 2043, Note_off_c, 0, 90, 64
1, 2044, Note_on_c, 0, 36, 87
1, 2044, Note_off_c, 0, 37, 64
1, 2044, Note_off_c, 0, 93, 64
1, 2045, Note_on_c, 0, 35, 88
1, 2045, Note_off_c, 0, 36, 64
1, 2045, Note_on_c, 0, 77, 21
1, 2046, Note_on_c, 0, 34, 89
1, 2046, Note_off_c, 0, 35, 64
1, 2046, Note_off_c, 0, 68, 64
1, 2046, Note_off_c, 0, 82, 64
1, 2047, Note_on_c, 0, 33, 90
1, 2047, Note_off_c, 0, 34, 64
1, 2047, Note_off_c, 0, 76, 64
1, 2047, Note_on_c, 0, 83, 10
1, 2048, Note_on_c, 0, 32, 92
1, 2048, Note_off_c, 0, 33, 64
1, 2048, Note_off_c, 0, 74, 64
1, 2048, Note_off_c, 0, 77, 64
1, 2048, Note_on_c, 0, 80, 26
1, 2048, Note_on_c, 0, 90, 27
1, 2049, Note_on_c, 0, 31, 92
1, 2049, Note_off_c, 0, 32, 64
1, 2049, Note_on_c, 0, 78, 29
1, 2049, Note_off_c, 0, 79, 64
1, 2049, Note_on_c, 0, 84, 34
1, 2050, Note_on_c, 0, 66, 16
1, 2050, Note_on_c, 0, 74, 26
1, 2050, Note_on_c, 0, 77, 23
1, 2051, Note_off_c, 0, 83, 64
1, 2051, Note_on_c, 0, 87, 23
1, 2051, Note_off_c, 0, 97, 64
1, 2051, Note_on_c, 0, 98, 9
1, 2052, Note_on_c, 0, 30, 81
1, 2052, Note_off_c, 0, 31, 64
1, 2054, Note_off_c, 0, 30, 64
1, 2054, Note_off_c, 0, 66, 64
1, 2054, Note_off_c, 0, 74, 64
1, 2054, Note_off_c, 0, 77, 64
1, 2054, Note_off_c, 0, 78, 64
1, 2054, Note_on_c, 0, 79, 22
1, 2054, Note_off_c, 0, 98, 64
1, 2055, Note_off_c, 0, 80, 64
1, 2055, Note_on_c, 0, 85, 23
1, 2056, Note_on_c, 0, 74, 18
1, 2057, Note_on_c, 0, 31, 70
1, 2057, Note_on_c, 0, 69, 31
1, 2058, Note_on_c, 0, 29, 78
1, 2058, Note_off_c, 0, 31, 64
1, 2058, Note_on_c, 0, 78, 18
1, 2059, Note_on_c, 0, 67, 33
1, 2059, Note_off_c, 0, 69, 64
1, 2059, Note_off_c, 0, 74, 64
1, 2059, Note_off_c, 0, 79, 64
1, 2060, Note_off_c, 0, 29, 64
1, 2060, Note_on_c, 0, 30, 75
1, 2060, Note_off_c, 0, 63, 64
1, 2060, Note_on_c, 0, 82, 18
1, 2060, Note_off_c, 0, 84, 64
1, 2060, Note_off_c, 0, 90, 64
1, 2061, Note_on_c, 0, 63, 48
1, 2061, Note_off_c, 0, 67, 64
1, 2061, Note_off_c, 0, 78, 64
1, 2061, Note_on_c, 0, 80, 22
1, 2062, Note_on_c, 0, 29, 73
1, 2062, Note_off_c, 0, 30, 64
1, 2062, Note_on_c, 0, 57, 21
1, 2062, Note_on_c, 0, 69, 27
1, 2062, Note_on_c, 0, 72, 16
1, 2062, Note_on_c, 0, 78, 22
1, 2062, Note_off_c, 0, 87, 64
1, 2063, Note_off_c, 0, 85, 64
1, 2064, Note_on_c, 0, 77, 26
1, 2064, Note_off_c, 0, 82, 64
1, 2065, Note_off_c, 0, 57, 64
1, 2065, Note_off_c, 0, 69, 64
1, 2065, Note_off_c, 0, 72, 64
1, 2065, Note_off_c, 0, 78, 64
1, 2065, Note_on_c, 0, 79, 21
1, 2066, Note_off_c, 0, 29, 64
1, 2066, Note_on_c, 0, 30, 71
1, 2066, Note_on_c, 0, 69, 29
1, 2067, Note_off_c, 0, 30, 64
1, 2067, Note_on_c, 0, 31, 75
1, 2067, Note_on_c, 0, 72, 25
1, 2068, Note_on_c, 0, 29, 78
1, 2068, Note_off_c, 0, 31, 64
1, 2068, Note_on_c, 0, 68, 34
1, 2068, Note_off_c, 0, 69, 64
1, 2068, Note_off_c, 0, 80, 64
1, 2068, Note_on_c, 0, 88, 13
1, 2069, Note_off_c, 0, 77, 64
1, 2069, Note_on_c, 0, 84, 39
1, 2069, Note_on_c, 0, 85, 12
1, 2070, Note_off_c, 0, 29, 64
1, 2070, Note_on_c, 0, 30, 74
1, 2070, Note_off_c, 0, 68, 64
1, 2070, Note_on_c, 0, 69, 28
1, 2070, Note_on_c, 0, 77, 21
1, 2070, Note_on_c, 0, 86, 27
1, 2071, Note_off_c, 0, 79, 64
1, 2071, Note_off_c, 0, 88, 64
1, 2072, Note_off_c, 0, 30, 64
1, 2072, Note_on_c, 0, 32, 66
1, 2072, Note_on_c, 0, 90, 34
1, 2073, Note_off_c, 0, 32, 64
1, 2073, Note_off_c, 0, 69, 64
1, 2073, Note_on_c, 0, 82, 50
1, 2073, Note_on_c, 0, 83, 59
1, 2073, Note_off_c, 0, 85, 64
1, 2073, Note_on_c, 0, 87, 36
1, 2073, Note_on_c, 0, 88, 39
1, 2073, Note_on_c, 0, 91, 39
1, 2073, Note_on_c, 0, 93, 24
1, 2074, Note_on_c, 0, 58, 22
1, 2074, Note_off_c, 0, 63, 64
1, 2074, Note_on_c, 0, 76, 44
1, 2074, Note_off_c, 0, 77, 64
1, 2074, Note_on_c, 0, 80, 46
1, 2074, Note_on_c, 0, 85, 54
1, 2074, Note_off_c, 0, 86, 64
1, 2075, Note_off_c, 0, 72, 64
1, 2075, Note_on_c, 0, 74, 41
1, 2075, Note_on_c, 0, 81, 30
1, 2075, Note_on_c, 0, 89, 36
1, 2076, Note_on_c, 0, 79, 59
1, 2076, Note_off_c, 0, 80, 64
1, 2076, Note_off_c, 0, 84, 64
1, 2076, Note_on_c, 0, 86, 42
1, 2076, Note_off_c, 0, 90, 64
1, 2076, Note_off_c, 0, 93, 64
1, 2077, Note_off_c, 0, 58, 64
1, 2077, Note_on_c, 0, 72, 38
1, 2077, Note_on_c, 0, 73, 38
1, 2077, Note_off_c, 0, 74, 64
1, 2077, Note_on_c, 0, 75, 38
1, 2077, Note_off_c, 0, 76, 64
1, 2077, Note_on_c, 0, 77, 39
1, 2077, Note_on_c, 0, 80, 49
1, 2077, Note_off_c, 0, 81, 64
1, 2077, Note_off_c, 0, 85, 64
1, 2077, Note_on_c, 0, 90, 29
1, 2078, Note_on_c, 0, 42, 77
1, 2078, Note_off_c, 0, 79, 64
1, 2078, Note_on_c, 0, 81, 37
1, 2078, Note_off_c, 0, 82, 64
1, 2079, Note_on_c, 0, 40, 81
1, 2079, Note_off_c, 0, 42, 64
1, 2079, Note_on_c, 0, 76, 45
1, 2079, Note_off_c, 0, 77, 64
1, 2079, Note_on_c, 0, 79, 44
1, 2079, Note_off_c, 0, 86, 64
1, 2080, Note_on_c, 0, 38, 85
1, 2080, Note_off_c, 0, 40, 64
1, 2080, Note_off_c, 0, 73, 64
1, 2080, Note_off_c, 0, 81, 64
1, 2080, Note_on_c, 0, 82, 28
1, 2080, Note_off_c, 0, 89, 64
1, 2080, Note_off_c, 0, 91, 64
1, 2081, Note_on_c, 0, 37, 87
1, 2081, Note_off_c, 0, 38, 64
1, 2081, Note_on_c, 0, 59, 11
1, 2081, Note_on_c, 0, 67, 20
1, 2081, Note_on_c, 0, 73, 38
1, 2081, Note_off_c, 0, 75, 64
1, 2081, Note_off_c, 0, 76, 64
1, 2081, Note_on_c, 0, 77, 46
1, 2081, Note_off_c, 0, 80, 64
1, 2082, Note_on_c, 0, 36, 88
1, 2082, Note_off_c, 0, 37, 64
1, 2082, Note_off_c, 0, 72, 64
1, 2082, Note_on_c, 0, 75, 31
1, 2082, Note_off_c, 0, 83, 64
1, 2082, Note_on_c, 0, 84, 27
1, 2083, Note_on_c, 0, 34, 89
1, 2083, Note_off_c, 0, 36, 64
1, 2083, Note_off_c, 0, 82, 64
1, 2083, Note_off_c, 0, 88, 64
1, 2083, Note_off_c, 0, 90, 64
1, 2084, Note_on_c, 0, 33, 92
1, 2084, Note_off_c, 0, 34, 64
1, 2084, Note_off_c, 0, 59, 64
1, 2084, Note_on_c, 0, 66, 12
1, 2084, Note_off_c, 0, 67, 64
1, 2084, Note_off_c, 0, 73, 64
1, 2084, Note_on_c, 0, 82, 13
1, 2086, Note_on_c, 0, 32, 93
1, 2086, Note_off_c, 0, 33, 64
1, 2087, Note_on_c, 0, 31, 92
1, 2087, Note_off_c, 0, 32, 64
1, 2087, Note_off_c, 0, 66, 64
1, 2088, Note_on_c, 0, 66, 15
1, 2088, Note_on_c, 0, 73, 11
1, 2088, Note_off_c, 0, 77, 64
1, 2088, Note_off_c, 0, 79, 64
1, 2088, Note_off_c, 0, 82, 64
1, 2089, Note_on_c, 0, 30, 85
1, 2089, Note_off_c, 0, 31, 64
1, 2089, Note_off_c, 0, 75, 64
1, 2089, Note_off_c, 0, 87, 64
1, 2090, Note_on_c, 0, 75, 46
1, 2090, Note_off_c, 0, 84, 64
1, 2091, Note_off_c, 0, 30, 64
1, 2092, Note_on_c, 0, 63, 38
1, 2092, Note_off_c, 0, 66, 64
1, 2092, Note_on_c, 0, 71, 29
1, 2092, Note_on_c, 0, 78, 38
1, 2092, Note_on_c, 0, 81, 51
1, 2092, Note_on_c, 0, 84, 50
1, 2092, Note_on_c, 0, 89, 37
1, 2092, Note_on_c, 0, 94, 36
1, 2093, Note_off_c, 0, 73, 64
1, 2093, Note_on_c, 0, 92, 34
1, 2093, Note_on_c, 0, 98, 24
1, 2094, Note_on_c, 0, 31, 65
1, 2094, Note_on_c, 0, 68, 42
1, 2094, Note_on_c, 0, 70, 30
1, 2094, Note_off_c, 0, 71, 64
1, 2094, Note_on_c, 0, 82, 47
1, 2094, Note_on_c, 0, 85, 55
1, 2094, Note_on_c, 0, 91, 35
1, 2094, Note_on_c, 0, 100, 9
1, 2095, Note_on_c, 0, 30, 76
1, 2095, Note_off_c, 0, 31, 64
1, 2095, Note_on_c, 0, 73, 47
1, 2095, Note_on_c, 0, 95, 29
1, 2096, Note_on_c, 0, 29, 79
1, 2096, Note_off_c, 0, 30, 64
1, 2096, Note_off_c, 0, 70, 64
1, 2096, Note_on_c, 0, 76, 46
1, 2096, Note_on_c, 0, 77, 41
1, 2096, Note_off_c, 0, 78, 64
1, 2096, Note_on_c, 0, 79, 48
1, 2097, Note_off_c, 0, 75, 64
1, 2097, Note_off_c, 0, 100, 64
1, 2098, Note_off_c, 0, 29, 64
1, 2098, Note_on_c, 0, 30, 74
1, 2098, Note_off_c, 0, 63, 64
1, 2098, Note_off_c, 0, 68, 64
1, 2098, Note_off_c, 0, 77, 64
1, 2098, Note_on_c, 0, 78, 54
1, 2098, Note_off_c, 0, 79, 64
1, 2098, Note_off_c, 0, 82, 64
1, 2098, Note_on_c, 0, 83, 42
1, 2099, Note_on_c, 0, 63, 38
1, 2099, Note_off_c, 0, 94, 64
1, 2099, Note_off_c, 0, 98, 64
1, 2100, Note_on_c, 0, 29, 72
1, 2100, Note_off_c, 0, 30, 64
1, 2100, Note_on_c, 0, 70, 34
1, 2100, Note_on_c, 0, 75, 44
1, 2100, Note_on_c, 0, 94, 22
1, 2100, Note_off_c, 0, 95, 64
1, 2101, Note_off_c, 0, 73, 64
1, 2101, Note_off_c, 0, 76, 64
1, 2101, Note_on_c, 0, 80, 32
1, 2102, Note_on_c, 0, 73, 36
1, 2102, Note_off_c, 0, 85, 64
1, 2103, Note_off_c, 0, 29, 64
1, 2103, Note_on_c, 0, 30, 70
1, 2103, Note_off_c, 0, 63, 64
1, 2103, Note_off_c, 0, 78, 64
1, 2103, Note_on_c, 0, 79, 41
1, 2103, Note_off_c, 0, 81, 64
1, 2103, Note_off_c, 0, 83, 64
1, 2103, Note_on_c, 0, 85, 36
1, 2104, Note_off_c, 0, 30, 64
1, 2104, Note_on_c, 0, 31, 74
1, 2104, Note_on_c, 0, 63, 37
1, 2104, Note_on_c, 0, 68, 46
1, 2104, Note_off_c, 0, 70, 64
1, 2104, Note_on_c, 0, 77, 38
1, 2104, Note_off_c, 0, 80, 64
1, 2104, Note_on_c, 0, 83, 40
1, 2104, Note_off_c, 0, 84, 64
1, 2105, Note_on_c, 0, 30, 77
1, 2105, Note_off_c, 0, 31, 64
1, 2105, Note_off_c, 0, 73, 64
1, 2105, Note_off_c, 0, 91, 64
1, 2105, Note_off_c, 0, 94, 64
1, 2106, Note_on_c, 0, 29, 78
1, 2106, Note_off_c, 0, 30, 64
1, 2106, Note_on_c, 0, 78, 35
1, 2106, Note_on_c, 0, 93, 10
1, 2106, Note_on_c, 0, 96, 10
1, 2107, Note_off_c, 0, 29, 64
1, 2107, Note_on_c, 0, 30, 76
1, 2107, Note_off_c, 0, 79, 64
1, 2107, Note_on_c, 0, 81, 40
1, 2107, Note_on_c, 0, 84, 20
1, 2107, Note_on_c, 0, 94, 14
1, 2108, Note_off_c, 0, 68, 64
1, 2108, Note_off_c, 0, 77, 64
1, 2108, Note_off_c, 0, 85, 64
1, 2108, Note_on_c, 0, 91, 16
1, 2109, Note_on_c, 0, 72, 12
1, 2109, Note_on_c, 0, 77, 28
1, 2109, Note_off_c, 0, 78, 64
1, 2109, Note_on_c, 0, 79, 30
1, 2109, Note_on_c, 0, 85, 20
1, 2109, Note_off_c, 0, 93, 64
1, 2110, Note_off_c, 0, 30, 64
1, 2110, Note_on_c, 0, 33, 65
1, 2110, Note_off_c, 0, 84, 64
1, 2110, Note_on_c, 0, 86, 20
1, 2110, Note_off_c, 0, 94, 64
1, 2110, Note_off_c, 0, 96, 64
1, 2111, Note_off_c, 0, 63, 64
1, 2111, Note_on_c, 0, 71, 13
1, 2111, Note_off_c, 0, 75, 64
1, 2111, Note_off_c, 0, 83, 64
1, 2111, Note_on_c, 0, 84, 34
1, 2111, Note_off_c, 0, 92, 64
1, 2112, Note_off_c, 0, 33, 64
1, 2112, Note_off_c, 0, 72, 64
1, 2112, Note_on_c, 0, 73, 14
1, 2112, Note_off_c, 0, 77, 64
1, 2112, Note_on_c, 0, 78, 21
1, 2113, Note_on_c, 0, 83, 16
1, 2114, Note_off_c, 0, 71, 64
1, 2114, Note_off_c, 0, 85, 64
1, 2114, Note_on_c, 0, 88, 9
1, 2114, Note_off_c, 0, 89, 64
1, 2114, Note_off_c, 0, 91, 64
1, 2115, Note_on_c, 0, 42, 74
1, 2115, Note_on_c, 0, 68, 23
1, 2115, Note_off_c, 0, 73, 64
1, 2115, Note_off_c, 0, 78, 64
1, 2116, Note_on_c, 0, 41, 83
1, 2116, Note_off_c, 0, 42, 64
1, 2116, Note_on_c, 0, 78, 20
1, 2116, Note_off_c, 0, 79, 64
1, 2116, Note_off_c, 0, 81, 64
1, 2116, Note_off_c, 0, 83, 64
1, 2117, Note_on_c, 0, 38, 85
1, 2117, Note_off_c, 0, 41, 64
1, 2117, Note_off_c, 0, 84, 64
1, 2117, Note_off_c, 0, 86, 64
1, 2117, Note_off_c, 0, 88, 64
1, 2118, Note_on_c, 0, 37, 89
1, 2118, Note_off_c, 0, 38, 64
1, 2119, Note_on_c, 0, 36, 90
1, 2119, Note_off_c, 0, 37, 64
1, 2120, Note_on_c, 0, 35, 90
1, 2120, Note_off_c, 0, 36, 64
1, 2120, Note_on_c, 0, 77, 22
1, 2120, Note_off_c, 0, 78, 64
1, 2121, Note_on_c, 0, 34, 91
1, 2121, Note_off_c, 0, 35, 64
1, 2121, Note_off_c, 0, 68, 64
1, 2121, Note_on_c, 0, 71, 13
1, 2121, Note_on_c, 0, 84, 32
1, 2121, Note_on_c, 0, 90, 21
1, 2122, Note_on_c, 0, 33, 92
1, 2122, Note_off_c, 0, 34, 64
1, 2122, Note_on_c, 0, 85, 35
1, 2122, Note_on_c, 0, 87, 13
1, 2123, Note_on_c, 0, 32, 94
1, 2123, Note_off_c, 0, 33, 64
1, 2123, Note_on_c, 0, 74, 21
1, 2123, Note_off_c, 0, 77, 64
1, 2123, Note_on_c, 0, 91, 14
1, 2124, Note_on_c, 0, 31, 93
1, 2124, Note_off_c, 0, 32, 64
1, 2124, Note_on_c, 0, 78, 30
1, 2124, Note_off_c, 0, 84, 64
1, 2125, Note_on_c, 0, 68, 22
1, 2125, Note_off_c, 0, 71, 64
1, 2125, Note_on_c, 0, 83, 17
1, 2125, Note_off_c, 0, 87, 64
1, 2126, Note_off_c, 0, 74, 64
1, 2126, Note_on_c, 0, 88, 25
1, 2126, Note_off_c, 0, 91, 64
1, 2127, Note_on_c, 0, 30, 82
1, 2127, Note_off_c, 0, 31, 64
1, 2127, Note_on_c, 0, 63, 20
1, 2127, Note_on_c, 0, 74, 17
1, 2127, Note_off_c, 0, 90, 64
1, 2129, Note_off_c, 0, 30, 64
1, 2129, Note_off_c, 0, 78, 64
1, 2129, Note_on_c, 0, 79, 32
1, 2129, Note_off_c, 0, 83, 64
1, 2129, Note_on_c, 0, 92, 20
1, 2130, Note_on_c, 0, 36, 60
1, 2130, Note_off_c, 0, 74, 64
1, 2130, Note_on_c, 0, 75, 28
1, 2130, Note_on_c, 0, 77, 24
1, 2130, Note_on_c, 0, 80, 31
1, 2130, Note_on_c, 0, 82, 34
1, 2130, Note_on_c, 0, 83, 40
1, 2130, Note_on_c, 0, 93, 12
1, 2130, Note_on_c, 0, 96, 13
1, 2131, Note_on_c, 0, 73, 21
1, 2131, Note_on_c, 0, 90, 16
1, 2132, Note_on_c, 0, 31, 73
1, 2132, Note_off_c, 0, 36, 64
1, 2132, Note_on_c, 0, 70, 17
1, 2132, Note_off_c, 0, 79, 64
1, 2132, Note_off_c, 0, 85, 64
1, 2132, Note_on_c, 0, 86, 31
1, 2133, Note_on_c, 0, 29, 80
1, 2133, Note_off_c, 0, 31, 64
1, 2133, Note_on_c, 0, 62, 29
1, 2133, Note_off_c, 0, 63, 64
1, 2133, Note_off_c, 0, 77, 64
1, 2133, Note_on_c, 0, 79, 33
1, 2133, Note_off_c, 0, 80, 64
1, 2133, Note_off_c, 0, 92, 64
1, 2133, Note_off_c, 0, 96, 64
1, 2134, Note_off_c, 0, 68, 64
1, 2134, Note_on_c, 0, 78, 28
1, 2134, Note_off_c, 0, 82, 64
1, 2135, Note_off_c, 0, 29, 64
1, 2135, Note_on_c, 0, 30, 76
1, 2135, Note_off_c, 0, 62, 64
1, 2135, Note_off_c, 0, 93, 64
1, 2136, Note_on_c, 0, 72, 27
1, 2136, Note_off_c, 0, 73, 64
1, 2136, Note_off_c, 0, 90, 64
1, 2137, Note_on_c, 0, 29, 74
1, 2137, Note_off_c, 0, 30, 64
1, 2137, Note_on_c, 0, 56, 11
1, 2137, Note_off_c, 0, 70, 64
1, 2137, Note_on_c, 0, 74, 22
1, 2137, Note_off_c, 0, 75, 64
1, 2137, Note_on_c, 0, 77, 19
1, 2137, Note_off_c, 0, 78, 64
1, 2137, Note_off_c, 0, 83, 64
1, 2137, Note_off_c, 0, 86, 64
1, 2138, Note_on_c, 0, 64, 22
1, 2138, Note_on_c, 0, 80, 37
1, 2138, Note_on_c, 0, 83, 27
1, 2139, Note_off_c, 0, 72, 64
1, 2139, Note_off_c, 0, 79, 64
1, 2139, Note_on_c, 0, 84, 25
1, 2140, Note_off_c, 0, 29, 64
1, 2140, Note_on_c, 0, 30, 77
1, 2140, Note_off_c, 0, 56, 64
1, 2140, Note_on_c, 0, 68, 41
1, 2140, Note_off_c, 0, 74, 64
1, 2140, Note_on_c, 0, 76, 30
1, 2140, Note_on_c, 0, 78, 25
1, 2140, Note_off_c, 0, 88, 64
1, 2141, Note_on_c, 0, 73, 28
1, 2141, Note_off_c, 0, 77, 64
1, 2142, Note_off_c, 0, 64, 64
1, 2143, Note_on_c, 0, 29, 79
1, 2143, Note_off_c, 0, 30, 64
1, 2143, Note_on_c, 0, 64, 28
1, 2144, Note_on_c, 0, 56, 20
1, 2144, Note_on_c, 0, 72, 27
1, 2144, Note_off_c, 0, 73, 64
1, 2144, Note_off_c, 0, 83, 64
1, 2144, Note_on_c, 0, 85, 37
1, 2145, Note_off_c, 0, 29, 64
1, 2145, Note_on_c, 0, 30, 75
1, 2145, Note_off_c, 0, 76, 64
1, 2145, Note_on_c, 0, 82, 28
1, 2146, Note_on_c, 0, 63, 29
1, 2146, Note_off_c, 0, 64, 64
1, 2147, Note_off_c, 0, 30, 64
1, 2147, Note_on_c, 0, 32, 69
1, 2147, Note_off_c, 0, 56, 64
1, 2147, Note_off_c, 0, 68, 64
1, 2147, Note_off_c, 0, 84, 64
1, 2148, Note_off_c, 0, 32, 64
1, 2148, Note_off_c, 0, 72, 64
1, 2148, Note_on_c, 0, 90, 31
1, 2149, Note_on_c, 0, 83, 15
1, 2149, Note_on_c, 0, 87, 22
1, 2149, Note_on_c, 0, 91, 25
1, 2149, Note_on_c, 0, 96, 14
1, 2150, Note_off_c, 0, 63, 64
1, 2150, Note_on_c, 0, 75, 30
1, 2150, Note_on_c, 0, 93, 12
1, 2151, Note_on_c, 0, 79, 30
1, 2152, Note_on_c, 0, 44, 69
1, 2152, Note_off_c, 0, 78, 64
1, 2152, Note_off_c, 0, 90, 64
1, 2152, Note_off_c, 0, 96, 64
1, 2153, Note_on_c, 0, 41, 82
1, 2153, Note_off_c, 0, 44, 64
1, 2153, Note_on_c, 0, 78, 33
1, 2153, Note_off_c, 0, 79, 64
1, 2153, Note_off_c, 0, 80, 64
1, 2153, Note_off_c, 0, 83, 64
1, 2154, Note_on_c, 0, 40, 85
1, 2154, Note_off_c, 0, 41, 64
1, 2154, Note_on_c, 0, 86, 11
1, 2154, Note_off_c, 0, 87, 64
1, 2154, Note_off_c, 0, 91, 64
1, 2154, Note_off_c, 0, 93, 64
1, 2155, Note_on_c, 0, 38, 89
1, 2155, Note_off_c, 0, 40, 64
1, 2155, Note_on_c, 0, 74, 25
1, 2155, Note_off_c, 0, 75, 64
1, 2155, Note_on_c, 0, 76, 23
1, 2155, Note_on_c, 0, 79, 17
1, 2156, Note_on_c, 0, 37, 91
1, 2156, Note_off_c, 0, 38, 64
1, 2156, Note_on_c, 0, 66, 16
1, 2156, Note_off_c, 0, 82, 64
1, 2157, Note_on_c, 0, 35, 92
1, 2157, Note_off_c, 0, 37, 64
1, 2157, Note_on_c, 0, 77, 29
1, 2157, Note_off_c, 0, 78, 64
1, 2157, Note_on_c, 0, 81, 20
1, 2157, Note_on_c, 0, 83, 33
1, 2157, Note_off_c, 0, 86, 64
1, 2158, Note_on_c, 0, 34, 92
1, 2158, Note_off_c, 0, 35, 64
1, 2158, Note_off_c, 0, 76, 64
1, 2158, Note_on_c, 0, 78, 26
1, 2158, Note_off_c, 0, 79, 64
1, 2159, Note_on_c, 0, 33, 92
1, 2159, Note_off_c, 0, 34, 64
1, 2160, Note_on_c, 0, 32, 95
1, 2160, Note_off_c, 0, 33, 64
1, 2160, Note_off_c, 0, 66, 64
1, 2160, Note_off_c, 0, 74, 64
1, 2160, Note_on_c, 0, 76, 18
1, 2160, Note_off_c, 0, 77, 64
1, 2161, Note_on_c, 0, 68, 14
1, 2161, Note_off_c, 0, 81, 64
1, 2161, Note_on_c, 0, 84, 18
1, 2161, Note_off_c, 0, 85, 64
1, 2162, Note_on_c, 0, 31, 93
1, 2162, Note_off_c, 0, 32, 64
1, 2162, Note_off_c, 0, 78, 64
1, 2162, Note_on_c, 0, 79, 25
1, 2162, Note_on_c, 0, 80, 23
1, 2162, Note_on_c, 0, 89, 17
1, 2163, Note_on_c, 0, 74, 20
1, 2163, Note_off_c, 0, 76, 64
1, 2164, Note_on_c, 0, 30, 86
1, 2164, Note_off_c, 0, 31, 64
1, 2164, Note_on_c, 0, 63, 28
1, 2164, Note_on_c, 0, 66, 28
1, 2164, Note_off_c, 0, 68, 64
1, 2164, Note_off_c, 0, 83, 64
1, 2165, Note_on_c, 0, 82, 24
1, 2165, Note_off_c, 0, 84, 64
1, 2166, Note_off_c, 0, 30, 64
1, 2166, Note_off_c, 0, 74, 64
1, 2166, Note_off_c, 0, 89, 64
1, 2168, Note_on_c, 0, 77, 20
1, 2168, Note_off_c, 0, 82, 64
1, 2168, Note_on_c, 0, 85, 23
1, 2169, Note_on_c, 0, 31, 69
1, 2169, Note_off_c, 0, 63, 64
1, 2169, Note_on_c, 0, 82, 28
1, 2170, Note_on_c, 0, 30, 79
1, 2170, Note_off_c, 0, 31, 64
1, 2170, Note_off_c, 0, 66, 64
1, 2171, Note_on_c, 0, 29, 80
1, 2171, Note_off_c, 0, 30, 64
1, 2171, Note_on_c, 0, 66, 39
1, 2171, Note_on_c, 0, 69, 24
1, 2171, Note_on_c, 0, 72, 18
1, 2171, Note_off_c, 0, 79, 64
1, 2171, Note_on_c, 0, 88, 23
1, 2172, Note_off_c, 0, 77, 64
1, 2173, Note_off_c, 0, 29, 64
1, 2173, Note_on_c, 0, 30, 76
1, 2173, Note_off_c, 0, 80, 64
1, 2174, Note_on_c, 0, 63, 36
1, 2174, Note_off_c, 0, 66, 64
1, 2174, Note_off_c, 0, 72, 64
1, 2175, Note_on_c, 0, 29, 74
1, 2175, Note_off_c, 0, 30, 64
1, 2175, Note_on_c, 0, 56, 12
1, 2175, Note_on_c, 0, 65, 23
1, 2175, Note_off_c, 0, 69, 64
1, 2175, Note_off_c, 0, 82, 64
1, 2175, Note_off_c, 0, 88, 64
1, 2176, Note_on_c, 0, 68, 38
1, 2177, Note_on_c, 0, 81, 26
1, 2178, Note_off_c, 0, 29, 64
1, 2178, Note_on_c, 0, 30, 72
1, 2178, Note_off_c, 0, 56, 64
1, 2178, Note_off_c, 0, 65, 64
1, 2178, Note_on_c, 0, 76, 23
1, 2178, Note_on_c, 0, 82, 27
1, 2179, Note_off_c, 0, 30, 64
1, 2179, Note_on_c, 0, 31, 76
1, 2179, Note_on_c, 0, 66, 27
1, 2179, Note_on_c, 0, 77, 16
1, 2180, Note_on_c, 0, 30, 80
1, 2180, Note_off_c, 0, 31, 64
1, 2180, Note_on_c, 0, 54, 22
1, 2180, Note_on_c, 0, 73, 24
1, 2180, Note_off_c, 0, 81, 64
1, 2181, Note_on_c, 0, 29, 79
1, 2181, Note_off_c, 0, 30, 64
1, 2181, Note_off_c, 0, 76, 64
1, 2181, Note_on_c, 0, 78, 29
1, 2181, Note_on_c, 0, 84, 22
1, 2182, Note_off_c, 0, 29, 64
1, 2182, Note_on_c, 0, 30, 77
1, 2182, Note_off_c, 0, 66, 64
1, 2182, Note_off_c, 0, 77, 64
1, 2182, Note_on_c, 0, 89, 16
1, 2183, Note_on_c, 0, 77, 13
1, 2184, Note_off_c, 0, 54, 64
1, 2184, Note_on_c, 0, 67, 32
1, 2184, Note_off_c, 0, 68, 64
1, 2184, Note_off_c, 0, 73, 64
1, 2184, Note_on_c, 0, 74, 16
1, 2184, Note_off_c, 0, 84, 64
1, 2184, Note_on_c, 0, 88, 10
1, 2185, Note_off_c, 0, 30, 64
1, 2185, Note_on_c, 0, 34, 67
1, 2185, Note_off_c, 0, 89, 64
1, 2185, Note_on_c, 0, 91, 19
1, 2186, Note_off_c, 0, 34, 64
1, 2186, Note_off_c, 0, 63, 64
1, 2186, Note_on_c, 0, 66, 26
1, 2186, Note_off_c, 0, 67, 64
1, 2186, Note_on_c, 0, 81, 24
1, 2186, Note_off_c, 0, 85, 64
1, 2186, Note_on_c, 0, 86, 28
1, 2187, Note_on_c, 0, 73, 17
1, 2187, Note_off_c, 0, 74, 64
1, 2187, Note_off_c, 0, 77, 64
1, 2187, Note_on_c, 0, 83, 27
1, 2189, Note_on_c, 0, 45, 65
1, 2189, Note_off_c, 0, 78, 64
1, 2189, Note_on_c, 0, 79, 25
1, 2189, Note_off_c, 0, 82, 64
1, 2189, Note_off_c, 0, 88, 64
1, 2190, Note_on_c, 0, 42, 78
1, 2190, Note_off_c, 0, 45, 64
1, 2190, Note_off_c, 0, 66, 64
1, 2191, Note_on_c, 0, 41, 86
1, 2191, Note_off_c, 0, 42, 64
1, 2191, Note_off_c, 0, 83, 64
1, 2191, Note_off_c, 0, 86, 64
1, 2191, Note_off_c, 0, 91, 64
1, 2192, Note_on_c, 0, 38, 89
1, 2192, Note_off_c, 0, 41, 64
1, 2192, Note_on_c, 0, 66, 27
1, 2193, Note_on_c, 0, 37, 92
1, 2193, Note_off_c, 0, 38, 64
1, 2193, Note_off_c, 0, 79, 64
1, 2193, Note_off_c, 0, 81, 64
1, 2194, Note_on_c, 0, 36, 93
1, 2194, Note_off_c, 0, 37, 64
1, 2194, Note_off_c, 0, 73, 64
1, 2195, Note_on_c, 0, 35, 93
1, 2195, Note_off_c, 0, 36, 64
1, 2195, Note_on_c, 0, 61, 24
1, 2196, Note_on_c, 0, 34, 93
1, 2196, Note_off_c, 0, 35, 64
1, 2196, Note_on_c, 0, 68, 11
1, 2197, Note_on_c, 0, 33, 93
1, 2197, Note_off_c, 0, 34, 64
1, 2197, Note_off_c, 0, 66, 64
1, 2198, Note_on_c, 0, 32, 95
1, 2198, Note_off_c, 0, 33, 64
1, 2199, Note_on_c, 0, 31, 95
1, 2199, Note_off_c, 0, 32, 64
1, 2200, Note_off_c, 0, 68, 64
1, 2200, Note_on_c, 0, 76, 18
1, 2202, Note_on_c, 0, 30, 81
1, 2202, Note_off_c, 0, 31, 64
1, 2202, Note_off_c, 0, 61, 64
1, 2202, Note_on_c, 0, 66, 21
1, 2203, Note_off_c, 0, 76, 64
1, 2204, Note_off_c, 0, 30, 64
1, 2205, Note_on_c, 0, 36, 65
1, 2205, Note_on_c, 0, 61, 32
1, 2205, Note_on_c, 0, 75, 23
1, 2206, Note_on_c, 0, 81, 29
1, 2206, Note_on_c, 0, 82, 28
1, 2206, Note_on_c, 0, 85, 28
1, 2206, Note_on_c, 0, 92, 14
1, 2207, Note_on_c, 0, 31, 76
1, 2207, Note_off_c, 0, 36, 64
1, 2208, Note_on_c, 0, 29, 81
1, 2208, Note_off_c, 0, 31, 64
1, 2208, Note_off_c, 0, 66, 64
1, 2208, Note_on_c, 0, 77, 23
1, 2208, Note_on_c, 0, 79, 31
1, 2209, Note_on_c, 0, 66, 35
1, 2209, Note_off_c, 0, 92, 64
1, 2210, Note_off_c, 0, 29, 64
1, 2210, Note_on_c, 0, 30, 77
1, 2210, Note_off_c, 0, 75, 64
1, 2211, Note_on_c, 0, 54, 11
1, 2211, Note_on_c, 0, 76, 24
1, 2211, Note_on_c, 0, 80, 31
1, 2211, Note_off_c, 0, 81, 64
1, 2211, Note_on_c, 0, 83, 21
1, 2212, Note_on_c, 0, 29, 76
1, 2212, Note_off_c, 0, 30, 64
1, 2212, Note_off_c, 0, 61, 64
1, 2212, Note_on_c, 0, 74, 27
1, 2212, Note_off_c, 0, 77, 64
1, 2212, Note_off_c, 0, 82, 64
1, 2213, Note_on_c, 0, 61, 35
1, 2213, Note_off_c, 0, 79, 64
1, 2214, Note_off_c, 0, 66, 64
1, 2214, Note_off_c, 0, 76, 64
1, 2214, Note_on_c, 0, 84, 29
1, 2214, Note_on_c, 0, 88, 17
1, 2215, Note_off_c, 0, 29, 64
1, 2215, Note_on_c, 0, 30, 79
1, 2215, Note_off_c, 0, 54, 64
1, 2215, Note_on_c, 0, 82, 28
1, 2215, Note_off_c, 0, 83, 64
1, 2216, Note_on_c, 0, 63, 31
1, 2216, Note_off_c, 0, 74, 64
1, 2216, Note_on_c, 0, 83, 31
1, 2216, Note_off_c, 0, 84, 64
1, 2217, Note_on_c, 0, 68, 42
1, 2217, Note_on_c, 0, 79, 35
1, 2217, Note_off_c, 0, 80, 64
1, 2217, Note_off_c, 0, 88, 64
1, 2218, Note_on_c, 0, 29, 80
1, 2218, Note_off_c, 0, 30, 64
1, 2218, Note_on_c, 0, 54, 22
1, 2218, Note_off_c, 0, 63, 64
1, 2219, Note_off_c, 0, 61, 64
1, 2219, Note_off_c, 0, 79, 64
1, 2219, Note_on_c, 0, 81, 20
1, 2219, Note_off_c, 0, 82, 64
1, 2220, Note_off_c, 0, 29, 64
1, 2220, Note_on_c, 0, 30, 76
1, 2220, Note_on_c, 0, 66, 33
1, 2220, Note_on_c, 0, 73, 21
1, 2221, Note_off_c, 0, 83, 64
1, 2221, Note_on_c, 0, 89, 12
1, 2222, Note_off_c, 0, 30, 64
1, 2222, Note_on_c, 0, 33, 69
1, 2222, Note_off_c, 0, 54, 64
1, 2222, Note_off_c, 0, 66, 64
1, 2222, Note_on_c, 0, 78, 25
1, 2222, Note_off_c, 0, 81, 64
1, 2223, Note_off_c, 0, 33, 64
1, 2223, Note_off_c, 0, 73, 64
1, 2223, Note_on_c, 0, 84, 16
1, 2224, Note_on_c, 0, 61, 18
1, 2224, Note_on_c, 0, 66, 20
1, 2224, Note_off_c, 0, 68, 64
1, 2224, Note_on_c, 0, 77, 14
1, 2224, Note_on_c, 0, 87, 14
1, 2225, Note_off_c, 0, 78, 64
1, 2225, Note_off_c, 0, 85, 64
1, 2227, Note_on_c, 0, 44, 74
1, 2227, Note_off_c, 0, 66, 64
1, 2227, Note_off_c, 0, 84, 64
1, 2227, Note_off_c, 0, 87, 64
1, 2227, Note_off_c, 0, 89, 64
1, 2228, Note_on_c, 0, 41, 86
1, 2228, Note_off_c, 0, 44, 64
1, 2228, Note_on_c, 0, 76, 14
1, 2228, Note_off_c, 0, 77, 64
1, 2228, Note_on_c, 0, 78, 12
1, 2229, Note_on_c, 0, 40, 88
1, 2229, Note_off_c, 0, 41, 64
1, 2229, Note_on_c, 0, 66, 28
1, 2230, Note_on_c, 0, 38, 92
1, 2230, Note_off_c, 0, 40, 64
1, 2230, Note_off_c, 0, 61, 64
1, 2231, Note_on_c, 0, 36, 93
1, 2231, Note_off_c, 0, 38, 64
1, 2232, Note_on_c, 0, 35, 94
1, 2232, Note_off_c, 0, 36, 64
1, 2232, Note_off_c, 0, 78, 64
1, 2233, Note_on_c, 0, 34, 94
1, 2233, Note_off_c, 0, 35, 64
1, 2234, Note_on_c, 0, 33, 94
1, 2234, Note_off_c, 0, 34, 64
1, 2234, Note_off_c, 0, 76, 64
1, 2235, Note_on_c, 0, 32, 95
1, 2235, Note_off_c, 0, 33, 64
1, 2235, Note_on_c, 0, 82, 12
1, 2235, Note_on_c, 0, 85, 25
1, 2237, Note_on_c, 0, 31, 94
1, 2237, Note_off_c, 0, 32, 64
1, 2237, Note_off_c, 0, 66, 64
1, 2237, Note_on_c, 0, 78, 12
1, 2238, Note_off_c, 0, 85, 64
1, 2239, Note_on_c, 0, 30, 86
1, 2239, Note_off_c, 0, 31, 64
1, 2239, Note_on_c, 0, 63, 22
1, 2239, Note_off_c, 0, 82, 64
1, 2240, Note_on_c, 0, 66, 32
1, 2240, Note_off_c, 0, 78, 64
1, 2241, Note_off_c, 0, 30, 64
1, 2241, Note_on_c, 0, 85, 31
1, 2242, Note_off_c, 0, 63, 64
1, 2242, Note_on_c, 0, 82, 25
1, 2242, Note_on_c, 0, 83, 30
1, 2243, Note_on_c, 0, 88, 16
1, 2244, Note_on_c, 0, 31, 72
1, 2245, Note_on_c, 0, 30, 81
1, 2245, Note_off_c, 0, 31, 64
1, 2246, Note_on_c, 0, 29, 82
1, 2246, Note_off_c, 0, 30, 64
1, 2246, Note_off_c, 0, 66, 64
1, 2246, Note_on_c, 0, 73, 23
1, 2246, Note_on_c, 0, 81, 17
1, 2246, Note_off_c, 0, 83, 64
1, 2246, Note_off_c, 0, 88, 64
1, 2247, Note_on_c, 0, 66, 43
1, 2247, Note_on_c, 0, 80, 22
1, 2247, Note_off_c, 0, 82, 64
1, 2248, Note_off_c, 0, 29, 64
1, 2248, Note_on_c, 0, 30, 77
1, 2248, Note_on_c, 0, 61, 41
1, 2248, Note_on_c, 0, 88, 16
1, 2249, Note_off_c, 0, 73, 64
1, 2249, Note_off_c, 0, 81, 64
1, 2249, Note_on_c, 0, 82, 24
1, 2250, Note_on_c, 0, 29, 75
1, 2250, Note_off_c, 0, 30, 64
1, 2250, Note_on_c, 0, 64, 30
1, 2250, Note_on_c, 0, 84, 15
1, 2250, Note_on_c, 0, 86, 10
1, 2251, Note_off_c, 0, 85, 64
1, 2252, Note_off_c, 0, 66, 64
1, 2252, Note_on_c, 0, 68, 34
1, 2252, Note_on_c, 0, 78, 23
1, 2253, Note_off_c, 0, 29, 64
1, 2253, Note_on_c, 0, 30, 74
1, 2254, Note_off_c, 0, 30, 64
1, 2254, Note_on_c, 0, 31, 79
1, 2254, Note_off_c, 0, 64, 64
1, 2254, Note_off_c, 0, 80, 64
1, 2255, Note_on_c, 0, 30, 81
1, 2255, Note_off_c, 0, 31, 64
1, 2255, Note_on_c, 0, 66, 34
1, 2255, Note_on_c, 0, 81, 16
1, 2255, Note_off_c, 0, 88, 64
1, 2256, Note_on_c, 0, 29, 81
1, 2256, Note_off_c, 0, 30, 64
1, 2256, Note_off_c, 0, 68, 64
1, 2256, Note_on_c, 0, 70, 26
1, 2256, Note_off_c, 0, 82, 64
1, 2257, Note_off_c, 0, 29, 64
1, 2257, Note_on_c, 0, 30, 78
1, 2257, Note_off_c, 0, 84, 64
1, 2258, Note_off_c, 0, 86, 64
1, 2259, Note_on_c, 0, 76, 21
1, 2259, Note_off_c, 0, 81, 64
1, 2260, Note_off_c, 0, 30, 64
1, 2260, Note_on_c, 0, 34, 67
1, 2261, Note_off_c, 0, 34, 64
1, 2261, Note_off_c, 0, 61, 64
1, 2261, Note_off_c, 0, 66, 64
1, 2261, Note_on_c, 0, 80, 27
1, 2263, Note_off_c, 0, 76, 64
1, 2263, Note_on_c, 0, 85, 15
1, 2264, Note_on_c, 0, 45, 71
1, 2264, Note_off_c, 0, 70, 64
1, 2264, Note_on_c, 0, 79, 20
1, 2264, Note_on_c, 0, 82, 22
1, 2265, Note_on_c, 0, 42, 83
1, 2265, Note_off_c, 0, 45, 64
1, 2265, Note_off_c, 0, 80, 64
1, 2265, Note_on_c, 0, 81, 18
1, 2266, Note_on_c, 0, 41, 90
1, 2266, Note_off_c, 0, 42, 64
1, 2266, Note_on_c, 0, 76, 19
1, 2266, Note_off_c, 0, 85, 64
1, 2267, Note_on_c, 0, 38, 91
1, 2267, Note_off_c, 0, 41, 64
1, 2267, Note_off_c, 0, 78, 64
1, 2268, Note_on_c, 0, 37, 94
1, 2268, Note_off_c, 0, 38, 64
1, 2268, Note_on_c, 0, 61, 11
1, 2268, Note_off_c, 0, 79, 64
1, 2268, Note_off_c, 0, 82, 64
1, 2269, Note_on_c, 0, 36, 95
1, 2269, Note_off_c, 0, 37, 64
1, 2269, Note_off_c, 0, 81, 64
1, 2270, Note_on_c, 0, 35, 94
1, 2270, Note_off_c, 0, 36, 64
1, 2271, Note_on_c, 0, 34, 95
1, 2271, Note_off_c, 0, 35, 64
1, 2271, Note_on_c, 0, 78, 18
1, 2271, Note_on_c, 0, 82, 19
1, 2271, Note_on_c, 0, 83, 19
1, 2272, Note_on_c, 0, 33, 95
1, 2272, Note_off_c, 0, 34, 64
1, 2272, Note_off_c, 0, 61, 64
1, 2273, Note_on_c, 0, 32, 96
1, 2273, Note_off_c, 0, 33, 64
1, 2273, Note_off_c, 0, 76, 64
1, 2274, Note_on_c, 0, 31, 95
1, 2274, Note_off_c, 0, 32, 64
1, 2275, Note_off_c, 0, 78, 64
1, 2275, Note_on_c, 0, 79, 20
1, 2275, Note_on_c, 0, 81, 11
1, 2275, Note_off_c, 0, 82, 64
1, 2275, Note_off_c, 0, 83, 64
1, 2276, Note_on_c, 0, 66, 47
1, 2277, Note_on_c, 0, 30, 81
1, 2277, Note_off_c, 0, 31, 64
1, 2277, Note_on_c, 0, 61, 29
1, 2278, Note_off_c, 0, 81, 64
1, 2278, Note_on_c, 0, 82, 15
1, 2279, Note_off_c, 0, 30, 64
1, 2280, Note_on_c, 0, 36, 67
1, 2281, Note_on_c, 0, 70, 13
1, 2281, Note_off_c, 0, 79, 64
1, 2282, Note_on_c, 0, 30, 78
1, 2282, Note_off_c, 0, 36, 64
1, 2282, Note_on_c, 0, 79, 19
1, 2282, Note_off_c, 0, 82, 64
1, 2283, Note_on_c, 0, 29, 81
1, 2283, Note_off_c, 0, 30, 64
1, 2284, Note_off_c, 0, 61, 64
1, 2284, Note_off_c, 0, 70, 64
1, 2284, Note_on_c, 0, 80, 18
1, 2285, Note_off_c, 0, 29, 64
1, 2285, Note_on_c, 0, 30, 77
1, 2285, Note_on_c, 0, 63, 18
1, 2285, Note_off_c, 0, 79, 64
1, 2285, Note_on_c, 0, 82, 26
1, 2286, Note_on_c, 0, 73, 31
1, 2287, Note_on_c, 0, 29, 76
1, 2287, Note_off_c, 0, 30, 64
1, 2288, Note_off_c, 0, 63, 64
1, 2288, Note_on_c, 0, 70, 17
1, 2289, Note_on_c, 0, 81, 17
1, 2289, Note_off_c, 0, 82, 64
1, 2289, Note_on_c, 0, 87, 13
1, 2289, Note_on_c, 0, 88, 11
1, 2290, Note_off_c, 0, 29, 64
1, 2290, Note_on_c, 0, 30, 73
1, 2290, Note_on_c, 0, 75, 25
1, 2291, Note_off_c, 0, 30, 64
1, 2291, Note_on_c, 0, 31, 77
1, 2291, Note_off_c, 0, 70, 64
1, 2292, Note_on_c, 0, 30, 81
1, 2292, Note_off_c, 0, 31, 64
1, 2292, Note_off_c, 0, 66, 64
1, 2292, Note_on_c, 0, 68, 33
1, 2292, Note_off_c, 0, 80, 64
1, 2292, Note_on_c, 0, 83, 18
1, 2293, Note_on_c, 0, 29, 82
1, 2293, Note_off_c, 0, 30, 64
1, 2293, Note_on_c, 0, 60, 29
1, 2293, Note_on_c, 0, 66, 37
1, 2293, Note_on_c, 0, 82, 19
1, 2293, Note_on_c, 0, 90, 22
1, 2294, Note_off_c, 0, 75, 64
1, 2294, Note_on_c, 0, 76, 29
1, 2294, Note_off_c, 0, 81, 64
1, 2294, Note_off_c, 0, 87, 64
1, 2294, Note_off_c, 0, 88, 64
1, 2295, Note_off_c, 0, 29, 64
1, 2295, Note_on_c, 0, 30, 77
1, 2295, Note_off_c, 0, 73, 64
1, 2295, Note_on_c, 0, 81, 19
1, 2296, Note_off_c, 0, 60, 64
1, 2296, Note_on_c, 0, 61, 30
1, 2296, Note_on_c, 0, 64, 34
1, 2296, Note_off_c, 0, 76, 64
1, 2296, Note_off_c, 0, 83, 64
1, 2297, Note_off_c, 0, 30, 64
1, 2297, Note_on_c, 0, 33, 70
1, 2297, Note_off_c, 0, 68, 64
1, 2297, Note_off_c, 0, 82, 64
1, 2297, Note_on_c, 0, 83, 20
1, 2298, Note_off_c, 0, 33, 64
1, 2298, Note_off_c, 0, 64, 64
1, 2298, Note_on_c, 0, 82, 13
1, 2299, Note_off_c, 0, 90, 64
1, 2300, Note_off_c, 0, 61, 64
1, 2300, Note_off_c, 0, 66, 64
1, 2301, Note_off_c, 0, 82, 64
1, 2302, Note_on_c, 0, 44, 78
1, 2302, Note_off_c, 0, 81, 64
1, 2303, Note_on_c, 0, 41, 90
1, 2303, Note_off_c, 0, 44, 64
1, 2304, Note_on_c, 0, 40, 91
1, 2304, Note_off_c, 0, 41, 64
1, 2305, Note_on_c, 0, 38, 94
1, 2305, Note_off_c, 0, 40, 64
1, 2305, Note_on_c, 0, 61, 30
1, 2306, Note_on_c, 0, 36, 95
1, 2306, Note_off_c, 0, 38, 64
1, 2306, Note_off_c, 0, 83, 64
1, 2307, Note_on_c, 0, 35, 95
1, 2307, Note_off_c, 0, 36, 64
1, 2307, Note_on_c, 0, 66, 21
1, 2308, Note_on_c, 0, 34, 95
1, 2308, Note_off_c, 0, 35, 64
1, 2309, Note_on_c, 0, 33, 95
1, 2309, Note_off_c, 0, 34, 64
1, 2310, Note_on_c, 0, 32, 96
1, 2310, Note_off_c, 0, 33, 64
1, 2312, Note_on_c, 0, 31, 94
1, 2312, Note_off_c, 0, 32, 64
1, 2313, Note_off_c, 0, 66, 64
1, 2314, Note_on_c, 0, 30, 85
1, 2314, Note_off_c, 0, 31, 64
1, 2314, Note_on_c, 0, 66, 28
1, 2315, Note_on_c, 0, 82, 26
1, 2316, Note_off_c, 0, 30, 64
1, 2317, Note_on_c, 0, 85, 18
1, 2318, Note_on_c, 0, 81, 16
1, 2319, Note_on_c, 0, 31, 74
1, 2319, Note_off_c, 0, 61, 64
1, 2320, Note_on_c, 0, 30, 81
1, 2320, Note_off_c, 0, 31, 64
1, 2320, Note_on_c, 0, 74, 11
1, 2321, Note_on_c, 0, 29, 81
1, 2321, Note_off_c, 0, 30, 64
1, 2321, Note_on_c, 0, 61, 43
1, 2321, Note_off_c, 0, 66, 64
1, 2321, Note_on_c, 0, 70, 28
1, 2321, Note_on_c, 0, 80, 17
1, 2322, Note_off_c, 0, 29, 64
1, 2322, Note_on_c, 0, 30, 78
1, 2322, Note_on_c, 0, 78, 26
1, 2322, Note_off_c, 0, 81, 64
1, 2322, Note_off_c, 0, 85, 64
1, 2323, Note_off_c, 0, 74, 64
1, 2323, Note_on_c, 0, 75, 28
1, 2324, Note_on_c, 0, 29, 77
1, 2324, Note_off_c, 0, 30, 64
1, 2324, Note_off_c, 0, 70, 64
1, 2324, Note_on_c, 0, 83, 24
1, 2326, Note_on_c, 0, 68, 18
1, 2326, Note_off_c, 0, 82, 64
1, 2326, Note_on_c, 0, 88, 16
1, 2327, Note_off_c, 0, 75, 64
1, 2327, Note_on_c, 0, 76, 20
1, 2327, Note_on_c, 0, 82, 25
1, 2327, Note_on_c, 0, 86, 23
1, 2328, Note_off_c, 0, 29, 64
1, 2328, Note_on_c, 0, 30, 82
1, 2328, Note_on_c, 0, 79, 21
1, 2328, Note_off_c, 0, 80, 64
1, 2328, Note_on_c, 0, 84, 17
1, 2329, Note_on_c, 0, 75, 15
1, 2329, Note_off_c, 0, 78, 64
1, 2329, Note_off_c, 0, 83, 64
1, 2330, Note_on_c, 0, 66, 25
1, 2330, Note_off_c, 0, 76, 64
1, 2330, Note_on_c, 0, 77, 17
1, 2330, Note_off_c, 0, 86, 64
1, 2331, Note_on_c, 0, 29, 81
1, 2331, Note_off_c, 0, 30, 64
1, 2331, Note_on_c, 0, 92, 12
1, 2332, Note_off_c, 0, 29, 64
1, 2332, Note_on_c, 0, 30, 78
1, 2332, Note_off_c, 0, 79, 64
1, 2332, Note_on_c, 0, 86, 17
1, 2333, Note_off_c, 0, 68, 64
1, 2333, Note_off_c, 0, 77, 64
1, 2333, Note_off_c, 0, 88, 64
1, 2334, Note_off_c, 0, 30, 64
1, 2334, Note_on_c, 0, 31, 70
1, 2334, Note_off_c, 0, 75, 64
1, 2334, Note_off_c, 0, 82, 64
1, 2334, Note_off_c, 0, 84, 64
1, 2334, Note_on_c, 0, 88, 19
1, 2334, Note_off_c, 0, 92, 64
1, 2335, Note_off_c, 0, 31, 64
1, 2335, Note_on_c, 0, 34, 67
1, 2335, Note_off_c, 0, 61, 64
1, 2335, Note_off_c, 0, 66, 64
1, 2336, Note_off_c, 0, 34, 64
1, 2336, Note_on_c, 0, 61, 23
1, 2337, Note_off_c, 0, 86, 64
1, 2338, Note_off_c, 0, 88, 64
1, 2339, Note_on_c, 0, 45, 75
1, 2339, Note_off_c, 0, 61, 64
1, 2340, Note_on_c, 0, 42, 87
1, 2340, Note_off_c, 0, 45, 64
1, 2341, Note_on_c, 0, 40, 93
1, 2341, Note_off_c, 0, 42, 64
1, 2342, Note_on_c, 0, 38, 94
1, 2342, Note_off_c, 0, 40, 64
1, 2342, Note_on_c, 0, 66, 35
1, 2343, Note_on_c, 0, 37, 96
1, 2343, Note_off_c, 0, 38, 64
1, 2344, Note_on_c, 0, 36, 96
1, 2344, Note_off_c, 0, 37, 64
1, 2345, Note_on_c, 0, 35, 95
1, 2345, Note_off_c, 0, 36, 64
1, 2346, Note_on_c, 0, 34, 95
1, 2346, Note_off_c, 0, 35, 64
1, 2347, Note_on_c, 0, 33, 96
1, 2347, Note_off_c, 0, 34, 64
1, 2348, Note_on_c, 0, 32, 97
1, 2348, Note_off_c, 0, 33, 64
1, 2348, Note_on_c, 0, 61, 27
1, 2349, Note_on_c, 0, 31, 96
1, 2349, Note_off_c, 0, 32, 64
1, 2350, Note_on_c, 0, 83, 10
1, 2351, Note_on_c, 0, 80, 9
1, 2352, Note_on_c, 0, 30, 79
1, 2352, Note_off_c, 0, 31, 64
1, 2353, Note_off_c, 0, 83, 64
1, 2354, Note_off_c, 0, 30, 64
1, 2354, Note_on_c, 0, 74, 14
1, 2354, Note_off_c, 0, 80, 64
1, 2354, Note_on_c, 0, 81, 9
1, 2354, Note_on_c, 0, 85, 20
1, 2356, Note_on_c, 0, 35, 70
1, 2356, Note_off_c, 0, 66, 64
1, 2356, Note_on_c, 0, 82, 14
1, 2357, Note_on_c, 0, 30, 80
1, 2357, Note_off_c, 0, 35, 64
1, 2357, Note_on_c, 0, 66, 31
1, 2357, Note_off_c, 0, 74, 64
1, 2358, Note_on_c, 0, 29, 82
1, 2358, Note_off_c, 0, 30, 64
1, 2358, Note_on_c, 0, 79, 9
1, 2358, Note_off_c, 0, 81, 64
1, 2358, Note_on_c, 0, 86, 17
1, 2360, Note_off_c, 0, 29, 64
1, 2360, Note_on_c, 0, 30, 78
1, 2360, Note_off_c, 0, 61, 64
1, 2360, Note_off_c, 0, 82, 64
1, 2360, Note_on_c, 0, 84, 22
1, 2360, Note_off_c, 0, 85, 64
1, 2361, Note_on_c, 0, 61, 28
1, 2362, Note_on_c, 0, 29, 75
1, 2362, Note_off_c, 0, 30, 64
1, 2362, Note_on_c, 0, 76, 15
1, 2362, Note_off_c, 0, 86, 64
1, 2362, Note_on_c, 0, 92, 18
1, 2363, Note_on_c, 0, 64, 23
1, 2363, Note_on_c, 0, 70, 27
1, 2363, Note_off_c, 0, 79, 64
1, 2364, Note_on_c, 0, 81, 15
1, 2365, Note_off_c, 0, 29, 64
1, 2365, Note_on_c, 0, 30, 74
1, 2365, Note_off_c, 0, 76, 64
1, 2366, Note_off_c, 0, 30, 64
1, 2366, Note_on_c, 0, 31, 77
1, 2366, Note_on_c, 0, 73, 29
1, 2367, Note_on_c, 0, 30, 81
1, 2367, Note_off_c, 0, 31, 64
1, 2367, Note_off_c, 0, 61, 64
1, 2367, Note_off_c, 0, 64, 64
1, 2367, Note_off_c, 0, 84, 64
1, 2367, Note_on_c, 0, 90, 18
1, 2367, Note_off_c, 0, 92, 64
1, 2368, Note_on_c, 0, 29, 81
1, 2368, Note_off_c, 0, 30, 64
1, 2368, Note_on_c, 0, 61, 39
1, 2369, Note_off_c, 0, 29, 64
1, 2369, Note_on_c, 0, 30, 79
1, 2369, Note_off_c, 0, 66, 64
1, 2369, Note_on_c, 0, 75, 13
1, 2369, Note_off_c, 0, 81, 64
1, 2369, Note_on_c, 0, 88, 20
1, 2370, Note_on_c, 0, 67, 27
1, 2370, Note_on_c, 0, 78, 17
1, 2372, Note_off_c, 0, 30, 64
1, 2372, Note_on_c, 0, 34, 71
1, 2372, Note_off_c, 0, 61, 64
1, 2372, Note_off_c, 0, 73, 64
1, 2372, Note_off_c, 0, 75, 64
1, 2372, Note_on_c, 0, 83, 11
1, 2373, Note_off_c, 0, 70, 64
1, 2373, Note_on_c, 0, 84, 17
1, 2374, Note_off_c, 0, 34, 64
1, 2374, Note_on_c, 0, 81, 23
1, 2374, Note_off_c, 0, 90, 64
1, 2375, Note_off_c, 0, 67, 64
1, 2375, Note_on_c, 0, 80, 15
1, 2375, Note_off_c, 0, 83, 64
1, 2376, Note_on_c, 0, 46, 69
1, 2376, Note_off_c, 0, 84, 64
1, 2377, Note_on_c, 0, 44, 81
1, 2377, Note_off_c, 0, 46, 64
1, 2377, Note_on_c, 0, 61, 22
1, 2377, Note_off_c, 0, 78, 64
1, 2377, Note_on_c, 0, 87, 11
1, 2377, Note_off_c, 0, 88, 64
1, 2378, Note_on_c, 0, 41, 93
1, 2378, Note_off_c, 0, 44, 64
1, 2378, Note_off_c, 0, 80, 64
1, 2378, Note_off_c, 0, 81, 64
1, 2378, Note_on_c, 0, 88, 10
1, 2379, Note_on_c, 0, 39, 93
1, 2379, Note_off_c, 0, 41, 64
1, 2379, Note_on_c, 0, 81, 22
1, 2380, Note_on_c, 0, 37, 96
1, 2380, Note_off_c, 0, 39, 64
1, 2381, Note_on_c, 0, 36, 97
1, 2381, Note_off_c, 0, 37, 64
1, 2381, Note_off_c, 0, 61, 64
1, 2382, Note_on_c, 0, 35, 96
1, 2382, Note_off_c, 0, 36, 64
1, 2382, Note_on_c, 0, 84, 20
1, 2382, Note_off_c, 0, 87, 64
1, 2382, Note_off_c, 0, 88, 64
1, 2382, Note_on_c, 0, 89, 21
1, 2383, Note_on_c, 0, 34, 95
1, 2383, Note_off_c, 0, 35, 64
1, 2383, Note_on_c, 0, 83, 13
1, 2384, Note_on_c, 0, 33, 95
1, 2384, Note_off_c, 0, 34, 64
1, 2384, Note_on_c, 0, 61, 23
1, 2384, Note_on_c, 0, 66, 18
1, 2384, Note_on_c, 0, 79, 13
1, 2385, Note_on_c, 0, 32, 96
1, 2385, Note_off_c, 0, 33, 64
1, 2385, Note_off_c, 0, 84, 64
1, 2385, Note_on_c, 0, 86, 10
1, 2386, Note_off_c, 0, 83, 64
1, 2386, Note_on_c, 0, 84, 23
1, 2387, Note_on_c, 0, 31, 94
1, 2387, Note_off_c, 0, 32, 64
1, 2388, Note_off_c, 0, 79, 64
1, 2388, Note_off_c, 0, 81, 64
1, 2388, Note_off_c, 0, 86, 64
1, 2389, Note_on_c, 0, 30, 84
1, 2389, Note_off_c, 0, 31, 64
1, 2389, Note_off_c, 0, 84, 64
1, 2390, Note_on_c, 0, 82, 22
1, 2390, Note_on_c, 0, 84, 19
1, 2392, Note_off_c, 0, 30, 64
1, 2392, Note_off_c, 0, 66, 64
1, 2392, Note_on_c, 0, 80, 12
1, 2392, Note_on_c, 0, 87, 13
1, 2392, Note_off_c, 0, 89, 64
1, 2393, Note_on_c, 0, 37, 65
1, 2393, Note_off_c, 0, 61, 64
1, 2393, Note_off_c, 0, 82, 64
1, 2394, Note_on_c, 0, 31, 75
1, 2394, Note_off_c, 0, 37, 64
1, 2394, Note_on_c, 0, 66, 45
1, 2394, Note_on_c, 0, 83, 18
1, 2394, Note_off_c, 0, 84, 64
1, 2394, Note_on_c, 0, 90, 19
1, 2395, Note_on_c, 0, 30, 81
1, 2395, Note_off_c, 0, 31, 64
1, 2395, Note_on_c, 0, 76, 26
1, 2395, Note_off_c, 0, 80, 64
1, 2395, Note_on_c, 0, 81, 18
1, 2395, Note_off_c, 0, 87, 64
1, 2396, Note_on_c, 0, 29, 81
1, 2396, Note_off_c, 0, 30, 64
1, 2397, Note_off_c, 0, 29, 64
1, 2397, Note_on_c, 0, 30, 78
1, 2397, Note_on_c, 0, 61, 12
1, 2397, Note_off_c, 0, 83, 64
1, 2397, Note_on_c, 0, 84, 22
1, 2397, Note_on_c, 0, 92, 18
1, 2398, Note_on_c, 0, 87, 16
1, 2399, Note_on_c, 0, 29, 76
1, 2399, Note_off_c, 0, 30, 64
1, 2399, Note_off_c, 0, 76, 64
1, 2399, Note_off_c, 0, 90, 64
1, 2400, Note_off_c, 0, 61, 64
1, 2400, Note_on_c, 0, 77, 20
1, 2400, Note_off_c, 0, 81, 64
1, 2400, Note_on_c, 0, 82, 9
1, 2401, Note_on_c, 0, 69, 27
1, 2401, Note_off_c, 0, 84, 64
1, 2402, Note_on_c, 0, 73, 23
1, 2402, Note_on_c, 0, 76, 26
1, 2402, Note_on_c, 0, 86, 18
1, 2403, Note_off_c, 0, 29, 64
1, 2403, Note_on_c, 0, 30, 81
1, 2403, Note_on_c, 0, 61, 40
1, 2403, Note_off_c, 0, 82, 64
1, 2403, Note_off_c, 0, 87, 64
1, 2404, Note_off_c, 0, 77, 64
1, 2404, Note_on_c, 0, 84, 16
1, 2405, Note_off_c, 0, 86, 64
1, 2405, Note_on_c, 0, 89, 16
1, 2406, Note_on_c, 0, 29, 80
1, 2406, Note_off_c, 0, 30, 64
1, 2406, Note_on_c, 0, 81, 29
1, 2407, Note_off_c, 0, 29, 64
1, 2407, Note_on_c, 0, 30, 78
1, 2407, Note_off_c, 0, 92, 64
1, 2408, Note_off_c, 0, 69, 64
1, 2408, Note_off_c, 0, 73, 64
1, 2408, Note_on_c, 0, 80, 11
1, 2408, Note_off_c, 0, 81, 64
1, 2409, Note_off_c, 0, 30, 64
1, 2409, Note_on_c, 0, 32, 71
1, 2410, Note_off_c, 0, 32, 64
1, 2410, Note_on_c, 0, 34, 66
1, 2410, Note_off_c, 0, 61, 64
1, 2410, Note_off_c, 0, 66, 64
1, 2410, Note_off_c, 0, 76, 64
1, 2410, Note_off_c, 0, 84, 64
1, 2411, Note_off_c, 0, 34, 64
1, 2411, Note_on_c, 0, 83, 21
1, 2411, Note_on_c, 0, 87, 21
1, 2411, Note_on_c, 0, 88, 16
1, 2411, Note_off_c, 0, 89, 64
1, 2411, Note_on_c, 0, 92, 17
1, 2412, Note_on_c, 0, 89, 12
1, 2413, Note_on_c, 0, 94, 20
1, 2414, Note_on_c, 0, 45, 80
1, 2414, Note_on_c, 0, 76, 15
1, 2414, Note_off_c, 0, 80, 64
1, 2414, Note_on_c, 0, 81, 23
1, 2415, Note_on_c, 0, 42, 91
1, 2415, Note_off_c, 0, 45, 64
1, 2415, Note_off_c, 0, 83, 64
1, 2415, Note_on_c, 0, 84, 22
1, 2415, Note_off_c, 0, 89, 64
1, 2416, Note_on_c, 0, 40, 95
1, 2416, Note_off_c, 0, 42, 64
1, 2416, Note_off_c, 0, 87, 64
1, 2416, Note_off_c, 0, 94, 64
1, 2417, Note_on_c, 0, 38, 96
1, 2417, Note_off_c, 0, 40, 64
1, 2417, Note_on_c, 0, 89, 25
1, 2417, Note_off_c, 0, 92, 64
1, 2418, Note_on_c, 0, 37, 97
1, 2418, Note_off_c, 0, 38, 64
1, 2418, Note_on_c, 0, 69, 20
1, 2419, Note_on_c, 0, 36, 96
1, 2419, Note_off_c, 0, 37, 64
1, 2419, Note_off_c, 0, 76, 64
1, 2419, Note_on_c, 0, 85, 25
1, 2420, Note_on_c, 0, 34, 96
1, 2420, Note_off_c, 0, 36, 64
1, 2420, Note_on_c, 0, 87, 26
1, 2421, Note_on_c, 0, 33, 96
1, 2421, Note_off_c, 0, 34, 64
1, 2421, Note_off_c, 0, 69, 64
1, 2421, Note_off_c, 0, 81, 64
1, 2422, Note_on_c, 0, 71, 14
1, 2423, Note_on_c, 0, 32, 97
1, 2423, Note_off_c, 0, 33, 64
1, 2423, Note_on_c, 0, 82, 18
1, 2424, Note_on_c, 0, 31, 95
1, 2424, Note_off_c, 0, 32, 64
1, 2424, Note_off_c, 0, 84, 64
1, 2424, Note_off_c, 0, 88, 64
1, 2425, Note_off_c, 0, 71, 64
1, 2425, Note_on_c, 0, 78, 13
1, 2425, Note_on_c, 0, 95, 13
1, 2426, Note_on_c, 0, 91, 14
1, 2427, Note_on_c, 0, 30, 77
1, 2427, Note_off_c, 0, 31, 64
1, 2427, Note_on_c, 0, 61, 34
1, 2427, Note_on_c, 0, 84, 20
1, 2427, Note_off_c, 0, 85, 64
1, 2428, Note_off_c, 0, 78, 64
1, 2428, Note_on_c, 0, 86, 23
1, 2428, Note_on_c, 0, 90, 21
1, 2429, Note_off_c, 0, 30, 64
1, 2429, Note_off_c, 0, 87, 64
1, 2429, Note_off_c, 0, 95, 64
1, 2430, Note_on_c, 0, 76, 16
1, 2430, Note_off_c, 0, 89, 64
1, 2431, Note_on_c, 0, 35, 71
1, 2432, Note_on_c, 0, 30, 80
1, 2432, Note_off_c, 0, 35, 64
1, 2433, Note_on_c, 0, 29, 82
1, 2433, Note_off_c, 0, 30, 64
1, 2433, Note_on_c, 0, 81, 37
1, 2433, Note_off_c, 0, 82, 64
1, 2433, Note_off_c, 0, 84, 64
1, 2434, Note_on_c, 0, 66, 36
1, 2434, Note_on_c, 0, 79, 18
1, 2434, Note_on_c, 0, 82, 17
1, 2434, Note_off_c, 0, 91, 64
1, 2435, Note_off_c, 0, 29, 64
1, 2435, Note_on_c, 0, 30, 77
1, 2435, Note_on_c, 0, 64, 32
1, 2435, Note_on_c, 0, 92, 17
1, 2436, Note_off_c, 0, 61, 64
1, 2436, Note_on_c, 0, 71, 9
1, 2436, Note_off_c, 0, 76, 64
1, 2436, Note_on_c, 0, 84, 24
1, 2436, Note_off_c, 0, 90, 64
1, 2437, Note_on_c, 0, 29, 76
1, 2437, Note_off_c, 0, 30, 64
1, 2437, Note_on_c, 0, 61, 38
1, 2437, Note_off_c, 0, 82, 64
1, 2438, Note_off_c, 0, 64, 64
1, 2438, Note_on_c, 0, 69, 15
1, 2439, Note_off_c, 0, 71, 64
1, 2439, Note_off_c, 0, 86, 64
1, 2439, Note_on_c, 0, 90, 22
1, 2440, Note_off_c, 0, 29, 64
1, 2440, Note_on_c, 0, 30, 74
1, 2440, Note_off_c, 0, 79, 64
1, 2441, Note_off_c, 0, 30, 64
1, 2441, Note_on_c, 0, 31, 78
1, 2441, Note_on_c, 0, 76, 43
1, 2441, Note_on_c, 0, 79, 22
1, 2441, Note_off_c, 0, 81, 64
1, 2441, Note_on_c, 0, 87, 21
1, 2442, Note_on_c, 0, 30, 82
1, 2442, Note_off_c, 0, 31, 64
1, 2442, Note_on_c, 0, 89, 22
1, 2443, Note_on_c, 0, 29, 81
1, 2443, Note_off_c, 0, 30, 64
1, 2443, Note_off_c, 0, 69, 64
1, 2443, Note_on_c, 0, 73, 42
1, 2443, Note_on_c, 0, 80, 17
1, 2443, Note_off_c, 0, 84, 64
1, 2443, Note_off_c, 0, 90, 64
1, 2444, Note_off_c, 0, 29, 64
1, 2444, Note_on_c, 0, 30, 78
1, 2444, Note_on_c, 0, 64, 36
1, 2444, Note_off_c, 0, 79, 64
1, 2444, Note_off_c, 0, 87, 64
1, 2445, Note_off_c, 0, 66, 64
1, 2445, Note_on_c, 0, 83, 17
1, 2445, Note_off_c, 0, 92, 64
1, 2446, Note_off_c, 0, 61, 64
1, 2446, Note_off_c, 0, 80, 64
1, 2446, Note_off_c, 0, 89, 64
1, 2447, Note_off_c, 0, 30, 64
1, 2447, Note_on_c, 0, 34, 71
1, 2447, Note_on_c, 0, 70, 17
1, 2447, Note_on_c, 0, 72, 19
1, 2448, Note_off_c, 0, 64, 64
1, 2448, Note_off_c, 0, 73, 64
1, 2448, Note_off_c, 0, 83, 64
1, 2449, Note_off_c, 0, 34, 64
1, 2449, Note_off_c, 0, 76, 64
1, 2449, Note_on_c, 0, 86, 17
1, 2449, Note_on_c, 0, 88, 14
1, 2450, Note_on_c, 0, 89, 15
1, 2450, Note_on_c, 0, 94, 23
1, 2451, Note_on_c, 0, 45, 74
1, 2451, Note_off_c, 0, 72, 64
1, 2452, Note_on_c, 0, 42, 87
1, 2452, Note_off_c, 0, 45, 64
1, 2452, Note_on_c, 0, 69, 23
1, 2452, Note_off_c, 0, 70, 64
1, 2452, Note_off_c, 0, 86, 64
1, 2453, Note_on_c, 0, 41, 95
1, 2453, Note_off_c, 0, 42, 64
1, 2453, Note_on_c, 0, 92, 13
1, 2454, Note_on_c, 0, 39, 94
1, 2454, Note_off_c, 0, 41, 64
1, 2454, Note_off_c, 0, 88, 64
1, 2454, Note_off_c, 0, 89, 64
1, 2454, Note_off_c, 0, 94, 64
1, 2455, Note_on_c, 0, 37, 97
1, 2455, Note_off_c, 0, 39, 64
1, 2456, Note_on_c, 0, 36, 97
1, 2456, Note_off_c, 0, 37, 64
1, 2456, Note_off_c, 0, 69, 64
1, 2457, Note_on_c, 0, 35, 96
1, 2457, Note_off_c, 0, 36, 64
1, 2457, Note_on_c, 0, 93, 14
1, 2458, Note_on_c, 0, 34, 96
1, 2458, Note_off_c, 0, 35, 64
1, 2458, Note_on_c, 0, 85, 22
1, 2458, Note_on_c, 0, 89, 19
1, 2458, Note_on_c, 0, 90, 11
1, 2458, Note_off_c, 0, 92, 64
1, 2459, Note_on_c, 0, 33, 95
1, 2459, Note_off_c, 0, 34, 64
1, 2460, Note_on_c, 0, 32, 96
1, 2460, Note_off_c, 0, 33, 64
1, 2461, Note_on_c, 0, 83, 11
1, 2462, Note_on_c, 0, 31, 94
1, 2462, Note_off_c, 0, 32, 64
1, 2462, Note_on_c, 0, 76, 9
1, 2462, Note_on_c, 0, 87, 24
1, 2463, Note_on_c, 0, 61, 21
1, 2463, Note_off_c, 0, 90, 64
1, 2463, Note_on_c, 0, 92, 10
1, 2463, Note_off_c, 0, 93, 64
1, 2464, Note_on_c, 0, 30, 83
1, 2464, Note_off_c, 0, 31, 64
1, 2465, Note_on_c, 0, 64, 21
1, 2465, Note_off_c, 0, 76, 64
1, 2465, Note_off_c, 0, 83, 64
1, 2465, Note_off_c, 0, 87, 64
1, 2466, Note_off_c, 0, 30, 64
1, 2466, Note_off_c, 0, 61, 64
1, 2466, Note_on_c, 0, 69, 32
1, 2467, Note_on_c, 0, 84, 10
1, 2467, Note_on_c, 0, 88, 17
1, 2468, Note_on_c, 0, 36, 70
1, 2468, Note_off_c, 0, 89, 64
1, 2468, Note_off_c, 0, 92, 64
1, 2469, Note_on_c, 0, 31, 78
1, 2469, Note_off_c, 0, 36, 64
1, 2469, Note_on_c, 0, 61, 18
1, 2469, Note_off_c, 0, 64, 64
1, 2470, Note_on_c, 0, 30, 82
1, 2470, Note_off_c, 0, 31, 64
1, 2471, Note_on_c, 0, 29, 81
1, 2471, Note_off_c, 0, 30, 64
1, 2471, Note_on_c, 0, 73, 30
1, 2471, Note_on_c, 0, 75, 22
1, 2472, Note_off_c, 0, 29, 64
1, 2472, Note_on_c, 0, 30, 78
1, 2472, Note_off_c, 0, 61, 64
1, 2472, Note_on_c, 0, 91, 19
1, 2473, Note_off_c, 0, 84, 64
1, 2473, Note_off_c, 0, 88, 64
1, 2474, Note_on_c, 0, 29, 76
1, 2474, Note_off_c, 0, 30, 64
1, 2474, Note_off_c, 0, 75, 64
1, 2474, Note_on_c, 0, 79, 33
1, 2475, Note_off_c, 0, 69, 64
1, 2475, Note_on_c, 0, 70, 28
1, 2476, Note_on_c, 0, 76, 44
1, 2476, Note_on_c, 0, 87, 17
1, 2476, Note_on_c, 0, 93, 26
1, 2476, Note_on_c, 0, 95, 12
1, 2477, Note_off_c, 0, 29, 64
1, 2477, Note_on_c, 0, 30, 81
1, 2477, Note_on_c, 0, 61, 27
1, 2478, Note_on_c, 0, 69, 27
1, 2478, Note_on_c, 0, 72, 29
1, 2478, Note_off_c, 0, 73, 64
1, 2478, Note_on_c, 0, 78, 31
1, 2478, Note_off_c, 0, 79, 64
1, 2478, Note_off_c, 0, 85, 64
1, 2479, Note_off_c, 0, 70, 64
1, 2479, Note_on_c, 0, 86, 14
1, 2480, Note_on_c, 0, 29, 82
1, 2480, Note_off_c, 0, 30, 64
1, 2480, Note_off_c, 0, 72, 64
1, 2481, Note_off_c, 0, 29, 64
1, 2481, Note_on_c, 0, 30, 79
1, 2481, Note_off_c, 0, 61, 64
1, 2481, Note_on_c, 0, 65, 34
1, 2481, Note_on_c, 0, 72, 31
1, 2481, Note_off_c, 0, 87, 64
1, 2481, Note_off_c, 0, 91, 64
1, 2482, Note_off_c, 0, 69, 64
1, 2482, Note_off_c, 0, 78, 64
1, 2482, Note_on_c, 0, 91, 11
1, 2483, Note_on_c, 0, 69, 40
1, 2483, Note_off_c, 0, 72, 64
1, 2483, Note_off_c, 0, 76, 64
1, 2483, Note_on_c, 0, 87, 13
1, 2484, Note_off_c, 0, 30, 64
1, 2484, Note_on_c, 0, 33, 71
1, 2484, Note_on_c, 0, 64, 33
1, 2484, Note_off_c, 0, 65, 64
1, 2484, Note_on_c, 0, 89, 16
1, 2485, Note_off_c, 0, 33, 64
1, 2485, Note_on_c, 0, 34, 65
1, 2485, Note_off_c, 0, 86, 64
1, 2485, Note_off_c, 0, 91, 64
1, 2486, Note_off_c, 0, 34, 64
1, 2486, Note_off_c, 0, 64, 64
1, 2486, Note_off_c, 0, 95, 64
1, 2487, Note_on_c, 0, 88, 15
1, 2487, Note_off_c, 0, 93, 64
1, 2488, Note_on_c, 0, 48, 68
1, 2488, Note_on_c, 0, 64, 26
1, 2489, Note_on_c, 0, 45, 84
1, 2489, Note_off_c, 0, 48, 64
1, 2489, Note_off_c, 0, 89, 64
1, 2490, Note_on_c, 0, 42, 94
1, 2490, Note_off_c, 0, 45, 64
1, 2490, Note_off_c, 0, 87, 64
1, 2490, Note_off_c, 0, 88, 64
1, 2491, Note_on_c, 0, 40, 96
1, 2491, Note_off_c, 0, 42, 64
1, 2492, Note_on_c, 0, 38, 97
1, 2492, Note_off_c, 0, 40, 64
1, 2492, Note_on_c, 0, 85, 13
1, 2493, Note_on_c, 0, 37, 98
1, 2493, Note_off_c, 0, 38, 64
1, 2494, Note_on_c, 0, 35, 97
1, 2494, Note_off_c, 0, 37, 64
1, 2495, Note_on_c, 0, 34, 96
1, 2495, Note_off_c, 0, 35, 64
1, 2495, Note_off_c, 0, 69, 64
1, 2496, Note_on_c, 0, 33, 96
1, 2496, Note_off_c, 0, 34, 64
1, 2497, Note_on_c, 0, 32, 97
1, 2497, Note_off_c, 0, 33, 64
1, 2497, Note_on_c, 0, 69, 30
1, 2497, Note_on_c, 0, 89, 15
1, 2498, Note_off_c, 0, 64, 64
1, 2498, Note_off_c, 0, 85, 64
1, 2499, Note_on_c, 0, 31, 95
1, 2499, Note_off_c, 0, 32, 64
1, 2499, Note_on_c, 0, 75, 16
1, 2499, Note_on_c, 0, 85, 16
1, 2499, Note_on_c, 0, 87, 20
1, 2500, Note_off_c, 0, 69, 64
1, 2501, Note_on_c, 0, 30, 86
1, 2501, Note_off_c, 0, 31, 64
1, 2501, Note_on_c, 0, 69, 33
1, 2502, Note_off_c, 0, 75, 64
1, 2502, Note_on_c, 0, 76, 10
1, 2502, Note_off_c, 0, 85, 64
1, 2503, Note_off_c, 0, 87, 64
1, 2503, Note_off_c, 0, 89, 64
1, 2504, Note_off_c, 0, 30, 64
1, 2504, Note_on_c, 0, 67, 22
1, 2504, Note_on_c, 0, 88, 20
1, 2505, Note_on_c, 0, 64, 16
1, 2506, Note_on_c, 0, 31, 73
1, 2507, Note_on_c, 0, 30, 81
1, 2507, Note_off_c, 0, 31, 64
1, 2507, Note_off_c, 0, 67, 64
1, 2507, Note_on_c, 0, 73, 21
1, 2507, Note_off_c, 0, 76, 64
1, 2507, Note_on_c, 0, 78, 20
1, 2507, Note_on_c, 0, 95, 14
1, 2508, Note_on_c, 0, 29, 81
1, 2508, Note_off_c, 0, 30, 64
1, 2509, Note_off_c, 0, 64, 64
1, 2509, Note_off_c, 0, 69, 64
1, 2510, Note_off_c, 0, 29, 64
1, 2510, Note_on_c, 0, 30, 78
1, 2510, Note_on_c, 0, 64, 32
1, 2510, Note_off_c, 0, 73, 64
1, 2510, Note_on_c, 0, 76, 36
1, 2510, Note_off_c, 0, 78, 64
1, 2510, Note_on_c, 0, 92, 14
1, 2511, Note_on_c, 0, 69, 28
1, 2511, Note_on_c, 0, 73, 35
1, 2511, Note_on_c, 0, 78, 20
1, 2512, Note_on_c, 0, 29, 76
1, 2512, Note_off_c, 0, 30, 64
1, 2513, Note_on_c, 0, 61, 26
1, 2513, Note_on_c, 0, 91, 16
1, 2513, Note_off_c, 0, 92, 64
1, 2513, Note_off_c, 0, 95, 64
1, 2514, Note_off_c, 0, 69, 64
1, 2515, Note_off_c, 0, 29, 64
1, 2515, Note_on_c, 0, 30, 75
1, 2515, Note_off_c, 0, 64, 64
1, 2515, Note_on_c, 0, 69, 48
1, 2515, Note_on_c, 0, 83, 17
1, 2516, Note_off_c, 0, 30, 64
1, 2516, Note_on_c, 0, 31, 79
1, 2516, Note_on_c, 0, 64, 32
1, 2516, Note_off_c, 0, 73, 64
1, 2516, Note_off_c, 0, 78, 64
1, 2517, Note_on_c, 0, 30, 82
1, 2517, Note_off_c, 0, 31, 64
1, 2517, Note_on_c, 0, 85, 16
1, 2518, Note_on_c, 0, 29, 81
1, 2518, Note_off_c, 0, 30, 64
1, 2518, Note_off_c, 0, 64, 64
1, 2518, Note_on_c, 0, 79, 18
1, 2518, Note_on_c, 0, 87, 19
1, 2519, Note_off_c, 0, 29, 64
1, 2519, Note_on_c, 0, 30, 78
1, 2519, Note_off_c, 0, 61, 64
1, 2519, Note_on_c, 0, 64, 35
1, 2520, Note_on_c, 0, 82, 13
1, 2520, Note_on_c, 0, 86, 14
1, 2521, Note_off_c, 0, 87, 64
1, 2521, Note_off_c, 0, 88, 64
1, 2522, Note_off_c, 0, 30, 64
1, 2522, Note_on_c, 0, 34, 70
1, 2522, Note_off_c, 0, 64, 64
1, 2523, Note_off_c, 0, 34, 64
1, 2523, Note_on_c, 0, 74, 12
1, 2523, Note_off_c, 0, 76, 64
1, 2523, Note_off_c, 0, 82, 64
1, 2523, Note_off_c, 0, 83, 64
1, 2523, Note_off_c, 0, 85, 64
1, 2523, Note_on_c, 0, 88, 16
1, 2524, Note_off_c, 0, 86, 64
1, 2524, Note_off_c, 0, 91, 64
1, 2525, Note_on_c, 0, 64, 23
1, 2525, Note_on_c, 0, 76, 23
1, 2525, Note_off_c, 0, 79, 64
1, 2526, Note_on_c, 0, 45, 79
1, 2526, Note_off_c, 0, 74, 64
1, 2526, Note_off_c, 0, 88, 64
1, 2527, Note_on_c, 0, 42, 90
1, 2527, Note_off_c, 0, 45, 64
1, 2528, Note_on_c, 0, 41, 97
1, 2528, Note_off_c, 0, 42, 64
1, 2529, Note_on_c, 0, 39, 95
1, 2529, Note_off_c, 0, 41, 64
1, 2529, Note_off_c, 0, 64, 64
1, 2529, Note_off_c, 0, 76, 64
1, 2530, Note_on_c, 0, 37, 98
1, 2530, Note_off_c, 0, 39, 64
1, 2530, Note_on_c, 0, 76, 20
1, 2531, Note_on_c, 0, 36, 97
1, 2531, Note_off_c, 0, 37, 64
1, 2532, Note_on_c, 0, 35, 96
1, 2532, Note_off_c, 0, 36, 64
1, 2533, Note_on_c, 0, 34, 96
1, 2533, Note_off_c, 0, 35, 64
1, 2534, Note_on_c, 0, 33, 96
1, 2534, Note_off_c, 0, 34, 64
1, 2534, Note_off_c, 0, 69, 64
1, 2535, Note_on_c, 0, 32, 97
1, 2535, Note_off_c, 0, 33, 64
1, 2536, Note_on_c, 0, 31, 96
1, 2536, Note_off_c, 0, 32, 64
1, 2536, Note_on_c, 0, 64, 23
1, 2536, Note_off_c, 0, 76, 64
1, 2537, Note_on_c, 0, 85, 11
1, 2537, Note_on_c, 0, 89, 9
1, 2539, Note_on_c, 0, 30, 82
1, 2539, Note_off_c, 0, 31, 64
1, 2539, Note_off_c, 0, 64, 64
1, 2539, Note_on_c, 0, 75, 18
1, 2540, Note_on_c, 0, 84, 12
1, 2540, Note_off_c, 0, 89, 64
1, 2541, Note_off_c, 0, 30, 64
1, 2541, Note_on_c, 0, 79, 13
1, 2541, Note_on_c, 0, 81, 26
1, 2542, Note_off_c, 0, 85, 64
1, 2543, Note_on_c, 0, 36, 70
1, 2543, Note_on_c, 0, 64, 26
1, 2543, Note_on_c, 0, 73, 29
1, 2543, Note_off_c, 0, 75, 64
1, 2544, Note_on_c, 0, 31, 78
1, 2544, Note_off_c, 0, 36, 64
1, 2544, Note_off_c, 0, 84, 64
1, 2544, Note_on_c, 0, 95, 14
1, 2544, Note_on_c, 0, 97, 10
1, 2545, Note_on_c, 0, 29, 82
1, 2545, Note_off_c, 0, 31, 64
1, 2545, Note_on_c, 0, 69, 45
1, 2545, Note_on_c, 0, 78, 18
1, 2545, Note_off_c, 0, 79, 64
1, 2545, Note_on_c, 0, 98, 9
1, 2546, Note_on_c, 0, 86, 9
1, 2546, Note_on_c, 0, 89, 10
1, 2547, Note_off_c, 0, 29, 64
1, 2547, Note_on_c, 0, 30, 78
1, 2547, Note_on_c, 0, 72, 17
1, 2547, Note_off_c, 0, 73, 64
1, 2548, Note_off_c, 0, 64, 64
1, 2548, Note_on_c, 0, 74, 15
1, 2548, Note_off_c, 0, 95, 64
1, 2549, Note_on_c, 0, 29, 76
1, 2549, Note_off_c, 0, 30, 64
1, 2549, Note_on_c, 0, 61, 19
1, 2549, Note_off_c, 0, 81, 64
1, 2549, Note_off_c, 0, 89, 64
1, 2549, Note_off_c, 0, 97, 64
1, 2549, Note_off_c, 0, 98, 64
1, 2550, Note_on_c, 0, 64, 40
1, 2550, Note_off_c, 0, 86, 64
1, 2550, Note_on_c, 0, 91, 18
1, 2551, Note_off_c, 0, 69, 64
1, 2551, Note_on_c, 0, 73, 30
1, 2551, Note_off_c, 0, 74, 64
1, 2551, Note_on_c, 0, 77, 15
1, 2551, Note_on_c, 0, 98, 11
1, 2552, Note_off_c, 0, 29, 64
1, 2552, Note_on_c, 0, 30, 81
1, 2552, Note_off_c, 0, 61, 64
1, 2552, Note_on_c, 0, 69, 49
1, 2552, Note_off_c, 0, 72, 64
1, 2552, Note_off_c, 0, 78, 64
1, 2552, Note_on_c, 0, 79, 21
1, 2553, Note_on_c, 0, 92, 14
1, 2554, Note_off_c, 0, 77, 64
1, 2555, Note_on_c, 0, 29, 81
1, 2555, Note_off_c, 0, 30, 64
1, 2555, Note_on_c, 0, 96, 11
1, 2556, Note_off_c, 0, 29, 64
1, 2556, Note_on_c, 0, 30, 79
1, 2556, Note_on_c, 0, 75, 28
1, 2556, Note_off_c, 0, 98, 64
1, 2557, Note_off_c, 0, 64, 64
1, 2557, Note_on_c, 0, 72, 27
1, 2557, Note_off_c, 0, 73, 64
1, 2557, Note_off_c, 0, 91, 64
1, 2558, Note_on_c, 0, 64, 37
1, 2558, Note_on_c, 0, 89, 12
1, 2558, Note_on_c, 0, 95, 11
1, 2559, Note_off_c, 0, 30, 64
1, 2559, Note_on_c, 0, 33, 71
1, 2559, Note_off_c, 0, 92, 64
1, 2559, Note_off_c, 0, 96, 64
1, 2560, Note_off_c, 0, 33, 64
1, 2560, Note_off_c, 0, 79, 64
1, 2561, Note_on_c, 0, 60, 13
1, 2561, Note_off_c, 0, 64, 64
1, 2561, Note_off_c, 0, 72, 64
1, 2561, Note_off_c, 0, 75, 64
1, 2561, Note_off_c, 0, 95, 64
1, 2562, Note_on_c, 0, 83, 14
1, 2563, Note_on_c, 0, 48, 72
1, 2563, Note_off_c, 0, 69, 64
1, 2563, Note_on_c, 0, 81, 14
1, 2563, Note_off_c, 0, 89, 64
1, 2564, Note_on_c, 0, 45, 87
1, 2564, Note_off_c, 0, 48, 64
1, 2564, Note_off_c, 0, 60, 64
1, 2564, Note_on_c, 0, 69, 34
1, 2564, Note_on_c, 0, 76, 16
1, 2565, Note_on_c, 0, 42, 96
1, 2565, Note_off_c, 0, 45, 64
1, 2565, Note_on_c, 0, 75, 16
1, 2565, Note_off_c, 0, 83, 64
1, 2566, Note_on_c, 0, 40, 97
1, 2566, Note_off_c, 0, 42, 64
1, 2566, Note_on_c, 0, 64, 17
1, 2567, Note_on_c, 0, 38, 98
1, 2567, Note_off_c, 0, 40, 64
1, 2567, Note_off_c, 0, 76, 64
1, 2568, Note_on_c, 0, 37, 98
1, 2568, Note_off_c, 0, 38, 64
1, 2568, Note_off_c, 0, 75, 64
1, 2568, Note_off_c, 0, 81, 64
1, 2569, Note_on_c, 0, 35, 97
1, 2569, Note_off_c, 0, 37, 64
1, 2570, Note_on_c, 0, 34, 96
1, 2570, Note_off_c, 0, 35, 64
1, 2570, Note_off_c, 0, 64, 64
1, 2570, Note_on_c, 0, 75, 23
1, 2571, Note_on_c, 0, 33, 96
1, 2571, Note_off_c, 0, 34, 64
1, 2572, Note_on_c, 0, 32, 96
1, 2572, Note_off_c, 0, 33, 64
1, 2572, Note_off_c, 0, 69, 64
1, 2572, Note_on_c, 0, 76, 19
1, 2573, Note_on_c, 0, 69, 40
1, 2574, Note_on_c, 0, 31, 95
1, 2574, Note_off_c, 0, 32, 64
1, 2575, Note_off_c, 0, 76, 64
1, 2576, Note_on_c, 0, 30, 86
1, 2576, Note_off_c, 0, 31, 64
1, 2577, Note_on_c, 0, 84, 10
1, 2578, Note_off_c, 0, 30, 64
1, 2578, Note_on_c, 0, 57, 22
1, 2578, Note_on_c, 0, 61, 13
1, 2579, Note_on_c, 0, 93, 17
1, 2579, Note_on_c, 0, 95, 12
1, 2580, Note_on_c, 0, 37, 65
1, 2580, Note_off_c, 0, 69, 64
1, 2580, Note_on_c, 0, 70, 37
1, 2580, Note_on_c, 0, 76, 14
1, 2581, Note_on_c, 0, 31, 74
1, 2581, Note_off_c, 0, 37, 64
1, 2581, Note_off_c, 0, 57, 64
1, 2581, Note_off_c, 0, 61, 64
1, 2581, Note_on_c, 0, 64, 33
1, 2581, Note_off_c, 0, 75, 64
1, 2581, Note_on_c, 0, 81, 26
1, 2581, Note_off_c, 0, 84, 64
1, 2582, Note_on_c, 0, 30, 81
1, 2582, Note_off_c, 0, 31, 64
1, 2582, Note_on_c, 0, 69, 48
1, 2582, Note_off_c, 0, 70, 64
1, 2582, Note_on_c, 0, 77, 12
1, 2582, Note_off_c, 0, 93, 64
1, 2582, Note_on_c, 0, 94, 20
1, 2582, Note_off_c, 0, 95, 64
1, 2583, Note_on_c, 0, 29, 81
1, 2583, Note_off_c, 0, 30, 64
1, 2583, Note_on_c, 0, 92, 19
1, 2584, Note_off_c, 0, 29, 64
1, 2584, Note_on_c, 0, 30, 78
1, 2584, Note_off_c, 0, 64, 64
1, 2584, Note_off_c, 0, 76, 64
1, 2584, Note_on_c, 0, 78, 21
1, 2584, Note_on_c, 0, 98, 11
1, 2585, Note_on_c, 0, 63, 31
1, 2585, Note_on_c, 0, 74, 14
1, 2585, Note_off_c, 0, 77, 64
1, 2585, Note_on_c, 0, 83, 20
1, 2585, Note_on_c, 0, 86, 16
1, 2586, Note_on_c, 0, 77, 20
1, 2586, Note_on_c, 0, 96, 14
1, 2587, Note_on_c, 0, 29, 76
1, 2587, Note_off_c, 0, 30, 64
1, 2587, Note_off_c, 0, 78, 64
1, 2587, Note_on_c, 0, 97, 14
1, 2588, Note_off_c, 0, 63, 64
1, 2588, Note_on_c, 0, 66, 33
1, 2588, Note_off_c, 0, 74, 64
1, 2588, Note_off_c, 0, 81, 64
1, 2588, Note_off_c, 0, 98, 64
1, 2589, Note_on_c, 0, 75, 28
1, 2589, Note_off_c, 0, 83, 64
1, 2589, Note_off_c, 0, 86, 64
1, 2589, Note_on_c, 0, 88, 18
1, 2590, Note_off_c, 0, 29, 64
1, 2590, Note_on_c, 0, 30, 75
1, 2590, Note_on_c, 0, 64, 24
1, 2590, Note_off_c, 0, 66, 64
1, 2590, Note_off_c, 0, 77, 64
1, 2590, Note_on_c, 0, 78, 17
1, 2590, Note_on_c, 0, 80, 29
1, 2590, Note_off_c, 0, 97, 64
1, 2591, Note_off_c, 0, 30, 64
1, 2591, Note_on_c, 0, 31, 80
1, 2591, Note_on_c, 0, 72, 27
1, 2591, Note_on_c, 0, 77, 29
1, 2591, Note_on_c, 0, 85, 16
1, 2592, Note_on_c, 0, 30, 82
1, 2592, Note_off_c, 0, 31, 64
1, 2592, Note_on_c, 0, 99, 13
1, 2593, Note_on_c, 0, 29, 81
1, 2593, Note_off_c, 0, 30, 64
1, 2593, Note_on_c, 0, 68, 43
1, 2593, Note_off_c, 0, 69, 64
1, 2593, Note_off_c, 0, 77, 64
1, 2593, Note_off_c, 0, 78, 64
1, 2593, Note_on_c, 0, 82, 14
1, 2593, Note_off_c, 0, 92, 64
1, 2593, Note_on_c, 0, 93, 18
1, 2594, Note_off_c, 0, 29, 64
1, 2594, Note_on_c, 0, 30, 78
1, 2594, Note_off_c, 0, 64, 64
1, 2594, Note_off_c, 0, 75, 64
1, 2594, Note_off_c, 0, 80, 64
1, 2594, Note_off_c, 0, 85, 64
1, 2594, Note_off_c, 0, 88, 64
1, 2595, Note_on_c, 0, 48, 44
1, 2595, Note_on_c, 0, 64, 31
1, 2595, Note_off_c, 0, 68, 64
1, 2595, Note_on_c, 0, 69, 50
1, 2595, Note_off_c, 0, 72, 64
1, 2596, Note_off_c, 0, 30, 64
1, 2596, Note_on_c, 0, 31, 70
1, 2596, Note_on_c, 0, 57, 23
1, 2596, Note_on_c, 0, 74, 19
1, 2596, Note_off_c, 0, 82, 64
1, 2597, Note_off_c, 0, 31, 64
1, 2597, Note_on_c, 0, 34, 68
1, 2597, Note_off_c, 0, 48, 64
1, 2597, Note_on_c, 0, 87, 26
1, 2597, Note_off_c, 0, 94, 64
1, 2597, Note_off_c, 0, 96, 64
1, 2597, Note_off_c, 0, 99, 64
1, 2598, Note_off_c, 0, 34, 64
1, 2598, Note_off_c, 0, 64, 64
1, 2598, Note_on_c, 0, 76, 29
1, 2598, Note_on_c, 0, 84, 28
1, 2598, Note_on_c, 0, 89, 26
1, 2598, Note_on_c, 0, 90, 23
1, 2598, Note_off_c, 0, 93, 64
1, 2599, Note_off_c, 0, 57, 64
1, 2599, Note_off_c, 0, 74, 64
1, 2599, Note_on_c, 0, 80, 18
1, 2600, Note_on_c, 0, 48, 66
1, 2600, Note_on_c, 0, 64, 27
1, 2600, Note_on_c, 0, 78, 19
1, 2600, Note_on_c, 0, 85, 24
1, 2600, Note_on_c, 0, 88, 29
1, 2601, Note_on_c, 0, 45, 83
1, 2601, Note_off_c, 0, 48, 64
1, 2601, Note_off_c, 0, 69, 64
1, 2601, Note_off_c, 0, 87, 64
1, 2601, Note_off_c, 0, 89, 64
1, 2602, Note_on_c, 0, 42, 93
1, 2602, Note_off_c, 0, 45, 64
1, 2602, Note_on_c, 0, 59, 19
1, 2602, Note_on_c, 0, 75, 28
1, 2602, Note_off_c, 0, 76, 64
1, 2602, Note_on_c, 0, 81, 13
1, 2603, Note_on_c, 0, 41, 98
1, 2603, Note_off_c, 0, 42, 64
1, 2603, Note_on_c, 0, 69, 31
1, 2603, Note_off_c, 0, 80, 64
1, 2603, Note_off_c, 0, 84, 64
1, 2603, Note_off_c, 0, 90, 64
1, 2604, Note_on_c, 0, 38, 96
1, 2604, Note_off_c, 0, 41, 64
1, 2604, Note_on_c, 0, 63, 19
1, 2604, Note_off_c, 0, 64, 64
1, 2604, Note_on_c, 0, 77, 18
1, 2604, Note_off_c, 0, 85, 64
1, 2604, Note_off_c, 0, 88, 64
1, 2605, Note_on_c, 0, 37, 98
1, 2605, Note_off_c, 0, 38, 64
1, 2605, Note_on_c, 0, 74, 19
1, 2605, Note_off_c, 0, 75, 64
1, 2605, Note_off_c, 0, 78, 64
1, 2605, Note_off_c, 0, 81, 64
1, 2606, Note_on_c, 0, 36, 98
1, 2606, Note_off_c, 0, 37, 64
1, 2606, Note_off_c, 0, 69, 64
1, 2607, Note_on_c, 0, 35, 96
1, 2607, Note_off_c, 0, 36, 64
1, 2607, Note_off_c, 0, 77, 64
1, 2608, Note_on_c, 0, 34, 96
1, 2608, Note_off_c, 0, 35, 64
1, 2608, Note_off_c, 0, 63, 64
1, 2608, Note_on_c, 0, 69, 28
1, 2608, Note_on_c, 0, 78, 20
1, 2609, Note_on_c, 0, 33, 97
1, 2609, Note_off_c, 0, 34, 64
1, 2609, Note_off_c, 0, 74, 64
1, 2609, Note_on_c, 0, 80, 15
1, 2610, Note_on_c, 0, 32, 97
1, 2610, Note_off_c, 0, 33, 64
1, 2610, Note_on_c, 0, 67, 17
1, 2611, Note_on_c, 0, 31, 96
1, 2611, Note_off_c, 0, 32, 64
1, 2611, Note_off_c, 0, 78, 64
1, 2612, Note_off_c, 0, 59, 64
1, 2612, Note_on_c, 0, 77, 14
1, 2612, Note_on_c, 0, 89, 22
1, 2613, Note_on_c, 0, 59, 30
1, 2613, Note_on_c, 0, 75, 28
1, 2614, Note_on_c, 0, 30, 80
1, 2614, Note_off_c, 0, 31, 64
1, 2614, Note_off_c, 0, 67, 64
1, 2614, Note_on_c, 0, 85, 21
1, 2615, Note_off_c, 0, 69, 64
1, 2615, Note_on_c, 0, 70, 35
1, 2616, Note_off_c, 0, 30, 64
1, 2616, Note_off_c, 0, 75, 64
1, 2616, Note_off_c, 0, 80, 64
1, 2616, Note_on_c, 0, 91, 31
1, 2616, Note_on_c, 0, 96, 20
1, 2616, Note_on_c, 0, 98, 17
1, 2616, Note_on_c, 0, 99, 21
1, 2616, Note_on_c, 0, 102, 19
1, 2617, Note_on_c, 0, 36, 71
1, 2617, Note_off_c, 0, 59, 64
1, 2617, Note_on_c, 0, 69, 42
1, 2617, Note_off_c, 0, 70, 64
1, 2617, Note_off_c, 0, 77, 64
1, 2617, Note_on_c, 0, 83, 14
1, 2617, Note_on_c, 0, 90, 16
1, 2617, Note_on_c, 0, 95, 18
1, 2618, Note_on_c, 0, 59, 42
1, 2618, Note_on_c, 0, 77, 28
1, 2618, Note_on_c, 0, 88, 20
1, 2618, Note_off_c, 0, 89, 64
1, 2619, Note_on_c, 0, 31, 78
1, 2619, Note_off_c, 0, 36, 64
1, 2619, Note_on_c, 0, 80, 18
1, 2619, Note_off_c, 0, 91, 64
1, 2619, Note_on_c, 0, 93, 18
1, 2619, Note_on_c, 0, 94, 14
1, 2620, Note_on_c, 0, 29, 81
1, 2620, Note_off_c, 0, 31, 64
1, 2620, Note_on_c, 0, 68, 36
1, 2620, Note_on_c, 0, 84, 27
1, 2620, Note_off_c, 0, 85, 64
1, 2620, Note_off_c, 0, 95, 64
1, 2620, Note_off_c, 0, 99, 64
1, 2620, Note_on_c, 0, 101, 13
1, 2620, Note_off_c, 0, 102, 64
1, 2621, Note_off_c, 0, 69, 64
1, 2621, Note_on_c, 0, 75, 31
1, 2621, Note_off_c, 0, 83, 64
1, 2621, Note_off_c, 0, 90, 64
1, 2622, Note_off_c, 0, 29, 64
1, 2622, Note_on_c, 0, 30, 78
1, 2622, Note_off_c, 0, 68, 64
1, 2622, Note_on_c, 0, 73, 36
1, 2623, Note_off_c, 0, 59, 64
1, 2623, Note_on_c, 0, 99, 20
1, 2624, Note_on_c, 0, 29, 76
1, 2624, Note_off_c, 0, 30, 64
1, 2624, Note_on_c, 0, 69, 50
1, 2624, Note_on_c, 0, 78, 29
1, 2624, Note_on_c, 0, 95, 9
1, 2624, Note_on_c, 0, 102, 11
1, 2625, Note_on_c, 0, 64, 44
1, 2625, Note_off_c, 0, 80, 64
1, 2625, Note_on_c, 0, 83, 21
1, 2625, Note_off_c, 0, 93, 64
1, 2625, Note_off_c, 0, 96, 64
1, 2626, Note_on_c, 0, 68, 46
1, 2626, Note_off_c, 0, 69, 64
1, 2626, Note_on_c, 0, 72, 28
1, 2626, Note_off_c, 0, 73, 64
1, 2626, Note_off_c, 0, 77, 64
1, 2626, Note_off_c, 0, 84, 64
1, 2626, Note_on_c, 0, 92, 10
1, 2626, Note_off_c, 0, 101, 64
1, 2627, Note_off_c, 0, 29, 64
1, 2627, Note_on_c, 0, 30, 74
1, 2627, Note_on_c, 0, 69, 42
1, 2627, Note_off_c, 0, 88, 64
1, 2627, Note_off_c, 0, 94, 64
1, 2627, Note_on_c, 0, 96, 17
1, 2628, Note_off_c, 0, 30, 64
1, 2628, Note_on_c, 0, 31, 78
1, 2628, Note_on_c, 0, 63, 44
1, 2628, Note_off_c, 0, 64, 64
1, 2628, Note_off_c, 0, 68, 64
1, 2628, Note_on_c, 0, 76, 20
1, 2628, Note_off_c, 0, 95, 64
1, 2628, Note_off_c, 0, 98, 64
1, 2629, Note_on_c, 0, 30, 81
1, 2629, Note_off_c, 0, 31, 64
1, 2629, Note_on_c, 0, 68, 51
1, 2629, Note_off_c, 0, 69, 64
1, 2629, Note_off_c, 0, 72, 64
1, 2629, Note_off_c, 0, 75, 64
1, 2629, Note_off_c, 0, 78, 64
1, 2629, Note_on_c, 0, 85, 27
1, 2629, Note_off_c, 0, 102, 64
1, 2630, Note_on_c, 0, 29, 81
1, 2630, Note_off_c, 0, 30, 64
1, 2630, Note_on_c, 0, 78, 31
1, 2630, Note_off_c, 0, 83, 64
1, 2630, Note_on_c, 0, 91, 12
1, 2630, Note_off_c, 0, 92, 64
1, 2631, Note_off_c, 0, 29, 64
1, 2631, Note_on_c, 0, 30, 78
1, 2631, Note_on_c, 0, 60, 29
1, 2631, Note_off_c, 0, 76, 64
1, 2631, Note_off_c, 0, 99, 64
1, 2632, Note_on_c, 0, 89, 15
1, 2633, Note_off_c, 0, 60, 64
1, 2633, Note_off_c, 0, 63, 64
1, 2633, Note_off_c, 0, 91, 64
1, 2633, Note_on_c, 0, 94, 13
1, 2634, Note_off_c, 0, 30, 64
1, 2634, Note_on_c, 0, 33, 71
1, 2634, Note_off_c, 0, 68, 64
1, 2634, Note_on_c, 0, 69, 49
1, 2634, Note_off_c, 0, 96, 64
1, 2635, Note_off_c, 0, 33, 64
1, 2635, Note_on_c, 0, 82, 32
1, 2635, Note_on_c, 0, 102, 15
1, 2636, Note_on_c, 0, 73, 32
1, 2636, Note_on_c, 0, 87, 17
1, 2636, Note_on_c, 0, 91, 26
1, 2636, Note_off_c, 0, 94, 64
1, 2636, Note_on_c, 0, 96, 19
1, 2636, Note_on_c, 0, 98, 24
1, 2637, Note_off_c, 0, 69, 64
1, 2637, Note_on_c, 0, 75, 36
1, 2637, Note_on_c, 0, 88, 14
1, 2637, Note_off_c, 0, 89, 64
1, 2637, Note_on_c, 0, 95, 17
1, 2638, Note_on_c, 0, 47, 74
1, 2638, Note_on_c, 0, 64, 30
1, 2639, Note_on_c, 0, 44, 88
1, 2639, Note_off_c, 0, 47, 64
1, 2639, Note_on_c, 0, 67, 28
1, 2639, Note_on_c, 0, 69, 23
1, 2639, Note_on_c, 0, 79, 28
1, 2639, Note_off_c, 0, 87, 64
1, 2639, Note_off_c, 0, 96, 64
1, 2639, Note_off_c, 0, 102, 64
1, 2640, Note_on_c, 0, 41, 97
1, 2640, Note_off_c, 0, 44, 64
1, 2640, Note_off_c, 0, 64, 64
1, 2640, Note_off_c, 0, 73, 64
1, 2640, Note_off_c, 0, 75, 64
1, 2640, Note_off_c, 0, 78, 64
1, 2640, Note_off_c, 0, 91, 64
1, 2641, Note_on_c, 0, 40, 96
1, 2641, Note_off_c, 0, 41, 64
1, 2641, Note_on_c, 0, 73, 29
1, 2641, Note_on_c, 0, 76, 36
1, 2641, Note_off_c, 0, 85, 64
1, 2641, Note_off_c, 0, 88, 64
1, 2641, Note_on_c, 0, 89, 12
1, 2642, Note_on_c, 0, 38, 97
1, 2642, Note_off_c, 0, 40, 64
1, 2642, Note_off_c, 0, 67, 64
1, 2642, Note_on_c, 0, 74, 32
1, 2642, Note_on_c, 0, 92, 14
1, 2642, Note_off_c, 0, 95, 64
1, 2643, Note_on_c, 0, 36, 97
1, 2643, Note_off_c, 0, 38, 64
1, 2643, Note_on_c, 0, 62, 25
1, 2643, Note_on_c, 0, 66, 18
1, 2643, Note_off_c, 0, 69, 64
1, 2643, Note_on_c, 0, 70, 22
1, 2643, Note_off_c, 0, 73, 64
1, 2643, Note_off_c, 0, 76, 64
1, 2643, Note_on_c, 0, 77, 28
1, 2643, Note_on_c, 0, 78, 31
1, 2643, Note_off_c, 0, 79, 64
1, 2643, Note_on_c, 0, 83, 13
1, 2644, Note_on_c, 0, 35, 97
1, 2644, Note_off_c, 0, 36, 64
1, 2644, Note_on_c, 0, 85, 15
1, 2645, Note_on_c, 0, 34, 96
1, 2645, Note_off_c, 0, 35, 64
1, 2645, Note_on_c, 0, 79, 31
1, 2645, Note_off_c, 0, 82, 64
1, 2646, Note_on_c, 0, 33, 96
1, 2646, Note_off_c, 0, 34, 64
1, 2646, Note_off_c, 0, 62, 64
1, 2646, Note_on_c, 0, 64, 31
1, 2646, Note_off_c, 0, 66, 64
1, 2646, Note_off_c, 0, 70, 64
1, 2646, Note_off_c, 0, 78, 64
1, 2646, Note_off_c, 0, 83, 64
1, 2646, Note_on_c, 0, 84, 21
1, 2646, Note_on_c, 0, 88, 15
1, 2646, Note_off_c, 0, 89, 64
1, 2646, Note_on_c, 0, 99, 13
1, 2647, Note_on_c, 0, 32, 96
1, 2647, Note_off_c, 0, 33, 64
1, 2647, Note_off_c, 0, 74, 64
1, 2647, Note_off_c, 0, 77, 64
1, 2647, Note_on_c, 0, 78, 35
1, 2647, Note_off_c, 0, 85, 64
1, 2647, Note_off_c, 0, 92, 64
1, 2647, Note_off_c, 0, 98, 64
1, 2648, Note_off_c, 0, 64, 64
1, 2648, Note_on_c, 0, 83, 10
1, 2648, Note_on_c, 0, 97, 15
1, 2649, Note_on_c, 0, 31, 95
1, 2649, Note_off_c, 0, 32, 64
1, 2649, Note_on_c, 0, 66, 31
1, 2649, Note_off_c, 0, 79, 64
1, 2649, Note_on_c, 0, 87, 20
1, 2649, Note_on_c, 0, 89, 21
1, 2649, Note_on_c, 0, 95, 13
1, 2649, Note_off_c, 0, 99, 64
1, 2650, Note_on_c, 0, 69, 39
1, 2650, Note_on_c, 0, 75, 34
1, 2650, Note_on_c, 0, 94, 15
1, 2651, Note_on_c, 0, 30, 84
1, 2651, Note_off_c, 0, 31, 64
1, 2651, Note_off_c, 0, 66, 64
1, 2651, Note_off_c, 0, 83, 64
1, 2651, Note_off_c, 0, 88, 64
1, 2652, Note_off_c, 0, 84, 64
1, 2652, Note_on_c, 0, 96, 14
1, 2652, Note_off_c, 0, 97, 64
1, 2653, Note_off_c, 0, 30, 64
1, 2653, Note_on_c, 0, 64, 33
1, 2653, Note_on_c, 0, 68, 28
1, 2653, Note_off_c, 0, 78, 64
1, 2653, Note_on_c, 0, 79, 27
1, 2653, Note_on_c, 0, 83, 33
1, 2653, Note_on_c, 0, 86, 19
1, 2654, Note_off_c, 0, 69, 64
1, 2654, Note_on_c, 0, 71, 26
1, 2654, Note_off_c, 0, 87, 64
1, 2654, Note_off_c, 0, 89, 64
1, 2654, Note_on_c, 0, 90, 28
1, 2654, Note_on_c, 0, 97, 9
1, 2654, Note_on_c, 0, 99, 12
1, 2655, Note_on_c, 0, 37, 65
1, 2655, Note_on_c, 0, 62, 40
1, 2655, Note_off_c, 0, 64, 64
1, 2655, Note_off_c, 0, 75, 64
1, 2655, Note_on_c, 0, 77, 24
1, 2655, Note_on_c, 0, 80, 32
1, 2655, Note_on_c, 0, 82, 31
1, 2655, Note_off_c, 0, 83, 64
1, 2655, Note_on_c, 0, 84, 30
1, 2655, Note_on_c, 0, 85, 26
1, 2655, Note_on_c, 0, 89, 31
1, 2655, Note_off_c, 0, 96, 64
1, 2656, Note_on_c, 0, 31, 73
1, 2656, Note_off_c, 0, 37, 64
1, 2656, Note_on_c, 0, 76, 32
1, 2656, Note_off_c, 0, 79, 64
1, 2657, Note_on_c, 0, 30, 80
1, 2657, Note_off_c, 0, 31, 64
1, 2657, Note_off_c, 0, 62, 64
1, 2657, Note_off_c, 0, 68, 64
1, 2657, Note_on_c, 0, 69, 39
1, 2657, Note_off_c, 0, 80, 64
1, 2657, Note_off_c, 0, 82, 64
1, 2657, Note_off_c, 0, 86, 64
1, 2657, Note_off_c, 0, 97, 64
1, 2657, Note_off_c, 0, 99, 64
1, 2658, Note_on_c, 0, 29, 79
1, 2658, Note_off_c, 0, 30, 64
1, 2658, Note_on_c, 0, 64, 40
1, 2658, Note_off_c, 0, 71, 64
1, 2658, Note_off_c, 0, 84, 64
1, 2658, Note_off_c, 0, 90, 64
1, 2658, Note_on_c, 0, 102, 16
1, 2659, Note_off_c, 0, 29, 64
1, 2659, Note_on_c, 0, 30, 77
1, 2659, Note_off_c, 0, 76, 64
1, 2659, Note_on_c, 0, 78, 29
1, 2659, Note_on_c, 0, 86, 14
1, 2659, Note_off_c, 0, 95, 64
1, 2659, Note_on_c, 0, 96, 20
1, 2660, Note_on_c, 0, 68, 56
1, 2660, Note_off_c, 0, 69, 64
1, 2660, Note_on_c, 0, 82, 19
1, 2660, Note_on_c, 0, 84, 27
1, 2660, Note_off_c, 0, 85, 64
1, 2661, Note_on_c, 0, 63, 29
1, 2661, Note_off_c, 0, 64, 64
1, 2661, Note_on_c, 0, 74, 23
1, 2661, Note_off_c, 0, 78, 64
1, 2661, Note_on_c, 0, 87, 16
1, 2662, Note_on_c, 0, 29, 74
1, 2662, Note_off_c, 0, 30, 64
1, 2662, Note_off_c, 0, 77, 64
1, 2662, Note_on_c, 0, 78, 26
1, 2662, Note_off_c, 0, 89, 64
1, 2663, Note_off_c, 0, 63, 64
1, 2663, Note_on_c, 0, 89, 21
1, 2663, Note_off_c, 0, 96, 64
1, 2664, Note_off_c, 0, 82, 64
1, 2664, Note_on_c, 0, 91, 36
1, 2665, Note_off_c, 0, 29, 64
1, 2665, Note_on_c, 0, 30, 75
1, 2665, Note_off_c, 0, 74, 64
1, 2665, Note_on_c, 0, 76, 32
1, 2665, Note_off_c, 0, 86, 64
1, 2665, Note_off_c, 0, 94, 64
1, 2666, Note_off_c, 0, 30, 64
1, 2666, Note_on_c, 0, 31, 79
1, 2666, Note_off_c, 0, 78, 64
1, 2666, Note_on_c, 0, 81, 14
1, 2666, Note_off_c, 0, 84, 64
1, 2666, Note_off_c, 0, 87, 64
1, 2667, Note_on_c, 0, 30, 80
1, 2667, Note_off_c, 0, 31, 64
1, 2667, Note_on_c, 0, 60, 21
1, 2667, Note_on_c, 0, 71, 31
1, 2667, Note_on_c, 0, 84, 19
1, 2667, Note_on_c, 0, 92, 36
1, 2668, Note_on_c, 0, 29, 80
1, 2668, Note_off_c, 0, 30, 64
1, 2668, Note_on_c, 0, 78, 25
1, 2668, Note_on_c, 0, 86, 37
1, 2668, Note_on_c, 0, 90, 37
1, 2668, Note_on_c, 0, 99, 17
1, 2668, Note_off_c, 0, 102, 64
1, 2669, Note_off_c, 0, 29, 64
1, 2669, Note_on_c, 0, 30, 78
1, 2669, Note_off_c, 0, 71, 64
1, 2669, Note_on_c, 0, 72, 33
1, 2669, Note_on_c, 0, 75, 41
1, 2669, Note_off_c, 0, 76, 64
1, 2669, Note_off_c, 0, 81, 64
1, 2670, Note_on_c, 0, 94, 39
1, 2671, Note_off_c, 0, 30, 64
1, 2671, Note_on_c, 0, 31, 72
1, 2671, Note_off_c, 0, 60, 64
1, 2671, Note_off_c, 0, 78, 64
1, 2671, Note_on_c, 0, 82, 43
1, 2671, Note_off_c, 0, 84, 64
1, 2672, Note_off_c, 0, 31, 64
1, 2672, Note_on_c, 0, 35, 69
1, 2672, Note_on_c, 0, 66, 20
1, 2672, Note_off_c, 0, 72, 64
1, 2672, Note_on_c, 0, 88, 32
1, 2672, Note_on_c, 0, 93, 31
1, 2672, Note_on_c, 0, 96, 24
1, 2673, Note_on_c, 0, 50, 64
1, 2673, Note_on_c, 0, 57, 68
1, 2673, Note_on_c, 0, 79, 50
1, 2673, Note_on_c, 0, 81, 33
1, 2673, Note_on_c, 0, 83, 53
1, 2673, Note_on_c, 0, 85, 48
1, 2673, Note_off_c, 0, 89, 64
1, 2674, Note_off_c, 0, 35, 64
1, 2674, Note_off_c, 0, 68, 64
1, 2674, Note_on_c, 0, 71, 30
1, 2674, Note_off_c, 0, 86, 64
1, 2674, Note_on_c, 0, 89, 35
1, 2674, Note_off_c, 0, 99, 64
1, 2675, Note_off_c, 0, 50, 64
1, 2675, Note_on_c, 0, 51, 83
1, 2675, Note_off_c, 0, 57, 64
1, 2675, Note_off_c, 0, 66, 64
1, 2675, Note_on_c, 0, 74, 34
1, 2675, Note_on_c, 0, 78, 60
1, 2675, Note_off_c, 0, 79, 64
1, 2675, Note_off_c, 0, 88, 64
1, 2675, Note_off_c, 0, 90, 64
1, 2676, Note_on_c, 0, 48, 90
1, 2676, Note_off_c, 0, 51, 64
1, 2676, Note_on_c, 0, 70, 26
1, 2676, Note_off_c, 0, 75, 64
1, 2676, Note_on_c, 0, 76, 33
1, 2676, Note_on_c, 0, 79, 54
1, 2676, Note_on_c, 0, 80, 44
1, 2676, Note_off_c, 0, 81, 64
1, 2677, Note_on_c, 0, 42, 91
1, 2677, Note_off_c, 0, 48, 64
1, 2677, Note_off_c, 0, 71, 64
1, 2677, Note_on_c, 0, 73, 40
1, 2677, Note_off_c, 0, 74, 64
1, 2677, Note_off_c, 0, 78, 64
1, 2678, Note_on_c, 0, 40, 94
1, 2678, Note_off_c, 0, 42, 64
1, 2678, Note_on_c, 0, 64, 26
1, 2678, Note_off_c, 0, 79, 64
1, 2678, Note_on_c, 0, 84, 34
1, 2679, Note_on_c, 0, 38, 97
1, 2679, Note_off_c, 0, 40, 64
1, 2679, Note_off_c, 0, 70, 64
1, 2679, Note_on_c, 0, 72, 42
1, 2679, Note_on_c, 0, 79, 34
1, 2679, Note_off_c, 0, 80, 64
1, 2679, Note_on_c, 0, 81, 35
1, 2679, Note_on_c, 0, 87, 43
1, 2679, Note_off_c, 0, 89, 64
1, 2679, Note_on_c, 0, 90, 33
1, 2679, Note_off_c, 0, 91, 64
1, 2680, Note_on_c, 0, 37, 99
1, 2680, Note_off_c, 0, 38, 64
1, 2680, Note_on_c, 0, 57, 27
1, 2680, Note_on_c, 0, 67, 23
1, 2680, Note_off_c, 0, 76, 64
1, 2680, Note_on_c, 0, 77, 39
1, 2680, Note_on_c, 0, 80, 17
1, 2680, Note_off_c, 0, 82, 64
1, 2680, Note_off_c, 0, 96, 64
1, 2681, Note_on_c, 0, 36, 96
1, 2681, Note_off_c, 0, 37, 64
1, 2681, Note_off_c, 0, 64, 64
1, 2681, Note_on_c, 0, 70, 28
1, 2681, Note_off_c, 0, 73, 64
1, 2681, Note_off_c, 0, 81, 64
1, 2682, Note_on_c, 0, 34, 91
1, 2682, Note_off_c, 0, 36, 64
1, 2682, Note_off_c, 0, 72, 64
1, 2682, Note_on_c, 0, 81, 23
1, 2682, Note_off_c, 0, 83, 64
1, 2682, Note_off_c, 0, 84, 64
1, 2682, Note_on_c, 0, 86, 29
1, 2683, Note_on_c, 0, 33, 90
1, 2683, Note_off_c, 0, 34, 64
1, 2683, Note_off_c, 0, 57, 64
1, 2683, Note_off_c, 0, 67, 64
1, 2683, Note_on_c, 0, 75, 35
1, 2683, Note_off_c, 0, 80, 64
1, 2683, Note_on_c, 0, 84, 46
1, 2683, Note_off_c, 0, 93, 64
1, 2684, Note_on_c, 0, 32, 95
1, 2684, Note_off_c, 0, 33, 64
1, 2684, Note_off_c, 0, 77, 64
1, 2684, Note_off_c, 0, 85, 64
1, 2685, Note_on_c, 0, 68, 30
1, 2685, Note_on_c, 0, 76, 28
1, 2685, Note_off_c, 0, 81, 64
1, 2685, Note_on_c, 0, 95, 33
1, 2686, Note_off_c, 0, 79, 64
1, 2686, Note_on_c, 0, 83, 16
1, 2686, Note_on_c, 0, 85, 28
1, 2686, Note_off_c, 0, 86, 64
1, 2687, Note_on_c, 0, 31, 93
1, 2687, Note_off_c, 0, 32, 64
1, 2687, Note_off_c, 0, 68, 64
1, 2688, Note_on_c, 0, 30, 89
1, 2688, Note_off_c, 0, 31, 64
1, 2688, Note_off_c, 0, 70, 64
1, 2688, Note_on_c, 0, 80, 50
1, 2688, Note_on_c, 0, 82, 21
1, 2689, Note_off_c, 0, 75, 64
1, 2689, Note_off_c, 0, 83, 64
1, 2689, Note_off_c, 0, 85, 64
1, 2689, Note_on_c, 0, 86, 14
1, 2689, Note_on_c, 0, 89, 39
1, 2689, Note_on_c, 0, 91, 35
1, 2690, Note_off_c, 0, 30, 64
1, 2690, Note_on_c, 0, 31, 66
1, 2690, Note_on_c, 0, 47, 40
1, 2690, Note_off_c, 0, 76, 64
1, 2690, Note_on_c, 0, 77, 38
1, 2691, Note_off_c, 0, 31, 64
1, 2691, Note_on_c, 0, 55, 59
1, 2691, Note_on_c, 0, 69, 30
1, 2691, Note_on_c, 0, 76, 31
1, 2691, Note_off_c, 0, 82, 64
1, 2691, Note_on_c, 0, 83, 50
1, 2691, Note_on_c, 0, 85, 47
1, 2691, Note_on_c, 0, 93, 36
1, 2692, Note_off_c, 0, 47, 64
1, 2692, Note_on_c, 0, 64, 42
1, 2692, Note_on_c, 0, 71, 38
1, 2692, Note_off_c, 0, 77, 64
1, 2692, Note_on_c, 0, 78, 35
1, 2692, Note_off_c, 0, 86, 64
1, 2692, Note_on_c, 0, 98, 24
1, 2693, Note_on_c, 0, 36, 74
1, 2693, Note_on_c, 0, 75, 46
1, 2693, Note_off_c, 0, 76, 64
1, 2693, Note_on_c, 0, 77, 44
1, 2693, Note_on_c, 0, 81, 46
1, 2693, Note_on_c, 0, 88, 33
1, 2694, Note_on_c, 0, 30, 79
1, 2694, Note_off_c, 0, 36, 64
1, 2694, Note_off_c, 0, 55, 64
1, 2694, Note_on_c, 0, 63, 42
1, 2694, Note_off_c, 0, 64, 64
1, 2694, Note_on_c, 0, 68, 57
1, 2694, Note_off_c, 0, 69, 64
1, 2694, Note_off_c, 0, 71, 64
1, 2694, Note_off_c, 0, 78, 64
1, 2694, Note_on_c, 0, 82, 49
1, 2694, Note_off_c, 0, 83, 64
1, 2695, Note_on_c, 0, 29, 81
1, 2695, Note_off_c, 0, 30, 64
1, 2695, Note_on_c, 0, 49, 69
1, 2695, Note_on_c, 0, 79, 48
1, 2695, Note_off_c, 0, 94, 64
1, 2696, Note_off_c, 0, 29, 64
1, 2696, Note_on_c, 0, 30, 82
1, 2696, Note_on_c, 0, 48, 67
1, 2696, Note_off_c, 0, 49, 64
1, 2696, Note_on_c, 0, 56, 37
1, 2696, Note_on_c, 0, 72, 42
1, 2696, Note_off_c, 0, 75, 64
1, 2696, Note_off_c, 0, 80, 64
1, 2696, Note_on_c, 0, 83, 39
1, 2697, Note_off_c, 0, 30, 64
1, 2697, Note_on_c, 0, 33, 79
1, 2697, Note_off_c, 0, 48, 64
1, 2697, Note_on_c, 0, 73, 40
1, 2697, Note_on_c, 0, 78, 57
1, 2697, Note_off_c, 0, 79, 64
1, 2697, Note_off_c, 0, 82, 64
1, 2697, Note_off_c, 0, 84, 64
1, 2697, Note_off_c, 0, 92, 64
1, 2698, Note_on_c, 0, 30, 75
1, 2698, Note_off_c, 0, 33, 64
1, 2698, Note_on_c, 0, 40, 68
1, 2698, Note_on_c, 0, 62, 35
1, 2698, Note_off_c, 0, 63, 64
1, 2698, Note_off_c, 0, 72, 64
1, 2698, Note_on_c, 0, 76, 38
1, 2698, Note_off_c, 0, 77, 64
1, 2698, Note_off_c, 0, 81, 64
1, 2698, Note_on_c, 0, 82, 21
1, 2698, Note_on_c, 0, 84, 32
1, 2698, Note_on_c, 0, 92, 11
1, 2698, Note_off_c, 0, 98, 64
1, 2699, Note_on_c, 0, 29, 72
1, 2699, Note_off_c, 0, 30, 64
1, 2699, Note_off_c, 0, 40, 64
1, 2699, Note_off_c, 0, 56, 64
1, 2699, Note_on_c, 0, 57, 38
1, 2699, Note_on_c, 0, 65, 34
1, 2699, Note_on_c, 0, 72, 32
1, 2699, Note_off_c, 0, 73, 64
1, 2699, Note_on_c, 0, 75, 41
1, 2699, Note_on_c, 0, 81, 39
1, 2699, Note_off_c, 0, 83, 64
1, 2699, Note_on_c, 0, 86, 25
1, 2699, Note_off_c, 0, 93, 64
1, 2700, Note_off_c, 0, 62, 64
1, 2700, Note_off_c, 0, 76, 64
1, 2700, Note_on_c, 0, 83, 30
1, 2700, Note_off_c, 0, 84, 64
1, 2700, Note_off_c, 0, 90, 64
1, 2701, Note_off_c, 0, 29, 64
1, 2701, Note_on_c, 0, 56, 36
1, 2701, Note_off_c, 0, 57, 64
1, 2701, Note_off_c, 0, 65, 64
1, 2701, Note_off_c, 0, 72, 64
1, 2701, Note_on_c, 0, 73, 45
1, 2701, Note_off_c, 0, 92, 64
1, 2702, Note_on_c, 0, 30, 71
1, 2702, Note_on_c, 0, 65, 41
1, 2702, Note_off_c, 0, 78, 64
1, 2702, Note_off_c, 0, 86, 64
1, 2702, Note_off_c, 0, 87, 64
1, 2702, Note_off_c, 0, 95, 64
1, 2703, Note_off_c, 0, 30, 64
1, 2703, Note_on_c, 0, 31, 78
1, 2703, Note_off_c, 0, 56, 64
1, 2703, Note_off_c, 0, 75, 64
1, 2703, Note_on_c, 0, 76, 45
1, 2703, Note_on_c, 0, 78, 36
1, 2703, Note_on_c, 0, 92, 20
1, 2704, Note_on_c, 0, 30, 79
1, 2704, Note_off_c, 0, 31, 64
1, 2704, Note_off_c, 0, 68, 64
1, 2704, Note_on_c, 0, 71, 21
1, 2704, Note_off_c, 0, 73, 64
1, 2704, Note_on_c, 0, 75, 40
1, 2704, Note_off_c, 0, 82, 64
1, 2704, Note_on_c, 0, 84, 36
1, 2704, Note_off_c, 0, 85, 64
1, 2704, Note_on_c, 0, 86, 28
1, 2705, Note_on_c, 0, 29, 77
1, 2705, Note_off_c, 0, 30, 64
1, 2705, Note_off_c, 0, 65, 64
1, 2705, Note_on_c, 0, 66, 38
1, 2705, Note_on_c, 0, 68, 41
1, 2705, Note_on_c, 0, 73, 26
1, 2705, Note_on_c, 0, 80, 44
1, 2706, Note_off_c, 0, 75, 64
1, 2707, Note_off_c, 0, 29, 64
1, 2707, Note_on_c, 0, 30, 75
1, 2707, Note_on_c, 0, 55, 38
1, 2707, Note_on_c, 0, 62, 41
1, 2707, Note_off_c, 0, 68, 64
1, 2707, Note_off_c, 0, 71, 64
1, 2707, Note_off_c, 0, 86, 64
1, 2707, Note_on_c, 0, 98, 23
1, 2707, Note_on_c, 0, 99, 11
1, 2708, Note_on_c, 0, 72, 33
1, 2708, Note_off_c, 0, 73, 64
1, 2708, Note_off_c, 0, 80, 64
1, 2708, Note_on_c, 0, 82, 22
1, 2708, Note_on_c, 0, 86, 30
1, 2708, Note_off_c, 0, 92, 64
1, 2709, Note_off_c, 0, 30, 64
1, 2709, Note_off_c, 0, 55, 64
1, 2709, Note_on_c, 0, 61, 36
1, 2709, Note_off_c, 0, 62, 64
1, 2709, Note_on_c, 0, 75, 30
1, 2709, Note_off_c, 0, 76, 64
1, 2709, Note_on_c, 0, 77, 40
1, 2709, Note_off_c, 0, 83, 64
1, 2709, Note_on_c, 0, 87, 31
1, 2710, Note_off_c, 0, 78, 64
1, 2710, Note_on_c, 0, 80, 31
1, 2710, Note_off_c, 0, 81, 64
1, 2710, Note_off_c, 0, 88, 64
1, 2711, Note_on_c, 0, 58, 43
1, 2711, Note_off_c, 0, 61, 64
1, 2711, Note_off_c, 0, 66, 64
1, 2711, Note_on_c, 0, 69, 40
1, 2711, Note_off_c, 0, 75, 64
1, 2711, Note_off_c, 0, 82, 64
1, 2711, Note_on_c, 0, 85, 27
1, 2711, Note_on_c, 0, 93, 14
1, 2711, Note_off_c, 0, 98, 64
1, 2712, Note_off_c, 0, 72, 64
1, 2712, Note_on_c, 0, 73, 31
1, 2712, Note_on_c, 0, 83, 33
1, 2712, Note_off_c, 0, 86, 64
1, 2713, Note_on_c, 0, 45, 80
1, 2713, Note_on_c, 0, 64, 16
1, 2713, Note_on_c, 0, 79, 27
1, 2713, Note_off_c, 0, 80, 64
1, 2713, Note_on_c, 0, 82, 28
1, 2713, Note_off_c, 0, 84, 64
1, 2713, Note_on_c, 0, 86, 23
1, 2713, Note_off_c, 0, 91, 64
1, 2714, Note_on_c, 0, 44, 90
1, 2714, Note_off_c, 0, 45, 64
1, 2714, Note_off_c, 0, 58, 64
1, 2714, Note_on_c, 0, 72, 33
1, 2714, Note_off_c, 0, 73, 64
1, 2714, Note_off_c, 0, 83, 64
1, 2714, Note_off_c, 0, 85, 64
1, 2715, Note_on_c, 0, 42, 96
1, 2715, Note_off_c, 0, 44, 64
1, 2715, Note_off_c, 0, 69, 64
1, 2715, Note_on_c, 0, 75, 34
1, 2715, Note_on_c, 0, 83, 25
1, 2715, Note_off_c, 0, 99, 64
1, 2716, Note_on_c, 0, 39, 94
1, 2716, Note_off_c, 0, 42, 64
1, 2716, Note_on_c, 0, 58, 35
1, 2716, Note_on_c, 0, 69, 31
1, 2716, Note_off_c, 0, 72, 64
1, 2716, Note_on_c, 0, 78, 30
1, 2716, Note_off_c, 0, 87, 64
1, 2717, Note_on_c, 0, 37, 97
1, 2717, Note_off_c, 0, 39, 64
1, 2717, Note_off_c, 0, 64, 64
1, 2717, Note_off_c, 0, 79, 64
1, 2717, Note_off_c, 0, 82, 64
1, 2717, Note_on_c, 0, 97, 13
1, 2718, Note_on_c, 0, 36, 97
1, 2718, Note_off_c, 0, 37, 64
1, 2718, Note_on_c, 0, 50, 42
1, 2718, Note_off_c, 0, 77, 64
1, 2718, Note_on_c, 0, 82, 24
1, 2718, Note_on_c, 0, 84, 32
1, 2719, Note_on_c, 0, 35, 96
1, 2719, Note_off_c, 0, 36, 64
1, 2719, Note_on_c, 0, 65, 30
1, 2719, Note_on_c, 0, 88, 17
1, 2720, Note_on_c, 0, 34, 95
1, 2720, Note_off_c, 0, 35, 64
1, 2720, Note_on_c, 0, 57, 27
1, 2720, Note_off_c, 0, 58, 64
1, 2720, Note_on_c, 0, 61, 26
1, 2720, Note_off_c, 0, 69, 64
1, 2720, Note_off_c, 0, 78, 64
1, 2720, Note_on_c, 0, 79, 31
1, 2720, Note_on_c, 0, 80, 28
1, 2720, Note_on_c, 0, 85, 36
1, 2720, Note_off_c, 0, 86, 64
1, 2720, Note_off_c, 0, 93, 64
1, 2721, Note_on_c, 0, 33, 95
1, 2721, Note_off_c, 0, 34, 64
1, 2721, Note_off_c, 0, 50, 64
1, 2721, Note_off_c, 0, 65, 64
1, 2721, Note_off_c, 0, 84, 64
1, 2721, Note_on_c, 0, 86, 30
1, 2721, Note_on_c, 0, 93, 30
1, 2722, Note_on_c, 0, 32, 96
1, 2722, Note_off_c, 0, 33, 64
1, 2722, Note_on_c, 0, 73, 42
1, 2722, Note_off_c, 0, 82, 64
1, 2722, Note_on_c, 0, 90, 19
1, 2723, Note_off_c, 0, 57, 64
1, 2723, Note_off_c, 0, 75, 64
1, 2723, Note_off_c, 0, 80, 64
1, 2723, Note_on_c, 0, 82, 33
1, 2723, Note_off_c, 0, 86, 64
1, 2723, Note_off_c, 0, 88, 64
1, 2723, Note_on_c, 0, 96, 13
1, 2724, Note_on_c, 0, 31, 92
1, 2724, Note_off_c, 0, 32, 64
1, 2724, Note_on_c, 0, 66, 18
1, 2724, Note_on_c, 0, 78, 24
1, 2724, Note_off_c, 0, 79, 64
1, 2725, Note_on_c, 0, 45, 34
1, 2725, Note_off_c, 0, 61, 64
1, 2725, Note_off_c, 0, 73, 64
1, 2725, Note_on_c, 0, 80, 24
1, 2725, Note_on_c, 0, 88, 23
1, 2726, Note_on_c, 0, 30, 81
1, 2726, Note_off_c, 0, 31, 64
1, 2726, Note_on_c, 0, 54, 36
1, 2726, Note_on_c, 0, 68, 34
1, 2726, Note_off_c, 0, 83, 64
1, 2726, Note_on_c, 0, 84, 26
1, 2726, Note_off_c, 0, 89, 64
1, 2726, Note_off_c, 0, 96, 64
1, 2726, Note_off_c, 0, 97, 64
1, 2727, Note_off_c, 0, 45, 64
1, 2727, Note_off_c, 0, 66, 64
1, 2727, Note_on_c, 0, 87, 14
1, 2727, Note_off_c, 0, 90, 64
1, 2728, Note_off_c, 0, 30, 64
1, 2728, Note_off_c, 0, 54, 64
1, 2728, Note_on_c, 0, 63, 33
1, 2728, Note_off_c, 0, 78, 64
1, 2728, Note_on_c, 0, 79, 33
1, 2729, Note_on_c, 0, 50, 50
1, 2729, Note_on_c, 0, 60, 34
1, 2729, Note_on_c, 0, 73, 19
1, 2729, Note_on_c, 0, 83, 40
1, 2729, Note_off_c, 0, 85, 64
1, 2729, Note_on_c, 0, 89, 25
1, 2729, Note_on_c, 0, 90, 28
1, 2730, Note_on_c, 0, 38, 68
1, 2730, Note_off_c, 0, 84, 64
1, 2730, Note_on_c, 0, 85, 36
1, 2731, Note_on_c, 0, 31, 75
1, 2731, Note_off_c, 0, 38, 64
1, 2731, Note_off_c, 0, 50, 64
1, 2731, Note_off_c, 0, 87, 64
1, 2731, Note_on_c, 0, 96, 13
1, 2732, Note_on_c, 0, 30, 79
1, 2732, Note_off_c, 0, 31, 64
1, 2732, Note_on_c, 0, 44, 69
1, 2732, Note_on_c, 0, 57, 41
1, 2732, Note_on_c, 0, 78, 32
1, 2732, Note_off_c, 0, 79, 64
1, 2732, Note_on_c, 0, 87, 27
1, 2732, Note_off_c, 0, 88, 64
1, 2732, Note_off_c, 0, 93, 64
1, 2733, Note_on_c, 0, 29, 76
1, 2733, Note_off_c, 0, 30, 64
1, 2733, Note_on_c, 0, 42, 66
1, 2733, Note_off_c, 0, 44, 64
1, 2733, Note_off_c, 0, 60, 64
1, 2733, Note_on_c, 0, 61, 31
1, 2733, Note_off_c, 0, 63, 64
1, 2733, Note_off_c, 0, 73, 64
1, 2733, Note_off_c, 0, 80, 64
1, 2733, Note_off_c, 0, 85, 64
1, 2733, Note_on_c, 0, 88, 19
1, 2733, Note_off_c, 0, 89, 64
1, 2733, Note_on_c, 0, 92, 18
1, 2734, Note_off_c, 0, 42, 64
1, 2734, Note_on_c, 0, 85, 29
1, 2734, Note_on_c, 0, 89, 17
1, 2735, Note_off_c, 0, 29, 64
1, 2735, Note_on_c, 0, 30, 76
1, 2735, Note_on_c, 0, 49, 49
1, 2735, Note_off_c, 0, 57, 64
1, 2735, Note_off_c, 0, 61, 64
1, 2735, Note_on_c, 0, 72, 27
1, 2735, Note_off_c, 0, 82, 64
1, 2735, Note_on_c, 0, 86, 30
1, 2735, Note_on_c, 0, 93, 17
1, 2735, Note_off_c, 0, 96, 64
1, 2736, Note_on_c, 0, 29, 74
1, 2736, Note_off_c, 0, 30, 64
1, 2736, Note_off_c, 0, 68, 64
1, 2736, Note_on_c, 0, 80, 30
1, 2736, Note_off_c, 0, 85, 64
1, 2736, Note_off_c, 0, 87, 64
1, 2736, Note_off_c, 0, 88, 64
1, 2737, Note_off_c, 0, 49, 64
1, 2737, Note_on_c, 0, 57, 44
1, 2737, Note_on_c, 0, 66, 44
1, 2737, Note_on_c, 0, 85, 23
1, 2737, Note_on_c, 0, 87, 18
1, 2737, Note_off_c, 0, 92, 64
1, 2738, Note_off_c, 0, 29, 64
1, 2738, Note_on_c, 0, 30, 78
1, 2738, Note_on_c, 0, 63, 16
1, 2738, Note_off_c, 0, 78, 64
1, 2738, Note_off_c, 0, 83, 64
1, 2739, Note_on_c, 0, 83, 18
1, 2740, Note_on_c, 0, 44, 71
1, 2740, Note_off_c, 0, 57, 64
1, 2740, Note_off_c, 0, 72, 64
1, 2740, Note_on_c, 0, 73, 31
1, 2740, Note_on_c, 0, 76, 27
1, 2740, Note_off_c, 0, 87, 64
1, 2740, Note_off_c, 0, 93, 64
1, 2741, Note_off_c, 0, 44, 64
1, 2741, Note_on_c, 0, 70, 23
1, 2741, Note_off_c, 0, 80, 64
1, 2741, Note_off_c, 0, 89, 64
1, 2741, Note_on_c, 0, 92, 15
1, 2741, Note_on_c, 0, 94, 21
1, 2742, Note_on_c, 0, 29, 79
1, 2742, Note_off_c, 0, 30, 64
1, 2742, Note_on_c, 0, 80, 46
1, 2743, Note_off_c, 0, 29, 64
1, 2743, Note_on_c, 0, 30, 76
1, 2743, Note_off_c, 0, 85, 64
1, 2743, Note_on_c, 0, 87, 25
1, 2744, Note_on_c, 0, 47, 54
1, 2744, Note_off_c, 0, 63, 64
1, 2744, Note_off_c, 0, 76, 64
1, 2744, Note_on_c, 0, 77, 14
1, 2745, Note_off_c, 0, 70, 64
1, 2745, Note_off_c, 0, 73, 64
1, 2745, Note_off_c, 0, 94, 64
1, 2746, Note_off_c, 0, 30, 64
1, 2746, Note_on_c, 0, 32, 71
1, 2746, Note_on_c, 0, 75, 34
1, 2746, Note_off_c, 0, 83, 64
1, 2746, Note_on_c, 0, 88, 18
1, 2746, Note_off_c, 0, 92, 64
1, 2747, Note_off_c, 0, 32, 64
1, 2747, Note_on_c, 0, 35, 69
1, 2747, Note_on_c, 0, 57, 57
1, 2747, Note_on_c, 0, 64, 21
1, 2747, Note_off_c, 0, 66, 64
1, 2747, Note_on_c, 0, 67, 18
1, 2747, Note_on_c, 0, 81, 29
1, 2747, Note_on_c, 0, 85, 32
1, 2747, Note_on_c, 0, 91, 30
1, 2748, Note_off_c, 0, 35, 64
1, 2748, Note_on_c, 0, 53, 51
1, 2748, Note_on_c, 0, 83, 26
1, 2749, Note_off_c, 0, 47, 64
1, 2749, Note_on_c, 0, 48, 73
1, 2749, Note_on_c, 0, 72, 30
1, 2749, Note_off_c, 0, 77, 64
1, 2749, Note_off_c, 0, 81, 64
1, 2749, Note_on_c, 0, 93, 18
1, 2749, Note_on_c, 0, 96, 16
1, 2750, Note_off_c, 0, 53, 64
1, 2750, Note_off_c, 0, 64, 64
1, 2750, Note_off_c, 0, 67, 64
1, 2750, Note_off_c, 0, 88, 64
1, 2751, Note_on_c, 0, 45, 86
1, 2751, Note_off_c, 0, 48, 64
1, 2751, Note_off_c, 0, 57, 64
1, 2751, Note_on_c, 0, 68, 12
1, 2751, Note_on_c, 0, 82, 17
1, 2751, Note_off_c, 0, 83, 64
1, 2751, Note_off_c, 0, 86, 64
1, 2751, Note_on_c, 0, 89, 13
1, 2752, Note_on_c, 0, 42, 96
1, 2752, Note_off_c, 0, 45, 64
1, 2752, Note_off_c, 0, 80, 64
1, 2752, Note_on_c, 0, 81, 24
1, 2752, Note_off_c, 0, 91, 64
1, 2752, Note_off_c, 0, 96, 64
1, 2753, Note_on_c, 0, 41, 100
1, 2753, Note_off_c, 0, 42, 64
1, 2753, Note_off_c, 0, 75, 64
1, 2753, Note_on_c, 0, 76, 26
1, 2753, Note_off_c, 0, 90, 64
1, 2753, Note_off_c, 0, 93, 64
1, 2754, Note_on_c, 0, 38, 98
1, 2754, Note_off_c, 0, 41, 64
1, 2754, Note_on_c, 0, 60, 13
1, 2754, Note_off_c, 0, 72, 64
1, 2754, Note_on_c, 0, 78, 17
1, 2754, Note_on_c, 0, 79, 21
1, 2754, Note_off_c, 0, 82, 64
1, 2754, Note_on_c, 0, 83, 30
1, 2754, Note_off_c, 0, 89, 64
1, 2755, Note_on_c, 0, 37, 98
1, 2755, Note_off_c, 0, 38, 64
1, 2755, Note_on_c, 0, 74, 20
1, 2755, Note_off_c, 0, 81, 64
1, 2756, Note_on_c, 0, 36, 97
1, 2756, Note_off_c, 0, 37, 64
1, 2756, Note_off_c, 0, 87, 64
1, 2757, Note_on_c, 0, 34, 96
1, 2757, Note_off_c, 0, 36, 64
1, 2757, Note_off_c, 0, 60, 64
1, 2757, Note_off_c, 0, 68, 64
1, 2757, Note_off_c, 0, 78, 64
1, 2757, Note_on_c, 0, 88, 29
1, 2758, Note_on_c, 0, 72, 22
1, 2758, Note_off_c, 0, 74, 64
1, 2758, Note_on_c, 0, 75, 27
1, 2758, Note_off_c, 0, 76, 64
1, 2758, Note_off_c, 0, 79, 64
1, 2758, Note_on_c, 0, 81, 39
1, 2758, Note_on_c, 0, 82, 26
1, 2758, Note_on_c, 0, 89, 20
1, 2759, Note_on_c, 0, 33, 95
1, 2759, Note_off_c, 0, 34, 64
1, 2759, Note_on_c, 0, 78, 28
1, 2759, Note_off_c, 0, 85, 64
1, 2759, Note_on_c, 0, 86, 30
1, 2760, Note_on_c, 0, 32, 96
1, 2760, Note_off_c, 0, 33, 64
1, 2760, Note_on_c, 0, 80, 36
1, 2761, Note_on_c, 0, 31, 95
1, 2761, Note_off_c, 0, 32, 64
1, 2761, Note_off_c, 0, 75, 64
1, 2761, Note_on_c, 0, 77, 29
1, 2761, Note_off_c, 0, 81, 64
1, 2761, Note_on_c, 0, 91, 17
1, 2761, Note_on_c, 0, 93, 18
1, 2762, Note_on_c, 0, 58, 18
1, 2762, Note_off_c, 0, 78, 64
1, 2762, Note_on_c, 0, 85, 15
1, 2763, Note_off_c, 0, 77, 64
1, 2763, Note_off_c, 0, 83, 64
1, 2763, Note_off_c, 0, 86, 64
1, 2764, Note_on_c, 0, 30, 75
1, 2764, Note_off_c, 0, 31, 64
1, 2764, Note_on_c, 0, 68, 19
1, 2764, Note_off_c, 0, 72, 64
1, 2764, Note_on_c, 0, 86, 33
1, 2764, Note_off_c, 0, 88, 64
1, 2765, Note_on_c, 0, 45, 50
1, 2765, Note_off_c, 0, 58, 64
1, 2765, Note_on_c, 0, 73, 31
1, 2765, Note_on_c, 0, 77, 13
1, 2765, Note_off_c, 0, 89, 64
1, 2765, Note_off_c, 0, 93, 64
1, 2765, Note_on_c, 0, 95, 11
1, 2766, Note_off_c, 0, 30, 64
1, 2766, Note_on_c, 0, 66, 30
1, 2766, Note_off_c, 0, 82, 64
1, 2766, Note_on_c, 0, 83, 32
1, 2766, Note_off_c, 0, 85, 64
1, 2767, Note_on_c, 0, 37, 67
1, 2767, Note_off_c, 0, 45, 64
1, 2767, Note_off_c, 0, 73, 64
1, 2767, Note_on_c, 0, 81, 42
1, 2767, Note_on_c, 0, 89, 20
1, 2768, Note_on_c, 0, 36, 73
1, 2768, Note_off_c, 0, 37, 64
1, 2768, Note_off_c, 0, 68, 64
1, 2768, Note_off_c, 0, 77, 64
1, 2768, Note_on_c, 0, 82, 38
1, 2768, Note_on_c, 0, 88, 27
1, 2769, Note_on_c, 0, 30, 78
1, 2769, Note_off_c, 0, 36, 64
1, 2769, Note_on_c, 0, 49, 51
1, 2769, Note_off_c, 0, 66, 64
1, 2769, Note_on_c, 0, 72, 32
1, 2769, Note_on_c, 0, 74, 30
1, 2769, Note_on_c, 0, 77, 15
1, 2769, Note_off_c, 0, 80, 64
1, 2769, Note_off_c, 0, 83, 64
1, 2769, Note_off_c, 0, 91, 64
1, 2770, Note_on_c, 0, 29, 79
1, 2770, Note_off_c, 0, 30, 64
1, 2770, Note_on_c, 0, 80, 41
1, 2770, Note_off_c, 0, 86, 64
1, 2770, Note_on_c, 0, 87, 33
1, 2771, Note_off_c, 0, 29, 64
1, 2771, Note_on_c, 0, 30, 79
1, 2771, Note_off_c, 0, 49, 64
1, 2771, Note_off_c, 0, 74, 64
1, 2771, Note_off_c, 0, 81, 64
1, 2771, Note_on_c, 0, 85, 18
1, 2771, Note_off_c, 0, 95, 64
1, 2772, Note_on_c, 0, 70, 26
1, 2772, Note_off_c, 0, 72, 64
1, 2772, Note_on_c, 0, 76, 22
1, 2772, Note_off_c, 0, 89, 64
1, 2773, Note_on_c, 0, 29, 73
1, 2773, Note_off_c, 0, 30, 64
1, 2773, Note_on_c, 0, 66, 38
1, 2773, Note_off_c, 0, 77, 64
1, 2773, Note_on_c, 0, 96, 13
1, 2774, Note_on_c, 0, 83, 23
1, 2775, Note_on_c, 0, 63, 35
1, 2775, Note_off_c, 0, 70, 64
1, 2775, Note_off_c, 0, 85, 64
1, 2776, Note_on_c, 0, 69, 33
1, 2776, Note_on_c, 0, 73, 19
1, 2776, Note_off_c, 0, 76, 64
1, 2776, Note_on_c, 0, 89, 13
1, 2776, Note_off_c, 0, 96, 64
1, 2777, Note_off_c, 0, 29, 64
1, 2777, Note_on_c, 0, 30, 80
1, 2777, Note_off_c, 0, 66, 64
1, 2777, Note_on_c, 0, 76, 9
1, 2777, Note_on_c, 0, 84, 33
1, 2777, Note_off_c, 0, 88, 64
1, 2778, Note_off_c, 0, 63, 64
1, 2778, Note_on_c, 0, 68, 32
1, 2778, Note_off_c, 0, 69, 64
1, 2778, Note_off_c, 0, 83, 64
1, 2778, Note_off_c, 0, 87, 64
1, 2779, Note_on_c, 0, 61, 31
1, 2779, Note_on_c, 0, 66, 39
1, 2780, Note_on_c, 0, 49, 48
1, 2780, Note_on_c, 0, 75, 13
1, 2780, Note_off_c, 0, 76, 64
1, 2781, Note_on_c, 0, 57, 30
1, 2781, Note_off_c, 0, 68, 64
1, 2781, Note_off_c, 0, 73, 64
1, 2781, Note_on_c, 0, 86, 18
1, 2782, Note_off_c, 0, 49, 64
1, 2782, Note_off_c, 0, 61, 64
1, 2783, Note_off_c, 0, 57, 64
1, 2783, Note_off_c, 0, 66, 64
1, 2783, Note_on_c, 0, 67, 41
1, 2783, Note_on_c, 0, 87, 33
1, 2783, Note_off_c, 0, 89, 64
1, 2784, Note_off_c, 0, 30, 64
1, 2784, Note_on_c, 0, 34, 69
1, 2784, Note_on_c, 0, 65, 32
1, 2784, Note_on_c, 0, 91, 17
1, 2784, Note_on_c, 0, 93, 11
1, 2785, Note_on_c, 0, 58, 47
1, 2785, Note_off_c, 0, 67, 64
1, 2785, Note_on_c, 0, 74, 35
1, 2785, Note_off_c, 0, 75, 64
1, 2785, Note_on_c, 0, 88, 19
1, 2786, Note_off_c, 0, 34, 64
1, 2786, Note_on_c, 0, 51, 71
1, 2786, Note_on_c, 0, 68, 29
1, 2786, Note_on_c, 0, 81, 29
1, 2786, Note_off_c, 0, 82, 64
1, 2786, Note_on_c, 0, 83, 30
1, 2786, Note_off_c, 0, 84, 64
1, 2786, Note_off_c, 0, 86, 64
1, 2787, Note_off_c, 0, 58, 64
1, 2787, Note_on_c, 0, 72, 40
1, 2787, Note_off_c, 0, 93, 64
1, 2788, Note_on_c, 0, 45, 85
1, 2788, Note_off_c, 0, 51, 64
1, 2788, Note_off_c, 0, 65, 64
1, 2788, Note_off_c, 0, 81, 64
1, 2789, Note_on_c, 0, 42, 93
1, 2789, Note_off_c, 0, 45, 64
1, 2789, Note_off_c, 0, 74, 64
1, 2789, Note_off_c, 0, 91, 64
1, 2790, Note_on_c, 0, 41, 99
1, 2790, Note_off_c, 0, 42, 64
1, 2790, Note_off_c, 0, 72, 64
1, 2790, Note_on_c, 0, 85, 16
1, 2791, Note_on_c, 0, 39, 96
1, 2791, Note_off_c, 0, 41, 64
1, 2791, Note_off_c, 0, 83, 64
1, 2791, Note_off_c, 0, 88, 64
1, 2792, Note_on_c, 0, 37, 97
1, 2792, Note_off_c, 0, 39, 64
1, 2792, Note_on_c, 0, 66, 15
1, 2792, Note_off_c, 0, 68, 64
1, 2792, Note_on_c, 0, 82, 17
1, 2792, Note_on_c, 0, 83, 17
1, 2793, Note_on_c, 0, 36, 97
1, 2793, Note_off_c, 0, 37, 64
1, 2793, Note_on_c, 0, 86, 12
1, 2794, Note_on_c, 0, 35, 96
1, 2794, Note_off_c, 0, 36, 64
1, 2794, Note_on_c, 0, 56, 30
1, 2794, Note_off_c, 0, 85, 64
1, 2794, Note_off_c, 0, 87, 64
1, 2795, Note_on_c, 0, 34, 96
1, 2795, Note_off_c, 0, 35, 64
1, 2795, Note_off_c, 0, 82, 64
1, 2796, Note_on_c, 0, 33, 96
1, 2796, Note_off_c, 0, 34, 64
1, 2796, Note_on_c, 0, 88, 24
1, 2797, Note_on_c, 0, 32, 96
1, 2797, Note_off_c, 0, 33, 64
1, 2797, Note_on_c, 0, 53, 31
1, 2797, Note_off_c, 0, 56, 64
1, 2797, Note_off_c, 0, 83, 64
1, 2797, Note_off_c, 0, 86, 64
1, 2798, Note_on_c, 0, 31, 95
1, 2798, Note_off_c, 0, 32, 64
1, 2799, Note_off_c, 0, 88, 64
1, 2800, Note_off_c, 0, 53, 64
1, 2800, Note_on_c, 0, 86, 14
1, 2800, Note_on_c, 0, 91, 25
1, 2801, Note_on_c, 0, 30, 80
1, 2801, Note_off_c, 0, 31, 64
1, 2801, Note_off_c, 0, 66, 64
1, 2801, Note_off_c, 0, 80, 64
1, 2801, Note_on_c, 0, 82, 13
1, 2803, Note_off_c, 0, 30, 64
1, 2803, Note_on_c, 0, 80, 20
1, 2803, Note_off_c, 0, 86, 64
1, 2803, Note_on_c, 0, 89, 19
1, 2803, Note_on_c, 0, 92, 26
1, 2804, Note_off_c, 0, 82, 64
1, 2804, Note_on_c, 0, 90, 21
1, 2805, Note_on_c, 0, 41, 67
1, 2805, Note_on_c, 0, 61, 29
1, 2805, Note_on_c, 0, 66, 39
1, 2805, Note_on_c, 0, 94, 14
1, 2806, Note_on_c, 0, 30, 81
1, 2806, Note_off_c, 0, 41, 64
1, 2806, Note_on_c, 0, 74, 16
1, 2806, Note_on_c, 0, 81, 22
1, 2806, Note_on_c, 0, 82, 36
1, 2807, Note_off_c, 0, 61, 64
1, 2807, Note_on_c, 0, 68, 30
1, 2807, Note_off_c, 0, 80, 64
1, 2807, Note_on_c, 0, 85, 26
1, 2808, Note_on_c, 0, 29, 79
1, 2808, Note_off_c, 0, 30, 64
1, 2808, Note_on_c, 0, 64, 19
1, 2808, Note_off_c, 0, 66, 64
1, 2808, Note_on_c, 0, 75, 24
1, 2808, Note_on_c, 0, 79, 19
1, 2808, Note_on_c, 0, 88, 17
1, 2808, Note_off_c, 0, 90, 64
1, 2808, Note_off_c, 0, 92, 64
1, 2809, Note_off_c, 0, 29, 64
1, 2809, Note_on_c, 0, 30, 76
1, 2809, Note_on_c, 0, 66, 22
1, 2809, Note_off_c, 0, 74, 64
1, 2809, Note_on_c, 0, 95, 11
1, 2810, Note_on_c, 0, 78, 27
1, 2810, Note_off_c, 0, 81, 64
1, 2810, Note_on_c, 0, 83, 16
1, 2810, Note_off_c, 0, 89, 64
1, 2810, Note_on_c, 0, 96, 13
1, 2811, Note_off_c, 0, 75, 64
1, 2811, Note_on_c, 0, 76, 22
1, 2811, Note_off_c, 0, 91, 64
1, 2812, Note_on_c, 0, 29, 73
1, 2812, Note_off_c, 0, 30, 64
1, 2812, Note_off_c, 0, 64, 64
1, 2812, Note_off_c, 0, 79, 64
1, 2812, Note_on_c, 0, 87, 19
1, 2812, Note_on_c, 0, 92, 28
1, 2812, Note_off_c, 0, 95, 64
1, 2813, Note_on_c, 0, 80, 35
1, 2813, Note_off_c, 0, 88, 64
1, 2813, Note_on_c, 0, 93, 9
1, 2813, Note_off_c, 0, 94, 64
1, 2814, Note_off_c, 0, 29, 64
1, 2814, Note_on_c, 0, 30, 73
1, 2814, Note_on_c, 0, 63, 37
1, 2814, Note_on_c, 0, 73, 34
1, 2814, Note_off_c, 0, 76, 64
1, 2814, Note_off_c, 0, 83, 64
1, 2814, Note_off_c, 0, 96, 64
1, 2815, Note_off_c, 0, 30, 64
1, 2815, Note_on_c, 0, 31, 76
1, 2815, Note_off_c, 0, 66, 64
1, 2815, Note_off_c, 0, 87, 64
1, 2815, Note_on_c, 0, 88, 18
1, 2816, Note_on_c, 0, 30, 80
1, 2816, Note_off_c, 0, 31, 64
1, 2816, Note_on_c, 0, 49, 50
1, 2816, Note_off_c, 0, 68, 64
1, 2816, Note_off_c, 0, 78, 64
1, 2816, Note_off_c, 0, 85, 64
1, 2816, Note_on_c, 0, 96, 14
1, 2817, Note_on_c, 0, 29, 80
1, 2817, Note_off_c, 0, 30, 64
1, 2817, Note_off_c, 0, 63, 64
1, 2817, Note_on_c, 0, 66, 38
1, 2817, Note_on_c, 0, 87, 14
1, 2817, Note_off_c, 0, 93, 64
1, 2818, Note_off_c, 0, 49, 64
1, 2818, Note_on_c, 0, 95, 12
1, 2819, Note_off_c, 0, 29, 64
1, 2819, Note_on_c, 0, 30, 77
1, 2819, Note_off_c, 0, 96, 64
1, 2820, Note_on_c, 0, 63, 29
1, 2820, Note_off_c, 0, 80, 64
1, 2820, Note_off_c, 0, 82, 64
1, 2821, Note_off_c, 0, 30, 64
1, 2821, Note_on_c, 0, 33, 72
1, 2821, Note_on_c, 0, 86, 18
1, 2821, Note_off_c, 0, 88, 64
1, 2822, Note_off_c, 0, 33, 64
1, 2822, Note_on_c, 0, 34, 65
1, 2822, Note_off_c, 0, 63, 64
1, 2822, Note_off_c, 0, 66, 64
1, 2822, Note_off_c, 0, 73, 64
1, 2823, Note_off_c, 0, 34, 64
1, 2823, Note_on_c, 0, 61, 32
1, 2823, Note_off_c, 0, 87, 64
1, 2823, Note_on_c, 0, 88, 21
1, 2825, Note_on_c, 0, 48, 76
1, 2825, Note_off_c, 0, 86, 64
1, 2825, Note_on_c, 0, 87, 17
1, 2826, Note_on_c, 0, 45, 90
1, 2826, Note_off_c, 0, 48, 64
1, 2826, Note_off_c, 0, 61, 64
1, 2826, Note_off_c, 0, 95, 64
1, 2827, Note_on_c, 0, 42, 98
1, 2827, Note_off_c, 0, 45, 64
1, 2827, Note_on_c, 0, 61, 11
1, 2827, Note_on_c, 0, 66, 22
1, 2828, Note_on_c, 0, 40, 99
1, 2828, Note_off_c, 0, 42, 64
1, 2828, Note_off_c, 0, 87, 64
1, 2828, Note_off_c, 0, 92, 64
1, 2829, Note_on_c, 0, 38, 98
1, 2829, Note_off_c, 0, 40, 64
1, 2830, Note_on_c, 0, 37, 98
1, 2830, Note_off_c, 0, 38, 64
1, 2830, Note_off_c, 0, 61, 64
1, 2830, Note_off_c, 0, 88, 64
1, 2831, Note_on_c, 0, 35, 98
1, 2831, Note_off_c, 0, 37, 64
1, 2832, Note_on_c, 0, 34, 97
1, 2832, Note_off_c, 0, 35, 64
1, 2833, Note_on_c, 0, 33, 96
1, 2833, Note_off_c, 0, 34, 64
1, 2833, Note_on_c, 0, 55, 27
1, 2833, Note_on_c, 0, 81, 18
1, 2833, Note_on_c, 0, 89, 15
1, 2834, Note_on_c, 0, 32, 96
1, 2834, Note_off_c, 0, 33, 64
1, 2835, Note_on_c, 0, 87, 11
1, 2836, Note_on_c, 0, 31, 94
1, 2836, Note_off_c, 0, 32, 64
1, 2836, Note_on_c, 0, 47, 44
1, 2836, Note_off_c, 0, 55, 64
1, 2836, Note_on_c, 0, 78, 22
1, 2836, Note_off_c, 0, 81, 64
1, 2836, Note_off_c, 0, 89, 64
1, 2837, Note_on_c, 0, 55, 37
1, 2838, Note_off_c, 0, 66, 64
1, 2838, Note_off_c, 0, 87, 64
1, 2839, Note_on_c, 0, 30, 74
1, 2839, Note_off_c, 0, 31, 64
1, 2839, Note_off_c, 0, 47, 64
1, 2840, Note_off_c, 0, 30, 64
1, 2840, Note_on_c, 0, 44, 39
1, 2840, Note_on_c, 0, 61, 27
1, 2840, Note_off_c, 0, 78, 64
1, 2840, Note_on_c, 0, 85, 35
1, 2841, Note_off_c, 0, 55, 64
1, 2841, Note_on_c, 0, 66, 50
1, 2842, Note_off_c, 0, 44, 64
1, 2842, Note_on_c, 0, 91, 13
1, 2842, Note_on_c, 0, 92, 18
1, 2842, Note_on_c, 0, 93, 16
1, 2843, Note_on_c, 0, 31, 70
1, 2843, Note_on_c, 0, 73, 34
1, 2843, Note_on_c, 0, 80, 27
1, 2843, Note_on_c, 0, 81, 24
1, 2843, Note_on_c, 0, 87, 14
1, 2843, Note_on_c, 0, 89, 19
1, 2844, Note_on_c, 0, 30, 79
1, 2844, Note_off_c, 0, 31, 64
1, 2844, Note_off_c, 0, 61, 64
1, 2844, Note_on_c, 0, 62, 28
1, 2845, Note_on_c, 0, 29, 80
1, 2845, Note_off_c, 0, 30, 64
1, 2845, Note_off_c, 0, 92, 64
1, 2845, Note_on_c, 0, 98, 13
1, 2845, Note_on_c, 0, 102, 12
1, 2846, Note_off_c, 0, 29, 64
1, 2846, Note_on_c, 0, 30, 78
1, 2846, Note_on_c, 0, 49, 48
1, 2846, Note_off_c, 0, 87, 64
1, 2846, Note_off_c, 0, 91, 64
1, 2846, Note_off_c, 0, 93, 64
1, 2846, Note_on_c, 0, 100, 10
1, 2847, Note_off_c, 0, 62, 64
1, 2847, Note_on_c, 0, 70, 18
1, 2847, Note_off_c, 0, 81, 64
1, 2847, Note_on_c, 0, 88, 18
1, 2848, Note_off_c, 0, 49, 64
1, 2848, Note_off_c, 0, 89, 64
1, 2849, Note_on_c, 0, 29, 74
1, 2849, Note_off_c, 0, 30, 64
1, 2849, Note_on_c, 0, 96, 16
1, 2849, Note_off_c, 0, 100, 64
1, 2849, Note_off_c, 0, 102, 64
1, 2850, Note_on_c, 0, 58, 30
1, 2850, Note_off_c, 0, 85, 64
1, 2851, Note_on_c, 0, 84, 17
1, 2851, Note_on_c, 0, 87, 13
1, 2851, Note_off_c, 0, 88, 64
1, 2851, Note_on_c, 0, 90, 26
1, 2851, Note_on_c, 0, 91, 12
1, 2852, Note_off_c, 0, 29, 64
1, 2852, Note_on_c, 0, 30, 82
1, 2852, Note_on_c, 0, 54, 44
1, 2852, Note_off_c, 0, 58, 64
1, 2852, Note_off_c, 0, 70, 64
1, 2853, Note_on_c, 0, 70, 27
1, 2853, Note_on_c, 0, 94, 16
1, 2853, Note_on_c, 0, 95, 13
1, 2853, Note_off_c, 0, 98, 64
1, 2853, Note_on_c, 0, 99, 17
1, 2854, Note_off_c, 0, 54, 64
1, 2854, Note_off_c, 0, 87, 64
1, 2854, Note_on_c, 0, 88, 11
1, 2854, Note_off_c, 0, 91, 64
1, 2854, Note_off_c, 0, 96, 64
1, 2854, Note_on_c, 0, 103, 15
1, 2855, Note_on_c, 0, 29, 81
1, 2855, Note_off_c, 0, 30, 64
1, 2855, Note_on_c, 0, 54, 44
1, 2855, Note_on_c, 0, 63, 29
1, 2856, Note_off_c, 0, 29, 64
1, 2856, Note_on_c, 0, 30, 77
1, 2856, Note_on_c, 0, 68, 24
1, 2856, Note_on_c, 0, 86, 16
1, 2856, Note_off_c, 0, 94, 64
1, 2856, Note_off_c, 0, 99, 64
1, 2857, Note_off_c, 0, 54, 64
1, 2857, Note_on_c, 0, 57, 35
1, 2857, Note_off_c, 0, 63, 64
1, 2857, Note_off_c, 0, 66, 64
1, 2857, Note_off_c, 0, 73, 64
1, 2857, Note_on_c, 0, 74, 14
1, 2857, Note_off_c, 0, 84, 64
1, 2857, Note_off_c, 0, 88, 64
1, 2857, Note_off_c, 0, 103, 64
1, 2858, Note_on_c, 0, 76, 25
1, 2859, Note_off_c, 0, 30, 64
1, 2859, Note_on_c, 0, 34, 71
1, 2859, Note_on_c, 0, 55, 48
1, 2859, Note_off_c, 0, 57, 64
1, 2859, Note_off_c, 0, 68, 64
1, 2859, Note_off_c, 0, 70, 64
1, 2859, Note_off_c, 0, 80, 64
1, 2859, Note_off_c, 0, 95, 64
1, 2860, Note_off_c, 0, 34, 64
1, 2860, Note_off_c, 0, 74, 64
1, 2860, Note_on_c, 0, 80, 21
1, 2860, Note_on_c, 0, 85, 20
1, 2861, Note_on_c, 0, 75, 17
1, 2861, Note_off_c, 0, 76, 64
1, 2862, Note_on_c, 0, 51, 71
1, 2862, Note_off_c, 0, 55, 64
1, 2862, Note_off_c, 0, 86, 64
1, 2863, Note_on_c, 0, 46, 86
1, 2863, Note_off_c, 0, 51, 64
1, 2863, Note_off_c, 0, 85, 64
1, 2863, Note_off_c, 0, 90, 64
1, 2864, Note_on_c, 0, 42, 95
1, 2864, Note_off_c, 0, 46, 64
1, 2864, Note_off_c, 0, 75, 64
1, 2865, Note_on_c, 0, 41, 100
1, 2865, Note_off_c, 0, 42, 64
1, 2865, Note_off_c, 0, 80, 64
1, 2866, Note_on_c, 0, 39, 96
1, 2866, Note_off_c, 0, 41, 64
1, 2867, Note_on_c, 0, 37, 98
1, 2867, Note_off_c, 0, 39, 64
1, 2867, Note_on_c, 0, 66, 20
1, 2868, Note_on_c, 0, 36, 97
1, 2868, Note_off_c, 0, 37, 64
1, 2869, Note_on_c, 0, 35, 96
1, 2869, Note_off_c, 0, 36, 64
1, 2870, Note_on_c, 0, 34, 96
1, 2870, Note_off_c, 0, 35, 64
1, 2870, Note_on_c, 0, 81, 24
1, 2871, Note_on_c, 0, 33, 96
1, 2871, Note_off_c, 0, 34, 64
1, 2872, Note_on_c, 0, 32, 97
1, 2872, Note_off_c, 0, 33, 64
1, 2872, Note_off_c, 0, 66, 64
1, 2872, Note_on_c, 0, 87, 16
1, 2873, Note_on_c, 0, 31, 96
1, 2873, Note_off_c, 0, 32, 64
1, 2873, Note_on_c, 0, 80, 23
1, 2873, Note_off_c, 0, 81, 64
1, 2874, Note_on_c, 0, 61, 21
1, 2874, Note_on_c, 0, 66, 36
1, 2875, Note_on_c, 0, 55, 31
1, 2876, Note_on_c, 0, 30, 80
1, 2876, Note_off_c, 0, 31, 64
1, 2876, Note_off_c, 0, 87, 64
1, 2877, Note_on_c, 0, 84, 15
1, 2877, Note_on_c, 0, 85, 15
1, 2878, Note_off_c, 0, 30, 64
1, 2878, Note_off_c, 0, 55, 64
1, 2878, Note_on_c, 0, 82, 14
1, 2878, Note_on_c, 0, 87, 12
1, 2879, Note_off_c, 0, 61, 64
1, 2879, Note_on_c, 0, 69, 9
1, 2879, Note_on_c, 0, 77, 15
1, 2879, Note_on_c, 0, 89, 19
1, 2879, Note_on_c, 0, 95, 11
1, 2880, Note_on_c, 0, 36, 71
1, 2880, Note_on_c, 0, 61, 27
1, 2880, Note_off_c, 0, 85, 64
1, 2880, Note_on_c, 0, 86, 19
1, 2880, Note_on_c, 0, 88, 17
1, 2881, Note_on_c, 0, 31, 78
1, 2881, Note_off_c, 0, 36, 64
1, 2881, Note_off_c, 0, 66, 64
1, 2881, Note_off_c, 0, 84, 64
1, 2882, Note_on_c, 0, 29, 81
1, 2882, Note_off_c, 0, 31, 64
1, 2882, Note_on_c, 0, 49, 54
1, 2882, Note_off_c, 0, 69, 64
1, 2882, Note_off_c, 0, 77, 64
1, 2882, Note_off_c, 0, 82, 64
1, 2883, Note_on_c, 0, 66, 45
1, 2883, Note_off_c, 0, 80, 64
1, 2883, Note_off_c, 0, 86, 64
1, 2883, Note_off_c, 0, 88, 64
1, 2883, Note_off_c, 0, 89, 64
1, 2883, Note_off_c, 0, 95, 64
1, 2883, Note_on_c, 0, 101, 13
1, 2884, Note_off_c, 0, 29, 64
1, 2884, Note_on_c, 0, 30, 77
1, 2884, Note_off_c, 0, 49, 64
1, 2884, Note_off_c, 0, 87, 64
1, 2884, Note_on_c, 0, 99, 9
1, 2885, Note_on_c, 0, 74, 14
1, 2885, Note_on_c, 0, 76, 14
1, 2885, Note_on_c, 0, 84, 18
1, 2885, Note_on_c, 0, 85, 14
1, 2886, Note_on_c, 0, 29, 74
1, 2886, Note_off_c, 0, 30, 64
1, 2886, Note_off_c, 0, 61, 64
1, 2886, Note_on_c, 0, 80, 10
1, 2886, Note_on_c, 0, 100, 14
1, 2886, Note_off_c, 0, 101, 64
1, 2887, Note_on_c, 0, 82, 16
1, 2887, Note_on_c, 0, 95, 17
1, 2887, Note_off_c, 0, 99, 64
1, 2887, Note_on_c, 0, 102, 16
1, 2888, Note_on_c, 0, 73, 28
1, 2888, Note_off_c, 0, 74, 64
1, 2888, Note_off_c, 0, 76, 64
1, 2888, Note_off_c, 0, 85, 64
1, 2888, Note_on_c, 0, 86, 13
1, 2889, Note_off_c, 0, 29, 64
1, 2889, Note_on_c, 0, 30, 80
1, 2889, Note_on_c, 0, 70, 19
1, 2889, Note_on_c, 0, 81, 21
1, 2889, Note_on_c, 0, 88, 18
1, 2890, Note_off_c, 0, 80, 64
1, 2890, Note_off_c, 0, 95, 64
1, 2890, Note_on_c, 0, 99, 11
1, 2890, Note_on_c, 0, 103, 24
1, 2891, Note_off_c, 0, 86, 64
1, 2892, Note_on_c, 0, 29, 80
1, 2892, Note_off_c, 0, 30, 64
1, 2892, Note_off_c, 0, 70, 64
1, 2892, Note_off_c, 0, 82, 64
1, 2892, Note_on_c, 0, 83, 34
1, 2893, Note_off_c, 0, 29, 64
1, 2893, Note_on_c, 0, 30, 79
1, 2893, Note_on_c, 0, 61, 19
1, 2893, Note_off_c, 0, 88, 64
1, 2893, Note_on_c, 0, 101, 18
1, 2894, Note_off_c, 0, 73, 64
1, 2894, Note_on_c, 0, 82, 27
1, 2894, Note_off_c, 0, 84, 64
1, 2894, Note_on_c, 0, 85, 25
1, 2894, Note_on_c, 0, 89, 14
1, 2894, Note_off_c, 0, 99, 64
1, 2895, Note_off_c, 0, 66, 64
1, 2895, Note_on_c, 0, 76, 25
1, 2895, Note_off_c, 0, 81, 64
1, 2895, Note_on_c, 0, 98, 18
1, 2895, Note_off_c, 0, 102, 64
1, 2895, Note_off_c, 0, 103, 64
1, 2896, Note_off_c, 0, 30, 64
1, 2896, Note_on_c, 0, 34, 73
1, 2896, Note_on_c, 0, 55, 37
1, 2896, Note_off_c, 0, 61, 64
1, 2896, Note_off_c, 0, 100, 64
1, 2896, Note_off_c, 0, 101, 64
1, 2897, Note_off_c, 0, 34, 64
1, 2897, Note_on_c, 0, 35, 65
1, 2897, Note_on_c, 0, 66, 26
1, 2897, Note_off_c, 0, 82, 64
1, 2898, Note_off_c, 0, 35, 64
1, 2898, Note_off_c, 0, 55, 64
1, 2898, Note_off_c, 0, 76, 64
1, 2898, Note_on_c, 0, 80, 22
1, 2898, Note_on_c, 0, 82, 14
1, 2898, Note_off_c, 0, 89, 64
1, 2898, Note_on_c, 0, 92, 25
1, 2898, Note_off_c, 0, 98, 64
1, 2899, Note_on_c, 0, 51, 65
1, 2899, Note_off_c, 0, 85, 64
1, 2899, Note_on_c, 0, 87, 9
1, 2900, Note_on_c, 0, 48, 81
1, 2900, Note_off_c, 0, 51, 64
1, 2900, Note_off_c, 0, 66, 64
1, 2901, Note_on_c, 0, 45, 93
1, 2901, Note_off_c, 0, 48, 64
1, 2901, Note_on_c, 0, 61, 24
1, 2902, Note_on_c, 0, 42, 99
1, 2902, Note_off_c, 0, 45, 64
1, 2902, Note_off_c, 0, 80, 64
1, 2902, Note_off_c, 0, 82, 64
1, 2902, Note_off_c, 0, 87, 64
1, 2903, Note_on_c, 0, 40, 98
1, 2903, Note_off_c, 0, 42, 64
1, 2903, Note_on_c, 0, 66, 19
1, 2903, Note_off_c, 0, 92, 64
1, 2904, Note_on_c, 0, 38, 98
1, 2904, Note_off_c, 0, 40, 64
1, 2904, Note_off_c, 0, 61, 64
1, 2905, Note_on_c, 0, 37, 98
1, 2905, Note_off_c, 0, 38, 64
1, 2906, Note_on_c, 0, 35, 97
1, 2906, Note_off_c, 0, 37, 64
1, 2907, Note_on_c, 0, 34, 96
1, 2907, Note_off_c, 0, 35, 64
1, 2907, Note_on_c, 0, 82, 11
1, 2908, Note_on_c, 0, 33, 96
1, 2908, Note_off_c, 0, 34, 64
1, 2908, Note_off_c, 0, 66, 64
1, 2909, Note_on_c, 0, 32, 97
1, 2909, Note_off_c, 0, 33, 64
1, 2910, Note_off_c, 0, 82, 64
1, 2911, Note_on_c, 0, 31, 95
1, 2911, Note_off_c, 0, 32, 64
1, 2911, Note_on_c, 0, 61, 22
1, 2911, Note_on_c, 0, 66, 27
1, 2913, Note_on_c, 0, 30, 85
1, 2913, Note_off_c, 0, 31, 64
1, 2914, Note_on_c, 0, 92, 20
1, 2915, Note_off_c, 0, 30, 64
1, 2916, Note_off_c, 0, 61, 64
1, 2916, Note_on_c, 0, 70, 30
1, 2917, Note_on_c, 0, 37, 65
1, 2917, Note_on_c, 0, 61, 28
1, 2917, Note_off_c, 0, 83, 64
1, 2918, Note_on_c, 0, 31, 73
1, 2918, Note_off_c, 0, 37, 64
1, 2918, Note_on_c, 0, 80, 20
1, 2918, Note_on_c, 0, 84, 22
1, 2918, Note_on_c, 0, 85, 15
1, 2918, Note_on_c, 0, 89, 15
1, 2918, Note_on_c, 0, 90, 21
1, 2918, Note_on_c, 0, 94, 16
1, 2919, Note_on_c, 0, 30, 80
1, 2919, Note_off_c, 0, 31, 64
1, 2920, Note_on_c, 0, 29, 81
1, 2920, Note_off_c, 0, 30, 64
1, 2920, Note_off_c, 0, 66, 64
1, 2920, Note_on_c, 0, 73, 29
1, 2920, Note_on_c, 0, 75, 23
1, 2920, Note_on_c, 0, 81, 13
1, 2920, Note_off_c, 0, 92, 64
1, 2921, Note_off_c, 0, 29, 64
1, 2921, Note_on_c, 0, 30, 78
1, 2921, Note_on_c, 0, 48, 49
1, 2921, Note_on_c, 0, 78, 25
1, 2921, Note_off_c, 0, 80, 64
1, 2921, Note_on_c, 0, 83, 10
1, 2922, Note_off_c, 0, 84, 64
1, 2922, Note_off_c, 0, 85, 64
1, 2922, Note_off_c, 0, 89, 64
1, 2922, Note_on_c, 0, 92, 15
1, 2922, Note_on_c, 0, 100, 16
1, 2923, Note_off_c, 0, 48, 64
1, 2923, Note_on_c, 0, 64, 16
1, 2923, Note_off_c, 0, 81, 64
1, 2924, Note_on_c, 0, 29, 74
1, 2924, Note_off_c, 0, 30, 64
1, 2924, Note_off_c, 0, 61, 64
1, 2924, Note_on_c, 0, 89, 24
1, 2925, Note_on_c, 0, 66, 53
1, 2925, Note_on_c, 0, 69, 28
1, 2925, Note_off_c, 0, 70, 64
1, 2925, Note_off_c, 0, 75, 64
1, 2925, Note_on_c, 0, 77, 33
1, 2925, Note_off_c, 0, 83, 64
1, 2926, Note_on_c, 0, 61, 33
1, 2926, Note_off_c, 0, 64, 64
1, 2926, Note_off_c, 0, 73, 64
1, 2926, Note_off_c, 0, 78, 64
1, 2926, Note_on_c, 0, 83, 21
1, 2926, Note_on_c, 0, 88, 17
1, 2926, Note_off_c, 0, 90, 64
1, 2927, Note_off_c, 0, 29, 64
1, 2927, Note_on_c, 0, 30, 80
1, 2927, Note_on_c, 0, 73, 37
1, 2927, Note_on_c, 0, 79, 19
1, 2927, Note_on_c, 0, 87, 16
1, 2927, Note_on_c, 0, 98, 19
1, 2927, Note_on_c, 0, 102, 16
1, 2928, Note_on_c, 0, 54, 48
1, 2928, Note_off_c, 0, 69, 64
1, 2928, Note_on_c, 0, 90, 17
1, 2928, Note_off_c, 0, 92, 64
1, 2928, Note_off_c, 0, 94, 64
1, 2929, Note_on_c, 0, 69, 31
1, 2929, Note_off_c, 0, 88, 64
1, 2929, Note_off_c, 0, 89, 64
1, 2929, Note_on_c, 0, 103, 16
1, 2930, Note_on_c, 0, 29, 79
1, 2930, Note_off_c, 0, 30, 64
1, 2930, Note_on_c, 0, 92, 23
1, 2930, Note_on_c, 0, 94, 13
1, 2931, Note_off_c, 0, 29, 64
1, 2931, Note_on_c, 0, 30, 76
1, 2931, Note_off_c, 0, 54, 64
1, 2931, Note_off_c, 0, 79, 64
1, 2931, Note_off_c, 0, 83, 64
1, 2931, Note_off_c, 0, 87, 64
1, 2932, Note_on_c, 0, 48, 48
1, 2932, Note_on_c, 0, 54, 33
1, 2932, Note_off_c, 0, 73, 64
1, 2932, Note_on_c, 0, 82, 11
1, 2932, Note_off_c, 0, 102, 64
1, 2933, Note_off_c, 0, 30, 64
1, 2933, Note_on_c, 0, 31, 73
1, 2933, Note_off_c, 0, 69, 64
1, 2933, Note_on_c, 0, 70, 29
1, 2933, Note_off_c, 0, 92, 64
1, 2933, Note_off_c, 0, 98, 64
1, 2933, Note_off_c, 0, 100, 64
1, 2933, Note_off_c, 0, 103, 64
1, 2934, Note_off_c, 0, 31, 64
1, 2934, Note_on_c, 0, 34, 68
1, 2934, Note_on_c, 0, 47, 39
1, 2934, Note_off_c, 0, 48, 64
1, 2934, Note_off_c, 0, 54, 64
1, 2934, Note_on_c, 0, 75, 13
1, 2934, Note_on_c, 0, 80, 27
1, 2934, Note_on_c, 0, 86, 13
1, 2934, Note_off_c, 0, 90, 64
1, 2934, Note_off_c, 0, 94, 64
1, 2935, Note_off_c, 0, 34, 64
1, 2935, Note_off_c, 0, 61, 64
1, 2935, Note_off_c, 0, 66, 64
1, 2936, Note_off_c, 0, 47, 64
1, 2936, Note_on_c, 0, 66, 35
1, 2937, Note_on_c, 0, 48, 75
1, 2937, Note_off_c, 0, 70, 64
1, 2937, Note_off_c, 0, 75, 64
1, 2937, Note_off_c, 0, 77, 64
1, 2937, Note_off_c, 0, 82, 64
1, 2937, Note_off_c, 0, 86, 64
1, 2938, Note_on_c, 0, 45, 88
1, 2938, Note_off_c, 0, 48, 64
1, 2939, Note_on_c, 0, 42, 96
1, 2939, Note_off_c, 0, 45, 64
1, 2940, Note_on_c, 0, 41, 100
1, 2940, Note_off_c, 0, 42, 64
1, 2940, Note_off_c, 0, 80, 64
1, 2941, Note_on_c, 0, 38, 97
1, 2941, Note_off_c, 0, 41, 64
1, 2942, Note_on_c, 0, 37, 98
1, 2942, Note_off_c, 0, 38, 64
1, 2942, Note_on_c, 0, 77, 16
1, 2943, Note_on_c, 0, 36, 97
1, 2943, Note_off_c, 0, 37, 64
1, 2944, Note_on_c, 0, 35, 96
1, 2944, Note_off_c, 0, 36, 64
1, 2945, Note_on_c, 0, 34, 96
1, 2945, Note_off_c, 0, 35, 64
1, 2946, Note_on_c, 0, 33, 96
1, 2946, Note_off_c, 0, 34, 64
1, 2947, Note_on_c, 0, 32, 97
1, 2947, Note_off_c, 0, 33, 64
1, 2947, Note_on_c, 0, 61, 11
1, 2947, Note_off_c, 0, 77, 64
1, 2947, Note_on_c, 0, 85, 14
1, 2948, Note_on_c, 0, 31, 96
1, 2948, Note_off_c, 0, 32, 64
1, 2950, Note_off_c, 0, 61, 64
1, 2951, Note_on_c, 0, 30, 78
1, 2951, Note_off_c, 0, 31, 64
1, 2953, Note_off_c, 0, 30, 64
1, 2953, Note_on_c, 0, 61, 26
1, 2953, Note_on_c, 0, 78, 42
1, 2953, Note_on_c, 0, 91, 17
1, 2954, Note_on_c, 0, 36, 71
1, 2954, Note_on_c, 0, 69, 14
1, 2954, Note_on_c, 0, 80, 36
1, 2954, Note_on_c, 0, 83, 20
1, 2954, Note_off_c, 0, 85, 64
1, 2954, Note_on_c, 0, 86, 21
1, 2954, Note_on_c, 0, 98, 23
1, 2954, Note_on_c, 0, 99, 17
1, 2954, Note_on_c, 0, 100, 20
1, 2954, Note_on_c, 0, 101, 25
1, 2954, Note_on_c, 0, 102, 29
1, 2955, Note_on_c, 0, 72, 19
1, 2955, Note_on_c, 0, 85, 23
1, 2955, Note_on_c, 0, 89, 22
1, 2955, Note_on_c, 0, 94, 14
1, 2955, Note_on_c, 0, 96, 14
1, 2956, Note_on_c, 0, 30, 79
1, 2956, Note_off_c, 0, 36, 64
1, 2956, Note_on_c, 0, 54, 43
1, 2956, Note_on_c, 0, 95, 28
1, 2957, Note_on_c, 0, 29, 81
1, 2957, Note_off_c, 0, 30, 64
1, 2957, Note_off_c, 0, 69, 64
1, 2957, Note_off_c, 0, 91, 64
1, 2957, Note_on_c, 0, 93, 19
1, 2958, Note_on_c, 0, 49, 52
1, 2958, Note_off_c, 0, 54, 64
1, 2958, Note_on_c, 0, 58, 26
1, 2958, Note_off_c, 0, 72, 64
1, 2958, Note_on_c, 0, 76, 22
1, 2958, Note_on_c, 0, 82, 22
1, 2958, Note_off_c, 0, 83, 64
1, 2958, Note_on_c, 0, 84, 25
1, 2958, Note_off_c, 0, 94, 64
1, 2958, Note_off_c, 0, 96, 64
1, 2958, Note_on_c, 0, 103, 17
1, 2959, Note_off_c, 0, 29, 64
1, 2959, Note_on_c, 0, 30, 77
1, 2959, Note_off_c, 0, 80, 64
1, 2959, Note_off_c, 0, 86, 64
1, 2959, Note_on_c, 0, 87, 12
1, 2959, Note_on_c, 0, 91, 16
1, 2959, Note_off_c, 0, 98, 64
1, 2959, Note_off_c, 0, 100, 64
1, 2960, Note_on_c, 0, 70, 32
1, 2960, Note_on_c, 0, 80, 26
1, 2960, Note_off_c, 0, 95, 64
1, 2960, Note_on_c, 0, 98, 21
1, 2961, Note_on_c, 0, 29, 74
1, 2961, Note_off_c, 0, 30, 64
1, 2961, Note_off_c, 0, 49, 64
1, 2961, Note_off_c, 0, 76, 64
1, 2961, Note_off_c, 0, 99, 64
1, 2961, Note_off_c, 0, 102, 64
1, 2961, Note_off_c, 0, 103, 64
1, 2962, Note_off_c, 0, 61, 64
1, 2962, Note_off_c, 0, 87, 64
1, 2962, Note_off_c, 0, 93, 64
1, 2962, Note_on_c, 0, 95, 16
1, 2962, Note_on_c, 0, 100, 25
1, 2962, Note_off_c, 0, 101, 64
1, 2963, Note_off_c, 0, 58, 64
1, 2963, Note_on_c, 0, 61, 36
1, 2963, Note_off_c, 0, 66, 64
1, 2963, Note_on_c, 0, 93, 13
1, 2963, Note_off_c, 0, 98, 64
1, 2964, Note_off_c, 0, 29, 64
1, 2964, Note_on_c, 0, 30, 73
1, 2964, Note_off_c, 0, 78, 64
1, 2964, Note_off_c, 0, 85, 64
1, 2964, Note_on_c, 0, 88, 24
1, 2964, Note_on_c, 0, 97, 28
1, 2964, Note_on_c, 0, 101, 30
1, 2964, Note_on_c, 0, 102, 29
1, 2964, Note_on_c, 0, 103, 17
1, 2965, Note_off_c, 0, 30, 64
1, 2965, Note_on_c, 0, 31, 76
1, 2965, Note_on_c, 0, 66, 43
1, 2965, Note_on_c, 0, 86, 19
1, 2965, Note_off_c, 0, 89, 64
1, 2965, Note_on_c, 0, 99, 19
1, 2966, Note_on_c, 0, 30, 80
1, 2966, Note_off_c, 0, 31, 64
1, 2966, Note_off_c, 0, 91, 64
1, 2966, Note_off_c, 0, 93, 64
1, 2966, Note_on_c, 0, 98, 19
1, 2967, Note_on_c, 0, 29, 80
1, 2967, Note_off_c, 0, 30, 64
1, 2967, Note_on_c, 0, 76, 20
1, 2967, Note_on_c, 0, 91, 12
1, 2967, Note_on_c, 0, 93, 17
1, 2968, Note_off_c, 0, 29, 64
1, 2968, Note_on_c, 0, 30, 78
1, 2968, Note_off_c, 0, 80, 64
1, 2968, Note_on_c, 0, 81, 13
1, 2968, Note_off_c, 0, 103, 64
1, 2969, Note_off_c, 0, 61, 64
1, 2969, Note_off_c, 0, 86, 64
1, 2970, Note_off_c, 0, 84, 64
1, 2971, Note_off_c, 0, 30, 64
1, 2971, Note_on_c, 0, 34, 71
1, 2971, Note_off_c, 0, 70, 64
1, 2971, Note_off_c, 0, 76, 64
1, 2971, Note_off_c, 0, 82, 64
1, 2971, Note_off_c, 0, 88, 64
1, 2971, Note_off_c, 0, 93, 64
1, 2971, Note_on_c, 0, 94, 23
1, 2971, Note_off_c, 0, 95, 64
1, 2971, Note_off_c, 0, 97, 64
1, 2971, Note_off_c, 0, 100, 64
1, 2971, Note_off_c, 0, 101, 64
1, 2971, Note_off_c, 0, 102, 64
1, 2972, Note_off_c, 0, 34, 64
1, 2972, Note_on_c, 0, 60, 41
1, 2972, Note_off_c, 0, 66, 64
1, 2972, Note_off_c, 0, 81, 64
1, 2972, Note_on_c, 0, 82, 17
1, 2972, Note_on_c, 0, 87, 10
1, 2972, Note_off_c, 0, 91, 64
1, 2973, Note_on_c, 0, 89, 13
1, 2973, Note_on_c, 0, 95, 19
1, 2973, Note_on_c, 0, 100, 15
1, 2973, Note_on_c, 0, 102, 17
1, 2974, Note_on_c, 0, 51, 67
1, 2974, Note_off_c, 0, 60, 64
1, 2974, Note_on_c, 0, 75, 17
1, 2974, Note_on_c, 0, 86, 16
1, 2975, Note_on_c, 0, 48, 82
1, 2975, Note_off_c, 0, 51, 64
1, 2975, Note_on_c, 0, 92, 17
1, 2975, Note_on_c, 0, 96, 15
1, 2976, Note_on_c, 0, 45, 94
1, 2976, Note_off_c, 0, 48, 64
1, 2976, Note_off_c, 0, 87, 64
1, 2976, Note_off_c, 0, 100, 64
1, 2977, Note_on_c, 0, 42, 100
1, 2977, Note_off_c, 0, 45, 64
1, 2977, Note_off_c, 0, 75, 64
1, 2977, Note_off_c, 0, 86, 64
1, 2977, Note_off_c, 0, 89, 64
1, 2977, Note_on_c, 0, 90, 19
1, 2977, Note_off_c, 0, 99, 64
1, 2978, Note_on_c, 0, 40, 97
1, 2978, Note_off_c, 0, 42, 64
1, 2978, Note_off_c, 0, 82, 64
1, 2978, Note_off_c, 0, 96, 64
1, 2978, Note_off_c, 0, 102, 64
1, 2979, Note_on_c, 0, 38, 98
1, 2979, Note_off_c, 0, 40, 64
1, 2979, Note_on_c, 0, 54, 15
1, 2979, Note_on_c, 0, 66, 35
1, 2980, Note_on_c, 0, 36, 98
1, 2980, Note_off_c, 0, 38, 64
1, 2980, Note_off_c, 0, 92, 64
1, 2980, Note_off_c, 0, 94, 64
1, 2980, Note_off_c, 0, 98, 64
1, 2981, Note_on_c, 0, 35, 97
1, 2981, Note_off_c, 0, 36, 64
1, 2981, Note_off_c, 0, 90, 64
1, 2981, Note_off_c, 0, 95, 64
1, 2982, Note_on_c, 0, 34, 96
1, 2982, Note_off_c, 0, 35, 64
1, 2982, Note_on_c, 0, 79, 13
1, 2982, Note_on_c, 0, 81, 27
1, 2982, Note_on_c, 0, 99, 20
1, 2983, Note_on_c, 0, 33, 95
1, 2983, Note_off_c, 0, 34, 64
1, 2983, Note_off_c, 0, 54, 64
1, 2983, Note_on_c, 0, 100, 17
1, 2983, Note_on_c, 0, 102, 13
1, 2983, Note_on_c, 0, 103, 23
1, 2984, Note_on_c, 0, 32, 96
1, 2984, Note_off_c, 0, 33, 64
1, 2985, Note_off_c, 0, 79, 64
1, 2985, Note_on_c, 0, 83, 9
1, 2985, Note_on_c, 0, 98, 18
1, 2986, Note_on_c, 0, 31, 94
1, 2986, Note_off_c, 0, 32, 64
1, 2986, Note_off_c, 0, 81, 64
1, 2986, Note_on_c, 0, 92, 18
1, 2987, Note_off_c, 0, 100, 64
1, 2988, Note_on_c, 0, 30, 83
1, 2988, Note_off_c, 0, 31, 64
1, 2988, Note_off_c, 0, 99, 64
1, 2988, Note_off_c, 0, 102, 64
1, 2988, Note_off_c, 0, 103, 64
1, 2989, Note_off_c, 0, 66, 64
1, 2989, Note_off_c, 0, 98, 64
1, 2990, Note_on_c, 0, 66, 35
1, 2990, Note_on_c, 0, 77, 9
1, 2990, Note_on_c, 0, 82, 19
1, 2990, Note_off_c, 0, 83, 64
1, 2990, Note_on_c, 0, 85, 27
1, 2991, Note_off_c, 0, 30, 64
1, 2991, Note_on_c, 0, 90, 27
1, 2991, Note_on_c, 0, 94, 20
1, 2991, Note_on_c, 0, 99, 21
1, 2991, Note_on_c, 0, 100, 27
1, 2991, Note_on_c, 0, 101, 20
1, 2991, Note_on_c, 0, 103, 22
1, 2992, Note_on_c, 0, 36, 68
1, 2992, Note_on_c, 0, 76, 25
1, 2992, Note_on_c, 0, 96, 20
1, 2992, Note_on_c, 0, 97, 29
1, 2992, Note_on_c, 0, 98, 22
1, 2992, Note_on_c, 0, 102, 27
1, 2993, Note_on_c, 0, 31, 74
1, 2993, Note_off_c, 0, 36, 64
1, 2993, Note_on_c, 0, 64, 23
1, 2993, Note_off_c, 0, 66, 64
1, 2993, Note_on_c, 0, 67, 37
1, 2993, Note_off_c, 0, 77, 64
1, 2993, Note_on_c, 0, 78, 36
1, 2993, Note_on_c, 0, 86, 21
1, 2993, Note_on_c, 0, 95, 16
1, 2994, Note_on_c, 0, 30, 81
1, 2994, Note_off_c, 0, 31, 64
1, 2994, Note_on_c, 0, 89, 30
1, 2994, Note_on_c, 0, 91, 26
1, 2994, Note_off_c, 0, 92, 64
1, 2995, Note_on_c, 0, 29, 81
1, 2995, Note_off_c, 0, 30, 64
1, 2995, Note_off_c, 0, 67, 64
1, 2995, Note_on_c, 0, 92, 18
1, 2995, Note_on_c, 0, 93, 17
1, 2995, Note_off_c, 0, 99, 64
1, 2996, Note_off_c, 0, 29, 64
1, 2996, Note_on_c, 0, 30, 77
1, 2996, Note_on_c, 0, 83, 16
1, 2996, Note_off_c, 0, 86, 64
1, 2997, Note_off_c, 0, 64, 64
1, 2997, Note_on_c, 0, 67, 29
1, 2997, Note_on_c, 0, 75, 16
1, 2997, Note_off_c, 0, 82, 64
1, 2997, Note_on_c, 0, 86, 17
1, 2997, Note_off_c, 0, 94, 64
1, 2997, Note_off_c, 0, 101, 64
1, 2997, Note_off_c, 0, 103, 64
1, 2998, Note_on_c, 0, 65, 30
1, 2998, Note_off_c, 0, 76, 64
1, 2998, Note_off_c, 0, 89, 64
1, 2998, Note_off_c, 0, 95, 64
1, 2998, Note_off_c, 0, 98, 64
1, 2998, Note_off_c, 0, 100, 64
1, 2998, Note_off_c, 0, 102, 64
1, 2999, Note_on_c, 0, 29, 74
1, 2999, Note_off_c, 0, 30, 64
1, 2999, Note_off_c, 0, 67, 64
1, 2999, Note_off_c, 0, 90, 64
1, 3000, Note_on_c, 0, 61, 26
1, 3000, Note_off_c, 0, 65, 64
1, 3000, Note_on_c, 0, 66, 55
1, 3000, Note_off_c, 0, 75, 64
1, 3000, Note_off_c, 0, 92, 64
1, 3000, Note_off_c, 0, 93, 64
1, 3000, Note_on_c, 0, 100, 31
1, 3000, Note_on_c, 0, 101, 39
1, 3000, Note_on_c, 0, 102, 30
1, 3001, Note_off_c, 0, 78, 64
1, 3001, Note_on_c, 0, 79, 31
1, 3001, Note_off_c, 0, 86, 64
1, 3001, Note_on_c, 0, 93, 24
1, 3001, Note_on_c, 0, 95, 29
1, 3001, Note_on_c, 0, 98, 33
1, 3001, Note_on_c, 0, 99, 26
1, 3002, Note_off_c, 0, 29, 64
1, 3002, Note_on_c, 0, 30, 80
1, 3002, Note_on_c, 0, 76, 24
1, 3002, Note_on_c, 0, 81, 12
1, 3002, Note_on_c, 0, 82, 10
1, 3002, Note_off_c, 0, 83, 64
1, 3002, Note_off_c, 0, 91, 64
1, 3002, Note_on_c, 0, 92, 20
1, 3002, Note_on_c, 0, 94, 25
1, 3003, Note_off_c, 0, 97, 64
1, 3004, Note_on_c, 0, 89, 19
1, 3005, Note_on_c, 0, 29, 79
1, 3005, Note_off_c, 0, 30, 64
1, 3005, Note_off_c, 0, 79, 64
1, 3005, Note_off_c, 0, 82, 64
1, 3005, Note_on_c, 0, 87, 29
1, 3005, Note_off_c, 0, 94, 64
1, 3005, Note_off_c, 0, 96, 64
1, 3006, Note_off_c, 0, 29, 64
1, 3006, Note_on_c, 0, 30, 77
1, 3006, Note_on_c, 0, 65, 35
1, 3006, Note_off_c, 0, 66, 64
1, 3006, Note_off_c, 0, 93, 64
1, 3006, Note_off_c, 0, 102, 64
1, 3007, Note_on_c, 0, 90, 13
1, 3008, Note_off_c, 0, 30, 64
1, 3008, Note_on_c, 0, 32, 73
1, 3008, Note_off_c, 0, 65, 64
1, 3008, Note_on_c, 0, 68, 26
1, 3008, Note_off_c, 0, 81, 64
1, 3008, Note_off_c, 0, 89, 64
1, 3008, Note_off_c, 0, 95, 64
1, 3008, Note_off_c, 0, 98, 64
1, 3009, Note_off_c, 0, 32, 64
1, 3009, Note_on_c, 0, 35, 67
1, 3009, Note_on_c, 0, 60, 30
1, 3009, Note_off_c, 0, 61, 64
1, 3009, Note_off_c, 0, 92, 64
1, 3009, Note_off_c, 0, 99, 64
1, 3009, Note_off_c, 0, 100, 64
1, 3010, Note_off_c, 0, 35, 64
1, 3010, Note_off_c, 0, 101, 64
1, 3011, Note_off_c, 0, 60, 64
1, 3011, Note_off_c, 0, 76, 64
1, 3011, Note_on_c, 0, 100, 18
1, 3011, Note_on_c, 0, 102, 14
1, 3012, Note_on_c, 0, 49, 77
1, 3012, Note_off_c, 0, 87, 64
1, 3013, Note_on_c, 0, 45, 91
1, 3013, Note_off_c, 0, 49, 64
1, 3013, Note_on_c, 0, 78, 14
1, 3014, Note_on_c, 0, 42, 97
1, 3014, Note_off_c, 0, 45, 64
1, 3014, Note_on_c, 0, 61, 21
1, 3014, Note_off_c, 0, 90, 64
1, 3015, Note_on_c, 0, 41, 99
1, 3015, Note_off_c, 0, 42, 64
1, 3015, Note_off_c, 0, 85, 64
1, 3016, Note_on_c, 0, 38, 98
1, 3016, Note_off_c, 0, 41, 64
1, 3016, Note_off_c, 0, 78, 64
1, 3016, Note_off_c, 0, 100, 64
1, 3016, Note_off_c, 0, 102, 64
1, 3017, Note_on_c, 0, 37, 98
1, 3017, Note_off_c, 0, 38, 64
1, 3017, Note_off_c, 0, 61, 64
1, 3018, Note_on_c, 0, 36, 98
1, 3018, Note_off_c, 0, 37, 64
1, 3019, Note_on_c, 0, 34, 97
1, 3019, Note_off_c, 0, 36, 64
1, 3019, Note_on_c, 0, 61, 16
1, 3020, Note_on_c, 0, 33, 96
1, 3020, Note_off_c, 0, 34, 64
1, 3020, Note_on_c, 0, 66, 25
1, 3020, Note_on_c, 0, 98, 22
1, 3021, Note_on_c, 0, 99, 14
1, 3021, Note_on_c, 0, 100, 21
1, 3022, Note_on_c, 0, 32, 97
1, 3022, Note_off_c, 0, 33, 64
1, 3022, Note_off_c, 0, 61, 64
1, 3022, Note_on_c, 0, 92, 19
1, 3023, Note_on_c, 0, 31, 95
1, 3023, Note_off_c, 0, 32, 64
1, 3023, Note_on_c, 0, 96, 28
1, 3023, Note_off_c, 0, 98, 64
1, 3024, Note_off_c, 0, 99, 64
1, 3026, Note_on_c, 0, 30, 77
1, 3026, Note_off_c, 0, 31, 64
1, 3026, Note_on_c, 0, 61, 24
1, 3026, Note_off_c, 0, 96, 64
1, 3026, Note_off_c, 0, 100, 64
1, 3027, Note_on_c, 0, 93, 11
1, 3028, Note_off_c, 0, 30, 64
1, 3028, Note_on_c, 0, 91, 20
1, 3029, Note_on_c, 0, 36, 72
1, 3029, Note_on_c, 0, 64, 28
1, 3029, Note_on_c, 0, 72, 23
1, 3029, Note_on_c, 0, 88, 23
1, 3029, Note_on_c, 0, 90, 15
1, 3029, Note_on_c, 0, 95, 26
1, 3029, Note_on_c, 0, 96, 30
1, 3029, Note_on_c, 0, 98, 30
1, 3029, Note_on_c, 0, 99, 25
1, 3029, Note_on_c, 0, 100, 37
1, 3029, Note_on_c, 0, 101, 30
1, 3029, Note_on_c, 0, 102, 28
1, 3029, Note_on_c, 0, 103, 27
1, 3030, Note_on_c, 0, 54, 43
1, 3030, Note_off_c, 0, 68, 64
1, 3030, Note_on_c, 0, 69, 35
1, 3030, Note_on_c, 0, 82, 16
1, 3030, Note_on_c, 0, 86, 11
1, 3030, Note_off_c, 0, 93, 64
1, 3030, Note_on_c, 0, 94, 28
1, 3030, Note_on_c, 0, 97, 34
1, 3031, Note_on_c, 0, 30, 79
1, 3031, Note_off_c, 0, 36, 64
1, 3031, Note_off_c, 0, 66, 64
1, 3031, Note_on_c, 0, 85, 33
1, 3031, Note_on_c, 0, 93, 30
1, 3032, Note_on_c, 0, 29, 80
1, 3032, Note_off_c, 0, 30, 64
1, 3032, Note_off_c, 0, 54, 64
1, 3032, Note_on_c, 0, 81, 36
1, 3032, Note_on_c, 0, 87, 22
1, 3032, Note_off_c, 0, 88, 64
1, 3032, Note_off_c, 0, 90, 64
1, 3033, Note_on_c, 0, 49, 54
1, 3033, Note_off_c, 0, 61, 64
1, 3033, Note_on_c, 0, 80, 16
1, 3033, Note_off_c, 0, 101, 64
1, 3034, Note_off_c, 0, 29, 64
1, 3034, Note_on_c, 0, 30, 76
1, 3034, Note_on_c, 0, 78, 16
1, 3034, Note_off_c, 0, 86, 64
1, 3034, Note_off_c, 0, 94, 64
1, 3035, Note_off_c, 0, 72, 64
1, 3035, Note_on_c, 0, 73, 33
1, 3035, Note_off_c, 0, 87, 64
1, 3035, Note_on_c, 0, 89, 20
1, 3035, Note_off_c, 0, 99, 64
1, 3035, Note_off_c, 0, 102, 64
1, 3035, Note_off_c, 0, 103, 64
1, 3036, Note_on_c, 0, 29, 74
1, 3036, Note_off_c, 0, 30, 64
1, 3036, Note_off_c, 0, 49, 64
1, 3036, Note_off_c, 0, 64, 64
1, 3036, Note_off_c, 0, 82, 64
1, 3036, Note_on_c, 0, 83, 23
1, 3036, Note_off_c, 0, 96, 64
1, 3036, Note_off_c, 0, 100, 64
1, 3037, Note_off_c, 0, 29, 64
1, 3037, Note_on_c, 0, 30, 72
1, 3037, Note_off_c, 0, 69, 64
1, 3037, Note_off_c, 0, 78, 64
1, 3037, Note_on_c, 0, 87, 22
1, 3037, Note_on_c, 0, 88, 34
1, 3037, Note_off_c, 0, 92, 64
1, 3038, Note_on_c, 0, 29, 70
1, 3038, Note_off_c, 0, 30, 64
1, 3038, Note_on_c, 0, 42, 66
1, 3038, Note_on_c, 0, 66, 38
1, 3038, Note_off_c, 0, 80, 64
1, 3038, Note_on_c, 0, 96, 31
1, 3038, Note_off_c, 0, 98, 64
1, 3038, Note_on_c, 0, 99, 30
1, 3038, Note_on_c, 0, 102, 26
1, 3039, Note_off_c, 0, 29, 64
1, 3039, Note_on_c, 0, 30, 80
1, 3039, Note_on_c, 0, 69, 32
1, 3039, Note_on_c, 0, 100, 36
1, 3039, Note_on_c, 0, 101, 26
1, 3040, Note_off_c, 0, 42, 64
1, 3040, Note_on_c, 0, 76, 38
1, 3040, Note_on_c, 0, 79, 36
1, 3040, Note_off_c, 0, 83, 64
1, 3040, Note_on_c, 0, 92, 25
1, 3041, Note_off_c, 0, 69, 64
1, 3041, Note_on_c, 0, 83, 18
1, 3041, Note_on_c, 0, 90, 22
1, 3041, Note_off_c, 0, 91, 64
1, 3041, Note_on_c, 0, 94, 24
1, 3041, Note_on_c, 0, 98, 33
1, 3042, Note_on_c, 0, 29, 80
1, 3042, Note_off_c, 0, 30, 64
1, 3042, Note_on_c, 0, 69, 34
1, 3043, Note_off_c, 0, 29, 64
1, 3043, Note_on_c, 0, 30, 77
1, 3043, Note_off_c, 0, 81, 64
1, 3043, Note_off_c, 0, 99, 64
1, 3044, Note_on_c, 0, 68, 29
1, 3044, Note_off_c, 0, 69, 64
1, 3044, Note_off_c, 0, 87, 64
1, 3044, Note_off_c, 0, 89, 64
1, 3044, Note_off_c, 0, 96, 64
1, 3045, Note_on_c, 0, 81, 14
1, 3045, Note_off_c, 0, 95, 64
1, 3045, Note_off_c, 0, 98, 64
1, 3045, Note_off_c, 0, 101, 64
1, 3045, Note_off_c, 0, 102, 64
1, 3046, Note_off_c, 0, 30, 64
1, 3046, Note_on_c, 0, 34, 71
1, 3046, Note_off_c, 0, 66, 64
1, 3046, Note_on_c, 0, 72, 12
1, 3046, Note_off_c, 0, 73, 64
1, 3046, Note_on_c, 0, 74, 20
1, 3046, Note_on_c, 0, 82, 16
1, 3046, Note_off_c, 0, 90, 64
1, 3046, Note_off_c, 0, 92, 64
1, 3046, Note_off_c, 0, 93, 64
1, 3046, Note_off_c, 0, 94, 64
1, 3046, Note_off_c, 0, 100, 64
1, 3047, Note_off_c, 0, 34, 64
1, 3047, Note_on_c, 0, 70, 19
1, 3047, Note_off_c, 0, 83, 64
1, 3047, Note_on_c, 0, 101, 19
1, 3048, Note_off_c, 0, 68, 64
1, 3048, Note_on_c, 0, 95, 21
1, 3049, Note_on_c, 0, 51, 72
1, 3049, Note_off_c, 0, 72, 64
1, 3049, Note_off_c, 0, 74, 64
1, 3049, Note_off_c, 0, 76, 64
1, 3049, Note_off_c, 0, 81, 64
1, 3049, Note_on_c, 0, 93, 20
1, 3049, Note_on_c, 0, 98, 18
1, 3050, Note_on_c, 0, 48, 85
1, 3050, Note_off_c, 0, 51, 64
1, 3050, Note_off_c, 0, 70, 64
1, 3050, Note_off_c, 0, 79, 64
1, 3050, Note_on_c, 0, 96, 14
1, 3050, Note_on_c, 0, 99, 12
1, 3050, Note_on_c, 0, 102, 10
1, 3051, Note_on_c, 0, 44, 95
1, 3051, Note_off_c, 0, 48, 64
1, 3051, Note_on_c, 0, 81, 25
1, 3051, Note_off_c, 0, 82, 64
1, 3051, Note_off_c, 0, 88, 64
1, 3052, Note_on_c, 0, 41, 100
1, 3052, Note_off_c, 0, 44, 64
1, 3052, Note_off_c, 0, 93, 64
1, 3052, Note_off_c, 0, 97, 64
1, 3052, Note_off_c, 0, 98, 64
1, 3052, Note_off_c, 0, 101, 64
1, 3053, Note_on_c, 0, 40, 97
1, 3053, Note_off_c, 0, 41, 64
1, 3053, Note_off_c, 0, 85, 64
1, 3053, Note_off_c, 0, 96, 64
1, 3053, Note_off_c, 0, 99, 64
1, 3053, Note_off_c, 0, 102, 64
1, 3054, Note_on_c, 0, 38, 98
1, 3054, Note_off_c, 0, 40, 64
1, 3054, Note_off_c, 0, 95, 64
1, 3055, Note_on_c, 0, 36, 98
1, 3055, Note_off_c, 0, 38, 64
1, 3056, Note_on_c, 0, 35, 97
1, 3056, Note_off_c, 0, 36, 64
1, 3056, Note_on_c, 0, 66, 25
1, 3056, Note_on_c, 0, 69, 16
1, 3056, Note_off_c, 0, 81, 64
1, 3056, Note_on_c, 0, 92, 27
1, 3057, Note_on_c, 0, 34, 96
1, 3057, Note_off_c, 0, 35, 64
1, 3057, Note_on_c, 0, 96, 13
1, 3058, Note_on_c, 0, 33, 96
1, 3058, Note_off_c, 0, 34, 64
1, 3058, Note_on_c, 0, 82, 30
1, 3058, Note_on_c, 0, 90, 14
1, 3058, Note_on_c, 0, 91, 11
1, 3058, Note_on_c, 0, 95, 19
1, 3058, Note_on_c, 0, 98, 16
1, 3058, Note_on_c, 0, 99, 13
1, 3059, Note_on_c, 0, 32, 97
1, 3059, Note_off_c, 0, 33, 64
1, 3059, Note_on_c, 0, 88, 12
1, 3059, Note_on_c, 0, 89, 22
1, 3059, Note_on_c, 0, 93, 11
1, 3060, Note_off_c, 0, 82, 64
1, 3060, Note_off_c, 0, 96, 64
1, 3060, Note_on_c, 0, 97, 13
1, 3061, Note_on_c, 0, 31, 94
1, 3061, Note_off_c, 0, 32, 64
1, 3061, Note_off_c, 0, 69, 64
1, 3061, Note_off_c, 0, 91, 64
1, 3061, Note_off_c, 0, 98, 64
1, 3062, Note_on_c, 0, 85, 18
1, 3062, Note_off_c, 0, 93, 64
1, 3062, Note_off_c, 0, 99, 64
1, 3063, Note_on_c, 0, 30, 82
1, 3063, Note_off_c, 0, 31, 64
1, 3063, Note_on_c, 0, 73, 15
1, 3063, Note_off_c, 0, 88, 64
1, 3063, Note_off_c, 0, 90, 64
1, 3063, Note_off_c, 0, 95, 64
1, 3063, Note_off_c, 0, 97, 64
1, 3064, Note_off_c, 0, 66, 64
1, 3065, Note_on_c, 0, 69, 42
1, 3065, Note_on_c, 0, 76, 26
1, 3065, Note_on_c, 0, 82, 29
1, 3066, Note_off_c, 0, 30, 64
1, 3066, Note_on_c, 0, 66, 17
1, 3066, Note_off_c, 0, 73, 64
1, 3066, Note_on_c, 0, 74, 18
1, 3066, Note_on_c, 0, 90, 34
1, 3066, Note_on_c, 0, 93, 23
1, 3066, Note_on_c, 0, 96, 26
1, 3066, Note_on_c, 0, 98, 32
1, 3066, Note_on_c, 0, 100, 33
1, 3067, Note_on_c, 0, 36, 70
1, 3067, Note_on_c, 0, 64, 23
1, 3067, Note_on_c, 0, 88, 33
1, 3067, Note_on_c, 0, 91, 30
1, 3067, Note_on_c, 0, 95, 22
1, 3067, Note_on_c, 0, 97, 30
1, 3067, Note_on_c, 0, 99, 29
1, 3068, Note_on_c, 0, 31, 76
1, 3068, Note_off_c, 0, 36, 64
1, 3068, Note_on_c, 0, 86, 24
1, 3068, Note_off_c, 0, 89, 64
1, 3069, Note_on_c, 0, 30, 81
1, 3069, Note_off_c, 0, 31, 64
1, 3069, Note_off_c, 0, 93, 64
1, 3070, Note_on_c, 0, 29, 80
1, 3070, Note_off_c, 0, 30, 64
1, 3070, Note_off_c, 0, 64, 64
1, 3070, Note_on_c, 0, 73, 28
1, 3070, Note_off_c, 0, 74, 64
1, 3070, Note_off_c, 0, 82, 64
1, 3070, Note_on_c, 0, 87, 17
1, 3071, Note_off_c, 0, 29, 64
1, 3071, Note_on_c, 0, 30, 77
1, 3071, Note_on_c, 0, 64, 36
1, 3071, Note_off_c, 0, 66, 64
1, 3071, Note_off_c, 0, 85, 64
1, 3071, Note_off_c, 0, 91, 64
1, 3072, Note_on_c, 0, 83, 12
1, 3072, Note_on_c, 0, 85, 30
1, 3072, Note_off_c, 0, 86, 64
1, 3072, Note_on_c, 0, 91, 43
1, 3072, Note_off_c, 0, 92, 64
1, 3072, Note_off_c, 0, 99, 64
1, 3073, Note_on_c, 0, 29, 75
1, 3073, Note_off_c, 0, 30, 64
1, 3073, Note_on_c, 0, 61, 23
1, 3073, Note_off_c, 0, 73, 64
1, 3073, Note_on_c, 0, 79, 23
1, 3073, Note_on_c, 0, 92, 30
1, 3073, Note_off_c, 0, 95, 64
1, 3073, Note_off_c, 0, 97, 64
1, 3074, Note_off_c, 0, 76, 64
1, 3074, Note_off_c, 0, 87, 64
1, 3074, Note_off_c, 0, 88, 64
1, 3074, Note_on_c, 0, 89, 30
1, 3075, Note_on_c, 0, 72, 27
1, 3075, Note_on_c, 0, 76, 40
1, 3075, Note_on_c, 0, 82, 26
1, 3075, Note_off_c, 0, 83, 64
1, 3075, Note_on_c, 0, 95, 40
1, 3075, Note_on_c, 0, 99, 28
1, 3076, Note_off_c, 0, 61, 64
1, 3076, Note_on_c, 0, 83, 17
1, 3076, Note_on_c, 0, 87, 11
1, 3077, Note_off_c, 0, 29, 64
1, 3077, Note_on_c, 0, 30, 80
1, 3078, Note_on_c, 0, 49, 58
1, 3078, Note_off_c, 0, 64, 64
1, 3078, Note_off_c, 0, 82, 64
1, 3078, Note_off_c, 0, 99, 64
1, 3079, Note_on_c, 0, 78, 24
1, 3079, Note_off_c, 0, 79, 64
1, 3079, Note_on_c, 0, 84, 33
1, 3079, Note_on_c, 0, 86, 29
1, 3079, Note_off_c, 0, 87, 64
1, 3079, Note_on_c, 0, 94, 22
1, 3080, Note_on_c, 0, 29, 78
1, 3080, Note_off_c, 0, 30, 64
1, 3080, Note_on_c, 0, 64, 40
1, 3080, Note_off_c, 0, 72, 64
1, 3080, Note_off_c, 0, 83, 64
1, 3080, Note_off_c, 0, 89, 64
1, 3080, Note_off_c, 0, 92, 64
1, 3081, Note_off_c, 0, 29, 64
1, 3081, Note_on_c, 0, 30, 76
1, 3081, Note_off_c, 0, 49, 64
1, 3081, Note_on_c, 0, 74, 20
1, 3081, Note_on_c, 0, 83, 23
1, 3081, Note_off_c, 0, 84, 64
1, 3081, Note_on_c, 0, 92, 25
1, 3082, Note_off_c, 0, 64, 64
1, 3082, Note_on_c, 0, 66, 38
1, 3082, Note_off_c, 0, 78, 64
1, 3082, Note_off_c, 0, 91, 64
1, 3082, Note_off_c, 0, 94, 64
1, 3083, Note_off_c, 0, 30, 64
1, 3083, Note_on_c, 0, 33, 72
1, 3083, Note_off_c, 0, 69, 64
1, 3083, Note_off_c, 0, 86, 64
1, 3083, Note_off_c, 0, 100, 64
1, 3084, Note_off_c, 0, 33, 64
1, 3084, Note_on_c, 0, 35, 65
1, 3084, Note_on_c, 0, 54, 31
1, 3084, Note_off_c, 0, 66, 64
1, 3084, Note_off_c, 0, 96, 64
1, 3084, Note_off_c, 0, 98, 64
1, 3085, Note_off_c, 0, 35, 64
1, 3085, Note_on_c, 0, 66, 34
1, 3085, Note_off_c, 0, 74, 64
1, 3085, Note_off_c, 0, 76, 64
1, 3086, Note_off_c, 0, 54, 64
1, 3086, Note_off_c, 0, 83, 64
1, 3086, Note_on_c, 0, 87, 13
1, 3087, Note_on_c, 0, 48, 81
1, 3087, Note_on_c, 0, 98, 15
1, 3088, Note_on_c, 0, 45, 92
1, 3088, Note_off_c, 0, 48, 64
1, 3088, Note_off_c, 0, 66, 64
1, 3088, Note_off_c, 0, 85, 64
1, 3088, Note_off_c, 0, 95, 64
1, 3089, Note_on_c, 0, 42, 99
1, 3089, Note_off_c, 0, 45, 64
1, 3089, Note_on_c, 0, 93, 22
1, 3090, Note_on_c, 0, 41, 99
1, 3090, Note_off_c, 0, 42, 64
1, 3090, Note_off_c, 0, 98, 64
1, 3091, Note_on_c, 0, 38, 98
1, 3091, Note_off_c, 0, 41, 64
1, 3091, Note_on_c, 0, 69, 22
1, 3091, Note_off_c, 0, 87, 64
1, 3091, Note_off_c, 0, 90, 64
1, 3091, Note_off_c, 0, 92, 64
1, 3092, Note_on_c, 0, 37, 98
1, 3092, Note_off_c, 0, 38, 64
1, 3092, Note_off_c, 0, 93, 64
1, 3093, Note_on_c, 0, 35, 97
1, 3093, Note_off_c, 0, 37, 64
1, 3094, Note_on_c, 0, 34, 96
1, 3094, Note_off_c, 0, 35, 64
1, 3094, Note_on_c, 0, 66, 13
1, 3095, Note_on_c, 0, 33, 96
1, 3095, Note_off_c, 0, 34, 64
1, 3095, Note_on_c, 0, 71, 38
1, 3095, Note_on_c, 0, 86, 16
1, 3095, Note_on_c, 0, 88, 12
1, 3095, Note_on_c, 0, 90, 13
1, 3096, Note_on_c, 0, 32, 96
1, 3096, Note_off_c, 0, 33, 64
1, 3096, Note_on_c, 0, 87, 15
1, 3096, Note_on_c, 0, 93, 21
1, 3096, Note_on_c, 0, 94, 18
1, 3097, Note_on_c, 0, 78, 15
1, 3098, Note_on_c, 0, 31, 95
1, 3098, Note_off_c, 0, 32, 64
1, 3098, Note_on_c, 0, 48, 14
1, 3098, Note_off_c, 0, 66, 64
1, 3098, Note_off_c, 0, 86, 64
1, 3098, Note_off_c, 0, 88, 64
1, 3098, Note_on_c, 0, 89, 17
1, 3099, Note_on_c, 0, 64, 18
1, 3099, Note_off_c, 0, 90, 64
1, 3099, Note_on_c, 0, 91, 11
1, 3100, Note_off_c, 0, 94, 64
1, 3101, Note_on_c, 0, 30, 76
1, 3101, Note_off_c, 0, 31, 64
1, 3101, Note_off_c, 0, 48, 64
1, 3101, Note_off_c, 0, 69, 64
1, 3101, Note_off_c, 0, 78, 64
1, 3101, Note_on_c, 0, 79, 19
1, 3101, Note_off_c, 0, 87, 64
1, 3101, Note_off_c, 0, 89, 64
1, 3102, Note_off_c, 0, 64, 64
1, 3102, Note_on_c, 0, 69, 42
1, 3102, Note_on_c, 0, 86, 12
1, 3102, Note_off_c, 0, 93, 64
1, 3103, Note_off_c, 0, 30, 64
1, 3103, Note_on_c, 0, 64, 26
1, 3103, Note_on_c, 0, 88, 24
1, 3103, Note_on_c, 0, 92, 34
1, 3103, Note_on_c, 0, 94, 28
1, 3103, Note_on_c, 0, 96, 29
1, 3104, Note_on_c, 0, 90, 25
1, 3104, Note_off_c, 0, 91, 64
1, 3104, Note_on_c, 0, 93, 30
1, 3105, Note_on_c, 0, 35, 71
1, 3105, Note_off_c, 0, 79, 64
1, 3105, Note_on_c, 0, 85, 25
1, 3105, Note_on_c, 0, 91, 36
1, 3105, Note_on_c, 0, 95, 35
1, 3105, Note_on_c, 0, 97, 26
1, 3105, Note_on_c, 0, 101, 16
1, 3106, Note_on_c, 0, 30, 80
1, 3106, Note_off_c, 0, 35, 64
1, 3106, Note_off_c, 0, 86, 64
1, 3106, Note_on_c, 0, 99, 26
1, 3107, Note_on_c, 0, 29, 80
1, 3107, Note_off_c, 0, 30, 64
1, 3107, Note_on_c, 0, 73, 23
1, 3107, Note_on_c, 0, 86, 30
1, 3107, Note_on_c, 0, 87, 38
1, 3107, Note_off_c, 0, 88, 64
1, 3107, Note_on_c, 0, 89, 40
1, 3108, Note_off_c, 0, 29, 64
1, 3108, Note_on_c, 0, 30, 78
1, 3108, Note_off_c, 0, 64, 64
1, 3108, Note_on_c, 0, 65, 29
1, 3109, Note_on_c, 0, 88, 43
1, 3109, Note_off_c, 0, 89, 64
1, 3109, Note_off_c, 0, 101, 64
1, 3110, Note_on_c, 0, 61, 23
1, 3110, Note_off_c, 0, 65, 64
1, 3110, Note_on_c, 0, 66, 33
1, 3110, Note_off_c, 0, 73, 64
1, 3110, Note_on_c, 0, 76, 40
1, 3110, Note_off_c, 0, 96, 64
1, 3111, Note_on_c, 0, 29, 74
1, 3111, Note_off_c, 0, 30, 64
1, 3111, Note_off_c, 0, 85, 64
1, 3111, Note_off_c, 0, 95, 64
1, 3111, Note_off_c, 0, 97, 64
1, 3112, Note_off_c, 0, 71, 64
1, 3112, Note_on_c, 0, 73, 24
1, 3112, Note_off_c, 0, 87, 64
1, 3112, Note_off_c, 0, 90, 64
1, 3113, Note_off_c, 0, 66, 64
1, 3113, Note_on_c, 0, 85, 28
1, 3113, Note_on_c, 0, 87, 30
1, 3113, Note_on_c, 0, 95, 28
1, 3113, Note_on_c, 0, 96, 25
1, 3114, Note_off_c, 0, 29, 64
1, 3114, Note_on_c, 0, 30, 81
1, 3114, Note_off_c, 0, 61, 64
1, 3114, Note_on_c, 0, 64, 42
1, 3114, Note_on_c, 0, 72, 25
1, 3114, Note_on_c, 0, 79, 28
1, 3114, Note_on_c, 0, 84, 31
1, 3114, Note_off_c, 0, 86, 64
1, 3114, Note_on_c, 0, 89, 29
1, 3115, Note_on_c, 0, 66, 32
1, 3115, Note_off_c, 0, 69, 64
1, 3115, Note_off_c, 0, 73, 64
1, 3115, Note_off_c, 0, 76, 64
1, 3115, Note_on_c, 0, 82, 25
1, 3115, Note_on_c, 0, 86, 35
1, 3115, Note_on_c, 0, 90, 27
1, 3115, Note_off_c, 0, 94, 64
1, 3116, Note_on_c, 0, 69, 45
1, 3117, Note_on_c, 0, 29, 80
1, 3117, Note_off_c, 0, 30, 64
1, 3117, Note_off_c, 0, 84, 64
1, 3118, Note_off_c, 0, 29, 64
1, 3118, Note_on_c, 0, 30, 77
1, 3118, Note_off_c, 0, 66, 64
1, 3118, Note_on_c, 0, 73, 24
1, 3118, Note_off_c, 0, 90, 64
1, 3119, Note_on_c, 0, 48, 51
1, 3119, Note_off_c, 0, 64, 64
1, 3119, Note_off_c, 0, 72, 64
1, 3119, Note_on_c, 0, 83, 13
1, 3119, Note_off_c, 0, 99, 64
1, 3120, Note_off_c, 0, 87, 64
1, 3120, Note_off_c, 0, 92, 64
1, 3120, Note_off_c, 0, 95, 64
1, 3121, Note_off_c, 0, 30, 64
1, 3121, Note_on_c, 0, 34, 70
1, 3121, Note_off_c, 0, 48, 64
1, 3121, Note_off_c, 0, 82, 64
1, 3121, Note_off_c, 0, 88, 64
1, 3122, Note_off_c, 0, 34, 64
1, 3122, Note_on_c, 0, 65, 28
1, 3122, Note_off_c, 0, 79, 64
1, 3122, Note_off_c, 0, 83, 64
1, 3123, Note_on_c, 0, 51, 74
1, 3123, Note_off_c, 0, 73, 64
1, 3123, Note_on_c, 0, 88, 24
1, 3123, Note_off_c, 0, 89, 64
1, 3123, Note_off_c, 0, 96, 64
1, 3124, Note_on_c, 0, 90, 13
1, 3124, Note_on_c, 0, 92, 16
1, 3125, Note_on_c, 0, 46, 86
1, 3125, Note_off_c, 0, 51, 64
1, 3125, Note_off_c, 0, 69, 64
1, 3125, Note_on_c, 0, 83, 11
1, 3125, Note_on_c, 0, 89, 16
1, 3126, Note_on_c, 0, 44, 94
1, 3126, Note_off_c, 0, 46, 64
1, 3126, Note_off_c, 0, 65, 64
1, 3126, Note_on_c, 0, 69, 26
1, 3126, Note_on_c, 0, 72, 24
1, 3126, Note_off_c, 0, 85, 64
1, 3126, Note_off_c, 0, 86, 64
1, 3126, Note_on_c, 0, 87, 22
1, 3127, Note_on_c, 0, 41, 100
1, 3127, Note_off_c, 0, 44, 64
1, 3127, Note_off_c, 0, 90, 64
1, 3128, Note_on_c, 0, 39, 97
1, 3128, Note_off_c, 0, 41, 64
1, 3128, Note_off_c, 0, 83, 64
1, 3128, Note_off_c, 0, 88, 64
1, 3128, Note_off_c, 0, 89, 64
1, 3128, Note_off_c, 0, 93, 64
1, 3129, Note_on_c, 0, 37, 98
1, 3129, Note_off_c, 0, 39, 64
1, 3129, Note_off_c, 0, 87, 64
1, 3129, Note_off_c, 0, 92, 64
1, 3130, Note_on_c, 0, 36, 98
1, 3130, Note_off_c, 0, 37, 64
1, 3130, Note_off_c, 0, 91, 64
1, 3131, Note_on_c, 0, 35, 97
1, 3131, Note_off_c, 0, 36, 64
1, 3132, Note_on_c, 0, 34, 96
1, 3132, Note_off_c, 0, 35, 64
1, 3132, Note_on_c, 0, 87, 14
1, 3132, Note_on_c, 0, 93, 10
1, 3133, Note_on_c, 0, 33, 96
1, 3133, Note_off_c, 0, 34, 64
1, 3133, Note_on_c, 0, 89, 23
1, 3133, Note_on_c, 0, 91, 21
1, 3134, Note_on_c, 0, 32, 97
1, 3134, Note_off_c, 0, 33, 64
1, 3134, Note_on_c, 0, 88, 22
1, 3135, Note_on_c, 0, 31, 96
1, 3135, Note_off_c, 0, 32, 64
1, 3135, Note_on_c, 0, 48, 21
1, 3135, Note_on_c, 0, 79, 15
1, 3135, Note_off_c, 0, 87, 64
1, 3136, Note_on_c, 0, 64, 42
1, 3136, Note_on_c, 0, 83, 15
1, 3137, Note_off_c, 0, 69, 64
1, 3137, Note_on_c, 0, 87, 11
1, 3137, Note_off_c, 0, 89, 64
1, 3137, Note_off_c, 0, 93, 64
1, 3138, Note_on_c, 0, 30, 81
1, 3138, Note_off_c, 0, 31, 64
1, 3138, Note_off_c, 0, 48, 64
1, 3138, Note_off_c, 0, 79, 64
1, 3139, Note_off_c, 0, 72, 64
1, 3140, Note_off_c, 0, 30, 64
1, 3140, Note_on_c, 0, 69, 33
1, 3140, Note_on_c, 0, 72, 28
1, 3140, Note_on_c, 0, 85, 32
1, 3141, Note_on_c, 0, 79, 16
1, 3141, Note_on_c, 0, 82, 19
1, 3141, Note_off_c, 0, 83, 64
1, 3141, Note_on_c, 0, 86, 27
1, 3141, Note_on_c, 0, 89, 39
1, 3141, Note_on_c, 0, 92, 26
1, 3141, Note_on_c, 0, 93, 26
1, 3141, Note_on_c, 0, 95, 14
1, 3141, Note_on_c, 0, 99, 25
1, 3142, Note_on_c, 0, 36, 71
1, 3142, Note_on_c, 0, 84, 32
1, 3142, Note_on_c, 0, 94, 28
1, 3143, Note_on_c, 0, 31, 78
1, 3143, Note_off_c, 0, 36, 64
1, 3143, Note_off_c, 0, 87, 64
1, 3144, Note_on_c, 0, 29, 81
1, 3144, Note_off_c, 0, 31, 64
1, 3144, Note_off_c, 0, 72, 64
1, 3144, Note_off_c, 0, 82, 64
1, 3144, Note_off_c, 0, 88, 64
1, 3145, Note_on_c, 0, 78, 16
1, 3146, Note_off_c, 0, 29, 64
1, 3146, Note_on_c, 0, 30, 77
1, 3146, Note_off_c, 0, 69, 64
1, 3146, Note_on_c, 0, 73, 28
1, 3146, Note_on_c, 0, 75, 27
1, 3146, Note_on_c, 0, 77, 30
1, 3146, Note_off_c, 0, 79, 64
1, 3146, Note_on_c, 0, 82, 20
1, 3146, Note_on_c, 0, 83, 22
1, 3146, Note_off_c, 0, 84, 64
1, 3146, Note_off_c, 0, 86, 64
1, 3146, Note_on_c, 0, 90, 31
1, 3147, Note_off_c, 0, 85, 64
1, 3147, Note_off_c, 0, 91, 64
1, 3147, Note_off_c, 0, 92, 64
1, 3148, Note_on_c, 0, 29, 75
1, 3148, Note_off_c, 0, 30, 64
1, 3148, Note_off_c, 0, 77, 64
1, 3148, Note_on_c, 0, 85, 44
1, 3148, Note_off_c, 0, 93, 64
1, 3148, Note_off_c, 0, 99, 64
1, 3149, Note_off_c, 0, 75, 64
1, 3149, Note_off_c, 0, 83, 64
1, 3150, Note_on_c, 0, 66, 30
1, 3150, Note_on_c, 0, 72, 41
1, 3150, Note_off_c, 0, 78, 64
1, 3150, Note_on_c, 0, 81, 29
1, 3150, Note_off_c, 0, 82, 64
1, 3150, Note_on_c, 0, 86, 32
1, 3150, Note_off_c, 0, 95, 64
1, 3151, Note_off_c, 0, 29, 64
1, 3151, Note_on_c, 0, 30, 72
1, 3151, Note_off_c, 0, 64, 64
1, 3151, Note_on_c, 0, 69, 43
1, 3151, Note_off_c, 0, 73, 64
1, 3151, Note_on_c, 0, 77, 29
1, 3151, Note_on_c, 0, 87, 24
1, 3151, Note_off_c, 0, 89, 64
1, 3151, Note_on_c, 0, 91, 37
1, 3151, Note_on_c, 0, 93, 29
1, 3151, Note_on_c, 0, 101, 13
1, 3152, Note_off_c, 0, 30, 64
1, 3152, Note_on_c, 0, 31, 76
1, 3152, Note_on_c, 0, 54, 48
1, 3152, Note_off_c, 0, 66, 64
1, 3152, Note_off_c, 0, 72, 64
1, 3152, Note_on_c, 0, 73, 36
1, 3152, Note_on_c, 0, 82, 21
1, 3152, Note_on_c, 0, 92, 25
1, 3153, Note_on_c, 0, 30, 80
1, 3153, Note_off_c, 0, 31, 64
1, 3153, Note_on_c, 0, 64, 28
1, 3153, Note_on_c, 0, 79, 33
1, 3154, Note_on_c, 0, 29, 81
1, 3154, Note_off_c, 0, 30, 64
1, 3154, Note_off_c, 0, 69, 64
1, 3154, Note_off_c, 0, 77, 64
1, 3154, Note_off_c, 0, 87, 64
1, 3154, Note_on_c, 0, 89, 21
1, 3155, Note_off_c, 0, 29, 64
1, 3155, Note_on_c, 0, 30, 79
1, 3155, Note_off_c, 0, 54, 64
1, 3155, Note_on_c, 0, 66, 29
1, 3155, Note_on_c, 0, 77, 32
1, 3155, Note_on_c, 0, 80, 27
1, 3155, Note_off_c, 0, 82, 64
1, 3155, Note_off_c, 0, 86, 64
1, 3155, Note_on_c, 0, 87, 40
1, 3155, Note_off_c, 0, 93, 64
1, 3155, Note_off_c, 0, 101, 64
1, 3157, Note_off_c, 0, 73, 64
1, 3157, Note_off_c, 0, 89, 64
1, 3158, Note_off_c, 0, 30, 64
1, 3158, Note_on_c, 0, 33, 73
1, 3158, Note_off_c, 0, 66, 64
1, 3158, Note_on_c, 0, 69, 32
1, 3158, Note_off_c, 0, 77, 64
1, 3158, Note_off_c, 0, 79, 64
1, 3158, Note_off_c, 0, 85, 64
1, 3158, Note_on_c, 0, 86, 23
1, 3159, Note_off_c, 0, 33, 64
1, 3159, Note_on_c, 0, 59, 37
1, 3159, Note_off_c, 0, 80, 64
1, 3159, Note_off_c, 0, 87, 64
1, 3160, Note_off_c, 0, 64, 64
1, 3160, Note_off_c, 0, 69, 64
1, 3160, Note_off_c, 0, 81, 64
1, 3160, Note_on_c, 0, 82, 14
1, 3160, Note_off_c, 0, 92, 64
1, 3161, Note_on_c, 0, 53, 66
1, 3161, Note_off_c, 0, 59, 64
1, 3161, Note_off_c, 0, 91, 64
1, 3161, Note_off_c, 0, 94, 64
1, 3162, Note_on_c, 0, 48, 83
1, 3162, Note_off_c, 0, 53, 64
1, 3163, Note_on_c, 0, 45, 94
1, 3163, Note_off_c, 0, 48, 64
1, 3163, Note_on_c, 0, 87, 24
1, 3163, Note_off_c, 0, 90, 64
1, 3164, Note_on_c, 0, 42, 99
1, 3164, Note_off_c, 0, 45, 64
1, 3164, Note_off_c, 0, 82, 64
1, 3165, Note_on_c, 0, 40, 99
1, 3165, Note_off_c, 0, 42, 64
1, 3165, Note_on_c, 0, 73, 15
1, 3165, Note_off_c, 0, 86, 64
1, 3166, Note_on_c, 0, 38, 98
1, 3166, Note_off_c, 0, 40, 64
1, 3166, Note_off_c, 0, 87, 64
1, 3167, Note_on_c, 0, 37, 98
1, 3167, Note_off_c, 0, 38, 64
1, 3167, Note_on_c, 0, 69, 19
1, 3168, Note_on_c, 0, 35, 97
1, 3168, Note_off_c, 0, 37, 64
1, 3168, Note_off_c, 0, 73, 64
1, 3169, Note_on_c, 0, 34, 96
1, 3169, Note_off_c, 0, 35, 64
1, 3169, Note_on_c, 0, 84, 12
1, 3169, Note_on_c, 0, 86, 13
1, 3169, Note_on_c, 0, 88, 19
1, 3169, Note_on_c, 0, 92, 17
1, 3170, Note_on_c, 0, 33, 96
1, 3170, Note_off_c, 0, 34, 64
1, 3170, Note_on_c, 0, 91, 12
1, 3171, Note_on_c, 0, 32, 97
1, 3171, Note_off_c, 0, 33, 64
1, 3171, Note_on_c, 0, 64, 17
1, 3171, Note_off_c, 0, 69, 64
1, 3171, Note_on_c, 0, 82, 12
1, 3171, Note_on_c, 0, 85, 21
1, 3172, Note_off_c, 0, 86, 64
1, 3172, Note_on_c, 0, 89, 18
1, 3172, Note_off_c, 0, 92, 64
1, 3173, Note_on_c, 0, 31, 95
1, 3173, Note_off_c, 0, 32, 64
1, 3174, Note_on_c, 0, 74, 30
1, 3174, Note_off_c, 0, 82, 64
1, 3174, Note_off_c, 0, 84, 64
1, 3174, Note_off_c, 0, 91, 64
1, 3174, Note_on_c, 0, 93, 29
1, 3175, Note_on_c, 0, 30, 85
1, 3175, Note_off_c, 0, 31, 64
1, 3175, Note_off_c, 0, 88, 64
1, 3175, Note_off_c, 0, 89, 64
1, 3176, Note_off_c, 0, 85, 64
1, 3176, Note_on_c, 0, 86, 38
1, 3177, Note_off_c, 0, 64, 64
1, 3177, Note_on_c, 0, 69, 29
1, 3178, Note_off_c, 0, 30, 64
1, 3178, Note_on_c, 0, 64, 36
1, 3178, Note_on_c, 0, 80, 27
1, 3178, Note_on_c, 0, 83, 27
1, 3178, Note_on_c, 0, 88, 31
1, 3178, Note_on_c, 0, 91, 22
1, 3179, Note_on_c, 0, 36, 65
1, 3179, Note_on_c, 0, 84, 34
1, 3180, Note_on_c, 0, 32, 73
1, 3180, Note_off_c, 0, 36, 64
1, 3180, Note_on_c, 0, 78, 24
1, 3180, Note_on_c, 0, 89, 26
1, 3180, Note_on_c, 0, 97, 14
1, 3180, Note_on_c, 0, 102, 13
1, 3181, Note_on_c, 0, 30, 80
1, 3181, Note_off_c, 0, 32, 64
1, 3181, Note_on_c, 0, 68, 27
1, 3181, Note_off_c, 0, 69, 64
1, 3181, Note_off_c, 0, 74, 64
1, 3181, Note_on_c, 0, 75, 28
1, 3182, Note_on_c, 0, 29, 80
1, 3182, Note_off_c, 0, 30, 64
1, 3182, Note_on_c, 0, 82, 24
1, 3182, Note_off_c, 0, 83, 64
1, 3182, Note_on_c, 0, 85, 29
1, 3183, Note_off_c, 0, 29, 64
1, 3183, Note_on_c, 0, 30, 78
1, 3183, Note_on_c, 0, 74, 39
1, 3183, Note_off_c, 0, 97, 64
1, 3183, Note_off_c, 0, 102, 64
1, 3184, Note_on_c, 0, 66, 22
1, 3184, Note_off_c, 0, 68, 64
1, 3184, Note_on_c, 0, 72, 20
1, 3184, Note_on_c, 0, 81, 22
1, 3184, Note_off_c, 0, 89, 64
1, 3184, Note_off_c, 0, 91, 64
1, 3185, Note_on_c, 0, 29, 75
1, 3185, Note_off_c, 0, 30, 64
1, 3185, Note_off_c, 0, 64, 64
1, 3185, Note_off_c, 0, 75, 64
1, 3185, Note_off_c, 0, 80, 64
1, 3185, Note_on_c, 0, 83, 40
1, 3185, Note_off_c, 0, 84, 64
1, 3186, Note_on_c, 0, 68, 31
1, 3186, Note_on_c, 0, 76, 34
1, 3186, Note_on_c, 0, 87, 37
1, 3187, Note_off_c, 0, 66, 64
1, 3187, Note_off_c, 0, 81, 64
1, 3187, Note_off_c, 0, 85, 64
1, 3188, Note_off_c, 0, 68, 64
1, 3188, Note_on_c, 0, 69, 41
1, 3188, Note_on_c, 0, 77, 28
1, 3188, Note_off_c, 0, 78, 64
1, 3188, Note_on_c, 0, 85, 30
1, 3188, Note_off_c, 0, 86, 64
1, 3188, Note_off_c, 0, 88, 64
1, 3188, Note_on_c, 0, 90, 26
1, 3188, Note_on_c, 0, 91, 29
1, 3188, Note_on_c, 0, 92, 30
1, 3188, Note_on_c, 0, 100, 13
1, 3189, Note_off_c, 0, 29, 64
1, 3189, Note_on_c, 0, 30, 80
1, 3189, Note_on_c, 0, 64, 24
1, 3189, Note_off_c, 0, 82, 64
1, 3189, Note_on_c, 0, 101, 9
1, 3190, Note_off_c, 0, 72, 64
1, 3190, Note_on_c, 0, 80, 39
1, 3190, Note_off_c, 0, 85, 64
1, 3190, Note_on_c, 0, 94, 25
1, 3191, Note_off_c, 0, 74, 64
1, 3191, Note_off_c, 0, 76, 64
1, 3191, Note_off_c, 0, 77, 64
1, 3191, Note_on_c, 0, 82, 40
1, 3191, Note_on_c, 0, 85, 38
1, 3191, Note_on_c, 0, 89, 36
1, 3191, Note_off_c, 0, 100, 64
1, 3192, Note_on_c, 0, 29, 79
1, 3192, Note_off_c, 0, 30, 64
1, 3192, Note_off_c, 0, 64, 64
1, 3192, Note_off_c, 0, 69, 64
1, 3192, Note_on_c, 0, 74, 45
1, 3192, Note_on_c, 0, 88, 19
1, 3192, Note_off_c, 0, 90, 64
1, 3192, Note_off_c, 0, 92, 64
1, 3192, Note_off_c, 0, 101, 64
1, 3193, Note_off_c, 0, 29, 64
1, 3193, Note_on_c, 0, 30, 76
1, 3193, Note_on_c, 0, 73, 29
1, 3193, Note_on_c, 0, 75, 31
1, 3193, Note_off_c, 0, 83, 64
1, 3194, Note_on_c, 0, 64, 17
1, 3194, Note_on_c, 0, 69, 30
1, 3194, Note_off_c, 0, 85, 64
1, 3194, Note_on_c, 0, 90, 24
1, 3194, Note_off_c, 0, 94, 64
1, 3195, Note_off_c, 0, 73, 64
1, 3195, Note_off_c, 0, 88, 64
1, 3195, Note_off_c, 0, 89, 64
1, 3195, Note_off_c, 0, 93, 64
1, 3196, Note_off_c, 0, 30, 64
1, 3196, Note_on_c, 0, 34, 69
1, 3196, Note_off_c, 0, 75, 64
1, 3196, Note_off_c, 0, 80, 64
1, 3196, Note_off_c, 0, 91, 64
1, 3197, Note_off_c, 0, 34, 64
1, 3197, Note_on_c, 0, 60, 50
1, 3197, Note_off_c, 0, 64, 64
1, 3197, Note_off_c, 0, 74, 64
1, 3197, Note_on_c, 0, 75, 32
1, 3197, Note_off_c, 0, 82, 64
1, 3197, Note_on_c, 0, 85, 29
1, 3197, Note_on_c, 0, 88, 33
1, 3197, Note_off_c, 0, 90, 64
1, 3198, Note_off_c, 0, 69, 64
1, 3198, Note_on_c, 0, 84, 25
1, 3199, Note_on_c, 0, 50, 76
1, 3199, Note_off_c, 0, 60, 64
1, 3199, Note_on_c, 0, 65, 26
1, 3199, Note_on_c, 0, 74, 23
1, 3199, Note_off_c, 0, 75, 64
1, 3199, Note_on_c, 0, 90, 22
1, 3200, Note_on_c, 0, 46, 89
1, 3200, Note_off_c, 0, 50, 64
1, 3201, Note_on_c, 0, 43, 95
1, 3201, Note_off_c, 0, 46, 64
1, 3201, Note_off_c, 0, 84, 64
1, 3201, Note_off_c, 0, 88, 64
1, 3202, Note_on_c, 0, 41, 100
1, 3202, Note_off_c, 0, 43, 64
1, 3202, Note_off_c, 0, 90, 64
1, 3203, Note_on_c, 0, 39, 97
1, 3203, Note_off_c, 0, 41, 64
1, 3203, Note_off_c, 0, 85, 64
1, 3203, Note_off_c, 0, 87, 64
1, 3204, Note_on_c, 0, 37, 99
1, 3204, Note_off_c, 0, 39, 64
1, 3204, Note_off_c, 0, 65, 64
1, 3204, Note_on_c, 0, 84, 18
1, 3205, Note_on_c, 0, 36, 98
1, 3205, Note_off_c, 0, 37, 64
1, 3205, Note_off_c, 0, 74, 64
1, 3206, Note_on_c, 0, 35, 96
1, 3206, Note_off_c, 0, 36, 64
1, 3206, Note_on_c, 0, 85, 29
1, 3206, Note_on_c, 0, 87, 28
1, 3207, Note_on_c, 0, 34, 96
1, 3207, Note_off_c, 0, 35, 64
1, 3207, Note_on_c, 0, 75, 20
1, 3207, Note_on_c, 0, 78, 12
1, 3207, Note_on_c, 0, 94, 9
1, 3208, Note_on_c, 0, 33, 96
1, 3208, Note_off_c, 0, 34, 64
1, 3208, Note_on_c, 0, 68, 29
1, 3209, Note_on_c, 0, 32, 97
1, 3209, Note_off_c, 0, 33, 64
1, 3209, Note_off_c, 0, 84, 64
1, 3210, Note_on_c, 0, 31, 96
1, 3210, Note_off_c, 0, 32, 64
1, 3210, Note_off_c, 0, 75, 64
1, 3210, Note_on_c, 0, 82, 16
1, 3210, Note_on_c, 0, 88, 18
1, 3210, Note_off_c, 0, 94, 64
1, 3211, Note_on_c, 0, 66, 9
1, 3211, Note_on_c, 0, 75, 18
1, 3211, Note_off_c, 0, 78, 64
1, 3211, Note_on_c, 0, 81, 15
1, 3211, Note_off_c, 0, 87, 64
1, 3213, Note_on_c, 0, 30, 80
1, 3213, Note_off_c, 0, 31, 64
1, 3213, Note_off_c, 0, 68, 64
1, 3213, Note_on_c, 0, 69, 22
1, 3213, Note_off_c, 0, 82, 64
1, 3213, Note_off_c, 0, 88, 64
1, 3214, Note_off_c, 0, 66, 64
1, 3214, Note_off_c, 0, 75, 64
1, 3214, Note_off_c, 0, 85, 64
1, 3214, Note_on_c, 0, 86, 40
1, 3214, Note_on_c, 0, 94, 23
1, 3215, Note_off_c, 0, 30, 64
1, 3215, Note_off_c, 0, 81, 64
1, 3215, Note_on_c, 0, 85, 21
1, 3215, Note_on_c, 0, 88, 29
1, 3215, Note_on_c, 0, 90, 28
1, 3215, Note_on_c, 0, 91, 28
1, 3216, Note_on_c, 0, 68, 32
1, 3216, Note_off_c, 0, 69, 64
1, 3216, Note_on_c, 0, 74, 15
1, 3216, Note_on_c, 0, 78, 27
1, 3216, Note_on_c, 0, 80, 33
1, 3216, Note_on_c, 0, 81, 27
1, 3216, Note_on_c, 0, 83, 24
1, 3216, Note_on_c, 0, 96, 16
1, 3217, Note_on_c, 0, 36, 72
1, 3217, Note_on_c, 0, 61, 30
1, 3217, Note_on_c, 0, 76, 43
1, 3217, Note_on_c, 0, 82, 28
1, 3218, Note_on_c, 0, 31, 78
1, 3218, Note_off_c, 0, 36, 64
1, 3218, Note_on_c, 0, 84, 40
1, 3218, Note_off_c, 0, 85, 64
1, 3218, Note_on_c, 0, 89, 23
1, 3218, Note_on_c, 0, 99, 15
1, 3219, Note_on_c, 0, 29, 81
1, 3219, Note_off_c, 0, 31, 64
1, 3219, Note_off_c, 0, 78, 64
1, 3219, Note_off_c, 0, 81, 64
1, 3220, Note_off_c, 0, 61, 64
1, 3220, Note_off_c, 0, 68, 64
1, 3220, Note_on_c, 0, 69, 33
1, 3220, Note_off_c, 0, 74, 64
1, 3220, Note_off_c, 0, 83, 64
1, 3220, Note_off_c, 0, 94, 64
1, 3221, Note_off_c, 0, 29, 64
1, 3221, Note_on_c, 0, 30, 77
1, 3221, Note_on_c, 0, 63, 31
1, 3221, Note_on_c, 0, 66, 31
1, 3221, Note_off_c, 0, 76, 64
1, 3221, Note_on_c, 0, 77, 22
1, 3221, Note_off_c, 0, 99, 64
1, 3222, Note_on_c, 0, 68, 40
1, 3222, Note_off_c, 0, 69, 64
1, 3222, Note_on_c, 0, 76, 42
1, 3222, Note_off_c, 0, 80, 64
1, 3222, Note_off_c, 0, 89, 64
1, 3223, Note_on_c, 0, 29, 75
1, 3223, Note_off_c, 0, 30, 64
1, 3223, Note_on_c, 0, 48, 52
1, 3223, Note_on_c, 0, 85, 23
1, 3223, Note_off_c, 0, 86, 64
1, 3223, Note_off_c, 0, 96, 64
1, 3224, Note_off_c, 0, 29, 64
1, 3224, Note_on_c, 0, 30, 73
1, 3224, Note_off_c, 0, 68, 64
1, 3224, Note_on_c, 0, 69, 40
1, 3224, Note_off_c, 0, 77, 64
1, 3224, Note_off_c, 0, 90, 64
1, 3225, Note_on_c, 0, 29, 71
1, 3225, Note_off_c, 0, 30, 64
1, 3225, Note_off_c, 0, 48, 64
1, 3225, Note_off_c, 0, 63, 64
1, 3225, Note_off_c, 0, 66, 64
1, 3225, Note_on_c, 0, 79, 35
1, 3225, Note_on_c, 0, 87, 26
1, 3225, Note_on_c, 0, 98, 12
1, 3226, Note_off_c, 0, 29, 64
1, 3226, Note_on_c, 0, 30, 81
1, 3226, Note_on_c, 0, 66, 35
1, 3226, Note_on_c, 0, 73, 29
1, 3226, Note_off_c, 0, 82, 64
1, 3226, Note_off_c, 0, 85, 64
1, 3226, Note_on_c, 0, 86, 41
1, 3226, Note_off_c, 0, 88, 64
1, 3226, Note_on_c, 0, 90, 27
1, 3226, Note_on_c, 0, 97, 11
1, 3227, Note_on_c, 0, 63, 31
1, 3227, Note_on_c, 0, 82, 36
1, 3227, Note_on_c, 0, 83, 37
1, 3227, Note_off_c, 0, 84, 64
1, 3228, Note_on_c, 0, 68, 39
1, 3228, Note_off_c, 0, 69, 64
1, 3228, Note_off_c, 0, 98, 64
1, 3229, Note_on_c, 0, 29, 81
1, 3229, Note_off_c, 0, 30, 64
1, 3229, Note_off_c, 0, 63, 64
1, 3229, Note_on_c, 0, 64, 39
1, 3229, Note_off_c, 0, 83, 64
1, 3229, Note_on_c, 0, 84, 37
1, 3229, Note_off_c, 0, 91, 64
1, 3229, Note_off_c, 0, 97, 64
1, 3230, Note_off_c, 0, 29, 64
1, 3230, Note_on_c, 0, 30, 78
1, 3230, Note_off_c, 0, 79, 64
1, 3230, Note_on_c, 0, 80, 41
1, 3230, Note_on_c, 0, 85, 38
1, 3231, Note_off_c, 0, 66, 64
1, 3231, Note_on_c, 0, 83, 30
1, 3231, Note_off_c, 0, 87, 64
1, 3232, Note_off_c, 0, 68, 64
1, 3232, Note_on_c, 0, 69, 37
1, 3232, Note_on_c, 0, 75, 36
1, 3232, Note_off_c, 0, 84, 64
1, 3232, Note_off_c, 0, 85, 64
1, 3232, Note_off_c, 0, 90, 64
1, 3233, Note_off_c, 0, 30, 64
1, 3233, Note_on_c, 0, 34, 72
1, 3233, Note_off_c, 0, 64, 64
1, 3233, Note_on_c, 0, 72, 16
1, 3233, Note_off_c, 0, 73, 64
1, 3233, Note_on_c, 0, 91, 28
1, 3234, Note_off_c, 0, 34, 64
1, 3234, Note_on_c, 0, 64, 39
1, 3234, Note_on_c, 0, 84, 23
1, 3234, Note_off_c, 0, 86, 64
1, 3234, Note_on_c, 0, 89, 17
1, 3235, Note_off_c, 0, 69, 64
1, 3235, Note_on_c, 0, 71, 18
1, 3235, Note_off_c, 0, 75, 64
1, 3235, Note_off_c, 0, 80, 64
1, 3235, Note_off_c, 0, 82, 64
1, 3235, Note_on_c, 0, 85, 30
1, 3235, Note_on_c, 0, 90, 27
1, 3235, Note_on_c, 0, 98, 16
1, 3235, Note_on_c, 0, 100, 14
1, 3236, Note_on_c, 0, 53, 68
1, 3236, Note_off_c, 0, 64, 64
1, 3236, Note_off_c, 0, 72, 64
1, 3236, Note_on_c, 0, 73, 29
1, 3236, Note_on_c, 0, 80, 32
1, 3236, Note_on_c, 0, 82, 37
1, 3236, Note_off_c, 0, 83, 64
1, 3237, Note_on_c, 0, 48, 83
1, 3237, Note_off_c, 0, 53, 64
1, 3237, Note_on_c, 0, 69, 17
1, 3237, Note_on_c, 0, 75, 30
1, 3237, Note_off_c, 0, 84, 64
1, 3237, Note_off_c, 0, 89, 64
1, 3237, Note_on_c, 0, 93, 18
1, 3238, Note_on_c, 0, 45, 94
1, 3238, Note_off_c, 0, 48, 64
1, 3238, Note_off_c, 0, 76, 64
1, 3238, Note_off_c, 0, 90, 64
1, 3238, Note_off_c, 0, 98, 64
1, 3239, Note_on_c, 0, 42, 100
1, 3239, Note_off_c, 0, 45, 64
1, 3239, Note_off_c, 0, 80, 64
1, 3239, Note_on_c, 0, 81, 30
1, 3239, Note_on_c, 0, 90, 11
1, 3239, Note_off_c, 0, 91, 64
1, 3239, Note_off_c, 0, 100, 64
1, 3240, Note_on_c, 0, 40, 98
1, 3240, Note_off_c, 0, 42, 64
1, 3240, Note_off_c, 0, 71, 64
1, 3240, Note_off_c, 0, 75, 64
1, 3241, Note_on_c, 0, 38, 98
1, 3241, Note_off_c, 0, 40, 64
1, 3241, Note_on_c, 0, 74, 22
1, 3241, Note_on_c, 0, 76, 29
1, 3241, Note_on_c, 0, 79, 24
1, 3241, Note_off_c, 0, 85, 64
1, 3241, Note_on_c, 0, 86, 28
1, 3242, Note_on_c, 0, 36, 98
1, 3242, Note_off_c, 0, 38, 64
1, 3242, Note_off_c, 0, 73, 64
1, 3242, Note_off_c, 0, 81, 64
1, 3242, Note_off_c, 0, 90, 64
1, 3243, Note_on_c, 0, 35, 97
1, 3243, Note_off_c, 0, 36, 64
1, 3243, Note_on_c, 0, 68, 28
1, 3243, Note_off_c, 0, 69, 64
1, 3243, Note_on_c, 0, 77, 28
1, 3244, Note_on_c, 0, 34, 96
1, 3244, Note_off_c, 0, 35, 64
1, 3244, Note_off_c, 0, 76, 64
1, 3244, Note_on_c, 0, 96, 12
1, 3245, Note_on_c, 0, 33, 96
1, 3245, Note_off_c, 0, 34, 64
1, 3245, Note_off_c, 0, 79, 64
1, 3245, Note_on_c, 0, 84, 26
1, 3245, Note_on_c, 0, 91, 21
1, 3245, Note_off_c, 0, 93, 64
1, 3246, Note_on_c, 0, 32, 97
1, 3246, Note_off_c, 0, 33, 64
1, 3246, Note_off_c, 0, 74, 64
1, 3246, Note_off_c, 0, 77, 64
1, 3246, Note_on_c, 0, 90, 30
1, 3246, Note_on_c, 0, 99, 13
1, 3247, Note_on_c, 0, 83, 22
1, 3247, Note_off_c, 0, 96, 64
1, 3247, Note_on_c, 0, 97, 11
1, 3248, Note_on_c, 0, 31, 95
1, 3248, Note_off_c, 0, 32, 64
1, 3248, Note_off_c, 0, 68, 64
1, 3248, Note_on_c, 0, 69, 21
1, 3248, Note_on_c, 0, 77, 33
1, 3248, Note_on_c, 0, 80, 43
1, 3248, Note_off_c, 0, 84, 64
1, 3248, Note_on_c, 0, 89, 49
1, 3249, Note_on_c, 0, 84, 41
1, 3249, Note_off_c, 0, 86, 64
1, 3249, Note_off_c, 0, 99, 64
1, 3250, Note_on_c, 0, 30, 85
1, 3250, Note_off_c, 0, 31, 64
1, 3250, Note_on_c, 0, 74, 28
1, 3250, Note_off_c, 0, 77, 64
1, 3250, Note_on_c, 0, 78, 28
1, 3250, Note_off_c, 0, 90, 64
1, 3250, Note_off_c, 0, 97, 64
1, 3251, Note_off_c, 0, 83, 64
1, 3251, Note_on_c, 0, 100, 12
1, 3252, Note_off_c, 0, 69, 64
1, 3253, Note_off_c, 0, 30, 64
1, 3253, Note_on_c, 0, 68, 37
1, 3253, Note_off_c, 0, 74, 64
1, 3253, Note_on_c, 0, 77, 38
1, 3253, Note_off_c, 0, 78, 64
1, 3253, Note_off_c, 0, 82, 64
1, 3253, Note_on_c, 0, 86, 22
1, 3253, Note_on_c, 0, 87, 30
1, 3253, Note_on_c, 0, 90, 23
1, 3254, Note_on_c, 0, 42, 67
1, 3254, Note_on_c, 0, 75, 37
1, 3254, Note_on_c, 0, 82, 35
1, 3254, Note_on_c, 0, 93, 9
1, 3255, Note_on_c, 0, 32, 74
1, 3255, Note_off_c, 0, 42, 64
1, 3255, Note_on_c, 0, 66, 20
1, 3255, Note_on_c, 0, 71, 25
1, 3256, Note_on_c, 0, 30, 81
1, 3256, Note_off_c, 0, 32, 64
1, 3256, Note_off_c, 0, 68, 64
1, 3256, Note_on_c, 0, 69, 42
1, 3256, Note_off_c, 0, 80, 64
1, 3256, Note_on_c, 0, 88, 32
1, 3256, Note_on_c, 0, 92, 16
1, 3256, Note_off_c, 0, 100, 64
1, 3257, Note_on_c, 0, 29, 81
1, 3257, Note_off_c, 0, 30, 64
1, 3257, Note_on_c, 0, 49, 57
1, 3257, Note_on_c, 0, 63, 34
1, 3257, Note_on_c, 0, 78, 37
1, 3257, Note_on_c, 0, 83, 30
1, 3258, Note_off_c, 0, 29, 64
1, 3258, Note_on_c, 0, 30, 78
1, 3258, Note_off_c, 0, 66, 64
1, 3258, Note_on_c, 0, 68, 42
1, 3258, Note_off_c, 0, 69, 64
1, 3258, Note_off_c, 0, 84, 64
1, 3258, Note_on_c, 0, 85, 36
1, 3258, Note_off_c, 0, 90, 64
1, 3258, Note_off_c, 0, 93, 64
1, 3259, Note_off_c, 0, 49, 64
1, 3259, Note_off_c, 0, 71, 64
1, 3259, Note_on_c, 0, 72, 37
1, 3259, Note_on_c, 0, 74, 32
1, 3259, Note_off_c, 0, 91, 64
1, 3260, Note_on_c, 0, 29, 76
1, 3260, Note_off_c, 0, 30, 64
1, 3260, Note_off_c, 0, 63, 64
1, 3260, Note_on_c, 0, 64, 32
1, 3260, Note_off_c, 0, 75, 64
1, 3260, Note_off_c, 0, 83, 64
1, 3260, Note_off_c, 0, 87, 64
1, 3260, Note_off_c, 0, 88, 64
1, 3261, Note_off_c, 0, 74, 64
1, 3261, Note_off_c, 0, 78, 64
1, 3261, Note_off_c, 0, 86, 64
1, 3262, Note_on_c, 0, 91, 15
1, 3263, Note_on_c, 0, 74, 38
1, 3263, Note_on_c, 0, 87, 18
1, 3263, Note_on_c, 0, 98, 13
1, 3264, Note_off_c, 0, 29, 64
1, 3264, Note_on_c, 0, 30, 80
1, 3264, Note_off_c, 0, 64, 64
1, 3264, Note_on_c, 0, 79, 39
1, 3264, Note_off_c, 0, 82, 64
1, 3264, Note_on_c, 0, 83, 43
1, 3265, Note_on_c, 0, 49, 60
1, 3265, Note_off_c, 0, 74, 64
1, 3265, Note_on_c, 0, 75, 39
1, 3265, Note_on_c, 0, 82, 37
1, 3267, Note_on_c, 0, 29, 79
1, 3267, Note_off_c, 0, 30, 64
1, 3267, Note_on_c, 0, 66, 19
1, 3267, Note_off_c, 0, 68, 64
1, 3267, Note_on_c, 0, 69, 45
1, 3267, Note_on_c, 0, 88, 31
1, 3267, Note_off_c, 0, 91, 64
1, 3267, Note_off_c, 0, 98, 64
1, 3268, Note_off_c, 0, 29, 64
1, 3268, Note_on_c, 0, 30, 76
1, 3268, Note_off_c, 0, 49, 64
1, 3268, Note_on_c, 0, 78, 32
1, 3268, Note_off_c, 0, 79, 64
1, 3268, Note_off_c, 0, 83, 64
1, 3268, Note_off_c, 0, 87, 64
1, 3269, Note_off_c, 0, 77, 64
1, 3269, Note_on_c, 0, 87, 39
1, 3269, Note_off_c, 0, 88, 64
1, 3270, Note_off_c, 0, 30, 64
1, 3270, Note_on_c, 0, 31, 72
1, 3270, Note_off_c, 0, 66, 64
1, 3270, Note_on_c, 0, 77, 32
1, 3270, Note_off_c, 0, 78, 64
1, 3270, Note_off_c, 0, 82, 64
1, 3270, Note_on_c, 0, 96, 24
1, 3271, Note_off_c, 0, 31, 64
1, 3271, Note_on_c, 0, 35, 68
1, 3271, Note_on_c, 0, 68, 39
1, 3271, Note_off_c, 0, 69, 64
1, 3271, Note_on_c, 0, 79, 26
1, 3271, Note_on_c, 0, 86, 42
1, 3271, Note_on_c, 0, 88, 43
1, 3271, Note_on_c, 0, 91, 42
1, 3271, Note_off_c, 0, 92, 64
1, 3271, Note_on_c, 0, 94, 25
1, 3271, Note_on_c, 0, 102, 10
1, 3272, Note_off_c, 0, 35, 64
1, 3272, Note_on_c, 0, 63, 48
1, 3272, Note_off_c, 0, 72, 64
1, 3272, Note_on_c, 0, 73, 45
1, 3272, Note_off_c, 0, 75, 64
1, 3272, Note_on_c, 0, 76, 52
1, 3272, Note_off_c, 0, 77, 64
1, 3272, Note_on_c, 0, 80, 45
1, 3272, Note_on_c, 0, 83, 32
1, 3273, Note_on_c, 0, 70, 44
1, 3273, Note_on_c, 0, 78, 31
1, 3273, Note_on_c, 0, 81, 44
1, 3273, Note_on_c, 0, 90, 35
1, 3274, Note_on_c, 0, 50, 77
1, 3274, Note_off_c, 0, 79, 64
1, 3274, Note_on_c, 0, 84, 35
1, 3274, Note_off_c, 0, 85, 64
1, 3274, Note_off_c, 0, 88, 64
1, 3274, Note_on_c, 0, 97, 22
1, 3274, Note_off_c, 0, 102, 64
1, 3275, Note_on_c, 0, 45, 90
1, 3275, Note_off_c, 0, 50, 64
1, 3275, Note_off_c, 0, 68, 64
1, 3275, Note_off_c, 0, 70, 64
1, 3275, Note_off_c, 0, 78, 64
1, 3275, Note_off_c, 0, 81, 64
1, 3275, Note_off_c, 0, 90, 64
1, 3275, Note_off_c, 0, 94, 64
1, 3275, Note_off_c, 0, 96, 64
1, 3276, Note_on_c, 0, 42, 96
1, 3276, Note_off_c, 0, 45, 64
1, 3276, Note_off_c, 0, 63, 64
1, 3276, Note_on_c, 0, 70, 30
1, 3276, Note_on_c, 0, 75, 31
1, 3276, Note_off_c, 0, 76, 64
1, 3276, Note_on_c, 0, 77, 36
1, 3276, Note_off_c, 0, 84, 64
1, 3276, Note_off_c, 0, 86, 64
1, 3276, Note_on_c, 0, 90, 17
1, 3276, Note_on_c, 0, 94, 20
1, 3277, Note_on_c, 0, 41, 100
1, 3277, Note_off_c, 0, 42, 64
1, 3277, Note_off_c, 0, 83, 64
1, 3277, Note_on_c, 0, 84, 33
1, 3277, Note_on_c, 0, 86, 21
1, 3277, Note_off_c, 0, 87, 64
1, 3277, Note_on_c, 0, 88, 31
1, 3278, Note_on_c, 0, 39, 97
1, 3278, Note_off_c, 0, 41, 64
1, 3278, Note_off_c, 0, 70, 64
1, 3278, Note_off_c, 0, 75, 64
1, 3278, Note_off_c, 0, 77, 64
1, 3278, Note_off_c, 0, 80, 64
1, 3278, Note_on_c, 0, 81, 26
1, 3278, Note_off_c, 0, 97, 64
1, 3279, Note_on_c, 0, 37, 98
1, 3279, Note_off_c, 0, 39, 64
1, 3279, Note_on_c, 0, 71, 34
1, 3279, Note_on_c, 0, 75, 30
1, 3279, Note_on_c, 0, 79, 42
1, 3279, Note_on_c, 0, 82, 34
1, 3280, Note_on_c, 0, 36, 97
1, 3280, Note_off_c, 0, 37, 64
1, 3280, Note_on_c, 0, 63, 17
1, 3280, Note_on_c, 0, 76, 24
1, 3280, Note_off_c, 0, 94, 64
1, 3281, Note_on_c, 0, 35, 96
1, 3281, Note_off_c, 0, 36, 64
1, 3281, Note_on_c, 0, 68, 20
1, 3281, Note_off_c, 0, 73, 64
1, 3281, Note_on_c, 0, 74, 34
1, 3281, Note_off_c, 0, 75, 64
1, 3281, Note_on_c, 0, 78, 54
1, 3281, Note_off_c, 0, 81, 64
1, 3282, Note_on_c, 0, 34, 96
1, 3282, Note_off_c, 0, 35, 64
1, 3282, Note_off_c, 0, 89, 64
1, 3282, Note_off_c, 0, 91, 64
1, 3283, Note_on_c, 0, 33, 96
1, 3283, Note_off_c, 0, 34, 64
1, 3283, Note_off_c, 0, 63, 64
1, 3283, Note_off_c, 0, 74, 64
1, 3283, Note_on_c, 0, 75, 22
1, 3283, Note_off_c, 0, 76, 64
1, 3283, Note_off_c, 0, 79, 64
1, 3283, Note_off_c, 0, 88, 64
1, 3283, Note_off_c, 0, 90, 64
1, 3284, Note_on_c, 0, 32, 96
1, 3284, Note_off_c, 0, 33, 64
1, 3285, Note_on_c, 0, 31, 95
1, 3285, Note_off_c, 0, 32, 64
1, 3285, Note_off_c, 0, 84, 64
1, 3286, Note_off_c, 0, 71, 64
1, 3286, Note_off_c, 0, 82, 64
1, 3286, Note_off_c, 0, 86, 64
1, 3287, Note_off_c, 0, 68, 64
1, 3287, Note_off_c, 0, 75, 64
1, 3288, Note_on_c, 0, 30, 79
1, 3288, Note_off_c, 0, 31, 64
1, 3288, Note_on_c, 0, 68, 35
1, 3289, Note_on_c, 0, 63, 31
1, 3289, Note_on_c, 0, 89, 19
1, 3290, Note_off_c, 0, 30, 64
1, 3290, Note_on_c, 0, 80, 47
1, 3290, Note_on_c, 0, 85, 44
1, 3290, Note_on_c, 0, 86, 41
1, 3290, Note_on_c, 0, 87, 44
1, 3290, Note_on_c, 0, 93, 29
1, 3291, Note_on_c, 0, 82, 40
1, 3291, Note_on_c, 0, 88, 39
1, 3291, Note_on_c, 0, 95, 29
1, 3292, Note_on_c, 0, 36, 72
1, 3292, Note_off_c, 0, 63, 64
1, 3292, Note_on_c, 0, 74, 37
1, 3292, Note_on_c, 0, 83, 42
1, 3292, Note_on_c, 0, 84, 50
1, 3292, Note_off_c, 0, 85, 64
1, 3292, Note_off_c, 0, 89, 64
1, 3293, Note_on_c, 0, 31, 78
1, 3293, Note_off_c, 0, 36, 64
1, 3293, Note_off_c, 0, 68, 64
1, 3293, Note_on_c, 0, 75, 39
1, 3293, Note_off_c, 0, 82, 64
1, 3294, Note_on_c, 0, 29, 80
1, 3294, Note_off_c, 0, 31, 64
1, 3294, Note_on_c, 0, 61, 34
1, 3294, Note_on_c, 0, 68, 43
1, 3294, Note_off_c, 0, 80, 64
1, 3294, Note_on_c, 0, 82, 40
1, 3294, Note_on_c, 0, 89, 31
1, 3294, Note_on_c, 0, 91, 29
1, 3294, Note_off_c, 0, 95, 64
1, 3295, Note_on_c, 0, 54, 47
1, 3295, Note_off_c, 0, 74, 64
1, 3296, Note_off_c, 0, 29, 64
1, 3296, Note_on_c, 0, 30, 76
1, 3296, Note_off_c, 0, 61, 64
1, 3296, Note_on_c, 0, 63, 35
1, 3296, Note_on_c, 0, 71, 30
1, 3296, Note_off_c, 0, 75, 64
1, 3296, Note_on_c, 0, 79, 53
1, 3296, Note_off_c, 0, 87, 64
1, 3296, Note_off_c, 0, 91, 64
1, 3297, Note_off_c, 0, 54, 64
1, 3297, Note_on_c, 0, 76, 44
1, 3297, Note_off_c, 0, 78, 64
1, 3297, Note_off_c, 0, 83, 64
1, 3298, Note_on_c, 0, 29, 74
1, 3298, Note_off_c, 0, 30, 64
1, 3298, Note_on_c, 0, 72, 32
1, 3298, Note_on_c, 0, 78, 65
1, 3298, Note_off_c, 0, 79, 64
1, 3298, Note_off_c, 0, 84, 64
1, 3298, Note_on_c, 0, 96, 14
1, 3299, Note_on_c, 0, 49, 45
1, 3299, Note_off_c, 0, 71, 64
1, 3299, Note_off_c, 0, 86, 64
1, 3299, Note_on_c, 0, 87, 31
1, 3299, Note_on_c, 0, 98, 29
1, 3300, Note_off_c, 0, 88, 64
1, 3301, Note_off_c, 0, 29, 64
1, 3301, Note_on_c, 0, 30, 73
1, 3301, Note_off_c, 0, 49, 64
1, 3301, Note_off_c, 0, 78, 64
1, 3301, Note_on_c, 0, 79, 56
1, 3301, Note_on_c, 0, 85, 23
1, 3302, Note_off_c, 0, 30, 64
1, 3302, Note_on_c, 0, 31, 77
1, 3302, Note_off_c, 0, 68, 64
1, 3302, Note_on_c, 0, 69, 44
1, 3302, Note_off_c, 0, 76, 64
1, 3302, Note_on_c, 0, 88, 27
1, 3302, Note_on_c, 0, 95, 20
1, 3303, Note_on_c, 0, 30, 80
1, 3303, Note_off_c, 0, 31, 64
1, 3303, Note_off_c, 0, 72, 64
1, 3303, Note_on_c, 0, 78, 53
1, 3303, Note_off_c, 0, 79, 64
1, 3303, Note_on_c, 0, 81, 50
1, 3303, Note_on_c, 0, 83, 38
1, 3303, Note_off_c, 0, 96, 64
1, 3304, Note_on_c, 0, 29, 79
1, 3304, Note_off_c, 0, 30, 64
1, 3304, Note_on_c, 0, 71, 42
1, 3304, Note_on_c, 0, 76, 44
1, 3304, Note_on_c, 0, 79, 50
1, 3304, Note_off_c, 0, 82, 64
1, 3304, Note_on_c, 0, 86, 23
1, 3304, Note_off_c, 0, 87, 64
1, 3305, Note_off_c, 0, 29, 64
1, 3305, Note_on_c, 0, 30, 77
1, 3305, Note_on_c, 0, 68, 46
1, 3305, Note_off_c, 0, 69, 64
1, 3305, Note_off_c, 0, 78, 64
1, 3305, Note_on_c, 0, 84, 35
1, 3305, Note_off_c, 0, 85, 64
1, 3305, Note_on_c, 0, 94, 11
1, 3305, Note_on_c, 0, 97, 13
1, 3306, Note_on_c, 0, 49, 55
1, 3306, Note_off_c, 0, 63, 64
1, 3306, Note_on_c, 0, 74, 36
1, 3306, Note_on_c, 0, 75, 40
1, 3306, Note_off_c, 0, 76, 64
1, 3306, Note_off_c, 0, 83, 64
1, 3306, Note_off_c, 0, 88, 64
1, 3306, Note_on_c, 0, 90, 22
1, 3307, Note_on_c, 0, 78, 35
1, 3307, Note_off_c, 0, 86, 64
1, 3308, Note_off_c, 0, 30, 64
1, 3308, Note_on_c, 0, 34, 70
1, 3308, Note_off_c, 0, 49, 64
1, 3308, Note_off_c, 0, 71, 64
1, 3308, Note_off_c, 0, 74, 64
1, 3308, Note_off_c, 0, 79, 64
1, 3308, Note_off_c, 0, 89, 64
1, 3308, Note_off_c, 0, 94, 64
1, 3308, Note_off_c, 0, 95, 64
1, 3308, Note_off_c, 0, 97, 64
1, 3309, Note_off_c, 0, 34, 64
1, 3309, Note_on_c, 0, 63, 46
1, 3309, Note_off_c, 0, 68, 64
1, 3309, Note_off_c, 0, 78, 64
1, 3309, Note_on_c, 0, 79, 38
1, 3309, Note_off_c, 0, 81, 64
1, 3309, Note_on_c, 0, 83, 23
1, 3309, Note_on_c, 0, 89, 19
1, 3310, Note_on_c, 0, 69, 29
1, 3310, Note_off_c, 0, 75, 64
1, 3310, Note_off_c, 0, 84, 64
1, 3310, Note_off_c, 0, 98, 64
1, 3311, Note_on_c, 0, 51, 71
1, 3311, Note_off_c, 0, 63, 64
1, 3311, Note_on_c, 0, 78, 25
1, 3311, Note_on_c, 0, 84, 13
1, 3311, Note_off_c, 0, 93, 64
1, 3312, Note_on_c, 0, 48, 85
1, 3312, Note_off_c, 0, 51, 64
1, 3312, Note_off_c, 0, 89, 64
1, 3312, Note_off_c, 0, 90, 64
1, 3313, Note_on_c, 0, 45, 95
1, 3313, Note_off_c, 0, 48, 64
1, 3313, Note_on_c, 0, 68, 13
1, 3313, Note_off_c, 0, 69, 64
1, 3314, Note_on_c, 0, 42, 100
1, 3314, Note_off_c, 0, 45, 64
1, 3314, Note_on_c, 0, 75, 30
1, 3314, Note_off_c, 0, 79, 64
1, 3314, Note_off_c, 0, 84, 64
1, 3315, Note_on_c, 0, 40, 97
1, 3315, Note_off_c, 0, 42, 64
1, 3316, Note_on_c, 0, 38, 98
1, 3316, Note_off_c, 0, 40, 64
1, 3316, Note_off_c, 0, 75, 64
1, 3316, Note_off_c, 0, 78, 64
1, 3316, Note_off_c, 0, 83, 64
1, 3317, Note_on_c, 0, 36, 98
1, 3317, Note_off_c, 0, 38, 64
1, 3318, Note_on_c, 0, 35, 96
1, 3318, Note_off_c, 0, 36, 64
1, 3318, Note_on_c, 0, 79, 31
1, 3319, Note_on_c, 0, 34, 95
1, 3319, Note_off_c, 0, 35, 64
1, 3319, Note_on_c, 0, 75, 13
1, 3319, Note_on_c, 0, 83, 21
1, 3319, Note_on_c, 0, 85, 21
1, 3319, Note_on_c, 0, 88, 21
1, 3320, Note_on_c, 0, 33, 95
1, 3320, Note_off_c, 0, 34, 64
1, 3320, Note_off_c, 0, 68, 64
1, 3320, Note_on_c, 0, 78, 14
1, 3320, Note_on_c, 0, 86, 27
1, 3321, Note_on_c, 0, 32, 96
1, 3321, Note_off_c, 0, 33, 64
1, 3321, Note_on_c, 0, 84, 20
1, 3321, Note_on_c, 0, 87, 27
1, 3322, Note_on_c, 0, 73, 29
1, 3322, Note_off_c, 0, 75, 64
1, 3322, Note_on_c, 0, 76, 35
1, 3322, Note_off_c, 0, 85, 64
1, 3322, Note_off_c, 0, 88, 64
1, 3323, Note_on_c, 0, 31, 94
1, 3323, Note_off_c, 0, 32, 64
1, 3323, Note_on_c, 0, 68, 39
1, 3324, Note_on_c, 0, 75, 24
1, 3324, Note_off_c, 0, 76, 64
1, 3324, Note_off_c, 0, 78, 64
1, 3324, Note_on_c, 0, 82, 23
1, 3324, Note_off_c, 0, 83, 64
1, 3324, Note_off_c, 0, 84, 64
1, 3324, Note_off_c, 0, 86, 64
1, 3325, Note_on_c, 0, 30, 83
1, 3325, Note_off_c, 0, 31, 64
1, 3325, Note_off_c, 0, 73, 64
1, 3325, Note_on_c, 0, 78, 19
1, 3325, Note_off_c, 0, 79, 64
1, 3325, Note_on_c, 0, 81, 17
1, 3327, Note_on_c, 0, 90, 32
1, 3327, Note_on_c, 0, 92, 57
1, 3328, Note_off_c, 0, 30, 64
1, 3328, Note_off_c, 0, 68, 64
1, 3328, Note_off_c, 0, 78, 64
1, 3328, Note_off_c, 0, 82, 64
1, 3328, Note_on_c, 0, 84, 23
1, 3328, Note_off_c, 0, 87, 64
1, 3328, Note_on_c, 0, 97, 11
1, 3329, Note_on_c, 0, 37, 67
1, 3329, Note_on_c, 0, 77, 32
1, 3329, Note_off_c, 0, 81, 64
1, 3329, Note_on_c, 0, 86, 14
1, 3329, Note_on_c, 0, 93, 16
1, 3330, Note_on_c, 0, 31, 75
1, 3330, Note_off_c, 0, 37, 64
1, 3330, Note_off_c, 0, 75, 64
1, 3330, Note_on_c, 0, 78, 32
1, 3331, Note_on_c, 0, 30, 81
1, 3331, Note_off_c, 0, 31, 64
1, 3331, Note_on_c, 0, 63, 32
1, 3331, Note_on_c, 0, 68, 42
1, 3331, Note_on_c, 0, 71, 32
1, 3331, Note_on_c, 0, 73, 40
1, 3331, Note_on_c, 0, 82, 20
1, 3332, Note_on_c, 0, 29, 80
1, 3332, Note_off_c, 0, 30, 64
1, 3332, Note_on_c, 0, 76, 34
1, 3332, Note_off_c, 0, 77, 64
1, 3332, Note_off_c, 0, 84, 64
1, 3332, Note_on_c, 0, 91, 18
1, 3333, Note_off_c, 0, 29, 64
1, 3333, Note_on_c, 0, 30, 77
1, 3333, Note_off_c, 0, 63, 64
1, 3333, Note_off_c, 0, 71, 64
1, 3333, Note_off_c, 0, 78, 64
1, 3333, Note_on_c, 0, 79, 33
1, 3333, Note_on_c, 0, 81, 35
1, 3333, Note_off_c, 0, 86, 64
1, 3333, Note_on_c, 0, 89, 16
1, 3333, Note_off_c, 0, 93, 64
1, 3334, Note_on_c, 0, 61, 26
1, 3334, Note_off_c, 0, 73, 64
1, 3334, Note_off_c, 0, 82, 64
1, 3335, Note_on_c, 0, 29, 74
1, 3335, Note_off_c, 0, 30, 64
1, 3335, Note_on_c, 0, 73, 43
1, 3335, Note_on_c, 0, 78, 24
1, 3335, Note_off_c, 0, 79, 64
1, 3335, Note_off_c, 0, 90, 64
1, 3336, Note_on_c, 0, 79, 33
1, 3336, Note_off_c, 0, 81, 64
1, 3336, Note_on_c, 0, 83, 28
1, 3337, Note_on_c, 0, 81, 38
1, 3337, Note_off_c, 0, 97, 64
1, 3338, Note_off_c, 0, 61, 64
1, 3338, Note_on_c, 0, 64, 36
1, 3338, Note_off_c, 0, 76, 64
1, 3338, Note_on_c, 0, 77, 36
1, 3338, Note_off_c, 0, 78, 64
1, 3338, Note_off_c, 0, 91, 64
1, 3339, Note_off_c, 0, 29, 64
1, 3339, Note_on_c, 0, 30, 80
1, 3339, Note_on_c, 0, 90, 26
1, 3340, Note_on_c, 0, 49, 59
1, 3340, Note_on_c, 0, 63, 40
1, 3340, Note_off_c, 0, 64, 64
1, 3340, Note_on_c, 0, 76, 37
1, 3340, Note_off_c, 0, 77, 64
1, 3340, Note_on_c, 0, 78, 39
1, 3340, Note_off_c, 0, 79, 64
1, 3340, Note_on_c, 0, 94, 16
1, 3341, Note_on_c, 0, 71, 26
1, 3341, Note_off_c, 0, 81, 64
1, 3341, Note_on_c, 0, 84, 22
1, 3341, Note_off_c, 0, 89, 64
1, 3342, Note_on_c, 0, 29, 79
1, 3342, Note_off_c, 0, 30, 64
1, 3342, Note_on_c, 0, 82, 26
1, 3343, Note_off_c, 0, 29, 64
1, 3343, Note_on_c, 0, 30, 76
1, 3343, Note_off_c, 0, 49, 64
1, 3343, Note_off_c, 0, 63, 64
1, 3343, Note_on_c, 0, 66, 35
1, 3343, Note_on_c, 0, 75, 15
1, 3343, Note_off_c, 0, 76, 64
1, 3343, Note_off_c, 0, 83, 64
1, 3343, Note_off_c, 0, 94, 64
1, 3343, Note_on_c, 0, 99, 30
1, 3344, Note_off_c, 0, 68, 64
1, 3344, Note_off_c, 0, 73, 64
1, 3345, Note_off_c, 0, 30, 64
1, 3345, Note_on_c, 0, 32, 71
1, 3345, Note_off_c, 0, 66, 64
1, 3345, Note_off_c, 0, 71, 64
1, 3345, Note_off_c, 0, 84, 64
1, 3346, Note_off_c, 0, 32, 64
1, 3346, Note_on_c, 0, 34, 66
1, 3346, Note_off_c, 0, 75, 64
1, 3346, Note_on_c, 0, 77, 22
1, 3346, Note_off_c, 0, 78, 64
1, 3346, Note_on_c, 0, 79, 31
1, 3347, Note_off_c, 0, 34, 64
1, 3347, Note_off_c, 0, 82, 64
1, 3347, Note_on_c, 0, 83, 31
1, 3347, Note_on_c, 0, 88, 18
1, 3348, Note_on_c, 0, 75, 29
1, 3348, Note_on_c, 0, 82, 25
1, 3348, Note_off_c, 0, 99, 64
1, 3349, Note_on_c, 0, 49, 79
1, 3349, Note_on_c, 0, 69, 23
1, 3349, Note_off_c, 0, 77, 64
1, 3349, Note_off_c, 0, 79, 64
1, 3349, Note_on_c, 0, 81, 32
1, 3350, Note_on_c, 0, 45, 91
1, 3350, Note_off_c, 0, 49, 64
1, 3350, Note_on_c, 0, 73, 21
1, 3350, Note_off_c, 0, 75, 64
1, 3350, Note_on_c, 0, 78, 11
1, 3350, Note_off_c, 0, 88, 64
1, 3350, Note_off_c, 0, 92, 64
1, 3351, Note_on_c, 0, 42, 97
1, 3351, Note_off_c, 0, 45, 64
1, 3351, Note_off_c, 0, 83, 64
1, 3352, Note_on_c, 0, 41, 100
1, 3352, Note_off_c, 0, 42, 64
1, 3352, Note_off_c, 0, 69, 64
1, 3352, Note_on_c, 0, 79, 23
1, 3353, Note_on_c, 0, 38, 98
1, 3353, Note_off_c, 0, 41, 64
1, 3353, Note_on_c, 0, 76, 17
1, 3353, Note_off_c, 0, 81, 64
1, 3354, Note_on_c, 0, 37, 98
1, 3354, Note_off_c, 0, 38, 64
1, 3354, Note_off_c, 0, 73, 64
1, 3354, Note_on_c, 0, 74, 28
1, 3354, Note_off_c, 0, 78, 64
1, 3355, Note_on_c, 0, 36, 97
1, 3355, Note_off_c, 0, 37, 64
1, 3355, Note_on_c, 0, 77, 30
1, 3356, Note_on_c, 0, 34, 96
1, 3356, Note_off_c, 0, 36, 64
1, 3356, Note_on_c, 0, 69, 22
1, 3356, Note_on_c, 0, 83, 19
1, 3357, Note_on_c, 0, 33, 96
1, 3357, Note_off_c, 0, 34, 64
1, 3357, Note_off_c, 0, 76, 64
1, 3357, Note_off_c, 0, 79, 64
1, 3357, Note_on_c, 0, 81, 41
1, 3357, Note_on_c, 0, 100, 20
1, 3358, Note_on_c, 0, 66, 26
1, 3358, Note_on_c, 0, 68, 28
1, 3358, Note_on_c, 0, 92, 15
1, 3359, Note_on_c, 0, 32, 96
1, 3359, Note_off_c, 0, 33, 64
1, 3359, Note_off_c, 0, 69, 64
1, 3359, Note_off_c, 0, 74, 64
1, 3359, Note_off_c, 0, 82, 64
1, 3359, Note_off_c, 0, 83, 64
1, 3359, Note_on_c, 0, 84, 10
1, 3360, Note_on_c, 0, 31, 95
1, 3360, Note_off_c, 0, 32, 64
1, 3360, Note_off_c, 0, 90, 64
1, 3361, Note_off_c, 0, 77, 64
1, 3361, Note_off_c, 0, 92, 64
1, 3362, Note_off_c, 0, 66, 64
1, 3362, Note_on_c, 0, 83, 11
1, 3362, Note_off_c, 0, 100, 64
1, 3363, Note_on_c, 0, 30, 77
1, 3363, Note_off_c, 0, 31, 64
1, 3363, Note_on_c, 0, 74, 17
1, 3363, Note_on_c, 0, 76, 21
1, 3363, Note_on_c, 0, 79, 31
1, 3364, Note_on_c, 0, 61, 44
1, 3364, Note_off_c, 0, 68, 64
1, 3365, Note_off_c, 0, 30, 64
1, 3365, Note_on_c, 0, 68, 36
1, 3365, Note_off_c, 0, 83, 64
1, 3365, Note_off_c, 0, 84, 64
1, 3365, Note_on_c, 0, 86, 17
1, 3365, Note_on_c, 0, 90, 10
1, 3366, Note_on_c, 0, 36, 72
1, 3366, Note_off_c, 0, 74, 64
1, 3366, Note_off_c, 0, 76, 64
1, 3366, Note_on_c, 0, 84, 28
1, 3366, Note_on_c, 0, 89, 17
1, 3367, Note_on_c, 0, 54, 49
1, 3367, Note_on_c, 0, 76, 20
1, 3367, Note_off_c, 0, 79, 64
1, 3367, Note_on_c, 0, 83, 20
1, 3367, Note_on_c, 0, 92, 20
1, 3368, Note_on_c, 0, 30, 79
1, 3368, Note_off_c, 0, 36, 64
1, 3368, Note_on_c, 0, 49, 59
1, 3368, Note_off_c, 0, 86, 64
1, 3369, Note_on_c, 0, 29, 80
1, 3369, Note_off_c, 0, 30, 64
1, 3369, Note_off_c, 0, 54, 64
1, 3369, Note_off_c, 0, 68, 64
1, 3369, Note_on_c, 0, 80, 24
1, 3369, Note_on_c, 0, 86, 19
1, 3369, Note_on_c, 0, 88, 20
1, 3370, Note_on_c, 0, 71, 32
1, 3370, Note_on_c, 0, 78, 37
1, 3370, Note_off_c, 0, 90, 64
1, 3371, Note_off_c, 0, 29, 64
1, 3371, Note_on_c, 0, 30, 76
1, 3371, Note_off_c, 0, 49, 64
1, 3371, Note_off_c, 0, 83, 64
1, 3371, Note_off_c, 0, 89, 64
1, 3372, Note_on_c, 0, 70, 26
1, 3372, Note_off_c, 0, 71, 64
1, 3372, Note_off_c, 0, 76, 64
1, 3372, Note_on_c, 0, 79, 24
1, 3372, Note_off_c, 0, 80, 64
1, 3372, Note_off_c, 0, 86, 64
1, 3373, Note_on_c, 0, 29, 74
1, 3373, Note_off_c, 0, 30, 64
1, 3373, Note_on_c, 0, 77, 35
1, 3373, Note_off_c, 0, 78, 64
1, 3374, Note_on_c, 0, 66, 37
1, 3374, Note_on_c, 0, 90, 17
1, 3375, Note_off_c, 0, 79, 64
1, 3375, Note_off_c, 0, 84, 64
1, 3375, Note_on_c, 0, 87, 15
1, 3375, Note_on_c, 0, 96, 14
1, 3376, Note_off_c, 0, 29, 64
1, 3376, Note_on_c, 0, 30, 80
1, 3376, Note_off_c, 0, 61, 64
1, 3376, Note_off_c, 0, 66, 64
1, 3376, Note_on_c, 0, 74, 37
1, 3376, Note_on_c, 0, 82, 42
1, 3377, Note_off_c, 0, 70, 64
1, 3377, Note_on_c, 0, 83, 29
1, 3377, Note_off_c, 0, 88, 64
1, 3377, Note_off_c, 0, 90, 64
1, 3378, Note_on_c, 0, 62, 31
1, 3378, Note_on_c, 0, 69, 46
1, 3378, Note_on_c, 0, 73, 35
1, 3378, Note_off_c, 0, 74, 64
1, 3378, Note_on_c, 0, 76, 38
1, 3378, Note_on_c, 0, 79, 34
1, 3378, Note_off_c, 0, 96, 64
1, 3379, Note_on_c, 0, 29, 80
1, 3379, Note_off_c, 0, 30, 64
1, 3379, Note_on_c, 0, 49, 58
1, 3379, Note_on_c, 0, 72, 43
1, 3379, Note_off_c, 0, 77, 64
1, 3379, Note_on_c, 0, 78, 31
1, 3379, Note_off_c, 0, 87, 64
1, 3379, Note_off_c, 0, 92, 64
1, 3380, Note_off_c, 0, 29, 64
1, 3380, Note_on_c, 0, 30, 78
1, 3380, Note_off_c, 0, 62, 64
1, 3380, Note_off_c, 0, 73, 64
1, 3380, Note_on_c, 0, 75, 29
1, 3380, Note_off_c, 0, 76, 64
1, 3380, Note_off_c, 0, 83, 64
1, 3381, Note_on_c, 0, 68, 34
1, 3381, Note_off_c, 0, 69, 64
1, 3381, Note_off_c, 0, 79, 64
1, 3381, Note_off_c, 0, 81, 64
1, 3382, Note_off_c, 0, 49, 64
1, 3382, Note_off_c, 0, 72, 64
1, 3382, Note_on_c, 0, 81, 31
1, 3383, Note_off_c, 0, 30, 64
1, 3383, Note_on_c, 0, 34, 71
1, 3383, Note_on_c, 0, 63, 33
1, 3383, Note_on_c, 0, 74, 21
1, 3383, Note_off_c, 0, 75, 64
1, 3384, Note_off_c, 0, 34, 64
1, 3384, Note_off_c, 0, 78, 64
1, 3384, Note_on_c, 0, 88, 12
1, 3385, Note_off_c, 0, 63, 64
1, 3385, Note_on_c, 0, 73, 27
1, 3385, Note_off_c, 0, 82, 64
1, 3385, Note_on_c, 0, 89, 16
1, 3386, Note_on_c, 0, 51, 73
1, 3386, Note_off_c, 0, 74, 64
1, 3386, Note_off_c, 0, 81, 64
1, 3386, Note_on_c, 0, 82, 36
1, 3387, Note_on_c, 0, 48, 85
1, 3387, Note_off_c, 0, 51, 64
1, 3387, Note_off_c, 0, 88, 64
1, 3388, Note_on_c, 0, 44, 95
1, 3388, Note_off_c, 0, 48, 64
1, 3388, Note_off_c, 0, 68, 64
1, 3389, Note_on_c, 0, 41, 100
1, 3389, Note_off_c, 0, 44, 64
1, 3390, Note_on_c, 0, 40, 97
1, 3390, Note_off_c, 0, 41, 64
1, 3390, Note_off_c, 0, 73, 64
1, 3390, Note_off_c, 0, 89, 64
1, 3391, Note_on_c, 0, 38, 98
1, 3391, Note_off_c, 0, 40, 64
1, 3392, Note_on_c, 0, 36, 98
1, 3392, Note_off_c, 0, 38, 64
1, 3393, Note_on_c, 0, 35, 97
1, 3393, Note_off_c, 0, 36, 64
1, 3394, Note_on_c, 0, 34, 96
1, 3394, Note_off_c, 0, 35, 64
1, 3395, Note_on_c, 0, 33, 96
1, 3395, Note_off_c, 0, 34, 64
1, 3395, Note_on_c, 0, 68, 22
1, 3395, Note_on_c, 0, 72, 28
1, 3396, Note_on_c, 0, 32, 97
1, 3396, Note_off_c, 0, 33, 64
1, 3396, Note_on_c, 0, 66, 26
1, 3397, Note_on_c, 0, 75, 23
1, 3398, Note_on_c, 0, 31, 94
1, 3398, Note_off_c, 0, 32, 64
1, 3399, Note_on_c, 0, 63, 12
1, 3399, Note_off_c, 0, 66, 64
1, 3399, Note_off_c, 0, 68, 64
1, 3399, Note_on_c, 0, 74, 13
1, 3400, Note_on_c, 0, 30, 82
1, 3400, Note_off_c, 0, 31, 64
1, 3400, Note_on_c, 0, 69, 17
1, 3400, Note_off_c, 0, 72, 64
1, 3400, Note_off_c, 0, 75, 64
1, 3400, Note_on_c, 0, 76, 16
1, 3401, Note_on_c, 0, 85, 27
1, 3402, Note_off_c, 0, 30, 64
1, 3402, Note_off_c, 0, 63, 64
1, 3402, Note_off_c, 0, 74, 64
1, 3403, Note_on_c, 0, 78, 31
1, 3403, Note_on_c, 0, 81, 34
1, 3403, Note_on_c, 0, 86, 19
1, 3404, Note_on_c, 0, 36, 70
1, 3404, Note_off_c, 0, 69, 64
1, 3404, Note_on_c, 0, 83, 24
1, 3404, Note_on_c, 0, 88, 16
1, 3405, Note_on_c, 0, 31, 76
1, 3405, Note_off_c, 0, 36, 64
1, 3405, Note_on_c, 0, 61, 40
1, 3405, Note_on_c, 0, 64, 39
1, 3405, Note_on_c, 0, 67, 33
1, 3405, Note_on_c, 0, 74, 32
1, 3405, Note_off_c, 0, 76, 64
1, 3405, Note_on_c, 0, 84, 25
1, 3406, Note_on_c, 0, 30, 80
1, 3406, Note_off_c, 0, 31, 64
1, 3406, Note_on_c, 0, 70, 32
1, 3406, Note_off_c, 0, 86, 64
1, 3406, Note_on_c, 0, 101, 16
1, 3407, Note_on_c, 0, 29, 80
1, 3407, Note_off_c, 0, 30, 64
1, 3407, Note_off_c, 0, 67, 64
1, 3407, Note_on_c, 0, 79, 28
1, 3407, Note_off_c, 0, 83, 64
1, 3407, Note_off_c, 0, 85, 64
1, 3408, Note_off_c, 0, 29, 64
1, 3408, Note_on_c, 0, 30, 77
1, 3408, Note_on_c, 0, 60, 39
1, 3408, Note_off_c, 0, 61, 64
1, 3408, Note_off_c, 0, 64, 64
1, 3408, Note_on_c, 0, 65, 33
1, 3408, Note_off_c, 0, 81, 64
1, 3409, Note_on_c, 0, 66, 52
1, 3409, Note_on_c, 0, 85, 22
1, 3409, Note_off_c, 0, 101, 64
1, 3410, Note_on_c, 0, 48, 53
1, 3410, Note_off_c, 0, 60, 64
1, 3410, Note_on_c, 0, 61, 32
1, 3410, Note_off_c, 0, 65, 64
1, 3410, Note_off_c, 0, 70, 64
1, 3410, Note_on_c, 0, 83, 56
1, 3410, Note_off_c, 0, 84, 64
1, 3411, Note_on_c, 0, 29, 73
1, 3411, Note_off_c, 0, 30, 64
1, 3411, Note_off_c, 0, 74, 64
1, 3411, Note_off_c, 0, 78, 64
1, 3412, Note_off_c, 0, 48, 64
1, 3412, Note_on_c, 0, 70, 32
1, 3412, Note_off_c, 0, 82, 64
1, 3412, Note_on_c, 0, 90, 36
1, 3413, Note_on_c, 0, 42, 65
1, 3413, Note_on_c, 0, 58, 35
1, 3413, Note_off_c, 0, 61, 64
1, 3413, Note_on_c, 0, 76, 19
1, 3413, Note_off_c, 0, 85, 64
1, 3413, Note_on_c, 0, 87, 18
1, 3413, Note_on_c, 0, 89, 15
1, 3414, Note_off_c, 0, 29, 64
1, 3414, Note_on_c, 0, 30, 80
1, 3414, Note_off_c, 0, 42, 64
1, 3414, Note_off_c, 0, 66, 64
1, 3414, Note_on_c, 0, 73, 33
1, 3414, Note_on_c, 0, 75, 17
1, 3414, Note_on_c, 0, 92, 21
1, 3414, Note_on_c, 0, 96, 13
1, 3415, Note_on_c, 0, 49, 59
1, 3415, Note_on_c, 0, 54, 51
1, 3415, Note_off_c, 0, 58, 64
1, 3415, Note_on_c, 0, 69, 37
1, 3415, Note_off_c, 0, 70, 64
1, 3415, Note_off_c, 0, 79, 64
1, 3415, Note_on_c, 0, 86, 17
1, 3415, Note_off_c, 0, 88, 64
1, 3416, Note_on_c, 0, 82, 39
1, 3417, Note_on_c, 0, 29, 78
1, 3417, Note_off_c, 0, 30, 64
1, 3417, Note_off_c, 0, 54, 64
1, 3417, Note_off_c, 0, 69, 64
1, 3417, Note_off_c, 0, 73, 64
1, 3417, Note_off_c, 0, 87, 64
1, 3417, Note_off_c, 0, 96, 64
1, 3418, Note_off_c, 0, 29, 64
1, 3418, Note_on_c, 0, 30, 76
1, 3418, Note_off_c, 0, 49, 64
1, 3418, Note_off_c, 0, 75, 64
1, 3419, Note_on_c, 0, 74, 16
1, 3419, Note_off_c, 0, 76, 64
1, 3419, Note_off_c, 0, 89, 64
1, 3420, Note_off_c, 0, 30, 64
1, 3420, Note_on_c, 0, 33, 72
1, 3420, Note_on_c, 0, 54, 39
1, 3420, Note_off_c, 0, 86, 64
1, 3421, Note_off_c, 0, 33, 64
1, 3421, Note_on_c, 0, 35, 65
1, 3421, Note_on_c, 0, 70, 33
1, 3421, Note_on_c, 0, 81, 36
1, 3421, Note_on_c, 0, 86, 44
1, 3421, Note_on_c, 0, 89, 29
1, 3422, Note_off_c, 0, 35, 64
1, 3422, Note_on_c, 0, 53, 66
1, 3422, Note_off_c, 0, 54, 64
1, 3422, Note_on_c, 0, 68, 30
1, 3422, Note_on_c, 0, 77, 43
1, 3422, Note_off_c, 0, 82, 64
1, 3422, Note_on_c, 0, 84, 57
1, 3422, Note_on_c, 0, 91, 36
1, 3422, Note_off_c, 0, 92, 64
1, 3423, Note_off_c, 0, 74, 64
1, 3423, Note_on_c, 0, 76, 42
1, 3423, Note_on_c, 0, 87, 41
1, 3423, Note_on_c, 0, 92, 34
1, 3423, Note_on_c, 0, 94, 24
1, 3424, Note_on_c, 0, 48, 81
1, 3424, Note_off_c, 0, 53, 64
1, 3424, Note_off_c, 0, 70, 64
1, 3424, Note_on_c, 0, 74, 32
1, 3424, Note_off_c, 0, 77, 64
1, 3424, Note_on_c, 0, 78, 53
1, 3424, Note_off_c, 0, 81, 64
1, 3424, Note_off_c, 0, 83, 64
1, 3424, Note_off_c, 0, 89, 64
1, 3425, Note_on_c, 0, 45, 92
1, 3425, Note_off_c, 0, 48, 64
1, 3425, Note_on_c, 0, 71, 31
1, 3425, Note_off_c, 0, 76, 64
1, 3425, Note_on_c, 0, 80, 43
1, 3425, Note_on_c, 0, 82, 27
1, 3425, Note_on_c, 0, 83, 49
1, 3425, Note_off_c, 0, 84, 64
1, 3425, Note_off_c, 0, 91, 64
1, 3426, Note_on_c, 0, 42, 97
1, 3426, Note_off_c, 0, 45, 64
1, 3426, Note_off_c, 0, 68, 64
1, 3426, Note_off_c, 0, 74, 64
1, 3426, Note_on_c, 0, 75, 31
1, 3426, Note_on_c, 0, 76, 36
1, 3426, Note_on_c, 0, 89, 15
1, 3427, Note_on_c, 0, 41, 98
1, 3427, Note_off_c, 0, 42, 64
1, 3427, Note_on_c, 0, 68, 20
1, 3427, Note_off_c, 0, 71, 64
1, 3427, Note_on_c, 0, 72, 31
1, 3427, Note_on_c, 0, 73, 28
1, 3427, Note_on_c, 0, 79, 30
1, 3427, Note_off_c, 0, 80, 64
1, 3428, Note_on_c, 0, 38, 98
1, 3428, Note_off_c, 0, 41, 64
1, 3428, Note_off_c, 0, 76, 64
1, 3429, Note_on_c, 0, 37, 98
1, 3429, Note_off_c, 0, 38, 64
1, 3429, Note_off_c, 0, 72, 64
1, 3429, Note_on_c, 0, 77, 29
1, 3429, Note_off_c, 0, 78, 64
1, 3429, Note_on_c, 0, 80, 30
1, 3429, Note_off_c, 0, 86, 64
1, 3429, Note_off_c, 0, 89, 64
1, 3429, Note_off_c, 0, 92, 64
1, 3430, Note_on_c, 0, 35, 97
1, 3430, Note_off_c, 0, 37, 64
1, 3430, Note_off_c, 0, 68, 64
1, 3430, Note_on_c, 0, 72, 21
1, 3431, Note_on_c, 0, 34, 96
1, 3431, Note_off_c, 0, 35, 64
1, 3431, Note_off_c, 0, 73, 64
1, 3431, Note_on_c, 0, 74, 22
1, 3431, Note_off_c, 0, 75, 64
1, 3431, Note_off_c, 0, 80, 64
1, 3431, Note_off_c, 0, 94, 64
1, 3432, Note_on_c, 0, 33, 96
1, 3432, Note_off_c, 0, 34, 64
1, 3432, Note_off_c, 0, 77, 64
1, 3432, Note_off_c, 0, 79, 64
1, 3432, Note_off_c, 0, 90, 64
1, 3433, Note_on_c, 0, 32, 96
1, 3433, Note_off_c, 0, 33, 64
1, 3433, Note_on_c, 0, 61, 42
1, 3433, Note_off_c, 0, 72, 64
1, 3433, Note_off_c, 0, 87, 64
1, 3434, Note_off_c, 0, 74, 64
1, 3434, Note_on_c, 0, 81, 19
1, 3434, Note_off_c, 0, 83, 64
1, 3435, Note_on_c, 0, 31, 95
1, 3435, Note_off_c, 0, 32, 64
1, 3435, Note_on_c, 0, 78, 21
1, 3435, Note_off_c, 0, 82, 64
1, 3435, Note_on_c, 0, 83, 55
1, 3435, Note_on_c, 0, 86, 9
1, 3435, Note_on_c, 0, 96, 28
1, 3436, Note_on_c, 0, 54, 15
1, 3437, Note_on_c, 0, 72, 14
1, 3438, Note_on_c, 0, 30, 75
1, 3438, Note_off_c, 0, 31, 64
1, 3438, Note_off_c, 0, 86, 64
1, 3439, Note_on_c, 0, 70, 33
1, 3439, Note_off_c, 0, 81, 64
1, 3440, Note_off_c, 0, 30, 64
1, 3440, Note_on_c, 0, 82, 42
1, 3440, Note_on_c, 0, 84, 46
1, 3440, Note_on_c, 0, 85, 43
1, 3440, Note_on_c, 0, 91, 38
1, 3441, Note_off_c, 0, 54, 64
1, 3441, Note_off_c, 0, 72, 64
1, 3441, Note_on_c, 0, 76, 43
1, 3441, Note_on_c, 0, 87, 28
1, 3441, Note_on_c, 0, 89, 32
1, 3442, Note_on_c, 0, 35, 72
1, 3442, Note_on_c, 0, 67, 34
1, 3442, Note_on_c, 0, 74, 35
1, 3442, Note_off_c, 0, 78, 64
1, 3442, Note_on_c, 0, 79, 49
1, 3442, Note_on_c, 0, 90, 34
1, 3443, Note_on_c, 0, 30, 79
1, 3443, Note_off_c, 0, 35, 64
1, 3443, Note_on_c, 0, 92, 25
1, 3443, Note_on_c, 0, 93, 20
1, 3444, Note_on_c, 0, 29, 80
1, 3444, Note_off_c, 0, 30, 64
1, 3444, Note_on_c, 0, 49, 58
1, 3444, Note_on_c, 0, 66, 33
1, 3444, Note_off_c, 0, 67, 64
1, 3444, Note_on_c, 0, 68, 31
1, 3444, Note_off_c, 0, 74, 64
1, 3444, Note_off_c, 0, 84, 64
1, 3444, Note_on_c, 0, 86, 31
1, 3444, Note_off_c, 0, 87, 64
1, 3444, Note_off_c, 0, 91, 64
1, 3445, Note_off_c, 0, 29, 64
1, 3445, Note_on_c, 0, 30, 78
1, 3445, Note_off_c, 0, 70, 64
1, 3445, Note_on_c, 0, 74, 31
1, 3445, Note_on_c, 0, 81, 35
1, 3445, Note_off_c, 0, 89, 64
1, 3446, Note_off_c, 0, 49, 64
1, 3446, Note_off_c, 0, 66, 64
1, 3446, Note_on_c, 0, 67, 42
1, 3446, Note_off_c, 0, 68, 64
1, 3446, Note_off_c, 0, 82, 64
1, 3446, Note_off_c, 0, 86, 64
1, 3447, Note_on_c, 0, 71, 31
1, 3447, Note_off_c, 0, 76, 64
1, 3447, Note_on_c, 0, 77, 29
1, 3447, Note_on_c, 0, 80, 28
1, 3447, Note_on_c, 0, 86, 32
1, 3448, Note_on_c, 0, 29, 74
1, 3448, Note_off_c, 0, 30, 64
1, 3448, Note_on_c, 0, 84, 41
1, 3448, Note_off_c, 0, 85, 64
1, 3449, Note_off_c, 0, 61, 64
1, 3449, Note_on_c, 0, 66, 41
1, 3449, Note_off_c, 0, 67, 64
1, 3449, Note_on_c, 0, 76, 39
1, 3449, Note_off_c, 0, 77, 64
1, 3449, Note_off_c, 0, 79, 64
1, 3449, Note_off_c, 0, 81, 64
1, 3449, Note_on_c, 0, 82, 41
1, 3449, Note_on_c, 0, 87, 34
1, 3450, Note_off_c, 0, 71, 64
1, 3450, Note_on_c, 0, 79, 29
1, 3450, Note_off_c, 0, 90, 64
1, 3450, Note_off_c, 0, 93, 64
1, 3451, Note_off_c, 0, 29, 64
1, 3451, Note_on_c, 0, 30, 79
1, 3451, Note_off_c, 0, 66, 64
1, 3451, Note_off_c, 0, 80, 64
1, 3452, Note_on_c, 0, 63, 41
1, 3452, Note_on_c, 0, 70, 39
1, 3452, Note_off_c, 0, 74, 64
1, 3452, Note_on_c, 0, 78, 31
1, 3452, Note_off_c, 0, 79, 64
1, 3452, Note_on_c, 0, 80, 25
1, 3452, Note_on_c, 0, 85, 28
1, 3453, Note_on_c, 0, 72, 34
1, 3454, Note_on_c, 0, 29, 79
1, 3454, Note_off_c, 0, 30, 64
1, 3454, Note_off_c, 0, 63, 64
1, 3454, Note_on_c, 0, 64, 46
1, 3454, Note_off_c, 0, 82, 64
1, 3455, Note_off_c, 0, 29, 64
1, 3455, Note_on_c, 0, 30, 76
1, 3455, Note_on_c, 0, 69, 32
1, 3455, Note_off_c, 0, 70, 64
1, 3455, Note_on_c, 0, 74, 27
1, 3455, Note_off_c, 0, 87, 64
1, 3456, Note_off_c, 0, 64, 64
1, 3456, Note_off_c, 0, 72, 64
1, 3457, Note_on_c, 0, 61, 54
1, 3457, Note_on_c, 0, 66, 32
1, 3457, Note_off_c, 0, 69, 64
1, 3457, Note_off_c, 0, 80, 64
1, 3457, Note_off_c, 0, 85, 64
1, 3458, Note_off_c, 0, 30, 64
1, 3458, Note_on_c, 0, 34, 70
1, 3458, Note_off_c, 0, 74, 64
1, 3458, Note_on_c, 0, 82, 23
1, 3458, Note_off_c, 0, 92, 64
1, 3459, Note_off_c, 0, 34, 64
1, 3459, Note_on_c, 0, 71, 32
1, 3460, Note_off_c, 0, 66, 64
1, 3461, Note_on_c, 0, 51, 76
1, 3461, Note_off_c, 0, 61, 64
1, 3461, Note_off_c, 0, 71, 64
1, 3461, Note_off_c, 0, 76, 64
1, 3461, Note_off_c, 0, 86, 64
1, 3461, Note_off_c, 0, 96, 64
1, 3462, Note_on_c, 0, 46, 86
1, 3462, Note_off_c, 0, 51, 64
1, 3462, Note_on_c, 0, 66, 19
1, 3462, Note_on_c, 0, 81, 16
1, 3463, Note_on_c, 0, 44, 94
1, 3463, Note_off_c, 0, 46, 64
1, 3463, Note_off_c, 0, 83, 64
1, 3464, Note_on_c, 0, 41, 100
1, 3464, Note_off_c, 0, 44, 64
1, 3464, Note_off_c, 0, 84, 64
1, 3465, Note_on_c, 0, 39, 97
1, 3465, Note_off_c, 0, 41, 64
1, 3465, Note_off_c, 0, 66, 64
1, 3465, Note_off_c, 0, 81, 64
1, 3466, Note_on_c, 0, 37, 98
1, 3466, Note_off_c, 0, 39, 64
1, 3466, Note_on_c, 0, 66, 18
1, 3466, Note_off_c, 0, 82, 64
1, 3466, Note_on_c, 0, 83, 14
1, 3466, Note_on_c, 0, 85, 49
1, 3467, Note_on_c, 0, 36, 98
1, 3467, Note_off_c, 0, 37, 64
1, 3468, Note_on_c, 0, 35, 96
1, 3468, Note_off_c, 0, 36, 64
1, 3468, Note_on_c, 0, 73, 17
1, 3469, Note_on_c, 0, 34, 96
1, 3469, Note_off_c, 0, 35, 64
1, 3469, Note_off_c, 0, 78, 64
1, 3469, Note_on_c, 0, 81, 17
1, 3469, Note_on_c, 0, 82, 26
1, 3469, Note_off_c, 0, 83, 64
1, 3469, Note_on_c, 0, 84, 23
1, 3470, Note_on_c, 0, 33, 95
1, 3470, Note_off_c, 0, 34, 64
1, 3470, Note_off_c, 0, 66, 64
1, 3471, Note_on_c, 0, 32, 96
1, 3471, Note_off_c, 0, 33, 64
1, 3471, Note_on_c, 0, 77, 21
1, 3471, Note_on_c, 0, 83, 23
1, 3472, Note_on_c, 0, 31, 96
1, 3472, Note_off_c, 0, 32, 64
1, 3472, Note_on_c, 0, 80, 17
1, 3472, Note_off_c, 0, 81, 64
1, 3472, Note_off_c, 0, 84, 64
1, 3473, Note_on_c, 0, 79, 24
1, 3474, Note_on_c, 0, 66, 46
1, 3474, Note_off_c, 0, 73, 64
1, 3474, Note_off_c, 0, 77, 64
1, 3475, Note_on_c, 0, 30, 81
1, 3475, Note_off_c, 0, 31, 64
1, 3475, Note_on_c, 0, 75, 12
1, 3475, Note_off_c, 0, 83, 64
1, 3475, Note_on_c, 0, 87, 22
1, 3476, Note_off_c, 0, 79, 64
1, 3476, Note_off_c, 0, 80, 64
1, 3477, Note_on_c, 0, 84, 31
1, 3478, Note_off_c, 0, 30, 64
1, 3478, Note_off_c, 0, 75, 64
1, 3478, Note_on_c, 0, 79, 29
1, 3478, Note_on_c, 0, 80, 26
1, 3479, Note_on_c, 0, 36, 70
1, 3479, Note_on_c, 0, 73, 19
1, 3479, Note_on_c, 0, 76, 18
1, 3479, Note_on_c, 0, 83, 21
1, 3479, Note_on_c, 0, 89, 16
1, 3480, Note_on_c, 0, 31, 77
1, 3480, Note_off_c, 0, 36, 64
1, 3480, Note_off_c, 0, 79, 64
1, 3481, Note_on_c, 0, 30, 80
1, 3481, Note_off_c, 0, 31, 64
1, 3481, Note_on_c, 0, 70, 26
1, 3482, Note_on_c, 0, 29, 79
1, 3482, Note_off_c, 0, 30, 64
1, 3482, Note_on_c, 0, 49, 58
1, 3482, Note_off_c, 0, 73, 64
1, 3482, Note_off_c, 0, 76, 64
1, 3482, Note_off_c, 0, 89, 64
1, 3483, Note_off_c, 0, 29, 64
1, 3483, Note_on_c, 0, 30, 76
1, 3483, Note_on_c, 0, 76, 19
1, 3483, Note_off_c, 0, 82, 64
1, 3483, Note_off_c, 0, 84, 64
1, 3484, Note_off_c, 0, 70, 64
1, 3484, Note_off_c, 0, 80, 64
1, 3484, Note_on_c, 0, 82, 21
1, 3484, Note_on_c, 0, 92, 17
1, 3485, Note_on_c, 0, 29, 75
1, 3485, Note_off_c, 0, 30, 64
1, 3485, Note_off_c, 0, 49, 64
1, 3485, Note_on_c, 0, 54, 48
1, 3485, Note_off_c, 0, 66, 64
1, 3486, Note_on_c, 0, 70, 38
1, 3486, Note_off_c, 0, 83, 64
1, 3487, Note_off_c, 0, 87, 64
1, 3488, Note_off_c, 0, 29, 64
1, 3488, Note_on_c, 0, 30, 80
1, 3488, Note_off_c, 0, 54, 64
1, 3489, Note_on_c, 0, 75, 22
1, 3489, Note_off_c, 0, 76, 64
1, 3489, Note_on_c, 0, 83, 28
1, 3489, Note_on_c, 0, 98, 14
1, 3490, Note_on_c, 0, 64, 38
1, 3491, Note_on_c, 0, 29, 81
1, 3491, Note_off_c, 0, 30, 64
1, 3491, Note_off_c, 0, 70, 64
1, 3491, Note_on_c, 0, 86, 43
1, 3492, Note_off_c, 0, 29, 64
1, 3492, Note_on_c, 0, 30, 79
1, 3492, Note_off_c, 0, 64, 64
1, 3492, Note_on_c, 0, 65, 36
1, 3492, Note_off_c, 0, 82, 64
1, 3492, Note_off_c, 0, 85, 64
1, 3493, Note_on_c, 0, 69, 24
1, 3493, Note_off_c, 0, 75, 64
1, 3493, Note_on_c, 0, 76, 26
1, 3493, Note_on_c, 0, 82, 25
1, 3493, Note_on_c, 0, 85, 49
1, 3493, Note_off_c, 0, 86, 64
1, 3494, Note_on_c, 0, 61, 37
1, 3494, Note_off_c, 0, 65, 64
1, 3494, Note_on_c, 0, 84, 20
1, 3494, Note_off_c, 0, 98, 64
1, 3495, Note_off_c, 0, 30, 64
1, 3495, Note_on_c, 0, 33, 71
1, 3495, Note_on_c, 0, 98, 16
1, 3496, Note_off_c, 0, 33, 64
1, 3496, Note_on_c, 0, 60, 46
1, 3496, Note_off_c, 0, 61, 64
1, 3496, Note_on_c, 0, 66, 49
1, 3496, Note_off_c, 0, 69, 64
1, 3496, Note_on_c, 0, 75, 24
1, 3496, Note_off_c, 0, 76, 64
1, 3496, Note_on_c, 0, 81, 30
1, 3497, Note_on_c, 0, 69, 36
1, 3497, Note_off_c, 0, 82, 64
1, 3497, Note_off_c, 0, 92, 64
1, 3498, Note_on_c, 0, 53, 70
1, 3498, Note_off_c, 0, 60, 64
1, 3498, Note_on_c, 0, 62, 52
1, 3498, Note_off_c, 0, 84, 64
1, 3498, Note_off_c, 0, 98, 64
1, 3499, Note_on_c, 0, 48, 83
1, 3499, Note_off_c, 0, 53, 64
1, 3500, Note_on_c, 0, 45, 93
1, 3500, Note_off_c, 0, 48, 64
1, 3500, Note_off_c, 0, 69, 64
1, 3500, Note_on_c, 0, 73, 16
1, 3500, Note_off_c, 0, 75, 64
1, 3500, Note_off_c, 0, 85, 64
1, 3500, Note_on_c, 0, 86, 30
1, 3501, Note_on_c, 0, 42, 99
1, 3501, Note_off_c, 0, 45, 64
1, 3501, Note_off_c, 0, 62, 64
1, 3501, Note_on_c, 0, 80, 12
1, 3501, Note_off_c, 0, 81, 64
1, 3502, Note_on_c, 0, 40, 99
1, 3502, Note_off_c, 0, 42, 64
1, 3502, Note_off_c, 0, 66, 64
1, 3503, Note_on_c, 0, 38, 98
1, 3503, Note_off_c, 0, 40, 64
1, 3503, Note_off_c, 0, 73, 64
1, 3503, Note_off_c, 0, 83, 64
1, 3504, Note_on_c, 0, 37, 98
1, 3504, Note_off_c, 0, 38, 64
1, 3504, Note_off_c, 0, 80, 64
1, 3505, Note_on_c, 0, 35, 97
1, 3505, Note_off_c, 0, 37, 64
1, 3506, Note_on_c, 0, 34, 96
1, 3506, Note_off_c, 0, 35, 64
1, 3506, Note_on_c, 0, 82, 9
1, 3507, Note_on_c, 0, 33, 96
1, 3507, Note_off_c, 0, 34, 64
1, 3507, Note_on_c, 0, 61, 18
1, 3507, Note_on_c, 0, 64, 18
1, 3507, Note_on_c, 0, 85, 28
1, 3508, Note_on_c, 0, 32, 96
1, 3508, Note_off_c, 0, 33, 64
1, 3508, Note_on_c, 0, 80, 20
1, 3509, Note_on_c, 0, 78, 12
1, 3509, Note_off_c, 0, 82, 64
1, 3509, Note_on_c, 0, 87, 12
1, 3510, Note_on_c, 0, 31, 95
1, 3510, Note_off_c, 0, 32, 64
1, 3510, Note_off_c, 0, 61, 64
1, 3510, Note_off_c, 0, 64, 64
1, 3510, Note_on_c, 0, 65, 17
1, 3510, Note_on_c, 0, 68, 19
1, 3511, Note_off_c, 0, 80, 64
1, 3511, Note_on_c, 0, 83, 24
1, 3512, Note_on_c, 0, 30, 85
1, 3512, Note_off_c, 0, 31, 64
1, 3512, Note_on_c, 0, 54, 17
1, 3512, Note_off_c, 0, 78, 64
1, 3512, Note_off_c, 0, 85, 64
1, 3512, Note_off_c, 0, 87, 64
1, 3513, Note_on_c, 0, 61, 38
1, 3513, Note_off_c, 0, 65, 64
1, 3513, Note_on_c, 0, 66, 21
1, 3513, Note_on_c, 0, 85, 38
1, 3514, Note_off_c, 0, 68, 64
1, 3514, Note_on_c, 0, 80, 22
1, 3515, Note_off_c, 0, 30, 64
1, 3515, Note_off_c, 0, 54, 64
1, 3516, Note_off_c, 0, 66, 64
1, 3516, Note_off_c, 0, 86, 64
1, 3516, Note_on_c, 0, 90, 9
1, 3517, Note_on_c, 0, 32, 72
1, 3517, Note_on_c, 0, 54, 55
1, 3517, Note_on_c, 0, 68, 42
1, 3518, Note_on_c, 0, 30, 81
1, 3518, Note_off_c, 0, 32, 64
1, 3518, Note_on_c, 0, 77, 15
1, 3518, Note_off_c, 0, 83, 64
1, 3518, Note_on_c, 0, 86, 32
1, 3518, Note_on_c, 0, 99, 24
1, 3519, Note_on_c, 0, 29, 81
1, 3519, Note_off_c, 0, 30, 64
1, 3519, Note_off_c, 0, 61, 64
1, 3519, Note_on_c, 0, 64, 35
1, 3519, Note_on_c, 0, 70, 33
1, 3519, Note_on_c, 0, 79, 21
1, 3519, Note_off_c, 0, 80, 64
1, 3519, Note_off_c, 0, 90, 64
1, 3520, Note_off_c, 0, 29, 64
1, 3520, Note_on_c, 0, 30, 77
1, 3520, Note_off_c, 0, 54, 64
1, 3520, Note_off_c, 0, 68, 64
1, 3521, Note_off_c, 0, 64, 64
1, 3521, Note_off_c, 0, 77, 64
1, 3521, Note_on_c, 0, 87, 47
1, 3521, Note_on_c, 0, 89, 21
1, 3521, Note_on_c, 0, 90, 24
1, 3522, Note_off_c, 0, 79, 64
1, 3522, Note_on_c, 0, 83, 21
1, 3522, Note_off_c, 0, 86, 64
1, 3523, Note_on_c, 0, 29, 74
1, 3523, Note_off_c, 0, 30, 64
1, 3524, Note_off_c, 0, 70, 64
1, 3525, Note_on_c, 0, 82, 26
1, 3525, Note_on_c, 0, 84, 26
1, 3526, Note_off_c, 0, 29, 64
1, 3526, Note_on_c, 0, 30, 81
1, 3526, Note_on_c, 0, 64, 32
1, 3526, Note_on_c, 0, 69, 30
1, 3526, Note_on_c, 0, 73, 37
1, 3526, Note_on_c, 0, 75, 17
1, 3526, Note_off_c, 0, 83, 64
1, 3526, Note_on_c, 0, 92, 19
1, 3527, Note_on_c, 0, 49, 61
1, 3527, Note_on_c, 0, 79, 15
1, 3528, Note_off_c, 0, 64, 64
1, 3528, Note_on_c, 0, 80, 17
1, 3528, Note_off_c, 0, 85, 64
1, 3528, Note_on_c, 0, 86, 34
1, 3529, Note_on_c, 0, 29, 79
1, 3529, Note_off_c, 0, 30, 64
1, 3529, Note_on_c, 0, 65, 36
1, 3529, Note_off_c, 0, 75, 64
1, 3529, Note_off_c, 0, 89, 64
1, 3530, Note_off_c, 0, 29, 64
1, 3530, Note_on_c, 0, 30, 76
1, 3530, Note_off_c, 0, 79, 64
1, 3530, Note_off_c, 0, 84, 64
1, 3531, Note_off_c, 0, 65, 64
1, 3531, Note_off_c, 0, 69, 64
1, 3531, Note_off_c, 0, 73, 64
1, 3531, Note_on_c, 0, 74, 29
1, 3531, Note_on_c, 0, 79, 14
1, 3531, Note_off_c, 0, 80, 64
1, 3531, Note_on_c, 0, 83, 20
1, 3532, Note_off_c, 0, 49, 64
1, 3532, Note_off_c, 0, 86, 64
1, 3532, Note_off_c, 0, 90, 64
1, 3533, Note_off_c, 0, 30, 64
1, 3533, Note_on_c, 0, 34, 69
1, 3533, Note_on_c, 0, 65, 47
1, 3533, Note_on_c, 0, 67, 32
1, 3533, Note_on_c, 0, 70, 29
1, 3533, Note_on_c, 0, 73, 27
1, 3533, Note_off_c, 0, 74, 64
1, 3534, Note_off_c, 0, 34, 64
1, 3534, Note_on_c, 0, 76, 13
1, 3534, Note_on_c, 0, 86, 24
1, 3534, Note_off_c, 0, 92, 64
1, 3535, Note_off_c, 0, 67, 64
1, 3535, Note_off_c, 0, 82, 64
1, 3535, Note_off_c, 0, 83, 64
1, 3535, Note_off_c, 0, 99, 64
1, 3536, Note_on_c, 0, 51, 77
1, 3536, Note_off_c, 0, 65, 64
1, 3536, Note_off_c, 0, 70, 64
1, 3536, Note_on_c, 0, 84, 16
1, 3537, Note_on_c, 0, 46, 89
1, 3537, Note_off_c, 0, 51, 64
1, 3537, Note_on_c, 0, 78, 18
1, 3537, Note_off_c, 0, 79, 64
1, 3538, Note_on_c, 0, 43, 95
1, 3538, Note_off_c, 0, 46, 64
1, 3538, Note_off_c, 0, 73, 64
1, 3539, Note_on_c, 0, 41, 100
1, 3539, Note_off_c, 0, 43, 64
1, 3539, Note_off_c, 0, 76, 64
1, 3540, Note_on_c, 0, 39, 97
1, 3540, Note_off_c, 0, 41, 64
1, 3540, Note_on_c, 0, 61, 34
1, 3540, Note_off_c, 0, 86, 64
1, 3541, Note_on_c, 0, 37, 99
1, 3541, Note_off_c, 0, 39, 64
1, 3541, Note_off_c, 0, 78, 64
1, 3541, Note_off_c, 0, 84, 64
1, 3542, Note_on_c, 0, 36, 98
1, 3542, Note_off_c, 0, 37, 64
1, 3543, Note_on_c, 0, 35, 97
1, 3543, Note_off_c, 0, 36, 64
1, 3544, Note_on_c, 0, 34, 96
1, 3544, Note_off_c, 0, 35, 64
1, 3544, Note_off_c, 0, 87, 64
1, 3545, Note_on_c, 0, 33, 96
1, 3545, Note_off_c, 0, 34, 64
1, 3546, Note_on_c, 0, 32, 97
1, 3546, Note_off_c, 0, 33, 64
1, 3546, Note_on_c, 0, 78, 10
1, 3546, Note_on_c, 0, 87, 15
1, 3547, Note_on_c, 0, 31, 96
1, 3547, Note_off_c, 0, 32, 64
1, 3549, Note_off_c, 0, 78, 64
1, 3549, Note_on_c, 0, 85, 35
1, 3550, Note_on_c, 0, 30, 80
1, 3550, Note_off_c, 0, 31, 64
1, 3550, Note_on_c, 0, 66, 30
1, 3550, Note_on_c, 0, 86, 20
1, 3550, Note_off_c, 0, 87, 64
1, 3550, Note_on_c, 0, 88, 56
1, 3552, Note_off_c, 0, 30, 64
1, 3552, Note_on_c, 0, 83, 28
1, 3552, Note_on_c, 0, 90, 21
1, 3553, Note_off_c, 0, 61, 64
1, 3553, Note_off_c, 0, 66, 64
1, 3553, Note_on_c, 0, 91, 10
1, 3554, Note_on_c, 0, 36, 72
1, 3554, Note_on_c, 0, 64, 34
1, 3554, Note_on_c, 0, 84, 22
1, 3554, Note_off_c, 0, 86, 64
1, 3554, Note_on_c, 0, 87, 22
1, 3555, Note_on_c, 0, 31, 78
1, 3555, Note_off_c, 0, 36, 64
1, 3555, Note_on_c, 0, 61, 39
1, 3555, Note_on_c, 0, 68, 32
1, 3555, Note_on_c, 0, 79, 24
1, 3556, Note_on_c, 0, 29, 81
1, 3556, Note_off_c, 0, 31, 64
1, 3556, Note_on_c, 0, 66, 30
1, 3556, Note_off_c, 0, 91, 64
1, 3557, Note_off_c, 0, 64, 64
1, 3557, Note_off_c, 0, 84, 64
1, 3557, Note_on_c, 0, 86, 23
1, 3557, Note_off_c, 0, 87, 64
1, 3558, Note_off_c, 0, 29, 64
1, 3558, Note_on_c, 0, 30, 77
1, 3558, Note_off_c, 0, 66, 64
1, 3558, Note_off_c, 0, 68, 64
1, 3558, Note_off_c, 0, 85, 64
1, 3559, Note_on_c, 0, 70, 22
1, 3559, Note_on_c, 0, 75, 28
1, 3559, Note_on_c, 0, 78, 45
1, 3559, Note_off_c, 0, 79, 64
1, 3559, Note_on_c, 0, 80, 13
1, 3560, Note_on_c, 0, 29, 75
1, 3560, Note_off_c, 0, 30, 64
1, 3560, Note_on_c, 0, 48, 51
1, 3560, Note_off_c, 0, 61, 64
1, 3560, Note_on_c, 0, 66, 44
1, 3560, Note_off_c, 0, 83, 64
1, 3560, Note_on_c, 0, 92, 17
1, 3561, Note_on_c, 0, 54, 57
1, 3561, Note_off_c, 0, 90, 64
1, 3562, Note_off_c, 0, 48, 64
1, 3562, Note_off_c, 0, 75, 64
1, 3562, Note_on_c, 0, 81, 18
1, 3563, Note_off_c, 0, 29, 64
1, 3563, Note_on_c, 0, 30, 72
1, 3563, Note_off_c, 0, 70, 64
1, 3563, Note_on_c, 0, 73, 31
1, 3563, Note_off_c, 0, 86, 64
1, 3564, Note_off_c, 0, 30, 64
1, 3564, Note_on_c, 0, 31, 75
1, 3564, Note_on_c, 0, 61, 44
1, 3564, Note_on_c, 0, 68, 29
1, 3564, Note_on_c, 0, 71, 11
1, 3564, Note_on_c, 0, 82, 24
1, 3565, Note_on_c, 0, 30, 80
1, 3565, Note_off_c, 0, 31, 64
1, 3565, Note_off_c, 0, 54, 64
1, 3565, Note_off_c, 0, 80, 64
1, 3565, Note_off_c, 0, 81, 64
1, 3565, Note_off_c, 0, 92, 64
1, 3566, Note_on_c, 0, 29, 80
1, 3566, Note_off_c, 0, 30, 64
1, 3566, Note_off_c, 0, 68, 64
1, 3567, Note_off_c, 0, 29, 64
1, 3567, Note_on_c, 0, 30, 77
1, 3567, Note_off_c, 0, 66, 64
1, 3567, Note_off_c, 0, 71, 64
1, 3567, Note_on_c, 0, 86, 27
1, 3568, Note_on_c, 0, 66, 19
1, 3568, Note_on_c, 0, 70, 22
1, 3568, Note_on_c, 0, 76, 47
1, 3570, Note_off_c, 0, 30, 64
1, 3570, Note_on_c, 0, 34, 71
1, 3570, Note_on_c, 0, 72, 38
1, 3571, Note_off_c, 0, 34, 64
1, 3571, Note_on_c, 0, 60, 48
1, 3571, Note_on_c, 0, 65, 47
1, 3571, Note_off_c, 0, 66, 64
1, 3571, Note_on_c, 0, 68, 42
1, 3571, Note_off_c, 0, 70, 64
1, 3571, Note_off_c, 0, 73, 64
1, 3571, Note_on_c, 0, 83, 49
1, 3571, Note_on_c, 0, 84, 38
1, 3571, Note_off_c, 0, 86, 64
1, 3571, Note_on_c, 0, 87, 29
1, 3571, Note_on_c, 0, 91, 31
1, 3572, Note_off_c, 0, 61, 64
1, 3572, Note_off_c, 0, 82, 64
1, 3572, Note_on_c, 0, 86, 39
1, 3572, Note_on_c, 0, 92, 32
1, 3572, Note_on_c, 0, 93, 22
1, 3573, Note_on_c, 0, 53, 70
1, 3573, Note_off_c, 0, 60, 64
1, 3573, Note_on_c, 0, 75, 36
1, 3573, Note_off_c, 0, 78, 64
1, 3573, Note_on_c, 0, 79, 57
1, 3573, Note_on_c, 0, 82, 42
1, 3573, Note_off_c, 0, 84, 64
1, 3573, Note_on_c, 0, 85, 34
1, 3573, Note_on_c, 0, 89, 37
1, 3574, Note_on_c, 0, 48, 84
1, 3574, Note_off_c, 0, 53, 64
1, 3574, Note_on_c, 0, 73, 37
1, 3574, Note_off_c, 0, 87, 64
1, 3575, Note_on_c, 0, 45, 94
1, 3575, Note_off_c, 0, 48, 64
1, 3575, Note_off_c, 0, 65, 64
1, 3575, Note_off_c, 0, 68, 64
1, 3575, Note_on_c, 0, 70, 29
1, 3575, Note_off_c, 0, 75, 64
1, 3575, Note_on_c, 0, 78, 39
1, 3575, Note_on_c, 0, 80, 42
1, 3575, Note_off_c, 0, 93, 64
1, 3576, Note_on_c, 0, 42, 99
1, 3576, Note_off_c, 0, 45, 64
1, 3576, Note_on_c, 0, 57, 22
1, 3576, Note_off_c, 0, 72, 64
1, 3576, Note_off_c, 0, 73, 64
1, 3576, Note_on_c, 0, 75, 32
1, 3576, Note_off_c, 0, 79, 64
1, 3576, Note_on_c, 0, 87, 36
1, 3576, Note_off_c, 0, 88, 64
1, 3576, Note_on_c, 0, 93, 11
1, 3577, Note_on_c, 0, 40, 98
1, 3577, Note_off_c, 0, 42, 64
1, 3577, Note_on_c, 0, 72, 32
1, 3577, Note_off_c, 0, 76, 64
1, 3577, Note_on_c, 0, 81, 23
1, 3577, Note_off_c, 0, 83, 64
1, 3577, Note_off_c, 0, 92, 64
1, 3578, Note_on_c, 0, 38, 98
1, 3578, Note_off_c, 0, 40, 64
1, 3578, Note_off_c, 0, 70, 64
1, 3578, Note_on_c, 0, 73, 31
1, 3578, Note_off_c, 0, 75, 64
1, 3578, Note_on_c, 0, 79, 43
1, 3578, Note_off_c, 0, 80, 64
1, 3578, Note_off_c, 0, 91, 64
1, 3579, Note_on_c, 0, 36, 98
1, 3579, Note_off_c, 0, 38, 64
1, 3579, Note_off_c, 0, 57, 64
1, 3579, Note_on_c, 0, 75, 32
1, 3579, Note_on_c, 0, 77, 21
1, 3579, Note_off_c, 0, 78, 64
1, 3579, Note_on_c, 0, 83, 24
1, 3580, Note_on_c, 0, 35, 97
1, 3580, Note_off_c, 0, 36, 64
1, 3580, Note_off_c, 0, 73, 64
1, 3580, Note_off_c, 0, 82, 64
1, 3580, Note_off_c, 0, 86, 64
1, 3580, Note_on_c, 0, 88, 23
1, 3580, Note_off_c, 0, 93, 64
1, 3581, Note_on_c, 0, 34, 96
1, 3581, Note_off_c, 0, 35, 64
1, 3581, Note_off_c, 0, 89, 64
1, 3582, Note_on_c, 0, 33, 96
1, 3582, Note_off_c, 0, 34, 64
1, 3582, Note_off_c, 0, 85, 64
1, 3582, Note_on_c, 0, 89, 46
1, 3583, Note_on_c, 0, 32, 96
1, 3583, Note_off_c, 0, 33, 64
1, 3583, Note_off_c, 0, 72, 64
1, 3583, Note_off_c, 0, 75, 64
1, 3584, Note_off_c, 0, 79, 64
1, 3584, Note_on_c, 0, 85, 18
1, 3584, Note_off_c, 0, 87, 64
1, 3585, Note_on_c, 0, 31, 94
1, 3585, Note_off_c, 0, 32, 64
1, 3585, Note_on_c, 0, 76, 18
1, 3585, Note_off_c, 0, 77, 64
1, 3586, Note_on_c, 0, 75, 10
1, 3586, Note_off_c, 0, 88, 64
1, 3587, Note_on_c, 0, 30, 84
1, 3587, Note_off_c, 0, 31, 64
1, 3587, Note_on_c, 0, 61, 20
1, 3587, Note_off_c, 0, 81, 64
1, 3587, Note_off_c, 0, 83, 64
1, 3587, Note_off_c, 0, 85, 64
1, 3588, Note_off_c, 0, 76, 64
1, 3588, Note_on_c, 0, 77, 15
1, 3589, Note_off_c, 0, 75, 64
1, 3589, Note_on_c, 0, 78, 44
1, 3589, Note_on_c, 0, 82, 37
1, 3589, Note_on_c, 0, 88, 35
1, 3590, Note_off_c, 0, 30, 64
1, 3590, Note_on_c, 0, 70, 24
1, 3590, Note_on_c, 0, 80, 26
1, 3590, Note_on_c, 0, 87, 47
1, 3591, Note_on_c, 0, 36, 66
1, 3591, Note_on_c, 0, 74, 36
1, 3591, Note_off_c, 0, 77, 64
1, 3591, Note_on_c, 0, 81, 30
1, 3591, Note_on_c, 0, 86, 41
1, 3592, Note_on_c, 0, 31, 73
1, 3592, Note_off_c, 0, 36, 64
1, 3592, Note_off_c, 0, 61, 64
1, 3592, Note_on_c, 0, 68, 29
1, 3592, Note_on_c, 0, 85, 44
1, 3592, Note_on_c, 0, 91, 34
1, 3592, Note_on_c, 0, 95, 21
1, 3593, Note_on_c, 0, 30, 80
1, 3593, Note_off_c, 0, 31, 64
1, 3593, Note_off_c, 0, 70, 64
1, 3593, Note_off_c, 0, 80, 64
1, 3593, Note_on_c, 0, 84, 36
1, 3594, Note_on_c, 0, 29, 80
1, 3594, Note_off_c, 0, 30, 64
1, 3594, Note_on_c, 0, 72, 31
1, 3594, Note_on_c, 0, 76, 41
1, 3594, Note_off_c, 0, 87, 64
1, 3595, Note_off_c, 0, 29, 64
1, 3595, Note_on_c, 0, 30, 77
1, 3595, Note_on_c, 0, 49, 56
1, 3595, Note_off_c, 0, 78, 64
1, 3595, Note_off_c, 0, 81, 64
1, 3595, Note_on_c, 0, 83, 36
1, 3595, Note_off_c, 0, 84, 64
1, 3596, Note_on_c, 0, 63, 32
1, 3596, Note_on_c, 0, 66, 30
1, 3596, Note_off_c, 0, 68, 64
1, 3596, Note_off_c, 0, 76, 64
1, 3596, Note_on_c, 0, 79, 42
1, 3596, Note_on_c, 0, 81, 29
1, 3596, Note_off_c, 0, 82, 64
1, 3596, Note_on_c, 0, 84, 35
1, 3596, Note_off_c, 0, 86, 64
1, 3596, Note_on_c, 0, 87, 34
1, 3597, Note_on_c, 0, 29, 75
1, 3597, Note_off_c, 0, 30, 64
1, 3597, Note_off_c, 0, 49, 64
1, 3597, Note_off_c, 0, 72, 64
1, 3597, Note_on_c, 0, 73, 30
1, 3597, Note_off_c, 0, 74, 64
1, 3597, Note_on_c, 0, 76, 29
1, 3597, Note_on_c, 0, 78, 42
1, 3597, Note_off_c, 0, 85, 64
1, 3598, Note_on_c, 0, 54, 33
1, 3598, Note_off_c, 0, 66, 64
1, 3598, Note_on_c, 0, 70, 26
1, 3598, Note_on_c, 0, 74, 25
1, 3598, Note_on_c, 0, 82, 37
1, 3598, Note_off_c, 0, 83, 64
1, 3598, Note_on_c, 0, 85, 31
1, 3599, Note_off_c, 0, 73, 64
1, 3599, Note_off_c, 0, 79, 64
1, 3599, Note_on_c, 0, 83, 28
1, 3600, Note_off_c, 0, 54, 64
1, 3600, Note_on_c, 0, 73, 21
1, 3600, Note_off_c, 0, 89, 64
1, 3601, Note_off_c, 0, 29, 64
1, 3601, Note_on_c, 0, 30, 80
1, 3601, Note_on_c, 0, 61, 44
1, 3601, Note_off_c, 0, 63, 64
1, 3601, Note_on_c, 0, 64, 40
1, 3601, Note_off_c, 0, 74, 64
1, 3601, Note_on_c, 0, 75, 32
1, 3601, Note_off_c, 0, 78, 64
1, 3601, Note_off_c, 0, 81, 64
1, 3601, Note_on_c, 0, 89, 32
1, 3601, Note_on_c, 0, 92, 17
1, 3602, Note_on_c, 0, 49, 60
1, 3602, Note_on_c, 0, 54, 52
1, 3602, Note_off_c, 0, 70, 64
1, 3602, Note_on_c, 0, 78, 34
1, 3602, Note_on_c, 0, 81, 37
1, 3602, Note_off_c, 0, 83, 64
1, 3603, Note_off_c, 0, 64, 64
1, 3603, Note_on_c, 0, 86, 23
1, 3603, Note_off_c, 0, 88, 64
1, 3603, Note_off_c, 0, 91, 64
1, 3603, Note_off_c, 0, 95, 64
1, 3604, Note_on_c, 0, 29, 79
1, 3604, Note_off_c, 0, 30, 64
1, 3604, Note_off_c, 0, 54, 64
1, 3604, Note_on_c, 0, 67, 40
1, 3604, Note_off_c, 0, 73, 64
1, 3604, Note_off_c, 0, 84, 64
1, 3604, Note_off_c, 0, 92, 64
1, 3605, Note_off_c, 0, 29, 64
1, 3605, Note_on_c, 0, 30, 77
1, 3605, Note_off_c, 0, 76, 64
1, 3605, Note_on_c, 0, 84, 28
1, 3605, Note_on_c, 0, 88, 18
1, 3605, Note_on_c, 0, 91, 20
1, 3606, Note_off_c, 0, 75, 64
1, 3606, Note_off_c, 0, 82, 64
1, 3606, Note_on_c, 0, 83, 15
1, 3606, Note_off_c, 0, 86, 64
1, 3607, Note_off_c, 0, 30, 64
1, 3607, Note_on_c, 0, 31, 71
1, 3607, Note_off_c, 0, 49, 64
1, 3607, Note_on_c, 0, 54, 32
1, 3607, Note_off_c, 0, 67, 64
1, 3608, Note_off_c, 0, 31, 64
1, 3608, Note_on_c, 0, 34, 67
1, 3608, Note_on_c, 0, 69, 32
1, 3608, Note_off_c, 0, 81, 64
1, 3608, Note_off_c, 0, 89, 64
1, 3608, Note_off_c, 0, 91, 64
1, 3609, Note_off_c, 0, 34, 64
1, 3609, Note_off_c, 0, 54, 64
1, 3609, Note_on_c, 0, 66, 50
1, 3609, Note_off_c, 0, 78, 64
1, 3609, Note_on_c, 0, 82, 9
1, 3609, Note_off_c, 0, 84, 64
1, 3609, Note_off_c, 0, 85, 64
1, 3609, Note_off_c, 0, 87, 64
1, 3609, Note_off_c, 0, 88, 64
1, 3609, Note_on_c, 0, 89, 16
1, 3610, Note_off_c, 0, 61, 64
1, 3610, Note_off_c, 0, 69, 64
1, 3611, Note_on_c, 0, 50, 78
1, 3612, Note_on_c, 0, 45, 90
1, 3612, Note_off_c, 0, 50, 64
1, 3612, Note_off_c, 0, 82, 64
1, 3613, Note_on_c, 0, 42, 96
1, 3613, Note_off_c, 0, 45, 64
1, 3613, Note_off_c, 0, 66, 64
1, 3614, Note_on_c, 0, 41, 100
1, 3614, Note_off_c, 0, 42, 64
1, 3614, Note_off_c, 0, 83, 64
1, 3614, Note_on_c, 0, 88, 21
1, 3615, Note_on_c, 0, 39, 97
1, 3615, Note_off_c, 0, 41, 64
1, 3616, Note_on_c, 0, 37, 98
1, 3616, Note_off_c, 0, 39, 64
1, 3616, Note_on_c, 0, 76, 20
1, 3617, Note_on_c, 0, 36, 97
1, 3617, Note_off_c, 0, 37, 64
1, 3617, Note_on_c, 0, 85, 17
1, 3618, Note_on_c, 0, 35, 96
1, 3618, Note_off_c, 0, 36, 64
1, 3619, Note_on_c, 0, 34, 96
1, 3619, Note_off_c, 0, 35, 64
1, 3619, Note_on_c, 0, 78, 20
1, 3619, Note_on_c, 0, 83, 18
1, 3619, Note_on_c, 0, 86, 22
1, 3619, Note_on_c, 0, 87, 24
1, 3619, Note_off_c, 0, 89, 64
1, 3620, Note_on_c, 0, 33, 96
1, 3620, Note_off_c, 0, 34, 64
1, 3620, Note_on_c, 0, 89, 12
1, 3621, Note_on_c, 0, 32, 97
1, 3621, Note_off_c, 0, 33, 64
1, 3621, Note_on_c, 0, 66, 27
1, 3621, Note_off_c, 0, 76, 64
1, 3621, Note_on_c, 0, 77, 16
1, 3621, Note_off_c, 0, 85, 64
1, 3622, Note_on_c, 0, 31, 95
1, 3622, Note_off_c, 0, 32, 64
1, 3622, Note_on_c, 0, 80, 22
1, 3622, Note_off_c, 0, 87, 64
1, 3623, Note_on_c, 0, 81, 32
1, 3623, Note_on_c, 0, 85, 24
1, 3623, Note_on_c, 0, 87, 20
1, 3623, Note_off_c, 0, 89, 64
1, 3624, Note_on_c, 0, 54, 12
1, 3624, Note_off_c, 0, 77, 64
1, 3624, Note_on_c, 0, 82, 21
1, 3624, Note_off_c, 0, 83, 64
1, 3624, Note_off_c, 0, 86, 64
1, 3625, Note_on_c, 0, 30, 78
1, 3625, Note_off_c, 0, 31, 64
1, 3625, Note_off_c, 0, 80, 64
1, 3625, Note_on_c, 0, 91, 52
1, 3626, Note_off_c, 0, 78, 64
1, 3626, Note_off_c, 0, 85, 64
1, 3626, Note_on_c, 0, 92, 18
1, 3627, Note_off_c, 0, 30, 64
1, 3627, Note_off_c, 0, 66, 64
1, 3627, Note_on_c, 0, 78, 23
1, 3627, Note_on_c, 0, 83, 24
1, 3627, Note_off_c, 0, 88, 64
1, 3628, Note_off_c, 0, 54, 64
1, 3628, Note_on_c, 0, 61, 39
1, 3628, Note_on_c, 0, 69, 27
1, 3628, Note_on_c, 0, 75, 15
1, 3628, Note_on_c, 0, 77, 23
1, 3628, Note_on_c, 0, 86, 33
1, 3629, Note_on_c, 0, 36, 71
1, 3629, Note_on_c, 0, 88, 23
1, 3630, Note_on_c, 0, 30, 78
1, 3630, Note_off_c, 0, 36, 64
1, 3630, Note_on_c, 0, 49, 59
1, 3630, Note_on_c, 0, 90, 30
1, 3631, Note_on_c, 0, 29, 80
1, 3631, Note_off_c, 0, 30, 64
1, 3631, Note_on_c, 0, 64, 30
1, 3631, Note_off_c, 0, 69, 64
1, 3631, Note_off_c, 0, 75, 64
1, 3631, Note_off_c, 0, 77, 64
1, 3631, Note_off_c, 0, 78, 64
1, 3631, Note_off_c, 0, 82, 64
1, 3632, Note_off_c, 0, 61, 64
1, 3632, Note_on_c, 0, 66, 46
1, 3632, Note_on_c, 0, 85, 29
1, 3633, Note_off_c, 0, 29, 64
1, 3633, Note_on_c, 0, 30, 76
1, 3633, Note_off_c, 0, 49, 64
1, 3633, Note_on_c, 0, 70, 23
1, 3633, Note_on_c, 0, 73, 29
1, 3633, Note_off_c, 0, 83, 64
1, 3633, Note_off_c, 0, 87, 64
1, 3634, Note_off_c, 0, 64, 64
1, 3634, Note_on_c, 0, 89, 22
1, 3634, Note_off_c, 0, 90, 64
1, 3635, Note_on_c, 0, 29, 74
1, 3635, Note_off_c, 0, 30, 64
1, 3636, Note_on_c, 0, 61, 30
1, 3636, Note_off_c, 0, 70, 64
1, 3636, Note_on_c, 0, 87, 26
1, 3637, Note_on_c, 0, 69, 32
1, 3637, Note_off_c, 0, 89, 64
1, 3637, Note_off_c, 0, 92, 64
1, 3638, Note_off_c, 0, 29, 64
1, 3638, Note_on_c, 0, 30, 81
1, 3638, Note_off_c, 0, 61, 64
1, 3639, Note_on_c, 0, 61, 41
1, 3639, Note_off_c, 0, 73, 64
1, 3639, Note_on_c, 0, 76, 36
1, 3639, Note_on_c, 0, 79, 30
1, 3639, Note_on_c, 0, 82, 18
1, 3639, Note_on_c, 0, 84, 20
1, 3640, Note_on_c, 0, 49, 59
1, 3640, Note_off_c, 0, 69, 64
1, 3640, Note_on_c, 0, 70, 23
1, 3640, Note_on_c, 0, 72, 30
1, 3640, Note_off_c, 0, 81, 64
1, 3641, Note_on_c, 0, 29, 81
1, 3641, Note_off_c, 0, 30, 64
1, 3641, Note_on_c, 0, 89, 27
1, 3642, Note_off_c, 0, 29, 64
1, 3642, Note_on_c, 0, 30, 77
1, 3642, Note_off_c, 0, 49, 64
1, 3642, Note_off_c, 0, 61, 64
1, 3642, Note_off_c, 0, 72, 64
1, 3642, Note_on_c, 0, 73, 31
1, 3642, Note_on_c, 0, 81, 25
1, 3642, Note_off_c, 0, 87, 64
1, 3642, Note_off_c, 0, 88, 64
1, 3643, Note_on_c, 0, 61, 16
1, 3643, Note_off_c, 0, 70, 64
1, 3643, Note_off_c, 0, 82, 64
1, 3644, Note_off_c, 0, 79, 64
1, 3644, Note_off_c, 0, 84, 64
1, 3644, Note_on_c, 0, 87, 27
1, 3644, Note_on_c, 0, 92, 16
1, 3645, Note_off_c, 0, 30, 64
1, 3645, Note_on_c, 0, 34, 72
1, 3645, Note_off_c, 0, 66, 64
1, 3645, Note_on_c, 0, 83, 59
1, 3645, Note_off_c, 0, 85, 64
1, 3646, Note_off_c, 0, 34, 64
1, 3646, Note_on_c, 0, 55, 50
1, 3646, Note_off_c, 0, 61, 64
1, 3646, Note_on_c, 0, 66, 52
1, 3646, Note_on_c, 0, 72, 40
1, 3646, Note_off_c, 0, 73, 64
1, 3646, Note_off_c, 0, 76, 64
1, 3646, Note_on_c, 0, 77, 36
1, 3646, Note_on_c, 0, 80, 36
1, 3646, Note_on_c, 0, 88, 44
1, 3647, Note_off_c, 0, 81, 64
1, 3647, Note_on_c, 0, 82, 51
1, 3648, Note_on_c, 0, 51, 72
1, 3648, Note_off_c, 0, 55, 64
1, 3648, Note_on_c, 0, 76, 43
1, 3648, Note_on_c, 0, 79, 57
1, 3648, Note_on_c, 0, 84, 51
1, 3648, Note_on_c, 0, 85, 34
1, 3649, Note_on_c, 0, 48, 85
1, 3649, Note_off_c, 0, 51, 64
1, 3649, Note_off_c, 0, 66, 64
1, 3649, Note_off_c, 0, 72, 64
1, 3649, Note_off_c, 0, 77, 64
1, 3649, Note_off_c, 0, 80, 64
1, 3649, Note_on_c, 0, 81, 41
1, 3649, Note_off_c, 0, 83, 64
1, 3649, Note_off_c, 0, 87, 64
1, 3649, Note_on_c, 0, 90, 27
1, 3650, Note_on_c, 0, 45, 94
1, 3650, Note_off_c, 0, 48, 64
1, 3650, Note_on_c, 0, 69, 22
1, 3650, Note_on_c, 0, 72, 41
1, 3650, Note_on_c, 0, 75, 35
1, 3650, Note_on_c, 0, 83, 37
1, 3650, Note_off_c, 0, 92, 64
1, 3651, Note_on_c, 0, 42, 99
1, 3651, Note_off_c, 0, 45, 64
1, 3651, Note_off_c, 0, 76, 64
1, 3651, Note_off_c, 0, 79, 64
1, 3651, Note_on_c, 0, 80, 31
1, 3651, Note_off_c, 0, 82, 64
1, 3652, Note_on_c, 0, 40, 97
1, 3652, Note_off_c, 0, 42, 64
1, 3652, Note_off_c, 0, 72, 64
1, 3652, Note_on_c, 0, 73, 39
1, 3652, Note_off_c, 0, 85, 64
1, 3652, Note_off_c, 0, 90, 64
1, 3653, Note_on_c, 0, 38, 98
1, 3653, Note_off_c, 0, 40, 64
1, 3653, Note_off_c, 0, 69, 64
1, 3653, Note_on_c, 0, 72, 32
1, 3653, Note_on_c, 0, 79, 30
1, 3653, Note_off_c, 0, 80, 64
1, 3654, Note_on_c, 0, 36, 98
1, 3654, Note_off_c, 0, 38, 64
1, 3654, Note_off_c, 0, 75, 64
1, 3654, Note_on_c, 0, 77, 27
1, 3654, Note_off_c, 0, 84, 64
1, 3654, Note_off_c, 0, 89, 64
1, 3654, Note_on_c, 0, 92, 45
1, 3655, Note_on_c, 0, 35, 97
1, 3655, Note_off_c, 0, 36, 64
1, 3655, Note_off_c, 0, 81, 64
1, 3655, Note_on_c, 0, 82, 28
1, 3655, Note_off_c, 0, 88, 64
1, 3656, Note_on_c, 0, 34, 96
1, 3656, Note_off_c, 0, 35, 64
1, 3656, Note_off_c, 0, 72, 64
1, 3656, Note_on_c, 0, 84, 22
1, 3657, Note_on_c, 0, 33, 95
1, 3657, Note_off_c, 0, 34, 64
1, 3657, Note_on_c, 0, 76, 14
1, 3657, Note_off_c, 0, 77, 64
1, 3657, Note_off_c, 0, 83, 64
1, 3657, Note_off_c, 0, 86, 64
1, 3657, Note_on_c, 0, 87, 14
1, 3658, Note_on_c, 0, 32, 96
1, 3658, Note_off_c, 0, 33, 64
1, 3658, Note_on_c, 0, 66, 23
1, 3658, Note_on_c, 0, 70, 16
1, 3658, Note_off_c, 0, 73, 64
1, 3658, Note_off_c, 0, 82, 64
1, 3659, Note_on_c, 0, 64, 27
1, 3659, Note_off_c, 0, 79, 64
1, 3659, Note_on_c, 0, 82, 18
1, 3659, Note_on_c, 0, 83, 15
1, 3659, Note_off_c, 0, 84, 64
1, 3660, Note_on_c, 0, 31, 94
1, 3660, Note_off_c, 0, 32, 64
1, 3660, Note_on_c, 0, 80, 12
1, 3661, Note_off_c, 0, 70, 64
1, 3662, Note_on_c, 0, 30, 83
1, 3662, Note_off_c, 0, 31, 64
1, 3662, Note_off_c, 0, 66, 64
1, 3662, Note_on_c, 0, 69, 26
1, 3662, Note_off_c, 0, 82, 64
1, 3662, Note_on_c, 0, 85, 19
1, 3662, Note_off_c, 0, 87, 64
1, 3663, Note_on_c, 0, 61, 23
1, 3663, Note_off_c, 0, 80, 64
1, 3663, Note_on_c, 0, 89, 15
1, 3664, Note_off_c, 0, 30, 64
1, 3664, Note_off_c, 0, 83, 64
1, 3665, Note_off_c, 0, 64, 64
1, 3665, Note_off_c, 0, 85, 64
1, 3666, Note_on_c, 0, 36, 68
1, 3666, Note_off_c, 0, 61, 64
1, 3666, Note_on_c, 0, 64, 29
1, 3666, Note_off_c, 0, 76, 64
1, 3666, Note_on_c, 0, 81, 32
1, 3666, Note_off_c, 0, 89, 64
1, 3667, Note_on_c, 0, 31, 75
1, 3667, Note_off_c, 0, 36, 64
1, 3667, Note_on_c, 0, 76, 39
1, 3667, Note_on_c, 0, 79, 34
1, 3667, Note_on_c, 0, 85, 31
1, 3668, Note_on_c, 0, 30, 80
1, 3668, Note_off_c, 0, 31, 64
1, 3668, Note_off_c, 0, 69, 64
1, 3669, Note_on_c, 0, 29, 79
1, 3669, Note_off_c, 0, 30, 64
1, 3669, Note_off_c, 0, 64, 64
1, 3669, Note_on_c, 0, 73, 33
1, 3669, Note_on_c, 0, 86, 20
1, 3670, Note_off_c, 0, 29, 64
1, 3670, Note_on_c, 0, 30, 76
1, 3670, Note_on_c, 0, 83, 39
1, 3670, Note_on_c, 0, 90, 30
1, 3671, Note_on_c, 0, 64, 37
1, 3672, Note_on_c, 0, 29, 75
1, 3672, Note_off_c, 0, 30, 64
1, 3672, Note_on_c, 0, 69, 23
1, 3672, Note_on_c, 0, 71, 21
1, 3673, Note_on_c, 0, 61, 45
1, 3673, Note_off_c, 0, 73, 64
1, 3673, Note_on_c, 0, 74, 31
1, 3673, Note_off_c, 0, 86, 64
1, 3674, Note_on_c, 0, 87, 26
1, 3675, Note_off_c, 0, 64, 64
1, 3675, Note_on_c, 0, 66, 37
1, 3675, Note_off_c, 0, 71, 64
1, 3675, Note_on_c, 0, 72, 30
1, 3676, Note_off_c, 0, 29, 64
1, 3676, Note_on_c, 0, 30, 80
1, 3676, Note_off_c, 0, 81, 64
1, 3676, Note_on_c, 0, 82, 31
1, 3676, Note_off_c, 0, 91, 64
1, 3677, Note_on_c, 0, 49, 59
1, 3677, Note_off_c, 0, 66, 64
1, 3677, Note_off_c, 0, 69, 64
1, 3677, Note_off_c, 0, 79, 64
1, 3677, Note_off_c, 0, 83, 64
1, 3677, Note_on_c, 0, 91, 26
1, 3678, Note_on_c, 0, 86, 36
1, 3678, Note_off_c, 0, 87, 64
1, 3679, Note_on_c, 0, 29, 79
1, 3679, Note_off_c, 0, 30, 64
1, 3679, Note_on_c, 0, 64, 49
1, 3679, Note_off_c, 0, 74, 64
1, 3679, Note_off_c, 0, 85, 64
1, 3679, Note_on_c, 0, 89, 23
1, 3679, Note_off_c, 0, 90, 64
1, 3680, Note_off_c, 0, 29, 64
1, 3680, Note_on_c, 0, 30, 76
1, 3680, Note_off_c, 0, 49, 64
1, 3680, Note_off_c, 0, 61, 64
1, 3680, Note_on_c, 0, 80, 21
1, 3680, Note_on_c, 0, 81, 18
1, 3681, Note_off_c, 0, 72, 64
1, 3681, Note_on_c, 0, 73, 30
1, 3681, Note_off_c, 0, 82, 64
1, 3681, Note_on_c, 0, 83, 21
1, 3681, Note_on_c, 0, 87, 27
1, 3682, Note_off_c, 0, 30, 64
1, 3682, Note_on_c, 0, 32, 72
1, 3682, Note_on_c, 0, 54, 32
1, 3682, Note_on_c, 0, 67, 37
1, 3683, Note_off_c, 0, 32, 64
1, 3683, Note_on_c, 0, 35, 67
1, 3683, Note_on_c, 0, 69, 42
1, 3683, Note_on_c, 0, 72, 31
1, 3683, Note_off_c, 0, 80, 64
1, 3683, Note_off_c, 0, 86, 64
1, 3684, Note_off_c, 0, 35, 64
1, 3684, Note_off_c, 0, 54, 64
1, 3684, Note_off_c, 0, 76, 64
1, 3684, Note_on_c, 0, 80, 13
1, 3684, Note_off_c, 0, 81, 64
1, 3684, Note_on_c, 0, 86, 18
1, 3684, Note_off_c, 0, 89, 64
1, 3685, Note_off_c, 0, 67, 64
1, 3685, Note_off_c, 0, 73, 64
1, 3685, Note_on_c, 0, 78, 22
1, 3686, Note_on_c, 0, 49, 80
1, 3686, Note_off_c, 0, 83, 64
1, 3686, Note_off_c, 0, 87, 64
1, 3687, Note_on_c, 0, 45, 92
1, 3687, Note_off_c, 0, 49, 64
1, 3687, Note_off_c, 0, 64, 64
1, 3687, Note_off_c, 0, 69, 64
1, 3687, Note_on_c, 0, 82, 10
1, 3687, Note_off_c, 0, 91, 64
1, 3688, Note_on_c, 0, 42, 97
1, 3688, Note_off_c, 0, 45, 64
1, 3688, Note_off_c, 0, 72, 64
1, 3688, Note_off_c, 0, 78, 64
1, 3688, Note_off_c, 0, 92, 64
1, 3688, Note_on_c, 0, 93, 42
1, 3689, Note_on_c, 0, 41, 100
1, 3689, Note_off_c, 0, 42, 64
1, 3689, Note_on_c, 0, 64, 9
1, 3689, Note_on_c, 0, 69, 20
1, 3689, Note_off_c, 0, 86, 64
1, 3690, Note_on_c, 0, 38, 98
1, 3690, Note_off_c, 0, 41, 64
1, 3690, Note_off_c, 0, 80, 64
1, 3690, Note_off_c, 0, 82, 64
1, 3690, Note_on_c, 0, 85, 15
1, 3691, Note_on_c, 0, 37, 98
1, 3691, Note_off_c, 0, 38, 64
1, 3692, Note_on_c, 0, 36, 97
1, 3692, Note_off_c, 0, 37, 64
1, 3692, Note_off_c, 0, 64, 64
1, 3693, Note_on_c, 0, 34, 96
1, 3693, Note_off_c, 0, 36, 64
1, 3693, Note_off_c, 0, 85, 64
1, 3694, Note_on_c, 0, 33, 96
1, 3694, Note_off_c, 0, 34, 64
1, 3695, Note_off_c, 0, 69, 64
1, 3695, Note_on_c, 0, 92, 16
1, 3696, Note_on_c, 0, 32, 97
1, 3696, Note_off_c, 0, 33, 64
1, 3697, Note_on_c, 0, 31, 95
1, 3697, Note_off_c, 0, 32, 64
1, 3697, Note_on_c, 0, 69, 33
1, 3698, Note_on_c, 0, 66, 17
1, 3698, Note_on_c, 0, 91, 27
1, 3698, Note_off_c, 0, 92, 64
1, 3700, Note_on_c, 0, 30, 77
1, 3700, Note_off_c, 0, 31, 64
1, 3701, Note_off_c, 0, 66, 64
1, 3701, Note_on_c, 0, 84, 27
1, 3701, Note_on_c, 0, 85, 20
1, 3701, Note_on_c, 0, 89, 30
1, 3702, Note_off_c, 0, 30, 64
1, 3702, Note_on_c, 0, 66, 25
1, 3702, Note_on_c, 0, 79, 20
1, 3703, Note_on_c, 0, 36, 71
1, 3703, Note_on_c, 0, 76, 36
1, 3703, Note_on_c, 0, 83, 34
1, 3703, Note_on_c, 0, 87, 23
1, 3703, Note_on_c, 0, 90, 10
1, 3704, Note_on_c, 0, 61, 27
1, 3704, Note_on_c, 0, 68, 36
1, 3704, Note_off_c, 0, 69, 64
1, 3704, Note_on_c, 0, 74, 25
1, 3704, Note_off_c, 0, 84, 64
1, 3704, Note_off_c, 0, 85, 64
1, 3705, Note_on_c, 0, 30, 79
1, 3705, Note_off_c, 0, 36, 64
1, 3705, Note_off_c, 0, 66, 64
1, 3706, Note_on_c, 0, 29, 80
1, 3706, Note_off_c, 0, 30, 64
1, 3706, Note_on_c, 0, 49, 59
1, 3706, Note_off_c, 0, 68, 64
1, 3706, Note_on_c, 0, 69, 39
1, 3706, Note_off_c, 0, 83, 64
1, 3707, Note_off_c, 0, 29, 64
1, 3707, Note_on_c, 0, 30, 78
1, 3707, Note_off_c, 0, 61, 64
1, 3707, Note_on_c, 0, 73, 26
1, 3707, Note_off_c, 0, 74, 64
1, 3707, Note_on_c, 0, 85, 30
1, 3707, Note_off_c, 0, 90, 64
1, 3707, Note_on_c, 0, 92, 32
1, 3708, Note_off_c, 0, 49, 64
1, 3708, Note_on_c, 0, 61, 23
1, 3708, Note_on_c, 0, 86, 22
1, 3709, Note_on_c, 0, 84, 17
1, 3709, Note_off_c, 0, 89, 64
1, 3710, Note_on_c, 0, 29, 74
1, 3710, Note_off_c, 0, 30, 64
1, 3710, Note_on_c, 0, 54, 39
1, 3710, Note_on_c, 0, 64, 29
1, 3710, Note_on_c, 0, 82, 18
1, 3710, Note_off_c, 0, 87, 64
1, 3710, Note_on_c, 0, 90, 19
1, 3710, Note_on_c, 0, 94, 31
1, 3711, Note_off_c, 0, 85, 64
1, 3711, Note_on_c, 0, 89, 24
1, 3712, Note_off_c, 0, 54, 64
1, 3712, Note_off_c, 0, 84, 64
1, 3712, Note_off_c, 0, 86, 64
1, 3712, Note_on_c, 0, 87, 23
1, 3713, Note_off_c, 0, 29, 64
1, 3713, Note_on_c, 0, 30, 73
1, 3713, Note_off_c, 0, 61, 64
1, 3713, Note_off_c, 0, 64, 64
1, 3713, Note_off_c, 0, 76, 64
1, 3713, Note_on_c, 0, 85, 26
1, 3713, Note_off_c, 0, 94, 64
1, 3713, Note_on_c, 0, 96, 15
1, 3714, Note_off_c, 0, 30, 64
1, 3714, Note_on_c, 0, 31, 76
1, 3714, Note_on_c, 0, 74, 15
1, 3714, Note_on_c, 0, 78, 16
1, 3714, Note_on_c, 0, 94, 49
1, 3715, Note_on_c, 0, 30, 79
1, 3715, Note_off_c, 0, 31, 64
1, 3715, Note_on_c, 0, 64, 34
1, 3715, Note_off_c, 0, 73, 64
1, 3715, Note_off_c, 0, 89, 64
1, 3715, Note_off_c, 0, 93, 64
1, 3715, Note_on_c, 0, 95, 25
1, 3716, Note_on_c, 0, 29, 79
1, 3716, Note_off_c, 0, 30, 64
1, 3717, Note_off_c, 0, 29, 64
1, 3717, Note_on_c, 0, 30, 77
1, 3717, Note_on_c, 0, 61, 36
1, 3717, Note_off_c, 0, 74, 64
1, 3717, Note_off_c, 0, 78, 64
1, 3717, Note_off_c, 0, 90, 64
1, 3717, Note_on_c, 0, 93, 28
1, 3717, Note_on_c, 0, 98, 14
1, 3718, Note_on_c, 0, 48, 55
1, 3718, Note_off_c, 0, 64, 64
1, 3718, Note_off_c, 0, 69, 64
1, 3718, Note_off_c, 0, 82, 64
1, 3718, Note_off_c, 0, 87, 64
1, 3719, Note_on_c, 0, 64, 50
1, 3719, Note_on_c, 0, 69, 30
1, 3719, Note_off_c, 0, 79, 64
1, 3720, Note_off_c, 0, 30, 64
1, 3720, Note_on_c, 0, 34, 71
1, 3720, Note_off_c, 0, 48, 64
1, 3720, Note_on_c, 0, 81, 37
1, 3720, Note_on_c, 0, 89, 39
1, 3721, Note_off_c, 0, 34, 64
1, 3721, Note_off_c, 0, 61, 64
1, 3721, Note_on_c, 0, 68, 52
1, 3721, Note_off_c, 0, 69, 64
1, 3721, Note_on_c, 0, 71, 38
1, 3721, Note_on_c, 0, 79, 50
1, 3721, Note_on_c, 0, 82, 33
1, 3721, Note_on_c, 0, 84, 38
1, 3721, Note_on_c, 0, 87, 33
1, 3721, Note_on_c, 0, 90, 38
1, 3721, Note_off_c, 0, 92, 64
1, 3722, Note_off_c, 0, 85, 64
1, 3722, Note_on_c, 0, 86, 47
1, 3722, Note_on_c, 0, 92, 24
1, 3723, Note_on_c, 0, 51, 72
1, 3723, Note_off_c, 0, 71, 64
1, 3723, Note_on_c, 0, 72, 35
1, 3723, Note_on_c, 0, 83, 49
1, 3723, Note_off_c, 0, 89, 64
1, 3724, Note_on_c, 0, 48, 85
1, 3724, Note_off_c, 0, 51, 64
1, 3724, Note_off_c, 0, 64, 64
1, 3724, Note_off_c, 0, 68, 64
1, 3724, Note_on_c, 0, 78, 52
1, 3724, Note_off_c, 0, 79, 64
1, 3724, Note_off_c, 0, 81, 64
1, 3724, Note_off_c, 0, 82, 64
1, 3724, Note_off_c, 0, 84, 64
1, 3724, Note_on_c, 0, 85, 28
1, 3724, Note_on_c, 0, 89, 27
1, 3725, Note_on_c, 0, 44, 94
1, 3725, Note_off_c, 0, 48, 64
1, 3725, Note_on_c, 0, 73, 27
1, 3725, Note_on_c, 0, 75, 35
1, 3725, Note_on_c, 0, 80, 25
1, 3725, Note_on_c, 0, 82, 39
1, 3725, Note_off_c, 0, 91, 64
1, 3725, Note_off_c, 0, 96, 64
1, 3725, Note_off_c, 0, 98, 64
1, 3726, Note_on_c, 0, 41, 100
1, 3726, Note_off_c, 0, 44, 64
1, 3726, Note_off_c, 0, 72, 64
1, 3726, Note_off_c, 0, 87, 64
1, 3726, Note_on_c, 0, 91, 26
1, 3727, Note_on_c, 0, 40, 97
1, 3727, Note_off_c, 0, 41, 64
1, 3727, Note_off_c, 0, 78, 64
1, 3727, Note_off_c, 0, 83, 64
1, 3727, Note_on_c, 0, 84, 20
1, 3727, Note_off_c, 0, 89, 64
1, 3728, Note_on_c, 0, 38, 98
1, 3728, Note_off_c, 0, 40, 64
1, 3728, Note_off_c, 0, 73, 64
1, 3728, Note_on_c, 0, 79, 31
1, 3728, Note_on_c, 0, 81, 23
1, 3728, Note_off_c, 0, 93, 64
1, 3729, Note_on_c, 0, 36, 97
1, 3729, Note_off_c, 0, 38, 64
1, 3729, Note_off_c, 0, 75, 64
1, 3729, Note_off_c, 0, 80, 64
1, 3729, Note_off_c, 0, 85, 64
1, 3729, Note_off_c, 0, 86, 64
1, 3729, Note_off_c, 0, 95, 64
1, 3730, Note_on_c, 0, 35, 96
1, 3730, Note_off_c, 0, 36, 64
1, 3730, Note_on_c, 0, 77, 25
1, 3730, Note_off_c, 0, 82, 64
1, 3731, Note_on_c, 0, 34, 96
1, 3731, Note_off_c, 0, 35, 64
1, 3731, Note_on_c, 0, 83, 25
1, 3731, Note_off_c, 0, 90, 64
1, 3732, Note_on_c, 0, 33, 96
1, 3732, Note_off_c, 0, 34, 64
1, 3732, Note_off_c, 0, 81, 64
1, 3732, Note_off_c, 0, 84, 64
1, 3732, Note_on_c, 0, 93, 13
1, 3733, Note_on_c, 0, 32, 96
1, 3733, Note_off_c, 0, 33, 64
1, 3733, Note_off_c, 0, 77, 64
1, 3734, Note_on_c, 0, 48, 20
1, 3734, Note_on_c, 0, 75, 9
1, 3734, Note_on_c, 0, 81, 20
1, 3735, Note_on_c, 0, 31, 94
1, 3735, Note_off_c, 0, 32, 64
1, 3735, Note_off_c, 0, 79, 64
1, 3736, Note_on_c, 0, 69, 32
1, 3736, Note_on_c, 0, 73, 12
1, 3737, Note_on_c, 0, 30, 82
1, 3737, Note_off_c, 0, 31, 64
1, 3737, Note_off_c, 0, 48, 64
1, 3737, Note_off_c, 0, 75, 64
1, 3737, Note_off_c, 0, 81, 64
1, 3737, Note_off_c, 0, 91, 64
1, 3739, Note_off_c, 0, 30, 64
1, 3739, Note_off_c, 0, 73, 64
1, 3739, Note_on_c, 0, 85, 23
1, 3739, Note_on_c, 0, 91, 26
1, 3740, Note_off_c, 0, 69, 64
1, 3740, Note_on_c, 0, 70, 36
1, 3740, Note_off_c, 0, 83, 64
1, 3740, Note_off_c, 0, 93, 64
1, 3741, Note_on_c, 0, 36, 69
1, 3741, Note_on_c, 0, 76, 24
1, 3741, Note_on_c, 0, 90, 16
1, 3742, Note_on_c, 0, 31, 75
1, 3742, Note_off_c, 0, 36, 64
1, 3742, Note_on_c, 0, 66, 16
1, 3742, Note_on_c, 0, 69, 36
1, 3742, Note_off_c, 0, 70, 64
1, 3742, Note_on_c, 0, 79, 20
1, 3742, Note_on_c, 0, 99, 9
1, 3743, Note_on_c, 0, 30, 80
1, 3743, Note_off_c, 0, 31, 64
1, 3743, Note_on_c, 0, 64, 33
1, 3743, Note_on_c, 0, 95, 42
1, 3744, Note_on_c, 0, 29, 80
1, 3744, Note_off_c, 0, 30, 64
1, 3744, Note_on_c, 0, 80, 19
1, 3744, Note_on_c, 0, 83, 25
1, 3744, Note_on_c, 0, 86, 12
1, 3744, Note_on_c, 0, 93, 32
1, 3744, Note_on_c, 0, 96, 20
1, 3744, Note_on_c, 0, 101, 13
1, 3745, Note_off_c, 0, 29, 64
1, 3745, Note_on_c, 0, 30, 77
1, 3745, Note_off_c, 0, 66, 64
1, 3745, Note_off_c, 0, 79, 64
1, 3745, Note_off_c, 0, 90, 64
1, 3745, Note_off_c, 0, 94, 64
1, 3746, Note_off_c, 0, 69, 64
1, 3746, Note_on_c, 0, 73, 29
1, 3746, Note_on_c, 0, 90, 21
1, 3747, Note_on_c, 0, 29, 74
1, 3747, Note_off_c, 0, 30, 64
1, 3747, Note_off_c, 0, 83, 64
1, 3747, Note_on_c, 0, 89, 29
1, 3747, Note_off_c, 0, 101, 64
1, 3748, Note_on_c, 0, 69, 44
1, 3748, Note_on_c, 0, 72, 20
1, 3748, Note_off_c, 0, 76, 64
1, 3748, Note_off_c, 0, 86, 64
1, 3748, Note_off_c, 0, 92, 64
1, 3748, Note_off_c, 0, 96, 64
1, 3748, Note_on_c, 0, 98, 23
1, 3748, Note_off_c, 0, 99, 64
1, 3749, Note_off_c, 0, 80, 64
1, 3749, Note_off_c, 0, 90, 64
1, 3749, Note_on_c, 0, 92, 26
1, 3749, Note_on_c, 0, 94, 25
1, 3750, Note_on_c, 0, 78, 30
1, 3750, Note_on_c, 0, 83, 14
1, 3750, Note_on_c, 0, 87, 18
1, 3750, Note_on_c, 0, 96, 32
1, 3751, Note_off_c, 0, 29, 64
1, 3751, Note_on_c, 0, 31, 78
1, 3751, Note_off_c, 0, 73, 64
1, 3751, Note_on_c, 0, 82, 21
1, 3751, Note_on_c, 0, 86, 29
1, 3752, Note_off_c, 0, 72, 64
1, 3752, Note_on_c, 0, 73, 30
1, 3752, Note_off_c, 0, 85, 64
1, 3753, Note_on_c, 0, 30, 78
1, 3753, Note_off_c, 0, 31, 64
1, 3753, Note_off_c, 0, 83, 64
1, 3753, Note_on_c, 0, 85, 45
1, 3754, Note_on_c, 0, 29, 77
1, 3754, Note_off_c, 0, 30, 64
1, 3754, Note_off_c, 0, 69, 64
1, 3755, Note_off_c, 0, 29, 64
1, 3755, Note_on_c, 0, 30, 74
1, 3755, Note_off_c, 0, 87, 64
1, 3756, Note_on_c, 0, 69, 37
1, 3756, Note_on_c, 0, 77, 15
1, 3756, Note_off_c, 0, 78, 64
1, 3756, Note_off_c, 0, 86, 64
1, 3757, Note_off_c, 0, 30, 64
1, 3757, Note_on_c, 0, 33, 71
1, 3757, Note_on_c, 0, 75, 38
1, 3757, Note_off_c, 0, 82, 64
1, 3757, Note_off_c, 0, 89, 64
1, 3757, Note_on_c, 0, 90, 39
1, 3757, Note_off_c, 0, 91, 64
1, 3757, Note_on_c, 0, 99, 12
1, 3758, Note_off_c, 0, 33, 64
1, 3758, Note_on_c, 0, 71, 38
1, 3758, Note_off_c, 0, 73, 64
1, 3758, Note_on_c, 0, 82, 49
1, 3758, Note_off_c, 0, 92, 64
1, 3759, Note_off_c, 0, 64, 64
1, 3759, Note_off_c, 0, 77, 64
1, 3759, Note_off_c, 0, 94, 64
1, 3760, Note_off_c, 0, 69, 64
1, 3760, Note_on_c, 0, 70, 37
1, 3760, Note_off_c, 0, 71, 64
1, 3760, Note_on_c, 0, 72, 40
1, 3760, Note_on_c, 0, 77, 48
1, 3760, Note_on_c, 0, 79, 48
1, 3760, Note_on_c, 0, 83, 47
1, 3760, Note_off_c, 0, 95, 64
1, 3760, Note_off_c, 0, 96, 64
1, 3760, Note_off_c, 0, 98, 64
1, 3761, Note_on_c, 0, 48, 81
1, 3761, Note_on_c, 0, 88, 29
1, 3762, Note_on_c, 0, 45, 92
1, 3762, Note_off_c, 0, 48, 64
1, 3762, Note_off_c, 0, 70, 64
1, 3762, Note_on_c, 0, 74, 37
1, 3762, Note_off_c, 0, 75, 64
1, 3762, Note_on_c, 0, 76, 43
1, 3762, Note_off_c, 0, 77, 64
1, 3762, Note_on_c, 0, 81, 29
1, 3762, Note_off_c, 0, 83, 64
1, 3762, Note_on_c, 0, 84, 42
1, 3762, Note_on_c, 0, 89, 25
1, 3762, Note_off_c, 0, 99, 64
1, 3763, Note_on_c, 0, 42, 98
1, 3763, Note_off_c, 0, 45, 64
1, 3763, Note_off_c, 0, 72, 64
1, 3763, Note_off_c, 0, 85, 64
1, 3763, Note_on_c, 0, 95, 21
1, 3764, Note_on_c, 0, 41, 99
1, 3764, Note_off_c, 0, 42, 64
1, 3764, Note_off_c, 0, 74, 64
1, 3764, Note_on_c, 0, 75, 31
1, 3764, Note_off_c, 0, 76, 64
1, 3764, Note_on_c, 0, 85, 21
1, 3764, Note_on_c, 0, 92, 13
1, 3765, Note_on_c, 0, 38, 98
1, 3765, Note_off_c, 0, 41, 64
1, 3765, Note_off_c, 0, 82, 64
1, 3766, Note_on_c, 0, 37, 98
1, 3766, Note_off_c, 0, 38, 64
1, 3766, Note_on_c, 0, 77, 26
1, 3766, Note_off_c, 0, 88, 64
1, 3766, Note_off_c, 0, 93, 64
1, 3767, Note_on_c, 0, 36, 97
1, 3767, Note_off_c, 0, 37, 64
1, 3767, Note_off_c, 0, 81, 64
1, 3767, Note_off_c, 0, 89, 64
1, 3767, Note_on_c, 0, 94, 13
1, 3768, Note_on_c, 0, 34, 96
1, 3768, Note_off_c, 0, 36, 64
1, 3768, Note_on_c, 0, 70, 15
1, 3768, Note_off_c, 0, 90, 64
1, 3768, Note_off_c, 0, 92, 64
1, 3769, Note_on_c, 0, 33, 96
1, 3769, Note_off_c, 0, 34, 64
1, 3769, Note_off_c, 0, 77, 64
1, 3769, Note_off_c, 0, 95, 64
1, 3770, Note_on_c, 0, 32, 96
1, 3770, Note_off_c, 0, 33, 64
1, 3770, Note_off_c, 0, 75, 64
1, 3770, Note_off_c, 0, 84, 64
1, 3771, Note_on_c, 0, 69, 21
1, 3771, Note_off_c, 0, 79, 64
1, 3771, Note_off_c, 0, 85, 64
1, 3771, Note_on_c, 0, 98, 11
1, 3772, Note_on_c, 0, 31, 95
1, 3772, Note_off_c, 0, 32, 64
1, 3772, Note_off_c, 0, 70, 64
1, 3773, Note_on_c, 0, 95, 11
1, 3774, Note_on_c, 0, 96, 28
1, 3774, Note_off_c, 0, 98, 64
1, 3775, Note_on_c, 0, 30, 75
1, 3775, Note_off_c, 0, 31, 64
1, 3775, Note_on_c, 0, 91, 10
1, 3776, Note_on_c, 0, 98, 20
1, 3777, Note_off_c, 0, 30, 64
1, 3777, Note_off_c, 0, 69, 64
1, 3777, Note_off_c, 0, 95, 64
1, 3778, Note_on_c, 0, 61, 31
1, 3778, Note_on_c, 0, 80, 18
1, 3778, Note_on_c, 0, 81, 20
1, 3778, Note_on_c, 0, 84, 19
1, 3778, Note_on_c, 0, 86, 25
1, 3778, Note_on_c, 0, 87, 15
1, 3778, Note_on_c, 0, 88, 15
1, 3778, Note_on_c, 0, 101, 23
1, 3779, Note_on_c, 0, 35, 70
1, 3779, Note_on_c, 0, 66, 18
1, 3779, Note_on_c, 0, 82, 16
1, 3779, Note_on_c, 0, 83, 18
1, 3779, Note_on_c, 0, 89, 16
1, 3779, Note_off_c, 0, 94, 64
1, 3780, Note_on_c, 0, 30, 79
1, 3780, Note_off_c, 0, 35, 64
1, 3780, Note_on_c, 0, 68, 25
1, 3780, Note_on_c, 0, 77, 20
1, 3780, Note_on_c, 0, 95, 31
1, 3781, Note_on_c, 0, 29, 80
1, 3781, Note_off_c, 0, 30, 64
1, 3781, Note_off_c, 0, 84, 64
1, 3781, Note_off_c, 0, 87, 64
1, 3781, Note_on_c, 0, 90, 18
1, 3781, Note_off_c, 0, 91, 64
1, 3781, Note_on_c, 0, 94, 22
1, 3781, Note_off_c, 0, 98, 64
1, 3782, Note_off_c, 0, 29, 64
1, 3782, Note_on_c, 0, 30, 78
1, 3782, Note_on_c, 0, 76, 27
1, 3782, Note_off_c, 0, 82, 64
1, 3782, Note_on_c, 0, 87, 16
1, 3782, Note_off_c, 0, 88, 64
1, 3782, Note_on_c, 0, 99, 19
1, 3783, Note_on_c, 0, 64, 32
1, 3783, Note_off_c, 0, 66, 64
1, 3783, Note_off_c, 0, 68, 64
1, 3783, Note_off_c, 0, 77, 64
1, 3783, Note_on_c, 0, 78, 22
1, 3783, Note_off_c, 0, 80, 64
1, 3783, Note_off_c, 0, 86, 64
1, 3783, Note_off_c, 0, 89, 64
1, 3783, Note_on_c, 0, 92, 20
1, 3783, Note_on_c, 0, 102, 19
1, 3784, Note_on_c, 0, 29, 76
1, 3784, Note_off_c, 0, 30, 64
1, 3784, Note_off_c, 0, 61, 64
1, 3784, Note_on_c, 0, 97, 50
1, 3784, Note_off_c, 0, 101, 64
1, 3785, Note_on_c, 0, 69, 38
1, 3785, Note_off_c, 0, 76, 64
1, 3785, Note_off_c, 0, 83, 64
1, 3785, Note_off_c, 0, 87, 64
1, 3785, Note_on_c, 0, 98, 17
1, 3786, Note_off_c, 0, 90, 64
1, 3786, Note_on_c, 0, 101, 15
1, 3787, Note_off_c, 0, 64, 64
1, 3787, Note_on_c, 0, 83, 31
1, 3787, Note_on_c, 0, 86, 20
1, 3787, Note_off_c, 0, 102, 64
1, 3788, Note_off_c, 0, 29, 64
1, 3788, Note_on_c, 0, 30, 73
1, 3788, Note_on_c, 0, 61, 42
1, 3788, Note_on_c, 0, 71, 22
1, 3788, Note_off_c, 0, 78, 64
1, 3788, Note_on_c, 0, 80, 27
1, 3788, Note_off_c, 0, 81, 64
1, 3788, Note_on_c, 0, 93, 30
1, 3788, Note_off_c, 0, 94, 64
1, 3789, Note_off_c, 0, 30, 64
1, 3789, Note_on_c, 0, 31, 77
1, 3789, Note_on_c, 0, 49, 59
1, 3789, Note_on_c, 0, 68, 38
1, 3789, Note_off_c, 0, 69, 64
1, 3789, Note_on_c, 0, 81, 23
1, 3789, Note_on_c, 0, 84, 30
1, 3789, Note_on_c, 0, 89, 18
1, 3789, Note_on_c, 0, 94, 26
1, 3790, Note_on_c, 0, 30, 79
1, 3790, Note_off_c, 0, 31, 64
1, 3790, Note_on_c, 0, 75, 41
1, 3790, Note_on_c, 0, 82, 19
1, 3790, Note_off_c, 0, 83, 64
1, 3790, Note_off_c, 0, 86, 64
1, 3790, Note_on_c, 0, 102, 12
1, 3791, Note_on_c, 0, 29, 80
1, 3791, Note_off_c, 0, 30, 64
1, 3791, Note_on_c, 0, 86, 29
1, 3791, Note_off_c, 0, 101, 64
1, 3792, Note_off_c, 0, 29, 64
1, 3792, Note_on_c, 0, 30, 77
1, 3792, Note_off_c, 0, 89, 64
1, 3792, Note_off_c, 0, 95, 64
1, 3792, Note_off_c, 0, 99, 64
1, 3793, Note_off_c, 0, 68, 64
1, 3793, Note_on_c, 0, 69, 31
1, 3793, Note_off_c, 0, 71, 64
1, 3793, Note_off_c, 0, 80, 64
1, 3793, Note_off_c, 0, 81, 64
1, 3793, Note_on_c, 0, 83, 39
1, 3793, Note_on_c, 0, 90, 25
1, 3794, Note_off_c, 0, 49, 64
1, 3794, Note_on_c, 0, 67, 33
1, 3794, Note_off_c, 0, 82, 64
1, 3794, Note_off_c, 0, 84, 64
1, 3794, Note_off_c, 0, 86, 64
1, 3794, Note_on_c, 0, 101, 9
1, 3795, Note_off_c, 0, 30, 64
1, 3795, Note_on_c, 0, 34, 69
1, 3795, Note_off_c, 0, 61, 64
1, 3795, Note_on_c, 0, 64, 21
1, 3795, Note_off_c, 0, 92, 64
1, 3795, Note_off_c, 0, 102, 64
1, 3796, Note_off_c, 0, 34, 64
1, 3796, Note_off_c, 0, 69, 64
1, 3796, Note_on_c, 0, 79, 54
1, 3796, Note_on_c, 0, 82, 37
1, 3796, Note_on_c, 0, 84, 51
1, 3796, Note_on_c, 0, 89, 42
1, 3797, Note_on_c, 0, 86, 36
1, 3797, Note_on_c, 0, 92, 28
1, 3797, Note_off_c, 0, 96, 64
1, 3797, Note_off_c, 0, 98, 64
1, 3798, Note_off_c, 0, 64, 64
1, 3798, Note_off_c, 0, 67, 64
1, 3798, Note_on_c, 0, 78, 55
1, 3798, Note_on_c, 0, 81, 34
1, 3798, Note_off_c, 0, 97, 64
1, 3798, Note_off_c, 0, 101, 64
1, 3799, Note_off_c, 0, 75, 64
1, 3799, Note_on_c, 0, 76, 41
1, 3799, Note_off_c, 0, 79, 64
1, 3799, Note_off_c, 0, 82, 64
1, 3799, Note_off_c, 0, 86, 64
1, 3799, Note_off_c, 0, 90, 64
1, 3799, Note_on_c, 0, 97, 12
1, 3800, Note_on_c, 0, 70, 38
1, 3800, Note_on_c, 0, 72, 31
1, 3800, Note_on_c, 0, 80, 34
1, 3800, Note_on_c, 0, 82, 47
1, 3800, Note_off_c, 0, 83, 64
1, 3800, Note_off_c, 0, 92, 64
1, 3801, Note_on_c, 0, 73, 34
1, 3801, Note_off_c, 0, 76, 64
1, 3801, Note_on_c, 0, 77, 34
1, 3801, Note_off_c, 0, 78, 64
1, 3802, Note_off_c, 0, 72, 64
1, 3802, Note_on_c, 0, 75, 28
1, 3802, Note_on_c, 0, 79, 41
1, 3802, Note_on_c, 0, 83, 34
1, 3802, Note_off_c, 0, 84, 64
1, 3802, Note_on_c, 0, 86, 24
1, 3802, Note_off_c, 0, 97, 64
1, 3803, Note_on_c, 0, 65, 16
1, 3803, Note_on_c, 0, 71, 31
1, 3803, Note_off_c, 0, 80, 64
1, 3803, Note_off_c, 0, 81, 64
1, 3803, Note_on_c, 0, 90, 17
1, 3803, Note_off_c, 0, 94, 64
1, 3804, Note_on_c, 0, 69, 18
1, 3804, Note_off_c, 0, 70, 64
1, 3804, Note_off_c, 0, 93, 64
1, 3805, Note_off_c, 0, 71, 64
1, 3805, Note_off_c, 0, 75, 64
1, 3805, Note_off_c, 0, 82, 64
1, 3805, Note_on_c, 0, 84, 18
1, 3805, Note_off_c, 0, 86, 64
1, 3806, Note_off_c, 0, 77, 64
1, 3806, Note_off_c, 0, 83, 64
1, 3807, Note_off_c, 0, 65, 64
1, 3807, Note_on_c, 0, 83, 19
1, 3807, Note_off_c, 0, 90, 64
1, 3808, Note_off_c, 0, 73, 64
1, 3808, Note_on_c, 0, 81, 18
1, 3808, Note_on_c, 0, 86, 21
1, 3809, Note_off_c, 0, 79, 64
1, 3809, Note_on_c, 0, 82, 14
1, 3809, Note_off_c, 0, 84, 64
1, 3809, Note_off_c, 0, 89, 64
1, 3811, Note_off_c, 0, 69, 64
1, 3811, Note_off_c, 0, 83, 64
1, 3811, Note_off_c, 0, 86, 64
1, 3812, Note_on_c, 0, 69, 23
1, 3812, Note_off_c, 0, 82, 64
1, 3813, Note_off_c, 0, 81, 64
1, 3815, Note_on_c, 0, 68, 21
1, 3815, Note_off_c, 0, 69, 64
1, 3815, Note_on_c, 0, 74, 39
1, 3815, Note_on_c, 0, 83, 44
1, 3815, Note_on_c, 0, 85, 52
1, 3815, Note_on_c, 0, 90, 39
1, 3815, Note_on_c, 0, 91, 34
1, 3815, Note_on_c, 0, 93, 28
1, 3815, Note_on_c, 0, 96, 27
1, 3815, Note_on_c, 0, 98, 11
1, 3815, Note_on_c, 0, 99, 17
1, 3815, Note_on_c, 0, 100, 14
1, 3815, Note_on_c, 0, 101, 18
1, 3816, Note_on_c, 0, 76, 52
1, 3816, Note_on_c, 0, 79, 51
1, 3816, Note_on_c, 0, 82, 40
1, 3816, Note_on_c, 0, 87, 42
1, 3816, Note_on_c, 0, 92, 41
1, 3817, Note_on_c, 0, 72, 47
1, 3817, Note_off_c, 0, 83, 64
1, 3817, Note_on_c, 0, 89, 29
1, 3818, Note_off_c, 0, 68, 64
1, 3818, Note_on_c, 0, 81, 48
1, 3818, Note_on_c, 0, 83, 39
1, 3818, Note_off_c, 0, 98, 64
1, 3818, Note_off_c, 0, 100, 64
1, 3819, Note_on_c, 0, 63, 26
1, 3819, Note_on_c, 0, 78, 50
1, 3820, Note_on_c, 0, 69, 35
1, 3820, Note_off_c, 0, 74, 64
1, 3820, Note_off_c, 0, 79, 64
1, 3820, Note_off_c, 0, 82, 64
1, 3820, Note_off_c, 0, 99, 64
1, 3820, Note_off_c, 0, 101, 64
1, 3821, Note_off_c, 0, 83, 64
1, 3821, Note_off_c, 0, 85, 64
1, 3821, Note_on_c, 0, 86, 24
1, 3821, Note_off_c, 0, 93, 64
1, 3822, Note_on_c, 0, 57, 23
1, 3822, Note_off_c, 0, 69, 64
1, 3822, Note_on_c, 0, 71, 26
1, 3822, Note_off_c, 0, 72, 64
1, 3822, Note_off_c, 0, 78, 64
1, 3822, Note_on_c, 0, 80, 24
1, 3822, Note_off_c, 0, 81, 64
1, 3823, Note_on_c, 0, 74, 35
1, 3823, Note_on_c, 0, 84, 27
1, 3823, Note_off_c, 0, 87, 64
1, 3823, Note_off_c, 0, 89, 64
1, 3823, Note_off_c, 0, 96, 64
1, 3824, Note_on_c, 0, 68, 38
1, 3824, Note_off_c, 0, 76, 64
1, 3824, Note_on_c, 0, 85, 20
1, 3824, Note_off_c, 0, 92, 64
1, 3825, Note_off_c, 0, 57, 64
1, 3825, Note_off_c, 0, 71, 64
1, 3825, Note_on_c, 0, 73, 23
1, 3826, Note_off_c, 0, 74, 64
1, 3826, Note_on_c, 0, 87, 26
1, 3826, Note_off_c, 0, 90, 64
1, 3827, Note_on_c, 0, 78, 22
1, 3827, Note_off_c, 0, 85, 64
1, 3827, Note_off_c, 0, 86, 64
1, 3827, Note_on_c, 0, 88, 10
1, 3828, Note_off_c, 0, 68, 64
1, 3828, Note_on_c, 0, 69, 43
1, 3828, Note_off_c, 0, 91, 64
1, 3829, Note_off_c, 0, 80, 64
1, 3829, Note_on_c, 0, 82, 37
1, 3830, Note_off_c, 0, 63, 64
1, 3830, Note_on_c, 0, 68, 35
1, 3830, Note_off_c, 0, 78, 64
1, 3830, Note_off_c, 0, 84, 64
1, 3831, Note_off_c, 0, 69, 64
1, 3831, Note_off_c, 0, 88, 64
1, 3832, Note_on_c, 0, 63, 29
1, 3832, Note_off_c, 0, 73, 64
1, 3833, Note_off_c, 0, 68, 64
1, 3833, Note_off_c, 0, 87, 64
1, 3834, Note_on_c, 0, 68, 30
1, 3834, Note_on_c, 0, 81, 34
1, 3834, Note_on_c, 0, 90, 29
1, 3834, Note_on_c, 0, 92, 22
1, 3834, Note_on_c, 0, 98, 24
1, 3834, Note_on_c, 0, 101, 16
1, 3835, Note_off_c, 0, 63, 64
1, 3835, Note_on_c, 0, 75, 35
1, 3835, Note_on_c, 0, 83, 18
1, 3835, Note_on_c, 0, 86, 27
1, 3835, Note_on_c, 0, 88, 18
1, 3835, Note_on_c, 0, 96, 25
1, 3835, Note_on_c, 0, 103, 14
1, 3836, Note_on_c, 0, 74, 21
1, 3836, Note_on_c, 0, 78, 30
1, 3836, Note_on_c, 0, 85, 16
1, 3837, Note_on_c, 0, 73, 24
1, 3837, Note_on_c, 0, 79, 26
1, 3837, Note_off_c, 0, 101, 64
1, 3838, Note_off_c, 0, 68, 64
1, 3838, Note_off_c, 0, 75, 64
1, 3838, Note_off_c, 0, 78, 64
1, 3838, Note_off_c, 0, 86, 64
1, 3838, Note_on_c, 0, 87, 11
1, 3838, Note_off_c, 0, 92, 64
1, 3838, Note_off_c, 0, 96, 64
1, 3838, Note_on_c, 0, 97, 20
1, 3839, Note_off_c, 0, 74, 64
1, 3839, Note_on_c, 0, 76, 32
1, 3839, Note_off_c, 0, 83, 64
1, 3839, Note_off_c, 0, 85, 64
1, 3839, Note_off_c, 0, 88, 64
1, 3839, Note_off_c, 0, 90, 64
1, 3839, Note_off_c, 0, 103, 64
1, 3840, Note_off_c, 0, 81, 64
1, 3840, Note_off_c, 0, 98, 64
1, 3841, Note_on_c, 0, 74, 26
1, 3841, Note_off_c, 0, 87, 64
1, 3842, Note_off_c, 0, 73, 64
1, 3843, Note_on_c, 0, 71, 10
1, 3843, Note_on_c, 0, 77, 26
1, 3843, Note_on_c, 0, 83, 31
1, 3843, Note_on_c, 0, 85, 38
1, 3844, Note_on_c, 0, 66, 23
1, 3844, Note_off_c, 0, 79, 64
1, 3844, Note_on_c, 0, 87, 29
1, 3845, Note_on_c, 0, 79, 39
1, 3845, Note_off_c, 0, 97, 64
1, 3846, Note_off_c, 0, 71, 64
1, 3846, Note_off_c, 0, 76, 64
1, 3846, Note_off_c, 0, 77, 64
1, 3846, Note_off_c, 0, 85, 64
1, 3846, Note_on_c, 0, 90, 12
1, 3847, Note_on_c, 0, 63, 14
1, 3847, Note_on_c, 0, 69, 23
1, 3847, Note_off_c, 0, 79, 64
1, 3847, Note_on_c, 0, 80, 36
1, 3847, Note_on_c, 0, 81, 37
1, 3848, Note_off_c, 0, 66, 64
1, 3848, Note_off_c, 0, 74, 64
1, 3848, Note_off_c, 0, 82, 64
1, 3849, Note_on_c, 0, 74, 21
1, 3849, Note_on_c, 0, 75, 18
1, 3849, Note_off_c, 0, 80, 64
1, 3850, Note_off_c, 0, 63, 64
1, 3850, Note_off_c, 0, 87, 64
1, 3851, Note_off_c, 0, 69, 64
1, 3851, Note_off_c, 0, 90, 64
1, 3852, Note_off_c, 0, 74, 64
1, 3852, Note_off_c, 0, 75, 64
1, 3852, Note_on_c, 0, 77, 16
1, 3852, Note_on_c, 0, 87, 26
1, 3852, Note_on_c, 0, 90, 23
1, 3852, Note_on_c, 0, 94, 19
1, 3853, Note_on_c, 0, 78, 23
1, 3853, Note_on_c, 0, 80, 20
1, 3853, Note_off_c, 0, 81, 64
1, 3853, Note_on_c, 0, 84, 31
1, 3853, Note_on_c, 0, 88, 24
1, 3854, Note_on_c, 0, 61, 25
1, 3854, Note_on_c, 0, 82, 27
1, 3854, Note_off_c, 0, 83, 64
1, 3854, Note_on_c, 0, 85, 24
1, 3855, Note_on_c, 0, 57, 12
1, 3855, Note_off_c, 0, 77, 64
1, 3855, Note_on_c, 0, 89, 17
1, 3856, Note_on_c, 0, 74, 18
1, 3856, Note_off_c, 0, 90, 64
1, 3856, Note_off_c, 0, 94, 64
1, 3857, Note_off_c, 0, 61, 64
1, 3857, Note_off_c, 0, 82, 64
1, 3857, Note_off_c, 0, 84, 64
1, 3857, Note_off_c, 0, 85, 64
1, 3857, Note_off_c, 0, 88, 64
1, 3858, Note_off_c, 0, 57, 64
1, 3858, Note_on_c, 0, 68, 42
1, 3858, Note_on_c, 0, 82, 34
1, 3858, Note_off_c, 0, 87, 64
1, 3858, Note_off_c, 0, 89, 64
1, 3859, Note_off_c, 0, 74, 64
1, 3859, Note_on_c, 0, 76, 19
1, 3859, Note_off_c, 0, 78, 64
1, 3860, Note_off_c, 0, 82, 64
1, 3861, Note_on_c, 0, 64, 29
1, 3861, Note_off_c, 0, 80, 64
1, 3862, Note_on_c, 0, 56, 22
1, 3862, Note_on_c, 0, 74, 17
1, 3862, Note_on_c, 0, 79, 14
1, 3864, Note_off_c, 0, 68, 64
1, 3864, Note_on_c, 0, 69, 32
1, 3864, Note_on_c, 0, 82, 13
1, 3865, Note_on_c, 0, 63, 36
1, 3865, Note_off_c, 0, 64, 64
1, 3865, Note_off_c, 0, 79, 64
1, 3866, Note_off_c, 0, 69, 64
1, 3866, Note_on_c, 0, 80, 39
1, 3867, Note_off_c, 0, 56, 64
1, 3867, Note_on_c, 0, 68, 34
1, 3868, Note_off_c, 0, 74, 64
1, 3868, Note_off_c, 0, 82, 64
1, 3869, Note_off_c, 0, 76, 64
1, 3869, Note_on_c, 0, 77, 31
1, 3870, Note_off_c, 0, 68, 64
1, 3870, Note_on_c, 0, 85, 54
1, 3870, Note_on_c, 0, 89, 41
1, 3870, Note_on_c, 0, 90, 37
1, 3870, Note_on_c, 0, 91, 40
1, 3870, Note_on_c, 0, 99, 33
1, 3871, Note_off_c, 0, 63, 64
1, 3871, Note_on_c, 0, 72, 42
1, 3871, Note_on_c, 0, 74, 50
1, 3871, Note_on_c, 0, 81, 51
1, 3871, Note_on_c, 0, 87, 39
1, 3871, Note_on_c, 0, 94, 37
1, 3871, Note_on_c, 0, 95, 33
1, 3871, Note_on_c, 0, 98, 31
1, 3872, Note_off_c, 0, 77, 64
1, 3872, Note_on_c, 0, 78, 54
1, 3872, Note_off_c, 0, 80, 64
1, 3872, Note_on_c, 0, 83, 55
1, 3872, Note_on_c, 0, 92, 38
1, 3873, Note_on_c, 0, 51, 78
1, 3873, Note_on_c, 0, 82, 50
1, 3873, Note_on_c, 0, 88, 29
1, 3873, Note_off_c, 0, 90, 64
1, 3873, Note_off_c, 0, 99, 64
1, 3874, Note_on_c, 0, 46, 88
1, 3874, Note_off_c, 0, 51, 64
1, 3874, Note_off_c, 0, 78, 64
1, 3874, Note_on_c, 0, 79, 54
1, 3874, Note_off_c, 0, 85, 64
1, 3875, Note_on_c, 0, 44, 94
1, 3875, Note_off_c, 0, 46, 64
1, 3875, Note_on_c, 0, 64, 26
1, 3875, Note_off_c, 0, 72, 64
1, 3875, Note_on_c, 0, 73, 37
1, 3875, Note_off_c, 0, 74, 64
1, 3875, Note_on_c, 0, 76, 42
1, 3875, Note_on_c, 0, 78, 31
1, 3875, Note_off_c, 0, 81, 64
1, 3875, Note_off_c, 0, 89, 64
1, 3875, Note_off_c, 0, 95, 64
1, 3875, Note_off_c, 0, 98, 64
1, 3876, Note_on_c, 0, 41, 100
1, 3876, Note_off_c, 0, 44, 64
1, 3876, Note_on_c, 0, 72, 34
1, 3876, Note_off_c, 0, 79, 64
1, 3876, Note_on_c, 0, 80, 42
1, 3876, Note_off_c, 0, 82, 64
1, 3876, Note_on_c, 0, 89, 21
1, 3877, Note_on_c, 0, 39, 97
1, 3877, Note_off_c, 0, 41, 64
1, 3877, Note_on_c, 0, 79, 40
1, 3877, Note_off_c, 0, 91, 64
1, 3878, Note_on_c, 0, 37, 98
1, 3878, Note_off_c, 0, 39, 64
1, 3878, Note_off_c, 0, 73, 64
1, 3878, Note_on_c, 0, 74, 38
1, 3878, Note_off_c, 0, 78, 64
1, 3878, Note_on_c, 0, 90, 15
1, 3879, Note_on_c, 0, 36, 98
1, 3879, Note_off_c, 0, 37, 64
1, 3879, Note_off_c, 0, 64, 64
1, 3879, Note_off_c, 0, 72, 64
1, 3879, Note_on_c, 0, 73, 33
1, 3879, Note_off_c, 0, 76, 64
1, 3879, Note_on_c, 0, 77, 41
1, 3879, Note_on_c, 0, 82, 29
1, 3879, Note_off_c, 0, 83, 64
1, 3879, Note_off_c, 0, 89, 64
1, 3879, Note_off_c, 0, 92, 64
1, 3879, Note_on_c, 0, 95, 9
1, 3880, Note_on_c, 0, 35, 96
1, 3880, Note_off_c, 0, 36, 64
1, 3880, Note_on_c, 0, 67, 18
1, 3880, Note_off_c, 0, 74, 64
1, 3880, Note_off_c, 0, 80, 64
1, 3880, Note_on_c, 0, 86, 14
1, 3880, Note_off_c, 0, 88, 64
1, 3881, Note_on_c, 0, 34, 96
1, 3881, Note_off_c, 0, 35, 64
1, 3881, Note_off_c, 0, 87, 64
1, 3882, Note_on_c, 0, 33, 95
1, 3882, Note_off_c, 0, 34, 64
1, 3882, Note_off_c, 0, 73, 64
1, 3882, Note_on_c, 0, 81, 24
1, 3882, Note_off_c, 0, 82, 64
1, 3882, Note_on_c, 0, 83, 20
1, 3882, Note_off_c, 0, 90, 64
1, 3882, Note_off_c, 0, 94, 64
1, 3883, Note_on_c, 0, 32, 96
1, 3883, Note_off_c, 0, 33, 64
1, 3883, Note_off_c, 0, 67, 64
1, 3883, Note_on_c, 0, 68, 23
1, 3883, Note_off_c, 0, 77, 64
1, 3883, Note_off_c, 0, 86, 64
1, 3883, Note_off_c, 0, 95, 64
1, 3884, Note_on_c, 0, 63, 18
1, 3884, Note_off_c, 0, 79, 64
1, 3884, Note_on_c, 0, 88, 18
1, 3885, Note_on_c, 0, 31, 94
1, 3885, Note_off_c, 0, 32, 64
1, 3885, Note_on_c, 0, 73, 13
1, 3885, Note_off_c, 0, 81, 64
1, 3885, Note_on_c, 0, 82, 47
1, 3885, Note_off_c, 0, 83, 64
1, 3887, Note_on_c, 0, 30, 82
1, 3887, Note_off_c, 0, 31, 64
1, 3887, Note_on_c, 0, 79, 20
1, 3888, Note_off_c, 0, 68, 64
1, 3888, Note_on_c, 0, 70, 27
1, 3888, Note_off_c, 0, 88, 64
1, 3889, Note_off_c, 0, 73, 64
1, 3889, Note_on_c, 0, 81, 46
1, 3889, Note_on_c, 0, 83, 35
1, 3889, Note_on_c, 0, 86, 35
1, 3889, Note_on_c, 0, 89, 40
1, 3890, Note_off_c, 0, 30, 64
1, 3890, Note_off_c, 0, 63, 64
1, 3890, Note_on_c, 0, 66, 23
1, 3890, Note_on_c, 0, 91, 36
1, 3890, Note_on_c, 0, 92, 32
1, 3890, Note_on_c, 0, 99, 23
1, 3891, Note_on_c, 0, 37, 71
1, 3891, Note_off_c, 0, 70, 64
1, 3891, Note_on_c, 0, 72, 36
1, 3891, Note_on_c, 0, 75, 42
1, 3891, Note_on_c, 0, 84, 48
1, 3891, Note_on_c, 0, 90, 34
1, 3892, Note_on_c, 0, 31, 75
1, 3892, Note_off_c, 0, 37, 64
1, 3892, Note_on_c, 0, 69, 34
1, 3892, Note_on_c, 0, 80, 33
1, 3892, Note_on_c, 0, 85, 52
1, 3892, Note_off_c, 0, 86, 64
1, 3892, Note_on_c, 0, 87, 45
1, 3893, Note_on_c, 0, 30, 80
1, 3893, Note_off_c, 0, 31, 64
1, 3893, Note_on_c, 0, 65, 31
1, 3893, Note_off_c, 0, 66, 64
1, 3893, Note_on_c, 0, 73, 37
1, 3893, Note_on_c, 0, 77, 51
1, 3893, Note_off_c, 0, 79, 64
1, 3894, Note_on_c, 0, 29, 80
1, 3894, Note_off_c, 0, 30, 64
1, 3894, Note_off_c, 0, 72, 64
1, 3894, Note_off_c, 0, 84, 64
1, 3894, Note_off_c, 0, 99, 64
1, 3895, Note_on_c, 0, 61, 24
1, 3895, Note_off_c, 0, 65, 64
1, 3895, Note_on_c, 0, 71, 25
1, 3895, Note_off_c, 0, 75, 64
1, 3895, Note_on_c, 0, 78, 48
1, 3895, Note_off_c, 0, 80, 64
1, 3895, Note_off_c, 0, 83, 64
1, 3895, Note_on_c, 0, 88, 30
1, 3896, Note_off_c, 0, 29, 64
1, 3896, Note_on_c, 0, 30, 75
1, 3896, Note_on_c, 0, 64, 27
1, 3896, Note_on_c, 0, 68, 25
1, 3896, Note_off_c, 0, 69, 64
1, 3896, Note_on_c, 0, 76, 50
1, 3896, Note_off_c, 0, 77, 64
1, 3896, Note_off_c, 0, 82, 64
1, 3896, Note_on_c, 0, 83, 39
1, 3896, Note_off_c, 0, 85, 64
1, 3896, Note_off_c, 0, 90, 64
1, 3897, Note_on_c, 0, 48, 51
1, 3897, Note_off_c, 0, 73, 64
1, 3897, Note_on_c, 0, 74, 44
1, 3897, Note_on_c, 0, 85, 30
1, 3897, Note_off_c, 0, 87, 64
1, 3897, Note_off_c, 0, 91, 64
1, 3897, Note_off_c, 0, 92, 64
1, 3897, Note_on_c, 0, 96, 15
1, 3898, Note_on_c, 0, 29, 73
1, 3898, Note_off_c, 0, 30, 64
1, 3898, Note_on_c, 0, 84, 37
1, 3898, Note_on_c, 0, 91, 35
1, 3898, Note_on_c, 0, 92, 28
1, 3898, Note_on_c, 0, 94, 20
1, 3899, Note_off_c, 0, 48, 64
1, 3899, Note_off_c, 0, 61, 64
1, 3899, Note_off_c, 0, 71, 64
1, 3899, Note_off_c, 0, 76, 64
1, 3899, Note_on_c, 0, 80, 33
1, 3899, Note_on_c, 0, 87, 32
1, 3900, Note_off_c, 0, 29, 64
1, 3900, Note_on_c, 0, 30, 80
1, 3900, Note_off_c, 0, 64, 64
1, 3900, Note_off_c, 0, 68, 64
1, 3900, Note_on_c, 0, 70, 33
1, 3900, Note_off_c, 0, 74, 64
1, 3900, Note_on_c, 0, 75, 39
1, 3900, Note_off_c, 0, 81, 64
1, 3900, Note_on_c, 0, 82, 36
1, 3900, Note_off_c, 0, 85, 64
1, 3900, Note_off_c, 0, 88, 64
1, 3901, Note_on_c, 0, 61, 32
1, 3901, Note_on_c, 0, 64, 34
1, 3901, Note_on_c, 0, 74, 25
1, 3901, Note_on_c, 0, 77, 34
1, 3901, Note_off_c, 0, 78, 64
1, 3901, Note_on_c, 0, 79, 42
1, 3902, Note_off_c, 0, 75, 64
1, 3902, Note_off_c, 0, 80, 64
1, 3902, Note_off_c, 0, 96, 64
1, 3902, Note_on_c, 0, 97, 9
1, 3903, Note_off_c, 0, 79, 64
1, 3903, Note_on_c, 0, 80, 42
1, 3903, Note_off_c, 0, 84, 64
1, 3903, Note_off_c, 0, 94, 64
1, 3904, Note_on_c, 0, 29, 79
1, 3904, Note_off_c, 0, 30, 64
1, 3904, Note_on_c, 0, 49, 55
1, 3904, Note_off_c, 0, 61, 64
1, 3904, Note_on_c, 0, 63, 25
1, 3904, Note_off_c, 0, 64, 64
1, 3904, Note_off_c, 0, 74, 64
1, 3904, Note_on_c, 0, 81, 42
1, 3904, Note_off_c, 0, 82, 64
1, 3904, Note_on_c, 0, 84, 28
1, 3904, Note_off_c, 0, 87, 64
1, 3904, Note_on_c, 0, 94, 25
1, 3905, Note_on_c, 0, 68, 30
1, 3905, Note_on_c, 0, 87, 43
1, 3906, Note_off_c, 0, 29, 64
1, 3906, Note_on_c, 0, 30, 75
1, 3906, Note_off_c, 0, 49, 64
1, 3906, Note_on_c, 0, 76, 19
1, 3906, Note_off_c, 0, 77, 64
1, 3906, Note_on_c, 0, 78, 42
1, 3907, Note_off_c, 0, 30, 64
1, 3907, Note_on_c, 0, 33, 73
1, 3907, Note_on_c, 0, 54, 35
1, 3907, Note_off_c, 0, 70, 64
1, 3907, Note_off_c, 0, 81, 64
1, 3907, Note_off_c, 0, 83, 64
1, 3907, Note_off_c, 0, 84, 64
1, 3907, Note_off_c, 0, 91, 64
1, 3907, Note_off_c, 0, 97, 64
1, 3908, Note_off_c, 0, 33, 64
1, 3908, Note_on_c, 0, 35, 66
1, 3908, Note_on_c, 0, 69, 42
1, 3908, Note_on_c, 0, 73, 42
1, 3908, Note_on_c, 0, 75, 39
1, 3908, Note_on_c, 0, 83, 34
1, 3908, Note_on_c, 0, 86, 43
1, 3908, Note_on_c, 0, 91, 31
1, 3908, Note_on_c, 0, 96, 18
1, 3908, Note_on_c, 0, 97, 21
1, 3908, Note_on_c, 0, 100, 21
1, 3909, Note_off_c, 0, 35, 64
1, 3909, Note_off_c, 0, 54, 64
1, 3909, Note_off_c, 0, 63, 64
1, 3909, Note_off_c, 0, 68, 64
1, 3909, Note_off_c, 0, 76, 64
1, 3910, Note_on_c, 0, 53, 70
1, 3910, Note_off_c, 0, 69, 64
1, 3910, Note_on_c, 0, 70, 34
1, 3910, Note_off_c, 0, 73, 64
1, 3910, Note_on_c, 0, 76, 32
1, 3910, Note_on_c, 0, 79, 31
1, 3910, Note_on_c, 0, 84, 26
1, 3910, Note_on_c, 0, 85, 24
1, 3911, Note_on_c, 0, 48, 84
1, 3911, Note_off_c, 0, 53, 64
1, 3911, Note_off_c, 0, 75, 64
1, 3911, Note_off_c, 0, 78, 64
1, 3911, Note_off_c, 0, 92, 64
1, 3911, Note_off_c, 0, 96, 64
1, 3911, Note_off_c, 0, 97, 64
1, 3911, Note_off_c, 0, 100, 64
1, 3912, Note_on_c, 0, 45, 94
1, 3912, Note_off_c, 0, 48, 64
1, 3912, Note_off_c, 0, 70, 64
1, 3912, Note_on_c, 0, 78, 21
1, 3912, Note_off_c, 0, 83, 64
1, 3913, Note_on_c, 0, 42, 99
1, 3913, Note_off_c, 0, 45, 64
1, 3913, Note_on_c, 0, 75, 19
1, 3913, Note_off_c, 0, 76, 64
1, 3913, Note_off_c, 0, 79, 64
1, 3913, Note_off_c, 0, 89, 64
1, 3913, Note_off_c, 0, 94, 64
1, 3914, Note_on_c, 0, 40, 99
1, 3914, Note_off_c, 0, 42, 64
1, 3914, Note_off_c, 0, 86, 64
1, 3914, Note_off_c, 0, 87, 64
1, 3915, Note_on_c, 0, 38, 98
1, 3915, Note_off_c, 0, 40, 64
1, 3915, Note_off_c, 0, 84, 64
1, 3915, Note_off_c, 0, 85, 64
1, 3916, Note_on_c, 0, 37, 98
1, 3916, Note_off_c, 0, 38, 64
1, 3916, Note_off_c, 0, 75, 64
1, 3916, Note_on_c, 0, 76, 21
1, 3916, Note_off_c, 0, 91, 64
1, 3917, Note_on_c, 0, 35, 97
1, 3917, Note_off_c, 0, 37, 64
1, 3917, Note_on_c, 0, 68, 21
1, 3917, Note_off_c, 0, 78, 64
1, 3918, Note_on_c, 0, 34, 96
1, 3918, Note_off_c, 0, 35, 64
1, 3918, Note_on_c, 0, 81, 15
1, 3918, Note_on_c, 0, 86, 9
1, 3919, Note_on_c, 0, 33, 96
1, 3919, Note_off_c, 0, 34, 64
1, 3919, Note_on_c, 0, 84, 24
1, 3919, Note_on_c, 0, 90, 17
1, 3920, Note_on_c, 0, 32, 96
1, 3920, Note_off_c, 0, 33, 64
1, 3920, Note_off_c, 0, 76, 64
1, 3920, Note_on_c, 0, 77, 21
1, 3920, Note_on_c, 0, 82, 23
1, 3920, Note_on_c, 0, 85, 37
1, 3920, Note_on_c, 0, 87, 12
1, 3921, Note_off_c, 0, 68, 64
1, 3921, Note_on_c, 0, 74, 25
1, 3921, Note_off_c, 0, 81, 64
1, 3921, Note_off_c, 0, 86, 64
1, 3922, Note_on_c, 0, 31, 95
1, 3922, Note_off_c, 0, 32, 64
1, 3922, Note_on_c, 0, 78, 27
1, 3922, Note_on_c, 0, 83, 12
1, 3923, Note_off_c, 0, 77, 64
1, 3923, Note_off_c, 0, 90, 64
1, 3924, Note_off_c, 0, 74, 64
1, 3924, Note_on_c, 0, 76, 16
1, 3924, Note_off_c, 0, 82, 64
1, 3924, Note_off_c, 0, 84, 64
1, 3924, Note_off_c, 0, 87, 64
1, 3925, Note_on_c, 0, 30, 76
1, 3925, Note_off_c, 0, 31, 64
1, 3925, Note_off_c, 0, 83, 64
1, 3926, Note_on_c, 0, 63, 35
1, 3926, Note_off_c, 0, 78, 64
1, 3926, Note_on_c, 0, 79, 42
1, 3926, Note_off_c, 0, 80, 64
1, 3926, Note_on_c, 0, 87, 26
1, 3926, Note_on_c, 0, 93, 14
1, 3927, Note_off_c, 0, 30, 64
1, 3927, Note_on_c, 0, 43, 64
1, 3927, Note_on_c, 0, 80, 27
1, 3927, Note_on_c, 0, 82, 32
1, 3927, Note_on_c, 0, 83, 40
1, 3927, Note_on_c, 0, 96, 14
1, 3928, Note_on_c, 0, 71, 24
1, 3928, Note_on_c, 0, 88, 25
1, 3928, Note_on_c, 0, 89, 25
1, 3928, Note_on_c, 0, 90, 27
1, 3929, Note_on_c, 0, 32, 70
1, 3929, Note_off_c, 0, 43, 64
1, 3929, Note_off_c, 0, 76, 64
1, 3929, Note_off_c, 0, 87, 64
1, 3929, Note_off_c, 0, 93, 64
1, 3930, Note_on_c, 0, 30, 79
1, 3930, Note_off_c, 0, 32, 64
1, 3930, Note_on_c, 0, 68, 17
1, 3930, Note_on_c, 0, 76, 26
1, 3930, Note_on_c, 0, 81, 30
1, 3930, Note_on_c, 0, 86, 29
1, 3931, Note_on_c, 0, 29, 80
1, 3931, Note_off_c, 0, 30, 64
1, 3931, Note_off_c, 0, 63, 64
1, 3931, Note_on_c, 0, 70, 16
1, 3931, Note_off_c, 0, 71, 64
1, 3931, Note_off_c, 0, 82, 64
1, 3931, Note_on_c, 0, 84, 24
1, 3931, Note_off_c, 0, 90, 64
1, 3932, Note_off_c, 0, 80, 64
1, 3932, Note_off_c, 0, 85, 64
1, 3932, Note_off_c, 0, 89, 64
1, 3932, Note_off_c, 0, 96, 64
1, 3933, Note_off_c, 0, 29, 64
1, 3933, Note_on_c, 0, 30, 76
1, 3933, Note_off_c, 0, 68, 64
1, 3933, Note_off_c, 0, 88, 64
1, 3934, Note_off_c, 0, 76, 64
1, 3934, Note_on_c, 0, 82, 33
1, 3934, Note_off_c, 0, 83, 64
1, 3934, Note_off_c, 0, 84, 64
1, 3935, Note_on_c, 0, 29, 74
1, 3935, Note_off_c, 0, 30, 64
1, 3935, Note_on_c, 0, 63, 34
1, 3935, Note_off_c, 0, 70, 64
1, 3935, Note_on_c, 0, 78, 31
1, 3935, Note_off_c, 0, 79, 64
1, 3935, Note_on_c, 0, 83, 15
1, 3935, Note_on_c, 0, 84, 18
1, 3935, Note_on_c, 0, 88, 28
1, 3936, Note_on_c, 0, 76, 32
1, 3937, Note_on_c, 0, 70, 25
1, 3938, Note_off_c, 0, 29, 64
1, 3938, Note_on_c, 0, 30, 80
1, 3938, Note_on_c, 0, 80, 37
1, 3938, Note_off_c, 0, 81, 64
1, 3939, Note_on_c, 0, 49, 60
1, 3939, Note_off_c, 0, 76, 64
1, 3940, Note_off_c, 0, 63, 64
1, 3940, Note_on_c, 0, 64, 21
1, 3940, Note_off_c, 0, 70, 64
1, 3940, Note_off_c, 0, 83, 64
1, 3941, Note_on_c, 0, 29, 80
1, 3941, Note_off_c, 0, 30, 64
1, 3941, Note_on_c, 0, 76, 28
1, 3942, Note_off_c, 0, 29, 64
1, 3942, Note_on_c, 0, 30, 78
1, 3942, Note_off_c, 0, 49, 64
1, 3942, Note_on_c, 0, 79, 32
1, 3942, Note_off_c, 0, 80, 64
1, 3942, Note_off_c, 0, 84, 64
1, 3942, Note_on_c, 0, 85, 28
1, 3943, Note_off_c, 0, 78, 64
1, 3943, Note_off_c, 0, 86, 64
1, 3943, Note_off_c, 0, 88, 64
1, 3944, Note_off_c, 0, 64, 64
1, 3944, Note_off_c, 0, 76, 64
1, 3944, Note_off_c, 0, 82, 64
1, 3945, Note_off_c, 0, 30, 64
1, 3945, Note_on_c, 0, 34, 70
1, 3945, Note_on_c, 0, 54, 60
1, 3945, Note_on_c, 0, 71, 46
1, 3945, Note_on_c, 0, 76, 41
1, 3945, Note_on_c, 0, 87, 36
1, 3945, Note_on_c, 0, 91, 35
1, 3945, Note_on_c, 0, 92, 27
1, 3946, Note_off_c, 0, 79, 64
1, 3946, Note_on_c, 0, 80, 38
1, 3946, Note_on_c, 0, 84, 38
1, 3946, Note_on_c, 0, 90, 38
1, 3946, Note_on_c, 0, 94, 27
1, 3946, Note_on_c, 0, 98, 26
1, 3947, Note_off_c, 0, 34, 64
1, 3947, Note_on_c, 0, 75, 47
1, 3947, Note_off_c, 0, 76, 64
1, 3947, Note_on_c, 0, 79, 36
1, 3948, Note_on_c, 0, 51, 78
1, 3948, Note_off_c, 0, 54, 64
1, 3948, Note_on_c, 0, 81, 32
1, 3948, Note_off_c, 0, 85, 64
1, 3948, Note_on_c, 0, 86, 29
1, 3949, Note_on_c, 0, 46, 89
1, 3949, Note_off_c, 0, 51, 64
1, 3949, Note_off_c, 0, 84, 64
1, 3949, Note_on_c, 0, 85, 23
1, 3949, Note_off_c, 0, 94, 64
1, 3949, Note_off_c, 0, 98, 64
1, 3950, Note_on_c, 0, 43, 95
1, 3950, Note_off_c, 0, 46, 64
1, 3950, Note_off_c, 0, 75, 64
1, 3950, Note_on_c, 0, 76, 24
1, 3950, Note_off_c, 0, 80, 64
1, 3950, Note_on_c, 0, 82, 29
1, 3950, Note_off_c, 0, 86, 64
1, 3950, Note_off_c, 0, 87, 64
1, 3950, Note_off_c, 0, 91, 64
1, 3950, Note_off_c, 0, 92, 64
1, 3951, Note_on_c, 0, 41, 100
1, 3951, Note_off_c, 0, 43, 64
1, 3951, Note_off_c, 0, 71, 64
1, 3951, Note_off_c, 0, 79, 64
1, 3951, Note_on_c, 0, 84, 10
1, 3952, Note_on_c, 0, 39, 97
1, 3952, Note_off_c, 0, 41, 64
1, 3952, Note_off_c, 0, 81, 64
1, 3952, Note_on_c, 0, 86, 12
1, 3952, Note_off_c, 0, 90, 64
1, 3953, Note_on_c, 0, 37, 98
1, 3953, Note_off_c, 0, 39, 64
1, 3953, Note_on_c, 0, 74, 27
1, 3953, Note_off_c, 0, 85, 64
1, 3954, Note_on_c, 0, 36, 97
1, 3954, Note_off_c, 0, 37, 64
1, 3954, Note_off_c, 0, 76, 64
1, 3954, Note_on_c, 0, 77, 31
1, 3954, Note_off_c, 0, 82, 64
1, 3954, Note_off_c, 0, 84, 64
1, 3954, Note_on_c, 0, 85, 28
1, 3955, Note_on_c, 0, 35, 96
1, 3955, Note_off_c, 0, 36, 64
1, 3955, Note_on_c, 0, 81, 27
1, 3955, Note_on_c, 0, 83, 31
1, 3955, Note_off_c, 0, 86, 64
1, 3956, Note_on_c, 0, 34, 96
1, 3956, Note_off_c, 0, 35, 64
1, 3956, Note_on_c, 0, 78, 27
1, 3957, Note_on_c, 0, 33, 95
1, 3957, Note_off_c, 0, 34, 64
1, 3957, Note_on_c, 0, 76, 29
1, 3957, Note_off_c, 0, 77, 64
1, 3957, Note_on_c, 0, 79, 26
1, 3958, Note_on_c, 0, 32, 96
1, 3958, Note_off_c, 0, 33, 64
1, 3958, Note_off_c, 0, 81, 64
1, 3958, Note_on_c, 0, 84, 19
1, 3958, Note_on_c, 0, 89, 25
1, 3959, Note_on_c, 0, 31, 95
1, 3959, Note_off_c, 0, 32, 64
1, 3959, Note_off_c, 0, 78, 64
1, 3960, Note_on_c, 0, 49, 19
1, 3960, Note_off_c, 0, 79, 64
1, 3961, Note_on_c, 0, 77, 11
1, 3961, Note_on_c, 0, 79, 23
1, 3961, Note_on_c, 0, 80, 16
1, 3961, Note_off_c, 0, 83, 64
1, 3962, Note_on_c, 0, 30, 81
1, 3962, Note_off_c, 0, 31, 64
1, 3962, Note_off_c, 0, 76, 64
1, 3962, Note_off_c, 0, 84, 64
1, 3963, Note_off_c, 0, 49, 64
1, 3963, Note_on_c, 0, 72, 23
1, 3963, Note_on_c, 0, 81, 24
1, 3963, Note_on_c, 0, 87, 22
1, 3964, Note_off_c, 0, 74, 64
1, 3964, Note_off_c, 0, 85, 64
1, 3965, Note_off_c, 0, 30, 64
1, 3965, Note_on_c, 0, 55, 52
1, 3965, Note_on_c, 0, 75, 29
1, 3965, Note_off_c, 0, 77, 64
1, 3965, Note_on_c, 0, 78, 27
1, 3965, Note_off_c, 0, 79, 64
1, 3965, Note_off_c, 0, 80, 64
1, 3965, Note_on_c, 0, 86, 30
1, 3965, Note_on_c, 0, 88, 12
1, 3966, Note_on_c, 0, 36, 71
1, 3966, Note_on_c, 0, 61, 31
1, 3966, Note_on_c, 0, 64, 32
1, 3966, Note_on_c, 0, 80, 30
1, 3966, Note_off_c, 0, 81, 64
1, 3966, Note_on_c, 0, 83, 26
1, 3966, Note_off_c, 0, 87, 64
1, 3966, Note_on_c, 0, 94, 9
1, 3967, Note_on_c, 0, 31, 77
1, 3967, Note_off_c, 0, 36, 64
1, 3967, Note_on_c, 0, 49, 60
1, 3967, Note_off_c, 0, 55, 64
1, 3967, Note_on_c, 0, 68, 35
1, 3967, Note_on_c, 0, 79, 25
1, 3968, Note_on_c, 0, 30, 81
1, 3968, Note_off_c, 0, 31, 64
1, 3968, Note_off_c, 0, 72, 64
1, 3968, Note_off_c, 0, 75, 64
1, 3968, Note_on_c, 0, 77, 32
1, 3968, Note_off_c, 0, 78, 64
1, 3968, Note_off_c, 0, 86, 64
1, 3969, Note_on_c, 0, 29, 80
1, 3969, Note_off_c, 0, 30, 64
1, 3969, Note_off_c, 0, 64, 64
1, 3969, Note_on_c, 0, 74, 24
1, 3969, Note_off_c, 0, 88, 64
1, 3969, Note_off_c, 0, 94, 64
1, 3970, Note_off_c, 0, 29, 64
1, 3970, Note_on_c, 0, 30, 77
1, 3970, Note_on_c, 0, 64, 24
1, 3970, Note_on_c, 0, 76, 30
1, 3970, Note_off_c, 0, 77, 64
1, 3970, Note_on_c, 0, 78, 30
1, 3970, Note_off_c, 0, 79, 64
1, 3970, Note_on_c, 0, 82, 27
1, 3970, Note_off_c, 0, 83, 64
1, 3971, Note_off_c, 0, 68, 64
1, 3971, Note_off_c, 0, 80, 64
1, 3971, Note_on_c, 0, 81, 38
1, 3971, Note_on_c, 0, 83, 27
1, 3972, Note_on_c, 0, 29, 74
1, 3972, Note_off_c, 0, 30, 64
1, 3972, Note_on_c, 0, 48, 51
1, 3972, Note_off_c, 0, 49, 64
1, 3972, Note_on_c, 0, 68, 19
1, 3972, Note_off_c, 0, 78, 64
1, 3973, Note_off_c, 0, 61, 64
1, 3974, Note_off_c, 0, 48, 64
1, 3974, Note_off_c, 0, 64, 64
1, 3974, Note_off_c, 0, 76, 64
1, 3974, Note_off_c, 0, 89, 64
1, 3975, Note_off_c, 0, 29, 64
1, 3975, Note_on_c, 0, 30, 80
1, 3975, Note_on_c, 0, 61, 29
1, 3975, Note_off_c, 0, 74, 64
1, 3975, Note_on_c, 0, 76, 34
1, 3975, Note_on_c, 0, 77, 24
1, 3975, Note_on_c, 0, 79, 30
1, 3975, Note_on_c, 0, 89, 26
1, 3976, Note_off_c, 0, 83, 64
1, 3976, Note_on_c, 0, 84, 35
1, 3976, Note_on_c, 0, 85, 32
1, 3976, Note_on_c, 0, 87, 28
1, 3977, Note_on_c, 0, 63, 33
1, 3977, Note_off_c, 0, 68, 64
1, 3978, Note_off_c, 0, 61, 64
1, 3978, Note_off_c, 0, 77, 64
1, 3979, Note_on_c, 0, 49, 58
1, 3979, Note_off_c, 0, 76, 64
1, 3979, Note_on_c, 0, 77, 32
1, 3979, Note_off_c, 0, 79, 64
1, 3979, Note_on_c, 0, 80, 21
1, 3979, Note_off_c, 0, 82, 64
1, 3980, Note_off_c, 0, 85, 64
1, 3980, Note_off_c, 0, 87, 64
1, 3981, Note_off_c, 0, 49, 64
1, 3981, Note_on_c, 0, 69, 45
1, 3982, Note_off_c, 0, 30, 64
1, 3982, Note_on_c, 0, 34, 72
1, 3982, Note_off_c, 0, 63, 64
1, 3982, Note_on_c, 0, 83, 38
1, 3983, Note_off_c, 0, 34, 64
1, 3983, Note_on_c, 0, 66, 47
1, 3983, Note_off_c, 0, 80, 64
1, 3983, Note_off_c, 0, 84, 64
1, 3983, Note_on_c, 0, 86, 44
1, 3983, Note_on_c, 0, 87, 30
1, 3983, Note_on_c, 0, 92, 29
1, 3983, Note_on_c, 0, 94, 29
1, 3983, Note_on_c, 0, 97, 23
1, 3984, Note_on_c, 0, 74, 40
1, 3984, Note_off_c, 0, 77, 64
1, 3985, Note_on_c, 0, 53, 71
1, 3985, Note_off_c, 0, 66, 64
1, 3985, Note_off_c, 0, 69, 64
1, 3985, Note_on_c, 0, 72, 31
1, 3985, Note_on_c, 0, 85, 35
1, 3985, Note_off_c, 0, 86, 64
1, 3986, Note_on_c, 0, 48, 85
1, 3986, Note_off_c, 0, 53, 64
1, 3986, Note_on_c, 0, 79, 26
1, 3986, Note_off_c, 0, 81, 64
1, 3986, Note_off_c, 0, 89, 64
1, 3986, Note_off_c, 0, 92, 64
1, 3986, Note_off_c, 0, 94, 64
1, 3986, Note_off_c, 0, 97, 64
1, 3987, Note_on_c, 0, 45, 94
1, 3987, Note_off_c, 0, 48, 64
1, 3987, Note_off_c, 0, 72, 64
1, 3987, Note_on_c, 0, 81, 16
1, 3987, Note_off_c, 0, 85, 64
1, 3987, Note_off_c, 0, 87, 64
1, 3988, Note_on_c, 0, 42, 99
1, 3988, Note_off_c, 0, 45, 64
1, 3988, Note_off_c, 0, 74, 64
1, 3989, Note_on_c, 0, 40, 98
1, 3989, Note_off_c, 0, 42, 64
1, 3989, Note_on_c, 0, 72, 10
1, 3989, Note_on_c, 0, 76, 21
1, 3989, Note_off_c, 0, 83, 64
1, 3990, Note_on_c, 0, 38, 98
1, 3990, Note_off_c, 0, 40, 64
1, 3990, Note_on_c, 0, 74, 21
1, 3990, Note_off_c, 0, 79, 64
1, 3991, Note_on_c, 0, 37, 98
1, 3991, Note_off_c, 0, 38, 64
1, 3991, Note_off_c, 0, 81, 64
1, 3992, Note_on_c, 0, 35, 97
1, 3992, Note_off_c, 0, 37, 64
1, 3992, Note_off_c, 0, 76, 64
1, 3993, Note_on_c, 0, 34, 96
1, 3993, Note_off_c, 0, 35, 64
1, 3993, Note_off_c, 0, 72, 64
1, 3993, Note_off_c, 0, 74, 64
1, 3994, Note_on_c, 0, 33, 96
1, 3994, Note_off_c, 0, 34, 64
1, 3995, Note_on_c, 0, 32, 96
1, 3995, Note_off_c, 0, 33, 64
1, 3995, Note_on_c, 0, 77, 11
1, 3996, Note_on_c, 0, 78, 12
1, 3997, Note_on_c, 0, 31, 95
1, 3997, Note_off_c, 0, 32, 64
1, 3998, Note_on_c, 0, 76, 26
1, 3998, Note_off_c, 0, 77, 64
1, 3998, Note_on_c, 0, 83, 19
1, 3999, Note_on_c, 0, 30, 85
1, 3999, Note_off_c, 0, 31, 64
1, 3999, Note_off_c, 0, 78, 64
1, 3999, Note_on_c, 0, 79, 19
1, 3999, Note_on_c, 0, 82, 11
1, 4001, Note_off_c, 0, 30, 64
1, 4001, Note_off_c, 0, 83, 64
1, 4002, Note_on_c, 0, 74, 32
1, 4002, Note_on_c, 0, 81, 31
1, 4003, Note_on_c, 0, 42, 65
1, 4003, Note_off_c, 0, 76, 64
1, 4003, Note_off_c, 0, 82, 64
1, 4003, Note_on_c, 0, 83, 26
1, 4003, Note_on_c, 0, 84, 19
1, 4003, Note_on_c, 0, 90, 11
1, 4003, Note_on_c, 0, 91, 22
1, 4003, Note_on_c, 0, 92, 17
1, 4004, Note_on_c, 0, 31, 71
1, 4004, Note_off_c, 0, 42, 64
1, 4004, Note_on_c, 0, 78, 27
1, 4004, Note_on_c, 0, 82, 27
1, 4004, Note_on_c, 0, 87, 21
1, 4004, Note_on_c, 0, 88, 15
1, 4004, Note_on_c, 0, 89, 16
1, 4005, Note_on_c, 0, 30, 79
1, 4005, Note_off_c, 0, 31, 64
1, 4005, Note_off_c, 0, 74, 64
1, 4005, Note_off_c, 0, 79, 64
1, 4006, Note_on_c, 0, 29, 81
1, 4006, Note_off_c, 0, 30, 64
1, 4006, Note_on_c, 0, 79, 34
1, 4006, Note_off_c, 0, 84, 64
1, 4006, Note_on_c, 0, 86, 12
1, 4007, Note_off_c, 0, 90, 64
1, 4007, Note_off_c, 0, 92, 64
1, 4008, Note_off_c, 0, 29, 64
1, 4008, Note_on_c, 0, 30, 76
1, 4008, Note_off_c, 0, 78, 64
1, 4008, Note_off_c, 0, 82, 64
1, 4008, Note_off_c, 0, 87, 64
1, 4008, Note_off_c, 0, 89, 64
1, 4009, Note_on_c, 0, 63, 27
1, 4009, Note_on_c, 0, 71, 35
1, 4009, Note_on_c, 0, 74, 35
1, 4009, Note_off_c, 0, 81, 64
1, 4009, Note_off_c, 0, 86, 64
1, 4010, Note_on_c, 0, 29, 74
1, 4010, Note_off_c, 0, 30, 64
1, 4010, Note_off_c, 0, 79, 64
1, 4010, Note_on_c, 0, 80, 39
1, 4010, Note_on_c, 0, 82, 16
1, 4010, Note_on_c, 0, 89, 15
1, 4011, Note_on_c, 0, 77, 35
1, 4011, Note_off_c, 0, 83, 64
1, 4011, Note_off_c, 0, 91, 64
1, 4012, Note_on_c, 0, 66, 19
1, 4013, Note_off_c, 0, 29, 64
1, 4013, Note_on_c, 0, 30, 74
1, 4013, Note_on_c, 0, 61, 28
1, 4013, Note_on_c, 0, 85, 29
1, 4014, Note_off_c, 0, 30, 64
1, 4014, Note_on_c, 0, 31, 77
1, 4014, Note_on_c, 0, 49, 61
1, 4014, Note_on_c, 0, 79, 35
1, 4014, Note_off_c, 0, 82, 64
1, 4014, Note_on_c, 0, 90, 10
1, 4015, Note_on_c, 0, 30, 80
1, 4015, Note_off_c, 0, 31, 64
1, 4016, Note_on_c, 0, 29, 80
1, 4016, Note_off_c, 0, 30, 64
1, 4016, Note_off_c, 0, 63, 64
1, 4016, Note_off_c, 0, 71, 64
1, 4016, Note_on_c, 0, 86, 38
1, 4016, Note_off_c, 0, 88, 64
1, 4017, Note_off_c, 0, 29, 64
1, 4017, Note_on_c, 0, 30, 77
1, 4017, Note_off_c, 0, 49, 64
1, 4017, Note_off_c, 0, 61, 64
1, 4017, Note_off_c, 0, 66, 64
1, 4017, Note_on_c, 0, 73, 34
1, 4017, Note_off_c, 0, 74, 64
1, 4017, Note_on_c, 0, 75, 24
1, 4017, Note_on_c, 0, 78, 40
1, 4017, Note_off_c, 0, 79, 64
1, 4017, Note_off_c, 0, 90, 64
1, 4017, Note_on_c, 0, 91, 32
1, 4018, Note_on_c, 0, 63, 42
1, 4018, Note_off_c, 0, 77, 64
1, 4018, Note_on_c, 0, 81, 39
1, 4018, Note_off_c, 0, 85, 64
1, 4018, Note_on_c, 0, 88, 19
1, 4018, Note_off_c, 0, 89, 64
1, 4019, Note_on_c, 0, 67, 41
1, 4019, Note_off_c, 0, 73, 64
1, 4020, Note_off_c, 0, 30, 64
1, 4020, Note_on_c, 0, 34, 70
1, 4020, Note_on_c, 0, 73, 42
1, 4020, Note_on_c, 0, 87, 37
1, 4020, Note_on_c, 0, 89, 37
1, 4020, Note_on_c, 0, 97, 22
1, 4021, Note_off_c, 0, 34, 64
1, 4021, Note_off_c, 0, 75, 64
1, 4021, Note_on_c, 0, 76, 40
1, 4021, Note_off_c, 0, 88, 64
1, 4022, Note_off_c, 0, 63, 64
1, 4022, Note_off_c, 0, 67, 64
1, 4023, Note_on_c, 0, 50, 79
1, 4023, Note_off_c, 0, 78, 64
1, 4023, Note_on_c, 0, 84, 18
1, 4023, Note_off_c, 0, 91, 64
1, 4023, Note_off_c, 0, 97, 64
1, 4024, Note_on_c, 0, 45, 90
1, 4024, Note_off_c, 0, 50, 64
1, 4024, Note_off_c, 0, 73, 64
1, 4024, Note_off_c, 0, 80, 64
1, 4024, Note_off_c, 0, 81, 64
1, 4024, Note_off_c, 0, 86, 64
1, 4025, Note_on_c, 0, 42, 96
1, 4025, Note_off_c, 0, 45, 64
1, 4025, Note_off_c, 0, 76, 64
1, 4025, Note_off_c, 0, 87, 64
1, 4025, Note_off_c, 0, 89, 64
1, 4026, Note_on_c, 0, 41, 100
1, 4026, Note_off_c, 0, 42, 64
1, 4026, Note_off_c, 0, 84, 64
1, 4027, Note_on_c, 0, 39, 97
1, 4027, Note_off_c, 0, 41, 64
1, 4028, Note_on_c, 0, 37, 98
1, 4028, Note_off_c, 0, 39, 64
1, 4029, Note_on_c, 0, 36, 97
1, 4029, Note_off_c, 0, 37, 64
1, 4029, Note_on_c, 0, 85, 11
1, 4030, Note_on_c, 0, 35, 96
1, 4030, Note_off_c, 0, 36, 64
1, 4030, Note_on_c, 0, 78, 15
1, 4031, Note_on_c, 0, 34, 96
1, 4031, Note_off_c, 0, 35, 64
1, 4032, Note_on_c, 0, 33, 96
1, 4032, Note_off_c, 0, 34, 64
1, 4032, Note_off_c, 0, 85, 64
1, 4032, Note_on_c, 0, 87, 13
1, 4033, Note_on_c, 0, 32, 96
1, 4033, Note_off_c, 0, 33, 64
1, 4033, Note_off_c, 0, 78, 64
1, 4033, Note_on_c, 0, 85, 21
1, 4034, Note_on_c, 0, 31, 95
1, 4034, Note_off_c, 0, 32, 64
1, 4036, Note_off_c, 0, 85, 64
1, 4036, Note_off_c, 0, 87, 64
1, 4036, Note_on_c, 0, 88, 13
1, 4037, Note_on_c, 0, 30, 80
1, 4037, Note_off_c, 0, 31, 64
1, 4037, Note_on_c, 0, 72, 14
1, 4038, Note_on_c, 0, 85, 31
1, 4039, Note_off_c, 0, 30, 64
1, 4039, Note_on_c, 0, 75, 31
1, 4039, Note_on_c, 0, 83, 18
1, 4039, Note_off_c, 0, 88, 64
1, 4040, Note_on_c, 0, 66, 18
1, 4040, Note_on_c, 0, 77, 16
1, 4040, Note_on_c, 0, 82, 24
1, 4040, Note_on_c, 0, 86, 25
1, 4040, Note_on_c, 0, 90, 20
1, 4040, Note_on_c, 0, 92, 15
1, 4041, Note_on_c, 0, 36, 71
1, 4041, Note_on_c, 0, 61, 32
1, 4041, Note_on_c, 0, 63, 30
1, 4041, Note_on_c, 0, 80, 26
1, 4042, Note_on_c, 0, 31, 77
1, 4042, Note_off_c, 0, 36, 64
1, 4042, Note_on_c, 0, 49, 60
1, 4042, Note_off_c, 0, 72, 64
1, 4042, Note_on_c, 0, 81, 21
1, 4042, Note_off_c, 0, 83, 64
1, 4043, Note_on_c, 0, 30, 80
1, 4043, Note_off_c, 0, 31, 64
1, 4043, Note_off_c, 0, 63, 64
1, 4043, Note_off_c, 0, 66, 64
1, 4043, Note_on_c, 0, 72, 36
1, 4043, Note_off_c, 0, 77, 64
1, 4043, Note_off_c, 0, 92, 64
1, 4044, Note_on_c, 0, 29, 80
1, 4044, Note_off_c, 0, 30, 64
1, 4044, Note_on_c, 0, 68, 23
1, 4044, Note_off_c, 0, 75, 64
1, 4044, Note_on_c, 0, 77, 34
1, 4044, Note_off_c, 0, 85, 64
1, 4045, Note_off_c, 0, 29, 64
1, 4045, Note_on_c, 0, 30, 77
1, 4045, Note_off_c, 0, 49, 64
1, 4045, Note_on_c, 0, 63, 34
1, 4045, Note_off_c, 0, 80, 64
1, 4045, Note_off_c, 0, 82, 64
1, 4045, Note_on_c, 0, 83, 12
1, 4045, Note_on_c, 0, 85, 24
1, 4045, Note_off_c, 0, 90, 64
1, 4046, Note_off_c, 0, 61, 64
1, 4046, Note_on_c, 0, 76, 20
1, 4046, Note_off_c, 0, 77, 64
1, 4046, Note_off_c, 0, 86, 64
1, 4047, Note_on_c, 0, 29, 74
1, 4047, Note_off_c, 0, 30, 64
1, 4047, Note_on_c, 0, 48, 52
1, 4047, Note_on_c, 0, 77, 26
1, 4048, Note_on_c, 0, 86, 24
1, 4048, Note_on_c, 0, 88, 20
1, 4049, Note_off_c, 0, 48, 64
1, 4049, Note_off_c, 0, 76, 64
1, 4049, Note_off_c, 0, 83, 64
1, 4050, Note_off_c, 0, 29, 64
1, 4050, Note_on_c, 0, 30, 80
1, 4050, Note_off_c, 0, 68, 64
1, 4050, Note_on_c, 0, 82, 15
1, 4051, Note_on_c, 0, 61, 29
1, 4051, Note_on_c, 0, 70, 31
1, 4051, Note_off_c, 0, 72, 64
1, 4051, Note_on_c, 0, 73, 30
1, 4051, Note_on_c, 0, 87, 18
1, 4052, Note_on_c, 0, 79, 17
1, 4052, Note_on_c, 0, 83, 25
1, 4052, Note_off_c, 0, 86, 64
1, 4052, Note_off_c, 0, 88, 64
1, 4053, Note_on_c, 0, 29, 80
1, 4053, Note_off_c, 0, 30, 64
1, 4053, Note_off_c, 0, 70, 64
1, 4053, Note_off_c, 0, 73, 64
1, 4053, Note_on_c, 0, 80, 15
1, 4053, Note_off_c, 0, 82, 64
1, 4054, Note_off_c, 0, 61, 64
1, 4054, Note_off_c, 0, 63, 64
1, 4054, Note_off_c, 0, 81, 64
1, 4054, Note_on_c, 0, 82, 27
1, 4054, Note_on_c, 0, 86, 19
1, 4054, Note_off_c, 0, 87, 64
1, 4055, Note_off_c, 0, 29, 64
1, 4055, Note_on_c, 0, 30, 76
1, 4055, Note_on_c, 0, 70, 24
1, 4055, Note_off_c, 0, 77, 64
1, 4055, Note_off_c, 0, 79, 64
1, 4056, Note_on_c, 0, 75, 48
1, 4056, Note_on_c, 0, 77, 35
1, 4056, Note_off_c, 0, 80, 64
1, 4056, Note_off_c, 0, 85, 64
1, 4057, Note_off_c, 0, 30, 64
1, 4057, Note_on_c, 0, 34, 72
1, 4057, Note_on_c, 0, 80, 38
1, 4057, Note_off_c, 0, 82, 64
1, 4058, Note_off_c, 0, 34, 64
1, 4058, Note_off_c, 0, 70, 64
1, 4058, Note_on_c, 0, 71, 41
1, 4058, Note_on_c, 0, 84, 35
1, 4058, Note_off_c, 0, 86, 64
1, 4058, Note_on_c, 0, 90, 34
1, 4058, Note_on_c, 0, 91, 30
1, 4058, Note_on_c, 0, 93, 25
1, 4058, Note_on_c, 0, 94, 25
1, 4059, Note_on_c, 0, 81, 24
1, 4059, Note_off_c, 0, 83, 64
1, 4059, Note_on_c, 0, 86, 37
1, 4060, Note_on_c, 0, 51, 73
1, 4060, Note_on_c, 0, 78, 19
1, 4060, Note_on_c, 0, 85, 25
1, 4061, Note_on_c, 0, 48, 85
1, 4061, Note_off_c, 0, 51, 64
1, 4061, Note_off_c, 0, 77, 64
1, 4061, Note_off_c, 0, 84, 64
1, 4061, Note_off_c, 0, 91, 64
1, 4061, Note_off_c, 0, 93, 64
1, 4061, Note_off_c, 0, 94, 64
1, 4062, Note_on_c, 0, 45, 95
1, 4062, Note_off_c, 0, 48, 64
1, 4062, Note_off_c, 0, 75, 64
1, 4062, Note_off_c, 0, 80, 64
1, 4062, Note_on_c, 0, 82, 22
1, 4062, Note_off_c, 0, 86, 64
1, 4063, Note_on_c, 0, 42, 100
1, 4063, Note_off_c, 0, 45, 64
1, 4063, Note_on_c, 0, 73, 21
1, 4063, Note_off_c, 0, 90, 64
1, 4064, Note_on_c, 0, 40, 98
1, 4064, Note_off_c, 0, 42, 64
1, 4064, Note_off_c, 0, 71, 64
1, 4064, Note_on_c, 0, 76, 19
1, 4064, Note_off_c, 0, 81, 64
1, 4064, Note_off_c, 0, 85, 64
1, 4065, Note_on_c, 0, 38, 98
1, 4065, Note_off_c, 0, 40, 64
1, 4065, Note_off_c, 0, 78, 64
1, 4066, Note_on_c, 0, 36, 98
1, 4066, Note_off_c, 0, 38, 64
1, 4066, Note_off_c, 0, 73, 64
1, 4066, Note_on_c, 0, 74, 18
1, 4066, Note_off_c, 0, 82, 64
1, 4067, Note_on_c, 0, 35, 97
1, 4067, Note_off_c, 0, 36, 64
1, 4067, Note_on_c, 0, 77, 21
1, 4067, Note_on_c, 0, 81, 9
1, 4068, Note_on_c, 0, 34, 96
1, 4068, Note_off_c, 0, 35, 64
1, 4068, Note_on_c, 0, 82, 12
1, 4068, Note_on_c, 0, 84, 9
1, 4069, Note_on_c, 0, 33, 96
1, 4069, Note_off_c, 0, 34, 64
1, 4069, Note_off_c, 0, 74, 64
1, 4069, Note_on_c, 0, 79, 20
1, 4069, Note_on_c, 0, 83, 19
1, 4069, Note_on_c, 0, 86, 15
1, 4070, Note_on_c, 0, 32, 96
1, 4070, Note_off_c, 0, 33, 64
1, 4070, Note_off_c, 0, 81, 64
1, 4071, Note_off_c, 0, 77, 64
1, 4071, Note_on_c, 0, 80, 23
1, 4071, Note_off_c, 0, 82, 64
1, 4071, Note_off_c, 0, 84, 64
1, 4072, Note_on_c, 0, 31, 94
1, 4072, Note_off_c, 0, 32, 64
1, 4073, Note_on_c, 0, 81, 17
1, 4073, Note_off_c, 0, 83, 64
1, 4074, Note_on_c, 0, 30, 85
1, 4074, Note_off_c, 0, 31, 64
1, 4074, Note_on_c, 0, 72, 20
1, 4074, Note_off_c, 0, 76, 64
1, 4074, Note_on_c, 0, 77, 24
1, 4074, Note_off_c, 0, 80, 64
1, 4074, Note_off_c, 0, 86, 64
1, 4075, Note_off_c, 0, 79, 64
1, 4075, Note_on_c, 0, 82, 23
1, 4077, Note_off_c, 0, 30, 64
1, 4077, Note_on_c, 0, 63, 29
1, 4077, Note_on_c, 0, 69, 32
1, 4077, Note_off_c, 0, 72, 64
1, 4077, Note_on_c, 0, 73, 19
1, 4077, Note_off_c, 0, 81, 64
1, 4077, Note_on_c, 0, 83, 21
1, 4077, Note_on_c, 0, 86, 26
1, 4077, Note_on_c, 0, 89, 29
1, 4078, Note_on_c, 0, 41, 67
1, 4078, Note_off_c, 0, 82, 64
1, 4078, Note_on_c, 0, 84, 22
1, 4078, Note_on_c, 0, 91, 13
1, 4079, Note_on_c, 0, 32, 73
1, 4079, Note_off_c, 0, 41, 64
1, 4079, Note_on_c, 0, 61, 30
1, 4079, Note_off_c, 0, 63, 64
1, 4079, Note_on_c, 0, 64, 30
1, 4079, Note_off_c, 0, 69, 64
1, 4079, Note_on_c, 0, 70, 30
1, 4079, Note_off_c, 0, 77, 64
1, 4079, Note_on_c, 0, 78, 26
1, 4080, Note_on_c, 0, 30, 80
1, 4080, Note_off_c, 0, 32, 64
1, 4080, Note_on_c, 0, 81, 22
1, 4080, Note_off_c, 0, 86, 64
1, 4080, Note_off_c, 0, 89, 64
1, 4081, Note_on_c, 0, 29, 81
1, 4081, Note_off_c, 0, 30, 64
1, 4081, Note_off_c, 0, 64, 64
1, 4081, Note_off_c, 0, 84, 64
1, 4082, Note_off_c, 0, 73, 64
1, 4082, Note_off_c, 0, 78, 64
1, 4082, Note_off_c, 0, 91, 64
1, 4083, Note_off_c, 0, 29, 64
1, 4083, Note_on_c, 0, 30, 76
1, 4083, Note_on_c, 0, 74, 24
1, 4083, Note_off_c, 0, 83, 64
1, 4084, Note_off_c, 0, 70, 64
1, 4084, Note_on_c, 0, 71, 36
1, 4084, Note_on_c, 0, 89, 12
1, 4085, Note_on_c, 0, 29, 74
1, 4085, Note_off_c, 0, 30, 64
1, 4085, Note_off_c, 0, 61, 64
1, 4085, Note_on_c, 0, 87, 15
1, 4086, Note_on_c, 0, 76, 32
1, 4087, Note_on_c, 0, 63, 31
1, 4087, Note_off_c, 0, 81, 64
1, 4088, Note_off_c, 0, 29, 64
1, 4088, Note_on_c, 0, 30, 80
1, 4088, Note_on_c, 0, 54, 52
1, 4088, Note_off_c, 0, 74, 64
1, 4088, Note_on_c, 0, 82, 17
1, 4088, Note_off_c, 0, 87, 64
1, 4088, Note_off_c, 0, 89, 64
1, 4088, Note_on_c, 0, 90, 12
1, 4089, Note_on_c, 0, 49, 61
1, 4089, Note_on_c, 0, 70, 31
1, 4089, Note_on_c, 0, 77, 19
1, 4089, Note_on_c, 0, 79, 28
1, 4089, Note_on_c, 0, 81, 23
1, 4089, Note_on_c, 0, 85, 25
1, 4089, Note_on_c, 0, 87, 13
1, 4090, Note_off_c, 0, 54, 64
1, 4090, Note_off_c, 0, 71, 64
1, 4090, Note_off_c, 0, 76, 64
1, 4091, Note_on_c, 0, 29, 80
1, 4091, Note_off_c, 0, 30, 64
1, 4092, Note_off_c, 0, 29, 64
1, 4092, Note_on_c, 0, 30, 77
1, 4092, Note_off_c, 0, 49, 64
1, 4092, Note_off_c, 0, 63, 64
1, 4092, Note_on_c, 0, 73, 34
1, 4092, Note_off_c, 0, 79, 64
1, 4092, Note_on_c, 0, 80, 18
1, 4092, Note_off_c, 0, 81, 64
1, 4093, Note_off_c, 0, 77, 64
1, 4093, Note_off_c, 0, 82, 64
1, 4093, Note_off_c, 0, 87, 64
1, 4093, Note_off_c, 0, 90, 64
1, 4094, Note_off_c, 0, 30, 64
1, 4094, Note_on_c, 0, 31, 71
1, 4094, Note_off_c, 0, 70, 64
1, 4094, Note_on_c, 0, 75, 44
1, 4094, Note_on_c, 0, 77, 42
1, 4095, Note_off_c, 0, 31, 64
1, 4095, Note_on_c, 0, 35, 68
1, 4095, Note_on_c, 0, 79, 35
1, 4095, Note_off_c, 0, 80, 64
1, 4095, Note_on_c, 0, 81, 33
1, 4095, Note_on_c, 0, 83, 38
1, 4095, Note_on_c, 0, 90, 30
1, 4095, Note_on_c, 0, 92, 26
1, 4096, Note_off_c, 0, 35, 64
1, 4096, Note_on_c, 0, 65, 51
1, 4096, Note_off_c, 0, 85, 64
1, 4096, Note_on_c, 0, 86, 37
1, 4097, Note_off_c, 0, 73, 64
1, 4097, Note_off_c, 0, 77, 64
1, 4097, Note_on_c, 0, 78, 37
1, 4097, Note_on_c, 0, 82, 31
1, 4097, Note_on_c, 0, 85, 34
1, 4098, Note_on_c, 0, 49, 80
1, 4098, Note_off_c, 0, 65, 64
1, 4098, Note_off_c, 0, 79, 64
1, 4098, Note_off_c, 0, 81, 64
1, 4098, Note_off_c, 0, 83, 64
1, 4098, Note_off_c, 0, 86, 64
1, 4098, Note_off_c, 0, 90, 64
1, 4098, Note_off_c, 0, 92, 64
1, 4099, Note_on_c, 0, 45, 91
1, 4099, Note_off_c, 0, 49, 64
1, 4099, Note_off_c, 0, 75, 64
1, 4099, Note_off_c, 0, 78, 64
1, 4099, Note_off_c, 0, 85, 64
1, 4100, Note_on_c, 0, 42, 97
1, 4100, Note_off_c, 0, 45, 64
1, 4100, Note_on_c, 0, 81, 13
1, 4100, Note_off_c, 0, 82, 64
1, 4101, Note_on_c, 0, 41, 100
1, 4101, Note_off_c, 0, 42, 64
1, 4102, Note_on_c, 0, 38, 98
1, 4102, Note_off_c, 0, 41, 64
1, 4102, Note_on_c, 0, 74, 13
1, 4103, Note_on_c, 0, 37, 98
1, 4103, Note_off_c, 0, 38, 64
1, 4103, Note_off_c, 0, 81, 64
1, 4104, Note_on_c, 0, 36, 97
1, 4104, Note_off_c, 0, 37, 64
1, 4105, Note_on_c, 0, 35, 96
1, 4105, Note_off_c, 0, 36, 64
1, 4106, Note_on_c, 0, 34, 96
1, 4106, Note_off_c, 0, 35, 64
1, 4106, Note_off_c, 0, 74, 64
1, 4107, Note_on_c, 0, 33, 96
1, 4107, Note_off_c, 0, 34, 64
1, 4107, Note_on_c, 0, 82, 18
1, 4108, Note_on_c, 0, 32, 96
1, 4108, Note_off_c, 0, 33, 64
1, 4109, Note_on_c, 0, 31, 95
1, 4109, Note_off_c, 0, 32, 64
1, 4110, Note_off_c, 0, 82, 64
1, 4111, Note_on_c, 0, 77, 12
1, 4111, Note_on_c, 0, 82, 16
1, 4112, Note_on_c, 0, 30, 79
1, 4112, Note_off_c, 0, 31, 64
1, 4112, Note_on_c, 0, 68, 24
1, 4114, Note_off_c, 0, 30, 64
1, 4114, Note_on_c, 0, 71, 29
1, 4114, Note_off_c, 0, 77, 64
1, 4114, Note_on_c, 0, 78, 21
1, 4114, Note_on_c, 0, 80, 27
1, 4114, Note_off_c, 0, 82, 64
1, 4115, Note_off_c, 0, 68, 64
1, 4115, Note_on_c, 0, 86, 21
1, 4116, Note_on_c, 0, 36, 72
1, 4116, Note_on_c, 0, 61, 30
1, 4116, Note_on_c, 0, 88, 20
1, 4117, Note_on_c, 0, 31, 77
1, 4117, Note_off_c, 0, 36, 64
1, 4117, Note_on_c, 0, 49, 60
1, 4117, Note_off_c, 0, 78, 64
1, 4117, Note_on_c, 0, 81, 28
1, 4118, Note_on_c, 0, 30, 80
1, 4118, Note_off_c, 0, 31, 64
1, 4118, Note_on_c, 0, 69, 20
1, 4118, Note_off_c, 0, 71, 64
1, 4118, Note_on_c, 0, 72, 32
1, 4118, Note_off_c, 0, 80, 64
1, 4118, Note_on_c, 0, 85, 20
1, 4118, Note_off_c, 0, 86, 64
1, 4119, Note_on_c, 0, 29, 80
1, 4119, Note_off_c, 0, 30, 64
1, 4119, Note_on_c, 0, 63, 28
1, 4120, Note_off_c, 0, 29, 64
1, 4120, Note_on_c, 0, 30, 77
1, 4120, Note_off_c, 0, 49, 64
1, 4120, Note_on_c, 0, 71, 32
1, 4120, Note_off_c, 0, 72, 64
1, 4120, Note_on_c, 0, 76, 32
1, 4120, Note_on_c, 0, 79, 14
1, 4120, Note_off_c, 0, 88, 64
1, 4121, Note_off_c, 0, 61, 64
1, 4121, Note_on_c, 0, 68, 24
1, 4121, Note_off_c, 0, 69, 64
1, 4122, Note_on_c, 0, 29, 74
1, 4122, Note_off_c, 0, 30, 64
1, 4122, Note_off_c, 0, 81, 64
1, 4122, Note_on_c, 0, 82, 11
1, 4123, Note_off_c, 0, 63, 64
1, 4123, Note_on_c, 0, 74, 23
1, 4123, Note_off_c, 0, 76, 64
1, 4123, Note_on_c, 0, 78, 20
1, 4123, Note_off_c, 0, 79, 64
1, 4124, Note_on_c, 0, 42, 67
1, 4124, Note_on_c, 0, 63, 31
1, 4124, Note_off_c, 0, 71, 64
1, 4125, Note_off_c, 0, 29, 64
1, 4125, Note_on_c, 0, 30, 79
1, 4125, Note_off_c, 0, 68, 64
1, 4125, Note_on_c, 0, 71, 31
1, 4125, Note_on_c, 0, 77, 30
1, 4125, Note_on_c, 0, 81, 19
1, 4125, Note_off_c, 0, 82, 64
1, 4126, Note_off_c, 0, 42, 64
1, 4126, Note_off_c, 0, 63, 64
1, 4126, Note_off_c, 0, 78, 64
1, 4126, Note_off_c, 0, 85, 64
1, 4127, Note_on_c, 0, 85, 21
1, 4128, Note_on_c, 0, 29, 80
1, 4128, Note_off_c, 0, 30, 64
1, 4128, Note_on_c, 0, 63, 29
1, 4128, Note_off_c, 0, 71, 64
1, 4128, Note_on_c, 0, 79, 28
1, 4128, Note_off_c, 0, 81, 64
1, 4128, Note_on_c, 0, 84, 18
1, 4129, Note_off_c, 0, 29, 64
1, 4129, Note_on_c, 0, 30, 78
1, 4129, Note_on_c, 0, 69, 24
1, 4129, Note_off_c, 0, 77, 64
1, 4129, Note_on_c, 0, 82, 10
1, 4130, Note_on_c, 0, 73, 27
1, 4130, Note_off_c, 0, 74, 64
1, 4130, Note_on_c, 0, 77, 22
1, 4131, Note_on_c, 0, 75, 36
1, 4131, Note_on_c, 0, 80, 40
1, 4131, Note_off_c, 0, 84, 64
1, 4132, Note_off_c, 0, 30, 64
1, 4132, Note_on_c, 0, 34, 72
1, 4132, Note_on_c, 0, 54, 32
1, 4132, Note_off_c, 0, 63, 64
1, 4132, Note_on_c, 0, 67, 33
1, 4132, Note_off_c, 0, 69, 64
1, 4132, Note_on_c, 0, 70, 41
1, 4132, Note_on_c, 0, 78, 37
1, 4132, Note_off_c, 0, 79, 64
1, 4132, Note_off_c, 0, 82, 64
1, 4132, Note_off_c, 0, 85, 64
1, 4133, Note_off_c, 0, 34, 64
1, 4133, Note_off_c, 0, 77, 64
1, 4133, Note_on_c, 0, 86, 34
1, 4134, Note_off_c, 0, 54, 64
1, 4134, Note_off_c, 0, 67, 64
1, 4134, Note_on_c, 0, 72, 41
1, 4134, Note_off_c, 0, 73, 64
1, 4134, Note_on_c, 0, 83, 29
1, 4134, Note_on_c, 0, 85, 29
1, 4134, Note_on_c, 0, 88, 31
1, 4135, Note_on_c, 0, 51, 74
1, 4135, Note_off_c, 0, 75, 64
1, 4135, Note_off_c, 0, 80, 64
1, 4136, Note_on_c, 0, 48, 86
1, 4136, Note_off_c, 0, 51, 64
1, 4136, Note_off_c, 0, 70, 64
1, 4136, Note_off_c, 0, 72, 64
1, 4136, Note_off_c, 0, 78, 64
1, 4136, Note_off_c, 0, 85, 64
1, 4136, Note_off_c, 0, 86, 64
1, 4136, Note_off_c, 0, 88, 64
1, 4137, Note_on_c, 0, 45, 95
1, 4137, Note_off_c, 0, 48, 64
1, 4137, Note_off_c, 0, 83, 64
1, 4138, Note_on_c, 0, 42, 100
1, 4138, Note_off_c, 0, 45, 64
1, 4138, Note_on_c, 0, 78, 10
1, 4139, Note_on_c, 0, 40, 97
1, 4139, Note_off_c, 0, 42, 64
1, 4140, Note_on_c, 0, 38, 98
1, 4140, Note_off_c, 0, 40, 64
1, 4141, Note_on_c, 0, 36, 98
1, 4141, Note_off_c, 0, 38, 64
1, 4141, Note_off_c, 0, 78, 64
1, 4142, Note_on_c, 0, 35, 97
1, 4142, Note_off_c, 0, 36, 64
1, 4143, Note_on_c, 0, 34, 96
1, 4143, Note_off_c, 0, 35, 64
1, 4144, Note_on_c, 0, 33, 96
1, 4144, Note_off_c, 0, 34, 64
1, 4145, Note_on_c, 0, 32, 96
1, 4145, Note_off_c, 0, 33, 64
1, 4145, Note_on_c, 0, 85, 14
1, 4147, Note_on_c, 0, 31, 94
1, 4147, Note_off_c, 0, 32, 64
1, 4149, Note_on_c, 0, 30, 84
1, 4149, Note_off_c, 0, 31, 64
1, 4149, Note_on_c, 0, 77, 14
1, 4149, Note_off_c, 0, 85, 64
1, 4152, Note_off_c, 0, 30, 64
1, 4152, Note_on_c, 0, 75, 19
1, 4152, Note_off_c, 0, 77, 64
1, 4152, Note_on_c, 0, 78, 24
1, 4152, Note_on_c, 0, 81, 26
1, 4152, Note_on_c, 0, 85, 20
1, 4153, Note_on_c, 0, 41, 68
1, 4154, Note_on_c, 0, 31, 73
1, 4154, Note_off_c, 0, 41, 64
1, 4154, Note_on_c, 0, 68, 24
1, 4154, Note_on_c, 0, 83, 19
1, 4154, Note_on_c, 0, 88, 12
1, 4154, Note_on_c, 0, 89, 15
1, 4155, Note_on_c, 0, 30, 80
1, 4155, Note_off_c, 0, 31, 64
1, 4155, Note_on_c, 0, 63, 33
1, 4156, Note_on_c, 0, 29, 81
1, 4156, Note_off_c, 0, 30, 64
1, 4156, Note_off_c, 0, 78, 64
1, 4156, Note_off_c, 0, 81, 64
1, 4157, Note_off_c, 0, 85, 64
1, 4157, Note_off_c, 0, 88, 64
1, 4157, Note_off_c, 0, 89, 64
1, 4158, Note_off_c, 0, 29, 64
1, 4158, Note_on_c, 0, 30, 76
1, 4158, Note_off_c, 0, 63, 64
1, 4158, Note_off_c, 0, 68, 64
1, 4158, Note_on_c, 0, 77, 28
1, 4159, Note_on_c, 0, 65, 21
1, 4159, Note_off_c, 0, 75, 64
1, 4160, Note_on_c, 0, 29, 74
1, 4160, Note_off_c, 0, 30, 64
1, 4160, Note_on_c, 0, 82, 25
1, 4160, Note_off_c, 0, 83, 64
1, 4160, Note_on_c, 0, 85, 21
1, 4161, Note_on_c, 0, 71, 20
1, 4161, Note_on_c, 0, 80, 25
1, 4162, Note_off_c, 0, 65, 64
1, 4162, Note_on_c, 0, 86, 18
1, 4163, Note_off_c, 0, 29, 64
1, 4163, Note_on_c, 0, 30, 75
1, 4163, Note_on_c, 0, 54, 53
1, 4163, Note_on_c, 0, 61, 30
1, 4163, Note_on_c, 0, 68, 25
1, 4163, Note_on_c, 0, 76, 29
1, 4164, Note_off_c, 0, 30, 64
1, 4164, Note_on_c, 0, 31, 79
1, 4164, Note_on_c, 0, 49, 60
1, 4164, Note_off_c, 0, 71, 64
1, 4164, Note_off_c, 0, 77, 64
1, 4164, Note_on_c, 0, 79, 16
1, 4165, Note_on_c, 0, 30, 80
1, 4165, Note_off_c, 0, 31, 64
1, 4165, Note_off_c, 0, 54, 64
1, 4165, Note_on_c, 0, 74, 13
1, 4165, Note_off_c, 0, 86, 64
1, 4166, Note_on_c, 0, 29, 80
1, 4166, Note_off_c, 0, 30, 64
1, 4166, Note_off_c, 0, 76, 64
1, 4167, Note_off_c, 0, 29, 64
1, 4167, Note_on_c, 0, 30, 77
1, 4167, Note_off_c, 0, 49, 64
1, 4167, Note_on_c, 0, 70, 18
1, 4167, Note_off_c, 0, 80, 64
1, 4167, Note_on_c, 0, 81, 23
1, 4168, Note_off_c, 0, 61, 64
1, 4168, Note_off_c, 0, 74, 64
1, 4168, Note_off_c, 0, 79, 64
1, 4169, Note_off_c, 0, 30, 64
1, 4169, Note_on_c, 0, 32, 73
1, 4169, Note_off_c, 0, 68, 64
1, 4169, Note_off_c, 0, 82, 64
1, 4169, Note_off_c, 0, 85, 64
1, 4170, Note_off_c, 0, 32, 64
1, 4170, Note_on_c, 0, 35, 68
1, 4170, Note_on_c, 0, 76, 42
1, 4170, Note_off_c, 0, 81, 64
1, 4170, Note_on_c, 0, 83, 31
1, 4170, Note_on_c, 0, 87, 32
1, 4170, Note_on_c, 0, 89, 22
1, 4170, Note_on_c, 0, 90, 27
1, 4170, Note_on_c, 0, 91, 27
1, 4170, Note_on_c, 0, 93, 26
1, 4170, Note_on_c, 0, 97, 24
1, 4170, Note_on_c, 0, 98, 20
1, 4171, Note_off_c, 0, 35, 64
1, 4171, Note_on_c, 0, 64, 50
1, 4171, Note_on_c, 0, 69, 42
1, 4171, Note_off_c, 0, 70, 64
1, 4171, Note_on_c, 0, 79, 36
1, 4171, Note_on_c, 0, 85, 38
1, 4172, Note_on_c, 0, 54, 67
1, 4172, Note_on_c, 0, 68, 43
1, 4172, Note_on_c, 0, 72, 39
1, 4172, Note_on_c, 0, 75, 39
1, 4172, Note_off_c, 0, 76, 64
1, 4173, Note_on_c, 0, 49, 82
1, 4173, Note_off_c, 0, 54, 64
1, 4173, Note_off_c, 0, 87, 64
1, 4173, Note_off_c, 0, 89, 64
1, 4173, Note_off_c, 0, 90, 64
1, 4173, Note_off_c, 0, 91, 64
1, 4173, Note_off_c, 0, 93, 64
1, 4173, Note_off_c, 0, 97, 64
1, 4173, Note_off_c, 0, 98, 64
1, 4174, Note_on_c, 0, 45, 92
1, 4174, Note_off_c, 0, 49, 64
1, 4174, Note_off_c, 0, 64, 64
1, 4174, Note_off_c, 0, 68, 64
1, 4174, Note_off_c, 0, 69, 64
1, 4174, Note_on_c, 0, 82, 13
1, 4174, Note_off_c, 0, 83, 64
1, 4174, Note_off_c, 0, 85, 64
1, 4175, Note_on_c, 0, 42, 98
1, 4175, Note_off_c, 0, 45, 64
1, 4175, Note_off_c, 0, 72, 64
1, 4175, Note_on_c, 0, 73, 12
1, 4175, Note_off_c, 0, 75, 64
1, 4176, Note_on_c, 0, 41, 100
1, 4176, Note_off_c, 0, 42, 64
1, 4176, Note_on_c, 0, 76, 19
1, 4177, Note_on_c, 0, 38, 98
1, 4177, Note_off_c, 0, 41, 64
1, 4177, Note_off_c, 0, 82, 64
1, 4178, Note_on_c, 0, 37, 98
1, 4178, Note_off_c, 0, 38, 64
1, 4178, Note_off_c, 0, 73, 64
1, 4178, Note_off_c, 0, 79, 64
1, 4179, Note_on_c, 0, 36, 97
1, 4179, Note_off_c, 0, 37, 64
1, 4179, Note_off_c, 0, 76, 64
1, 4180, Note_on_c, 0, 34, 96
1, 4180, Note_off_c, 0, 36, 64
1, 4180, Note_on_c, 0, 79, 18
1, 4181, Note_on_c, 0, 33, 96
1, 4181, Note_off_c, 0, 34, 64
1, 4181, Note_on_c, 0, 77, 11
1, 4183, Note_on_c, 0, 32, 97
1, 4183, Note_off_c, 0, 33, 64
1, 4184, Note_on_c, 0, 31, 95
1, 4184, Note_off_c, 0, 32, 64
1, 4184, Note_on_c, 0, 76, 10
1, 4184, Note_off_c, 0, 79, 64
1, 4184, Note_on_c, 0, 80, 16
1, 4185, Note_off_c, 0, 77, 64
1, 4187, Note_on_c, 0, 30, 78
1, 4187, Note_off_c, 0, 31, 64
1, 4187, Note_off_c, 0, 76, 64
1, 4187, Note_off_c, 0, 80, 64
1, 4187, Note_on_c, 0, 81, 9
1, 4188, Note_on_c, 0, 82, 24
1, 4188, Note_on_c, 0, 83, 17
1, 4189, Note_off_c, 0, 30, 64
1, 4190, Note_on_c, 0, 66, 25
1, 4190, Note_on_c, 0, 70, 16
1, 4190, Note_on_c, 0, 80, 21
1, 4190, Note_off_c, 0, 81, 64
1, 4190, Note_on_c, 0, 84, 16
1, 4190, Note_on_c, 0, 86, 24
1, 4191, Note_on_c, 0, 36, 71
1, 4191, Note_on_c, 0, 63, 27
1, 4191, Note_on_c, 0, 68, 21
1, 4191, Note_on_c, 0, 71, 24
1, 4191, Note_on_c, 0, 73, 20
1, 4191, Note_off_c, 0, 83, 64
1, 4192, Note_on_c, 0, 31, 78
1, 4192, Note_off_c, 0, 36, 64
1, 4193, Note_on_c, 0, 29, 81
1, 4193, Note_off_c, 0, 31, 64
1, 4193, Note_off_c, 0, 66, 64
1, 4193, Note_off_c, 0, 70, 64
1, 4193, Note_on_c, 0, 81, 19
1, 4193, Note_off_c, 0, 82, 64
1, 4194, Note_off_c, 0, 63, 64
1, 4194, Note_on_c, 0, 64, 29
1, 4194, Note_off_c, 0, 73, 64
1, 4194, Note_on_c, 0, 75, 17
1, 4194, Note_on_c, 0, 77, 18
1, 4194, Note_off_c, 0, 80, 64
1, 4195, Note_off_c, 0, 29, 64
1, 4195, Note_on_c, 0, 30, 77
1, 4195, Note_off_c, 0, 71, 64
1, 4195, Note_off_c, 0, 84, 64
1, 4195, Note_off_c, 0, 86, 64
1, 4196, Note_on_c, 0, 63, 33
1, 4196, Note_off_c, 0, 64, 64
1, 4196, Note_on_c, 0, 74, 15
1, 4196, Note_off_c, 0, 81, 64
1, 4197, Note_on_c, 0, 29, 75
1, 4197, Note_off_c, 0, 30, 64
1, 4197, Note_off_c, 0, 68, 64
1, 4197, Note_off_c, 0, 75, 64
1, 4197, Note_off_c, 0, 77, 64
1, 4197, Note_on_c, 0, 85, 14
1, 4198, Note_on_c, 0, 79, 22
1, 4198, Note_on_c, 0, 84, 24
1, 4199, Note_on_c, 0, 42, 68
1, 4199, Note_on_c, 0, 82, 15
1, 4200, Note_off_c, 0, 29, 64
1, 4200, Note_on_c, 0, 30, 79
1, 4200, Note_off_c, 0, 74, 64
1, 4200, Note_on_c, 0, 76, 21
1, 4200, Note_on_c, 0, 86, 20
1, 4200, Note_on_c, 0, 89, 15
1, 4201, Note_off_c, 0, 42, 64
1, 4201, Note_off_c, 0, 63, 64
1, 4201, Note_on_c, 0, 71, 30
1, 4201, Note_on_c, 0, 78, 21
1, 4201, Note_off_c, 0, 79, 64
1, 4201, Note_off_c, 0, 85, 64
1, 4202, Note_on_c, 0, 63, 37
1, 4203, Note_on_c, 0, 29, 80
1, 4203, Note_off_c, 0, 30, 64
1, 4203, Note_off_c, 0, 84, 64
1, 4203, Note_off_c, 0, 86, 64
1, 4204, Note_off_c, 0, 29, 64
1, 4204, Note_on_c, 0, 30, 78
1, 4204, Note_off_c, 0, 63, 64
1, 4204, Note_on_c, 0, 64, 19
1, 4204, Note_on_c, 0, 68, 17
1, 4204, Note_off_c, 0, 76, 64
1, 4204, Note_off_c, 0, 78, 64
1, 4204, Note_off_c, 0, 82, 64
1, 4204, Note_on_c, 0, 85, 35
1, 4206, Note_off_c, 0, 71, 64
1, 4206, Note_off_c, 0, 89, 64
1, 4207, Note_off_c, 0, 30, 64
1, 4207, Note_on_c, 0, 34, 72
1, 4207, Note_on_c, 0, 63, 53
1, 4207, Note_off_c, 0, 64, 64
1, 4207, Note_off_c, 0, 68, 64
1, 4207, Note_on_c, 0, 70, 33
1, 4208, Note_off_c, 0, 34, 64
1, 4208, Note_on_c, 0, 76, 37
1, 4208, Note_on_c, 0, 78, 39
1, 4208, Note_on_c, 0, 82, 33
1, 4208, Note_on_c, 0, 83, 36
1, 4208, Note_on_c, 0, 86, 34
1, 4208, Note_on_c, 0, 87, 30
1, 4208, Note_on_c, 0, 89, 27
1, 4209, Note_off_c, 0, 70, 64
1, 4209, Note_on_c, 0, 73, 42
1, 4209, Note_on_c, 0, 80, 33
1, 4210, Note_on_c, 0, 51, 76
1, 4210, Note_off_c, 0, 63, 64
1, 4211, Note_on_c, 0, 46, 86
1, 4211, Note_off_c, 0, 51, 64
1, 4211, Note_off_c, 0, 73, 64
1, 4211, Note_off_c, 0, 76, 64
1, 4211, Note_off_c, 0, 80, 64
1, 4211, Note_off_c, 0, 82, 64
1, 4211, Note_off_c, 0, 85, 64
1, 4211, Note_off_c, 0, 86, 64
1, 4211, Note_off_c, 0, 87, 64
1, 4211, Note_off_c, 0, 89, 64
1, 4212, Note_on_c, 0, 44, 95
1, 4212, Note_off_c, 0, 46, 64
1, 4212, Note_off_c, 0, 78, 64
1, 4213, Note_on_c, 0, 41, 100
1, 4213, Note_off_c, 0, 44, 64
1, 4213, Note_off_c, 0, 83, 64
1, 4214, Note_on_c, 0, 40, 97
1, 4214, Note_off_c, 0, 41, 64
1, 4215, Note_on_c, 0, 38, 99
1, 4215, Note_off_c, 0, 40, 64
1, 4216, Note_on_c, 0, 36, 98
1, 4216, Note_off_c, 0, 38, 64
1, 4217, Note_on_c, 0, 35, 97
1, 4217, Note_off_c, 0, 36, 64
1, 4218, Note_on_c, 0, 34, 96
1, 4218, Note_off_c, 0, 35, 64
1, 4219, Note_on_c, 0, 33, 96
1, 4219, Note_off_c, 0, 34, 64
1, 4220, Note_on_c, 0, 32, 97
1, 4220, Note_off_c, 0, 33, 64
1, 4222, Note_on_c, 0, 31, 94
1, 4222, Note_off_c, 0, 32, 64
1, 4224, Note_on_c, 0, 30, 83
1, 4224, Note_off_c, 0, 31, 64
1, 4225, Note_on_c, 0, 77, 24
1, 4227, Note_off_c, 0, 30, 64
1, 4227, Note_on_c, 0, 68, 23
1, 4227, Note_on_c, 0, 86, 21
1, 4228, Note_on_c, 0, 37, 69
1, 4228, Note_on_c, 0, 83, 19
1, 4229, Note_on_c, 0, 31, 74
1, 4229, Note_off_c, 0, 37, 64
1, 4230, Note_on_c, 0, 30, 80
1, 4230, Note_off_c, 0, 31, 64
1, 4230, Note_on_c, 0, 63, 30
1, 4230, Note_on_c, 0, 73, 18
1, 4230, Note_off_c, 0, 77, 64
1, 4230, Note_on_c, 0, 81, 14
1, 4231, Note_on_c, 0, 29, 80
1, 4231, Note_off_c, 0, 30, 64
1, 4231, Note_on_c, 0, 70, 19
1, 4232, Note_off_c, 0, 29, 64
1, 4232, Note_on_c, 0, 30, 78
1, 4232, Note_off_c, 0, 86, 64
1, 4233, Note_off_c, 0, 81, 64
1, 4234, Note_off_c, 0, 63, 64
1, 4234, Note_off_c, 0, 68, 64
1, 4234, Note_off_c, 0, 70, 64
1, 4234, Note_on_c, 0, 80, 20
1, 4234, Note_off_c, 0, 83, 64
1, 4235, Note_on_c, 0, 29, 74
1, 4235, Note_off_c, 0, 30, 64
1, 4235, Note_on_c, 0, 72, 18
1, 4235, Note_off_c, 0, 73, 64
1, 4236, Note_on_c, 0, 76, 21
1, 4237, Note_on_c, 0, 42, 65
1, 4237, Note_on_c, 0, 79, 11
1, 4237, Note_on_c, 0, 83, 23
1, 4237, Note_on_c, 0, 86, 20
1, 4238, Note_off_c, 0, 29, 64
1, 4238, Note_on_c, 0, 30, 75
1, 4238, Note_off_c, 0, 42, 64
1, 4238, Note_on_c, 0, 61, 34
1, 4238, Note_on_c, 0, 68, 20
1, 4238, Note_on_c, 0, 81, 16
1, 4239, Note_off_c, 0, 30, 64
1, 4239, Note_on_c, 0, 31, 78
1, 4239, Note_on_c, 0, 71, 27
1, 4239, Note_off_c, 0, 72, 64
1, 4239, Note_off_c, 0, 76, 64
1, 4239, Note_on_c, 0, 77, 26
1, 4239, Note_on_c, 0, 84, 16
1, 4240, Note_on_c, 0, 30, 80
1, 4240, Note_off_c, 0, 31, 64
1, 4240, Note_off_c, 0, 79, 64
1, 4241, Note_on_c, 0, 29, 79
1, 4241, Note_off_c, 0, 30, 64
1, 4241, Note_off_c, 0, 68, 64
1, 4241, Note_off_c, 0, 81, 64
1, 4242, Note_off_c, 0, 29, 64
1, 4242, Note_on_c, 0, 30, 77
1, 4242, Note_off_c, 0, 80, 64
1, 4242, Note_off_c, 0, 83, 64
1, 4242, Note_off_c, 0, 84, 64
1, 4243, Note_on_c, 0, 76, 41
1, 4243, Note_on_c, 0, 82, 19
1, 4244, Note_off_c, 0, 30, 64
1, 4244, Note_on_c, 0, 33, 73
1, 4244, Note_on_c, 0, 54, 38
1, 4244, Note_off_c, 0, 71, 64
1, 4244, Note_on_c, 0, 78, 37
1, 4244, Note_on_c, 0, 80, 38
1, 4244, Note_off_c, 0, 86, 64
1, 4245, Note_off_c, 0, 33, 64
1, 4245, Note_on_c, 0, 35, 67
1, 4245, Note_on_c, 0, 60, 46
1, 4245, Note_off_c, 0, 61, 64
1, 4245, Note_on_c, 0, 68, 43
1, 4245, Note_on_c, 0, 75, 37
1, 4245, Note_off_c, 0, 77, 64
1, 4245, Note_on_c, 0, 81, 39
1, 4245, Note_on_c, 0, 85, 33
1, 4245, Note_on_c, 0, 86, 33
1, 4245, Note_on_c, 0, 91, 30
1, 4245, Note_on_c, 0, 94, 23
1, 4245, Note_on_c, 0, 95, 23
1, 4245, Note_on_c, 0, 96, 23
1, 4246, Note_off_c, 0, 35, 64
1, 4246, Note_off_c, 0, 54, 64
1, 4246, Note_on_c, 0, 63, 50
1, 4246, Note_off_c, 0, 82, 64
1, 4246, Note_on_c, 0, 83, 32
1, 4247, Note_on_c, 0, 54, 68
1, 4247, Note_off_c, 0, 60, 64
1, 4247, Note_off_c, 0, 68, 64
1, 4247, Note_on_c, 0, 69, 39
1, 4247, Note_off_c, 0, 75, 64
1, 4248, Note_on_c, 0, 48, 83
1, 4248, Note_off_c, 0, 54, 64
1, 4248, Note_off_c, 0, 63, 64
1, 4248, Note_off_c, 0, 78, 64
1, 4248, Note_off_c, 0, 80, 64
1, 4248, Note_off_c, 0, 81, 64
1, 4248, Note_off_c, 0, 83, 64
1, 4248, Note_off_c, 0, 85, 64
1, 4248, Note_off_c, 0, 86, 64
1, 4248, Note_off_c, 0, 91, 64
1, 4248, Note_off_c, 0, 94, 64
1, 4248, Note_off_c, 0, 95, 64
1, 4248, Note_off_c, 0, 96, 64
1, 4249, Note_on_c, 0, 45, 93
1, 4249, Note_off_c, 0, 48, 64
1, 4249, Note_off_c, 0, 69, 64
1, 4250, Note_on_c, 0, 42, 99
1, 4250, Note_off_c, 0, 45, 64
1, 4250, Note_off_c, 0, 76, 64
1, 4251, Note_on_c, 0, 41, 99
1, 4251, Note_off_c, 0, 42, 64
1, 4252, Note_on_c, 0, 38, 98
1, 4252, Note_off_c, 0, 41, 64
1, 4253, Note_on_c, 0, 37, 98
1, 4253, Note_off_c, 0, 38, 64
1, 4254, Note_on_c, 0, 36, 97
1, 4254, Note_off_c, 0, 37, 64
1, 4255, Note_on_c, 0, 34, 96
1, 4255, Note_off_c, 0, 36, 64
1, 4256, Note_on_c, 0, 33, 96
1, 4256, Note_off_c, 0, 34, 64
1, 4258, Note_on_c, 0, 32, 97
1, 4258, Note_off_c, 0, 33, 64
1, 4259, Note_on_c, 0, 31, 95
1, 4259, Note_off_c, 0, 32, 64
1, 4260, Note_on_c, 0, 80, 11
1, 4262, Note_on_c, 0, 30, 77
1, 4262, Note_off_c, 0, 31, 64
1, 4264, Note_off_c, 0, 30, 64
1, 4264, Note_on_c, 0, 77, 19
1, 4264, Note_off_c, 0, 80, 64
1, 4265, Note_on_c, 0, 68, 20
1, 4265, Note_on_c, 0, 81, 21
1, 4265, Note_on_c, 0, 86, 18
1, 4266, Note_on_c, 0, 36, 71
1, 4266, Note_on_c, 0, 64, 30
1, 4266, Note_on_c, 0, 83, 15
1, 4267, Note_on_c, 0, 31, 79
1, 4267, Note_off_c, 0, 36, 64
1, 4267, Note_off_c, 0, 77, 64
1, 4268, Note_on_c, 0, 29, 81
1, 4268, Note_off_c, 0, 31, 64
1, 4268, Note_on_c, 0, 63, 28
1, 4268, Note_off_c, 0, 64, 64
1, 4269, Note_off_c, 0, 68, 64
1, 4269, Note_off_c, 0, 83, 64
1, 4269, Note_off_c, 0, 86, 64
1, 4270, Note_off_c, 0, 29, 64
1, 4270, Note_on_c, 0, 30, 77
1, 4270, Note_on_c, 0, 66, 15
1, 4270, Note_on_c, 0, 76, 23
1, 4271, Note_on_c, 0, 78, 15
1, 4272, Note_on_c, 0, 29, 75
1, 4272, Note_off_c, 0, 30, 64
1, 4272, Note_off_c, 0, 81, 64
1, 4272, Note_on_c, 0, 83, 19
1, 4273, Note_off_c, 0, 63, 64
1, 4273, Note_off_c, 0, 66, 64
1, 4274, Note_on_c, 0, 61, 32
1, 4274, Note_off_c, 0, 78, 64
1, 4275, Note_off_c, 0, 29, 64
1, 4275, Note_on_c, 0, 30, 80
1, 4275, Note_on_c, 0, 64, 28
1, 4275, Note_on_c, 0, 80, 23
1, 4275, Note_on_c, 0, 84, 17
1, 4275, Note_on_c, 0, 87, 14
1, 4276, Note_on_c, 0, 68, 17
1, 4276, Note_on_c, 0, 74, 19
1, 4276, Note_off_c, 0, 76, 64
1, 4276, Note_on_c, 0, 77, 21
1, 4276, Note_on_c, 0, 79, 16
1, 4277, Note_on_c, 0, 72, 21
1, 4278, Note_on_c, 0, 29, 80
1, 4278, Note_off_c, 0, 30, 64
1, 4278, Note_on_c, 0, 49, 59
1, 4278, Note_off_c, 0, 64, 64
1, 4278, Note_on_c, 0, 82, 21
1, 4278, Note_off_c, 0, 87, 64
1, 4279, Note_off_c, 0, 29, 64
1, 4279, Note_on_c, 0, 30, 78
1, 4279, Note_off_c, 0, 68, 64
1, 4279, Note_off_c, 0, 83, 64
1, 4279, Note_off_c, 0, 84, 64
1, 4280, Note_off_c, 0, 61, 64
1, 4280, Note_off_c, 0, 80, 64
1, 4280, Note_on_c, 0, 81, 27
1, 4281, Note_off_c, 0, 49, 64
1, 4281, Note_on_c, 0, 63, 52
1, 4281, Note_off_c, 0, 72, 64
1, 4281, Note_off_c, 0, 74, 64
1, 4281, Note_off_c, 0, 79, 64
1, 4281, Note_off_c, 0, 82, 64
1, 4282, Note_off_c, 0, 30, 64
1, 4282, Note_on_c, 0, 34, 71
1, 4282, Note_off_c, 0, 77, 64
1, 4283, Note_off_c, 0, 34, 64
1, 4283, Note_on_c, 0, 79, 34
1, 4283, Note_on_c, 0, 83, 32
1, 4283, Note_on_c, 0, 85, 31
1, 4283, Note_on_c, 0, 87, 29
1, 4283, Note_on_c, 0, 90, 26
1, 4284, Note_on_c, 0, 72, 43
1, 4284, Note_on_c, 0, 80, 35
1, 4285, Note_on_c, 0, 51, 78
1, 4286, Note_on_c, 0, 46, 88
1, 4286, Note_off_c, 0, 51, 64
1, 4286, Note_off_c, 0, 63, 64
1, 4286, Note_off_c, 0, 72, 64
1, 4286, Note_off_c, 0, 85, 64
1, 4286, Note_off_c, 0, 87, 64
1, 4286, Note_off_c, 0, 90, 64
1, 4287, Note_on_c, 0, 44, 95
1, 4287, Note_off_c, 0, 46, 64
1, 4287, Note_off_c, 0, 80, 64
1, 4288, Note_on_c, 0, 41, 100
1, 4288, Note_off_c, 0, 44, 64
1, 4288, Note_off_c, 0, 79, 64
1, 4288, Note_off_c, 0, 81, 64
1, 4288, Note_off_c, 0, 83, 64
1, 4289, Note_on_c, 0, 39, 97
1, 4289, Note_off_c, 0, 41, 64
1, 4290, Note_on_c, 0, 37, 99
1, 4290, Note_off_c, 0, 39, 64
1, 4291, Note_on_c, 0, 36, 98
1, 4291, Note_off_c, 0, 37, 64
1, 4292, Note_on_c, 0, 35, 97
1, 4292, Note_off_c, 0, 36, 64
1, 4293, Note_on_c, 0, 34, 96
1, 4293, Note_off_c, 0, 35, 64
1, 4294, Note_on_c, 0, 33, 96
1, 4294, Note_off_c, 0, 34, 64
1, 4295, Note_on_c, 0, 32, 97
1, 4295, Note_off_c, 0, 33, 64
1, 4295, Note_on_c, 0, 79, 13
1, 4297, Note_on_c, 0, 31, 94
1, 4297, Note_off_c, 0, 32, 64
1, 4298, Note_off_c, 0, 79, 64
1, 4299, Note_on_c, 0, 30, 83
1, 4299, Note_off_c, 0, 31, 64
1, 4301, Note_on_c, 0, 80, 21
1, 4302, Note_off_c, 0, 30, 64
1, 4302, Note_on_c, 0, 77, 29
1, 4302, Note_on_c, 0, 83, 12
1, 4303, Note_on_c, 0, 37, 70
1, 4303, Note_on_c, 0, 74, 12
1, 4303, Note_on_c, 0, 86, 15
1, 4304, Note_on_c, 0, 31, 75
1, 4304, Note_off_c, 0, 37, 64
1, 4304, Note_on_c, 0, 68, 18
1, 4305, Note_on_c, 0, 30, 80
1, 4305, Note_off_c, 0, 31, 64
1, 4306, Note_on_c, 0, 29, 81
1, 4306, Note_off_c, 0, 30, 64
1, 4306, Note_on_c, 0, 49, 57
1, 4306, Note_off_c, 0, 74, 64
1, 4306, Note_on_c, 0, 75, 16
1, 4306, Note_off_c, 0, 86, 64
1, 4307, Note_on_c, 0, 70, 12
1, 4307, Note_off_c, 0, 80, 64
1, 4308, Note_off_c, 0, 29, 64
1, 4308, Note_on_c, 0, 30, 76
1, 4308, Note_off_c, 0, 68, 64
1, 4308, Note_off_c, 0, 83, 64
1, 4309, Note_on_c, 0, 29, 75
1, 4309, Note_off_c, 0, 30, 64
1, 4309, Note_off_c, 0, 49, 64
1, 4309, Note_on_c, 0, 64, 14
1, 4309, Note_off_c, 0, 75, 64
1, 4310, Note_on_c, 0, 69, 21
1, 4310, Note_off_c, 0, 70, 64
1, 4310, Note_on_c, 0, 74, 16
1, 4312, Note_on_c, 0, 42, 65
1, 4312, Note_off_c, 0, 64, 64
1, 4312, Note_on_c, 0, 85, 19
1, 4313, Note_off_c, 0, 29, 64
1, 4313, Note_on_c, 0, 30, 80
1, 4313, Note_off_c, 0, 42, 64
1, 4313, Note_on_c, 0, 61, 31
1, 4313, Note_on_c, 0, 64, 25
1, 4313, Note_on_c, 0, 68, 23
1, 4313, Note_off_c, 0, 69, 64
1, 4313, Note_on_c, 0, 71, 24
1, 4313, Note_off_c, 0, 74, 64
1, 4314, Note_on_c, 0, 81, 12
1, 4315, Note_on_c, 0, 70, 17
1, 4316, Note_on_c, 0, 29, 80
1, 4316, Note_off_c, 0, 30, 64
1, 4316, Note_off_c, 0, 61, 64
1, 4316, Note_off_c, 0, 64, 64
1, 4316, Note_off_c, 0, 68, 64
1, 4316, Note_on_c, 0, 75, 19
1, 4316, Note_on_c, 0, 80, 36
1, 4316, Note_off_c, 0, 85, 64
1, 4317, Note_off_c, 0, 29, 64
1, 4317, Note_on_c, 0, 30, 77
1, 4317, Note_off_c, 0, 81, 64
1, 4318, Note_on_c, 0, 69, 22
1, 4318, Note_off_c, 0, 70, 64
1, 4319, Note_off_c, 0, 30, 64
1, 4319, Note_on_c, 0, 33, 73
1, 4319, Note_off_c, 0, 71, 64
1, 4320, Note_off_c, 0, 33, 64
1, 4320, Note_on_c, 0, 35, 67
1, 4320, Note_on_c, 0, 83, 39
1, 4320, Note_on_c, 0, 85, 35
1, 4320, Note_on_c, 0, 86, 36
1, 4320, Note_on_c, 0, 88, 32
1, 4320, Note_on_c, 0, 89, 29
1, 4320, Note_on_c, 0, 90, 27
1, 4320, Note_on_c, 0, 91, 28
1, 4320, Note_on_c, 0, 93, 27
1, 4320, Note_on_c, 0, 94, 23
1, 4320, Note_on_c, 0, 96, 20
1, 4321, Note_off_c, 0, 35, 64
1, 4321, Note_off_c, 0, 69, 64
1, 4321, Note_off_c, 0, 75, 64
1, 4321, Note_off_c, 0, 77, 64
1, 4321, Note_on_c, 0, 78, 40
1, 4322, Note_on_c, 0, 53, 70
1, 4322, Note_on_c, 0, 64, 49
1, 4322, Note_off_c, 0, 80, 64
1, 4323, Note_on_c, 0, 48, 84
1, 4323, Note_off_c, 0, 53, 64
1, 4323, Note_off_c, 0, 78, 64
1, 4323, Note_off_c, 0, 83, 64
1, 4323, Note_off_c, 0, 85, 64
1, 4323, Note_off_c, 0, 86, 64
1, 4323, Note_off_c, 0, 88, 64
1, 4323, Note_off_c, 0, 89, 64
1, 4323, Note_off_c, 0, 90, 64
1, 4323, Note_off_c, 0, 91, 64
1, 4323, Note_off_c, 0, 93, 64
1, 4323, Note_off_c, 0, 94, 64
1, 4323, Note_off_c, 0, 96, 64
1, 4324, Note_on_c, 0, 45, 94
1, 4324, Note_off_c, 0, 48, 64
1, 4324, Note_off_c, 0, 64, 64
1, 4325, Note_on_c, 0, 42, 99
1, 4325, Note_off_c, 0, 45, 64
1, 4326, Note_on_c, 0, 40, 99
1, 4326, Note_off_c, 0, 42, 64
1, 4327, Note_on_c, 0, 38, 98
1, 4327, Note_off_c, 0, 40, 64
1, 4328, Note_on_c, 0, 37, 98
1, 4328, Note_off_c, 0, 38, 64
1, 4329, Note_on_c, 0, 35, 97
1, 4329, Note_off_c, 0, 37, 64
1, 4330, Note_on_c, 0, 34, 96
1, 4330, Note_off_c, 0, 35, 64
1, 4331, Note_on_c, 0, 33, 96
1, 4331, Note_off_c, 0, 34, 64
1, 4332, Note_on_c, 0, 32, 97
1, 4332, Note_off_c, 0, 33, 64
1, 4334, Note_on_c, 0, 31, 95
1, 4334, Note_off_c, 0, 32, 64
1, 4337, Note_on_c, 0, 30, 76
1, 4337, Note_off_c, 0, 31, 64
1, 4339, Note_off_c, 0, 30, 64
1, 4340, Note_on_c, 0, 80, 15
1, 4340, Note_on_c, 0, 82, 21
1, 4341, Note_on_c, 0, 36, 71
1, 4341, Note_on_c, 0, 64, 29
1, 4341, Note_on_c, 0, 68, 19
1, 4341, Note_on_c, 0, 71, 16
1, 4341, Note_on_c, 0, 74, 20
1, 4342, Note_on_c, 0, 30, 79
1, 4342, Note_off_c, 0, 36, 64
1, 4343, Note_on_c, 0, 29, 81
1, 4343, Note_off_c, 0, 30, 64
1, 4343, Note_on_c, 0, 77, 19
1, 4343, Note_off_c, 0, 80, 64
1, 4344, Note_off_c, 0, 64, 64
1, 4344, Note_off_c, 0, 82, 64
1, 4345, Note_off_c, 0, 29, 64
1, 4345, Note_on_c, 0, 30, 76
1, 4345, Note_off_c, 0, 68, 64
1, 4345, Note_off_c, 0, 71, 64
1, 4345, Note_off_c, 0, 74, 64
1, 4346, Note_on_c, 0, 76, 17
1, 4346, Note_off_c, 0, 77, 64
1, 4347, Note_on_c, 0, 29, 74
1, 4347, Note_off_c, 0, 30, 64
1, 4347, Note_on_c, 0, 71, 10
1, 4347, Note_on_c, 0, 79, 27
1, 4349, Note_on_c, 0, 74, 22
1, 4349, Note_off_c, 0, 76, 64
1, 4350, Note_off_c, 0, 29, 64
1, 4350, Note_on_c, 0, 30, 80
1, 4350, Note_on_c, 0, 61, 33
1, 4350, Note_on_c, 0, 68, 23
1, 4350, Note_off_c, 0, 71, 64
1, 4350, Note_on_c, 0, 83, 18
1, 4351, Note_on_c, 0, 49, 61
1, 4351, Note_on_c, 0, 70, 13
1, 4352, Note_on_c, 0, 77, 28
1, 4352, Note_off_c, 0, 79, 64
1, 4352, Note_on_c, 0, 85, 15
1, 4353, Note_on_c, 0, 29, 80
1, 4353, Note_off_c, 0, 30, 64
1, 4353, Note_on_c, 0, 63, 24
1, 4353, Note_on_c, 0, 66, 15
1, 4353, Note_off_c, 0, 74, 64
1, 4353, Note_on_c, 0, 79, 30
1, 4354, Note_off_c, 0, 29, 64
1, 4354, Note_on_c, 0, 30, 78
1, 4354, Note_off_c, 0, 83, 64
1, 4355, Note_off_c, 0, 61, 64
1, 4355, Note_off_c, 0, 68, 64
1, 4355, Note_off_c, 0, 70, 64
1, 4355, Note_off_c, 0, 85, 64
1, 4356, Note_off_c, 0, 49, 64
1, 4356, Note_off_c, 0, 63, 64
1, 4356, Note_off_c, 0, 66, 64
1, 4356, Note_off_c, 0, 77, 64
1, 4357, Note_off_c, 0, 30, 64
1, 4357, Note_on_c, 0, 34, 70
1, 4357, Note_on_c, 0, 81, 36
1, 4357, Note_on_c, 0, 83, 31
1, 4357, Note_on_c, 0, 85, 30
1, 4357, Note_on_c, 0, 86, 32
1, 4358, Note_off_c, 0, 34, 64
1, 4358, Note_on_c, 0, 77, 38
1, 4358, Note_on_c, 0, 87, 31
1, 4359, Note_on_c, 0, 74, 37
1, 4359, Note_on_c, 0, 80, 31
1, 4360, Note_on_c, 0, 51, 78
1, 4360, Note_off_c, 0, 81, 64
1, 4360, Note_off_c, 0, 85, 64
1, 4360, Note_off_c, 0, 86, 64
1, 4360, Note_off_c, 0, 87, 64
1, 4361, Note_on_c, 0, 46, 89
1, 4361, Note_off_c, 0, 51, 64
1, 4361, Note_off_c, 0, 74, 64
1, 4361, Note_off_c, 0, 77, 64
1, 4361, Note_off_c, 0, 79, 64
1, 4361, Note_off_c, 0, 80, 64
1, 4361, Note_off_c, 0, 83, 64
1, 4362, Note_on_c, 0, 43, 96
1, 4362, Note_off_c, 0, 46, 64
1, 4363, Note_on_c, 0, 41, 100
1, 4363, Note_off_c, 0, 43, 64
1, 4364, Note_on_c, 0, 39, 97
1, 4364, Note_off_c, 0, 41, 64
1, 4365, Note_on_c, 0, 37, 99
1, 4365, Note_off_c, 0, 39, 64
1, 4366, Note_on_c, 0, 36, 98
1, 4366, Note_off_c, 0, 37, 64
1, 4367, Note_on_c, 0, 35, 97
1, 4367, Note_off_c, 0, 36, 64
1, 4368, Note_on_c, 0, 34, 96
1, 4368, Note_off_c, 0, 35, 64
1, 4369, Note_on_c, 0, 33, 96
1, 4369, Note_off_c, 0, 34, 64
1, 4369, Note_on_c, 0, 61, 40
1, 4370, Note_on_c, 0, 32, 97
1, 4370, Note_off_c, 0, 33, 64
1, 4372, Note_on_c, 0, 31, 94
1, 4372, Note_off_c, 0, 32, 64
1, 4372, Note_on_c, 0, 49, 21
1, 4374, Note_on_c, 0, 30, 82
1, 4374, Note_off_c, 0, 31, 64
1, 4375, Note_off_c, 0, 49, 64
1, 4376, Note_off_c, 0, 30, 64
1, 4377, Note_on_c, 0, 80, 21
1, 4377, Note_on_c, 0, 85, 13
1, 4378, Note_on_c, 0, 36, 71
1, 4378, Note_on_c, 0, 64, 33
1, 4378, Note_on_c, 0, 86, 16
1, 4379, Note_on_c, 0, 31, 75
1, 4379, Note_off_c, 0, 36, 64
1, 4379, Note_on_c, 0, 68, 14
1, 4379, Note_on_c, 0, 70, 27
1, 4380, Note_on_c, 0, 30, 80
1, 4380, Note_off_c, 0, 31, 64
1, 4380, Note_on_c, 0, 71, 22
1, 4380, Note_off_c, 0, 80, 64
1, 4381, Note_on_c, 0, 29, 80
1, 4381, Note_off_c, 0, 30, 64
1, 4381, Note_off_c, 0, 64, 64
1, 4381, Note_on_c, 0, 77, 20
1, 4381, Note_off_c, 0, 86, 64
1, 4382, Note_off_c, 0, 68, 64
1, 4382, Note_on_c, 0, 76, 20
1, 4382, Note_off_c, 0, 85, 64
1, 4383, Note_off_c, 0, 29, 64
1, 4383, Note_on_c, 0, 30, 76
1, 4383, Note_on_c, 0, 66, 26
1, 4383, Note_off_c, 0, 71, 64
1, 4384, Note_on_c, 0, 29, 75
1, 4384, Note_off_c, 0, 30, 64
1, 4384, Note_on_c, 0, 53, 40
1, 4385, Note_on_c, 0, 75, 18
1, 4385, Note_off_c, 0, 76, 64
1, 4385, Note_off_c, 0, 77, 64
1, 4385, Note_on_c, 0, 80, 14
1, 4386, Note_off_c, 0, 61, 64
1, 4386, Note_on_c, 0, 64, 42
1, 4386, Note_off_c, 0, 70, 64
1, 4386, Note_on_c, 0, 72, 27
1, 4387, Note_off_c, 0, 29, 64
1, 4387, Note_on_c, 0, 30, 77
1, 4387, Note_off_c, 0, 53, 64
1, 4387, Note_off_c, 0, 66, 64
1, 4387, Note_on_c, 0, 79, 17
1, 4387, Note_on_c, 0, 82, 23
1, 4387, Note_on_c, 0, 83, 16
1, 4388, Note_on_c, 0, 70, 38
1, 4388, Note_on_c, 0, 74, 17
1, 4388, Note_off_c, 0, 75, 64
1, 4388, Note_off_c, 0, 80, 64
1, 4389, Note_off_c, 0, 30, 64
1, 4389, Note_on_c, 0, 31, 80
1, 4389, Note_on_c, 0, 49, 62
1, 4389, Note_off_c, 0, 72, 64
1, 4390, Note_on_c, 0, 30, 80
1, 4390, Note_off_c, 0, 31, 64
1, 4390, Note_on_c, 0, 66, 35
1, 4391, Note_on_c, 0, 29, 79
1, 4391, Note_off_c, 0, 30, 64
1, 4391, Note_off_c, 0, 74, 64
1, 4391, Note_off_c, 0, 79, 64
1, 4391, Note_off_c, 0, 83, 64
1, 4391, Note_on_c, 0, 86, 18
1, 4392, Note_off_c, 0, 29, 64
1, 4392, Note_on_c, 0, 30, 77
1, 4392, Note_on_c, 0, 79, 38
1, 4393, Note_on_c, 0, 74, 16
1, 4394, Note_off_c, 0, 30, 64
1, 4394, Note_on_c, 0, 33, 73
1, 4394, Note_on_c, 0, 48, 55
1, 4394, Note_off_c, 0, 49, 64
1, 4394, Note_off_c, 0, 66, 64
1, 4394, Note_on_c, 0, 67, 42
1, 4394, Note_off_c, 0, 82, 64
1, 4394, Note_off_c, 0, 86, 64
1, 4395, Note_off_c, 0, 33, 64
1, 4395, Note_on_c, 0, 35, 66
1, 4395, Note_on_c, 0, 76, 47
1, 4395, Note_on_c, 0, 78, 39
1, 4395, Note_on_c, 0, 83, 35
1, 4395, Note_on_c, 0, 85, 36
1, 4395, Note_on_c, 0, 86, 31
1, 4395, Note_on_c, 0, 92, 27
1, 4395, Note_on_c, 0, 93, 27
1, 4395, Note_on_c, 0, 94, 24
1, 4395, Note_on_c, 0, 96, 22
1, 4396, Note_off_c, 0, 35, 64
1, 4396, Note_off_c, 0, 48, 64
1, 4396, Note_off_c, 0, 64, 64
1, 4396, Note_on_c, 0, 66, 59
1, 4396, Note_off_c, 0, 67, 64
1, 4396, Note_off_c, 0, 70, 64
1, 4396, Note_off_c, 0, 74, 64
1, 4396, Note_on_c, 0, 82, 34
1, 4396, Note_on_c, 0, 89, 31
1, 4397, Note_on_c, 0, 53, 73
1, 4397, Note_on_c, 0, 64, 55
1, 4398, Note_on_c, 0, 48, 85
1, 4398, Note_off_c, 0, 53, 64
1, 4398, Note_off_c, 0, 76, 64
1, 4398, Note_off_c, 0, 79, 64
1, 4398, Note_off_c, 0, 82, 64
1, 4398, Note_off_c, 0, 89, 64
1, 4398, Note_off_c, 0, 92, 64
1, 4398, Note_off_c, 0, 93, 64
1, 4398, Note_off_c, 0, 94, 64
1, 4398, Note_off_c, 0, 96, 64
1, 4399, Note_on_c, 0, 45, 94
1, 4399, Note_off_c, 0, 48, 64
1, 4399, Note_on_c, 0, 74, 24
1, 4399, Note_off_c, 0, 86, 64
1, 4400, Note_on_c, 0, 42, 99
1, 4400, Note_off_c, 0, 45, 64
1, 4400, Note_on_c, 0, 61, 33
1, 4400, Note_off_c, 0, 64, 64
1, 4400, Note_on_c, 0, 80, 18
1, 4401, Note_on_c, 0, 40, 98
1, 4401, Note_off_c, 0, 42, 64
1, 4401, Note_on_c, 0, 54, 23
1, 4401, Note_on_c, 0, 81, 18
1, 4402, Note_on_c, 0, 38, 98
1, 4402, Note_off_c, 0, 40, 64
1, 4402, Note_on_c, 0, 73, 41
1, 4402, Note_on_c, 0, 77, 35
1, 4402, Note_on_c, 0, 88, 14
1, 4403, Note_on_c, 0, 37, 98
1, 4403, Note_off_c, 0, 38, 64
1, 4404, Note_on_c, 0, 35, 97
1, 4404, Note_off_c, 0, 37, 64
1, 4404, Note_off_c, 0, 74, 64
1, 4404, Note_off_c, 0, 78, 64
1, 4404, Note_on_c, 0, 86, 34
1, 4405, Note_on_c, 0, 34, 96
1, 4405, Note_off_c, 0, 35, 64
1, 4405, Note_off_c, 0, 81, 64
1, 4405, Note_off_c, 0, 88, 64
1, 4406, Note_on_c, 0, 33, 96
1, 4406, Note_off_c, 0, 34, 64
1, 4406, Note_on_c, 0, 87, 12
1, 4407, Note_on_c, 0, 32, 96
1, 4407, Note_off_c, 0, 33, 64
1, 4407, Note_on_c, 0, 79, 33
1, 4407, Note_off_c, 0, 80, 64
1, 4407, Note_off_c, 0, 85, 64
1, 4408, Note_off_c, 0, 54, 64
1, 4408, Note_on_c, 0, 84, 27
1, 4409, Note_on_c, 0, 31, 95
1, 4409, Note_off_c, 0, 32, 64
1, 4409, Note_on_c, 0, 75, 29
1, 4410, Note_on_c, 0, 82, 29
1, 4410, Note_on_c, 0, 88, 26
1, 4411, Note_off_c, 0, 75, 64
1, 4411, Note_on_c, 0, 76, 45
1, 4412, Note_on_c, 0, 30, 75
1, 4412, Note_off_c, 0, 31, 64
1, 4412, Note_on_c, 0, 72, 34
1, 4413, Note_on_c, 0, 68, 31
1, 4413, Note_off_c, 0, 73, 64
1, 4413, Note_off_c, 0, 77, 64
1, 4413, Note_on_c, 0, 80, 37
1, 4413, Note_off_c, 0, 87, 64
1, 4414, Note_off_c, 0, 30, 64
1, 4414, Note_on_c, 0, 70, 37
1, 4414, Note_off_c, 0, 72, 64
1, 4414, Note_off_c, 0, 79, 64
1, 4414, Note_off_c, 0, 83, 64
1, 4414, Note_on_c, 0, 85, 39
1, 4414, Note_on_c, 0, 89, 25
1, 4414, Note_on_c, 0, 90, 15
1, 4415, Note_on_c, 0, 42, 66
1, 4415, Note_off_c, 0, 68, 64
1, 4415, Note_on_c, 0, 81, 35
1, 4415, Note_on_c, 0, 83, 34
1, 4415, Note_off_c, 0, 84, 64
1, 4416, Note_on_c, 0, 32, 71
1, 4416, Note_off_c, 0, 42, 64
1, 4416, Note_off_c, 0, 66, 64
1, 4416, Note_on_c, 0, 68, 37
1, 4416, Note_on_c, 0, 87, 18
1, 4417, Note_on_c, 0, 30, 79
1, 4417, Note_off_c, 0, 32, 64
1, 4417, Note_on_c, 0, 72, 23
1, 4417, Note_on_c, 0, 79, 29
1, 4417, Note_off_c, 0, 80, 64
1, 4417, Note_off_c, 0, 88, 64
1, 4417, Note_off_c, 0, 90, 64
1, 4418, Note_on_c, 0, 29, 80
1, 4418, Note_off_c, 0, 30, 64
1, 4418, Note_on_c, 0, 78, 43
1, 4418, Note_off_c, 0, 82, 64
1, 4419, Note_off_c, 0, 61, 64
1, 4419, Note_on_c, 0, 63, 32
1, 4419, Note_on_c, 0, 74, 21
1, 4419, Note_off_c, 0, 79, 64
1, 4420, Note_off_c, 0, 29, 64
1, 4420, Note_on_c, 0, 30, 77
1, 4420, Note_on_c, 0, 48, 58
1, 4420, Note_off_c, 0, 76, 64
1, 4420, Note_off_c, 0, 89, 64
1, 4421, Note_on_c, 0, 61, 27
1, 4421, Note_off_c, 0, 63, 64
1, 4421, Note_off_c, 0, 68, 64
1, 4421, Note_on_c, 0, 76, 25
1, 4421, Note_off_c, 0, 83, 64
1, 4421, Note_off_c, 0, 85, 64
1, 4421, Note_off_c, 0, 86, 64
1, 4421, Note_off_c, 0, 87, 64
1, 4422, Note_on_c, 0, 29, 74
1, 4422, Note_off_c, 0, 30, 64
1, 4422, Note_off_c, 0, 72, 64
1, 4422, Note_off_c, 0, 74, 64
1, 4422, Note_off_c, 0, 81, 64
1, 4422, Note_on_c, 0, 84, 13
1, 4423, Note_off_c, 0, 48, 64
1, 4423, Note_off_c, 0, 78, 64
1, 4424, Note_off_c, 0, 61, 64
1, 4424, Note_off_c, 0, 70, 64
1, 4424, Note_off_c, 0, 76, 64
1, 4424, Note_on_c, 0, 77, 16
1, 4424, Note_on_c, 0, 79, 13
1, 4424, Note_on_c, 0, 82, 17
1, 4425, Note_off_c, 0, 29, 64
1, 4425, Note_on_c, 0, 30, 74
1, 4425, Note_on_c, 0, 74, 28
1, 4425, Note_on_c, 0, 87, 10
1, 4425, Note_on_c, 0, 88, 11
1, 4426, Note_off_c, 0, 30, 64
1, 4426, Note_on_c, 0, 31, 78
1, 4426, Note_on_c, 0, 49, 62
1, 4427, Note_on_c, 0, 30, 80
1, 4427, Note_off_c, 0, 31, 64
1, 4427, Note_off_c, 0, 77, 64
1, 4427, Note_on_c, 0, 81, 15
1, 4427, Note_off_c, 0, 84, 64
1, 4428, Note_on_c, 0, 29, 80
1, 4428, Note_off_c, 0, 30, 64
1, 4428, Note_on_c, 0, 78, 16
1, 4428, Note_off_c, 0, 87, 64
1, 4428, Note_off_c, 0, 88, 64
1, 4429, Note_off_c, 0, 29, 64
1, 4429, Note_on_c, 0, 30, 77
1, 4430, Note_off_c, 0, 79, 64
1, 4430, Note_off_c, 0, 82, 64
1, 4431, Note_on_c, 0, 48, 57
1, 4431, Note_off_c, 0, 49, 64
1, 4431, Note_on_c, 0, 54, 44
1, 4431, Note_off_c, 0, 78, 64
1, 4431, Note_off_c, 0, 81, 64
1, 4432, Note_off_c, 0, 30, 64
1, 4432, Note_on_c, 0, 34, 69
1, 4432, Note_on_c, 0, 59, 35
1, 4432, Note_on_c, 0, 69, 39
1, 4432, Note_off_c, 0, 74, 64
1, 4432, Note_on_c, 0, 75, 39
1, 4432, Note_on_c, 0, 78, 36
1, 4432, Note_on_c, 0, 84, 34
1, 4432, Note_on_c, 0, 85, 31
1, 4432, Note_on_c, 0, 86, 34
1, 4432, Note_on_c, 0, 88, 27
1, 4433, Note_off_c, 0, 34, 64
1, 4433, Note_off_c, 0, 48, 64
1, 4433, Note_off_c, 0, 54, 64
1, 4433, Note_on_c, 0, 89, 30
1, 4434, Note_off_c, 0, 59, 64
1, 4434, Note_on_c, 0, 68, 45
1, 4434, Note_off_c, 0, 69, 64
1, 4434, Note_on_c, 0, 74, 37
1, 4434, Note_on_c, 0, 77, 34
1, 4434, Note_off_c, 0, 78, 64
1, 4434, Note_on_c, 0, 79, 34
1, 4434, Note_on_c, 0, 83, 30
1, 4434, Note_off_c, 0, 84, 64
1, 4435, Note_on_c, 0, 50, 79
1, 4435, Note_on_c, 0, 65, 33
1, 4435, Note_off_c, 0, 89, 64
1, 4436, Note_on_c, 0, 45, 91
1, 4436, Note_off_c, 0, 50, 64
1, 4436, Note_off_c, 0, 68, 64
1, 4436, Note_on_c, 0, 73, 16
1, 4436, Note_off_c, 0, 75, 64
1, 4436, Note_off_c, 0, 77, 64
1, 4436, Note_off_c, 0, 79, 64
1, 4436, Note_off_c, 0, 88, 64
1, 4437, Note_on_c, 0, 43, 97
1, 4437, Note_off_c, 0, 45, 64
1, 4437, Note_on_c, 0, 61, 23
1, 4437, Note_off_c, 0, 65, 64
1, 4437, Note_off_c, 0, 74, 64
1, 4437, Note_off_c, 0, 85, 64
1, 4438, Note_on_c, 0, 41, 100
1, 4438, Note_off_c, 0, 43, 64
1, 4439, Note_on_c, 0, 39, 97
1, 4439, Note_off_c, 0, 41, 64
1, 4439, Note_on_c, 0, 66, 23
1, 4439, Note_off_c, 0, 86, 64
1, 4440, Note_on_c, 0, 37, 98
1, 4440, Note_off_c, 0, 39, 64
1, 4440, Note_off_c, 0, 73, 64
1, 4441, Note_on_c, 0, 36, 97
1, 4441, Note_off_c, 0, 37, 64
1, 4441, Note_on_c, 0, 76, 17
1, 4442, Note_on_c, 0, 35, 96
1, 4442, Note_off_c, 0, 36, 64
1, 4443, Note_on_c, 0, 34, 95
1, 4443, Note_off_c, 0, 35, 64
1, 4443, Note_on_c, 0, 85, 18
1, 4444, Note_on_c, 0, 33, 95
1, 4444, Note_off_c, 0, 34, 64
1, 4444, Note_on_c, 0, 79, 14
1, 4445, Note_on_c, 0, 32, 96
1, 4445, Note_off_c, 0, 33, 64
1, 4445, Note_on_c, 0, 86, 13
1, 4446, Note_on_c, 0, 31, 95
1, 4446, Note_off_c, 0, 32, 64
1, 4446, Note_off_c, 0, 76, 64
1, 4446, Note_on_c, 0, 82, 13
1, 4446, Note_off_c, 0, 83, 64
1, 4447, Note_off_c, 0, 79, 64
1, 4447, Note_off_c, 0, 85, 64
1, 4449, Note_on_c, 0, 30, 81
1, 4449, Note_off_c, 0, 31, 64
1, 4449, Note_off_c, 0, 82, 64
1, 4449, Note_off_c, 0, 86, 64
1, 4451, Note_off_c, 0, 61, 64
1, 4451, Note_on_c, 0, 81, 43
1, 4451, Note_on_c, 0, 86, 32
1, 4452, Note_off_c, 0, 30, 64
1, 4452, Note_on_c, 0, 75, 39
1, 4452, Note_on_c, 0, 78, 53
1, 4452, Note_on_c, 0, 84, 42
1, 4452, Note_on_c, 0, 88, 31
1, 4452, Note_on_c, 0, 95, 20
1, 4453, Note_on_c, 0, 36, 70
1, 4453, Note_on_c, 0, 61, 31
1, 4453, Note_off_c, 0, 66, 64
1, 4453, Note_on_c, 0, 79, 42
1, 4453, Note_on_c, 0, 82, 50
1, 4453, Note_on_c, 0, 92, 19
1, 4454, Note_on_c, 0, 31, 76
1, 4454, Note_off_c, 0, 36, 64
1, 4454, Note_on_c, 0, 49, 61
1, 4454, Note_on_c, 0, 64, 30
1, 4454, Note_on_c, 0, 71, 47
1, 4454, Note_off_c, 0, 75, 64
1, 4454, Note_on_c, 0, 76, 48
1, 4454, Note_on_c, 0, 85, 40
1, 4454, Note_on_c, 0, 89, 34
1, 4455, Note_on_c, 0, 30, 79
1, 4455, Note_off_c, 0, 31, 64
1, 4455, Note_on_c, 0, 73, 48
1, 4455, Note_off_c, 0, 79, 64
1, 4455, Note_on_c, 0, 80, 54
1, 4455, Note_on_c, 0, 87, 17
1, 4455, Note_off_c, 0, 95, 64
1, 4456, Note_on_c, 0, 29, 79
1, 4456, Note_off_c, 0, 30, 64
1, 4456, Note_off_c, 0, 61, 64
1, 4456, Note_on_c, 0, 70, 44
1, 4456, Note_on_c, 0, 77, 38
1, 4456, Note_off_c, 0, 82, 64
1, 4456, Note_off_c, 0, 86, 64
1, 4456, Note_on_c, 0, 95, 10
1, 4457, Note_off_c, 0, 29, 64
1, 4457, Note_on_c, 0, 30, 76
1, 4457, Note_off_c, 0, 49, 64
1, 4457, Note_off_c, 0, 64, 64
1, 4457, Note_off_c, 0, 71, 64
1, 4457, Note_off_c, 0, 73, 64
1, 4457, Note_on_c, 0, 74, 38
1, 4457, Note_off_c, 0, 78, 64
1, 4458, Note_on_c, 0, 79, 46
1, 4458, Note_off_c, 0, 81, 64
1, 4458, Note_off_c, 0, 87, 64
1, 4458, Note_off_c, 0, 89, 64
1, 4458, Note_off_c, 0, 92, 64
1, 4459, Note_on_c, 0, 29, 74
1, 4459, Note_off_c, 0, 30, 64
1, 4459, Note_on_c, 0, 48, 51
1, 4459, Note_on_c, 0, 69, 38
1, 4459, Note_off_c, 0, 70, 64
1, 4459, Note_off_c, 0, 74, 64
1, 4459, Note_on_c, 0, 75, 34
1, 4459, Note_off_c, 0, 76, 64
1, 4459, Note_off_c, 0, 85, 64
1, 4460, Note_on_c, 0, 66, 40
1, 4460, Note_on_c, 0, 72, 49
1, 4460, Note_on_c, 0, 74, 38
1, 4460, Note_off_c, 0, 79, 64
1, 4460, Note_off_c, 0, 84, 64
1, 4460, Note_on_c, 0, 85, 31
1, 4460, Note_on_c, 0, 90, 19
1, 4460, Note_off_c, 0, 95, 64
1, 4461, Note_off_c, 0, 48, 64
1, 4461, Note_off_c, 0, 75, 64
1, 4461, Note_on_c, 0, 76, 41
1, 4461, Note_off_c, 0, 77, 64
1, 4461, Note_on_c, 0, 83, 41
1, 4461, Note_on_c, 0, 87, 27
1, 4461, Note_on_c, 0, 94, 15
1, 4462, Note_off_c, 0, 29, 64
1, 4462, Note_on_c, 0, 30, 79
1, 4462, Note_off_c, 0, 69, 64
1, 4462, Note_off_c, 0, 74, 64
1, 4463, Note_on_c, 0, 68, 35
1, 4463, Note_off_c, 0, 72, 64
1, 4463, Note_on_c, 0, 75, 42
1, 4463, Note_off_c, 0, 76, 64
1, 4463, Note_on_c, 0, 84, 36
1, 4463, Note_off_c, 0, 88, 64
1, 4464, Note_on_c, 0, 64, 32
1, 4464, Note_off_c, 0, 66, 64
1, 4464, Note_on_c, 0, 70, 31
1, 4464, Note_on_c, 0, 72, 41
1, 4464, Note_off_c, 0, 85, 64
1, 4464, Note_off_c, 0, 94, 64
1, 4465, Note_on_c, 0, 29, 80
1, 4465, Note_off_c, 0, 30, 64
1, 4465, Note_off_c, 0, 68, 64
1, 4465, Note_off_c, 0, 75, 64
1, 4465, Note_on_c, 0, 78, 45
1, 4465, Note_off_c, 0, 80, 64
1, 4465, Note_on_c, 0, 85, 25
1, 4465, Note_on_c, 0, 88, 17
1, 4466, Note_off_c, 0, 64, 64
1, 4466, Note_off_c, 0, 70, 64
1, 4466, Note_on_c, 0, 79, 35
1, 4466, Note_on_c, 0, 80, 39
1, 4466, Note_off_c, 0, 84, 64
1, 4466, Note_off_c, 0, 87, 64
1, 4467, Note_off_c, 0, 29, 64
1, 4467, Note_on_c, 0, 30, 76
1, 4467, Note_on_c, 0, 74, 19
1, 4468, Note_on_c, 0, 82, 33
1, 4469, Note_off_c, 0, 30, 64
1, 4469, Note_on_c, 0, 34, 72
1, 4469, Note_on_c, 0, 67, 39
1, 4469, Note_on_c, 0, 75, 31
1, 4469, Note_off_c, 0, 79, 64
1, 4469, Note_off_c, 0, 85, 64
1, 4469, Note_on_c, 0, 87, 33
1, 4469, Note_off_c, 0, 90, 64
1, 4470, Note_on_c, 0, 61, 51
1, 4470, Note_off_c, 0, 72, 64
1, 4470, Note_off_c, 0, 74, 64
1, 4470, Note_off_c, 0, 88, 64
1, 4470, Note_on_c, 0, 89, 29
1, 4470, Note_on_c, 0, 91, 21
1, 4470, Note_on_c, 0, 93, 27
1, 4471, Note_off_c, 0, 34, 64
1, 4471, Note_on_c, 0, 66, 53
1, 4471, Note_off_c, 0, 67, 64
1, 4471, Note_off_c, 0, 75, 64
1, 4471, Note_on_c, 0, 76, 43
1, 4471, Note_off_c, 0, 83, 64
1, 4471, Note_on_c, 0, 84, 31
1, 4471, Note_off_c, 0, 87, 64
1, 4472, Note_on_c, 0, 51, 72
1, 4472, Note_off_c, 0, 61, 64
1, 4472, Note_off_c, 0, 82, 64
1, 4473, Note_on_c, 0, 48, 85
1, 4473, Note_off_c, 0, 51, 64
1, 4473, Note_off_c, 0, 78, 64
1, 4473, Note_off_c, 0, 89, 64
1, 4473, Note_off_c, 0, 91, 64
1, 4473, Note_off_c, 0, 93, 64
1, 4474, Note_on_c, 0, 45, 94
1, 4474, Note_off_c, 0, 48, 64
1, 4474, Note_off_c, 0, 66, 64
1, 4474, Note_on_c, 0, 78, 15
1, 4474, Note_off_c, 0, 80, 64
1, 4474, Note_off_c, 0, 84, 64
1, 4475, Note_on_c, 0, 42, 99
1, 4475, Note_off_c, 0, 45, 64
1, 4476, Note_on_c, 0, 40, 98
1, 4476, Note_off_c, 0, 42, 64
1, 4476, Note_off_c, 0, 76, 64
1, 4477, Note_on_c, 0, 38, 98
1, 4477, Note_off_c, 0, 40, 64
1, 4477, Note_off_c, 0, 78, 64
1, 4478, Note_on_c, 0, 36, 98
1, 4478, Note_off_c, 0, 38, 64
1, 4479, Note_on_c, 0, 35, 97
1, 4479, Note_off_c, 0, 36, 64
1, 4480, Note_on_c, 0, 34, 96
1, 4480, Note_off_c, 0, 35, 64
1, 4480, Note_on_c, 0, 84, 24
1, 4481, Note_on_c, 0, 33, 95
1, 4481, Note_off_c, 0, 34, 64
1, 4481, Note_on_c, 0, 78, 24
1, 4481, Note_on_c, 0, 81, 21
1, 4481, Note_on_c, 0, 82, 31
1, 4482, Note_on_c, 0, 32, 96
1, 4482, Note_off_c, 0, 33, 64
1, 4482, Note_on_c, 0, 80, 31
1, 4482, Note_on_c, 0, 85, 15
1, 4483, Note_on_c, 0, 73, 23
1, 4483, Note_on_c, 0, 89, 10
1, 4484, Note_on_c, 0, 31, 94
1, 4484, Note_off_c, 0, 32, 64
1, 4484, Note_on_c, 0, 77, 20
1, 4484, Note_off_c, 0, 82, 64
1, 4485, Note_off_c, 0, 78, 64
1, 4485, Note_on_c, 0, 83, 24
1, 4485, Note_off_c, 0, 84, 64
1, 4486, Note_on_c, 0, 30, 85
1, 4486, Note_off_c, 0, 31, 64
1, 4486, Note_off_c, 0, 73, 64
1, 4486, Note_on_c, 0, 75, 16
1, 4486, Note_off_c, 0, 81, 64
1, 4487, Note_off_c, 0, 85, 64
1, 4487, Note_on_c, 0, 86, 25
1, 4487, Note_off_c, 0, 89, 64
1, 4488, Note_on_c, 0, 72, 29
1, 4488, Note_on_c, 0, 85, 18
1, 4489, Note_off_c, 0, 30, 64
1, 4489, Note_on_c, 0, 43, 66
1, 4489, Note_on_c, 0, 88, 15
1, 4490, Note_off_c, 0, 75, 64
1, 4490, Note_off_c, 0, 77, 64
1, 4490, Note_on_c, 0, 78, 32
1, 4490, Note_off_c, 0, 83, 64
1, 4491, Note_on_c, 0, 31, 72
1, 4491, Note_off_c, 0, 43, 64
1, 4491, Note_on_c, 0, 74, 33
1, 4491, Note_on_c, 0, 76, 18
1, 4492, Note_on_c, 0, 30, 79
1, 4492, Note_off_c, 0, 31, 64
1, 4492, Note_on_c, 0, 70, 19
1, 4492, Note_off_c, 0, 72, 64
1, 4492, Note_off_c, 0, 78, 64
1, 4492, Note_on_c, 0, 84, 20
1, 4492, Note_off_c, 0, 85, 64
1, 4492, Note_off_c, 0, 88, 64
1, 4493, Note_on_c, 0, 29, 80
1, 4493, Note_off_c, 0, 30, 64
1, 4493, Note_on_c, 0, 66, 21
1, 4494, Note_off_c, 0, 76, 64
1, 4495, Note_off_c, 0, 29, 64
1, 4495, Note_on_c, 0, 30, 76
1, 4495, Note_on_c, 0, 79, 15
1, 4495, Note_off_c, 0, 80, 64
1, 4495, Note_on_c, 0, 83, 20
1, 4497, Note_on_c, 0, 29, 74
1, 4497, Note_off_c, 0, 30, 64
1, 4497, Note_off_c, 0, 70, 64
1, 4497, Note_off_c, 0, 74, 64
1, 4497, Note_on_c, 0, 77, 20
1, 4497, Note_on_c, 0, 82, 14
1, 4497, Note_off_c, 0, 84, 64
1, 4498, Note_on_c, 0, 70, 13
1, 4499, Note_on_c, 0, 61, 34
1, 4499, Note_on_c, 0, 64, 32
1, 4499, Note_off_c, 0, 66, 64
1, 4499, Note_off_c, 0, 83, 64
1, 4499, Note_on_c, 0, 85, 26
1, 4500, Note_off_c, 0, 29, 64
1, 4500, Note_on_c, 0, 30, 79
1, 4500, Note_on_c, 0, 68, 11
1, 4500, Note_on_c, 0, 81, 16
1, 4500, Note_off_c, 0, 82, 64
1, 4501, Note_on_c, 0, 49, 62
1, 4501, Note_on_c, 0, 74, 17
1, 4501, Note_off_c, 0, 79, 64
1, 4502, Note_off_c, 0, 70, 64
1, 4503, Note_on_c, 0, 29, 79
1, 4503, Note_off_c, 0, 30, 64
1, 4503, Note_off_c, 0, 64, 64
1, 4503, Note_off_c, 0, 77, 64
1, 4503, Note_off_c, 0, 86, 64
1, 4504, Note_off_c, 0, 29, 64
1, 4504, Note_on_c, 0, 30, 76
1, 4504, Note_off_c, 0, 49, 64
1, 4504, Note_on_c, 0, 76, 16
1, 4504, Note_off_c, 0, 81, 64
1, 4505, Note_off_c, 0, 61, 64
1, 4505, Note_off_c, 0, 68, 64
1, 4505, Note_off_c, 0, 74, 64
1, 4505, Note_on_c, 0, 77, 40
1, 4505, Note_off_c, 0, 85, 64
1, 4506, Note_off_c, 0, 30, 64
1, 4506, Note_on_c, 0, 31, 72
1, 4506, Note_on_c, 0, 54, 40
1, 4507, Note_off_c, 0, 31, 64
1, 4507, Note_on_c, 0, 35, 69
1, 4507, Note_on_c, 0, 82, 41
1, 4507, Note_on_c, 0, 83, 43
1, 4507, Note_on_c, 0, 85, 38
1, 4507, Note_on_c, 0, 88, 35
1, 4507, Note_on_c, 0, 90, 30
1, 4508, Note_off_c, 0, 35, 64
1, 4508, Note_off_c, 0, 54, 64
1, 4508, Note_on_c, 0, 75, 40
1, 4508, Note_off_c, 0, 76, 64
1, 4508, Note_on_c, 0, 79, 33
1, 4509, Note_on_c, 0, 80, 35
1, 4509, Note_off_c, 0, 85, 64
1, 4509, Note_on_c, 0, 86, 33
1, 4510, Note_on_c, 0, 49, 79
1, 4510, Note_off_c, 0, 77, 64
1, 4510, Note_on_c, 0, 78, 33
1, 4510, Note_off_c, 0, 79, 64
1, 4510, Note_on_c, 0, 84, 23
1, 4510, Note_on_c, 0, 85, 22
1, 4510, Note_off_c, 0, 90, 64
1, 4511, Note_on_c, 0, 45, 90
1, 4511, Note_off_c, 0, 49, 64
1, 4511, Note_off_c, 0, 83, 64
1, 4511, Note_off_c, 0, 86, 64
1, 4511, Note_off_c, 0, 88, 64
1, 4512, Note_on_c, 0, 42, 96
1, 4512, Note_off_c, 0, 45, 64
1, 4512, Note_off_c, 0, 75, 64
1, 4513, Note_on_c, 0, 41, 99
1, 4513, Note_off_c, 0, 42, 64
1, 4513, Note_off_c, 0, 78, 64
1, 4513, Note_on_c, 0, 83, 21
1, 4514, Note_on_c, 0, 38, 97
1, 4514, Note_off_c, 0, 41, 64
1, 4514, Note_on_c, 0, 79, 30
1, 4514, Note_off_c, 0, 84, 64
1, 4515, Note_on_c, 0, 37, 98
1, 4515, Note_off_c, 0, 38, 64
1, 4515, Note_on_c, 0, 77, 23
1, 4515, Note_off_c, 0, 80, 64
1, 4516, Note_on_c, 0, 36, 97
1, 4516, Note_off_c, 0, 37, 64
1, 4516, Note_on_c, 0, 66, 11
1, 4516, Note_on_c, 0, 72, 26
1, 4516, Note_off_c, 0, 79, 64
1, 4516, Note_off_c, 0, 82, 64
1, 4517, Note_on_c, 0, 35, 96
1, 4517, Note_off_c, 0, 36, 64
1, 4517, Note_on_c, 0, 76, 16
1, 4517, Note_on_c, 0, 80, 25
1, 4518, Note_on_c, 0, 34, 96
1, 4518, Note_off_c, 0, 35, 64
1, 4518, Note_off_c, 0, 77, 64
1, 4518, Note_on_c, 0, 78, 22
1, 4519, Note_on_c, 0, 33, 95
1, 4519, Note_off_c, 0, 34, 64
1, 4519, Note_off_c, 0, 66, 64
1, 4519, Note_on_c, 0, 75, 15
1, 4520, Note_on_c, 0, 32, 96
1, 4520, Note_off_c, 0, 33, 64
1, 4520, Note_off_c, 0, 76, 64
1, 4521, Note_on_c, 0, 31, 95
1, 4521, Note_off_c, 0, 32, 64
1, 4521, Note_off_c, 0, 80, 64
1, 4521, Note_on_c, 0, 81, 12
1, 4521, Note_off_c, 0, 85, 64
1, 4521, Note_on_c, 0, 86, 20
1, 4522, Note_off_c, 0, 75, 64
1, 4523, Note_off_c, 0, 72, 64
1, 4523, Note_off_c, 0, 83, 64
1, 4524, Note_on_c, 0, 30, 79
1, 4524, Note_off_c, 0, 31, 64
1, 4524, Note_on_c, 0, 79, 17
1, 4524, Note_off_c, 0, 81, 64
1, 4524, Note_on_c, 0, 82, 14
1, 4526, Note_off_c, 0, 30, 64
1, 4527, Note_on_c, 0, 64, 26
1, 4527, Note_on_c, 0, 68, 19
1, 4527, Note_off_c, 0, 78, 64
1, 4527, Note_on_c, 0, 80, 20
1, 4527, Note_on_c, 0, 85, 27
1, 4527, Note_on_c, 0, 87, 10
1, 4528, Note_on_c, 0, 36, 71
1, 4528, Note_on_c, 0, 61, 28
1, 4528, Note_off_c, 0, 79, 64
1, 4529, Note_on_c, 0, 31, 77
1, 4529, Note_off_c, 0, 36, 64
1, 4529, Note_on_c, 0, 49, 60
1, 4529, Note_on_c, 0, 71, 14
1, 4529, Note_on_c, 0, 74, 17
1, 4529, Note_off_c, 0, 82, 64
1, 4530, Note_on_c, 0, 30, 80
1, 4530, Note_off_c, 0, 31, 64
1, 4530, Note_on_c, 0, 66, 13
1, 4531, Note_on_c, 0, 29, 79
1, 4531, Note_off_c, 0, 30, 64
1, 4531, Note_on_c, 0, 63, 20
1, 4531, Note_off_c, 0, 64, 64
1, 4531, Note_off_c, 0, 80, 64
1, 4531, Note_on_c, 0, 81, 13
1, 4531, Note_off_c, 0, 87, 64
1, 4532, Note_off_c, 0, 29, 64
1, 4532, Note_on_c, 0, 30, 76
1, 4532, Note_off_c, 0, 49, 64
1, 4532, Note_off_c, 0, 71, 64
1, 4532, Note_off_c, 0, 86, 64
1, 4533, Note_off_c, 0, 61, 64
1, 4533, Note_off_c, 0, 66, 64
1, 4533, Note_off_c, 0, 68, 64
1, 4533, Note_off_c, 0, 74, 64
1, 4534, Note_on_c, 0, 29, 75
1, 4534, Note_off_c, 0, 30, 64
1, 4534, Note_off_c, 0, 63, 64
1, 4534, Note_off_c, 0, 85, 64
1, 4535, Note_off_c, 0, 81, 64
1, 4536, Note_on_c, 0, 76, 20
1, 4536, Note_on_c, 0, 81, 26
1, 4536, Note_on_c, 0, 84, 25
1, 4537, Note_off_c, 0, 29, 64
1, 4537, Note_on_c, 0, 30, 79
1, 4537, Note_on_c, 0, 78, 31
1, 4537, Note_on_c, 0, 87, 14
1, 4537, Note_on_c, 0, 88, 20
1, 4538, Note_on_c, 0, 64, 32
1, 4538, Note_on_c, 0, 68, 17
1, 4538, Note_on_c, 0, 71, 26
1, 4538, Note_on_c, 0, 82, 25
1, 4538, Note_on_c, 0, 85, 34
1, 4539, Note_off_c, 0, 76, 64
1, 4539, Note_on_c, 0, 80, 19
1, 4540, Note_on_c, 0, 29, 80
1, 4540, Note_off_c, 0, 30, 64
1, 4540, Note_on_c, 0, 49, 58
1, 4540, Note_off_c, 0, 64, 64
1, 4540, Note_off_c, 0, 78, 64
1, 4540, Note_on_c, 0, 79, 27
1, 4540, Note_off_c, 0, 81, 64
1, 4541, Note_off_c, 0, 29, 64
1, 4541, Note_on_c, 0, 30, 78
1, 4541, Note_off_c, 0, 68, 64
1, 4541, Note_off_c, 0, 87, 64
1, 4542, Note_off_c, 0, 71, 64
1, 4542, Note_off_c, 0, 80, 64
1, 4542, Note_off_c, 0, 82, 64
1, 4542, Note_off_c, 0, 84, 64
1, 4542, Note_off_c, 0, 88, 64
1, 4543, Note_off_c, 0, 49, 64
1, 4543, Note_on_c, 0, 73, 38
1, 4544, Note_off_c, 0, 30, 64
1, 4544, Note_on_c, 0, 34, 72
1, 4544, Note_on_c, 0, 54, 31
1, 4545, Note_off_c, 0, 34, 64
1, 4545, Note_on_c, 0, 76, 39
1, 4545, Note_on_c, 0, 78, 38
1, 4545, Note_off_c, 0, 79, 64
1, 4545, Note_on_c, 0, 81, 30
1, 4545, Note_on_c, 0, 82, 32
1, 4545, Note_on_c, 0, 86, 32
1, 4545, Note_on_c, 0, 87, 28
1, 4545, Note_on_c, 0, 89, 29
1, 4545, Note_on_c, 0, 91, 26
1, 4546, Note_off_c, 0, 54, 64
1, 4546, Note_on_c, 0, 72, 45
1, 4546, Note_off_c, 0, 73, 64
1, 4547, Note_on_c, 0, 51, 74
1, 4548, Note_on_c, 0, 48, 86
1, 4548, Note_off_c, 0, 51, 64
1, 4548, Note_off_c, 0, 76, 64
1, 4548, Note_off_c, 0, 81, 64
1, 4548, Note_off_c, 0, 82, 64
1, 4548, Note_off_c, 0, 85, 64
1, 4548, Note_off_c, 0, 87, 64
1, 4548, Note_off_c, 0, 89, 64
1, 4548, Note_off_c, 0, 91, 64
1, 4549, Note_on_c, 0, 45, 95
1, 4549, Note_off_c, 0, 48, 64
1, 4549, Note_off_c, 0, 72, 64
1, 4550, Note_on_c, 0, 42, 100
1, 4550, Note_off_c, 0, 45, 64
1, 4550, Note_off_c, 0, 78, 64
1, 4551, Note_on_c, 0, 40, 97
1, 4551, Note_off_c, 0, 42, 64
1, 4552, Note_on_c, 0, 38, 98
1, 4552, Note_off_c, 0, 40, 64
1, 4553, Note_on_c, 0, 36, 98
1, 4553, Note_off_c, 0, 38, 64
1, 4554, Note_on_c, 0, 35, 97
1, 4554, Note_off_c, 0, 36, 64
1, 4555, Note_on_c, 0, 34, 96
1, 4555, Note_off_c, 0, 35, 64
1, 4555, Note_off_c, 0, 86, 64
1, 4556, Note_on_c, 0, 33, 96
1, 4556, Note_off_c, 0, 34, 64
1, 4557, Note_on_c, 0, 32, 97
1, 4557, Note_off_c, 0, 33, 64
1, 4559, Note_on_c, 0, 31, 94
1, 4559, Note_off_c, 0, 32, 64
1, 4561, Note_on_c, 0, 30, 84
1, 4561, Note_off_c, 0, 31, 64
1, 4564, Note_off_c, 0, 30, 64
1, 4564, Note_on_c, 0, 76, 31
1, 4564, Note_on_c, 0, 78, 32
1, 4564, Note_on_c, 0, 81, 28
1, 4564, Note_on_c, 0, 82, 32
1, 4564, Note_on_c, 0, 84, 30
1, 4565, Note_on_c, 0, 37, 68
1, 4565, Note_on_c, 0, 79, 26
1, 4566, Note_on_c, 0, 31, 73
1, 4566, Note_off_c, 0, 37, 64
1, 4566, Note_on_c, 0, 61, 29
1, 4566, Note_on_c, 0, 64, 30
1, 4566, Note_on_c, 0, 68, 22
1, 4566, Note_on_c, 0, 71, 27
1, 4566, Note_on_c, 0, 85, 19
1, 4567, Note_on_c, 0, 30, 79
1, 4567, Note_off_c, 0, 31, 64
1, 4568, Note_on_c, 0, 29, 80
1, 4568, Note_off_c, 0, 30, 64
1, 4568, Note_on_c, 0, 63, 23
1, 4568, Note_off_c, 0, 64, 64
1, 4568, Note_off_c, 0, 78, 64
1, 4568, Note_off_c, 0, 82, 64
1, 4569, Note_off_c, 0, 71, 64
1, 4569, Note_off_c, 0, 76, 64
1, 4570, Note_off_c, 0, 29, 64
1, 4570, Note_on_c, 0, 30, 76
1, 4570, Note_off_c, 0, 61, 64
1, 4570, Note_off_c, 0, 68, 64
1, 4570, Note_off_c, 0, 84, 64
1, 4571, Note_off_c, 0, 63, 64
1, 4572, Note_on_c, 0, 29, 73
1, 4572, Note_off_c, 0, 30, 64
1, 4572, Note_off_c, 0, 79, 64
1, 4573, Note_on_c, 0, 76, 23
1, 4574, Note_on_c, 0, 68, 23
1, 4574, Note_on_c, 0, 70, 25
1, 4574, Note_on_c, 0, 80, 38
1, 4574, Note_on_c, 0, 89, 12
1, 4575, Note_off_c, 0, 29, 64
1, 4575, Note_on_c, 0, 30, 80
1, 4575, Note_on_c, 0, 54, 54
1, 4575, Note_on_c, 0, 61, 31
1, 4575, Note_on_c, 0, 64, 31
1, 4575, Note_on_c, 0, 83, 24
1, 4575, Note_off_c, 0, 85, 64
1, 4576, Note_on_c, 0, 49, 61
1, 4576, Note_off_c, 0, 76, 64
1, 4576, Note_on_c, 0, 78, 18
1, 4576, Note_on_c, 0, 85, 12
1, 4577, Note_off_c, 0, 54, 64
1, 4577, Note_off_c, 0, 70, 64
1, 4577, Note_on_c, 0, 84, 12
1, 4578, Note_on_c, 0, 29, 79
1, 4578, Note_off_c, 0, 30, 64
1, 4578, Note_on_c, 0, 63, 24
1, 4578, Note_off_c, 0, 64, 64
1, 4578, Note_off_c, 0, 89, 64
1, 4579, Note_off_c, 0, 29, 64
1, 4579, Note_on_c, 0, 30, 77
1, 4579, Note_off_c, 0, 49, 64
1, 4579, Note_off_c, 0, 68, 64
1, 4579, Note_off_c, 0, 83, 64
1, 4579, Note_off_c, 0, 85, 64
1, 4580, Note_off_c, 0, 61, 64
1, 4580, Note_off_c, 0, 78, 64
1, 4580, Note_off_c, 0, 81, 64
1, 4580, Note_on_c, 0, 82, 20
1, 4580, Note_off_c, 0, 84, 64
1, 4580, Note_on_c, 0, 86, 32
1, 4581, Note_off_c, 0, 30, 64
1, 4581, Note_on_c, 0, 32, 72
1, 4581, Note_on_c, 0, 54, 37
1, 4581, Note_off_c, 0, 63, 64
1, 4582, Note_off_c, 0, 32, 64
1, 4582, Note_on_c, 0, 35, 68
1, 4582, Note_on_c, 0, 73, 42
1, 4582, Note_on_c, 0, 75, 38
1, 4582, Note_on_c, 0, 83, 36
1, 4582, Note_on_c, 0, 84, 31
1, 4582, Note_on_c, 0, 89, 24
1, 4582, Note_on_c, 0, 90, 28
1, 4582, Note_on_c, 0, 91, 27
1, 4582, Note_on_c, 0, 93, 24
1, 4583, Note_off_c, 0, 35, 64
1, 4583, Note_off_c, 0, 54, 64
1, 4583, Note_on_c, 0, 55, 66
1, 4583, Note_on_c, 0, 77, 39
1, 4583, Note_off_c, 0, 82, 64
1, 4583, Note_on_c, 0, 88, 30
1, 4584, Note_off_c, 0, 75, 64
1, 4585, Note_on_c, 0, 48, 82
1, 4585, Note_off_c, 0, 55, 64
1, 4585, Note_off_c, 0, 73, 64
1, 4585, Note_off_c, 0, 80, 64
1, 4585, Note_off_c, 0, 84, 64
1, 4585, Note_off_c, 0, 86, 64
1, 4585, Note_off_c, 0, 88, 64
1, 4585, Note_off_c, 0, 89, 64
1, 4585, Note_off_c, 0, 90, 64
1, 4585, Note_off_c, 0, 91, 64
1, 4585, Note_off_c, 0, 93, 64
1, 4586, Note_on_c, 0, 45, 93
1, 4586, Note_off_c, 0, 48, 64
1, 4586, Note_off_c, 0, 77, 64
1, 4586, Note_off_c, 0, 83, 64
1, 4587, Note_on_c, 0, 42, 98
1, 4587, Note_off_c, 0, 45, 64
1, 4588, Note_on_c, 0, 41, 100
1, 4588, Note_off_c, 0, 42, 64
1, 4589, Note_on_c, 0, 38, 98
1, 4589, Note_off_c, 0, 41, 64
1, 4590, Note_on_c, 0, 37, 98
1, 4590, Note_off_c, 0, 38, 64
1, 4591, Note_on_c, 0, 36, 97
1, 4591, Note_off_c, 0, 37, 64
1, 4592, Note_on_c, 0, 34, 96
1, 4592, Note_off_c, 0, 36, 64
1, 4593, Note_on_c, 0, 33, 96
1, 4593, Note_off_c, 0, 34, 64
1, 4593, Note_on_c, 0, 78, 16
1, 4594, Note_on_c, 0, 82, 14
1, 4595, Note_on_c, 0, 32, 96
1, 4595, Note_off_c, 0, 33, 64
1, 4595, Note_on_c, 0, 80, 21
1, 4596, Note_on_c, 0, 31, 95
1, 4596, Note_off_c, 0, 32, 64
1, 4596, Note_off_c, 0, 78, 64
1, 4597, Note_off_c, 0, 82, 64
1, 4599, Note_on_c, 0, 30, 78
1, 4599, Note_off_c, 0, 31, 64
1, 4600, Note_off_c, 0, 80, 64
1, 4601, Note_off_c, 0, 30, 64
1, 4602, Note_on_c, 0, 68, 17
1, 4602, Note_on_c, 0, 74, 12
1, 4602, Note_on_c, 0, 86, 13
1, 4603, Note_on_c, 0, 36, 72
1, 4603, Note_on_c, 0, 61, 30
1, 4603, Note_on_c, 0, 80, 20
1, 4604, Note_on_c, 0, 31, 78
1, 4604, Note_off_c, 0, 36, 64
1, 4605, Note_on_c, 0, 29, 81
1, 4605, Note_off_c, 0, 31, 64
1, 4605, Note_on_c, 0, 70, 16
1, 4605, Note_off_c, 0, 74, 64
1, 4605, Note_on_c, 0, 79, 18
1, 4606, Note_on_c, 0, 63, 25
1, 4606, Note_on_c, 0, 78, 12
1, 4607, Note_off_c, 0, 29, 64
1, 4607, Note_on_c, 0, 30, 77
1, 4607, Note_off_c, 0, 80, 64
1, 4608, Note_off_c, 0, 61, 64
1, 4608, Note_off_c, 0, 68, 64
1, 4608, Note_off_c, 0, 70, 64
1, 4608, Note_off_c, 0, 79, 64
1, 4609, Note_on_c, 0, 29, 75
1, 4609, Note_off_c, 0, 30, 64
1, 4609, Note_off_c, 0, 78, 64
1, 4609, Note_off_c, 0, 86, 64
1, 4610, Note_off_c, 0, 63, 64
1, 4612, Note_off_c, 0, 29, 64
1, 4612, Note_on_c, 0, 30, 80
1, 4612, Note_on_c, 0, 61, 30
1, 4612, Note_on_c, 0, 81, 19
1, 4612, Note_on_c, 0, 85, 17
1, 4613, Note_on_c, 0, 64, 30
1, 4613, Note_on_c, 0, 68, 18
1, 4613, Note_on_c, 0, 79, 11
1, 4615, Note_on_c, 0, 29, 80
1, 4615, Note_off_c, 0, 30, 64
1, 4615, Note_on_c, 0, 49, 59
1, 4615, Note_on_c, 0, 63, 27
1, 4615, Note_off_c, 0, 64, 64
1, 4615, Note_on_c, 0, 71, 14
1, 4616, Note_off_c, 0, 81, 64
1, 4616, Note_off_c, 0, 85, 64
1, 4617, Note_off_c, 0, 29, 64
1, 4617, Note_on_c, 0, 30, 76
1, 4617, Note_off_c, 0, 79, 64
1, 4618, Note_off_c, 0, 49, 64
1, 4618, Note_off_c, 0, 61, 64
1, 4618, Note_off_c, 0, 68, 64
1, 4618, Note_off_c, 0, 71, 64
1, 4619, Note_off_c, 0, 30, 64
1, 4619, Note_on_c, 0, 34, 72
1, 4619, Note_on_c, 0, 54, 32
1, 4619, Note_off_c, 0, 63, 64
1, 4619, Note_on_c, 0, 82, 36
1, 4620, Note_off_c, 0, 34, 64
1, 4620, Note_on_c, 0, 75, 40
1, 4620, Note_on_c, 0, 77, 41
1, 4620, Note_on_c, 0, 83, 36
1, 4620, Note_on_c, 0, 88, 27
1, 4621, Note_off_c, 0, 54, 64
1, 4621, Note_on_c, 0, 70, 43
1, 4621, Note_on_c, 0, 79, 31
1, 4621, Note_on_c, 0, 80, 31
1, 4621, Note_on_c, 0, 85, 34
1, 4622, Note_on_c, 0, 51, 76
1, 4622, Note_on_c, 0, 84, 12
1, 4623, Note_on_c, 0, 46, 87
1, 4623, Note_off_c, 0, 51, 64
1, 4623, Note_off_c, 0, 70, 64
1, 4623, Note_off_c, 0, 77, 64
1, 4623, Note_off_c, 0, 79, 64
1, 4623, Note_off_c, 0, 83, 64
1, 4623, Note_off_c, 0, 88, 64
1, 4624, Note_on_c, 0, 44, 95
1, 4624, Note_off_c, 0, 46, 64
1, 4624, Note_off_c, 0, 75, 64
1, 4624, Note_off_c, 0, 82, 64
1, 4624, Note_off_c, 0, 85, 64
1, 4625, Note_on_c, 0, 41, 100
1, 4625, Note_off_c, 0, 44, 64
1, 4625, Note_off_c, 0, 84, 64
1, 4626, Note_on_c, 0, 39, 97
1, 4626, Note_off_c, 0, 41, 64
1, 4626, Note_on_c, 0, 83, 12
1, 4627, Note_on_c, 0, 38, 98
1, 4627, Note_off_c, 0, 39, 64
1, 4628, Note_on_c, 0, 36, 98
1, 4628, Note_off_c, 0, 38, 64
1, 4628, Note_off_c, 0, 80, 64
1, 4629, Note_on_c, 0, 35, 96
1, 4629, Note_off_c, 0, 36, 64
1, 4630, Note_on_c, 0, 34, 96
1, 4630, Note_off_c, 0, 35, 64
1, 4631, Note_on_c, 0, 33, 96
1, 4631, Note_off_c, 0, 34, 64
1, 4632, Note_on_c, 0, 32, 97
1, 4632, Note_off_c, 0, 33, 64
1, 4632, Note_off_c, 0, 83, 64
1, 4634, Note_on_c, 0, 31, 94
1, 4634, Note_off_c, 0, 32, 64
1, 4636, Note_on_c, 0, 30, 83
1, 4636, Note_off_c, 0, 31, 64
1, 4636, Note_on_c, 0, 69, 17
1, 4639, Note_off_c, 0, 30, 64
1, 4639, Note_off_c, 0, 69, 64
1, 4639, Note_on_c, 0, 72, 27
1, 4639, Note_on_c, 0, 77, 21
1, 4639, Note_on_c, 0, 82, 18
1, 4640, Note_on_c, 0, 37, 70
1, 4640, Note_on_c, 0, 61, 30
1, 4640, Note_on_c, 0, 83, 16
1, 4640, Note_on_c, 0, 88, 13
1, 4641, Note_on_c, 0, 31, 75
1, 4641, Note_off_c, 0, 37, 64
1, 4641, Note_on_c, 0, 80, 14
1, 4641, Note_on_c, 0, 85, 21
1, 4642, Note_on_c, 0, 30, 80
1, 4642, Note_off_c, 0, 31, 64
1, 4642, Note_on_c, 0, 71, 27
1, 4642, Note_off_c, 0, 72, 64
1, 4642, Note_on_c, 0, 81, 21
1, 4642, Note_off_c, 0, 82, 64
1, 4643, Note_on_c, 0, 29, 81
1, 4643, Note_off_c, 0, 30, 64
1, 4643, Note_on_c, 0, 49, 57
1, 4643, Note_off_c, 0, 61, 64
1, 4643, Note_on_c, 0, 63, 24
1, 4643, Note_off_c, 0, 88, 64
1, 4644, Note_off_c, 0, 80, 64
1, 4644, Note_off_c, 0, 83, 64
1, 4644, Note_off_c, 0, 85, 64
1, 4645, Note_off_c, 0, 29, 64
1, 4645, Note_on_c, 0, 30, 76
1, 4645, Note_on_c, 0, 70, 18
1, 4645, Note_off_c, 0, 71, 64
1, 4645, Note_off_c, 0, 77, 64
1, 4645, Note_on_c, 0, 80, 16
1, 4645, Note_off_c, 0, 81, 64
1, 4645, Note_on_c, 0, 84, 18
1, 4646, Note_on_c, 0, 48, 53
1, 4646, Note_off_c, 0, 49, 64
1, 4646, Note_off_c, 0, 63, 64
1, 4646, Note_on_c, 0, 77, 16
1, 4647, Note_on_c, 0, 29, 74
1, 4647, Note_off_c, 0, 30, 64
1, 4647, Note_on_c, 0, 75, 17
1, 4648, Note_off_c, 0, 48, 64
1, 4648, Note_on_c, 0, 79, 15
1, 4648, Note_off_c, 0, 80, 64
1, 4648, Note_on_c, 0, 81, 31
1, 4648, Note_on_c, 0, 87, 19
1, 4649, Note_on_c, 0, 72, 31
1, 4649, Note_off_c, 0, 77, 64
1, 4649, Note_on_c, 0, 82, 20
1, 4649, Note_on_c, 0, 88, 20
1, 4650, Note_off_c, 0, 29, 64
1, 4650, Note_on_c, 0, 30, 75
1, 4650, Note_on_c, 0, 61, 31
1, 4650, Note_off_c, 0, 70, 64
1, 4650, Note_on_c, 0, 74, 21
1, 4650, Note_on_c, 0, 85, 10
1, 4651, Note_off_c, 0, 30, 64
1, 4651, Note_on_c, 0, 31, 79
1, 4651, Note_on_c, 0, 64, 34
1, 4651, Note_on_c, 0, 68, 36
1, 4651, Note_on_c, 0, 71, 33
1, 4651, Note_off_c, 0, 72, 64
1, 4651, Note_off_c, 0, 75, 64
1, 4651, Note_off_c, 0, 79, 64
1, 4651, Note_off_c, 0, 84, 64
1, 4651, Note_off_c, 0, 87, 64
1, 4652, Note_on_c, 0, 30, 80
1, 4652, Note_off_c, 0, 31, 64
1, 4652, Note_off_c, 0, 82, 64
1, 4652, Note_on_c, 0, 87, 34
1, 4653, Note_on_c, 0, 29, 79
1, 4653, Note_off_c, 0, 30, 64
1, 4653, Note_off_c, 0, 74, 64
1, 4653, Note_off_c, 0, 85, 64
1, 4654, Note_off_c, 0, 29, 64
1, 4654, Note_on_c, 0, 30, 77
1, 4654, Note_on_c, 0, 89, 29
1, 4655, Note_off_c, 0, 61, 64
1, 4655, Note_off_c, 0, 64, 64
1, 4655, Note_on_c, 0, 70, 26
1, 4655, Note_off_c, 0, 71, 64
1, 4655, Note_off_c, 0, 88, 64
1, 4656, Note_off_c, 0, 30, 64
1, 4656, Note_on_c, 0, 33, 73
1, 4656, Note_off_c, 0, 68, 64
1, 4656, Note_on_c, 0, 79, 36
1, 4657, Note_off_c, 0, 33, 64
1, 4657, Note_on_c, 0, 35, 67
1, 4657, Note_on_c, 0, 63, 49
1, 4657, Note_on_c, 0, 73, 38
1, 4657, Note_on_c, 0, 77, 37
1, 4657, Note_on_c, 0, 82, 33
1, 4657, Note_on_c, 0, 84, 37
1, 4657, Note_on_c, 0, 90, 25
1, 4657, Note_on_c, 0, 92, 28
1, 4657, Note_on_c, 0, 95, 25
1, 4657, Note_on_c, 0, 98, 24
1, 4657, Note_on_c, 0, 100, 22
1, 4658, Note_off_c, 0, 35, 64
1, 4658, Note_off_c, 0, 70, 64
1, 4658, Note_on_c, 0, 76, 34
1, 4658, Note_on_c, 0, 86, 34
1, 4659, Note_on_c, 0, 53, 69
1, 4659, Note_off_c, 0, 63, 64
1, 4659, Note_on_c, 0, 67, 43
1, 4659, Note_off_c, 0, 77, 64
1, 4659, Note_on_c, 0, 78, 30
1, 4660, Note_on_c, 0, 48, 83
1, 4660, Note_off_c, 0, 53, 64
1, 4660, Note_on_c, 0, 71, 20
1, 4660, Note_off_c, 0, 73, 64
1, 4660, Note_off_c, 0, 76, 64
1, 4660, Note_off_c, 0, 86, 64
1, 4660, Note_off_c, 0, 90, 64
1, 4660, Note_off_c, 0, 92, 64
1, 4660, Note_off_c, 0, 95, 64
1, 4660, Note_off_c, 0, 98, 64
1, 4660, Note_off_c, 0, 100, 64
1, 4661, Note_on_c, 0, 45, 93
1, 4661, Note_off_c, 0, 48, 64
1, 4661, Note_on_c, 0, 65, 13
1, 4661, Note_off_c, 0, 67, 64
1, 4661, Note_off_c, 0, 78, 64
1, 4662, Note_on_c, 0, 42, 99
1, 4662, Note_off_c, 0, 45, 64
1, 4662, Note_on_c, 0, 68, 28
1, 4662, Note_on_c, 0, 73, 14
1, 4662, Note_off_c, 0, 79, 64
1, 4662, Note_off_c, 0, 81, 64
1, 4662, Note_off_c, 0, 89, 64
1, 4663, Note_on_c, 0, 40, 99
1, 4663, Note_off_c, 0, 42, 64
1, 4663, Note_on_c, 0, 81, 24
1, 4664, Note_on_c, 0, 38, 98
1, 4664, Note_off_c, 0, 40, 64
1, 4664, Note_on_c, 0, 70, 26
1, 4664, Note_off_c, 0, 71, 64
1, 4664, Note_off_c, 0, 84, 64
1, 4665, Note_on_c, 0, 37, 98
1, 4665, Note_off_c, 0, 38, 64
1, 4665, Note_on_c, 0, 64, 9
1, 4665, Note_off_c, 0, 65, 64
1, 4665, Note_on_c, 0, 72, 16
1, 4665, Note_off_c, 0, 73, 64
1, 4665, Note_on_c, 0, 74, 10
1, 4665, Note_on_c, 0, 79, 22
1, 4666, Note_on_c, 0, 35, 97
1, 4666, Note_off_c, 0, 37, 64
1, 4666, Note_off_c, 0, 68, 64
1, 4667, Note_on_c, 0, 34, 96
1, 4667, Note_off_c, 0, 35, 64
1, 4667, Note_on_c, 0, 80, 12
1, 4667, Note_off_c, 0, 87, 64
1, 4668, Note_on_c, 0, 33, 96
1, 4668, Note_off_c, 0, 34, 64
1, 4668, Note_off_c, 0, 64, 64
1, 4668, Note_on_c, 0, 69, 21
1, 4668, Note_off_c, 0, 70, 64
1, 4668, Note_off_c, 0, 74, 64
1, 4668, Note_on_c, 0, 75, 10
1, 4668, Note_off_c, 0, 79, 64
1, 4669, Note_on_c, 0, 71, 14
1, 4669, Note_off_c, 0, 72, 64
1, 4670, Note_on_c, 0, 32, 96
1, 4670, Note_off_c, 0, 33, 64
1, 4670, Note_on_c, 0, 66, 10
1, 4670, Note_off_c, 0, 80, 64
1, 4670, Note_off_c, 0, 82, 64
1, 4670, Note_on_c, 0, 87, 11
1, 4671, Note_on_c, 0, 31, 95
1, 4671, Note_off_c, 0, 32, 64
1, 4671, Note_on_c, 0, 68, 14
1, 4671, Note_off_c, 0, 69, 64
1, 4671, Note_off_c, 0, 75, 64
1, 4672, Note_on_c, 0, 82, 32
1, 4673, Note_off_c, 0, 66, 64
1, 4673, Note_off_c, 0, 71, 64
1, 4674, Note_on_c, 0, 30, 77
1, 4674, Note_off_c, 0, 31, 64
1, 4675, Note_off_c, 0, 68, 64
1, 4675, Note_off_c, 0, 81, 64
1, 4675, Note_off_c, 0, 87, 64
1, 4676, Note_off_c, 0, 30, 64
1, 4676, Note_on_c, 0, 79, 25
1, 4676, Note_on_c, 0, 81, 29
1, 4677, Note_on_c, 0, 36, 71
1, 4677, Note_on_c, 0, 76, 19
1, 4677, Note_on_c, 0, 83, 15
1, 4678, Note_on_c, 0, 61, 30
1, 4678, Note_on_c, 0, 66, 19
1, 4678, Note_on_c, 0, 68, 21
1, 4678, Note_on_c, 0, 70, 25
1, 4678, Note_on_c, 0, 78, 26
1, 4679, Note_on_c, 0, 30, 79
1, 4679, Note_off_c, 0, 36, 64
1, 4679, Note_off_c, 0, 79, 64
1, 4680, Note_on_c, 0, 29, 80
1, 4680, Note_off_c, 0, 30, 64
1, 4680, Note_on_c, 0, 80, 27
1, 4680, Note_off_c, 0, 81, 64
1, 4680, Note_off_c, 0, 83, 64
1, 4680, Note_on_c, 0, 84, 13
1, 4681, Note_off_c, 0, 61, 64
1, 4681, Note_off_c, 0, 66, 64
1, 4681, Note_off_c, 0, 68, 64
1, 4681, Note_off_c, 0, 70, 64
1, 4682, Note_off_c, 0, 29, 64
1, 4682, Note_on_c, 0, 30, 76
1, 4682, Note_on_c, 0, 81, 21
1, 4682, Note_off_c, 0, 82, 64
1, 4683, Note_on_c, 0, 75, 20
1, 4683, Note_off_c, 0, 76, 64
1, 4683, Note_off_c, 0, 80, 64
1, 4683, Note_off_c, 0, 84, 64
1, 4684, Note_on_c, 0, 29, 75
1, 4684, Note_off_c, 0, 30, 64
1, 4684, Note_on_c, 0, 79, 21
1, 4684, Note_on_c, 0, 87, 23
1, 4685, Note_off_c, 0, 78, 64
1, 4686, Note_on_c, 0, 78, 18
1, 4686, Note_off_c, 0, 81, 64
1, 4686, Note_on_c, 0, 89, 20
1, 4687, Note_off_c, 0, 29, 64
1, 4687, Note_on_c, 0, 30, 79
1, 4687, Note_on_c, 0, 61, 33
1, 4687, Note_on_c, 0, 64, 33
1, 4687, Note_off_c, 0, 75, 64
1, 4687, Note_off_c, 0, 79, 64
1, 4687, Note_on_c, 0, 80, 14
1, 4687, Note_on_c, 0, 83, 24
1, 4688, Note_on_c, 0, 71, 21
1, 4690, Note_on_c, 0, 29, 80
1, 4690, Note_off_c, 0, 30, 64
1, 4690, Note_on_c, 0, 49, 57
1, 4690, Note_on_c, 0, 69, 26
1, 4690, Note_on_c, 0, 74, 15
1, 4690, Note_off_c, 0, 78, 64
1, 4690, Note_off_c, 0, 80, 64
1, 4690, Note_off_c, 0, 89, 64
1, 4691, Note_off_c, 0, 64, 64
1, 4691, Note_off_c, 0, 71, 64
1, 4691, Note_on_c, 0, 80, 23
1, 4691, Note_off_c, 0, 83, 64
1, 4691, Note_on_c, 0, 84, 27
1, 4692, Note_off_c, 0, 29, 64
1, 4692, Note_on_c, 0, 30, 76
1, 4692, Note_off_c, 0, 61, 64
1, 4692, Note_on_c, 0, 70, 20
1, 4692, Note_on_c, 0, 77, 13
1, 4692, Note_on_c, 0, 81, 37
1, 4692, Note_off_c, 0, 87, 64
1, 4693, Note_off_c, 0, 49, 64
1, 4693, Note_off_c, 0, 69, 64
1, 4693, Note_off_c, 0, 74, 64
1, 4694, Note_off_c, 0, 30, 64
1, 4694, Note_on_c, 0, 34, 70
1, 4694, Note_on_c, 0, 72, 42
1, 4694, Note_on_c, 0, 76, 37
1, 4694, Note_on_c, 0, 78, 34
1, 4695, Note_off_c, 0, 34, 64
1, 4695, Note_on_c, 0, 69, 49
1, 4695, Note_off_c, 0, 70, 64
1, 4695, Note_off_c, 0, 77, 64
1, 4695, Note_off_c, 0, 80, 64
1, 4695, Note_on_c, 0, 83, 26
1, 4695, Note_on_c, 0, 85, 29
1, 4695, Note_on_c, 0, 87, 31
1, 4696, Note_on_c, 0, 65, 48
1, 4697, Note_on_c, 0, 51, 78
1, 4698, Note_on_c, 0, 46, 88
1, 4698, Note_off_c, 0, 51, 64
1, 4698, Note_off_c, 0, 69, 64
1, 4698, Note_off_c, 0, 72, 64
1, 4698, Note_off_c, 0, 76, 64
1, 4698, Note_off_c, 0, 78, 64
1, 4698, Note_off_c, 0, 83, 64
1, 4698, Note_off_c, 0, 84, 64
1, 4698, Note_off_c, 0, 87, 64
1, 4699, Note_on_c, 0, 43, 95
1, 4699, Note_off_c, 0, 46, 64
1, 4699, Note_off_c, 0, 65, 64
1, 4699, Note_off_c, 0, 85, 64
1, 4700, Note_on_c, 0, 41, 100
1, 4700, Note_off_c, 0, 43, 64
1, 4700, Note_off_c, 0, 81, 64
1, 4701, Note_on_c, 0, 39, 97
1, 4701, Note_off_c, 0, 41, 64
1, 4702, Note_on_c, 0, 37, 98
1, 4702, Note_off_c, 0, 39, 64
1, 4703, Note_on_c, 0, 36, 98
1, 4703, Note_off_c, 0, 37, 64
1, 4704, Note_on_c, 0, 35, 96
1, 4704, Note_off_c, 0, 36, 64
1, 4705, Note_on_c, 0, 34, 96
1, 4705, Note_off_c, 0, 35, 64
1, 4706, Note_on_c, 0, 33, 96
1, 4706, Note_off_c, 0, 34, 64
1, 4706, Note_on_c, 0, 72, 16
1, 4707, Note_on_c, 0, 32, 97
1, 4707, Note_off_c, 0, 33, 64
1, 4708, Note_on_c, 0, 48, 27
1, 4709, Note_on_c, 0, 31, 94
1, 4709, Note_off_c, 0, 32, 64
1, 4710, Note_on_c, 0, 70, 21
1, 4710, Note_off_c, 0, 72, 64
1, 4710, Note_on_c, 0, 88, 9
1, 4711, Note_on_c, 0, 30, 82
1, 4711, Note_off_c, 0, 31, 64
1, 4711, Note_off_c, 0, 48, 64
1, 4711, Note_on_c, 0, 73, 15
1, 4712, Note_on_c, 0, 78, 21
1, 4713, Note_off_c, 0, 30, 64
1, 4713, Note_on_c, 0, 80, 14
1, 4713, Note_on_c, 0, 83, 13
1, 4713, Note_off_c, 0, 88, 64
1, 4714, Note_off_c, 0, 70, 64
1, 4714, Note_off_c, 0, 73, 64
1, 4714, Note_on_c, 0, 74, 20
1, 4714, Note_on_c, 0, 87, 18
1, 4715, Note_on_c, 0, 36, 70
1, 4715, Note_on_c, 0, 61, 30
1, 4715, Note_on_c, 0, 63, 30
1, 4716, Note_on_c, 0, 31, 75
1, 4716, Note_off_c, 0, 36, 64
1, 4716, Note_on_c, 0, 82, 23
1, 4717, Note_on_c, 0, 30, 80
1, 4717, Note_off_c, 0, 31, 64
1, 4717, Note_off_c, 0, 63, 64
1, 4717, Note_on_c, 0, 64, 30
1, 4717, Note_off_c, 0, 80, 64
1, 4717, Note_off_c, 0, 83, 64
1, 4717, Note_on_c, 0, 84, 14
1, 4718, Note_on_c, 0, 29, 80
1, 4718, Note_off_c, 0, 30, 64
1, 4718, Note_on_c, 0, 49, 57
1, 4718, Note_on_c, 0, 71, 27
1, 4718, Note_off_c, 0, 78, 64
1, 4718, Note_on_c, 0, 80, 17
1, 4719, Note_off_c, 0, 64, 64
1, 4719, Note_off_c, 0, 74, 64
1, 4719, Note_on_c, 0, 75, 17
1, 4719, Note_off_c, 0, 87, 64
1, 4720, Note_off_c, 0, 29, 64
1, 4720, Note_on_c, 0, 30, 75
1, 4720, Note_off_c, 0, 82, 64
1, 4721, Note_on_c, 0, 48, 51
1, 4721, Note_off_c, 0, 49, 64
1, 4721, Note_on_c, 0, 64, 18
1, 4721, Note_off_c, 0, 80, 64
1, 4721, Note_on_c, 0, 82, 17
1, 4721, Note_off_c, 0, 84, 64
1, 4722, Note_on_c, 0, 29, 74
1, 4722, Note_off_c, 0, 30, 64
1, 4722, Note_on_c, 0, 74, 22
1, 4722, Note_off_c, 0, 75, 64
1, 4723, Note_off_c, 0, 48, 64
1, 4723, Note_off_c, 0, 61, 64
1, 4723, Note_on_c, 0, 80, 17
1, 4723, Note_on_c, 0, 87, 15
1, 4724, Note_on_c, 0, 42, 66
1, 4724, Note_off_c, 0, 64, 64
1, 4724, Note_on_c, 0, 68, 28
1, 4724, Note_on_c, 0, 84, 19
1, 4725, Note_off_c, 0, 29, 64
1, 4725, Note_on_c, 0, 30, 80
1, 4725, Note_off_c, 0, 42, 64
1, 4725, Note_off_c, 0, 82, 64
1, 4725, Note_on_c, 0, 90, 14
1, 4726, Note_on_c, 0, 49, 60
1, 4726, Note_off_c, 0, 71, 64
1, 4726, Note_off_c, 0, 80, 64
1, 4727, Note_off_c, 0, 68, 64
1, 4727, Note_off_c, 0, 74, 64
1, 4728, Note_on_c, 0, 29, 79
1, 4728, Note_off_c, 0, 30, 64
1, 4728, Note_off_c, 0, 49, 64
1, 4728, Note_on_c, 0, 71, 29
1, 4728, Note_on_c, 0, 81, 17
1, 4729, Note_on_c, 0, 78, 38
1, 4729, Note_off_c, 0, 84, 64
1, 4730, Note_off_c, 0, 29, 64
1, 4730, Note_on_c, 0, 30, 74
1, 4730, Note_off_c, 0, 87, 64
1, 4730, Note_off_c, 0, 90, 64
1, 4731, Note_off_c, 0, 30, 64
1, 4731, Note_on_c, 0, 33, 72
1, 4732, Note_off_c, 0, 33, 64
1, 4732, Note_on_c, 0, 35, 65
1, 4732, Note_on_c, 0, 69, 45
1, 4732, Note_off_c, 0, 71, 64
1, 4732, Note_on_c, 0, 76, 36
1, 4732, Note_on_c, 0, 82, 34
1, 4732, Note_on_c, 0, 84, 33
1, 4732, Note_on_c, 0, 86, 35
1, 4732, Note_on_c, 0, 89, 26
1, 4732, Note_on_c, 0, 91, 27
1, 4732, Note_on_c, 0, 95, 24
1, 4732, Note_on_c, 0, 99, 20
1, 4733, Note_off_c, 0, 35, 64
1, 4733, Note_on_c, 0, 71, 46
1, 4733, Note_on_c, 0, 80, 35
1, 4733, Note_off_c, 0, 81, 64
1, 4733, Note_on_c, 0, 87, 30
1, 4734, Note_on_c, 0, 53, 71
1, 4734, Note_on_c, 0, 73, 39
1, 4734, Note_on_c, 0, 77, 31
1, 4734, Note_off_c, 0, 78, 64
1, 4734, Note_off_c, 0, 84, 64
1, 4734, Note_off_c, 0, 86, 64
1, 4735, Note_on_c, 0, 48, 85
1, 4735, Note_off_c, 0, 53, 64
1, 4735, Note_off_c, 0, 71, 64
1, 4735, Note_off_c, 0, 87, 64
1, 4735, Note_off_c, 0, 89, 64
1, 4735, Note_off_c, 0, 91, 64
1, 4735, Note_off_c, 0, 95, 64
1, 4735, Note_off_c, 0, 99, 64
1, 4736, Note_on_c, 0, 45, 95
1, 4736, Note_off_c, 0, 48, 64
1, 4736, Note_off_c, 0, 73, 64
1, 4736, Note_off_c, 0, 76, 64
1, 4736, Note_off_c, 0, 77, 64
1, 4737, Note_on_c, 0, 42, 100
1, 4737, Note_off_c, 0, 45, 64
1, 4737, Note_off_c, 0, 69, 64
1, 4737, Note_on_c, 0, 70, 12
1, 4738, Note_on_c, 0, 40, 99
1, 4738, Note_off_c, 0, 42, 64
1, 4738, Note_off_c, 0, 80, 64
1, 4738, Note_on_c, 0, 81, 16
1, 4738, Note_off_c, 0, 82, 64
1, 4739, Note_on_c, 0, 38, 98
1, 4739, Note_off_c, 0, 40, 64
1, 4740, Note_on_c, 0, 37, 98
1, 4740, Note_off_c, 0, 38, 64
1, 4740, Note_off_c, 0, 70, 64
1, 4741, Note_on_c, 0, 35, 97
1, 4741, Note_off_c, 0, 37, 64
1, 4741, Note_off_c, 0, 81, 64
1, 4742, Note_on_c, 0, 34, 96
1, 4742, Note_off_c, 0, 35, 64
1, 4743, Note_on_c, 0, 33, 96
1, 4743, Note_off_c, 0, 34, 64
1, 4743, Note_on_c, 0, 79, 12
1, 4744, Note_on_c, 0, 32, 96
1, 4744, Note_off_c, 0, 33, 64
1, 4746, Note_on_c, 0, 31, 95
1, 4746, Note_off_c, 0, 32, 64
1, 4747, Note_on_c, 0, 81, 12
1, 4748, Note_on_c, 0, 78, 13
1, 4749, Note_on_c, 0, 30, 75
1, 4749, Note_off_c, 0, 31, 64
1, 4749, Note_on_c, 0, 70, 20
1, 4749, Note_off_c, 0, 79, 64
1, 4750, Note_on_c, 0, 83, 27
1, 4751, Note_off_c, 0, 30, 64
1, 4751, Note_on_c, 0, 43, 65
1, 4751, Note_on_c, 0, 76, 30
1, 4751, Note_on_c, 0, 77, 30
1, 4751, Note_off_c, 0, 78, 64
1, 4751, Note_on_c, 0, 96, 32
1, 4752, Note_on_c, 0, 68, 28
1, 4752, Note_off_c, 0, 70, 64
1, 4752, Note_on_c, 0, 71, 26
1, 4752, Note_off_c, 0, 81, 64
1, 4752, Note_on_c, 0, 86, 26
1, 4752, Note_on_c, 0, 87, 14
1, 4752, Note_on_c, 0, 91, 19
1, 4752, Note_on_c, 0, 97, 23
1, 4753, Note_on_c, 0, 32, 71
1, 4753, Note_off_c, 0, 43, 64
1, 4753, Note_on_c, 0, 61, 30
1, 4753, Note_on_c, 0, 64, 39
1, 4753, Note_on_c, 0, 75, 35
1, 4753, Note_off_c, 0, 76, 64
1, 4753, Note_on_c, 0, 93, 24
1, 4754, Note_on_c, 0, 30, 79
1, 4754, Note_off_c, 0, 32, 64
1, 4754, Note_off_c, 0, 77, 64
1, 4754, Note_on_c, 0, 85, 12
1, 4755, Note_on_c, 0, 29, 81
1, 4755, Note_off_c, 0, 30, 64
1, 4755, Note_off_c, 0, 71, 64
1, 4755, Note_off_c, 0, 75, 64
1, 4755, Note_on_c, 0, 81, 27
1, 4755, Note_off_c, 0, 91, 64
1, 4756, Note_off_c, 0, 64, 64
1, 4756, Note_off_c, 0, 68, 64
1, 4756, Note_on_c, 0, 78, 22
1, 4756, Note_off_c, 0, 86, 64
1, 4756, Note_off_c, 0, 97, 64
1, 4757, Note_off_c, 0, 29, 64
1, 4757, Note_on_c, 0, 30, 76
1, 4757, Note_on_c, 0, 75, 13
1, 4757, Note_off_c, 0, 85, 64
1, 4757, Note_off_c, 0, 87, 64
1, 4758, Note_on_c, 0, 60, 29
1, 4758, Note_off_c, 0, 61, 64
1, 4758, Note_off_c, 0, 83, 64
1, 4758, Note_off_c, 0, 96, 64
1, 4759, Note_on_c, 0, 29, 74
1, 4759, Note_off_c, 0, 30, 64
1, 4759, Note_on_c, 0, 83, 12
1, 4759, Note_off_c, 0, 93, 64
1, 4760, Note_off_c, 0, 60, 64
1, 4760, Note_off_c, 0, 75, 64
1, 4760, Note_off_c, 0, 78, 64
1, 4760, Note_on_c, 0, 79, 16
1, 4760, Note_on_c, 0, 84, 12
1, 4761, Note_on_c, 0, 75, 28
1, 4761, Note_on_c, 0, 86, 17
1, 4761, Note_on_c, 0, 88, 12
1, 4762, Note_off_c, 0, 29, 64
1, 4762, Note_on_c, 0, 30, 80
1, 4762, Note_on_c, 0, 54, 53
1, 4762, Note_on_c, 0, 61, 29
1, 4762, Note_on_c, 0, 68, 26
1, 4762, Note_on_c, 0, 78, 33
1, 4763, Note_on_c, 0, 49, 61
1, 4763, Note_on_c, 0, 74, 23
1, 4763, Note_off_c, 0, 84, 64
1, 4764, Note_off_c, 0, 54, 64
1, 4764, Note_off_c, 0, 61, 64
1, 4764, Note_off_c, 0, 75, 64
1, 4764, Note_off_c, 0, 81, 64
1, 4764, Note_off_c, 0, 83, 64
1, 4764, Note_off_c, 0, 86, 64
1, 4764, Note_on_c, 0, 87, 14
1, 4764, Note_off_c, 0, 88, 64
1, 4765, Note_on_c, 0, 29, 80
1, 4765, Note_off_c, 0, 30, 64
1, 4765, Note_on_c, 0, 63, 39
1, 4765, Note_off_c, 0, 79, 64
1, 4766, Note_off_c, 0, 68, 64
1, 4766, Note_off_c, 0, 74, 64
1, 4766, Note_on_c, 0, 76, 35
1, 4767, Note_off_c, 0, 29, 64
1, 4767, Note_on_c, 0, 30, 76
1, 4767, Note_on_c, 0, 85, 38
1, 4768, Note_off_c, 0, 49, 64
1, 4768, Note_on_c, 0, 54, 40
1, 4768, Note_on_c, 0, 81, 27
1, 4769, Note_off_c, 0, 30, 64
1, 4769, Note_on_c, 0, 34, 70
1, 4769, Note_on_c, 0, 67, 43
1, 4770, Note_off_c, 0, 34, 64
1, 4770, Note_off_c, 0, 54, 64
1, 4770, Note_on_c, 0, 83, 34
1, 4770, Note_on_c, 0, 84, 34
1, 4770, Note_on_c, 0, 86, 34
1, 4770, Note_off_c, 0, 87, 64
1, 4771, Note_off_c, 0, 63, 64
1, 4771, Note_off_c, 0, 67, 64
1, 4771, Note_on_c, 0, 71, 41
1, 4771, Note_on_c, 0, 74, 36
1, 4771, Note_on_c, 0, 77, 32
1, 4771, Note_off_c, 0, 78, 64
1, 4771, Note_on_c, 0, 79, 32
1, 4771, Note_off_c, 0, 81, 64
1, 4772, Note_on_c, 0, 51, 79
1, 4772, Note_off_c, 0, 85, 64
1, 4772, Note_off_c, 0, 86, 64
1, 4773, Note_on_c, 0, 45, 90
1, 4773, Note_off_c, 0, 51, 64
1, 4773, Note_off_c, 0, 71, 64
1, 4773, Note_off_c, 0, 74, 64
1, 4773, Note_off_c, 0, 79, 64
1, 4773, Note_off_c, 0, 83, 64
1, 4773, Note_off_c, 0, 84, 64
1, 4774, Note_on_c, 0, 42, 96
1, 4774, Note_off_c, 0, 45, 64
1, 4774, Note_off_c, 0, 77, 64
1, 4775, Note_on_c, 0, 41, 100
1, 4775, Note_off_c, 0, 42, 64
1, 4775, Note_off_c, 0, 76, 64
1, 4776, Note_on_c, 0, 39, 97
1, 4776, Note_off_c, 0, 41, 64
1, 4776, Note_on_c, 0, 74, 10
1, 4777, Note_on_c, 0, 37, 98
1, 4777, Note_off_c, 0, 39, 64
1, 4778, Note_on_c, 0, 36, 98
1, 4778, Note_off_c, 0, 37, 64
1, 4779, Note_on_c, 0, 35, 96
1, 4779, Note_off_c, 0, 36, 64
1, 4780, Note_on_c, 0, 34, 96
1, 4780, Note_off_c, 0, 35, 64
1, 4781, Note_on_c, 0, 33, 96
1, 4781, Note_off_c, 0, 34, 64
1, 4782, Note_on_c, 0, 32, 97
1, 4782, Note_off_c, 0, 33, 64
1, 4782, Note_off_c, 0, 74, 64
1, 4782, Note_on_c, 0, 77, 12
1, 4783, Note_on_c, 0, 31, 96
1, 4783, Note_off_c, 0, 32, 64
1, 4785, Note_off_c, 0, 77, 64
1, 4786, Note_on_c, 0, 30, 80
1, 4786, Note_off_c, 0, 31, 64
1, 4786, Note_on_c, 0, 80, 17
1, 4788, Note_off_c, 0, 30, 64
1, 4789, Note_on_c, 0, 73, 15
1, 4789, Note_on_c, 0, 78, 20
1, 4789, Note_on_c, 0, 79, 23
1, 4789, Note_off_c, 0, 80, 64
1, 4789, Note_on_c, 0, 81, 16
1, 4790, Note_on_c, 0, 36, 71
1, 4790, Note_on_c, 0, 61, 26
1, 4790, Note_on_c, 0, 64, 29
1, 4790, Note_on_c, 0, 68, 16
1, 4790, Note_on_c, 0, 84, 12
1, 4790, Note_on_c, 0, 87, 12
1, 4791, Note_on_c, 0, 31, 76
1, 4791, Note_off_c, 0, 36, 64
1, 4791, Note_on_c, 0, 49, 61
1, 4791, Note_on_c, 0, 82, 19
1, 4792, Note_on_c, 0, 30, 80
1, 4792, Note_off_c, 0, 31, 64
1, 4792, Note_off_c, 0, 73, 64
1, 4792, Note_off_c, 0, 79, 64
1, 4792, Note_off_c, 0, 81, 64
1, 4793, Note_on_c, 0, 29, 80
1, 4793, Note_off_c, 0, 30, 64
1, 4793, Note_on_c, 0, 63, 26
1, 4793, Note_off_c, 0, 64, 64
1, 4793, Note_off_c, 0, 84, 64
1, 4794, Note_off_c, 0, 29, 64
1, 4794, Note_on_c, 0, 30, 77
1, 4794, Note_off_c, 0, 49, 64
1, 4794, Note_off_c, 0, 61, 64
1, 4794, Note_off_c, 0, 78, 64
1, 4794, Note_off_c, 0, 82, 64
1, 4795, Note_off_c, 0, 68, 64
1, 4796, Note_on_c, 0, 29, 75
1, 4796, Note_off_c, 0, 30, 64
1, 4797, Note_off_c, 0, 63, 64
1, 4797, Note_on_c, 0, 65, 23
1, 4797, Note_on_c, 0, 79, 24
1, 4797, Note_off_c, 0, 87, 64
1, 4798, Note_on_c, 0, 61, 29
1, 4798, Note_on_c, 0, 74, 21
1, 4798, Note_on_c, 0, 76, 27
1, 4799, Note_off_c, 0, 29, 64
1, 4799, Note_on_c, 0, 30, 76
1, 4799, Note_on_c, 0, 83, 19
1, 4799, Note_on_c, 0, 89, 12
1, 4800, Note_off_c, 0, 65, 64
1, 4800, Note_on_c, 0, 68, 19
1, 4800, Note_on_c, 0, 78, 16
1, 4800, Note_on_c, 0, 87, 11
1, 4801, Note_off_c, 0, 30, 64
1, 4801, Note_on_c, 0, 31, 79
1, 4801, Note_on_c, 0, 49, 61
1, 4801, Note_off_c, 0, 61, 64
1, 4801, Note_on_c, 0, 63, 29
1, 4801, Note_off_c, 0, 76, 64
1, 4802, Note_on_c, 0, 29, 80
1, 4802, Note_off_c, 0, 31, 64
1, 4802, Note_off_c, 0, 74, 64
1, 4802, Note_off_c, 0, 83, 64
1, 4802, Note_off_c, 0, 89, 64
1, 4803, Note_off_c, 0, 49, 64
1, 4803, Note_off_c, 0, 63, 64
1, 4803, Note_off_c, 0, 78, 64
1, 4803, Note_on_c, 0, 80, 27
1, 4804, Note_off_c, 0, 29, 64
1, 4804, Note_on_c, 0, 30, 76
1, 4804, Note_off_c, 0, 68, 64
1, 4804, Note_off_c, 0, 79, 64
1, 4804, Note_on_c, 0, 81, 18
1, 4804, Note_off_c, 0, 87, 64
1, 4806, Note_off_c, 0, 30, 64
1, 4806, Note_on_c, 0, 34, 73
1, 4806, Note_on_c, 0, 54, 34
1, 4807, Note_off_c, 0, 34, 64
1, 4807, Note_on_c, 0, 63, 50
1, 4807, Note_on_c, 0, 73, 45
1, 4807, Note_on_c, 0, 76, 42
1, 4807, Note_off_c, 0, 81, 64
1, 4807, Note_on_c, 0, 83, 30
1, 4807, Note_on_c, 0, 89, 29
1, 4807, Note_on_c, 0, 91, 26
1, 4807, Note_on_c, 0, 93, 29
1, 4807, Note_on_c, 0, 96, 28
1, 4808, Note_off_c, 0, 54, 64
1, 4808, Note_on_c, 0, 78, 39
1, 4808, Note_off_c, 0, 80, 64
1, 4808, Note_on_c, 0, 81, 37
1, 4809, Note_on_c, 0, 53, 73
1, 4809, Note_off_c, 0, 63, 64
1, 4809, Note_on_c, 0, 66, 41
1, 4809, Note_on_c, 0, 72, 38
1, 4809, Note_off_c, 0, 73, 64
1, 4809, Note_on_c, 0, 75, 32
1, 4809, Note_off_c, 0, 76, 64
1, 4809, Note_on_c, 0, 86, 18
1, 4810, Note_on_c, 0, 48, 85
1, 4810, Note_off_c, 0, 53, 64
1, 4810, Note_off_c, 0, 78, 64
1, 4810, Note_off_c, 0, 81, 64
1, 4810, Note_off_c, 0, 89, 64
1, 4810, Note_off_c, 0, 91, 64
1, 4810, Note_off_c, 0, 93, 64
1, 4810, Note_off_c, 0, 96, 64
1, 4811, Note_on_c, 0, 45, 95
1, 4811, Note_off_c, 0, 48, 64
1, 4811, Note_off_c, 0, 66, 64
1, 4811, Note_off_c, 0, 75, 64
1, 4811, Note_off_c, 0, 83, 64
1, 4812, Note_on_c, 0, 42, 100
1, 4812, Note_off_c, 0, 45, 64
1, 4812, Note_off_c, 0, 72, 64
1, 4812, Note_off_c, 0, 86, 64
1, 4813, Note_on_c, 0, 40, 98
1, 4813, Note_off_c, 0, 42, 64
1, 4814, Note_on_c, 0, 38, 98
1, 4814, Note_off_c, 0, 40, 64
1, 4815, Note_on_c, 0, 36, 98
1, 4815, Note_off_c, 0, 38, 64
1, 4816, Note_on_c, 0, 35, 97
1, 4816, Note_off_c, 0, 36, 64
1, 4817, Note_on_c, 0, 34, 96
1, 4817, Note_off_c, 0, 35, 64
1, 4818, Note_on_c, 0, 33, 96
1, 4818, Note_off_c, 0, 34, 64
1, 4819, Note_on_c, 0, 32, 96
1, 4819, Note_off_c, 0, 33, 64
1, 4819, Note_on_c, 0, 49, 30
1, 4820, Note_on_c, 0, 53, 18
1, 4821, Note_on_c, 0, 31, 95
1, 4821, Note_off_c, 0, 32, 64
1, 4821, Note_off_c, 0, 49, 64
1, 4823, Note_on_c, 0, 30, 85
1, 4823, Note_off_c, 0, 31, 64
1, 4823, Note_off_c, 0, 53, 64
1, 4824, Note_on_c, 0, 77, 13
1, 4825, Note_on_c, 0, 68, 23
1, 4826, Note_off_c, 0, 30, 64
1, 4826, Note_on_c, 0, 83, 13
1, 4827, Note_on_c, 0, 41, 67
1, 4827, Note_off_c, 0, 77, 64
1, 4827, Note_on_c, 0, 78, 16
1, 4827, Note_on_c, 0, 87, 12
1, 4828, Note_on_c, 0, 32, 73
1, 4828, Note_off_c, 0, 41, 64
1, 4828, Note_on_c, 0, 61, 31
1, 4828, Note_on_c, 0, 71, 20
1, 4828, Note_on_c, 0, 74, 12
1, 4829, Note_on_c, 0, 30, 80
1, 4829, Note_off_c, 0, 32, 64
1, 4830, Note_on_c, 0, 29, 81
1, 4830, Note_off_c, 0, 30, 64
1, 4830, Note_off_c, 0, 78, 64
1, 4830, Note_off_c, 0, 87, 64
1, 4831, Note_on_c, 0, 67, 17
1, 4831, Note_off_c, 0, 68, 64
1, 4831, Note_off_c, 0, 71, 64
1, 4831, Note_on_c, 0, 72, 22
1, 4831, Note_off_c, 0, 74, 64
1, 4832, Note_off_c, 0, 29, 64
1, 4832, Note_on_c, 0, 30, 76
1, 4832, Note_on_c, 0, 63, 21
1, 4832, Note_on_c, 0, 78, 17
1, 4832, Note_off_c, 0, 83, 64
1, 4833, Note_off_c, 0, 61, 64
1, 4834, Note_on_c, 0, 29, 74
1, 4834, Note_off_c, 0, 30, 64
1, 4834, Note_off_c, 0, 72, 64
1, 4834, Note_on_c, 0, 79, 21
1, 4835, Note_off_c, 0, 63, 64
1, 4835, Note_off_c, 0, 67, 64
1, 4835, Note_on_c, 0, 80, 13
1, 4836, Note_on_c, 0, 71, 22
1, 4836, Note_off_c, 0, 78, 64
1, 4836, Note_on_c, 0, 87, 9
1, 4837, Note_off_c, 0, 29, 64
1, 4837, Note_on_c, 0, 30, 80
1, 4837, Note_on_c, 0, 54, 53
1, 4837, Note_on_c, 0, 61, 33
1, 4837, Note_on_c, 0, 68, 25
1, 4838, Note_on_c, 0, 49, 61
1, 4839, Note_off_c, 0, 54, 64
1, 4839, Note_off_c, 0, 71, 64
1, 4839, Note_off_c, 0, 80, 64
1, 4839, Note_on_c, 0, 82, 29
1, 4840, Note_on_c, 0, 29, 80
1, 4840, Note_off_c, 0, 30, 64
1, 4840, Note_off_c, 0, 79, 64
1, 4841, Note_off_c, 0, 29, 64
1, 4841, Note_on_c, 0, 30, 78
1, 4841, Note_off_c, 0, 49, 64
1, 4843, Note_off_c, 0, 30, 64
1, 4843, Note_on_c, 0, 31, 72
1, 4843, Note_on_c, 0, 54, 38
1, 4843, Note_off_c, 0, 68, 64
1, 4843, Note_off_c, 0, 87, 64
1, 4844, Note_off_c, 0, 31, 64
1, 4844, Note_on_c, 0, 34, 69
1, 4844, Note_off_c, 0, 61, 64
1, 4844, Note_on_c, 0, 72, 41
1, 4844, Note_on_c, 0, 78, 31
1, 4844, Note_on_c, 0, 86, 33
1, 4844, Note_on_c, 0, 87, 32
1, 4844, Note_on_c, 0, 88, 30
1, 4844, Note_on_c, 0, 92, 28
1, 4845, Note_off_c, 0, 34, 64
1, 4845, Note_off_c, 0, 54, 64
1, 4845, Note_on_c, 0, 55, 65
1, 4845, Note_on_c, 0, 76, 36
1, 4845, Note_on_c, 0, 80, 31
1, 4845, Note_on_c, 0, 83, 32
1, 4846, Note_on_c, 0, 70, 37
1, 4846, Note_off_c, 0, 82, 64
1, 4846, Note_off_c, 0, 86, 64
1, 4847, Note_on_c, 0, 49, 80
1, 4847, Note_off_c, 0, 55, 64
1, 4847, Note_off_c, 0, 87, 64
1, 4847, Note_off_c, 0, 88, 64
1, 4847, Note_off_c, 0, 92, 64
1, 4848, Note_on_c, 0, 45, 92
1, 4848, Note_off_c, 0, 49, 64
1, 4848, Note_off_c, 0, 70, 64
1, 4848, Note_off_c, 0, 72, 64
1, 4848, Note_off_c, 0, 76, 64
1, 4848, Note_off_c, 0, 78, 64
1, 4848, Note_off_c, 0, 83, 64
1, 4849, Note_on_c, 0, 42, 98
1, 4849, Note_off_c, 0, 45, 64
1, 4850, Note_on_c, 0, 41, 100
1, 4850, Note_off_c, 0, 42, 64
1, 4851, Note_on_c, 0, 39, 98
1, 4851, Note_off_c, 0, 41, 64
1, 4851, Note_on_c, 0, 73, 13
1, 4851, Note_off_c, 0, 80, 64
1, 4852, Note_on_c, 0, 37, 98
1, 4852, Note_off_c, 0, 39, 64
1, 4853, Note_on_c, 0, 36, 97
1, 4853, Note_off_c, 0, 37, 64
1, 4854, Note_on_c, 0, 35, 96
1, 4854, Note_off_c, 0, 36, 64
1, 4855, Note_on_c, 0, 34, 96
1, 4855, Note_off_c, 0, 35, 64
1, 4855, Note_off_c, 0, 73, 64
1, 4856, Note_on_c, 0, 33, 96
1, 4856, Note_off_c, 0, 34, 64
1, 4857, Note_on_c, 0, 32, 97
1, 4857, Note_off_c, 0, 33, 64
1, 4858, Note_on_c, 0, 31, 95
1, 4858, Note_off_c, 0, 32, 64
1, 4858, Note_on_c, 0, 80, 12
1, 4861, Note_on_c, 0, 30, 79
1, 4861, Note_off_c, 0, 31, 64
1, 4861, Note_on_c, 0, 81, 17
1, 4862, Note_off_c, 0, 80, 64
1, 4863, Note_off_c, 0, 30, 64
1, 4863, Note_on_c, 0, 83, 12
1, 4864, Note_on_c, 0, 68, 21
1, 4864, Note_on_c, 0, 71, 18
1, 4864, Note_on_c, 0, 77, 17
1, 4864, Note_off_c, 0, 81, 64
1, 4864, Note_on_c, 0, 82, 12
1, 4865, Note_on_c, 0, 36, 72
1, 4865, Note_on_c, 0, 61, 34
1, 4865, Note_on_c, 0, 64, 30
1, 4865, Note_on_c, 0, 79, 17
1, 4865, Note_on_c, 0, 85, 11
1, 4866, Note_on_c, 0, 31, 78
1, 4866, Note_off_c, 0, 36, 64
1, 4866, Note_on_c, 0, 49, 60
1, 4866, Note_on_c, 0, 74, 15
1, 4867, Note_on_c, 0, 29, 80
1, 4867, Note_off_c, 0, 31, 64
1, 4867, Note_off_c, 0, 71, 64
1, 4868, Note_off_c, 0, 85, 64
1, 4869, Note_off_c, 0, 29, 64
1, 4869, Note_on_c, 0, 30, 76
1, 4869, Note_off_c, 0, 49, 64
1, 4869, Note_off_c, 0, 61, 64
1, 4869, Note_off_c, 0, 64, 64
1, 4869, Note_off_c, 0, 77, 64
1, 4869, Note_off_c, 0, 79, 64
1, 4869, Note_off_c, 0, 83, 64
1, 4870, Note_off_c, 0, 68, 64
1, 4870, Note_off_c, 0, 74, 64
1, 4871, Note_on_c, 0, 29, 75
1, 4871, Note_off_c, 0, 30, 64
1, 4871, Note_off_c, 0, 82, 64
1, 4873, Note_on_c, 0, 42, 67
1, 4873, Note_on_c, 0, 80, 13
1, 4873, Note_on_c, 0, 83, 17
1, 4874, Note_off_c, 0, 29, 64
1, 4874, Note_on_c, 0, 30, 80
1, 4874, Note_on_c, 0, 68, 23
1, 4874, Note_on_c, 0, 77, 19
1, 4874, Note_on_c, 0, 87, 11
1, 4875, Note_off_c, 0, 42, 64
1, 4875, Note_on_c, 0, 61, 33
1, 4875, Note_on_c, 0, 78, 22
1, 4876, Note_on_c, 0, 49, 62
1, 4876, Note_on_c, 0, 71, 17
1, 4876, Note_on_c, 0, 74, 13
1, 4876, Note_off_c, 0, 80, 64
1, 4877, Note_on_c, 0, 29, 80
1, 4877, Note_off_c, 0, 30, 64
1, 4878, Note_off_c, 0, 29, 64
1, 4878, Note_on_c, 0, 30, 78
1, 4878, Note_off_c, 0, 61, 64
1, 4878, Note_off_c, 0, 78, 64
1, 4878, Note_off_c, 0, 83, 64
1, 4878, Note_off_c, 0, 87, 64
1, 4880, Note_off_c, 0, 49, 64
1, 4880, Note_off_c, 0, 68, 64
1, 4880, Note_off_c, 0, 71, 64
1, 4880, Note_off_c, 0, 74, 64
1, 4880, Note_on_c, 0, 81, 28
1, 4881, Note_off_c, 0, 30, 64
1, 4881, Note_on_c, 0, 34, 72
1, 4881, Note_on_c, 0, 54, 33
1, 4881, Note_on_c, 0, 67, 37
1, 4881, Note_on_c, 0, 73, 30
1, 4881, Note_off_c, 0, 77, 64
1, 4881, Note_on_c, 0, 78, 35
1, 4882, Note_off_c, 0, 34, 64
1, 4882, Note_on_c, 0, 76, 40
1, 4882, Note_on_c, 0, 84, 32
1, 4882, Note_on_c, 0, 86, 32
1, 4882, Note_on_c, 0, 89, 28
1, 4883, Note_off_c, 0, 54, 64
1, 4883, Note_on_c, 0, 66, 53
1, 4883, Note_off_c, 0, 67, 64
1, 4883, Note_off_c, 0, 73, 64
1, 4884, Note_on_c, 0, 51, 75
1, 4884, Note_on_c, 0, 73, 29
1, 4885, Note_on_c, 0, 48, 86
1, 4885, Note_off_c, 0, 51, 64
1, 4885, Note_off_c, 0, 78, 64
1, 4885, Note_off_c, 0, 81, 64
1, 4885, Note_off_c, 0, 84, 64
1, 4885, Note_off_c, 0, 86, 64
1, 4885, Note_off_c, 0, 89, 64
1, 4886, Note_on_c, 0, 44, 95
1, 4886, Note_off_c, 0, 48, 64
1, 4886, Note_off_c, 0, 66, 64
1, 4886, Note_off_c, 0, 73, 64
1, 4887, Note_on_c, 0, 42, 100
1, 4887, Note_off_c, 0, 44, 64
1, 4887, Note_on_c, 0, 72, 20
1, 4887, Note_off_c, 0, 76, 64
1, 4888, Note_on_c, 0, 40, 97
1, 4888, Note_off_c, 0, 42, 64
1, 4889, Note_on_c, 0, 38, 99
1, 4889, Note_off_c, 0, 40, 64
1, 4890, Note_on_c, 0, 36, 98
1, 4890, Note_off_c, 0, 38, 64
1, 4891, Note_on_c, 0, 35, 97
1, 4891, Note_off_c, 0, 36, 64
1, 4891, Note_on_c, 0, 70, 12
1, 4891, Note_on_c, 0, 77, 13
1, 4892, Note_on_c, 0, 34, 96
1, 4892, Note_off_c, 0, 35, 64
1, 4892, Note_off_c, 0, 72, 64
1, 4893, Note_on_c, 0, 33, 96
1, 4893, Note_off_c, 0, 34, 64
1, 4894, Note_on_c, 0, 32, 97
1, 4894, Note_off_c, 0, 33, 64
1, 4894, Note_on_c, 0, 49, 34
1, 4894, Note_off_c, 0, 70, 64
1, 4894, Note_on_c, 0, 72, 14
1, 4894, Note_off_c, 0, 77, 64
1, 4896, Note_on_c, 0, 31, 94
1, 4896, Note_off_c, 0, 32, 64
1, 4897, Note_off_c, 0, 49, 64
1, 4897, Note_off_c, 0, 72, 64
1, 4898, Note_on_c, 0, 30, 84
1, 4898, Note_off_c, 0, 31, 64
1, 4898, Note_on_c, 0, 78, 17
1, 4901, Note_off_c, 0, 30, 64
1, 4901, Note_on_c, 0, 88, 13
1, 4902, Note_on_c, 0, 37, 69
1, 4902, Note_on_c, 0, 71, 31
1, 4902, Note_on_c, 0, 77, 23
1, 4902, Note_off_c, 0, 78, 64
1, 4902, Note_on_c, 0, 82, 11
1, 4903, Note_on_c, 0, 31, 74
1, 4903, Note_off_c, 0, 37, 64
1, 4903, Note_on_c, 0, 64, 33
1, 4903, Note_on_c, 0, 78, 26
1, 4904, Note_on_c, 0, 30, 81
1, 4904, Note_off_c, 0, 31, 64
1, 4905, Note_on_c, 0, 29, 81
1, 4905, Note_off_c, 0, 30, 64
1, 4905, Note_on_c, 0, 80, 30
1, 4905, Note_off_c, 0, 88, 64
1, 4906, Note_off_c, 0, 29, 64
1, 4906, Note_on_c, 0, 30, 78
1, 4906, Note_on_c, 0, 74, 24
1, 4906, Note_off_c, 0, 78, 64
1, 4907, Note_off_c, 0, 64, 64
1, 4907, Note_off_c, 0, 71, 64
1, 4907, Note_on_c, 0, 72, 16
1, 4907, Note_off_c, 0, 77, 64
1, 4908, Note_on_c, 0, 29, 75
1, 4908, Note_off_c, 0, 30, 64
1, 4908, Note_off_c, 0, 82, 64
1, 4909, Note_on_c, 0, 71, 15
1, 4910, Note_off_c, 0, 72, 64
1, 4910, Note_on_c, 0, 76, 16
1, 4911, Note_on_c, 0, 42, 65
1, 4911, Note_on_c, 0, 70, 27
1, 4911, Note_on_c, 0, 84, 32
1, 4912, Note_off_c, 0, 29, 64
1, 4912, Note_on_c, 0, 30, 74
1, 4912, Note_off_c, 0, 42, 64
1, 4912, Note_on_c, 0, 54, 54
1, 4912, Note_on_c, 0, 61, 32
1, 4912, Note_off_c, 0, 71, 64
1, 4912, Note_on_c, 0, 72, 29
1, 4912, Note_on_c, 0, 79, 20
1, 4912, Note_on_c, 0, 85, 14
1, 4913, Note_off_c, 0, 30, 64
1, 4913, Note_on_c, 0, 31, 78
1, 4913, Note_off_c, 0, 76, 64
1, 4914, Note_on_c, 0, 30, 80
1, 4914, Note_off_c, 0, 31, 64
1, 4914, Note_off_c, 0, 72, 64
1, 4914, Note_off_c, 0, 74, 64
1, 4914, Note_off_c, 0, 80, 64
1, 4915, Note_off_c, 0, 54, 64
1, 4915, Note_off_c, 0, 61, 64
1, 4915, Note_off_c, 0, 70, 64
1, 4915, Note_off_c, 0, 85, 64
1, 4916, Note_on_c, 0, 72, 29
1, 4917, Note_off_c, 0, 79, 64
1, 4918, Note_off_c, 0, 30, 64
1, 4918, Note_on_c, 0, 32, 72
1, 4919, Note_off_c, 0, 32, 64
1, 4919, Note_on_c, 0, 34, 67
1, 4919, Note_on_c, 0, 55, 67
1, 4919, Note_on_c, 0, 63, 47
1, 4919, Note_on_c, 0, 66, 45
1, 4919, Note_off_c, 0, 72, 64
1, 4919, Note_on_c, 0, 80, 34
1, 4919, Note_on_c, 0, 82, 32
1, 4919, Note_on_c, 0, 86, 29
1, 4919, Note_on_c, 0, 89, 29
1, 4919, Note_on_c, 0, 91, 30
1, 4919, Note_on_c, 0, 93, 25
1, 4920, Note_off_c, 0, 34, 64
1, 4920, Note_on_c, 0, 68, 44
1, 4920, Note_on_c, 0, 71, 44
1, 4920, Note_on_c, 0, 76, 40
1, 4920, Note_on_c, 0, 79, 35
1, 4921, Note_off_c, 0, 63, 64
1, 4921, Note_on_c, 0, 64, 50
1, 4921, Note_off_c, 0, 66, 64
1, 4921, Note_on_c, 0, 73, 41
1, 4921, Note_off_c, 0, 80, 64
1, 4921, Note_off_c, 0, 89, 64
1, 4922, Note_on_c, 0, 48, 82
1, 4922, Note_off_c, 0, 55, 64
1, 4922, Note_off_c, 0, 71, 64
1, 4922, Note_off_c, 0, 76, 64
1, 4922, Note_off_c, 0, 82, 64
1, 4922, Note_off_c, 0, 84, 64
1, 4922, Note_off_c, 0, 91, 64
1, 4922, Note_off_c, 0, 93, 64
1, 4923, Note_on_c, 0, 45, 93
1, 4923, Note_off_c, 0, 48, 64
1, 4923, Note_off_c, 0, 64, 64
1, 4923, Note_on_c, 0, 72, 28
1, 4923, Note_off_c, 0, 73, 64
1, 4924, Note_on_c, 0, 42, 98
1, 4924, Note_off_c, 0, 45, 64
1, 4924, Note_off_c, 0, 68, 64
1, 4924, Note_on_c, 0, 77, 14
1, 4924, Note_off_c, 0, 79, 64
1, 4924, Note_off_c, 0, 86, 64
1, 4925, Note_on_c, 0, 41, 99
1, 4925, Note_off_c, 0, 42, 64
1, 4925, Note_on_c, 0, 78, 20
1, 4926, Note_on_c, 0, 38, 98
1, 4926, Note_off_c, 0, 41, 64
1, 4926, Note_on_c, 0, 74, 18
1, 4927, Note_on_c, 0, 37, 98
1, 4927, Note_off_c, 0, 38, 64
1, 4927, Note_off_c, 0, 77, 64
1, 4928, Note_on_c, 0, 36, 97
1, 4928, Note_off_c, 0, 37, 64
1, 4928, Note_on_c, 0, 83, 12
1, 4929, Note_on_c, 0, 34, 96
1, 4929, Note_off_c, 0, 36, 64
1, 4930, Note_on_c, 0, 33, 96
1, 4930, Note_off_c, 0, 34, 64
1, 4930, Note_off_c, 0, 74, 64
1, 4931, Note_off_c, 0, 83, 64
1, 4932, Note_on_c, 0, 32, 96
1, 4932, Note_off_c, 0, 33, 64
1, 4933, Note_on_c, 0, 31, 95
1, 4933, Note_off_c, 0, 32, 64
1, 4933, Note_on_c, 0, 70, 21
1, 4935, Note_off_c, 0, 72, 64
1, 4935, Note_on_c, 0, 79, 14
1, 4936, Note_on_c, 0, 30, 78
1, 4936, Note_off_c, 0, 31, 64
1, 4937, Note_on_c, 0, 64, 31
1, 4937, Note_off_c, 0, 70, 64
1, 4937, Note_off_c, 0, 78, 64
1, 4938, Note_off_c, 0, 30, 64
1, 4938, Note_on_c, 0, 75, 25
1, 4938, Note_off_c, 0, 79, 64
1, 4939, Note_on_c, 0, 80, 27
1, 4939, Note_on_c, 0, 84, 11
1, 4940, Note_on_c, 0, 36, 72
1, 4940, Note_on_c, 0, 61, 32
1, 4940, Note_on_c, 0, 68, 30
1, 4940, Note_on_c, 0, 81, 19
1, 4941, Note_on_c, 0, 31, 78
1, 4941, Note_off_c, 0, 36, 64
1, 4941, Note_off_c, 0, 75, 64
1, 4941, Note_on_c, 0, 78, 24
1, 4942, Note_on_c, 0, 29, 80
1, 4942, Note_off_c, 0, 31, 64
1, 4942, Note_on_c, 0, 49, 58
1, 4942, Note_off_c, 0, 64, 64
1, 4942, Note_off_c, 0, 80, 64
1, 4943, Note_off_c, 0, 61, 64
1, 4943, Note_on_c, 0, 72, 28
1, 4943, Note_off_c, 0, 84, 64
1, 4944, Note_off_c, 0, 29, 64
1, 4944, Note_on_c, 0, 30, 76
1, 4944, Note_off_c, 0, 49, 64
1, 4946, Note_on_c, 0, 29, 74
1, 4946, Note_off_c, 0, 30, 64
1, 4946, Note_on_c, 0, 63, 18
1, 4946, Note_off_c, 0, 78, 64
1, 4947, Note_off_c, 0, 29, 64
1, 4947, Note_on_c, 0, 30, 72
1, 4947, Note_off_c, 0, 68, 64
1, 4947, Note_off_c, 0, 81, 64
1, 4948, Note_on_c, 0, 29, 71
1, 4948, Note_off_c, 0, 30, 64
1, 4948, Note_on_c, 0, 42, 68
1, 4948, Note_on_c, 0, 61, 30
1, 4948, Note_on_c, 0, 67, 30
1, 4948, Note_on_c, 0, 73, 37
1, 4948, Note_on_c, 0, 77, 26
1, 4948, Note_on_c, 0, 82, 15
1, 4948, Note_on_c, 0, 91, 12
1, 4949, Note_off_c, 0, 29, 64
1, 4949, Note_on_c, 0, 30, 80
1, 4949, Note_off_c, 0, 63, 64
1, 4949, Note_off_c, 0, 72, 64
1, 4949, Note_on_c, 0, 84, 13
1, 4949, Note_on_c, 0, 86, 9
1, 4950, Note_off_c, 0, 42, 64
1, 4950, Note_on_c, 0, 63, 32
1, 4950, Note_off_c, 0, 67, 64
1, 4950, Note_on_c, 0, 68, 25
1, 4950, Note_on_c, 0, 70, 23
1, 4950, Note_on_c, 0, 79, 20
1, 4950, Note_on_c, 0, 81, 15
1, 4951, Note_off_c, 0, 82, 64
1, 4952, Note_on_c, 0, 29, 80
1, 4952, Note_off_c, 0, 30, 64
1, 4952, Note_on_c, 0, 49, 58
1, 4952, Note_off_c, 0, 63, 64
1, 4952, Note_off_c, 0, 73, 64
1, 4952, Note_off_c, 0, 86, 64
1, 4952, Note_off_c, 0, 91, 64
1, 4953, Note_off_c, 0, 61, 64
1, 4953, Note_off_c, 0, 70, 64
1, 4954, Note_off_c, 0, 29, 64
1, 4954, Note_on_c, 0, 30, 76
1, 4954, Note_on_c, 0, 73, 34
1, 4954, Note_off_c, 0, 77, 64
1, 4954, Note_on_c, 0, 82, 10
1, 4954, Note_off_c, 0, 84, 64
1, 4955, Note_off_c, 0, 49, 64
1, 4955, Note_on_c, 0, 70, 48
1, 4955, Note_on_c, 0, 78, 40
1, 4955, Note_off_c, 0, 79, 64
1, 4955, Note_off_c, 0, 81, 64
1, 4956, Note_off_c, 0, 30, 64
1, 4956, Note_on_c, 0, 34, 72
1, 4956, Note_on_c, 0, 54, 30
1, 4956, Note_off_c, 0, 68, 64
1, 4956, Note_on_c, 0, 79, 29
1, 4957, Note_off_c, 0, 34, 64
1, 4957, Note_on_c, 0, 72, 47
1, 4957, Note_on_c, 0, 81, 36
1, 4957, Note_off_c, 0, 82, 64
1, 4957, Note_on_c, 0, 83, 33
1, 4957, Note_on_c, 0, 89, 25
1, 4957, Note_on_c, 0, 91, 29
1, 4957, Note_on_c, 0, 92, 27
1, 4958, Note_off_c, 0, 54, 64
1, 4958, Note_on_c, 0, 66, 52
1, 4958, Note_off_c, 0, 73, 64
1, 4958, Note_on_c, 0, 74, 40
1, 4958, Note_off_c, 0, 79, 64
1, 4959, Note_on_c, 0, 51, 76
1, 4959, Note_on_c, 0, 69, 38
1, 4959, Note_off_c, 0, 70, 64
1, 4959, Note_on_c, 0, 79, 19
1, 4960, Note_on_c, 0, 46, 87
1, 4960, Note_off_c, 0, 51, 64
1, 4960, Note_off_c, 0, 66, 64
1, 4960, Note_off_c, 0, 72, 64
1, 4960, Note_off_c, 0, 74, 64
1, 4960, Note_off_c, 0, 81, 64
1, 4960, Note_off_c, 0, 83, 64
1, 4960, Note_off_c, 0, 89, 64
1, 4960, Note_off_c, 0, 91, 64
1, 4960, Note_off_c, 0, 92, 64
1, 4961, Note_on_c, 0, 44, 95
1, 4961, Note_off_c, 0, 46, 64
1, 4961, Note_off_c, 0, 69, 64
1, 4961, Note_on_c, 0, 72, 24
1, 4961, Note_off_c, 0, 78, 64
1, 4962, Note_on_c, 0, 41, 100
1, 4962, Note_off_c, 0, 44, 64
1, 4963, Note_on_c, 0, 39, 97
1, 4963, Note_off_c, 0, 41, 64
1, 4964, Note_on_c, 0, 37, 98
1, 4964, Note_off_c, 0, 39, 64
1, 4964, Note_on_c, 0, 75, 14
1, 4964, Note_on_c, 0, 78, 21
1, 4965, Note_on_c, 0, 36, 97
1, 4965, Note_off_c, 0, 37, 64
1, 4965, Note_off_c, 0, 79, 64
1, 4966, Note_on_c, 0, 35, 96
1, 4966, Note_off_c, 0, 36, 64
1, 4967, Note_on_c, 0, 34, 95
1, 4967, Note_off_c, 0, 35, 64
1, 4967, Note_off_c, 0, 75, 64
1, 4967, Note_on_c, 0, 82, 15
1, 4968, Note_on_c, 0, 33, 95
1, 4968, Note_off_c, 0, 34, 64
1, 4969, Note_on_c, 0, 32, 96
1, 4969, Note_off_c, 0, 33, 64
1, 4969, Note_off_c, 0, 72, 64
1, 4969, Note_on_c, 0, 80, 18
1, 4970, Note_on_c, 0, 72, 27
1, 4970, Note_off_c, 0, 82, 64
1, 4971, Note_on_c, 0, 31, 94
1, 4971, Note_off_c, 0, 32, 64
1, 4972, Note_off_c, 0, 78, 64
1, 4972, Note_off_c, 0, 80, 64
1, 4972, Note_on_c, 0, 81, 20
1, 4973, Note_on_c, 0, 30, 83
1, 4973, Note_off_c, 0, 31, 64
1, 4973, Note_on_c, 0, 68, 18
1, 4973, Note_off_c, 0, 72, 64
1, 4973, Note_on_c, 0, 73, 22
1, 4974, Note_on_c, 0, 72, 30
1, 4974, Note_on_c, 0, 80, 20
1, 4975, Note_off_c, 0, 30, 64
1, 4975, Note_on_c, 0, 76, 18
1, 4976, Note_off_c, 0, 68, 64
1, 4976, Note_off_c, 0, 73, 64
1, 4976, Note_on_c, 0, 82, 21
1, 4976, Note_on_c, 0, 85, 14
1, 4976, Note_on_c, 0, 86, 16
1, 4977, Note_on_c, 0, 37, 69
1, 4977, Note_on_c, 0, 61, 30
1, 4977, Note_on_c, 0, 64, 30
1, 4977, Note_on_c, 0, 68, 31
1, 4977, Note_on_c, 0, 77, 25
1, 4977, Note_off_c, 0, 80, 64
1, 4977, Note_on_c, 0, 83, 17
1, 4978, Note_on_c, 0, 31, 75
1, 4978, Note_off_c, 0, 37, 64
1, 4978, Note_off_c, 0, 76, 64
1, 4978, Note_on_c, 0, 78, 30
1, 4978, Note_off_c, 0, 81, 64
1, 4978, Note_on_c, 0, 88, 13
1, 4979, Note_on_c, 0, 30, 80
1, 4979, Note_off_c, 0, 31, 64
1, 4979, Note_off_c, 0, 61, 64
1, 4980, Note_on_c, 0, 29, 81
1, 4980, Note_off_c, 0, 30, 64
1, 4980, Note_off_c, 0, 64, 64
1, 4980, Note_off_c, 0, 68, 64
1, 4980, Note_on_c, 0, 69, 12
1, 4980, Note_on_c, 0, 76, 21
1, 4980, Note_off_c, 0, 85, 64
1, 4981, Note_off_c, 0, 29, 64
1, 4981, Note_on_c, 0, 30, 78
1, 4981, Note_off_c, 0, 77, 64
1, 4981, Note_off_c, 0, 86, 64
1, 4982, Note_on_c, 0, 61, 18
1, 4982, Note_on_c, 0, 71, 29
1, 4982, Note_off_c, 0, 72, 64
1, 4982, Note_off_c, 0, 82, 64
1, 4982, Note_off_c, 0, 83, 64
1, 4982, Note_off_c, 0, 88, 64
1, 4983, Note_on_c, 0, 29, 74
1, 4983, Note_off_c, 0, 30, 64
1, 4983, Note_off_c, 0, 69, 64
1, 4983, Note_off_c, 0, 76, 64
1, 4985, Note_off_c, 0, 61, 64
1, 4985, Note_off_c, 0, 71, 64
1, 4985, Note_on_c, 0, 72, 41
1, 4985, Note_on_c, 0, 81, 19
1, 4985, Note_on_c, 0, 83, 15
1, 4986, Note_off_c, 0, 29, 64
1, 4986, Note_on_c, 0, 30, 79
1, 4986, Note_on_c, 0, 85, 20
1, 4987, Note_on_c, 0, 61, 34
1, 4987, Note_on_c, 0, 66, 33
1, 4988, Note_off_c, 0, 83, 64
1, 4989, Note_on_c, 0, 29, 80
1, 4989, Note_off_c, 0, 30, 64
1, 4989, Note_off_c, 0, 61, 64
1, 4990, Note_on_c, 0, 49, 59
1, 4990, Note_on_c, 0, 70, 31
1, 4990, Note_on_c, 0, 80, 33
1, 4990, Note_off_c, 0, 81, 64
1, 4991, Note_off_c, 0, 29, 64
1, 4991, Note_on_c, 0, 30, 77
1, 4991, Note_on_c, 0, 65, 50
1, 4991, Note_off_c, 0, 66, 64
1, 4991, Note_off_c, 0, 72, 64
1, 4991, Note_off_c, 0, 78, 64
1, 4991, Note_on_c, 0, 79, 26
1, 4992, Note_off_c, 0, 49, 64
1, 4992, Note_on_c, 0, 69, 45
1, 4992, Note_off_c, 0, 70, 64
1, 4993, Note_off_c, 0, 30, 64
1, 4993, Note_on_c, 0, 33, 72
1, 4993, Note_on_c, 0, 54, 34
1, 4994, Note_off_c, 0, 33, 64
1, 4994, Note_on_c, 0, 35, 66
1, 4994, Note_on_c, 0, 76, 34
1, 4994, Note_off_c, 0, 79, 64
1, 4994, Note_on_c, 0, 83, 35
1, 4994, Note_on_c, 0, 86, 39
1, 4994, Note_on_c, 0, 87, 30
1, 4994, Note_on_c, 0, 91, 32
1, 4994, Note_on_c, 0, 93, 28
1, 4994, Note_on_c, 0, 94, 22
1, 4994, Note_on_c, 0, 96, 21
1, 4994, Note_on_c, 0, 101, 19
1, 4995, Note_off_c, 0, 54, 64
1, 4995, Note_on_c, 0, 74, 35
1, 4995, Note_on_c, 0, 82, 35
1, 4995, Note_off_c, 0, 85, 64
1, 4996, Note_off_c, 0, 35, 64
1, 4996, Note_on_c, 0, 53, 70
1, 4996, Note_off_c, 0, 65, 64
1, 4996, Note_off_c, 0, 69, 64
1, 4996, Note_on_c, 0, 70, 44
1, 4996, Note_on_c, 0, 72, 36
1, 4996, Note_on_c, 0, 78, 31
1, 4996, Note_off_c, 0, 80, 64
1, 4996, Note_on_c, 0, 81, 32
1, 4997, Note_on_c, 0, 48, 83
1, 4997, Note_off_c, 0, 53, 64
1, 4997, Note_on_c, 0, 67, 34
1, 4997, Note_off_c, 0, 74, 64
1, 4997, Note_off_c, 0, 76, 64
1, 4997, Note_off_c, 0, 87, 64
1, 4997, Note_off_c, 0, 93, 64
1, 4997, Note_off_c, 0, 94, 64
1, 4997, Note_off_c, 0, 96, 64
1, 4997, Note_off_c, 0, 101, 64
1, 4998, Note_on_c, 0, 45, 93
1, 4998, Note_off_c, 0, 48, 64
1, 4998, Note_on_c, 0, 77, 19
1, 4998, Note_on_c, 0, 80, 18
1, 4998, Note_off_c, 0, 81, 64
1, 4998, Note_off_c, 0, 82, 64
1, 4998, Note_off_c, 0, 86, 64
1, 4998, Note_off_c, 0, 91, 64
1, 4999, Note_on_c, 0, 42, 99
1, 4999, Note_off_c, 0, 45, 64
1, 4999, Note_off_c, 0, 67, 64
1, 4999, Note_on_c, 0, 69, 24
1, 4999, Note_off_c, 0, 70, 64
1, 4999, Note_off_c, 0, 78, 64
1, 5000, Note_on_c, 0, 40, 99
1, 5000, Note_off_c, 0, 42, 64
1, 5001, Note_on_c, 0, 38, 98
1, 5001, Note_off_c, 0, 40, 64
1, 5001, Note_off_c, 0, 72, 64
1, 5001, Note_off_c, 0, 83, 64
1, 5002, Note_on_c, 0, 37, 98
1, 5002, Note_off_c, 0, 38, 64
1, 5002, Note_off_c, 0, 69, 64
1, 5002, Note_on_c, 0, 78, 24
1, 5002, Note_off_c, 0, 80, 64
1, 5002, Note_on_c, 0, 81, 20
1, 5003, Note_on_c, 0, 35, 97
1, 5003, Note_off_c, 0, 37, 64
1, 5004, Note_on_c, 0, 34, 95
1, 5004, Note_off_c, 0, 35, 64
1, 5004, Note_on_c, 0, 82, 13
1, 5005, Note_on_c, 0, 33, 95
1, 5005, Note_off_c, 0, 34, 64
1, 5005, Note_on_c, 0, 48, 32
1, 5005, Note_on_c, 0, 72, 41
1, 5005, Note_off_c, 0, 77, 64
1, 5005, Note_off_c, 0, 81, 64
1, 5005, Note_on_c, 0, 86, 14
1, 5006, Note_on_c, 0, 32, 96
1, 5006, Note_off_c, 0, 33, 64
1, 5006, Note_on_c, 0, 67, 17
1, 5006, Note_on_c, 0, 80, 23
1, 5007, Note_off_c, 0, 48, 64
1, 5007, Note_off_c, 0, 82, 64
1, 5008, Note_on_c, 0, 31, 95
1, 5008, Note_off_c, 0, 32, 64
1, 5009, Note_on_c, 0, 65, 17
1, 5009, Note_on_c, 0, 77, 18
1, 5009, Note_off_c, 0, 78, 64
1, 5009, Note_off_c, 0, 86, 64
1, 5010, Note_off_c, 0, 67, 64
1, 5010, Note_on_c, 0, 75, 14
1, 5011, Note_on_c, 0, 30, 75
1, 5011, Note_off_c, 0, 31, 64
1, 5011, Note_on_c, 0, 83, 15
1, 5012, Note_off_c, 0, 77, 64
1, 5012, Note_on_c, 0, 78, 35
1, 5013, Note_off_c, 0, 30, 64
1, 5013, Note_on_c, 0, 93, 18
1, 5014, Note_on_c, 0, 82, 14
1, 5014, Note_off_c, 0, 83, 64
1, 5014, Note_on_c, 0, 86, 22
1, 5014, Note_on_c, 0, 87, 24
1, 5015, Note_on_c, 0, 31, 70
1, 5015, Note_off_c, 0, 65, 64
1, 5015, Note_on_c, 0, 79, 34
1, 5016, Note_on_c, 0, 30, 79
1, 5016, Note_off_c, 0, 31, 64
1, 5016, Note_off_c, 0, 75, 64
1, 5017, Note_on_c, 0, 29, 80
1, 5017, Note_off_c, 0, 30, 64
1, 5017, Note_on_c, 0, 64, 29
1, 5017, Note_on_c, 0, 81, 19
1, 5017, Note_off_c, 0, 82, 64
1, 5018, Note_off_c, 0, 80, 64
1, 5018, Note_off_c, 0, 87, 64
1, 5018, Note_off_c, 0, 93, 64
1, 5019, Note_off_c, 0, 29, 64
1, 5019, Note_on_c, 0, 30, 77
1, 5019, Note_off_c, 0, 64, 64
1, 5019, Note_on_c, 0, 66, 22
1, 5019, Note_off_c, 0, 79, 64
1, 5020, Note_off_c, 0, 78, 64
1, 5020, Note_on_c, 0, 79, 23
1, 5021, Note_on_c, 0, 29, 74
1, 5021, Note_off_c, 0, 30, 64
1, 5021, Note_off_c, 0, 81, 64
1, 5021, Note_on_c, 0, 82, 20
1, 5022, Note_off_c, 0, 66, 64
1, 5022, Note_on_c, 0, 85, 15
1, 5023, Note_on_c, 0, 68, 24
1, 5023, Note_on_c, 0, 83, 14
1, 5023, Note_off_c, 0, 86, 64
1, 5023, Note_on_c, 0, 88, 17
1, 5023, Note_on_c, 0, 92, 13
1, 5023, Note_on_c, 0, 93, 19
1, 5024, Note_off_c, 0, 29, 64
1, 5024, Note_on_c, 0, 30, 80
1, 5024, Note_on_c, 0, 61, 35
1, 5024, Note_on_c, 0, 66, 30
1, 5024, Note_on_c, 0, 76, 23
1, 5024, Note_on_c, 0, 78, 36
1, 5024, Note_off_c, 0, 79, 64
1, 5024, Note_on_c, 0, 87, 18
1, 5025, Note_on_c, 0, 49, 60
1, 5025, Note_on_c, 0, 71, 36
1, 5025, Note_off_c, 0, 72, 64
1, 5025, Note_on_c, 0, 79, 36
1, 5025, Note_off_c, 0, 85, 64
1, 5026, Note_off_c, 0, 66, 64
1, 5026, Note_off_c, 0, 68, 64
1, 5026, Note_on_c, 0, 70, 26
1, 5026, Note_on_c, 0, 74, 26
1, 5026, Note_on_c, 0, 77, 34
1, 5026, Note_off_c, 0, 78, 64
1, 5026, Note_off_c, 0, 83, 64
1, 5026, Note_on_c, 0, 84, 12
1, 5026, Note_off_c, 0, 92, 64
1, 5027, Note_on_c, 0, 29, 80
1, 5027, Note_off_c, 0, 30, 64
1, 5027, Note_off_c, 0, 71, 64
1, 5027, Note_on_c, 0, 72, 44
1, 5027, Note_off_c, 0, 82, 64
1, 5027, Note_off_c, 0, 87, 64
1, 5028, Note_on_c, 0, 64, 25
1, 5028, Note_on_c, 0, 82, 27
1, 5028, Note_off_c, 0, 88, 64
1, 5028, Note_off_c, 0, 93, 64
1, 5029, Note_off_c, 0, 29, 64
1, 5029, Note_on_c, 0, 30, 75
1, 5029, Note_off_c, 0, 70, 64
1, 5029, Note_off_c, 0, 74, 64
1, 5029, Note_on_c, 0, 75, 27
1, 5029, Note_off_c, 0, 76, 64
1, 5029, Note_off_c, 0, 77, 64
1, 5029, Note_on_c, 0, 83, 30
1, 5029, Note_off_c, 0, 84, 64
1, 5030, Note_off_c, 0, 49, 64
1, 5030, Note_off_c, 0, 61, 64
1, 5030, Note_off_c, 0, 72, 64
1, 5030, Note_on_c, 0, 81, 32
1, 5031, Note_off_c, 0, 30, 64
1, 5031, Note_on_c, 0, 34, 70
1, 5031, Note_off_c, 0, 64, 64
1, 5031, Note_on_c, 0, 77, 41
1, 5031, Note_on_c, 0, 80, 32
1, 5031, Note_on_c, 0, 85, 38
1, 5031, Note_on_c, 0, 88, 28
1, 5032, Note_off_c, 0, 34, 64
1, 5032, Note_on_c, 0, 74, 37
1, 5032, Note_off_c, 0, 75, 64
1, 5033, Note_on_c, 0, 65, 56
1, 5033, Note_on_c, 0, 70, 44
1, 5033, Note_on_c, 0, 72, 39
1, 5033, Note_off_c, 0, 80, 64
1, 5033, Note_off_c, 0, 82, 64
1, 5033, Note_on_c, 0, 90, 25
1, 5034, Note_on_c, 0, 51, 77
1, 5034, Note_off_c, 0, 77, 64
1, 5034, Note_on_c, 0, 78, 28
1, 5035, Note_on_c, 0, 46, 88
1, 5035, Note_off_c, 0, 51, 64
1, 5035, Note_off_c, 0, 65, 64
1, 5035, Note_off_c, 0, 74, 64
1, 5035, Note_on_c, 0, 80, 18
1, 5035, Note_off_c, 0, 81, 64
1, 5036, Note_on_c, 0, 42, 95
1, 5036, Note_off_c, 0, 46, 64
1, 5036, Note_on_c, 0, 75, 20
1, 5036, Note_off_c, 0, 79, 64
1, 5037, Note_on_c, 0, 41, 100
1, 5037, Note_off_c, 0, 42, 64
1, 5037, Note_off_c, 0, 72, 64
1, 5037, Note_on_c, 0, 79, 28
1, 5037, Note_off_c, 0, 83, 64
1, 5037, Note_off_c, 0, 85, 64
1, 5037, Note_on_c, 0, 86, 14
1, 5038, Note_on_c, 0, 39, 97
1, 5038, Note_off_c, 0, 41, 64
1, 5038, Note_off_c, 0, 78, 64
1, 5038, Note_off_c, 0, 90, 64
1, 5039, Note_on_c, 0, 37, 98
1, 5039, Note_off_c, 0, 39, 64
1, 5039, Note_on_c, 0, 66, 24
1, 5039, Note_on_c, 0, 68, 32
1, 5039, Note_on_c, 0, 81, 24
1, 5039, Note_on_c, 0, 83, 18
1, 5039, Note_off_c, 0, 88, 64
1, 5040, Note_on_c, 0, 36, 97
1, 5040, Note_off_c, 0, 37, 64
1, 5040, Note_off_c, 0, 80, 64
1, 5041, Note_on_c, 0, 35, 96
1, 5041, Note_off_c, 0, 36, 64
1, 5042, Note_on_c, 0, 34, 96
1, 5042, Note_off_c, 0, 35, 64
1, 5042, Note_off_c, 0, 66, 64
1, 5042, Note_off_c, 0, 70, 64
1, 5042, Note_on_c, 0, 72, 37
1, 5042, Note_off_c, 0, 75, 64
1, 5042, Note_off_c, 0, 79, 64
1, 5042, Note_off_c, 0, 86, 64
1, 5043, Note_on_c, 0, 33, 95
1, 5043, Note_off_c, 0, 34, 64
1, 5044, Note_on_c, 0, 32, 96
1, 5044, Note_off_c, 0, 33, 64
1, 5044, Note_on_c, 0, 65, 29
1, 5044, Note_off_c, 0, 83, 64
1, 5045, Note_off_c, 0, 68, 64
1, 5045, Note_off_c, 0, 72, 64
1, 5045, Note_on_c, 0, 74, 24
1, 5045, Note_on_c, 0, 82, 18
1, 5045, Note_on_c, 0, 87, 18
1, 5046, Note_on_c, 0, 31, 92
1, 5046, Note_off_c, 0, 32, 64
1, 5046, Note_on_c, 0, 69, 23
1, 5046, Note_on_c, 0, 72, 41
1, 5046, Note_on_c, 0, 91, 17
1, 5047, Note_off_c, 0, 65, 64
1, 5047, Note_on_c, 0, 66, 31
1, 5047, Note_on_c, 0, 76, 30
1, 5047, Note_on_c, 0, 80, 17
1, 5048, Note_on_c, 0, 30, 81
1, 5048, Note_off_c, 0, 31, 64
1, 5048, Note_off_c, 0, 81, 64
1, 5048, Note_off_c, 0, 82, 64
1, 5048, Note_on_c, 0, 94, 19
1, 5049, Note_off_c, 0, 66, 64
1, 5049, Note_off_c, 0, 69, 64
1, 5049, Note_on_c, 0, 79, 32
1, 5049, Note_off_c, 0, 91, 64
1, 5050, Note_off_c, 0, 30, 64
1, 5050, Note_off_c, 0, 72, 64
1, 5050, Note_off_c, 0, 76, 64
1, 5050, Note_off_c, 0, 80, 64
1, 5051, Note_off_c, 0, 74, 64
1, 5051, Note_on_c, 0, 77, 36
1, 5051, Note_on_c, 0, 81, 27
1, 5051, Note_on_c, 0, 83, 28
1, 5051, Note_on_c, 0, 86, 19
1, 5051, Note_on_c, 0, 100, 17
1, 5052, Note_on_c, 0, 37, 69
1, 5052, Note_on_c, 0, 61, 28
1, 5052, Note_on_c, 0, 71, 32
1, 5052, Note_off_c, 0, 87, 64
1, 5053, Note_on_c, 0, 31, 75
1, 5053, Note_off_c, 0, 37, 64
1, 5053, Note_on_c, 0, 80, 31
1, 5053, Note_on_c, 0, 85, 30
1, 5053, Note_on_c, 0, 88, 13
1, 5054, Note_on_c, 0, 30, 80
1, 5054, Note_off_c, 0, 31, 64
1, 5054, Note_off_c, 0, 71, 64
1, 5054, Note_on_c, 0, 72, 29
1, 5054, Note_off_c, 0, 79, 64
1, 5054, Note_off_c, 0, 83, 64
1, 5054, Note_on_c, 0, 84, 30
1, 5055, Note_on_c, 0, 29, 80
1, 5055, Note_off_c, 0, 30, 64
1, 5055, Note_on_c, 0, 49, 58
1, 5055, Note_off_c, 0, 61, 64
1, 5055, Note_on_c, 0, 70, 21
1, 5055, Note_off_c, 0, 77, 64
1, 5055, Note_off_c, 0, 81, 64
1, 5055, Note_on_c, 0, 83, 26
1, 5056, Note_on_c, 0, 67, 28
1, 5056, Note_off_c, 0, 72, 64
1, 5056, Note_on_c, 0, 73, 34
1, 5056, Note_on_c, 0, 79, 32
1, 5056, Note_off_c, 0, 84, 64
1, 5056, Note_on_c, 0, 87, 39
1, 5057, Note_off_c, 0, 29, 64
1, 5057, Note_on_c, 0, 30, 75
1, 5057, Note_on_c, 0, 77, 26
1, 5057, Note_off_c, 0, 80, 64
1, 5057, Note_on_c, 0, 81, 26
1, 5057, Note_on_c, 0, 84, 24
1, 5057, Note_off_c, 0, 85, 64
1, 5057, Note_off_c, 0, 86, 64
1, 5057, Note_off_c, 0, 88, 64
1, 5057, Note_off_c, 0, 94, 64
1, 5058, Note_on_c, 0, 29, 75
1, 5058, Note_off_c, 0, 30, 64
1, 5058, Note_off_c, 0, 49, 64
1, 5058, Note_off_c, 0, 70, 64
1, 5058, Note_off_c, 0, 73, 64
1, 5058, Note_off_c, 0, 79, 64
1, 5058, Note_on_c, 0, 94, 11
1, 5059, Note_on_c, 0, 54, 38
1, 5059, Note_on_c, 0, 74, 29
1, 5059, Note_on_c, 0, 80, 28
1, 5059, Note_on_c, 0, 85, 22
1, 5060, Note_off_c, 0, 67, 64
1, 5060, Note_on_c, 0, 78, 32
1, 5060, Note_off_c, 0, 81, 64
1, 5060, Note_off_c, 0, 84, 64
1, 5060, Note_on_c, 0, 89, 42
1, 5061, Note_off_c, 0, 54, 64
1, 5061, Note_on_c, 0, 69, 33
1, 5061, Note_on_c, 0, 72, 31
1, 5061, Note_off_c, 0, 74, 64
1, 5061, Note_on_c, 0, 75, 28
1, 5061, Note_on_c, 0, 82, 24
1, 5061, Note_on_c, 0, 88, 19
1, 5061, Note_off_c, 0, 94, 64
1, 5062, Note_off_c, 0, 29, 64
1, 5062, Note_on_c, 0, 30, 80
1, 5062, Note_on_c, 0, 54, 53
1, 5062, Note_on_c, 0, 64, 28
1, 5062, Note_on_c, 0, 67, 21
1, 5062, Note_off_c, 0, 77, 64
1, 5062, Note_off_c, 0, 83, 64
1, 5062, Note_on_c, 0, 96, 25
1, 5062, Note_off_c, 0, 100, 64
1, 5063, Note_off_c, 0, 69, 64
1, 5063, Note_on_c, 0, 70, 31
1, 5063, Note_off_c, 0, 72, 64
1, 5063, Note_off_c, 0, 78, 64
1, 5063, Note_on_c, 0, 81, 47
1, 5063, Note_on_c, 0, 83, 26
1, 5064, Note_off_c, 0, 54, 64
1, 5064, Note_off_c, 0, 82, 64
1, 5064, Note_on_c, 0, 94, 36
1, 5065, Note_off_c, 0, 67, 64
1, 5065, Note_off_c, 0, 70, 64
1, 5065, Note_on_c, 0, 78, 32
1, 5065, Note_on_c, 0, 82, 10
1, 5065, Note_on_c, 0, 91, 23
1, 5065, Note_on_c, 0, 100, 24
1, 5066, Note_off_c, 0, 75, 64
1, 5066, Note_on_c, 0, 76, 32
1, 5066, Note_off_c, 0, 83, 64
1, 5067, Note_off_c, 0, 64, 64
1, 5067, Note_on_c, 0, 69, 36
1, 5067, Note_off_c, 0, 88, 64
1, 5068, Note_off_c, 0, 30, 64
1, 5068, Note_on_c, 0, 34, 73
1, 5068, Note_off_c, 0, 80, 64
1, 5068, Note_off_c, 0, 82, 64
1, 5068, Note_on_c, 0, 83, 54
1, 5068, Note_on_c, 0, 86, 50
1, 5069, Note_off_c, 0, 34, 64
1, 5069, Note_on_c, 0, 74, 47
1, 5069, Note_off_c, 0, 76, 64
1, 5069, Note_on_c, 0, 77, 42
1, 5069, Note_off_c, 0, 85, 64
1, 5069, Note_on_c, 0, 88, 41
1, 5069, Note_on_c, 0, 90, 42
1, 5069, Note_on_c, 0, 92, 32
1, 5069, Note_on_c, 0, 97, 25
1, 5070, Note_on_c, 0, 71, 39
1, 5070, Note_off_c, 0, 78, 64
1, 5070, Note_off_c, 0, 91, 64
1, 5071, Note_on_c, 0, 53, 70
1, 5071, Note_off_c, 0, 69, 64
1, 5071, Note_on_c, 0, 76, 39
1, 5071, Note_off_c, 0, 77, 64
1, 5071, Note_on_c, 0, 78, 58
1, 5071, Note_on_c, 0, 82, 49
1, 5071, Note_on_c, 0, 91, 31
1, 5072, Note_on_c, 0, 48, 82
1, 5072, Note_off_c, 0, 53, 64
1, 5072, Note_off_c, 0, 90, 64
1, 5072, Note_off_c, 0, 100, 64
1, 5073, Note_on_c, 0, 45, 93
1, 5073, Note_off_c, 0, 48, 64
1, 5073, Note_off_c, 0, 71, 64
1, 5073, Note_on_c, 0, 73, 40
1, 5073, Note_off_c, 0, 74, 64
1, 5073, Note_on_c, 0, 79, 49
1, 5073, Note_on_c, 0, 80, 44
1, 5073, Note_off_c, 0, 81, 64
1, 5073, Note_on_c, 0, 84, 25
1, 5074, Note_on_c, 0, 42, 98
1, 5074, Note_off_c, 0, 45, 64
1, 5074, Note_on_c, 0, 93, 16
1, 5075, Note_on_c, 0, 40, 97
1, 5075, Note_off_c, 0, 42, 64
1, 5075, Note_off_c, 0, 80, 64
1, 5075, Note_off_c, 0, 82, 64
1, 5075, Note_off_c, 0, 88, 64
1, 5075, Note_off_c, 0, 94, 64
1, 5075, Note_off_c, 0, 97, 64
1, 5076, Note_on_c, 0, 38, 97
1, 5076, Note_off_c, 0, 40, 64
1, 5076, Note_on_c, 0, 75, 37
1, 5076, Note_off_c, 0, 78, 64
1, 5076, Note_on_c, 0, 81, 29
1, 5076, Note_off_c, 0, 86, 64
1, 5076, Note_off_c, 0, 89, 64
1, 5076, Note_off_c, 0, 91, 64
1, 5076, Note_off_c, 0, 96, 64
1, 5077, Note_on_c, 0, 37, 97
1, 5077, Note_off_c, 0, 38, 64
1, 5077, Note_off_c, 0, 76, 64
1, 5077, Note_on_c, 0, 77, 44
1, 5077, Note_off_c, 0, 79, 64
1, 5077, Note_off_c, 0, 84, 64
1, 5078, Note_on_c, 0, 35, 96
1, 5078, Note_off_c, 0, 37, 64
1, 5078, Note_on_c, 0, 70, 19
1, 5078, Note_on_c, 0, 79, 30
1, 5078, Note_on_c, 0, 82, 22
1, 5078, Note_on_c, 0, 88, 22
1, 5079, Note_on_c, 0, 34, 95
1, 5079, Note_off_c, 0, 35, 64
1, 5079, Note_off_c, 0, 73, 64
1, 5079, Note_on_c, 0, 86, 15
1, 5079, Note_off_c, 0, 87, 64
1, 5080, Note_on_c, 0, 33, 95
1, 5080, Note_off_c, 0, 34, 64
1, 5080, Note_off_c, 0, 75, 64
1, 5080, Note_on_c, 0, 80, 27
1, 5081, Note_on_c, 0, 32, 96
1, 5081, Note_off_c, 0, 33, 64
1, 5081, Note_on_c, 0, 49, 31
1, 5081, Note_on_c, 0, 87, 17
1, 5081, Note_off_c, 0, 92, 64
1, 5082, Note_on_c, 0, 62, 12
1, 5082, Note_off_c, 0, 77, 64
1, 5082, Note_off_c, 0, 82, 64
1, 5082, Note_off_c, 0, 88, 64
1, 5083, Note_on_c, 0, 31, 94
1, 5083, Note_off_c, 0, 32, 64
1, 5083, Note_off_c, 0, 49, 64
1, 5083, Note_off_c, 0, 70, 64
1, 5083, Note_on_c, 0, 73, 37
1, 5083, Note_on_c, 0, 75, 23
1, 5083, Note_off_c, 0, 93, 64
1, 5084, Note_on_c, 0, 66, 33
1, 5084, Note_off_c, 0, 81, 64
1, 5084, Note_off_c, 0, 83, 64
1, 5084, Note_off_c, 0, 87, 64
1, 5085, Note_on_c, 0, 30, 85
1, 5085, Note_off_c, 0, 31, 64
1, 5085, Note_off_c, 0, 62, 64
1, 5085, Note_on_c, 0, 71, 18
1, 5085, Note_on_c, 0, 81, 34
1, 5085, Note_on_c, 0, 83, 33
1, 5085, Note_on_c, 0, 88, 16
1, 5085, Note_on_c, 0, 89, 33
1, 5086, Note_off_c, 0, 79, 64
1, 5086, Note_off_c, 0, 80, 64
1, 5087, Note_on_c, 0, 65, 33
1, 5087, Note_off_c, 0, 66, 64
1, 5087, Note_off_c, 0, 73, 64
1, 5087, Note_off_c, 0, 86, 64
1, 5088, Note_off_c, 0, 30, 64
1, 5088, Note_off_c, 0, 71, 64
1, 5088, Note_on_c, 0, 73, 33
1, 5088, Note_on_c, 0, 84, 51
1, 5088, Note_on_c, 0, 86, 40
1, 5088, Note_on_c, 0, 90, 35
1, 5089, Note_on_c, 0, 42, 66
1, 5089, Note_off_c, 0, 65, 64
1, 5089, Note_on_c, 0, 70, 37
1, 5089, Note_off_c, 0, 75, 64
1, 5089, Note_on_c, 0, 92, 31
1, 5089, Note_on_c, 0, 94, 27
1, 5090, Note_on_c, 0, 32, 69
1, 5090, Note_off_c, 0, 42, 64
1, 5090, Note_on_c, 0, 64, 30
1, 5090, Note_on_c, 0, 66, 35
1, 5090, Note_on_c, 0, 71, 30
1, 5090, Note_on_c, 0, 75, 43
1, 5090, Note_on_c, 0, 78, 41
1, 5090, Note_on_c, 0, 80, 40
1, 5090, Note_off_c, 0, 88, 64
1, 5090, Note_on_c, 0, 91, 39
1, 5091, Note_on_c, 0, 30, 78
1, 5091, Note_off_c, 0, 32, 64
1, 5091, Note_on_c, 0, 69, 35
1, 5091, Note_off_c, 0, 70, 64
1, 5091, Note_off_c, 0, 81, 64
1, 5091, Note_on_c, 0, 82, 38
1, 5091, Note_off_c, 0, 83, 64
1, 5091, Note_on_c, 0, 85, 50
1, 5091, Note_off_c, 0, 86, 64
1, 5092, Note_on_c, 0, 29, 79
1, 5092, Note_off_c, 0, 30, 64
1, 5092, Note_off_c, 0, 64, 64
1, 5092, Note_off_c, 0, 71, 64
1, 5092, Note_off_c, 0, 73, 64
1, 5092, Note_on_c, 0, 77, 40
1, 5092, Note_off_c, 0, 78, 64
1, 5092, Note_on_c, 0, 79, 42
1, 5092, Note_on_c, 0, 83, 30
1, 5092, Note_off_c, 0, 84, 64
1, 5092, Note_off_c, 0, 89, 64
1, 5092, Note_off_c, 0, 94, 64
1, 5093, Note_off_c, 0, 29, 64
1, 5093, Note_on_c, 0, 30, 77
1, 5093, Note_on_c, 0, 49, 58
1, 5093, Note_on_c, 0, 65, 36
1, 5093, Note_off_c, 0, 66, 64
1, 5093, Note_on_c, 0, 68, 26
1, 5093, Note_off_c, 0, 69, 64
1, 5093, Note_on_c, 0, 71, 30
1, 5093, Note_off_c, 0, 80, 64
1, 5094, Note_off_c, 0, 82, 64
1, 5094, Note_off_c, 0, 90, 64
1, 5095, Note_off_c, 0, 49, 64
1, 5095, Note_on_c, 0, 70, 32
1, 5095, Note_off_c, 0, 71, 64
1, 5095, Note_on_c, 0, 74, 33
1, 5095, Note_on_c, 0, 78, 38
1, 5095, Note_on_c, 0, 88, 30
1, 5096, Note_on_c, 0, 29, 73
1, 5096, Note_off_c, 0, 30, 64
1, 5096, Note_off_c, 0, 75, 64
1, 5096, Note_on_c, 0, 76, 22
1, 5096, Note_off_c, 0, 77, 64
1, 5096, Note_off_c, 0, 79, 64
1, 5096, Note_off_c, 0, 83, 64
1, 5097, Note_off_c, 0, 68, 64
1, 5097, Note_on_c, 0, 69, 33
1, 5097, Note_off_c, 0, 70, 64
1, 5097, Note_on_c, 0, 80, 39
1, 5098, Note_on_c, 0, 71, 47
1, 5099, Note_off_c, 0, 29, 64
1, 5099, Note_on_c, 0, 30, 73
1, 5099, Note_on_c, 0, 64, 27
1, 5099, Note_off_c, 0, 65, 64
1, 5099, Note_off_c, 0, 74, 64
1, 5099, Note_off_c, 0, 76, 64
1, 5099, Note_off_c, 0, 78, 64
1, 5099, Note_on_c, 0, 79, 46
1, 5099, Note_on_c, 0, 81, 38
1, 5099, Note_on_c, 0, 94, 18
1, 5100, Note_off_c, 0, 30, 64
1, 5100, Note_on_c, 0, 31, 77
1, 5100, Note_on_c, 0, 49, 59
1, 5100, Note_on_c, 0, 68, 37
1, 5100, Note_off_c, 0, 69, 64
1, 5100, Note_off_c, 0, 85, 64
1, 5100, Note_on_c, 0, 86, 32
1, 5101, Note_on_c, 0, 30, 78
1, 5101, Note_off_c, 0, 31, 64
1, 5102, Note_on_c, 0, 29, 79
1, 5102, Note_off_c, 0, 30, 64
1, 5102, Note_off_c, 0, 64, 64
1, 5102, Note_off_c, 0, 68, 64
1, 5102, Note_off_c, 0, 71, 64
1, 5102, Note_on_c, 0, 72, 40
1, 5102, Note_off_c, 0, 81, 64
1, 5103, Note_off_c, 0, 49, 64
1, 5103, Note_on_c, 0, 64, 31
1, 5103, Note_on_c, 0, 67, 50
1, 5103, Note_on_c, 0, 77, 29
1, 5103, Note_on_c, 0, 78, 33
1, 5103, Note_off_c, 0, 79, 64
1, 5103, Note_off_c, 0, 86, 64
1, 5103, Note_on_c, 0, 87, 34
1, 5103, Note_off_c, 0, 92, 64
1, 5104, Note_off_c, 0, 29, 64
1, 5104, Note_on_c, 0, 30, 75
1, 5104, Note_off_c, 0, 80, 64
1, 5104, Note_on_c, 0, 82, 23
1, 5104, Note_on_c, 0, 93, 26
1, 5104, Note_off_c, 0, 94, 64
1, 5105, Note_off_c, 0, 30, 64
1, 5105, Note_on_c, 0, 31, 72
1, 5105, Note_off_c, 0, 64, 64
1, 5105, Note_off_c, 0, 78, 64
1, 5105, Note_off_c, 0, 88, 64
1, 5106, Note_off_c, 0, 31, 64
1, 5106, Note_on_c, 0, 35, 69
1, 5106, Note_on_c, 0, 54, 29
1, 5106, Note_on_c, 0, 81, 42
1, 5106, Note_on_c, 0, 85, 33
1, 5106, Note_on_c, 0, 86, 39
1, 5106, Note_on_c, 0, 89, 30
1, 5106, Note_on_c, 0, 92, 30
1, 5106, Note_on_c, 0, 96, 28
1, 5107, Note_off_c, 0, 35, 64
1, 5107, Note_on_c, 0, 74, 37
1, 5107, Note_off_c, 0, 77, 64
1, 5107, Note_off_c, 0, 82, 64
1, 5107, Note_on_c, 0, 83, 41
1, 5107, Note_on_c, 0, 94, 23
1, 5108, Note_off_c, 0, 54, 64
1, 5108, Note_on_c, 0, 64, 50
1, 5108, Note_on_c, 0, 78, 39
1, 5108, Note_off_c, 0, 86, 64
1, 5108, Note_on_c, 0, 88, 30
1, 5109, Note_on_c, 0, 51, 79
1, 5109, Note_on_c, 0, 69, 34
1, 5109, Note_on_c, 0, 71, 22
1, 5109, Note_off_c, 0, 72, 64
1, 5109, Note_on_c, 0, 75, 20
1, 5109, Note_off_c, 0, 85, 64
1, 5109, Note_off_c, 0, 89, 64
1, 5109, Note_off_c, 0, 91, 64
1, 5109, Note_off_c, 0, 92, 64
1, 5109, Note_off_c, 0, 96, 64
1, 5110, Note_on_c, 0, 45, 90
1, 5110, Note_off_c, 0, 51, 64
1, 5110, Note_off_c, 0, 78, 64
1, 5110, Note_off_c, 0, 87, 64
1, 5110, Note_off_c, 0, 94, 64
1, 5111, Note_on_c, 0, 42, 96
1, 5111, Note_off_c, 0, 45, 64
1, 5111, Note_off_c, 0, 64, 64
1, 5111, Note_off_c, 0, 67, 64
1, 5111, Note_off_c, 0, 69, 64
1, 5111, Note_off_c, 0, 74, 64
1, 5111, Note_off_c, 0, 88, 64
1, 5111, Note_off_c, 0, 93, 64
1, 5112, Note_on_c, 0, 41, 99
1, 5112, Note_off_c, 0, 42, 64
1, 5112, Note_off_c, 0, 71, 64
1, 5112, Note_on_c, 0, 72, 31
1, 5112, Note_on_c, 0, 74, 21
1, 5112, Note_off_c, 0, 75, 64
1, 5112, Note_on_c, 0, 80, 29
1, 5112, Note_on_c, 0, 82, 21
1, 5112, Note_off_c, 0, 83, 64
1, 5113, Note_on_c, 0, 39, 97
1, 5113, Note_off_c, 0, 41, 64
1, 5113, Note_on_c, 0, 76, 18
1, 5113, Note_off_c, 0, 81, 64
1, 5114, Note_on_c, 0, 37, 98
1, 5114, Note_off_c, 0, 39, 64
1, 5114, Note_off_c, 0, 72, 64
1, 5115, Note_on_c, 0, 36, 97
1, 5115, Note_off_c, 0, 37, 64
1, 5115, Note_on_c, 0, 68, 23
1, 5115, Note_on_c, 0, 72, 36
1, 5115, Note_on_c, 0, 79, 23
1, 5115, Note_off_c, 0, 80, 64
1, 5116, Note_on_c, 0, 35, 96
1, 5116, Note_off_c, 0, 36, 64
1, 5117, Note_on_c, 0, 34, 95
1, 5117, Note_off_c, 0, 35, 64
1, 5117, Note_off_c, 0, 76, 64
1, 5117, Note_on_c, 0, 89, 17
1, 5118, Note_on_c, 0, 33, 95
1, 5118, Note_off_c, 0, 34, 64
1, 5118, Note_off_c, 0, 74, 64
1, 5118, Note_on_c, 0, 78, 30
1, 5118, Note_on_c, 0, 80, 24
1, 5118, Note_on_c, 0, 85, 41
1, 5119, Note_on_c, 0, 32, 96
1, 5119, Note_off_c, 0, 33, 64
1, 5119, Note_off_c, 0, 68, 64
1, 5119, Note_off_c, 0, 79, 64
1, 5119, Note_on_c, 0, 91, 11
1, 5120, Note_on_c, 0, 87, 10
1, 5121, Note_on_c, 0, 31, 92
1, 5121, Note_off_c, 0, 32, 64
1, 5121, Note_on_c, 0, 76, 17
1, 5122, Note_off_c, 0, 80, 64
1, 5123, Note_on_c, 0, 30, 80
1, 5123, Note_off_c, 0, 31, 64
1, 5123, Note_off_c, 0, 82, 64
1, 5123, Note_off_c, 0, 87, 64
1, 5124, Note_on_c, 0, 83, 34
1, 5124, Note_off_c, 0, 89, 64
1, 5124, Note_off_c, 0, 91, 64
1, 5125, Note_off_c, 0, 30, 64
1, 5125, Note_off_c, 0, 76, 64
1, 5125, Note_off_c, 0, 78, 64
1, 5125, Note_on_c, 0, 79, 37
1, 5125, Note_on_c, 0, 88, 20
1, 5126, Note_on_c, 0, 80, 34
1, 5126, Note_on_c, 0, 90, 14
1, 5126, Note_on_c, 0, 94, 11
1, 5127, Note_on_c, 0, 36, 71
1, 5127, Note_on_c, 0, 61, 29
1, 5127, Note_on_c, 0, 64, 29
1, 5127, Note_on_c, 0, 82, 25
1, 5128, Note_on_c, 0, 31, 78
1, 5128, Note_off_c, 0, 36, 64
1, 5128, Note_on_c, 0, 49, 61
1, 5128, Note_on_c, 0, 68, 20
1, 5128, Note_on_c, 0, 77, 32
1, 5129, Note_on_c, 0, 30, 80
1, 5129, Note_off_c, 0, 31, 64
1, 5129, Note_off_c, 0, 80, 64
1, 5129, Note_on_c, 0, 81, 17
1, 5130, Note_on_c, 0, 29, 79
1, 5130, Note_off_c, 0, 30, 64
1, 5130, Note_on_c, 0, 63, 24
1, 5130, Note_off_c, 0, 64, 64
1, 5130, Note_on_c, 0, 70, 12
1, 5130, Note_off_c, 0, 72, 64
1, 5130, Note_off_c, 0, 82, 64
1, 5130, Note_on_c, 0, 87, 12
1, 5130, Note_off_c, 0, 88, 64
1, 5131, Note_off_c, 0, 49, 64
1, 5131, Note_off_c, 0, 61, 64
1, 5131, Note_on_c, 0, 72, 27
1, 5131, Note_on_c, 0, 74, 13
1, 5131, Note_off_c, 0, 94, 64
1, 5132, Note_off_c, 0, 29, 64
1, 5132, Note_on_c, 0, 30, 75
1, 5132, Note_off_c, 0, 68, 64
1, 5132, Note_off_c, 0, 85, 64
1, 5132, Note_on_c, 0, 88, 27
1, 5133, Note_on_c, 0, 48, 52
1, 5133, Note_off_c, 0, 63, 64
1, 5133, Note_off_c, 0, 70, 64
1, 5133, Note_off_c, 0, 81, 64
1, 5133, Note_on_c, 0, 82, 17
1, 5133, Note_off_c, 0, 83, 64
1, 5133, Note_off_c, 0, 90, 64
1, 5134, Note_on_c, 0, 29, 72
1, 5134, Note_off_c, 0, 30, 64
1, 5134, Note_on_c, 0, 67, 27
1, 5134, Note_off_c, 0, 74, 64
1, 5135, Note_off_c, 0, 48, 64
1, 5135, Note_on_c, 0, 71, 25
1, 5135, Note_off_c, 0, 72, 64
1, 5135, Note_on_c, 0, 74, 31
1, 5135, Note_off_c, 0, 79, 64
1, 5136, Note_off_c, 0, 29, 64
1, 5136, Note_on_c, 0, 30, 79
1, 5136, Note_on_c, 0, 78, 11
1, 5137, Note_off_c, 0, 67, 64
1, 5137, Note_on_c, 0, 68, 34
1, 5137, Note_on_c, 0, 70, 23
1, 5137, Note_on_c, 0, 81, 21
1, 5137, Note_off_c, 0, 82, 64
1, 5137, Note_off_c, 0, 87, 64
1, 5138, Note_on_c, 0, 63, 32
1, 5138, Note_off_c, 0, 71, 64
1, 5138, Note_on_c, 0, 76, 30
1, 5138, Note_off_c, 0, 77, 64
1, 5138, Note_on_c, 0, 84, 23
1, 5139, Note_on_c, 0, 29, 79
1, 5139, Note_off_c, 0, 30, 64
1, 5139, Note_off_c, 0, 78, 64
1, 5139, Note_off_c, 0, 88, 64
1, 5140, Note_off_c, 0, 29, 64
1, 5140, Note_on_c, 0, 30, 78
1, 5140, Note_off_c, 0, 68, 64
1, 5140, Note_off_c, 0, 74, 64
1, 5140, Note_off_c, 0, 76, 64
1, 5140, Note_on_c, 0, 77, 37
1, 5140, Note_on_c, 0, 83, 29
1, 5141, Note_on_c, 0, 29, 76
1, 5141, Note_off_c, 0, 30, 64
1, 5141, Note_on_c, 0, 67, 28
1, 5141, Note_off_c, 0, 84, 64
1, 5142, Note_off_c, 0, 29, 64
1, 5142, Note_on_c, 0, 30, 74
1, 5142, Note_off_c, 0, 63, 64
1, 5142, Note_on_c, 0, 73, 43
1, 5142, Note_on_c, 0, 87, 27
1, 5142, Note_on_c, 0, 88, 32
1, 5143, Note_off_c, 0, 30, 64
1, 5143, Note_on_c, 0, 34, 72
1, 5143, Note_on_c, 0, 80, 37
1, 5143, Note_off_c, 0, 81, 64
1, 5144, Note_off_c, 0, 34, 64
1, 5144, Note_on_c, 0, 60, 52
1, 5144, Note_on_c, 0, 69, 47
1, 5144, Note_off_c, 0, 70, 64
1, 5144, Note_off_c, 0, 83, 64
1, 5144, Note_on_c, 0, 84, 41
1, 5144, Note_on_c, 0, 86, 33
1, 5144, Note_on_c, 0, 90, 35
1, 5144, Note_on_c, 0, 91, 30
1, 5144, Note_on_c, 0, 94, 22
1, 5144, Note_on_c, 0, 95, 27
1, 5144, Note_on_c, 0, 97, 22
1, 5145, Note_off_c, 0, 67, 64
1, 5145, Note_on_c, 0, 78, 34
1, 5145, Note_off_c, 0, 87, 64
1, 5146, Note_on_c, 0, 51, 73
1, 5146, Note_off_c, 0, 60, 64
1, 5146, Note_on_c, 0, 67, 41
1, 5146, Note_on_c, 0, 82, 18
1, 5147, Note_on_c, 0, 48, 85
1, 5147, Note_off_c, 0, 51, 64
1, 5147, Note_off_c, 0, 88, 64
1, 5147, Note_off_c, 0, 95, 64
1, 5147, Note_off_c, 0, 97, 64
1, 5148, Note_on_c, 0, 45, 94
1, 5148, Note_off_c, 0, 48, 64
1, 5148, Note_off_c, 0, 67, 64
1, 5148, Note_on_c, 0, 76, 21
1, 5148, Note_off_c, 0, 77, 64
1, 5148, Note_off_c, 0, 78, 64
1, 5148, Note_on_c, 0, 79, 26
1, 5148, Note_off_c, 0, 86, 64
1, 5148, Note_off_c, 0, 91, 64
1, 5148, Note_off_c, 0, 94, 64
1, 5149, Note_on_c, 0, 42, 99
1, 5149, Note_off_c, 0, 45, 64
1, 5149, Note_off_c, 0, 69, 64
1, 5149, Note_off_c, 0, 80, 64
1, 5149, Note_off_c, 0, 90, 64
1, 5150, Note_on_c, 0, 40, 97
1, 5150, Note_off_c, 0, 42, 64
1, 5150, Note_on_c, 0, 72, 25
1, 5151, Note_on_c, 0, 38, 98
1, 5151, Note_off_c, 0, 40, 64
1, 5151, Note_off_c, 0, 73, 64
1, 5151, Note_off_c, 0, 79, 64
1, 5151, Note_off_c, 0, 82, 64
1, 5152, Note_on_c, 0, 36, 97
1, 5152, Note_off_c, 0, 38, 64
1, 5152, Note_on_c, 0, 70, 10
1, 5153, Note_on_c, 0, 35, 96
1, 5153, Note_off_c, 0, 36, 64
1, 5153, Note_off_c, 0, 76, 64
1, 5154, Note_on_c, 0, 34, 95
1, 5154, Note_off_c, 0, 35, 64
1, 5154, Note_on_c, 0, 83, 26
1, 5155, Note_on_c, 0, 33, 95
1, 5155, Note_off_c, 0, 34, 64
1, 5155, Note_off_c, 0, 70, 64
1, 5155, Note_off_c, 0, 72, 64
1, 5155, Note_off_c, 0, 84, 64
1, 5155, Note_on_c, 0, 85, 25
1, 5156, Note_on_c, 0, 32, 96
1, 5156, Note_off_c, 0, 33, 64
1, 5156, Note_on_c, 0, 72, 24
1, 5156, Note_on_c, 0, 74, 13
1, 5157, Note_on_c, 0, 80, 29
1, 5157, Note_on_c, 0, 81, 24
1, 5158, Note_on_c, 0, 31, 94
1, 5158, Note_off_c, 0, 32, 64
1, 5158, Note_on_c, 0, 78, 20
1, 5159, Note_off_c, 0, 74, 64
1, 5159, Note_on_c, 0, 75, 13
1, 5160, Note_on_c, 0, 30, 84
1, 5160, Note_off_c, 0, 31, 64
1, 5160, Note_on_c, 0, 77, 22
1, 5160, Note_off_c, 0, 83, 64
1, 5161, Note_on_c, 0, 69, 29
1, 5161, Note_off_c, 0, 78, 64
1, 5161, Note_off_c, 0, 81, 64
1, 5162, Note_off_c, 0, 75, 64
1, 5162, Note_on_c, 0, 83, 17
1, 5162, Note_on_c, 0, 87, 23
1, 5163, Note_off_c, 0, 30, 64
1, 5163, Note_off_c, 0, 72, 64
1, 5164, Note_on_c, 0, 41, 67
1, 5164, Note_on_c, 0, 72, 29
1, 5164, Note_off_c, 0, 80, 64
1, 5164, Note_on_c, 0, 82, 10
1, 5164, Note_off_c, 0, 85, 64
1, 5165, Note_on_c, 0, 32, 70
1, 5165, Note_on_c, 0, 68, 28
1, 5165, Note_off_c, 0, 69, 64
1, 5165, Note_on_c, 0, 70, 26
1, 5165, Note_off_c, 0, 77, 64
1, 5165, Note_on_c, 0, 78, 28
1, 5166, Note_on_c, 0, 30, 79
1, 5166, Note_off_c, 0, 32, 64
1, 5166, Note_off_c, 0, 41, 64
1, 5166, Note_on_c, 0, 64, 35
1, 5166, Note_on_c, 0, 75, 21
1, 5166, Note_off_c, 0, 83, 64
1, 5167, Note_on_c, 0, 29, 81
1, 5167, Note_off_c, 0, 30, 64
1, 5167, Note_on_c, 0, 49, 58
1, 5167, Note_on_c, 0, 85, 20
1, 5168, Note_off_c, 0, 64, 64
1, 5168, Note_off_c, 0, 68, 64
1, 5168, Note_on_c, 0, 79, 27
1, 5169, Note_off_c, 0, 29, 64
1, 5169, Note_on_c, 0, 30, 77
1, 5169, Note_off_c, 0, 70, 64
1, 5169, Note_on_c, 0, 74, 16
1, 5169, Note_on_c, 0, 86, 23
1, 5170, Note_off_c, 0, 49, 64
1, 5170, Note_off_c, 0, 72, 64
1, 5170, Note_off_c, 0, 75, 64
1, 5170, Note_on_c, 0, 76, 16
1, 5171, Note_on_c, 0, 29, 74
1, 5171, Note_off_c, 0, 30, 64
1, 5171, Note_on_c, 0, 72, 25
1, 5171, Note_off_c, 0, 78, 64
1, 5171, Note_off_c, 0, 82, 64
1, 5171, Note_off_c, 0, 87, 64
1, 5172, Note_on_c, 0, 78, 22
1, 5172, Note_on_c, 0, 82, 34
1, 5172, Note_on_c, 0, 84, 28
1, 5172, Note_on_c, 0, 88, 21
1, 5173, Note_off_c, 0, 79, 64
1, 5173, Note_on_c, 0, 87, 21
1, 5173, Note_on_c, 0, 91, 19
1, 5174, Note_off_c, 0, 29, 64
1, 5174, Note_on_c, 0, 30, 79
1, 5174, Note_on_c, 0, 54, 54
1, 5174, Note_on_c, 0, 61, 27
1, 5174, Note_on_c, 0, 64, 31
1, 5174, Note_off_c, 0, 74, 64
1, 5174, Note_off_c, 0, 76, 64
1, 5174, Note_on_c, 0, 77, 33
1, 5174, Note_off_c, 0, 85, 64
1, 5175, Note_on_c, 0, 85, 29
1, 5175, Note_off_c, 0, 86, 64
1, 5175, Note_off_c, 0, 88, 64
1, 5176, Note_off_c, 0, 54, 64
1, 5176, Note_off_c, 0, 72, 64
1, 5176, Note_on_c, 0, 73, 31
1, 5176, Note_off_c, 0, 78, 64
1, 5177, Note_on_c, 0, 29, 78
1, 5177, Note_off_c, 0, 30, 64
1, 5177, Note_off_c, 0, 64, 64
1, 5177, Note_off_c, 0, 91, 64
1, 5178, Note_off_c, 0, 29, 64
1, 5178, Note_on_c, 0, 30, 76
1, 5178, Note_off_c, 0, 61, 64
1, 5178, Note_on_c, 0, 64, 21
1, 5178, Note_off_c, 0, 73, 64
1, 5178, Note_off_c, 0, 82, 64
1, 5179, Note_on_c, 0, 71, 40
1, 5179, Note_off_c, 0, 85, 64
1, 5179, Note_off_c, 0, 87, 64
1, 5180, Note_off_c, 0, 30, 64
1, 5180, Note_on_c, 0, 31, 72
1, 5180, Note_on_c, 0, 48, 54
1, 5180, Note_off_c, 0, 77, 64
1, 5180, Note_off_c, 0, 84, 64
1, 5180, Note_on_c, 0, 93, 24
1, 5181, Note_off_c, 0, 31, 64
1, 5181, Note_on_c, 0, 35, 68
1, 5181, Note_off_c, 0, 64, 64
1, 5181, Note_on_c, 0, 67, 46
1, 5181, Note_on_c, 0, 86, 34
1, 5181, Note_on_c, 0, 87, 34
1, 5181, Note_on_c, 0, 88, 26
1, 5181, Note_on_c, 0, 94, 24
1, 5181, Note_on_c, 0, 96, 20
1, 5182, Note_off_c, 0, 35, 64
1, 5182, Note_off_c, 0, 48, 64
1, 5182, Note_on_c, 0, 81, 37
1, 5183, Note_on_c, 0, 54, 66
1, 5183, Note_on_c, 0, 64, 53
1, 5183, Note_off_c, 0, 67, 64
1, 5183, Note_on_c, 0, 68, 48
1, 5183, Note_on_c, 0, 75, 34
1, 5183, Note_on_c, 0, 78, 31
1, 5183, Note_on_c, 0, 85, 35
1, 5183, Note_off_c, 0, 86, 64
1, 5184, Note_on_c, 0, 49, 80
1, 5184, Note_off_c, 0, 54, 64
1, 5184, Note_on_c, 0, 72, 22
1, 5184, Note_off_c, 0, 88, 64
1, 5184, Note_off_c, 0, 93, 64
1, 5184, Note_off_c, 0, 94, 64
1, 5184, Note_off_c, 0, 96, 64
1, 5185, Note_on_c, 0, 45, 91
1, 5185, Note_off_c, 0, 49, 64
1, 5185, Note_off_c, 0, 68, 64
1, 5185, Note_off_c, 0, 71, 64
1, 5185, Note_off_c, 0, 75, 64
1, 5185, Note_off_c, 0, 78, 64
1, 5185, Note_off_c, 0, 85, 64
1, 5186, Note_on_c, 0, 42, 97
1, 5186, Note_off_c, 0, 45, 64
1, 5186, Note_off_c, 0, 64, 64
1, 5186, Note_on_c, 0, 80, 20
1, 5186, Note_on_c, 0, 85, 15
1, 5186, Note_off_c, 0, 87, 64
1, 5187, Note_on_c, 0, 41, 99
1, 5187, Note_off_c, 0, 42, 64
1, 5187, Note_off_c, 0, 72, 64
1, 5187, Note_on_c, 0, 73, 20
1, 5187, Note_on_c, 0, 78, 19
1, 5188, Note_on_c, 0, 38, 98
1, 5188, Note_off_c, 0, 41, 64
1, 5188, Note_off_c, 0, 81, 64
1, 5189, Note_on_c, 0, 37, 98
1, 5189, Note_off_c, 0, 38, 64
1, 5189, Note_off_c, 0, 80, 64
1, 5189, Note_on_c, 0, 83, 18
1, 5189, Note_off_c, 0, 85, 64
1, 5190, Note_on_c, 0, 36, 97
1, 5190, Note_off_c, 0, 37, 64
1, 5190, Note_off_c, 0, 73, 64
1, 5190, Note_off_c, 0, 78, 64
1, 5191, Note_on_c, 0, 34, 96
1, 5191, Note_off_c, 0, 36, 64
1, 5192, Note_on_c, 0, 33, 96
1, 5192, Note_off_c, 0, 34, 64
1, 5193, Note_on_c, 0, 72, 17
1, 5194, Note_on_c, 0, 32, 96
1, 5194, Note_off_c, 0, 33, 64
1, 5194, Note_off_c, 0, 83, 64
1, 5195, Note_on_c, 0, 31, 95
1, 5195, Note_off_c, 0, 32, 64
1, 5196, Note_off_c, 0, 72, 64
1, 5198, Note_on_c, 0, 30, 79
1, 5198, Note_off_c, 0, 31, 64
1, 5199, Note_on_c, 0, 80, 11
1, 5200, Note_off_c, 0, 30, 64
1, 5200, Note_on_c, 0, 77, 22
1, 5200, Note_on_c, 0, 81, 17
1, 5200, Note_on_c, 0, 82, 24
1, 5201, Note_on_c, 0, 64, 28
1, 5201, Note_on_c, 0, 68, 21
1, 5201, Note_on_c, 0, 84, 23
1, 5201, Note_on_c, 0, 85, 31
1, 5202, Note_on_c, 0, 36, 69
1, 5202, Note_on_c, 0, 61, 28
1, 5202, Note_on_c, 0, 73, 31
1, 5202, Note_on_c, 0, 79, 17
1, 5202, Note_off_c, 0, 80, 64
1, 5203, Note_on_c, 0, 31, 76
1, 5203, Note_off_c, 0, 36, 64
1, 5203, Note_on_c, 0, 87, 19
1, 5204, Note_on_c, 0, 30, 80
1, 5204, Note_off_c, 0, 31, 64
1, 5204, Note_off_c, 0, 77, 64
1, 5204, Note_off_c, 0, 81, 64
1, 5205, Note_on_c, 0, 29, 79
1, 5205, Note_off_c, 0, 30, 64
1, 5205, Note_off_c, 0, 64, 64
1, 5205, Note_on_c, 0, 90, 20
1, 5206, Note_off_c, 0, 29, 64
1, 5206, Note_on_c, 0, 30, 76
1, 5206, Note_off_c, 0, 79, 64
1, 5206, Note_on_c, 0, 88, 15
1, 5207, Note_off_c, 0, 68, 64
1, 5207, Note_off_c, 0, 84, 64
1, 5208, Note_on_c, 0, 29, 74
1, 5208, Note_off_c, 0, 30, 64
1, 5208, Note_off_c, 0, 73, 64
1, 5208, Note_on_c, 0, 74, 13
1, 5208, Note_off_c, 0, 82, 64
1, 5209, Note_off_c, 0, 61, 64
1, 5209, Note_on_c, 0, 79, 31
1, 5209, Note_off_c, 0, 87, 64
1, 5210, Note_on_c, 0, 42, 66
1, 5210, Note_on_c, 0, 66, 24
1, 5210, Note_on_c, 0, 81, 28
1, 5211, Note_off_c, 0, 29, 64
1, 5211, Note_on_c, 0, 30, 79
1, 5211, Note_off_c, 0, 74, 64
1, 5211, Note_on_c, 0, 87, 23
1, 5211, Note_off_c, 0, 90, 64
1, 5211, Note_on_c, 0, 94, 10
1, 5212, Note_off_c, 0, 42, 64
1, 5212, Note_on_c, 0, 64, 30
1, 5212, Note_on_c, 0, 70, 17
1, 5212, Note_off_c, 0, 79, 64
1, 5212, Note_on_c, 0, 83, 25
1, 5212, Note_on_c, 0, 86, 34
1, 5212, Note_on_c, 0, 89, 26
1, 5213, Note_off_c, 0, 66, 64
1, 5213, Note_on_c, 0, 82, 21
1, 5214, Note_on_c, 0, 29, 80
1, 5214, Note_off_c, 0, 30, 64
1, 5214, Note_on_c, 0, 49, 59
1, 5214, Note_on_c, 0, 68, 18
1, 5214, Note_on_c, 0, 74, 13
1, 5214, Note_on_c, 0, 79, 29
1, 5214, Note_off_c, 0, 88, 64
1, 5214, Note_off_c, 0, 94, 64
1, 5215, Note_off_c, 0, 29, 64
1, 5215, Note_on_c, 0, 30, 78
1, 5215, Note_off_c, 0, 64, 64
1, 5215, Note_off_c, 0, 70, 64
1, 5215, Note_off_c, 0, 81, 64
1, 5215, Note_off_c, 0, 87, 64
1, 5216, Note_on_c, 0, 73, 14
1, 5216, Note_off_c, 0, 79, 64
1, 5216, Note_off_c, 0, 83, 64
1, 5216, Note_on_c, 0, 84, 25
1, 5216, Note_off_c, 0, 86, 64
1, 5217, Note_off_c, 0, 49, 64
1, 5217, Note_off_c, 0, 68, 64
1, 5217, Note_on_c, 0, 79, 38
1, 5217, Note_on_c, 0, 81, 36
1, 5217, Note_off_c, 0, 82, 64
1, 5218, Note_off_c, 0, 30, 64
1, 5218, Note_on_c, 0, 34, 72
1, 5218, Note_on_c, 0, 54, 34
1, 5218, Note_off_c, 0, 74, 64
1, 5219, Note_off_c, 0, 34, 64
1, 5219, Note_off_c, 0, 73, 64
1, 5219, Note_on_c, 0, 74, 39
1, 5219, Note_on_c, 0, 75, 36
1, 5220, Note_off_c, 0, 54, 64
1, 5221, Note_on_c, 0, 51, 74
1, 5221, Note_on_c, 0, 78, 21
1, 5221, Note_off_c, 0, 89, 64
1, 5222, Note_on_c, 0, 48, 85
1, 5222, Note_off_c, 0, 51, 64
1, 5222, Note_off_c, 0, 75, 64
1, 5222, Note_off_c, 0, 79, 64
1, 5222, Note_off_c, 0, 81, 64
1, 5222, Note_off_c, 0, 84, 64
1, 5223, Note_on_c, 0, 44, 95
1, 5223, Note_off_c, 0, 48, 64
1, 5223, Note_off_c, 0, 74, 64
1, 5223, Note_off_c, 0, 85, 64
1, 5224, Note_on_c, 0, 42, 100
1, 5224, Note_off_c, 0, 44, 64
1, 5224, Note_on_c, 0, 81, 10
1, 5225, Note_on_c, 0, 40, 97
1, 5225, Note_off_c, 0, 42, 64
1, 5225, Note_off_c, 0, 78, 64
1, 5226, Note_on_c, 0, 38, 98
1, 5226, Note_off_c, 0, 40, 64
1, 5227, Note_on_c, 0, 36, 98
1, 5227, Note_off_c, 0, 38, 64
1, 5227, Note_off_c, 0, 81, 64
1, 5228, Note_on_c, 0, 35, 97
1, 5228, Note_off_c, 0, 36, 64
1, 5228, Note_on_c, 0, 72, 14
1, 5228, Note_on_c, 0, 80, 20
1, 5229, Note_on_c, 0, 34, 96
1, 5229, Note_off_c, 0, 35, 64
1, 5229, Note_on_c, 0, 85, 25
1, 5230, Note_on_c, 0, 33, 96
1, 5230, Note_off_c, 0, 34, 64
1, 5231, Note_on_c, 0, 32, 96
1, 5231, Note_off_c, 0, 33, 64
1, 5231, Note_off_c, 0, 72, 64
1, 5231, Note_on_c, 0, 87, 11
1, 5232, Note_on_c, 0, 48, 30
1, 5232, Note_on_c, 0, 84, 10
1, 5233, Note_on_c, 0, 31, 94
1, 5233, Note_off_c, 0, 32, 64
1, 5233, Note_off_c, 0, 80, 64
1, 5234, Note_off_c, 0, 85, 64
1, 5235, Note_on_c, 0, 30, 83
1, 5235, Note_off_c, 0, 31, 64
1, 5235, Note_off_c, 0, 84, 64
1, 5235, Note_on_c, 0, 86, 9
1, 5236, Note_off_c, 0, 48, 64
1, 5236, Note_off_c, 0, 87, 64
1, 5237, Note_off_c, 0, 30, 64
1, 5238, Note_on_c, 0, 80, 19
1, 5238, Note_on_c, 0, 85, 31
1, 5238, Note_off_c, 0, 86, 64
1, 5239, Note_on_c, 0, 36, 69
1, 5239, Note_on_c, 0, 70, 16
1, 5239, Note_on_c, 0, 76, 15
1, 5239, Note_on_c, 0, 87, 18
1, 5240, Note_on_c, 0, 31, 75
1, 5240, Note_off_c, 0, 36, 64
1, 5240, Note_on_c, 0, 49, 61
1, 5240, Note_on_c, 0, 63, 24
1, 5240, Note_on_c, 0, 79, 21
1, 5240, Note_on_c, 0, 83, 19
1, 5240, Note_on_c, 0, 89, 9
1, 5241, Note_on_c, 0, 30, 80
1, 5241, Note_off_c, 0, 31, 64
1, 5241, Note_off_c, 0, 80, 64
1, 5241, Note_on_c, 0, 94, 13
1, 5242, Note_on_c, 0, 29, 80
1, 5242, Note_off_c, 0, 30, 64
1, 5242, Note_off_c, 0, 76, 64
1, 5243, Note_off_c, 0, 29, 64
1, 5243, Note_on_c, 0, 30, 77
1, 5243, Note_off_c, 0, 49, 64
1, 5243, Note_off_c, 0, 63, 64
1, 5243, Note_on_c, 0, 68, 14
1, 5243, Note_off_c, 0, 70, 64
1, 5243, Note_off_c, 0, 79, 64
1, 5243, Note_on_c, 0, 80, 19
1, 5243, Note_on_c, 0, 82, 19
1, 5243, Note_off_c, 0, 83, 64
1, 5243, Note_off_c, 0, 89, 64
1, 5245, Note_on_c, 0, 29, 75
1, 5245, Note_off_c, 0, 30, 64
1, 5245, Note_on_c, 0, 83, 22
1, 5245, Note_off_c, 0, 87, 64
1, 5246, Note_off_c, 0, 68, 64
1, 5246, Note_on_c, 0, 78, 20
1, 5246, Note_off_c, 0, 80, 64
1, 5246, Note_on_c, 0, 81, 22
1, 5246, Note_off_c, 0, 82, 64
1, 5246, Note_off_c, 0, 94, 64
1, 5247, Note_off_c, 0, 85, 64
1, 5247, Note_on_c, 0, 86, 24
1, 5247, Note_on_c, 0, 90, 23
1, 5248, Note_on_c, 0, 61, 31
1, 5248, Note_on_c, 0, 68, 15
1, 5248, Note_on_c, 0, 85, 33
1, 5248, Note_on_c, 0, 87, 20
1, 5248, Note_on_c, 0, 92, 17
1, 5249, Note_off_c, 0, 29, 64
1, 5249, Note_on_c, 0, 30, 80
1, 5249, Note_on_c, 0, 64, 33
1, 5249, Note_on_c, 0, 70, 19
1, 5249, Note_on_c, 0, 74, 11
1, 5249, Note_on_c, 0, 89, 14
1, 5250, Note_off_c, 0, 61, 64
1, 5250, Note_off_c, 0, 81, 64
1, 5250, Note_off_c, 0, 83, 64
1, 5251, Note_on_c, 0, 79, 25
1, 5251, Note_off_c, 0, 86, 64
1, 5252, Note_off_c, 0, 64, 64
1, 5252, Note_off_c, 0, 68, 64
1, 5252, Note_off_c, 0, 74, 64
1, 5252, Note_off_c, 0, 78, 64
1, 5252, Note_on_c, 0, 83, 26
1, 5252, Note_off_c, 0, 90, 64
1, 5252, Note_off_c, 0, 92, 64
1, 5254, Note_off_c, 0, 70, 64
1, 5254, Note_on_c, 0, 84, 38
1, 5254, Note_on_c, 0, 86, 29
1, 5254, Note_off_c, 0, 87, 64
1, 5254, Note_off_c, 0, 89, 64
1, 5254, Note_on_c, 0, 90, 27
1, 5255, Note_off_c, 0, 30, 64
1, 5255, Note_on_c, 0, 33, 73
1, 5255, Note_on_c, 0, 54, 39
1, 5255, Note_off_c, 0, 79, 64
1, 5255, Note_on_c, 0, 80, 37
1, 5256, Note_off_c, 0, 33, 64
1, 5256, Note_on_c, 0, 35, 67
1, 5256, Note_on_c, 0, 75, 35
1, 5256, Note_on_c, 0, 78, 40
1, 5256, Note_on_c, 0, 82, 35
1, 5256, Note_on_c, 0, 89, 33
1, 5256, Note_on_c, 0, 91, 28
1, 5256, Note_on_c, 0, 100, 21
1, 5257, Note_off_c, 0, 35, 64
1, 5257, Note_off_c, 0, 54, 64
1, 5257, Note_off_c, 0, 83, 64
1, 5257, Note_off_c, 0, 86, 64
1, 5258, Note_on_c, 0, 54, 67
1, 5258, Note_on_c, 0, 72, 38
1, 5258, Note_off_c, 0, 75, 64
1, 5258, Note_on_c, 0, 81, 24
1, 5258, Note_off_c, 0, 85, 64
1, 5258, Note_on_c, 0, 86, 24
1, 5259, Note_on_c, 0, 48, 82
1, 5259, Note_off_c, 0, 54, 64
1, 5259, Note_off_c, 0, 80, 64
1, 5259, Note_off_c, 0, 82, 64
1, 5259, Note_off_c, 0, 89, 64
1, 5259, Note_off_c, 0, 90, 64
1, 5259, Note_off_c, 0, 91, 64
1, 5259, Note_off_c, 0, 100, 64
1, 5260, Note_on_c, 0, 45, 93
1, 5260, Note_off_c, 0, 48, 64
1, 5260, Note_off_c, 0, 78, 64
1, 5260, Note_off_c, 0, 84, 64
1, 5261, Note_on_c, 0, 42, 98
1, 5261, Note_off_c, 0, 45, 64
1, 5261, Note_off_c, 0, 72, 64
1, 5261, Note_off_c, 0, 81, 64
1, 5261, Note_off_c, 0, 86, 64
1, 5262, Note_on_c, 0, 41, 99
1, 5262, Note_off_c, 0, 42, 64
1, 5263, Note_on_c, 0, 38, 98
1, 5263, Note_off_c, 0, 41, 64
1, 5264, Note_on_c, 0, 37, 98
1, 5264, Note_off_c, 0, 38, 64
1, 5265, Note_on_c, 0, 36, 97
1, 5265, Note_off_c, 0, 37, 64
1, 5266, Note_on_c, 0, 34, 96
1, 5266, Note_off_c, 0, 36, 64
1, 5266, Note_on_c, 0, 85, 17
1, 5267, Note_on_c, 0, 33, 96
1, 5267, Note_off_c, 0, 34, 64
1, 5267, Note_on_c, 0, 83, 17
1, 5269, Note_on_c, 0, 32, 96
1, 5269, Note_off_c, 0, 33, 64
1, 5270, Note_on_c, 0, 31, 95
1, 5270, Note_off_c, 0, 32, 64
1, 5270, Note_off_c, 0, 83, 64
1, 5271, Note_on_c, 0, 78, 12
1, 5271, Note_on_c, 0, 81, 11
1, 5272, Note_on_c, 0, 86, 23
1, 5273, Note_on_c, 0, 30, 78
1, 5273, Note_off_c, 0, 31, 64
1, 5274, Note_off_c, 0, 78, 64
1, 5274, Note_off_c, 0, 81, 64
1, 5275, Note_off_c, 0, 30, 64
1, 5276, Note_on_c, 0, 64, 23
1, 5276, Note_on_c, 0, 71, 19
1, 5276, Note_on_c, 0, 82, 24
1, 5277, Note_on_c, 0, 36, 70
1, 5277, Note_on_c, 0, 61, 29
1, 5277, Note_on_c, 0, 68, 23
1, 5277, Note_on_c, 0, 89, 20
1, 5278, Note_on_c, 0, 30, 76
1, 5278, Note_off_c, 0, 36, 64
1, 5278, Note_on_c, 0, 78, 12
1, 5278, Note_off_c, 0, 85, 64
1, 5279, Note_on_c, 0, 29, 80
1, 5279, Note_off_c, 0, 30, 64
1, 5279, Note_on_c, 0, 87, 15
1, 5280, Note_off_c, 0, 61, 64
1, 5280, Note_on_c, 0, 63, 19
1, 5280, Note_off_c, 0, 64, 64
1, 5280, Note_off_c, 0, 68, 64
1, 5280, Note_off_c, 0, 71, 64
1, 5280, Note_on_c, 0, 74, 10
1, 5280, Note_off_c, 0, 86, 64
1, 5280, Note_on_c, 0, 91, 24
1, 5281, Note_off_c, 0, 29, 64
1, 5281, Note_on_c, 0, 30, 77
1, 5281, Note_off_c, 0, 78, 64
1, 5281, Note_on_c, 0, 84, 22
1, 5282, Note_on_c, 0, 83, 19
1, 5282, Note_off_c, 0, 87, 64
1, 5282, Note_on_c, 0, 88, 21
1, 5283, Note_on_c, 0, 29, 75
1, 5283, Note_off_c, 0, 30, 64
1, 5283, Note_on_c, 0, 81, 19
1, 5283, Note_off_c, 0, 82, 64
1, 5284, Note_off_c, 0, 63, 64
1, 5284, Note_on_c, 0, 72, 16
1, 5284, Note_off_c, 0, 74, 64
1, 5284, Note_off_c, 0, 89, 64
1, 5285, Note_on_c, 0, 75, 16
1, 5285, Note_on_c, 0, 82, 24
1, 5285, Note_off_c, 0, 83, 64
1, 5285, Note_on_c, 0, 85, 24
1, 5285, Note_on_c, 0, 87, 23
1, 5286, Note_off_c, 0, 29, 64
1, 5286, Note_on_c, 0, 30, 80
1, 5286, Note_on_c, 0, 43, 66
1, 5286, Note_on_c, 0, 70, 17
1, 5286, Note_on_c, 0, 78, 14
1, 5286, Note_on_c, 0, 90, 26
1, 5287, Note_off_c, 0, 43, 64
1, 5287, Note_on_c, 0, 61, 29
1, 5287, Note_on_c, 0, 68, 15
1, 5287, Note_off_c, 0, 72, 64
1, 5287, Note_off_c, 0, 81, 64
1, 5287, Note_on_c, 0, 83, 19
1, 5288, Note_off_c, 0, 82, 64
1, 5288, Note_off_c, 0, 87, 64
1, 5288, Note_on_c, 0, 89, 11
1, 5289, Note_on_c, 0, 29, 80
1, 5289, Note_off_c, 0, 30, 64
1, 5289, Note_off_c, 0, 75, 64
1, 5289, Note_off_c, 0, 78, 64
1, 5289, Note_on_c, 0, 81, 21
1, 5289, Note_off_c, 0, 84, 64
1, 5290, Note_off_c, 0, 68, 64
1, 5290, Note_off_c, 0, 83, 64
1, 5290, Note_off_c, 0, 88, 64
1, 5290, Note_on_c, 0, 92, 25
1, 5290, Note_on_c, 0, 95, 21
1, 5291, Note_off_c, 0, 29, 64
1, 5291, Note_on_c, 0, 30, 76
1, 5291, Note_off_c, 0, 70, 64
1, 5291, Note_on_c, 0, 88, 28
1, 5292, Note_off_c, 0, 61, 64
1, 5292, Note_off_c, 0, 81, 64
1, 5292, Note_off_c, 0, 85, 64
1, 5292, Note_on_c, 0, 87, 30
1, 5292, Note_off_c, 0, 89, 64
1, 5293, Note_off_c, 0, 30, 64
1, 5293, Note_on_c, 0, 34, 71
1, 5293, Note_on_c, 0, 54, 31
1, 5294, Note_off_c, 0, 34, 64
1, 5294, Note_on_c, 0, 72, 40
1, 5294, Note_on_c, 0, 74, 39
1, 5294, Note_on_c, 0, 78, 37
1, 5294, Note_on_c, 0, 85, 35
1, 5295, Note_off_c, 0, 54, 64
1, 5295, Note_on_c, 0, 81, 36
1, 5295, Note_on_c, 0, 83, 31
1, 5295, Note_off_c, 0, 88, 64
1, 5295, Note_on_c, 0, 89, 31
1, 5296, Note_on_c, 0, 51, 76
1, 5296, Note_off_c, 0, 90, 64
1, 5296, Note_off_c, 0, 92, 64
1, 5296, Note_off_c, 0, 95, 64
1, 5297, Note_on_c, 0, 46, 88
1, 5297, Note_off_c, 0, 51, 64
1, 5297, Note_off_c, 0, 72, 64
1, 5297, Note_off_c, 0, 74, 64
1, 5297, Note_off_c, 0, 78, 64
1, 5297, Note_off_c, 0, 85, 64
1, 5297, Note_off_c, 0, 87, 64
1, 5297, Note_off_c, 0, 89, 64
1, 5297, Note_off_c, 0, 91, 64
1, 5298, Note_on_c, 0, 44, 95
1, 5298, Note_off_c, 0, 46, 64
1, 5298, Note_off_c, 0, 81, 64
1, 5298, Note_off_c, 0, 83, 64
1, 5299, Note_on_c, 0, 41, 100
1, 5299, Note_off_c, 0, 44, 64
1, 5300, Note_on_c, 0, 39, 97
1, 5300, Note_off_c, 0, 41, 64
1, 5301, Note_on_c, 0, 37, 98
1, 5301, Note_off_c, 0, 39, 64
1, 5302, Note_on_c, 0, 36, 98
1, 5302, Note_off_c, 0, 37, 64
1, 5303, Note_on_c, 0, 35, 97
1, 5303, Note_off_c, 0, 36, 64
1, 5304, Note_on_c, 0, 34, 96
1, 5304, Note_off_c, 0, 35, 64
1, 5305, Note_on_c, 0, 33, 96
1, 5305, Note_off_c, 0, 34, 64
1, 5306, Note_on_c, 0, 32, 97
1, 5306, Note_off_c, 0, 33, 64
1, 5308, Note_on_c, 0, 31, 94
1, 5308, Note_off_c, 0, 32, 64
1, 5310, Note_on_c, 0, 30, 82
1, 5310, Note_off_c, 0, 31, 64
1, 5312, Note_off_c, 0, 30, 64
1, 5313, Note_on_c, 0, 88, 14
1, 5313, Note_on_c, 0, 92, 9
1, 5314, Note_on_c, 0, 36, 70
1, 5314, Note_on_c, 0, 61, 26
1, 5314, Note_on_c, 0, 64, 31
1, 5315, Note_on_c, 0, 31, 75
1, 5315, Note_off_c, 0, 36, 64
1, 5315, Note_on_c, 0, 71, 17
1, 5315, Note_on_c, 0, 79, 17
1, 5315, Note_on_c, 0, 87, 21
1, 5316, Note_on_c, 0, 30, 79
1, 5316, Note_off_c, 0, 31, 64
1, 5316, Note_on_c, 0, 68, 16
1, 5317, Note_on_c, 0, 29, 79
1, 5317, Note_off_c, 0, 30, 64
1, 5317, Note_on_c, 0, 63, 28
1, 5317, Note_off_c, 0, 64, 64
1, 5317, Note_off_c, 0, 88, 64
1, 5317, Note_off_c, 0, 92, 64
1, 5318, Note_off_c, 0, 29, 64
1, 5318, Note_on_c, 0, 30, 77
1, 5318, Note_off_c, 0, 61, 64
1, 5318, Note_off_c, 0, 71, 64
1, 5318, Note_off_c, 0, 79, 64
1, 5318, Note_on_c, 0, 84, 22
1, 5318, Note_on_c, 0, 88, 24
1, 5318, Note_on_c, 0, 91, 16
1, 5319, Note_on_c, 0, 86, 24
1, 5319, Note_off_c, 0, 87, 64
1, 5319, Note_on_c, 0, 92, 12
1, 5320, Note_on_c, 0, 29, 75
1, 5320, Note_off_c, 0, 30, 64
1, 5320, Note_on_c, 0, 48, 52
1, 5320, Note_off_c, 0, 68, 64
1, 5320, Note_on_c, 0, 85, 24
1, 5320, Note_on_c, 0, 90, 9
1, 5321, Note_off_c, 0, 63, 64
1, 5321, Note_off_c, 0, 91, 64
1, 5322, Note_off_c, 0, 48, 64
1, 5322, Note_off_c, 0, 92, 64
1, 5323, Note_off_c, 0, 29, 64
1, 5323, Note_on_c, 0, 30, 80
1, 5323, Note_on_c, 0, 68, 25
1, 5323, Note_on_c, 0, 77, 19
1, 5323, Note_on_c, 0, 79, 27
1, 5323, Note_on_c, 0, 81, 22
1, 5323, Note_off_c, 0, 90, 64
1, 5323, Note_on_c, 0, 91, 29
1, 5324, Note_on_c, 0, 61, 28
1, 5324, Note_on_c, 0, 64, 29
1, 5324, Note_on_c, 0, 71, 17
1, 5324, Note_on_c, 0, 92, 16
1, 5325, Note_on_c, 0, 49, 59
1, 5325, Note_on_c, 0, 82, 21
1, 5325, Note_on_c, 0, 87, 28
1, 5326, Note_on_c, 0, 74, 16
1, 5326, Note_on_c, 0, 90, 12
1, 5327, Note_on_c, 0, 29, 79
1, 5327, Note_off_c, 0, 30, 64
1, 5327, Note_off_c, 0, 61, 64
1, 5327, Note_off_c, 0, 64, 64
1, 5327, Note_off_c, 0, 79, 64
1, 5327, Note_off_c, 0, 81, 64
1, 5327, Note_off_c, 0, 85, 64
1, 5327, Note_off_c, 0, 86, 64
1, 5327, Note_off_c, 0, 92, 64
1, 5328, Note_off_c, 0, 29, 64
1, 5328, Note_on_c, 0, 30, 77
1, 5328, Note_off_c, 0, 49, 64
1, 5328, Note_off_c, 0, 71, 64
1, 5328, Note_off_c, 0, 88, 64
1, 5329, Note_off_c, 0, 68, 64
1, 5329, Note_off_c, 0, 74, 64
1, 5329, Note_on_c, 0, 75, 38
1, 5329, Note_off_c, 0, 77, 64
1, 5329, Note_off_c, 0, 82, 64
1, 5329, Note_off_c, 0, 84, 64
1, 5329, Note_on_c, 0, 85, 32
1, 5329, Note_off_c, 0, 90, 64
1, 5330, Note_off_c, 0, 30, 64
1, 5330, Note_on_c, 0, 33, 73
1, 5331, Note_off_c, 0, 33, 64
1, 5331, Note_on_c, 0, 35, 65
1, 5331, Note_on_c, 0, 60, 46
1, 5331, Note_on_c, 0, 65, 48
1, 5331, Note_on_c, 0, 73, 40
1, 5331, Note_on_c, 0, 84, 33
1, 5331, Note_on_c, 0, 86, 28
1, 5331, Note_on_c, 0, 88, 31
1, 5331, Note_on_c, 0, 90, 22
1, 5331, Note_on_c, 0, 92, 25
1, 5331, Note_on_c, 0, 93, 29
1, 5331, Note_on_c, 0, 94, 25
1, 5331, Note_on_c, 0, 95, 24
1, 5331, Note_on_c, 0, 101, 22
1, 5332, Note_off_c, 0, 35, 64
1, 5332, Note_on_c, 0, 76, 36
1, 5332, Note_on_c, 0, 78, 37
1, 5332, Note_on_c, 0, 81, 37
1, 5333, Note_on_c, 0, 53, 69
1, 5333, Note_off_c, 0, 60, 64
1, 5333, Note_on_c, 0, 62, 48
1, 5333, Note_off_c, 0, 65, 64
1, 5333, Note_on_c, 0, 69, 39
1, 5333, Note_on_c, 0, 72, 37
1, 5333, Note_off_c, 0, 73, 64
1, 5333, Note_on_c, 0, 80, 23
1, 5333, Note_off_c, 0, 84, 64
1, 5334, Note_on_c, 0, 48, 84
1, 5334, Note_off_c, 0, 53, 64
1, 5334, Note_off_c, 0, 78, 64
1, 5334, Note_off_c, 0, 85, 64
1, 5334, Note_off_c, 0, 90, 64
1, 5334, Note_off_c, 0, 91, 64
1, 5334, Note_off_c, 0, 92, 64
1, 5334, Note_off_c, 0, 93, 64
1, 5334, Note_off_c, 0, 94, 64
1, 5334, Note_off_c, 0, 101, 64
1, 5335, Note_on_c, 0, 45, 94
1, 5335, Note_off_c, 0, 48, 64
1, 5335, Note_off_c, 0, 69, 64
1, 5335, Note_off_c, 0, 86, 64
1, 5335, Note_off_c, 0, 88, 64
1, 5335, Note_on_c, 0, 89, 20
1, 5335, Note_off_c, 0, 95, 64
1, 5336, Note_on_c, 0, 42, 99
1, 5336, Note_off_c, 0, 45, 64
1, 5336, Note_off_c, 0, 62, 64
1, 5336, Note_off_c, 0, 72, 64
1, 5336, Note_off_c, 0, 75, 64
1, 5336, Note_on_c, 0, 78, 31
1, 5336, Note_off_c, 0, 80, 64
1, 5336, Note_on_c, 0, 86, 16
1, 5337, Note_on_c, 0, 40, 99
1, 5337, Note_off_c, 0, 42, 64
1, 5338, Note_on_c, 0, 38, 98
1, 5338, Note_off_c, 0, 40, 64
1, 5338, Note_on_c, 0, 72, 20
1, 5338, Note_on_c, 0, 85, 17
1, 5339, Note_on_c, 0, 37, 98
1, 5339, Note_off_c, 0, 38, 64
1, 5339, Note_on_c, 0, 75, 25
1, 5339, Note_off_c, 0, 76, 64
1, 5339, Note_off_c, 0, 78, 64
1, 5339, Note_off_c, 0, 81, 64
1, 5339, Note_on_c, 0, 82, 13
1, 5339, Note_on_c, 0, 91, 15
1, 5339, Note_on_c, 0, 92, 16
1, 5340, Note_on_c, 0, 35, 97
1, 5340, Note_off_c, 0, 37, 64
1, 5341, Note_on_c, 0, 34, 96
1, 5341, Note_off_c, 0, 35, 64
1, 5341, Note_off_c, 0, 72, 64
1, 5341, Note_on_c, 0, 73, 29
1, 5341, Note_on_c, 0, 84, 14
1, 5341, Note_off_c, 0, 85, 64
1, 5341, Note_off_c, 0, 86, 64
1, 5341, Note_on_c, 0, 88, 29
1, 5342, Note_on_c, 0, 33, 96
1, 5342, Note_off_c, 0, 34, 64
1, 5342, Note_off_c, 0, 75, 64
1, 5342, Note_off_c, 0, 91, 64
1, 5343, Note_on_c, 0, 32, 96
1, 5343, Note_off_c, 0, 33, 64
1, 5343, Note_on_c, 0, 81, 25
1, 5343, Note_off_c, 0, 82, 64
1, 5344, Note_off_c, 0, 87, 64
1, 5344, Note_on_c, 0, 90, 30
1, 5344, Note_on_c, 0, 91, 20
1, 5345, Note_on_c, 0, 31, 95
1, 5345, Note_off_c, 0, 32, 64
1, 5345, Note_on_c, 0, 74, 21
1, 5345, Note_off_c, 0, 84, 64
1, 5345, Note_on_c, 0, 85, 33
1, 5345, Note_off_c, 0, 92, 64
1, 5346, Note_on_c, 0, 71, 14
1, 5346, Note_off_c, 0, 73, 64
1, 5346, Note_on_c, 0, 78, 25
1, 5346, Note_on_c, 0, 84, 36
1, 5346, Note_on_c, 0, 87, 25
1, 5347, Note_on_c, 0, 86, 37
1, 5347, Note_off_c, 0, 89, 64
1, 5347, Note_on_c, 0, 92, 19
1, 5348, Note_on_c, 0, 30, 76
1, 5348, Note_off_c, 0, 31, 64
1, 5348, Note_on_c, 0, 69, 26
1, 5348, Note_off_c, 0, 74, 64
1, 5348, Note_on_c, 0, 76, 31
1, 5348, Note_on_c, 0, 79, 27
1, 5348, Note_on_c, 0, 95, 14
1, 5349, Note_off_c, 0, 71, 64
1, 5349, Note_off_c, 0, 87, 64
1, 5349, Note_off_c, 0, 91, 64
1, 5350, Note_off_c, 0, 30, 64
1, 5350, Note_on_c, 0, 68, 25
1, 5350, Note_on_c, 0, 75, 32
1, 5350, Note_off_c, 0, 78, 64
1, 5350, Note_off_c, 0, 81, 64
1, 5350, Note_on_c, 0, 87, 33
1, 5350, Note_off_c, 0, 88, 64
1, 5351, Note_off_c, 0, 69, 64
1, 5351, Note_off_c, 0, 76, 64
1, 5351, Note_on_c, 0, 77, 44
1, 5351, Note_on_c, 0, 83, 29
1, 5351, Note_on_c, 0, 88, 27
1, 5351, Note_on_c, 0, 91, 33
1, 5352, Note_on_c, 0, 36, 68
1, 5352, Note_on_c, 0, 58, 38
1, 5352, Note_on_c, 0, 61, 31
1, 5352, Note_off_c, 0, 79, 64
1, 5352, Note_off_c, 0, 85, 64
1, 5352, Note_off_c, 0, 92, 64
1, 5353, Note_on_c, 0, 30, 77
1, 5353, Note_off_c, 0, 36, 64
1, 5353, Note_off_c, 0, 75, 64
1, 5353, Note_on_c, 0, 80, 34
1, 5353, Note_on_c, 0, 82, 33
1, 5354, Note_on_c, 0, 29, 80
1, 5354, Note_off_c, 0, 30, 64
1, 5354, Note_on_c, 0, 63, 21
1, 5354, Note_off_c, 0, 68, 64
1, 5354, Note_on_c, 0, 71, 35
1, 5354, Note_on_c, 0, 74, 23
1, 5354, Note_on_c, 0, 75, 36
1, 5354, Note_on_c, 0, 79, 43
1, 5354, Note_off_c, 0, 83, 64
1, 5354, Note_on_c, 0, 93, 34
1, 5354, Note_off_c, 0, 95, 64
1, 5355, Note_off_c, 0, 58, 64
1, 5355, Note_on_c, 0, 66, 17
1, 5355, Note_off_c, 0, 77, 64
1, 5356, Note_off_c, 0, 29, 64
1, 5356, Note_on_c, 0, 30, 76
1, 5356, Note_on_c, 0, 70, 39
1, 5356, Note_off_c, 0, 71, 64
1, 5356, Note_off_c, 0, 80, 64
1, 5356, Note_on_c, 0, 97, 24
1, 5357, Note_off_c, 0, 61, 64
1, 5357, Note_off_c, 0, 63, 64
1, 5357, Note_off_c, 0, 74, 64
1, 5357, Note_on_c, 0, 76, 33
1, 5357, Note_on_c, 0, 81, 30
1, 5357, Note_off_c, 0, 84, 64
1, 5357, Note_off_c, 0, 88, 64
1, 5357, Note_on_c, 0, 89, 36
1, 5357, Note_off_c, 0, 90, 64
1, 5358, Note_on_c, 0, 29, 73
1, 5358, Note_off_c, 0, 30, 64
1, 5358, Note_off_c, 0, 75, 64
1, 5359, Note_on_c, 0, 58, 30
1, 5359, Note_off_c, 0, 79, 64
1, 5359, Note_off_c, 0, 81, 64
1, 5359, Note_on_c, 0, 83, 39
1, 5360, Note_off_c, 0, 66, 64
1, 5360, Note_on_c, 0, 68, 28
1, 5360, Note_on_c, 0, 78, 30
1, 5360, Note_on_c, 0, 81, 38
1, 5360, Note_off_c, 0, 82, 64
1, 5360, Note_on_c, 0, 84, 40
1, 5360, Note_on_c, 0, 90, 36
1, 5360, Note_on_c, 0, 94, 27
1, 5361, Note_off_c, 0, 29, 64
1, 5361, Note_on_c, 0, 30, 73
1, 5361, Note_off_c, 0, 58, 64
1, 5361, Note_on_c, 0, 64, 33
1, 5361, Note_on_c, 0, 92, 29
1, 5362, Note_off_c, 0, 30, 64
1, 5362, Note_on_c, 0, 31, 78
1, 5362, Note_off_c, 0, 70, 64
1, 5362, Note_on_c, 0, 75, 32
1, 5362, Note_off_c, 0, 76, 64
1, 5362, Note_on_c, 0, 77, 34
1, 5362, Note_on_c, 0, 85, 38
1, 5363, Note_on_c, 0, 30, 80
1, 5363, Note_off_c, 0, 31, 64
1, 5363, Note_off_c, 0, 83, 64
1, 5363, Note_off_c, 0, 87, 64
1, 5363, Note_on_c, 0, 88, 40
1, 5363, Note_on_c, 0, 99, 20
1, 5364, Note_on_c, 0, 29, 80
1, 5364, Note_off_c, 0, 30, 64
1, 5364, Note_on_c, 0, 49, 58
1, 5364, Note_off_c, 0, 68, 64
1, 5364, Note_on_c, 0, 69, 39
1, 5364, Note_off_c, 0, 78, 64
1, 5364, Note_off_c, 0, 84, 64
1, 5364, Note_on_c, 0, 96, 26
1, 5365, Note_off_c, 0, 64, 64
1, 5365, Note_off_c, 0, 75, 64
1, 5365, Note_off_c, 0, 77, 64
1, 5365, Note_on_c, 0, 78, 30
1, 5365, Note_on_c, 0, 83, 34
1, 5366, Note_off_c, 0, 29, 64
1, 5366, Note_on_c, 0, 30, 77
1, 5366, Note_on_c, 0, 79, 33
1, 5366, Note_off_c, 0, 86, 64
1, 5366, Note_off_c, 0, 97, 64
1, 5367, Note_off_c, 0, 49, 64
1, 5367, Note_on_c, 0, 64, 35
1, 5367, Note_on_c, 0, 71, 42
1, 5367, Note_on_c, 0, 73, 37
1, 5367, Note_on_c, 0, 77, 39
1, 5367, Note_off_c, 0, 78, 64
1, 5367, Note_on_c, 0, 86, 39
1, 5367, Note_off_c, 0, 91, 64
1, 5368, Note_off_c, 0, 30, 64
1, 5368, Note_on_c, 0, 34, 71
1, 5368, Note_on_c, 0, 67, 44
1, 5368, Note_off_c, 0, 69, 64
1, 5368, Note_on_c, 0, 74, 37
1, 5368, Note_on_c, 0, 78, 36
1, 5368, Note_off_c, 0, 79, 64
1, 5368, Note_on_c, 0, 80, 39
1, 5368, Note_on_c, 0, 84, 23
1, 5368, Note_on_c, 0, 87, 32
1, 5369, Note_off_c, 0, 34, 64
1, 5369, Note_on_c, 0, 82, 43
1, 5369, Note_off_c, 0, 83, 64
1, 5369, Note_off_c, 0, 89, 64
1, 5370, Note_off_c, 0, 64, 64
1, 5370, Note_off_c, 0, 67, 64
1, 5370, Note_off_c, 0, 73, 64
1, 5370, Note_off_c, 0, 74, 64
1, 5370, Note_off_c, 0, 80, 64
1, 5370, Note_off_c, 0, 81, 64
1, 5370, Note_off_c, 0, 90, 64
1, 5371, Note_on_c, 0, 51, 78
1, 5371, Note_off_c, 0, 71, 64
1, 5371, Note_off_c, 0, 77, 64
1, 5371, Note_off_c, 0, 82, 64
1, 5371, Note_off_c, 0, 86, 64
1, 5371, Note_off_c, 0, 87, 64
1, 5371, Note_off_c, 0, 92, 64
1, 5371, Note_off_c, 0, 94, 64
1, 5371, Note_off_c, 0, 96, 64
1, 5371, Note_off_c, 0, 99, 64
1, 5372, Note_on_c, 0, 46, 89
1, 5372, Note_off_c, 0, 51, 64
1, 5372, Note_off_c, 0, 78, 64
1, 5372, Note_off_c, 0, 84, 64
1, 5373, Note_on_c, 0, 42, 96
1, 5373, Note_off_c, 0, 46, 64
1, 5373, Note_off_c, 0, 88, 64
1, 5374, Note_on_c, 0, 41, 100
1, 5374, Note_off_c, 0, 42, 64
1, 5374, Note_off_c, 0, 93, 64
1, 5375, Note_on_c, 0, 39, 97
1, 5375, Note_off_c, 0, 41, 64
1, 5375, Note_off_c, 0, 85, 64
1, 5376, Note_on_c, 0, 37, 98
1, 5376, Note_off_c, 0, 39, 64
1, 5377, Note_on_c, 0, 36, 98
1, 5377, Note_off_c, 0, 37, 64
1, 5378, Note_on_c, 0, 35, 96
1, 5378, Note_off_c, 0, 36, 64
1, 5378, Note_on_c, 0, 84, 15
1, 5379, Note_on_c, 0, 34, 96
1, 5379, Note_off_c, 0, 35, 64
1, 5379, Note_on_c, 0, 77, 13
1, 5380, Note_on_c, 0, 33, 96
1, 5380, Note_off_c, 0, 34, 64
1, 5380, Note_on_c, 0, 82, 16
1, 5381, Note_on_c, 0, 32, 97
1, 5381, Note_off_c, 0, 33, 64
1, 5382, Note_off_c, 0, 77, 64
1, 5383, Note_on_c, 0, 31, 93
1, 5383, Note_off_c, 0, 32, 64
1, 5383, Note_on_c, 0, 79, 19
1, 5383, Note_on_c, 0, 80, 15
1, 5383, Note_off_c, 0, 82, 64
1, 5385, Note_on_c, 0, 30, 81
1, 5385, Note_off_c, 0, 31, 64
1, 5385, Note_off_c, 0, 84, 64
1, 5385, Note_on_c, 0, 86, 14
1, 5386, Note_off_c, 0, 79, 64
1, 5386, Note_off_c, 0, 80, 64
1, 5386, Note_on_c, 0, 82, 15
1, 5387, Note_off_c, 0, 30, 64
1, 5387, Note_on_c, 0, 91, 15
1, 5387, Note_on_c, 0, 93, 15
1, 5388, Note_on_c, 0, 66, 16
1, 5388, Note_on_c, 0, 77, 22
1, 5388, Note_on_c, 0, 83, 25
1, 5388, Note_on_c, 0, 85, 29
1, 5388, Note_on_c, 0, 88, 17
1, 5388, Note_on_c, 0, 89, 24
1, 5389, Note_on_c, 0, 37, 68
1, 5389, Note_on_c, 0, 64, 27
1, 5389, Note_on_c, 0, 70, 16
1, 5389, Note_on_c, 0, 92, 26
1, 5390, Note_on_c, 0, 31, 75
1, 5390, Note_off_c, 0, 37, 64
1, 5390, Note_on_c, 0, 49, 60
1, 5390, Note_on_c, 0, 68, 12
1, 5390, Note_on_c, 0, 87, 17
1, 5390, Note_off_c, 0, 91, 64
1, 5391, Note_on_c, 0, 30, 80
1, 5391, Note_off_c, 0, 31, 64
1, 5391, Note_off_c, 0, 83, 64
1, 5391, Note_off_c, 0, 86, 64
1, 5391, Note_off_c, 0, 89, 64
1, 5392, Note_on_c, 0, 29, 80
1, 5392, Note_off_c, 0, 30, 64
1, 5392, Note_on_c, 0, 63, 25
1, 5392, Note_off_c, 0, 64, 64
1, 5392, Note_off_c, 0, 70, 64
1, 5392, Note_off_c, 0, 77, 64
1, 5392, Note_off_c, 0, 85, 64
1, 5392, Note_off_c, 0, 88, 64
1, 5393, Note_off_c, 0, 29, 64
1, 5393, Note_on_c, 0, 30, 77
1, 5393, Note_off_c, 0, 49, 64
1, 5393, Note_off_c, 0, 66, 64
1, 5393, Note_off_c, 0, 68, 64
1, 5393, Note_off_c, 0, 82, 64
1, 5393, Note_on_c, 0, 83, 16
1, 5393, Note_off_c, 0, 93, 64
1, 5394, Note_on_c, 0, 86, 25
1, 5394, Note_off_c, 0, 87, 64
1, 5395, Note_on_c, 0, 29, 75
1, 5395, Note_off_c, 0, 30, 64
1, 5395, Note_off_c, 0, 63, 64
1, 5396, Note_on_c, 0, 49, 47
1, 5396, Note_on_c, 0, 89, 14
1, 5396, Note_on_c, 0, 97, 9
1, 5397, Note_off_c, 0, 83, 64
1, 5397, Note_on_c, 0, 84, 21
1, 5397, Note_on_c, 0, 88, 17
1, 5398, Note_off_c, 0, 29, 64
1, 5398, Note_on_c, 0, 30, 80
1, 5398, Note_off_c, 0, 49, 64
1, 5398, Note_on_c, 0, 78, 12
1, 5398, Note_off_c, 0, 92, 64
1, 5399, Note_on_c, 0, 76, 14
1, 5400, Note_off_c, 0, 88, 64
1, 5400, Note_on_c, 0, 92, 12
1, 5400, Note_off_c, 0, 97, 64
1, 5401, Note_on_c, 0, 29, 80
1, 5401, Note_off_c, 0, 30, 64
1, 5401, Note_off_c, 0, 78, 64
1, 5401, Note_off_c, 0, 84, 64
1, 5401, Note_off_c, 0, 86, 64
1, 5402, Note_off_c, 0, 76, 64
1, 5402, Note_off_c, 0, 89, 64
1, 5403, Note_off_c, 0, 29, 64
1, 5403, Note_on_c, 0, 30, 77
1, 5403, Note_on_c, 0, 91, 27
1, 5405, Note_off_c, 0, 30, 64
1, 5405, Note_on_c, 0, 34, 73
1, 5405, Note_off_c, 0, 92, 64
1, 5406, Note_off_c, 0, 34, 64
1, 5406, Note_on_c, 0, 64, 49
1, 5406, Note_on_c, 0, 74, 36
1, 5406, Note_on_c, 0, 77, 40
1, 5406, Note_on_c, 0, 81, 38
1, 5406, Note_on_c, 0, 84, 39
1, 5406, Note_on_c, 0, 87, 32
1, 5406, Note_on_c, 0, 92, 21
1, 5406, Note_on_c, 0, 94, 27
1, 5406, Note_on_c, 0, 95, 17
1, 5407, Note_on_c, 0, 78, 36
1, 5407, Note_on_c, 0, 80, 35
1, 5407, Note_on_c, 0, 83, 35
1, 5408, Note_on_c, 0, 53, 71
1, 5408, Note_off_c, 0, 74, 64
1, 5409, Note_on_c, 0, 48, 85
1, 5409, Note_off_c, 0, 53, 64
1, 5409, Note_off_c, 0, 78, 64
1, 5409, Note_off_c, 0, 80, 64
1, 5409, Note_off_c, 0, 83, 64
1, 5409, Note_off_c, 0, 87, 64
1, 5409, Note_off_c, 0, 91, 64
1, 5409, Note_off_c, 0, 94, 64
1, 5409, Note_off_c, 0, 95, 64
1, 5410, Note_on_c, 0, 45, 95
1, 5410, Note_off_c, 0, 48, 64
1, 5410, Note_off_c, 0, 64, 64
1, 5410, Note_off_c, 0, 77, 64
1, 5410, Note_off_c, 0, 81, 64
1, 5411, Note_on_c, 0, 42, 100
1, 5411, Note_off_c, 0, 45, 64
1, 5411, Note_on_c, 0, 79, 20
1, 5411, Note_off_c, 0, 92, 64
1, 5412, Note_on_c, 0, 40, 98
1, 5412, Note_off_c, 0, 42, 64
1, 5412, Note_off_c, 0, 84, 64
1, 5413, Note_on_c, 0, 38, 98
1, 5413, Note_off_c, 0, 40, 64
1, 5414, Note_on_c, 0, 37, 98
1, 5414, Note_off_c, 0, 38, 64
1, 5414, Note_off_c, 0, 79, 64
1, 5415, Note_on_c, 0, 35, 97
1, 5415, Note_off_c, 0, 37, 64
1, 5416, Note_on_c, 0, 34, 96
1, 5416, Note_off_c, 0, 35, 64
1, 5416, Note_on_c, 0, 83, 20
1, 5416, Note_on_c, 0, 86, 15
1, 5417, Note_on_c, 0, 33, 96
1, 5417, Note_off_c, 0, 34, 64
1, 5418, Note_on_c, 0, 32, 96
1, 5418, Note_off_c, 0, 33, 64
1, 5419, Note_off_c, 0, 83, 64
1, 5420, Note_on_c, 0, 31, 95
1, 5420, Note_off_c, 0, 32, 64
1, 5420, Note_on_c, 0, 82, 12
1, 5421, Note_on_c, 0, 83, 12
1, 5421, Note_off_c, 0, 86, 64
1, 5421, Note_on_c, 0, 88, 17
1, 5422, Note_on_c, 0, 30, 85
1, 5422, Note_off_c, 0, 31, 64
1, 5423, Note_off_c, 0, 82, 64
1, 5423, Note_on_c, 0, 86, 14
1, 5424, Note_on_c, 0, 80, 15
1, 5424, Note_on_c, 0, 82, 21
1, 5424, Note_off_c, 0, 83, 64
1, 5424, Note_on_c, 0, 90, 13
1, 5425, Note_off_c, 0, 30, 64
1, 5425, Note_on_c, 0, 89, 16
1, 5426, Note_on_c, 0, 42, 66
1, 5426, Note_on_c, 0, 64, 27
1, 5426, Note_on_c, 0, 74, 10
1, 5427, Note_on_c, 0, 32, 72
1, 5427, Note_off_c, 0, 42, 64
1, 5427, Note_on_c, 0, 70, 16
1, 5427, Note_off_c, 0, 86, 64
1, 5428, Note_on_c, 0, 30, 80
1, 5428, Note_off_c, 0, 32, 64
1, 5428, Note_off_c, 0, 80, 64
1, 5428, Note_off_c, 0, 82, 64
1, 5428, Note_off_c, 0, 89, 64
1, 5428, Note_off_c, 0, 90, 64
1, 5429, Note_on_c, 0, 29, 81
1, 5429, Note_off_c, 0, 30, 64
1, 5429, Note_on_c, 0, 63, 26
1, 5429, Note_off_c, 0, 64, 64
1, 5429, Note_off_c, 0, 74, 64
1, 5430, Note_off_c, 0, 88, 64
1, 5431, Note_off_c, 0, 29, 64
1, 5431, Note_on_c, 0, 30, 76
1, 5431, Note_off_c, 0, 70, 64
1, 5433, Note_on_c, 0, 29, 74
1, 5433, Note_off_c, 0, 30, 64
1, 5434, Note_off_c, 0, 63, 64
1, 5435, Note_on_c, 0, 83, 13
1, 5435, Note_on_c, 0, 84, 17
1, 5435, Note_on_c, 0, 91, 13
1, 5436, Note_off_c, 0, 29, 64
1, 5436, Note_on_c, 0, 30, 74
1, 5436, Note_on_c, 0, 61, 29
1, 5436, Note_on_c, 0, 68, 18
1, 5436, Note_on_c, 0, 70, 15
1, 5436, Note_on_c, 0, 76, 12
1, 5436, Note_on_c, 0, 92, 10
1, 5437, Note_off_c, 0, 30, 64
1, 5437, Note_on_c, 0, 31, 78
1, 5437, Note_on_c, 0, 49, 62
1, 5438, Note_on_c, 0, 30, 80
1, 5438, Note_off_c, 0, 31, 64
1, 5438, Note_on_c, 0, 63, 25
1, 5438, Note_on_c, 0, 79, 13
1, 5438, Note_on_c, 0, 86, 11
1, 5439, Note_on_c, 0, 29, 80
1, 5439, Note_off_c, 0, 30, 64
1, 5439, Note_off_c, 0, 83, 64
1, 5439, Note_off_c, 0, 84, 64
1, 5439, Note_off_c, 0, 91, 64
1, 5439, Note_off_c, 0, 92, 64
1, 5440, Note_off_c, 0, 49, 64
1, 5440, Note_off_c, 0, 70, 64
1, 5440, Note_off_c, 0, 76, 64
1, 5441, Note_off_c, 0, 29, 64
1, 5441, Note_on_c, 0, 30, 76
1, 5441, Note_off_c, 0, 61, 64
1, 5441, Note_off_c, 0, 68, 64
1, 5442, Note_off_c, 0, 30, 64
1, 5442, Note_on_c, 0, 31, 72
1, 5442, Note_off_c, 0, 79, 64
1, 5442, Note_off_c, 0, 86, 64
1, 5443, Note_off_c, 0, 31, 64
1, 5443, Note_on_c, 0, 34, 69
1, 5443, Note_off_c, 0, 63, 64
1, 5443, Note_on_c, 0, 82, 36
1, 5443, Note_on_c, 0, 88, 33
1, 5443, Note_on_c, 0, 91, 29
1, 5444, Note_on_c, 0, 72, 40
1, 5444, Note_on_c, 0, 77, 35
1, 5444, Note_on_c, 0, 79, 34
1, 5444, Note_on_c, 0, 85, 34
1, 5445, Note_off_c, 0, 34, 64
1, 5445, Note_on_c, 0, 64, 52
1, 5445, Note_on_c, 0, 78, 31
1, 5445, Note_on_c, 0, 87, 20
1, 5446, Note_on_c, 0, 50, 79
1, 5446, Note_off_c, 0, 79, 64
1, 5446, Note_off_c, 0, 88, 64
1, 5446, Note_off_c, 0, 91, 64
1, 5447, Note_on_c, 0, 45, 91
1, 5447, Note_off_c, 0, 50, 64
1, 5447, Note_off_c, 0, 64, 64
1, 5447, Note_off_c, 0, 72, 64
1, 5447, Note_off_c, 0, 78, 64
1, 5447, Note_off_c, 0, 82, 64
1, 5447, Note_off_c, 0, 85, 64
1, 5448, Note_on_c, 0, 42, 97
1, 5448, Note_off_c, 0, 45, 64
1, 5448, Note_off_c, 0, 77, 64
1, 5448, Note_off_c, 0, 87, 64
1, 5449, Note_on_c, 0, 41, 100
1, 5449, Note_off_c, 0, 42, 64
1, 5450, Note_on_c, 0, 39, 98
1, 5450, Note_off_c, 0, 41, 64
1, 5451, Note_on_c, 0, 37, 98
1, 5451, Note_off_c, 0, 39, 64
1, 5451, Note_on_c, 0, 86, 18
1, 5452, Note_on_c, 0, 36, 98
1, 5452, Note_off_c, 0, 37, 64
1, 5453, Note_on_c, 0, 35, 96
1, 5453, Note_off_c, 0, 36, 64
1, 5454, Note_on_c, 0, 34, 96
1, 5454, Note_off_c, 0, 35, 64
1, 5454, Note_off_c, 0, 86, 64
1, 5455, Note_on_c, 0, 33, 96
1, 5455, Note_off_c, 0, 34, 64
1, 5456, Note_on_c, 0, 32, 96
1, 5456, Note_off_c, 0, 33, 64
1, 5457, Note_on_c, 0, 31, 96
1, 5457, Note_off_c, 0, 32, 64
1, 5460, Note_on_c, 0, 30, 80
1, 5460, Note_off_c, 0, 31, 64
1, 5462, Note_off_c, 0, 30, 64
1, 5463, Note_on_c, 0, 85, 19
1, 5464, Note_on_c, 0, 36, 71
1, 5464, Note_on_c, 0, 61, 29
1, 5464, Note_on_c, 0, 64, 27
1, 5464, Note_on_c, 0, 66, 19
1, 5464, Note_on_c, 0, 68, 16
1, 5464, Note_on_c, 0, 86, 10
1, 5465, Note_on_c, 0, 31, 76
1, 5465, Note_off_c, 0, 36, 64
1, 5466, Note_on_c, 0, 30, 80
1, 5466, Note_off_c, 0, 31, 64
1, 5466, Note_on_c, 0, 79, 9
1, 5467, Note_on_c, 0, 29, 79
1, 5467, Note_off_c, 0, 30, 64
1, 5467, Note_on_c, 0, 63, 23
1, 5467, Note_off_c, 0, 64, 64
1, 5467, Note_off_c, 0, 85, 64
1, 5468, Note_off_c, 0, 29, 64
1, 5468, Note_on_c, 0, 30, 76
1, 5468, Note_off_c, 0, 66, 64
1, 5469, Note_off_c, 0, 61, 64
1, 5469, Note_off_c, 0, 68, 64
1, 5470, Note_on_c, 0, 29, 75
1, 5470, Note_off_c, 0, 30, 64
1, 5470, Note_off_c, 0, 79, 64
1, 5470, Note_off_c, 0, 86, 64
1, 5471, Note_off_c, 0, 63, 64
1, 5472, Note_on_c, 0, 87, 15
1, 5473, Note_off_c, 0, 29, 64
1, 5473, Note_on_c, 0, 30, 80
1, 5473, Note_on_c, 0, 76, 10
1, 5473, Note_on_c, 0, 84, 24
1, 5473, Note_on_c, 0, 85, 19
1, 5473, Note_on_c, 0, 89, 15
1, 5474, Note_on_c, 0, 61, 29
1, 5474, Note_on_c, 0, 68, 19
1, 5474, Note_on_c, 0, 71, 18
1, 5475, Note_on_c, 0, 86, 14
1, 5475, Note_off_c, 0, 87, 64
1, 5476, Note_on_c, 0, 29, 80
1, 5476, Note_off_c, 0, 30, 64
1, 5476, Note_off_c, 0, 84, 64
1, 5476, Note_off_c, 0, 85, 64
1, 5477, Note_off_c, 0, 29, 64
1, 5477, Note_on_c, 0, 30, 79
1, 5477, Note_off_c, 0, 76, 64
1, 5477, Note_off_c, 0, 89, 64
1, 5478, Note_off_c, 0, 71, 64
1, 5478, Note_on_c, 0, 83, 9
1, 5478, Note_off_c, 0, 86, 64
1, 5479, Note_off_c, 0, 61, 64
1, 5479, Note_off_c, 0, 68, 64
1, 5480, Note_off_c, 0, 30, 64
1, 5480, Note_on_c, 0, 34, 72
1, 5480, Note_on_c, 0, 54, 32
1, 5481, Note_off_c, 0, 34, 64
1, 5481, Note_on_c, 0, 65, 51
1, 5481, Note_on_c, 0, 78, 37
1, 5481, Note_on_c, 0, 82, 35
1, 5481, Note_off_c, 0, 83, 64
1, 5481, Note_on_c, 0, 85, 32
1, 5481, Note_on_c, 0, 86, 33
1, 5481, Note_on_c, 0, 88, 30
1, 5482, Note_off_c, 0, 54, 64
1, 5482, Note_on_c, 0, 76, 37
1, 5482, Note_on_c, 0, 83, 32
1, 5483, Note_on_c, 0, 51, 73
1, 5483, Note_off_c, 0, 65, 64
1, 5483, Note_off_c, 0, 78, 64
1, 5483, Note_off_c, 0, 82, 64
1, 5484, Note_on_c, 0, 48, 85
1, 5484, Note_off_c, 0, 51, 64
1, 5484, Note_off_c, 0, 76, 64
1, 5484, Note_off_c, 0, 83, 64
1, 5484, Note_off_c, 0, 85, 64
1, 5484, Note_off_c, 0, 86, 64
1, 5484, Note_off_c, 0, 88, 64
1, 5485, Note_on_c, 0, 45, 95
1, 5485, Note_off_c, 0, 48, 64
1, 5486, Note_on_c, 0, 42, 100
1, 5486, Note_off_c, 0, 45, 64
1, 5487, Note_on_c, 0, 40, 98
1, 5487, Note_off_c, 0, 42, 64
1, 5488, Note_on_c, 0, 38, 98
1, 5488, Note_off_c, 0, 40, 64
1, 5489, Note_on_c, 0, 36, 98
1, 5489, Note_off_c, 0, 38, 64
1, 5490, Note_on_c, 0, 35, 97
1, 5490, Note_off_c, 0, 36, 64
1, 5491, Note_on_c, 0, 34, 96
1, 5491, Note_off_c, 0, 35, 64
1, 5492, Note_on_c, 0, 33, 96
1, 5492, Note_off_c, 0, 34, 64
1, 5493, Note_on_c, 0, 32, 97
1, 5493, Note_off_c, 0, 33, 64
1, 5493, Note_on_c, 0, 49, 31
1, 5495, Note_on_c, 0, 31, 95
1, 5495, Note_off_c, 0, 32, 64
1, 5495, Note_off_c, 0, 49, 64
1, 5497, Note_on_c, 0, 30, 84
1, 5497, Note_off_c, 0, 31, 64
1, 5500, Note_off_c, 0, 30, 64
1, 5501, Note_on_c, 0, 37, 68
1, 5501, Note_on_c, 0, 64, 31
1, 5501, Note_on_c, 0, 68, 20
1, 5501, Note_on_c, 0, 81, 9
1, 5501, Note_on_c, 0, 85, 16
1, 5502, Note_on_c, 0, 31, 73
1, 5502, Note_off_c, 0, 37, 64
1, 5502, Note_on_c, 0, 78, 10
1, 5503, Note_on_c, 0, 30, 79
1, 5503, Note_off_c, 0, 31, 64
1, 5504, Note_on_c, 0, 29, 81
1, 5504, Note_off_c, 0, 30, 64
1, 5504, Note_on_c, 0, 63, 26
1, 5504, Note_off_c, 0, 64, 64
1, 5504, Note_off_c, 0, 81, 64
1, 5504, Note_off_c, 0, 85, 64
1, 5505, Note_off_c, 0, 78, 64
1, 5506, Note_off_c, 0, 29, 64
1, 5506, Note_on_c, 0, 30, 76
1, 5506, Note_off_c, 0, 68, 64
1, 5507, Note_on_c, 0, 86, 14
1, 5508, Note_on_c, 0, 29, 74
1, 5508, Note_off_c, 0, 30, 64
1, 5508, Note_off_c, 0, 63, 64
1, 5510, Note_on_c, 0, 84, 12
1, 5511, Note_off_c, 0, 29, 64
1, 5511, Note_on_c, 0, 30, 74
1, 5511, Note_on_c, 0, 54, 55
1, 5511, Note_on_c, 0, 61, 29
1, 5511, Note_on_c, 0, 68, 17
1, 5511, Note_on_c, 0, 70, 13
1, 5511, Note_on_c, 0, 71, 12
1, 5511, Note_on_c, 0, 76, 10
1, 5511, Note_off_c, 0, 86, 64
1, 5512, Note_off_c, 0, 30, 64
1, 5512, Note_on_c, 0, 31, 78
1, 5512, Note_on_c, 0, 49, 61
1, 5512, Note_on_c, 0, 64, 29
1, 5513, Note_on_c, 0, 30, 80
1, 5513, Note_off_c, 0, 31, 64
1, 5513, Note_off_c, 0, 54, 64
1, 5514, Note_on_c, 0, 29, 80
1, 5514, Note_off_c, 0, 30, 64
1, 5514, Note_on_c, 0, 63, 25
1, 5514, Note_off_c, 0, 64, 64
1, 5514, Note_off_c, 0, 76, 64
1, 5514, Note_off_c, 0, 84, 64
1, 5515, Note_off_c, 0, 29, 64
1, 5515, Note_on_c, 0, 30, 77
1, 5515, Note_off_c, 0, 49, 64
1, 5515, Note_off_c, 0, 70, 64
1, 5515, Note_off_c, 0, 71, 64
1, 5516, Note_off_c, 0, 61, 64
1, 5516, Note_off_c, 0, 68, 64
1, 5517, Note_off_c, 0, 30, 64
1, 5517, Note_on_c, 0, 31, 73
1, 5518, Note_off_c, 0, 31, 64
1, 5518, Note_on_c, 0, 35, 69
1, 5518, Note_off_c, 0, 63, 64
1, 5518, Note_on_c, 0, 77, 37
1, 5518, Note_on_c, 0, 80, 36
1, 5518, Note_on_c, 0, 82, 33
1, 5518, Note_on_c, 0, 86, 32
1, 5518, Note_on_c, 0, 87, 33
1, 5518, Note_on_c, 0, 90, 25
1, 5518, Note_on_c, 0, 91, 26
1, 5518, Note_on_c, 0, 93, 25
1, 5519, Note_off_c, 0, 35, 64
1, 5519, Note_on_c, 0, 84, 36
1, 5520, Note_on_c, 0, 54, 66
1, 5520, Note_off_c, 0, 82, 64
1, 5521, Note_on_c, 0, 49, 81
1, 5521, Note_off_c, 0, 54, 64
1, 5521, Note_off_c, 0, 77, 64
1, 5521, Note_off_c, 0, 80, 64
1, 5521, Note_off_c, 0, 84, 64
1, 5521, Note_off_c, 0, 86, 64
1, 5521, Note_off_c, 0, 87, 64
1, 5521, Note_off_c, 0, 90, 64
1, 5521, Note_off_c, 0, 91, 64
1, 5521, Note_off_c, 0, 93, 64
1, 5522, Note_on_c, 0, 45, 92
1, 5522, Note_off_c, 0, 49, 64
1, 5523, Note_on_c, 0, 42, 98
1, 5523, Note_off_c, 0, 45, 64
1, 5524, Note_on_c, 0, 41, 100
1, 5524, Note_off_c, 0, 42, 64
1, 5525, Note_on_c, 0, 38, 98
1, 5525, Note_off_c, 0, 41, 64
1, 5526, Note_on_c, 0, 37, 98
1, 5526, Note_off_c, 0, 38, 64
1, 5527, Note_on_c, 0, 36, 98
1, 5527, Note_off_c, 0, 37, 64
1, 5528, Note_on_c, 0, 34, 96
1, 5528, Note_off_c, 0, 36, 64
1, 5530, Note_on_c, 0, 33, 96
1, 5530, Note_off_c, 0, 34, 64
1, 5531, Note_on_c, 0, 32, 97
1, 5531, Note_off_c, 0, 33, 64
1, 5532, Note_on_c, 0, 31, 95
1, 5532, Note_off_c, 0, 32, 64
1, 5535, Note_on_c, 0, 30, 79
1, 5535, Note_off_c, 0, 31, 64
1, 5537, Note_off_c, 0, 30, 64
1, 5538, Note_on_c, 0, 68, 20
1, 5538, Note_on_c, 0, 70, 17
1, 5538, Note_on_c, 0, 87, 11
1, 5539, Note_on_c, 0, 36, 71
1, 5539, Note_on_c, 0, 61, 27
1, 5540, Note_on_c, 0, 31, 77
1, 5540, Note_off_c, 0, 36, 64
1, 5540, Note_on_c, 0, 63, 26
1, 5541, Note_on_c, 0, 29, 80
1, 5541, Note_off_c, 0, 31, 64
1, 5541, Note_on_c, 0, 49, 58
1, 5541, Note_off_c, 0, 87, 64
1, 5542, Note_off_c, 0, 61, 64
1, 5543, Note_off_c, 0, 29, 64
1, 5543, Note_on_c, 0, 30, 77
1, 5543, Note_off_c, 0, 49, 64
1, 5543, Note_off_c, 0, 63, 64
1, 5544, Note_off_c, 0, 68, 64
1, 5544, Note_off_c, 0, 70, 64
1, 5545, Note_on_c, 0, 29, 75
1, 5545, Note_off_c, 0, 30, 64
1, 5547, Note_on_c, 0, 42, 67
1, 5548, Note_off_c, 0, 29, 64
1, 5548, Note_on_c, 0, 30, 80
1, 5548, Note_on_c, 0, 68, 21
1, 5548, Note_on_c, 0, 71, 15
1, 5548, Note_on_c, 0, 74, 11
1, 5548, Note_on_c, 0, 85, 16
1, 5549, Note_off_c, 0, 42, 64
1, 5549, Note_on_c, 0, 61, 30
1, 5549, Note_on_c, 0, 64, 32
1, 5551, Note_on_c, 0, 29, 80
1, 5551, Note_off_c, 0, 30, 64
1, 5551, Note_off_c, 0, 74, 64
1, 5551, Note_off_c, 0, 85, 64
1, 5552, Note_off_c, 0, 64, 64
1, 5552, Note_off_c, 0, 71, 64
1, 5553, Note_off_c, 0, 29, 64
1, 5553, Note_on_c, 0, 30, 76
1, 5553, Note_off_c, 0, 68, 64
1, 5554, Note_off_c, 0, 61, 64
1, 5555, Note_off_c, 0, 30, 64
1, 5555, Note_on_c, 0, 34, 72
1, 5555, Note_on_c, 0, 54, 32
1, 5556, Note_off_c, 0, 34, 64
1, 5556, Note_on_c, 0, 64, 52
1, 5556, Note_on_c, 0, 75, 39
1, 5556, Note_on_c, 0, 77, 39
1, 5556, Note_on_c, 0, 84, 32
1, 5556, Note_on_c, 0, 85, 33
1, 5556, Note_on_c, 0, 88, 29
1, 5557, Note_off_c, 0, 54, 64
1, 5557, Note_on_c, 0, 81, 34
1, 5558, Note_on_c, 0, 51, 75
1, 5559, Note_on_c, 0, 48, 86
1, 5559, Note_off_c, 0, 51, 64
1, 5559, Note_off_c, 0, 75, 64
1, 5559, Note_off_c, 0, 77, 64
1, 5559, Note_off_c, 0, 81, 64
1, 5559, Note_off_c, 0, 84, 64
1, 5559, Note_off_c, 0, 85, 64
1, 5559, Note_off_c, 0, 88, 64
1, 5560, Note_on_c, 0, 44, 95
1, 5560, Note_off_c, 0, 48, 64
1, 5560, Note_off_c, 0, 64, 64
1, 5561, Note_on_c, 0, 42, 100
1, 5561, Note_off_c, 0, 44, 64
1, 5562, Note_on_c, 0, 40, 97
1, 5562, Note_off_c, 0, 42, 64
1, 5563, Note_on_c, 0, 38, 98
1, 5563, Note_off_c, 0, 40, 64
1, 5564, Note_on_c, 0, 36, 98
1, 5564, Note_off_c, 0, 38, 64
1, 5565, Note_on_c, 0, 35, 97
1, 5565, Note_off_c, 0, 36, 64
1, 5566, Note_on_c, 0, 34, 96
1, 5566, Note_off_c, 0, 35, 64
1, 5567, Note_on_c, 0, 33, 96
1, 5567, Note_off_c, 0, 34, 64
1, 5568, Note_on_c, 0, 32, 97
1, 5568, Note_off_c, 0, 33, 64
1, 5569, Note_on_c, 0, 48, 29
1, 5570, Note_on_c, 0, 31, 94
1, 5570, Note_off_c, 0, 32, 64
1, 5571, Note_off_c, 0, 48, 64
1, 5572, Note_on_c, 0, 30, 84
1, 5572, Note_off_c, 0, 31, 64
1, 5575, Note_off_c, 0, 30, 64
1, 5575, Note_on_c, 0, 85, 28
1, 5575, Note_on_c, 0, 87, 21
1, 5575, Note_on_c, 0, 89, 18
1, 5575, Note_on_c, 0, 90, 20
1, 5576, Note_on_c, 0, 36, 71
1, 5576, Note_on_c, 0, 61, 35
1, 5576, Note_on_c, 0, 82, 24
1, 5576, Note_on_c, 0, 83, 22
1, 5576, Note_on_c, 0, 88, 21
1, 5576, Note_on_c, 0, 92, 18
1, 5576, Note_on_c, 0, 96, 17
1, 5576, Note_on_c, 0, 98, 12
1, 5577, Note_on_c, 0, 32, 74
1, 5577, Note_off_c, 0, 36, 64
1, 5577, Note_on_c, 0, 64, 30
1, 5577, Note_on_c, 0, 70, 21
1, 5578, Note_on_c, 0, 31, 80
1, 5578, Note_off_c, 0, 32, 64
1, 5578, Note_on_c, 0, 78, 22
1, 5578, Note_off_c, 0, 90, 64
1, 5579, Note_on_c, 0, 29, 80
1, 5579, Note_off_c, 0, 31, 64
1, 5579, Note_on_c, 0, 63, 28
1, 5579, Note_off_c, 0, 64, 64
1, 5579, Note_off_c, 0, 88, 64
1, 5579, Note_off_c, 0, 89, 64
1, 5579, Note_off_c, 0, 96, 64
1, 5579, Note_off_c, 0, 98, 64
1, 5580, Note_off_c, 0, 61, 64
1, 5580, Note_off_c, 0, 82, 64
1, 5580, Note_off_c, 0, 85, 64
1, 5581, Note_off_c, 0, 29, 64
1, 5581, Note_on_c, 0, 30, 76
1, 5581, Note_on_c, 0, 54, 50
1, 5581, Note_off_c, 0, 70, 64
1, 5581, Note_off_c, 0, 92, 64
1, 5582, Note_off_c, 0, 78, 64
1, 5583, Note_on_c, 0, 29, 74
1, 5583, Note_off_c, 0, 30, 64
1, 5583, Note_off_c, 0, 63, 64
1, 5583, Note_off_c, 0, 87, 64
1, 5584, Note_off_c, 0, 83, 64
1, 5585, Note_off_c, 0, 54, 64
1, 5585, Note_on_c, 0, 76, 12
1, 5585, Note_on_c, 0, 78, 19
1, 5585, Note_on_c, 0, 84, 21
1, 5585, Note_on_c, 0, 87, 15
1, 5586, Note_off_c, 0, 29, 64
1, 5586, Note_on_c, 0, 30, 74
1, 5586, Note_on_c, 0, 54, 55
1, 5586, Note_on_c, 0, 61, 32
1, 5586, Note_on_c, 0, 68, 19
1, 5587, Note_off_c, 0, 30, 64
1, 5587, Note_on_c, 0, 31, 78
1, 5587, Note_on_c, 0, 63, 32
1, 5587, Note_on_c, 0, 86, 18
1, 5588, Note_on_c, 0, 30, 80
1, 5588, Note_off_c, 0, 31, 64
1, 5588, Note_on_c, 0, 49, 59
1, 5588, Note_off_c, 0, 76, 64
1, 5588, Note_off_c, 0, 84, 64
1, 5588, Note_off_c, 0, 87, 64
1, 5589, Note_on_c, 0, 29, 80
1, 5589, Note_off_c, 0, 30, 64
1, 5589, Note_off_c, 0, 54, 64
1, 5589, Note_off_c, 0, 61, 64
1, 5590, Note_off_c, 0, 29, 64
1, 5590, Note_on_c, 0, 30, 77
1, 5590, Note_off_c, 0, 49, 64
1, 5590, Note_off_c, 0, 63, 64
1, 5590, Note_off_c, 0, 78, 64
1, 5590, Note_off_c, 0, 86, 64
1, 5591, Note_off_c, 0, 68, 64
1, 5592, Note_off_c, 0, 30, 64
1, 5592, Note_on_c, 0, 32, 72
1, 5593, Note_off_c, 0, 32, 64
1, 5593, Note_on_c, 0, 35, 67
1, 5593, Note_on_c, 0, 72, 41
1, 5593, Note_on_c, 0, 76, 36
1, 5593, Note_on_c, 0, 78, 37
1, 5593, Note_on_c, 0, 81, 33
1, 5593, Note_on_c, 0, 83, 31
1, 5593, Note_on_c, 0, 85, 32
1, 5593, Note_on_c, 0, 86, 33
1, 5593, Note_on_c, 0, 87, 32
1, 5593, Note_on_c, 0, 91, 25
1, 5593, Note_on_c, 0, 92, 24
1, 5594, Note_off_c, 0, 35, 64
1, 5595, Note_on_c, 0, 54, 67
1, 5596, Note_on_c, 0, 48, 83
1, 5596, Note_off_c, 0, 54, 64
1, 5596, Note_off_c, 0, 72, 64
1, 5596, Note_off_c, 0, 76, 64
1, 5596, Note_off_c, 0, 78, 64
1, 5596, Note_off_c, 0, 81, 64
1, 5596, Note_off_c, 0, 83, 64
1, 5596, Note_off_c, 0, 85, 64
1, 5596, Note_off_c, 0, 86, 64
1, 5596, Note_off_c, 0, 87, 64
1, 5596, Note_off_c, 0, 91, 64
1, 5596, Note_off_c, 0, 92, 64
1, 5597, Note_on_c, 0, 45, 93
1, 5597, Note_off_c, 0, 48, 64
1, 5598, Note_on_c, 0, 42, 99
1, 5598, Note_off_c, 0, 45, 64
1, 5599, Note_on_c, 0, 41, 100
1, 5599, Note_off_c, 0, 42, 64
1, 5600, Note_on_c, 0, 38, 98
1, 5600, Note_off_c, 0, 41, 64
1, 5601, Note_on_c, 0, 37, 98
1, 5601, Note_off_c, 0, 38, 64
1, 5602, Note_on_c, 0, 36, 97
1, 5602, Note_off_c, 0, 37, 64
1, 5603, Note_on_c, 0, 34, 96
1, 5603, Note_off_c, 0, 36, 64
1, 5603, Note_on_c, 0, 77, 19
1, 5603, Note_on_c, 0, 80, 34
1, 5603, Note_on_c, 0, 86, 22
1, 5603, Note_on_c, 0, 91, 24
1, 5604, Note_on_c, 0, 33, 96
1, 5604, Note_off_c, 0, 34, 64
1, 5604, Note_on_c, 0, 79, 31
1, 5604, Note_on_c, 0, 84, 16
1, 5604, Note_on_c, 0, 90, 26
1, 5605, Note_on_c, 0, 54, 29
1, 5605, Note_on_c, 0, 73, 9
1, 5605, Note_on_c, 0, 85, 13
1, 5606, Note_on_c, 0, 32, 96
1, 5606, Note_off_c, 0, 33, 64
1, 5606, Note_off_c, 0, 77, 64
1, 5606, Note_on_c, 0, 78, 31
1, 5606, Note_off_c, 0, 79, 64
1, 5606, Note_off_c, 0, 80, 64
1, 5606, Note_off_c, 0, 86, 64
1, 5607, Note_on_c, 0, 31, 95
1, 5607, Note_off_c, 0, 32, 64
1, 5607, Note_off_c, 0, 90, 64
1, 5607, Note_off_c, 0, 91, 64
1, 5609, Note_off_c, 0, 73, 64
1, 5610, Note_on_c, 0, 30, 78
1, 5610, Note_off_c, 0, 31, 64
1, 5611, Note_off_c, 0, 84, 64
1, 5611, Note_off_c, 0, 85, 64
1, 5612, Note_off_c, 0, 30, 64
1, 5613, Note_off_c, 0, 54, 64
1, 5613, Note_on_c, 0, 77, 16
1, 5613, Note_off_c, 0, 78, 64
1, 5613, Note_on_c, 0, 86, 23
1, 5613, Note_on_c, 0, 91, 22
1, 5613, Note_on_c, 0, 93, 17
1, 5614, Note_on_c, 0, 35, 68
1, 5614, Note_on_c, 0, 61, 32
1, 5614, Note_on_c, 0, 64, 44
1, 5614, Note_on_c, 0, 74, 10
1, 5614, Note_on_c, 0, 87, 15
1, 5614, Note_on_c, 0, 88, 13
1, 5615, Note_on_c, 0, 30, 77
1, 5615, Note_off_c, 0, 35, 64
1, 5615, Note_on_c, 0, 49, 57
1, 5615, Note_on_c, 0, 92, 16
1, 5616, Note_on_c, 0, 29, 79
1, 5616, Note_off_c, 0, 30, 64
1, 5616, Note_off_c, 0, 77, 64
1, 5616, Note_on_c, 0, 78, 13
1, 5616, Note_on_c, 0, 80, 16
1, 5617, Note_off_c, 0, 74, 64
1, 5617, Note_off_c, 0, 86, 64
1, 5617, Note_off_c, 0, 91, 64
1, 5617, Note_off_c, 0, 93, 64
1, 5618, Note_off_c, 0, 29, 64
1, 5618, Note_on_c, 0, 30, 75
1, 5618, Note_off_c, 0, 61, 64
1, 5618, Note_off_c, 0, 87, 64
1, 5618, Note_off_c, 0, 88, 64
1, 5618, Note_off_c, 0, 92, 64
1, 5619, Note_off_c, 0, 64, 64
1, 5619, Note_on_c, 0, 85, 15
1, 5620, Note_on_c, 0, 29, 74
1, 5620, Note_off_c, 0, 30, 64
1, 5620, Note_off_c, 0, 49, 64
1, 5620, Note_on_c, 0, 62, 28
1, 5620, Note_off_c, 0, 78, 64
1, 5621, Note_off_c, 0, 80, 64
1, 5621, Note_on_c, 0, 86, 9
1, 5622, Note_off_c, 0, 85, 64
1, 5623, Note_off_c, 0, 29, 64
1, 5623, Note_on_c, 0, 30, 79
1, 5623, Note_on_c, 0, 61, 35
1, 5623, Note_off_c, 0, 62, 64
1, 5623, Note_on_c, 0, 74, 11
1, 5624, Note_on_c, 0, 49, 61
1, 5624, Note_on_c, 0, 64, 31
1, 5624, Note_off_c, 0, 86, 64
1, 5626, Note_on_c, 0, 29, 80
1, 5626, Note_off_c, 0, 30, 64
1, 5626, Note_off_c, 0, 61, 64
1, 5626, Note_off_c, 0, 64, 64
1, 5626, Note_off_c, 0, 74, 64
1, 5627, Note_off_c, 0, 49, 64
1, 5627, Note_on_c, 0, 61, 21
1, 5628, Note_off_c, 0, 29, 64
1, 5628, Note_on_c, 0, 30, 75
1, 5630, Note_off_c, 0, 30, 64
1, 5630, Note_on_c, 0, 34, 71
1, 5630, Note_off_c, 0, 61, 64
1, 5631, Note_off_c, 0, 34, 64
1, 5631, Note_on_c, 0, 88, 26
1, 5631, Note_on_c, 0, 89, 26
1, 5631, Note_on_c, 0, 92, 25
1, 5631, Note_on_c, 0, 94, 29
1, 5631, Note_on_c, 0, 95, 26
1, 5631, Note_on_c, 0, 97, 21
1, 5632, Note_on_c, 0, 75, 40
1, 5632, Note_on_c, 0, 78, 41
1, 5632, Note_on_c, 0, 81, 42
1, 5632, Note_on_c, 0, 83, 34
1, 5632, Note_on_c, 0, 86, 31
1, 5632, Note_on_c, 0, 91, 33
1, 5633, Note_on_c, 0, 50, 78
1, 5633, Note_on_c, 0, 67, 41
1, 5633, Note_on_c, 0, 77, 17
1, 5634, Note_on_c, 0, 45, 88
1, 5634, Note_off_c, 0, 50, 64
1, 5634, Note_off_c, 0, 75, 64
1, 5634, Note_on_c, 0, 85, 15
1, 5634, Note_off_c, 0, 86, 64
1, 5634, Note_off_c, 0, 88, 64
1, 5634, Note_off_c, 0, 89, 64
1, 5634, Note_off_c, 0, 92, 64
1, 5634, Note_off_c, 0, 97, 64
1, 5635, Note_on_c, 0, 44, 95
1, 5635, Note_off_c, 0, 45, 64
1, 5635, Note_off_c, 0, 67, 64
1, 5635, Note_off_c, 0, 78, 64
1, 5636, Note_on_c, 0, 41, 100
1, 5636, Note_off_c, 0, 44, 64
1, 5636, Note_off_c, 0, 81, 64
1, 5636, Note_off_c, 0, 91, 64
1, 5636, Note_on_c, 0, 92, 24
1, 5637, Note_on_c, 0, 40, 97
1, 5637, Note_off_c, 0, 41, 64
1, 5637, Note_off_c, 0, 77, 64
1, 5637, Note_off_c, 0, 83, 64
1, 5637, Note_off_c, 0, 95, 64
1, 5638, Note_on_c, 0, 38, 98
1, 5638, Note_off_c, 0, 40, 64
1, 5638, Note_off_c, 0, 94, 64
1, 5639, Note_on_c, 0, 36, 97
1, 5639, Note_off_c, 0, 38, 64
1, 5639, Note_on_c, 0, 88, 21
1, 5639, Note_on_c, 0, 90, 23
1, 5640, Note_on_c, 0, 35, 96
1, 5640, Note_off_c, 0, 36, 64
1, 5640, Note_on_c, 0, 82, 26
1, 5640, Note_on_c, 0, 83, 26
1, 5640, Note_on_c, 0, 87, 22
1, 5640, Note_on_c, 0, 93, 28
1, 5641, Note_on_c, 0, 34, 95
1, 5641, Note_off_c, 0, 35, 64
1, 5641, Note_on_c, 0, 55, 32
1, 5641, Note_off_c, 0, 85, 64
1, 5641, Note_on_c, 0, 86, 21
1, 5641, Note_on_c, 0, 89, 13
1, 5641, Note_on_c, 0, 91, 17
1, 5642, Note_on_c, 0, 33, 95
1, 5642, Note_off_c, 0, 34, 64
1, 5642, Note_off_c, 0, 88, 64
1, 5643, Note_on_c, 0, 32, 96
1, 5643, Note_off_c, 0, 33, 64
1, 5643, Note_off_c, 0, 82, 64
1, 5643, Note_off_c, 0, 93, 64
1, 5644, Note_off_c, 0, 55, 64
1, 5644, Note_off_c, 0, 87, 64
1, 5644, Note_off_c, 0, 89, 64
1, 5644, Note_off_c, 0, 91, 64
1, 5644, Note_off_c, 0, 92, 64
1, 5645, Note_on_c, 0, 31, 93
1, 5645, Note_off_c, 0, 32, 64
1, 5645, Note_on_c, 0, 80, 11
1, 5645, Note_off_c, 0, 90, 64
1, 5646, Note_on_c, 0, 49, 24
1, 5646, Note_off_c, 0, 83, 64
1, 5646, Note_off_c, 0, 86, 64
1, 5647, Note_on_c, 0, 30, 82
1, 5647, Note_off_c, 0, 31, 64
1, 5647, Note_on_c, 0, 88, 16
1, 5647, Note_on_c, 0, 90, 18
1, 5648, Note_off_c, 0, 80, 64
1, 5649, Note_off_c, 0, 30, 64
1, 5650, Note_off_c, 0, 49, 64
1, 5650, Note_on_c, 0, 68, 20
1, 5650, Note_on_c, 0, 71, 22
1, 5650, Note_on_c, 0, 79, 23
1, 5650, Note_on_c, 0, 84, 20
1, 5650, Note_on_c, 0, 89, 21
1, 5651, Note_on_c, 0, 36, 67
1, 5651, Note_on_c, 0, 61, 33
1, 5651, Note_on_c, 0, 74, 20
1, 5651, Note_on_c, 0, 77, 15
1, 5651, Note_on_c, 0, 87, 18
1, 5651, Note_off_c, 0, 90, 64
1, 5652, Note_on_c, 0, 31, 73
1, 5652, Note_off_c, 0, 36, 64
1, 5652, Note_on_c, 0, 49, 58
1, 5652, Note_on_c, 0, 70, 28
1, 5653, Note_on_c, 0, 30, 79
1, 5653, Note_off_c, 0, 31, 64
1, 5653, Note_on_c, 0, 66, 23
1, 5653, Note_off_c, 0, 68, 64
1, 5653, Note_off_c, 0, 71, 64
1, 5653, Note_off_c, 0, 79, 64
1, 5653, Note_on_c, 0, 80, 27
1, 5653, Note_off_c, 0, 88, 64
1, 5653, Note_off_c, 0, 89, 64
1, 5654, Note_on_c, 0, 29, 79
1, 5654, Note_off_c, 0, 30, 64
1, 5654, Note_on_c, 0, 81, 16
1, 5654, Note_off_c, 0, 87, 64
1, 5655, Note_off_c, 0, 74, 64
1, 5655, Note_off_c, 0, 77, 64
1, 5655, Note_on_c, 0, 78, 23
1, 5655, Note_off_c, 0, 84, 64
1, 5656, Note_off_c, 0, 29, 64
1, 5656, Note_on_c, 0, 30, 76
1, 5656, Note_on_c, 0, 68, 18
1, 5656, Note_off_c, 0, 70, 64
1, 5657, Note_on_c, 0, 48, 49
1, 5657, Note_off_c, 0, 49, 64
1, 5657, Note_off_c, 0, 66, 64
1, 5657, Note_on_c, 0, 72, 28
1, 5657, Note_off_c, 0, 80, 64
1, 5658, Note_on_c, 0, 29, 73
1, 5658, Note_off_c, 0, 30, 64
1, 5658, Note_on_c, 0, 54, 36
1, 5658, Note_off_c, 0, 81, 64
1, 5658, Note_on_c, 0, 86, 32
1, 5659, Note_off_c, 0, 48, 64
1, 5659, Note_off_c, 0, 61, 64
1, 5659, Note_off_c, 0, 68, 64
1, 5659, Note_on_c, 0, 70, 32
1, 5659, Note_on_c, 0, 80, 27
1, 5659, Note_on_c, 0, 84, 30
1, 5659, Note_on_c, 0, 85, 22
1, 5659, Note_on_c, 0, 87, 32
1, 5659, Note_on_c, 0, 89, 31
1, 5659, Note_on_c, 0, 91, 31
1, 5659, Note_on_c, 0, 92, 31
1, 5660, Note_off_c, 0, 54, 64
1, 5660, Note_off_c, 0, 72, 64
1, 5660, Note_on_c, 0, 74, 31
1, 5660, Note_on_c, 0, 93, 12
1, 5661, Note_off_c, 0, 29, 64
1, 5661, Note_on_c, 0, 30, 78
1, 5661, Note_on_c, 0, 61, 40
1, 5661, Note_on_c, 0, 63, 32
1, 5661, Note_on_c, 0, 95, 16
1, 5662, Note_on_c, 0, 49, 60
1, 5662, Note_on_c, 0, 68, 36
1, 5662, Note_off_c, 0, 70, 64
1, 5662, Note_off_c, 0, 74, 64
1, 5662, Note_off_c, 0, 86, 64
1, 5662, Note_off_c, 0, 89, 64
1, 5663, Note_off_c, 0, 84, 64
1, 5664, Note_on_c, 0, 29, 78
1, 5664, Note_off_c, 0, 30, 64
1, 5664, Note_off_c, 0, 63, 64
1, 5664, Note_on_c, 0, 65, 39
1, 5664, Note_off_c, 0, 68, 64
1, 5664, Note_on_c, 0, 76, 19
1, 5664, Note_off_c, 0, 78, 64
1, 5664, Note_off_c, 0, 92, 64
1, 5664, Note_off_c, 0, 93, 64
1, 5665, Note_off_c, 0, 49, 64
1, 5665, Note_off_c, 0, 61, 64
1, 5665, Note_on_c, 0, 86, 31
1, 5665, Note_off_c, 0, 87, 64
1, 5665, Note_off_c, 0, 91, 64
1, 5666, Note_off_c, 0, 29, 64
1, 5666, Note_on_c, 0, 30, 73
1, 5666, Note_off_c, 0, 65, 64
1, 5666, Note_on_c, 0, 74, 20
1, 5666, Note_on_c, 0, 81, 21
1, 5666, Note_on_c, 0, 89, 14
1, 5666, Note_off_c, 0, 95, 64
1, 5667, Note_off_c, 0, 30, 64
1, 5667, Note_on_c, 0, 33, 72
1, 5667, Note_off_c, 0, 76, 64
1, 5667, Note_off_c, 0, 80, 64
1, 5667, Note_off_c, 0, 85, 64
1, 5668, Note_off_c, 0, 33, 64
1, 5668, Note_on_c, 0, 35, 65
1, 5668, Note_on_c, 0, 63, 42
1, 5668, Note_on_c, 0, 70, 40
1, 5668, Note_on_c, 0, 77, 30
1, 5668, Note_on_c, 0, 78, 34
1, 5668, Note_on_c, 0, 84, 32
1, 5668, Note_on_c, 0, 91, 21
1, 5668, Note_on_c, 0, 92, 20
1, 5668, Note_on_c, 0, 93, 30
1, 5668, Note_on_c, 0, 97, 21
1, 5668, Note_on_c, 0, 99, 20
1, 5668, Note_on_c, 0, 100, 21
1, 5669, Note_off_c, 0, 35, 64
1, 5669, Note_on_c, 0, 67, 44
1, 5669, Note_off_c, 0, 74, 64
1, 5669, Note_on_c, 0, 80, 34
1, 5669, Note_off_c, 0, 81, 64
1, 5669, Note_on_c, 0, 85, 34
1, 5669, Note_off_c, 0, 89, 64
1, 5670, Note_on_c, 0, 54, 70
1, 5670, Note_off_c, 0, 63, 64
1, 5670, Note_on_c, 0, 72, 30
1, 5670, Note_off_c, 0, 77, 64
1, 5671, Note_on_c, 0, 48, 83
1, 5671, Note_off_c, 0, 54, 64
1, 5671, Note_off_c, 0, 92, 64
1, 5671, Note_off_c, 0, 93, 64
1, 5671, Note_off_c, 0, 97, 64
1, 5671, Note_off_c, 0, 99, 64
1, 5671, Note_off_c, 0, 100, 64
1, 5672, Note_on_c, 0, 45, 93
1, 5672, Note_off_c, 0, 48, 64
1, 5672, Note_off_c, 0, 67, 64
1, 5672, Note_off_c, 0, 70, 64
1, 5672, Note_off_c, 0, 72, 64
1, 5672, Note_off_c, 0, 86, 64
1, 5672, Note_on_c, 0, 87, 12
1, 5673, Note_on_c, 0, 42, 99
1, 5673, Note_off_c, 0, 45, 64
1, 5673, Note_off_c, 0, 78, 64
1, 5674, Note_on_c, 0, 40, 99
1, 5674, Note_off_c, 0, 42, 64
1, 5674, Note_on_c, 0, 65, 9
1, 5674, Note_off_c, 0, 85, 64
1, 5674, Note_on_c, 0, 89, 12
1, 5674, Note_off_c, 0, 91, 64
1, 5675, Note_on_c, 0, 38, 98
1, 5675, Note_off_c, 0, 40, 64
1, 5675, Note_off_c, 0, 80, 64
1, 5675, Note_off_c, 0, 87, 64
1, 5676, Note_on_c, 0, 37, 98
1, 5676, Note_off_c, 0, 38, 64
1, 5676, Note_off_c, 0, 84, 64
1, 5677, Note_on_c, 0, 35, 97
1, 5677, Note_off_c, 0, 37, 64
1, 5677, Note_off_c, 0, 65, 64
1, 5677, Note_off_c, 0, 89, 64
1, 5678, Note_on_c, 0, 34, 96
1, 5678, Note_off_c, 0, 35, 64
1, 5678, Note_on_c, 0, 92, 14
1, 5679, Note_on_c, 0, 33, 96
1, 5679, Note_off_c, 0, 34, 64
1, 5679, Note_on_c, 0, 79, 15
1, 5681, Note_on_c, 0, 32, 96
1, 5681, Note_off_c, 0, 33, 64
1, 5682, Note_on_c, 0, 31, 95
1, 5682, Note_off_c, 0, 32, 64
1, 5682, Note_off_c, 0, 79, 64
1, 5682, Note_on_c, 0, 87, 12
1, 5683, Note_on_c, 0, 68, 13
1, 5683, Note_on_c, 0, 80, 20
1, 5683, Note_off_c, 0, 92, 64
1, 5685, Note_on_c, 0, 30, 76
1, 5685, Note_off_c, 0, 31, 64
1, 5686, Note_on_c, 0, 86, 9
1, 5686, Note_off_c, 0, 87, 64
1, 5687, Note_off_c, 0, 30, 64
1, 5687, Note_on_c, 0, 64, 35
1, 5687, Note_on_c, 0, 81, 41
1, 5687, Note_on_c, 0, 84, 33
1, 5688, Note_off_c, 0, 68, 64
1, 5688, Note_on_c, 0, 73, 26
1, 5688, Note_off_c, 0, 80, 64
1, 5688, Note_on_c, 0, 89, 16
1, 5688, Note_on_c, 0, 90, 21
1, 5688, Note_on_c, 0, 91, 17
1, 5689, Note_on_c, 0, 36, 70
1, 5689, Note_on_c, 0, 70, 32
1, 5689, Note_on_c, 0, 79, 19
1, 5689, Note_on_c, 0, 88, 15
1, 5690, Note_on_c, 0, 30, 77
1, 5690, Note_off_c, 0, 36, 64
1, 5690, Note_on_c, 0, 49, 58
1, 5690, Note_on_c, 0, 68, 25
1, 5690, Note_off_c, 0, 81, 64
1, 5690, Note_on_c, 0, 93, 15
1, 5691, Note_on_c, 0, 29, 79
1, 5691, Note_off_c, 0, 30, 64
1, 5691, Note_off_c, 0, 70, 64
1, 5691, Note_on_c, 0, 71, 29
1, 5691, Note_off_c, 0, 90, 64
1, 5692, Note_off_c, 0, 73, 64
1, 5692, Note_off_c, 0, 79, 64
1, 5692, Note_off_c, 0, 84, 64
1, 5692, Note_off_c, 0, 86, 64
1, 5693, Note_off_c, 0, 29, 64
1, 5693, Note_on_c, 0, 30, 76
1, 5693, Note_off_c, 0, 49, 64
1, 5693, Note_off_c, 0, 68, 64
1, 5693, Note_on_c, 0, 92, 24
1, 5694, Note_off_c, 0, 64, 64
1, 5694, Note_on_c, 0, 84, 13
1, 5694, Note_off_c, 0, 88, 64
1, 5694, Note_off_c, 0, 91, 64
1, 5694, Note_off_c, 0, 93, 64
1, 5695, Note_on_c, 0, 29, 74
1, 5695, Note_off_c, 0, 30, 64
1, 5695, Note_on_c, 0, 68, 23
1, 5695, Note_on_c, 0, 85, 21
1, 5695, Note_off_c, 0, 89, 64
1, 5696, Note_on_c, 0, 74, 19
1, 5696, Note_on_c, 0, 80, 23
1, 5697, Note_on_c, 0, 76, 20
1, 5697, Note_off_c, 0, 84, 64
1, 5697, Note_on_c, 0, 87, 27
1, 5697, Note_on_c, 0, 89, 19
1, 5697, Note_on_c, 0, 91, 14
1, 5697, Note_on_c, 0, 93, 23
1, 5698, Note_off_c, 0, 29, 64
1, 5698, Note_on_c, 0, 30, 79
1, 5698, Note_off_c, 0, 68, 64
1, 5698, Note_on_c, 0, 84, 28
1, 5698, Note_off_c, 0, 85, 64
1, 5698, Note_on_c, 0, 86, 19
1, 5699, Note_on_c, 0, 66, 23
1, 5699, Note_on_c, 0, 68, 17
1, 5699, Note_off_c, 0, 71, 64
1, 5700, Note_on_c, 0, 71, 29
1, 5700, Note_off_c, 0, 93, 64
1, 5701, Note_on_c, 0, 29, 80
1, 5701, Note_off_c, 0, 30, 64
1, 5701, Note_on_c, 0, 49, 58
1, 5701, Note_on_c, 0, 63, 19
1, 5701, Note_off_c, 0, 84, 64
1, 5701, Note_off_c, 0, 89, 64
1, 5702, Note_off_c, 0, 29, 64
1, 5702, Note_on_c, 0, 30, 77
1, 5702, Note_on_c, 0, 70, 30
1, 5702, Note_off_c, 0, 71, 64
1, 5702, Note_off_c, 0, 76, 64
1, 5702, Note_off_c, 0, 80, 64
1, 5702, Note_off_c, 0, 91, 64
1, 5702, Note_off_c, 0, 92, 64
1, 5703, Note_off_c, 0, 66, 64
1, 5703, Note_off_c, 0, 74, 64
1, 5703, Note_off_c, 0, 86, 64
1, 5703, Note_off_c, 0, 87, 64
1, 5704, Note_off_c, 0, 49, 64
1, 5704, Note_off_c, 0, 63, 64
1, 5704, Note_off_c, 0, 70, 64
1, 5704, Note_on_c, 0, 71, 33
1, 5705, Note_off_c, 0, 30, 64
1, 5705, Note_on_c, 0, 34, 69
1, 5705, Note_on_c, 0, 54, 29
1, 5705, Note_off_c, 0, 68, 64
1, 5705, Note_on_c, 0, 76, 36
1, 5705, Note_on_c, 0, 89, 27
1, 5706, Note_off_c, 0, 34, 64
1, 5706, Note_on_c, 0, 78, 32
1, 5706, Note_on_c, 0, 81, 29
1, 5706, Note_on_c, 0, 87, 26
1, 5706, Note_on_c, 0, 91, 25
1, 5706, Note_on_c, 0, 92, 31
1, 5706, Note_on_c, 0, 94, 24
1, 5707, Note_off_c, 0, 54, 64
1, 5707, Note_on_c, 0, 64, 53
1, 5707, Note_off_c, 0, 71, 64
1, 5707, Note_on_c, 0, 73, 43
1, 5707, Note_on_c, 0, 80, 29
1, 5708, Note_on_c, 0, 51, 77
1, 5708, Note_on_c, 0, 67, 33
1, 5709, Note_on_c, 0, 46, 89
1, 5709, Note_off_c, 0, 51, 64
1, 5709, Note_off_c, 0, 64, 64
1, 5709, Note_off_c, 0, 73, 64
1, 5709, Note_off_c, 0, 76, 64
1, 5709, Note_off_c, 0, 78, 64
1, 5709, Note_off_c, 0, 81, 64
1, 5709, Note_off_c, 0, 89, 64
1, 5709, Note_off_c, 0, 91, 64
1, 5710, Note_on_c, 0, 43, 95
1, 5710, Note_off_c, 0, 46, 64
1, 5710, Note_off_c, 0, 94, 64
1, 5711, Note_on_c, 0, 41, 100
1, 5711, Note_off_c, 0, 43, 64
1, 5711, Note_off_c, 0, 67, 64
1, 5711, Note_off_c, 0, 87, 64
1, 5711, Note_off_c, 0, 92, 64
1, 5712, Note_on_c, 0, 39, 97
1, 5712, Note_off_c, 0, 41, 64
1, 5712, Note_on_c, 0, 70, 21
1, 5712, Note_off_c, 0, 80, 64
1, 5713, Note_on_c, 0, 37, 98
1, 5713, Note_off_c, 0, 39, 64
1, 5714, Note_on_c, 0, 36, 98
1, 5714, Note_off_c, 0, 37, 64
1, 5715, Note_on_c, 0, 35, 96
1, 5715, Note_off_c, 0, 36, 64
1, 5715, Note_on_c, 0, 86, 25
1, 5715, Note_on_c, 0, 87, 19
1, 5715, Note_on_c, 0, 90, 26
1, 5716, Note_on_c, 0, 34, 95
1, 5716, Note_off_c, 0, 35, 64
1, 5716, Note_on_c, 0, 80, 32
1, 5716, Note_on_c, 0, 84, 15
1, 5716, Note_on_c, 0, 91, 19
1, 5717, Note_on_c, 0, 33, 95
1, 5717, Note_off_c, 0, 34, 64
1, 5718, Note_on_c, 0, 32, 97
1, 5718, Note_off_c, 0, 33, 64
1, 5719, Note_off_c, 0, 84, 64
1, 5719, Note_off_c, 0, 90, 64
1, 5720, Note_on_c, 0, 31, 93
1, 5720, Note_off_c, 0, 32, 64
1, 5720, Note_off_c, 0, 80, 64
1, 5720, Note_off_c, 0, 87, 64
1, 5720, Note_off_c, 0, 91, 64
1, 5721, Note_on_c, 0, 81, 14
1, 5721, Note_off_c, 0, 86, 64
1, 5722, Note_on_c, 0, 30, 82
1, 5722, Note_off_c, 0, 31, 64
1, 5724, Note_off_c, 0, 81, 64
1, 5724, Note_on_c, 0, 90, 15
1, 5725, Note_off_c, 0, 30, 64
1, 5725, Note_on_c, 0, 62, 33
1, 5725, Note_off_c, 0, 70, 64
1, 5725, Note_on_c, 0, 71, 12
1, 5725, Note_on_c, 0, 80, 15
1, 5725, Note_on_c, 0, 85, 20
1, 5725, Note_on_c, 0, 88, 19
1, 5726, Note_on_c, 0, 36, 70
1, 5726, Note_on_c, 0, 83, 14
1, 5727, Note_on_c, 0, 31, 75
1, 5727, Note_off_c, 0, 36, 64
1, 5727, Note_on_c, 0, 49, 58
1, 5727, Note_off_c, 0, 62, 64
1, 5727, Note_on_c, 0, 66, 20
1, 5728, Note_on_c, 0, 30, 78
1, 5728, Note_off_c, 0, 31, 64
1, 5728, Note_off_c, 0, 71, 64
1, 5728, Note_on_c, 0, 72, 29
1, 5728, Note_off_c, 0, 88, 64
1, 5728, Note_off_c, 0, 90, 64
1, 5729, Note_on_c, 0, 29, 79
1, 5729, Note_off_c, 0, 30, 64
1, 5729, Note_off_c, 0, 85, 64
1, 5729, Note_on_c, 0, 89, 16
1, 5730, Note_off_c, 0, 29, 64
1, 5730, Note_on_c, 0, 30, 77
1, 5730, Note_off_c, 0, 49, 64
1, 5730, Note_off_c, 0, 66, 64
1, 5730, Note_on_c, 0, 76, 20
1, 5730, Note_off_c, 0, 80, 64
1, 5732, Note_on_c, 0, 29, 75
1, 5732, Note_off_c, 0, 30, 64
1, 5732, Note_on_c, 0, 48, 51
1, 5732, Note_on_c, 0, 62, 30
1, 5732, Note_off_c, 0, 83, 64
1, 5733, Note_on_c, 0, 66, 38
1, 5734, Note_off_c, 0, 48, 64
1, 5734, Note_on_c, 0, 69, 22
1, 5734, Note_off_c, 0, 76, 64
1, 5734, Note_on_c, 0, 92, 10
1, 5735, Note_off_c, 0, 29, 64
1, 5735, Note_on_c, 0, 30, 80
1, 5735, Note_on_c, 0, 61, 33
1, 5735, Note_off_c, 0, 62, 64
1, 5735, Note_on_c, 0, 79, 23
1, 5735, Note_on_c, 0, 83, 26
1, 5736, Note_on_c, 0, 74, 17
1, 5736, Note_off_c, 0, 89, 64
1, 5737, Note_off_c, 0, 69, 64
1, 5737, Note_off_c, 0, 92, 64
1, 5738, Note_off_c, 0, 61, 64
1, 5738, Note_off_c, 0, 72, 64
1, 5738, Note_on_c, 0, 76, 23
1, 5738, Note_off_c, 0, 79, 64
1, 5738, Note_on_c, 0, 87, 13
1, 5739, Note_on_c, 0, 29, 79
1, 5739, Note_off_c, 0, 30, 64
1, 5740, Note_off_c, 0, 29, 64
1, 5740, Note_on_c, 0, 30, 76
1, 5740, Note_off_c, 0, 83, 64
1, 5741, Note_on_c, 0, 72, 42
1, 5741, Note_off_c, 0, 87, 64
1, 5742, Note_off_c, 0, 30, 64
1, 5742, Note_on_c, 0, 33, 72
1, 5742, Note_off_c, 0, 66, 64
1, 5742, Note_off_c, 0, 74, 64
1, 5743, Note_off_c, 0, 33, 64
1, 5743, Note_off_c, 0, 76, 64
1, 5743, Note_on_c, 0, 77, 36
1, 5743, Note_on_c, 0, 82, 31
1, 5743, Note_on_c, 0, 86, 21
1, 5743, Note_on_c, 0, 87, 20
1, 5743, Note_on_c, 0, 88, 26
1, 5743, Note_on_c, 0, 90, 33
1, 5743, Note_on_c, 0, 91, 23
1, 5743, Note_on_c, 0, 92, 20
1, 5743, Note_on_c, 0, 93, 28
1, 5743, Note_on_c, 0, 95, 24
1, 5743, Note_on_c, 0, 98, 23
1, 5743, Note_on_c, 0, 99, 20
1, 5744, Note_on_c, 0, 75, 39
1, 5744, Note_on_c, 0, 78, 34
1, 5744, Note_on_c, 0, 83, 33
1, 5745, Note_on_c, 0, 53, 71
1, 5746, Note_on_c, 0, 48, 84
1, 5746, Note_off_c, 0, 53, 64
1, 5746, Note_off_c, 0, 72, 64
1, 5746, Note_off_c, 0, 75, 64
1, 5746, Note_off_c, 0, 77, 64
1, 5746, Note_off_c, 0, 78, 64
1, 5746, Note_off_c, 0, 82, 64
1, 5746, Note_off_c, 0, 86, 64
1, 5746, Note_off_c, 0, 87, 64
1, 5746, Note_off_c, 0, 90, 64
1, 5746, Note_off_c, 0, 95, 64
1, 5746, Note_off_c, 0, 98, 64
1, 5746, Note_off_c, 0, 99, 64
1, 5747, Note_on_c, 0, 45, 94
1, 5747, Note_off_c, 0, 48, 64
1, 5747, Note_off_c, 0, 83, 64
1, 5747, Note_off_c, 0, 92, 64
1, 5748, Note_on_c, 0, 42, 99
1, 5748, Note_off_c, 0, 45, 64
1, 5748, Note_on_c, 0, 68, 15
1, 5748, Note_off_c, 0, 91, 64
1, 5748, Note_off_c, 0, 93, 64
1, 5749, Note_on_c, 0, 40, 99
1, 5749, Note_off_c, 0, 42, 64
1, 5749, Note_on_c, 0, 92, 21
1, 5750, Note_on_c, 0, 38, 98
1, 5750, Note_off_c, 0, 40, 64
1, 5750, Note_off_c, 0, 88, 64
1, 5751, Note_on_c, 0, 37, 98
1, 5751, Note_off_c, 0, 38, 64
1, 5752, Note_on_c, 0, 35, 97
1, 5752, Note_off_c, 0, 37, 64
1, 5753, Note_on_c, 0, 34, 96
1, 5753, Note_off_c, 0, 35, 64
1, 5753, Note_on_c, 0, 87, 17
1, 5754, Note_on_c, 0, 33, 96
1, 5754, Note_off_c, 0, 34, 64
1, 5755, Note_on_c, 0, 32, 96
1, 5755, Note_off_c, 0, 33, 64
1, 5755, Note_off_c, 0, 68, 64
1, 5756, Note_off_c, 0, 92, 64
1, 5757, Note_on_c, 0, 31, 95
1, 5757, Note_off_c, 0, 32, 64
1, 5759, Note_on_c, 0, 71, 12
1, 5759, Note_off_c, 0, 87, 64
1, 5760, Note_on_c, 0, 30, 75
1, 5760, Note_off_c, 0, 31, 64
1, 5760, Note_on_c, 0, 65, 24
1, 5760, Note_on_c, 0, 81, 12
1, 5762, Note_off_c, 0, 30, 64
1, 5762, Note_off_c, 0, 71, 64
1, 5762, Note_on_c, 0, 88, 21
1, 5763, Note_on_c, 0, 83, 19
1, 5764, Note_on_c, 0, 32, 66
1, 5764, Note_on_c, 0, 41, 66
1, 5764, Note_on_c, 0, 61, 30
1, 5764, Note_off_c, 0, 65, 64
1, 5764, Note_on_c, 0, 70, 27
1, 5764, Note_on_c, 0, 79, 12
1, 5764, Note_on_c, 0, 80, 15
1, 5764, Note_off_c, 0, 81, 64
1, 5764, Note_on_c, 0, 87, 15
1, 5764, Note_on_c, 0, 89, 14
1, 5765, Note_on_c, 0, 30, 76
1, 5765, Note_off_c, 0, 32, 64
1, 5765, Note_off_c, 0, 41, 64
1, 5765, Note_on_c, 0, 77, 17
1, 5765, Note_off_c, 0, 88, 64
1, 5766, Note_on_c, 0, 29, 80
1, 5766, Note_off_c, 0, 30, 64
1, 5766, Note_on_c, 0, 67, 18
1, 5766, Note_on_c, 0, 75, 20
1, 5767, Note_off_c, 0, 79, 64
1, 5767, Note_off_c, 0, 87, 64
1, 5767, Note_off_c, 0, 89, 64
1, 5768, Note_off_c, 0, 29, 64
1, 5768, Note_on_c, 0, 30, 76
1, 5768, Note_on_c, 0, 64, 31
1, 5768, Note_off_c, 0, 70, 64
1, 5769, Note_on_c, 0, 70, 30
1, 5769, Note_off_c, 0, 75, 64
1, 5769, Note_off_c, 0, 77, 64
1, 5769, Note_off_c, 0, 80, 64
1, 5769, Note_off_c, 0, 83, 64
1, 5770, Note_on_c, 0, 29, 75
1, 5770, Note_off_c, 0, 30, 64
1, 5770, Note_off_c, 0, 64, 64
1, 5771, Note_on_c, 0, 74, 22
1, 5771, Note_on_c, 0, 76, 11
1, 5772, Note_off_c, 0, 61, 64
1, 5772, Note_off_c, 0, 67, 64
1, 5772, Note_on_c, 0, 80, 29
1, 5772, Note_on_c, 0, 86, 28
1, 5772, Note_on_c, 0, 87, 33
1, 5772, Note_on_c, 0, 90, 28
1, 5773, Note_off_c, 0, 29, 64
1, 5773, Note_on_c, 0, 30, 79
1, 5773, Note_on_c, 0, 61, 34
1, 5773, Note_on_c, 0, 78, 29
1, 5773, Note_on_c, 0, 85, 21
1, 5773, Note_on_c, 0, 89, 12
1, 5773, Note_on_c, 0, 91, 19
1, 5774, Note_on_c, 0, 49, 61
1, 5774, Note_off_c, 0, 76, 64
1, 5774, Note_on_c, 0, 77, 22
1, 5774, Note_on_c, 0, 83, 22
1, 5775, Note_on_c, 0, 64, 37
1, 5775, Note_on_c, 0, 67, 36
1, 5775, Note_off_c, 0, 80, 64
1, 5775, Note_off_c, 0, 87, 64
1, 5775, Note_off_c, 0, 90, 64
1, 5776, Note_on_c, 0, 29, 79
1, 5776, Note_off_c, 0, 30, 64
1, 5776, Note_off_c, 0, 61, 64
1, 5776, Note_off_c, 0, 85, 64
1, 5776, Note_on_c, 0, 87, 14
1, 5776, Note_off_c, 0, 89, 64
1, 5776, Note_off_c, 0, 91, 64
1, 5777, Note_off_c, 0, 29, 64
1, 5777, Note_on_c, 0, 30, 77
1, 5777, Note_off_c, 0, 49, 64
1, 5777, Note_off_c, 0, 77, 64
1, 5777, Note_off_c, 0, 86, 64
1, 5778, Note_on_c, 0, 54, 42
1, 5778, Note_off_c, 0, 64, 64
1, 5778, Note_off_c, 0, 83, 64
1, 5779, Note_off_c, 0, 74, 64
1, 5779, Note_on_c, 0, 81, 28
1, 5779, Note_off_c, 0, 87, 64
1, 5780, Note_off_c, 0, 30, 64
1, 5780, Note_on_c, 0, 34, 69
1, 5780, Note_off_c, 0, 67, 64
1, 5780, Note_on_c, 0, 68, 39
1, 5780, Note_on_c, 0, 84, 33
1, 5780, Note_on_c, 0, 85, 32
1, 5780, Note_on_c, 0, 92, 27
1, 5780, Note_on_c, 0, 93, 30
1, 5781, Note_off_c, 0, 34, 64
1, 5781, Note_off_c, 0, 70, 64
1, 5781, Note_on_c, 0, 75, 31
1, 5781, Note_on_c, 0, 77, 31
1, 5781, Note_on_c, 0, 82, 29
1, 5782, Note_off_c, 0, 54, 64
1, 5782, Note_off_c, 0, 68, 64
1, 5782, Note_on_c, 0, 69, 41
1, 5782, Note_off_c, 0, 78, 64
1, 5782, Note_off_c, 0, 81, 64
1, 5783, Note_on_c, 0, 50, 78
1, 5783, Note_on_c, 0, 66, 32
1, 5783, Note_off_c, 0, 84, 64
1, 5783, Note_off_c, 0, 92, 64
1, 5783, Note_off_c, 0, 93, 64
1, 5784, Note_on_c, 0, 46, 90
1, 5784, Note_off_c, 0, 50, 64
1, 5784, Note_off_c, 0, 69, 64
1, 5784, Note_off_c, 0, 75, 64
1, 5784, Note_off_c, 0, 82, 64
1, 5784, Note_off_c, 0, 85, 64
1, 5784, Note_on_c, 0, 87, 9
1, 5785, Note_on_c, 0, 42, 96
1, 5785, Note_off_c, 0, 46, 64
1, 5785, Note_off_c, 0, 66, 64
1, 5785, Note_off_c, 0, 77, 64
1, 5786, Note_on_c, 0, 41, 100
1, 5786, Note_off_c, 0, 42, 64
1, 5787, Note_on_c, 0, 39, 97
1, 5787, Note_off_c, 0, 41, 64
1, 5788, Note_on_c, 0, 37, 98
1, 5788, Note_off_c, 0, 39, 64
1, 5788, Note_off_c, 0, 87, 64
1, 5789, Note_on_c, 0, 36, 97
1, 5789, Note_off_c, 0, 37, 64
1, 5790, Note_on_c, 0, 35, 96
1, 5790, Note_off_c, 0, 36, 64
1, 5791, Note_on_c, 0, 34, 96
1, 5791, Note_off_c, 0, 35, 64
1, 5792, Note_on_c, 0, 33, 96
1, 5792, Note_off_c, 0, 34, 64
1, 5792, Note_on_c, 0, 69, 10
1, 5793, Note_on_c, 0, 32, 96
1, 5793, Note_off_c, 0, 33, 64
1, 5795, Note_on_c, 0, 31, 93
1, 5795, Note_off_c, 0, 32, 64
1, 5795, Note_on_c, 0, 71, 14
1, 5796, Note_on_c, 0, 63, 31
1, 5797, Note_on_c, 0, 30, 81
1, 5797, Note_off_c, 0, 31, 64
1, 5798, Note_off_c, 0, 71, 64
1, 5799, Note_off_c, 0, 30, 64
1, 5799, Note_off_c, 0, 69, 64
1, 5800, Note_on_c, 0, 73, 28
1, 5800, Note_on_c, 0, 81, 32
1, 5800, Note_on_c, 0, 90, 21
1, 5801, Note_on_c, 0, 36, 71
1, 5801, Note_on_c, 0, 71, 23
1, 5801, Note_on_c, 0, 83, 31
1, 5802, Note_on_c, 0, 31, 76
1, 5802, Note_off_c, 0, 36, 64
1, 5802, Note_on_c, 0, 49, 60
1, 5803, Note_on_c, 0, 30, 79
1, 5803, Note_off_c, 0, 31, 64
1, 5803, Note_on_c, 0, 69, 22
1, 5803, Note_on_c, 0, 86, 14
1, 5803, Note_on_c, 0, 89, 19
1, 5803, Note_off_c, 0, 90, 64
1, 5803, Note_on_c, 0, 91, 9
1, 5804, Note_on_c, 0, 29, 79
1, 5804, Note_off_c, 0, 30, 64
1, 5805, Note_off_c, 0, 49, 64
1, 5805, Note_on_c, 0, 61, 26
1, 5805, Note_off_c, 0, 63, 64
1, 5805, Note_on_c, 0, 78, 13
1, 5805, Note_on_c, 0, 88, 15
1, 5806, Note_off_c, 0, 29, 64
1, 5806, Note_on_c, 0, 30, 76
1, 5806, Note_off_c, 0, 69, 64
1, 5806, Note_off_c, 0, 71, 64
1, 5806, Note_on_c, 0, 75, 16
1, 5806, Note_on_c, 0, 84, 22
1, 5806, Note_off_c, 0, 86, 64
1, 5806, Note_off_c, 0, 91, 64
1, 5806, Note_on_c, 0, 92, 19
1, 5807, Note_on_c, 0, 29, 75
1, 5807, Note_off_c, 0, 30, 64
1, 5807, Note_on_c, 0, 48, 52
1, 5807, Note_on_c, 0, 66, 42
1, 5807, Note_off_c, 0, 73, 64
1, 5807, Note_on_c, 0, 76, 23
1, 5807, Note_on_c, 0, 79, 16
1, 5808, Note_off_c, 0, 61, 64
1, 5809, Note_off_c, 0, 48, 64
1, 5809, Note_on_c, 0, 68, 31
1, 5809, Note_off_c, 0, 75, 64
1, 5809, Note_off_c, 0, 81, 64
1, 5809, Note_on_c, 0, 87, 27
1, 5809, Note_on_c, 0, 90, 26
1, 5810, Note_off_c, 0, 29, 64
1, 5810, Note_on_c, 0, 30, 79
1, 5810, Note_on_c, 0, 61, 29
1, 5810, Note_off_c, 0, 78, 64
1, 5810, Note_off_c, 0, 79, 64
1, 5810, Note_off_c, 0, 88, 64
1, 5810, Note_off_c, 0, 89, 64
1, 5811, Note_off_c, 0, 68, 64
1, 5811, Note_on_c, 0, 79, 14
1, 5811, Note_on_c, 0, 89, 20
1, 5812, Note_on_c, 0, 81, 21
1, 5812, Note_off_c, 0, 84, 64
1, 5812, Note_off_c, 0, 90, 64
1, 5813, Note_on_c, 0, 29, 80
1, 5813, Note_off_c, 0, 30, 64
1, 5813, Note_on_c, 0, 68, 29
1, 5813, Note_on_c, 0, 90, 29
1, 5814, Note_off_c, 0, 89, 64
1, 5814, Note_off_c, 0, 92, 64
1, 5815, Note_on_c, 0, 58, 30
1, 5815, Note_off_c, 0, 61, 64
1, 5815, Note_on_c, 0, 65, 30
1, 5815, Note_off_c, 0, 66, 64
1, 5815, Note_on_c, 0, 72, 17
1, 5815, Note_off_c, 0, 76, 64
1, 5815, Note_off_c, 0, 79, 64
1, 5816, Note_off_c, 0, 29, 64
1, 5816, Note_on_c, 0, 30, 74
1, 5816, Note_on_c, 0, 74, 25
1, 5816, Note_off_c, 0, 83, 64
1, 5816, Note_on_c, 0, 91, 30
1, 5817, Note_off_c, 0, 30, 64
1, 5817, Note_on_c, 0, 34, 72
1, 5817, Note_on_c, 0, 54, 32
1, 5817, Note_off_c, 0, 58, 64
1, 5817, Note_off_c, 0, 65, 64
1, 5817, Note_on_c, 0, 66, 49
1, 5817, Note_off_c, 0, 68, 64
1, 5817, Note_on_c, 0, 76, 41
1, 5817, Note_on_c, 0, 79, 30
1, 5817, Note_off_c, 0, 87, 64
1, 5818, Note_off_c, 0, 34, 64
1, 5818, Note_on_c, 0, 71, 42
1, 5818, Note_off_c, 0, 72, 64
1, 5818, Note_on_c, 0, 80, 36
1, 5818, Note_off_c, 0, 81, 64
1, 5818, Note_on_c, 0, 85, 35
1, 5818, Note_on_c, 0, 87, 29
1, 5818, Note_on_c, 0, 93, 24
1, 5819, Note_off_c, 0, 54, 64
1, 5819, Note_on_c, 0, 73, 37
1, 5819, Note_off_c, 0, 74, 64
1, 5819, Note_off_c, 0, 79, 64
1, 5819, Note_on_c, 0, 81, 30
1, 5819, Note_on_c, 0, 89, 29
1, 5820, Note_on_c, 0, 53, 73
1, 5820, Note_on_c, 0, 64, 45
1, 5820, Note_off_c, 0, 66, 64
1, 5820, Note_on_c, 0, 67, 40
1, 5820, Note_off_c, 0, 71, 64
1, 5821, Note_on_c, 0, 48, 85
1, 5821, Note_off_c, 0, 53, 64
1, 5821, Note_off_c, 0, 73, 64
1, 5821, Note_off_c, 0, 76, 64
1, 5821, Note_off_c, 0, 81, 64
1, 5821, Note_off_c, 0, 89, 64
1, 5821, Note_off_c, 0, 93, 64
1, 5822, Note_on_c, 0, 45, 94
1, 5822, Note_off_c, 0, 48, 64
1, 5822, Note_off_c, 0, 64, 64
1, 5822, Note_off_c, 0, 67, 64
1, 5822, Note_off_c, 0, 80, 64
1, 5822, Note_off_c, 0, 85, 64
1, 5822, Note_off_c, 0, 90, 64
1, 5822, Note_off_c, 0, 91, 64
1, 5823, Note_on_c, 0, 42, 100
1, 5823, Note_off_c, 0, 45, 64
1, 5823, Note_off_c, 0, 87, 64
1, 5823, Note_on_c, 0, 93, 10
1, 5824, Note_on_c, 0, 40, 98
1, 5824, Note_off_c, 0, 42, 64
1, 5825, Note_on_c, 0, 38, 98
1, 5825, Note_off_c, 0, 40, 64
1, 5826, Note_on_c, 0, 36, 98
1, 5826, Note_off_c, 0, 38, 64
1, 5826, Note_on_c, 0, 89, 24
1, 5826, Note_off_c, 0, 93, 64
1, 5827, Note_on_c, 0, 35, 97
1, 5827, Note_off_c, 0, 36, 64
1, 5828, Note_on_c, 0, 34, 96
1, 5828, Note_off_c, 0, 35, 64
1, 5828, Note_on_c, 0, 80, 13
1, 5828, Note_on_c, 0, 84, 17
1, 5828, Note_on_c, 0, 86, 21
1, 5828, Note_on_c, 0, 90, 20
1, 5829, Note_on_c, 0, 33, 96
1, 5829, Note_off_c, 0, 34, 64
1, 5830, Note_on_c, 0, 32, 96
1, 5830, Note_off_c, 0, 33, 64
1, 5830, Note_on_c, 0, 49, 33
1, 5830, Note_off_c, 0, 89, 64
1, 5831, Note_off_c, 0, 80, 64
1, 5831, Note_on_c, 0, 83, 14
1, 5831, Note_off_c, 0, 84, 64
1, 5831, Note_off_c, 0, 86, 64
1, 5831, Note_off_c, 0, 90, 64
1, 5832, Note_on_c, 0, 31, 95
1, 5832, Note_off_c, 0, 32, 64
1, 5832, Note_off_c, 0, 49, 64
1, 5833, Note_on_c, 0, 72, 14
1, 5834, Note_on_c, 0, 30, 85
1, 5834, Note_off_c, 0, 31, 64
1, 5834, Note_off_c, 0, 83, 64
1, 5834, Note_on_c, 0, 92, 11
1, 5835, Note_on_c, 0, 67, 40
1, 5835, Note_on_c, 0, 69, 30
1, 5836, Note_on_c, 0, 71, 27
1, 5836, Note_off_c, 0, 72, 64
1, 5836, Note_on_c, 0, 90, 16
1, 5837, Note_off_c, 0, 30, 64
1, 5837, Note_on_c, 0, 82, 18
1, 5838, Note_on_c, 0, 37, 65
1, 5838, Note_on_c, 0, 85, 17
1, 5838, Note_off_c, 0, 92, 64
1, 5839, Note_on_c, 0, 31, 72
1, 5839, Note_off_c, 0, 37, 64
1, 5839, Note_on_c, 0, 61, 33
1, 5840, Note_on_c, 0, 30, 80
1, 5840, Note_off_c, 0, 31, 64
1, 5840, Note_on_c, 0, 64, 35
1, 5840, Note_off_c, 0, 82, 64
1, 5841, Note_on_c, 0, 29, 81
1, 5841, Note_off_c, 0, 30, 64
1, 5841, Note_off_c, 0, 85, 64
1, 5841, Note_off_c, 0, 90, 64
1, 5842, Note_off_c, 0, 29, 64
1, 5842, Note_on_c, 0, 30, 78
1, 5842, Note_on_c, 0, 86, 10
1, 5843, Note_off_c, 0, 64, 64
1, 5843, Note_off_c, 0, 69, 64
1, 5843, Note_on_c, 0, 87, 12
1, 5844, Note_on_c, 0, 69, 36
1, 5844, Note_on_c, 0, 89, 24
1, 5845, Note_on_c, 0, 29, 74
1, 5845, Note_off_c, 0, 30, 64
1, 5845, Note_on_c, 0, 64, 37
1, 5846, Note_off_c, 0, 71, 64
1, 5846, Note_on_c, 0, 74, 26
1, 5846, Note_off_c, 0, 86, 64
1, 5847, Note_off_c, 0, 61, 64
1, 5847, Note_on_c, 0, 83, 17
1, 5847, Note_on_c, 0, 88, 23
1, 5848, Note_off_c, 0, 29, 64
1, 5848, Note_on_c, 0, 30, 74
1, 5848, Note_on_c, 0, 54, 53
1, 5848, Note_on_c, 0, 61, 34
1, 5848, Note_off_c, 0, 87, 64
1, 5849, Note_off_c, 0, 30, 64
1, 5849, Note_on_c, 0, 31, 78
1, 5849, Note_on_c, 0, 49, 61
1, 5849, Note_off_c, 0, 67, 64
1, 5849, Note_off_c, 0, 89, 64
1, 5849, Note_on_c, 0, 92, 9
1, 5850, Note_on_c, 0, 30, 79
1, 5850, Note_off_c, 0, 31, 64
1, 5850, Note_off_c, 0, 54, 64
1, 5850, Note_off_c, 0, 69, 64
1, 5850, Note_on_c, 0, 85, 24
1, 5851, Note_on_c, 0, 29, 79
1, 5851, Note_off_c, 0, 30, 64
1, 5851, Note_on_c, 0, 71, 19
1, 5851, Note_off_c, 0, 83, 64
1, 5852, Note_off_c, 0, 29, 64
1, 5852, Note_on_c, 0, 30, 77
1, 5852, Note_off_c, 0, 49, 64
1, 5852, Note_off_c, 0, 64, 64
1, 5852, Note_on_c, 0, 66, 30
1, 5852, Note_on_c, 0, 72, 18
1, 5852, Note_on_c, 0, 83, 34
1, 5852, Note_off_c, 0, 92, 64
1, 5853, Note_off_c, 0, 61, 64
1, 5853, Note_on_c, 0, 80, 22
1, 5853, Note_on_c, 0, 87, 24
1, 5853, Note_on_c, 0, 90, 34
1, 5854, Note_off_c, 0, 30, 64
1, 5854, Note_on_c, 0, 31, 72
1, 5854, Note_off_c, 0, 66, 64
1, 5854, Note_on_c, 0, 67, 40
1, 5855, Note_off_c, 0, 31, 64
1, 5855, Note_on_c, 0, 34, 68
1, 5855, Note_off_c, 0, 71, 64
1, 5855, Note_off_c, 0, 72, 64
1, 5855, Note_on_c, 0, 76, 34
1, 5855, Note_on_c, 0, 91, 27
1, 5855, Note_on_c, 0, 93, 29
1, 5856, Note_off_c, 0, 34, 64
1, 5856, Note_off_c, 0, 74, 64
1, 5856, Note_off_c, 0, 80, 64
1, 5857, Note_on_c, 0, 55, 65
1, 5857, Note_on_c, 0, 63, 50
1, 5857, Note_off_c, 0, 67, 64
1, 5857, Note_on_c, 0, 68, 43
1, 5857, Note_on_c, 0, 72, 39
1, 5857, Note_off_c, 0, 76, 64
1, 5857, Note_off_c, 0, 85, 64
1, 5857, Note_on_c, 0, 86, 18
1, 5857, Note_off_c, 0, 87, 64
1, 5858, Note_on_c, 0, 49, 79
1, 5858, Note_off_c, 0, 55, 64
1, 5858, Note_off_c, 0, 83, 64
1, 5858, Note_off_c, 0, 93, 64
1, 5859, Note_on_c, 0, 45, 91
1, 5859, Note_off_c, 0, 49, 64
1, 5859, Note_off_c, 0, 63, 64
1, 5859, Note_off_c, 0, 72, 64
1, 5859, Note_off_c, 0, 90, 64
1, 5860, Note_on_c, 0, 42, 97
1, 5860, Note_off_c, 0, 45, 64
1, 5860, Note_on_c, 0, 66, 25
1, 5860, Note_off_c, 0, 68, 64
1, 5860, Note_off_c, 0, 88, 64
1, 5860, Note_off_c, 0, 91, 64
1, 5861, Note_on_c, 0, 41, 100
1, 5861, Note_off_c, 0, 42, 64
1, 5861, Note_off_c, 0, 86, 64
1, 5862, Note_on_c, 0, 38, 98
1, 5862, Note_off_c, 0, 41, 64
1, 5862, Note_on_c, 0, 88, 17
1, 5862, Note_on_c, 0, 89, 13
1, 5862, Note_on_c, 0, 92, 16
1, 5863, Note_on_c, 0, 37, 98
1, 5863, Note_off_c, 0, 38, 64
1, 5864, Note_on_c, 0, 36, 97
1, 5864, Note_off_c, 0, 37, 64
1, 5865, Note_on_c, 0, 35, 96
1, 5865, Note_off_c, 0, 36, 64
1, 5865, Note_on_c, 0, 93, 18
1, 5866, Note_on_c, 0, 34, 96
1, 5866, Note_off_c, 0, 35, 64
1, 5866, Note_on_c, 0, 76, 10
1, 5867, Note_on_c, 0, 33, 96
1, 5867, Note_off_c, 0, 34, 64
1, 5867, Note_on_c, 0, 87, 17
1, 5867, Note_off_c, 0, 88, 64
1, 5868, Note_on_c, 0, 32, 96
1, 5868, Note_off_c, 0, 33, 64
1, 5868, Note_on_c, 0, 65, 21
1, 5868, Note_off_c, 0, 66, 64
1, 5868, Note_off_c, 0, 89, 64
1, 5869, Note_on_c, 0, 31, 95
1, 5869, Note_off_c, 0, 32, 64
1, 5870, Note_on_c, 0, 70, 11
1, 5870, Note_off_c, 0, 76, 64
1, 5870, Note_on_c, 0, 90, 15
1, 5870, Note_off_c, 0, 92, 64
1, 5871, Note_off_c, 0, 87, 64
1, 5871, Note_off_c, 0, 93, 64
1, 5872, Note_on_c, 0, 30, 79
1, 5872, Note_off_c, 0, 31, 64
1, 5873, Note_on_c, 0, 62, 36
1, 5873, Note_off_c, 0, 70, 64
1, 5874, Note_off_c, 0, 30, 64
1, 5874, Note_off_c, 0, 65, 64
1, 5874, Note_on_c, 0, 77, 21
1, 5874, Note_on_c, 0, 88, 18
1, 5874, Note_on_c, 0, 94, 10
1, 5875, Note_on_c, 0, 71, 24
1, 5875, Note_on_c, 0, 79, 14
1, 5875, Note_on_c, 0, 82, 9
1, 5875, Note_on_c, 0, 83, 27
1, 5875, Note_on_c, 0, 86, 24
1, 5875, Note_on_c, 0, 87, 22
1, 5875, Note_on_c, 0, 89, 25
1, 5875, Note_on_c, 0, 93, 27
1, 5876, Note_on_c, 0, 36, 69
1, 5876, Note_off_c, 0, 90, 64
1, 5876, Note_on_c, 0, 91, 17
1, 5877, Note_on_c, 0, 31, 76
1, 5877, Note_off_c, 0, 36, 64
1, 5877, Note_off_c, 0, 62, 64
1, 5877, Note_on_c, 0, 76, 19
1, 5877, Note_off_c, 0, 94, 64
1, 5878, Note_on_c, 0, 30, 80
1, 5878, Note_off_c, 0, 31, 64
1, 5878, Note_on_c, 0, 61, 30
1, 5878, Note_on_c, 0, 67, 31
1, 5878, Note_off_c, 0, 79, 64
1, 5878, Note_off_c, 0, 82, 64
1, 5878, Note_off_c, 0, 86, 64
1, 5879, Note_on_c, 0, 29, 79
1, 5879, Note_off_c, 0, 30, 64
1, 5879, Note_on_c, 0, 86, 34
1, 5879, Note_off_c, 0, 88, 64
1, 5879, Note_off_c, 0, 91, 64
1, 5880, Note_off_c, 0, 29, 64
1, 5880, Note_on_c, 0, 30, 76
1, 5880, Note_off_c, 0, 61, 64
1, 5880, Note_off_c, 0, 71, 64
1, 5880, Note_off_c, 0, 87, 64
1, 5880, Note_off_c, 0, 89, 64
1, 5881, Note_on_c, 0, 91, 14
1, 5882, Note_on_c, 0, 29, 74
1, 5882, Note_off_c, 0, 30, 64
1, 5882, Note_on_c, 0, 62, 41
1, 5882, Note_off_c, 0, 76, 64
1, 5882, Note_on_c, 0, 89, 24
1, 5884, Note_on_c, 0, 42, 66
1, 5884, Note_on_c, 0, 71, 30
1, 5884, Note_off_c, 0, 77, 64
1, 5884, Note_on_c, 0, 80, 18
1, 5884, Note_off_c, 0, 91, 64
1, 5884, Note_on_c, 0, 92, 27
1, 5885, Note_off_c, 0, 29, 64
1, 5885, Note_on_c, 0, 30, 80
1, 5885, Note_off_c, 0, 67, 64
1, 5885, Note_on_c, 0, 68, 20
1, 5885, Note_on_c, 0, 90, 30
1, 5885, Note_on_c, 0, 91, 27
1, 5886, Note_off_c, 0, 42, 64
1, 5886, Note_on_c, 0, 61, 39
1, 5886, Note_off_c, 0, 62, 64
1, 5886, Note_on_c, 0, 77, 24
1, 5886, Note_on_c, 0, 79, 17
1, 5886, Note_on_c, 0, 88, 17
1, 5887, Note_on_c, 0, 75, 37
1, 5887, Note_off_c, 0, 80, 64
1, 5888, Note_on_c, 0, 29, 80
1, 5888, Note_off_c, 0, 30, 64
1, 5888, Note_off_c, 0, 61, 64
1, 5888, Note_off_c, 0, 71, 64
1, 5888, Note_on_c, 0, 72, 23
1, 5888, Note_off_c, 0, 92, 64
1, 5889, Note_off_c, 0, 68, 64
1, 5889, Note_off_c, 0, 86, 64
1, 5889, Note_off_c, 0, 88, 64
1, 5889, Note_off_c, 0, 91, 64
1, 5889, Note_on_c, 0, 92, 31
1, 5890, Note_off_c, 0, 29, 64
1, 5890, Note_on_c, 0, 30, 76
1, 5890, Note_off_c, 0, 77, 64
1, 5891, Note_on_c, 0, 81, 35
1, 5891, Note_off_c, 0, 83, 64
1, 5891, Note_on_c, 0, 86, 25
1, 5892, Note_off_c, 0, 30, 64
1, 5892, Note_on_c, 0, 34, 72
1, 5892, Note_on_c, 0, 54, 30
1, 5892, Note_off_c, 0, 79, 64
1, 5892, Note_off_c, 0, 89, 64
1, 5893, Note_off_c, 0, 34, 64
1, 5893, Note_on_c, 0, 64, 50
1, 5893, Note_on_c, 0, 70, 45
1, 5893, Note_off_c, 0, 72, 64
1, 5893, Note_on_c, 0, 73, 37
1, 5893, Note_on_c, 0, 77, 38
1, 5893, Note_on_c, 0, 80, 31
1, 5893, Note_on_c, 0, 83, 33
1, 5893, Note_on_c, 0, 84, 34
1, 5893, Note_on_c, 0, 94, 19
1, 5894, Note_off_c, 0, 54, 64
1, 5894, Note_off_c, 0, 86, 64
1, 5894, Note_on_c, 0, 91, 29
1, 5895, Note_on_c, 0, 51, 74
1, 5895, Note_off_c, 0, 64, 64
1, 5895, Note_off_c, 0, 70, 64
1, 5895, Note_off_c, 0, 75, 64
1, 5895, Note_off_c, 0, 81, 64
1, 5895, Note_off_c, 0, 83, 64
1, 5896, Note_on_c, 0, 48, 86
1, 5896, Note_off_c, 0, 51, 64
1, 5896, Note_off_c, 0, 73, 64
1, 5896, Note_off_c, 0, 77, 64
1, 5896, Note_off_c, 0, 80, 64
1, 5896, Note_off_c, 0, 90, 64
1, 5896, Note_off_c, 0, 91, 64
1, 5896, Note_off_c, 0, 92, 64
1, 5896, Note_off_c, 0, 93, 64
1, 5896, Note_off_c, 0, 94, 64
1, 5897, Note_on_c, 0, 45, 95
1, 5897, Note_off_c, 0, 48, 64
1, 5898, Note_on_c, 0, 42, 100
1, 5898, Note_off_c, 0, 45, 64
1, 5899, Note_on_c, 0, 40, 97
1, 5899, Note_off_c, 0, 42, 64
1, 5899, Note_off_c, 0, 84, 64
1, 5900, Note_on_c, 0, 38, 98
1, 5900, Note_off_c, 0, 40, 64
1, 5900, Note_on_c, 0, 89, 14
1, 5901, Note_on_c, 0, 36, 98
1, 5901, Note_off_c, 0, 38, 64
1, 5902, Note_on_c, 0, 35, 97
1, 5902, Note_off_c, 0, 36, 64
1, 5903, Note_on_c, 0, 34, 96
1, 5903, Note_off_c, 0, 35, 64
1, 5904, Note_on_c, 0, 33, 96
1, 5904, Note_off_c, 0, 34, 64
1, 5904, Note_on_c, 0, 88, 15
1, 5905, Note_on_c, 0, 32, 96
1, 5905, Note_off_c, 0, 33, 64
1, 5905, Note_on_c, 0, 64, 13
1, 5905, Note_off_c, 0, 89, 64
1, 5907, Note_on_c, 0, 31, 94
1, 5907, Note_off_c, 0, 32, 64
1, 5907, Note_on_c, 0, 85, 20
1, 5908, Note_off_c, 0, 64, 64
1, 5908, Note_on_c, 0, 89, 14
1, 5909, Note_on_c, 0, 30, 84
1, 5909, Note_off_c, 0, 31, 64
1, 5909, Note_on_c, 0, 74, 10
1, 5909, Note_on_c, 0, 87, 10
1, 5910, Note_on_c, 0, 92, 22
1, 5911, Note_off_c, 0, 88, 64
1, 5911, Note_off_c, 0, 89, 64
1, 5911, Note_on_c, 0, 94, 12
1, 5912, Note_off_c, 0, 30, 64
1, 5912, Note_on_c, 0, 76, 14
1, 5912, Note_on_c, 0, 81, 22
1, 5912, Note_on_c, 0, 83, 25
1, 5912, Note_off_c, 0, 87, 64
1, 5912, Note_on_c, 0, 90, 31
1, 5913, Note_on_c, 0, 41, 68
1, 5913, Note_on_c, 0, 61, 30
1, 5913, Note_on_c, 0, 84, 29
1, 5913, Note_off_c, 0, 85, 64
1, 5914, Note_on_c, 0, 32, 72
1, 5914, Note_off_c, 0, 41, 64
1, 5914, Note_on_c, 0, 70, 19
1, 5914, Note_on_c, 0, 89, 18
1, 5914, Note_off_c, 0, 94, 64
1, 5915, Note_on_c, 0, 30, 79
1, 5915, Note_off_c, 0, 32, 64
1, 5915, Note_on_c, 0, 49, 59
1, 5915, Note_off_c, 0, 61, 64
1, 5915, Note_off_c, 0, 74, 64
1, 5915, Note_off_c, 0, 76, 64
1, 5915, Note_off_c, 0, 83, 64
1, 5916, Note_on_c, 0, 29, 80
1, 5916, Note_off_c, 0, 30, 64
1, 5916, Note_on_c, 0, 63, 27
1, 5916, Note_on_c, 0, 68, 9
1, 5916, Note_on_c, 0, 85, 21
1, 5916, Note_off_c, 0, 90, 64
1, 5917, Note_off_c, 0, 29, 64
1, 5917, Note_on_c, 0, 30, 77
1, 5917, Note_off_c, 0, 49, 64
1, 5917, Note_off_c, 0, 70, 64
1, 5917, Note_on_c, 0, 87, 30
1, 5918, Note_on_c, 0, 71, 12
1, 5918, Note_on_c, 0, 77, 22
1, 5919, Note_on_c, 0, 29, 75
1, 5919, Note_off_c, 0, 30, 64
1, 5919, Note_off_c, 0, 63, 64
1, 5919, Note_off_c, 0, 68, 64
1, 5919, Note_on_c, 0, 91, 16
1, 5920, Note_on_c, 0, 69, 27
1, 5920, Note_on_c, 0, 76, 15
1, 5920, Note_on_c, 0, 88, 23
1, 5921, Note_on_c, 0, 90, 25
1, 5922, Note_on_c, 0, 74, 31
1, 5922, Note_off_c, 0, 77, 64
1, 5923, Note_off_c, 0, 29, 64
1, 5923, Note_on_c, 0, 30, 80
1, 5923, Note_off_c, 0, 71, 64
1, 5923, Note_off_c, 0, 76, 64
1, 5923, Note_on_c, 0, 77, 14
1, 5924, Note_on_c, 0, 49, 60
1, 5924, Note_on_c, 0, 54, 52
1, 5924, Note_off_c, 0, 69, 64
1, 5924, Note_off_c, 0, 84, 64
1, 5924, Note_off_c, 0, 85, 64
1, 5924, Note_off_c, 0, 88, 64
1, 5925, Note_on_c, 0, 64, 29
1, 5925, Note_off_c, 0, 81, 64
1, 5925, Note_on_c, 0, 84, 20
1, 5925, Note_off_c, 0, 90, 64
1, 5925, Note_on_c, 0, 94, 29
1, 5926, Note_on_c, 0, 29, 80
1, 5926, Note_off_c, 0, 30, 64
1, 5926, Note_off_c, 0, 54, 64
1, 5926, Note_on_c, 0, 85, 34
1, 5926, Note_off_c, 0, 92, 64
1, 5926, Note_on_c, 0, 95, 25
1, 5927, Note_off_c, 0, 49, 64
1, 5927, Note_on_c, 0, 68, 21
1, 5927, Note_off_c, 0, 77, 64
1, 5927, Note_off_c, 0, 89, 64
1, 5927, Note_on_c, 0, 90, 29
1, 5928, Note_off_c, 0, 29, 64
1, 5928, Note_on_c, 0, 30, 75
1, 5928, Note_off_c, 0, 64, 64
1, 5928, Note_on_c, 0, 77, 41
1, 5928, Note_on_c, 0, 83, 34
1, 5928, Note_off_c, 0, 87, 64
1, 5928, Note_off_c, 0, 91, 64
1, 5928, Note_on_c, 0, 92, 28
1, 5929, Note_off_c, 0, 30, 64
1, 5929, Note_on_c, 0, 32, 72
1, 5929, Note_off_c, 0, 74, 64
1, 5929, Note_off_c, 0, 84, 64
1, 5930, Note_off_c, 0, 32, 64
1, 5930, Note_on_c, 0, 35, 67
1, 5930, Note_on_c, 0, 66, 43
1, 5930, Note_on_c, 0, 70, 40
1, 5930, Note_on_c, 0, 74, 41
1, 5930, Note_on_c, 0, 91, 28
1, 5930, Note_on_c, 0, 96, 24
1, 5930, Note_on_c, 0, 98, 23
1, 5930, Note_on_c, 0, 100, 21
1, 5931, Note_off_c, 0, 35, 64
1, 5931, Note_off_c, 0, 68, 64
1, 5931, Note_on_c, 0, 87, 31
1, 5932, Note_on_c, 0, 54, 67
1, 5932, Note_off_c, 0, 66, 64
1, 5932, Note_on_c, 0, 88, 20
1, 5933, Note_on_c, 0, 49, 81
1, 5933, Note_off_c, 0, 54, 64
1, 5933, Note_off_c, 0, 70, 64
1, 5933, Note_off_c, 0, 74, 64
1, 5933, Note_off_c, 0, 77, 64
1, 5933, Note_off_c, 0, 91, 64
1, 5933, Note_off_c, 0, 95, 64
1, 5933, Note_off_c, 0, 98, 64
1, 5933, Note_off_c, 0, 100, 64
1, 5934, Note_on_c, 0, 45, 92
1, 5934, Note_off_c, 0, 49, 64
1, 5934, Note_off_c, 0, 90, 64
1, 5934, Note_off_c, 0, 92, 64
1, 5935, Note_on_c, 0, 42, 98
1, 5935, Note_off_c, 0, 45, 64
1, 5935, Note_on_c, 0, 68, 15
1, 5935, Note_off_c, 0, 85, 64
1, 5935, Note_off_c, 0, 87, 64
1, 5935, Note_on_c, 0, 93, 11
1, 5935, Note_off_c, 0, 94, 64
1, 5935, Note_off_c, 0, 96, 64
1, 5936, Note_on_c, 0, 41, 99
1, 5936, Note_off_c, 0, 42, 64
1, 5937, Note_on_c, 0, 38, 98
1, 5937, Note_off_c, 0, 41, 64
1, 5937, Note_off_c, 0, 88, 64
1, 5938, Note_on_c, 0, 37, 98
1, 5938, Note_off_c, 0, 38, 64
1, 5938, Note_on_c, 0, 88, 9
1, 5938, Note_on_c, 0, 90, 20
1, 5939, Note_on_c, 0, 36, 97
1, 5939, Note_off_c, 0, 37, 64
1, 5939, Note_off_c, 0, 83, 64
1, 5939, Note_on_c, 0, 89, 20
1, 5940, Note_on_c, 0, 34, 96
1, 5940, Note_off_c, 0, 36, 64
1, 5940, Note_off_c, 0, 68, 64
1, 5940, Note_on_c, 0, 84, 12
1, 5940, Note_on_c, 0, 86, 24
1, 5940, Note_on_c, 0, 92, 13
1, 5940, Note_off_c, 0, 93, 64
1, 5941, Note_on_c, 0, 33, 96
1, 5941, Note_off_c, 0, 34, 64
1, 5942, Note_on_c, 0, 83, 19
1, 5942, Note_off_c, 0, 88, 64
1, 5943, Note_on_c, 0, 32, 96
1, 5943, Note_off_c, 0, 33, 64
1, 5943, Note_off_c, 0, 84, 64
1, 5943, Note_off_c, 0, 86, 64
1, 5943, Note_on_c, 0, 87, 14
1, 5943, Note_on_c, 0, 91, 9
1, 5943, Note_off_c, 0, 92, 64
1, 5944, Note_on_c, 0, 31, 95
1, 5944, Note_off_c, 0, 32, 64
1, 5944, Note_on_c, 0, 71, 10
1, 5944, Note_off_c, 0, 90, 64
1, 5944, Note_on_c, 0, 92, 23
1, 5946, Note_on_c, 0, 66, 16
1, 5946, Note_off_c, 0, 83, 64
1, 5946, Note_off_c, 0, 87, 64
1, 5947, Note_on_c, 0, 30, 78
1, 5947, Note_off_c, 0, 31, 64
1, 5947, Note_on_c, 0, 88, 24
1, 5947, Note_off_c, 0, 91, 64
1, 5948, Note_on_c, 0, 82, 13
1, 5948, Note_on_c, 0, 86, 20
1, 5948, Note_on_c, 0, 90, 21
1, 5949, Note_off_c, 0, 30, 64
1, 5949, Note_off_c, 0, 66, 64
1, 5949, Note_on_c, 0, 67, 22
1, 5949, Note_off_c, 0, 71, 64
1, 5949, Note_off_c, 0, 89, 64
1, 5949, Note_on_c, 0, 93, 18
1, 5950, Note_on_c, 0, 85, 30
1, 5950, Note_on_c, 0, 89, 25
1, 5950, Note_on_c, 0, 94, 15
1, 5951, Note_on_c, 0, 36, 68
1, 5951, Note_on_c, 0, 61, 27
1, 5951, Note_off_c, 0, 86, 64
1, 5951, Note_off_c, 0, 92, 64
1, 5951, Note_on_c, 0, 96, 15
1, 5952, Note_on_c, 0, 31, 76
1, 5952, Note_off_c, 0, 36, 64
1, 5952, Note_off_c, 0, 67, 64
1, 5952, Note_on_c, 0, 87, 26
1, 5953, Note_on_c, 0, 30, 79
1, 5953, Note_off_c, 0, 31, 64
1, 5953, Note_on_c, 0, 70, 23
1, 5953, Note_off_c, 0, 82, 64
1, 5953, Note_on_c, 0, 84, 26
1, 5953, Note_off_c, 0, 85, 64
1, 5953, Note_off_c, 0, 88, 64
1, 5954, Note_on_c, 0, 29, 79
1, 5954, Note_off_c, 0, 30, 64
1, 5954, Note_off_c, 0, 89, 64
1, 5954, Note_on_c, 0, 91, 13
1, 5954, Note_off_c, 0, 96, 64
1, 5955, Note_off_c, 0, 29, 64
1, 5955, Note_on_c, 0, 30, 76
1, 5955, Note_off_c, 0, 61, 64
1, 5955, Note_on_c, 0, 85, 21
1, 5955, Note_off_c, 0, 94, 64
1, 5956, Note_off_c, 0, 70, 64
1, 5956, Note_on_c, 0, 78, 14
1, 5956, Note_off_c, 0, 84, 64
1, 5956, Note_off_c, 0, 93, 64
1, 5957, Note_on_c, 0, 29, 74
1, 5957, Note_off_c, 0, 30, 64
1, 5957, Note_on_c, 0, 81, 21
1, 5957, Note_off_c, 0, 90, 64
1, 5958, Note_on_c, 0, 68, 25
1, 5958, Note_off_c, 0, 91, 64
1, 5958, Note_on_c, 0, 92, 20
1, 5958, Note_on_c, 0, 94, 14
1, 5959, Note_on_c, 0, 42, 67
1, 5959, Note_on_c, 0, 79, 15
1, 5959, Note_on_c, 0, 83, 26
1, 5959, Note_on_c, 0, 86, 18
1, 5959, Note_off_c, 0, 87, 64
1, 5959, Note_on_c, 0, 88, 29
1, 5959, Note_on_c, 0, 89, 24
1, 5960, Note_off_c, 0, 29, 64
1, 5960, Note_on_c, 0, 30, 79
1, 5960, Note_on_c, 0, 74, 23
1, 5960, Note_on_c, 0, 77, 37
1, 5960, Note_on_c, 0, 84, 18
1, 5961, Note_off_c, 0, 42, 64
1, 5961, Note_on_c, 0, 63, 31
1, 5961, Note_off_c, 0, 68, 64
1, 5961, Note_on_c, 0, 71, 20
1, 5961, Note_on_c, 0, 90, 33
1, 5961, Note_on_c, 0, 91, 29
1, 5962, Note_off_c, 0, 78, 64
1, 5962, Note_off_c, 0, 81, 64
1, 5962, Note_off_c, 0, 85, 64
1, 5962, Note_off_c, 0, 89, 64
1, 5963, Note_on_c, 0, 29, 80
1, 5963, Note_off_c, 0, 30, 64
1, 5963, Note_on_c, 0, 68, 27
1, 5963, Note_off_c, 0, 84, 64
1, 5963, Note_off_c, 0, 86, 64
1, 5963, Note_on_c, 0, 87, 20
1, 5963, Note_on_c, 0, 93, 28
1, 5963, Note_off_c, 0, 94, 64
1, 5964, Note_off_c, 0, 63, 64
1, 5964, Note_off_c, 0, 71, 64
1, 5964, Note_off_c, 0, 79, 64
1, 5964, Note_off_c, 0, 83, 64
1, 5964, Note_on_c, 0, 85, 29
1, 5964, Note_off_c, 0, 92, 64
1, 5965, Note_off_c, 0, 29, 64
1, 5965, Note_on_c, 0, 30, 76
1, 5965, Note_on_c, 0, 92, 31
1, 5966, Note_off_c, 0, 74, 64
1, 5966, Note_on_c, 0, 83, 34
1, 5967, Note_off_c, 0, 30, 64
1, 5967, Note_on_c, 0, 34, 71
1, 5967, Note_on_c, 0, 54, 32
1, 5967, Note_off_c, 0, 68, 64
1, 5967, Note_on_c, 0, 69, 43
1, 5967, Note_on_c, 0, 71, 39
1, 5968, Note_off_c, 0, 34, 64
1, 5968, Note_on_c, 0, 64, 51
1, 5968, Note_on_c, 0, 80, 33
1, 5968, Note_on_c, 0, 86, 24
1, 5968, Note_on_c, 0, 94, 27
1, 5968, Note_on_c, 0, 96, 21
1, 5969, Note_off_c, 0, 54, 64
1, 5969, Note_off_c, 0, 71, 64
1, 5969, Note_on_c, 0, 72, 46
1, 5969, Note_off_c, 0, 87, 64
1, 5969, Note_off_c, 0, 93, 64
1, 5970, Note_on_c, 0, 51, 76
1, 5970, Note_off_c, 0, 64, 64
1, 5970, Note_on_c, 0, 66, 40
1, 5970, Note_off_c, 0, 69, 64
1, 5970, Note_on_c, 0, 76, 13
1, 5970, Note_off_c, 0, 91, 64
1, 5971, Note_on_c, 0, 46, 86
1, 5971, Note_off_c, 0, 51, 64
1, 5971, Note_off_c, 0, 77, 64
1, 5971, Note_off_c, 0, 83, 64
1, 5971, Note_off_c, 0, 94, 64
1, 5971, Note_off_c, 0, 96, 64
1, 5972, Note_on_c, 0, 44, 95
1, 5972, Note_off_c, 0, 46, 64
1, 5972, Note_off_c, 0, 66, 64
1, 5972, Note_off_c, 0, 90, 64
1, 5972, Note_off_c, 0, 92, 64
1, 5973, Note_on_c, 0, 41, 100
1, 5973, Note_off_c, 0, 44, 64
1, 5973, Note_off_c, 0, 72, 64
1, 5973, Note_off_c, 0, 76, 64
1, 5973, Note_off_c, 0, 80, 64
1, 5973, Note_off_c, 0, 88, 64
1, 5974, Note_on_c, 0, 40, 97
1, 5974, Note_off_c, 0, 41, 64
1, 5974, Note_off_c, 0, 85, 64
1, 5975, Note_on_c, 0, 38, 98
1, 5975, Note_off_c, 0, 40, 64
1, 5975, Note_on_c, 0, 91, 16
1, 5976, Note_on_c, 0, 36, 97
1, 5976, Note_off_c, 0, 38, 64
1, 5977, Note_on_c, 0, 35, 96
1, 5977, Note_off_c, 0, 36, 64
1, 5977, Note_on_c, 0, 87, 24
1, 5977, Note_on_c, 0, 90, 23
1, 5977, Note_on_c, 0, 93, 14
1, 5978, Note_on_c, 0, 34, 96
1, 5978, Note_off_c, 0, 35, 64
1, 5978, Note_off_c, 0, 91, 64
1, 5979, Note_on_c, 0, 33, 96
1, 5979, Note_off_c, 0, 34, 64
1, 5979, Note_on_c, 0, 67, 16
1, 5979, Note_on_c, 0, 75, 9
1, 5980, Note_on_c, 0, 32, 96
1, 5980, Note_off_c, 0, 33, 64
1, 5980, Note_on_c, 0, 72, 12
1, 5981, Note_on_c, 0, 83, 9
1, 5982, Note_on_c, 0, 31, 93
1, 5982, Note_off_c, 0, 32, 64
1, 5982, Note_off_c, 0, 75, 64
1, 5982, Note_on_c, 0, 85, 25
1, 5983, Note_off_c, 0, 86, 64
1, 5984, Note_on_c, 0, 30, 83
1, 5984, Note_off_c, 0, 31, 64
1, 5984, Note_off_c, 0, 67, 64
1, 5984, Note_off_c, 0, 72, 64
1, 5984, Note_on_c, 0, 82, 21
1, 5984, Note_off_c, 0, 83, 64
1, 5984, Note_on_c, 0, 92, 26
1, 5984, Note_off_c, 0, 93, 64
1, 5985, Note_on_c, 0, 88, 28
1, 5986, Note_on_c, 0, 77, 23
1, 5986, Note_on_c, 0, 81, 18
1, 5987, Note_off_c, 0, 30, 64
1, 5987, Note_off_c, 0, 87, 64
1, 5988, Note_on_c, 0, 37, 66
1, 5988, Note_on_c, 0, 63, 33
1, 5988, Note_on_c, 0, 72, 12
1, 5988, Note_on_c, 0, 87, 19
1, 5988, Note_on_c, 0, 96, 18
1, 5989, Note_on_c, 0, 31, 72
1, 5989, Note_off_c, 0, 37, 64
1, 5989, Note_on_c, 0, 68, 30
1, 5989, Note_on_c, 0, 74, 16
1, 5989, Note_off_c, 0, 81, 64
1, 5989, Note_off_c, 0, 82, 64
1, 5989, Note_on_c, 0, 83, 25
1, 5989, Note_on_c, 0, 93, 17
1, 5990, Note_on_c, 0, 30, 79
1, 5990, Note_off_c, 0, 31, 64
1, 5990, Note_on_c, 0, 60, 33
1, 5990, Note_off_c, 0, 63, 64
1, 5991, Note_on_c, 0, 29, 79
1, 5991, Note_off_c, 0, 30, 64
1, 5991, Note_off_c, 0, 72, 64
1, 5991, Note_on_c, 0, 76, 20
1, 5991, Note_off_c, 0, 77, 64
1, 5991, Note_on_c, 0, 86, 28
1, 5991, Note_off_c, 0, 88, 64
1, 5992, Note_off_c, 0, 60, 64
1, 5992, Note_off_c, 0, 68, 64
1, 5992, Note_on_c, 0, 78, 13
1, 5992, Note_off_c, 0, 85, 64
1, 5992, Note_on_c, 0, 89, 24
1, 5992, Note_off_c, 0, 90, 64
1, 5992, Note_on_c, 0, 91, 17
1, 5993, Note_off_c, 0, 29, 64
1, 5993, Note_on_c, 0, 30, 74
1, 5993, Note_off_c, 0, 74, 64
1, 5993, Note_on_c, 0, 79, 22
1, 5993, Note_on_c, 0, 90, 21
1, 5993, Note_off_c, 0, 96, 64
1, 5994, Note_on_c, 0, 48, 53
1, 5994, Note_on_c, 0, 81, 22
1, 5994, Note_on_c, 0, 84, 19
1, 5995, Note_on_c, 0, 29, 72
1, 5995, Note_off_c, 0, 30, 64
1, 5995, Note_off_c, 0, 78, 64
1, 5995, Note_off_c, 0, 91, 64
1, 5995, Note_off_c, 0, 93, 64
1, 5995, Note_on_c, 0, 94, 14
1, 5996, Note_off_c, 0, 48, 64
1, 5996, Note_on_c, 0, 72, 32
1, 5996, Note_off_c, 0, 76, 64
1, 5996, Note_off_c, 0, 83, 64
1, 5997, Note_on_c, 0, 83, 36
1, 5997, Note_off_c, 0, 84, 64
1, 5997, Note_on_c, 0, 88, 25
1, 5997, Note_on_c, 0, 96, 15
1, 5998, Note_off_c, 0, 29, 64
1, 5998, Note_on_c, 0, 30, 73
1, 5998, Note_on_c, 0, 64, 30
1, 5998, Note_on_c, 0, 71, 35
1, 5998, Note_off_c, 0, 72, 64
1, 5998, Note_on_c, 0, 74, 27
1, 5998, Note_on_c, 0, 78, 26
1, 5998, Note_on_c, 0, 85, 21
1, 5998, Note_off_c, 0, 87, 64
1, 5998, Note_off_c, 0, 89, 64
1, 5998, Note_on_c, 0, 93, 23
1, 5998, Note_off_c, 0, 94, 64
1, 5999, Note_off_c, 0, 30, 64
1, 5999, Note_on_c, 0, 31, 77
1, 5999, Note_on_c, 0, 49, 58
1, 5999, Note_off_c, 0, 79, 64
1, 5999, Note_off_c, 0, 81, 64
1, 5999, Note_on_c, 0, 87, 30
1, 5999, Note_on_c, 0, 89, 19
1, 6000, Note_on_c, 0, 30, 78
1, 6000, Note_off_c, 0, 31, 64
1, 6000, Note_off_c, 0, 64, 64
1, 6000, Note_off_c, 0, 71, 64
1, 6000, Note_on_c, 0, 73, 29
1, 6000, Note_on_c, 0, 79, 18
1, 6000, Note_on_c, 0, 81, 26
1, 6000, Note_off_c, 0, 90, 64
1, 6001, Note_on_c, 0, 29, 78
1, 6001, Note_off_c, 0, 30, 64
1, 6001, Note_off_c, 0, 78, 64
1, 6001, Note_off_c, 0, 85, 64
1, 6001, Note_off_c, 0, 86, 64
1, 6001, Note_on_c, 0, 94, 27
1, 6001, Note_off_c, 0, 96, 64
1, 6002, Note_off_c, 0, 49, 64
1, 6002, Note_on_c, 0, 67, 28
1, 6002, Note_off_c, 0, 74, 64
1, 6002, Note_on_c, 0, 90, 37
1, 6003, Note_off_c, 0, 29, 64
1, 6003, Note_on_c, 0, 30, 73
1, 6003, Note_off_c, 0, 73, 64
1, 6003, Note_on_c, 0, 74, 29
1, 6003, Note_off_c, 0, 79, 64
1, 6003, Note_on_c, 0, 82, 36
1, 6003, Note_off_c, 0, 89, 64
1, 6003, Note_on_c, 0, 91, 23
1, 6003, Note_on_c, 0, 97, 16
1, 6004, Note_off_c, 0, 30, 64
1, 6004, Note_on_c, 0, 32, 70
1, 6004, Note_on_c, 0, 54, 37
1, 6004, Note_on_c, 0, 65, 48
1, 6004, Note_off_c, 0, 81, 64
1, 6004, Note_on_c, 0, 85, 34
1, 6005, Note_off_c, 0, 32, 64
1, 6005, Note_on_c, 0, 35, 65
1, 6005, Note_off_c, 0, 67, 64
1, 6005, Note_on_c, 0, 70, 44
1, 6005, Note_off_c, 0, 74, 64
1, 6005, Note_on_c, 0, 81, 35
1, 6005, Note_on_c, 0, 96, 27
1, 6005, Note_on_c, 0, 98, 22
1, 6005, Note_on_c, 0, 100, 25
1, 6006, Note_off_c, 0, 35, 64
1, 6006, Note_off_c, 0, 54, 64
1, 6006, Note_on_c, 0, 76, 39
1, 6006, Note_off_c, 0, 83, 64
1, 6006, Note_on_c, 0, 84, 38
1, 6006, Note_off_c, 0, 91, 64
1, 6007, Note_on_c, 0, 53, 67
1, 6007, Note_off_c, 0, 65, 64
1, 6007, Note_on_c, 0, 80, 25
1, 6007, Note_on_c, 0, 91, 23
1, 6008, Note_on_c, 0, 48, 82
1, 6008, Note_off_c, 0, 53, 64
1, 6008, Note_off_c, 0, 76, 64
1, 6008, Note_off_c, 0, 81, 64
1, 6008, Note_off_c, 0, 85, 64
1, 6008, Note_on_c, 0, 86, 15
1, 6008, Note_off_c, 0, 90, 64
1, 6008, Note_off_c, 0, 93, 64
1, 6008, Note_off_c, 0, 94, 64
1, 6008, Note_off_c, 0, 96, 64
1, 6008, Note_off_c, 0, 97, 64
1, 6008, Note_off_c, 0, 98, 64
1, 6008, Note_off_c, 0, 100, 64
1, 6009, Note_on_c, 0, 45, 93
1, 6009, Note_off_c, 0, 48, 64
1, 6009, Note_off_c, 0, 70, 64
1, 6009, Note_on_c, 0, 90, 17
1, 6010, Note_on_c, 0, 42, 98
1, 6010, Note_off_c, 0, 45, 64
1, 6010, Note_off_c, 0, 91, 64
1, 6011, Note_on_c, 0, 41, 99
1, 6011, Note_off_c, 0, 42, 64
1, 6011, Note_off_c, 0, 84, 64
1, 6011, Note_on_c, 0, 85, 21
1, 6011, Note_off_c, 0, 88, 64
1, 6011, Note_off_c, 0, 92, 64
1, 6012, Note_on_c, 0, 38, 97
1, 6012, Note_off_c, 0, 41, 64
1, 6012, Note_off_c, 0, 80, 64
1, 6012, Note_off_c, 0, 82, 64
1, 6012, Note_on_c, 0, 83, 28
1, 6013, Note_on_c, 0, 37, 97
1, 6013, Note_off_c, 0, 38, 64
1, 6013, Note_on_c, 0, 78, 22
1, 6014, Note_on_c, 0, 36, 96
1, 6014, Note_off_c, 0, 37, 64
1, 6014, Note_off_c, 0, 86, 64
1, 6014, Note_on_c, 0, 88, 19
1, 6015, Note_on_c, 0, 35, 95
1, 6015, Note_off_c, 0, 36, 64
1, 6015, Note_on_c, 0, 75, 19
1, 6015, Note_off_c, 0, 87, 64
1, 6015, Note_on_c, 0, 94, 12
1, 6016, Note_on_c, 0, 34, 94
1, 6016, Note_off_c, 0, 35, 64
1, 6016, Note_on_c, 0, 91, 21
1, 6016, Note_on_c, 0, 93, 15
1, 6017, Note_on_c, 0, 33, 93
1, 6017, Note_off_c, 0, 34, 64
1, 6017, Note_on_c, 0, 87, 24
1, 6018, Note_on_c, 0, 32, 94
1, 6018, Note_off_c, 0, 33, 64
1, 6018, Note_off_c, 0, 75, 64
1, 6018, Note_on_c, 0, 76, 13
1, 6018, Note_on_c, 0, 81, 33
1, 6018, Note_off_c, 0, 88, 64
1, 6018, Note_on_c, 0, 89, 26
1, 6018, Note_off_c, 0, 94, 64
1, 6019, Note_off_c, 0, 90, 64
1, 6020, Note_on_c, 0, 31, 89
1, 6020, Note_off_c, 0, 32, 64
1, 6020, Note_on_c, 0, 75, 31
1, 6020, Note_off_c, 0, 91, 64
1, 6020, Note_on_c, 0, 92, 21
1, 6021, Note_off_c, 0, 76, 64
1, 6021, Note_on_c, 0, 91, 15
1, 6022, Note_on_c, 0, 30, 75
1, 6022, Note_off_c, 0, 31, 64
1, 6022, Note_on_c, 0, 88, 27
1, 6022, Note_on_c, 0, 96, 20
1, 6023, Note_off_c, 0, 93, 64
1, 6024, Note_off_c, 0, 30, 64
1, 6024, Note_on_c, 0, 74, 33
1, 6024, Note_off_c, 0, 89, 64
1, 6024, Note_on_c, 0, 94, 27
1, 6025, Note_on_c, 0, 61, 36
1, 6025, Note_off_c, 0, 78, 64
1, 6025, Note_off_c, 0, 85, 64
1, 6025, Note_on_c, 0, 89, 33
1, 6025, Note_off_c, 0, 91, 64
1, 6025, Note_off_c, 0, 96, 64
1, 6026, Note_on_c, 0, 41, 67
1, 6026, Note_on_c, 0, 64, 33
1, 6026, Note_on_c, 0, 66, 31
1, 6026, Note_on_c, 0, 70, 22
1, 6026, Note_off_c, 0, 75, 64
1, 6026, Note_on_c, 0, 84, 27
1, 6027, Note_on_c, 0, 31, 69
1, 6027, Note_off_c, 0, 41, 64
1, 6027, Note_off_c, 0, 83, 64
1, 6027, Note_on_c, 0, 85, 22
1, 6028, Note_on_c, 0, 30, 71
1, 6028, Note_off_c, 0, 31, 64
1, 6028, Note_off_c, 0, 66, 64
1, 6028, Note_on_c, 0, 79, 33
1, 6028, Note_on_c, 0, 82, 36
1, 6028, Note_off_c, 0, 94, 64
1, 6029, Note_off_c, 0, 61, 64
1, 6029, Note_off_c, 0, 64, 64
1, 6029, Note_off_c, 0, 70, 64
1, 6029, Note_on_c, 0, 76, 34
1, 6029, Note_off_c, 0, 87, 64
1, 6029, Note_off_c, 0, 88, 64
1, 6029, Note_off_c, 0, 92, 64
1, 6030, Note_off_c, 0, 74, 64
1, 6030, Note_off_c, 0, 81, 64
1, 6030, Note_on_c, 0, 92, 21
1, 6031, Note_on_c, 0, 72, 29
1, 6031, Note_off_c, 0, 85, 64
1, 6031, Note_on_c, 0, 90, 32
1, 6032, Note_off_c, 0, 30, 64
1, 6032, Note_on_c, 0, 86, 33
1, 6033, Note_on_c, 0, 81, 28
1, 6033, Note_on_c, 0, 83, 21
1, 6034, Note_on_c, 0, 70, 27
1, 6034, Note_off_c, 0, 76, 64
1, 6034, Note_off_c, 0, 84, 64
1, 6034, Note_on_c, 0, 85, 23
1, 6035, Note_on_c, 0, 30, 65
1, 6035, Note_on_c, 0, 43, 65
1, 6035, Note_on_c, 0, 61, 40
1, 6035, Note_on_c, 0, 76, 32
1, 6036, Note_off_c, 0, 43, 64
1, 6036, Note_off_c, 0, 83, 64
1, 6037, Note_off_c, 0, 30, 64
1, 6037, Note_on_c, 0, 31, 68
1, 6037, Note_off_c, 0, 61, 64
1, 6037, Note_on_c, 0, 75, 30
1, 6037, Note_on_c, 0, 78, 22
1, 6037, Note_off_c, 0, 81, 64
1, 6037, Note_on_c, 0, 84, 39
1, 6037, Note_on_c, 0, 87, 35
1, 6038, Note_on_c, 0, 30, 68
1, 6038, Note_off_c, 0, 31, 64
1, 6038, Note_on_c, 0, 63, 27
1, 6038, Note_on_c, 0, 67, 32
1, 6038, Note_off_c, 0, 72, 64
1, 6038, Note_on_c, 0, 73, 29
1, 6038, Note_off_c, 0, 85, 64
1, 6038, Note_off_c, 0, 92, 64
1, 6039, Note_off_c, 0, 70, 64
1, 6039, Note_on_c, 0, 71, 37
1, 6039, Note_off_c, 0, 86, 64
1, 6039, Note_on_c, 0, 92, 30
1, 6040, Note_off_c, 0, 67, 64
1, 6040, Note_off_c, 0, 73, 64
1, 6040, Note_off_c, 0, 76, 64
1, 6040, Note_on_c, 0, 77, 27
1, 6040, Note_on_c, 0, 81, 30
1, 6040, Note_on_c, 0, 85, 34
1, 6041, Note_off_c, 0, 63, 64
1, 6041, Note_off_c, 0, 78, 64
1, 6041, Note_off_c, 0, 82, 64
1, 6041, Note_on_c, 0, 83, 42
1, 6041, Note_on_c, 0, 88, 31
1, 6042, Note_off_c, 0, 30, 64
1, 6042, Note_on_c, 0, 35, 62
1, 6042, Note_on_c, 0, 54, 32
1, 6042, Note_on_c, 0, 63, 50
1, 6042, Note_on_c, 0, 67, 35
1, 6043, Note_on_c, 0, 69, 49
1, 6043, Note_on_c, 0, 73, 42
1, 6043, Note_off_c, 0, 75, 64
1, 6043, Note_off_c, 0, 77, 64
1, 6043, Note_on_c, 0, 78, 36
1, 6043, Note_off_c, 0, 79, 64
1, 6043, Note_on_c, 0, 80, 43
1, 6043, Note_on_c, 0, 86, 27
1, 6044, Note_off_c, 0, 35, 64
1, 6044, Note_off_c, 0, 54, 64
1, 6044, Note_on_c, 0, 66, 49
1, 6044, Note_off_c, 0, 67, 64
1, 6044, Note_off_c, 0, 71, 64
1, 6044, Note_off_c, 0, 81, 64
1, 6044, Note_on_c, 0, 82, 39
1, 6044, Note_off_c, 0, 83, 64
1, 6044, Note_off_c, 0, 87, 64
1, 6045, Note_on_c, 0, 51, 76
1, 6045, Note_off_c, 0, 63, 64
1, 6045, Note_off_c, 0, 69, 64
1, 6046, Note_on_c, 0, 46, 85
1, 6046, Note_off_c, 0, 51, 64
1, 6046, Note_on_c, 0, 77, 17
1, 6046, Note_off_c, 0, 78, 64
1, 6046, Note_off_c, 0, 84, 64
1, 6046, Note_off_c, 0, 86, 64
1, 6046, Note_on_c, 0, 87, 19
1, 6047, Note_on_c, 0, 44, 93
1, 6047, Note_off_c, 0, 46, 64
1, 6047, Note_off_c, 0, 66, 64
1, 6047, Note_off_c, 0, 73, 64
1, 6047, Note_off_c, 0, 82, 64
1, 6047, Note_off_c, 0, 90, 64
1, 6047, Note_on_c, 0, 93, 30
1, 6048, Note_on_c, 0, 42, 97
1, 6048, Note_off_c, 0, 44, 64
1, 6048, Note_on_c, 0, 73, 17
1, 6048, Note_on_c, 0, 91, 27
1, 6048, Note_off_c, 0, 92, 64
1, 6049, Note_on_c, 0, 40, 94
1, 6049, Note_off_c, 0, 42, 64
1, 6049, Note_on_c, 0, 83, 33
1, 6049, Note_off_c, 0, 87, 64
1, 6050, Note_on_c, 0, 38, 93
1, 6050, Note_off_c, 0, 40, 64
1, 6050, Note_off_c, 0, 80, 64
1, 6050, Note_on_c, 0, 81, 32
1, 6050, Note_off_c, 0, 85, 64
1, 6050, Note_on_c, 0, 86, 34
1, 6050, Note_on_c, 0, 94, 18
1, 6051, Note_on_c, 0, 36, 91
1, 6051, Note_off_c, 0, 38, 64
1, 6051, Note_off_c, 0, 73, 64
1, 6051, Note_on_c, 0, 90, 26
1, 6052, Note_on_c, 0, 35, 88
1, 6052, Note_off_c, 0, 36, 64
1, 6052, Note_off_c, 0, 91, 64
1, 6053, Note_on_c, 0, 34, 86
1, 6053, Note_off_c, 0, 35, 64
1, 6053, Note_on_c, 0, 63, 14
1, 6053, Note_off_c, 0, 77, 64
1, 6054, Note_on_c, 0, 33, 85
1, 6054, Note_off_c, 0, 34, 64
1, 6054, Note_on_c, 0, 74, 25
1, 6054, Note_on_c, 0, 91, 24
1, 6055, Note_on_c, 0, 32, 83
1, 6055, Note_off_c, 0, 33, 64
1, 6055, Note_on_c, 0, 69, 31
1, 6055, Note_on_c, 0, 80, 17
1, 6055, Note_on_c, 0, 97, 16
1, 6056, Note_off_c, 0, 63, 64
1, 6056, Note_on_c, 0, 78, 28
1, 6057, Note_on_c, 0, 31, 78
1, 6057, Note_off_c, 0, 32, 64
1, 6057, Note_on_c, 0, 66, 12
1, 6057, Note_on_c, 0, 84, 38
1, 6057, Note_off_c, 0, 91, 64
1, 6057, Note_on_c, 0, 92, 25
1, 6058, Note_on_c, 0, 62, 16
1, 6058, Note_on_c, 0, 72, 34
1, 6058, Note_off_c, 0, 86, 64
1, 6058, Note_on_c, 0, 87, 19
1, 6058, Note_on_c, 0, 91, 25
1, 6059, Note_off_c, 0, 74, 64
1, 6059, Note_off_c, 0, 80, 64
1, 6059, Note_off_c, 0, 89, 64
1, 6059, Note_off_c, 0, 90, 64
1, 6059, Note_off_c, 0, 94, 64
1, 6060, Note_off_c, 0, 66, 64
1, 6060, Note_on_c, 0, 74, 32
1, 6061, Note_off_c, 0, 62, 64
1, 6061, Note_off_c, 0, 81, 64
1, 6061, Note_off_c, 0, 87, 64
1, 6061, Note_on_c, 0, 90, 30
1, 6061, Note_off_c, 0, 91, 64
1, 6061, Note_off_c, 0, 97, 64
1, 6062, Note_off_c, 0, 31, 64
1, 6062, Note_on_c, 0, 61, 22
1, 6062, Note_off_c, 0, 74, 64
1, 6062, Note_on_c, 0, 75, 30
1, 6062, Note_off_c, 0, 83, 64
1, 6062, Note_on_c, 0, 89, 27
1, 6062, Note_off_c, 0, 92, 64
1, 6063, Note_on_c, 0, 71, 32
1, 6063, Note_off_c, 0, 72, 64
1, 6063, Note_on_c, 0, 92, 16
1, 6063, Note_off_c, 0, 93, 64
1, 6063, Note_on_c, 0, 94, 27
1, 6064, Note_on_c, 0, 49, 61
1, 6064, Note_off_c, 0, 69, 64
1, 6064, Note_off_c, 0, 78, 64
1, 6064, Note_on_c, 0, 79, 37
1, 6064, Note_on_c, 0, 82, 29
1, 6064, Note_on_c, 0, 87, 31
1, 6064, Note_off_c, 0, 90, 64
1, 6065, Note_off_c, 0, 61, 64
1, 6065, Note_off_c, 0, 71, 64
1, 6065, Note_off_c, 0, 89, 64
1, 6065, Note_on_c, 0, 90, 18
1, 6066, Note_on_c, 0, 63, 27
1, 6066, Note_on_c, 0, 80, 32
1, 6066, Note_on_c, 0, 81, 29
1, 6066, Note_off_c, 0, 82, 64
1, 6066, Note_on_c, 0, 83, 21
1, 6066, Note_off_c, 0, 84, 64
1, 6066, Note_on_c, 0, 85, 41
1, 6066, Note_on_c, 0, 89, 29
1, 6067, Note_on_c, 0, 72, 34
1, 6067, Note_on_c, 0, 86, 30
1, 6067, Note_off_c, 0, 88, 64
1, 6067, Note_off_c, 0, 92, 64
1, 6068, Note_on_c, 0, 41, 53
1, 6068, Note_off_c, 0, 81, 64
1, 6068, Note_on_c, 0, 82, 32
1, 6069, Note_on_c, 0, 48, 52
1, 6069, Note_off_c, 0, 49, 64
1, 6069, Note_on_c, 0, 68, 20
1, 6069, Note_off_c, 0, 75, 64
1, 6069, Note_off_c, 0, 83, 64
1, 6069, Note_on_c, 0, 88, 36
1, 6070, Note_on_c, 0, 54, 34
1, 6070, Note_off_c, 0, 63, 64
1, 6070, Note_off_c, 0, 72, 64
1, 6070, Note_on_c, 0, 73, 29
1, 6070, Note_on_c, 0, 75, 30
1, 6070, Note_off_c, 0, 80, 64
1, 6070, Note_on_c, 0, 81, 28
1, 6070, Note_on_c, 0, 84, 24
1, 6070, Note_on_c, 0, 96, 24
1, 6071, Note_off_c, 0, 48, 64
1, 6071, Note_off_c, 0, 90, 64
1, 6072, Note_off_c, 0, 41, 64
1, 6072, Note_on_c, 0, 42, 59
1, 6072, Note_off_c, 0, 54, 64
1, 6072, Note_off_c, 0, 68, 64
1, 6072, Note_on_c, 0, 71, 37
1, 6072, Note_off_c, 0, 73, 64
1, 6072, Note_off_c, 0, 89, 64
1, 6073, Note_on_c, 0, 64, 46
1, 6073, Note_off_c, 0, 79, 64
1, 6073, Note_on_c, 0, 89, 33
1, 6074, Note_off_c, 0, 75, 64
1, 6074, Note_off_c, 0, 82, 64
1, 6074, Note_on_c, 0, 83, 45
1, 6074, Note_off_c, 0, 84, 64
1, 6074, Note_off_c, 0, 94, 64
1, 6075, Note_on_c, 0, 74, 26
1, 6075, Note_on_c, 0, 79, 29
1, 6075, Note_on_c, 0, 90, 34
1, 6075, Note_on_c, 0, 92, 35
1, 6076, Note_off_c, 0, 81, 64
1, 6076, Note_off_c, 0, 86, 64
1, 6077, Note_off_c, 0, 42, 64
1, 6077, Note_off_c, 0, 71, 64
1, 6077, Note_on_c, 0, 72, 27
1, 6077, Note_on_c, 0, 77, 31
1, 6077, Note_on_c, 0, 78, 31
1, 6077, Note_on_c, 0, 84, 27
1, 6077, Note_off_c, 0, 85, 64
1, 6077, Note_on_c, 0, 86, 37
1, 6077, Note_off_c, 0, 89, 64
1, 6077, Note_on_c, 0, 101, 24
1, 6078, Note_on_c, 0, 68, 45
1, 6078, Note_off_c, 0, 79, 64
1, 6078, Note_on_c, 0, 85, 26
1, 6078, Note_off_c, 0, 88, 64
1, 6079, Note_on_c, 0, 36, 44
1, 6079, Note_on_c, 0, 54, 34
1, 6079, Note_off_c, 0, 74, 64
1, 6079, Note_on_c, 0, 75, 44
1, 6079, Note_off_c, 0, 86, 64
1, 6079, Note_on_c, 0, 88, 35
1, 6079, Note_on_c, 0, 91, 30
1, 6080, Note_off_c, 0, 77, 64
1, 6080, Note_on_c, 0, 79, 45
1, 6080, Note_on_c, 0, 94, 22
1, 6080, Note_on_c, 0, 98, 27
1, 6081, Note_off_c, 0, 36, 64
1, 6081, Note_on_c, 0, 53, 68
1, 6081, Note_off_c, 0, 54, 64
1, 6081, Note_off_c, 0, 72, 64
1, 6081, Note_on_c, 0, 73, 38
1, 6081, Note_off_c, 0, 78, 64
1, 6081, Note_on_c, 0, 81, 28
1, 6081, Note_off_c, 0, 84, 64
1, 6082, Note_off_c, 0, 64, 64
1, 6082, Note_off_c, 0, 68, 64
1, 6082, Note_off_c, 0, 79, 64
1, 6082, Note_off_c, 0, 85, 64
1, 6082, Note_on_c, 0, 86, 28
1, 6083, Note_on_c, 0, 48, 78
1, 6083, Note_off_c, 0, 53, 64
1, 6083, Note_on_c, 0, 72, 30
1, 6083, Note_off_c, 0, 73, 64
1, 6083, Note_off_c, 0, 87, 64
1, 6083, Note_off_c, 0, 96, 64
1, 6083, Note_off_c, 0, 101, 64
1, 6084, Note_on_c, 0, 45, 85
1, 6084, Note_off_c, 0, 48, 64
1, 6084, Note_on_c, 0, 80, 30
1, 6084, Note_off_c, 0, 81, 64
1, 6084, Note_off_c, 0, 83, 64
1, 6084, Note_on_c, 0, 84, 38
1, 6084, Note_off_c, 0, 88, 64
1, 6084, Note_on_c, 0, 89, 34
1, 6085, Note_on_c, 0, 42, 86
1, 6085, Note_off_c, 0, 45, 64
1, 6085, Note_on_c, 0, 65, 13
1, 6085, Note_on_c, 0, 67, 12
1, 6085, Note_off_c, 0, 75, 64
1, 6085, Note_on_c, 0, 93, 33
1, 6086, Note_on_c, 0, 41, 85
1, 6086, Note_off_c, 0, 42, 64
1, 6086, Note_off_c, 0, 80, 64
1, 6086, Note_on_c, 0, 81, 31
1, 6086, Note_off_c, 0, 98, 64
1, 6086, Note_on_c, 0, 100, 10
1, 6087, Note_on_c, 0, 39, 78
1, 6087, Note_off_c, 0, 41, 64
1, 6087, Note_off_c, 0, 86, 64
1, 6087, Note_on_c, 0, 87, 33
1, 6088, Note_on_c, 0, 37, 75
1, 6088, Note_off_c, 0, 39, 64
1, 6088, Note_off_c, 0, 65, 64
1, 6088, Note_on_c, 0, 95, 19
1, 6089, Note_on_c, 0, 36, 71
1, 6089, Note_off_c, 0, 37, 64
1, 6089, Note_off_c, 0, 90, 64
1, 6090, Note_on_c, 0, 34, 67
1, 6090, Note_off_c, 0, 36, 64
1, 6090, Note_off_c, 0, 67, 64
1, 6090, Note_off_c, 0, 92, 64
1, 6090, Note_off_c, 0, 94, 64
1, 6090, Note_off_c, 0, 100, 64
1, 6091, Note_on_c, 0, 33, 64
1, 6091, Note_off_c, 0, 34, 64
1, 6092, Note_on_c, 0, 90, 34
1, 6093, Note_on_c, 0, 32, 61
1, 6093, Note_off_c, 0, 33, 64
1, 6093, Note_off_c, 0, 72, 64
1, 6093, Note_on_c, 0, 73, 29
1, 6093, Note_on_c, 0, 78, 34
1, 6094, Note_on_c, 0, 53, 22
1, 6094, Note_on_c, 0, 79, 22
1, 6094, Note_off_c, 0, 84, 64
1, 6094, Note_on_c, 0, 85, 43
1, 6094, Note_off_c, 0, 91, 64
1, 6094, Note_on_c, 0, 92, 25
1, 6095, Note_on_c, 0, 31, 54
1, 6095, Note_off_c, 0, 32, 64
1, 6095, Note_on_c, 0, 66, 25
1, 6095, Note_on_c, 0, 75, 21
1, 6096, Note_on_c, 0, 70, 24
1, 6096, Note_on_c, 0, 80, 16
1, 6096, Note_off_c, 0, 81, 64
1, 6096, Note_on_c, 0, 82, 44
1, 6097, Note_off_c, 0, 53, 64
1, 6097, Note_on_c, 0, 54, 47
1, 6097, Note_off_c, 0, 79, 64
1, 6097, Note_off_c, 0, 93, 64
1, 6097, Note_on_c, 0, 100, 15
1, 6098, Note_off_c, 0, 66, 64
1, 6098, Note_on_c, 0, 84, 31
1, 6098, Note_on_c, 0, 88, 38
1, 6099, Note_off_c, 0, 31, 64
1, 6099, Note_on_c, 0, 77, 27
1, 6099, Note_off_c, 0, 80, 64
1, 6099, Note_off_c, 0, 87, 64
1, 6099, Note_off_c, 0, 95, 64
1, 6100, Note_on_c, 0, 48, 51
1, 6100, Note_off_c, 0, 70, 64
1, 6100, Note_on_c, 0, 71, 36
1, 6100, Note_on_c, 0, 79, 38
1, 6100, Note_off_c, 0, 89, 64
1, 6101, Note_off_c, 0, 54, 64
1, 6101, Note_on_c, 0, 64, 38
1, 6101, Note_off_c, 0, 73, 64
1, 6101, Note_on_c, 0, 74, 30
1, 6101, Note_off_c, 0, 75, 64
1, 6101, Note_off_c, 0, 78, 64
1, 6101, Note_on_c, 0, 81, 21
1, 6102, Note_on_c, 0, 42, 43
1, 6102, Note_off_c, 0, 48, 64
1, 6102, Note_on_c, 0, 54, 52
1, 6102, Note_on_c, 0, 68, 27
1, 6102, Note_on_c, 0, 91, 38
1, 6103, Note_on_c, 0, 49, 52
1, 6103, Note_on_c, 0, 63, 29
1, 6103, Note_off_c, 0, 64, 64
1, 6103, Note_on_c, 0, 73, 36
1, 6103, Note_off_c, 0, 74, 64
1, 6103, Note_off_c, 0, 92, 64
1, 6103, Note_on_c, 0, 93, 30
1, 6103, Note_on_c, 0, 99, 15
1, 6104, Note_off_c, 0, 81, 64
1, 6104, Note_off_c, 0, 82, 64
1, 6104, Note_on_c, 0, 83, 44
1, 6104, Note_off_c, 0, 85, 64
1, 6104, Note_on_c, 0, 86, 41
1, 6105, Note_off_c, 0, 42, 64
1, 6105, Note_off_c, 0, 63, 64
1, 6105, Note_off_c, 0, 73, 64
1, 6105, Note_on_c, 0, 74, 37
1, 6105, Note_on_c, 0, 85, 20
1, 6106, Note_off_c, 0, 54, 64
1, 6106, Note_off_c, 0, 68, 64
1, 6106, Note_on_c, 0, 69, 35
1, 6106, Note_on_c, 0, 78, 29
1, 6106, Note_off_c, 0, 79, 64
1, 6106, Note_off_c, 0, 84, 64
1, 6106, Note_off_c, 0, 90, 64
1, 6106, Note_off_c, 0, 100, 64
1, 6107, Note_on_c, 0, 48, 37
1, 6107, Note_off_c, 0, 49, 64
1, 6107, Note_on_c, 0, 65, 17
1, 6107, Note_off_c, 0, 71, 64
1, 6107, Note_off_c, 0, 77, 64
1, 6107, Note_on_c, 0, 79, 39
1, 6107, Note_on_c, 0, 89, 39
1, 6108, Note_off_c, 0, 85, 64
1, 6109, Note_off_c, 0, 48, 64
1, 6109, Note_on_c, 0, 71, 35
1, 6109, Note_on_c, 0, 76, 20
1, 6109, Note_off_c, 0, 78, 64
1, 6109, Note_on_c, 0, 85, 27
1, 6109, Note_on_c, 0, 87, 25
1, 6110, Note_on_c, 0, 54, 51
1, 6110, Note_on_c, 0, 61, 24
1, 6110, Note_off_c, 0, 65, 64
1, 6110, Note_off_c, 0, 69, 64
1, 6110, Note_off_c, 0, 88, 64
1, 6110, Note_off_c, 0, 99, 64
1, 6111, Note_off_c, 0, 74, 64
1, 6111, Note_on_c, 0, 75, 41
1, 6111, Note_on_c, 0, 94, 30
1, 6112, Note_on_c, 0, 68, 36
1, 6112, Note_off_c, 0, 76, 64
1, 6112, Note_on_c, 0, 78, 33
1, 6112, Note_on_c, 0, 82, 21
1, 6112, Note_on_c, 0, 96, 11
1, 6113, Note_off_c, 0, 61, 64
1, 6113, Note_off_c, 0, 71, 64
1, 6113, Note_on_c, 0, 74, 45
1, 6113, Note_off_c, 0, 75, 64
1, 6113, Note_off_c, 0, 87, 64
1, 6113, Note_off_c, 0, 93, 64
1, 6114, Note_off_c, 0, 68, 64
1, 6114, Note_on_c, 0, 69, 47
1, 6114, Note_on_c, 0, 71, 32
1, 6114, Note_off_c, 0, 85, 64
1, 6114, Note_on_c, 0, 87, 30
1, 6114, Note_on_c, 0, 88, 27
1, 6114, Note_off_c, 0, 89, 64
1, 6114, Note_on_c, 0, 92, 28
1, 6114, Note_on_c, 0, 93, 35
1, 6115, Note_off_c, 0, 78, 64
1, 6115, Note_off_c, 0, 82, 64
1, 6115, Note_on_c, 0, 85, 42
1, 6115, Note_on_c, 0, 89, 32
1, 6115, Note_off_c, 0, 96, 64
1, 6116, Note_off_c, 0, 71, 64
1, 6116, Note_off_c, 0, 86, 64
1, 6117, Note_on_c, 0, 63, 35
1, 6117, Note_on_c, 0, 76, 33
1, 6117, Note_on_c, 0, 77, 38
1, 6117, Note_on_c, 0, 90, 37
1, 6117, Note_on_c, 0, 96, 28
1, 6118, Note_on_c, 0, 44, 68
1, 6118, Note_off_c, 0, 54, 64
1, 6118, Note_on_c, 0, 60, 54
1, 6118, Note_on_c, 0, 73, 43
1, 6118, Note_off_c, 0, 74, 64
1, 6119, Note_on_c, 0, 53, 66
1, 6119, Note_off_c, 0, 63, 64
1, 6119, Note_off_c, 0, 76, 64
1, 6119, Note_off_c, 0, 79, 64
1, 6119, Note_on_c, 0, 80, 33
1, 6119, Note_on_c, 0, 86, 34
1, 6119, Note_off_c, 0, 89, 64
1, 6120, Note_off_c, 0, 60, 64
1, 6120, Note_off_c, 0, 73, 64
1, 6120, Note_off_c, 0, 83, 64
1, 6120, Note_on_c, 0, 84, 15
1, 6120, Note_off_c, 0, 88, 64
1, 6120, Note_off_c, 0, 94, 64
1, 6121, Note_off_c, 0, 53, 64
1, 6121, Note_off_c, 0, 69, 64
1, 6121, Note_off_c, 0, 77, 64
1, 6121, Note_off_c, 0, 80, 64
1, 6121, Note_on_c, 0, 81, 21
1, 6121, Note_off_c, 0, 87, 64
1, 6122, Note_on_c, 0, 83, 16
1, 6122, Note_off_c, 0, 85, 64
1, 6122, Note_off_c, 0, 86, 64
1, 6122, Note_on_c, 0, 87, 15
1, 6122, Note_off_c, 0, 91, 64
1, 6122, Note_off_c, 0, 96, 64
1, 6123, Note_on_c, 0, 42, 68
1, 6123, Note_off_c, 0, 44, 64
1, 6123, Note_on_c, 0, 69, 27
1, 6123, Note_off_c, 0, 84, 64
1, 6123, Note_on_c, 0, 89, 13
1, 6123, Note_off_c, 0, 92, 64
1, 6124, Note_off_c, 0, 42, 64
1, 6124, Note_on_c, 0, 73, 18
1, 6124, Note_on_c, 0, 76, 26
1, 6124, Note_off_c, 0, 93, 64
1, 6125, Note_off_c, 0, 81, 64
1, 6125, Note_off_c, 0, 83, 64
1, 6125, Note_off_c, 0, 87, 64
1, 6125, Note_off_c, 0, 90, 64
1, 6126, Note_on_c, 0, 67, 22
1, 6126, Note_on_c, 0, 82, 19
1, 6126, Note_on_c, 0, 90, 13
1, 6127, Note_on_c, 0, 32, 50
1, 6127, Note_off_c, 0, 69, 64
1, 6127, Note_off_c, 0, 73, 64
1, 6127, Note_on_c, 0, 81, 18
1, 6127, Note_off_c, 0, 89, 64
1, 6128, Note_on_c, 0, 85, 23
1, 6129, Note_off_c, 0, 32, 64
1, 6129, Note_on_c, 0, 53, 43
1, 6129, Note_on_c, 0, 61, 29
1, 6129, Note_off_c, 0, 67, 64
1, 6129, Note_on_c, 0, 80, 15
1, 6129, Note_off_c, 0, 82, 64
1, 6130, Note_off_c, 0, 76, 64
1, 6131, Note_on_c, 0, 83, 22
1, 6132, Note_on_c, 0, 52, 35
1, 6132, Note_off_c, 0, 53, 64
1, 6132, Note_off_c, 0, 80, 64
1, 6132, Note_off_c, 0, 90, 64
1, 6133, Note_off_c, 0, 61, 64
1, 6133, Note_on_c, 0, 62, 31
1, 6133, Note_on_c, 0, 77, 23
1, 6134, Note_off_c, 0, 52, 64
1, 6134, Note_on_c, 0, 53, 40
1, 6134, Note_off_c, 0, 81, 64
1, 6134, Note_on_c, 0, 90, 12
1, 6135, Note_on_c, 0, 70, 21
1, 6135, Note_on_c, 0, 80, 19
1, 6135, Note_off_c, 0, 85, 64
1, 6135, Note_on_c, 0, 93, 12
1, 6136, Note_on_c, 0, 52, 51
1, 6136, Note_off_c, 0, 53, 64
1, 6136, Note_on_c, 0, 78, 14
1, 6136, Note_on_c, 0, 88, 9
1, 6137, Note_off_c, 0, 62, 64
1, 6137, Note_off_c, 0, 77, 64
1, 6137, Note_off_c, 0, 83, 64
1, 6137, Note_on_c, 0, 84, 21
1, 6137, Note_on_c, 0, 86, 26
1, 6138, Note_on_c, 0, 62, 32
1, 6138, Note_off_c, 0, 70, 64
1, 6138, Note_on_c, 0, 71, 11
1, 6138, Note_on_c, 0, 73, 16
1, 6138, Note_off_c, 0, 80, 64
1, 6138, Note_on_c, 0, 81, 24
1, 6139, Note_on_c, 0, 65, 13
1, 6139, Note_on_c, 0, 68, 24
1, 6139, Note_on_c, 0, 76, 35
1, 6139, Note_off_c, 0, 90, 64
1, 6139, Note_on_c, 0, 91, 12
1, 6139, Note_on_c, 0, 92, 15
1, 6139, Note_off_c, 0, 93, 64
1, 6140, Note_on_c, 0, 51, 53
1, 6140, Note_off_c, 0, 52, 64
1, 6140, Note_off_c, 0, 62, 64
1, 6140, Note_off_c, 0, 78, 64
1, 6140, Note_on_c, 0, 83, 21
1, 6140, Note_off_c, 0, 86, 64
1, 6140, Note_off_c, 0, 88, 64
1, 6140, Note_on_c, 0, 89, 23
1, 6141, Note_off_c, 0, 71, 64
1, 6141, Note_on_c, 0, 77, 13
1, 6141, Note_off_c, 0, 84, 64
1, 6142, Note_off_c, 0, 65, 64
1, 6142, Note_off_c, 0, 73, 64
1, 6142, Note_off_c, 0, 76, 64
1, 6142, Note_on_c, 0, 78, 14
1, 6142, Note_on_c, 0, 85, 20
1, 6142, Note_on_c, 0, 87, 28
1, 6142, Note_off_c, 0, 91, 64
1, 6142, Note_off_c, 0, 92, 64
1, 6143, Note_off_c, 0, 68, 64
1, 6143, Note_on_c, 0, 72, 14
1, 6144, Note_on_c, 0, 75, 12
1, 6144, Note_off_c, 0, 77, 64
1, 6144, Note_on_c, 0, 84, 30
1, 6145, Note_off_c, 0, 78, 64
1, 6145, Note_on_c, 0, 92, 20
1, 6146, Note_off_c, 0, 51, 64
1, 6146, Note_on_c, 0, 59, 48
1, 6146, Note_off_c, 0, 72, 64
1, 6146, Note_off_c, 0, 85, 64
1, 6146, Note_on_c, 0, 86, 24
1, 6146, Note_on_c, 0, 90, 21
1, 6147, Note_on_c, 0, 67, 43
1, 6147, Note_off_c, 0, 81, 64
1, 6147, Note_on_c, 0, 82, 27
1, 6147, Note_off_c, 0, 83, 64
1, 6147, Note_on_c, 0, 85, 29
1, 6147, Note_on_c, 0, 88, 13
1, 6147, Note_on_c, 0, 91, 13
1, 6148, Note_on_c, 0, 74, 19
1, 6148, Note_off_c, 0, 75, 64
1, 6148, Note_on_c, 0, 81, 22
1, 6148, Note_off_c, 0, 89, 64
1, 6148, Note_off_c, 0, 92, 64
1, 6149, Note_on_c, 0, 48, 38
1, 6149, Note_on_c, 0, 58, 42
1, 6149, Note_off_c, 0, 59, 64
1, 6149, Note_off_c, 0, 85, 64
1, 6149, Note_off_c, 0, 90, 64
1, 6150, Note_on_c, 0, 85, 26
1, 6151, Note_off_c, 0, 58, 64
1, 6151, Note_on_c, 0, 64, 21
1, 6151, Note_off_c, 0, 67, 64
1, 6151, Note_off_c, 0, 74, 64
1, 6151, Note_off_c, 0, 84, 64
1, 6151, Note_off_c, 0, 91, 64
1, 6152, Note_on_c, 0, 72, 35
1, 6152, Note_on_c, 0, 77, 21
1, 6152, Note_off_c, 0, 81, 64
1, 6152, Note_off_c, 0, 86, 64
1, 6152, Note_off_c, 0, 88, 64
1, 6154, Note_on_c, 0, 47, 28
1, 6154, Note_off_c, 0, 48, 64
1, 6154, Note_off_c, 0, 64, 64
1, 6155, Note_on_c, 0, 63, 29
1, 6155, Note_off_c, 0, 72, 64
1, 6155, Note_on_c, 0, 88, 24
1, 6155, Note_on_c, 0, 90, 20
1, 6156, Note_on_c, 0, 68, 50
1, 6156, Note_on_c, 0, 76, 22
1, 6156, Note_off_c, 0, 77, 64
1, 6156, Note_on_c, 0, 92, 15
1, 6157, Note_on_c, 0, 58, 57
1, 6157, Note_off_c, 0, 63, 64
1, 6157, Note_on_c, 0, 73, 15
1, 6157, Note_on_c, 0, 79, 41
1, 6159, Note_on_c, 0, 64, 25
1, 6159, Note_off_c, 0, 68, 64
1, 6159, Note_off_c, 0, 87, 64
1, 6159, Note_on_c, 0, 93, 13
1, 6160, Note_off_c, 0, 73, 64
1, 6160, Note_on_c, 0, 75, 21
1, 6160, Note_off_c, 0, 76, 64
1, 6160, Note_off_c, 0, 85, 64
1, 6160, Note_off_c, 0, 92, 64
1, 6161, Note_on_c, 0, 83, 20
1, 6162, Note_off_c, 0, 47, 64
1, 6162, Note_on_c, 0, 63, 23
1, 6162, Note_off_c, 0, 64, 64
1, 6162, Note_on_c, 0, 69, 22
1, 6162, Note_off_c, 0, 82, 64
1, 6162, Note_on_c, 0, 86, 26
1, 6162, Note_off_c, 0, 90, 64
1, 6163, Note_off_c, 0, 58, 64
1, 6163, Note_on_c, 0, 84, 27
1, 6163, Note_on_c, 0, 89, 23
1, 6163, Note_off_c, 0, 93, 64
1, 6164, Note_off_c, 0, 75, 64
1, 6164, Note_off_c, 0, 88, 64
1, 6165, Note_off_c, 0, 63, 64
1, 6165, Note_off_c, 0, 69, 64
1, 6165, Note_on_c, 0, 75, 21
1, 6165, Note_on_c, 0, 77, 16
1, 6165, Note_off_c, 0, 83, 64
1, 6166, Note_on_c, 0, 50, 36
1, 6166, Note_on_c, 0, 67, 49
1, 6166, Note_off_c, 0, 79, 64
1, 6167, Note_on_c, 0, 59, 49
1, 6167, Note_on_c, 0, 83, 28
1, 6168, Note_off_c, 0, 50, 64
1, 6168, Note_on_c, 0, 74, 22
1, 6168, Note_off_c, 0, 84, 64
1, 6169, Note_on_c, 0, 48, 46
1, 6169, Note_off_c, 0, 59, 64
1, 6169, Note_off_c, 0, 75, 64
1, 6169, Note_off_c, 0, 77, 64
1, 6170, Note_off_c, 0, 67, 64
1, 6170, Note_on_c, 0, 78, 14
1, 6170, Note_off_c, 0, 86, 64
1, 6170, Note_on_c, 0, 87, 18
1, 6170, Note_on_c, 0, 92, 14
1, 6171, Note_off_c, 0, 83, 64
1, 6172, Note_on_c, 0, 67, 26
1, 6172, Note_on_c, 0, 77, 16
1, 6173, Note_on_c, 0, 63, 31
1, 6173, Note_on_c, 0, 70, 20
1, 6173, Note_off_c, 0, 78, 64
1, 6174, Note_on_c, 0, 57, 30
1, 6174, Note_off_c, 0, 74, 64
1, 6174, Note_on_c, 0, 82, 20
1, 6174, Note_off_c, 0, 87, 64
1, 6174, Note_on_c, 0, 90, 10
1, 6174, Note_off_c, 0, 92, 64
1, 6175, Note_off_c, 0, 48, 64
1, 6175, Note_off_c, 0, 77, 64
1, 6176, Note_off_c, 0, 57, 64
1, 6176, Note_on_c, 0, 58, 50
1, 6176, Note_off_c, 0, 63, 64
1, 6176, Note_on_c, 0, 65, 31
1, 6176, Note_off_c, 0, 67, 64
1, 6176, Note_off_c, 0, 70, 64
1, 6176, Note_on_c, 0, 78, 23
1, 6177, Note_on_c, 0, 81, 22
1, 6177, Note_off_c, 0, 82, 64
1, 6177, Note_off_c, 0, 90, 64
1, 6178, Note_on_c, 0, 48, 54
1, 6178, Note_off_c, 0, 65, 64
1, 6178, Note_on_c, 0, 85, 24
1, 6178, Note_off_c, 0, 89, 64
1, 6179, Note_on_c, 0, 83, 19
1, 6180, Note_off_c, 0, 58, 64
1, 6180, Note_off_c, 0, 78, 64
1, 6180, Note_on_c, 0, 80, 21
1, 6180, Note_off_c, 0, 81, 64
1, 6181, Note_on_c, 0, 47, 53
1, 6181, Note_off_c, 0, 48, 64
1, 6181, Note_on_c, 0, 90, 10
1, 6182, Note_off_c, 0, 85, 64
1, 6183, Note_on_c, 0, 76, 34
1, 6183, Note_on_c, 0, 79, 32
1, 6183, Note_off_c, 0, 80, 64
1, 6183, Note_off_c, 0, 83, 64
1, 6184, Note_on_c, 0, 73, 14
1, 6184, Note_on_c, 0, 83, 19
1, 6184, Note_on_c, 0, 85, 22
1, 6184, Note_on_c, 0, 86, 18
1, 6184, Note_off_c, 0, 90, 64
1, 6185, Note_on_c, 0, 58, 54
1, 6185, Note_on_c, 0, 71, 16
1, 6185, Note_on_c, 0, 84, 25
1, 6186, Note_off_c, 0, 47, 64
1, 6187, Note_on_c, 0, 69, 39
1, 6187, Note_on_c, 0, 75, 17
1, 6187, Note_off_c, 0, 83, 64
1, 6188, Note_off_c, 0, 71, 64
1, 6188, Note_off_c, 0, 76, 64
1, 6188, Note_on_c, 0, 77, 23
1, 6188, Note_off_c, 0, 84, 64
1, 6188, Note_on_c, 0, 90, 12
1, 6189, Note_off_c, 0, 69, 64
1, 6189, Note_off_c, 0, 73, 64
1, 6189, Note_off_c, 0, 85, 64
1, 6189, Note_off_c, 0, 86, 64
1, 6190, Note_off_c, 0, 58, 64
1, 6190, Note_off_c, 0, 79, 64
1, 6190, Note_on_c, 0, 80, 21
1, 6191, Note_on_c, 0, 51, 45
1, 6191, Note_off_c, 0, 75, 64
1, 6191, Note_on_c, 0, 76, 24
1, 6191, Note_off_c, 0, 77, 64
1, 6191, Note_on_c, 0, 81, 14
1, 6191, Note_on_c, 0, 84, 14
1, 6191, Note_off_c, 0, 90, 64
1, 6192, Note_on_c, 0, 69, 24
1, 6193, Note_on_c, 0, 45, 37
1, 6193, Note_off_c, 0, 80, 64
1, 6193, Note_on_c, 0, 83, 19
1, 6193, Note_on_c, 0, 90, 16
1, 6194, Note_off_c, 0, 76, 64
1, 6194, Note_off_c, 0, 81, 64
1, 6194, Note_on_c, 0, 91, 11
1, 6195, Note_off_c, 0, 45, 64
1, 6195, Note_on_c, 0, 65, 26
1, 6195, Note_on_c, 0, 76, 22
1, 6196, Note_off_c, 0, 69, 64
1, 6196, Note_on_c, 0, 79, 14
1, 6196, Note_off_c, 0, 83, 64
1, 6197, Note_off_c, 0, 51, 64
1, 6197, Note_on_c, 0, 52, 34
1, 6197, Note_off_c, 0, 90, 64
1, 6198, Note_on_c, 0, 31, 35
1, 6198, Note_off_c, 0, 65, 64
1, 6198, Note_on_c, 0, 69, 21
1, 6198, Note_off_c, 0, 91, 64
1, 6199, Note_on_c, 0, 74, 24
1, 6199, Note_off_c, 0, 76, 64
1, 6199, Note_on_c, 0, 77, 22
1, 6199, Note_off_c, 0, 84, 64
1, 6200, Note_on_c, 0, 51, 39
1, 6200, Note_off_c, 0, 52, 64
1, 6201, Note_off_c, 0, 31, 64
1, 6201, Note_off_c, 0, 69, 64
1, 6201, Note_on_c, 0, 76, 15
1, 6201, Note_off_c, 0, 79, 64
1, 6202, Note_off_c, 0, 77, 64
1, 6202, Note_on_c, 0, 78, 23
1, 6202, Note_on_c, 0, 87, 16
1, 6203, Note_off_c, 0, 74, 64
1, 6203, Note_on_c, 0, 75, 22
1, 6203, Note_on_c, 0, 82, 16
1, 6203, Note_on_c, 0, 84, 14
1, 6204, Note_on_c, 0, 29, 29
1, 6204, Note_off_c, 0, 51, 64
1, 6204, Note_on_c, 0, 53, 44
1, 6204, Note_off_c, 0, 76, 64
1, 6205, Note_off_c, 0, 78, 64
1, 6206, Note_off_c, 0, 29, 64
1, 6206, Note_on_c, 0, 52, 47
1, 6206, Note_off_c, 0, 53, 64
1, 6206, Note_off_c, 0, 75, 64
1, 6206, Note_on_c, 0, 76, 26
1, 6206, Note_on_c, 0, 80, 12
1, 6206, Note_off_c, 0, 87, 64
1, 6206, Note_on_c, 0, 89, 15
1, 6207, Note_on_c, 0, 69, 27
1, 6207, Note_on_c, 0, 75, 29
1, 6208, Note_on_c, 0, 61, 46
1, 6209, Note_off_c, 0, 76, 64
1, 6209, Note_off_c, 0, 84, 64
1, 6209, Note_on_c, 0, 85, 20
1, 6209, Note_off_c, 0, 89, 64
1, 6210, Note_on_c, 0, 79, 37
1, 6210, Note_off_c, 0, 80, 64
1, 6211, Note_off_c, 0, 52, 64
1, 6211, Note_off_c, 0, 61, 64
1, 6211, Note_off_c, 0, 69, 64
1, 6211, Note_off_c, 0, 75, 64
1, 6211, Note_on_c, 0, 84, 13
1, 6212, Note_on_c, 0, 67, 50
1, 6212, Note_on_c, 0, 77, 28
1, 6212, Note_on_c, 0, 80, 36
1, 6213, Note_on_c, 0, 58, 53
1, 6213, Note_on_c, 0, 71, 37
1, 6213, Note_off_c, 0, 82, 64
1, 6213, Note_on_c, 0, 86, 21
1, 6213, Note_on_c, 0, 88, 14
1, 6214, Note_on_c, 0, 48, 46
1, 6214, Note_on_c, 0, 75, 31
1, 6214, Note_off_c, 0, 85, 64
1, 6215, Note_off_c, 0, 77, 64
1, 6215, Note_off_c, 0, 79, 64
1, 6215, Note_on_c, 0, 82, 16
1, 6216, Note_off_c, 0, 48, 64
1, 6216, Note_on_c, 0, 64, 33
1, 6216, Note_off_c, 0, 67, 64
1, 6216, Note_off_c, 0, 71, 64
1, 6216, Note_on_c, 0, 77, 19
1, 6216, Note_on_c, 0, 79, 31
1, 6216, Note_off_c, 0, 80, 64
1, 6216, Note_off_c, 0, 88, 64
1, 6217, Note_off_c, 0, 84, 64
1, 6218, Note_off_c, 0, 82, 64
1, 6219, Note_off_c, 0, 64, 64
1, 6219, Note_on_c, 0, 65, 30
1, 6219, Note_on_c, 0, 68, 31
1, 6219, Note_on_c, 0, 73, 26
1, 6219, Note_off_c, 0, 75, 64
1, 6219, Note_on_c, 0, 84, 17
1, 6220, Note_on_c, 0, 48, 51
1, 6221, Note_on_c, 0, 57, 40
1, 6221, Note_off_c, 0, 58, 64
1, 6221, Note_off_c, 0, 65, 64
1, 6221, Note_off_c, 0, 68, 64
1, 6221, Note_on_c, 0, 82, 12
1, 6222, Note_on_c, 0, 72, 21
1, 6222, Note_off_c, 0, 73, 64
1, 6222, Note_off_c, 0, 77, 64
1, 6222, Note_on_c, 0, 88, 14
1, 6222, Note_on_c, 0, 89, 18
1, 6223, Note_off_c, 0, 57, 64
1, 6223, Note_on_c, 0, 58, 48
1, 6223, Note_on_c, 0, 75, 31
1, 6223, Note_on_c, 0, 77, 23
1, 6224, Note_off_c, 0, 48, 64
1, 6224, Note_on_c, 0, 64, 30
1, 6225, Note_off_c, 0, 58, 64
1, 6225, Note_off_c, 0, 84, 64
1, 6225, Note_off_c, 0, 86, 64
1, 6225, Note_off_c, 0, 88, 64
1, 6226, Note_on_c, 0, 48, 44
1, 6226, Note_off_c, 0, 72, 64
1, 6226, Note_off_c, 0, 75, 64
1, 6226, Note_on_c, 0, 85, 15
1, 6227, Note_on_c, 0, 58, 50
1, 6227, Note_off_c, 0, 64, 64
1, 6227, Note_on_c, 0, 68, 31
1, 6227, Note_off_c, 0, 79, 64
1, 6227, Note_on_c, 0, 83, 15
1, 6228, Note_on_c, 0, 75, 20
1, 6228, Note_on_c, 0, 81, 24
1, 6228, Note_off_c, 0, 82, 64
1, 6228, Note_off_c, 0, 89, 64
1, 6229, Note_on_c, 0, 61, 36
1, 6229, Note_on_c, 0, 65, 26
1, 6229, Note_off_c, 0, 77, 64
1, 6229, Note_off_c, 0, 85, 64
1, 6230, Note_off_c, 0, 58, 64
1, 6230, Note_off_c, 0, 68, 64
1, 6230, Note_on_c, 0, 69, 36
1, 6230, Note_on_c, 0, 84, 18
1, 6231, Note_off_c, 0, 48, 64
1, 6231, Note_off_c, 0, 83, 64
1, 6232, Note_on_c, 0, 48, 55
1, 6232, Note_on_c, 0, 58, 42
1, 6232, Note_off_c, 0, 61, 64
1, 6232, Note_off_c, 0, 65, 64
1, 6232, Note_on_c, 0, 67, 26
1, 6232, Note_on_c, 0, 72, 19
1, 6232, Note_on_c, 0, 76, 30
1, 6233, Note_on_c, 0, 64, 30
1, 6233, Note_off_c, 0, 69, 64
1, 6233, Note_on_c, 0, 74, 22
1, 6233, Note_off_c, 0, 75, 64
1, 6233, Note_off_c, 0, 84, 64
1, 6234, Note_on_c, 0, 47, 53
1, 6234, Note_off_c, 0, 48, 64
1, 6234, Note_off_c, 0, 58, 64
1, 6234, Note_off_c, 0, 76, 64
1, 6234, Note_on_c, 0, 77, 30
1, 6234, Note_off_c, 0, 81, 64
1, 6234, Note_on_c, 0, 85, 12
1, 6235, Note_off_c, 0, 64, 64
1, 6235, Note_off_c, 0, 72, 64
1, 6237, Note_on_c, 0, 66, 19
1, 6237, Note_off_c, 0, 67, 64
1, 6237, Note_on_c, 0, 81, 22
1, 6237, Note_off_c, 0, 85, 64
1, 6238, Note_on_c, 0, 70, 27
1, 6238, Note_off_c, 0, 74, 64
1, 6238, Note_on_c, 0, 83, 20
1, 6239, Note_off_c, 0, 77, 64
1, 6240, Note_on_c, 0, 46, 50
1, 6240, Note_off_c, 0, 47, 64
1, 6240, Note_on_c, 0, 64, 37
1, 6240, Note_off_c, 0, 66, 64
1, 6240, Note_on_c, 0, 67, 36
1, 6240, Note_on_c, 0, 75, 31
1, 6240, Note_on_c, 0, 88, 14
1, 6241, Note_on_c, 0, 55, 37
1, 6241, Note_on_c, 0, 60, 44
1, 6241, Note_off_c, 0, 70, 64
1, 6241, Note_off_c, 0, 81, 64
1, 6242, Note_off_c, 0, 46, 64
1, 6242, Note_on_c, 0, 47, 48
1, 6242, Note_on_c, 0, 77, 21
1, 6243, Note_off_c, 0, 55, 64
1, 6243, Note_off_c, 0, 60, 64
1, 6243, Note_on_c, 0, 74, 23
1, 6243, Note_off_c, 0, 75, 64
1, 6243, Note_on_c, 0, 80, 17
1, 6244, Note_on_c, 0, 54, 47
1, 6244, Note_off_c, 0, 64, 64
1, 6244, Note_on_c, 0, 84, 12
1, 6245, Note_on_c, 0, 46, 46
1, 6245, Note_off_c, 0, 47, 64
1, 6245, Note_off_c, 0, 67, 64
1, 6245, Note_off_c, 0, 77, 64
1, 6245, Note_on_c, 0, 78, 25
1, 6245, Note_on_c, 0, 81, 11
1, 6245, Note_off_c, 0, 88, 64
1, 6246, Note_off_c, 0, 74, 64
1, 6246, Note_on_c, 0, 75, 23
1, 6246, Note_on_c, 0, 79, 15
1, 6246, Note_off_c, 0, 80, 64
1, 6246, Note_off_c, 0, 83, 64
1, 6247, Note_off_c, 0, 46, 64
1, 6247, Note_on_c, 0, 47, 39
1, 6247, Note_on_c, 0, 69, 31
1, 6247, Note_on_c, 0, 77, 15
1, 6248, Note_on_c, 0, 85, 13
1, 6249, Note_off_c, 0, 47, 64
1, 6249, Note_on_c, 0, 68, 31
1, 6249, Note_off_c, 0, 69, 64
1, 6249, Note_off_c, 0, 78, 64
1, 6250, Note_off_c, 0, 77, 64
1, 6250, Note_on_c, 0, 78, 15
1, 6250, Note_off_c, 0, 81, 64
1, 6250, Note_on_c, 0, 82, 20
1, 6250, Note_off_c, 0, 84, 64
1, 6250, Note_on_c, 0, 88, 13
1, 6251, Note_off_c, 0, 54, 64
1, 6251, Note_off_c, 0, 68, 64
1, 6251, Note_on_c, 0, 69, 39
1, 6251, Note_off_c, 0, 75, 64
1, 6251, Note_off_c, 0, 79, 64
1, 6251, Note_on_c, 0, 84, 22
1, 6251, Note_off_c, 0, 85, 64
1, 6251, Note_on_c, 0, 89, 13
1, 6252, Note_on_c, 0, 51, 45
1, 6252, Note_on_c, 0, 73, 18
1, 6252, Note_on_c, 0, 76, 26
1, 6253, Note_off_c, 0, 78, 64
1, 6254, Note_off_c, 0, 51, 64
1, 6254, Note_on_c, 0, 68, 29
1, 6254, Note_on_c, 0, 79, 18
1, 6254, Note_on_c, 0, 90, 15
1, 6255, Note_off_c, 0, 69, 64
1, 6255, Note_off_c, 0, 73, 64
1, 6255, Note_on_c, 0, 74, 30
1, 6255, Note_off_c, 0, 76, 64
1, 6255, Note_off_c, 0, 88, 64
1, 6256, Note_off_c, 0, 68, 64
1, 6256, Note_on_c, 0, 69, 39
1, 6256, Note_on_c, 0, 77, 30
1, 6256, Note_on_c, 0, 83, 16
1, 6256, Note_off_c, 0, 89, 64
1, 6257, Note_on_c, 0, 51, 37
1, 6257, Note_off_c, 0, 84, 64
1, 6257, Note_on_c, 0, 87, 17
1, 6258, Note_off_c, 0, 82, 64
1, 6259, Note_off_c, 0, 51, 64
1, 6259, Note_off_c, 0, 74, 64
1, 6259, Note_off_c, 0, 79, 64
1, 6259, Note_on_c, 0, 88, 34
1, 6260, Note_off_c, 0, 83, 64
1, 6261, Note_on_c, 0, 51, 36
1, 6261, Note_on_c, 0, 64, 33
1, 6261, Note_on_c, 0, 75, 31
1, 6261, Note_on_c, 0, 84, 34
1, 6263, Note_on_c, 0, 56, 36
1, 6263, Note_off_c, 0, 69, 64
1, 6263, Note_on_c, 0, 80, 24
1, 6263, Note_on_c, 0, 86, 15
1, 6263, Note_off_c, 0, 87, 64
1, 6264, Note_off_c, 0, 51, 64
1, 6264, Note_on_c, 0, 78, 36
1, 6265, Note_off_c, 0, 56, 64
1, 6265, Note_on_c, 0, 62, 17
1, 6265, Note_off_c, 0, 64, 64
1, 6265, Note_on_c, 0, 69, 38
1, 6265, Note_on_c, 0, 83, 39
1, 6265, Note_on_c, 0, 91, 28
1, 6266, Note_on_c, 0, 74, 40
1, 6266, Note_off_c, 0, 75, 64
1, 6266, Note_off_c, 0, 77, 64
1, 6266, Note_off_c, 0, 86, 64
1, 6267, Note_on_c, 0, 85, 36
1, 6267, Note_on_c, 0, 89, 31
1, 6267, Note_on_c, 0, 92, 34
1, 6267, Note_on_c, 0, 93, 30
1, 6267, Note_on_c, 0, 94, 20
1, 6268, Note_off_c, 0, 62, 64
1, 6268, Note_on_c, 0, 64, 53
1, 6268, Note_off_c, 0, 69, 64
1, 6268, Note_on_c, 0, 70, 46
1, 6268, Note_off_c, 0, 80, 64
1, 6268, Note_on_c, 0, 81, 39
1, 6268, Note_on_c, 0, 87, 36
1, 6268, Note_off_c, 0, 90, 64
1, 6269, Note_on_c, 0, 55, 68
1, 6269, Note_off_c, 0, 74, 64
1, 6269, Note_on_c, 0, 77, 38
1, 6269, Note_off_c, 0, 78, 64
1, 6269, Note_on_c, 0, 80, 30
1, 6269, Note_on_c, 0, 86, 30
1, 6269, Note_off_c, 0, 89, 64
1, 6269, Note_on_c, 0, 90, 20
1, 6270, Note_on_c, 0, 49, 82
1, 6270, Note_off_c, 0, 55, 64
1, 6270, Note_off_c, 0, 64, 64
1, 6270, Note_off_c, 0, 83, 64
1, 6270, Note_off_c, 0, 85, 64
1, 6270, Note_off_c, 0, 88, 64
1, 6270, Note_off_c, 0, 91, 64
1, 6270, Note_off_c, 0, 92, 64
1, 6270, Note_off_c, 0, 94, 64
1, 6271, Note_on_c, 0, 45, 93
1, 6271, Note_off_c, 0, 49, 64
1, 6271, Note_off_c, 0, 70, 64
1, 6271, Note_off_c, 0, 77, 64
1, 6271, Note_off_c, 0, 80, 64
1, 6271, Note_off_c, 0, 84, 64
1, 6271, Note_off_c, 0, 93, 64
1, 6272, Note_on_c, 0, 42, 98
1, 6272, Note_off_c, 0, 45, 64
1, 6273, Note_on_c, 0, 41, 100
1, 6273, Note_off_c, 0, 42, 64
1, 6273, Note_off_c, 0, 87, 64
1, 6273, Note_on_c, 0, 89, 14
1, 6274, Note_on_c, 0, 38, 98
1, 6274, Note_off_c, 0, 41, 64
1, 6275, Note_on_c, 0, 37, 99
1, 6275, Note_off_c, 0, 38, 64
1, 6275, Note_on_c, 0, 80, 17
1, 6275, Note_off_c, 0, 81, 64
1, 6275, Note_on_c, 0, 83, 21
1, 6275, Note_off_c, 0, 90, 64
1, 6276, Note_on_c, 0, 36, 98
1, 6276, Note_off_c, 0, 37, 64
1, 6277, Note_on_c, 0, 34, 97
1, 6277, Note_off_c, 0, 36, 64
1, 6277, Note_on_c, 0, 93, 9
1, 6278, Note_on_c, 0, 33, 96
1, 6278, Note_off_c, 0, 34, 64
1, 6279, Note_off_c, 0, 89, 64
1, 6280, Note_on_c, 0, 32, 97
1, 6280, Note_off_c, 0, 33, 64
1, 6280, Note_on_c, 0, 85, 14
1, 6280, Note_off_c, 0, 86, 64
1, 6280, Note_on_c, 0, 89, 14
1, 6280, Note_off_c, 0, 93, 64
1, 6281, Note_on_c, 0, 31, 96
1, 6281, Note_off_c, 0, 32, 64
1, 6283, Note_on_c, 0, 81, 23
1, 6283, Note_off_c, 0, 83, 64
1, 6284, Note_on_c, 0, 30, 80
1, 6284, Note_off_c, 0, 31, 64
1, 6284, Note_off_c, 0, 80, 64
1, 6284, Note_on_c, 0, 83, 33
1, 6284, Note_off_c, 0, 89, 64
1, 6285, Note_on_c, 0, 86, 13
1, 6286, Note_off_c, 0, 30, 64
1, 6286, Note_on_c, 0, 75, 17
1, 6286, Note_off_c, 0, 85, 64
1, 6287, Note_off_c, 0, 81, 64
1, 6287, Note_on_c, 0, 82, 17
1, 6287, Note_on_c, 0, 85, 19
1, 6287, Note_on_c, 0, 89, 24
1, 6288, Note_on_c, 0, 36, 71
1, 6288, Note_on_c, 0, 61, 33
1, 6288, Note_on_c, 0, 64, 30
1, 6288, Note_on_c, 0, 66, 20
1, 6288, Note_on_c, 0, 70, 22
1, 6288, Note_on_c, 0, 81, 24
1, 6288, Note_off_c, 0, 86, 64
1, 6289, Note_on_c, 0, 31, 78
1, 6289, Note_off_c, 0, 36, 64
1, 6289, Note_on_c, 0, 49, 59
1, 6289, Note_on_c, 0, 54, 50
1, 6289, Note_on_c, 0, 68, 17
1, 6289, Note_off_c, 0, 75, 64
1, 6290, Note_on_c, 0, 30, 81
1, 6290, Note_off_c, 0, 31, 64
1, 6290, Note_on_c, 0, 75, 22
1, 6290, Note_on_c, 0, 77, 18
1, 6290, Note_off_c, 0, 82, 64
1, 6290, Note_on_c, 0, 86, 32
1, 6290, Note_on_c, 0, 88, 20
1, 6290, Note_on_c, 0, 92, 21
1, 6291, Note_on_c, 0, 29, 80
1, 6291, Note_off_c, 0, 30, 64
1, 6291, Note_off_c, 0, 54, 64
1, 6291, Note_on_c, 0, 63, 23
1, 6291, Note_off_c, 0, 64, 64
1, 6291, Note_off_c, 0, 66, 64
1, 6291, Note_off_c, 0, 85, 64
1, 6291, Note_off_c, 0, 89, 64
1, 6292, Note_off_c, 0, 29, 64
1, 6292, Note_on_c, 0, 30, 77
1, 6292, Note_off_c, 0, 49, 64
1, 6292, Note_off_c, 0, 68, 64
1, 6292, Note_off_c, 0, 70, 64
1, 6292, Note_on_c, 0, 85, 25
1, 6293, Note_off_c, 0, 61, 64
1, 6293, Note_off_c, 0, 75, 64
1, 6293, Note_off_c, 0, 77, 64
1, 6293, Note_off_c, 0, 81, 64
1, 6293, Note_on_c, 0, 90, 15
1, 6294, Note_on_c, 0, 29, 75
1, 6294, Note_off_c, 0, 30, 64
1, 6294, Note_on_c, 0, 48, 54
1, 6294, Note_off_c, 0, 63, 64
1, 6294, Note_on_c, 0, 74, 15
1, 6294, Note_on_c, 0, 77, 14
1, 6294, Note_on_c, 0, 79, 21
1, 6294, Note_on_c, 0, 93, 30
1, 6295, Note_on_c, 0, 81, 21
1, 6295, Note_off_c, 0, 85, 64
1, 6295, Note_on_c, 0, 91, 25
1, 6295, Note_off_c, 0, 92, 64
1, 6296, Note_on_c, 0, 42, 67
1, 6296, Note_off_c, 0, 48, 64
1, 6296, Note_on_c, 0, 76, 22
1, 6296, Note_on_c, 0, 92, 17
1, 6296, Note_on_c, 0, 94, 13
1, 6297, Note_off_c, 0, 29, 64
1, 6297, Note_on_c, 0, 30, 74
1, 6297, Note_on_c, 0, 61, 33
1, 6297, Note_off_c, 0, 74, 64
1, 6297, Note_off_c, 0, 77, 64
1, 6297, Note_on_c, 0, 78, 26
1, 6297, Note_on_c, 0, 84, 28
1, 6297, Note_on_c, 0, 87, 28
1, 6298, Note_off_c, 0, 30, 64
1, 6298, Note_on_c, 0, 31, 77
1, 6298, Note_off_c, 0, 42, 64
1, 6298, Note_on_c, 0, 68, 18
1, 6298, Note_on_c, 0, 70, 19
1, 6298, Note_on_c, 0, 85, 29
1, 6298, Note_off_c, 0, 88, 64
1, 6298, Note_off_c, 0, 90, 64
1, 6299, Note_on_c, 0, 30, 80
1, 6299, Note_off_c, 0, 31, 64
1, 6299, Note_on_c, 0, 64, 25
1, 6299, Note_on_c, 0, 74, 21
1, 6299, Note_off_c, 0, 79, 64
1, 6299, Note_on_c, 0, 80, 37
1, 6299, Note_off_c, 0, 91, 64
1, 6299, Note_off_c, 0, 92, 64
1, 6300, Note_on_c, 0, 29, 80
1, 6300, Note_off_c, 0, 30, 64
1, 6300, Note_off_c, 0, 76, 64
1, 6300, Note_on_c, 0, 77, 30
1, 6300, Note_off_c, 0, 81, 64
1, 6300, Note_on_c, 0, 82, 30
1, 6300, Note_off_c, 0, 83, 64
1, 6300, Note_off_c, 0, 86, 64
1, 6300, Note_off_c, 0, 94, 64
1, 6301, Note_off_c, 0, 70, 64
1, 6301, Note_on_c, 0, 88, 29
1, 6302, Note_off_c, 0, 29, 64
1, 6302, Note_on_c, 0, 30, 77
1, 6302, Note_on_c, 0, 48, 57
1, 6302, Note_off_c, 0, 64, 64
1, 6302, Note_off_c, 0, 68, 64
1, 6302, Note_off_c, 0, 78, 64
1, 6302, Note_off_c, 0, 87, 64
1, 6302, Note_on_c, 0, 89, 34
1, 6303, Note_off_c, 0, 74, 64
1, 6304, Note_off_c, 0, 30, 64
1, 6304, Note_on_c, 0, 34, 73
1, 6304, Note_off_c, 0, 48, 64
1, 6304, Note_on_c, 0, 54, 29
1, 6304, Note_off_c, 0, 61, 64
1, 6304, Note_off_c, 0, 77, 64
1, 6304, Note_on_c, 0, 78, 37
1, 6304, Note_on_c, 0, 83, 31
1, 6305, Note_off_c, 0, 34, 64
1, 6305, Note_on_c, 0, 60, 55
1, 6305, Note_on_c, 0, 74, 42
1, 6305, Note_off_c, 0, 82, 64
1, 6305, Note_on_c, 0, 87, 29
1, 6305, Note_on_c, 0, 91, 24
1, 6306, Note_off_c, 0, 54, 64
1, 6306, Note_on_c, 0, 70, 45
1, 6306, Note_off_c, 0, 83, 64
1, 6306, Note_off_c, 0, 84, 64
1, 6307, Note_on_c, 0, 51, 75
1, 6307, Note_off_c, 0, 60, 64
1, 6307, Note_off_c, 0, 74, 64
1, 6307, Note_off_c, 0, 80, 64
1, 6308, Note_on_c, 0, 48, 86
1, 6308, Note_off_c, 0, 51, 64
1, 6308, Note_off_c, 0, 87, 64
1, 6308, Note_off_c, 0, 89, 64
1, 6308, Note_off_c, 0, 91, 64
1, 6308, Note_off_c, 0, 93, 64
1, 6309, Note_on_c, 0, 44, 95
1, 6309, Note_off_c, 0, 48, 64
1, 6309, Note_off_c, 0, 70, 64
1, 6309, Note_off_c, 0, 78, 64
1, 6309, Note_off_c, 0, 85, 64
1, 6310, Note_on_c, 0, 42, 100
1, 6310, Note_off_c, 0, 44, 64
1, 6311, Note_on_c, 0, 40, 97
1, 6311, Note_off_c, 0, 42, 64
1, 6312, Note_on_c, 0, 38, 99
1, 6312, Note_off_c, 0, 40, 64
1, 6312, Note_off_c, 0, 88, 64
1, 6313, Note_on_c, 0, 36, 98
1, 6313, Note_off_c, 0, 38, 64
1, 6314, Note_on_c, 0, 35, 96
1, 6314, Note_off_c, 0, 36, 64
1, 6314, Note_on_c, 0, 83, 14
1, 6315, Note_on_c, 0, 34, 95
1, 6315, Note_off_c, 0, 35, 64
1, 6316, Note_on_c, 0, 33, 96
1, 6316, Note_off_c, 0, 34, 64
1, 6316, Note_on_c, 0, 80, 13
1, 6317, Note_on_c, 0, 32, 97
1, 6317, Note_off_c, 0, 33, 64
1, 6317, Note_off_c, 0, 83, 64
1, 6318, Note_on_c, 0, 78, 17
1, 6319, Note_on_c, 0, 31, 94
1, 6319, Note_off_c, 0, 32, 64
1, 6320, Note_on_c, 0, 85, 23
1, 6320, Note_on_c, 0, 87, 21
1, 6321, Note_on_c, 0, 30, 84
1, 6321, Note_off_c, 0, 31, 64
1, 6321, Note_off_c, 0, 78, 64
1, 6321, Note_off_c, 0, 80, 64
1, 6321, Note_on_c, 0, 81, 18
1, 6322, Note_on_c, 0, 79, 26
1, 6324, Note_off_c, 0, 30, 64
1, 6324, Note_off_c, 0, 85, 64
1, 6325, Note_on_c, 0, 37, 69
1, 6325, Note_on_c, 0, 76, 23
1, 6325, Note_off_c, 0, 81, 64
1, 6326, Note_on_c, 0, 31, 73
1, 6326, Note_off_c, 0, 37, 64
1, 6326, Note_on_c, 0, 63, 30
1, 6326, Note_on_c, 0, 81, 26
1, 6326, Note_on_c, 0, 84, 23
1, 6326, Note_on_c, 0, 86, 24
1, 6327, Note_on_c, 0, 30, 79
1, 6327, Note_off_c, 0, 31, 64
1, 6327, Note_on_c, 0, 78, 34
1, 6327, Note_on_c, 0, 83, 23
1, 6327, Note_off_c, 0, 87, 64
1, 6328, Note_on_c, 0, 29, 80
1, 6328, Note_off_c, 0, 30, 64
1, 6328, Note_on_c, 0, 49, 59
1, 6329, Note_off_c, 0, 63, 64
1, 6329, Note_off_c, 0, 76, 64
1, 6329, Note_off_c, 0, 81, 64
1, 6329, Note_on_c, 0, 87, 21
1, 6329, Note_on_c, 0, 89, 11
1, 6330, Note_off_c, 0, 29, 64
1, 6330, Note_on_c, 0, 30, 76
1, 6330, Note_off_c, 0, 49, 64
1, 6330, Note_on_c, 0, 76, 16
1, 6330, Note_off_c, 0, 79, 64
1, 6330, Note_on_c, 0, 81, 25
1, 6330, Note_off_c, 0, 84, 64
1, 6330, Note_off_c, 0, 86, 64
1, 6330, Note_on_c, 0, 88, 34
1, 6331, Note_on_c, 0, 29, 74
1, 6331, Note_off_c, 0, 30, 64
1, 6332, Note_on_c, 0, 73, 16
1, 6332, Note_on_c, 0, 82, 32
1, 6332, Note_on_c, 0, 86, 25
1, 6333, Note_off_c, 0, 76, 64
1, 6333, Note_off_c, 0, 81, 64
1, 6333, Note_off_c, 0, 83, 64
1, 6333, Note_off_c, 0, 89, 64
1, 6334, Note_on_c, 0, 63, 28
1, 6334, Note_on_c, 0, 68, 19
1, 6334, Note_on_c, 0, 70, 22
1, 6334, Note_on_c, 0, 76, 32
1, 6334, Note_on_c, 0, 80, 26
1, 6334, Note_on_c, 0, 91, 12
1, 6335, Note_off_c, 0, 29, 64
1, 6335, Note_on_c, 0, 30, 81
1, 6335, Note_on_c, 0, 72, 22
1, 6335, Note_on_c, 0, 84, 35
1, 6335, Note_off_c, 0, 87, 64
1, 6336, Note_off_c, 0, 73, 64
1, 6336, Note_off_c, 0, 76, 64
1, 6336, Note_on_c, 0, 85, 13
1, 6336, Note_off_c, 0, 86, 64
1, 6337, Note_on_c, 0, 61, 30
1, 6337, Note_off_c, 0, 63, 64
1, 6337, Note_off_c, 0, 68, 64
1, 6337, Note_off_c, 0, 70, 64
1, 6337, Note_on_c, 0, 93, 13
1, 6338, Note_on_c, 0, 29, 80
1, 6338, Note_off_c, 0, 30, 64
1, 6338, Note_off_c, 0, 72, 64
1, 6338, Note_on_c, 0, 76, 25
1, 6338, Note_off_c, 0, 80, 64
1, 6338, Note_on_c, 0, 89, 32
1, 6338, Note_off_c, 0, 91, 64
1, 6338, Note_on_c, 0, 92, 11
1, 6339, Note_off_c, 0, 29, 64
1, 6339, Note_on_c, 0, 30, 77
1, 6339, Note_on_c, 0, 79, 30
1, 6339, Note_on_c, 0, 81, 35
1, 6339, Note_off_c, 0, 88, 64
1, 6340, Note_off_c, 0, 61, 64
1, 6340, Note_off_c, 0, 78, 64
1, 6340, Note_off_c, 0, 85, 64
1, 6340, Note_off_c, 0, 93, 64
1, 6341, Note_off_c, 0, 30, 64
1, 6341, Note_on_c, 0, 32, 72
1, 6341, Note_on_c, 0, 54, 35
1, 6341, Note_on_c, 0, 72, 43
1, 6341, Note_off_c, 0, 76, 64
1, 6341, Note_on_c, 0, 78, 39
1, 6341, Note_off_c, 0, 82, 64
1, 6341, Note_off_c, 0, 92, 64
1, 6342, Note_off_c, 0, 32, 64
1, 6342, Note_on_c, 0, 35, 68
1, 6342, Note_on_c, 0, 74, 38
1, 6342, Note_on_c, 0, 76, 42
1, 6342, Note_on_c, 0, 83, 39
1, 6342, Note_on_c, 0, 87, 35
1, 6342, Note_on_c, 0, 92, 27
1, 6342, Note_on_c, 0, 94, 21
1, 6342, Note_on_c, 0, 97, 24
1, 6342, Note_on_c, 0, 98, 19
1, 6342, Note_on_c, 0, 100, 22
1, 6343, Note_off_c, 0, 35, 64
1, 6343, Note_off_c, 0, 54, 64
1, 6343, Note_off_c, 0, 79, 64
1, 6344, Note_on_c, 0, 54, 67
1, 6344, Note_off_c, 0, 72, 64
1, 6344, Note_on_c, 0, 80, 29
1, 6344, Note_on_c, 0, 85, 23
1, 6345, Note_on_c, 0, 48, 82
1, 6345, Note_off_c, 0, 54, 64
1, 6345, Note_off_c, 0, 74, 64
1, 6345, Note_off_c, 0, 78, 64
1, 6345, Note_off_c, 0, 81, 64
1, 6345, Note_off_c, 0, 83, 64
1, 6345, Note_off_c, 0, 87, 64
1, 6345, Note_off_c, 0, 89, 64
1, 6345, Note_off_c, 0, 92, 64
1, 6345, Note_off_c, 0, 94, 64
1, 6345, Note_off_c, 0, 97, 64
1, 6345, Note_off_c, 0, 98, 64
1, 6345, Note_off_c, 0, 100, 64
1, 6346, Note_on_c, 0, 45, 93
1, 6346, Note_off_c, 0, 48, 64
1, 6346, Note_off_c, 0, 80, 64
1, 6347, Note_on_c, 0, 42, 99
1, 6347, Note_off_c, 0, 45, 64
1, 6347, Note_off_c, 0, 85, 64
1, 6348, Note_on_c, 0, 41, 99
1, 6348, Note_off_c, 0, 42, 64
1, 6348, Note_off_c, 0, 76, 64
1, 6348, Note_off_c, 0, 84, 64
1, 6348, Note_on_c, 0, 86, 9
1, 6349, Note_on_c, 0, 38, 98
1, 6349, Note_off_c, 0, 41, 64
1, 6350, Note_on_c, 0, 37, 98
1, 6350, Note_off_c, 0, 38, 64
1, 6351, Note_on_c, 0, 36, 97
1, 6351, Note_off_c, 0, 37, 64
1, 6351, Note_off_c, 0, 86, 64
1, 6352, Note_on_c, 0, 34, 96
1, 6352, Note_off_c, 0, 36, 64
1, 6354, Note_on_c, 0, 33, 96
1, 6354, Note_off_c, 0, 34, 64
1, 6355, Note_on_c, 0, 32, 97
1, 6355, Note_off_c, 0, 33, 64
1, 6356, Note_on_c, 0, 31, 95
1, 6356, Note_off_c, 0, 32, 64
1, 6358, Note_on_c, 0, 79, 20
1, 6359, Note_on_c, 0, 30, 78
1, 6359, Note_off_c, 0, 31, 64
1, 6359, Note_on_c, 0, 81, 18
1, 6360, Note_on_c, 0, 83, 14
1, 6360, Note_on_c, 0, 87, 15
1, 6361, Note_off_c, 0, 30, 64
1, 6361, Note_on_c, 0, 86, 22
1, 6362, Note_on_c, 0, 85, 21
1, 6362, Note_on_c, 0, 90, 12
1, 6363, Note_on_c, 0, 36, 69
1, 6363, Note_on_c, 0, 54, 55
1, 6363, Note_on_c, 0, 68, 27
1, 6363, Note_off_c, 0, 79, 64
1, 6363, Note_off_c, 0, 81, 64
1, 6363, Note_off_c, 0, 83, 64
1, 6364, Note_on_c, 0, 31, 76
1, 6364, Note_off_c, 0, 36, 64
1, 6364, Note_on_c, 0, 49, 58
1, 6364, Note_on_c, 0, 63, 29
1, 6364, Note_off_c, 0, 87, 64
1, 6365, Note_on_c, 0, 29, 79
1, 6365, Note_off_c, 0, 31, 64
1, 6365, Note_on_c, 0, 77, 29
1, 6366, Note_off_c, 0, 54, 64
1, 6366, Note_on_c, 0, 76, 27
1, 6366, Note_on_c, 0, 81, 23
1, 6366, Note_on_c, 0, 83, 14
1, 6366, Note_off_c, 0, 86, 64
1, 6367, Note_off_c, 0, 29, 64
1, 6367, Note_on_c, 0, 30, 77
1, 6367, Note_off_c, 0, 49, 64
1, 6367, Note_off_c, 0, 63, 64
1, 6367, Note_on_c, 0, 74, 23
1, 6367, Note_off_c, 0, 77, 64
1, 6367, Note_on_c, 0, 78, 24
1, 6367, Note_on_c, 0, 86, 30
1, 6367, Note_on_c, 0, 87, 14
1, 6367, Note_off_c, 0, 90, 64
1, 6368, Note_off_c, 0, 68, 64
1, 6368, Note_off_c, 0, 85, 64
1, 6368, Note_on_c, 0, 92, 12
1, 6369, Note_on_c, 0, 29, 74
1, 6369, Note_off_c, 0, 30, 64
1, 6369, Note_on_c, 0, 94, 14
1, 6370, Note_off_c, 0, 74, 64
1, 6370, Note_off_c, 0, 83, 64
1, 6371, Note_on_c, 0, 42, 68
1, 6371, Note_on_c, 0, 74, 26
1, 6371, Note_on_c, 0, 83, 15
1, 6371, Note_off_c, 0, 87, 64
1, 6371, Note_on_c, 0, 88, 30
1, 6372, Note_off_c, 0, 29, 64
1, 6372, Note_on_c, 0, 30, 79
1, 6372, Note_on_c, 0, 61, 31
1, 6372, Note_on_c, 0, 77, 15
1, 6372, Note_off_c, 0, 78, 64
1, 6372, Note_on_c, 0, 91, 19
1, 6373, Note_off_c, 0, 42, 64
1, 6373, Note_on_c, 0, 49, 61
1, 6373, Note_on_c, 0, 64, 29
1, 6373, Note_on_c, 0, 70, 20
1, 6373, Note_off_c, 0, 76, 64
1, 6373, Note_on_c, 0, 78, 17
1, 6373, Note_off_c, 0, 81, 64
1, 6373, Note_on_c, 0, 87, 21
1, 6373, Note_off_c, 0, 88, 64
1, 6373, Note_off_c, 0, 94, 64
1, 6374, Note_off_c, 0, 61, 64
1, 6374, Note_on_c, 0, 84, 11
1, 6374, Note_off_c, 0, 92, 64
1, 6375, Note_on_c, 0, 29, 79
1, 6375, Note_off_c, 0, 30, 64
1, 6375, Note_on_c, 0, 63, 26
1, 6375, Note_off_c, 0, 64, 64
1, 6375, Note_off_c, 0, 77, 64
1, 6375, Note_off_c, 0, 86, 64
1, 6375, Note_off_c, 0, 91, 64
1, 6376, Note_off_c, 0, 74, 64
1, 6376, Note_off_c, 0, 78, 64
1, 6376, Note_on_c, 0, 82, 20
1, 6376, Note_off_c, 0, 83, 64
1, 6377, Note_off_c, 0, 29, 64
1, 6377, Note_on_c, 0, 30, 77
1, 6377, Note_off_c, 0, 70, 64
1, 6377, Note_on_c, 0, 78, 27
1, 6377, Note_off_c, 0, 84, 64
1, 6377, Note_on_c, 0, 86, 34
1, 6378, Note_off_c, 0, 49, 64
1, 6378, Note_on_c, 0, 74, 30
1, 6378, Note_on_c, 0, 76, 38
1, 6379, Note_off_c, 0, 30, 64
1, 6379, Note_on_c, 0, 34, 71
1, 6379, Note_off_c, 0, 63, 64
1, 6379, Note_on_c, 0, 81, 36
1, 6379, Note_off_c, 0, 87, 64
1, 6379, Note_on_c, 0, 89, 31
1, 6379, Note_on_c, 0, 91, 25
1, 6380, Note_off_c, 0, 34, 64
1, 6380, Note_on_c, 0, 71, 43
1, 6380, Note_off_c, 0, 82, 64
1, 6380, Note_on_c, 0, 84, 33
1, 6380, Note_on_c, 0, 90, 29
1, 6380, Note_on_c, 0, 95, 21
1, 6381, Note_off_c, 0, 74, 64
1, 6381, Note_on_c, 0, 77, 38
1, 6381, Note_off_c, 0, 78, 64
1, 6381, Note_on_c, 0, 79, 32
1, 6381, Note_on_c, 0, 85, 30
1, 6382, Note_on_c, 0, 51, 76
1, 6382, Note_off_c, 0, 71, 64
1, 6382, Note_off_c, 0, 89, 64
1, 6383, Note_on_c, 0, 46, 86
1, 6383, Note_off_c, 0, 51, 64
1, 6383, Note_off_c, 0, 77, 64
1, 6383, Note_off_c, 0, 79, 64
1, 6383, Note_off_c, 0, 81, 64
1, 6383, Note_off_c, 0, 84, 64
1, 6383, Note_off_c, 0, 85, 64
1, 6383, Note_off_c, 0, 90, 64
1, 6383, Note_off_c, 0, 95, 64
1, 6384, Note_on_c, 0, 44, 95
1, 6384, Note_off_c, 0, 46, 64
1, 6384, Note_off_c, 0, 76, 64
1, 6385, Note_on_c, 0, 41, 100
1, 6385, Note_off_c, 0, 44, 64
1, 6385, Note_off_c, 0, 86, 64
1, 6385, Note_off_c, 0, 91, 64
1, 6386, Note_on_c, 0, 39, 97
1, 6386, Note_off_c, 0, 41, 64
1, 6387, Note_on_c, 0, 37, 99
1, 6387, Note_off_c, 0, 39, 64
1, 6388, Note_on_c, 0, 36, 98
1, 6388, Note_off_c, 0, 37, 64
1, 6389, Note_on_c, 0, 35, 97
1, 6389, Note_off_c, 0, 36, 64
1, 6390, Note_on_c, 0, 34, 96
1, 6390, Note_off_c, 0, 35, 64
1, 6391, Note_on_c, 0, 33, 96
1, 6391, Note_off_c, 0, 34, 64
1, 6392, Note_on_c, 0, 32, 97
1, 6392, Note_off_c, 0, 33, 64
1, 6392, Note_on_c, 0, 49, 29
1, 6394, Note_on_c, 0, 31, 94
1, 6394, Note_off_c, 0, 32, 64
1, 6395, Note_off_c, 0, 49, 64
1, 6396, Note_on_c, 0, 30, 83
1, 6396, Note_off_c, 0, 31, 64
1, 6398, Note_off_c, 0, 30, 64
1, 6398, Note_on_c, 0, 79, 13
1, 6398, Note_on_c, 0, 86, 20
1, 6399, Note_on_c, 0, 70, 19
1, 6399, Note_on_c, 0, 74, 32
1, 6399, Note_on_c, 0, 80, 18
1, 6399, Note_on_c, 0, 83, 16
1, 6400, Note_on_c, 0, 37, 69
1, 6401, Note_on_c, 0, 31, 74
1, 6401, Note_off_c, 0, 37, 64
1, 6401, Note_on_c, 0, 41, 65
1, 6401, Note_on_c, 0, 64, 30
1, 6401, Note_off_c, 0, 79, 64
1, 6401, Note_on_c, 0, 81, 17
1, 6402, Note_on_c, 0, 30, 79
1, 6402, Note_off_c, 0, 31, 64
1, 6402, Note_off_c, 0, 41, 64
1, 6402, Note_off_c, 0, 70, 64
1, 6402, Note_on_c, 0, 71, 36
1, 6402, Note_off_c, 0, 80, 64
1, 6402, Note_on_c, 0, 92, 11
1, 6403, Note_on_c, 0, 29, 80
1, 6403, Note_off_c, 0, 30, 64
1, 6403, Note_on_c, 0, 63, 26
1, 6403, Note_off_c, 0, 64, 64
1, 6403, Note_off_c, 0, 74, 64
1, 6403, Note_off_c, 0, 86, 64
1, 6404, Note_on_c, 0, 74, 28
1, 6404, Note_off_c, 0, 83, 64
1, 6405, Note_off_c, 0, 29, 64
1, 6405, Note_on_c, 0, 30, 76
1, 6405, Note_on_c, 0, 49, 53
1, 6405, Note_off_c, 0, 92, 64
1, 6406, Note_on_c, 0, 80, 16
1, 6406, Note_off_c, 0, 81, 64
1, 6406, Note_on_c, 0, 89, 17
1, 6407, Note_on_c, 0, 29, 73
1, 6407, Note_off_c, 0, 30, 64
1, 6407, Note_off_c, 0, 49, 64
1, 6407, Note_off_c, 0, 63, 64
1, 6408, Note_on_c, 0, 77, 23
1, 6409, Note_on_c, 0, 42, 65
1, 6409, Note_off_c, 0, 74, 64
1, 6409, Note_off_c, 0, 80, 64
1, 6409, Note_on_c, 0, 81, 19
1, 6410, Note_off_c, 0, 29, 64
1, 6410, Note_on_c, 0, 30, 75
1, 6410, Note_off_c, 0, 42, 64
1, 6410, Note_on_c, 0, 66, 21
1, 6410, Note_on_c, 0, 74, 27
1, 6410, Note_on_c, 0, 90, 9
1, 6411, Note_off_c, 0, 30, 64
1, 6411, Note_on_c, 0, 31, 78
1, 6411, Note_on_c, 0, 49, 61
1, 6411, Note_on_c, 0, 78, 25
1, 6411, Note_on_c, 0, 82, 22
1, 6412, Note_on_c, 0, 30, 80
1, 6412, Note_off_c, 0, 31, 64
1, 6412, Note_on_c, 0, 84, 17
1, 6413, Note_on_c, 0, 29, 80
1, 6413, Note_off_c, 0, 30, 64
1, 6413, Note_off_c, 0, 66, 64
1, 6413, Note_off_c, 0, 71, 64
1, 6413, Note_on_c, 0, 73, 33
1, 6413, Note_off_c, 0, 74, 64
1, 6413, Note_off_c, 0, 90, 64
1, 6414, Note_off_c, 0, 49, 64
1, 6414, Note_on_c, 0, 75, 19
1, 6414, Note_off_c, 0, 78, 64
1, 6414, Note_on_c, 0, 79, 28
1, 6414, Note_off_c, 0, 81, 64
1, 6414, Note_on_c, 0, 86, 32
1, 6415, Note_off_c, 0, 29, 64
1, 6415, Note_on_c, 0, 30, 75
1, 6415, Note_on_c, 0, 81, 41
1, 6416, Note_off_c, 0, 30, 64
1, 6416, Note_on_c, 0, 33, 73
1, 6416, Note_on_c, 0, 54, 38
1, 6416, Note_off_c, 0, 73, 64
1, 6416, Note_on_c, 0, 78, 40
1, 6416, Note_off_c, 0, 82, 64
1, 6416, Note_off_c, 0, 89, 64
1, 6417, Note_off_c, 0, 33, 64
1, 6417, Note_on_c, 0, 35, 67
1, 6417, Note_on_c, 0, 73, 42
1, 6417, Note_off_c, 0, 84, 64
1, 6417, Note_on_c, 0, 89, 31
1, 6417, Note_on_c, 0, 92, 25
1, 6417, Note_on_c, 0, 94, 22
1, 6417, Note_on_c, 0, 95, 25
1, 6417, Note_on_c, 0, 99, 24
1, 6417, Note_on_c, 0, 100, 21
1, 6418, Note_off_c, 0, 35, 64
1, 6418, Note_off_c, 0, 54, 64
1, 6418, Note_off_c, 0, 75, 64
1, 6418, Note_on_c, 0, 76, 38
1, 6418, Note_off_c, 0, 77, 64
1, 6418, Note_off_c, 0, 79, 64
1, 6419, Note_on_c, 0, 53, 69
1, 6419, Note_off_c, 0, 73, 64
1, 6419, Note_on_c, 0, 84, 22
1, 6420, Note_on_c, 0, 48, 83
1, 6420, Note_off_c, 0, 53, 64
1, 6420, Note_off_c, 0, 76, 64
1, 6420, Note_off_c, 0, 78, 64
1, 6420, Note_off_c, 0, 81, 64
1, 6420, Note_off_c, 0, 86, 64
1, 6420, Note_off_c, 0, 89, 64
1, 6420, Note_off_c, 0, 92, 64
1, 6420, Note_off_c, 0, 94, 64
1, 6420, Note_off_c, 0, 95, 64
1, 6420, Note_off_c, 0, 99, 64
1, 6420, Note_off_c, 0, 100, 64
1, 6421, Note_on_c, 0, 45, 94
1, 6421, Note_off_c, 0, 48, 64
1, 6422, Note_on_c, 0, 42, 99
1, 6422, Note_off_c, 0, 45, 64
1, 6423, Note_on_c, 0, 40, 99
1, 6423, Note_off_c, 0, 42, 64
1, 6423, Note_off_c, 0, 84, 64
1, 6424, Note_on_c, 0, 38, 98
1, 6424, Note_off_c, 0, 40, 64
1, 6425, Note_on_c, 0, 37, 98
1, 6425, Note_off_c, 0, 38, 64
1, 6426, Note_on_c, 0, 35, 97
1, 6426, Note_off_c, 0, 37, 64
1, 6427, Note_on_c, 0, 34, 96
1, 6427, Note_off_c, 0, 35, 64
1, 6428, Note_on_c, 0, 33, 96
1, 6428, Note_off_c, 0, 34, 64
1, 6429, Note_on_c, 0, 32, 96
1, 6429, Note_off_c, 0, 33, 64
1, 6431, Note_on_c, 0, 31, 95
1, 6431, Note_off_c, 0, 32, 64
1, 6434, Note_on_c, 0, 30, 77
1, 6434, Note_off_c, 0, 31, 64
1, 6436, Note_off_c, 0, 30, 64
1, 6436, Note_on_c, 0, 75, 25
1, 6437, Note_on_c, 0, 61, 29
1, 6437, Note_on_c, 0, 70, 22
1, 6437, Note_on_c, 0, 77, 28
1, 6437, Note_on_c, 0, 80, 11
1, 6437, Note_on_c, 0, 84, 16
1, 6437, Note_on_c, 0, 88, 11
1, 6438, Note_on_c, 0, 36, 71
1, 6438, Note_on_c, 0, 64, 25
1, 6438, Note_on_c, 0, 66, 13
1, 6439, Note_on_c, 0, 31, 79
1, 6439, Note_off_c, 0, 36, 64
1, 6439, Note_off_c, 0, 75, 64
1, 6440, Note_on_c, 0, 29, 81
1, 6440, Note_off_c, 0, 31, 64
1, 6440, Note_on_c, 0, 68, 17
1, 6440, Note_on_c, 0, 72, 33
1, 6440, Note_on_c, 0, 79, 11
1, 6440, Note_off_c, 0, 84, 64
1, 6440, Note_on_c, 0, 86, 24
1, 6440, Note_off_c, 0, 88, 64
1, 6441, Note_off_c, 0, 61, 64
1, 6441, Note_off_c, 0, 66, 64
1, 6441, Note_off_c, 0, 70, 64
1, 6442, Note_off_c, 0, 29, 64
1, 6442, Note_on_c, 0, 30, 76
1, 6443, Note_off_c, 0, 64, 64
1, 6443, Note_off_c, 0, 77, 64
1, 6443, Note_off_c, 0, 80, 64
1, 6444, Note_on_c, 0, 29, 74
1, 6444, Note_off_c, 0, 30, 64
1, 6444, Note_off_c, 0, 68, 64
1, 6444, Note_on_c, 0, 76, 23
1, 6444, Note_off_c, 0, 79, 64
1, 6444, Note_on_c, 0, 80, 18
1, 6445, Note_on_c, 0, 82, 31
1, 6446, Note_on_c, 0, 79, 20
1, 6447, Note_off_c, 0, 29, 64
1, 6447, Note_on_c, 0, 30, 80
1, 6447, Note_on_c, 0, 77, 20
1, 6447, Note_off_c, 0, 80, 64
1, 6447, Note_on_c, 0, 85, 23
1, 6448, Note_on_c, 0, 49, 61
1, 6448, Note_off_c, 0, 72, 64
1, 6448, Note_off_c, 0, 76, 64
1, 6449, Note_on_c, 0, 80, 11
1, 6450, Note_off_c, 0, 86, 64
1, 6451, Note_on_c, 0, 29, 78
1, 6451, Note_off_c, 0, 30, 64
1, 6451, Note_off_c, 0, 85, 64
1, 6451, Note_on_c, 0, 86, 30
1, 6452, Note_off_c, 0, 29, 64
1, 6452, Note_on_c, 0, 30, 76
1, 6452, Note_on_c, 0, 70, 36
1, 6452, Note_off_c, 0, 77, 64
1, 6452, Note_off_c, 0, 80, 64
1, 6452, Note_on_c, 0, 88, 30
1, 6453, Note_off_c, 0, 49, 64
1, 6453, Note_on_c, 0, 75, 42
1, 6453, Note_on_c, 0, 77, 33
1, 6454, Note_off_c, 0, 30, 64
1, 6454, Note_on_c, 0, 34, 71
1, 6454, Note_on_c, 0, 74, 37
1, 6454, Note_on_c, 0, 81, 37
1, 6455, Note_off_c, 0, 34, 64
1, 6455, Note_off_c, 0, 79, 64
1, 6455, Note_on_c, 0, 84, 29
1, 6456, Note_off_c, 0, 70, 64
1, 6456, Note_off_c, 0, 74, 64
1, 6456, Note_on_c, 0, 80, 39
1, 6456, Note_off_c, 0, 81, 64
1, 6457, Note_on_c, 0, 51, 79
1, 6457, Note_on_c, 0, 71, 15
1, 6457, Note_off_c, 0, 84, 64
1, 6457, Note_off_c, 0, 86, 64
1, 6457, Note_off_c, 0, 88, 64
1, 6458, Note_on_c, 0, 46, 88
1, 6458, Note_off_c, 0, 51, 64
1, 6458, Note_off_c, 0, 75, 64
1, 6458, Note_off_c, 0, 77, 64
1, 6458, Note_off_c, 0, 82, 64
1, 6459, Note_on_c, 0, 43, 95
1, 6459, Note_off_c, 0, 46, 64
1, 6459, Note_off_c, 0, 80, 64
1, 6460, Note_on_c, 0, 41, 100
1, 6460, Note_off_c, 0, 43, 64
1, 6460, Note_off_c, 0, 71, 64
1, 6461, Note_on_c, 0, 39, 97
1, 6461, Note_off_c, 0, 41, 64
1, 6462, Note_on_c, 0, 37, 98
1, 6462, Note_off_c, 0, 39, 64
1, 6463, Note_on_c, 0, 36, 97
1, 6463, Note_off_c, 0, 37, 64
1, 6464, Note_on_c, 0, 35, 96
1, 6464, Note_off_c, 0, 36, 64
1, 6465, Note_on_c, 0, 34, 95
1, 6465, Note_off_c, 0, 35, 64
1, 6466, Note_on_c, 0, 33, 95
1, 6466, Note_off_c, 0, 34, 64
1, 6467, Note_on_c, 0, 32, 96
1, 6467, Note_off_c, 0, 33, 64
1, 6469, Note_on_c, 0, 31, 94
1, 6469, Note_off_c, 0, 32, 64
1, 6471, Note_on_c, 0, 30, 82
1, 6471, Note_off_c, 0, 31, 64
1, 6471, Note_on_c, 0, 79, 17
1, 6472, Note_on_c, 0, 71, 28
1, 6474, Note_off_c, 0, 30, 64
1, 6474, Note_on_c, 0, 69, 31
1, 6475, Note_on_c, 0, 41, 69
1, 6475, Note_on_c, 0, 64, 26
1, 6475, Note_off_c, 0, 71, 64
1, 6475, Note_off_c, 0, 79, 64
1, 6475, Note_on_c, 0, 86, 14
1, 6476, Note_on_c, 0, 31, 74
1, 6476, Note_off_c, 0, 41, 64
1, 6476, Note_on_c, 0, 61, 25
1, 6476, Note_off_c, 0, 69, 64
1, 6476, Note_on_c, 0, 71, 29
1, 6477, Note_on_c, 0, 30, 79
1, 6477, Note_off_c, 0, 31, 64
1, 6477, Note_on_c, 0, 74, 17
1, 6478, Note_on_c, 0, 29, 79
1, 6478, Note_off_c, 0, 30, 64
1, 6478, Note_on_c, 0, 49, 57
1, 6478, Note_off_c, 0, 64, 64
1, 6478, Note_on_c, 0, 81, 20
1, 6478, Note_off_c, 0, 86, 64
1, 6479, Note_off_c, 0, 71, 64
1, 6480, Note_off_c, 0, 29, 64
1, 6480, Note_on_c, 0, 30, 75
1, 6480, Note_on_c, 0, 71, 29
1, 6480, Note_off_c, 0, 74, 64
1, 6481, Note_on_c, 0, 48, 52
1, 6481, Note_off_c, 0, 49, 64
1, 6481, Note_on_c, 0, 85, 15
1, 6481, Note_on_c, 0, 87, 15
1, 6482, Note_on_c, 0, 29, 73
1, 6482, Note_off_c, 0, 30, 64
1, 6482, Note_off_c, 0, 61, 64
1, 6482, Note_on_c, 0, 74, 21
1, 6483, Note_off_c, 0, 48, 64
1, 6483, Note_on_c, 0, 76, 34
1, 6484, Note_on_c, 0, 42, 65
1, 6484, Note_off_c, 0, 81, 64
1, 6484, Note_off_c, 0, 87, 64
1, 6485, Note_off_c, 0, 29, 64
1, 6485, Note_on_c, 0, 30, 79
1, 6485, Note_off_c, 0, 42, 64
1, 6485, Note_on_c, 0, 61, 31
1, 6485, Note_on_c, 0, 70, 31
1, 6485, Note_off_c, 0, 71, 64
1, 6485, Note_on_c, 0, 79, 24
1, 6486, Note_off_c, 0, 74, 64
1, 6486, Note_off_c, 0, 76, 64
1, 6486, Note_on_c, 0, 86, 15
1, 6487, Note_off_c, 0, 70, 64
1, 6487, Note_on_c, 0, 82, 19
1, 6487, Note_on_c, 0, 84, 9
1, 6488, Note_on_c, 0, 29, 78
1, 6488, Note_off_c, 0, 30, 64
1, 6488, Note_on_c, 0, 70, 30
1, 6488, Note_off_c, 0, 85, 64
1, 6489, Note_off_c, 0, 79, 64
1, 6489, Note_on_c, 0, 80, 24
1, 6490, Note_off_c, 0, 29, 64
1, 6490, Note_on_c, 0, 30, 75
1, 6490, Note_off_c, 0, 61, 64
1, 6490, Note_off_c, 0, 70, 64
1, 6490, Note_off_c, 0, 82, 64
1, 6491, Note_off_c, 0, 30, 64
1, 6491, Note_on_c, 0, 33, 72
1, 6491, Note_on_c, 0, 47, 50
1, 6491, Note_on_c, 0, 70, 42
1, 6491, Note_on_c, 0, 75, 44
1, 6491, Note_off_c, 0, 84, 64
1, 6491, Note_off_c, 0, 86, 64
1, 6492, Note_off_c, 0, 33, 64
1, 6492, Note_on_c, 0, 35, 65
1, 6492, Note_on_c, 0, 66, 50
1, 6492, Note_on_c, 0, 81, 26
1, 6492, Note_on_c, 0, 84, 37
1, 6492, Note_on_c, 0, 86, 29
1, 6492, Note_on_c, 0, 89, 30
1, 6492, Note_on_c, 0, 91, 27
1, 6492, Note_on_c, 0, 94, 25
1, 6492, Note_on_c, 0, 95, 21
1, 6492, Note_on_c, 0, 97, 23
1, 6492, Note_on_c, 0, 100, 18
1, 6493, Note_off_c, 0, 35, 64
1, 6493, Note_off_c, 0, 47, 64
1, 6493, Note_off_c, 0, 80, 64
1, 6494, Note_on_c, 0, 53, 70
1, 6494, Note_off_c, 0, 66, 64
1, 6494, Note_off_c, 0, 70, 64
1, 6494, Note_on_c, 0, 71, 34
1, 6495, Note_on_c, 0, 48, 84
1, 6495, Note_off_c, 0, 53, 64
1, 6495, Note_off_c, 0, 75, 64
1, 6495, Note_off_c, 0, 81, 64
1, 6495, Note_off_c, 0, 84, 64
1, 6495, Note_off_c, 0, 86, 64
1, 6495, Note_off_c, 0, 89, 64
1, 6495, Note_off_c, 0, 91, 64
1, 6495, Note_off_c, 0, 94, 64
1, 6495, Note_off_c, 0, 95, 64
1, 6495, Note_off_c, 0, 97, 64
1, 6495, Note_off_c, 0, 100, 64
1, 6496, Note_on_c, 0, 45, 94
1, 6496, Note_off_c, 0, 48, 64
1, 6496, Note_off_c, 0, 71, 64
1, 6497, Note_on_c, 0, 42, 99
1, 6497, Note_off_c, 0, 45, 64
1, 6498, Note_on_c, 0, 40, 99
1, 6498, Note_off_c, 0, 42, 64
1, 6499, Note_on_c, 0, 38, 98
1, 6499, Note_off_c, 0, 40, 64
1, 6500, Note_on_c, 0, 37, 98
1, 6500, Note_off_c, 0, 38, 64
1, 6501, Note_on_c, 0, 35, 97
1, 6501, Note_off_c, 0, 37, 64
1, 6502, Note_on_c, 0, 34, 96
1, 6502, Note_off_c, 0, 35, 64
1, 6503, Note_on_c, 0, 33, 96
1, 6503, Note_off_c, 0, 34, 64
1, 6504, Note_on_c, 0, 32, 96
1, 6504, Note_off_c, 0, 33, 64
1, 6506, Note_on_c, 0, 31, 95
1, 6506, Note_off_c, 0, 32, 64
1, 6509, Note_on_c, 0, 30, 75
1, 6509, Note_off_c, 0, 31, 64
1, 6509, Note_on_c, 0, 82, 15
1, 6511, Note_off_c, 0, 30, 64
1, 6511, Note_on_c, 0, 71, 24
1, 6512, Note_off_c, 0, 82, 64
1, 6513, Note_on_c, 0, 32, 69
1, 6513, Note_on_c, 0, 63, 31
1, 6513, Note_on_c, 0, 81, 12
1, 6514, Note_on_c, 0, 30, 78
1, 6514, Note_off_c, 0, 32, 64
1, 6514, Note_off_c, 0, 71, 64
1, 6515, Note_on_c, 0, 29, 79
1, 6515, Note_off_c, 0, 30, 64
1, 6515, Note_on_c, 0, 49, 57
1, 6515, Note_off_c, 0, 63, 64
1, 6515, Note_on_c, 0, 83, 15
1, 6516, Note_on_c, 0, 71, 35
1, 6516, Note_off_c, 0, 81, 64
1, 6517, Note_off_c, 0, 29, 64
1, 6517, Note_on_c, 0, 30, 75
1, 6517, Note_off_c, 0, 49, 64
1, 6518, Note_on_c, 0, 68, 22
1, 6518, Note_on_c, 0, 77, 16
1, 6519, Note_on_c, 0, 29, 73
1, 6519, Note_off_c, 0, 30, 64
1, 6519, Note_on_c, 0, 74, 21
1, 6520, Note_on_c, 0, 69, 19
1, 6520, Note_off_c, 0, 71, 64
1, 6520, Note_on_c, 0, 72, 22
1, 6521, Note_off_c, 0, 68, 64
1, 6521, Note_on_c, 0, 85, 16
1, 6522, Note_off_c, 0, 29, 64
1, 6522, Note_on_c, 0, 30, 80
1, 6522, Note_off_c, 0, 77, 64
1, 6522, Note_on_c, 0, 81, 22
1, 6523, Note_off_c, 0, 69, 64
1, 6523, Note_on_c, 0, 71, 29
1, 6523, Note_off_c, 0, 72, 64
1, 6523, Note_on_c, 0, 77, 25
1, 6523, Note_off_c, 0, 83, 64
1, 6524, Note_on_c, 0, 79, 24
1, 6525, Note_on_c, 0, 29, 80
1, 6525, Note_off_c, 0, 30, 64
1, 6525, Note_on_c, 0, 49, 56
1, 6525, Note_on_c, 0, 63, 29
1, 6525, Note_off_c, 0, 71, 64
1, 6526, Note_off_c, 0, 29, 64
1, 6526, Note_on_c, 0, 30, 77
1, 6526, Note_on_c, 0, 73, 18
1, 6526, Note_off_c, 0, 74, 64
1, 6526, Note_off_c, 0, 81, 64
1, 6526, Note_off_c, 0, 85, 64
1, 6527, Note_on_c, 0, 82, 35
1, 6528, Note_off_c, 0, 49, 64
1, 6528, Note_off_c, 0, 63, 64
1, 6528, Note_on_c, 0, 75, 34
1, 6528, Note_off_c, 0, 79, 64
1, 6528, Note_on_c, 0, 80, 39
1, 6529, Note_off_c, 0, 30, 64
1, 6529, Note_on_c, 0, 34, 70
1, 6529, Note_on_c, 0, 71, 37
1, 6529, Note_off_c, 0, 73, 64
1, 6530, Note_off_c, 0, 34, 64
1, 6530, Note_off_c, 0, 77, 64
1, 6530, Note_on_c, 0, 78, 35
1, 6531, Note_off_c, 0, 71, 64
1, 6531, Note_on_c, 0, 72, 39
1, 6531, Note_off_c, 0, 80, 64
1, 6531, Note_on_c, 0, 81, 34
1, 6532, Note_on_c, 0, 50, 78
1, 6532, Note_on_c, 0, 64, 37
1, 6532, Note_off_c, 0, 75, 64
1, 6532, Note_off_c, 0, 78, 64
1, 6532, Note_off_c, 0, 82, 64
1, 6533, Note_on_c, 0, 45, 90
1, 6533, Note_off_c, 0, 50, 64
1, 6533, Note_off_c, 0, 72, 64
1, 6534, Note_on_c, 0, 43, 96
1, 6534, Note_off_c, 0, 45, 64
1, 6534, Note_off_c, 0, 64, 64
1, 6534, Note_off_c, 0, 81, 64
1, 6535, Note_on_c, 0, 41, 100
1, 6535, Note_off_c, 0, 43, 64
1, 6536, Note_on_c, 0, 39, 97
1, 6536, Note_off_c, 0, 41, 64
1, 6537, Note_on_c, 0, 37, 98
1, 6537, Note_off_c, 0, 39, 64
1, 6538, Note_on_c, 0, 36, 97
1, 6538, Note_off_c, 0, 37, 64
1, 6539, Note_on_c, 0, 35, 96
1, 6539, Note_off_c, 0, 36, 64
1, 6540, Note_on_c, 0, 34, 95
1, 6540, Note_off_c, 0, 35, 64
1, 6541, Note_on_c, 0, 33, 95
1, 6541, Note_off_c, 0, 34, 64
1, 6542, Note_on_c, 0, 32, 96
1, 6542, Note_off_c, 0, 33, 64
1, 6544, Note_on_c, 0, 31, 93
1, 6544, Note_off_c, 0, 32, 64
1, 6546, Note_on_c, 0, 30, 81
1, 6546, Note_off_c, 0, 31, 64
1, 6548, Note_off_c, 0, 30, 64
1, 6549, Note_on_c, 0, 66, 11
1, 6549, Note_on_c, 0, 75, 16
1, 6549, Note_on_c, 0, 78, 22
1, 6549, Note_on_c, 0, 80, 18
1, 6550, Note_on_c, 0, 36, 72
1, 6550, Note_on_c, 0, 69, 15
1, 6550, Note_on_c, 0, 86, 16
1, 6551, Note_on_c, 0, 31, 76
1, 6551, Note_off_c, 0, 36, 64
1, 6551, Note_on_c, 0, 84, 22
1, 6552, Note_on_c, 0, 30, 80
1, 6552, Note_off_c, 0, 31, 64
1, 6552, Note_on_c, 0, 63, 28
1, 6552, Note_off_c, 0, 66, 64
1, 6552, Note_on_c, 0, 68, 25
1, 6552, Note_off_c, 0, 75, 64
1, 6552, Note_off_c, 0, 80, 64
1, 6553, Note_on_c, 0, 29, 80
1, 6553, Note_off_c, 0, 30, 64
1, 6553, Note_off_c, 0, 69, 64
1, 6553, Note_off_c, 0, 78, 64
1, 6554, Note_on_c, 0, 77, 24
1, 6554, Note_off_c, 0, 84, 64
1, 6554, Note_off_c, 0, 86, 64
1, 6555, Note_off_c, 0, 29, 64
1, 6555, Note_on_c, 0, 30, 76
1, 6555, Note_off_c, 0, 63, 64
1, 6555, Note_off_c, 0, 68, 64
1, 6556, Note_on_c, 0, 29, 75
1, 6556, Note_off_c, 0, 30, 64
1, 6556, Note_on_c, 0, 48, 51
1, 6556, Note_on_c, 0, 82, 18
1, 6556, Note_on_c, 0, 86, 18
1, 6557, Note_on_c, 0, 80, 22
1, 6558, Note_off_c, 0, 48, 64
1, 6558, Note_on_c, 0, 73, 22
1, 6558, Note_on_c, 0, 85, 24
1, 6559, Note_off_c, 0, 29, 64
1, 6559, Note_on_c, 0, 30, 80
1, 6559, Note_on_c, 0, 88, 14
1, 6560, Note_on_c, 0, 61, 33
1, 6560, Note_on_c, 0, 76, 25
1, 6561, Note_off_c, 0, 77, 64
1, 6561, Note_on_c, 0, 79, 16
1, 6562, Note_on_c, 0, 29, 80
1, 6562, Note_off_c, 0, 30, 64
1, 6562, Note_on_c, 0, 77, 19
1, 6562, Note_off_c, 0, 82, 64
1, 6562, Note_off_c, 0, 86, 64
1, 6562, Note_off_c, 0, 88, 64
1, 6563, Note_on_c, 0, 49, 59
1, 6563, Note_on_c, 0, 64, 19
1, 6563, Note_on_c, 0, 68, 20
1, 6563, Note_off_c, 0, 73, 64
1, 6563, Note_off_c, 0, 76, 64
1, 6563, Note_off_c, 0, 80, 64
1, 6563, Note_on_c, 0, 82, 33
1, 6564, Note_off_c, 0, 29, 64
1, 6564, Note_on_c, 0, 30, 77
1, 6564, Note_off_c, 0, 79, 64
1, 6565, Note_off_c, 0, 49, 64
1, 6565, Note_off_c, 0, 61, 64
1, 6565, Note_on_c, 0, 75, 24
1, 6566, Note_off_c, 0, 30, 64
1, 6566, Note_on_c, 0, 34, 73
1, 6566, Note_off_c, 0, 64, 64
1, 6566, Note_off_c, 0, 68, 64
1, 6566, Note_off_c, 0, 85, 64
1, 6567, Note_off_c, 0, 34, 64
1, 6567, Note_on_c, 0, 60, 50
1, 6567, Note_on_c, 0, 69, 46
1, 6567, Note_on_c, 0, 71, 44
1, 6567, Note_on_c, 0, 76, 41
1, 6567, Note_off_c, 0, 77, 64
1, 6567, Note_on_c, 0, 78, 38
1, 6567, Note_on_c, 0, 87, 29
1, 6567, Note_on_c, 0, 92, 27
1, 6568, Note_off_c, 0, 75, 64
1, 6568, Note_on_c, 0, 85, 34
1, 6569, Note_on_c, 0, 53, 72
1, 6569, Note_off_c, 0, 60, 64
1, 6569, Note_off_c, 0, 69, 64
1, 6569, Note_off_c, 0, 71, 64
1, 6570, Note_on_c, 0, 48, 85
1, 6570, Note_off_c, 0, 53, 64
1, 6570, Note_off_c, 0, 76, 64
1, 6570, Note_off_c, 0, 82, 64
1, 6570, Note_off_c, 0, 85, 64
1, 6570, Note_off_c, 0, 87, 64
1, 6570, Note_off_c, 0, 92, 64
1, 6571, Note_on_c, 0, 45, 95
1, 6571, Note_off_c, 0, 48, 64
1, 6571, Note_off_c, 0, 78, 64
1, 6572, Note_on_c, 0, 42, 100
1, 6572, Note_off_c, 0, 45, 64
1, 6573, Note_on_c, 0, 40, 98
1, 6573, Note_off_c, 0, 42, 64
1, 6574, Note_on_c, 0, 38, 98
1, 6574, Note_off_c, 0, 40, 64
1, 6575, Note_on_c, 0, 36, 98
1, 6575, Note_off_c, 0, 38, 64
1, 6576, Note_on_c, 0, 35, 97
1, 6576, Note_off_c, 0, 36, 64
1, 6577, Note_on_c, 0, 34, 96
1, 6577, Note_off_c, 0, 35, 64
1, 6578, Note_on_c, 0, 33, 96
1, 6578, Note_off_c, 0, 34, 64
1, 6579, Note_on_c, 0, 32, 97
1, 6579, Note_off_c, 0, 33, 64
1, 6581, Note_on_c, 0, 31, 95
1, 6581, Note_off_c, 0, 32, 64
1, 6582, Note_on_c, 0, 80, 12
1, 6583, Note_on_c, 0, 30, 85
1, 6583, Note_off_c, 0, 31, 64
1, 6586, Note_off_c, 0, 30, 64
1, 6586, Note_on_c, 0, 41, 66
1, 6586, Note_on_c, 0, 71, 25
1, 6586, Note_off_c, 0, 80, 64
1, 6586, Note_on_c, 0, 82, 16
1, 6587, Note_on_c, 0, 66, 24
1, 6587, Note_on_c, 0, 84, 19
1, 6588, Note_on_c, 0, 32, 70
1, 6588, Note_off_c, 0, 41, 64
1, 6589, Note_on_c, 0, 30, 79
1, 6589, Note_off_c, 0, 32, 64
1, 6589, Note_on_c, 0, 49, 56
1, 6589, Note_on_c, 0, 81, 19
1, 6590, Note_on_c, 0, 29, 81
1, 6590, Note_off_c, 0, 30, 64
1, 6590, Note_on_c, 0, 64, 25
1, 6590, Note_off_c, 0, 66, 64
1, 6590, Note_off_c, 0, 82, 64
1, 6590, Note_off_c, 0, 84, 64
1, 6591, Note_off_c, 0, 49, 64
1, 6591, Note_off_c, 0, 71, 64
1, 6591, Note_on_c, 0, 77, 17
1, 6592, Note_off_c, 0, 29, 64
1, 6592, Note_on_c, 0, 30, 77
1, 6592, Note_on_c, 0, 74, 21
1, 6593, Note_off_c, 0, 81, 64
1, 6594, Note_on_c, 0, 29, 75
1, 6594, Note_off_c, 0, 30, 64
1, 6594, Note_on_c, 0, 63, 35
1, 6594, Note_off_c, 0, 64, 64
1, 6594, Note_off_c, 0, 77, 64
1, 6594, Note_on_c, 0, 83, 18
1, 6595, Note_on_c, 0, 79, 21
1, 6596, Note_off_c, 0, 74, 64
1, 6596, Note_on_c, 0, 86, 17
1, 6597, Note_off_c, 0, 29, 64
1, 6597, Note_on_c, 0, 30, 80
1, 6597, Note_on_c, 0, 61, 35
1, 6597, Note_on_c, 0, 78, 19
1, 6598, Note_on_c, 0, 49, 59
1, 6598, Note_on_c, 0, 71, 31
1, 6598, Note_off_c, 0, 79, 64
1, 6598, Note_on_c, 0, 85, 10
1, 6598, Note_on_c, 0, 89, 14
1, 6599, Note_off_c, 0, 61, 64
1, 6599, Note_off_c, 0, 83, 64
1, 6600, Note_on_c, 0, 29, 80
1, 6600, Note_off_c, 0, 30, 64
1, 6600, Note_on_c, 0, 68, 21
1, 6600, Note_off_c, 0, 86, 64
1, 6601, Note_off_c, 0, 49, 64
1, 6601, Note_off_c, 0, 63, 64
1, 6601, Note_off_c, 0, 78, 64
1, 6602, Note_off_c, 0, 29, 64
1, 6602, Note_on_c, 0, 30, 76
1, 6602, Note_on_c, 0, 80, 34
1, 6602, Note_off_c, 0, 85, 64
1, 6603, Note_off_c, 0, 30, 64
1, 6603, Note_on_c, 0, 31, 72
1, 6603, Note_on_c, 0, 54, 40
1, 6603, Note_off_c, 0, 68, 64
1, 6603, Note_off_c, 0, 71, 64
1, 6603, Note_off_c, 0, 89, 64
1, 6604, Note_off_c, 0, 31, 64
1, 6604, Note_on_c, 0, 35, 69
1, 6604, Note_on_c, 0, 63, 42
1, 6604, Note_on_c, 0, 70, 41
1, 6604, Note_on_c, 0, 73, 41
1, 6604, Note_on_c, 0, 76, 34
1, 6604, Note_on_c, 0, 84, 30
1, 6604, Note_on_c, 0, 86, 30
1, 6604, Note_on_c, 0, 87, 30
1, 6604, Note_on_c, 0, 90, 26
1, 6604, Note_on_c, 0, 93, 29
1, 6605, Note_off_c, 0, 35, 64
1, 6605, Note_off_c, 0, 54, 64
1, 6606, Note_off_c, 0, 63, 64
1, 6606, Note_off_c, 0, 73, 64
1, 6606, Note_off_c, 0, 76, 64
1, 6606, Note_on_c, 0, 78, 30
1, 6606, Note_off_c, 0, 80, 64
1, 6606, Note_off_c, 0, 86, 64
1, 6607, Note_on_c, 0, 49, 79
1, 6607, Note_off_c, 0, 84, 64
1, 6607, Note_off_c, 0, 87, 64
1, 6607, Note_off_c, 0, 90, 64
1, 6607, Note_off_c, 0, 93, 64
1, 6608, Note_on_c, 0, 45, 90
1, 6608, Note_off_c, 0, 49, 64
1, 6608, Note_off_c, 0, 70, 64
1, 6608, Note_off_c, 0, 78, 64
1, 6609, Note_on_c, 0, 42, 97
1, 6609, Note_off_c, 0, 45, 64
1, 6610, Note_on_c, 0, 41, 100
1, 6610, Note_off_c, 0, 42, 64
1, 6611, Note_on_c, 0, 38, 98
1, 6611, Note_off_c, 0, 41, 64
1, 6612, Note_on_c, 0, 37, 98
1, 6612, Note_off_c, 0, 38, 64
1, 6613, Note_on_c, 0, 36, 97
1, 6613, Note_off_c, 0, 37, 64
1, 6614, Note_on_c, 0, 35, 96
1, 6614, Note_off_c, 0, 36, 64
1, 6615, Note_on_c, 0, 34, 95
1, 6615, Note_off_c, 0, 35, 64
1, 6616, Note_on_c, 0, 33, 95
1, 6616, Note_off_c, 0, 34, 64
1, 6617, Note_on_c, 0, 32, 96
1, 6617, Note_off_c, 0, 33, 64
1, 6618, Note_on_c, 0, 31, 95
1, 6618, Note_off_c, 0, 32, 64
1, 6621, Note_on_c, 0, 30, 80
1, 6621, Note_off_c, 0, 31, 64
1, 6623, Note_off_c, 0, 30, 64
1, 6624, Note_on_c, 0, 68, 21
1, 6624, Note_on_c, 0, 71, 16
1, 6624, Note_on_c, 0, 77, 24
1, 6624, Note_on_c, 0, 86, 14
1, 6625, Note_on_c, 0, 36, 71
1, 6625, Note_on_c, 0, 61, 30
1, 6626, Note_on_c, 0, 31, 77
1, 6626, Note_off_c, 0, 36, 64
1, 6626, Note_on_c, 0, 63, 28
1, 6627, Note_on_c, 0, 30, 80
1, 6627, Note_off_c, 0, 31, 64
1, 6627, Note_off_c, 0, 61, 64
1, 6627, Note_on_c, 0, 81, 9
1, 6627, Note_off_c, 0, 86, 64
1, 6628, Note_on_c, 0, 29, 79
1, 6628, Note_off_c, 0, 30, 64
1, 6628, Note_off_c, 0, 71, 64
1, 6629, Note_off_c, 0, 29, 64
1, 6629, Note_on_c, 0, 30, 76
1, 6629, Note_off_c, 0, 68, 64
1, 6629, Note_off_c, 0, 77, 64
1, 6630, Note_off_c, 0, 81, 64
1, 6631, Note_on_c, 0, 29, 73
1, 6631, Note_off_c, 0, 30, 64
1, 6631, Note_off_c, 0, 63, 64
1, 6631, Note_on_c, 0, 80, 14
1, 6632, Note_on_c, 0, 72, 18
1, 6633, Note_on_c, 0, 42, 66
1, 6633, Note_on_c, 0, 85, 18
1, 6634, Note_off_c, 0, 29, 64
1, 6634, Note_on_c, 0, 30, 72
1, 6634, Note_on_c, 0, 74, 17
1, 6634, Note_off_c, 0, 80, 64
1, 6634, Note_on_c, 0, 83, 17
1, 6635, Note_off_c, 0, 30, 64
1, 6635, Note_on_c, 0, 31, 80
1, 6635, Note_off_c, 0, 42, 64
1, 6635, Note_on_c, 0, 68, 18
1, 6635, Note_on_c, 0, 71, 18
1, 6635, Note_off_c, 0, 72, 64
1, 6635, Note_on_c, 0, 77, 28
1, 6635, Note_on_c, 0, 81, 20
1, 6637, Note_on_c, 0, 29, 81
1, 6637, Note_off_c, 0, 31, 64
1, 6637, Note_off_c, 0, 74, 64
1, 6638, Note_off_c, 0, 29, 64
1, 6638, Note_on_c, 0, 30, 79
1, 6638, Note_off_c, 0, 68, 64
1, 6638, Note_off_c, 0, 71, 64
1, 6638, Note_off_c, 0, 81, 64
1, 6638, Note_off_c, 0, 83, 64
1, 6638, Note_off_c, 0, 85, 64
1, 6640, Note_on_c, 0, 73, 29
1, 6640, Note_on_c, 0, 84, 26
1, 6641, Note_off_c, 0, 30, 64
1, 6641, Note_on_c, 0, 34, 72
1, 6641, Note_on_c, 0, 83, 35
1, 6642, Note_off_c, 0, 34, 64
1, 6642, Note_on_c, 0, 60, 53
1, 6642, Note_on_c, 0, 65, 49
1, 6642, Note_on_c, 0, 70, 45
1, 6642, Note_on_c, 0, 80, 35
1, 6642, Note_on_c, 0, 81, 35
1, 6642, Note_on_c, 0, 86, 32
1, 6642, Note_on_c, 0, 87, 28
1, 6642, Note_on_c, 0, 89, 29
1, 6642, Note_on_c, 0, 90, 27
1, 6643, Note_off_c, 0, 73, 64
1, 6643, Note_on_c, 0, 74, 37
1, 6643, Note_on_c, 0, 76, 37
1, 6643, Note_off_c, 0, 77, 64
1, 6643, Note_on_c, 0, 78, 35
1, 6643, Note_off_c, 0, 84, 64
1, 6644, Note_on_c, 0, 51, 74
1, 6644, Note_off_c, 0, 60, 64
1, 6644, Note_on_c, 0, 62, 45
1, 6644, Note_off_c, 0, 65, 64
1, 6644, Note_off_c, 0, 70, 64
1, 6645, Note_on_c, 0, 48, 86
1, 6645, Note_off_c, 0, 51, 64
1, 6645, Note_off_c, 0, 74, 64
1, 6645, Note_off_c, 0, 76, 64
1, 6645, Note_off_c, 0, 78, 64
1, 6645, Note_off_c, 0, 80, 64
1, 6645, Note_off_c, 0, 81, 64
1, 6645, Note_off_c, 0, 83, 64
1, 6645, Note_off_c, 0, 86, 64
1, 6645, Note_off_c, 0, 87, 64
1, 6645, Note_off_c, 0, 89, 64
1, 6645, Note_off_c, 0, 90, 64
1, 6646, Note_on_c, 0, 45, 95
1, 6646, Note_off_c, 0, 48, 64
1, 6646, Note_off_c, 0, 62, 64
1, 6647, Note_on_c, 0, 42, 100
1, 6647, Note_off_c, 0, 45, 64
1, 6648, Note_on_c, 0, 40, 98
1, 6648, Note_off_c, 0, 42, 64
1, 6649, Note_on_c, 0, 38, 98
1, 6649, Note_off_c, 0, 40, 64
1, 6650, Note_on_c, 0, 36, 98
1, 6650, Note_off_c, 0, 38, 64
1, 6651, Note_on_c, 0, 35, 96
1, 6651, Note_off_c, 0, 36, 64
1, 6652, Note_on_c, 0, 34, 96
1, 6652, Note_off_c, 0, 35, 64
1, 6653, Note_on_c, 0, 33, 96
1, 6653, Note_off_c, 0, 34, 64
1, 6654, Note_on_c, 0, 32, 96
1, 6654, Note_off_c, 0, 33, 64
1, 6656, Note_on_c, 0, 31, 94
1, 6656, Note_off_c, 0, 32, 64
1, 6658, Note_on_c, 0, 30, 84
1, 6658, Note_off_c, 0, 31, 64
1, 6661, Note_off_c, 0, 30, 64
1, 6661, Note_on_c, 0, 61, 23
1, 6661, Note_on_c, 0, 79, 12
1, 6662, Note_on_c, 0, 37, 65
1, 6662, Note_on_c, 0, 80, 14
1, 6662, Note_on_c, 0, 86, 13
1, 6662, Note_on_c, 0, 88, 15
1, 6663, Note_on_c, 0, 31, 71
1, 6663, Note_off_c, 0, 37, 64
1, 6663, Note_on_c, 0, 76, 20
1, 6664, Note_on_c, 0, 30, 79
1, 6664, Note_off_c, 0, 31, 64
1, 6664, Note_off_c, 0, 61, 64
1, 6664, Note_on_c, 0, 63, 28
1, 6664, Note_off_c, 0, 79, 64
1, 6665, Note_on_c, 0, 29, 81
1, 6665, Note_off_c, 0, 30, 64
1, 6665, Note_on_c, 0, 49, 59
1, 6666, Note_off_c, 0, 29, 64
1, 6666, Note_on_c, 0, 30, 78
1, 6666, Note_off_c, 0, 76, 64
1, 6666, Note_off_c, 0, 86, 64
1, 6666, Note_off_c, 0, 88, 64
1, 6667, Note_off_c, 0, 49, 64
1, 6667, Note_on_c, 0, 76, 17
1, 6667, Note_off_c, 0, 80, 64
1, 6667, Note_on_c, 0, 81, 20
1, 6669, Note_on_c, 0, 29, 74
1, 6669, Note_off_c, 0, 30, 64
1, 6670, Note_on_c, 0, 60, 30
1, 6671, Note_off_c, 0, 63, 64
1, 6671, Note_on_c, 0, 84, 18
1, 6672, Note_off_c, 0, 29, 64
1, 6672, Note_on_c, 0, 30, 73
1, 6672, Note_on_c, 0, 54, 50
1, 6672, Note_off_c, 0, 60, 64
1, 6672, Note_on_c, 0, 61, 32
1, 6672, Note_on_c, 0, 64, 22
1, 6672, Note_on_c, 0, 68, 14
1, 6672, Note_off_c, 0, 76, 64
1, 6672, Note_on_c, 0, 77, 18
1, 6672, Note_on_c, 0, 80, 21
1, 6672, Note_off_c, 0, 81, 64
1, 6672, Note_on_c, 0, 83, 20
1, 6673, Note_off_c, 0, 30, 64
1, 6673, Note_on_c, 0, 31, 78
1, 6673, Note_on_c, 0, 70, 18
1, 6674, Note_on_c, 0, 30, 80
1, 6674, Note_off_c, 0, 31, 64
1, 6674, Note_on_c, 0, 49, 60
1, 6674, Note_off_c, 0, 54, 64
1, 6674, Note_on_c, 0, 72, 20
1, 6674, Note_on_c, 0, 75, 12
1, 6675, Note_on_c, 0, 29, 80
1, 6675, Note_off_c, 0, 30, 64
1, 6675, Note_on_c, 0, 54, 49
1, 6675, Note_on_c, 0, 63, 20
1, 6675, Note_off_c, 0, 64, 64
1, 6675, Note_off_c, 0, 68, 64
1, 6675, Note_off_c, 0, 84, 64
1, 6676, Note_off_c, 0, 49, 64
1, 6676, Note_off_c, 0, 70, 64
1, 6676, Note_off_c, 0, 83, 64
1, 6677, Note_off_c, 0, 29, 64
1, 6677, Note_on_c, 0, 30, 75
1, 6677, Note_off_c, 0, 54, 64
1, 6677, Note_off_c, 0, 61, 64
1, 6677, Note_off_c, 0, 75, 64
1, 6677, Note_off_c, 0, 80, 64
1, 6677, Note_on_c, 0, 81, 16
1, 6678, Note_off_c, 0, 30, 64
1, 6678, Note_on_c, 0, 32, 72
1, 6678, Note_off_c, 0, 63, 64
1, 6678, Note_off_c, 0, 72, 64
1, 6679, Note_off_c, 0, 32, 64
1, 6679, Note_on_c, 0, 35, 68
1, 6679, Note_on_c, 0, 70, 42
1, 6679, Note_on_c, 0, 76, 37
1, 6679, Note_off_c, 0, 77, 64
1, 6679, Note_on_c, 0, 83, 33
1, 6679, Note_on_c, 0, 85, 28
1, 6679, Note_on_c, 0, 87, 28
1, 6679, Note_on_c, 0, 90, 29
1, 6679, Note_on_c, 0, 91, 28
1, 6679, Note_on_c, 0, 93, 25
1, 6680, Note_off_c, 0, 35, 64
1, 6680, Note_off_c, 0, 81, 64
1, 6680, Note_on_c, 0, 84, 29
1, 6681, Note_on_c, 0, 54, 67
1, 6681, Note_off_c, 0, 70, 64
1, 6682, Note_on_c, 0, 49, 81
1, 6682, Note_off_c, 0, 54, 64
1, 6682, Note_off_c, 0, 76, 64
1, 6682, Note_off_c, 0, 83, 64
1, 6682, Note_off_c, 0, 84, 64
1, 6682, Note_off_c, 0, 85, 64
1, 6682, Note_off_c, 0, 87, 64
1, 6682, Note_off_c, 0, 90, 64
1, 6682, Note_off_c, 0, 91, 64
1, 6682, Note_off_c, 0, 93, 64
1, 6683, Note_on_c, 0, 45, 92
1, 6683, Note_off_c, 0, 49, 64
1, 6684, Note_on_c, 0, 42, 98
1, 6684, Note_off_c, 0, 45, 64
1, 6685, Note_on_c, 0, 41, 99
1, 6685, Note_off_c, 0, 42, 64
1, 6686, Note_on_c, 0, 38, 98
1, 6686, Note_off_c, 0, 41, 64
1, 6687, Note_on_c, 0, 37, 98
1, 6687, Note_off_c, 0, 38, 64
1, 6688, Note_on_c, 0, 36, 97
1, 6688, Note_off_c, 0, 37, 64
1, 6689, Note_on_c, 0, 35, 96
1, 6689, Note_off_c, 0, 36, 64
1, 6690, Note_on_c, 0, 34, 96
1, 6690, Note_off_c, 0, 35, 64
1, 6691, Note_on_c, 0, 33, 96
1, 6691, Note_off_c, 0, 34, 64
1, 6692, Note_on_c, 0, 32, 96
1, 6692, Note_off_c, 0, 33, 64
1, 6693, Note_on_c, 0, 31, 95
1, 6693, Note_off_c, 0, 32, 64
1, 6693, Note_on_c, 0, 79, 9
1, 6696, Note_on_c, 0, 30, 79
1, 6696, Note_off_c, 0, 31, 64
1, 6698, Note_off_c, 0, 30, 64
1, 6698, Note_off_c, 0, 79, 64
1, 6700, Note_on_c, 0, 36, 71
1, 6700, Note_on_c, 0, 54, 52
1, 6700, Note_on_c, 0, 61, 28
1, 6700, Note_on_c, 0, 63, 29
1, 6700, Note_on_c, 0, 68, 17
1, 6701, Note_on_c, 0, 31, 77
1, 6701, Note_off_c, 0, 36, 64
1, 6702, Note_on_c, 0, 30, 80
1, 6702, Note_off_c, 0, 31, 64
1, 6702, Note_off_c, 0, 63, 64
1, 6702, Note_on_c, 0, 77, 28
1, 6703, Note_on_c, 0, 29, 80
1, 6703, Note_off_c, 0, 30, 64
1, 6703, Note_off_c, 0, 54, 64
1, 6703, Note_on_c, 0, 63, 23
1, 6704, Note_on_c, 0, 70, 12
1, 6705, Note_off_c, 0, 29, 64
1, 6705, Note_on_c, 0, 30, 75
1, 6705, Note_off_c, 0, 68, 64
1, 6706, Note_on_c, 0, 29, 74
1, 6706, Note_off_c, 0, 30, 64
1, 6706, Note_off_c, 0, 61, 64
1, 6706, Note_off_c, 0, 63, 64
1, 6706, Note_on_c, 0, 74, 15
1, 6707, Note_off_c, 0, 70, 64
1, 6708, Note_on_c, 0, 79, 21
1, 6709, Note_off_c, 0, 29, 64
1, 6709, Note_on_c, 0, 30, 79
1, 6709, Note_off_c, 0, 74, 64
1, 6709, Note_on_c, 0, 83, 15
1, 6710, Note_on_c, 0, 70, 19
1, 6710, Note_on_c, 0, 71, 21
1, 6712, Note_on_c, 0, 29, 80
1, 6712, Note_off_c, 0, 30, 64
1, 6712, Note_on_c, 0, 61, 26
1, 6712, Note_on_c, 0, 74, 17
1, 6712, Note_off_c, 0, 79, 64
1, 6712, Note_off_c, 0, 83, 64
1, 6713, Note_on_c, 0, 80, 36
1, 6714, Note_off_c, 0, 29, 64
1, 6714, Note_on_c, 0, 30, 76
1, 6714, Note_off_c, 0, 70, 64
1, 6716, Note_off_c, 0, 30, 64
1, 6716, Note_on_c, 0, 34, 72
1, 6716, Note_on_c, 0, 54, 35
1, 6716, Note_off_c, 0, 61, 64
1, 6716, Note_off_c, 0, 74, 64
1, 6716, Note_off_c, 0, 77, 64
1, 6717, Note_off_c, 0, 34, 64
1, 6717, Note_on_c, 0, 65, 50
1, 6717, Note_off_c, 0, 71, 64
1, 6717, Note_on_c, 0, 75, 37
1, 6717, Note_on_c, 0, 83, 35
1, 6717, Note_on_c, 0, 85, 31
1, 6717, Note_on_c, 0, 86, 32
1, 6717, Note_on_c, 0, 88, 29
1, 6718, Note_off_c, 0, 54, 64
1, 6718, Note_on_c, 0, 78, 38
1, 6719, Note_on_c, 0, 51, 75
1, 6719, Note_on_c, 0, 64, 44
1, 6719, Note_off_c, 0, 65, 64
1, 6720, Note_on_c, 0, 48, 86
1, 6720, Note_off_c, 0, 51, 64
1, 6720, Note_off_c, 0, 75, 64
1, 6720, Note_off_c, 0, 78, 64
1, 6720, Note_off_c, 0, 80, 64
1, 6720, Note_off_c, 0, 83, 64
1, 6720, Note_off_c, 0, 85, 64
1, 6720, Note_off_c, 0, 86, 64
1, 6720, Note_off_c, 0, 88, 64
1, 6721, Note_on_c, 0, 44, 95
1, 6721, Note_off_c, 0, 48, 64
1, 6721, Note_off_c, 0, 64, 64
1, 6722, Note_on_c, 0, 41, 100
1, 6722, Note_off_c, 0, 44, 64
1, 6723, Note_on_c, 0, 40, 97
1, 6723, Note_off_c, 0, 41, 64
1, 6724, Note_on_c, 0, 38, 98
1, 6724, Note_off_c, 0, 40, 64
1, 6725, Note_on_c, 0, 36, 98
1, 6725, Note_off_c, 0, 38, 64
1, 6726, Note_on_c, 0, 35, 97
1, 6726, Note_off_c, 0, 36, 64
1, 6727, Note_on_c, 0, 34, 96
1, 6727, Note_off_c, 0, 35, 64
1, 6728, Note_on_c, 0, 33, 96
1, 6728, Note_off_c, 0, 34, 64
1, 6729, Note_on_c, 0, 32, 96
1, 6729, Note_off_c, 0, 33, 64
1, 6730, Note_on_c, 0, 48, 30
1, 6731, Note_on_c, 0, 31, 94
1, 6731, Note_off_c, 0, 32, 64
1, 6732, Note_off_c, 0, 48, 64
1, 6733, Note_on_c, 0, 30, 83
1, 6733, Note_off_c, 0, 31, 64
1, 6735, Note_off_c, 0, 30, 64
1, 6736, Note_on_c, 0, 74, 17
1, 6736, Note_on_c, 0, 78, 26
1, 6737, Note_on_c, 0, 41, 68
1, 6737, Note_on_c, 0, 61, 33
1, 6738, Note_on_c, 0, 31, 72
1, 6738, Note_on_c, 0, 64, 28
1, 6739, Note_on_c, 0, 30, 78
1, 6739, Note_off_c, 0, 31, 64
1, 6739, Note_off_c, 0, 41, 64
1, 6739, Note_off_c, 0, 61, 64
1, 6740, Note_on_c, 0, 29, 79
1, 6740, Note_off_c, 0, 30, 64
1, 6740, Note_off_c, 0, 78, 64
1, 6741, Note_on_c, 0, 63, 19
1, 6741, Note_off_c, 0, 64, 64
1, 6741, Note_off_c, 0, 74, 64
1, 6742, Note_off_c, 0, 29, 64
1, 6742, Note_on_c, 0, 30, 75
1, 6744, Note_on_c, 0, 29, 73
1, 6744, Note_off_c, 0, 30, 64
1, 6744, Note_off_c, 0, 63, 64
1, 6745, Note_on_c, 0, 76, 18
1, 6745, Note_on_c, 0, 79, 11
1, 6746, Note_on_c, 0, 42, 65
1, 6746, Note_on_c, 0, 83, 20
1, 6747, Note_off_c, 0, 29, 64
1, 6747, Note_on_c, 0, 30, 74
1, 6747, Note_off_c, 0, 42, 64
1, 6747, Note_on_c, 0, 54, 50
1, 6747, Note_on_c, 0, 61, 30
1, 6747, Note_on_c, 0, 64, 30
1, 6747, Note_on_c, 0, 68, 22
1, 6747, Note_on_c, 0, 70, 16
1, 6747, Note_on_c, 0, 74, 18
1, 6748, Note_off_c, 0, 30, 64
1, 6748, Note_on_c, 0, 31, 78
1, 6748, Note_on_c, 0, 49, 59
1, 6748, Note_off_c, 0, 76, 64
1, 6748, Note_on_c, 0, 77, 15
1, 6748, Note_on_c, 0, 85, 17
1, 6749, Note_on_c, 0, 30, 80
1, 6749, Note_off_c, 0, 31, 64
1, 6749, Note_on_c, 0, 63, 26
1, 6749, Note_off_c, 0, 64, 64
1, 6749, Note_off_c, 0, 79, 64
1, 6750, Note_off_c, 0, 54, 64
1, 6750, Note_off_c, 0, 68, 64
1, 6750, Note_on_c, 0, 72, 19
1, 6751, Note_off_c, 0, 49, 64
1, 6751, Note_on_c, 0, 79, 24
1, 6751, Note_off_c, 0, 83, 64
1, 6751, Note_off_c, 0, 85, 64
1, 6752, Note_off_c, 0, 61, 64
1, 6752, Note_off_c, 0, 70, 64
1, 6752, Note_off_c, 0, 74, 64
1, 6753, Note_off_c, 0, 30, 64
1, 6753, Note_on_c, 0, 33, 72
1, 6753, Note_on_c, 0, 54, 38
1, 6753, Note_off_c, 0, 63, 64
1, 6753, Note_off_c, 0, 72, 64
1, 6753, Note_off_c, 0, 77, 64
1, 6754, Note_off_c, 0, 33, 64
1, 6754, Note_on_c, 0, 35, 67
1, 6754, Note_on_c, 0, 70, 41
1, 6754, Note_on_c, 0, 78, 36
1, 6754, Note_on_c, 0, 83, 32
1, 6754, Note_on_c, 0, 84, 29
1, 6754, Note_on_c, 0, 87, 28
1, 6754, Note_on_c, 0, 88, 32
1, 6754, Note_on_c, 0, 91, 27
1, 6754, Note_on_c, 0, 92, 24
1, 6754, Note_on_c, 0, 93, 25
1, 6755, Note_off_c, 0, 35, 64
1, 6755, Note_off_c, 0, 54, 64
1, 6755, Note_on_c, 0, 77, 36
1, 6755, Note_off_c, 0, 79, 64
1, 6756, Note_on_c, 0, 54, 66
1, 6756, Note_on_c, 0, 68, 44
1, 6756, Note_off_c, 0, 70, 64
1, 6756, Note_off_c, 0, 78, 64
1, 6757, Note_on_c, 0, 48, 82
1, 6757, Note_off_c, 0, 54, 64
1, 6757, Note_off_c, 0, 77, 64
1, 6757, Note_off_c, 0, 83, 64
1, 6757, Note_off_c, 0, 84, 64
1, 6757, Note_off_c, 0, 87, 64
1, 6757, Note_off_c, 0, 88, 64
1, 6757, Note_off_c, 0, 91, 64
1, 6757, Note_off_c, 0, 92, 64
1, 6757, Note_off_c, 0, 93, 64
1, 6758, Note_on_c, 0, 45, 93
1, 6758, Note_off_c, 0, 48, 64
1, 6758, Note_off_c, 0, 68, 64
1, 6759, Note_on_c, 0, 42, 98
1, 6759, Note_off_c, 0, 45, 64
1, 6760, Note_on_c, 0, 41, 99
1, 6760, Note_off_c, 0, 42, 64
1, 6761, Note_on_c, 0, 38, 98
1, 6761, Note_off_c, 0, 41, 64
1, 6762, Note_on_c, 0, 37, 99
1, 6762, Note_off_c, 0, 38, 64
1, 6763, Note_on_c, 0, 36, 98
1, 6763, Note_off_c, 0, 37, 64
1, 6764, Note_on_c, 0, 34, 97
1, 6764, Note_off_c, 0, 36, 64
1, 6766, Note_on_c, 0, 33, 96
1, 6766, Note_off_c, 0, 34, 64
1, 6766, Note_on_c, 0, 49, 31
1, 6767, Note_on_c, 0, 32, 96
1, 6767, Note_off_c, 0, 33, 64
1, 6768, Note_on_c, 0, 31, 95
1, 6768, Note_off_c, 0, 32, 64
1, 6769, Note_off_c, 0, 49, 64
1, 6770, Note_on_c, 0, 66, 31
1, 6771, Note_on_c, 0, 30, 78
1, 6771, Note_off_c, 0, 31, 64
1, 6773, Note_off_c, 0, 30, 64
1, 6775, Note_on_c, 0, 36, 69
1, 6775, Note_on_c, 0, 64, 36
1, 6775, Note_on_c, 0, 70, 30
1, 6775, Note_on_c, 0, 79, 19
1, 6775, Note_on_c, 0, 86, 13
1, 6776, Note_on_c, 0, 31, 76
1, 6776, Note_off_c, 0, 36, 64
1, 6776, Note_on_c, 0, 48, 56
1, 6777, Note_on_c, 0, 29, 79
1, 6777, Note_off_c, 0, 31, 64
1, 6777, Note_on_c, 0, 61, 36
1, 6777, Note_on_c, 0, 83, 14
1, 6778, Note_off_c, 0, 48, 64
1, 6778, Note_off_c, 0, 64, 64
1, 6778, Note_off_c, 0, 79, 64
1, 6778, Note_off_c, 0, 86, 64
1, 6779, Note_off_c, 0, 29, 64
1, 6779, Note_on_c, 0, 30, 76
1, 6780, Note_on_c, 0, 54, 44
1, 6781, Note_on_c, 0, 29, 75
1, 6781, Note_off_c, 0, 30, 64
1, 6781, Note_off_c, 0, 66, 64
1, 6781, Note_on_c, 0, 86, 15
1, 6782, Note_off_c, 0, 54, 64
1, 6782, Note_on_c, 0, 77, 15
1, 6782, Note_off_c, 0, 83, 64
1, 6783, Note_off_c, 0, 61, 64
1, 6783, Note_on_c, 0, 64, 40
1, 6783, Note_on_c, 0, 79, 19
1, 6783, Note_on_c, 0, 81, 22
1, 6783, Note_on_c, 0, 84, 15
1, 6784, Note_off_c, 0, 29, 64
1, 6784, Note_on_c, 0, 30, 73
1, 6784, Note_on_c, 0, 74, 22
1, 6785, Note_off_c, 0, 30, 64
1, 6785, Note_on_c, 0, 31, 77
1, 6785, Note_on_c, 0, 49, 63
1, 6785, Note_on_c, 0, 82, 35
1, 6786, Note_on_c, 0, 30, 79
1, 6786, Note_off_c, 0, 31, 64
1, 6786, Note_off_c, 0, 81, 64
1, 6787, Note_on_c, 0, 29, 80
1, 6787, Note_off_c, 0, 30, 64
1, 6787, Note_on_c, 0, 68, 29
1, 6787, Note_off_c, 0, 79, 64
1, 6787, Note_on_c, 0, 80, 32
1, 6787, Note_off_c, 0, 84, 64
1, 6788, Note_off_c, 0, 74, 64
1, 6789, Note_off_c, 0, 29, 64
1, 6789, Note_on_c, 0, 30, 76
1, 6789, Note_off_c, 0, 64, 64
1, 6789, Note_off_c, 0, 77, 64
1, 6790, Note_on_c, 0, 48, 60
1, 6790, Note_off_c, 0, 49, 64
1, 6790, Note_on_c, 0, 60, 60
1, 6790, Note_on_c, 0, 64, 40
1, 6790, Note_on_c, 0, 85, 26
1, 6790, Note_off_c, 0, 86, 64
1, 6791, Note_off_c, 0, 30, 64
1, 6791, Note_on_c, 0, 34, 72
1, 6791, Note_off_c, 0, 68, 64
1, 6791, Note_on_c, 0, 79, 35
1, 6792, Note_off_c, 0, 34, 64
1, 6792, Note_off_c, 0, 48, 64
1, 6792, Note_on_c, 0, 68, 52
1, 6792, Note_off_c, 0, 70, 64
1, 6792, Note_on_c, 0, 75, 39
1, 6792, Note_on_c, 0, 88, 28
1, 6792, Note_on_c, 0, 90, 22
1, 6793, Note_off_c, 0, 64, 64
1, 6793, Note_off_c, 0, 80, 64
1, 6794, Note_on_c, 0, 51, 77
1, 6794, Note_off_c, 0, 60, 64
1, 6794, Note_on_c, 0, 61, 53
1, 6794, Note_on_c, 0, 77, 14
1, 6794, Note_off_c, 0, 85, 64
1, 6795, Note_on_c, 0, 46, 87
1, 6795, Note_off_c, 0, 51, 64
1, 6795, Note_off_c, 0, 75, 64
1, 6795, Note_on_c, 0, 86, 11
1, 6795, Note_off_c, 0, 88, 64
1, 6796, Note_on_c, 0, 44, 95
1, 6796, Note_off_c, 0, 46, 64
1, 6796, Note_on_c, 0, 76, 37
1, 6796, Note_off_c, 0, 90, 64
1, 6797, Note_on_c, 0, 41, 100
1, 6797, Note_off_c, 0, 44, 64
1, 6797, Note_on_c, 0, 72, 34
1, 6797, Note_on_c, 0, 83, 11
1, 6798, Note_on_c, 0, 39, 97
1, 6798, Note_off_c, 0, 41, 64
1, 6798, Note_on_c, 0, 66, 51
1, 6798, Note_off_c, 0, 77, 64
1, 6799, Note_on_c, 0, 37, 98
1, 6799, Note_off_c, 0, 39, 64
1, 6799, Note_on_c, 0, 81, 27
1, 6799, Note_off_c, 0, 82, 64
1, 6800, Note_on_c, 0, 36, 98
1, 6800, Note_off_c, 0, 37, 64
1, 6800, Note_off_c, 0, 83, 64
1, 6801, Note_on_c, 0, 35, 96
1, 6801, Note_off_c, 0, 36, 64
1, 6801, Note_off_c, 0, 68, 64
1, 6801, Note_on_c, 0, 85, 21
1, 6802, Note_on_c, 0, 34, 96
1, 6802, Note_off_c, 0, 35, 64
1, 6802, Note_off_c, 0, 72, 64
1, 6803, Note_on_c, 0, 33, 96
1, 6803, Note_off_c, 0, 34, 64
1, 6803, Note_on_c, 0, 70, 30
1, 6803, Note_on_c, 0, 72, 33
1, 6803, Note_on_c, 0, 83, 27
1, 6803, Note_off_c, 0, 86, 64
1, 6804, Note_on_c, 0, 32, 96
1, 6804, Note_off_c, 0, 33, 64
1, 6804, Note_on_c, 0, 86, 32
1, 6804, Note_on_c, 0, 87, 13
1, 6804, Note_on_c, 0, 90, 22
1, 6805, Note_on_c, 0, 48, 31
1, 6806, Note_on_c, 0, 31, 93
1, 6806, Note_off_c, 0, 32, 64
1, 6806, Note_on_c, 0, 74, 36
1, 6806, Note_off_c, 0, 76, 64
1, 6806, Note_off_c, 0, 79, 64
1, 6806, Note_on_c, 0, 80, 44
1, 6807, Note_off_c, 0, 48, 64
1, 6807, Note_off_c, 0, 70, 64
1, 6807, Note_off_c, 0, 72, 64
1, 6807, Note_on_c, 0, 88, 26
1, 6807, Note_on_c, 0, 91, 18
1, 6807, Note_on_c, 0, 94, 15
1, 6808, Note_on_c, 0, 30, 82
1, 6808, Note_off_c, 0, 31, 64
1, 6808, Note_on_c, 0, 72, 35
1, 6808, Note_off_c, 0, 85, 64
1, 6809, Note_on_c, 0, 77, 36
1, 6809, Note_off_c, 0, 81, 64
1, 6809, Note_off_c, 0, 90, 64
1, 6810, Note_off_c, 0, 87, 64
1, 6811, Note_off_c, 0, 30, 64
1, 6811, Note_off_c, 0, 74, 64
1, 6811, Note_on_c, 0, 75, 33
1, 6811, Note_on_c, 0, 82, 33
1, 6811, Note_off_c, 0, 94, 64
1, 6812, Note_on_c, 0, 37, 69
1, 6812, Note_on_c, 0, 70, 34
1, 6812, Note_off_c, 0, 72, 64
1, 6812, Note_off_c, 0, 77, 64
1, 6813, Note_on_c, 0, 31, 74
1, 6813, Note_off_c, 0, 37, 64
1, 6813, Note_on_c, 0, 54, 53
1, 6813, Note_on_c, 0, 64, 37
1, 6813, Note_on_c, 0, 74, 37
1, 6813, Note_off_c, 0, 75, 64
1, 6813, Note_on_c, 0, 89, 32
1, 6814, Note_on_c, 0, 30, 79
1, 6814, Note_off_c, 0, 31, 64
1, 6814, Note_off_c, 0, 91, 64
1, 6815, Note_on_c, 0, 29, 79
1, 6815, Note_off_c, 0, 30, 64
1, 6815, Note_on_c, 0, 49, 57
1, 6815, Note_off_c, 0, 54, 64
1, 6815, Note_off_c, 0, 64, 64
1, 6815, Note_on_c, 0, 77, 29
1, 6815, Note_off_c, 0, 83, 64
1, 6816, Note_off_c, 0, 29, 64
1, 6816, Note_on_c, 0, 30, 77
1, 6816, Note_off_c, 0, 61, 64
1, 6816, Note_on_c, 0, 64, 40
1, 6816, Note_off_c, 0, 74, 64
1, 6816, Note_on_c, 0, 83, 35
1, 6816, Note_on_c, 0, 87, 15
1, 6817, Note_off_c, 0, 66, 64
1, 6817, Note_on_c, 0, 69, 29
1, 6817, Note_off_c, 0, 70, 64
1, 6817, Note_off_c, 0, 88, 64
1, 6818, Note_on_c, 0, 48, 55
1, 6818, Note_off_c, 0, 49, 64
1, 6818, Note_on_c, 0, 63, 26
1, 6818, Note_off_c, 0, 64, 64
1, 6818, Note_off_c, 0, 86, 64
1, 6818, Note_off_c, 0, 89, 64
1, 6819, Note_on_c, 0, 29, 73
1, 6819, Note_off_c, 0, 30, 64
1, 6819, Note_on_c, 0, 58, 38
1, 6819, Note_on_c, 0, 66, 31
1, 6819, Note_off_c, 0, 69, 64
1, 6819, Note_off_c, 0, 77, 64
1, 6819, Note_off_c, 0, 83, 64
1, 6819, Note_off_c, 0, 87, 64
1, 6820, Note_off_c, 0, 48, 64
1, 6820, Note_on_c, 0, 49, 60
1, 6820, Note_on_c, 0, 85, 13
1, 6821, Note_off_c, 0, 63, 64
1, 6821, Note_on_c, 0, 74, 20
1, 6821, Note_on_c, 0, 89, 9
1, 6822, Note_off_c, 0, 29, 64
1, 6822, Note_on_c, 0, 30, 80
1, 6822, Note_off_c, 0, 49, 64
1, 6822, Note_off_c, 0, 58, 64
1, 6822, Note_on_c, 0, 61, 30
1, 6822, Note_off_c, 0, 80, 64
1, 6822, Note_on_c, 0, 81, 17
1, 6822, Note_on_c, 0, 87, 9
1, 6825, Note_off_c, 0, 61, 64
1, 6825, Note_off_c, 0, 74, 64
1, 6825, Note_off_c, 0, 81, 64
1, 6825, Note_off_c, 0, 87, 64
1, 6825, Note_off_c, 0, 89, 64
1, 6826, Note_on_c, 0, 80, 23
1, 6826, Note_off_c, 0, 85, 64
1, 6828, Note_off_c, 0, 30, 64
1, 6828, Note_on_c, 0, 33, 72
1, 6828, Note_off_c, 0, 66, 64
1, 6828, Note_on_c, 0, 72, 47
1, 6828, Note_on_c, 0, 76, 29
1, 6828, Note_off_c, 0, 82, 64
1, 6829, Note_off_c, 0, 33, 64
1, 6829, Note_on_c, 0, 34, 65
1, 6829, Note_on_c, 0, 63, 45
1, 6829, Note_on_c, 0, 67, 44
1, 6829, Note_on_c, 0, 78, 34
1, 6829, Note_on_c, 0, 82, 35
1, 6829, Note_on_c, 0, 89, 30
1, 6829, Note_on_c, 0, 92, 28
1, 6829, Note_on_c, 0, 93, 26
1, 6830, Note_off_c, 0, 34, 64
1, 6830, Note_off_c, 0, 76, 64
1, 6830, Note_off_c, 0, 80, 64
1, 6830, Note_on_c, 0, 81, 32
1, 6830, Note_on_c, 0, 86, 34
1, 6831, Note_on_c, 0, 54, 69
1, 6831, Note_off_c, 0, 63, 64
1, 6831, Note_on_c, 0, 64, 49
1, 6831, Note_off_c, 0, 67, 64
1, 6831, Note_on_c, 0, 68, 41
1, 6831, Note_on_c, 0, 69, 41
1, 6831, Note_off_c, 0, 78, 64
1, 6831, Note_on_c, 0, 83, 20
1, 6832, Note_on_c, 0, 48, 82
1, 6832, Note_off_c, 0, 54, 64
1, 6832, Note_off_c, 0, 82, 64
1, 6832, Note_off_c, 0, 86, 64
1, 6832, Note_off_c, 0, 89, 64
1, 6832, Note_off_c, 0, 92, 64
1, 6832, Note_off_c, 0, 93, 64
1, 6833, Note_on_c, 0, 45, 94
1, 6833, Note_off_c, 0, 48, 64
1, 6833, Note_off_c, 0, 68, 64
1, 6833, Note_off_c, 0, 69, 64
1, 6834, Note_on_c, 0, 42, 98
1, 6834, Note_off_c, 0, 45, 64
1, 6834, Note_off_c, 0, 81, 64
1, 6835, Note_on_c, 0, 40, 99
1, 6835, Note_off_c, 0, 42, 64
1, 6835, Note_off_c, 0, 64, 64
1, 6835, Note_off_c, 0, 72, 64
1, 6836, Note_on_c, 0, 38, 98
1, 6836, Note_off_c, 0, 40, 64
1, 6836, Note_on_c, 0, 54, 23
1, 6836, Note_on_c, 0, 72, 11
1, 6836, Note_on_c, 0, 74, 10
1, 6837, Note_on_c, 0, 37, 98
1, 6837, Note_off_c, 0, 38, 64
1, 6837, Note_on_c, 0, 80, 12
1, 6838, Note_on_c, 0, 35, 97
1, 6838, Note_off_c, 0, 37, 64
1, 6839, Note_on_c, 0, 34, 96
1, 6839, Note_off_c, 0, 35, 64
1, 6839, Note_on_c, 0, 78, 11
1, 6840, Note_on_c, 0, 33, 95
1, 6840, Note_off_c, 0, 34, 64
1, 6840, Note_off_c, 0, 54, 64
1, 6840, Note_on_c, 0, 64, 11
1, 6840, Note_on_c, 0, 82, 15
1, 6841, Note_on_c, 0, 54, 25
1, 6841, Note_off_c, 0, 72, 64
1, 6842, Note_on_c, 0, 32, 96
1, 6842, Note_off_c, 0, 33, 64
1, 6843, Note_on_c, 0, 31, 94
1, 6843, Note_off_c, 0, 32, 64
1, 6843, Note_off_c, 0, 64, 64
1, 6843, Note_off_c, 0, 80, 64
1, 6844, Note_on_c, 0, 70, 10
1, 6844, Note_off_c, 0, 74, 64
1, 6844, Note_off_c, 0, 78, 64
1, 6846, Note_on_c, 0, 30, 76
1, 6846, Note_off_c, 0, 31, 64
1, 6846, Note_on_c, 0, 61, 33
1, 6846, Note_off_c, 0, 82, 64
1, 6846, Note_off_c, 0, 83, 64
1, 6847, Note_off_c, 0, 70, 64
1, 6848, Note_off_c, 0, 30, 64
1, 6848, Note_on_c, 0, 82, 50
1, 6848, Note_on_c, 0, 84, 42
1, 6848, Note_on_c, 0, 86, 35
1, 6848, Note_on_c, 0, 88, 38
1, 6848, Note_on_c, 0, 90, 36
1, 6848, Note_on_c, 0, 91, 27
1, 6849, Note_off_c, 0, 54, 64
1, 6849, Note_on_c, 0, 70, 22
1, 6849, Note_on_c, 0, 78, 56
1, 6849, Note_on_c, 0, 92, 19
1, 6850, Note_on_c, 0, 36, 69
1, 6850, Note_on_c, 0, 73, 53
1, 6850, Note_on_c, 0, 76, 50
1, 6850, Note_on_c, 0, 89, 34
1, 6851, Note_on_c, 0, 30, 77
1, 6851, Note_off_c, 0, 36, 64
1, 6851, Note_on_c, 0, 80, 52
1, 6851, Note_on_c, 0, 87, 19
1, 6852, Note_on_c, 0, 29, 79
1, 6852, Note_off_c, 0, 30, 64
1, 6852, Note_off_c, 0, 70, 64
1, 6852, Note_on_c, 0, 71, 50
1, 6852, Note_off_c, 0, 78, 64
1, 6852, Note_off_c, 0, 86, 64
1, 6852, Note_off_c, 0, 90, 64
1, 6853, Note_off_c, 0, 29, 64
1, 6853, Note_on_c, 0, 30, 77
1, 6853, Note_off_c, 0, 61, 64
1, 6853, Note_off_c, 0, 76, 64
1, 6853, Note_off_c, 0, 91, 64
1, 6854, Note_off_c, 0, 73, 64
1, 6854, Note_on_c, 0, 74, 35
1, 6854, Note_on_c, 0, 76, 35
1, 6854, Note_off_c, 0, 87, 64
1, 6854, Note_on_c, 0, 91, 18
1, 6855, Note_off_c, 0, 71, 64
1, 6855, Note_on_c, 0, 77, 36
1, 6855, Note_off_c, 0, 88, 64
1, 6855, Note_off_c, 0, 92, 64
1, 6856, Note_on_c, 0, 29, 74
1, 6856, Note_off_c, 0, 30, 64
1, 6856, Note_on_c, 0, 54, 31
1, 6856, Note_on_c, 0, 72, 47
1, 6856, Note_off_c, 0, 74, 64
1, 6856, Note_on_c, 0, 75, 43
1, 6856, Note_off_c, 0, 76, 64
1, 6856, Note_on_c, 0, 83, 40
1, 6856, Note_off_c, 0, 84, 64
1, 6856, Note_on_c, 0, 88, 25
1, 6857, Note_on_c, 0, 70, 33
1, 6857, Note_on_c, 0, 81, 41
1, 6857, Note_off_c, 0, 82, 64
1, 6857, Note_on_c, 0, 90, 35
1, 6858, Note_off_c, 0, 54, 64
1, 6858, Note_off_c, 0, 91, 64
1, 6859, Note_off_c, 0, 29, 64
1, 6859, Note_on_c, 0, 30, 79
1, 6859, Note_on_c, 0, 64, 34
1, 6859, Note_off_c, 0, 70, 64
1, 6859, Note_on_c, 0, 71, 43
1, 6859, Note_off_c, 0, 72, 64
1, 6859, Note_off_c, 0, 77, 64
1, 6859, Note_on_c, 0, 97, 12
1, 6860, Note_on_c, 0, 49, 61
1, 6860, Note_on_c, 0, 84, 26
1, 6861, Note_on_c, 0, 67, 33
1, 6861, Note_on_c, 0, 70, 24
1, 6861, Note_off_c, 0, 71, 64
1, 6861, Note_on_c, 0, 72, 39
1, 6861, Note_off_c, 0, 80, 64
1, 6861, Note_off_c, 0, 88, 64
1, 6862, Note_on_c, 0, 29, 80
1, 6862, Note_off_c, 0, 30, 64
1, 6862, Note_off_c, 0, 75, 64
1, 6862, Note_on_c, 0, 76, 36
1, 6862, Note_on_c, 0, 78, 45
1, 6862, Note_on_c, 0, 85, 22
1, 6862, Note_off_c, 0, 97, 64
1, 6863, Note_off_c, 0, 49, 64
1, 6863, Note_off_c, 0, 64, 64
1, 6863, Note_off_c, 0, 67, 64
1, 6863, Note_on_c, 0, 75, 34
1, 6863, Note_on_c, 0, 79, 37
1, 6863, Note_on_c, 0, 80, 30
1, 6863, Note_off_c, 0, 84, 64
1, 6863, Note_on_c, 0, 86, 19
1, 6863, Note_off_c, 0, 89, 64
1, 6864, Note_off_c, 0, 29, 64
1, 6864, Note_on_c, 0, 30, 75
1, 6864, Note_on_c, 0, 64, 30
1, 6864, Note_off_c, 0, 70, 64
1, 6864, Note_off_c, 0, 72, 64
1, 6864, Note_on_c, 0, 73, 32
1, 6864, Note_off_c, 0, 76, 64
1, 6864, Note_off_c, 0, 78, 64
1, 6865, Note_on_c, 0, 67, 31
1, 6865, Note_on_c, 0, 69, 28
1, 6865, Note_off_c, 0, 75, 64
1, 6865, Note_on_c, 0, 78, 51
1, 6865, Note_off_c, 0, 79, 64
1, 6865, Note_off_c, 0, 81, 64
1, 6865, Note_on_c, 0, 82, 52
1, 6866, Note_off_c, 0, 30, 64
1, 6866, Note_on_c, 0, 34, 69
1, 6866, Note_off_c, 0, 64, 64
1, 6866, Note_off_c, 0, 73, 64
1, 6866, Note_on_c, 0, 75, 29
1, 6866, Note_off_c, 0, 80, 64
1, 6866, Note_off_c, 0, 85, 64
1, 6866, Note_off_c, 0, 86, 64
1, 6866, Note_on_c, 0, 87, 41
1, 6866, Note_on_c, 0, 89, 44
1, 6867, Note_on_c, 0, 66, 48
1, 6867, Note_off_c, 0, 67, 64
1, 6867, Note_on_c, 0, 71, 34
1, 6867, Note_off_c, 0, 83, 64
1, 6867, Note_on_c, 0, 86, 52
1, 6867, Note_on_c, 0, 92, 32
1, 6867, Note_on_c, 0, 95, 31
1, 6867, Note_on_c, 0, 97, 28
1, 6868, Note_off_c, 0, 34, 64
1, 6868, Note_off_c, 0, 69, 64
1, 6868, Note_on_c, 0, 74, 49
1, 6868, Note_off_c, 0, 75, 64
1, 6868, Note_on_c, 0, 83, 56
1, 6868, Note_off_c, 0, 87, 64
1, 6868, Note_on_c, 0, 88, 43
1, 6869, Note_on_c, 0, 51, 77
1, 6869, Note_off_c, 0, 66, 64
1, 6869, Note_on_c, 0, 81, 39
1, 6869, Note_on_c, 0, 87, 31
1, 6870, Note_on_c, 0, 46, 88
1, 6870, Note_off_c, 0, 51, 64
1, 6870, Note_on_c, 0, 77, 42
1, 6870, Note_off_c, 0, 78, 64
1, 6870, Note_on_c, 0, 79, 54
1, 6870, Note_on_c, 0, 84, 34
1, 6870, Note_off_c, 0, 90, 64
1, 6871, Note_on_c, 0, 43, 94
1, 6871, Note_off_c, 0, 46, 64
1, 6871, Note_on_c, 0, 64, 26
1, 6871, Note_off_c, 0, 71, 64
1, 6871, Note_on_c, 0, 73, 39
1, 6871, Note_off_c, 0, 74, 64
1, 6871, Note_on_c, 0, 75, 30
1, 6871, Note_on_c, 0, 80, 45
1, 6871, Note_off_c, 0, 81, 64
1, 6872, Note_on_c, 0, 41, 99
1, 6872, Note_off_c, 0, 43, 64
1, 6872, Note_on_c, 0, 68, 21
1, 6872, Note_on_c, 0, 76, 35
1, 6872, Note_off_c, 0, 77, 64
1, 6872, Note_off_c, 0, 79, 64
1, 6872, Note_on_c, 0, 81, 30
1, 6872, Note_off_c, 0, 82, 64
1, 6872, Note_off_c, 0, 84, 64
1, 6872, Note_off_c, 0, 97, 64
1, 6873, Note_on_c, 0, 39, 96
1, 6873, Note_off_c, 0, 41, 64
1, 6873, Note_on_c, 0, 79, 39
1, 6873, Note_off_c, 0, 86, 64
1, 6873, Note_off_c, 0, 95, 64
1, 6874, Note_on_c, 0, 37, 98
1, 6874, Note_off_c, 0, 39, 64
1, 6874, Note_off_c, 0, 64, 64
1, 6874, Note_off_c, 0, 76, 64
1, 6874, Note_on_c, 0, 77, 44
1, 6874, Note_off_c, 0, 81, 64
1, 6874, Note_on_c, 0, 82, 33
1, 6874, Note_on_c, 0, 90, 19
1, 6875, Note_on_c, 0, 36, 97
1, 6875, Note_off_c, 0, 37, 64
1, 6875, Note_off_c, 0, 68, 64
1, 6875, Note_off_c, 0, 83, 64
1, 6875, Note_on_c, 0, 84, 30
1, 6875, Note_off_c, 0, 89, 64
1, 6875, Note_off_c, 0, 92, 64
1, 6876, Note_on_c, 0, 35, 96
1, 6876, Note_off_c, 0, 36, 64
1, 6876, Note_off_c, 0, 80, 64
1, 6876, Note_on_c, 0, 86, 16
1, 6876, Note_off_c, 0, 88, 64
1, 6877, Note_on_c, 0, 34, 96
1, 6877, Note_off_c, 0, 35, 64
1, 6877, Note_off_c, 0, 87, 64
1, 6877, Note_on_c, 0, 88, 24
1, 6877, Note_on_c, 0, 92, 11
1, 6878, Note_on_c, 0, 33, 95
1, 6878, Note_off_c, 0, 34, 64
1, 6878, Note_off_c, 0, 75, 64
1, 6878, Note_on_c, 0, 76, 36
1, 6878, Note_off_c, 0, 77, 64
1, 6878, Note_on_c, 0, 78, 33
1, 6878, Note_off_c, 0, 79, 64
1, 6879, Note_on_c, 0, 32, 96
1, 6879, Note_off_c, 0, 33, 64
1, 6879, Note_on_c, 0, 71, 27
1, 6879, Note_off_c, 0, 73, 64
1, 6879, Note_on_c, 0, 80, 35
1, 6879, Note_off_c, 0, 84, 64
1, 6880, Note_on_c, 0, 75, 23
1, 6880, Note_off_c, 0, 76, 64
1, 6880, Note_off_c, 0, 78, 64
1, 6880, Note_off_c, 0, 86, 64
1, 6881, Note_on_c, 0, 31, 93
1, 6881, Note_off_c, 0, 32, 64
1, 6881, Note_on_c, 0, 84, 16
1, 6881, Note_off_c, 0, 88, 64
1, 6881, Note_off_c, 0, 90, 64
1, 6882, Note_off_c, 0, 92, 64
1, 6883, Note_on_c, 0, 30, 81
1, 6883, Note_off_c, 0, 31, 64
1, 6883, Note_off_c, 0, 71, 64
1, 6883, Note_off_c, 0, 75, 64
1, 6884, Note_off_c, 0, 84, 64
1, 6884, Note_on_c, 0, 85, 15
1, 6885, Note_off_c, 0, 30, 64
1, 6885, Note_on_c, 0, 58, 38
1, 6885, Note_on_c, 0, 72, 38
1, 6885, Note_on_c, 0, 81, 42
1, 6885, Note_off_c, 0, 82, 64
1, 6885, Note_on_c, 0, 83, 43
1, 6885, Note_on_c, 0, 86, 37
1, 6886, Note_on_c, 0, 61, 38
1, 6886, Note_on_c, 0, 76, 23
1, 6886, Note_on_c, 0, 78, 46
1, 6886, Note_off_c, 0, 80, 64
1, 6886, Note_on_c, 0, 92, 33
1, 6886, Note_on_c, 0, 94, 24
1, 6887, Note_on_c, 0, 36, 69
1, 6887, Note_off_c, 0, 58, 64
1, 6887, Note_on_c, 0, 80, 37
1, 6887, Note_on_c, 0, 84, 49
1, 6887, Note_off_c, 0, 85, 64
1, 6887, Note_on_c, 0, 87, 36
1, 6887, Note_on_c, 0, 91, 28
1, 6888, Note_on_c, 0, 31, 76
1, 6888, Note_off_c, 0, 36, 64
1, 6888, Note_on_c, 0, 75, 46
1, 6888, Note_on_c, 0, 82, 42
1, 6888, Note_off_c, 0, 83, 64
1, 6888, Note_on_c, 0, 85, 53
1, 6888, Note_off_c, 0, 86, 64
1, 6888, Note_on_c, 0, 95, 17
1, 6889, Note_on_c, 0, 30, 80
1, 6889, Note_off_c, 0, 31, 64
1, 6889, Note_on_c, 0, 49, 59
1, 6889, Note_off_c, 0, 61, 64
1, 6889, Note_off_c, 0, 72, 64
1, 6889, Note_off_c, 0, 76, 64
1, 6889, Note_off_c, 0, 80, 64
1, 6889, Note_on_c, 0, 89, 34
1, 6890, Note_on_c, 0, 29, 79
1, 6890, Note_off_c, 0, 30, 64
1, 6890, Note_on_c, 0, 63, 19
1, 6890, Note_on_c, 0, 68, 30
1, 6890, Note_on_c, 0, 77, 42
1, 6890, Note_on_c, 0, 88, 27
1, 6891, Note_off_c, 0, 29, 64
1, 6891, Note_on_c, 0, 30, 76
1, 6891, Note_off_c, 0, 49, 64
1, 6891, Note_on_c, 0, 71, 29
1, 6891, Note_off_c, 0, 94, 64
1, 6892, Note_off_c, 0, 68, 64
1, 6892, Note_on_c, 0, 70, 34
1, 6892, Note_on_c, 0, 76, 31
1, 6892, Note_off_c, 0, 77, 64
1, 6892, Note_on_c, 0, 80, 31
1, 6892, Note_off_c, 0, 81, 64
1, 6892, Note_off_c, 0, 82, 64
1, 6892, Note_off_c, 0, 84, 64
1, 6892, Note_on_c, 0, 86, 21
1, 6892, Note_off_c, 0, 92, 64
1, 6893, Note_on_c, 0, 29, 74
1, 6893, Note_off_c, 0, 30, 64
1, 6893, Note_off_c, 0, 63, 64
1, 6893, Note_off_c, 0, 87, 64
1, 6893, Note_off_c, 0, 95, 64
1, 6894, Note_on_c, 0, 49, 46
1, 6894, Note_off_c, 0, 71, 64
1, 6894, Note_on_c, 0, 72, 30
1, 6894, Note_off_c, 0, 75, 64
1, 6894, Note_off_c, 0, 89, 64
1, 6895, Note_on_c, 0, 75, 39
1, 6895, Note_off_c, 0, 76, 64
1, 6895, Note_off_c, 0, 86, 64
1, 6896, Note_on_c, 0, 42, 66
1, 6896, Note_off_c, 0, 49, 64
1, 6896, Note_off_c, 0, 72, 64
1, 6896, Note_on_c, 0, 73, 37
1, 6896, Note_off_c, 0, 80, 64
1, 6896, Note_on_c, 0, 82, 35
1, 6896, Note_on_c, 0, 83, 37
1, 6897, Note_off_c, 0, 29, 64
1, 6897, Note_on_c, 0, 30, 74
1, 6897, Note_off_c, 0, 42, 64
1, 6897, Note_on_c, 0, 61, 27
1, 6897, Note_on_c, 0, 71, 29
1, 6897, Note_off_c, 0, 78, 64
1, 6897, Note_on_c, 0, 79, 32
1, 6897, Note_on_c, 0, 80, 33
1, 6897, Note_on_c, 0, 84, 14
1, 6897, Note_on_c, 0, 89, 26
1, 6898, Note_off_c, 0, 30, 64
1, 6898, Note_on_c, 0, 31, 78
1, 6898, Note_off_c, 0, 70, 64
1, 6898, Note_off_c, 0, 73, 64
1, 6898, Note_on_c, 0, 74, 36
1, 6898, Note_off_c, 0, 75, 64
1, 6898, Note_on_c, 0, 76, 29
1, 6898, Note_off_c, 0, 82, 64
1, 6899, Note_on_c, 0, 30, 79
1, 6899, Note_off_c, 0, 31, 64
1, 6899, Note_on_c, 0, 70, 22
1, 6899, Note_off_c, 0, 71, 64
1, 6899, Note_off_c, 0, 85, 64
1, 6900, Note_on_c, 0, 29, 77
1, 6900, Note_off_c, 0, 30, 64
1, 6900, Note_off_c, 0, 61, 64
1, 6900, Note_off_c, 0, 76, 64
1, 6900, Note_off_c, 0, 83, 64
1, 6900, Note_off_c, 0, 84, 64
1, 6901, Note_on_c, 0, 63, 15
1, 6901, Note_off_c, 0, 74, 64
1, 6901, Note_on_c, 0, 75, 43
1, 6901, Note_off_c, 0, 80, 64
1, 6901, Note_off_c, 0, 88, 64
1, 6901, Note_off_c, 0, 91, 64
1, 6902, Note_off_c, 0, 29, 64
1, 6902, Note_on_c, 0, 30, 74
1, 6902, Note_off_c, 0, 70, 64
1, 6902, Note_on_c, 0, 77, 34
1, 6902, Note_on_c, 0, 82, 45
1, 6903, Note_off_c, 0, 30, 64
1, 6903, Note_on_c, 0, 34, 72
1, 6903, Note_off_c, 0, 79, 64
1, 6903, Note_off_c, 0, 89, 64
1, 6904, Note_off_c, 0, 34, 64
1, 6904, Note_off_c, 0, 63, 64
1, 6904, Note_on_c, 0, 72, 41
1, 6904, Note_on_c, 0, 79, 31
1, 6904, Note_on_c, 0, 81, 45
1, 6904, Note_on_c, 0, 86, 38
1, 6904, Note_on_c, 0, 88, 38
1, 6904, Note_on_c, 0, 90, 35
1, 6904, Note_on_c, 0, 99, 19
1, 6906, Note_on_c, 0, 53, 71
1, 6906, Note_on_c, 0, 80, 33
1, 6907, Note_on_c, 0, 48, 84
1, 6907, Note_off_c, 0, 53, 64
1, 6907, Note_off_c, 0, 77, 64
1, 6907, Note_off_c, 0, 79, 64
1, 6907, Note_off_c, 0, 81, 64
1, 6907, Note_off_c, 0, 99, 64
1, 6908, Note_on_c, 0, 45, 93
1, 6908, Note_off_c, 0, 48, 64
1, 6908, Note_off_c, 0, 75, 64
1, 6908, Note_on_c, 0, 76, 17
1, 6908, Note_on_c, 0, 85, 19
1, 6909, Note_on_c, 0, 42, 98
1, 6909, Note_off_c, 0, 45, 64
1, 6909, Note_on_c, 0, 74, 22
1, 6909, Note_off_c, 0, 90, 64
1, 6910, Note_on_c, 0, 40, 97
1, 6910, Note_off_c, 0, 42, 64
1, 6910, Note_off_c, 0, 72, 64
1, 6910, Note_off_c, 0, 88, 64
1, 6911, Note_on_c, 0, 38, 97
1, 6911, Note_off_c, 0, 40, 64
1, 6911, Note_on_c, 0, 83, 15
1, 6911, Note_off_c, 0, 85, 64
1, 6912, Note_on_c, 0, 37, 97
1, 6912, Note_off_c, 0, 38, 64
1, 6912, Note_on_c, 0, 72, 20
1, 6912, Note_off_c, 0, 74, 64
1, 6912, Note_off_c, 0, 76, 64
1, 6913, Note_on_c, 0, 35, 96
1, 6913, Note_off_c, 0, 37, 64
1, 6913, Note_off_c, 0, 82, 64
1, 6914, Note_on_c, 0, 34, 95
1, 6914, Note_off_c, 0, 35, 64
1, 6914, Note_on_c, 0, 84, 28
1, 6915, Note_on_c, 0, 33, 95
1, 6915, Note_off_c, 0, 34, 64
1, 6915, Note_on_c, 0, 85, 27
1, 6915, Note_off_c, 0, 86, 64
1, 6916, Note_on_c, 0, 32, 95
1, 6916, Note_off_c, 0, 33, 64
1, 6916, Note_off_c, 0, 83, 64
1, 6917, Note_on_c, 0, 76, 21
1, 6917, Note_on_c, 0, 79, 23
1, 6917, Note_on_c, 0, 83, 31
1, 6917, Note_on_c, 0, 90, 19
1, 6918, Note_on_c, 0, 31, 94
1, 6918, Note_off_c, 0, 32, 64
1, 6918, Note_off_c, 0, 80, 64
1, 6918, Note_off_c, 0, 84, 64
1, 6918, Note_on_c, 0, 89, 12
1, 6920, Note_off_c, 0, 72, 64
1, 6920, Note_off_c, 0, 76, 64
1, 6920, Note_on_c, 0, 78, 30
1, 6920, Note_off_c, 0, 79, 64
1, 6920, Note_off_c, 0, 85, 64
1, 6920, Note_off_c, 0, 90, 64
1, 6921, Note_on_c, 0, 30, 74
1, 6921, Note_off_c, 0, 31, 64
1, 6921, Note_on_c, 0, 76, 27
1, 6921, Note_on_c, 0, 84, 15
1, 6921, Note_off_c, 0, 89, 64
1, 6922, Note_off_c, 0, 78, 64
1, 6922, Note_on_c, 0, 79, 31
1, 6923, Note_off_c, 0, 30, 64
1, 6923, Note_on_c, 0, 70, 14
1, 6923, Note_on_c, 0, 80, 28
1, 6923, Note_on_c, 0, 82, 34
1, 6923, Note_on_c, 0, 85, 34
1, 6924, Note_on_c, 0, 72, 16
1, 6924, Note_off_c, 0, 76, 64
1, 6924, Note_off_c, 0, 84, 64
1, 6924, Note_on_c, 0, 90, 16
1, 6925, Note_on_c, 0, 32, 69
1, 6925, Note_on_c, 0, 61, 28
1, 6925, Note_on_c, 0, 68, 14
1, 6925, Note_on_c, 0, 74, 13
1, 6925, Note_on_c, 0, 76, 11
1, 6925, Note_on_c, 0, 89, 16
1, 6926, Note_on_c, 0, 31, 77
1, 6926, Note_off_c, 0, 32, 64
1, 6926, Note_off_c, 0, 80, 64
1, 6926, Note_on_c, 0, 87, 16
1, 6927, Note_on_c, 0, 29, 79
1, 6927, Note_off_c, 0, 31, 64
1, 6927, Note_off_c, 0, 72, 64
1, 6927, Note_on_c, 0, 81, 18
1, 6927, Note_off_c, 0, 82, 64
1, 6928, Note_off_c, 0, 70, 64
1, 6928, Note_off_c, 0, 76, 64
1, 6928, Note_off_c, 0, 90, 64
1, 6929, Note_off_c, 0, 29, 64
1, 6929, Note_on_c, 0, 30, 75
1, 6929, Note_off_c, 0, 74, 64
1, 6929, Note_off_c, 0, 85, 64
1, 6930, Note_off_c, 0, 61, 64
1, 6930, Note_off_c, 0, 68, 64
1, 6930, Note_on_c, 0, 77, 23
1, 6930, Note_off_c, 0, 79, 64
1, 6930, Note_off_c, 0, 89, 64
1, 6931, Note_on_c, 0, 29, 74
1, 6931, Note_off_c, 0, 30, 64
1, 6931, Note_off_c, 0, 81, 64
1, 6931, Note_off_c, 0, 87, 64
1, 6933, Note_on_c, 0, 76, 29
1, 6933, Note_on_c, 0, 81, 30
1, 6933, Note_on_c, 0, 85, 28
1, 6934, Note_off_c, 0, 29, 64
1, 6934, Note_on_c, 0, 30, 79
1, 6934, Note_on_c, 0, 54, 53
1, 6934, Note_on_c, 0, 61, 30
1, 6934, Note_on_c, 0, 68, 19
1, 6934, Note_off_c, 0, 77, 64
1, 6934, Note_on_c, 0, 78, 31
1, 6934, Note_on_c, 0, 82, 21
1, 6935, Note_on_c, 0, 49, 59
1, 6935, Note_on_c, 0, 79, 20
1, 6936, Note_off_c, 0, 54, 64
1, 6936, Note_off_c, 0, 78, 64
1, 6936, Note_on_c, 0, 80, 23
1, 6936, Note_off_c, 0, 81, 64
1, 6936, Note_on_c, 0, 84, 16
1, 6937, Note_on_c, 0, 29, 79
1, 6937, Note_off_c, 0, 30, 64
1, 6937, Note_off_c, 0, 82, 64
1, 6938, Note_off_c, 0, 29, 64
1, 6938, Note_on_c, 0, 30, 77
1, 6938, Note_off_c, 0, 68, 64
1, 6938, Note_off_c, 0, 79, 64
1, 6938, Note_off_c, 0, 83, 64
1, 6939, Note_off_c, 0, 61, 64
1, 6939, Note_off_c, 0, 84, 64
1, 6940, Note_off_c, 0, 49, 64
1, 6940, Note_on_c, 0, 73, 40
1, 6940, Note_off_c, 0, 85, 64
1, 6941, Note_off_c, 0, 30, 64
1, 6941, Note_on_c, 0, 34, 70
1, 6941, Note_off_c, 0, 76, 64
1, 6941, Note_on_c, 0, 82, 32
1, 6941, Note_on_c, 0, 87, 32
1, 6942, Note_off_c, 0, 34, 64
1, 6942, Note_on_c, 0, 76, 32
1, 6942, Note_on_c, 0, 79, 38
1, 6942, Note_off_c, 0, 80, 64
1, 6942, Note_on_c, 0, 84, 37
1, 6942, Note_on_c, 0, 90, 32
1, 6943, Note_on_c, 0, 64, 50
1, 6943, Note_on_c, 0, 72, 44
1, 6943, Note_off_c, 0, 73, 64
1, 6943, Note_on_c, 0, 81, 28
1, 6943, Note_on_c, 0, 86, 31
1, 6943, Note_off_c, 0, 87, 64
1, 6943, Note_on_c, 0, 89, 29
1, 6944, Note_on_c, 0, 51, 78
1, 6944, Note_off_c, 0, 76, 64
1, 6944, Note_on_c, 0, 78, 15
1, 6944, Note_on_c, 0, 87, 18
1, 6945, Note_on_c, 0, 46, 89
1, 6945, Note_off_c, 0, 51, 64
1, 6945, Note_off_c, 0, 64, 64
1, 6945, Note_on_c, 0, 80, 14
1, 6945, Note_off_c, 0, 82, 64
1, 6945, Note_on_c, 0, 85, 30
1, 6945, Note_off_c, 0, 86, 64
1, 6945, Note_off_c, 0, 89, 64
1, 6946, Note_on_c, 0, 42, 96
1, 6946, Note_off_c, 0, 46, 64
1, 6946, Note_off_c, 0, 72, 64
1, 6946, Note_on_c, 0, 77, 13
1, 6946, Note_off_c, 0, 79, 64
1, 6946, Note_off_c, 0, 84, 64
1, 6947, Note_on_c, 0, 41, 100
1, 6947, Note_off_c, 0, 42, 64
1, 6948, Note_on_c, 0, 39, 97
1, 6948, Note_off_c, 0, 41, 64
1, 6948, Note_off_c, 0, 78, 64
1, 6948, Note_off_c, 0, 80, 64
1, 6948, Note_off_c, 0, 87, 64
1, 6948, Note_off_c, 0, 90, 64
1, 6949, Note_on_c, 0, 37, 98
1, 6949, Note_off_c, 0, 39, 64
1, 6949, Note_off_c, 0, 77, 64
1, 6949, Note_off_c, 0, 81, 64
1, 6949, Note_off_c, 0, 85, 64
1, 6950, Note_on_c, 0, 36, 97
1, 6950, Note_off_c, 0, 37, 64
1, 6951, Note_on_c, 0, 35, 96
1, 6951, Note_off_c, 0, 36, 64
1, 6952, Note_on_c, 0, 34, 96
1, 6952, Note_off_c, 0, 35, 64
1, 6952, Note_on_c, 0, 82, 23
1, 6952, Note_on_c, 0, 83, 27
1, 6952, Note_on_c, 0, 85, 23
1, 6952, Note_on_c, 0, 88, 15
1, 6953, Note_on_c, 0, 33, 96
1, 6953, Note_off_c, 0, 34, 64
1, 6953, Note_on_c, 0, 48, 26
1, 6953, Note_on_c, 0, 89, 13
1, 6954, Note_on_c, 0, 32, 96
1, 6954, Note_off_c, 0, 33, 64
1, 6955, Note_on_c, 0, 80, 23
1, 6956, Note_on_c, 0, 31, 93
1, 6956, Note_off_c, 0, 32, 64
1, 6956, Note_off_c, 0, 48, 64
1, 6956, Note_on_c, 0, 81, 17
1, 6957, Note_off_c, 0, 82, 64
1, 6957, Note_off_c, 0, 88, 64
1, 6958, Note_on_c, 0, 30, 80
1, 6958, Note_off_c, 0, 31, 64
1, 6958, Note_off_c, 0, 85, 64
1, 6958, Note_off_c, 0, 89, 64
1, 6959, Note_off_c, 0, 81, 64
1, 6960, Note_off_c, 0, 83, 64
1, 6961, Note_off_c, 0, 30, 64
1, 6961, Note_on_c, 0, 66, 19
1, 6961, Note_on_c, 0, 79, 25
1, 6961, Note_off_c, 0, 80, 64
1, 6961, Note_on_c, 0, 88, 15
1, 6962, Note_on_c, 0, 36, 71
1, 6962, Note_on_c, 0, 68, 17
1, 6962, Note_on_c, 0, 76, 34
1, 6962, Note_on_c, 0, 78, 32
1, 6962, Note_on_c, 0, 82, 32
1, 6962, Note_on_c, 0, 85, 17
1, 6963, Note_on_c, 0, 31, 75
1, 6963, Note_off_c, 0, 36, 64
1, 6963, Note_on_c, 0, 54, 52
1, 6963, Note_on_c, 0, 71, 27
1, 6964, Note_on_c, 0, 30, 80
1, 6964, Note_off_c, 0, 31, 64
1, 6964, Note_off_c, 0, 66, 64
1, 6964, Note_off_c, 0, 79, 64
1, 6964, Note_on_c, 0, 80, 27
1, 6964, Note_on_c, 0, 81, 26
1, 6964, Note_on_c, 0, 84, 16
1, 6964, Note_off_c, 0, 88, 64
1, 6965, Note_on_c, 0, 29, 79
1, 6965, Note_off_c, 0, 30, 64
1, 6965, Note_off_c, 0, 54, 64
1, 6965, Note_on_c, 0, 63, 20
1, 6965, Note_off_c, 0, 82, 64
1, 6966, Note_off_c, 0, 29, 64
1, 6966, Note_on_c, 0, 30, 75
1, 6966, Note_off_c, 0, 71, 64
1, 6966, Note_off_c, 0, 78, 64
1, 6967, Note_off_c, 0, 68, 64
1, 6967, Note_off_c, 0, 81, 64
1, 6967, Note_on_c, 0, 83, 26
1, 6967, Note_off_c, 0, 84, 64
1, 6968, Note_on_c, 0, 29, 74
1, 6968, Note_off_c, 0, 30, 64
1, 6968, Note_off_c, 0, 76, 64
1, 6968, Note_off_c, 0, 80, 64
1, 6968, Note_off_c, 0, 85, 64
1, 6969, Note_off_c, 0, 63, 64
1, 6970, Note_on_c, 0, 76, 24
1, 6970, Note_on_c, 0, 81, 27
1, 6970, Note_on_c, 0, 85, 28
1, 6971, Note_off_c, 0, 29, 64
1, 6971, Note_on_c, 0, 30, 73
1, 6971, Note_on_c, 0, 61, 30
1, 6971, Note_on_c, 0, 80, 23
1, 6971, Note_on_c, 0, 91, 10
1, 6972, Note_off_c, 0, 30, 64
1, 6972, Note_on_c, 0, 31, 76
1, 6972, Note_on_c, 0, 64, 32
1, 6972, Note_on_c, 0, 68, 20
1, 6972, Note_on_c, 0, 87, 9
1, 6973, Note_on_c, 0, 30, 79
1, 6973, Note_off_c, 0, 31, 64
1, 6973, Note_off_c, 0, 61, 64
1, 6973, Note_on_c, 0, 72, 19
1, 6973, Note_on_c, 0, 78, 18
1, 6973, Note_off_c, 0, 81, 64
1, 6974, Note_on_c, 0, 29, 80
1, 6974, Note_off_c, 0, 30, 64
1, 6974, Note_on_c, 0, 63, 25
1, 6974, Note_off_c, 0, 64, 64
1, 6975, Note_off_c, 0, 29, 64
1, 6975, Note_on_c, 0, 30, 78
1, 6975, Note_on_c, 0, 49, 58
1, 6975, Note_off_c, 0, 83, 64
1, 6975, Note_off_c, 0, 87, 64
1, 6976, Note_off_c, 0, 68, 64
1, 6976, Note_off_c, 0, 72, 64
1, 6976, Note_off_c, 0, 78, 64
1, 6976, Note_off_c, 0, 80, 64
1, 6976, Note_off_c, 0, 85, 64
1, 6976, Note_off_c, 0, 91, 64
1, 6977, Note_off_c, 0, 49, 64
1, 6977, Note_off_c, 0, 63, 64
1, 6977, Note_on_c, 0, 78, 36
1, 6977, Note_on_c, 0, 83, 32
1, 6977, Note_on_c, 0, 87, 32
1, 6978, Note_off_c, 0, 30, 64
1, 6978, Note_on_c, 0, 34, 72
1, 6978, Note_on_c, 0, 47, 48
1, 6978, Note_off_c, 0, 76, 64
1, 6979, Note_off_c, 0, 34, 64
1, 6979, Note_on_c, 0, 72, 41
1, 6979, Note_on_c, 0, 82, 38
1, 6979, Note_on_c, 0, 86, 40
1, 6979, Note_on_c, 0, 89, 25
1, 6979, Note_on_c, 0, 92, 26
1, 6980, Note_off_c, 0, 47, 64
1, 6980, Note_on_c, 0, 69, 42
1, 6980, Note_on_c, 0, 88, 23
1, 6981, Note_on_c, 0, 51, 72
1, 6981, Note_off_c, 0, 82, 64
1, 6981, Note_on_c, 0, 85, 32
1, 6981, Note_off_c, 0, 86, 64
1, 6982, Note_on_c, 0, 48, 84
1, 6982, Note_off_c, 0, 51, 64
1, 6982, Note_off_c, 0, 69, 64
1, 6982, Note_off_c, 0, 72, 64
1, 6982, Note_off_c, 0, 78, 64
1, 6982, Note_on_c, 0, 80, 18
1, 6982, Note_off_c, 0, 87, 64
1, 6982, Note_off_c, 0, 92, 64
1, 6983, Note_on_c, 0, 45, 93
1, 6983, Note_off_c, 0, 48, 64
1, 6983, Note_off_c, 0, 85, 64
1, 6984, Note_on_c, 0, 42, 99
1, 6984, Note_off_c, 0, 45, 64
1, 6985, Note_on_c, 0, 40, 97
1, 6985, Note_off_c, 0, 42, 64
1, 6985, Note_off_c, 0, 83, 64
1, 6985, Note_off_c, 0, 88, 64
1, 6986, Note_on_c, 0, 38, 98
1, 6986, Note_off_c, 0, 40, 64
1, 6986, Note_off_c, 0, 80, 64
1, 6986, Note_off_c, 0, 89, 64
1, 6987, Note_on_c, 0, 37, 98
1, 6987, Note_off_c, 0, 38, 64
1, 6988, Note_on_c, 0, 35, 97
1, 6988, Note_off_c, 0, 37, 64
1, 6989, Note_on_c, 0, 34, 96
1, 6989, Note_off_c, 0, 35, 64
1, 6990, Note_on_c, 0, 33, 96
1, 6990, Note_off_c, 0, 34, 64
1, 6990, Note_on_c, 0, 48, 35
1, 6990, Note_on_c, 0, 78, 17
1, 6990, Note_on_c, 0, 82, 15
1, 6991, Note_on_c, 0, 32, 96
1, 6991, Note_off_c, 0, 33, 64
1, 6992, Note_off_c, 0, 48, 64
1, 6992, Note_on_c, 0, 80, 25
1, 6993, Note_on_c, 0, 31, 95
1, 6993, Note_off_c, 0, 32, 64
1, 6993, Note_off_c, 0, 78, 64
1, 6993, Note_off_c, 0, 82, 64
1, 6996, Note_on_c, 0, 30, 74
1, 6996, Note_off_c, 0, 31, 64
1, 6997, Note_off_c, 0, 30, 64
1, 6997, Note_off_c, 0, 80, 64
1, 6998, Note_on_c, 0, 85, 23
1, 6999, Note_on_c, 0, 42, 66
1, 6999, Note_on_c, 0, 68, 17
1, 6999, Note_on_c, 0, 83, 19
1, 6999, Note_on_c, 0, 87, 14
1, 6999, Note_on_c, 0, 91, 9
1, 7000, Note_on_c, 0, 31, 70
1, 7000, Note_off_c, 0, 42, 64
1, 7000, Note_on_c, 0, 54, 49
1, 7000, Note_on_c, 0, 64, 29
1, 7000, Note_on_c, 0, 81, 16
1, 7001, Note_on_c, 0, 30, 78
1, 7001, Note_off_c, 0, 31, 64
1, 7001, Note_off_c, 0, 85, 64
1, 7002, Note_on_c, 0, 29, 80
1, 7002, Note_off_c, 0, 30, 64
1, 7002, Note_on_c, 0, 61, 25
1, 7002, Note_on_c, 0, 85, 17
1, 7003, Note_off_c, 0, 54, 64
1, 7003, Note_off_c, 0, 64, 64
1, 7003, Note_off_c, 0, 68, 64
1, 7003, Note_off_c, 0, 87, 64
1, 7003, Note_off_c, 0, 91, 64
1, 7004, Note_off_c, 0, 29, 64
1, 7004, Note_on_c, 0, 30, 75
1, 7005, Note_off_c, 0, 61, 64
1, 7005, Note_off_c, 0, 83, 64
1, 7006, Note_on_c, 0, 29, 73
1, 7006, Note_off_c, 0, 30, 64
1, 7006, Note_off_c, 0, 81, 64
1, 7007, Note_off_c, 0, 85, 64
1, 7008, Note_on_c, 0, 82, 30
1, 7008, Note_on_c, 0, 85, 21
1, 7009, Note_off_c, 0, 29, 64
1, 7009, Note_on_c, 0, 30, 74
1, 7009, Note_on_c, 0, 54, 52
1, 7009, Note_on_c, 0, 61, 30
1, 7009, Note_on_c, 0, 63, 30
1, 7009, Note_on_c, 0, 68, 16
1, 7009, Note_on_c, 0, 76, 20
1, 7009, Note_on_c, 0, 79, 23
1, 7009, Note_on_c, 0, 83, 23
1, 7010, Note_off_c, 0, 30, 64
1, 7010, Note_on_c, 0, 31, 78
1, 7010, Note_on_c, 0, 89, 12
1, 7011, Note_on_c, 0, 30, 79
1, 7011, Note_off_c, 0, 31, 64
1, 7011, Note_off_c, 0, 54, 64
1, 7011, Note_off_c, 0, 63, 64
1, 7012, Note_on_c, 0, 29, 79
1, 7012, Note_off_c, 0, 30, 64
1, 7012, Note_on_c, 0, 63, 23
1, 7012, Note_off_c, 0, 76, 64
1, 7012, Note_off_c, 0, 83, 64
1, 7012, Note_off_c, 0, 85, 64
1, 7013, Note_off_c, 0, 29, 64
1, 7013, Note_on_c, 0, 30, 77
1, 7013, Note_off_c, 0, 82, 64
1, 7014, Note_off_c, 0, 68, 64
1, 7014, Note_off_c, 0, 89, 64
1, 7015, Note_off_c, 0, 30, 64
1, 7015, Note_on_c, 0, 31, 71
1, 7015, Note_off_c, 0, 61, 64
1, 7015, Note_off_c, 0, 79, 64
1, 7016, Note_off_c, 0, 31, 64
1, 7016, Note_on_c, 0, 34, 69
1, 7016, Note_off_c, 0, 63, 64
1, 7016, Note_on_c, 0, 86, 33
1, 7016, Note_on_c, 0, 87, 35
1, 7017, Note_off_c, 0, 34, 64
1, 7017, Note_on_c, 0, 75, 35
1, 7017, Note_on_c, 0, 77, 37
1, 7017, Note_on_c, 0, 81, 39
1, 7017, Note_on_c, 0, 84, 31
1, 7018, Note_on_c, 0, 71, 39
1, 7018, Note_on_c, 0, 80, 33
1, 7018, Note_on_c, 0, 82, 37
1, 7019, Note_on_c, 0, 50, 79
1, 7019, Note_off_c, 0, 84, 64
1, 7019, Note_off_c, 0, 86, 64
1, 7019, Note_off_c, 0, 87, 64
1, 7020, Note_on_c, 0, 45, 91
1, 7020, Note_off_c, 0, 50, 64
1, 7020, Note_off_c, 0, 77, 64
1, 7020, Note_off_c, 0, 81, 64
1, 7021, Note_on_c, 0, 42, 97
1, 7021, Note_off_c, 0, 45, 64
1, 7021, Note_off_c, 0, 75, 64
1, 7022, Note_on_c, 0, 41, 100
1, 7022, Note_off_c, 0, 42, 64
1, 7022, Note_off_c, 0, 71, 64
1, 7023, Note_on_c, 0, 39, 97
1, 7023, Note_off_c, 0, 41, 64
1, 7024, Note_on_c, 0, 37, 98
1, 7024, Note_off_c, 0, 39, 64
1, 7024, Note_off_c, 0, 82, 64
1, 7025, Note_on_c, 0, 36, 97
1, 7025, Note_off_c, 0, 37, 64
1, 7025, Note_off_c, 0, 80, 64
1, 7026, Note_on_c, 0, 35, 96
1, 7026, Note_off_c, 0, 36, 64
1, 7027, Note_on_c, 0, 33, 96
1, 7027, Note_off_c, 0, 35, 64
1, 7027, Note_on_c, 0, 80, 22
1, 7029, Note_on_c, 0, 32, 96
1, 7029, Note_off_c, 0, 33, 64
1, 7029, Note_on_c, 0, 85, 15
1, 7031, Note_on_c, 0, 31, 93
1, 7031, Note_off_c, 0, 32, 64
1, 7031, Note_off_c, 0, 80, 64
1, 7032, Note_on_c, 0, 83, 12
1, 7032, Note_off_c, 0, 85, 64
1, 7033, Note_on_c, 0, 30, 79
1, 7033, Note_off_c, 0, 31, 64
1, 7035, Note_off_c, 0, 30, 64
1, 7035, Note_on_c, 0, 80, 21
1, 7035, Note_on_c, 0, 84, 17
1, 7036, Note_on_c, 0, 72, 21
1, 7036, Note_off_c, 0, 83, 64
1, 7037, Note_on_c, 0, 36, 70
1, 7037, Note_on_c, 0, 61, 30
1, 7037, Note_on_c, 0, 64, 24
1, 7037, Note_on_c, 0, 74, 22
1, 7037, Note_on_c, 0, 79, 18
1, 7037, Note_on_c, 0, 81, 26
1, 7037, Note_on_c, 0, 85, 18
1, 7037, Note_on_c, 0, 88, 20
1, 7038, Note_on_c, 0, 31, 74
1, 7038, Note_off_c, 0, 36, 64
1, 7038, Note_on_c, 0, 42, 65
1, 7038, Note_off_c, 0, 84, 64
1, 7038, Note_on_c, 0, 89, 14
1, 7039, Note_on_c, 0, 29, 79
1, 7039, Note_off_c, 0, 31, 64
1, 7039, Note_off_c, 0, 42, 64
1, 7039, Note_on_c, 0, 71, 24
1, 7039, Note_off_c, 0, 72, 64
1, 7039, Note_on_c, 0, 84, 11
1, 7040, Note_on_c, 0, 49, 56
1, 7040, Note_off_c, 0, 64, 64
1, 7040, Note_off_c, 0, 79, 64
1, 7040, Note_off_c, 0, 80, 64
1, 7041, Note_off_c, 0, 88, 64
1, 7042, Note_off_c, 0, 29, 64
1, 7042, Note_on_c, 0, 30, 76
1, 7042, Note_off_c, 0, 71, 64
1, 7042, Note_off_c, 0, 74, 64
1, 7042, Note_off_c, 0, 85, 64
1, 7043, Note_off_c, 0, 49, 64
1, 7043, Note_on_c, 0, 77, 16
1, 7043, Note_off_c, 0, 81, 64
1, 7043, Note_off_c, 0, 84, 64
1, 7043, Note_off_c, 0, 89, 64
1, 7044, Note_on_c, 0, 29, 73
1, 7044, Note_off_c, 0, 30, 64
1, 7044, Note_on_c, 0, 49, 46
1, 7044, Note_on_c, 0, 82, 19
1, 7044, Note_on_c, 0, 87, 19
1, 7044, Note_on_c, 0, 88, 23
1, 7045, Note_off_c, 0, 61, 64
1, 7045, Note_on_c, 0, 79, 18
1, 7045, Note_on_c, 0, 81, 23
1, 7046, Note_off_c, 0, 29, 64
1, 7046, Note_on_c, 0, 30, 81
1, 7046, Note_off_c, 0, 49, 64
1, 7046, Note_on_c, 0, 72, 30
1, 7046, Note_off_c, 0, 77, 64
1, 7047, Note_on_c, 0, 68, 34
1, 7047, Note_on_c, 0, 78, 19
1, 7048, Note_on_c, 0, 49, 61
1, 7048, Note_on_c, 0, 64, 32
1, 7048, Note_on_c, 0, 71, 33
1, 7048, Note_off_c, 0, 72, 64
1, 7048, Note_off_c, 0, 82, 64
1, 7048, Note_off_c, 0, 87, 64
1, 7049, Note_on_c, 0, 29, 81
1, 7049, Note_off_c, 0, 30, 64
1, 7049, Note_on_c, 0, 75, 14
1, 7049, Note_off_c, 0, 79, 64
1, 7049, Note_on_c, 0, 87, 38
1, 7050, Note_off_c, 0, 49, 64
1, 7050, Note_off_c, 0, 81, 64
1, 7050, Note_on_c, 0, 89, 10
1, 7051, Note_off_c, 0, 29, 64
1, 7051, Note_on_c, 0, 30, 76
1, 7051, Note_on_c, 0, 73, 41
1, 7051, Note_on_c, 0, 79, 37
1, 7051, Note_on_c, 0, 81, 36
1, 7051, Note_off_c, 0, 88, 64
1, 7052, Note_off_c, 0, 64, 64
1, 7052, Note_on_c, 0, 70, 26
1, 7052, Note_off_c, 0, 71, 64
1, 7052, Note_off_c, 0, 75, 64
1, 7052, Note_on_c, 0, 77, 22
1, 7052, Note_off_c, 0, 78, 64
1, 7053, Note_off_c, 0, 30, 64
1, 7053, Note_on_c, 0, 34, 72
1, 7053, Note_on_c, 0, 54, 34
1, 7053, Note_on_c, 0, 63, 30
1, 7053, Note_off_c, 0, 68, 64
1, 7053, Note_on_c, 0, 83, 29
1, 7053, Note_off_c, 0, 89, 64
1, 7054, Note_off_c, 0, 34, 64
1, 7054, Note_on_c, 0, 84, 33
1, 7054, Note_on_c, 0, 86, 33
1, 7054, Note_on_c, 0, 89, 29
1, 7054, Note_on_c, 0, 90, 29
1, 7054, Note_on_c, 0, 92, 29
1, 7055, Note_off_c, 0, 54, 64
1, 7055, Note_off_c, 0, 63, 64
1, 7055, Note_off_c, 0, 70, 64
1, 7055, Note_on_c, 0, 76, 30
1, 7055, Note_off_c, 0, 77, 64
1, 7055, Note_on_c, 0, 82, 31
1, 7055, Note_off_c, 0, 83, 64
1, 7056, Note_on_c, 0, 51, 73
1, 7056, Note_on_c, 0, 83, 15
1, 7057, Note_on_c, 0, 48, 86
1, 7057, Note_off_c, 0, 51, 64
1, 7057, Note_off_c, 0, 73, 64
1, 7057, Note_off_c, 0, 76, 64
1, 7057, Note_off_c, 0, 82, 64
1, 7057, Note_off_c, 0, 86, 64
1, 7057, Note_off_c, 0, 89, 64
1, 7057, Note_off_c, 0, 90, 64
1, 7057, Note_off_c, 0, 92, 64
1, 7058, Note_on_c, 0, 45, 95
1, 7058, Note_off_c, 0, 48, 64
1, 7058, Note_on_c, 0, 71, 24
1, 7058, Note_on_c, 0, 73, 16
1, 7058, Note_on_c, 0, 80, 29
1, 7058, Note_off_c, 0, 84, 64
1, 7059, Note_on_c, 0, 42, 100
1, 7059, Note_off_c, 0, 45, 64
1, 7059, Note_on_c, 0, 68, 24
1, 7059, Note_off_c, 0, 87, 64
1, 7060, Note_on_c, 0, 40, 97
1, 7060, Note_off_c, 0, 42, 64
1, 7060, Note_off_c, 0, 79, 64
1, 7060, Note_off_c, 0, 83, 64
1, 7061, Note_on_c, 0, 38, 98
1, 7061, Note_off_c, 0, 40, 64
1, 7061, Note_on_c, 0, 70, 27
1, 7061, Note_off_c, 0, 71, 64
1, 7061, Note_off_c, 0, 80, 64
1, 7062, Note_on_c, 0, 36, 97
1, 7062, Note_off_c, 0, 38, 64
1, 7062, Note_on_c, 0, 72, 15
1, 7062, Note_off_c, 0, 73, 64
1, 7062, Note_on_c, 0, 74, 10
1, 7063, Note_on_c, 0, 35, 96
1, 7063, Note_off_c, 0, 36, 64
1, 7063, Note_off_c, 0, 68, 64
1, 7063, Note_on_c, 0, 80, 11
1, 7063, Note_off_c, 0, 81, 64
1, 7064, Note_on_c, 0, 34, 95
1, 7064, Note_off_c, 0, 35, 64
1, 7064, Note_on_c, 0, 69, 23
1, 7064, Note_off_c, 0, 70, 64
1, 7064, Note_on_c, 0, 81, 25
1, 7064, Note_on_c, 0, 85, 18
1, 7065, Note_on_c, 0, 33, 96
1, 7065, Note_off_c, 0, 34, 64
1, 7065, Note_off_c, 0, 74, 64
1, 7066, Note_on_c, 0, 32, 96
1, 7066, Note_off_c, 0, 33, 64
1, 7066, Note_on_c, 0, 49, 27
1, 7066, Note_on_c, 0, 71, 12
1, 7066, Note_off_c, 0, 72, 64
1, 7066, Note_on_c, 0, 78, 10
1, 7067, Note_off_c, 0, 80, 64
1, 7067, Note_off_c, 0, 85, 64
1, 7068, Note_on_c, 0, 31, 94
1, 7068, Note_off_c, 0, 32, 64
1, 7068, Note_on_c, 0, 68, 13
1, 7068, Note_off_c, 0, 69, 64
1, 7069, Note_off_c, 0, 71, 64
1, 7069, Note_off_c, 0, 78, 64
1, 7069, Note_on_c, 0, 80, 13
1, 7070, Note_on_c, 0, 30, 84
1, 7070, Note_off_c, 0, 31, 64
1, 7070, Note_off_c, 0, 49, 64
1, 7071, Note_off_c, 0, 68, 64
1, 7071, Note_off_c, 0, 81, 64
1, 7072, Note_on_c, 0, 88, 10
1, 7073, Note_off_c, 0, 30, 64
1, 7073, Note_on_c, 0, 41, 66
1, 7073, Note_on_c, 0, 79, 22
1, 7073, Note_off_c, 0, 80, 64
1, 7073, Note_on_c, 0, 81, 30
1, 7073, Note_on_c, 0, 82, 29
1, 7074, Note_on_c, 0, 70, 20
1, 7074, Note_on_c, 0, 76, 15
1, 7074, Note_on_c, 0, 83, 14
1, 7075, Note_on_c, 0, 31, 71
1, 7075, Note_off_c, 0, 41, 64
1, 7075, Note_on_c, 0, 61, 28
1, 7075, Note_on_c, 0, 66, 22
1, 7075, Note_on_c, 0, 78, 28
1, 7075, Note_on_c, 0, 86, 16
1, 7075, Note_off_c, 0, 88, 64
1, 7076, Note_on_c, 0, 30, 78
1, 7076, Note_off_c, 0, 31, 64
1, 7076, Note_off_c, 0, 79, 64
1, 7077, Note_on_c, 0, 29, 79
1, 7077, Note_off_c, 0, 30, 64
1, 7077, Note_off_c, 0, 70, 64
1, 7077, Note_on_c, 0, 71, 10
1, 7077, Note_on_c, 0, 80, 25
1, 7077, Note_off_c, 0, 81, 64
1, 7078, Note_off_c, 0, 29, 64
1, 7078, Note_on_c, 0, 30, 77
1, 7078, Note_off_c, 0, 61, 64
1, 7078, Note_off_c, 0, 66, 64
1, 7079, Note_off_c, 0, 76, 64
1, 7080, Note_off_c, 0, 80, 64
1, 7080, Note_on_c, 0, 81, 21
1, 7080, Note_off_c, 0, 86, 64
1, 7081, Note_on_c, 0, 29, 73
1, 7081, Note_off_c, 0, 30, 64
1, 7081, Note_off_c, 0, 71, 64
1, 7081, Note_off_c, 0, 78, 64
1, 7081, Note_off_c, 0, 82, 64
1, 7081, Note_off_c, 0, 83, 64
1, 7083, Note_on_c, 0, 68, 18
1, 7083, Note_on_c, 0, 70, 29
1, 7083, Note_on_c, 0, 76, 21
1, 7083, Note_off_c, 0, 81, 64
1, 7083, Note_on_c, 0, 89, 16
1, 7084, Note_off_c, 0, 29, 64
1, 7084, Note_on_c, 0, 30, 74
1, 7084, Note_on_c, 0, 54, 54
1, 7084, Note_on_c, 0, 61, 30
1, 7084, Note_on_c, 0, 64, 31
1, 7084, Note_on_c, 0, 83, 20
1, 7084, Note_on_c, 0, 84, 20
1, 7084, Note_on_c, 0, 86, 14
1, 7085, Note_off_c, 0, 30, 64
1, 7085, Note_on_c, 0, 31, 78
1, 7085, Note_on_c, 0, 49, 58
1, 7085, Note_off_c, 0, 70, 64
1, 7085, Note_on_c, 0, 71, 21
1, 7086, Note_on_c, 0, 30, 79
1, 7086, Note_off_c, 0, 31, 64
1, 7086, Note_off_c, 0, 54, 64
1, 7086, Note_off_c, 0, 68, 64
1, 7086, Note_on_c, 0, 79, 19
1, 7087, Note_on_c, 0, 29, 79
1, 7087, Note_off_c, 0, 30, 64
1, 7087, Note_on_c, 0, 74, 10
1, 7087, Note_off_c, 0, 76, 64
1, 7087, Note_off_c, 0, 84, 64
1, 7088, Note_off_c, 0, 49, 64
1, 7088, Note_off_c, 0, 64, 64
1, 7088, Note_on_c, 0, 70, 24
1, 7088, Note_off_c, 0, 71, 64
1, 7088, Note_off_c, 0, 83, 64
1, 7088, Note_off_c, 0, 86, 64
1, 7088, Note_off_c, 0, 89, 64
1, 7089, Note_off_c, 0, 29, 64
1, 7089, Note_on_c, 0, 30, 75
1, 7089, Note_off_c, 0, 61, 64
1, 7089, Note_on_c, 0, 67, 16
1, 7089, Note_on_c, 0, 78, 40
1, 7089, Note_off_c, 0, 79, 64
1, 7089, Note_on_c, 0, 81, 39
1, 7089, Note_on_c, 0, 83, 37
1, 7090, Note_off_c, 0, 30, 64
1, 7090, Note_on_c, 0, 32, 72
1, 7090, Note_on_c, 0, 54, 38
1, 7090, Note_off_c, 0, 74, 64
1, 7091, Note_off_c, 0, 32, 64
1, 7091, Note_on_c, 0, 35, 68
1, 7091, Note_on_c, 0, 69, 45
1, 7091, Note_off_c, 0, 70, 64
1, 7091, Note_on_c, 0, 72, 44
1, 7091, Note_on_c, 0, 76, 36
1, 7091, Note_on_c, 0, 85, 38
1, 7091, Note_on_c, 0, 87, 33
1, 7091, Note_on_c, 0, 89, 26
1, 7091, Note_on_c, 0, 91, 27
1, 7091, Note_on_c, 0, 92, 24
1, 7091, Note_on_c, 0, 94, 25
1, 7092, Note_off_c, 0, 35, 64
1, 7092, Note_off_c, 0, 54, 64
1, 7092, Note_on_c, 0, 66, 47
1, 7092, Note_off_c, 0, 67, 64
1, 7093, Note_on_c, 0, 79, 31
1, 7094, Note_on_c, 0, 49, 80
1, 7094, Note_off_c, 0, 69, 64
1, 7094, Note_off_c, 0, 76, 64
1, 7094, Note_on_c, 0, 82, 16
1, 7094, Note_off_c, 0, 87, 64
1, 7094, Note_off_c, 0, 89, 64
1, 7094, Note_off_c, 0, 91, 64
1, 7094, Note_off_c, 0, 92, 64
1, 7094, Note_off_c, 0, 94, 64
1, 7095, Note_on_c, 0, 45, 91
1, 7095, Note_off_c, 0, 49, 64
1, 7095, Note_off_c, 0, 66, 64
1, 7095, Note_off_c, 0, 78, 64
1, 7095, Note_off_c, 0, 85, 64
1, 7096, Note_on_c, 0, 42, 98
1, 7096, Note_off_c, 0, 45, 64
1, 7096, Note_on_c, 0, 71, 14
1, 7096, Note_off_c, 0, 72, 64
1, 7096, Note_off_c, 0, 79, 64
1, 7096, Note_off_c, 0, 83, 64
1, 7097, Note_on_c, 0, 41, 100
1, 7097, Note_off_c, 0, 42, 64
1, 7097, Note_off_c, 0, 81, 64
1, 7097, Note_off_c, 0, 82, 64
1, 7098, Note_on_c, 0, 38, 98
1, 7098, Note_off_c, 0, 41, 64
1, 7099, Note_on_c, 0, 37, 98
1, 7099, Note_off_c, 0, 38, 64
1, 7099, Note_off_c, 0, 71, 64
1, 7100, Note_on_c, 0, 36, 98
1, 7100, Note_off_c, 0, 37, 64
1, 7101, Note_on_c, 0, 34, 96
1, 7101, Note_off_c, 0, 36, 64
1, 7103, Note_on_c, 0, 33, 96
1, 7103, Note_off_c, 0, 34, 64
1, 7103, Note_on_c, 0, 72, 16
1, 7104, Note_on_c, 0, 32, 96
1, 7104, Note_off_c, 0, 33, 64
1, 7105, Note_on_c, 0, 31, 95
1, 7105, Note_off_c, 0, 32, 64
1, 7106, Note_off_c, 0, 72, 64
1, 7107, Note_on_c, 0, 70, 23
1, 7108, Note_on_c, 0, 30, 79
1, 7108, Note_off_c, 0, 31, 64
1, 7109, Note_on_c, 0, 80, 18
1, 7110, Note_off_c, 0, 30, 64
1, 7110, Note_off_c, 0, 70, 64
1, 7110, Note_on_c, 0, 71, 20
1, 7110, Note_on_c, 0, 83, 22
1, 7111, Note_on_c, 0, 36, 68
1, 7111, Note_on_c, 0, 74, 20
1, 7111, Note_on_c, 0, 87, 18
1, 7112, Note_on_c, 0, 54, 55
1, 7112, Note_on_c, 0, 61, 32
1, 7112, Note_on_c, 0, 64, 29
1, 7112, Note_off_c, 0, 80, 64
1, 7113, Note_on_c, 0, 31, 76
1, 7113, Note_off_c, 0, 36, 64
1, 7113, Note_on_c, 0, 49, 58
1, 7113, Note_off_c, 0, 71, 64
1, 7113, Note_on_c, 0, 77, 19
1, 7113, Note_on_c, 0, 79, 16
1, 7114, Note_on_c, 0, 29, 79
1, 7114, Note_off_c, 0, 31, 64
1, 7114, Note_off_c, 0, 54, 64
1, 7114, Note_off_c, 0, 61, 64
1, 7114, Note_on_c, 0, 71, 26
1, 7114, Note_off_c, 0, 87, 64
1, 7115, Note_on_c, 0, 63, 20
1, 7115, Note_off_c, 0, 64, 64
1, 7115, Note_off_c, 0, 74, 64
1, 7115, Note_on_c, 0, 80, 19
1, 7115, Note_off_c, 0, 83, 64
1, 7116, Note_off_c, 0, 29, 64
1, 7116, Note_on_c, 0, 30, 75
1, 7116, Note_off_c, 0, 49, 64
1, 7116, Note_off_c, 0, 77, 64
1, 7116, Note_off_c, 0, 79, 64
1, 7117, Note_on_c, 0, 81, 13
1, 7118, Note_on_c, 0, 29, 75
1, 7118, Note_off_c, 0, 30, 64
1, 7118, Note_off_c, 0, 63, 64
1, 7118, Note_on_c, 0, 76, 18
1, 7118, Note_off_c, 0, 80, 64
1, 7118, Note_on_c, 0, 82, 22
1, 7119, Note_off_c, 0, 71, 64
1, 7119, Note_on_c, 0, 74, 21
1, 7120, Note_on_c, 0, 42, 68
1, 7120, Note_on_c, 0, 71, 26
1, 7120, Note_on_c, 0, 80, 19
1, 7120, Note_off_c, 0, 81, 64
1, 7120, Note_on_c, 0, 87, 12
1, 7121, Note_off_c, 0, 29, 64
1, 7121, Note_on_c, 0, 30, 73
1, 7121, Note_on_c, 0, 68, 22
1, 7121, Note_on_c, 0, 79, 19
1, 7122, Note_off_c, 0, 30, 64
1, 7122, Note_on_c, 0, 31, 76
1, 7122, Note_off_c, 0, 42, 64
1, 7122, Note_off_c, 0, 76, 64
1, 7122, Note_off_c, 0, 82, 64
1, 7123, Note_on_c, 0, 30, 79
1, 7123, Note_off_c, 0, 31, 64
1, 7123, Note_off_c, 0, 71, 64
1, 7123, Note_off_c, 0, 80, 64
1, 7124, Note_on_c, 0, 29, 80
1, 7124, Note_off_c, 0, 30, 64
1, 7124, Note_off_c, 0, 68, 64
1, 7124, Note_on_c, 0, 71, 28
1, 7124, Note_on_c, 0, 81, 37
1, 7125, Note_off_c, 0, 74, 64
1, 7125, Note_on_c, 0, 78, 13
1, 7125, Note_off_c, 0, 79, 64
1, 7126, Note_off_c, 0, 29, 64
1, 7126, Note_on_c, 0, 30, 75
1, 7127, Note_off_c, 0, 87, 64
1, 7128, Note_off_c, 0, 30, 64
1, 7128, Note_on_c, 0, 34, 72
1, 7128, Note_off_c, 0, 71, 64
1, 7128, Note_off_c, 0, 78, 64
1, 7128, Note_on_c, 0, 90, 28
1, 7129, Note_off_c, 0, 34, 64
1, 7129, Note_on_c, 0, 58, 56
1, 7129, Note_on_c, 0, 71, 45
1, 7129, Note_on_c, 0, 77, 35
1, 7129, Note_on_c, 0, 80, 34
1, 7129, Note_on_c, 0, 84, 26
1, 7129, Note_on_c, 0, 86, 31
1, 7129, Note_on_c, 0, 87, 29
1, 7129, Note_on_c, 0, 88, 31
1, 7129, Note_on_c, 0, 91, 27
1, 7130, Note_on_c, 0, 76, 36
1, 7131, Note_on_c, 0, 51, 74
1, 7131, Note_off_c, 0, 58, 64
1, 7131, Note_on_c, 0, 73, 34
1, 7131, Note_on_c, 0, 78, 12
1, 7131, Note_on_c, 0, 82, 20
1, 7132, Note_on_c, 0, 48, 86
1, 7132, Note_off_c, 0, 51, 64
1, 7132, Note_off_c, 0, 71, 64
1, 7132, Note_off_c, 0, 77, 64
1, 7132, Note_off_c, 0, 80, 64
1, 7132, Note_off_c, 0, 84, 64
1, 7132, Note_off_c, 0, 86, 64
1, 7132, Note_off_c, 0, 88, 64
1, 7132, Note_off_c, 0, 90, 64
1, 7132, Note_off_c, 0, 91, 64
1, 7133, Note_on_c, 0, 45, 95
1, 7133, Note_off_c, 0, 48, 64
1, 7133, Note_off_c, 0, 73, 64
1, 7133, Note_on_c, 0, 80, 9
1, 7133, Note_off_c, 0, 81, 64
1, 7133, Note_off_c, 0, 87, 64
1, 7134, Note_on_c, 0, 42, 100
1, 7134, Note_off_c, 0, 45, 64
1, 7134, Note_on_c, 0, 70, 14
1, 7135, Note_on_c, 0, 40, 97
1, 7135, Note_off_c, 0, 42, 64
1, 7135, Note_off_c, 0, 76, 64
1, 7135, Note_off_c, 0, 82, 64
1, 7136, Note_on_c, 0, 38, 99
1, 7136, Note_off_c, 0, 40, 64
1, 7136, Note_off_c, 0, 78, 64
1, 7136, Note_off_c, 0, 80, 64
1, 7137, Note_on_c, 0, 36, 98
1, 7137, Note_off_c, 0, 38, 64
1, 7137, Note_off_c, 0, 70, 64
1, 7138, Note_on_c, 0, 35, 97
1, 7138, Note_off_c, 0, 36, 64
1, 7139, Note_on_c, 0, 34, 96
1, 7139, Note_off_c, 0, 35, 64
1, 7140, Note_on_c, 0, 33, 95
1, 7140, Note_off_c, 0, 34, 64
1, 7141, Note_on_c, 0, 32, 96
1, 7141, Note_off_c, 0, 33, 64
1, 7143, Note_on_c, 0, 31, 94
1, 7143, Note_off_c, 0, 32, 64
1, 7145, Note_on_c, 0, 30, 84
1, 7145, Note_off_c, 0, 31, 64
1, 7145, Note_on_c, 0, 78, 16
1, 7146, Note_on_c, 0, 70, 19
1, 7148, Note_off_c, 0, 30, 64
1, 7148, Note_on_c, 0, 77, 30
1, 7148, Note_off_c, 0, 78, 64
1, 7148, Note_on_c, 0, 91, 26
1, 7149, Note_on_c, 0, 41, 67
1, 7149, Note_off_c, 0, 70, 64
1, 7149, Note_on_c, 0, 71, 25
1, 7149, Note_on_c, 0, 86, 19
1, 7149, Note_on_c, 0, 90, 17
1, 7150, Note_on_c, 0, 31, 71
1, 7150, Note_on_c, 0, 64, 40
1, 7150, Note_on_c, 0, 75, 36
1, 7150, Note_on_c, 0, 79, 17
1, 7150, Note_on_c, 0, 83, 28
1, 7150, Note_on_c, 0, 94, 18
1, 7151, Note_on_c, 0, 30, 78
1, 7151, Note_off_c, 0, 31, 64
1, 7151, Note_off_c, 0, 41, 64
1, 7151, Note_off_c, 0, 77, 64
1, 7151, Note_on_c, 0, 81, 24
1, 7152, Note_on_c, 0, 29, 79
1, 7152, Note_off_c, 0, 30, 64
1, 7152, Note_off_c, 0, 71, 64
1, 7152, Note_off_c, 0, 75, 64
1, 7152, Note_off_c, 0, 91, 64
1, 7153, Note_off_c, 0, 64, 64
1, 7153, Note_on_c, 0, 75, 19
1, 7153, Note_off_c, 0, 79, 64
1, 7154, Note_off_c, 0, 29, 64
1, 7154, Note_on_c, 0, 30, 75
1, 7154, Note_off_c, 0, 86, 64
1, 7154, Note_off_c, 0, 90, 64
1, 7155, Note_on_c, 0, 79, 16
1, 7155, Note_off_c, 0, 94, 64
1, 7156, Note_on_c, 0, 29, 74
1, 7156, Note_off_c, 0, 30, 64
1, 7156, Note_off_c, 0, 75, 64
1, 7158, Note_on_c, 0, 61, 30
1, 7158, Note_on_c, 0, 75, 25
1, 7158, Note_on_c, 0, 86, 13
1, 7158, Note_on_c, 0, 88, 11
1, 7159, Note_off_c, 0, 29, 64
1, 7159, Note_on_c, 0, 30, 74
1, 7159, Note_on_c, 0, 63, 30
1, 7159, Note_on_c, 0, 68, 28
1, 7159, Note_on_c, 0, 78, 19
1, 7160, Note_off_c, 0, 30, 64
1, 7160, Note_on_c, 0, 31, 77
1, 7160, Note_on_c, 0, 74, 21
1, 7161, Note_on_c, 0, 30, 79
1, 7161, Note_off_c, 0, 31, 64
1, 7161, Note_off_c, 0, 63, 64
1, 7161, Note_off_c, 0, 75, 64
1, 7161, Note_off_c, 0, 88, 64
1, 7162, Note_on_c, 0, 29, 79
1, 7162, Note_off_c, 0, 30, 64
1, 7162, Note_off_c, 0, 61, 64
1, 7162, Note_off_c, 0, 68, 64
1, 7162, Note_off_c, 0, 79, 64
1, 7162, Note_off_c, 0, 83, 64
1, 7162, Note_off_c, 0, 86, 64
1, 7164, Note_off_c, 0, 29, 64
1, 7164, Note_on_c, 0, 30, 74
1, 7164, Note_off_c, 0, 74, 64
1, 7165, Note_off_c, 0, 30, 64
1, 7165, Note_on_c, 0, 32, 72
1, 7165, Note_off_c, 0, 78, 64
1, 7166, Note_off_c, 0, 32, 64
1, 7166, Note_on_c, 0, 35, 68
1, 7166, Note_on_c, 0, 67, 44
1, 7166, Note_on_c, 0, 72, 42
1, 7166, Note_on_c, 0, 76, 35
1, 7166, Note_on_c, 0, 83, 30
1, 7166, Note_on_c, 0, 85, 38
1, 7166, Note_on_c, 0, 89, 25
1, 7166, Note_on_c, 0, 92, 29
1, 7166, Note_on_c, 0, 94, 24
1, 7167, Note_off_c, 0, 35, 64
1, 7167, Note_off_c, 0, 81, 64
1, 7168, Note_on_c, 0, 54, 68
1, 7168, Note_off_c, 0, 67, 64
1, 7168, Note_on_c, 0, 71, 39
1, 7168, Note_on_c, 0, 77, 29
1, 7168, Note_on_c, 0, 82, 22
1, 7168, Note_off_c, 0, 83, 64
1, 7169, Note_on_c, 0, 49, 82
1, 7169, Note_off_c, 0, 54, 64
1, 7169, Note_off_c, 0, 89, 64
1, 7169, Note_off_c, 0, 92, 64
1, 7169, Note_off_c, 0, 94, 64
1, 7170, Note_on_c, 0, 45, 93
1, 7170, Note_off_c, 0, 49, 64
1, 7170, Note_off_c, 0, 71, 64
1, 7170, Note_off_c, 0, 72, 64
1, 7170, Note_off_c, 0, 76, 64
1, 7170, Note_on_c, 0, 80, 11
1, 7170, Note_off_c, 0, 85, 64
1, 7171, Note_on_c, 0, 42, 98
1, 7171, Note_off_c, 0, 45, 64
1, 7171, Note_off_c, 0, 77, 64
1, 7172, Note_on_c, 0, 41, 99
1, 7172, Note_off_c, 0, 42, 64
1, 7172, Note_on_c, 0, 74, 12
1, 7172, Note_off_c, 0, 82, 64
1, 7173, Note_on_c, 0, 38, 98
1, 7173, Note_off_c, 0, 41, 64
1, 7173, Note_off_c, 0, 80, 64
1, 7174, Note_on_c, 0, 37, 98
1, 7174, Note_off_c, 0, 38, 64
1, 7175, Note_on_c, 0, 36, 97
1, 7175, Note_off_c, 0, 37, 64
1, 7176, Note_on_c, 0, 34, 96
1, 7176, Note_off_c, 0, 36, 64
1, 7176, Note_off_c, 0, 74, 64
1, 7177, Note_on_c, 0, 33, 96
1, 7177, Note_off_c, 0, 34, 64
1, 7177, Note_on_c, 0, 87, 12
1, 7178, Note_on_c, 0, 83, 15
1, 7179, Note_on_c, 0, 32, 97
1, 7179, Note_off_c, 0, 33, 64
1, 7180, Note_on_c, 0, 31, 95
1, 7180, Note_off_c, 0, 32, 64
1, 7180, Note_on_c, 0, 81, 11
1, 7180, Note_off_c, 0, 87, 64
1, 7182, Note_on_c, 0, 80, 17
1, 7182, Note_off_c, 0, 83, 64
1, 7183, Note_on_c, 0, 30, 78
1, 7183, Note_off_c, 0, 31, 64
1, 7183, Note_off_c, 0, 81, 64
1, 7185, Note_off_c, 0, 30, 64
1, 7185, Note_on_c, 0, 71, 14
1, 7186, Note_on_c, 0, 74, 11
1, 7186, Note_on_c, 0, 78, 21
1, 7186, Note_off_c, 0, 80, 64
1, 7187, Note_on_c, 0, 36, 69
1, 7188, Note_on_c, 0, 31, 76
1, 7188, Note_off_c, 0, 36, 64
1, 7188, Note_on_c, 0, 49, 58
1, 7188, Note_on_c, 0, 82, 15
1, 7189, Note_on_c, 0, 29, 78
1, 7189, Note_off_c, 0, 31, 64
1, 7189, Note_on_c, 0, 80, 15
1, 7190, Note_off_c, 0, 71, 64
1, 7191, Note_off_c, 0, 29, 64
1, 7191, Note_on_c, 0, 30, 76
1, 7191, Note_off_c, 0, 49, 64
1, 7191, Note_off_c, 0, 74, 64
1, 7191, Note_on_c, 0, 77, 15
1, 7191, Note_off_c, 0, 78, 64
1, 7191, Note_off_c, 0, 82, 64
1, 7193, Note_on_c, 0, 29, 74
1, 7193, Note_off_c, 0, 30, 64
1, 7194, Note_off_c, 0, 77, 64
1, 7194, Note_on_c, 0, 79, 12
1, 7194, Note_off_c, 0, 80, 64
1, 7195, Note_on_c, 0, 61, 30
1, 7195, Note_on_c, 0, 76, 29
1, 7195, Note_on_c, 0, 83, 18
1, 7196, Note_off_c, 0, 29, 64
1, 7196, Note_on_c, 0, 30, 80
1, 7197, Note_on_c, 0, 68, 17
1, 7197, Note_off_c, 0, 79, 64
1, 7198, Note_on_c, 0, 63, 29
1, 7198, Note_off_c, 0, 83, 64
1, 7199, Note_on_c, 0, 29, 80
1, 7199, Note_off_c, 0, 30, 64
1, 7199, Note_off_c, 0, 76, 64
1, 7200, Note_off_c, 0, 63, 64
1, 7200, Note_on_c, 0, 64, 27
1, 7200, Note_on_c, 0, 80, 32
1, 7201, Note_off_c, 0, 29, 64
1, 7201, Note_on_c, 0, 30, 75
1, 7201, Note_off_c, 0, 68, 64
1, 7202, Note_off_c, 0, 61, 64
1, 7203, Note_off_c, 0, 30, 64
1, 7203, Note_on_c, 0, 34, 71
1, 7203, Note_on_c, 0, 79, 35
1, 7204, Note_off_c, 0, 34, 64
1, 7204, Note_off_c, 0, 64, 64
1, 7204, Note_on_c, 0, 69, 41
1, 7204, Note_on_c, 0, 83, 32
1, 7204, Note_on_c, 0, 85, 31
1, 7204, Note_on_c, 0, 89, 30
1, 7204, Note_on_c, 0, 96, 27
1, 7205, Note_on_c, 0, 72, 45
1, 7205, Note_on_c, 0, 75, 40
1, 7205, Note_on_c, 0, 78, 39
1, 7205, Note_off_c, 0, 79, 64
1, 7205, Note_off_c, 0, 80, 64
1, 7206, Note_on_c, 0, 51, 77
1, 7206, Note_on_c, 0, 66, 38
1, 7207, Note_on_c, 0, 46, 87
1, 7207, Note_off_c, 0, 51, 64
1, 7207, Note_off_c, 0, 69, 64
1, 7207, Note_off_c, 0, 78, 64
1, 7207, Note_off_c, 0, 83, 64
1, 7207, Note_off_c, 0, 85, 64
1, 7207, Note_off_c, 0, 89, 64
1, 7207, Note_off_c, 0, 96, 64
1, 7208, Note_on_c, 0, 44, 94
1, 7208, Note_off_c, 0, 46, 64
1, 7208, Note_off_c, 0, 66, 64
1, 7208, Note_off_c, 0, 72, 64
1, 7208, Note_off_c, 0, 75, 64
1, 7209, Note_on_c, 0, 41, 99
1, 7209, Note_off_c, 0, 44, 64
1, 7210, Note_on_c, 0, 39, 97
1, 7210, Note_off_c, 0, 41, 64
1, 7211, Note_on_c, 0, 37, 98
1, 7211, Note_off_c, 0, 39, 64
1, 7212, Note_on_c, 0, 36, 98
1, 7212, Note_off_c, 0, 37, 64
1, 7213, Note_on_c, 0, 35, 96
1, 7213, Note_off_c, 0, 36, 64
1, 7214, Note_on_c, 0, 34, 95
1, 7214, Note_off_c, 0, 35, 64
1, 7215, Note_on_c, 0, 33, 95
1, 7215, Note_off_c, 0, 34, 64
1, 7216, Note_on_c, 0, 32, 96
1, 7216, Note_off_c, 0, 33, 64
1, 7218, Note_on_c, 0, 31, 94
1, 7218, Note_off_c, 0, 32, 64
1, 7218, Note_on_c, 0, 73, 9
1, 7220, Note_on_c, 0, 30, 83
1, 7220, Note_off_c, 0, 31, 64
1, 7220, Note_on_c, 0, 77, 15
1, 7220, Note_on_c, 0, 83, 9
1, 7221, Note_off_c, 0, 73, 64
1, 7222, Note_on_c, 0, 68, 24
1, 7223, Note_off_c, 0, 30, 64
1, 7223, Note_on_c, 0, 72, 22
1, 7223, Note_on_c, 0, 79, 12
1, 7224, Note_on_c, 0, 37, 68
1, 7224, Note_on_c, 0, 61, 31
1, 7224, Note_on_c, 0, 64, 31
1, 7225, Note_on_c, 0, 31, 74
1, 7225, Note_off_c, 0, 37, 64
1, 7225, Note_on_c, 0, 74, 15
1, 7226, Note_on_c, 0, 30, 81
1, 7226, Note_off_c, 0, 31, 64
1, 7226, Note_off_c, 0, 64, 64
1, 7226, Note_off_c, 0, 72, 64
1, 7226, Note_off_c, 0, 79, 64
1, 7227, Note_on_c, 0, 29, 81
1, 7227, Note_off_c, 0, 30, 64
1, 7227, Note_off_c, 0, 77, 64
1, 7227, Note_off_c, 0, 83, 64
1, 7228, Note_off_c, 0, 68, 64
1, 7228, Note_on_c, 0, 72, 19
1, 7228, Note_off_c, 0, 74, 64
1, 7229, Note_off_c, 0, 29, 64
1, 7229, Note_on_c, 0, 30, 76
1, 7230, Note_on_c, 0, 48, 52
1, 7230, Note_off_c, 0, 61, 64
1, 7231, Note_on_c, 0, 29, 74
1, 7231, Note_off_c, 0, 30, 64
1, 7231, Note_off_c, 0, 72, 64
1, 7231, Note_on_c, 0, 79, 18
1, 7232, Note_off_c, 0, 48, 64
1, 7233, Note_on_c, 0, 71, 23
1, 7233, Note_on_c, 0, 92, 16
1, 7234, Note_off_c, 0, 29, 64
1, 7234, Note_on_c, 0, 30, 73
1, 7234, Note_on_c, 0, 61, 29
1, 7234, Note_on_c, 0, 64, 29
1, 7234, Note_on_c, 0, 68, 24
1, 7235, Note_off_c, 0, 30, 64
1, 7235, Note_on_c, 0, 31, 78
1, 7235, Note_on_c, 0, 49, 61
1, 7236, Note_on_c, 0, 30, 80
1, 7236, Note_off_c, 0, 31, 64
1, 7236, Note_off_c, 0, 71, 64
1, 7236, Note_on_c, 0, 72, 27
1, 7236, Note_off_c, 0, 79, 64
1, 7236, Note_on_c, 0, 82, 36
1, 7236, Note_off_c, 0, 92, 64
1, 7237, Note_on_c, 0, 29, 80
1, 7237, Note_off_c, 0, 30, 64
1, 7237, Note_off_c, 0, 61, 64
1, 7237, Note_on_c, 0, 63, 17
1, 7237, Note_off_c, 0, 64, 64
1, 7238, Note_off_c, 0, 29, 64
1, 7238, Note_on_c, 0, 30, 77
1, 7238, Note_off_c, 0, 49, 64
1, 7239, Note_off_c, 0, 72, 64
1, 7240, Note_off_c, 0, 30, 64
1, 7240, Note_on_c, 0, 33, 72
1, 7240, Note_on_c, 0, 54, 36
1, 7240, Note_off_c, 0, 63, 64
1, 7240, Note_off_c, 0, 68, 64
1, 7241, Note_off_c, 0, 33, 64
1, 7241, Note_on_c, 0, 35, 65
1, 7241, Note_on_c, 0, 70, 41
1, 7241, Note_on_c, 0, 73, 42
1, 7241, Note_on_c, 0, 78, 36
1, 7241, Note_on_c, 0, 83, 33
1, 7241, Note_on_c, 0, 84, 32
1, 7241, Note_on_c, 0, 86, 34
1, 7241, Note_on_c, 0, 87, 31
1, 7241, Note_on_c, 0, 88, 31
1, 7241, Note_on_c, 0, 91, 25
1, 7241, Note_on_c, 0, 93, 25
1, 7241, Note_on_c, 0, 97, 18
1, 7241, Note_on_c, 0, 101, 19
1, 7242, Note_off_c, 0, 35, 64
1, 7242, Note_off_c, 0, 54, 64
1, 7242, Note_on_c, 0, 76, 35
1, 7243, Note_on_c, 0, 53, 70
1, 7243, Note_off_c, 0, 70, 64
1, 7243, Note_off_c, 0, 73, 64
1, 7243, Note_on_c, 0, 80, 26
1, 7243, Note_off_c, 0, 86, 64
1, 7244, Note_on_c, 0, 48, 83
1, 7244, Note_off_c, 0, 53, 64
1, 7244, Note_off_c, 0, 76, 64
1, 7244, Note_off_c, 0, 78, 64
1, 7244, Note_off_c, 0, 83, 64
1, 7244, Note_off_c, 0, 84, 64
1, 7244, Note_off_c, 0, 87, 64
1, 7244, Note_off_c, 0, 91, 64
1, 7244, Note_off_c, 0, 93, 64
1, 7244, Note_off_c, 0, 97, 64
1, 7244, Note_off_c, 0, 101, 64
1, 7245, Note_on_c, 0, 45, 94
1, 7245, Note_off_c, 0, 48, 64
1, 7245, Note_off_c, 0, 82, 64
1, 7245, Note_off_c, 0, 88, 64
1, 7246, Note_on_c, 0, 42, 99
1, 7246, Note_off_c, 0, 45, 64
1, 7247, Note_on_c, 0, 40, 99
1, 7247, Note_off_c, 0, 42, 64
1, 7248, Note_on_c, 0, 38, 98
1, 7248, Note_off_c, 0, 40, 64
1, 7249, Note_on_c, 0, 37, 98
1, 7249, Note_off_c, 0, 38, 64
1, 7249, Note_off_c, 0, 80, 64
1, 7250, Note_on_c, 0, 35, 97
1, 7250, Note_off_c, 0, 37, 64
1, 7250, Note_on_c, 0, 70, 9
1, 7251, Note_on_c, 0, 34, 96
1, 7251, Note_off_c, 0, 35, 64
1, 7252, Note_on_c, 0, 33, 96
1, 7252, Note_off_c, 0, 34, 64
1, 7253, Note_on_c, 0, 32, 96
1, 7253, Note_off_c, 0, 33, 64
1, 7253, Note_off_c, 0, 70, 64
1, 7255, Note_on_c, 0, 31, 95
1, 7255, Note_off_c, 0, 32, 64
1, 7257, Note_on_c, 0, 72, 20
1, 7258, Note_on_c, 0, 30, 76
1, 7258, Note_off_c, 0, 31, 64
1, 7258, Note_on_c, 0, 81, 12
1, 7260, Note_off_c, 0, 30, 64
1, 7261, Note_on_c, 0, 68, 19
1, 7261, Note_on_c, 0, 71, 19
1, 7261, Note_off_c, 0, 72, 64
1, 7261, Note_on_c, 0, 80, 22
1, 7261, Note_off_c, 0, 81, 64
1, 7262, Note_on_c, 0, 31, 68
1, 7262, Note_on_c, 0, 61, 35
1, 7263, Note_on_c, 0, 30, 78
1, 7263, Note_off_c, 0, 31, 64
1, 7263, Note_on_c, 0, 48, 57
1, 7263, Note_on_c, 0, 74, 14
1, 7264, Note_on_c, 0, 29, 79
1, 7264, Note_off_c, 0, 30, 64
1, 7264, Note_off_c, 0, 71, 64
1, 7265, Note_off_c, 0, 48, 64
1, 7265, Note_off_c, 0, 80, 64
1, 7266, Note_off_c, 0, 29, 64
1, 7266, Note_on_c, 0, 30, 75
1, 7266, Note_off_c, 0, 61, 64
1, 7266, Note_off_c, 0, 74, 64
1, 7267, Note_off_c, 0, 68, 64
1, 7268, Note_on_c, 0, 29, 74
1, 7268, Note_off_c, 0, 30, 64
1, 7270, Note_on_c, 0, 83, 15
1, 7271, Note_off_c, 0, 29, 64
1, 7271, Note_on_c, 0, 30, 73
1, 7271, Note_on_c, 0, 61, 33
1, 7271, Note_on_c, 0, 68, 23
1, 7271, Note_on_c, 0, 78, 25
1, 7271, Note_on_c, 0, 87, 15
1, 7272, Note_off_c, 0, 30, 64
1, 7272, Note_on_c, 0, 31, 77
1, 7272, Note_on_c, 0, 49, 60
1, 7272, Note_on_c, 0, 71, 17
1, 7272, Note_on_c, 0, 77, 17
1, 7273, Note_on_c, 0, 30, 80
1, 7273, Note_off_c, 0, 31, 64
1, 7274, Note_on_c, 0, 29, 80
1, 7274, Note_off_c, 0, 30, 64
1, 7274, Note_off_c, 0, 83, 64
1, 7274, Note_off_c, 0, 87, 64
1, 7275, Note_off_c, 0, 49, 64
1, 7275, Note_off_c, 0, 78, 64
1, 7276, Note_off_c, 0, 29, 64
1, 7276, Note_on_c, 0, 30, 76
1, 7276, Note_off_c, 0, 61, 64
1, 7276, Note_off_c, 0, 68, 64
1, 7277, Note_off_c, 0, 71, 64
1, 7277, Note_on_c, 0, 72, 41
1, 7277, Note_off_c, 0, 77, 64
1, 7277, Note_on_c, 0, 78, 33
1, 7278, Note_off_c, 0, 30, 64
1, 7278, Note_on_c, 0, 34, 71
1, 7278, Note_on_c, 0, 67, 42
1, 7278, Note_on_c, 0, 74, 35
1, 7278, Note_on_c, 0, 83, 33
1, 7279, Note_off_c, 0, 34, 64
1, 7279, Note_on_c, 0, 76, 38
1, 7279, Note_on_c, 0, 81, 32
1, 7279, Note_on_c, 0, 85, 30
1, 7280, Note_off_c, 0, 67, 64
1, 7280, Note_off_c, 0, 74, 64
1, 7280, Note_on_c, 0, 80, 29
1, 7280, Note_on_c, 0, 82, 30
1, 7281, Note_on_c, 0, 51, 78
1, 7281, Note_on_c, 0, 68, 36
1, 7281, Note_off_c, 0, 72, 64
1, 7282, Note_on_c, 0, 46, 90
1, 7282, Note_off_c, 0, 51, 64
1, 7282, Note_off_c, 0, 81, 64
1, 7282, Note_off_c, 0, 82, 64
1, 7282, Note_off_c, 0, 83, 64
1, 7283, Note_on_c, 0, 43, 95
1, 7283, Note_off_c, 0, 46, 64
1, 7283, Note_off_c, 0, 68, 64
1, 7283, Note_off_c, 0, 80, 64
1, 7284, Note_on_c, 0, 41, 100
1, 7284, Note_off_c, 0, 43, 64
1, 7284, Note_off_c, 0, 78, 64
1, 7284, Note_off_c, 0, 85, 64
1, 7285, Note_on_c, 0, 39, 96
1, 7285, Note_off_c, 0, 41, 64
1, 7285, Note_on_c, 0, 72, 19
1, 7285, Note_off_c, 0, 76, 64
1, 7286, Note_on_c, 0, 37, 98
1, 7286, Note_off_c, 0, 39, 64
1, 7287, Note_on_c, 0, 36, 97
1, 7287, Note_off_c, 0, 37, 64
1, 7287, Note_on_c, 0, 70, 12
1, 7288, Note_on_c, 0, 35, 96
1, 7288, Note_off_c, 0, 36, 64
1, 7289, Note_on_c, 0, 34, 96
1, 7289, Note_off_c, 0, 35, 64
1, 7289, Note_off_c, 0, 72, 64
1, 7290, Note_on_c, 0, 33, 95
1, 7290, Note_off_c, 0, 34, 64
1, 7290, Note_off_c, 0, 70, 64
1, 7291, Note_on_c, 0, 32, 96
1, 7291, Note_off_c, 0, 33, 64
1, 7291, Note_on_c, 0, 72, 15
1, 7292, Note_on_c, 0, 31, 95
1, 7292, Note_off_c, 0, 32, 64
1, 7295, Note_on_c, 0, 30, 81
1, 7295, Note_off_c, 0, 31, 64
1, 7295, Note_on_c, 0, 78, 19
1, 7296, Note_off_c, 0, 72, 64
1, 7298, Note_off_c, 0, 30, 64
1, 7299, Note_on_c, 0, 36, 71
1, 7299, Note_on_c, 0, 64, 31
1, 7299, Note_on_c, 0, 71, 30
1, 7299, Note_on_c, 0, 89, 12
1, 7300, Note_on_c, 0, 31, 76
1, 7300, Note_off_c, 0, 36, 64
1, 7300, Note_on_c, 0, 77, 14
1, 7301, Note_on_c, 0, 30, 79
1, 7301, Note_off_c, 0, 31, 64
1, 7302, Note_on_c, 0, 29, 79
1, 7302, Note_off_c, 0, 30, 64
1, 7302, Note_on_c, 0, 80, 26
1, 7303, Note_on_c, 0, 61, 23
1, 7303, Note_off_c, 0, 71, 64
1, 7303, Note_on_c, 0, 72, 21
1, 7303, Note_off_c, 0, 78, 64
1, 7304, Note_off_c, 0, 29, 64
1, 7304, Note_on_c, 0, 30, 76
1, 7304, Note_off_c, 0, 64, 64
1, 7304, Note_off_c, 0, 77, 64
1, 7304, Note_off_c, 0, 89, 64
1, 7305, Note_on_c, 0, 29, 74
1, 7305, Note_off_c, 0, 30, 64
1, 7305, Note_on_c, 0, 48, 53
1, 7306, Note_off_c, 0, 61, 64
1, 7306, Note_off_c, 0, 72, 64
1, 7306, Note_on_c, 0, 74, 22
1, 7307, Note_off_c, 0, 48, 64
1, 7307, Note_on_c, 0, 76, 11
1, 7307, Note_on_c, 0, 84, 33
1, 7308, Note_on_c, 0, 42, 66
1, 7308, Note_on_c, 0, 70, 27
1, 7309, Note_off_c, 0, 29, 64
1, 7309, Note_on_c, 0, 30, 75
1, 7309, Note_off_c, 0, 42, 64
1, 7309, Note_on_c, 0, 61, 33
1, 7309, Note_on_c, 0, 66, 23
1, 7310, Note_off_c, 0, 30, 64
1, 7310, Note_on_c, 0, 31, 79
1, 7310, Note_off_c, 0, 76, 64
1, 7311, Note_on_c, 0, 30, 80
1, 7311, Note_off_c, 0, 31, 64
1, 7311, Note_on_c, 0, 63, 30
1, 7311, Note_on_c, 0, 68, 21
1, 7311, Note_off_c, 0, 74, 64
1, 7311, Note_off_c, 0, 80, 64
1, 7311, Note_on_c, 0, 85, 20
1, 7312, Note_off_c, 0, 66, 64
1, 7312, Note_off_c, 0, 70, 64
1, 7312, Note_on_c, 0, 72, 31
1, 7312, Note_on_c, 0, 79, 18
1, 7313, Note_off_c, 0, 63, 64
1, 7315, Note_off_c, 0, 30, 64
1, 7315, Note_on_c, 0, 33, 72
1, 7315, Note_off_c, 0, 61, 64
1, 7315, Note_on_c, 0, 66, 49
1, 7315, Note_off_c, 0, 68, 64
1, 7315, Note_on_c, 0, 77, 30
1, 7315, Note_on_c, 0, 80, 36
1, 7315, Note_off_c, 0, 85, 64
1, 7316, Note_off_c, 0, 33, 64
1, 7316, Note_on_c, 0, 60, 50
1, 7316, Note_on_c, 0, 63, 48
1, 7316, Note_off_c, 0, 72, 64
1, 7316, Note_off_c, 0, 79, 64
1, 7316, Note_on_c, 0, 85, 34
1, 7316, Note_on_c, 0, 93, 24
1, 7316, Note_on_c, 0, 94, 25
1, 7317, Note_on_c, 0, 76, 39
1, 7317, Note_off_c, 0, 77, 64
1, 7317, Note_on_c, 0, 83, 34
1, 7317, Note_on_c, 0, 86, 29
1, 7318, Note_on_c, 0, 53, 71
1, 7318, Note_off_c, 0, 60, 64
1, 7318, Note_off_c, 0, 63, 64
1, 7318, Note_on_c, 0, 64, 47
1, 7318, Note_off_c, 0, 66, 64
1, 7318, Note_on_c, 0, 68, 40
1, 7318, Note_on_c, 0, 73, 36
1, 7318, Note_on_c, 0, 79, 26
1, 7318, Note_off_c, 0, 80, 64
1, 7319, Note_on_c, 0, 48, 85
1, 7319, Note_off_c, 0, 53, 64
1, 7319, Note_off_c, 0, 76, 64
1, 7319, Note_off_c, 0, 84, 64
1, 7319, Note_off_c, 0, 85, 64
1, 7319, Note_off_c, 0, 86, 64
1, 7319, Note_off_c, 0, 93, 64
1, 7319, Note_off_c, 0, 94, 64
1, 7320, Note_on_c, 0, 45, 94
1, 7320, Note_off_c, 0, 48, 64
1, 7320, Note_off_c, 0, 64, 64
1, 7320, Note_off_c, 0, 68, 64
1, 7320, Note_on_c, 0, 72, 29
1, 7320, Note_off_c, 0, 73, 64
1, 7320, Note_on_c, 0, 76, 14
1, 7320, Note_off_c, 0, 83, 64
1, 7321, Note_on_c, 0, 42, 100
1, 7321, Note_off_c, 0, 45, 64
1, 7321, Note_on_c, 0, 78, 22
1, 7321, Note_off_c, 0, 79, 64
1, 7322, Note_on_c, 0, 40, 98
1, 7322, Note_off_c, 0, 42, 64
1, 7323, Note_on_c, 0, 38, 98
1, 7323, Note_off_c, 0, 40, 64
1, 7323, Note_off_c, 0, 76, 64
1, 7324, Note_on_c, 0, 37, 98
1, 7324, Note_off_c, 0, 38, 64
1, 7324, Note_off_c, 0, 72, 64
1, 7325, Note_on_c, 0, 35, 97
1, 7325, Note_off_c, 0, 37, 64
1, 7325, Note_on_c, 0, 72, 27
1, 7325, Note_on_c, 0, 79, 16
1, 7326, Note_on_c, 0, 34, 96
1, 7326, Note_off_c, 0, 35, 64
1, 7327, Note_on_c, 0, 33, 96
1, 7327, Note_off_c, 0, 34, 64
1, 7327, Note_off_c, 0, 78, 64
1, 7328, Note_on_c, 0, 32, 96
1, 7328, Note_off_c, 0, 33, 64
1, 7330, Note_on_c, 0, 31, 94
1, 7330, Note_off_c, 0, 32, 64
1, 7330, Note_on_c, 0, 70, 20
1, 7330, Note_off_c, 0, 72, 64
1, 7330, Note_on_c, 0, 78, 17
1, 7330, Note_off_c, 0, 79, 64
1, 7332, Note_on_c, 0, 30, 85
1, 7332, Note_off_c, 0, 31, 64
1, 7332, Note_on_c, 0, 79, 17
1, 7333, Note_off_c, 0, 78, 64
1, 7334, Note_off_c, 0, 70, 64
1, 7335, Note_off_c, 0, 30, 64
1, 7335, Note_on_c, 0, 71, 19
1, 7335, Note_off_c, 0, 79, 64
1, 7335, Note_on_c, 0, 80, 27
1, 7336, Note_on_c, 0, 36, 66
1, 7336, Note_on_c, 0, 64, 29
1, 7336, Note_on_c, 0, 81, 16
1, 7337, Note_on_c, 0, 32, 73
1, 7337, Note_off_c, 0, 36, 64
1, 7337, Note_on_c, 0, 54, 55
1, 7337, Note_on_c, 0, 61, 32
1, 7337, Note_on_c, 0, 68, 34
1, 7338, Note_on_c, 0, 31, 79
1, 7338, Note_off_c, 0, 32, 64
1, 7338, Note_off_c, 0, 64, 64
1, 7338, Note_off_c, 0, 71, 64
1, 7338, Note_on_c, 0, 72, 28
1, 7338, Note_on_c, 0, 76, 18
1, 7338, Note_off_c, 0, 80, 64
1, 7339, Note_on_c, 0, 29, 81
1, 7339, Note_off_c, 0, 31, 64
1, 7339, Note_off_c, 0, 54, 64
1, 7339, Note_on_c, 0, 85, 10
1, 7340, Note_off_c, 0, 61, 64
1, 7340, Note_on_c, 0, 74, 15
1, 7340, Note_on_c, 0, 78, 20
1, 7341, Note_off_c, 0, 29, 64
1, 7341, Note_on_c, 0, 30, 76
1, 7341, Note_off_c, 0, 76, 64
1, 7342, Note_off_c, 0, 85, 64
1, 7343, Note_on_c, 0, 29, 74
1, 7343, Note_off_c, 0, 30, 64
1, 7343, Note_off_c, 0, 78, 64
1, 7343, Note_off_c, 0, 81, 64
1, 7344, Note_off_c, 0, 68, 64
1, 7344, Note_off_c, 0, 74, 64
1, 7344, Note_on_c, 0, 83, 14
1, 7345, Note_on_c, 0, 64, 30
1, 7345, Note_off_c, 0, 72, 64
1, 7345, Note_on_c, 0, 77, 26
1, 7345, Note_on_c, 0, 78, 22
1, 7346, Note_off_c, 0, 29, 64
1, 7346, Note_on_c, 0, 30, 74
1, 7346, Note_on_c, 0, 61, 31
1, 7346, Note_on_c, 0, 73, 39
1, 7346, Note_on_c, 0, 79, 31
1, 7346, Note_on_c, 0, 81, 18
1, 7347, Note_off_c, 0, 30, 64
1, 7347, Note_on_c, 0, 31, 78
1, 7347, Note_on_c, 0, 49, 61
1, 7347, Note_off_c, 0, 64, 64
1, 7348, Note_on_c, 0, 30, 80
1, 7348, Note_off_c, 0, 31, 64
1, 7348, Note_on_c, 0, 68, 26
1, 7348, Note_off_c, 0, 78, 64
1, 7348, Note_off_c, 0, 83, 64
1, 7349, Note_on_c, 0, 29, 79
1, 7349, Note_off_c, 0, 30, 64
1, 7349, Note_off_c, 0, 73, 64
1, 7350, Note_off_c, 0, 29, 64
1, 7350, Note_on_c, 0, 30, 76
1, 7350, Note_on_c, 0, 82, 17
1, 7351, Note_off_c, 0, 61, 64
1, 7351, Note_off_c, 0, 77, 64
1, 7351, Note_off_c, 0, 81, 64
1, 7352, Note_off_c, 0, 30, 64
1, 7352, Note_on_c, 0, 31, 72
1, 7352, Note_off_c, 0, 49, 64
1, 7352, Note_on_c, 0, 54, 38
1, 7353, Note_off_c, 0, 31, 64
1, 7353, Note_on_c, 0, 35, 69
1, 7353, Note_off_c, 0, 68, 64
1, 7353, Note_on_c, 0, 70, 42
1, 7353, Note_on_c, 0, 72, 45
1, 7353, Note_on_c, 0, 78, 36
1, 7353, Note_on_c, 0, 83, 30
1, 7353, Note_on_c, 0, 85, 34
1, 7353, Note_on_c, 0, 87, 28
1, 7353, Note_on_c, 0, 89, 29
1, 7354, Note_off_c, 0, 35, 64
1, 7354, Note_on_c, 0, 65, 50
1, 7354, Note_on_c, 0, 74, 40
1, 7354, Note_on_c, 0, 81, 38
1, 7354, Note_off_c, 0, 82, 64
1, 7355, Note_off_c, 0, 54, 64
1, 7355, Note_on_c, 0, 69, 46
1, 7355, Note_off_c, 0, 70, 64
1, 7355, Note_off_c, 0, 85, 64
1, 7356, Note_on_c, 0, 51, 79
1, 7356, Note_off_c, 0, 79, 64
1, 7356, Note_off_c, 0, 83, 64
1, 7356, Note_off_c, 0, 87, 64
1, 7356, Note_off_c, 0, 89, 64
1, 7357, Note_on_c, 0, 45, 90
1, 7357, Note_off_c, 0, 51, 64
1, 7357, Note_off_c, 0, 65, 64
1, 7357, Note_off_c, 0, 74, 64
1, 7358, Note_on_c, 0, 42, 96
1, 7358, Note_off_c, 0, 45, 64
1, 7358, Note_off_c, 0, 69, 64
1, 7358, Note_off_c, 0, 78, 64
1, 7358, Note_on_c, 0, 79, 21
1, 7359, Note_on_c, 0, 41, 99
1, 7359, Note_off_c, 0, 42, 64
1, 7359, Note_off_c, 0, 81, 64
1, 7360, Note_on_c, 0, 39, 97
1, 7360, Note_off_c, 0, 41, 64
1, 7360, Note_on_c, 0, 80, 20
1, 7361, Note_on_c, 0, 37, 98
1, 7361, Note_off_c, 0, 39, 64
1, 7361, Note_off_c, 0, 72, 64
1, 7361, Note_on_c, 0, 76, 16
1, 7361, Note_off_c, 0, 79, 64
1, 7362, Note_on_c, 0, 36, 97
1, 7362, Note_off_c, 0, 37, 64
1, 7362, Note_on_c, 0, 72, 26
1, 7363, Note_on_c, 0, 35, 95
1, 7363, Note_off_c, 0, 36, 64
1, 7363, Note_off_c, 0, 80, 64
1, 7364, Note_on_c, 0, 34, 95
1, 7364, Note_off_c, 0, 35, 64
1, 7364, Note_on_c, 0, 78, 17
1, 7365, Note_on_c, 0, 33, 95
1, 7365, Note_off_c, 0, 34, 64
1, 7365, Note_off_c, 0, 76, 64
1, 7366, Note_on_c, 0, 32, 96
1, 7366, Note_off_c, 0, 33, 64
1, 7366, Note_on_c, 0, 80, 16
1, 7367, Note_on_c, 0, 31, 95
1, 7367, Note_off_c, 0, 32, 64
1, 7367, Note_on_c, 0, 85, 13
1, 7368, Note_on_c, 0, 77, 17
1, 7368, Note_off_c, 0, 78, 64
1, 7369, Note_off_c, 0, 80, 64
1, 7369, Note_on_c, 0, 81, 20
1, 7370, Note_on_c, 0, 30, 80
1, 7370, Note_off_c, 0, 31, 64
1, 7370, Note_on_c, 0, 68, 14
1, 7370, Note_off_c, 0, 72, 64
1, 7370, Note_on_c, 0, 73, 22
1, 7371, Note_on_c, 0, 65, 19
1, 7371, Note_on_c, 0, 76, 23
1, 7371, Note_off_c, 0, 85, 64
1, 7371, Note_on_c, 0, 87, 12
1, 7372, Note_off_c, 0, 30, 64
1, 7372, Note_off_c, 0, 77, 64
1, 7373, Note_off_c, 0, 68, 64
1, 7373, Note_on_c, 0, 72, 32
1, 7373, Note_off_c, 0, 73, 64
1, 7373, Note_on_c, 0, 85, 11
1, 7374, Note_on_c, 0, 36, 71
1, 7374, Note_on_c, 0, 64, 31
1, 7374, Note_off_c, 0, 65, 64
1, 7374, Note_on_c, 0, 75, 21
1, 7374, Note_off_c, 0, 76, 64
1, 7374, Note_on_c, 0, 77, 21
1, 7374, Note_off_c, 0, 81, 64
1, 7374, Note_on_c, 0, 82, 23
1, 7374, Note_on_c, 0, 83, 16
1, 7374, Note_off_c, 0, 87, 64
1, 7374, Note_on_c, 0, 93, 12
1, 7375, Note_on_c, 0, 31, 75
1, 7375, Note_off_c, 0, 36, 64
1, 7375, Note_on_c, 0, 79, 19
1, 7375, Note_on_c, 0, 80, 11
1, 7376, Note_on_c, 0, 30, 79
1, 7376, Note_off_c, 0, 31, 64
1, 7376, Note_on_c, 0, 49, 60
1, 7376, Note_on_c, 0, 63, 28
1, 7376, Note_off_c, 0, 64, 64
1, 7376, Note_on_c, 0, 69, 23
1, 7376, Note_on_c, 0, 78, 29
1, 7377, Note_on_c, 0, 29, 80
1, 7377, Note_off_c, 0, 30, 64
1, 7377, Note_off_c, 0, 77, 64
1, 7377, Note_off_c, 0, 85, 64
1, 7378, Note_off_c, 0, 29, 64
1, 7378, Note_on_c, 0, 30, 77
1, 7378, Note_off_c, 0, 49, 64
1, 7378, Note_off_c, 0, 80, 64
1, 7378, Note_off_c, 0, 83, 64
1, 7379, Note_on_c, 0, 61, 15
1, 7379, Note_off_c, 0, 63, 64
1, 7379, Note_on_c, 0, 71, 30
1, 7379, Note_off_c, 0, 72, 64
1, 7379, Note_on_c, 0, 73, 20
1, 7379, Note_off_c, 0, 75, 64
1, 7379, Note_off_c, 0, 79, 64
1, 7379, Note_on_c, 0, 80, 14
1, 7379, Note_off_c, 0, 82, 64
1, 7380, Note_on_c, 0, 29, 73
1, 7380, Note_off_c, 0, 30, 64
1, 7380, Note_on_c, 0, 48, 52
1, 7380, Note_off_c, 0, 93, 64
1, 7381, Note_off_c, 0, 71, 64
1, 7381, Note_on_c, 0, 72, 40
1, 7381, Note_on_c, 0, 83, 19
1, 7382, Note_off_c, 0, 48, 64
1, 7382, Note_off_c, 0, 61, 64
1, 7382, Note_on_c, 0, 62, 35
1, 7382, Note_off_c, 0, 69, 64
1, 7382, Note_off_c, 0, 80, 64
1, 7382, Note_on_c, 0, 81, 14
1, 7382, Note_on_c, 0, 88, 16
1, 7383, Note_off_c, 0, 29, 64
1, 7383, Note_on_c, 0, 30, 78
1, 7383, Note_off_c, 0, 73, 64
1, 7384, Note_off_c, 0, 62, 64
1, 7384, Note_on_c, 0, 66, 35
1, 7385, Note_off_c, 0, 83, 64
1, 7385, Note_off_c, 0, 88, 64
1, 7386, Note_on_c, 0, 29, 79
1, 7386, Note_off_c, 0, 30, 64
1, 7386, Note_on_c, 0, 79, 25
1, 7387, Note_off_c, 0, 29, 64
1, 7387, Note_on_c, 0, 30, 79
1, 7387, Note_on_c, 0, 61, 27
1, 7387, Note_on_c, 0, 65, 31
1, 7387, Note_off_c, 0, 66, 64
1, 7387, Note_on_c, 0, 70, 30
1, 7387, Note_on_c, 0, 76, 25
1, 7387, Note_off_c, 0, 81, 64
1, 7388, Note_off_c, 0, 72, 64
1, 7388, Note_on_c, 0, 75, 28
1, 7388, Note_off_c, 0, 78, 64
1, 7389, Note_on_c, 0, 69, 48
1, 7389, Note_off_c, 0, 70, 64
1, 7390, Note_off_c, 0, 30, 64
1, 7390, Note_on_c, 0, 34, 72
1, 7390, Note_on_c, 0, 54, 31
1, 7390, Note_off_c, 0, 61, 64
1, 7390, Note_off_c, 0, 65, 64
1, 7390, Note_on_c, 0, 83, 37
1, 7390, Note_on_c, 0, 86, 38
1, 7391, Note_off_c, 0, 34, 64
1, 7391, Note_on_c, 0, 65, 52
1, 7391, Note_off_c, 0, 79, 64
1, 7391, Note_on_c, 0, 82, 37
1, 7391, Note_on_c, 0, 85, 30
1, 7391, Note_on_c, 0, 88, 31
1, 7391, Note_on_c, 0, 89, 26
1, 7391, Note_on_c, 0, 90, 28
1, 7391, Note_on_c, 0, 91, 28
1, 7391, Note_on_c, 0, 93, 27
1, 7391, Note_on_c, 0, 96, 21
1, 7391, Note_on_c, 0, 99, 21
1, 7392, Note_off_c, 0, 54, 64
1, 7392, Note_off_c, 0, 75, 64
1, 7392, Note_off_c, 0, 76, 64
1, 7393, Note_on_c, 0, 51, 73
1, 7393, Note_off_c, 0, 65, 64
1, 7393, Note_off_c, 0, 69, 64
1, 7393, Note_on_c, 0, 70, 40
1, 7393, Note_on_c, 0, 72, 28
1, 7393, Note_on_c, 0, 77, 22
1, 7394, Note_on_c, 0, 48, 85
1, 7394, Note_off_c, 0, 51, 64
1, 7394, Note_on_c, 0, 67, 29
1, 7394, Note_on_c, 0, 80, 23
1, 7394, Note_off_c, 0, 83, 64
1, 7394, Note_off_c, 0, 88, 64
1, 7394, Note_off_c, 0, 90, 64
1, 7394, Note_off_c, 0, 93, 64
1, 7394, Note_off_c, 0, 96, 64
1, 7394, Note_off_c, 0, 99, 64
1, 7395, Note_on_c, 0, 45, 94
1, 7395, Note_off_c, 0, 48, 64
1, 7395, Note_off_c, 0, 82, 64
1, 7396, Note_on_c, 0, 42, 100
1, 7396, Note_off_c, 0, 45, 64
1, 7396, Note_off_c, 0, 67, 64
1, 7396, Note_off_c, 0, 70, 64
1, 7396, Note_off_c, 0, 86, 64
1, 7396, Note_off_c, 0, 89, 64
1, 7396, Note_off_c, 0, 91, 64
1, 7397, Note_on_c, 0, 40, 97
1, 7397, Note_off_c, 0, 42, 64
1, 7397, Note_off_c, 0, 72, 64
1, 7398, Note_on_c, 0, 38, 98
1, 7398, Note_off_c, 0, 40, 64
1, 7398, Note_off_c, 0, 77, 64
1, 7398, Note_on_c, 0, 78, 25
1, 7399, Note_on_c, 0, 36, 98
1, 7399, Note_off_c, 0, 38, 64
1, 7400, Note_on_c, 0, 35, 96
1, 7400, Note_off_c, 0, 36, 64
1, 7400, Note_on_c, 0, 82, 17
1, 7401, Note_on_c, 0, 34, 95
1, 7401, Note_off_c, 0, 35, 64
1, 7402, Note_on_c, 0, 33, 95
1, 7402, Note_off_c, 0, 34, 64
1, 7402, Note_on_c, 0, 72, 41
1, 7402, Note_off_c, 0, 80, 64
1, 7402, Note_off_c, 0, 85, 64
1, 7402, Note_on_c, 0, 88, 12
1, 7403, Note_on_c, 0, 32, 96
1, 7403, Note_off_c, 0, 33, 64
1, 7403, Note_on_c, 0, 67, 15
1, 7403, Note_off_c, 0, 82, 64
1, 7404, Note_on_c, 0, 75, 14
1, 7404, Note_on_c, 0, 85, 17
1, 7405, Note_on_c, 0, 31, 94
1, 7405, Note_off_c, 0, 32, 64
1, 7406, Note_off_c, 0, 78, 64
1, 7407, Note_on_c, 0, 78, 20
1, 7407, Note_on_c, 0, 89, 14
1, 7408, Note_on_c, 0, 30, 71
1, 7408, Note_off_c, 0, 31, 64
1, 7408, Note_off_c, 0, 67, 64
1, 7408, Note_on_c, 0, 70, 30
1, 7408, Note_off_c, 0, 75, 64
1, 7408, Note_on_c, 0, 80, 34
1, 7408, Note_on_c, 0, 83, 10
1, 7409, Note_on_c, 0, 75, 22
1, 7409, Note_off_c, 0, 88, 64
1, 7410, Note_off_c, 0, 30, 64
1, 7410, Note_off_c, 0, 78, 64
1, 7410, Note_on_c, 0, 79, 37
1, 7411, Note_on_c, 0, 41, 66
1, 7411, Note_off_c, 0, 70, 64
1, 7411, Note_off_c, 0, 83, 64
1, 7411, Note_on_c, 0, 86, 24
1, 7411, Note_on_c, 0, 88, 17
1, 7411, Note_off_c, 0, 89, 64
1, 7412, Note_on_c, 0, 31, 70
1, 7412, Note_off_c, 0, 75, 64
1, 7412, Note_on_c, 0, 78, 25
1, 7412, Note_on_c, 0, 83, 20
1, 7412, Note_off_c, 0, 85, 64
1, 7413, Note_on_c, 0, 30, 77
1, 7413, Note_off_c, 0, 31, 64
1, 7413, Note_off_c, 0, 41, 64
1, 7414, Note_on_c, 0, 29, 79
1, 7414, Note_off_c, 0, 30, 64
1, 7414, Note_on_c, 0, 64, 32
1, 7414, Note_on_c, 0, 85, 18
1, 7415, Note_on_c, 0, 49, 57
1, 7415, Note_off_c, 0, 80, 64
1, 7415, Note_off_c, 0, 83, 64
1, 7416, Note_off_c, 0, 29, 64
1, 7416, Note_on_c, 0, 30, 77
1, 7416, Note_off_c, 0, 64, 64
1, 7416, Note_on_c, 0, 77, 17
1, 7416, Note_off_c, 0, 86, 64
1, 7416, Note_off_c, 0, 88, 64
1, 7417, Note_off_c, 0, 49, 64
1, 7417, Note_off_c, 0, 78, 64
1, 7418, Note_on_c, 0, 29, 73
1, 7418, Note_off_c, 0, 30, 64
1, 7418, Note_on_c, 0, 82, 20
1, 7418, Note_off_c, 0, 85, 64
1, 7418, Note_on_c, 0, 88, 27
1, 7418, Note_on_c, 0, 93, 11
1, 7419, Note_on_c, 0, 74, 25
1, 7419, Note_on_c, 0, 85, 30
1, 7420, Note_on_c, 0, 66, 34
1, 7421, Note_off_c, 0, 29, 64
1, 7421, Note_on_c, 0, 30, 72
1, 7421, Note_on_c, 0, 61, 28
1, 7421, Note_on_c, 0, 68, 29
1, 7421, Note_on_c, 0, 76, 18
1, 7421, Note_off_c, 0, 77, 64
1, 7421, Note_on_c, 0, 81, 23
1, 7421, Note_on_c, 0, 83, 19
1, 7421, Note_on_c, 0, 87, 23
1, 7421, Note_on_c, 0, 89, 12
1, 7421, Note_on_c, 0, 92, 25
1, 7422, Note_off_c, 0, 30, 64
1, 7422, Note_on_c, 0, 31, 77
1, 7422, Note_on_c, 0, 49, 57
1, 7422, Note_on_c, 0, 54, 54
1, 7422, Note_on_c, 0, 77, 33
1, 7422, Note_off_c, 0, 82, 64
1, 7423, Note_on_c, 0, 30, 80
1, 7423, Note_off_c, 0, 31, 64
1, 7423, Note_off_c, 0, 66, 64
1, 7423, Note_off_c, 0, 68, 64
1, 7423, Note_off_c, 0, 72, 64
1, 7423, Note_on_c, 0, 84, 12
1, 7424, Note_on_c, 0, 29, 80
1, 7424, Note_off_c, 0, 30, 64
1, 7424, Note_off_c, 0, 61, 64
1, 7424, Note_on_c, 0, 70, 27
1, 7424, Note_on_c, 0, 72, 41
1, 7424, Note_on_c, 0, 82, 29
1, 7424, Note_off_c, 0, 83, 64
1, 7424, Note_off_c, 0, 87, 64
1, 7425, Note_off_c, 0, 49, 64
1, 7425, Note_off_c, 0, 77, 64
1, 7425, Note_off_c, 0, 93, 64
1, 7426, Note_off_c, 0, 29, 64
1, 7426, Note_on_c, 0, 30, 75
1, 7426, Note_off_c, 0, 54, 64
1, 7426, Note_off_c, 0, 74, 64
1, 7426, Note_on_c, 0, 75, 17
1, 7426, Note_off_c, 0, 76, 64
1, 7426, Note_off_c, 0, 81, 64
1, 7426, Note_on_c, 0, 83, 29
1, 7426, Note_off_c, 0, 84, 64
1, 7426, Note_on_c, 0, 87, 29
1, 7426, Note_off_c, 0, 88, 64
1, 7426, Note_off_c, 0, 89, 64
1, 7427, Note_off_c, 0, 30, 64
1, 7427, Note_on_c, 0, 32, 72
1, 7427, Note_off_c, 0, 70, 64
1, 7427, Note_on_c, 0, 88, 36
1, 7428, Note_off_c, 0, 32, 64
1, 7428, Note_on_c, 0, 35, 68
1, 7428, Note_on_c, 0, 71, 45
1, 7428, Note_off_c, 0, 72, 64
1, 7428, Note_on_c, 0, 77, 38
1, 7428, Note_on_c, 0, 81, 36
1, 7428, Note_on_c, 0, 86, 27
1, 7428, Note_on_c, 0, 90, 30
1, 7428, Note_on_c, 0, 96, 25
1, 7429, Note_off_c, 0, 35, 64
1, 7429, Note_on_c, 0, 54, 67
1, 7429, Note_off_c, 0, 75, 64
1, 7430, Note_on_c, 0, 70, 39
1, 7430, Note_off_c, 0, 71, 64
1, 7430, Note_off_c, 0, 77, 64
1, 7430, Note_on_c, 0, 78, 36
1, 7430, Note_off_c, 0, 82, 64
1, 7431, Note_on_c, 0, 48, 80
1, 7431, Note_off_c, 0, 54, 64
1, 7431, Note_on_c, 0, 64, 34
1, 7431, Note_off_c, 0, 79, 64
1, 7431, Note_on_c, 0, 80, 27
1, 7431, Note_off_c, 0, 86, 64
1, 7431, Note_off_c, 0, 87, 64
1, 7431, Note_off_c, 0, 96, 64
1, 7432, Note_on_c, 0, 45, 91
1, 7432, Note_off_c, 0, 48, 64
1, 7432, Note_off_c, 0, 81, 64
1, 7432, Note_off_c, 0, 85, 64
1, 7432, Note_off_c, 0, 92, 64
1, 7433, Note_on_c, 0, 42, 97
1, 7433, Note_off_c, 0, 45, 64
1, 7433, Note_off_c, 0, 64, 64
1, 7433, Note_on_c, 0, 67, 27
1, 7433, Note_on_c, 0, 75, 21
1, 7433, Note_off_c, 0, 83, 64
1, 7434, Note_on_c, 0, 41, 98
1, 7434, Note_off_c, 0, 42, 64
1, 7434, Note_on_c, 0, 86, 16
1, 7434, Note_off_c, 0, 90, 64
1, 7435, Note_on_c, 0, 38, 96
1, 7435, Note_off_c, 0, 41, 64
1, 7435, Note_on_c, 0, 83, 18
1, 7435, Note_on_c, 0, 85, 26
1, 7436, Note_on_c, 0, 37, 97
1, 7436, Note_off_c, 0, 38, 64
1, 7436, Note_on_c, 0, 66, 27
1, 7436, Note_off_c, 0, 67, 64
1, 7436, Note_on_c, 0, 68, 29
1, 7436, Note_off_c, 0, 75, 64
1, 7436, Note_on_c, 0, 81, 24
1, 7436, Note_on_c, 0, 89, 43
1, 7437, Note_on_c, 0, 36, 97
1, 7437, Note_off_c, 0, 37, 64
1, 7437, Note_off_c, 0, 80, 64
1, 7438, Note_on_c, 0, 34, 96
1, 7438, Note_off_c, 0, 36, 64
1, 7438, Note_off_c, 0, 70, 64
1, 7438, Note_on_c, 0, 77, 18
1, 7438, Note_off_c, 0, 78, 64
1, 7438, Note_on_c, 0, 82, 20
1, 7438, Note_off_c, 0, 83, 64
1, 7438, Note_off_c, 0, 88, 64
1, 7439, Note_on_c, 0, 33, 96
1, 7439, Note_off_c, 0, 34, 64
1, 7439, Note_on_c, 0, 65, 29
1, 7439, Note_off_c, 0, 66, 64
1, 7439, Note_on_c, 0, 72, 38
1, 7439, Note_off_c, 0, 81, 64
1, 7439, Note_on_c, 0, 88, 28
1, 7441, Note_on_c, 0, 32, 96
1, 7441, Note_off_c, 0, 33, 64
1, 7441, Note_off_c, 0, 68, 64
1, 7441, Note_off_c, 0, 86, 64
1, 7441, Note_on_c, 0, 93, 31
1, 7442, Note_on_c, 0, 31, 94
1, 7442, Note_off_c, 0, 32, 64
1, 7442, Note_off_c, 0, 72, 64
1, 7442, Note_on_c, 0, 78, 23
1, 7442, Note_on_c, 0, 81, 21
1, 7442, Note_on_c, 0, 84, 10
1, 7442, Note_on_c, 0, 87, 16
1, 7442, Note_on_c, 0, 91, 20
1, 7443, Note_off_c, 0, 65, 64
1, 7443, Note_on_c, 0, 66, 30
1, 7443, Note_on_c, 0, 72, 37
1, 7443, Note_on_c, 0, 74, 24
1, 7443, Note_off_c, 0, 85, 64
1, 7444, Note_on_c, 0, 76, 27
1, 7444, Note_off_c, 0, 77, 64
1, 7444, Note_off_c, 0, 82, 64
1, 7445, Note_on_c, 0, 30, 78
1, 7445, Note_off_c, 0, 31, 64
1, 7445, Note_off_c, 0, 66, 64
1, 7445, Note_on_c, 0, 68, 32
1, 7445, Note_off_c, 0, 84, 64
1, 7445, Note_on_c, 0, 85, 42
1, 7445, Note_off_c, 0, 87, 64
1, 7446, Note_off_c, 0, 72, 64
1, 7446, Note_on_c, 0, 73, 25
1, 7446, Note_off_c, 0, 74, 64
1, 7446, Note_off_c, 0, 81, 64
1, 7447, Note_off_c, 0, 30, 64
1, 7447, Note_off_c, 0, 78, 64
1, 7447, Note_on_c, 0, 79, 33
1, 7447, Note_on_c, 0, 81, 34
1, 7447, Note_on_c, 0, 83, 34
1, 7447, Note_on_c, 0, 87, 28
1, 7447, Note_on_c, 0, 90, 10
1, 7447, Note_off_c, 0, 91, 64
1, 7448, Note_on_c, 0, 36, 66
1, 7448, Note_on_c, 0, 61, 29
1, 7448, Note_off_c, 0, 68, 64
1, 7448, Note_on_c, 0, 71, 26
1, 7448, Note_on_c, 0, 77, 33
1, 7448, Note_off_c, 0, 88, 64
1, 7448, Note_on_c, 0, 94, 12
1, 7449, Note_on_c, 0, 68, 31
1, 7449, Note_off_c, 0, 76, 64
1, 7449, Note_on_c, 0, 88, 32
1, 7450, Note_on_c, 0, 31, 74
1, 7450, Note_off_c, 0, 36, 64
1, 7450, Note_on_c, 0, 49, 58
1, 7450, Note_off_c, 0, 90, 64
1, 7451, Note_on_c, 0, 29, 80
1, 7451, Note_off_c, 0, 31, 64
1, 7451, Note_off_c, 0, 68, 64
1, 7451, Note_on_c, 0, 72, 29
1, 7451, Note_off_c, 0, 73, 64
1, 7451, Note_off_c, 0, 79, 64
1, 7451, Note_on_c, 0, 80, 30
1, 7451, Note_on_c, 0, 86, 18
1, 7452, Note_off_c, 0, 61, 64
1, 7452, Note_on_c, 0, 63, 30
1, 7452, Note_on_c, 0, 70, 26
1, 7452, Note_off_c, 0, 71, 64
1, 7452, Note_off_c, 0, 77, 64
1, 7452, Note_off_c, 0, 81, 64
1, 7452, Note_off_c, 0, 83, 64
1, 7452, Note_off_c, 0, 87, 64
1, 7453, Note_off_c, 0, 29, 64
1, 7453, Note_on_c, 0, 30, 75
1, 7453, Note_off_c, 0, 49, 64
1, 7453, Note_on_c, 0, 67, 29
1, 7453, Note_off_c, 0, 72, 64
1, 7453, Note_on_c, 0, 73, 29
1, 7453, Note_on_c, 0, 79, 31
1, 7453, Note_on_c, 0, 87, 25
1, 7453, Note_off_c, 0, 94, 64
1, 7454, Note_on_c, 0, 83, 22
1, 7454, Note_on_c, 0, 84, 26
1, 7454, Note_off_c, 0, 85, 64
1, 7454, Note_off_c, 0, 88, 64
1, 7455, Note_on_c, 0, 29, 73
1, 7455, Note_off_c, 0, 30, 64
1, 7455, Note_off_c, 0, 63, 64
1, 7455, Note_off_c, 0, 70, 64
1, 7455, Note_off_c, 0, 73, 64
1, 7455, Note_on_c, 0, 77, 28
1, 7455, Note_on_c, 0, 88, 48
1, 7455, Note_on_c, 0, 92, 32
1, 7456, Note_on_c, 0, 78, 34
1, 7456, Note_off_c, 0, 79, 64
1, 7456, Note_on_c, 0, 82, 27
1, 7456, Note_off_c, 0, 87, 64
1, 7457, Note_on_c, 0, 69, 28
1, 7457, Note_on_c, 0, 75, 30
1, 7457, Note_off_c, 0, 83, 64
1, 7457, Note_off_c, 0, 86, 64
1, 7457, Note_on_c, 0, 87, 41
1, 7458, Note_off_c, 0, 29, 64
1, 7458, Note_on_c, 0, 30, 79
1, 7458, Note_off_c, 0, 67, 64
1, 7458, Note_on_c, 0, 72, 38
1, 7458, Note_on_c, 0, 86, 13
1, 7459, Note_off_c, 0, 77, 64
1, 7459, Note_off_c, 0, 80, 64
1, 7459, Note_on_c, 0, 83, 29
1, 7459, Note_off_c, 0, 84, 64
1, 7459, Note_on_c, 0, 85, 53
1, 7459, Note_on_c, 0, 103, 22
1, 7460, Note_on_c, 0, 68, 28
1, 7460, Note_off_c, 0, 69, 64
1, 7460, Note_off_c, 0, 72, 64
1, 7460, Note_on_c, 0, 73, 26
1, 7460, Note_off_c, 0, 78, 64
1, 7460, Note_on_c, 0, 79, 23
1, 7460, Note_on_c, 0, 96, 14
1, 7461, Note_on_c, 0, 29, 80
1, 7461, Note_off_c, 0, 30, 64
1, 7461, Note_on_c, 0, 49, 60
1, 7461, Note_off_c, 0, 86, 64
1, 7462, Note_off_c, 0, 29, 64
1, 7462, Note_on_c, 0, 30, 78
1, 7462, Note_on_c, 0, 78, 24
1, 7462, Note_on_c, 0, 95, 33
1, 7463, Note_on_c, 0, 29, 77
1, 7463, Note_off_c, 0, 30, 64
1, 7463, Note_on_c, 0, 63, 29
1, 7463, Note_off_c, 0, 75, 64
1, 7463, Note_on_c, 0, 76, 29
1, 7463, Note_off_c, 0, 79, 64
1, 7463, Note_off_c, 0, 83, 64
1, 7463, Note_on_c, 0, 98, 33
1, 7464, Note_off_c, 0, 29, 64
1, 7464, Note_on_c, 0, 30, 74
1, 7464, Note_off_c, 0, 49, 64
1, 7464, Note_on_c, 0, 69, 43
1, 7464, Note_off_c, 0, 73, 64
1, 7464, Note_on_c, 0, 77, 32
1, 7464, Note_on_c, 0, 81, 49
1, 7464, Note_on_c, 0, 90, 29
1, 7465, Note_off_c, 0, 30, 64
1, 7465, Note_on_c, 0, 34, 71
1, 7465, Note_off_c, 0, 68, 64
1, 7465, Note_off_c, 0, 76, 64
1, 7465, Note_off_c, 0, 78, 64
1, 7465, Note_off_c, 0, 82, 64
1, 7466, Note_off_c, 0, 34, 64
1, 7466, Note_on_c, 0, 74, 47
1, 7466, Note_on_c, 0, 91, 28
1, 7466, Note_on_c, 0, 94, 36
1, 7466, Note_off_c, 0, 96, 64
1, 7467, Note_off_c, 0, 63, 64
1, 7467, Note_off_c, 0, 69, 64
1, 7467, Note_on_c, 0, 71, 43
1, 7467, Note_on_c, 0, 76, 45
1, 7467, Note_off_c, 0, 77, 64
1, 7467, Note_on_c, 0, 78, 53
1, 7467, Note_on_c, 0, 80, 42
1, 7467, Note_on_c, 0, 83, 51
1, 7467, Note_off_c, 0, 90, 64
1, 7467, Note_on_c, 0, 96, 18
1, 7468, Note_on_c, 0, 51, 75
1, 7468, Note_on_c, 0, 82, 48
1, 7468, Note_on_c, 0, 84, 32
1, 7469, Note_on_c, 0, 48, 85
1, 7469, Note_off_c, 0, 51, 64
1, 7469, Note_off_c, 0, 78, 64
1, 7469, Note_on_c, 0, 79, 56
1, 7469, Note_off_c, 0, 80, 64
1, 7469, Note_off_c, 0, 92, 64
1, 7469, Note_off_c, 0, 103, 64
1, 7470, Note_on_c, 0, 44, 94
1, 7470, Note_off_c, 0, 48, 64
1, 7470, Note_off_c, 0, 71, 64
1, 7470, Note_on_c, 0, 73, 33
1, 7470, Note_off_c, 0, 74, 64
1, 7470, Note_on_c, 0, 78, 36
1, 7470, Note_on_c, 0, 80, 44
1, 7470, Note_off_c, 0, 81, 64
1, 7470, Note_off_c, 0, 94, 64
1, 7470, Note_off_c, 0, 98, 64
1, 7471, Note_on_c, 0, 41, 99
1, 7471, Note_off_c, 0, 44, 64
1, 7471, Note_on_c, 0, 63, 12
1, 7471, Note_off_c, 0, 89, 64
1, 7472, Note_on_c, 0, 39, 95
1, 7472, Note_off_c, 0, 41, 64
1, 7472, Note_off_c, 0, 73, 64
1, 7472, Note_off_c, 0, 82, 64
1, 7472, Note_off_c, 0, 88, 64
1, 7473, Note_on_c, 0, 38, 97
1, 7473, Note_off_c, 0, 39, 64
1, 7473, Note_on_c, 0, 73, 40
1, 7473, Note_on_c, 0, 75, 37
1, 7473, Note_off_c, 0, 78, 64
1, 7473, Note_on_c, 0, 81, 28
1, 7473, Note_off_c, 0, 83, 64
1, 7473, Note_off_c, 0, 91, 64
1, 7473, Note_off_c, 0, 95, 64
1, 7473, Note_off_c, 0, 96, 64
1, 7474, Note_on_c, 0, 36, 97
1, 7474, Note_off_c, 0, 38, 64
1, 7474, Note_off_c, 0, 63, 64
1, 7474, Note_off_c, 0, 76, 64
1, 7474, Note_on_c, 0, 77, 45
1, 7474, Note_off_c, 0, 79, 64
1, 7474, Note_on_c, 0, 82, 21
1, 7474, Note_off_c, 0, 84, 64
1, 7475, Note_on_c, 0, 35, 96
1, 7475, Note_off_c, 0, 36, 64
1, 7475, Note_on_c, 0, 70, 17
1, 7475, Note_off_c, 0, 85, 64
1, 7475, Note_on_c, 0, 86, 15
1, 7475, Note_on_c, 0, 88, 24
1, 7476, Note_on_c, 0, 34, 95
1, 7476, Note_off_c, 0, 35, 64
1, 7476, Note_off_c, 0, 73, 64
1, 7476, Note_off_c, 0, 75, 64
1, 7476, Note_on_c, 0, 79, 33
1, 7476, Note_on_c, 0, 85, 15
1, 7476, Note_off_c, 0, 87, 64
1, 7476, Note_on_c, 0, 96, 12
1, 7477, Note_on_c, 0, 33, 95
1, 7477, Note_off_c, 0, 34, 64
1, 7477, Note_on_c, 0, 66, 35
1, 7477, Note_on_c, 0, 83, 17
1, 7477, Note_on_c, 0, 87, 20
1, 7478, Note_on_c, 0, 32, 95
1, 7478, Note_off_c, 0, 33, 64
1, 7478, Note_off_c, 0, 70, 64
1, 7478, Note_on_c, 0, 73, 34
1, 7478, Note_off_c, 0, 82, 64
1, 7478, Note_off_c, 0, 86, 64
1, 7479, Note_on_c, 0, 75, 25
1, 7479, Note_off_c, 0, 81, 64
1, 7479, Note_off_c, 0, 85, 64
1, 7480, Note_on_c, 0, 31, 93
1, 7480, Note_off_c, 0, 32, 64
1, 7480, Note_off_c, 0, 77, 64
1, 7480, Note_off_c, 0, 80, 64
1, 7480, Note_on_c, 0, 82, 33
1, 7480, Note_on_c, 0, 86, 32
1, 7480, Note_off_c, 0, 87, 64
1, 7480, Note_off_c, 0, 93, 64
1, 7481, Note_on_c, 0, 48, 22
1, 7481, Note_off_c, 0, 79, 64
1, 7481, Note_on_c, 0, 80, 36
1, 7481, Note_off_c, 0, 83, 64
1, 7482, Note_on_c, 0, 30, 82
1, 7482, Note_off_c, 0, 31, 64
1, 7482, Note_off_c, 0, 73, 64
1, 7482, Note_off_c, 0, 82, 64
1, 7482, Note_on_c, 0, 83, 34
1, 7482, Note_on_c, 0, 89, 28
1, 7482, Note_on_c, 0, 93, 21
1, 7483, Note_on_c, 0, 71, 26
1, 7483, Note_on_c, 0, 77, 13
1, 7483, Note_on_c, 0, 99, 10
1, 7484, Note_off_c, 0, 30, 64
1, 7484, Note_off_c, 0, 48, 64
1, 7484, Note_on_c, 0, 65, 34
1, 7484, Note_off_c, 0, 66, 64
1, 7484, Note_on_c, 0, 79, 25
1, 7485, Note_on_c, 0, 84, 51
1, 7485, Note_on_c, 0, 90, 32
1, 7485, Note_on_c, 0, 92, 37
1, 7486, Note_on_c, 0, 41, 67
1, 7486, Note_on_c, 0, 61, 30
1, 7486, Note_on_c, 0, 64, 34
1, 7486, Note_off_c, 0, 65, 64
1, 7486, Note_off_c, 0, 71, 64
1, 7486, Note_off_c, 0, 75, 64
1, 7486, Note_off_c, 0, 77, 64
1, 7486, Note_on_c, 0, 78, 38
1, 7486, Note_on_c, 0, 82, 40
1, 7486, Note_off_c, 0, 88, 64
1, 7486, Note_off_c, 0, 99, 64
1, 7486, Note_on_c, 0, 100, 20
1, 7487, Note_on_c, 0, 31, 74
1, 7487, Note_off_c, 0, 41, 64
1, 7487, Note_on_c, 0, 69, 39
1, 7487, Note_on_c, 0, 75, 41
1, 7487, Note_off_c, 0, 79, 64
1, 7487, Note_on_c, 0, 85, 57
1, 7487, Note_on_c, 0, 88, 18
1, 7487, Note_off_c, 0, 89, 64
1, 7488, Note_on_c, 0, 30, 79
1, 7488, Note_off_c, 0, 31, 64
1, 7488, Note_off_c, 0, 61, 64
1, 7488, Note_off_c, 0, 83, 64
1, 7488, Note_off_c, 0, 86, 64
1, 7489, Note_on_c, 0, 29, 79
1, 7489, Note_off_c, 0, 30, 64
1, 7489, Note_on_c, 0, 49, 58
1, 7489, Note_off_c, 0, 64, 64
1, 7489, Note_on_c, 0, 77, 41
1, 7489, Note_off_c, 0, 78, 64
1, 7489, Note_on_c, 0, 79, 42
1, 7489, Note_off_c, 0, 96, 64
1, 7489, Note_off_c, 0, 100, 64
1, 7490, Note_off_c, 0, 29, 64
1, 7490, Note_on_c, 0, 30, 76
1, 7490, Note_on_c, 0, 65, 36
1, 7490, Note_on_c, 0, 68, 30
1, 7490, Note_off_c, 0, 69, 64
1, 7490, Note_on_c, 0, 71, 29
1, 7490, Note_off_c, 0, 75, 64
1, 7490, Note_off_c, 0, 80, 64
1, 7490, Note_off_c, 0, 82, 64
1, 7490, Note_off_c, 0, 84, 64
1, 7490, Note_off_c, 0, 88, 64
1, 7491, Note_on_c, 0, 75, 27
1, 7491, Note_on_c, 0, 80, 36
1, 7491, Note_on_c, 0, 84, 28
1, 7491, Note_off_c, 0, 85, 64
1, 7491, Note_on_c, 0, 86, 23
1, 7492, Note_off_c, 0, 49, 64
1, 7492, Note_on_c, 0, 70, 34
1, 7492, Note_off_c, 0, 71, 64
1, 7492, Note_off_c, 0, 77, 64
1, 7492, Note_on_c, 0, 78, 41
1, 7492, Note_on_c, 0, 85, 37
1, 7493, Note_on_c, 0, 29, 71
1, 7493, Note_off_c, 0, 30, 64
1, 7493, Note_on_c, 0, 71, 49
1, 7493, Note_on_c, 0, 74, 33
1, 7493, Note_off_c, 0, 79, 64
1, 7493, Note_off_c, 0, 92, 64
1, 7493, Note_off_c, 0, 93, 64
1, 7494, Note_off_c, 0, 68, 64
1, 7494, Note_on_c, 0, 69, 32
1, 7494, Note_off_c, 0, 70, 64
1, 7494, Note_off_c, 0, 75, 64
1, 7494, Note_off_c, 0, 86, 64
1, 7494, Note_on_c, 0, 87, 15
1, 7494, Note_on_c, 0, 88, 35
1, 7494, Note_on_c, 0, 91, 32
1, 7495, Note_off_c, 0, 90, 64
1, 7495, Note_on_c, 0, 94, 16
1, 7496, Note_off_c, 0, 29, 64
1, 7496, Note_on_c, 0, 30, 78
1, 7496, Note_on_c, 0, 64, 28
1, 7496, Note_off_c, 0, 65, 64
1, 7496, Note_on_c, 0, 68, 36
1, 7496, Note_off_c, 0, 69, 64
1, 7496, Note_off_c, 0, 74, 64
1, 7496, Note_off_c, 0, 78, 64
1, 7496, Note_on_c, 0, 79, 44
1, 7496, Note_on_c, 0, 81, 37
1, 7496, Note_off_c, 0, 84, 64
1, 7497, Note_on_c, 0, 49, 58
1, 7497, Note_on_c, 0, 74, 30
1, 7497, Note_on_c, 0, 84, 30
1, 7497, Note_off_c, 0, 85, 64
1, 7498, Note_on_c, 0, 78, 45
1, 7498, Note_off_c, 0, 79, 64
1, 7499, Note_on_c, 0, 29, 78
1, 7499, Note_off_c, 0, 30, 64
1, 7499, Note_off_c, 0, 64, 64
1, 7499, Note_off_c, 0, 68, 64
1, 7499, Note_off_c, 0, 71, 64
1, 7499, Note_on_c, 0, 72, 44
1, 7499, Note_off_c, 0, 74, 64
1, 7499, Note_off_c, 0, 81, 64
1, 7499, Note_on_c, 0, 85, 23
1, 7499, Note_off_c, 0, 87, 64
1, 7499, Note_on_c, 0, 93, 32
1, 7500, Note_off_c, 0, 49, 64
1, 7500, Note_on_c, 0, 64, 33
1, 7500, Note_on_c, 0, 67, 48
1, 7500, Note_off_c, 0, 84, 64
1, 7500, Note_on_c, 0, 89, 25
1, 7500, Note_off_c, 0, 94, 64
1, 7501, Note_off_c, 0, 29, 64
1, 7501, Note_on_c, 0, 30, 75
1, 7501, Note_on_c, 0, 87, 35
1, 7502, Note_off_c, 0, 30, 64
1, 7502, Note_on_c, 0, 33, 73
1, 7502, Note_off_c, 0, 80, 64
1, 7502, Note_on_c, 0, 81, 40
1, 7502, Note_off_c, 0, 85, 64
1, 7502, Note_on_c, 0, 86, 36
1, 7502, Note_off_c, 0, 88, 64
1, 7503, Note_off_c, 0, 33, 64
1, 7503, Note_on_c, 0, 35, 66
1, 7503, Note_off_c, 0, 64, 64
1, 7503, Note_off_c, 0, 78, 64
1, 7503, Note_on_c, 0, 88, 31
1, 7503, Note_on_c, 0, 92, 27
1, 7503, Note_on_c, 0, 94, 18
1, 7503, Note_on_c, 0, 96, 20
1, 7504, Note_off_c, 0, 35, 64
1, 7504, Note_on_c, 0, 76, 34
1, 7504, Note_on_c, 0, 78, 43
1, 7504, Note_on_c, 0, 85, 30
1, 7505, Note_on_c, 0, 53, 67
1, 7505, Note_on_c, 0, 64, 48
1, 7505, Note_off_c, 0, 72, 64
1, 7505, Note_on_c, 0, 74, 34
1, 7506, Note_on_c, 0, 48, 82
1, 7506, Note_off_c, 0, 53, 64
1, 7506, Note_on_c, 0, 75, 17
1, 7506, Note_off_c, 0, 76, 64
1, 7506, Note_off_c, 0, 85, 64
1, 7506, Note_off_c, 0, 86, 64
1, 7506, Note_off_c, 0, 89, 64
1, 7506, Note_off_c, 0, 92, 64
1, 7506, Note_off_c, 0, 94, 64
1, 7506, Note_off_c, 0, 96, 64
1, 7507, Note_on_c, 0, 45, 92
1, 7507, Note_off_c, 0, 48, 64
1, 7507, Note_off_c, 0, 64, 64
1, 7507, Note_off_c, 0, 74, 64
1, 7507, Note_off_c, 0, 81, 64
1, 7507, Note_off_c, 0, 88, 64
1, 7507, Note_off_c, 0, 93, 64
1, 7508, Note_on_c, 0, 42, 98
1, 7508, Note_off_c, 0, 45, 64
1, 7508, Note_off_c, 0, 67, 64
1, 7508, Note_on_c, 0, 72, 26
1, 7508, Note_off_c, 0, 78, 64
1, 7508, Note_on_c, 0, 80, 29
1, 7508, Note_on_c, 0, 85, 15
1, 7508, Note_off_c, 0, 87, 64
1, 7508, Note_on_c, 0, 88, 13
1, 7509, Note_on_c, 0, 41, 98
1, 7509, Note_off_c, 0, 42, 64
1, 7509, Note_on_c, 0, 74, 18
1, 7509, Note_on_c, 0, 78, 24
1, 7510, Note_on_c, 0, 38, 98
1, 7510, Note_off_c, 0, 41, 64
1, 7510, Note_off_c, 0, 75, 64
1, 7510, Note_on_c, 0, 76, 25
1, 7510, Note_off_c, 0, 91, 64
1, 7511, Note_on_c, 0, 37, 98
1, 7511, Note_off_c, 0, 38, 64
1, 7511, Note_off_c, 0, 85, 64
1, 7511, Note_off_c, 0, 88, 64
1, 7512, Note_on_c, 0, 35, 96
1, 7512, Note_off_c, 0, 37, 64
1, 7512, Note_on_c, 0, 68, 22
1, 7512, Note_on_c, 0, 79, 24
1, 7512, Note_off_c, 0, 80, 64
1, 7513, Note_on_c, 0, 34, 95
1, 7513, Note_off_c, 0, 35, 64
1, 7513, Note_on_c, 0, 95, 9
1, 7514, Note_on_c, 0, 33, 96
1, 7514, Note_off_c, 0, 34, 64
1, 7514, Note_on_c, 0, 70, 17
1, 7514, Note_off_c, 0, 74, 64
1, 7514, Note_off_c, 0, 76, 64
1, 7514, Note_off_c, 0, 78, 64
1, 7514, Note_on_c, 0, 80, 25
1, 7514, Note_on_c, 0, 88, 28
1, 7514, Note_on_c, 0, 89, 15
1, 7514, Note_on_c, 0, 90, 19
1, 7515, Note_on_c, 0, 78, 30
1, 7515, Note_on_c, 0, 85, 33
1, 7516, Note_on_c, 0, 32, 96
1, 7516, Note_off_c, 0, 33, 64
1, 7516, Note_off_c, 0, 68, 64
1, 7517, Note_on_c, 0, 31, 94
1, 7517, Note_off_c, 0, 32, 64
1, 7517, Note_off_c, 0, 70, 64
1, 7517, Note_on_c, 0, 76, 21
1, 7517, Note_off_c, 0, 79, 64
1, 7517, Note_off_c, 0, 95, 64
1, 7518, Note_off_c, 0, 80, 64
1, 7518, Note_off_c, 0, 89, 64
1, 7519, Note_on_c, 0, 64, 12
1, 7519, Note_off_c, 0, 88, 64
1, 7519, Note_off_c, 0, 90, 64
1, 7520, Note_on_c, 0, 30, 77
1, 7520, Note_off_c, 0, 31, 64
1, 7520, Note_on_c, 0, 83, 30
1, 7520, Note_on_c, 0, 92, 15
1, 7521, Note_off_c, 0, 72, 64
1, 7521, Note_off_c, 0, 78, 64
1, 7521, Note_on_c, 0, 79, 37
1, 7522, Note_off_c, 0, 30, 64
1, 7522, Note_on_c, 0, 36, 70
1, 7522, Note_off_c, 0, 64, 64
1, 7522, Note_on_c, 0, 72, 32
1, 7522, Note_off_c, 0, 76, 64
1, 7522, Note_on_c, 0, 88, 27
1, 7522, Note_on_c, 0, 93, 15
1, 7523, Note_on_c, 0, 80, 36
1, 7524, Note_on_c, 0, 64, 29
1, 7524, Note_on_c, 0, 68, 22
1, 7524, Note_on_c, 0, 71, 30
1, 7524, Note_on_c, 0, 86, 20
1, 7525, Note_on_c, 0, 31, 77
1, 7525, Note_off_c, 0, 36, 64
1, 7525, Note_on_c, 0, 49, 60
1, 7525, Note_off_c, 0, 72, 64
1, 7525, Note_on_c, 0, 77, 34
1, 7525, Note_off_c, 0, 85, 64
1, 7525, Note_off_c, 0, 92, 64
1, 7525, Note_off_c, 0, 93, 64
1, 7526, Note_on_c, 0, 29, 79
1, 7526, Note_off_c, 0, 31, 64
1, 7526, Note_off_c, 0, 71, 64
1, 7526, Note_off_c, 0, 80, 64
1, 7526, Note_on_c, 0, 81, 34
1, 7526, Note_on_c, 0, 85, 17
1, 7527, Note_on_c, 0, 63, 30
1, 7527, Note_off_c, 0, 64, 64
1, 7527, Note_off_c, 0, 68, 64
1, 7527, Note_off_c, 0, 86, 64
1, 7528, Note_off_c, 0, 29, 64
1, 7528, Note_on_c, 0, 30, 75
1, 7528, Note_off_c, 0, 49, 64
1, 7529, Note_on_c, 0, 82, 12
1, 7529, Note_off_c, 0, 83, 64
1, 7529, Note_on_c, 0, 84, 16
1, 7529, Note_off_c, 0, 85, 64
1, 7530, Note_on_c, 0, 29, 74
1, 7530, Note_off_c, 0, 30, 64
1, 7531, Note_off_c, 0, 63, 64
1, 7532, Note_on_c, 0, 71, 26
1, 7532, Note_on_c, 0, 74, 31
1, 7533, Note_off_c, 0, 29, 64
1, 7533, Note_on_c, 0, 30, 78
1, 7533, Note_on_c, 0, 61, 35
1, 7533, Note_on_c, 0, 78, 17
1, 7533, Note_off_c, 0, 79, 64
1, 7533, Note_off_c, 0, 84, 64
1, 7534, Note_on_c, 0, 49, 62
1, 7534, Note_off_c, 0, 82, 64
1, 7535, Note_off_c, 0, 77, 64
1, 7535, Note_on_c, 0, 84, 23
1, 7535, Note_off_c, 0, 88, 64
1, 7536, Note_on_c, 0, 29, 79
1, 7536, Note_off_c, 0, 30, 64
1, 7536, Note_on_c, 0, 63, 33
1, 7536, Note_off_c, 0, 78, 64
1, 7536, Note_on_c, 0, 83, 28
1, 7537, Note_off_c, 0, 29, 64
1, 7537, Note_on_c, 0, 30, 77
1, 7537, Note_off_c, 0, 49, 64
1, 7537, Note_off_c, 0, 61, 64
1, 7537, Note_off_c, 0, 71, 64
1, 7537, Note_off_c, 0, 74, 64
1, 7537, Note_on_c, 0, 77, 35
1, 7537, Note_on_c, 0, 79, 32
1, 7538, Note_on_c, 0, 29, 75
1, 7538, Note_off_c, 0, 30, 64
1, 7538, Note_on_c, 0, 67, 27
1, 7538, Note_on_c, 0, 70, 20
1, 7538, Note_on_c, 0, 87, 35
1, 7539, Note_off_c, 0, 29, 64
1, 7539, Note_on_c, 0, 30, 72
1, 7539, Note_off_c, 0, 84, 64
1, 7540, Note_off_c, 0, 30, 64
1, 7540, Note_on_c, 0, 34, 71
1, 7540, Note_on_c, 0, 73, 38
1, 7541, Note_off_c, 0, 34, 64
1, 7541, Note_off_c, 0, 63, 64
1, 7541, Note_on_c, 0, 66, 48
1, 7541, Note_off_c, 0, 67, 64
1, 7541, Note_on_c, 0, 69, 48
1, 7541, Note_off_c, 0, 70, 64
1, 7541, Note_on_c, 0, 80, 38
1, 7541, Note_off_c, 0, 83, 64
1, 7541, Note_on_c, 0, 84, 41
1, 7541, Note_on_c, 0, 88, 32
1, 7541, Note_on_c, 0, 90, 31
1, 7542, Note_off_c, 0, 79, 64
1, 7542, Note_on_c, 0, 82, 26
1, 7542, Note_on_c, 0, 86, 32
1, 7542, Note_off_c, 0, 87, 64
1, 7543, Note_on_c, 0, 51, 77
1, 7543, Note_on_c, 0, 76, 20
1, 7543, Note_off_c, 0, 77, 64
1, 7543, Note_off_c, 0, 81, 64
1, 7544, Note_on_c, 0, 46, 88
1, 7544, Note_off_c, 0, 51, 64
1, 7544, Note_off_c, 0, 66, 64
1, 7545, Note_on_c, 0, 44, 94
1, 7545, Note_off_c, 0, 46, 64
1, 7545, Note_on_c, 0, 79, 23
1, 7546, Note_on_c, 0, 41, 99
1, 7546, Note_off_c, 0, 44, 64
1, 7546, Note_off_c, 0, 69, 64
1, 7546, Note_off_c, 0, 88, 64
1, 7546, Note_off_c, 0, 90, 64
1, 7547, Note_on_c, 0, 39, 96
1, 7547, Note_off_c, 0, 41, 64
1, 7548, Note_on_c, 0, 37, 98
1, 7548, Note_off_c, 0, 39, 64
1, 7548, Note_on_c, 0, 72, 25
1, 7548, Note_off_c, 0, 73, 64
1, 7548, Note_off_c, 0, 79, 64
1, 7548, Note_off_c, 0, 82, 64
1, 7548, Note_off_c, 0, 84, 64
1, 7549, Note_on_c, 0, 36, 97
1, 7549, Note_off_c, 0, 37, 64
1, 7549, Note_off_c, 0, 80, 64
1, 7549, Note_off_c, 0, 86, 64
1, 7549, Note_on_c, 0, 90, 13
1, 7550, Note_on_c, 0, 35, 96
1, 7550, Note_off_c, 0, 36, 64
1, 7550, Note_off_c, 0, 76, 64
1, 7551, Note_on_c, 0, 34, 95
1, 7551, Note_off_c, 0, 35, 64
1, 7551, Note_on_c, 0, 83, 29
1, 7552, Note_on_c, 0, 33, 95
1, 7552, Note_off_c, 0, 34, 64
1, 7552, Note_off_c, 0, 72, 64
1, 7552, Note_on_c, 0, 82, 19
1, 7552, Note_off_c, 0, 90, 64
1, 7553, Note_on_c, 0, 32, 96
1, 7553, Note_off_c, 0, 33, 64
1, 7553, Note_on_c, 0, 72, 28
1, 7553, Note_on_c, 0, 74, 18
1, 7554, Note_on_c, 0, 80, 28
1, 7554, Note_on_c, 0, 81, 24
1, 7555, Note_on_c, 0, 31, 93
1, 7555, Note_off_c, 0, 32, 64
1, 7555, Note_off_c, 0, 82, 64
1, 7556, Note_off_c, 0, 74, 64
1, 7556, Note_off_c, 0, 83, 64
1, 7557, Note_on_c, 0, 30, 82
1, 7557, Note_off_c, 0, 31, 64
1, 7558, Note_on_c, 0, 77, 19
1, 7559, Note_off_c, 0, 81, 64
1, 7559, Note_on_c, 0, 83, 19
1, 7559, Note_on_c, 0, 87, 21
1, 7560, Note_off_c, 0, 30, 64
1, 7560, Note_off_c, 0, 80, 64
1, 7560, Note_on_c, 0, 93, 16
1, 7561, Note_on_c, 0, 36, 71
1, 7561, Note_on_c, 0, 61, 31
1, 7562, Note_on_c, 0, 31, 75
1, 7562, Note_off_c, 0, 36, 64
1, 7562, Note_on_c, 0, 49, 59
1, 7562, Note_on_c, 0, 64, 34
1, 7562, Note_off_c, 0, 77, 64
1, 7562, Note_on_c, 0, 78, 27
1, 7563, Note_on_c, 0, 30, 79
1, 7563, Note_off_c, 0, 31, 64
1, 7563, Note_off_c, 0, 83, 64
1, 7563, Note_off_c, 0, 87, 64
1, 7563, Note_off_c, 0, 93, 64
1, 7564, Note_on_c, 0, 29, 79
1, 7564, Note_off_c, 0, 30, 64
1, 7564, Note_off_c, 0, 72, 64
1, 7564, Note_on_c, 0, 75, 21
1, 7565, Note_off_c, 0, 49, 64
1, 7565, Note_on_c, 0, 72, 27
1, 7565, Note_on_c, 0, 79, 29
1, 7566, Note_off_c, 0, 29, 64
1, 7566, Note_on_c, 0, 30, 75
1, 7566, Note_off_c, 0, 64, 64
1, 7566, Note_on_c, 0, 83, 11
1, 7566, Note_on_c, 0, 86, 13
1, 7567, Note_off_c, 0, 75, 64
1, 7567, Note_off_c, 0, 78, 64
1, 7568, Note_on_c, 0, 29, 74
1, 7568, Note_off_c, 0, 30, 64
1, 7568, Note_off_c, 0, 61, 64
1, 7568, Note_on_c, 0, 69, 20
1, 7568, Note_off_c, 0, 79, 64
1, 7569, Note_on_c, 0, 80, 25
1, 7569, Note_on_c, 0, 82, 34
1, 7569, Note_off_c, 0, 83, 64
1, 7569, Note_on_c, 0, 84, 27
1, 7569, Note_on_c, 0, 88, 30
1, 7569, Note_on_c, 0, 89, 18
1, 7569, Note_on_c, 0, 91, 18
1, 7570, Note_off_c, 0, 29, 64
1, 7570, Note_on_c, 0, 30, 79
1, 7570, Note_on_c, 0, 77, 34
1, 7570, Note_on_c, 0, 85, 27
1, 7570, Note_off_c, 0, 86, 64
1, 7571, Note_on_c, 0, 64, 31
1, 7571, Note_off_c, 0, 69, 64
1, 7571, Note_on_c, 0, 90, 9
1, 7572, Note_off_c, 0, 72, 64
1, 7573, Note_on_c, 0, 48, 59
1, 7573, Note_off_c, 0, 80, 64
1, 7573, Note_off_c, 0, 88, 64
1, 7573, Note_off_c, 0, 89, 64
1, 7574, Note_on_c, 0, 69, 23
1, 7574, Note_off_c, 0, 82, 64
1, 7575, Note_on_c, 0, 29, 76
1, 7575, Note_off_c, 0, 30, 64
1, 7575, Note_off_c, 0, 48, 64
1, 7575, Note_off_c, 0, 64, 64
1, 7575, Note_on_c, 0, 83, 28
1, 7575, Note_off_c, 0, 85, 64
1, 7575, Note_off_c, 0, 91, 64
1, 7576, Note_off_c, 0, 29, 64
1, 7576, Note_on_c, 0, 30, 74
1, 7576, Note_on_c, 0, 67, 25
1, 7576, Note_on_c, 0, 71, 24
1, 7576, Note_on_c, 0, 81, 39
1, 7576, Note_off_c, 0, 84, 64
1, 7576, Note_on_c, 0, 85, 36
1, 7576, Note_off_c, 0, 90, 64
1, 7577, Note_off_c, 0, 30, 64
1, 7577, Note_on_c, 0, 34, 73
1, 7577, Note_off_c, 0, 69, 64
1, 7577, Note_on_c, 0, 79, 33
1, 7578, Note_off_c, 0, 34, 64
1, 7578, Note_on_c, 0, 35, 65
1, 7578, Note_on_c, 0, 72, 40
1, 7578, Note_on_c, 0, 74, 36
1, 7578, Note_on_c, 0, 92, 26
1, 7578, Note_on_c, 0, 94, 28
1, 7578, Note_on_c, 0, 95, 28
1, 7579, Note_off_c, 0, 35, 64
1, 7579, Note_off_c, 0, 67, 64
1, 7579, Note_on_c, 0, 68, 46
1, 7579, Note_off_c, 0, 71, 64
1, 7579, Note_on_c, 0, 76, 36
1, 7579, Note_off_c, 0, 77, 64
1, 7579, Note_on_c, 0, 87, 32
1, 7580, Note_on_c, 0, 53, 71
1, 7580, Note_on_c, 0, 71, 32
1, 7580, Note_off_c, 0, 72, 64
1, 7580, Note_off_c, 0, 74, 64
1, 7580, Note_on_c, 0, 75, 32
1, 7580, Note_off_c, 0, 79, 64
1, 7581, Note_on_c, 0, 48, 84
1, 7581, Note_off_c, 0, 53, 64
1, 7581, Note_on_c, 0, 79, 22
1, 7581, Note_off_c, 0, 85, 64
1, 7581, Note_off_c, 0, 87, 64
1, 7581, Note_off_c, 0, 92, 64
1, 7581, Note_off_c, 0, 94, 64
1, 7582, Note_on_c, 0, 45, 93
1, 7582, Note_off_c, 0, 48, 64
1, 7582, Note_off_c, 0, 68, 64
1, 7582, Note_off_c, 0, 71, 64
1, 7582, Note_off_c, 0, 75, 64
1, 7582, Note_off_c, 0, 76, 64
1, 7582, Note_on_c, 0, 85, 14
1, 7582, Note_off_c, 0, 95, 64
1, 7583, Note_on_c, 0, 42, 98
1, 7583, Note_off_c, 0, 45, 64
1, 7583, Note_on_c, 0, 80, 14
1, 7584, Note_on_c, 0, 40, 97
1, 7584, Note_off_c, 0, 42, 64
1, 7584, Note_on_c, 0, 78, 16
1, 7584, Note_off_c, 0, 79, 64
1, 7584, Note_off_c, 0, 83, 64
1, 7585, Note_on_c, 0, 38, 98
1, 7585, Note_off_c, 0, 40, 64
1, 7585, Note_off_c, 0, 81, 64
1, 7586, Note_on_c, 0, 37, 98
1, 7586, Note_off_c, 0, 38, 64
1, 7586, Note_on_c, 0, 72, 14
1, 7586, Note_off_c, 0, 80, 64
1, 7586, Note_on_c, 0, 83, 18
1, 7586, Note_off_c, 0, 85, 64
1, 7587, Note_on_c, 0, 35, 97
1, 7587, Note_off_c, 0, 37, 64
1, 7587, Note_off_c, 0, 78, 64
1, 7588, Note_on_c, 0, 34, 95
1, 7588, Note_off_c, 0, 35, 64
1, 7589, Note_on_c, 0, 33, 95
1, 7589, Note_off_c, 0, 34, 64
1, 7590, Note_on_c, 0, 32, 96
1, 7590, Note_off_c, 0, 33, 64
1, 7590, Note_off_c, 0, 83, 64
1, 7591, Note_on_c, 0, 80, 9
1, 7592, Note_on_c, 0, 31, 95
1, 7592, Note_off_c, 0, 32, 64
1, 7593, Note_off_c, 0, 72, 64
1, 7595, Note_on_c, 0, 30, 75
1, 7595, Note_off_c, 0, 31, 64
1, 7595, Note_off_c, 0, 80, 64
1, 7595, Note_on_c, 0, 83, 10
1, 7597, Note_off_c, 0, 30, 64
1, 7597, Note_on_c, 0, 43, 64
1, 7597, Note_on_c, 0, 77, 20
1, 7597, Note_on_c, 0, 81, 14
1, 7597, Note_on_c, 0, 82, 18
1, 7598, Note_on_c, 0, 79, 17
1, 7598, Note_off_c, 0, 83, 64
1, 7598, Note_on_c, 0, 85, 24
1, 7598, Note_on_c, 0, 89, 21
1, 7599, Note_on_c, 0, 31, 71
1, 7599, Note_off_c, 0, 43, 64
1, 7599, Note_on_c, 0, 71, 30
1, 7599, Note_on_c, 0, 87, 20
1, 7600, Note_on_c, 0, 30, 79
1, 7600, Note_off_c, 0, 31, 64
1, 7600, Note_on_c, 0, 64, 34
1, 7600, Note_off_c, 0, 81, 64
1, 7601, Note_on_c, 0, 29, 80
1, 7601, Note_off_c, 0, 30, 64
1, 7601, Note_on_c, 0, 61, 19
1, 7601, Note_on_c, 0, 68, 27
1, 7601, Note_on_c, 0, 73, 29
1, 7601, Note_off_c, 0, 77, 64
1, 7602, Note_on_c, 0, 49, 57
1, 7602, Note_off_c, 0, 64, 64
1, 7602, Note_on_c, 0, 70, 18
1, 7602, Note_off_c, 0, 71, 64
1, 7602, Note_on_c, 0, 88, 21
1, 7603, Note_off_c, 0, 29, 64
1, 7603, Note_on_c, 0, 30, 74
1, 7603, Note_on_c, 0, 66, 16
1, 7603, Note_off_c, 0, 79, 64
1, 7603, Note_off_c, 0, 87, 64
1, 7604, Note_off_c, 0, 49, 64
1, 7604, Note_off_c, 0, 61, 64
1, 7604, Note_off_c, 0, 68, 64
1, 7604, Note_off_c, 0, 73, 64
1, 7604, Note_on_c, 0, 74, 16
1, 7604, Note_on_c, 0, 81, 31
1, 7605, Note_on_c, 0, 29, 73
1, 7605, Note_off_c, 0, 30, 64
1, 7605, Note_off_c, 0, 70, 64
1, 7605, Note_off_c, 0, 82, 64
1, 7605, Note_off_c, 0, 89, 64
1, 7605, Note_on_c, 0, 90, 18
1, 7606, Note_on_c, 0, 72, 28
1, 7606, Note_on_c, 0, 79, 29
1, 7606, Note_on_c, 0, 82, 30
1, 7606, Note_off_c, 0, 85, 64
1, 7607, Note_on_c, 0, 63, 29
1, 7607, Note_off_c, 0, 66, 64
1, 7607, Note_on_c, 0, 83, 28
1, 7607, Note_on_c, 0, 85, 34
1, 7608, Note_off_c, 0, 29, 64
1, 7608, Note_on_c, 0, 30, 73
1, 7608, Note_off_c, 0, 79, 64
1, 7608, Note_on_c, 0, 80, 30
1, 7608, Note_off_c, 0, 82, 64
1, 7608, Note_on_c, 0, 86, 31
1, 7608, Note_off_c, 0, 90, 64
1, 7609, Note_off_c, 0, 30, 64
1, 7609, Note_on_c, 0, 31, 78
1, 7609, Note_on_c, 0, 49, 61
1, 7609, Note_on_c, 0, 54, 53
1, 7609, Note_off_c, 0, 74, 64
1, 7610, Note_on_c, 0, 30, 80
1, 7610, Note_off_c, 0, 31, 64
1, 7610, Note_on_c, 0, 79, 38
1, 7610, Note_off_c, 0, 80, 64
1, 7610, Note_on_c, 0, 82, 18
1, 7610, Note_on_c, 0, 87, 21
1, 7611, Note_on_c, 0, 29, 80
1, 7611, Note_off_c, 0, 30, 64
1, 7611, Note_off_c, 0, 54, 64
1, 7611, Note_off_c, 0, 88, 64
1, 7612, Note_off_c, 0, 29, 64
1, 7612, Note_on_c, 0, 30, 76
1, 7612, Note_off_c, 0, 63, 64
1, 7612, Note_on_c, 0, 64, 26
1, 7612, Note_off_c, 0, 72, 64
1, 7612, Note_off_c, 0, 81, 64
1, 7612, Note_off_c, 0, 86, 64
1, 7612, Note_on_c, 0, 89, 26
1, 7613, Note_off_c, 0, 83, 64
1, 7614, Note_off_c, 0, 49, 64
1, 7614, Note_on_c, 0, 81, 38
1, 7614, Note_off_c, 0, 82, 64
1, 7614, Note_off_c, 0, 87, 64
1, 7615, Note_off_c, 0, 30, 64
1, 7615, Note_on_c, 0, 35, 69
1, 7615, Note_off_c, 0, 64, 64
1, 7615, Note_on_c, 0, 66, 42
1, 7615, Note_on_c, 0, 68, 44
1, 7615, Note_on_c, 0, 73, 35
1, 7615, Note_on_c, 0, 75, 34
1, 7615, Note_on_c, 0, 83, 30
1, 7615, Note_on_c, 0, 87, 35
1, 7615, Note_on_c, 0, 90, 24
1, 7616, Note_on_c, 0, 86, 28
1, 7616, Note_on_c, 0, 88, 29
1, 7616, Note_off_c, 0, 89, 64
1, 7617, Note_off_c, 0, 35, 64
1, 7617, Note_off_c, 0, 66, 64
1, 7617, Note_off_c, 0, 68, 64
1, 7617, Note_off_c, 0, 73, 64
1, 7617, Note_on_c, 0, 74, 34
1, 7617, Note_off_c, 0, 75, 64
1, 7617, Note_on_c, 0, 76, 34
1, 7617, Note_off_c, 0, 81, 64
1, 7617, Note_on_c, 0, 82, 34
1, 7618, Note_on_c, 0, 51, 78
1, 7618, Note_on_c, 0, 78, 15
1, 7618, Note_off_c, 0, 83, 64
1, 7618, Note_off_c, 0, 85, 64
1, 7618, Note_off_c, 0, 87, 64
1, 7618, Note_off_c, 0, 88, 64
1, 7618, Note_off_c, 0, 90, 64
1, 7619, Note_on_c, 0, 45, 90
1, 7619, Note_off_c, 0, 51, 64
1, 7619, Note_off_c, 0, 74, 64
1, 7619, Note_off_c, 0, 76, 64
1, 7619, Note_off_c, 0, 79, 64
1, 7619, Note_off_c, 0, 82, 64
1, 7619, Note_off_c, 0, 86, 64
1, 7620, Note_on_c, 0, 42, 96
1, 7620, Note_off_c, 0, 45, 64
1, 7621, Note_on_c, 0, 41, 100
1, 7621, Note_off_c, 0, 42, 64
1, 7621, Note_off_c, 0, 78, 64
1, 7621, Note_on_c, 0, 82, 13
1, 7622, Note_on_c, 0, 39, 97
1, 7622, Note_off_c, 0, 41, 64
1, 7622, Note_on_c, 0, 80, 21
1, 7623, Note_on_c, 0, 37, 98
1, 7623, Note_off_c, 0, 39, 64
1, 7624, Note_on_c, 0, 36, 97
1, 7624, Note_off_c, 0, 37, 64
1, 7625, Note_on_c, 0, 35, 96
1, 7625, Note_off_c, 0, 36, 64
1, 7625, Note_on_c, 0, 72, 16
1, 7625, Note_off_c, 0, 82, 64
1, 7626, Note_on_c, 0, 34, 96
1, 7626, Note_off_c, 0, 35, 64
1, 7626, Note_on_c, 0, 50, 31
1, 7626, Note_on_c, 0, 85, 21
1, 7627, Note_on_c, 0, 33, 96
1, 7627, Note_off_c, 0, 34, 64
1, 7628, Note_on_c, 0, 32, 97
1, 7628, Note_off_c, 0, 33, 64
1, 7628, Note_off_c, 0, 50, 64
1, 7628, Note_off_c, 0, 80, 64
1, 7629, Note_off_c, 0, 72, 64
1, 7630, Note_on_c, 0, 31, 93
1, 7630, Note_off_c, 0, 32, 64
1, 7630, Note_off_c, 0, 85, 64
1, 7631, Note_on_c, 0, 85, 28
1, 7632, Note_on_c, 0, 30, 80
1, 7632, Note_off_c, 0, 31, 64
1, 7632, Note_on_c, 0, 81, 15
1, 7633, Note_on_c, 0, 77, 13
1, 7634, Note_off_c, 0, 30, 64
1, 7635, Note_on_c, 0, 80, 19
1, 7636, Note_on_c, 0, 36, 67
1, 7636, Note_on_c, 0, 61, 26
1, 7636, Note_on_c, 0, 70, 21
1, 7636, Note_on_c, 0, 83, 17
1, 7637, Note_on_c, 0, 31, 74
1, 7637, Note_off_c, 0, 36, 64
1, 7637, Note_on_c, 0, 49, 61
1, 7637, Note_off_c, 0, 77, 64
1, 7637, Note_on_c, 0, 79, 24
1, 7638, Note_on_c, 0, 30, 78
1, 7638, Note_off_c, 0, 31, 64
1, 7638, Note_on_c, 0, 64, 33
1, 7638, Note_off_c, 0, 80, 64
1, 7638, Note_off_c, 0, 81, 64
1, 7638, Note_off_c, 0, 85, 64
1, 7639, Note_on_c, 0, 29, 78
1, 7639, Note_off_c, 0, 30, 64
1, 7639, Note_off_c, 0, 61, 64
1, 7639, Note_on_c, 0, 78, 15
1, 7640, Note_off_c, 0, 79, 64
1, 7640, Note_off_c, 0, 83, 64
1, 7640, Note_on_c, 0, 88, 13
1, 7641, Note_off_c, 0, 29, 64
1, 7641, Note_on_c, 0, 30, 74
1, 7641, Note_off_c, 0, 64, 64
1, 7641, Note_off_c, 0, 70, 64
1, 7641, Note_on_c, 0, 75, 12
1, 7642, Note_on_c, 0, 29, 74
1, 7642, Note_off_c, 0, 30, 64
1, 7642, Note_on_c, 0, 48, 51
1, 7642, Note_off_c, 0, 49, 64
1, 7642, Note_on_c, 0, 77, 18
1, 7642, Note_off_c, 0, 78, 64
1, 7643, Note_on_c, 0, 81, 14
1, 7643, Note_on_c, 0, 84, 31
1, 7643, Note_off_c, 0, 88, 64
1, 7644, Note_off_c, 0, 48, 64
1, 7644, Note_off_c, 0, 75, 64
1, 7644, Note_on_c, 0, 79, 20
1, 7644, Note_on_c, 0, 83, 19
1, 7644, Note_on_c, 0, 86, 30
1, 7645, Note_off_c, 0, 29, 64
1, 7645, Note_on_c, 0, 30, 79
1, 7645, Note_on_c, 0, 64, 35
1, 7645, Note_off_c, 0, 77, 64
1, 7645, Note_off_c, 0, 84, 64
1, 7645, Note_on_c, 0, 85, 29
1, 7645, Note_on_c, 0, 92, 13
1, 7645, Note_on_c, 0, 93, 15
1, 7646, Note_on_c, 0, 84, 13
1, 7646, Note_on_c, 0, 88, 15
1, 7646, Note_on_c, 0, 90, 27
1, 7647, Note_off_c, 0, 79, 64
1, 7647, Note_off_c, 0, 81, 64
1, 7647, Note_on_c, 0, 82, 16
1, 7647, Note_off_c, 0, 83, 64
1, 7648, Note_on_c, 0, 29, 80
1, 7648, Note_off_c, 0, 30, 64
1, 7648, Note_off_c, 0, 64, 64
1, 7648, Note_on_c, 0, 79, 25
1, 7649, Note_off_c, 0, 29, 64
1, 7649, Note_on_c, 0, 30, 78
1, 7649, Note_on_c, 0, 70, 28
1, 7649, Note_on_c, 0, 75, 37
1, 7649, Note_on_c, 0, 83, 27
1, 7649, Note_off_c, 0, 84, 64
1, 7649, Note_off_c, 0, 92, 64
1, 7649, Note_off_c, 0, 93, 64
1, 7650, Note_off_c, 0, 82, 64
1, 7650, Note_on_c, 0, 89, 31
1, 7651, Note_on_c, 0, 77, 22
1, 7652, Note_off_c, 0, 30, 64
1, 7652, Note_on_c, 0, 34, 71
1, 7652, Note_off_c, 0, 79, 64
1, 7652, Note_on_c, 0, 80, 37
1, 7652, Note_off_c, 0, 88, 64
1, 7652, Note_on_c, 0, 91, 28
1, 7653, Note_off_c, 0, 34, 64
1, 7653, Note_on_c, 0, 65, 48
1, 7653, Note_on_c, 0, 78, 38
1, 7653, Note_on_c, 0, 82, 30
1, 7653, Note_on_c, 0, 84, 36
1, 7653, Note_on_c, 0, 93, 26
1, 7654, Note_off_c, 0, 70, 64
1, 7654, Note_off_c, 0, 77, 64
1, 7654, Note_off_c, 0, 83, 64
1, 7654, Note_off_c, 0, 86, 64
1, 7654, Note_on_c, 0, 88, 28
1, 7655, Note_on_c, 0, 51, 72
1, 7655, Note_off_c, 0, 65, 64
1, 7655, Note_on_c, 0, 72, 33
1, 7655, Note_off_c, 0, 75, 64
1, 7655, Note_off_c, 0, 82, 64
1, 7656, Note_on_c, 0, 48, 85
1, 7656, Note_off_c, 0, 51, 64
1, 7656, Note_off_c, 0, 80, 64
1, 7656, Note_off_c, 0, 85, 64
1, 7656, Note_off_c, 0, 90, 64
1, 7656, Note_off_c, 0, 93, 64
1, 7657, Note_on_c, 0, 45, 94
1, 7657, Note_off_c, 0, 48, 64
1, 7657, Note_off_c, 0, 72, 64
1, 7657, Note_off_c, 0, 78, 64
1, 7657, Note_off_c, 0, 84, 64
1, 7657, Note_off_c, 0, 89, 64
1, 7657, Note_off_c, 0, 91, 64
1, 7658, Note_on_c, 0, 42, 100
1, 7658, Note_off_c, 0, 45, 64
1, 7659, Note_on_c, 0, 40, 98
1, 7659, Note_off_c, 0, 42, 64
1, 7659, Note_off_c, 0, 88, 64
1, 7660, Note_on_c, 0, 38, 98
1, 7660, Note_off_c, 0, 40, 64
1, 7661, Note_on_c, 0, 36, 98
1, 7661, Note_off_c, 0, 38, 64
1, 7662, Note_on_c, 0, 35, 96
1, 7662, Note_off_c, 0, 36, 64
1, 7663, Note_on_c, 0, 34, 95
1, 7663, Note_off_c, 0, 35, 64
1, 7664, Note_on_c, 0, 33, 96
1, 7664, Note_off_c, 0, 34, 64
1, 7664, Note_on_c, 0, 83, 11
1, 7664, Note_on_c, 0, 85, 16
1, 7665, Note_on_c, 0, 32, 96
1, 7665, Note_off_c, 0, 33, 64
1, 7666, Note_on_c, 0, 80, 12
1, 7667, Note_on_c, 0, 31, 94
1, 7667, Note_off_c, 0, 32, 64
1, 7667, Note_off_c, 0, 83, 64
1, 7668, Note_on_c, 0, 78, 10
1, 7668, Note_on_c, 0, 81, 13
1, 7669, Note_on_c, 0, 30, 84
1, 7669, Note_off_c, 0, 31, 64
1, 7669, Note_off_c, 0, 80, 64
1, 7670, Note_off_c, 0, 85, 64
1, 7670, Note_on_c, 0, 86, 12
1, 7671, Note_off_c, 0, 78, 64
1, 7671, Note_on_c, 0, 85, 18
1, 7672, Note_off_c, 0, 30, 64
1, 7672, Note_on_c, 0, 82, 23
1, 7672, Note_on_c, 0, 88, 23
1, 7673, Note_on_c, 0, 78, 14
1, 7673, Note_off_c, 0, 81, 64
1, 7673, Note_on_c, 0, 89, 24
1, 7674, Note_on_c, 0, 31, 71
1, 7674, Note_on_c, 0, 64, 26
1, 7674, Note_on_c, 0, 68, 27
1, 7674, Note_off_c, 0, 85, 64
1, 7674, Note_on_c, 0, 87, 20
1, 7675, Note_on_c, 0, 30, 79
1, 7675, Note_off_c, 0, 31, 64
1, 7675, Note_off_c, 0, 86, 64
1, 7675, Note_off_c, 0, 88, 64
1, 7676, Note_on_c, 0, 29, 81
1, 7676, Note_off_c, 0, 30, 64
1, 7676, Note_on_c, 0, 74, 14
1, 7677, Note_on_c, 0, 63, 24
1, 7677, Note_off_c, 0, 64, 64
1, 7677, Note_on_c, 0, 84, 23
1, 7678, Note_off_c, 0, 29, 64
1, 7678, Note_on_c, 0, 30, 75
1, 7678, Note_off_c, 0, 78, 64
1, 7678, Note_on_c, 0, 79, 17
1, 7678, Note_off_c, 0, 82, 64
1, 7678, Note_on_c, 0, 83, 17
1, 7678, Note_off_c, 0, 87, 64
1, 7679, Note_off_c, 0, 74, 64
1, 7679, Note_on_c, 0, 88, 21
1, 7680, Note_on_c, 0, 29, 73
1, 7680, Note_off_c, 0, 30, 64
1, 7680, Note_off_c, 0, 63, 64
1, 7680, Note_off_c, 0, 68, 64
1, 7680, Note_on_c, 0, 72, 23
1, 7680, Note_on_c, 0, 81, 17
1, 7680, Note_off_c, 0, 84, 64
1, 7681, Note_off_c, 0, 83, 64
1, 7681, Note_on_c, 0, 84, 24
1, 7681, Note_on_c, 0, 92, 16
1, 7682, Note_on_c, 0, 75, 15
1, 7682, Note_on_c, 0, 82, 21
1, 7682, Note_on_c, 0, 85, 20
1, 7682, Note_on_c, 0, 87, 33
1, 7682, Note_on_c, 0, 91, 29
1, 7683, Note_off_c, 0, 29, 64
1, 7683, Note_on_c, 0, 30, 80
1, 7683, Note_on_c, 0, 54, 53
1, 7683, Note_on_c, 0, 61, 30
1, 7683, Note_on_c, 0, 64, 32
1, 7683, Note_off_c, 0, 79, 64
1, 7683, Note_off_c, 0, 81, 64
1, 7683, Note_on_c, 0, 83, 19
1, 7683, Note_off_c, 0, 88, 64
1, 7683, Note_on_c, 0, 90, 26
1, 7684, Note_off_c, 0, 72, 64
1, 7685, Note_on_c, 0, 49, 61
1, 7685, Note_off_c, 0, 54, 64
1, 7685, Note_off_c, 0, 85, 64
1, 7685, Note_on_c, 0, 88, 18
1, 7685, Note_off_c, 0, 92, 64
1, 7686, Note_on_c, 0, 29, 80
1, 7686, Note_off_c, 0, 30, 64
1, 7686, Note_on_c, 0, 63, 14
1, 7686, Note_off_c, 0, 64, 64
1, 7686, Note_off_c, 0, 75, 64
1, 7686, Note_off_c, 0, 82, 64
1, 7686, Note_off_c, 0, 84, 64
1, 7686, Note_off_c, 0, 89, 64
1, 7687, Note_off_c, 0, 29, 64
1, 7687, Note_on_c, 0, 30, 77
1, 7687, Note_off_c, 0, 49, 64
1, 7687, Note_off_c, 0, 83, 64
1, 7687, Note_on_c, 0, 86, 10
1, 7687, Note_on_c, 0, 92, 30
1, 7688, Note_off_c, 0, 61, 64
1, 7688, Note_on_c, 0, 75, 36
1, 7689, Note_off_c, 0, 30, 64
1, 7689, Note_on_c, 0, 31, 72
1, 7689, Note_off_c, 0, 63, 64
1, 7689, Note_on_c, 0, 71, 41
1, 7690, Note_off_c, 0, 31, 64
1, 7690, Note_on_c, 0, 35, 67
1, 7690, Note_on_c, 0, 73, 38
1, 7690, Note_on_c, 0, 78, 35
1, 7690, Note_on_c, 0, 82, 35
1, 7690, Note_on_c, 0, 85, 38
1, 7690, Note_off_c, 0, 86, 64
1, 7690, Note_off_c, 0, 88, 64
1, 7691, Note_off_c, 0, 35, 64
1, 7691, Note_on_c, 0, 88, 33
1, 7692, Note_on_c, 0, 70, 41
1, 7692, Note_off_c, 0, 71, 64
1, 7692, Note_off_c, 0, 73, 64
1, 7692, Note_on_c, 0, 74, 36
1, 7692, Note_off_c, 0, 75, 64
1, 7692, Note_on_c, 0, 76, 34
1, 7692, Note_on_c, 0, 81, 30
1, 7692, Note_on_c, 0, 89, 30
1, 7693, Note_on_c, 0, 49, 80
1, 7693, Note_off_c, 0, 82, 64
1, 7693, Note_off_c, 0, 88, 64
1, 7693, Note_off_c, 0, 90, 64
1, 7693, Note_off_c, 0, 91, 64
1, 7693, Note_off_c, 0, 92, 64
1, 7694, Note_on_c, 0, 45, 91
1, 7694, Note_off_c, 0, 49, 64
1, 7694, Note_off_c, 0, 70, 64
1, 7694, Note_off_c, 0, 74, 64
1, 7694, Note_off_c, 0, 76, 64
1, 7694, Note_off_c, 0, 78, 64
1, 7694, Note_off_c, 0, 81, 64
1, 7694, Note_off_c, 0, 85, 64
1, 7694, Note_off_c, 0, 87, 64
1, 7695, Note_on_c, 0, 42, 97
1, 7695, Note_off_c, 0, 45, 64
1, 7695, Note_off_c, 0, 89, 64
1, 7696, Note_on_c, 0, 41, 100
1, 7696, Note_off_c, 0, 42, 64
1, 7697, Note_on_c, 0, 38, 98
1, 7697, Note_off_c, 0, 41, 64
1, 7698, Note_on_c, 0, 37, 98
1, 7698, Note_off_c, 0, 38, 64
1, 7699, Note_on_c, 0, 36, 97
1, 7699, Note_off_c, 0, 37, 64
1, 7700, Note_on_c, 0, 35, 96
1, 7700, Note_off_c, 0, 36, 64
1, 7701, Note_on_c, 0, 33, 96
1, 7701, Note_off_c, 0, 35, 64
1, 7703, Note_on_c, 0, 32, 96
1, 7703, Note_off_c, 0, 33, 64
1, 7703, Note_on_c, 0, 87, 14
1, 7705, Note_on_c, 0, 31, 93
1, 7705, Note_off_c, 0, 32, 64
1, 7705, Note_on_c, 0, 85, 12
1, 7706, Note_off_c, 0, 87, 64
1, 7707, Note_on_c, 0, 30, 79
1, 7707, Note_off_c, 0, 31, 64
1, 7708, Note_on_c, 0, 88, 25
1, 7709, Note_off_c, 0, 30, 64
1, 7709, Note_on_c, 0, 87, 18
1, 7710, Note_on_c, 0, 58, 38
1, 7711, Note_on_c, 0, 36, 69
1, 7711, Note_on_c, 0, 54, 51
1, 7711, Note_on_c, 0, 61, 25
1, 7711, Note_on_c, 0, 64, 30
1, 7711, Note_off_c, 0, 85, 64
1, 7712, Note_on_c, 0, 31, 76
1, 7712, Note_off_c, 0, 36, 64
1, 7712, Note_on_c, 0, 49, 58
1, 7712, Note_on_c, 0, 81, 11
1, 7712, Note_on_c, 0, 92, 20
1, 7713, Note_on_c, 0, 30, 80
1, 7713, Note_off_c, 0, 31, 64
1, 7713, Note_off_c, 0, 58, 64
1, 7713, Note_on_c, 0, 68, 21
1, 7714, Note_off_c, 0, 54, 64
1, 7714, Note_off_c, 0, 61, 64
1, 7714, Note_on_c, 0, 85, 28
1, 7715, Note_off_c, 0, 49, 64
1, 7715, Note_on_c, 0, 84, 13
1, 7715, Note_on_c, 0, 91, 10
1, 7716, Note_off_c, 0, 64, 64
1, 7716, Note_on_c, 0, 86, 17
1, 7716, Note_off_c, 0, 87, 64
1, 7716, Note_on_c, 0, 90, 10
1, 7717, Note_on_c, 0, 29, 74
1, 7717, Note_off_c, 0, 30, 64
1, 7717, Note_off_c, 0, 68, 64
1, 7717, Note_on_c, 0, 75, 20
1, 7717, Note_off_c, 0, 81, 64
1, 7718, Note_off_c, 0, 84, 64
1, 7718, Note_off_c, 0, 91, 64
1, 7719, Note_on_c, 0, 61, 30
1, 7719, Note_on_c, 0, 79, 28
1, 7719, Note_on_c, 0, 83, 21
1, 7719, Note_off_c, 0, 86, 64
1, 7719, Note_on_c, 0, 93, 16
1, 7720, Note_off_c, 0, 29, 64
1, 7720, Note_on_c, 0, 30, 80
1, 7720, Note_on_c, 0, 43, 67
1, 7720, Note_on_c, 0, 81, 19
1, 7720, Note_on_c, 0, 84, 21
1, 7720, Note_on_c, 0, 86, 28
1, 7720, Note_off_c, 0, 90, 64
1, 7720, Note_on_c, 0, 94, 13
1, 7721, Note_off_c, 0, 43, 64
1, 7721, Note_on_c, 0, 64, 31
1, 7721, Note_on_c, 0, 70, 23
1, 7721, Note_off_c, 0, 75, 64
1, 7721, Note_on_c, 0, 89, 19
1, 7722, Note_on_c, 0, 49, 60
1, 7722, Note_off_c, 0, 61, 64
1, 7722, Note_on_c, 0, 74, 27
1, 7722, Note_on_c, 0, 82, 23
1, 7722, Note_off_c, 0, 83, 64
1, 7722, Note_on_c, 0, 87, 30
1, 7722, Note_off_c, 0, 93, 64
1, 7723, Note_on_c, 0, 29, 80
1, 7723, Note_off_c, 0, 30, 64
1, 7723, Note_off_c, 0, 64, 64
1, 7723, Note_on_c, 0, 76, 27
1, 7723, Note_on_c, 0, 77, 18
1, 7723, Note_off_c, 0, 88, 64
1, 7723, Note_on_c, 0, 90, 18
1, 7723, Note_off_c, 0, 94, 64
1, 7724, Note_on_c, 0, 69, 25
1, 7724, Note_off_c, 0, 70, 64
1, 7724, Note_off_c, 0, 81, 64
1, 7724, Note_off_c, 0, 86, 64
1, 7724, Note_off_c, 0, 92, 64
1, 7725, Note_off_c, 0, 29, 64
1, 7725, Note_on_c, 0, 30, 76
1, 7725, Note_on_c, 0, 48, 58
1, 7725, Note_off_c, 0, 49, 64
1, 7725, Note_off_c, 0, 82, 64
1, 7725, Note_off_c, 0, 89, 64
1, 7726, Note_off_c, 0, 74, 64
1, 7726, Note_on_c, 0, 75, 41
1, 7726, Note_off_c, 0, 76, 64
1, 7726, Note_off_c, 0, 77, 64
1, 7726, Note_off_c, 0, 90, 64
1, 7727, Note_off_c, 0, 30, 64
1, 7727, Note_on_c, 0, 34, 72
1, 7727, Note_off_c, 0, 48, 64
1, 7727, Note_on_c, 0, 78, 38
1, 7728, Note_off_c, 0, 34, 64
1, 7728, Note_on_c, 0, 65, 49
1, 7728, Note_off_c, 0, 69, 64
1, 7728, Note_off_c, 0, 79, 64
1, 7728, Note_on_c, 0, 80, 32
1, 7728, Note_on_c, 0, 81, 41
1, 7728, Note_on_c, 0, 83, 25
1, 7728, Note_on_c, 0, 88, 33
1, 7728, Note_on_c, 0, 95, 25
1, 7729, Note_on_c, 0, 69, 45
1, 7729, Note_on_c, 0, 72, 42
1, 7729, Note_off_c, 0, 84, 64
1, 7730, Note_on_c, 0, 51, 74
1, 7730, Note_off_c, 0, 65, 64
1, 7730, Note_on_c, 0, 86, 17
1, 7731, Note_on_c, 0, 48, 86
1, 7731, Note_off_c, 0, 51, 64
1, 7731, Note_off_c, 0, 75, 64
1, 7731, Note_off_c, 0, 83, 64
1, 7731, Note_off_c, 0, 87, 64
1, 7732, Note_on_c, 0, 45, 95
1, 7732, Note_off_c, 0, 48, 64
1, 7732, Note_off_c, 0, 69, 64
1, 7732, Note_on_c, 0, 76, 24
1, 7732, Note_off_c, 0, 78, 64
1, 7732, Note_off_c, 0, 80, 64
1, 7732, Note_off_c, 0, 88, 64
1, 7732, Note_off_c, 0, 95, 64
1, 7733, Note_on_c, 0, 42, 100
1, 7733, Note_off_c, 0, 45, 64
1, 7733, Note_off_c, 0, 72, 64
1, 7733, Note_off_c, 0, 85, 64
1, 7734, Note_on_c, 0, 40, 97
1, 7734, Note_off_c, 0, 42, 64
1, 7735, Note_on_c, 0, 38, 98
1, 7735, Note_off_c, 0, 40, 64
1, 7735, Note_on_c, 0, 72, 14
1, 7735, Note_on_c, 0, 85, 21
1, 7736, Note_on_c, 0, 36, 98
1, 7736, Note_off_c, 0, 38, 64
1, 7736, Note_off_c, 0, 81, 64
1, 7736, Note_on_c, 0, 83, 24
1, 7736, Note_on_c, 0, 87, 21
1, 7736, Note_on_c, 0, 89, 19
1, 7736, Note_on_c, 0, 91, 18
1, 7736, Note_on_c, 0, 92, 12
1, 7736, Note_on_c, 0, 93, 14
1, 7737, Note_on_c, 0, 35, 97
1, 7737, Note_off_c, 0, 36, 64
1, 7737, Note_on_c, 0, 90, 13
1, 7738, Note_on_c, 0, 34, 96
1, 7738, Note_off_c, 0, 35, 64
1, 7738, Note_off_c, 0, 72, 64
1, 7738, Note_on_c, 0, 73, 21
1, 7738, Note_off_c, 0, 76, 64
1, 7738, Note_on_c, 0, 81, 26
1, 7738, Note_off_c, 0, 86, 64
1, 7738, Note_on_c, 0, 88, 23
1, 7739, Note_on_c, 0, 33, 96
1, 7739, Note_off_c, 0, 34, 64
1, 7739, Note_off_c, 0, 83, 64
1, 7739, Note_on_c, 0, 84, 16
1, 7739, Note_off_c, 0, 85, 64
1, 7739, Note_off_c, 0, 92, 64
1, 7740, Note_on_c, 0, 32, 96
1, 7740, Note_off_c, 0, 33, 64
1, 7740, Note_on_c, 0, 74, 23
1, 7740, Note_off_c, 0, 90, 64
1, 7740, Note_off_c, 0, 93, 64
1, 7741, Note_on_c, 0, 66, 21
1, 7741, Note_off_c, 0, 73, 64
1, 7741, Note_off_c, 0, 87, 64
1, 7741, Note_on_c, 0, 90, 24
1, 7742, Note_on_c, 0, 31, 94
1, 7742, Note_off_c, 0, 32, 64
1, 7742, Note_off_c, 0, 84, 64
1, 7742, Note_on_c, 0, 85, 33
1, 7742, Note_on_c, 0, 87, 31
1, 7743, Note_on_c, 0, 82, 21
1, 7743, Note_on_c, 0, 84, 21
1, 7743, Note_off_c, 0, 88, 64
1, 7743, Note_off_c, 0, 89, 64
1, 7744, Note_on_c, 0, 30, 83
1, 7744, Note_off_c, 0, 31, 64
1, 7744, Note_on_c, 0, 92, 18
1, 7745, Note_off_c, 0, 66, 64
1, 7745, Note_on_c, 0, 69, 26
1, 7745, Note_on_c, 0, 76, 30
1, 7745, Note_on_c, 0, 79, 28
1, 7745, Note_off_c, 0, 91, 64
1, 7745, Note_on_c, 0, 95, 12
1, 7746, Note_off_c, 0, 74, 64
1, 7746, Note_on_c, 0, 80, 36
1, 7746, Note_off_c, 0, 81, 64
1, 7746, Note_on_c, 0, 83, 19
1, 7746, Note_off_c, 0, 84, 64
1, 7746, Note_on_c, 0, 86, 36
1, 7747, Note_off_c, 0, 30, 64
1, 7747, Note_on_c, 0, 42, 66
1, 7747, Note_on_c, 0, 73, 12
1, 7747, Note_off_c, 0, 76, 64
1, 7747, Note_on_c, 0, 77, 40
1, 7747, Note_on_c, 0, 84, 28
1, 7747, Note_on_c, 0, 91, 34
1, 7747, Note_off_c, 0, 92, 64
1, 7747, Note_on_c, 0, 94, 21
1, 7748, Note_on_c, 0, 61, 32
1, 7748, Note_off_c, 0, 69, 64
1, 7748, Note_on_c, 0, 70, 24
1, 7748, Note_on_c, 0, 81, 32
1, 7748, Note_off_c, 0, 82, 64
1, 7749, Note_on_c, 0, 31, 71
1, 7749, Note_off_c, 0, 42, 64
1, 7749, Note_on_c, 0, 63, 31
1, 7749, Note_off_c, 0, 83, 64
1, 7749, Note_off_c, 0, 87, 64
1, 7749, Note_on_c, 0, 88, 33
1, 7749, Note_off_c, 0, 95, 64
1, 7750, Note_on_c, 0, 30, 78
1, 7750, Note_off_c, 0, 31, 64
1, 7750, Note_off_c, 0, 61, 64
1, 7750, Note_on_c, 0, 71, 36
1, 7750, Note_off_c, 0, 81, 64
1, 7750, Note_on_c, 0, 82, 27
1, 7750, Note_off_c, 0, 90, 64
1, 7751, Note_on_c, 0, 29, 80
1, 7751, Note_off_c, 0, 30, 64
1, 7751, Note_off_c, 0, 70, 64
1, 7751, Note_on_c, 0, 75, 37
1, 7751, Note_off_c, 0, 79, 64
1, 7751, Note_on_c, 0, 93, 34
1, 7752, Note_off_c, 0, 29, 64
1, 7752, Note_on_c, 0, 30, 77
1, 7752, Note_off_c, 0, 73, 64
1, 7752, Note_on_c, 0, 79, 39
1, 7752, Note_on_c, 0, 83, 36
1, 7753, Note_on_c, 0, 66, 15
1, 7753, Note_off_c, 0, 71, 64
1, 7753, Note_off_c, 0, 77, 64
1, 7753, Note_off_c, 0, 82, 64
1, 7753, Note_off_c, 0, 84, 64
1, 7754, Note_on_c, 0, 29, 74
1, 7754, Note_off_c, 0, 30, 64
1, 7754, Note_off_c, 0, 63, 64
1, 7754, Note_off_c, 0, 80, 64
1, 7754, Note_on_c, 0, 87, 37
1, 7754, Note_off_c, 0, 88, 64
1, 7754, Note_on_c, 0, 89, 35
1, 7755, Note_on_c, 0, 77, 30
1, 7755, Note_off_c, 0, 79, 64
1, 7755, Note_on_c, 0, 80, 20
1, 7755, Note_on_c, 0, 82, 34
1, 7755, Note_off_c, 0, 85, 64
1, 7756, Note_off_c, 0, 66, 64
1, 7756, Note_on_c, 0, 70, 37
1, 7756, Note_on_c, 0, 74, 36
1, 7756, Note_off_c, 0, 75, 64
1, 7756, Note_on_c, 0, 76, 36
1, 7756, Note_on_c, 0, 84, 32
1, 7756, Note_on_c, 0, 90, 27
1, 7756, Note_off_c, 0, 94, 64
1, 7757, Note_on_c, 0, 68, 31
1, 7757, Note_on_c, 0, 73, 29
1, 7757, Note_off_c, 0, 77, 64
1, 7758, Note_off_c, 0, 29, 64
1, 7758, Note_on_c, 0, 30, 80
1, 7758, Note_on_c, 0, 54, 54
1, 7758, Note_on_c, 0, 64, 33
1, 7758, Note_on_c, 0, 77, 35
1, 7758, Note_on_c, 0, 79, 20
1, 7758, Note_off_c, 0, 80, 64
1, 7758, Note_on_c, 0, 81, 36
1, 7759, Note_on_c, 0, 49, 61
1, 7759, Note_off_c, 0, 70, 64
1, 7759, Note_on_c, 0, 75, 35
1, 7759, Note_off_c, 0, 76, 64
1, 7759, Note_off_c, 0, 82, 64
1, 7759, Note_on_c, 0, 85, 37
1, 7759, Note_on_c, 0, 88, 33
1, 7759, Note_off_c, 0, 90, 64
1, 7760, Note_off_c, 0, 73, 64
1, 7760, Note_off_c, 0, 74, 64
1, 7760, Note_on_c, 0, 82, 26
1, 7760, Note_off_c, 0, 84, 64
1, 7760, Note_off_c, 0, 87, 64
1, 7760, Note_on_c, 0, 96, 25
1, 7760, Note_on_c, 0, 99, 10
1, 7761, Note_on_c, 0, 29, 79
1, 7761, Note_off_c, 0, 30, 64
1, 7761, Note_off_c, 0, 54, 64
1, 7761, Note_off_c, 0, 68, 64
1, 7761, Note_on_c, 0, 69, 43
1, 7761, Note_off_c, 0, 75, 64
1, 7761, Note_on_c, 0, 76, 35
1, 7761, Note_off_c, 0, 79, 64
1, 7761, Note_on_c, 0, 90, 30
1, 7762, Note_off_c, 0, 49, 64
1, 7762, Note_off_c, 0, 64, 64
1, 7762, Note_off_c, 0, 77, 64
1, 7762, Note_off_c, 0, 86, 64
1, 7762, Note_off_c, 0, 89, 64
1, 7762, Note_on_c, 0, 98, 20
1, 7763, Note_off_c, 0, 29, 64
1, 7763, Note_on_c, 0, 30, 76
1, 7763, Note_on_c, 0, 54, 44
1, 7763, Note_on_c, 0, 72, 29
1, 7763, Note_on_c, 0, 79, 34
1, 7763, Note_on_c, 0, 86, 39
1, 7763, Note_on_c, 0, 87, 28
1, 7763, Note_off_c, 0, 91, 64
1, 7763, Note_off_c, 0, 99, 64
1, 7764, Note_off_c, 0, 30, 64
1, 7764, Note_on_c, 0, 32, 73
1, 7764, Note_off_c, 0, 76, 64
1, 7764, Note_on_c, 0, 77, 40
1, 7764, Note_off_c, 0, 82, 64
1, 7764, Note_off_c, 0, 88, 64
1, 7765, Note_off_c, 0, 32, 64
1, 7765, Note_on_c, 0, 35, 66
1, 7765, Note_off_c, 0, 54, 64
1, 7765, Note_on_c, 0, 67, 45
1, 7765, Note_on_c, 0, 82, 43
1, 7765, Note_off_c, 0, 83, 64
1, 7765, Note_on_c, 0, 88, 38
1, 7765, Note_on_c, 0, 101, 26
1, 7765, Note_on_c, 0, 103, 21
1, 7766, Note_off_c, 0, 35, 64
1, 7766, Note_off_c, 0, 69, 64
1, 7766, Note_off_c, 0, 72, 64
1, 7766, Note_on_c, 0, 74, 40
1, 7766, Note_off_c, 0, 79, 64
1, 7766, Note_on_c, 0, 80, 38
1, 7766, Note_off_c, 0, 87, 64
1, 7766, Note_on_c, 0, 91, 33
1, 7767, Note_on_c, 0, 53, 68
1, 7767, Note_off_c, 0, 81, 64
1, 7767, Note_off_c, 0, 90, 64
1, 7768, Note_on_c, 0, 49, 82
1, 7768, Note_off_c, 0, 53, 64
1, 7768, Note_off_c, 0, 67, 64
1, 7768, Note_off_c, 0, 74, 64
1, 7768, Note_off_c, 0, 77, 64
1, 7768, Note_off_c, 0, 80, 64
1, 7768, Note_off_c, 0, 82, 64
1, 7768, Note_off_c, 0, 85, 64
1, 7768, Note_off_c, 0, 86, 64
1, 7768, Note_off_c, 0, 91, 64
1, 7768, Note_off_c, 0, 96, 64
1, 7768, Note_off_c, 0, 98, 64
1, 7768, Note_off_c, 0, 101, 64
1, 7768, Note_off_c, 0, 103, 64
1, 7769, Note_on_c, 0, 45, 93
1, 7769, Note_off_c, 0, 49, 64
1, 7770, Note_on_c, 0, 42, 98
1, 7770, Note_off_c, 0, 45, 64
1, 7771, Note_on_c, 0, 41, 99
1, 7771, Note_off_c, 0, 42, 64
1, 7771, Note_off_c, 0, 88, 64
1, 7772, Note_on_c, 0, 38, 97
1, 7772, Note_off_c, 0, 41, 64
1, 7773, Note_on_c, 0, 37, 98
1, 7773, Note_off_c, 0, 38, 64
1, 7774, Note_on_c, 0, 36, 97
1, 7774, Note_off_c, 0, 37, 64
1, 7775, Note_on_c, 0, 34, 96
1, 7775, Note_off_c, 0, 36, 64
1, 7775, Note_off_c, 0, 93, 64
1, 7776, Note_on_c, 0, 77, 14
1, 7776, Note_on_c, 0, 84, 12
1, 7777, Note_on_c, 0, 33, 96
1, 7777, Note_off_c, 0, 34, 64
1, 7777, Note_on_c, 0, 82, 14
1, 7778, Note_on_c, 0, 32, 96
1, 7778, Note_off_c, 0, 33, 64
1, 7779, Note_on_c, 0, 31, 95
1, 7779, Note_off_c, 0, 32, 64
1, 7779, Note_on_c, 0, 48, 17
1, 7779, Note_off_c, 0, 77, 64
1, 7779, Note_on_c, 0, 80, 18
1, 7780, Note_off_c, 0, 82, 64
1, 7780, Note_on_c, 0, 86, 13
1, 7781, Note_on_c, 0, 91, 18
1, 7781, Note_on_c, 0, 93, 15
1, 7782, Note_on_c, 0, 30, 78
1, 7782, Note_off_c, 0, 31, 64
1, 7782, Note_off_c, 0, 48, 64
1, 7782, Note_on_c, 0, 78, 20
1, 7782, Note_off_c, 0, 80, 64
1, 7782, Note_on_c, 0, 83, 27
1, 7782, Note_off_c, 0, 84, 64
1, 7782, Note_on_c, 0, 87, 11
1, 7784, Note_off_c, 0, 30, 64
1, 7784, Note_off_c, 0, 86, 64
1, 7785, Note_on_c, 0, 73, 18
1, 7785, Note_on_c, 0, 85, 23
1, 7785, Note_on_c, 0, 86, 24
1, 7785, Note_off_c, 0, 87, 64
1, 7785, Note_on_c, 0, 89, 15
1, 7785, Note_on_c, 0, 92, 19
1, 7786, Note_on_c, 0, 36, 71
1, 7786, Note_on_c, 0, 54, 51
1, 7786, Note_on_c, 0, 61, 28
1, 7786, Note_on_c, 0, 70, 23
1, 7786, Note_on_c, 0, 77, 19
1, 7786, Note_off_c, 0, 91, 64
1, 7787, Note_on_c, 0, 31, 77
1, 7787, Note_off_c, 0, 36, 64
1, 7787, Note_on_c, 0, 49, 60
1, 7787, Note_on_c, 0, 75, 30
1, 7787, Note_on_c, 0, 79, 22
1, 7787, Note_off_c, 0, 83, 64
1, 7788, Note_on_c, 0, 29, 78
1, 7788, Note_off_c, 0, 31, 64
1, 7788, Note_off_c, 0, 78, 64
1, 7788, Note_off_c, 0, 85, 64
1, 7789, Note_off_c, 0, 54, 64
1, 7789, Note_on_c, 0, 69, 17
1, 7789, Note_off_c, 0, 70, 64
1, 7789, Note_off_c, 0, 77, 64
1, 7789, Note_on_c, 0, 83, 17
1, 7789, Note_off_c, 0, 89, 64
1, 7789, Note_on_c, 0, 94, 12
1, 7790, Note_off_c, 0, 29, 64
1, 7790, Note_on_c, 0, 30, 76
1, 7790, Note_off_c, 0, 49, 64
1, 7790, Note_off_c, 0, 73, 64
1, 7790, Note_on_c, 0, 90, 19
1, 7790, Note_off_c, 0, 93, 64
1, 7791, Note_off_c, 0, 61, 64
1, 7792, Note_on_c, 0, 29, 75
1, 7792, Note_off_c, 0, 30, 64
1, 7792, Note_off_c, 0, 69, 64
1, 7792, Note_off_c, 0, 75, 64
1, 7792, Note_on_c, 0, 76, 27
1, 7792, Note_off_c, 0, 94, 64
1, 7793, Note_on_c, 0, 77, 14
1, 7793, Note_on_c, 0, 80, 16
1, 7793, Note_on_c, 0, 93, 12
1, 7794, Note_on_c, 0, 63, 30
1, 7794, Note_off_c, 0, 79, 64
1, 7794, Note_on_c, 0, 84, 24
1, 7794, Note_on_c, 0, 91, 12
1, 7795, Note_off_c, 0, 29, 64
1, 7795, Note_on_c, 0, 30, 80
1, 7795, Note_on_c, 0, 43, 67
1, 7795, Note_on_c, 0, 75, 36
1, 7795, Note_off_c, 0, 76, 64
1, 7795, Note_off_c, 0, 86, 64
1, 7795, Note_off_c, 0, 92, 64
1, 7796, Note_off_c, 0, 43, 64
1, 7796, Note_on_c, 0, 61, 24
1, 7796, Note_on_c, 0, 68, 22
1, 7796, Note_off_c, 0, 77, 64
1, 7796, Note_on_c, 0, 78, 14
1, 7796, Note_off_c, 0, 83, 64
1, 7796, Note_on_c, 0, 86, 13
1, 7797, Note_on_c, 0, 49, 56
1, 7797, Note_off_c, 0, 63, 64
1, 7797, Note_on_c, 0, 72, 29
1, 7797, Note_off_c, 0, 75, 64
1, 7797, Note_off_c, 0, 80, 64
1, 7797, Note_off_c, 0, 90, 64
1, 7798, Note_on_c, 0, 63, 22
1, 7798, Note_on_c, 0, 75, 22
1, 7798, Note_off_c, 0, 84, 64
1, 7798, Note_off_c, 0, 91, 64
1, 7798, Note_off_c, 0, 93, 64
1, 7799, Note_on_c, 0, 29, 78
1, 7799, Note_off_c, 0, 30, 64
1, 7799, Note_off_c, 0, 49, 64
1, 7799, Note_off_c, 0, 78, 64
1, 7799, Note_on_c, 0, 80, 34
1, 7799, Note_on_c, 0, 91, 26
1, 7800, Note_off_c, 0, 29, 64
1, 7800, Note_on_c, 0, 30, 77
1, 7800, Note_off_c, 0, 61, 64
1, 7800, Note_off_c, 0, 72, 64
1, 7801, Note_off_c, 0, 68, 64
1, 7801, Note_off_c, 0, 75, 64
1, 7801, Note_on_c, 0, 76, 38
1, 7801, Note_off_c, 0, 86, 64
1, 7802, Note_off_c, 0, 30, 64
1, 7802, Note_on_c, 0, 34, 71
1, 7802, Note_off_c, 0, 63, 64
1, 7802, Note_on_c, 0, 83, 31
1, 7802, Note_on_c, 0, 93, 25
1, 7803, Note_off_c, 0, 34, 64
1, 7803, Note_on_c, 0, 65, 49
1, 7803, Note_on_c, 0, 86, 28
1, 7803, Note_on_c, 0, 87, 31
1, 7803, Note_on_c, 0, 89, 32
1, 7803, Note_on_c, 0, 90, 28
1, 7803, Note_on_c, 0, 94, 23
1, 7804, Note_on_c, 0, 79, 33
1, 7804, Note_on_c, 0, 82, 35
1, 7804, Note_off_c, 0, 83, 64
1, 7804, Note_off_c, 0, 91, 64
1, 7805, Note_on_c, 0, 51, 75
1, 7805, Note_off_c, 0, 65, 64
1, 7805, Note_on_c, 0, 75, 19
1, 7805, Note_on_c, 0, 78, 9
1, 7805, Note_on_c, 0, 85, 13
1, 7805, Note_off_c, 0, 93, 64
1, 7806, Note_on_c, 0, 46, 86
1, 7806, Note_off_c, 0, 51, 64
1, 7806, Note_off_c, 0, 76, 64
1, 7806, Note_off_c, 0, 80, 64
1, 7806, Note_off_c, 0, 82, 64
1, 7806, Note_off_c, 0, 86, 64
1, 7806, Note_off_c, 0, 87, 64
1, 7806, Note_off_c, 0, 89, 64
1, 7806, Note_off_c, 0, 90, 64
1, 7806, Note_off_c, 0, 94, 64
1, 7807, Note_on_c, 0, 44, 94
1, 7807, Note_off_c, 0, 46, 64
1, 7808, Note_on_c, 0, 41, 100
1, 7808, Note_off_c, 0, 44, 64
1, 7808, Note_off_c, 0, 75, 64
1, 7808, Note_off_c, 0, 78, 64
1, 7808, Note_on_c, 0, 80, 12
1, 7808, Note_off_c, 0, 85, 64
1, 7809, Note_on_c, 0, 40, 96
1, 7809, Note_off_c, 0, 41, 64
1, 7809, Note_on_c, 0, 82, 15
1, 7810, Note_on_c, 0, 38, 98
1, 7810, Note_off_c, 0, 40, 64
1, 7810, Note_on_c, 0, 87, 15
1, 7811, Note_on_c, 0, 36, 97
1, 7811, Note_off_c, 0, 38, 64
1, 7811, Note_off_c, 0, 79, 64
1, 7811, Note_off_c, 0, 80, 64
1, 7812, Note_on_c, 0, 35, 96
1, 7812, Note_off_c, 0, 36, 64
1, 7812, Note_off_c, 0, 82, 64
1, 7813, Note_on_c, 0, 34, 95
1, 7813, Note_off_c, 0, 35, 64
1, 7813, Note_on_c, 0, 83, 18
1, 7813, Note_on_c, 0, 84, 22
1, 7813, Note_on_c, 0, 85, 20
1, 7814, Note_on_c, 0, 33, 95
1, 7814, Note_off_c, 0, 34, 64
1, 7815, Note_on_c, 0, 32, 96
1, 7815, Note_off_c, 0, 33, 64
1, 7815, Note_on_c, 0, 48, 34
1, 7815, Note_on_c, 0, 78, 13
1, 7817, Note_on_c, 0, 31, 93
1, 7817, Note_off_c, 0, 32, 64
1, 7817, Note_off_c, 0, 48, 64
1, 7817, Note_on_c, 0, 49, 19
1, 7817, Note_on_c, 0, 82, 20
1, 7817, Note_off_c, 0, 84, 64
1, 7817, Note_off_c, 0, 85, 64
1, 7817, Note_off_c, 0, 87, 64
1, 7817, Note_on_c, 0, 88, 15
1, 7819, Note_on_c, 0, 30, 83
1, 7819, Note_off_c, 0, 31, 64
1, 7819, Note_off_c, 0, 78, 64
1, 7820, Note_off_c, 0, 49, 64
1, 7820, Note_on_c, 0, 72, 22
1, 7820, Note_on_c, 0, 80, 15
1, 7821, Note_on_c, 0, 76, 31
1, 7821, Note_off_c, 0, 83, 64
1, 7821, Note_on_c, 0, 90, 12
1, 7822, Note_off_c, 0, 30, 64
1, 7822, Note_on_c, 0, 64, 24
1, 7822, Note_on_c, 0, 70, 19
1, 7822, Note_on_c, 0, 78, 19
1, 7822, Note_on_c, 0, 85, 30
1, 7822, Note_on_c, 0, 89, 17
1, 7823, Note_on_c, 0, 41, 69
1, 7823, Note_off_c, 0, 72, 64
1, 7823, Note_off_c, 0, 80, 64
1, 7823, Note_on_c, 0, 84, 27
1, 7824, Note_on_c, 0, 31, 72
1, 7824, Note_off_c, 0, 41, 64
1, 7824, Note_on_c, 0, 61, 36
1, 7824, Note_on_c, 0, 68, 19
1, 7824, Note_on_c, 0, 83, 19
1, 7824, Note_off_c, 0, 90, 64
1, 7825, Note_on_c, 0, 30, 78
1, 7825, Note_off_c, 0, 31, 64
1, 7825, Note_off_c, 0, 64, 64
1, 7825, Note_off_c, 0, 70, 64
1, 7825, Note_on_c, 0, 72, 19
1, 7825, Note_off_c, 0, 82, 64
1, 7825, Note_off_c, 0, 85, 64
1, 7825, Note_off_c, 0, 89, 64
1, 7826, Note_on_c, 0, 29, 80
1, 7826, Note_off_c, 0, 30, 64
1, 7826, Note_on_c, 0, 49, 57
1, 7826, Note_off_c, 0, 76, 64
1, 7826, Note_off_c, 0, 78, 64
1, 7826, Note_off_c, 0, 84, 64
1, 7827, Note_off_c, 0, 29, 64
1, 7827, Note_on_c, 0, 30, 78
1, 7827, Note_on_c, 0, 64, 23
1, 7827, Note_off_c, 0, 68, 64
1, 7827, Note_off_c, 0, 83, 64
1, 7827, Note_off_c, 0, 88, 64
1, 7828, Note_off_c, 0, 72, 64
1, 7828, Note_on_c, 0, 76, 25
1, 7829, Note_on_c, 0, 48, 53
1, 7829, Note_off_c, 0, 49, 64
1, 7829, Note_off_c, 0, 61, 64
1, 7829, Note_on_c, 0, 70, 28
1, 7830, Note_on_c, 0, 29, 74
1, 7830, Note_off_c, 0, 30, 64
1, 7830, Note_off_c, 0, 64, 64
1, 7830, Note_on_c, 0, 78, 33
1, 7831, Note_off_c, 0, 48, 64
1, 7831, Note_on_c, 0, 74, 21
1, 7831, Note_on_c, 0, 85, 16
1, 7832, Note_on_c, 0, 68, 19
1, 7832, Note_on_c, 0, 84, 16
1, 7832, Note_on_c, 0, 91, 11
1, 7833, Note_off_c, 0, 29, 64
1, 7833, Note_on_c, 0, 30, 75
1, 7833, Note_on_c, 0, 54, 53
1, 7833, Note_on_c, 0, 61, 31
1, 7833, Note_on_c, 0, 72, 32
1, 7833, Note_off_c, 0, 76, 64
1, 7833, Note_on_c, 0, 83, 29
1, 7834, Note_off_c, 0, 30, 64
1, 7834, Note_on_c, 0, 31, 78
1, 7835, Note_on_c, 0, 30, 79
1, 7835, Note_off_c, 0, 31, 64
1, 7835, Note_on_c, 0, 71, 15
1, 7835, Note_off_c, 0, 74, 64
1, 7835, Note_on_c, 0, 75, 30
1, 7835, Note_on_c, 0, 81, 21
1, 7835, Note_off_c, 0, 84, 64
1, 7836, Note_on_c, 0, 29, 78
1, 7836, Note_off_c, 0, 30, 64
1, 7836, Note_off_c, 0, 54, 64
1, 7836, Note_off_c, 0, 61, 64
1, 7836, Note_off_c, 0, 68, 64
1, 7836, Note_off_c, 0, 70, 64
1, 7836, Note_off_c, 0, 72, 64
1, 7836, Note_off_c, 0, 91, 64
1, 7837, Note_on_c, 0, 61, 18
1, 7837, Note_on_c, 0, 74, 23
1, 7837, Note_off_c, 0, 75, 64
1, 7837, Note_on_c, 0, 76, 32
1, 7837, Note_off_c, 0, 78, 64
1, 7837, Note_off_c, 0, 85, 64
1, 7838, Note_off_c, 0, 29, 64
1, 7838, Note_on_c, 0, 30, 75
1, 7838, Note_on_c, 0, 66, 10
1, 7838, Note_off_c, 0, 71, 64
1, 7839, Note_off_c, 0, 30, 64
1, 7839, Note_on_c, 0, 33, 72
1, 7839, Note_on_c, 0, 48, 49
1, 7839, Note_on_c, 0, 78, 37
1, 7839, Note_on_c, 0, 79, 37
1, 7840, Note_off_c, 0, 33, 64
1, 7840, Note_on_c, 0, 35, 65
1, 7840, Note_off_c, 0, 74, 64
1, 7840, Note_on_c, 0, 75, 43
1, 7840, Note_off_c, 0, 76, 64
1, 7840, Note_on_c, 0, 82, 33
1, 7840, Note_on_c, 0, 84, 31
1, 7840, Note_on_c, 0, 88, 34
1, 7840, Note_on_c, 0, 93, 25
1, 7840, Note_on_c, 0, 99, 21
1, 7840, Note_on_c, 0, 102, 17
1, 7841, Note_off_c, 0, 35, 64
1, 7841, Note_off_c, 0, 48, 64
1, 7841, Note_off_c, 0, 61, 64
1, 7841, Note_off_c, 0, 66, 64
1, 7841, Note_on_c, 0, 70, 44
1, 7841, Note_off_c, 0, 81, 64
1, 7841, Note_on_c, 0, 85, 34
1, 7842, Note_on_c, 0, 53, 69
1, 7842, Note_off_c, 0, 79, 64
1, 7842, Note_on_c, 0, 80, 25
1, 7842, Note_on_c, 0, 81, 26
1, 7843, Note_on_c, 0, 48, 83
1, 7843, Note_off_c, 0, 53, 64
1, 7843, Note_off_c, 0, 78, 64
1, 7843, Note_off_c, 0, 82, 64
1, 7843, Note_off_c, 0, 83, 64
1, 7843, Note_off_c, 0, 85, 64
1, 7843, Note_on_c, 0, 86, 28
1, 7843, Note_off_c, 0, 93, 64
1, 7843, Note_off_c, 0, 99, 64
1, 7843, Note_off_c, 0, 102, 64
1, 7844, Note_on_c, 0, 45, 93
1, 7844, Note_off_c, 0, 48, 64
1, 7844, Note_off_c, 0, 70, 64
1, 7844, Note_off_c, 0, 75, 64
1, 7844, Note_off_c, 0, 84, 64
1, 7844, Note_off_c, 0, 88, 64
1, 7845, Note_on_c, 0, 42, 98
1, 7845, Note_off_c, 0, 45, 64
1, 7845, Note_on_c, 0, 79, 12
1, 7845, Note_off_c, 0, 80, 64
1, 7845, Note_on_c, 0, 83, 11
1, 7846, Note_on_c, 0, 40, 99
1, 7846, Note_off_c, 0, 42, 64
1, 7847, Note_on_c, 0, 38, 98
1, 7847, Note_off_c, 0, 40, 64
1, 7848, Note_on_c, 0, 37, 98
1, 7848, Note_off_c, 0, 38, 64
1, 7848, Note_off_c, 0, 79, 64
1, 7848, Note_off_c, 0, 81, 64
1, 7849, Note_on_c, 0, 35, 97
1, 7849, Note_off_c, 0, 37, 64
1, 7849, Note_off_c, 0, 83, 64
1, 7850, Note_on_c, 0, 34, 96
1, 7850, Note_off_c, 0, 35, 64
1, 7851, Note_on_c, 0, 33, 96
1, 7851, Note_off_c, 0, 34, 64
1, 7851, Note_off_c, 0, 86, 64
1, 7852, Note_on_c, 0, 32, 96
1, 7852, Note_off_c, 0, 33, 64
1, 7853, Note_on_c, 0, 76, 9
1, 7853, Note_on_c, 0, 79, 18
1, 7854, Note_on_c, 0, 31, 95
1, 7854, Note_off_c, 0, 32, 64
1, 7855, Note_on_c, 0, 73, 25
1, 7856, Note_off_c, 0, 79, 64
1, 7857, Note_on_c, 0, 30, 76
1, 7857, Note_off_c, 0, 31, 64
1, 7857, Note_off_c, 0, 76, 64
1, 7858, Note_off_c, 0, 73, 64
1, 7859, Note_off_c, 0, 30, 64
1, 7860, Note_on_c, 0, 76, 16
1, 7861, Note_on_c, 0, 36, 67
1, 7861, Note_on_c, 0, 54, 50
1, 7861, Note_on_c, 0, 58, 33
1, 7861, Note_on_c, 0, 68, 23
1, 7862, Note_on_c, 0, 30, 78
1, 7862, Note_off_c, 0, 36, 64
1, 7863, Note_on_c, 0, 29, 81
1, 7863, Note_off_c, 0, 30, 64
1, 7863, Note_off_c, 0, 58, 64
1, 7863, Note_on_c, 0, 63, 21
1, 7863, Note_on_c, 0, 75, 30
1, 7863, Note_off_c, 0, 76, 64
1, 7864, Note_on_c, 0, 49, 56
1, 7864, Note_off_c, 0, 54, 64
1, 7864, Note_on_c, 0, 71, 26
1, 7864, Note_on_c, 0, 73, 16
1, 7865, Note_off_c, 0, 29, 64
1, 7865, Note_on_c, 0, 30, 76
1, 7865, Note_off_c, 0, 75, 64
1, 7866, Note_off_c, 0, 68, 64
1, 7866, Note_on_c, 0, 77, 27
1, 7866, Note_on_c, 0, 80, 16
1, 7867, Note_on_c, 0, 29, 74
1, 7867, Note_off_c, 0, 30, 64
1, 7867, Note_off_c, 0, 49, 64
1, 7867, Note_off_c, 0, 63, 64
1, 7867, Note_off_c, 0, 73, 64
1, 7868, Note_off_c, 0, 71, 64
1, 7868, Note_on_c, 0, 75, 29
1, 7869, Note_on_c, 0, 84, 27
1, 7869, Note_on_c, 0, 91, 9
1, 7870, Note_off_c, 0, 29, 64
1, 7870, Note_on_c, 0, 30, 73
1, 7870, Note_on_c, 0, 64, 31
1, 7870, Note_off_c, 0, 80, 64
1, 7871, Note_off_c, 0, 30, 64
1, 7871, Note_on_c, 0, 31, 77
1, 7871, Note_on_c, 0, 68, 14
1, 7871, Note_off_c, 0, 75, 64
1, 7871, Note_off_c, 0, 77, 64
1, 7871, Note_on_c, 0, 86, 23
1, 7871, Note_on_c, 0, 89, 11
1, 7872, Note_on_c, 0, 30, 79
1, 7872, Note_off_c, 0, 31, 64
1, 7872, Note_on_c, 0, 75, 30
1, 7872, Note_on_c, 0, 79, 16
1, 7873, Note_on_c, 0, 29, 79
1, 7873, Note_off_c, 0, 30, 64
1, 7873, Note_on_c, 0, 49, 58
1, 7873, Note_on_c, 0, 63, 26
1, 7873, Note_off_c, 0, 64, 64
1, 7873, Note_on_c, 0, 82, 14
1, 7873, Note_off_c, 0, 84, 64
1, 7874, Note_on_c, 0, 78, 27
1, 7874, Note_off_c, 0, 86, 64
1, 7874, Note_off_c, 0, 89, 64
1, 7874, Note_off_c, 0, 91, 64
1, 7875, Note_off_c, 0, 29, 64
1, 7875, Note_on_c, 0, 30, 76
1, 7875, Note_off_c, 0, 68, 64
1, 7875, Note_off_c, 0, 75, 64
1, 7875, Note_on_c, 0, 76, 32
1, 7875, Note_off_c, 0, 79, 64
1, 7875, Note_on_c, 0, 83, 33
1, 7876, Note_off_c, 0, 49, 64
1, 7876, Note_off_c, 0, 63, 64
1, 7876, Note_on_c, 0, 79, 36
1, 7876, Note_off_c, 0, 82, 64
1, 7877, Note_off_c, 0, 30, 64
1, 7877, Note_on_c, 0, 34, 70
1, 7877, Note_off_c, 0, 78, 64
1, 7877, Note_on_c, 0, 81, 33
1, 7877, Note_on_c, 0, 82, 33
1, 7877, Note_on_c, 0, 88, 32
1, 7877, Note_on_c, 0, 90, 31
1, 7878, Note_off_c, 0, 34, 64
1, 7878, Note_on_c, 0, 60, 55
1, 7878, Note_on_c, 0, 70, 42
1, 7878, Note_on_c, 0, 74, 36
1, 7878, Note_on_c, 0, 85, 27
1, 7879, Note_on_c, 0, 78, 37
1, 7879, Note_off_c, 0, 79, 64
1, 7879, Note_off_c, 0, 82, 64
1, 7880, Note_on_c, 0, 51, 77
1, 7880, Note_off_c, 0, 60, 64
1, 7880, Note_off_c, 0, 81, 64
1, 7880, Note_off_c, 0, 88, 64
1, 7880, Note_off_c, 0, 90, 64
1, 7881, Note_on_c, 0, 46, 89
1, 7881, Note_off_c, 0, 51, 64
1, 7881, Note_off_c, 0, 70, 64
1, 7881, Note_off_c, 0, 74, 64
1, 7881, Note_off_c, 0, 76, 64
1, 7881, Note_off_c, 0, 78, 64
1, 7881, Note_off_c, 0, 83, 64
1, 7881, Note_off_c, 0, 85, 64
1, 7882, Note_on_c, 0, 44, 95
1, 7882, Note_off_c, 0, 46, 64
1, 7883, Note_on_c, 0, 41, 100
1, 7883, Note_off_c, 0, 44, 64
1, 7884, Note_on_c, 0, 39, 97
1, 7884, Note_off_c, 0, 41, 64
1, 7885, Note_on_c, 0, 37, 98
1, 7885, Note_off_c, 0, 39, 64
1, 7886, Note_on_c, 0, 36, 98
1, 7886, Note_off_c, 0, 37, 64
1, 7887, Note_on_c, 0, 35, 96
1, 7887, Note_off_c, 0, 36, 64
1, 7888, Note_on_c, 0, 34, 96
1, 7888, Note_off_c, 0, 35, 64
1, 7889, Note_on_c, 0, 33, 96
1, 7889, Note_off_c, 0, 34, 64
1, 7890, Note_on_c, 0, 32, 96
1, 7890, Note_off_c, 0, 33, 64
1, 7891, Note_on_c, 0, 48, 23
1, 7892, Note_on_c, 0, 31, 93
1, 7892, Note_off_c, 0, 32, 64
1, 7894, Note_on_c, 0, 30, 82
1, 7894, Note_off_c, 0, 31, 64
1, 7894, Note_off_c, 0, 48, 64
1, 7897, Note_off_c, 0, 30, 64
1, 7897, Note_on_c, 0, 68, 15
1, 7897, Note_on_c, 0, 78, 17
1, 7898, Note_on_c, 0, 36, 69
1, 7898, Note_on_c, 0, 77, 15
1, 7898, Note_on_c, 0, 85, 18
1, 7899, Note_on_c, 0, 31, 75
1, 7899, Note_off_c, 0, 36, 64
1, 7899, Note_on_c, 0, 61, 25
1, 7899, Note_on_c, 0, 64, 30
1, 7899, Note_on_c, 0, 79, 25
1, 7900, Note_on_c, 0, 30, 80
1, 7900, Note_off_c, 0, 31, 64
1, 7900, Note_off_c, 0, 78, 64
1, 7901, Note_on_c, 0, 29, 80
1, 7901, Note_off_c, 0, 30, 64
1, 7901, Note_on_c, 0, 49, 57
1, 7901, Note_on_c, 0, 63, 19
1, 7901, Note_off_c, 0, 64, 64
1, 7901, Note_on_c, 0, 82, 16
1, 7901, Note_off_c, 0, 85, 64
1, 7902, Note_off_c, 0, 29, 64
1, 7902, Note_on_c, 0, 30, 77
1, 7902, Note_off_c, 0, 61, 64
1, 7902, Note_on_c, 0, 83, 10
1, 7903, Note_off_c, 0, 68, 64
1, 7903, Note_off_c, 0, 77, 64
1, 7903, Note_on_c, 0, 78, 18
1, 7903, Note_on_c, 0, 81, 10
1, 7904, Note_on_c, 0, 29, 74
1, 7904, Note_off_c, 0, 30, 64
1, 7904, Note_off_c, 0, 49, 64
1, 7904, Note_off_c, 0, 79, 64
1, 7904, Note_off_c, 0, 82, 64
1, 7905, Note_on_c, 0, 76, 23
1, 7905, Note_off_c, 0, 83, 64
1, 7906, Note_on_c, 0, 66, 29
1, 7906, Note_off_c, 0, 81, 64
1, 7907, Note_off_c, 0, 29, 64
1, 7907, Note_on_c, 0, 30, 78
1, 7907, Note_off_c, 0, 63, 64
1, 7907, Note_off_c, 0, 78, 64
1, 7907, Note_on_c, 0, 85, 21
1, 7908, Note_on_c, 0, 61, 34
1, 7908, Note_on_c, 0, 75, 21
1, 7908, Note_off_c, 0, 76, 64
1, 7909, Note_on_c, 0, 64, 34
1, 7909, Note_off_c, 0, 66, 64
1, 7909, Note_on_c, 0, 68, 21
1, 7910, Note_on_c, 0, 29, 79
1, 7910, Note_off_c, 0, 30, 64
1, 7910, Note_on_c, 0, 71, 19
1, 7910, Note_on_c, 0, 81, 20
1, 7911, Note_off_c, 0, 64, 64
1, 7911, Note_off_c, 0, 75, 64
1, 7912, Note_off_c, 0, 29, 64
1, 7912, Note_on_c, 0, 30, 77
1, 7912, Note_off_c, 0, 85, 64
1, 7913, Note_off_c, 0, 61, 64
1, 7913, Note_off_c, 0, 68, 64
1, 7913, Note_off_c, 0, 71, 64
1, 7914, Note_off_c, 0, 30, 64
1, 7914, Note_on_c, 0, 33, 72
1, 7914, Note_on_c, 0, 48, 50
1, 7915, Note_off_c, 0, 33, 64
1, 7915, Note_on_c, 0, 67, 44
1, 7915, Note_off_c, 0, 81, 64
1, 7915, Note_on_c, 0, 82, 29
1, 7915, Note_on_c, 0, 86, 35
1, 7915, Note_on_c, 0, 87, 33
1, 7915, Note_on_c, 0, 90, 26
1, 7915, Note_on_c, 0, 92, 27
1, 7915, Note_on_c, 0, 93, 25
1, 7915, Note_on_c, 0, 95, 22
1, 7915, Note_on_c, 0, 96, 20
1, 7915, Note_on_c, 0, 97, 22
1, 7915, Note_on_c, 0, 100, 22
1, 7916, Note_off_c, 0, 48, 64
1, 7916, Note_on_c, 0, 72, 41
1, 7916, Note_on_c, 0, 77, 39
1, 7916, Note_on_c, 0, 78, 34
1, 7916, Note_on_c, 0, 81, 37
1, 7917, Note_on_c, 0, 53, 70
1, 7917, Note_on_c, 0, 63, 49
1, 7917, Note_off_c, 0, 67, 64
1, 7917, Note_on_c, 0, 69, 37
1, 7918, Note_on_c, 0, 48, 84
1, 7918, Note_off_c, 0, 53, 64
1, 7918, Note_off_c, 0, 72, 64
1, 7918, Note_off_c, 0, 77, 64
1, 7918, Note_off_c, 0, 78, 64
1, 7918, Note_off_c, 0, 81, 64
1, 7918, Note_off_c, 0, 82, 64
1, 7918, Note_off_c, 0, 86, 64
1, 7918, Note_off_c, 0, 87, 64
1, 7918, Note_off_c, 0, 90, 64
1, 7918, Note_off_c, 0, 92, 64
1, 7918, Note_off_c, 0, 93, 64
1, 7918, Note_off_c, 0, 95, 64
1, 7918, Note_off_c, 0, 96, 64
1, 7918, Note_off_c, 0, 97, 64
1, 7918, Note_off_c, 0, 100, 64
1, 7919, Note_on_c, 0, 45, 94
1, 7919, Note_off_c, 0, 48, 64
1, 7919, Note_off_c, 0, 69, 64
1, 7920, Note_on_c, 0, 42, 99
1, 7920, Note_off_c, 0, 45, 64
1, 7920, Note_off_c, 0, 63, 64
1, 7921, Note_on_c, 0, 40, 99
1, 7921, Note_off_c, 0, 42, 64
1, 7922, Note_on_c, 0, 38, 98
1, 7922, Note_off_c, 0, 40, 64
1, 7923, Note_on_c, 0, 37, 98
1, 7923, Note_off_c, 0, 38, 64
1, 7924, Note_on_c, 0, 35, 97
1, 7924, Note_off_c, 0, 37, 64
1, 7925, Note_on_c, 0, 34, 96
1, 7925, Note_off_c, 0, 35, 64
1, 7926, Note_on_c, 0, 33, 96
1, 7926, Note_off_c, 0, 34, 64
1, 7927, Note_on_c, 0, 32, 96
1, 7927, Note_off_c, 0, 33, 64
1, 7929, Note_on_c, 0, 31, 95
1, 7929, Note_off_c, 0, 32, 64
1, 7932, Note_on_c, 0, 30, 75
1, 7932, Note_off_c, 0, 31, 64
1, 7934, Note_off_c, 0, 30, 64
1, 7935, Note_on_c, 0, 80, 19
1, 7936, Note_on_c, 0, 31, 72
1, 7936, Note_on_c, 0, 64, 31
1, 7936, Note_on_c, 0, 68, 20
1, 7936, Note_on_c, 0, 70, 15
1, 7936, Note_on_c, 0, 77, 14
1, 7937, Note_on_c, 0, 30, 80
1, 7937, Note_off_c, 0, 31, 64
1, 7937, Note_on_c, 0, 49, 63
1, 7937, Note_on_c, 0, 81, 17
1, 7938, Note_on_c, 0, 29, 80
1, 7938, Note_off_c, 0, 30, 64
1, 7938, Note_off_c, 0, 80, 64
1, 7939, Note_off_c, 0, 68, 64
1, 7939, Note_off_c, 0, 70, 64
1, 7940, Note_off_c, 0, 29, 64
1, 7940, Note_on_c, 0, 30, 75
1, 7940, Note_off_c, 0, 49, 64
1, 7940, Note_off_c, 0, 64, 64
1, 7940, Note_on_c, 0, 75, 19
1, 7940, Note_off_c, 0, 77, 64
1, 7942, Note_on_c, 0, 29, 75
1, 7942, Note_off_c, 0, 30, 64
1, 7944, Note_on_c, 0, 80, 15
1, 7944, Note_on_c, 0, 86, 17
1, 7945, Note_off_c, 0, 29, 64
1, 7945, Note_on_c, 0, 30, 80
1, 7945, Note_on_c, 0, 63, 29
1, 7945, Note_on_c, 0, 71, 20
1, 7945, Note_on_c, 0, 83, 20
1, 7946, Note_on_c, 0, 49, 61
1, 7946, Note_on_c, 0, 68, 12
1, 7946, Note_off_c, 0, 81, 64
1, 7947, Note_off_c, 0, 63, 64
1, 7947, Note_off_c, 0, 75, 64
1, 7948, Note_on_c, 0, 29, 79
1, 7948, Note_off_c, 0, 30, 64
1, 7948, Note_on_c, 0, 78, 23
1, 7948, Note_on_c, 0, 84, 33
1, 7949, Note_off_c, 0, 29, 64
1, 7949, Note_on_c, 0, 30, 77
1, 7949, Note_on_c, 0, 81, 26
1, 7949, Note_off_c, 0, 83, 64
1, 7950, Note_off_c, 0, 68, 64
1, 7950, Note_off_c, 0, 71, 64
1, 7950, Note_off_c, 0, 80, 64
1, 7950, Note_off_c, 0, 86, 64
1, 7951, Note_off_c, 0, 49, 64
1, 7951, Note_on_c, 0, 80, 32
1, 7951, Note_on_c, 0, 82, 35
1, 7952, Note_off_c, 0, 30, 64
1, 7952, Note_on_c, 0, 34, 70
1, 7952, Note_on_c, 0, 73, 41
1, 7952, Note_off_c, 0, 78, 64
1, 7952, Note_on_c, 0, 79, 33
1, 7952, Note_off_c, 0, 81, 64
1, 7952, Note_on_c, 0, 83, 32
1, 7952, Note_on_c, 0, 88, 33
1, 7953, Note_off_c, 0, 34, 64
1, 7954, Note_on_c, 0, 64, 50
1, 7954, Note_on_c, 0, 74, 35
1, 7954, Note_on_c, 0, 77, 32
1, 7954, Note_off_c, 0, 80, 64
1, 7955, Note_on_c, 0, 50, 78
1, 7955, Note_off_c, 0, 79, 64
1, 7955, Note_off_c, 0, 83, 64
1, 7955, Note_off_c, 0, 88, 64
1, 7956, Note_on_c, 0, 45, 90
1, 7956, Note_off_c, 0, 50, 64
1, 7956, Note_off_c, 0, 64, 64
1, 7956, Note_off_c, 0, 73, 64
1, 7956, Note_off_c, 0, 74, 64
1, 7956, Note_off_c, 0, 77, 64
1, 7956, Note_off_c, 0, 82, 64
1, 7956, Note_off_c, 0, 84, 64
1, 7957, Note_on_c, 0, 43, 95
1, 7957, Note_off_c, 0, 45, 64
1, 7958, Note_on_c, 0, 41, 100
1, 7958, Note_off_c, 0, 43, 64
1, 7959, Note_on_c, 0, 39, 97
1, 7959, Note_off_c, 0, 41, 64
1, 7960, Note_on_c, 0, 37, 98
1, 7960, Note_off_c, 0, 39, 64
1, 7961, Note_on_c, 0, 36, 97
1, 7961, Note_off_c, 0, 37, 64
1, 7962, Note_on_c, 0, 35, 96
1, 7962, Note_off_c, 0, 36, 64
1, 7963, Note_on_c, 0, 34, 96
1, 7963, Note_off_c, 0, 35, 64
1, 7964, Note_on_c, 0, 33, 96
1, 7964, Note_off_c, 0, 34, 64
1, 7965, Note_on_c, 0, 32, 97
1, 7965, Note_off_c, 0, 33, 64
1, 7966, Note_on_c, 0, 31, 96
1, 7966, Note_off_c, 0, 32, 64
1, 7969, Note_on_c, 0, 30, 81
1, 7969, Note_off_c, 0, 31, 64
1, 7971, Note_off_c, 0, 30, 64
1, 7972, Note_on_c, 0, 73, 23
1, 7972, Note_on_c, 0, 80, 22
1, 7972, Note_on_c, 0, 82, 22
1, 7972, Note_on_c, 0, 84, 29
1, 7972, Note_on_c, 0, 87, 26
1, 7972, Note_on_c, 0, 89, 18
1, 7972, Note_on_c, 0, 90, 22
1, 7972, Note_on_c, 0, 91, 24
1, 7972, Note_on_c, 0, 93, 20
1, 7972, Note_on_c, 0, 95, 15
1, 7973, Note_on_c, 0, 36, 71
1, 7973, Note_on_c, 0, 61, 32
1, 7973, Note_on_c, 0, 68, 12
1, 7973, Note_on_c, 0, 70, 14
1, 7974, Note_on_c, 0, 31, 75
1, 7974, Note_off_c, 0, 36, 64
1, 7974, Note_on_c, 0, 49, 61
1, 7974, Note_on_c, 0, 78, 33
1, 7975, Note_on_c, 0, 30, 79
1, 7975, Note_off_c, 0, 31, 64
1, 7975, Note_on_c, 0, 75, 17
1, 7975, Note_off_c, 0, 80, 64
1, 7975, Note_on_c, 0, 81, 30
1, 7975, Note_off_c, 0, 89, 64
1, 7976, Note_on_c, 0, 29, 79
1, 7976, Note_off_c, 0, 30, 64
1, 7976, Note_on_c, 0, 63, 22
1, 7976, Note_off_c, 0, 70, 64
1, 7976, Note_off_c, 0, 90, 64
1, 7976, Note_off_c, 0, 91, 64
1, 7976, Note_off_c, 0, 95, 64
1, 7977, Note_off_c, 0, 49, 64
1, 7977, Note_off_c, 0, 68, 64
1, 7977, Note_on_c, 0, 80, 17
1, 7977, Note_on_c, 0, 83, 18
1, 7977, Note_off_c, 0, 84, 64
1, 7978, Note_off_c, 0, 29, 64
1, 7978, Note_on_c, 0, 30, 75
1, 7978, Note_off_c, 0, 61, 64
1, 7978, Note_on_c, 0, 66, 11
1, 7978, Note_off_c, 0, 73, 64
1, 7978, Note_off_c, 0, 75, 64
1, 7978, Note_off_c, 0, 82, 64
1, 7979, Note_on_c, 0, 29, 74
1, 7979, Note_off_c, 0, 30, 64
1, 7979, Note_off_c, 0, 63, 64
1, 7979, Note_off_c, 0, 78, 64
1, 7979, Note_on_c, 0, 84, 32
1, 7979, Note_off_c, 0, 93, 64
1, 7980, Note_on_c, 0, 49, 45
1, 7980, Note_off_c, 0, 81, 64
1, 7980, Note_off_c, 0, 87, 64
1, 7981, Note_on_c, 0, 74, 17
1, 7981, Note_off_c, 0, 80, 64
1, 7981, Note_on_c, 0, 81, 19
1, 7981, Note_on_c, 0, 85, 16
1, 7982, Note_on_c, 0, 42, 66
1, 7982, Note_off_c, 0, 49, 64
1, 7982, Note_off_c, 0, 66, 64
1, 7982, Note_on_c, 0, 68, 24
1, 7982, Note_on_c, 0, 71, 14
1, 7982, Note_on_c, 0, 79, 18
1, 7982, Note_on_c, 0, 82, 16
1, 7982, Note_off_c, 0, 83, 64
1, 7982, Note_on_c, 0, 86, 29
1, 7983, Note_off_c, 0, 29, 64
1, 7983, Note_on_c, 0, 30, 80
1, 7983, Note_off_c, 0, 42, 64
1, 7983, Note_on_c, 0, 61, 32
1, 7985, Note_off_c, 0, 71, 64
1, 7985, Note_off_c, 0, 79, 64
1, 7985, Note_off_c, 0, 81, 64
1, 7985, Note_off_c, 0, 85, 64
1, 7986, Note_off_c, 0, 61, 64
1, 7986, Note_off_c, 0, 74, 64
1, 7986, Note_off_c, 0, 82, 64
1, 7986, Note_on_c, 0, 85, 21
1, 7987, Note_on_c, 0, 61, 19
1, 7988, Note_off_c, 0, 68, 64
1, 7989, Note_off_c, 0, 30, 64
1, 7989, Note_on_c, 0, 34, 72
1, 7989, Note_off_c, 0, 85, 64
1, 7990, Note_off_c, 0, 34, 64
1, 7990, Note_off_c, 0, 61, 64
1, 7990, Note_on_c, 0, 66, 53
1, 7990, Note_on_c, 0, 70, 42
1, 7990, Note_on_c, 0, 74, 39
1, 7990, Note_on_c, 0, 77, 39
1, 7990, Note_on_c, 0, 88, 31
1, 7990, Note_on_c, 0, 91, 28
1, 7990, Note_on_c, 0, 92, 26
1, 7991, Note_on_c, 0, 62, 48
1, 7991, Note_off_c, 0, 84, 64
1, 7991, Note_on_c, 0, 85, 37
1, 7992, Note_on_c, 0, 53, 72
1, 7993, Note_on_c, 0, 48, 85
1, 7993, Note_off_c, 0, 53, 64
1, 7993, Note_off_c, 0, 62, 64
1, 7993, Note_off_c, 0, 70, 64
1, 7993, Note_off_c, 0, 74, 64
1, 7993, Note_off_c, 0, 77, 64
1, 7993, Note_off_c, 0, 85, 64
1, 7993, Note_off_c, 0, 86, 64
1, 7993, Note_off_c, 0, 88, 64
1, 7993, Note_off_c, 0, 91, 64
1, 7993, Note_off_c, 0, 92, 64
1, 7994, Note_on_c, 0, 45, 95
1, 7994, Note_off_c, 0, 48, 64
1, 7994, Note_off_c, 0, 66, 64
1, 7995, Note_on_c, 0, 42, 100
1, 7995, Note_off_c, 0, 45, 64
1, 7996, Note_on_c, 0, 40, 98
1, 7996, Note_off_c, 0, 42, 64
1, 7997, Note_on_c, 0, 38, 98
1, 7997, Note_off_c, 0, 40, 64
1, 7998, Note_on_c, 0, 36, 98
1, 7998, Note_off_c, 0, 38, 64
1, 7999, Note_on_c, 0, 35, 97
1, 7999, Note_off_c, 0, 36, 64
1, 8000, Note_on_c, 0, 34, 96
1, 8000, Note_off_c, 0, 35, 64
1, 8000, Note_on_c, 0, 77, 15
1, 8000, Note_on_c, 0, 79, 31
1, 8000, Note_on_c, 0, 80, 34
1, 8000, Note_on_c, 0, 87, 9
1, 8000, Note_on_c, 0, 90, 21
1, 8001, Note_on_c, 0, 33, 96
1, 8001, Note_off_c, 0, 34, 64
1, 8002, Note_on_c, 0, 32, 96
1, 8002, Note_off_c, 0, 33, 64
1, 8002, Note_on_c, 0, 54, 32
1, 8002, Note_off_c, 0, 80, 64
1, 8002, Note_on_c, 0, 81, 18
1, 8002, Note_on_c, 0, 85, 19
1, 8003, Note_off_c, 0, 77, 64
1, 8003, Note_on_c, 0, 78, 29
1, 8003, Note_off_c, 0, 79, 64
1, 8004, Note_on_c, 0, 31, 95
1, 8004, Note_off_c, 0, 32, 64
1, 8004, Note_on_c, 0, 84, 13
1, 8004, Note_off_c, 0, 90, 64
1, 8005, Note_off_c, 0, 87, 64
1, 8006, Note_on_c, 0, 30, 85
1, 8006, Note_off_c, 0, 31, 64
1, 8006, Note_off_c, 0, 85, 64
1, 8007, Note_off_c, 0, 81, 64
1, 8007, Note_on_c, 0, 83, 21
1, 8008, Note_off_c, 0, 84, 64
1, 8009, Note_off_c, 0, 30, 64
1, 8009, Note_on_c, 0, 65, 39
1, 8009, Note_on_c, 0, 82, 17
1, 8009, Note_on_c, 0, 87, 24
1, 8009, Note_on_c, 0, 91, 23
1, 8009, Note_on_c, 0, 93, 18
1, 8010, Note_off_c, 0, 54, 64
1, 8010, Note_on_c, 0, 74, 20
1, 8010, Note_off_c, 0, 78, 64
1, 8010, Note_on_c, 0, 81, 24
1, 8010, Note_on_c, 0, 96, 18
1, 8010, Note_on_c, 0, 98, 13
1, 8011, Note_on_c, 0, 31, 69
1, 8011, Note_on_c, 0, 64, 46
1, 8011, Note_off_c, 0, 65, 64
1, 8011, Note_off_c, 0, 83, 64
1, 8012, Note_on_c, 0, 30, 77
1, 8012, Note_off_c, 0, 31, 64
1, 8012, Note_on_c, 0, 49, 56
1, 8012, Note_off_c, 0, 82, 64
1, 8012, Note_off_c, 0, 91, 64
1, 8013, Note_on_c, 0, 29, 80
1, 8013, Note_off_c, 0, 30, 64
1, 8013, Note_on_c, 0, 63, 29
1, 8013, Note_off_c, 0, 64, 64
1, 8013, Note_off_c, 0, 93, 64
1, 8013, Note_off_c, 0, 98, 64
1, 8014, Note_off_c, 0, 29, 64
1, 8014, Note_on_c, 0, 30, 78
1, 8014, Note_off_c, 0, 74, 64
1, 8014, Note_on_c, 0, 85, 30
1, 8014, Note_off_c, 0, 96, 64
1, 8015, Note_on_c, 0, 48, 53
1, 8015, Note_off_c, 0, 49, 64
1, 8015, Note_off_c, 0, 63, 64
1, 8015, Note_on_c, 0, 80, 23
1, 8015, Note_on_c, 0, 84, 22
1, 8015, Note_on_c, 0, 86, 19
1, 8015, Note_off_c, 0, 87, 64
1, 8016, Note_off_c, 0, 81, 64
1, 8017, Note_on_c, 0, 29, 73
1, 8017, Note_off_c, 0, 30, 64
1, 8017, Note_on_c, 0, 77, 12
1, 8017, Note_on_c, 0, 83, 14
1, 8018, Note_off_c, 0, 48, 64
1, 8018, Note_off_c, 0, 85, 64
1, 8018, Note_on_c, 0, 87, 25
1, 8020, Note_off_c, 0, 29, 64
1, 8020, Note_on_c, 0, 30, 72
1, 8020, Note_on_c, 0, 54, 52
1, 8020, Note_on_c, 0, 61, 30
1, 8020, Note_on_c, 0, 64, 27
1, 8020, Note_off_c, 0, 77, 64
1, 8020, Note_on_c, 0, 78, 13
1, 8020, Note_off_c, 0, 84, 64
1, 8020, Note_on_c, 0, 85, 34
1, 8020, Note_off_c, 0, 86, 64
1, 8021, Note_off_c, 0, 30, 64
1, 8021, Note_on_c, 0, 31, 76
1, 8021, Note_on_c, 0, 49, 60
1, 8021, Note_on_c, 0, 70, 13
1, 8021, Note_on_c, 0, 82, 20
1, 8021, Note_off_c, 0, 87, 64
1, 8022, Note_on_c, 0, 30, 79
1, 8022, Note_off_c, 0, 31, 64
1, 8022, Note_off_c, 0, 54, 64
1, 8022, Note_on_c, 0, 68, 14
1, 8022, Note_on_c, 0, 75, 20
1, 8022, Note_off_c, 0, 83, 64
1, 8022, Note_on_c, 0, 84, 23
1, 8022, Note_off_c, 0, 85, 64
1, 8023, Note_on_c, 0, 29, 79
1, 8023, Note_off_c, 0, 30, 64
1, 8023, Note_off_c, 0, 61, 64
1, 8023, Note_off_c, 0, 64, 64
1, 8024, Note_off_c, 0, 49, 64
1, 8024, Note_on_c, 0, 61, 21
1, 8024, Note_off_c, 0, 70, 64
1, 8024, Note_off_c, 0, 78, 64
1, 8024, Note_off_c, 0, 80, 64
1, 8024, Note_off_c, 0, 82, 64
1, 8025, Note_off_c, 0, 29, 64
1, 8025, Note_on_c, 0, 30, 75
1, 8025, Note_off_c, 0, 68, 64
1, 8025, Note_off_c, 0, 75, 64
1, 8025, Note_on_c, 0, 83, 35
1, 8025, Note_off_c, 0, 84, 64
1, 8025, Note_on_c, 0, 85, 9
1, 8026, Note_off_c, 0, 30, 64
1, 8026, Note_on_c, 0, 31, 72
1, 8026, Note_on_c, 0, 86, 31
1, 8027, Note_off_c, 0, 31, 64
1, 8027, Note_on_c, 0, 35, 68
1, 8027, Note_off_c, 0, 61, 64
1, 8027, Note_on_c, 0, 77, 37
1, 8027, Note_on_c, 0, 78, 37
1, 8027, Note_on_c, 0, 81, 41
1, 8028, Note_on_c, 0, 75, 40
1, 8028, Note_off_c, 0, 85, 64
1, 8028, Note_on_c, 0, 94, 27
1, 8028, Note_on_c, 0, 97, 16
1, 8029, Note_on_c, 0, 67, 47
1, 8029, Note_on_c, 0, 72, 31
1, 8029, Note_on_c, 0, 85, 13
1, 8030, Note_off_c, 0, 35, 64
1, 8030, Note_on_c, 0, 50, 80
1, 8030, Note_on_c, 0, 88, 27
1, 8031, Note_on_c, 0, 45, 92
1, 8031, Note_off_c, 0, 50, 64
1, 8031, Note_off_c, 0, 75, 64
1, 8031, Note_off_c, 0, 86, 64
1, 8032, Note_on_c, 0, 43, 97
1, 8032, Note_off_c, 0, 45, 64
1, 8032, Note_on_c, 0, 66, 11
1, 8032, Note_off_c, 0, 67, 64
1, 8032, Note_off_c, 0, 72, 64
1, 8032, Note_off_c, 0, 78, 64
1, 8032, Note_off_c, 0, 97, 64
1, 8033, Note_on_c, 0, 41, 100
1, 8033, Note_off_c, 0, 43, 64
1, 8033, Note_off_c, 0, 81, 64
1, 8033, Note_on_c, 0, 92, 19
1, 8034, Note_on_c, 0, 39, 97
1, 8034, Note_off_c, 0, 41, 64
1, 8034, Note_off_c, 0, 77, 64
1, 8034, Note_off_c, 0, 83, 64
1, 8035, Note_on_c, 0, 37, 98
1, 8035, Note_off_c, 0, 39, 64
1, 8035, Note_off_c, 0, 94, 64
1, 8036, Note_on_c, 0, 36, 97
1, 8036, Note_off_c, 0, 37, 64
1, 8037, Note_on_c, 0, 34, 96
1, 8037, Note_off_c, 0, 36, 64
1, 8037, Note_off_c, 0, 66, 64
1, 8037, Note_on_c, 0, 80, 16
1, 8037, Note_on_c, 0, 82, 25
1, 8037, Note_on_c, 0, 84, 21
1, 8037, Note_off_c, 0, 85, 64
1, 8037, Note_on_c, 0, 87, 28
1, 8037, Note_on_c, 0, 93, 20
1, 8038, Note_on_c, 0, 55, 25
1, 8038, Note_off_c, 0, 88, 64
1, 8038, Note_on_c, 0, 89, 13
1, 8039, Note_on_c, 0, 33, 95
1, 8039, Note_off_c, 0, 34, 64
1, 8040, Note_on_c, 0, 32, 96
1, 8040, Note_off_c, 0, 33, 64
1, 8040, Note_off_c, 0, 80, 64
1, 8040, Note_off_c, 0, 82, 64
1, 8040, Note_off_c, 0, 84, 64
1, 8040, Note_off_c, 0, 93, 64
1, 8041, Note_on_c, 0, 48, 29
1, 8041, Note_off_c, 0, 55, 64
1, 8041, Note_on_c, 0, 60, 30
1, 8041, Note_on_c, 0, 83, 11
1, 8041, Note_off_c, 0, 87, 64
1, 8041, Note_off_c, 0, 92, 64
1, 8042, Note_on_c, 0, 31, 92
1, 8042, Note_off_c, 0, 32, 64
1, 8043, Note_off_c, 0, 48, 64
1, 8043, Note_off_c, 0, 60, 64
1, 8043, Note_off_c, 0, 89, 64
1, 8044, Note_on_c, 0, 30, 79
1, 8044, Note_off_c, 0, 31, 64
1, 8044, Note_on_c, 0, 66, 16
1, 8044, Note_off_c, 0, 83, 64
1, 8045, Note_on_c, 0, 88, 22
1, 8046, Note_off_c, 0, 30, 64
1, 8046, Note_on_c, 0, 68, 25
1, 8046, Note_on_c, 0, 90, 16
1, 8047, Note_off_c, 0, 66, 64
1, 8047, Note_on_c, 0, 82, 17
1, 8047, Note_on_c, 0, 84, 19
1, 8047, Note_on_c, 0, 92, 12
1, 8048, Note_on_c, 0, 35, 68
1, 8048, Note_on_c, 0, 61, 35
1, 8048, Note_on_c, 0, 79, 25
1, 8048, Note_on_c, 0, 87, 23
1, 8049, Note_on_c, 0, 31, 76
1, 8049, Note_off_c, 0, 35, 64
1, 8049, Note_on_c, 0, 49, 59
1, 8049, Note_on_c, 0, 63, 23
1, 8049, Note_on_c, 0, 70, 19
1, 8049, Note_off_c, 0, 90, 64
1, 8049, Note_on_c, 0, 93, 12
1, 8050, Note_on_c, 0, 30, 80
1, 8050, Note_off_c, 0, 31, 64
1, 8050, Note_on_c, 0, 66, 24
1, 8050, Note_on_c, 0, 81, 23
1, 8051, Note_on_c, 0, 29, 80
1, 8051, Note_off_c, 0, 30, 64
1, 8051, Note_off_c, 0, 68, 64
1, 8051, Note_off_c, 0, 79, 64
1, 8051, Note_off_c, 0, 82, 64
1, 8051, Note_on_c, 0, 83, 34
1, 8051, Note_on_c, 0, 86, 26
1, 8051, Note_on_c, 0, 89, 14
1, 8052, Note_off_c, 0, 49, 64
1, 8052, Note_off_c, 0, 63, 64
1, 8052, Note_on_c, 0, 78, 30
1, 8052, Note_off_c, 0, 84, 64
1, 8052, Note_off_c, 0, 92, 64
1, 8053, Note_off_c, 0, 29, 64
1, 8053, Note_on_c, 0, 30, 75
1, 8053, Note_on_c, 0, 49, 48
1, 8053, Note_off_c, 0, 70, 64
1, 8053, Note_on_c, 0, 72, 16
1, 8053, Note_off_c, 0, 87, 64
1, 8053, Note_on_c, 0, 92, 30
1, 8053, Note_off_c, 0, 93, 64
1, 8054, Note_on_c, 0, 29, 75
1, 8054, Note_off_c, 0, 30, 64
1, 8054, Note_off_c, 0, 66, 64
1, 8054, Note_on_c, 0, 85, 29
1, 8055, Note_off_c, 0, 49, 64
1, 8055, Note_on_c, 0, 57, 30
1, 8055, Note_off_c, 0, 61, 64
1, 8055, Note_off_c, 0, 81, 64
1, 8055, Note_on_c, 0, 87, 39
1, 8055, Note_off_c, 0, 89, 64
1, 8056, Note_on_c, 0, 62, 37
1, 8056, Note_on_c, 0, 70, 34
1, 8056, Note_off_c, 0, 72, 64
1, 8056, Note_on_c, 0, 89, 27
1, 8056, Note_on_c, 0, 91, 25
1, 8057, Note_off_c, 0, 29, 64
1, 8057, Note_on_c, 0, 30, 76
1, 8057, Note_off_c, 0, 57, 64
1, 8057, Note_on_c, 0, 80, 24
1, 8057, Note_off_c, 0, 86, 64
1, 8058, Note_off_c, 0, 62, 64
1, 8059, Note_on_c, 0, 64, 31
1, 8059, Note_off_c, 0, 70, 64
1, 8059, Note_off_c, 0, 89, 64
1, 8060, Note_on_c, 0, 29, 77
1, 8060, Note_off_c, 0, 30, 64
1, 8060, Note_off_c, 0, 80, 64
1, 8060, Note_on_c, 0, 89, 42
1, 8061, Note_on_c, 0, 58, 29
1, 8061, Note_on_c, 0, 73, 25
1, 8061, Note_on_c, 0, 80, 21
1, 8061, Note_off_c, 0, 83, 64
1, 8061, Note_off_c, 0, 88, 64
1, 8061, Note_off_c, 0, 91, 64
1, 8062, Note_off_c, 0, 29, 64
1, 8062, Note_on_c, 0, 30, 75
1, 8062, Note_off_c, 0, 78, 64
1, 8063, Note_off_c, 0, 58, 64
1, 8063, Note_on_c, 0, 63, 47
1, 8063, Note_off_c, 0, 64, 64
1, 8063, Note_on_c, 0, 77, 11
1, 8063, Note_on_c, 0, 91, 35
1, 8063, Note_off_c, 0, 92, 64
1, 8064, Note_off_c, 0, 30, 64
1, 8064, Note_on_c, 0, 34, 72
1, 8064, Note_off_c, 0, 73, 64
1, 8064, Note_off_c, 0, 80, 64
1, 8065, Note_off_c, 0, 34, 64
1, 8065, Note_on_c, 0, 71, 37
1, 8065, Note_on_c, 0, 74, 47
1, 8065, Note_on_c, 0, 78, 51
1, 8065, Note_on_c, 0, 81, 48
1, 8065, Note_on_c, 0, 94, 38
1, 8065, Note_on_c, 0, 95, 31
1, 8065, Note_on_c, 0, 96, 29
1, 8065, Note_on_c, 0, 98, 25
1, 8066, Note_on_c, 0, 67, 46
1, 8066, Note_off_c, 0, 77, 64
1, 8066, Note_on_c, 0, 83, 52
1, 8066, Note_off_c, 0, 85, 64
1, 8066, Note_on_c, 0, 86, 51
1, 8066, Note_on_c, 0, 92, 30
1, 8067, Note_on_c, 0, 51, 73
1, 8067, Note_off_c, 0, 63, 64
1, 8067, Note_on_c, 0, 82, 47
1, 8067, Note_on_c, 0, 88, 32
1, 8068, Note_on_c, 0, 48, 85
1, 8068, Note_off_c, 0, 51, 64
1, 8068, Note_off_c, 0, 78, 64
1, 8068, Note_on_c, 0, 79, 56
1, 8068, Note_off_c, 0, 98, 64
1, 8069, Note_on_c, 0, 45, 94
1, 8069, Note_off_c, 0, 48, 64
1, 8069, Note_off_c, 0, 67, 64
1, 8069, Note_off_c, 0, 71, 64
1, 8069, Note_on_c, 0, 73, 44
1, 8069, Note_off_c, 0, 74, 64
1, 8069, Note_off_c, 0, 81, 64
1, 8069, Note_on_c, 0, 84, 33
1, 8069, Note_on_c, 0, 90, 26
1, 8070, Note_on_c, 0, 42, 99
1, 8070, Note_off_c, 0, 45, 64
1, 8070, Note_on_c, 0, 76, 40
1, 8070, Note_on_c, 0, 80, 48
1, 8070, Note_off_c, 0, 82, 64
1, 8070, Note_off_c, 0, 95, 64
1, 8071, Note_on_c, 0, 40, 96
1, 8071, Note_off_c, 0, 42, 64
1, 8071, Note_off_c, 0, 86, 64
1, 8071, Note_off_c, 0, 88, 64
1, 8071, Note_off_c, 0, 91, 64
1, 8072, Note_on_c, 0, 38, 97
1, 8072, Note_off_c, 0, 40, 64
1, 8072, Note_on_c, 0, 72, 32
1, 8072, Note_on_c, 0, 75, 29
1, 8072, Note_off_c, 0, 94, 64
1, 8073, Note_on_c, 0, 36, 97
1, 8073, Note_off_c, 0, 38, 64
1, 8073, Note_off_c, 0, 76, 64
1, 8073, Note_on_c, 0, 77, 42
1, 8073, Note_off_c, 0, 80, 64
1, 8073, Note_on_c, 0, 88, 18
1, 8073, Note_off_c, 0, 96, 64
1, 8074, Note_on_c, 0, 35, 96
1, 8074, Note_off_c, 0, 36, 64
1, 8074, Note_off_c, 0, 83, 64
1, 8074, Note_on_c, 0, 86, 21
1, 8074, Note_off_c, 0, 89, 64
1, 8075, Note_on_c, 0, 34, 95
1, 8075, Note_off_c, 0, 35, 64
1, 8075, Note_off_c, 0, 72, 64
1, 8075, Note_on_c, 0, 82, 30
1, 8076, Note_on_c, 0, 33, 95
1, 8076, Note_off_c, 0, 34, 64
1, 8076, Note_on_c, 0, 66, 14
1, 8076, Note_off_c, 0, 79, 64
1, 8076, Note_on_c, 0, 83, 16
1, 8076, Note_off_c, 0, 84, 64
1, 8077, Note_on_c, 0, 32, 95
1, 8077, Note_off_c, 0, 33, 64
1, 8077, Note_off_c, 0, 73, 64
1, 8077, Note_off_c, 0, 86, 64
1, 8077, Note_off_c, 0, 88, 64
1, 8077, Note_off_c, 0, 90, 64
1, 8078, Note_off_c, 0, 82, 64
1, 8078, Note_on_c, 0, 88, 16
1, 8079, Note_on_c, 0, 31, 94
1, 8079, Note_off_c, 0, 32, 64
1, 8079, Note_off_c, 0, 77, 64
1, 8079, Note_off_c, 0, 83, 64
1, 8080, Note_off_c, 0, 66, 64
1, 8080, Note_on_c, 0, 70, 13
1, 8080, Note_on_c, 0, 80, 26
1, 8081, Note_on_c, 0, 30, 84
1, 8081, Note_off_c, 0, 31, 64
1, 8081, Note_on_c, 0, 83, 18
1, 8081, Note_off_c, 0, 88, 64
1, 8081, Note_off_c, 0, 92, 64
1, 8082, Note_off_c, 0, 87, 64
1, 8083, Note_off_c, 0, 75, 64
1, 8083, Note_on_c, 0, 82, 47
1, 8084, Note_off_c, 0, 30, 64
1, 8084, Note_on_c, 0, 62, 31
1, 8084, Note_on_c, 0, 81, 39
1, 8084, Note_off_c, 0, 83, 64
1, 8084, Note_on_c, 0, 85, 55
1, 8084, Note_on_c, 0, 89, 30
1, 8084, Note_on_c, 0, 90, 35
1, 8084, Note_on_c, 0, 95, 24
1, 8085, Note_on_c, 0, 37, 68
1, 8085, Note_off_c, 0, 70, 64
1, 8085, Note_on_c, 0, 78, 39
1, 8085, Note_off_c, 0, 80, 64
1, 8085, Note_on_c, 0, 92, 27
1, 8086, Note_on_c, 0, 31, 72
1, 8086, Note_off_c, 0, 37, 64
1, 8086, Note_on_c, 0, 58, 29
1, 8086, Note_off_c, 0, 62, 64
1, 8086, Note_on_c, 0, 69, 33
1, 8086, Note_on_c, 0, 75, 43
1, 8086, Note_on_c, 0, 77, 38
1, 8086, Note_on_c, 0, 80, 43
1, 8086, Note_on_c, 0, 91, 25
1, 8087, Note_on_c, 0, 30, 78
1, 8087, Note_off_c, 0, 31, 64
1, 8087, Note_off_c, 0, 81, 64
1, 8087, Note_on_c, 0, 88, 29
1, 8088, Note_on_c, 0, 29, 79
1, 8088, Note_off_c, 0, 30, 64
1, 8088, Note_on_c, 0, 63, 22
1, 8088, Note_on_c, 0, 68, 34
1, 8088, Note_on_c, 0, 96, 20
1, 8089, Note_off_c, 0, 58, 64
1, 8089, Note_off_c, 0, 69, 64
1, 8089, Note_on_c, 0, 74, 35
1, 8089, Note_off_c, 0, 78, 64
1, 8089, Note_off_c, 0, 80, 64
1, 8089, Note_on_c, 0, 83, 40
1, 8089, Note_on_c, 0, 84, 31
1, 8089, Note_off_c, 0, 91, 64
1, 8089, Note_off_c, 0, 95, 64
1, 8090, Note_off_c, 0, 29, 64
1, 8090, Note_on_c, 0, 30, 75
1, 8090, Note_on_c, 0, 78, 48
1, 8090, Note_on_c, 0, 80, 41
1, 8090, Note_off_c, 0, 88, 64
1, 8091, Note_off_c, 0, 68, 64
1, 8091, Note_on_c, 0, 70, 27
1, 8091, Note_off_c, 0, 74, 64
1, 8091, Note_off_c, 0, 75, 64
1, 8091, Note_on_c, 0, 76, 32
1, 8091, Note_off_c, 0, 77, 64
1, 8091, Note_off_c, 0, 82, 64
1, 8091, Note_on_c, 0, 91, 29
1, 8091, Note_off_c, 0, 96, 64
1, 8092, Note_on_c, 0, 29, 73
1, 8092, Note_off_c, 0, 30, 64
1, 8092, Note_on_c, 0, 67, 18
1, 8092, Note_on_c, 0, 93, 15
1, 8093, Note_off_c, 0, 63, 64
1, 8093, Note_on_c, 0, 75, 34
1, 8093, Note_off_c, 0, 76, 64
1, 8093, Note_on_c, 0, 87, 37
1, 8094, Note_off_c, 0, 70, 64
1, 8094, Note_on_c, 0, 71, 31
1, 8094, Note_off_c, 0, 84, 64
1, 8094, Note_off_c, 0, 90, 64
1, 8094, Note_on_c, 0, 94, 23
1, 8095, Note_off_c, 0, 29, 64
1, 8095, Note_on_c, 0, 30, 73
1, 8095, Note_on_c, 0, 54, 49
1, 8095, Note_on_c, 0, 64, 33
1, 8095, Note_off_c, 0, 67, 64
1, 8095, Note_on_c, 0, 70, 29
1, 8095, Note_on_c, 0, 74, 38
1, 8095, Note_off_c, 0, 78, 64
1, 8095, Note_on_c, 0, 79, 31
1, 8095, Note_on_c, 0, 81, 30
1, 8095, Note_off_c, 0, 87, 64
1, 8095, Note_on_c, 0, 88, 30
1, 8096, Note_off_c, 0, 30, 64
1, 8096, Note_on_c, 0, 31, 77
1, 8096, Note_on_c, 0, 49, 60
1, 8096, Note_off_c, 0, 71, 64
1, 8096, Note_off_c, 0, 75, 64
1, 8096, Note_on_c, 0, 87, 31
1, 8096, Note_off_c, 0, 93, 64
1, 8097, Note_on_c, 0, 30, 79
1, 8097, Note_off_c, 0, 31, 64
1, 8097, Note_off_c, 0, 54, 64
1, 8097, Note_off_c, 0, 81, 64
1, 8097, Note_off_c, 0, 94, 64
1, 8098, Note_on_c, 0, 29, 79
1, 8098, Note_off_c, 0, 30, 64
1, 8098, Note_off_c, 0, 89, 64
1, 8098, Note_off_c, 0, 92, 64
1, 8099, Note_off_c, 0, 29, 64
1, 8099, Note_on_c, 0, 30, 77
1, 8099, Note_off_c, 0, 49, 64
1, 8099, Note_on_c, 0, 63, 20
1, 8099, Note_off_c, 0, 64, 64
1, 8099, Note_on_c, 0, 77, 30
1, 8099, Note_on_c, 0, 81, 40
1, 8100, Note_off_c, 0, 70, 64
1, 8100, Note_off_c, 0, 85, 64
1, 8100, Note_off_c, 0, 88, 64
1, 8101, Note_off_c, 0, 30, 64
1, 8101, Note_on_c, 0, 32, 72
1, 8101, Note_on_c, 0, 54, 36
1, 8101, Note_off_c, 0, 74, 64
1, 8101, Note_on_c, 0, 76, 39
1, 8102, Note_off_c, 0, 32, 64
1, 8102, Note_on_c, 0, 35, 67
1, 8102, Note_off_c, 0, 63, 64
1, 8102, Note_on_c, 0, 74, 42
1, 8102, Note_off_c, 0, 80, 64
1, 8102, Note_on_c, 0, 85, 35
1, 8102, Note_on_c, 0, 92, 31
1, 8102, Note_on_c, 0, 98, 23
1, 8103, Note_off_c, 0, 35, 64
1, 8103, Note_on_c, 0, 53, 67
1, 8103, Note_off_c, 0, 54, 64
1, 8103, Note_on_c, 0, 78, 33
1, 8103, Note_off_c, 0, 79, 64
1, 8103, Note_on_c, 0, 94, 20
1, 8104, Note_on_c, 0, 67, 44
1, 8104, Note_off_c, 0, 74, 64
1, 8104, Note_on_c, 0, 75, 38
1, 8104, Note_off_c, 0, 76, 64
1, 8104, Note_off_c, 0, 77, 64
1, 8104, Note_on_c, 0, 80, 34
1, 8105, Note_on_c, 0, 49, 80
1, 8105, Note_off_c, 0, 53, 64
1, 8105, Note_off_c, 0, 85, 64
1, 8105, Note_off_c, 0, 91, 64
1, 8105, Note_off_c, 0, 92, 64
1, 8105, Note_off_c, 0, 98, 64
1, 8106, Note_on_c, 0, 45, 92
1, 8106, Note_off_c, 0, 49, 64
1, 8106, Note_off_c, 0, 67, 64
1, 8106, Note_off_c, 0, 80, 64
1, 8106, Note_off_c, 0, 81, 64
1, 8107, Note_on_c, 0, 42, 97
1, 8107, Note_off_c, 0, 45, 64
1, 8107, Note_off_c, 0, 78, 64
1, 8107, Note_off_c, 0, 83, 64
1, 8107, Note_on_c, 0, 86, 13
1, 8107, Note_off_c, 0, 87, 64
1, 8107, Note_off_c, 0, 94, 64
1, 8108, Note_on_c, 0, 41, 99
1, 8108, Note_off_c, 0, 42, 64
1, 8108, Note_off_c, 0, 75, 64
1, 8109, Note_on_c, 0, 38, 97
1, 8109, Note_off_c, 0, 41, 64
1, 8109, Note_on_c, 0, 85, 14
1, 8110, Note_on_c, 0, 37, 97
1, 8110, Note_off_c, 0, 38, 64
1, 8110, Note_off_c, 0, 86, 64
1, 8111, Note_on_c, 0, 36, 96
1, 8111, Note_off_c, 0, 37, 64
1, 8112, Note_on_c, 0, 34, 95
1, 8112, Note_off_c, 0, 36, 64
1, 8112, Note_on_c, 0, 79, 16
1, 8112, Note_on_c, 0, 80, 37
1, 8112, Note_on_c, 0, 86, 26
1, 8113, Note_on_c, 0, 84, 34
1, 8113, Note_off_c, 0, 85, 64
1, 8113, Note_on_c, 0, 90, 28
1, 8114, Note_on_c, 0, 33, 95
1, 8114, Note_off_c, 0, 34, 64
1, 8114, Note_on_c, 0, 73, 12
1, 8115, Note_on_c, 0, 32, 96
1, 8115, Note_off_c, 0, 33, 64
1, 8115, Note_on_c, 0, 85, 38
1, 8115, Note_off_c, 0, 86, 64
1, 8115, Note_on_c, 0, 87, 19
1, 8116, Note_on_c, 0, 31, 94
1, 8116, Note_off_c, 0, 32, 64
1, 8116, Note_on_c, 0, 75, 13
1, 8116, Note_on_c, 0, 83, 18
1, 8116, Note_on_c, 0, 89, 12
1, 8117, Note_on_c, 0, 78, 22
1, 8117, Note_off_c, 0, 79, 64
1, 8118, Note_on_c, 0, 81, 16
1, 8118, Note_off_c, 0, 84, 64
1, 8119, Note_on_c, 0, 30, 78
1, 8119, Note_off_c, 0, 31, 64
1, 8119, Note_off_c, 0, 80, 64
1, 8119, Note_off_c, 0, 87, 64
1, 8119, Note_off_c, 0, 90, 64
1, 8119, Note_on_c, 0, 91, 15
1, 8120, Note_off_c, 0, 73, 64
1, 8120, Note_off_c, 0, 89, 64
1, 8121, Note_off_c, 0, 30, 64
1, 8121, Note_off_c, 0, 75, 64
1, 8121, Note_on_c, 0, 79, 24
1, 8121, Note_off_c, 0, 81, 64
1, 8121, Note_off_c, 0, 83, 64
1, 8121, Note_on_c, 0, 84, 27
1, 8121, Note_on_c, 0, 88, 25
1, 8122, Note_on_c, 0, 76, 25
1, 8122, Note_off_c, 0, 78, 64
1, 8122, Note_on_c, 0, 80, 26
1, 8123, Note_on_c, 0, 36, 69
1, 8123, Note_on_c, 0, 64, 36
1, 8123, Note_on_c, 0, 68, 17
1, 8123, Note_on_c, 0, 83, 21
1, 8123, Note_on_c, 0, 87, 29
1, 8123, Note_on_c, 0, 89, 16
1, 8124, Note_on_c, 0, 31, 77
1, 8124, Note_off_c, 0, 36, 64
1, 8124, Note_on_c, 0, 49, 58
1, 8125, Note_on_c, 0, 29, 80
1, 8125, Note_off_c, 0, 31, 64
1, 8125, Note_on_c, 0, 86, 24
1, 8125, Note_off_c, 0, 88, 64
1, 8125, Note_off_c, 0, 91, 64
1, 8126, Note_on_c, 0, 63, 23
1, 8126, Note_off_c, 0, 64, 64
1, 8126, Note_off_c, 0, 76, 64
1, 8126, Note_on_c, 0, 81, 22
1, 8126, Note_off_c, 0, 83, 64
1, 8127, Note_off_c, 0, 29, 64
1, 8127, Note_on_c, 0, 30, 74
1, 8127, Note_off_c, 0, 49, 64
1, 8127, Note_off_c, 0, 68, 64
1, 8127, Note_on_c, 0, 76, 15
1, 8127, Note_off_c, 0, 85, 64
1, 8127, Note_off_c, 0, 87, 64
1, 8127, Note_on_c, 0, 88, 18
1, 8128, Note_off_c, 0, 89, 64
1, 8128, Note_on_c, 0, 90, 22
1, 8129, Note_on_c, 0, 29, 73
1, 8129, Note_off_c, 0, 30, 64
1, 8129, Note_off_c, 0, 63, 64
1, 8129, Note_on_c, 0, 77, 11
1, 8129, Note_off_c, 0, 79, 64
1, 8129, Note_off_c, 0, 81, 64
1, 8129, Note_on_c, 0, 83, 20
1, 8129, Note_off_c, 0, 84, 64
1, 8130, Note_off_c, 0, 76, 64
1, 8130, Note_off_c, 0, 80, 64
1, 8131, Note_on_c, 0, 42, 66
1, 8131, Note_on_c, 0, 79, 25
1, 8131, Note_on_c, 0, 82, 23
1, 8132, Note_off_c, 0, 29, 64
1, 8132, Note_on_c, 0, 30, 72
1, 8132, Note_on_c, 0, 71, 15
1, 8132, Note_off_c, 0, 77, 64
1, 8133, Note_off_c, 0, 30, 64
1, 8133, Note_on_c, 0, 31, 76
1, 8133, Note_off_c, 0, 42, 64
1, 8133, Note_on_c, 0, 64, 34
1, 8134, Note_on_c, 0, 30, 79
1, 8134, Note_off_c, 0, 31, 64
1, 8134, Note_off_c, 0, 86, 64
1, 8135, Note_on_c, 0, 29, 80
1, 8135, Note_off_c, 0, 30, 64
1, 8135, Note_on_c, 0, 61, 22
1, 8135, Note_on_c, 0, 63, 30
1, 8135, Note_off_c, 0, 64, 64
1, 8135, Note_on_c, 0, 81, 18
1, 8135, Note_off_c, 0, 82, 64
1, 8135, Note_on_c, 0, 87, 22
1, 8135, Note_off_c, 0, 88, 64
1, 8135, Note_on_c, 0, 89, 28
1, 8135, Note_off_c, 0, 90, 64
1, 8136, Note_on_c, 0, 49, 58
1, 8136, Note_off_c, 0, 71, 64
1, 8136, Note_off_c, 0, 79, 64
1, 8136, Note_off_c, 0, 83, 64
1, 8137, Note_off_c, 0, 29, 64
1, 8137, Note_on_c, 0, 30, 76
1, 8138, Note_off_c, 0, 49, 64
1, 8138, Note_off_c, 0, 61, 64
1, 8138, Note_on_c, 0, 92, 28
1, 8138, Note_on_c, 0, 93, 28
1, 8139, Note_off_c, 0, 30, 64
1, 8139, Note_on_c, 0, 34, 71
1, 8139, Note_off_c, 0, 63, 64
1, 8139, Note_off_c, 0, 81, 64
1, 8139, Note_on_c, 0, 88, 33
1, 8139, Note_on_c, 0, 90, 32
1, 8140, Note_off_c, 0, 34, 64
1, 8140, Note_on_c, 0, 64, 50
1, 8140, Note_on_c, 0, 78, 36
1, 8140, Note_on_c, 0, 82, 27
1, 8140, Note_on_c, 0, 84, 36
1, 8140, Note_on_c, 0, 86, 29
1, 8140, Note_off_c, 0, 87, 64
1, 8140, Note_on_c, 0, 91, 25
1, 8140, Note_on_c, 0, 95, 25
1, 8140, Note_on_c, 0, 97, 21
1, 8141, Note_on_c, 0, 21, 43
1, 8141, Note_on_c, 0, 72, 43
1, 8142, Note_on_c, 0, 51, 75
1, 8142, Note_off_c, 0, 64, 64
1, 8142, Note_on_c, 0, 70, 30
1, 8142, Note_off_c, 0, 78, 64
1, 8142, Note_on_c, 0, 80, 31
1, 8143, Note_off_c, 0, 21, 64
1, 8143, Note_on_c, 0, 48, 85
1, 8143, Note_off_c, 0, 51, 64
1, 8143, Note_off_c, 0, 72, 64
1, 8143, Note_off_c, 0, 82, 64
1, 8143, Note_off_c, 0, 89, 64
1, 8143, Note_off_c, 0, 95, 64
1, 8143, Note_off_c, 0, 97, 64
1, 8144, Note_on_c, 0, 44, 94
1, 8144, Note_off_c, 0, 48, 64
1, 8144, Note_off_c, 0, 70, 64
1, 8144, Note_on_c, 0, 82, 19
1, 8144, Note_off_c, 0, 84, 64
1, 8144, Note_on_c, 0, 85, 28
1, 8144, Note_off_c, 0, 86, 64
1, 8144, Note_on_c, 0, 87, 17
1, 8144, Note_off_c, 0, 92, 64
1, 8145, Note_on_c, 0, 41, 100
1, 8145, Note_off_c, 0, 44, 64
1, 8145, Note_off_c, 0, 80, 64
1, 8145, Note_off_c, 0, 90, 64
1, 8145, Note_off_c, 0, 91, 64
1, 8145, Note_on_c, 0, 92, 18
1, 8145, Note_off_c, 0, 93, 64
1, 8146, Note_on_c, 0, 40, 97
1, 8146, Note_off_c, 0, 41, 64
1, 8146, Note_on_c, 0, 78, 21
1, 8146, Note_off_c, 0, 88, 64
1, 8147, Note_on_c, 0, 38, 98
1, 8147, Note_off_c, 0, 40, 64
1, 8147, Note_off_c, 0, 82, 64
1, 8148, Note_on_c, 0, 36, 98
1, 8148, Note_off_c, 0, 38, 64
1, 8148, Note_off_c, 0, 87, 64
1, 8149, Note_on_c, 0, 35, 96
1, 8149, Note_off_c, 0, 36, 64
1, 8149, Note_on_c, 0, 80, 27
1, 8150, Note_on_c, 0, 34, 95
1, 8150, Note_off_c, 0, 35, 64
1, 8150, Note_on_c, 0, 83, 31
1, 8150, Note_on_c, 0, 87, 21
1, 8150, Note_on_c, 0, 89, 16
1, 8151, Note_on_c, 0, 33, 95
1, 8151, Note_off_c, 0, 34, 64
1, 8151, Note_on_c, 0, 82, 19
1, 8152, Note_on_c, 0, 32, 96
1, 8152, Note_off_c, 0, 33, 64
1, 8153, Note_on_c, 0, 48, 27
1, 8153, Note_off_c, 0, 80, 64
1, 8153, Note_off_c, 0, 89, 64
1, 8153, Note_off_c, 0, 92, 64
1, 8154, Note_on_c, 0, 31, 94
1, 8154, Note_off_c, 0, 32, 64
1, 8154, Note_on_c, 0, 80, 23
1, 8154, Note_on_c, 0, 81, 16
1, 8154, Note_off_c, 0, 82, 64
1, 8154, Note_on_c, 0, 84, 13
1, 8154, Note_off_c, 0, 87, 64
1, 8155, Note_off_c, 0, 85, 64
1, 8156, Note_on_c, 0, 30, 83
1, 8156, Note_off_c, 0, 31, 64
1, 8156, Note_off_c, 0, 48, 64
1, 8156, Note_off_c, 0, 83, 64
1, 8157, Note_off_c, 0, 78, 64
1, 8157, Note_off_c, 0, 80, 64
1, 8158, Note_off_c, 0, 81, 64
1, 8158, Note_off_c, 0, 84, 64
1, 8158, Note_on_c, 0, 87, 15
1, 8159, Note_off_c, 0, 30, 64
1, 8159, Note_on_c, 0, 83, 18
1, 8160, Note_on_c, 0, 37, 65
1, 8160, Note_on_c, 0, 64, 29
1, 8160, Note_on_c, 0, 74, 14
1, 8160, Note_on_c, 0, 78, 17
1, 8160, Note_on_c, 0, 86, 15
1, 8160, Note_on_c, 0, 89, 19
1, 8161, Note_on_c, 0, 31, 71
1, 8161, Note_off_c, 0, 37, 64
1, 8161, Note_on_c, 0, 68, 22
1, 8161, Note_on_c, 0, 79, 13
1, 8162, Note_on_c, 0, 30, 79
1, 8162, Note_off_c, 0, 31, 64
1, 8162, Note_off_c, 0, 64, 64
1, 8162, Note_off_c, 0, 83, 64
1, 8163, Note_on_c, 0, 29, 80
1, 8163, Note_off_c, 0, 30, 64
1, 8163, Note_on_c, 0, 49, 59
1, 8163, Note_off_c, 0, 74, 64
1, 8163, Note_on_c, 0, 85, 13
1, 8163, Note_off_c, 0, 89, 64
1, 8163, Note_on_c, 0, 90, 19
1, 8163, Note_on_c, 0, 92, 28
1, 8164, Note_off_c, 0, 68, 64
1, 8164, Note_off_c, 0, 79, 64
1, 8164, Note_on_c, 0, 81, 12
1, 8164, Note_off_c, 0, 87, 64
1, 8164, Note_on_c, 0, 88, 16
1, 8165, Note_off_c, 0, 29, 64
1, 8165, Note_on_c, 0, 30, 76
1, 8165, Note_on_c, 0, 63, 20
1, 8165, Note_off_c, 0, 78, 64
1, 8167, Note_on_c, 0, 29, 74
1, 8167, Note_off_c, 0, 30, 64
1, 8167, Note_off_c, 0, 49, 64
1, 8167, Note_off_c, 0, 81, 64
1, 8167, Note_off_c, 0, 86, 64
1, 8167, Note_on_c, 0, 94, 13
1, 8168, Note_off_c, 0, 63, 64
1, 8168, Note_on_c, 0, 82, 11
1, 8168, Note_on_c, 0, 83, 11
1, 8168, Note_off_c, 0, 85, 64
1, 8168, Note_on_c, 0, 87, 34
1, 8168, Note_on_c, 0, 89, 30
1, 8169, Note_on_c, 0, 61, 32
1, 8169, Note_on_c, 0, 71, 18
1, 8169, Note_on_c, 0, 80, 21
1, 8169, Note_on_c, 0, 84, 29
1, 8169, Note_on_c, 0, 86, 24
1, 8169, Note_off_c, 0, 90, 64
1, 8169, Note_on_c, 0, 93, 14
1, 8170, Note_off_c, 0, 29, 64
1, 8170, Note_on_c, 0, 30, 80
1, 8170, Note_on_c, 0, 54, 54
1, 8170, Note_on_c, 0, 63, 30
1, 8170, Note_on_c, 0, 78, 11
1, 8170, Note_on_c, 0, 90, 31
1, 8170, Note_on_c, 0, 91, 25
1, 8171, Note_off_c, 0, 61, 64
1, 8171, Note_on_c, 0, 70, 15
1, 8171, Note_off_c, 0, 83, 64
1, 8171, Note_on_c, 0, 85, 38
1, 8171, Note_off_c, 0, 88, 64
1, 8171, Note_off_c, 0, 92, 64
1, 8171, Note_off_c, 0, 94, 64
1, 8172, Note_off_c, 0, 63, 64
1, 8172, Note_off_c, 0, 71, 64
1, 8172, Note_off_c, 0, 82, 64
1, 8172, Note_off_c, 0, 93, 64
1, 8173, Note_off_c, 0, 54, 64
1, 8173, Note_off_c, 0, 78, 64
1, 8173, Note_off_c, 0, 84, 64
1, 8173, Note_off_c, 0, 86, 64
1, 8173, Note_off_c, 0, 91, 64
1, 8173, Note_on_c, 0, 94, 14
1, 8174, Note_on_c, 0, 29, 76
1, 8174, Note_off_c, 0, 30, 64
1, 8174, Note_off_c, 0, 80, 64
1, 8174, Note_on_c, 0, 95, 21
1, 8175, Note_off_c, 0, 29, 64
1, 8175, Note_on_c, 0, 30, 75
1, 8175, Note_off_c, 0, 70, 64
1, 8175, Note_on_c, 0, 83, 25
1, 8175, Note_on_c, 0, 92, 24
1, 8176, Note_off_c, 0, 30, 64
1, 8176, Note_on_c, 0, 33, 72
1, 8176, Note_on_c, 0, 48, 51
1, 8176, Note_off_c, 0, 94, 64
1, 8177, Note_off_c, 0, 33, 64
1, 8177, Note_on_c, 0, 35, 66
1, 8177, Note_on_c, 0, 81, 37
1, 8177, Note_on_c, 0, 94, 26
1, 8178, Note_off_c, 0, 35, 64
1, 8178, Note_off_c, 0, 48, 64
1, 8178, Note_on_c, 0, 78, 30
1, 8179, Note_on_c, 0, 54, 68
1, 8179, Note_on_c, 0, 70, 39
1, 8180, Note_on_c, 0, 48, 82
1, 8180, Note_off_c, 0, 54, 64
1, 8180, Note_off_c, 0, 78, 64
1, 8180, Note_off_c, 0, 81, 64
1, 8180, Note_off_c, 0, 89, 64
1, 8180, Note_off_c, 0, 90, 64
1, 8180, Note_off_c, 0, 94, 64
1, 8180, Note_off_c, 0, 95, 64
1, 8181, Note_on_c, 0, 45, 93
1, 8181, Note_off_c, 0, 48, 64
1, 8181, Note_off_c, 0, 70, 64
1, 8181, Note_off_c, 0, 83, 64
1, 8181, Note_off_c, 0, 92, 64
1, 8182, Note_on_c, 0, 42, 98
1, 8182, Note_off_c, 0, 45, 64
1, 8182, Note_off_c, 0, 87, 64
1, 8182, Note_on_c, 0, 89, 9
1, 8183, Note_on_c, 0, 41, 98
1, 8183, Note_off_c, 0, 42, 64
1, 8184, Note_on_c, 0, 38, 97
1, 8184, Note_off_c, 0, 41, 64
1, 8184, Note_off_c, 0, 85, 64
1, 8185, Note_on_c, 0, 37, 98
1, 8185, Note_off_c, 0, 38, 64
1, 8185, Note_off_c, 0, 89, 64
1, 8186, Note_on_c, 0, 36, 97
1, 8186, Note_off_c, 0, 37, 64
1, 8187, Note_on_c, 0, 34, 96
1, 8187, Note_off_c, 0, 36, 64
1, 8187, Note_on_c, 0, 87, 10
1, 8188, Note_on_c, 0, 33, 96
1, 8188, Note_off_c, 0, 34, 64
1, 8190, Note_on_c, 0, 32, 96
1, 8190, Note_off_c, 0, 33, 64
1, 8190, Note_off_c, 0, 87, 64
1, 8191, Note_on_c, 0, 31, 95
1, 8191, Note_off_c, 0, 32, 64
1, 8191, Note_on_c, 0, 48, 15
1, 8194, Note_on_c, 0, 30, 78
1, 8194, Note_off_c, 0, 31, 64
1, 8194, Note_off_c, 0, 48, 64
1, 8196, Note_off_c, 0, 30, 64
1, 8197, Note_on_c, 0, 81, 26
1, 8197, Note_on_c, 0, 84, 37
1, 8197, Note_on_c, 0, 89, 16
1, 8197, Note_on_c, 0, 90, 15
1, 8198, Note_on_c, 0, 36, 71
1, 8198, Note_on_c, 0, 64, 30
1, 8198, Note_on_c, 0, 68, 20
1, 8198, Note_on_c, 0, 80, 22
1, 8198, Note_on_c, 0, 91, 17
1, 8199, Note_on_c, 0, 31, 79
1, 8199, Note_off_c, 0, 36, 64
1, 8199, Note_on_c, 0, 49, 60
1, 8199, Note_on_c, 0, 85, 27
1, 8200, Note_on_c, 0, 29, 81
1, 8200, Note_off_c, 0, 31, 64
1, 8200, Note_off_c, 0, 81, 64
1, 8200, Note_on_c, 0, 88, 21
1, 8200, Note_off_c, 0, 89, 64
1, 8200, Note_off_c, 0, 90, 64
1, 8200, Note_on_c, 0, 94, 14
1, 8201, Note_on_c, 0, 63, 24
1, 8201, Note_off_c, 0, 64, 64
1, 8201, Note_off_c, 0, 68, 64
1, 8201, Note_on_c, 0, 79, 11
1, 8202, Note_off_c, 0, 29, 64
1, 8202, Note_on_c, 0, 30, 76
1, 8202, Note_off_c, 0, 49, 64
1, 8202, Note_off_c, 0, 80, 64
1, 8203, Note_on_c, 0, 93, 21
1, 8203, Note_off_c, 0, 94, 64
1, 8204, Note_on_c, 0, 29, 74
1, 8204, Note_off_c, 0, 30, 64
1, 8204, Note_off_c, 0, 63, 64
1, 8204, Note_off_c, 0, 84, 64
1, 8204, Note_off_c, 0, 88, 64
1, 8204, Note_off_c, 0, 91, 64
1, 8205, Note_off_c, 0, 29, 64
1, 8205, Note_on_c, 0, 30, 71
1, 8205, Note_off_c, 0, 79, 64
1, 8205, Note_on_c, 0, 92, 22
1, 8205, Note_on_c, 0, 95, 14
1, 8206, Note_on_c, 0, 29, 71
1, 8206, Note_off_c, 0, 30, 64
1, 8206, Note_on_c, 0, 72, 19
1, 8206, Note_on_c, 0, 80, 30
1, 8206, Note_on_c, 0, 83, 32
1, 8206, Note_on_c, 0, 90, 18
1, 8206, Note_on_c, 0, 91, 17
1, 8206, Note_on_c, 0, 94, 12
1, 8206, Note_on_c, 0, 96, 12
1, 8207, Note_off_c, 0, 29, 64
1, 8207, Note_on_c, 0, 30, 79
1, 8207, Note_on_c, 0, 61, 36
1, 8207, Note_on_c, 0, 68, 16
1, 8207, Note_on_c, 0, 87, 19
1, 8208, Note_on_c, 0, 79, 16
1, 8208, Note_on_c, 0, 86, 25
1, 8209, Note_on_c, 0, 70, 15
1, 8209, Note_off_c, 0, 72, 64
1, 8209, Note_off_c, 0, 90, 64
1, 8209, Note_off_c, 0, 92, 64
1, 8209, Note_off_c, 0, 96, 64
1, 8210, Note_on_c, 0, 29, 80
1, 8210, Note_off_c, 0, 30, 64
1, 8210, Note_on_c, 0, 49, 57
1, 8210, Note_on_c, 0, 84, 11
1, 8210, Note_off_c, 0, 93, 64
1, 8210, Note_off_c, 0, 94, 64
1, 8211, Note_on_c, 0, 65, 27
1, 8211, Note_off_c, 0, 68, 64
1, 8211, Note_off_c, 0, 87, 64
1, 8211, Note_off_c, 0, 91, 64
1, 8211, Note_on_c, 0, 93, 28
1, 8211, Note_off_c, 0, 95, 64
1, 8212, Note_off_c, 0, 29, 64
1, 8212, Note_on_c, 0, 30, 76
1, 8212, Note_off_c, 0, 61, 64
1, 8212, Note_off_c, 0, 80, 64
1, 8212, Note_off_c, 0, 85, 64
1, 8213, Note_off_c, 0, 49, 64
1, 8213, Note_off_c, 0, 70, 64
1, 8213, Note_off_c, 0, 84, 64
1, 8214, Note_off_c, 0, 30, 64
1, 8214, Note_on_c, 0, 34, 71
1, 8214, Note_on_c, 0, 87, 29
1, 8214, Note_on_c, 0, 92, 28
1, 8215, Note_off_c, 0, 34, 64
1, 8215, Note_off_c, 0, 65, 64
1, 8215, Note_on_c, 0, 66, 47
1, 8215, Note_off_c, 0, 79, 64
1, 8215, Note_on_c, 0, 80, 35
1, 8215, Note_on_c, 0, 81, 36
1, 8215, Note_on_c, 0, 84, 32
1, 8215, Note_on_c, 0, 89, 24
1, 8216, Note_off_c, 0, 83, 64
1, 8217, Note_on_c, 0, 51, 76
1, 8217, Note_off_c, 0, 86, 64
1, 8217, Note_off_c, 0, 92, 64
1, 8217, Note_off_c, 0, 93, 64
1, 8218, Note_on_c, 0, 46, 87
1, 8218, Note_off_c, 0, 51, 64
1, 8218, Note_off_c, 0, 66, 64
1, 8218, Note_off_c, 0, 80, 64
1, 8218, Note_off_c, 0, 81, 64
1, 8218, Note_off_c, 0, 84, 64
1, 8218, Note_off_c, 0, 87, 64
1, 8218, Note_off_c, 0, 89, 64
1, 8219, Note_on_c, 0, 44, 95
1, 8219, Note_off_c, 0, 46, 64
1, 8220, Note_on_c, 0, 41, 100
1, 8220, Note_off_c, 0, 44, 64
1, 8221, Note_on_c, 0, 39, 97
1, 8221, Note_off_c, 0, 41, 64
1, 8222, Note_on_c, 0, 37, 98
1, 8222, Note_off_c, 0, 39, 64
1, 8223, Note_on_c, 0, 36, 97
1, 8223, Note_off_c, 0, 37, 64
1, 8224, Note_on_c, 0, 35, 96
1, 8224, Note_off_c, 0, 36, 64
1, 8224, Note_on_c, 0, 87, 20
1, 8225, Note_on_c, 0, 34, 95
1, 8225, Note_off_c, 0, 35, 64
1, 8225, Note_on_c, 0, 80, 19
1, 8225, Note_on_c, 0, 84, 21
1, 8225, Note_on_c, 0, 90, 17
1, 8226, Note_on_c, 0, 33, 95
1, 8226, Note_off_c, 0, 34, 64
1, 8227, Note_on_c, 0, 32, 96
1, 8227, Note_off_c, 0, 33, 64
1, 8227, Note_off_c, 0, 87, 64
1, 8228, Note_off_c, 0, 84, 64
1, 8229, Note_on_c, 0, 31, 93
1, 8229, Note_off_c, 0, 32, 64
1, 8229, Note_on_c, 0, 68, 14
1, 8229, Note_off_c, 0, 80, 64
1, 8229, Note_off_c, 0, 90, 64
1, 8231, Note_on_c, 0, 30, 82
1, 8231, Note_off_c, 0, 31, 64
1, 8231, Note_on_c, 0, 59, 27
1, 8233, Note_off_c, 0, 30, 64
1, 8234, Note_on_c, 0, 64, 35
1, 8234, Note_on_c, 0, 85, 27
1, 8235, Note_on_c, 0, 41, 69
1, 8235, Note_off_c, 0, 59, 64
1, 8235, Note_on_c, 0, 79, 21
1, 8235, Note_on_c, 0, 83, 25
1, 8235, Note_on_c, 0, 87, 20
1, 8235, Note_on_c, 0, 89, 16
1, 8236, Note_on_c, 0, 32, 71
1, 8236, Note_off_c, 0, 41, 64
1, 8236, Note_on_c, 0, 77, 12
1, 8237, Note_on_c, 0, 30, 78
1, 8237, Note_off_c, 0, 32, 64
1, 8237, Note_on_c, 0, 71, 26
1, 8238, Note_on_c, 0, 29, 79
1, 8238, Note_off_c, 0, 30, 64
1, 8238, Note_on_c, 0, 49, 56
1, 8238, Note_off_c, 0, 64, 64
1, 8238, Note_off_c, 0, 68, 64
1, 8238, Note_on_c, 0, 81, 13
1, 8238, Note_off_c, 0, 83, 64
1, 8238, Note_off_c, 0, 87, 64
1, 8239, Note_off_c, 0, 29, 64
1, 8239, Note_on_c, 0, 30, 77
1, 8240, Note_off_c, 0, 77, 64
1, 8241, Note_off_c, 0, 49, 64
1, 8241, Note_off_c, 0, 79, 64
1, 8241, Note_off_c, 0, 81, 64
1, 8241, Note_off_c, 0, 85, 64
1, 8242, Note_on_c, 0, 29, 73
1, 8242, Note_off_c, 0, 30, 64
1, 8242, Note_on_c, 0, 68, 30
1, 8242, Note_on_c, 0, 93, 11
1, 8243, Note_on_c, 0, 86, 17
1, 8243, Note_off_c, 0, 89, 64
1, 8244, Note_off_c, 0, 29, 64
1, 8244, Note_on_c, 0, 30, 78
1, 8244, Note_on_c, 0, 79, 14
1, 8245, Note_on_c, 0, 48, 60
1, 8245, Note_on_c, 0, 61, 29
1, 8245, Note_on_c, 0, 78, 13
1, 8245, Note_on_c, 0, 81, 12
1, 8245, Note_on_c, 0, 99, 17
1, 8246, Note_off_c, 0, 71, 64
1, 8246, Note_on_c, 0, 76, 20
1, 8246, Note_off_c, 0, 86, 64
1, 8246, Note_off_c, 0, 93, 64
1, 8247, Note_off_c, 0, 48, 64
1, 8247, Note_on_c, 0, 71, 33
1, 8247, Note_off_c, 0, 79, 64
1, 8248, Note_off_c, 0, 61, 64
1, 8248, Note_off_c, 0, 68, 64
1, 8248, Note_off_c, 0, 78, 64
1, 8248, Note_on_c, 0, 96, 22
1, 8248, Note_off_c, 0, 99, 64
1, 8249, Note_on_c, 0, 29, 76
1, 8249, Note_off_c, 0, 30, 64
1, 8249, Note_on_c, 0, 97, 21
1, 8250, Note_off_c, 0, 29, 64
1, 8250, Note_on_c, 0, 30, 74
1, 8250, Note_off_c, 0, 76, 64
1, 8250, Note_off_c, 0, 81, 64
1, 8251, Note_off_c, 0, 30, 64
1, 8251, Note_on_c, 0, 33, 72
1, 8252, Note_off_c, 0, 33, 64
1, 8252, Note_on_c, 0, 35, 65
1, 8252, Note_on_c, 0, 82, 26
1, 8252, Note_on_c, 0, 84, 30
1, 8252, Note_on_c, 0, 88, 32
1, 8252, Note_on_c, 0, 89, 26
1, 8252, Note_on_c, 0, 90, 32
1, 8252, Note_on_c, 0, 91, 29
1, 8252, Note_on_c, 0, 93, 29
1, 8252, Note_on_c, 0, 99, 18
1, 8253, Note_off_c, 0, 35, 64
1, 8253, Note_off_c, 0, 71, 64
1, 8253, Note_on_c, 0, 72, 42
1, 8253, Note_on_c, 0, 79, 35
1, 8253, Note_on_c, 0, 86, 20
1, 8254, Note_on_c, 0, 53, 69
1, 8254, Note_on_c, 0, 64, 51
1, 8254, Note_on_c, 0, 80, 25
1, 8254, Note_on_c, 0, 87, 16
1, 8255, Note_on_c, 0, 48, 83
1, 8255, Note_off_c, 0, 53, 64
1, 8255, Note_off_c, 0, 72, 64
1, 8255, Note_off_c, 0, 79, 64
1, 8255, Note_off_c, 0, 89, 64
1, 8255, Note_off_c, 0, 90, 64
1, 8255, Note_off_c, 0, 93, 64
1, 8255, Note_off_c, 0, 96, 64
1, 8255, Note_off_c, 0, 97, 64
1, 8255, Note_off_c, 0, 99, 64
1, 8256, Note_on_c, 0, 45, 93
1, 8256, Note_off_c, 0, 48, 64
1, 8256, Note_off_c, 0, 64, 64
1, 8256, Note_off_c, 0, 82, 64
1, 8256, Note_off_c, 0, 84, 64
1, 8256, Note_off_c, 0, 86, 64
1, 8257, Note_on_c, 0, 42, 98
1, 8257, Note_off_c, 0, 45, 64
1, 8257, Note_off_c, 0, 80, 64
1, 8258, Note_on_c, 0, 40, 99
1, 8258, Note_off_c, 0, 42, 64
1, 8258, Note_off_c, 0, 88, 64
1, 8259, Note_on_c, 0, 38, 98
1, 8259, Note_off_c, 0, 40, 64
1, 8259, Note_off_c, 0, 87, 64
1, 8259, Note_off_c, 0, 91, 64
1, 8260, Note_on_c, 0, 37, 98
1, 8260, Note_off_c, 0, 38, 64
1, 8260, Note_on_c, 0, 70, 17
1, 8260, Note_on_c, 0, 92, 9
1, 8261, Note_on_c, 0, 35, 96
1, 8261, Note_off_c, 0, 37, 64
1, 8262, Note_on_c, 0, 34, 95
1, 8262, Note_off_c, 0, 35, 64
1, 8262, Note_on_c, 0, 83, 22
1, 8263, Note_on_c, 0, 87, 11
1, 8264, Note_on_c, 0, 33, 94
1, 8264, Note_off_c, 0, 34, 64
1, 8264, Note_off_c, 0, 92, 64
1, 8265, Note_on_c, 0, 32, 95
1, 8265, Note_off_c, 0, 33, 64
1, 8265, Note_off_c, 0, 83, 64
1, 8267, Note_on_c, 0, 31, 91
1, 8267, Note_off_c, 0, 32, 64
1, 8267, Note_off_c, 0, 87, 64
1, 8269, Note_on_c, 0, 30, 75
1, 8269, Note_off_c, 0, 31, 64
1, 8271, Note_off_c, 0, 30, 64
1, 8271, Note_on_c, 0, 69, 19
1, 8271, Note_off_c, 0, 70, 64
1, 8272, Note_on_c, 0, 72, 29
1, 8272, Note_on_c, 0, 78, 11
1, 8272, Note_on_c, 0, 82, 10
1, 8272, Note_on_c, 0, 88, 18
1, 8273, Note_on_c, 0, 36, 68
1, 8273, Note_on_c, 0, 61, 33
1, 8273, Note_on_c, 0, 63, 32
1, 8273, Note_on_c, 0, 66, 19
1, 8273, Note_on_c, 0, 74, 25
1, 8273, Note_on_c, 0, 80, 18
1, 8273, Note_on_c, 0, 89, 12
1, 8274, Note_on_c, 0, 31, 74
1, 8274, Note_off_c, 0, 36, 64
1, 8274, Note_off_c, 0, 69, 64
1, 8275, Note_on_c, 0, 30, 75
1, 8275, Note_off_c, 0, 31, 64
1, 8275, Note_off_c, 0, 63, 64
1, 8275, Note_on_c, 0, 68, 16
1, 8275, Note_off_c, 0, 82, 64
1, 8275, Note_off_c, 0, 88, 64
1, 8276, Note_on_c, 0, 49, 55
1, 8276, Note_off_c, 0, 66, 64
1, 8276, Note_on_c, 0, 76, 20
1, 8276, Note_off_c, 0, 80, 64
1, 8277, Note_on_c, 0, 29, 73
1, 8277, Note_off_c, 0, 30, 64
1, 8277, Note_off_c, 0, 61, 64
1, 8277, Note_on_c, 0, 63, 30
1, 8277, Note_off_c, 0, 89, 64
1, 8278, Note_off_c, 0, 29, 64
1, 8278, Note_on_c, 0, 30, 72
1, 8278, Note_off_c, 0, 49, 64
1, 8278, Note_off_c, 0, 68, 64
1, 8279, Note_on_c, 0, 29, 69
1, 8279, Note_off_c, 0, 30, 64
1, 8279, Note_off_c, 0, 63, 64
1, 8280, Note_off_c, 0, 29, 64
1, 8280, Note_on_c, 0, 30, 68
1, 8280, Note_on_c, 0, 66, 36
1, 8280, Note_on_c, 0, 69, 25
1, 8280, Note_on_c, 0, 83, 17
1, 8281, Note_on_c, 0, 29, 67
1, 8281, Note_off_c, 0, 30, 64
1, 8281, Note_on_c, 0, 42, 67
1, 8281, Note_on_c, 0, 61, 29
1, 8281, Note_off_c, 0, 78, 64
1, 8281, Note_on_c, 0, 87, 28
1, 8281, Note_on_c, 0, 90, 29
1, 8282, Note_off_c, 0, 29, 64
1, 8282, Note_on_c, 0, 30, 72
1, 8282, Note_on_c, 0, 80, 13
1, 8283, Note_off_c, 0, 42, 64
1, 8283, Note_on_c, 0, 49, 59
1, 8283, Note_on_c, 0, 63, 29
1, 8283, Note_off_c, 0, 69, 64
1, 8283, Note_off_c, 0, 74, 64
1, 8284, Note_off_c, 0, 30, 64
1, 8284, Note_on_c, 0, 31, 74
1, 8284, Note_off_c, 0, 61, 64
1, 8284, Note_off_c, 0, 72, 64
1, 8284, Note_off_c, 0, 76, 64
1, 8284, Note_off_c, 0, 90, 64
1, 8285, Note_on_c, 0, 30, 74
1, 8285, Note_off_c, 0, 31, 64
1, 8285, Note_off_c, 0, 83, 64
1, 8285, Note_on_c, 0, 100, 12
1, 8286, Note_off_c, 0, 63, 64
1, 8286, Note_on_c, 0, 74, 19
1, 8286, Note_on_c, 0, 76, 31
1, 8286, Note_off_c, 0, 80, 64
1, 8287, Note_on_c, 0, 72, 36
1, 8287, Note_on_c, 0, 81, 30
1, 8287, Note_off_c, 0, 87, 64
1, 8288, Note_off_c, 0, 49, 64
1, 8288, Note_off_c, 0, 66, 64
1, 8288, Note_on_c, 0, 67, 40
1, 8288, Note_on_c, 0, 90, 28
1, 8288, Note_off_c, 0, 100, 64
1, 8289, Note_off_c, 0, 30, 64
1, 8289, Note_on_c, 0, 35, 67
1, 8289, Note_off_c, 0, 74, 64
1, 8289, Note_on_c, 0, 91, 30
1, 8290, Note_on_c, 0, 75, 35
1, 8290, Note_on_c, 0, 85, 38
1, 8291, Note_off_c, 0, 35, 64
1, 8291, Note_off_c, 0, 67, 64
1, 8291, Note_off_c, 0, 72, 64
1, 8291, Note_off_c, 0, 76, 64
1, 8291, Note_on_c, 0, 78, 31
1, 8291, Note_on_c, 0, 80, 32
1, 8291, Note_on_c, 0, 86, 28
1, 8291, Note_off_c, 0, 91, 64
1, 8292, Note_on_c, 0, 51, 77
1, 8292, Note_on_c, 0, 69, 24
1, 8292, Note_off_c, 0, 75, 64
1, 8292, Note_off_c, 0, 90, 64
1, 8293, Note_on_c, 0, 46, 88
1, 8293, Note_off_c, 0, 51, 64
1, 8293, Note_off_c, 0, 80, 64
1, 8293, Note_off_c, 0, 81, 64
1, 8294, Note_on_c, 0, 44, 94
1, 8294, Note_off_c, 0, 46, 64
1, 8294, Note_off_c, 0, 78, 64
1, 8294, Note_off_c, 0, 85, 64
1, 8294, Note_off_c, 0, 86, 64
1, 8295, Note_on_c, 0, 41, 99
1, 8295, Note_off_c, 0, 44, 64
1, 8296, Note_on_c, 0, 39, 95
1, 8296, Note_off_c, 0, 41, 64
1, 8296, Note_off_c, 0, 69, 64
1, 8297, Note_on_c, 0, 38, 96
1, 8297, Note_off_c, 0, 39, 64
1, 8298, Note_on_c, 0, 36, 95
1, 8298, Note_off_c, 0, 38, 64
1, 8299, Note_on_c, 0, 35, 93
1, 8299, Note_off_c, 0, 36, 64
1, 8299, Note_on_c, 0, 61, 11
1, 8300, Note_on_c, 0, 34, 92
1, 8300, Note_off_c, 0, 35, 64
1, 8301, Note_on_c, 0, 33, 92
1, 8301, Note_off_c, 0, 34, 64
1, 8302, Note_on_c, 0, 32, 91
1, 8302, Note_off_c, 0, 33, 64
1, 8302, Note_off_c, 0, 61, 64
1, 8303, Note_on_c, 0, 53, 18
1, 8304, Note_on_c, 0, 31, 87
1, 8304, Note_off_c, 0, 32, 64
1, 8306, Note_off_c, 0, 53, 64
1, 8307, Note_on_c, 0, 65, 18
1, 8309, Note_off_c, 0, 31, 64
1, 8309, Note_on_c, 0, 61, 35
1, 8309, Note_on_c, 0, 78, 10
1, 8309, Note_on_c, 0, 81, 18
1, 8309, Note_on_c, 0, 84, 28
1, 8310, Note_on_c, 0, 41, 66
1, 8310, Note_off_c, 0, 65, 64
1, 8310, Note_on_c, 0, 68, 22
1, 8311, Note_on_c, 0, 49, 62
1, 8311, Note_on_c, 0, 70, 19
1, 8312, Note_on_c, 0, 31, 66
1, 8312, Note_off_c, 0, 41, 64
1, 8312, Note_on_c, 0, 77, 18
1, 8312, Note_off_c, 0, 78, 64
1, 8313, Note_on_c, 0, 29, 65
1, 8313, Note_off_c, 0, 31, 64
1, 8313, Note_off_c, 0, 81, 64
1, 8313, Note_off_c, 0, 84, 64
1, 8314, Note_off_c, 0, 49, 64
1, 8314, Note_on_c, 0, 64, 29
1, 8314, Note_off_c, 0, 70, 64
1, 8315, Note_on_c, 0, 67, 15
1, 8315, Note_off_c, 0, 68, 64
1, 8315, Note_on_c, 0, 70, 31
1, 8316, Note_off_c, 0, 29, 64
1, 8316, Note_on_c, 0, 30, 60
1, 8316, Note_off_c, 0, 64, 64
1, 8316, Note_on_c, 0, 100, 9
1, 8317, Note_on_c, 0, 41, 56
1, 8318, Note_on_c, 0, 29, 54
1, 8318, Note_off_c, 0, 30, 64
1, 8318, Note_off_c, 0, 67, 64
1, 8318, Note_off_c, 0, 77, 64
1, 8318, Note_on_c, 0, 81, 16
1, 8318, Note_on_c, 0, 90, 21
1, 8319, Note_off_c, 0, 41, 64
1, 8319, Note_on_c, 0, 42, 63
1, 8319, Note_off_c, 0, 61, 64
1, 8319, Note_on_c, 0, 87, 25
1, 8319, Note_off_c, 0, 100, 64
1, 8320, Note_off_c, 0, 29, 64
1, 8320, Note_on_c, 0, 61, 39
1, 8320, Note_on_c, 0, 63, 37
1, 8320, Note_on_c, 0, 83, 19
1, 8321, Note_off_c, 0, 42, 64
1, 8321, Note_on_c, 0, 74, 22
1, 8321, Note_on_c, 0, 79, 37
1, 8321, Note_off_c, 0, 81, 64
1, 8321, Note_off_c, 0, 90, 64
1, 8321, Note_on_c, 0, 103, 13
1, 8322, Note_on_c, 0, 30, 61
1, 8322, Note_on_c, 0, 42, 61
1, 8322, Note_off_c, 0, 61, 64
1, 8322, Note_off_c, 0, 63, 64
1, 8322, Note_on_c, 0, 64, 40
1, 8322, Note_on_c, 0, 78, 24
1, 8323, Note_on_c, 0, 67, 36
1, 8323, Note_off_c, 0, 83, 64
1, 8324, Note_off_c, 0, 30, 64
1, 8324, Note_off_c, 0, 42, 64
1, 8324, Note_off_c, 0, 64, 64
1, 8324, Note_off_c, 0, 103, 64
1, 8325, Note_off_c, 0, 87, 64
1, 8326, Note_on_c, 0, 48, 49
1, 8326, Note_off_c, 0, 67, 64
1, 8326, Note_off_c, 0, 78, 64
1, 8327, Note_on_c, 0, 36, 54
1, 8327, Note_on_c, 0, 55, 49
1, 8327, Note_on_c, 0, 83, 36
1, 8327, Note_on_c, 0, 84, 35
1, 8327, Note_on_c, 0, 87, 27
1, 8327, Note_on_c, 0, 89, 27
1, 8327, Note_on_c, 0, 90, 27
1, 8327, Note_on_c, 0, 93, 23
1, 8327, Note_on_c, 0, 94, 28
1, 8328, Note_off_c, 0, 48, 64
1, 8328, Note_on_c, 0, 69, 44
1, 8328, Note_off_c, 0, 70, 64
1, 8328, Note_off_c, 0, 74, 64
1, 8328, Note_on_c, 0, 75, 37
1, 8329, Note_off_c, 0, 36, 64
1, 8329, Note_on_c, 0, 53, 70
1, 8329, Note_off_c, 0, 55, 64
1, 8329, Note_off_c, 0, 79, 64
1, 8330, Note_on_c, 0, 48, 82
1, 8330, Note_off_c, 0, 53, 64
1, 8330, Note_off_c, 0, 69, 64
1, 8330, Note_off_c, 0, 75, 64
1, 8330, Note_off_c, 0, 87, 64
1, 8330, Note_off_c, 0, 89, 64
1, 8330, Note_off_c, 0, 90, 64
1, 8330, Note_off_c, 0, 93, 64
1, 8331, Note_on_c, 0, 45, 92
1, 8331, Note_off_c, 0, 48, 64
1, 8331, Note_on_c, 0, 67, 11
1, 8331, Note_off_c, 0, 83, 64
1, 8331, Note_off_c, 0, 94, 64
1, 8332, Note_on_c, 0, 42, 95
1, 8332, Note_off_c, 0, 45, 64
1, 8332, Note_off_c, 0, 84, 64
1, 8333, Note_on_c, 0, 41, 95
1, 8333, Note_off_c, 0, 42, 64
1, 8334, Note_on_c, 0, 38, 92
1, 8334, Note_off_c, 0, 41, 64
1, 8334, Note_off_c, 0, 67, 64
1, 8334, Note_on_c, 0, 79, 13
1, 8335, Note_on_c, 0, 37, 90
1, 8335, Note_off_c, 0, 38, 64
1, 8336, Note_on_c, 0, 36, 86
1, 8336, Note_off_c, 0, 37, 64
1, 8337, Note_on_c, 0, 34, 83
1, 8337, Note_off_c, 0, 36, 64
1, 8337, Note_on_c, 0, 90, 11
1, 8338, Note_on_c, 0, 33, 82
1, 8338, Note_off_c, 0, 34, 64
1, 8338, Note_off_c, 0, 79, 64
1, 8339, Note_on_c, 0, 69, 17
1, 8340, Note_on_c, 0, 32, 79
1, 8340, Note_off_c, 0, 33, 64
1, 8340, Note_on_c, 0, 75, 11
1, 8340, Note_off_c, 0, 90, 64
1, 8342, Note_on_c, 0, 31, 71
1, 8342, Note_off_c, 0, 32, 64
1, 8342, Note_on_c, 0, 63, 28
1, 8342, Note_on_c, 0, 67, 15
1, 8343, Note_on_c, 0, 78, 14
1, 8344, Note_off_c, 0, 75, 64
1, 8346, Note_off_c, 0, 31, 64
1, 8346, Note_off_c, 0, 67, 64
1, 8346, Note_on_c, 0, 73, 22
1, 8347, Note_off_c, 0, 63, 64
1, 8347, Note_on_c, 0, 77, 19
1, 8347, Note_off_c, 0, 78, 64
1, 8347, Note_on_c, 0, 81, 20
1, 8347, Note_on_c, 0, 87, 32
1, 8347, Note_on_c, 0, 89, 24
1, 8347, Note_on_c, 0, 94, 16
1, 8348, Note_on_c, 0, 63, 35
1, 8348, Note_off_c, 0, 69, 64
1, 8348, Note_on_c, 0, 82, 18
1, 8348, Note_on_c, 0, 86, 36
1, 8348, Note_on_c, 0, 91, 32
1, 8348, Note_on_c, 0, 92, 22
1, 8349, Note_on_c, 0, 49, 59
1, 8349, Note_on_c, 0, 69, 22
1, 8349, Note_on_c, 0, 96, 11
1, 8350, Note_on_c, 0, 83, 31
1, 8351, Note_on_c, 0, 42, 53
1, 8351, Note_off_c, 0, 63, 64
1, 8351, Note_off_c, 0, 77, 64
1, 8351, Note_on_c, 0, 88, 22
1, 8351, Note_off_c, 0, 94, 64
1, 8352, Note_off_c, 0, 49, 64
1, 8352, Note_on_c, 0, 66, 40
1, 8352, Note_off_c, 0, 69, 64
1, 8352, Note_off_c, 0, 82, 64
1, 8352, Note_off_c, 0, 89, 64
1, 8352, Note_on_c, 0, 90, 17
1, 8353, Note_off_c, 0, 73, 64
1, 8353, Note_on_c, 0, 75, 20
1, 8353, Note_off_c, 0, 81, 64
1, 8354, Note_on_c, 0, 41, 48
1, 8354, Note_off_c, 0, 42, 64
1, 8354, Note_on_c, 0, 76, 42
1, 8354, Note_off_c, 0, 88, 64
1, 8354, Note_off_c, 0, 92, 64
1, 8355, Note_on_c, 0, 68, 32
1, 8355, Note_off_c, 0, 96, 64
1, 8356, Note_off_c, 0, 41, 64
1, 8356, Note_on_c, 0, 74, 26
1, 8356, Note_off_c, 0, 75, 64
1, 8357, Note_on_c, 0, 82, 12
1, 8357, Note_off_c, 0, 91, 64
1, 8358, Note_on_c, 0, 42, 56
1, 8358, Note_on_c, 0, 49, 57
1, 8358, Note_off_c, 0, 68, 64
1, 8358, Note_on_c, 0, 73, 19
1, 8358, Note_off_c, 0, 86, 64
1, 8359, Note_on_c, 0, 60, 33
1, 8359, Note_on_c, 0, 68, 23
1, 8359, Note_off_c, 0, 90, 64
1, 8360, Note_off_c, 0, 42, 64
1, 8360, Note_off_c, 0, 82, 64
1, 8360, Note_off_c, 0, 83, 64
1, 8360, Note_on_c, 0, 84, 12
1, 8361, Note_off_c, 0, 49, 64
1, 8361, Note_off_c, 0, 60, 64
1, 8361, Note_on_c, 0, 65, 36
1, 8361, Note_off_c, 0, 66, 64
1, 8361, Note_on_c, 0, 72, 14
1, 8361, Note_off_c, 0, 73, 64
1, 8361, Note_off_c, 0, 74, 64
1, 8361, Note_on_c, 0, 81, 16
1, 8361, Note_off_c, 0, 87, 64
1, 8362, Note_on_c, 0, 83, 30
1, 8363, Note_on_c, 0, 82, 24
1, 8363, Note_off_c, 0, 84, 64
1, 8364, Note_on_c, 0, 36, 44
1, 8364, Note_off_c, 0, 65, 64
1, 8364, Note_on_c, 0, 66, 43
1, 8364, Note_off_c, 0, 68, 64
1, 8364, Note_on_c, 0, 71, 37
1, 8364, Note_off_c, 0, 72, 64
1, 8364, Note_on_c, 0, 73, 37
1, 8364, Note_on_c, 0, 79, 38
1, 8364, Note_on_c, 0, 84, 29
1, 8364, Note_on_c, 0, 89, 31
1, 8364, Note_on_c, 0, 90, 32
1, 8364, Note_on_c, 0, 92, 31
1, 8364, Note_on_c, 0, 99, 24
1, 8365, Note_off_c, 0, 81, 64
1, 8366, Note_on_c, 0, 62, 53
1, 8366, Note_off_c, 0, 66, 64
1, 8366, Note_on_c, 0, 70, 39
1, 8366, Note_off_c, 0, 71, 64
1, 8366, Note_on_c, 0, 80, 32
1, 8366, Note_off_c, 0, 84, 64
1, 8366, Note_off_c, 0, 89, 64
1, 8367, Note_off_c, 0, 36, 64
1, 8367, Note_on_c, 0, 51, 76
1, 8367, Note_off_c, 0, 82, 64
1, 8367, Note_off_c, 0, 83, 64
1, 8367, Note_off_c, 0, 90, 64
1, 8367, Note_off_c, 0, 92, 64
1, 8367, Note_off_c, 0, 99, 64
1, 8368, Note_on_c, 0, 46, 82
1, 8368, Note_off_c, 0, 51, 64
1, 8368, Note_off_c, 0, 62, 64
1, 8368, Note_off_c, 0, 73, 64
1, 8368, Note_off_c, 0, 76, 64
1, 8369, Note_on_c, 0, 44, 86
1, 8369, Note_off_c, 0, 46, 64
1, 8369, Note_off_c, 0, 70, 64
1, 8369, Note_on_c, 0, 78, 10
1, 8369, Note_off_c, 0, 79, 64
1, 8369, Note_off_c, 0, 80, 64
1, 8370, Note_on_c, 0, 42, 87
1, 8370, Note_off_c, 0, 44, 64
1, 8371, Note_on_c, 0, 39, 80
1, 8371, Note_off_c, 0, 42, 64
1, 8372, Note_on_c, 0, 38, 78
1, 8372, Note_off_c, 0, 39, 64
1, 8372, Note_on_c, 0, 70, 12
1, 8373, Note_on_c, 0, 36, 73
1, 8373, Note_off_c, 0, 38, 64
1, 8374, Note_on_c, 0, 35, 69
1, 8374, Note_off_c, 0, 36, 64
1, 8374, Note_off_c, 0, 78, 64
1, 8374, Note_on_c, 0, 88, 30
1, 8374, Note_on_c, 0, 92, 19
1, 8375, Note_on_c, 0, 34, 65
1, 8375, Note_off_c, 0, 35, 64
1, 8375, Note_on_c, 0, 80, 13
1, 8375, Note_on_c, 0, 82, 26
1, 8375, Note_on_c, 0, 90, 27
1, 8376, Note_off_c, 0, 34, 64
1, 8376, Note_off_c, 0, 70, 64
1, 8376, Note_on_c, 0, 85, 19
1, 8376, Note_on_c, 0, 86, 23
1, 8377, Note_on_c, 0, 32, 62
1, 8378, Note_on_c, 0, 48, 17
1, 8378, Note_on_c, 0, 74, 10
1, 8378, Note_on_c, 0, 81, 22
1, 8378, Note_off_c, 0, 82, 64
1, 8378, Note_on_c, 0, 87, 16
1, 8379, Note_on_c, 0, 31, 58
1, 8379, Note_off_c, 0, 32, 64
1, 8379, Note_on_c, 0, 72, 24
1, 8379, Note_off_c, 0, 86, 64
1, 8380, Note_off_c, 0, 88, 64
1, 8381, Note_off_c, 0, 48, 64
1, 8381, Note_on_c, 0, 69, 35
1, 8381, Note_off_c, 0, 74, 64
1, 8381, Note_off_c, 0, 80, 64
1, 8381, Note_off_c, 0, 85, 64
1, 8382, Note_on_c, 0, 67, 34
1, 8382, Note_off_c, 0, 81, 64
1, 8382, Note_on_c, 0, 86, 10
1, 8383, Note_off_c, 0, 31, 64
1, 8383, Note_on_c, 0, 71, 27
1, 8383, Note_off_c, 0, 72, 64
1, 8383, Note_off_c, 0, 90, 64
1, 8384, Note_on_c, 0, 78, 11
1, 8384, Note_on_c, 0, 82, 16
1, 8384, Note_on_c, 0, 88, 21
1, 8384, Note_off_c, 0, 92, 64
1, 8385, Note_on_c, 0, 61, 33
1, 8385, Note_on_c, 0, 64, 34
1, 8385, Note_on_c, 0, 80, 18
1, 8386, Note_on_c, 0, 54, 53
1, 8387, Note_off_c, 0, 86, 64
1, 8387, Note_off_c, 0, 87, 64
1, 8388, Note_off_c, 0, 67, 64
1, 8388, Note_off_c, 0, 78, 64
1, 8388, Note_off_c, 0, 80, 64
1, 8388, Note_off_c, 0, 88, 64
1, 8389, Note_on_c, 0, 67, 41
1, 8389, Note_on_c, 0, 74, 16
1, 8389, Note_off_c, 0, 82, 64
1, 8390, Note_on_c, 0, 42, 38
1, 8390, Note_off_c, 0, 54, 64
1, 8390, Note_off_c, 0, 61, 64
1, 8391, Note_off_c, 0, 64, 64
1, 8392, Note_on_c, 0, 49, 49
1, 8392, Note_on_c, 0, 64, 37
1, 8392, Note_off_c, 0, 71, 64
1, 8392, Note_off_c, 0, 74, 64
1, 8392, Note_on_c, 0, 90, 30
1, 8393, Note_off_c, 0, 42, 64
1, 8393, Note_on_c, 0, 72, 23
1, 8393, Note_on_c, 0, 74, 32
1, 8393, Note_on_c, 0, 85, 32
1, 8393, Note_on_c, 0, 87, 28
1, 8395, Note_on_c, 0, 42, 40
1, 8395, Note_off_c, 0, 49, 64
1, 8395, Note_on_c, 0, 61, 37
1, 8395, Note_on_c, 0, 66, 37
1, 8395, Note_off_c, 0, 67, 64
1, 8395, Note_on_c, 0, 88, 22
1, 8396, Note_on_c, 0, 49, 56
1, 8396, Note_off_c, 0, 69, 64
1, 8396, Note_on_c, 0, 70, 23
1, 8396, Note_off_c, 0, 87, 64
1, 8397, Note_off_c, 0, 42, 64
1, 8397, Note_off_c, 0, 66, 64
1, 8397, Note_off_c, 0, 72, 64
1, 8397, Note_on_c, 0, 82, 37
1, 8398, Note_off_c, 0, 49, 64
1, 8398, Note_on_c, 0, 54, 49
1, 8398, Note_on_c, 0, 60, 36
1, 8398, Note_off_c, 0, 61, 64
1, 8398, Note_on_c, 0, 84, 37
1, 8399, Note_off_c, 0, 64, 64
1, 8400, Note_on_c, 0, 48, 41
1, 8400, Note_off_c, 0, 54, 64
1, 8400, Note_off_c, 0, 60, 64
1, 8400, Note_on_c, 0, 68, 30
1, 8400, Note_off_c, 0, 70, 64
1, 8401, Note_on_c, 0, 36, 27
1, 8401, Note_on_c, 0, 54, 30
1, 8401, Note_off_c, 0, 88, 64
1, 8402, Note_off_c, 0, 48, 64
1, 8402, Note_on_c, 0, 67, 45
1, 8402, Note_off_c, 0, 68, 64
1, 8402, Note_on_c, 0, 72, 43
1, 8402, Note_on_c, 0, 76, 36
1, 8402, Note_on_c, 0, 80, 36
1, 8402, Note_on_c, 0, 89, 29
1, 8402, Note_on_c, 0, 91, 24
1, 8402, Note_on_c, 0, 93, 13
1, 8402, Note_on_c, 0, 95, 19
1, 8403, Note_off_c, 0, 54, 64
1, 8403, Note_off_c, 0, 74, 64
1, 8403, Note_on_c, 0, 86, 33
1, 8404, Note_off_c, 0, 36, 64
1, 8404, Note_on_c, 0, 53, 66
1, 8404, Note_on_c, 0, 63, 48
1, 8404, Note_off_c, 0, 67, 64
1, 8404, Note_on_c, 0, 68, 37
1, 8404, Note_on_c, 0, 69, 31
1, 8404, Note_off_c, 0, 76, 64
1, 8404, Note_off_c, 0, 82, 64
1, 8404, Note_on_c, 0, 83, 25
1, 8404, Note_on_c, 0, 87, 22
1, 8405, Note_on_c, 0, 48, 71
1, 8405, Note_off_c, 0, 53, 64
1, 8405, Note_off_c, 0, 72, 64
1, 8405, Note_off_c, 0, 80, 64
1, 8405, Note_off_c, 0, 90, 64
1, 8405, Note_off_c, 0, 95, 64
1, 8406, Note_on_c, 0, 45, 73
1, 8406, Note_off_c, 0, 48, 64
1, 8406, Note_off_c, 0, 63, 64
1, 8406, Note_on_c, 0, 66, 26
1, 8406, Note_off_c, 0, 69, 64
1, 8406, Note_off_c, 0, 84, 64
1, 8406, Note_off_c, 0, 93, 64
1, 8407, Note_on_c, 0, 42, 72
1, 8407, Note_off_c, 0, 45, 64
1, 8407, Note_off_c, 0, 83, 64
1, 8407, Note_off_c, 0, 89, 64
1, 8408, Note_on_c, 0, 41, 67
1, 8408, Note_off_c, 0, 42, 64
1, 8408, Note_off_c, 0, 68, 64
1, 8408, Note_off_c, 0, 85, 64
1, 8408, Note_off_c, 0, 86, 64
1, 8409, Note_off_c, 0, 41, 64
1, 8410, Note_off_c, 0, 87, 64
1, 8410, Note_on_c, 0, 88, 16
1, 8411, Note_on_c, 0, 63, 13
1, 8411, Note_off_c, 0, 91, 64
1, 8413, Note_on_c, 0, 33, 49
1, 8413, Note_on_c, 0, 70, 12
1, 8413, Note_off_c, 0, 88, 64
1, 8414, Note_off_c, 0, 63, 64
1, 8414, Note_on_c, 0, 65, 24
1, 8414, Note_off_c, 0, 66, 64
1, 8415, Note_off_c, 0, 33, 64
1, 8415, Note_on_c, 0, 63, 13
1, 8415, Note_on_c, 0, 76, 9
1, 8416, Note_on_c, 0, 31, 41
1, 8416, Note_on_c, 0, 89, 13
1, 8418, Note_off_c, 0, 65, 64
1, 8418, Note_off_c, 0, 76, 64
1, 8419, Note_off_c, 0, 63, 64
1, 8419, Note_on_c, 0, 65, 15
1, 8420, Note_off_c, 0, 31, 64
1, 8420, Note_off_c, 0, 70, 64
1, 8421, Note_on_c, 0, 55, 44
1, 8421, Note_on_c, 0, 62, 38
1, 8421, Note_on_c, 0, 77, 26
1, 8421, Note_on_c, 0, 83, 23
1, 8421, Note_on_c, 0, 86, 22
1, 8421, Note_off_c, 0, 89, 64
1, 8422, Note_off_c, 0, 65, 64
1, 8422, Note_on_c, 0, 68, 16
1, 8422, Note_on_c, 0, 87, 12
1, 8423, Note_on_c, 0, 30, 21
1, 8423, Note_on_c, 0, 54, 46
1, 8423, Note_off_c, 0, 55, 64
1, 8424, Note_on_c, 0, 60, 32
1, 8424, Note_off_c, 0, 62, 64
1, 8424, Note_on_c, 0, 73, 27
1, 8424, Note_on_c, 0, 76, 21
1, 8424, Note_off_c, 0, 83, 64
1, 8425, Note_off_c, 0, 68, 64
1, 8425, Note_off_c, 0, 87, 64
1, 8426, Note_off_c, 0, 60, 64
1, 8426, Note_on_c, 0, 62, 41
1, 8426, Note_on_c, 0, 67, 32
1, 8426, Note_on_c, 0, 72, 20
1, 8426, Note_on_c, 0, 80, 12
1, 8427, Note_off_c, 0, 30, 64
1, 8427, Note_off_c, 0, 77, 64
1, 8428, Note_off_c, 0, 73, 64
1, 8428, Note_off_c, 0, 76, 64
1, 8429, Note_on_c, 0, 49, 33
1, 8429, Note_off_c, 0, 54, 64
1, 8429, Note_off_c, 0, 86, 64
1, 8430, Note_on_c, 0, 87, 34
1, 8431, Note_on_c, 0, 54, 41
1, 8431, Note_off_c, 0, 62, 64
1, 8431, Note_off_c, 0, 67, 64
1, 8431, Note_on_c, 0, 68, 23
1, 8431, Note_off_c, 0, 72, 64
1, 8431, Note_on_c, 0, 90, 21
1, 8431, Note_on_c, 0, 91, 21
1, 8432, Note_off_c, 0, 49, 64
1, 8432, Note_on_c, 0, 72, 31
1, 8432, Note_on_c, 0, 83, 21
1, 8432, Note_on_c, 0, 85, 10
1, 8432, Note_on_c, 0, 88, 27
1, 8433, Note_on_c, 0, 49, 37
1, 8433, Note_on_c, 0, 61, 37
1, 8433, Note_on_c, 0, 75, 39
1, 8433, Note_on_c, 0, 77, 23
1, 8433, Note_off_c, 0, 80, 64
1, 8434, Note_on_c, 0, 64, 30
1, 8435, Note_on_c, 0, 58, 31
1, 8435, Note_off_c, 0, 61, 64
1, 8435, Note_off_c, 0, 85, 64
1, 8436, Note_off_c, 0, 54, 64
1, 8436, Note_off_c, 0, 68, 64
1, 8436, Note_off_c, 0, 90, 64
1, 8437, Note_on_c, 0, 54, 26
1, 8437, Note_off_c, 0, 58, 64
1, 8437, Note_off_c, 0, 64, 64
1, 8437, Note_on_c, 0, 69, 49
1, 8437, Note_off_c, 0, 77, 64
1, 8437, Note_on_c, 0, 78, 20
1, 8437, Note_on_c, 0, 89, 32
1, 8437, Note_on_c, 0, 93, 29
1, 8438, Note_off_c, 0, 49, 64
1, 8438, Note_off_c, 0, 83, 64
1, 8438, Note_on_c, 0, 90, 34
1, 8438, Note_off_c, 0, 91, 64
1, 8439, Note_on_c, 0, 80, 34
1, 8439, Note_on_c, 0, 84, 35
1, 8439, Note_on_c, 0, 86, 34
1, 8439, Note_on_c, 0, 91, 27
1, 8439, Note_on_c, 0, 94, 25
1, 8440, Note_on_c, 0, 65, 50
1, 8440, Note_off_c, 0, 72, 64
1, 8440, Note_off_c, 0, 78, 64
1, 8441, Note_off_c, 0, 54, 64
1, 8441, Note_on_c, 0, 78, 34
1, 8441, Note_off_c, 0, 84, 64
1, 8442, Note_on_c, 0, 63, 33
1, 8442, Note_off_c, 0, 86, 64
1, 8442, Note_off_c, 0, 87, 64
1, 8442, Note_off_c, 0, 88, 64
1, 8442, Note_off_c, 0, 91, 64
1, 8442, Note_off_c, 0, 93, 64
1, 8442, Note_off_c, 0, 94, 64
1, 8443, Note_off_c, 0, 65, 64
1, 8443, Note_off_c, 0, 75, 64
1, 8443, Note_off_c, 0, 89, 64
1, 8443, Note_off_c, 0, 90, 64
1, 8444, Note_off_c, 0, 63, 64
1, 8444, Note_off_c, 0, 78, 64
1, 8444, Note_off_c, 0, 80, 64
1, 8445, Note_off_c, 0, 69, 64
1, 8445, Note_on_c, 0, 73, 15
1, 8446, Note_on_c, 0, 64, 14
1, 8448, Note_off_c, 0, 73, 64
1, 8449, Note_on_c, 0, 90, 12
1, 8450, Note_on_c, 0, 33, 29
1, 8452, Note_off_c, 0, 33, 64
1, 8452, Note_off_c, 0, 90, 64
1, 8454, Note_on_c, 0, 71, 10
1, 8455, Note_on_c, 0, 63, 28
1, 8455, Note_off_c, 0, 64, 64
1, 8455, Note_on_c, 0, 74, 21
1, 8457, Note_off_c, 0, 71, 64
1, 8458, Note_on_c, 0, 82, 25
1, 8459, Note_on_c, 0, 79, 19
1, 8459, Note_on_c, 0, 87, 14
1, 8460, Note_on_c, 0, 66, 25
1, 8460, Note_on_c, 0, 68, 23
1, 8460, Note_on_c, 0, 73, 21
1, 8460, Note_off_c, 0, 74, 64
1, 8460, Note_on_c, 0, 84, 20
1, 8460, Note_on_c, 0, 86, 17
1, 8461, Note_on_c, 0, 85, 23
1, 8461, Note_on_c, 0, 89, 18
1, 8462, Note_off_c, 0, 82, 64
1, 8462, Note_on_c, 0, 94, 13
1, 8464, Note_on_c, 0, 57, 17
1, 8464, Note_off_c, 0, 63, 64
1, 8464, Note_off_c, 0, 66, 64
1, 8464, Note_on_c, 0, 71, 27
1, 8464, Note_on_c, 0, 75, 35
1, 8464, Note_off_c, 0, 86, 64
1, 8464, Note_off_c, 0, 87, 64
1, 8465, Note_off_c, 0, 73, 64
1, 8465, Note_on_c, 0, 77, 24
1, 8465, Note_off_c, 0, 84, 64
1, 8465, Note_off_c, 0, 89, 64
1, 8465, Note_on_c, 0, 92, 19
1, 8466, Note_off_c, 0, 68, 64
1, 8466, Note_off_c, 0, 85, 64
1, 8467, Note_off_c, 0, 71, 64
1, 8467, Note_off_c, 0, 79, 64
1, 8467, Note_on_c, 0, 88, 15
1, 8468, Note_off_c, 0, 75, 64
1, 8468, Note_on_c, 0, 76, 35
1, 8468, Note_on_c, 0, 93, 18
1, 8469, Note_off_c, 0, 57, 64
1, 8469, Note_off_c, 0, 77, 64
1, 8469, Note_on_c, 0, 89, 11
1, 8469, Note_off_c, 0, 94, 64
1, 8470, Note_on_c, 0, 54, 31
1, 8470, Note_on_c, 0, 68, 30
1, 8470, Note_on_c, 0, 71, 33
1, 8470, Note_on_c, 0, 77, 25
1, 8470, Note_on_c, 0, 84, 19
1, 8471, Note_on_c, 0, 74, 40
1, 8471, Note_off_c, 0, 76, 64
1, 8472, Note_on_c, 0, 49, 17
1, 8472, Note_off_c, 0, 54, 64
1, 8472, Note_off_c, 0, 68, 64
1, 8472, Note_off_c, 0, 92, 64
1, 8472, Note_off_c, 0, 93, 64
1, 8473, Note_off_c, 0, 77, 64
1, 8473, Note_off_c, 0, 89, 64
1, 8473, Note_on_c, 0, 90, 25
1, 8474, Note_on_c, 0, 68, 30
1, 8474, Note_off_c, 0, 71, 64
1, 8474, Note_off_c, 0, 88, 64
1, 8475, Note_off_c, 0, 49, 64
1, 8475, Note_on_c, 0, 73, 30
1, 8475, Note_on_c, 0, 77, 40
1, 8476, Note_off_c, 0, 74, 64
1, 8476, Note_off_c, 0, 84, 64
1, 8477, Note_off_c, 0, 73, 64
1, 8477, Note_on_c, 0, 74, 44
1, 8477, Note_on_c, 0, 80, 34
1, 8477, Note_on_c, 0, 83, 35
1, 8477, Note_on_c, 0, 85, 30
1, 8477, Note_on_c, 0, 87, 33
1, 8477, Note_on_c, 0, 91, 31
1, 8477, Note_on_c, 0, 94, 22
1, 8477, Note_on_c, 0, 96, 24
1, 8478, Note_off_c, 0, 68, 64
1, 8478, Note_on_c, 0, 72, 43
1, 8479, Note_off_c, 0, 77, 64
1, 8480, Note_on_c, 0, 75, 20
1, 8480, Note_off_c, 0, 83, 64
1, 8480, Note_off_c, 0, 85, 64
1, 8480, Note_off_c, 0, 90, 64
1, 8480, Note_off_c, 0, 94, 64
1, 8481, Note_on_c, 0, 68, 19
1, 8481, Note_off_c, 0, 72, 64
1, 8481, Note_off_c, 0, 80, 64
1, 8481, Note_off_c, 0, 87, 64
1, 8481, Note_off_c, 0, 91, 64
1, 8481, Note_off_c, 0, 96, 64
1, 8482, Note_off_c, 0, 74, 64
1, 8485, Note_off_c, 0, 68, 64
1, 8485, Note_on_c, 0, 92, 20
1, 8486, Note_on_c, 0, 72, 20
1, 8486, Note_off_c, 0, 75, 64
1, 8487, Note_on_c, 0, 88, 19
1, 8487, Note_on_c, 0, 90, 18
1, 8487, Note_on_c, 0, 91, 17
1, 8489, Note_on_c, 0, 71, 18
1, 8490, Note_on_c, 0, 66, 17
1, 8490, Note_off_c, 0, 72, 64
1, 8490, Note_off_c, 0, 90, 64
1, 8491, Note_on_c, 0, 85, 13
1, 8493, Note_off_c, 0, 88, 64
1, 8493, Note_off_c, 0, 91, 64
1, 8494, Note_on_c, 0, 73, 21
1, 8494, Note_on_c, 0, 82, 13
1, 8494, Note_off_c, 0, 85, 64
1, 8495, Note_on_c, 0, 70, 13
1, 8495, Note_off_c, 0, 71, 64
1, 8495, Note_on_c, 0, 76, 15
1, 8495, Note_on_c, 0, 80, 14
1, 8495, Note_off_c, 0, 92, 64
1, 8496, Note_on_c, 0, 75, 28
1, 8496, Note_on_c, 0, 90, 18
1, 8497, Note_off_c, 0, 66, 64
1, 8497, Note_on_c, 0, 85, 23
1, 8497, Note_on_c, 0, 86, 16
1, 8497, Note_on_c, 0, 89, 17
1, 8497, Note_on_c, 0, 91, 11
1, 8498, Note_on_c, 0, 66, 29
1, 8498, Note_off_c, 0, 70, 64
1, 8498, Note_off_c, 0, 76, 64
1, 8498, Note_on_c, 0, 77, 32
1, 8498, Note_on_c, 0, 79, 19
1, 8499, Note_on_c, 0, 72, 16
1, 8499, Note_off_c, 0, 73, 64
1, 8499, Note_off_c, 0, 80, 64
1, 8500, Note_on_c, 0, 70, 29
1, 8500, Note_off_c, 0, 91, 64
1, 8501, Note_on_c, 0, 63, 18
1, 8501, Note_off_c, 0, 89, 64
1, 8502, Note_off_c, 0, 66, 64
1, 8502, Note_off_c, 0, 77, 64
1, 8502, Note_off_c, 0, 79, 64
1, 8502, Note_on_c, 0, 81, 20
1, 8502, Note_off_c, 0, 82, 64
1, 8502, Note_off_c, 0, 90, 64
1, 8503, Note_on_c, 0, 69, 30
1, 8503, Note_off_c, 0, 75, 64
1, 8503, Note_on_c, 0, 76, 44
1, 8503, Note_on_c, 0, 78, 24
1, 8503, Note_on_c, 0, 83, 19
1, 8504, Note_off_c, 0, 70, 64
1, 8504, Note_off_c, 0, 72, 64
1, 8504, Note_on_c, 0, 74, 24
1, 8504, Note_off_c, 0, 86, 64
1, 8505, Note_off_c, 0, 69, 64
1, 8505, Note_off_c, 0, 81, 64
1, 8506, Note_on_c, 0, 80, 34
1, 8506, Note_on_c, 0, 91, 22
1, 8506, Note_on_c, 0, 94, 12
1, 8507, Note_off_c, 0, 74, 64
1, 8507, Note_on_c, 0, 82, 22
1, 8507, Note_on_c, 0, 86, 11
1, 8508, Note_off_c, 0, 63, 64
1, 8508, Note_on_c, 0, 68, 21
1, 8508, Note_on_c, 0, 73, 29
1, 8508, Note_off_c, 0, 78, 64
1, 8508, Note_on_c, 0, 102, 17
1, 8509, Note_on_c, 0, 54, 18
1, 8509, Note_on_c, 0, 93, 25
1, 8509, Note_off_c, 0, 94, 64
1, 8510, Note_on_c, 0, 75, 25
1, 8510, Note_off_c, 0, 76, 64
1, 8510, Note_off_c, 0, 82, 64
1, 8510, Note_off_c, 0, 85, 64
1, 8510, Note_off_c, 0, 86, 64
1, 8512, Note_off_c, 0, 54, 64
1, 8512, Note_on_c, 0, 77, 29
1, 8512, Note_off_c, 0, 80, 64
1, 8512, Note_off_c, 0, 83, 64
1, 8512, Note_off_c, 0, 91, 64
1, 8512, Note_on_c, 0, 98, 23
1, 8512, Note_off_c, 0, 102, 64
1, 8513, Note_off_c, 0, 73, 64
1, 8513, Note_on_c, 0, 74, 30
1, 8513, Note_off_c, 0, 75, 64
1, 8513, Note_on_c, 0, 85, 35
1, 8513, Note_on_c, 0, 94, 28
1, 8513, Note_on_c, 0, 95, 27
1, 8514, Note_on_c, 0, 65, 31
1, 8514, Note_on_c, 0, 79, 38
1, 8514, Note_on_c, 0, 81, 35
1, 8514, Note_on_c, 0, 82, 34
1, 8514, Note_on_c, 0, 83, 37
1, 8514, Note_on_c, 0, 86, 33
1, 8514, Note_on_c, 0, 88, 32
1, 8514, Note_on_c, 0, 89, 30
1, 8514, Note_on_c, 0, 90, 29
1, 8514, Note_on_c, 0, 92, 28
1, 8514, Note_on_c, 0, 96, 27
1, 8514, Note_on_c, 0, 99, 22
1, 8515, Note_on_c, 0, 53, 57
1, 8515, Note_off_c, 0, 68, 64
1, 8515, Note_on_c, 0, 72, 37
1, 8515, Note_off_c, 0, 77, 64
1, 8516, Note_on_c, 0, 58, 65
1, 8516, Note_off_c, 0, 65, 64
1, 8516, Note_on_c, 0, 66, 39
1, 8516, Note_on_c, 0, 69, 35
1, 8516, Note_off_c, 0, 74, 64
1, 8516, Note_off_c, 0, 82, 64
1, 8517, Note_off_c, 0, 53, 64
1, 8517, Note_off_c, 0, 58, 64
1, 8517, Note_on_c, 0, 74, 17
1, 8517, Note_off_c, 0, 81, 64
1, 8517, Note_off_c, 0, 83, 64
1, 8517, Note_off_c, 0, 85, 64
1, 8517, Note_off_c, 0, 89, 64
1, 8517, Note_off_c, 0, 92, 64
1, 8517, Note_off_c, 0, 93, 64
1, 8517, Note_off_c, 0, 95, 64
1, 8517, Note_off_c, 0, 96, 64
1, 8517, Note_off_c, 0, 98, 64
1, 8517, Note_off_c, 0, 99, 64
1, 8518, Note_on_c, 0, 44, 79
1, 8518, Note_on_c, 0, 59, 48
1, 8518, Note_off_c, 0, 69, 64
1, 8518, Note_off_c, 0, 72, 64
1, 8518, Note_off_c, 0, 79, 64
1, 8518, Note_off_c, 0, 88, 64
1, 8518, Note_off_c, 0, 90, 64
1, 8518, Note_off_c, 0, 94, 64
1, 8519, Note_on_c, 0, 42, 89
1, 8519, Note_off_c, 0, 44, 64
1, 8520, Note_on_c, 0, 40, 93
1, 8520, Note_off_c, 0, 42, 64
1, 8520, Note_off_c, 0, 86, 64
1, 8521, Note_on_c, 0, 38, 97
1, 8521, Note_off_c, 0, 40, 64
1, 8521, Note_off_c, 0, 59, 64
1, 8522, Note_on_c, 0, 36, 97
1, 8522, Note_off_c, 0, 38, 64
1, 8522, Note_off_c, 0, 74, 64
1, 8523, Note_on_c, 0, 35, 96
1, 8523, Note_off_c, 0, 36, 64
1, 8524, Note_on_c, 0, 34, 96
1, 8524, Note_off_c, 0, 35, 64
1, 8524, Note_on_c, 0, 51, 11
1, 8524, Note_on_c, 0, 70, 15
1, 8524, Note_on_c, 0, 76, 12
1, 8525, Note_on_c, 0, 33, 95
1, 8525, Note_off_c, 0, 34, 64
1, 8525, Note_off_c, 0, 66, 64
1, 8525, Note_on_c, 0, 75, 19
1, 8526, Note_on_c, 0, 32, 97
1, 8526, Note_off_c, 0, 33, 64
1, 8527, Note_off_c, 0, 51, 64
1, 8527, Note_on_c, 0, 59, 36
1, 8527, Note_off_c, 0, 76, 64
1, 8528, Note_on_c, 0, 31, 97
1, 8528, Note_off_c, 0, 32, 64
1, 8529, Note_off_c, 0, 75, 64
1, 8530, Note_on_c, 0, 30, 92
1, 8530, Note_off_c, 0, 31, 64
1, 8530, Note_off_c, 0, 59, 64
1, 8530, Note_on_c, 0, 60, 31
1, 8530, Note_on_c, 0, 74, 40
1, 8530, Note_on_c, 0, 78, 28
1, 8531, Note_off_c, 0, 70, 64
1, 8532, Note_off_c, 0, 60, 64
1, 8533, Note_off_c, 0, 30, 64
1, 8533, Note_on_c, 0, 77, 15
1, 8534, Note_off_c, 0, 78, 64
1, 8534, Note_on_c, 0, 80, 45
1, 8535, Note_on_c, 0, 76, 20
1, 8536, Note_on_c, 0, 67, 9
1, 8536, Note_off_c, 0, 77, 64
1, 8536, Note_on_c, 0, 83, 13
1, 8537, Note_on_c, 0, 89, 12
1, 8538, Note_off_c, 0, 76, 64
1, 8538, Note_off_c, 0, 80, 64
1, 8538, Note_on_c, 0, 81, 30
1, 8539, Note_off_c, 0, 67, 64
1, 8539, Note_off_c, 0, 74, 64
1, 8539, Note_on_c, 0, 75, 32
1, 8540, Note_on_c, 0, 69, 13
1, 8540, Note_off_c, 0, 83, 64
1, 8540, Note_on_c, 0, 99, 9
1, 8541, Note_off_c, 0, 81, 64
1, 8541, Note_on_c, 0, 88, 20
1, 8541, Note_off_c, 0, 89, 64
1, 8542, Note_on_c, 0, 73, 21
1, 8542, Note_on_c, 0, 78, 31
1, 8542, Note_on_c, 0, 80, 39
1, 8542, Note_on_c, 0, 81, 30
1, 8542, Note_on_c, 0, 98, 14
1, 8543, Note_off_c, 0, 69, 64
1, 8543, Note_off_c, 0, 75, 64
1, 8543, Note_on_c, 0, 76, 31
1, 8544, Note_on_c, 0, 61, 17
1, 8544, Note_off_c, 0, 81, 64
1, 8544, Note_on_c, 0, 82, 23
1, 8545, Note_off_c, 0, 73, 64
1, 8545, Note_off_c, 0, 80, 64
1, 8545, Note_on_c, 0, 81, 48
1, 8545, Note_off_c, 0, 99, 64
1, 8546, Note_on_c, 0, 72, 25
1, 8546, Note_on_c, 0, 80, 30
1, 8546, Note_on_c, 0, 83, 20
1, 8546, Note_on_c, 0, 86, 12
1, 8547, Note_off_c, 0, 61, 64
1, 8547, Note_on_c, 0, 68, 27
1, 8547, Note_off_c, 0, 82, 64
1, 8548, Note_off_c, 0, 78, 64
1, 8548, Note_on_c, 0, 79, 27
1, 8548, Note_on_c, 0, 84, 25
1, 8548, Note_off_c, 0, 98, 64
1, 8549, Note_off_c, 0, 72, 64
1, 8549, Note_off_c, 0, 83, 64
1, 8549, Note_off_c, 0, 86, 64
1, 8550, Note_on_c, 0, 67, 22
1, 8550, Note_off_c, 0, 68, 64
1, 8550, Note_off_c, 0, 80, 64
1, 8550, Note_off_c, 0, 88, 64
1, 8551, Note_on_c, 0, 70, 14
1, 8551, Note_on_c, 0, 74, 22
1, 8551, Note_on_c, 0, 78, 29
1, 8552, Note_on_c, 0, 72, 26
1, 8552, Note_off_c, 0, 76, 64
1, 8552, Note_off_c, 0, 84, 64
1, 8553, Note_off_c, 0, 67, 64
1, 8554, Note_on_c, 0, 43, 29
1, 8554, Note_off_c, 0, 70, 64
1, 8554, Note_off_c, 0, 74, 64
1, 8554, Note_off_c, 0, 78, 64
1, 8554, Note_off_c, 0, 81, 64
1, 8555, Note_off_c, 0, 72, 64
1, 8555, Note_on_c, 0, 81, 32
1, 8556, Note_off_c, 0, 43, 64
1, 8556, Note_on_c, 0, 57, 30
1, 8556, Note_off_c, 0, 79, 64
1, 8557, Note_on_c, 0, 43, 35
1, 8557, Note_on_c, 0, 76, 20
1, 8558, Note_off_c, 0, 57, 64
1, 8558, Note_on_c, 0, 74, 19
1, 8559, Note_off_c, 0, 43, 64
1, 8559, Note_on_c, 0, 44, 43
1, 8559, Note_on_c, 0, 55, 35
1, 8559, Note_on_c, 0, 78, 25
1, 8561, Note_off_c, 0, 55, 64
1, 8561, Note_off_c, 0, 81, 64
1, 8562, Note_on_c, 0, 81, 26
1, 8563, Note_off_c, 0, 74, 64
1, 8563, Note_off_c, 0, 78, 64
1, 8563, Note_on_c, 0, 82, 20
1, 8564, Note_on_c, 0, 80, 20
1, 8566, Note_off_c, 0, 44, 64
1, 8566, Note_off_c, 0, 82, 64
1, 8567, Note_on_c, 0, 46, 44
1, 8567, Note_on_c, 0, 74, 26
1, 8567, Note_off_c, 0, 81, 64
1, 8567, Note_on_c, 0, 82, 43
1, 8568, Note_off_c, 0, 76, 64
1, 8568, Note_on_c, 0, 77, 28
1, 8569, Note_off_c, 0, 46, 64
1, 8570, Note_on_c, 0, 48, 44
1, 8570, Note_off_c, 0, 80, 64
1, 8570, Note_on_c, 0, 81, 32
1, 8571, Note_on_c, 0, 83, 47
1, 8572, Note_off_c, 0, 48, 64
1, 8572, Note_off_c, 0, 82, 64
1, 8572, Note_on_c, 0, 87, 16
1, 8573, Note_on_c, 0, 72, 24
1, 8573, Note_on_c, 0, 78, 29
1, 8574, Note_off_c, 0, 74, 64
1, 8574, Note_on_c, 0, 75, 33
1, 8574, Note_on_c, 0, 79, 25
1, 8574, Note_on_c, 0, 96, 14
1, 8575, Note_off_c, 0, 77, 64
1, 8576, Note_on_c, 0, 53, 49
1, 8576, Note_on_c, 0, 60, 34
1, 8576, Note_on_c, 0, 64, 25
1, 8576, Note_off_c, 0, 72, 64
1, 8577, Note_on_c, 0, 69, 25
1, 8577, Note_on_c, 0, 74, 29
1, 8577, Note_off_c, 0, 75, 64
1, 8577, Note_on_c, 0, 76, 29
1, 8577, Note_off_c, 0, 79, 64
1, 8577, Note_on_c, 0, 84, 35
1, 8577, Note_off_c, 0, 87, 64
1, 8577, Note_on_c, 0, 99, 9
1, 8578, Note_off_c, 0, 60, 64
1, 8578, Note_on_c, 0, 79, 31
1, 8578, Note_off_c, 0, 81, 64
1, 8578, Note_on_c, 0, 87, 11
1, 8579, Note_on_c, 0, 71, 30
1, 8579, Note_off_c, 0, 76, 64
1, 8579, Note_off_c, 0, 78, 64
1, 8579, Note_on_c, 0, 82, 37
1, 8579, Note_off_c, 0, 84, 64
1, 8579, Note_off_c, 0, 96, 64
1, 8580, Note_off_c, 0, 64, 64
1, 8580, Note_off_c, 0, 69, 64
1, 8580, Note_on_c, 0, 81, 35
1, 8580, Note_on_c, 0, 84, 36
1, 8581, Note_off_c, 0, 53, 64
1, 8581, Note_on_c, 0, 70, 21
1, 8581, Note_off_c, 0, 71, 64
1, 8581, Note_on_c, 0, 76, 41
1, 8581, Note_on_c, 0, 78, 40
1, 8581, Note_off_c, 0, 87, 64
1, 8581, Note_on_c, 0, 89, 11
1, 8581, Note_on_c, 0, 98, 10
1, 8581, Note_off_c, 0, 99, 64
1, 8581, Note_on_c, 0, 101, 16
1, 8582, Note_off_c, 0, 74, 64
1, 8582, Note_off_c, 0, 79, 64
1, 8582, Note_off_c, 0, 82, 64
1, 8582, Note_off_c, 0, 84, 64
1, 8582, Note_on_c, 0, 85, 28
1, 8583, Note_off_c, 0, 81, 64
1, 8583, Note_on_c, 0, 86, 20
1, 8583, Note_on_c, 0, 94, 12
1, 8583, Note_on_c, 0, 99, 14
1, 8584, Note_off_c, 0, 70, 64
1, 8584, Note_on_c, 0, 80, 18
1, 8584, Note_on_c, 0, 84, 37
1, 8584, Note_off_c, 0, 89, 64
1, 8584, Note_on_c, 0, 93, 26
1, 8584, Note_off_c, 0, 98, 64
1, 8584, Note_on_c, 0, 102, 19
1, 8585, Note_on_c, 0, 53, 52
1, 8585, Note_on_c, 0, 81, 37
1, 8585, Note_off_c, 0, 83, 64
1, 8586, Note_on_c, 0, 61, 31
1, 8586, Note_on_c, 0, 67, 26
1, 8586, Note_on_c, 0, 70, 22
1, 8586, Note_on_c, 0, 75, 29
1, 8586, Note_off_c, 0, 76, 64
1, 8586, Note_on_c, 0, 92, 24
1, 8586, Note_off_c, 0, 94, 64
1, 8587, Note_off_c, 0, 80, 64
1, 8587, Note_off_c, 0, 85, 64
1, 8587, Note_off_c, 0, 99, 64
1, 8587, Note_off_c, 0, 101, 64
1, 8588, Note_off_c, 0, 61, 64
1, 8588, Note_off_c, 0, 75, 64
1, 8588, Note_on_c, 0, 76, 42
1, 8588, Note_on_c, 0, 83, 36
1, 8588, Note_off_c, 0, 86, 64
1, 8589, Note_on_c, 0, 63, 49
1, 8589, Note_off_c, 0, 70, 64
1, 8589, Note_on_c, 0, 71, 42
1, 8589, Note_on_c, 0, 80, 40
1, 8589, Note_on_c, 0, 87, 30
1, 8589, Note_on_c, 0, 94, 25
1, 8589, Note_on_c, 0, 97, 22
1, 8589, Note_on_c, 0, 101, 21
1, 8589, Note_on_c, 0, 103, 17
1, 8590, Note_off_c, 0, 53, 64
1, 8590, Note_off_c, 0, 67, 64
1, 8590, Note_on_c, 0, 74, 40
1, 8590, Note_off_c, 0, 78, 64
1, 8590, Note_on_c, 0, 79, 38
1, 8590, Note_off_c, 0, 81, 64
1, 8590, Note_on_c, 0, 82, 42
1, 8590, Note_off_c, 0, 83, 64
1, 8590, Note_off_c, 0, 84, 64
1, 8590, Note_on_c, 0, 85, 37
1, 8591, Note_on_c, 0, 53, 73
1, 8591, Note_off_c, 0, 63, 64
1, 8591, Note_on_c, 0, 64, 53
1, 8591, Note_on_c, 0, 68, 46
1, 8591, Note_off_c, 0, 71, 64
1, 8591, Note_on_c, 0, 84, 30
1, 8592, Note_on_c, 0, 48, 84
1, 8592, Note_off_c, 0, 53, 64
1, 8592, Note_off_c, 0, 79, 64
1, 8592, Note_off_c, 0, 85, 64
1, 8592, Note_off_c, 0, 92, 64
1, 8592, Note_off_c, 0, 93, 64
1, 8592, Note_off_c, 0, 94, 64
1, 8592, Note_off_c, 0, 97, 64
1, 8592, Note_off_c, 0, 101, 64
1, 8592, Note_off_c, 0, 102, 64
1, 8592, Note_off_c, 0, 103, 64
1, 8593, Note_on_c, 0, 45, 94
1, 8593, Note_off_c, 0, 48, 64
1, 8593, Note_on_c, 0, 58, 16
1, 8593, Note_on_c, 0, 72, 14
1, 8593, Note_off_c, 0, 80, 64
1, 8593, Note_off_c, 0, 87, 64
1, 8594, Note_on_c, 0, 42, 99
1, 8594, Note_off_c, 0, 45, 64
1, 8594, Note_off_c, 0, 74, 64
1, 8594, Note_off_c, 0, 82, 64
1, 8594, Note_on_c, 0, 86, 27
1, 8595, Note_on_c, 0, 40, 99
1, 8595, Note_off_c, 0, 42, 64
1, 8595, Note_off_c, 0, 76, 64
1, 8596, Note_on_c, 0, 38, 98
1, 8596, Note_off_c, 0, 40, 64
1, 8596, Note_off_c, 0, 64, 64
1, 8596, Note_off_c, 0, 72, 64
1, 8596, Note_off_c, 0, 84, 64
1, 8596, Note_on_c, 0, 85, 15
1, 8597, Note_on_c, 0, 37, 99
1, 8597, Note_off_c, 0, 38, 64
1, 8597, Note_off_c, 0, 58, 64
1, 8597, Note_off_c, 0, 68, 64
1, 8598, Note_on_c, 0, 35, 97
1, 8598, Note_off_c, 0, 37, 64
1, 8599, Note_on_c, 0, 34, 96
1, 8599, Note_off_c, 0, 35, 64
1, 8599, Note_on_c, 0, 64, 15
1, 8599, Note_on_c, 0, 72, 17
1, 8599, Note_on_c, 0, 77, 14
1, 8600, Note_on_c, 0, 33, 95
1, 8600, Note_off_c, 0, 34, 64
1, 8600, Note_off_c, 0, 85, 64
1, 8601, Note_on_c, 0, 49, 26
1, 8601, Note_on_c, 0, 70, 21
1, 8601, Note_on_c, 0, 81, 25
1, 8602, Note_on_c, 0, 32, 96
1, 8602, Note_off_c, 0, 33, 64
1, 8602, Note_on_c, 0, 68, 18
1, 8602, Note_off_c, 0, 72, 64
1, 8602, Note_on_c, 0, 75, 14
1, 8602, Note_off_c, 0, 77, 64
1, 8602, Note_on_c, 0, 78, 27
1, 8603, Note_off_c, 0, 64, 64
1, 8603, Note_on_c, 0, 84, 21
1, 8603, Note_on_c, 0, 87, 35
1, 8603, Note_on_c, 0, 88, 15
1, 8604, Note_on_c, 0, 31, 94
1, 8604, Note_off_c, 0, 32, 64
1, 8604, Note_off_c, 0, 49, 64
1, 8604, Note_off_c, 0, 70, 64
1, 8604, Note_on_c, 0, 83, 24
1, 8605, Note_on_c, 0, 64, 32
1, 8605, Note_on_c, 0, 73, 30
1, 8605, Note_off_c, 0, 75, 64
1, 8605, Note_off_c, 0, 86, 64
1, 8606, Note_on_c, 0, 30, 81
1, 8606, Note_off_c, 0, 31, 64
1, 8606, Note_on_c, 0, 80, 32
1, 8606, Note_on_c, 0, 82, 22
1, 8606, Note_on_c, 0, 86, 35
1, 8606, Note_on_c, 0, 89, 20
1, 8607, Note_off_c, 0, 78, 64
1, 8607, Note_off_c, 0, 81, 64
1, 8607, Note_off_c, 0, 84, 64
1, 8607, Note_off_c, 0, 88, 64
1, 8608, Note_off_c, 0, 30, 64
1, 8608, Note_off_c, 0, 80, 64
1, 8608, Note_on_c, 0, 81, 34
1, 8608, Note_on_c, 0, 84, 36
1, 8608, Note_off_c, 0, 86, 64
1, 8609, Note_on_c, 0, 48, 42
1, 8609, Note_off_c, 0, 68, 64
1, 8609, Note_on_c, 0, 78, 36
1, 8609, Note_on_c, 0, 80, 37
1, 8609, Note_off_c, 0, 82, 64
1, 8609, Note_off_c, 0, 83, 64
1, 8610, Note_on_c, 0, 57, 30
1, 8610, Note_off_c, 0, 81, 64
1, 8610, Note_on_c, 0, 86, 35
1, 8610, Note_off_c, 0, 89, 64
1, 8611, Note_off_c, 0, 64, 64
1, 8611, Note_on_c, 0, 67, 31
1, 8611, Note_off_c, 0, 80, 64
1, 8611, Note_on_c, 0, 81, 39
1, 8611, Note_off_c, 0, 84, 64
1, 8611, Note_on_c, 0, 88, 41
1, 8611, Note_on_c, 0, 95, 9
1, 8612, Note_on_c, 0, 64, 32
1, 8612, Note_off_c, 0, 73, 64
1, 8612, Note_on_c, 0, 74, 33
1, 8612, Note_on_c, 0, 77, 25
1, 8612, Note_on_c, 0, 89, 32
1, 8613, Note_on_c, 0, 47, 29
1, 8613, Note_off_c, 0, 48, 64
1, 8613, Note_off_c, 0, 67, 64
1, 8613, Note_off_c, 0, 78, 64
1, 8614, Note_off_c, 0, 57, 64
1, 8614, Note_on_c, 0, 58, 13
1, 8614, Note_on_c, 0, 78, 44
1, 8614, Note_on_c, 0, 83, 39
1, 8614, Note_off_c, 0, 87, 64
1, 8614, Note_off_c, 0, 95, 64
1, 8615, Note_off_c, 0, 47, 64
1, 8615, Note_on_c, 0, 48, 33
1, 8615, Note_on_c, 0, 63, 34
1, 8615, Note_off_c, 0, 64, 64
1, 8615, Note_on_c, 0, 69, 44
1, 8615, Note_off_c, 0, 77, 64
1, 8615, Note_on_c, 0, 87, 31
1, 8616, Note_off_c, 0, 74, 64
1, 8616, Note_on_c, 0, 75, 35
1, 8616, Note_on_c, 0, 85, 36
1, 8616, Note_off_c, 0, 89, 64
1, 8617, Note_off_c, 0, 58, 64
1, 8617, Note_on_c, 0, 62, 31
1, 8617, Note_off_c, 0, 63, 64
1, 8617, Note_on_c, 0, 80, 33
1, 8617, Note_off_c, 0, 88, 64
1, 8617, Note_on_c, 0, 89, 38
1, 8617, Note_on_c, 0, 92, 33
1, 8617, Note_on_c, 0, 103, 24
1, 8618, Note_on_c, 0, 65, 50
1, 8618, Note_on_c, 0, 71, 36
1, 8618, Note_on_c, 0, 73, 41
1, 8618, Note_off_c, 0, 75, 64
1, 8618, Note_on_c, 0, 76, 35
1, 8618, Note_on_c, 0, 82, 45
1, 8618, Note_on_c, 0, 91, 26
1, 8618, Note_on_c, 0, 96, 21
1, 8618, Note_on_c, 0, 100, 19
1, 8619, Note_off_c, 0, 48, 64
1, 8619, Note_off_c, 0, 62, 64
1, 8619, Note_on_c, 0, 75, 37
1, 8619, Note_off_c, 0, 78, 64
1, 8619, Note_on_c, 0, 79, 38
1, 8620, Note_on_c, 0, 51, 75
1, 8620, Note_on_c, 0, 68, 36
1, 8620, Note_off_c, 0, 69, 64
1, 8620, Note_off_c, 0, 86, 64
1, 8620, Note_off_c, 0, 92, 64
1, 8621, Note_on_c, 0, 46, 88
1, 8621, Note_off_c, 0, 51, 64
1, 8621, Note_on_c, 0, 69, 30
1, 8621, Note_off_c, 0, 71, 64
1, 8621, Note_on_c, 0, 74, 36
1, 8621, Note_off_c, 0, 75, 64
1, 8621, Note_on_c, 0, 78, 39
1, 8621, Note_off_c, 0, 79, 64
1, 8621, Note_off_c, 0, 81, 64
1, 8621, Note_off_c, 0, 85, 64
1, 8621, Note_off_c, 0, 87, 64
1, 8621, Note_off_c, 0, 89, 64
1, 8621, Note_off_c, 0, 103, 64
1, 8622, Note_on_c, 0, 44, 95
1, 8622, Note_off_c, 0, 46, 64
1, 8622, Note_off_c, 0, 65, 64
1, 8622, Note_off_c, 0, 68, 64
1, 8622, Note_on_c, 0, 72, 34
1, 8622, Note_off_c, 0, 73, 64
1, 8622, Note_off_c, 0, 80, 64
1, 8622, Note_on_c, 0, 85, 20
1, 8622, Note_on_c, 0, 87, 19
1, 8622, Note_on_c, 0, 92, 13
1, 8623, Note_on_c, 0, 41, 100
1, 8623, Note_off_c, 0, 44, 64
1, 8623, Note_on_c, 0, 68, 24
1, 8623, Note_off_c, 0, 69, 64
1, 8623, Note_off_c, 0, 76, 64
1, 8623, Note_on_c, 0, 81, 33
1, 8623, Note_off_c, 0, 82, 64
1, 8624, Note_on_c, 0, 39, 96
1, 8624, Note_off_c, 0, 41, 64
1, 8624, Note_on_c, 0, 82, 39
1, 8624, Note_off_c, 0, 83, 64
1, 8624, Note_on_c, 0, 89, 24
1, 8624, Note_off_c, 0, 96, 64
1, 8625, Note_on_c, 0, 38, 92
1, 8625, Note_off_c, 0, 39, 64
1, 8625, Note_on_c, 0, 63, 23
1, 8625, Note_off_c, 0, 74, 64
1, 8625, Note_on_c, 0, 75, 29
1, 8625, Note_off_c, 0, 85, 64
1, 8625, Note_off_c, 0, 92, 64
1, 8625, Note_off_c, 0, 100, 64
1, 8626, Note_off_c, 0, 38, 64
1, 8626, Note_on_c, 0, 39, 86
1, 8626, Note_off_c, 0, 68, 64
1, 8626, Note_on_c, 0, 85, 22
1, 8627, Note_on_c, 0, 38, 91
1, 8627, Note_off_c, 0, 39, 64
1, 8627, Note_off_c, 0, 72, 64
1, 8627, Note_on_c, 0, 80, 16
1, 8627, Note_off_c, 0, 81, 64
1, 8627, Note_off_c, 0, 82, 64
1, 8627, Note_on_c, 0, 83, 18
1, 8628, Note_on_c, 0, 34, 94
1, 8628, Note_off_c, 0, 38, 64
1, 8628, Note_on_c, 0, 58, 48
1, 8628, Note_off_c, 0, 63, 64
1, 8628, Note_on_c, 0, 64, 36
1, 8628, Note_off_c, 0, 75, 64
1, 8628, Note_off_c, 0, 78, 64
1, 8628, Note_off_c, 0, 87, 64
1, 8628, Note_off_c, 0, 91, 64
1, 8629, Note_on_c, 0, 33, 94
1, 8629, Note_off_c, 0, 34, 64
1, 8629, Note_off_c, 0, 85, 64
1, 8629, Note_off_c, 0, 89, 64
1, 8630, Note_on_c, 0, 32, 96
1, 8630, Note_off_c, 0, 33, 64
1, 8630, Note_off_c, 0, 58, 64
1, 8630, Note_off_c, 0, 83, 64
1, 8631, Note_on_c, 0, 31, 95
1, 8631, Note_off_c, 0, 32, 64
1, 8631, Note_on_c, 0, 63, 40
1, 8631, Note_off_c, 0, 64, 64
1, 8632, Note_off_c, 0, 80, 64
1, 8634, Note_on_c, 0, 30, 79
1, 8634, Note_off_c, 0, 31, 64
1, 8634, Note_on_c, 0, 58, 18
1, 8636, Note_off_c, 0, 30, 64
1, 8636, Note_off_c, 0, 63, 64
1, 8637, Note_off_c, 0, 58, 64
1, 8637, Note_on_c, 0, 63, 27
1, 8638, Note_on_c, 0, 57, 46
1, 8638, Note_on_c, 0, 72, 14
1, 8641, Note_off_c, 0, 72, 64
1, 8645, Note_off_c, 0, 63, 64
1, 8645, Note_on_c, 0, 65, 30
1, 8645, Note_on_c, 0, 73, 19
1, 8646, Note_on_c, 0, 48, 37
1, 8646, Note_off_c, 0, 57, 64
1, 8646, Note_on_c, 0, 70, 22
1, 8646, Note_on_c, 0, 75, 24
1, 8646, Note_on_c, 0, 102, 17
1, 8647, Note_on_c, 0, 60, 52
1, 8647, Note_off_c, 0, 65, 64
1, 8647, Note_on_c, 0, 74, 29
1, 8647, Note_on_c, 0, 78, 24
1, 8647, Note_on_c, 0, 88, 20
1, 8647, Note_on_c, 0, 97, 13
1, 8648, Note_on_c, 0, 47, 45
1, 8648, Note_off_c, 0, 48, 64
1, 8648, Note_off_c, 0, 73, 64
1, 8649, Note_off_c, 0, 60, 64
1, 8649, Note_off_c, 0, 75, 64
1, 8649, Note_off_c, 0, 102, 64
1, 8650, Note_on_c, 0, 58, 34
1, 8650, Note_off_c, 0, 88, 64
1, 8651, Note_off_c, 0, 47, 64
1, 8651, Note_off_c, 0, 70, 64
1, 8651, Note_on_c, 0, 77, 28
1, 8651, Note_off_c, 0, 78, 64
1, 8651, Note_on_c, 0, 81, 15
1, 8651, Note_on_c, 0, 101, 13
1, 8652, Note_off_c, 0, 58, 64
1, 8652, Note_off_c, 0, 74, 64
1, 8653, Note_on_c, 0, 45, 57
1, 8653, Note_on_c, 0, 65, 18
1, 8653, Note_on_c, 0, 94, 11
1, 8653, Note_on_c, 0, 100, 14
1, 8654, Note_off_c, 0, 81, 64
1, 8656, Note_on_c, 0, 80, 11
1, 8656, Note_on_c, 0, 102, 19
1, 8657, Note_on_c, 0, 88, 16
1, 8657, Note_off_c, 0, 94, 64
1, 8657, Note_off_c, 0, 100, 64
1, 8657, Note_on_c, 0, 103, 13
1, 8658, Note_on_c, 0, 44, 55
1, 8658, Note_off_c, 0, 45, 64
1, 8658, Note_on_c, 0, 59, 31
1, 8658, Note_off_c, 0, 97, 64
1, 8659, Note_off_c, 0, 77, 64
1, 8659, Note_off_c, 0, 101, 64
1, 8659, Note_off_c, 0, 102, 64
1, 8660, Note_off_c, 0, 59, 64
1, 8660, Note_off_c, 0, 65, 64
1, 8660, Note_off_c, 0, 80, 64
1, 8660, Note_off_c, 0, 103, 64
1, 8661, Note_off_c, 0, 44, 64
1, 8661, Note_on_c, 0, 89, 32
1, 8661, Note_on_c, 0, 100, 23
1, 8661, Note_on_c, 0, 102, 22
1, 8662, Note_on_c, 0, 44, 34
1, 8663, Note_on_c, 0, 87, 32
1, 8663, Note_off_c, 0, 88, 64
1, 8664, Note_off_c, 0, 44, 64
1, 8664, Note_on_c, 0, 70, 47
1, 8664, Note_on_c, 0, 74, 39
1, 8664, Note_on_c, 0, 76, 39
1, 8664, Note_on_c, 0, 78, 43
1, 8664, Note_on_c, 0, 81, 35
1, 8664, Note_on_c, 0, 84, 34
1, 8664, Note_on_c, 0, 91, 26
1, 8664, Note_on_c, 0, 92, 32
1, 8664, Note_on_c, 0, 95, 25
1, 8664, Note_on_c, 0, 97, 23
1, 8666, Note_on_c, 0, 53, 72
1, 8666, Note_off_c, 0, 70, 64
1, 8666, Note_on_c, 0, 75, 30
1, 8666, Note_off_c, 0, 76, 64
1, 8666, Note_on_c, 0, 77, 27
1, 8666, Note_on_c, 0, 83, 15
1, 8667, Note_on_c, 0, 48, 85
1, 8667, Note_off_c, 0, 53, 64
1, 8667, Note_off_c, 0, 84, 64
1, 8667, Note_off_c, 0, 89, 64
1, 8667, Note_off_c, 0, 91, 64
1, 8667, Note_off_c, 0, 92, 64
1, 8667, Note_off_c, 0, 97, 64
1, 8667, Note_off_c, 0, 100, 64
1, 8667, Note_off_c, 0, 102, 64
1, 8668, Note_on_c, 0, 45, 95
1, 8668, Note_off_c, 0, 48, 64
1, 8668, Note_off_c, 0, 74, 64
1, 8668, Note_off_c, 0, 78, 64
1, 8668, Note_on_c, 0, 85, 12
1, 8669, Note_on_c, 0, 42, 99
1, 8669, Note_off_c, 0, 45, 64
1, 8669, Note_on_c, 0, 74, 26
1, 8669, Note_off_c, 0, 75, 64
1, 8669, Note_off_c, 0, 77, 64
1, 8669, Note_off_c, 0, 83, 64
1, 8669, Note_off_c, 0, 95, 64
1, 8670, Note_on_c, 0, 40, 98
1, 8670, Note_off_c, 0, 42, 64
1, 8670, Note_off_c, 0, 87, 64
1, 8671, Note_on_c, 0, 38, 98
1, 8671, Note_off_c, 0, 40, 64
1, 8671, Note_on_c, 0, 87, 20
1, 8672, Note_on_c, 0, 37, 98
1, 8672, Note_off_c, 0, 38, 64
1, 8672, Note_on_c, 0, 80, 19
1, 8672, Note_off_c, 0, 81, 64
1, 8673, Note_on_c, 0, 35, 97
1, 8673, Note_off_c, 0, 37, 64
1, 8673, Note_off_c, 0, 85, 64
1, 8674, Note_on_c, 0, 34, 95
1, 8674, Note_off_c, 0, 35, 64
1, 8674, Note_on_c, 0, 82, 21
1, 8674, Note_on_c, 0, 85, 14
1, 8675, Note_on_c, 0, 33, 95
1, 8675, Note_off_c, 0, 34, 64
1, 8675, Note_off_c, 0, 74, 64
1, 8675, Note_off_c, 0, 87, 64
1, 8676, Note_on_c, 0, 32, 96
1, 8676, Note_off_c, 0, 33, 64
1, 8676, Note_on_c, 0, 78, 27
1, 8678, Note_on_c, 0, 31, 95
1, 8678, Note_off_c, 0, 32, 64
1, 8678, Note_off_c, 0, 80, 64
1, 8678, Note_on_c, 0, 83, 21
1, 8679, Note_on_c, 0, 81, 26
1, 8679, Note_off_c, 0, 82, 64
1, 8680, Note_on_c, 0, 30, 86
1, 8680, Note_off_c, 0, 31, 64
1, 8681, Note_on_c, 0, 82, 27
1, 8682, Note_off_c, 0, 30, 64
1, 8682, Note_on_c, 0, 77, 25
1, 8682, Note_on_c, 0, 80, 24
1, 8682, Note_off_c, 0, 81, 64
1, 8682, Note_off_c, 0, 83, 64
1, 8682, Note_off_c, 0, 85, 64
1, 8682, Note_on_c, 0, 91, 16
1, 8683, Note_on_c, 0, 74, 34
1, 8683, Note_on_c, 0, 83, 33
1, 8683, Note_on_c, 0, 84, 22
1, 8684, Note_on_c, 0, 42, 66
1, 8684, Note_off_c, 0, 78, 64
1, 8684, Note_on_c, 0, 90, 17
1, 8685, Note_on_c, 0, 32, 72
1, 8685, Note_off_c, 0, 42, 64
1, 8685, Note_on_c, 0, 61, 32
1, 8685, Note_off_c, 0, 77, 64
1, 8685, Note_on_c, 0, 78, 25
1, 8685, Note_on_c, 0, 81, 32
1, 8685, Note_off_c, 0, 82, 64
1, 8685, Note_off_c, 0, 91, 64
1, 8686, Note_on_c, 0, 30, 80
1, 8686, Note_off_c, 0, 32, 64
1, 8686, Note_off_c, 0, 74, 64
1, 8686, Note_on_c, 0, 75, 30
1, 8686, Note_off_c, 0, 80, 64
1, 8686, Note_off_c, 0, 84, 64
1, 8687, Note_on_c, 0, 29, 81
1, 8687, Note_off_c, 0, 30, 64
1, 8687, Note_on_c, 0, 89, 19
1, 8687, Note_on_c, 0, 91, 19
1, 8688, Note_off_c, 0, 61, 64
1, 8688, Note_on_c, 0, 74, 25
1, 8688, Note_off_c, 0, 75, 64
1, 8688, Note_off_c, 0, 90, 64
1, 8689, Note_off_c, 0, 29, 64
1, 8689, Note_on_c, 0, 30, 76
1, 8689, Note_on_c, 0, 84, 29
1, 8690, Note_off_c, 0, 78, 64
1, 8690, Note_on_c, 0, 80, 36
1, 8690, Note_on_c, 0, 88, 18
1, 8691, Note_on_c, 0, 29, 74
1, 8691, Note_off_c, 0, 30, 64
1, 8691, Note_on_c, 0, 73, 22
1, 8691, Note_off_c, 0, 74, 64
1, 8691, Note_off_c, 0, 81, 64
1, 8691, Note_off_c, 0, 91, 64
1, 8691, Note_on_c, 0, 97, 10
1, 8692, Note_on_c, 0, 87, 29
1, 8692, Note_off_c, 0, 89, 64
1, 8692, Note_on_c, 0, 91, 24
1, 8693, Note_on_c, 0, 75, 14
1, 8693, Note_on_c, 0, 78, 35
1, 8693, Note_off_c, 0, 80, 64
1, 8693, Note_on_c, 0, 81, 35
1, 8693, Note_on_c, 0, 85, 26
1, 8694, Note_off_c, 0, 29, 64
1, 8694, Note_on_c, 0, 30, 80
1, 8694, Note_on_c, 0, 61, 32
1, 8694, Note_on_c, 0, 68, 15
1, 8695, Note_on_c, 0, 49, 60
1, 8695, Note_on_c, 0, 80, 23
1, 8695, Note_off_c, 0, 81, 64
1, 8695, Note_off_c, 0, 91, 64
1, 8695, Note_off_c, 0, 97, 64
1, 8696, Note_off_c, 0, 75, 64
1, 8696, Note_on_c, 0, 81, 32
1, 8696, Note_off_c, 0, 83, 64
1, 8696, Note_on_c, 0, 86, 22
1, 8697, Note_on_c, 0, 63, 25
1, 8697, Note_off_c, 0, 73, 64
1, 8697, Note_on_c, 0, 77, 32
1, 8697, Note_on_c, 0, 83, 41
1, 8697, Note_off_c, 0, 84, 64
1, 8697, Note_off_c, 0, 85, 64
1, 8698, Note_on_c, 0, 29, 76
1, 8698, Note_off_c, 0, 30, 64
1, 8698, Note_off_c, 0, 49, 64
1, 8698, Note_off_c, 0, 78, 64
1, 8698, Note_off_c, 0, 80, 64
1, 8699, Note_off_c, 0, 29, 64
1, 8699, Note_on_c, 0, 30, 74
1, 8699, Note_off_c, 0, 61, 64
1, 8700, Note_off_c, 0, 63, 64
1, 8700, Note_off_c, 0, 68, 64
1, 8700, Note_off_c, 0, 77, 64
1, 8700, Note_on_c, 0, 78, 33
1, 8700, Note_on_c, 0, 84, 25
1, 8700, Note_off_c, 0, 86, 64
1, 8700, Note_off_c, 0, 88, 64
1, 8701, Note_off_c, 0, 30, 64
1, 8701, Note_on_c, 0, 35, 69
1, 8701, Note_on_c, 0, 80, 35
1, 8701, Note_on_c, 0, 89, 31
1, 8701, Note_on_c, 0, 98, 26
1, 8702, Note_on_c, 0, 72, 43
1, 8702, Note_on_c, 0, 85, 30
1, 8702, Note_on_c, 0, 91, 25
1, 8703, Note_off_c, 0, 35, 64
1, 8703, Note_on_c, 0, 64, 52
1, 8703, Note_off_c, 0, 81, 64
1, 8703, Note_on_c, 0, 82, 30
1, 8703, Note_off_c, 0, 84, 64
1, 8703, Note_on_c, 0, 86, 24
1, 8704, Note_on_c, 0, 50, 79
1, 8704, Note_off_c, 0, 83, 64
1, 8704, Note_off_c, 0, 89, 64
1, 8704, Note_off_c, 0, 98, 64
1, 8705, Note_on_c, 0, 46, 89
1, 8705, Note_off_c, 0, 50, 64
1, 8705, Note_off_c, 0, 72, 64
1, 8706, Note_on_c, 0, 42, 95
1, 8706, Note_off_c, 0, 46, 64
1, 8706, Note_off_c, 0, 64, 64
1, 8706, Note_off_c, 0, 82, 64
1, 8706, Note_off_c, 0, 85, 64
1, 8706, Note_off_c, 0, 87, 64
1, 8706, Note_off_c, 0, 91, 64
1, 8707, Note_on_c, 0, 41, 99
1, 8707, Note_off_c, 0, 42, 64
1, 8707, Note_off_c, 0, 78, 64
1, 8708, Note_on_c, 0, 39, 97
1, 8708, Note_off_c, 0, 41, 64
1, 8708, Note_off_c, 0, 80, 64
1, 8709, Note_on_c, 0, 37, 98
1, 8709, Note_off_c, 0, 39, 64
1, 8710, Note_on_c, 0, 36, 97
1, 8710, Note_off_c, 0, 37, 64
1, 8710, Note_off_c, 0, 86, 64
1, 8711, Note_on_c, 0, 35, 96
1, 8711, Note_off_c, 0, 36, 64
1, 8711, Note_on_c, 0, 81, 11
1, 8712, Note_on_c, 0, 34, 95
1, 8712, Note_off_c, 0, 35, 64
1, 8713, Note_on_c, 0, 33, 95
1, 8713, Note_off_c, 0, 34, 64
1, 8714, Note_on_c, 0, 32, 96
1, 8714, Note_off_c, 0, 33, 64
1, 8714, Note_on_c, 0, 78, 27
1, 8714, Note_on_c, 0, 80, 15
1, 8714, Note_off_c, 0, 81, 64
1, 8715, Note_on_c, 0, 31, 95
1, 8715, Note_off_c, 0, 32, 64
1, 8715, Note_on_c, 0, 75, 16
1, 8715, Note_on_c, 0, 83, 24
1, 8716, Note_on_c, 0, 81, 21
1, 8718, Note_on_c, 0, 30, 81
1, 8718, Note_off_c, 0, 31, 64
1, 8718, Note_off_c, 0, 80, 64
1, 8718, Note_on_c, 0, 86, 11
1, 8719, Note_off_c, 0, 81, 64
1, 8720, Note_off_c, 0, 75, 64
1, 8720, Note_on_c, 0, 82, 27
1, 8721, Note_off_c, 0, 30, 64
1, 8721, Note_off_c, 0, 83, 64
1, 8722, Note_on_c, 0, 36, 71
1, 8722, Note_on_c, 0, 61, 36
1, 8722, Note_on_c, 0, 64, 27
1, 8722, Note_on_c, 0, 68, 17
1, 8722, Note_on_c, 0, 70, 18
1, 8722, Note_on_c, 0, 77, 19
1, 8723, Note_on_c, 0, 31, 76
1, 8723, Note_off_c, 0, 36, 64
1, 8723, Note_on_c, 0, 75, 25
1, 8723, Note_off_c, 0, 86, 64
1, 8724, Note_on_c, 0, 30, 80
1, 8724, Note_off_c, 0, 31, 64
1, 8724, Note_off_c, 0, 78, 64
1, 8724, Note_on_c, 0, 79, 16
1, 8724, Note_on_c, 0, 84, 22
1, 8725, Note_on_c, 0, 29, 80
1, 8725, Note_off_c, 0, 30, 64
1, 8725, Note_off_c, 0, 64, 64
1, 8725, Note_off_c, 0, 70, 64
1, 8725, Note_off_c, 0, 77, 64
1, 8726, Note_off_c, 0, 68, 64
1, 8726, Note_on_c, 0, 74, 30
1, 8726, Note_off_c, 0, 75, 64
1, 8727, Note_off_c, 0, 29, 64
1, 8727, Note_on_c, 0, 30, 76
1, 8727, Note_off_c, 0, 61, 64
1, 8727, Note_on_c, 0, 78, 31
1, 8727, Note_off_c, 0, 79, 64
1, 8727, Note_on_c, 0, 81, 26
1, 8729, Note_on_c, 0, 29, 73
1, 8729, Note_off_c, 0, 30, 64
1, 8729, Note_on_c, 0, 49, 44
1, 8729, Note_on_c, 0, 75, 20
1, 8729, Note_on_c, 0, 83, 18
1, 8730, Note_off_c, 0, 74, 64
1, 8730, Note_on_c, 0, 76, 26
1, 8731, Note_off_c, 0, 29, 64
1, 8731, Note_on_c, 0, 30, 79
1, 8731, Note_off_c, 0, 49, 64
1, 8731, Note_on_c, 0, 61, 29
1, 8731, Note_on_c, 0, 68, 21
1, 8731, Note_on_c, 0, 71, 28
1, 8731, Note_off_c, 0, 78, 64
1, 8732, Note_off_c, 0, 75, 64
1, 8732, Note_on_c, 0, 78, 35
1, 8732, Note_off_c, 0, 82, 64
1, 8732, Note_off_c, 0, 84, 64
1, 8732, Note_on_c, 0, 86, 17
1, 8733, Note_on_c, 0, 49, 60
1, 8733, Note_off_c, 0, 61, 64
1, 8733, Note_on_c, 0, 74, 22
1, 8734, Note_on_c, 0, 29, 80
1, 8734, Note_off_c, 0, 30, 64
1, 8735, Note_off_c, 0, 68, 64
1, 8735, Note_off_c, 0, 86, 64
1, 8736, Note_off_c, 0, 49, 64
1, 8736, Note_on_c, 0, 82, 20
1, 8736, Note_off_c, 0, 83, 64
1, 8737, Note_off_c, 0, 29, 64
1, 8737, Note_on_c, 0, 30, 72
1, 8737, Note_off_c, 0, 74, 64
1, 8737, Note_on_c, 0, 83, 40
1, 8738, Note_off_c, 0, 30, 64
1, 8738, Note_on_c, 0, 34, 71
1, 8738, Note_on_c, 0, 54, 30
1, 8738, Note_off_c, 0, 76, 64
1, 8738, Note_on_c, 0, 80, 34
1, 8738, Note_off_c, 0, 81, 64
1, 8739, Note_off_c, 0, 34, 64
1, 8739, Note_on_c, 0, 60, 51
1, 8739, Note_off_c, 0, 82, 64
1, 8739, Note_on_c, 0, 85, 32
1, 8739, Note_on_c, 0, 87, 33
1, 8739, Note_on_c, 0, 89, 28
1, 8739, Note_on_c, 0, 91, 29
1, 8739, Note_on_c, 0, 93, 27
1, 8739, Note_on_c, 0, 94, 22
1, 8739, Note_on_c, 0, 100, 20
1, 8740, Note_off_c, 0, 54, 64
1, 8740, Note_off_c, 0, 71, 64
1, 8740, Note_on_c, 0, 82, 36
1, 8740, Note_on_c, 0, 86, 29
1, 8741, Note_on_c, 0, 53, 72
1, 8741, Note_off_c, 0, 60, 64
1, 8741, Note_on_c, 0, 62, 49
1, 8741, Note_off_c, 0, 80, 64
1, 8742, Note_on_c, 0, 48, 85
1, 8742, Note_off_c, 0, 53, 64
1, 8742, Note_off_c, 0, 82, 64
1, 8742, Note_off_c, 0, 87, 64
1, 8742, Note_off_c, 0, 89, 64
1, 8742, Note_off_c, 0, 91, 64
1, 8742, Note_off_c, 0, 93, 64
1, 8742, Note_off_c, 0, 94, 64
1, 8742, Note_off_c, 0, 100, 64
1, 8743, Note_on_c, 0, 45, 95
1, 8743, Note_off_c, 0, 48, 64
1, 8743, Note_off_c, 0, 78, 64
1, 8744, Note_on_c, 0, 42, 100
1, 8744, Note_off_c, 0, 45, 64
1, 8744, Note_off_c, 0, 62, 64
1, 8744, Note_off_c, 0, 83, 64
1, 8744, Note_off_c, 0, 85, 64
1, 8744, Note_off_c, 0, 86, 64
1, 8745, Note_on_c, 0, 40, 98
1, 8745, Note_off_c, 0, 42, 64
1, 8746, Note_on_c, 0, 38, 98
1, 8746, Note_off_c, 0, 40, 64
1, 8746, Note_on_c, 0, 80, 17
1, 8747, Note_on_c, 0, 36, 98
1, 8747, Note_off_c, 0, 38, 64
1, 8748, Note_on_c, 0, 35, 97
1, 8748, Note_off_c, 0, 36, 64
1, 8749, Note_on_c, 0, 34, 96
1, 8749, Note_off_c, 0, 35, 64
1, 8750, Note_on_c, 0, 33, 96
1, 8750, Note_off_c, 0, 34, 64
1, 8750, Note_off_c, 0, 80, 64
1, 8751, Note_on_c, 0, 32, 96
1, 8751, Note_off_c, 0, 33, 64
1, 8751, Note_on_c, 0, 78, 12
1, 8753, Note_on_c, 0, 31, 95
1, 8753, Note_off_c, 0, 32, 64
1, 8754, Note_off_c, 0, 78, 64
1, 8756, Note_on_c, 0, 30, 73
1, 8756, Note_off_c, 0, 31, 64
1, 8756, Note_on_c, 0, 78, 26
1, 8757, Note_off_c, 0, 30, 64
1, 8758, Note_on_c, 0, 74, 24
1, 8758, Note_on_c, 0, 87, 16
1, 8759, Note_on_c, 0, 37, 67
1, 8759, Note_on_c, 0, 68, 14
1, 8760, Note_on_c, 0, 32, 73
1, 8760, Note_off_c, 0, 37, 64
1, 8760, Note_on_c, 0, 70, 13
1, 8760, Note_off_c, 0, 78, 64
1, 8760, Note_on_c, 0, 82, 15
1, 8760, Note_on_c, 0, 83, 12
1, 8761, Note_on_c, 0, 30, 79
1, 8761, Note_off_c, 0, 32, 64
1, 8761, Note_off_c, 0, 87, 64
1, 8762, Note_on_c, 0, 29, 80
1, 8762, Note_off_c, 0, 30, 64
1, 8762, Note_on_c, 0, 81, 19
1, 8764, Note_off_c, 0, 29, 64
1, 8764, Note_on_c, 0, 30, 76
1, 8764, Note_off_c, 0, 68, 64
1, 8764, Note_off_c, 0, 70, 64
1, 8764, Note_off_c, 0, 82, 64
1, 8764, Note_off_c, 0, 83, 64
1, 8765, Note_on_c, 0, 88, 11
1, 8766, Note_on_c, 0, 29, 74
1, 8766, Note_off_c, 0, 30, 64
1, 8766, Note_off_c, 0, 81, 64
1, 8767, Note_on_c, 0, 81, 32
1, 8768, Note_on_c, 0, 71, 15
1, 8768, Note_on_c, 0, 73, 16
1, 8768, Note_off_c, 0, 74, 64
1, 8768, Note_on_c, 0, 79, 29
1, 8768, Note_on_c, 0, 83, 16
1, 8768, Note_on_c, 0, 86, 15
1, 8768, Note_off_c, 0, 88, 64
1, 8769, Note_off_c, 0, 29, 64
1, 8769, Note_on_c, 0, 30, 79
1, 8769, Note_on_c, 0, 54, 52
1, 8769, Note_on_c, 0, 68, 15
1, 8769, Note_on_c, 0, 76, 18
1, 8769, Note_on_c, 0, 80, 26
1, 8769, Note_off_c, 0, 81, 64
1, 8770, Note_on_c, 0, 49, 62
1, 8771, Note_off_c, 0, 54, 64
1, 8771, Note_off_c, 0, 71, 64
1, 8771, Note_on_c, 0, 78, 36
1, 8771, Note_off_c, 0, 79, 64
1, 8772, Note_on_c, 0, 29, 79
1, 8772, Note_off_c, 0, 30, 64
1, 8772, Note_on_c, 0, 63, 20
1, 8772, Note_off_c, 0, 73, 64
1, 8772, Note_on_c, 0, 75, 23
1, 8772, Note_off_c, 0, 76, 64
1, 8772, Note_off_c, 0, 80, 64
1, 8772, Note_off_c, 0, 83, 64
1, 8772, Note_off_c, 0, 86, 64
1, 8773, Note_off_c, 0, 29, 64
1, 8773, Note_on_c, 0, 30, 77
1, 8773, Note_off_c, 0, 68, 64
1, 8773, Note_on_c, 0, 81, 41
1, 8775, Note_off_c, 0, 30, 64
1, 8775, Note_on_c, 0, 31, 72
1, 8775, Note_off_c, 0, 49, 64
1, 8775, Note_off_c, 0, 75, 64
1, 8775, Note_on_c, 0, 82, 36
1, 8776, Note_off_c, 0, 31, 64
1, 8776, Note_on_c, 0, 35, 69
1, 8776, Note_off_c, 0, 63, 64
1, 8776, Note_on_c, 0, 84, 32
1, 8776, Note_on_c, 0, 86, 33
1, 8776, Note_on_c, 0, 88, 31
1, 8776, Note_on_c, 0, 91, 25
1, 8776, Note_on_c, 0, 97, 19
1, 8777, Note_off_c, 0, 35, 64
1, 8777, Note_on_c, 0, 73, 42
1, 8778, Note_off_c, 0, 82, 64
1, 8779, Note_on_c, 0, 49, 80
1, 8779, Note_off_c, 0, 73, 64
1, 8779, Note_off_c, 0, 78, 64
1, 8779, Note_off_c, 0, 81, 64
1, 8779, Note_off_c, 0, 84, 64
1, 8779, Note_off_c, 0, 86, 64
1, 8779, Note_off_c, 0, 88, 64
1, 8779, Note_off_c, 0, 91, 64
1, 8779, Note_off_c, 0, 97, 64
1, 8780, Note_on_c, 0, 45, 91
1, 8780, Note_off_c, 0, 49, 64
1, 8781, Note_on_c, 0, 42, 97
1, 8781, Note_off_c, 0, 45, 64
1, 8782, Note_on_c, 0, 41, 99
1, 8782, Note_off_c, 0, 42, 64
1, 8783, Note_on_c, 0, 38, 97
1, 8783, Note_off_c, 0, 41, 64
1, 8784, Note_on_c, 0, 37, 98
1, 8784, Note_off_c, 0, 38, 64
1, 8785, Note_on_c, 0, 36, 97
1, 8785, Note_off_c, 0, 37, 64
1, 8786, Note_on_c, 0, 35, 96
1, 8786, Note_off_c, 0, 36, 64
1, 8787, Note_on_c, 0, 34, 96
1, 8787, Note_off_c, 0, 35, 64
1, 8788, Note_on_c, 0, 33, 96
1, 8788, Note_off_c, 0, 34, 64
1, 8789, Note_on_c, 0, 32, 97
1, 8789, Note_off_c, 0, 33, 64
1, 8790, Note_on_c, 0, 31, 96
1, 8790, Note_off_c, 0, 32, 64
1, 8790, Note_on_c, 0, 78, 9
1, 8793, Note_on_c, 0, 30, 80
1, 8793, Note_off_c, 0, 31, 64
1, 8795, Note_off_c, 0, 30, 64
1, 8796, Note_on_c, 0, 73, 31
1, 8796, Note_on_c, 0, 77, 20
1, 8796, Note_off_c, 0, 78, 64
1, 8796, Note_on_c, 0, 80, 33
1, 8796, Note_on_c, 0, 86, 18
1, 8797, Note_on_c, 0, 36, 69
1, 8797, Note_on_c, 0, 61, 28
1, 8797, Note_on_c, 0, 68, 36
1, 8797, Note_on_c, 0, 74, 33
1, 8797, Note_on_c, 0, 87, 26
1, 8797, Note_on_c, 0, 93, 13
1, 8798, Note_on_c, 0, 31, 75
1, 8798, Note_off_c, 0, 36, 64
1, 8798, Note_on_c, 0, 49, 58
1, 8798, Note_on_c, 0, 78, 41
1, 8798, Note_on_c, 0, 83, 28
1, 8798, Note_on_c, 0, 88, 23
1, 8799, Note_on_c, 0, 30, 78
1, 8799, Note_off_c, 0, 31, 64
1, 8799, Note_on_c, 0, 76, 33
1, 8799, Note_off_c, 0, 77, 64
1, 8799, Note_on_c, 0, 84, 22
1, 8800, Note_on_c, 0, 29, 78
1, 8800, Note_off_c, 0, 30, 64
1, 8800, Note_off_c, 0, 93, 64
1, 8801, Note_off_c, 0, 49, 64
1, 8801, Note_on_c, 0, 66, 18
1, 8801, Note_off_c, 0, 74, 64
1, 8802, Note_off_c, 0, 29, 64
1, 8802, Note_on_c, 0, 30, 73
1, 8802, Note_on_c, 0, 58, 32
1, 8802, Note_off_c, 0, 61, 64
1, 8802, Note_on_c, 0, 74, 28
1, 8802, Note_off_c, 0, 87, 64
1, 8802, Note_on_c, 0, 91, 11
1, 8803, Note_on_c, 0, 29, 72
1, 8803, Note_off_c, 0, 30, 64
1, 8803, Note_on_c, 0, 48, 48
1, 8803, Note_off_c, 0, 84, 64
1, 8804, Note_off_c, 0, 66, 64
1, 8805, Note_off_c, 0, 48, 64
1, 8805, Note_on_c, 0, 64, 31
1, 8805, Note_off_c, 0, 73, 64
1, 8805, Note_on_c, 0, 89, 11
1, 8806, Note_off_c, 0, 29, 64
1, 8806, Note_on_c, 0, 30, 79
1, 8806, Note_on_c, 0, 43, 66
1, 8806, Note_off_c, 0, 58, 64
1, 8806, Note_on_c, 0, 73, 19
1, 8806, Note_off_c, 0, 76, 64
1, 8806, Note_on_c, 0, 84, 21
1, 8806, Note_off_c, 0, 88, 64
1, 8806, Note_off_c, 0, 91, 64
1, 8807, Note_off_c, 0, 43, 64
1, 8807, Note_on_c, 0, 82, 41
1, 8807, Note_off_c, 0, 83, 64
1, 8807, Note_off_c, 0, 86, 64
1, 8808, Note_on_c, 0, 49, 60
1, 8808, Note_on_c, 0, 71, 16
1, 8808, Note_off_c, 0, 74, 64
1, 8809, Note_off_c, 0, 64, 64
1, 8809, Note_off_c, 0, 84, 64
1, 8810, Note_on_c, 0, 29, 78
1, 8810, Note_off_c, 0, 30, 64
1, 8810, Note_off_c, 0, 80, 64
1, 8810, Note_on_c, 0, 84, 35
1, 8810, Note_off_c, 0, 89, 64
1, 8811, Note_off_c, 0, 73, 64
1, 8811, Note_on_c, 0, 86, 21
1, 8812, Note_off_c, 0, 29, 64
1, 8812, Note_on_c, 0, 30, 73
1, 8812, Note_off_c, 0, 49, 64
1, 8812, Note_off_c, 0, 71, 64
1, 8812, Note_on_c, 0, 74, 34
1, 8813, Note_off_c, 0, 30, 64
1, 8813, Note_on_c, 0, 34, 71
1, 8814, Note_off_c, 0, 34, 64
1, 8814, Note_on_c, 0, 60, 52
1, 8814, Note_on_c, 0, 70, 46
1, 8814, Note_on_c, 0, 76, 40
1, 8814, Note_on_c, 0, 81, 43
1, 8814, Note_on_c, 0, 85, 30
1, 8814, Note_on_c, 0, 87, 36
1, 8814, Note_on_c, 0, 92, 30
1, 8815, Note_on_c, 0, 66, 50
1, 8815, Note_off_c, 0, 68, 64
1, 8815, Note_off_c, 0, 82, 64
1, 8815, Note_off_c, 0, 86, 64
1, 8816, Note_on_c, 0, 51, 74
1, 8816, Note_off_c, 0, 60, 64
1, 8816, Note_on_c, 0, 80, 20
1, 8816, Note_off_c, 0, 92, 64
1, 8817, Note_on_c, 0, 48, 86
1, 8817, Note_off_c, 0, 51, 64
1, 8817, Note_off_c, 0, 66, 64
1, 8817, Note_off_c, 0, 70, 64
1, 8817, Note_off_c, 0, 74, 64
1, 8817, Note_off_c, 0, 76, 64
1, 8817, Note_off_c, 0, 78, 64
1, 8817, Note_off_c, 0, 81, 64
1, 8817, Note_off_c, 0, 84, 64
1, 8817, Note_off_c, 0, 85, 64
1, 8817, Note_off_c, 0, 87, 64
1, 8818, Note_on_c, 0, 45, 95
1, 8818, Note_off_c, 0, 48, 64
1, 8819, Note_on_c, 0, 42, 100
1, 8819, Note_off_c, 0, 45, 64
1, 8819, Note_off_c, 0, 80, 64
1, 8820, Note_on_c, 0, 40, 97
1, 8820, Note_off_c, 0, 42, 64
1, 8821, Note_on_c, 0, 38, 98
1, 8821, Note_off_c, 0, 40, 64
1, 8822, Note_on_c, 0, 36, 98
1, 8822, Note_off_c, 0, 38, 64
1, 8823, Note_on_c, 0, 35, 97
1, 8823, Note_off_c, 0, 36, 64
1, 8824, Note_on_c, 0, 34, 96
1, 8824, Note_off_c, 0, 35, 64
1, 8825, Note_on_c, 0, 33, 96
1, 8825, Note_off_c, 0, 34, 64
1, 8826, Note_on_c, 0, 32, 96
1, 8826, Note_off_c, 0, 33, 64
1, 8827, Note_on_c, 0, 78, 13
1, 8828, Note_on_c, 0, 31, 94
1, 8828, Note_off_c, 0, 32, 64
1, 8830, Note_on_c, 0, 30, 84
1, 8830, Note_off_c, 0, 31, 64
1, 8832, Note_off_c, 0, 78, 64
1, 8833, Note_off_c, 0, 30, 64
1, 8833, Note_on_c, 0, 84, 29
1, 8833, Note_on_c, 0, 90, 24
1, 8834, Note_on_c, 0, 41, 68
1, 8834, Note_on_c, 0, 83, 15
1, 8834, Note_on_c, 0, 86, 23
1, 8834, Note_on_c, 0, 88, 16
1, 8835, Note_on_c, 0, 31, 73
1, 8835, Note_off_c, 0, 41, 64
1, 8835, Note_on_c, 0, 74, 22
1, 8836, Note_on_c, 0, 30, 79
1, 8836, Note_off_c, 0, 31, 64
1, 8836, Note_on_c, 0, 80, 12
1, 8836, Note_on_c, 0, 85, 12
1, 8837, Note_on_c, 0, 29, 81
1, 8837, Note_off_c, 0, 30, 64
1, 8837, Note_on_c, 0, 63, 23
1, 8837, Note_off_c, 0, 83, 64
1, 8837, Note_off_c, 0, 88, 64
1, 8837, Note_off_c, 0, 90, 64
1, 8838, Note_on_c, 0, 49, 57
1, 8839, Note_off_c, 0, 29, 64
1, 8839, Note_on_c, 0, 30, 77
1, 8839, Note_off_c, 0, 84, 64
1, 8839, Note_off_c, 0, 86, 64
1, 8840, Note_off_c, 0, 49, 64
1, 8840, Note_on_c, 0, 78, 21
1, 8840, Note_off_c, 0, 80, 64
1, 8841, Note_on_c, 0, 29, 74
1, 8841, Note_off_c, 0, 30, 64
1, 8841, Note_on_c, 0, 80, 20
1, 8841, Note_off_c, 0, 85, 64
1, 8842, Note_off_c, 0, 63, 64
1, 8843, Note_on_c, 0, 63, 25
1, 8843, Note_on_c, 0, 71, 17
1, 8843, Note_off_c, 0, 74, 64
1, 8843, Note_on_c, 0, 84, 10
1, 8844, Note_off_c, 0, 29, 64
1, 8844, Note_on_c, 0, 30, 81
1, 8844, Note_on_c, 0, 54, 53
1, 8844, Note_on_c, 0, 68, 16
1, 8844, Note_off_c, 0, 80, 64
1, 8845, Note_on_c, 0, 49, 60
1, 8846, Note_off_c, 0, 54, 64
1, 8847, Note_off_c, 0, 84, 64
1, 8848, Note_off_c, 0, 49, 64
1, 8848, Note_off_c, 0, 63, 64
1, 8848, Note_on_c, 0, 81, 12
1, 8849, Note_off_c, 0, 71, 64
1, 8850, Note_off_c, 0, 30, 64
1, 8850, Note_on_c, 0, 32, 72
1, 8850, Note_off_c, 0, 68, 64
1, 8851, Note_off_c, 0, 32, 64
1, 8851, Note_on_c, 0, 35, 67
1, 8851, Note_on_c, 0, 80, 37
1, 8851, Note_off_c, 0, 81, 64
1, 8851, Note_on_c, 0, 87, 29
1, 8851, Note_on_c, 0, 88, 27
1, 8851, Note_on_c, 0, 90, 24
1, 8851, Note_on_c, 0, 91, 22
1, 8852, Note_off_c, 0, 35, 64
1, 8852, Note_on_c, 0, 55, 66
1, 8852, Note_on_c, 0, 75, 36
1, 8852, Note_off_c, 0, 78, 64
1, 8852, Note_on_c, 0, 86, 29
1, 8853, Note_on_c, 0, 70, 39
1, 8853, Note_on_c, 0, 73, 33
1, 8853, Note_off_c, 0, 80, 64
1, 8854, Note_on_c, 0, 49, 81
1, 8854, Note_off_c, 0, 55, 64
1, 8854, Note_off_c, 0, 75, 64
1, 8854, Note_off_c, 0, 86, 64
1, 8854, Note_off_c, 0, 87, 64
1, 8854, Note_off_c, 0, 88, 64
1, 8854, Note_off_c, 0, 91, 64
1, 8855, Note_on_c, 0, 45, 92
1, 8855, Note_off_c, 0, 49, 64
1, 8855, Note_off_c, 0, 70, 64
1, 8855, Note_off_c, 0, 73, 64
1, 8856, Note_on_c, 0, 42, 98
1, 8856, Note_off_c, 0, 45, 64
1, 8856, Note_off_c, 0, 90, 64
1, 8857, Note_on_c, 0, 41, 100
1, 8857, Note_off_c, 0, 42, 64
1, 8858, Note_on_c, 0, 38, 98
1, 8858, Note_off_c, 0, 41, 64
1, 8859, Note_on_c, 0, 37, 98
1, 8859, Note_off_c, 0, 38, 64
1, 8860, Note_on_c, 0, 36, 97
1, 8860, Note_off_c, 0, 37, 64
1, 8861, Note_on_c, 0, 34, 96
1, 8861, Note_off_c, 0, 36, 64
1, 8862, Note_on_c, 0, 33, 96
1, 8862, Note_off_c, 0, 34, 64
1, 8862, Note_on_c, 0, 88, 13
1, 8864, Note_on_c, 0, 32, 96
1, 8864, Note_off_c, 0, 33, 64
1, 8865, Note_on_c, 0, 31, 95
1, 8865, Note_off_c, 0, 32, 64
1, 8865, Note_off_c, 0, 88, 64
1, 8868, Note_on_c, 0, 30, 79
1, 8868, Note_off_c, 0, 31, 64
1, 8869, Note_on_c, 0, 78, 11
1, 8870, Note_off_c, 0, 30, 64
1, 8871, Note_on_c, 0, 61, 32
1, 8871, Note_on_c, 0, 70, 15
1, 8871, Note_on_c, 0, 74, 21
1, 8872, Note_on_c, 0, 36, 70
1, 8872, Note_on_c, 0, 54, 52
1, 8872, Note_on_c, 0, 77, 15
1, 8873, Note_on_c, 0, 31, 76
1, 8873, Note_off_c, 0, 36, 64
1, 8873, Note_on_c, 0, 49, 59
1, 8873, Note_on_c, 0, 63, 26
1, 8873, Note_off_c, 0, 78, 64
1, 8874, Note_on_c, 0, 30, 79
1, 8874, Note_off_c, 0, 31, 64
1, 8874, Note_off_c, 0, 54, 64
1, 8875, Note_on_c, 0, 29, 79
1, 8875, Note_off_c, 0, 30, 64
1, 8875, Note_off_c, 0, 70, 64
1, 8875, Note_off_c, 0, 77, 64
1, 8876, Note_off_c, 0, 49, 64
1, 8876, Note_off_c, 0, 63, 64
1, 8877, Note_off_c, 0, 29, 64
1, 8877, Note_on_c, 0, 30, 76
1, 8877, Note_off_c, 0, 74, 64
1, 8878, Note_on_c, 0, 29, 75
1, 8878, Note_off_c, 0, 30, 64
1, 8879, Note_off_c, 0, 61, 64
1, 8881, Note_off_c, 0, 29, 64
1, 8881, Note_on_c, 0, 30, 80
1, 8881, Note_on_c, 0, 43, 68
1, 8881, Note_on_c, 0, 71, 19
1, 8881, Note_on_c, 0, 76, 10
1, 8881, Note_on_c, 0, 88, 12
1, 8882, Note_off_c, 0, 43, 64
1, 8882, Note_on_c, 0, 61, 30
1, 8882, Note_on_c, 0, 68, 18
1, 8884, Note_on_c, 0, 63, 23
1, 8884, Note_off_c, 0, 76, 64
1, 8884, Note_off_c, 0, 88, 64
1, 8885, Note_off_c, 0, 61, 64
1, 8886, Note_on_c, 0, 49, 54
1, 8886, Note_off_c, 0, 68, 64
1, 8886, Note_off_c, 0, 71, 64
1, 8888, Note_off_c, 0, 30, 64
1, 8888, Note_on_c, 0, 34, 71
1, 8888, Note_off_c, 0, 49, 64
1, 8888, Note_on_c, 0, 54, 29
1, 8888, Note_off_c, 0, 63, 64
1, 8889, Note_off_c, 0, 34, 64
1, 8889, Note_on_c, 0, 72, 41
1, 8889, Note_on_c, 0, 80, 37
1, 8889, Note_on_c, 0, 82, 34
1, 8889, Note_on_c, 0, 86, 40
1, 8889, Note_on_c, 0, 88, 30
1, 8889, Note_on_c, 0, 96, 23
1, 8889, Note_on_c, 0, 97, 22
1, 8890, Note_off_c, 0, 54, 64
1, 8890, Note_on_c, 0, 64, 51
1, 8890, Note_on_c, 0, 77, 33
1, 8890, Note_on_c, 0, 79, 37
1, 8890, Note_on_c, 0, 83, 33
1, 8890, Note_on_c, 0, 87, 33
1, 8890, Note_on_c, 0, 90, 28
1, 8891, Note_on_c, 0, 51, 76
1, 8891, Note_on_c, 0, 85, 18
1, 8892, Note_on_c, 0, 46, 86
1, 8892, Note_off_c, 0, 51, 64
1, 8892, Note_off_c, 0, 72, 64
1, 8892, Note_off_c, 0, 77, 64
1, 8892, Note_off_c, 0, 80, 64
1, 8892, Note_on_c, 0, 81, 12
1, 8892, Note_off_c, 0, 82, 64
1, 8892, Note_off_c, 0, 83, 64
1, 8892, Note_off_c, 0, 87, 64
1, 8892, Note_off_c, 0, 97, 64
1, 8893, Note_on_c, 0, 44, 95
1, 8893, Note_off_c, 0, 46, 64
1, 8893, Note_off_c, 0, 64, 64
1, 8893, Note_off_c, 0, 86, 64
1, 8893, Note_off_c, 0, 96, 64
1, 8894, Note_on_c, 0, 41, 100
1, 8894, Note_off_c, 0, 44, 64
1, 8894, Note_off_c, 0, 79, 64
1, 8894, Note_off_c, 0, 85, 64
1, 8894, Note_off_c, 0, 90, 64
1, 8895, Note_on_c, 0, 40, 97
1, 8895, Note_off_c, 0, 41, 64
1, 8895, Note_off_c, 0, 81, 64
1, 8896, Note_on_c, 0, 38, 98
1, 8896, Note_off_c, 0, 40, 64
1, 8897, Note_on_c, 0, 36, 98
1, 8897, Note_off_c, 0, 38, 64
1, 8897, Note_off_c, 0, 88, 64
1, 8898, Note_on_c, 0, 35, 97
1, 8898, Note_off_c, 0, 36, 64
1, 8899, Note_on_c, 0, 34, 96
1, 8899, Note_off_c, 0, 35, 64
1, 8900, Note_on_c, 0, 33, 96
1, 8900, Note_off_c, 0, 34, 64
1, 8901, Note_on_c, 0, 32, 96
1, 8901, Note_off_c, 0, 33, 64
1, 8902, Note_on_c, 0, 48, 24
1, 8903, Note_on_c, 0, 31, 93
1, 8903, Note_off_c, 0, 32, 64
1, 8905, Note_on_c, 0, 30, 83
1, 8905, Note_off_c, 0, 31, 64
1, 8905, Note_off_c, 0, 48, 64
1, 8907, Note_off_c, 0, 30, 64
1, 8909, Note_on_c, 0, 41, 68
1, 8909, Note_on_c, 0, 61, 25
1, 8909, Note_on_c, 0, 68, 15
1, 8909, Note_on_c, 0, 70, 15
1, 8910, Note_on_c, 0, 31, 77
1, 8910, Note_off_c, 0, 41, 64
1, 8911, Note_on_c, 0, 64, 23
1, 8912, Note_on_c, 0, 29, 78
1, 8912, Note_off_c, 0, 31, 64
1, 8912, Note_off_c, 0, 70, 64
1, 8913, Note_off_c, 0, 29, 64
1, 8913, Note_on_c, 0, 30, 75
1, 8914, Note_on_c, 0, 49, 53
1, 8914, Note_off_c, 0, 64, 64
1, 8914, Note_off_c, 0, 68, 64
1, 8915, Note_on_c, 0, 29, 73
1, 8915, Note_off_c, 0, 30, 64
1, 8916, Note_off_c, 0, 49, 64
1, 8916, Note_off_c, 0, 61, 64
1, 8918, Note_on_c, 0, 61, 33
1, 8918, Note_on_c, 0, 70, 15
1, 8918, Note_on_c, 0, 79, 16
1, 8918, Note_on_c, 0, 80, 14
1, 8918, Note_on_c, 0, 88, 15
1, 8919, Note_off_c, 0, 29, 64
1, 8919, Note_on_c, 0, 30, 73
1, 8919, Note_on_c, 0, 68, 15
1, 8920, Note_off_c, 0, 30, 64
1, 8920, Note_on_c, 0, 31, 78
1, 8921, Note_on_c, 0, 30, 80
1, 8921, Note_off_c, 0, 31, 64
1, 8921, Note_off_c, 0, 79, 64
1, 8921, Note_off_c, 0, 80, 64
1, 8922, Note_on_c, 0, 29, 80
1, 8922, Note_off_c, 0, 30, 64
1, 8922, Note_off_c, 0, 68, 64
1, 8922, Note_off_c, 0, 88, 64
1, 8923, Note_on_c, 0, 102, 17
1, 8924, Note_off_c, 0, 29, 64
1, 8924, Note_on_c, 0, 30, 75
1, 8924, Note_off_c, 0, 61, 64
1, 8924, Note_off_c, 0, 70, 64
1, 8925, Note_off_c, 0, 30, 64
1, 8925, Note_on_c, 0, 33, 72
1, 8926, Note_off_c, 0, 33, 64
1, 8926, Note_on_c, 0, 35, 66
1, 8926, Note_on_c, 0, 71, 42
1, 8926, Note_on_c, 0, 78, 37
1, 8926, Note_on_c, 0, 81, 34
1, 8926, Note_on_c, 0, 84, 34
1, 8926, Note_on_c, 0, 86, 28
1, 8926, Note_on_c, 0, 87, 27
1, 8926, Note_on_c, 0, 88, 31
1, 8926, Note_on_c, 0, 89, 30
1, 8926, Note_on_c, 0, 91, 29
1, 8926, Note_on_c, 0, 94, 21
1, 8927, Note_off_c, 0, 35, 64
1, 8927, Note_on_c, 0, 75, 35
1, 8928, Note_on_c, 0, 54, 69
1, 8929, Note_on_c, 0, 48, 82
1, 8929, Note_off_c, 0, 54, 64
1, 8929, Note_off_c, 0, 71, 64
1, 8929, Note_off_c, 0, 75, 64
1, 8929, Note_off_c, 0, 78, 64
1, 8929, Note_off_c, 0, 81, 64
1, 8929, Note_off_c, 0, 84, 64
1, 8929, Note_off_c, 0, 86, 64
1, 8929, Note_off_c, 0, 87, 64
1, 8929, Note_off_c, 0, 88, 64
1, 8929, Note_off_c, 0, 89, 64
1, 8929, Note_off_c, 0, 91, 64
1, 8929, Note_off_c, 0, 94, 64
1, 8929, Note_off_c, 0, 102, 64
1, 8930, Note_on_c, 0, 45, 93
1, 8930, Note_off_c, 0, 48, 64
1, 8931, Note_on_c, 0, 42, 98
1, 8931, Note_off_c, 0, 45, 64
1, 8932, Note_on_c, 0, 41, 99
1, 8932, Note_off_c, 0, 42, 64
1, 8933, Note_on_c, 0, 38, 98
1, 8933, Note_off_c, 0, 41, 64
1, 8934, Note_on_c, 0, 37, 98
1, 8934, Note_off_c, 0, 38, 64
1, 8935, Note_on_c, 0, 35, 97
1, 8935, Note_off_c, 0, 37, 64
1, 8936, Note_on_c, 0, 34, 96
1, 8936, Note_off_c, 0, 35, 64
1, 8937, Note_on_c, 0, 33, 96
1, 8937, Note_off_c, 0, 34, 64
1, 8939, Note_on_c, 0, 32, 96
1, 8939, Note_off_c, 0, 33, 64
1, 8940, Note_on_c, 0, 31, 95
1, 8940, Note_off_c, 0, 32, 64
1, 8943, Note_on_c, 0, 30, 77
1, 8943, Note_off_c, 0, 31, 64
1, 8943, Note_on_c, 0, 102, 27
1, 8945, Note_off_c, 0, 30, 64
1, 8946, Note_on_c, 0, 83, 11
1, 8946, Note_on_c, 0, 86, 30
1, 8947, Note_on_c, 0, 36, 70
1, 8947, Note_on_c, 0, 64, 35
1, 8947, Note_on_c, 0, 70, 23
1, 8947, Note_on_c, 0, 75, 29
1, 8947, Note_on_c, 0, 79, 29
1, 8947, Note_on_c, 0, 82, 32
1, 8947, Note_on_c, 0, 92, 31
1, 8947, Note_on_c, 0, 95, 24
1, 8948, Note_on_c, 0, 30, 79
1, 8948, Note_off_c, 0, 36, 64
1, 8948, Note_on_c, 0, 49, 59
1, 8948, Note_on_c, 0, 58, 35
1, 8948, Note_on_c, 0, 80, 24
1, 8948, Note_on_c, 0, 85, 18
1, 8948, Note_on_c, 0, 93, 16
1, 8948, Note_on_c, 0, 96, 19
1, 8948, Note_on_c, 0, 100, 30
1, 8949, Note_on_c, 0, 29, 81
1, 8949, Note_off_c, 0, 30, 64
1, 8949, Note_off_c, 0, 83, 64
1, 8949, Note_on_c, 0, 84, 34
1, 8949, Note_on_c, 0, 89, 25
1, 8949, Note_on_c, 0, 99, 26
1, 8949, Note_on_c, 0, 101, 32
1, 8949, Note_on_c, 0, 103, 25
1, 8950, Note_off_c, 0, 58, 64
1, 8950, Note_on_c, 0, 63, 36
1, 8950, Note_off_c, 0, 64, 64
1, 8950, Note_off_c, 0, 70, 64
1, 8950, Note_on_c, 0, 73, 50
1, 8950, Note_on_c, 0, 88, 17
1, 8950, Note_on_c, 0, 90, 30
1, 8950, Note_on_c, 0, 97, 29
1, 8951, Note_off_c, 0, 49, 64
1, 8951, Note_off_c, 0, 79, 64
1, 8951, Note_off_c, 0, 85, 64
1, 8952, Note_off_c, 0, 29, 64
1, 8952, Note_on_c, 0, 30, 76
1, 8952, Note_off_c, 0, 75, 64
1, 8952, Note_on_c, 0, 83, 36
1, 8953, Note_on_c, 0, 29, 75
1, 8953, Note_off_c, 0, 30, 64
1, 8953, Note_off_c, 0, 63, 64
1, 8953, Note_off_c, 0, 73, 64
1, 8953, Note_off_c, 0, 80, 64
1, 8953, Note_on_c, 0, 81, 31
1, 8953, Note_off_c, 0, 82, 64
1, 8953, Note_off_c, 0, 84, 64
1, 8953, Note_off_c, 0, 86, 64
1, 8953, Note_on_c, 0, 87, 25
1, 8953, Note_off_c, 0, 88, 64
1, 8953, Note_on_c, 0, 91, 22
1, 8954, Note_on_c, 0, 78, 30
1, 8954, Note_on_c, 0, 80, 29
1, 8954, Note_off_c, 0, 83, 64
1, 8954, Note_on_c, 0, 84, 28
1, 8954, Note_on_c, 0, 86, 24
1, 8954, Note_off_c, 0, 96, 64
1, 8956, Note_off_c, 0, 29, 64
1, 8956, Note_on_c, 0, 30, 78
1, 8956, Note_on_c, 0, 61, 43
1, 8956, Note_off_c, 0, 78, 64
1, 8956, Note_off_c, 0, 80, 64
1, 8956, Note_off_c, 0, 102, 64
1, 8957, Note_on_c, 0, 49, 58
1, 8957, Note_on_c, 0, 68, 18
1, 8957, Note_on_c, 0, 70, 24
1, 8957, Note_off_c, 0, 81, 64
1, 8957, Note_on_c, 0, 88, 27
1, 8957, Note_off_c, 0, 99, 64
1, 8957, Note_on_c, 0, 102, 35
1, 8958, Note_on_c, 0, 81, 22
1, 8959, Note_on_c, 0, 29, 79
1, 8959, Note_off_c, 0, 30, 64
1, 8959, Note_on_c, 0, 76, 16
1, 8959, Note_on_c, 0, 78, 14
1, 8959, Note_off_c, 0, 87, 64
1, 8959, Note_off_c, 0, 91, 64
1, 8959, Note_on_c, 0, 99, 33
1, 8960, Note_off_c, 0, 29, 64
1, 8960, Note_on_c, 0, 30, 77
1, 8960, Note_off_c, 0, 49, 64
1, 8960, Note_off_c, 0, 70, 64
1, 8960, Note_on_c, 0, 79, 10
1, 8960, Note_off_c, 0, 92, 64
1, 8961, Note_off_c, 0, 68, 64
1, 8961, Note_on_c, 0, 72, 37
1, 8961, Note_on_c, 0, 87, 24
1, 8961, Note_off_c, 0, 101, 64
1, 8962, Note_on_c, 0, 75, 28
1, 8962, Note_off_c, 0, 76, 64
1, 8962, Note_on_c, 0, 77, 35
1, 8962, Note_off_c, 0, 78, 64
1, 8962, Note_off_c, 0, 84, 64
1, 8962, Note_off_c, 0, 86, 64
1, 8962, Note_off_c, 0, 95, 64
1, 8963, Note_off_c, 0, 30, 64
1, 8963, Note_on_c, 0, 34, 70
1, 8963, Note_off_c, 0, 81, 64
1, 8963, Note_on_c, 0, 85, 30
1, 8963, Note_on_c, 0, 91, 29
1, 8963, Note_on_c, 0, 92, 30
1, 8963, Note_off_c, 0, 93, 64
1, 8964, Note_off_c, 0, 34, 64
1, 8964, Note_off_c, 0, 79, 64
1, 8964, Note_on_c, 0, 80, 37
1, 8964, Note_off_c, 0, 89, 64
1, 8964, Note_on_c, 0, 93, 27
1, 8964, Note_on_c, 0, 96, 25
1, 8965, Note_off_c, 0, 61, 64
1, 8965, Note_on_c, 0, 70, 44
1, 8965, Note_off_c, 0, 72, 64
1, 8965, Note_off_c, 0, 75, 64
1, 8965, Note_on_c, 0, 78, 31
1, 8965, Note_on_c, 0, 83, 35
1, 8965, Note_on_c, 0, 86, 29
1, 8966, Note_on_c, 0, 51, 78
1, 8966, Note_off_c, 0, 77, 64
1, 8966, Note_off_c, 0, 87, 64
1, 8966, Note_off_c, 0, 90, 64
1, 8966, Note_off_c, 0, 92, 64
1, 8966, Note_off_c, 0, 97, 64
1, 8966, Note_off_c, 0, 103, 64
1, 8967, Note_on_c, 0, 46, 88
1, 8967, Note_off_c, 0, 51, 64
1, 8967, Note_off_c, 0, 70, 64
1, 8967, Note_off_c, 0, 78, 64
1, 8967, Note_off_c, 0, 80, 64
1, 8967, Note_off_c, 0, 83, 64
1, 8967, Note_off_c, 0, 86, 64
1, 8967, Note_off_c, 0, 88, 64
1, 8967, Note_off_c, 0, 91, 64
1, 8967, Note_off_c, 0, 93, 64
1, 8967, Note_off_c, 0, 96, 64
1, 8967, Note_off_c, 0, 100, 64
1, 8968, Note_on_c, 0, 44, 94
1, 8968, Note_off_c, 0, 46, 64
1, 8968, Note_off_c, 0, 85, 64
1, 8968, Note_off_c, 0, 102, 64
1, 8969, Note_on_c, 0, 41, 100
1, 8969, Note_off_c, 0, 44, 64
1, 8970, Note_on_c, 0, 39, 97
1, 8970, Note_off_c, 0, 41, 64
1, 8971, Note_on_c, 0, 37, 98
1, 8971, Note_off_c, 0, 39, 64
1, 8972, Note_on_c, 0, 36, 97
1, 8972, Note_off_c, 0, 37, 64
1, 8973, Note_on_c, 0, 35, 96
1, 8973, Note_off_c, 0, 36, 64
1, 8974, Note_on_c, 0, 34, 96
1, 8974, Note_off_c, 0, 35, 64
1, 8974, Note_off_c, 0, 99, 64
1, 8975, Note_on_c, 0, 33, 95
1, 8975, Note_off_c, 0, 34, 64
1, 8975, Note_on_c, 0, 54, 15
1, 8976, Note_on_c, 0, 32, 96
1, 8976, Note_off_c, 0, 33, 64
1, 8977, Note_on_c, 0, 97, 38
1, 8977, Note_on_c, 0, 99, 38
1, 8977, Note_on_c, 0, 102, 26
1, 8978, Note_on_c, 0, 31, 93
1, 8978, Note_off_c, 0, 32, 64
1, 8978, Note_off_c, 0, 54, 64
1, 8979, Note_on_c, 0, 83, 14
1, 8979, Note_on_c, 0, 90, 19
1, 8979, Note_on_c, 0, 92, 11
1, 8980, Note_on_c, 0, 30, 82
1, 8980, Note_off_c, 0, 31, 64
1, 8981, Note_on_c, 0, 94, 22
1, 8981, Note_on_c, 0, 100, 45
1, 8982, Note_off_c, 0, 30, 64
1, 8982, Note_off_c, 0, 83, 64
1, 8982, Note_on_c, 0, 89, 23
1, 8982, Note_on_c, 0, 96, 9
1, 8983, Note_on_c, 0, 55, 52
1, 8983, Note_on_c, 0, 64, 31
1, 8983, Note_off_c, 0, 92, 64
1, 8983, Note_on_c, 0, 98, 10
1, 8984, Note_on_c, 0, 37, 68
1, 8984, Note_on_c, 0, 68, 20
1, 8984, Note_on_c, 0, 88, 14
1, 8985, Note_on_c, 0, 31, 74
1, 8985, Note_off_c, 0, 37, 64
1, 8985, Note_off_c, 0, 55, 64
1, 8985, Note_on_c, 0, 63, 30
1, 8985, Note_off_c, 0, 64, 64
1, 8986, Note_on_c, 0, 30, 79
1, 8986, Note_off_c, 0, 31, 64
1, 8986, Note_off_c, 0, 89, 64
1, 8986, Note_off_c, 0, 90, 64
1, 8986, Note_off_c, 0, 96, 64
1, 8986, Note_off_c, 0, 98, 64
1, 8986, Note_off_c, 0, 99, 64
1, 8987, Note_on_c, 0, 29, 79
1, 8987, Note_off_c, 0, 30, 64
1, 8987, Note_on_c, 0, 49, 59
1, 8987, Note_on_c, 0, 85, 10
1, 8987, Note_off_c, 0, 88, 64
1, 8988, Note_off_c, 0, 29, 64
1, 8988, Note_on_c, 0, 30, 78
1, 8988, Note_off_c, 0, 63, 64
1, 8988, Note_off_c, 0, 68, 64
1, 8989, Note_on_c, 0, 98, 17
1, 8989, Note_on_c, 0, 99, 45
1, 8989, Note_off_c, 0, 100, 64
1, 8990, Note_on_c, 0, 48, 54
1, 8990, Note_off_c, 0, 49, 64
1, 8990, Note_off_c, 0, 94, 64
1, 8991, Note_on_c, 0, 29, 73
1, 8991, Note_off_c, 0, 30, 64
1, 8991, Note_off_c, 0, 85, 64
1, 8992, Note_off_c, 0, 48, 64
1, 8993, Note_on_c, 0, 42, 65
1, 8993, Note_on_c, 0, 71, 19
1, 8993, Note_on_c, 0, 84, 13
1, 8994, Note_off_c, 0, 29, 64
1, 8994, Note_on_c, 0, 30, 80
1, 8994, Note_off_c, 0, 42, 64
1, 8994, Note_on_c, 0, 61, 30
1, 8994, Note_on_c, 0, 64, 30
1, 8994, Note_on_c, 0, 68, 17
1, 8994, Note_on_c, 0, 70, 15
1, 8995, Note_off_c, 0, 98, 64
1, 8996, Note_on_c, 0, 49, 60
1, 8996, Note_off_c, 0, 61, 64
1, 8996, Note_off_c, 0, 64, 64
1, 8996, Note_off_c, 0, 71, 64
1, 8996, Note_on_c, 0, 77, 14
1, 8996, Note_off_c, 0, 84, 64
1, 8997, Note_off_c, 0, 70, 64
1, 8997, Note_on_c, 0, 90, 28
1, 8997, Note_on_c, 0, 94, 26
1, 8997, Note_on_c, 0, 96, 22
1, 8997, Note_on_c, 0, 100, 40
1, 8998, Note_off_c, 0, 49, 64
1, 8999, Note_off_c, 0, 68, 64
1, 9000, Note_off_c, 0, 30, 64
1, 9000, Note_on_c, 0, 33, 72
1, 9000, Note_on_c, 0, 48, 51
1, 9000, Note_off_c, 0, 77, 64
1, 9001, Note_off_c, 0, 33, 64
1, 9001, Note_on_c, 0, 35, 65
1, 9001, Note_on_c, 0, 64, 49
1, 9001, Note_on_c, 0, 77, 35
1, 9001, Note_on_c, 0, 80, 36
1, 9001, Note_on_c, 0, 86, 32
1, 9001, Note_on_c, 0, 88, 32
1, 9002, Note_off_c, 0, 35, 64
1, 9002, Note_off_c, 0, 48, 64
1, 9002, Note_on_c, 0, 81, 35
1, 9003, Note_on_c, 0, 53, 70
1, 9003, Note_off_c, 0, 99, 64
1, 9004, Note_on_c, 0, 48, 84
1, 9004, Note_off_c, 0, 53, 64
1, 9004, Note_on_c, 0, 63, 24
1, 9004, Note_off_c, 0, 64, 64
1, 9004, Note_off_c, 0, 77, 64
1, 9004, Note_off_c, 0, 80, 64
1, 9004, Note_off_c, 0, 81, 64
1, 9004, Note_off_c, 0, 88, 64
1, 9004, Note_off_c, 0, 90, 64
1, 9004, Note_off_c, 0, 96, 64
1, 9004, Note_off_c, 0, 100, 64
1, 9005, Note_on_c, 0, 45, 94
1, 9005, Note_off_c, 0, 48, 64
1, 9005, Note_off_c, 0, 86, 64
1, 9005, Note_off_c, 0, 97, 64
1, 9005, Note_off_c, 0, 102, 64
1, 9006, Note_on_c, 0, 42, 99
1, 9006, Note_off_c, 0, 45, 64
1, 9007, Note_on_c, 0, 40, 98
1, 9007, Note_off_c, 0, 42, 64
1, 9007, Note_off_c, 0, 63, 64
1, 9007, Note_off_c, 0, 94, 64
1, 9007, Note_on_c, 0, 97, 32
1, 9008, Note_on_c, 0, 38, 98
1, 9008, Note_off_c, 0, 40, 64
1, 9008, Note_on_c, 0, 91, 15
1, 9009, Note_on_c, 0, 37, 98
1, 9009, Note_off_c, 0, 38, 64
1, 9009, Note_on_c, 0, 90, 10
1, 9009, Note_on_c, 0, 99, 10
1, 9010, Note_on_c, 0, 35, 97
1, 9010, Note_off_c, 0, 37, 64
1, 9011, Note_on_c, 0, 34, 95
1, 9011, Note_off_c, 0, 35, 64
1, 9011, Note_off_c, 0, 91, 64
1, 9011, Note_on_c, 0, 100, 24
1, 9012, Note_on_c, 0, 33, 95
1, 9012, Note_off_c, 0, 34, 64
1, 9012, Note_off_c, 0, 97, 64
1, 9012, Note_off_c, 0, 99, 64
1, 9013, Note_on_c, 0, 32, 96
1, 9013, Note_off_c, 0, 33, 64
1, 9013, Note_off_c, 0, 90, 64
1, 9014, Note_on_c, 0, 97, 15
1, 9015, Note_on_c, 0, 31, 94
1, 9015, Note_off_c, 0, 32, 64
1, 9018, Note_on_c, 0, 30, 75
1, 9018, Note_off_c, 0, 31, 64
1, 9018, Note_off_c, 0, 100, 64
1, 9019, Note_off_c, 0, 97, 64
1, 9020, Note_off_c, 0, 30, 64
1, 9020, Note_on_c, 0, 97, 46
1, 9021, Note_on_c, 0, 43, 66
1, 9021, Note_on_c, 0, 71, 15
1, 9021, Note_on_c, 0, 78, 15
1, 9021, Note_on_c, 0, 85, 21
1, 9021, Note_on_c, 0, 98, 15
1, 9021, Note_on_c, 0, 99, 15
1, 9022, Note_on_c, 0, 36, 70
1, 9022, Note_off_c, 0, 43, 64
1, 9022, Note_on_c, 0, 68, 18
1, 9022, Note_on_c, 0, 90, 21
1, 9022, Note_on_c, 0, 100, 31
1, 9023, Note_on_c, 0, 31, 78
1, 9023, Note_off_c, 0, 36, 64
1, 9023, Note_on_c, 0, 101, 15
1, 9024, Note_on_c, 0, 29, 81
1, 9024, Note_off_c, 0, 31, 64
1, 9024, Note_on_c, 0, 49, 59
1, 9024, Note_off_c, 0, 71, 64
1, 9024, Note_off_c, 0, 98, 64
1, 9024, Note_off_c, 0, 99, 64
1, 9025, Note_on_c, 0, 99, 19
1, 9026, Note_off_c, 0, 29, 64
1, 9026, Note_on_c, 0, 30, 75
1, 9026, Note_off_c, 0, 49, 64
1, 9026, Note_off_c, 0, 68, 64
1, 9026, Note_off_c, 0, 78, 64
1, 9026, Note_off_c, 0, 90, 64
1, 9026, Note_on_c, 0, 102, 18
1, 9028, Note_on_c, 0, 29, 73
1, 9028, Note_off_c, 0, 30, 64
1, 9028, Note_off_c, 0, 85, 64
1, 9028, Note_on_c, 0, 90, 39
1, 9028, Note_on_c, 0, 98, 14
1, 9029, Note_on_c, 0, 58, 31
1, 9029, Note_on_c, 0, 85, 29
1, 9030, Note_on_c, 0, 94, 27
1, 9030, Note_off_c, 0, 99, 64
1, 9031, Note_off_c, 0, 29, 64
1, 9031, Note_on_c, 0, 30, 74
1, 9031, Note_off_c, 0, 58, 64
1, 9031, Note_on_c, 0, 61, 29
1, 9031, Note_on_c, 0, 66, 17
1, 9031, Note_on_c, 0, 68, 18
1, 9031, Note_on_c, 0, 78, 19
1, 9031, Note_off_c, 0, 98, 64
1, 9032, Note_off_c, 0, 30, 64
1, 9032, Note_on_c, 0, 31, 77
1, 9032, Note_on_c, 0, 70, 16
1, 9032, Note_on_c, 0, 74, 13
1, 9032, Note_off_c, 0, 101, 64
1, 9033, Note_on_c, 0, 30, 79
1, 9033, Note_off_c, 0, 31, 64
1, 9034, Note_on_c, 0, 29, 79
1, 9034, Note_off_c, 0, 30, 64
1, 9034, Note_off_c, 0, 85, 64
1, 9034, Note_off_c, 0, 90, 64
1, 9034, Note_on_c, 0, 92, 15
1, 9035, Note_off_c, 0, 29, 64
1, 9035, Note_on_c, 0, 30, 76
1, 9035, Note_off_c, 0, 66, 64
1, 9035, Note_off_c, 0, 74, 64
1, 9035, Note_on_c, 0, 91, 27
1, 9036, Note_off_c, 0, 68, 64
1, 9036, Note_off_c, 0, 70, 64
1, 9036, Note_off_c, 0, 78, 64
1, 9036, Note_on_c, 0, 90, 29
1, 9036, Note_on_c, 0, 93, 23
1, 9036, Note_off_c, 0, 102, 64
1, 9037, Note_off_c, 0, 61, 64
1, 9037, Note_on_c, 0, 79, 34
1, 9037, Note_off_c, 0, 92, 64
1, 9038, Note_off_c, 0, 30, 64
1, 9038, Note_on_c, 0, 34, 69
1, 9038, Note_on_c, 0, 78, 34
1, 9038, Note_on_c, 0, 86, 34
1, 9038, Note_on_c, 0, 92, 25
1, 9038, Note_on_c, 0, 96, 25
1, 9038, Note_on_c, 0, 99, 17
1, 9038, Note_on_c, 0, 101, 23
1, 9039, Note_off_c, 0, 34, 64
1, 9039, Note_on_c, 0, 76, 36
1, 9039, Note_on_c, 0, 81, 30
1, 9040, Note_on_c, 0, 70, 41
1, 9040, Note_on_c, 0, 75, 34
1, 9040, Note_off_c, 0, 78, 64
1, 9041, Note_on_c, 0, 51, 78
1, 9041, Note_off_c, 0, 76, 64
1, 9041, Note_off_c, 0, 86, 64
1, 9041, Note_off_c, 0, 90, 64
1, 9041, Note_off_c, 0, 92, 64
1, 9041, Note_off_c, 0, 93, 64
1, 9041, Note_off_c, 0, 96, 64
1, 9041, Note_off_c, 0, 99, 64
1, 9041, Note_off_c, 0, 100, 64
1, 9041, Note_off_c, 0, 101, 64
1, 9042, Note_on_c, 0, 46, 89
1, 9042, Note_off_c, 0, 51, 64
1, 9042, Note_off_c, 0, 70, 64
1, 9042, Note_off_c, 0, 75, 64
1, 9042, Note_off_c, 0, 79, 64
1, 9042, Note_off_c, 0, 81, 64
1, 9042, Note_off_c, 0, 91, 64
1, 9042, Note_off_c, 0, 94, 64
1, 9042, Note_off_c, 0, 97, 64
1, 9043, Note_on_c, 0, 43, 95
1, 9043, Note_off_c, 0, 46, 64
1, 9044, Note_on_c, 0, 41, 100
1, 9044, Note_off_c, 0, 43, 64
1, 9045, Note_on_c, 0, 39, 97
1, 9045, Note_off_c, 0, 41, 64
1, 9046, Note_on_c, 0, 37, 98
1, 9046, Note_off_c, 0, 39, 64
1, 9046, Note_on_c, 0, 90, 29
1, 9047, Note_on_c, 0, 36, 97
1, 9047, Note_off_c, 0, 37, 64
1, 9048, Note_on_c, 0, 35, 96
1, 9048, Note_off_c, 0, 36, 64
1, 9049, Note_on_c, 0, 34, 96
1, 9049, Note_off_c, 0, 35, 64
1, 9050, Note_on_c, 0, 33, 95
1, 9050, Note_off_c, 0, 34, 64
1, 9051, Note_on_c, 0, 32, 96
1, 9051, Note_off_c, 0, 33, 64
1, 9052, Note_off_c, 0, 90, 64
1, 9053, Note_on_c, 0, 31, 93
1, 9053, Note_off_c, 0, 32, 64
1, 9053, Note_on_c, 0, 99, 14
1, 9055, Note_on_c, 0, 30, 81
1, 9055, Note_off_c, 0, 31, 64
1, 9056, Note_off_c, 0, 99, 64
1, 9057, Note_off_c, 0, 30, 64
1, 9058, Note_on_c, 0, 68, 19
1, 9058, Note_on_c, 0, 86, 44
1, 9058, Note_on_c, 0, 90, 31
1, 9058, Note_on_c, 0, 97, 33
1, 9059, Note_on_c, 0, 36, 68
1, 9059, Note_on_c, 0, 64, 24
1, 9060, Note_on_c, 0, 31, 74
1, 9060, Note_off_c, 0, 36, 64
1, 9060, Note_on_c, 0, 61, 26
1, 9060, Note_on_c, 0, 85, 41
1, 9061, Note_on_c, 0, 30, 79
1, 9061, Note_off_c, 0, 31, 64
1, 9061, Note_on_c, 0, 70, 14
1, 9061, Note_off_c, 0, 86, 64
1, 9062, Note_on_c, 0, 29, 79
1, 9062, Note_off_c, 0, 30, 64
1, 9062, Note_on_c, 0, 49, 56
1, 9062, Note_off_c, 0, 64, 64
1, 9062, Note_on_c, 0, 78, 18
1, 9062, Note_on_c, 0, 95, 14
1, 9062, Note_on_c, 0, 99, 23
1, 9063, Note_off_c, 0, 29, 64
1, 9063, Note_on_c, 0, 30, 76
1, 9063, Note_off_c, 0, 68, 64
1, 9063, Note_on_c, 0, 88, 14
1, 9063, Note_on_c, 0, 96, 14
1, 9063, Note_on_c, 0, 101, 12
1, 9064, Note_off_c, 0, 70, 64
1, 9064, Note_on_c, 0, 94, 14
1, 9065, Note_on_c, 0, 29, 74
1, 9065, Note_off_c, 0, 30, 64
1, 9065, Note_off_c, 0, 49, 64
1, 9065, Note_off_c, 0, 78, 64
1, 9065, Note_on_c, 0, 100, 26
1, 9066, Note_off_c, 0, 61, 64
1, 9067, Note_off_c, 0, 88, 64
1, 9067, Note_off_c, 0, 94, 64
1, 9067, Note_off_c, 0, 96, 64
1, 9068, Note_off_c, 0, 29, 64
1, 9068, Note_on_c, 0, 30, 72
1, 9068, Note_on_c, 0, 68, 24
1, 9068, Note_on_c, 0, 71, 23
1, 9068, Note_on_c, 0, 76, 15
1, 9068, Note_on_c, 0, 84, 17
1, 9068, Note_on_c, 0, 91, 13
1, 9069, Note_off_c, 0, 30, 64
1, 9069, Note_on_c, 0, 31, 74
1, 9069, Note_on_c, 0, 64, 29
1, 9069, Note_on_c, 0, 86, 23
1, 9069, Note_off_c, 0, 95, 64
1, 9070, Note_on_c, 0, 30, 79
1, 9070, Note_off_c, 0, 31, 64
1, 9070, Note_on_c, 0, 49, 60
1, 9070, Note_on_c, 0, 79, 15
1, 9070, Note_off_c, 0, 101, 64
1, 9071, Note_on_c, 0, 29, 80
1, 9071, Note_off_c, 0, 30, 64
1, 9071, Note_on_c, 0, 63, 27
1, 9071, Note_off_c, 0, 64, 64
1, 9071, Note_off_c, 0, 76, 64
1, 9071, Note_off_c, 0, 91, 64
1, 9072, Note_off_c, 0, 49, 64
1, 9072, Note_off_c, 0, 84, 64
1, 9072, Note_off_c, 0, 86, 64
1, 9073, Note_off_c, 0, 29, 64
1, 9073, Note_on_c, 0, 30, 76
1, 9073, Note_off_c, 0, 71, 64
1, 9073, Note_off_c, 0, 79, 64
1, 9074, Note_off_c, 0, 100, 64
1, 9075, Note_off_c, 0, 30, 64
1, 9075, Note_on_c, 0, 34, 73
1, 9075, Note_off_c, 0, 63, 64
1, 9075, Note_off_c, 0, 68, 64
1, 9075, Note_off_c, 0, 85, 64
1, 9075, Note_on_c, 0, 86, 33
1, 9075, Note_off_c, 0, 97, 64
1, 9075, Note_off_c, 0, 99, 64
1, 9075, Note_on_c, 0, 100, 18
1, 9076, Note_off_c, 0, 34, 64
1, 9076, Note_on_c, 0, 76, 35
1, 9076, Note_on_c, 0, 78, 40
1, 9076, Note_on_c, 0, 83, 36
1, 9076, Note_on_c, 0, 84, 34
1, 9076, Note_on_c, 0, 89, 26
1, 9076, Note_on_c, 0, 91, 25
1, 9076, Note_on_c, 0, 92, 24
1, 9076, Note_on_c, 0, 97, 18
1, 9076, Note_on_c, 0, 99, 21
1, 9077, Note_on_c, 0, 81, 35
1, 9078, Note_on_c, 0, 51, 71
1, 9078, Note_on_c, 0, 68, 41
1, 9078, Note_off_c, 0, 76, 64
1, 9078, Note_on_c, 0, 85, 41
1, 9078, Note_off_c, 0, 100, 64
1, 9079, Note_on_c, 0, 48, 85
1, 9079, Note_off_c, 0, 51, 64
1, 9079, Note_off_c, 0, 81, 64
1, 9079, Note_off_c, 0, 83, 64
1, 9079, Note_off_c, 0, 84, 64
1, 9079, Note_off_c, 0, 86, 64
1, 9079, Note_off_c, 0, 89, 64
1, 9079, Note_off_c, 0, 91, 64
1, 9079, Note_off_c, 0, 92, 64
1, 9079, Note_off_c, 0, 97, 64
1, 9080, Note_on_c, 0, 45, 94
1, 9080, Note_off_c, 0, 48, 64
1, 9080, Note_off_c, 0, 68, 64
1, 9081, Note_on_c, 0, 42, 99
1, 9081, Note_off_c, 0, 45, 64
1, 9081, Note_off_c, 0, 99, 64
1, 9082, Note_on_c, 0, 40, 98
1, 9082, Note_off_c, 0, 42, 64
1, 9083, Note_on_c, 0, 38, 98
1, 9083, Note_off_c, 0, 40, 64
1, 9084, Note_on_c, 0, 36, 97
1, 9084, Note_off_c, 0, 38, 64
1, 9084, Note_off_c, 0, 78, 64
1, 9085, Note_on_c, 0, 35, 96
1, 9085, Note_off_c, 0, 36, 64
1, 9086, Note_on_c, 0, 34, 95
1, 9086, Note_off_c, 0, 35, 64
1, 9087, Note_on_c, 0, 33, 96
1, 9087, Note_off_c, 0, 34, 64
1, 9088, Note_on_c, 0, 32, 96
1, 9088, Note_off_c, 0, 33, 64
1, 9088, Note_off_c, 0, 90, 64
1, 9089, Note_off_c, 0, 85, 64
1, 9090, Note_on_c, 0, 31, 94
1, 9090, Note_off_c, 0, 32, 64
1, 9091, Note_on_c, 0, 85, 25
1, 9093, Note_on_c, 0, 30, 74
1, 9093, Note_off_c, 0, 31, 64
1, 9095, Note_off_c, 0, 30, 64
1, 9096, Note_on_c, 0, 42, 65
1, 9096, Note_on_c, 0, 70, 18
1, 9096, Note_on_c, 0, 96, 11
1, 9097, Note_on_c, 0, 31, 70
1, 9097, Note_off_c, 0, 42, 64
1, 9097, Note_on_c, 0, 54, 53
1, 9097, Note_on_c, 0, 61, 33
1, 9097, Note_off_c, 0, 85, 64
1, 9097, Note_on_c, 0, 100, 14
1, 9098, Note_on_c, 0, 30, 77
1, 9098, Note_off_c, 0, 31, 64
1, 9098, Note_on_c, 0, 79, 42
1, 9099, Note_on_c, 0, 29, 78
1, 9099, Note_off_c, 0, 30, 64
1, 9099, Note_on_c, 0, 68, 16
1, 9099, Note_on_c, 0, 71, 15
1, 9099, Note_on_c, 0, 86, 41
1, 9100, Note_off_c, 0, 54, 64
1, 9100, Note_off_c, 0, 61, 64
1, 9100, Note_off_c, 0, 70, 64
1, 9101, Note_off_c, 0, 29, 64
1, 9101, Note_on_c, 0, 30, 75
1, 9101, Note_on_c, 0, 90, 40
1, 9101, Note_off_c, 0, 96, 64
1, 9101, Note_on_c, 0, 97, 20
1, 9101, Note_off_c, 0, 100, 64
1, 9102, Note_on_c, 0, 61, 14
1, 9102, Note_on_c, 0, 78, 60
1, 9103, Note_on_c, 0, 29, 73
1, 9103, Note_off_c, 0, 30, 64
1, 9103, Note_on_c, 0, 85, 59
1, 9104, Note_off_c, 0, 71, 64
1, 9104, Note_off_c, 0, 79, 64
1, 9104, Note_off_c, 0, 86, 64
1, 9104, Note_on_c, 0, 99, 14
1, 9104, Note_on_c, 0, 100, 23
1, 9105, Note_off_c, 0, 61, 64
1, 9105, Note_off_c, 0, 68, 64
1, 9105, Note_on_c, 0, 70, 46
1, 9105, Note_on_c, 0, 88, 10
1, 9105, Note_on_c, 0, 95, 24
1, 9106, Note_off_c, 0, 29, 64
1, 9106, Note_on_c, 0, 30, 80
1, 9106, Note_on_c, 0, 61, 32
1, 9106, Note_on_c, 0, 77, 15
1, 9107, Note_on_c, 0, 63, 28
1, 9107, Note_on_c, 0, 68, 18
1, 9107, Note_on_c, 0, 80, 20
1, 9108, Note_on_c, 0, 83, 12
1, 9108, Note_off_c, 0, 88, 64
1, 9109, Note_on_c, 0, 29, 80
1, 9109, Note_off_c, 0, 30, 64
1, 9109, Note_off_c, 0, 90, 64
1, 9109, Note_off_c, 0, 99, 64
1, 9110, Note_off_c, 0, 63, 64
1, 9110, Note_off_c, 0, 77, 64
1, 9110, Note_off_c, 0, 80, 64
1, 9110, Note_on_c, 0, 96, 22
1, 9110, Note_off_c, 0, 97, 64
1, 9111, Note_off_c, 0, 29, 64
1, 9111, Note_on_c, 0, 30, 76
1, 9111, Note_off_c, 0, 68, 64
1, 9111, Note_off_c, 0, 83, 64
1, 9111, Note_on_c, 0, 99, 21
1, 9113, Note_off_c, 0, 30, 64
1, 9113, Note_on_c, 0, 34, 70
1, 9113, Note_on_c, 0, 54, 29
1, 9113, Note_off_c, 0, 61, 64
1, 9113, Note_on_c, 0, 75, 39
1, 9113, Note_on_c, 0, 84, 34
1, 9113, Note_on_c, 0, 86, 33
1, 9113, Note_on_c, 0, 88, 30
1, 9113, Note_on_c, 0, 93, 23
1, 9113, Note_on_c, 0, 101, 22
1, 9114, Note_off_c, 0, 34, 64
1, 9114, Note_on_c, 0, 65, 47
1, 9114, Note_on_c, 0, 80, 31
1, 9114, Note_off_c, 0, 85, 64
1, 9115, Note_off_c, 0, 54, 64
1, 9115, Note_on_c, 0, 68, 43
1, 9115, Note_on_c, 0, 74, 37
1, 9115, Note_off_c, 0, 75, 64
1, 9115, Note_on_c, 0, 76, 36
1, 9115, Note_off_c, 0, 84, 64
1, 9116, Note_on_c, 0, 49, 78
1, 9116, Note_off_c, 0, 80, 64
1, 9116, Note_off_c, 0, 88, 64
1, 9116, Note_off_c, 0, 95, 64
1, 9116, Note_off_c, 0, 96, 64
1, 9116, Note_off_c, 0, 99, 64
1, 9116, Note_off_c, 0, 100, 64
1, 9116, Note_off_c, 0, 101, 64
1, 9117, Note_on_c, 0, 45, 91
1, 9117, Note_off_c, 0, 49, 64
1, 9117, Note_off_c, 0, 68, 64
1, 9117, Note_on_c, 0, 73, 17
1, 9117, Note_off_c, 0, 74, 64
1, 9117, Note_off_c, 0, 86, 64
1, 9117, Note_off_c, 0, 93, 64
1, 9118, Note_on_c, 0, 42, 97
1, 9118, Note_off_c, 0, 45, 64
1, 9118, Note_off_c, 0, 65, 64
1, 9118, Note_off_c, 0, 70, 64
1, 9119, Note_on_c, 0, 41, 100
1, 9119, Note_off_c, 0, 42, 64
1, 9119, Note_on_c, 0, 66, 27
1, 9120, Note_on_c, 0, 39, 97
1, 9120, Note_off_c, 0, 41, 64
1, 9120, Note_off_c, 0, 73, 64
1, 9121, Note_on_c, 0, 37, 98
1, 9121, Note_off_c, 0, 39, 64
1, 9121, Note_on_c, 0, 68, 11
1, 9122, Note_on_c, 0, 36, 97
1, 9122, Note_off_c, 0, 37, 64
1, 9122, Note_on_c, 0, 86, 15
1, 9123, Note_on_c, 0, 35, 95
1, 9123, Note_off_c, 0, 36, 64
1, 9124, Note_on_c, 0, 34, 95
1, 9124, Note_off_c, 0, 35, 64
1, 9124, Note_off_c, 0, 68, 64
1, 9124, Note_on_c, 0, 70, 20
1, 9125, Note_on_c, 0, 33, 95
1, 9125, Note_off_c, 0, 34, 64
1, 9126, Note_on_c, 0, 32, 96
1, 9126, Note_off_c, 0, 33, 64
1, 9126, Note_on_c, 0, 85, 14
1, 9126, Note_off_c, 0, 86, 64
1, 9127, Note_on_c, 0, 31, 95
1, 9127, Note_off_c, 0, 32, 64
1, 9128, Note_on_c, 0, 71, 24
1, 9129, Note_off_c, 0, 76, 64
1, 9129, Note_on_c, 0, 79, 59
1, 9129, Note_off_c, 0, 85, 64
1, 9129, Note_on_c, 0, 100, 17
1, 9130, Note_on_c, 0, 30, 79
1, 9130, Note_off_c, 0, 31, 64
1, 9130, Note_off_c, 0, 78, 64
1, 9132, Note_off_c, 0, 30, 64
1, 9132, Note_off_c, 0, 70, 64
1, 9132, Note_on_c, 0, 76, 22
1, 9132, Note_on_c, 0, 86, 29
1, 9132, Note_on_c, 0, 99, 12
1, 9133, Note_on_c, 0, 55, 51
1, 9133, Note_on_c, 0, 84, 19
1, 9134, Note_on_c, 0, 36, 68
1, 9134, Note_on_c, 0, 61, 35
1, 9134, Note_off_c, 0, 71, 64
1, 9134, Note_on_c, 0, 90, 29
1, 9135, Note_on_c, 0, 31, 75
1, 9135, Note_off_c, 0, 36, 64
1, 9135, Note_off_c, 0, 55, 64
1, 9135, Note_on_c, 0, 81, 18
1, 9135, Note_off_c, 0, 100, 64
1, 9136, Note_on_c, 0, 30, 79
1, 9136, Note_off_c, 0, 31, 64
1, 9136, Note_on_c, 0, 85, 47
1, 9136, Note_off_c, 0, 86, 64
1, 9137, Note_on_c, 0, 29, 79
1, 9137, Note_off_c, 0, 30, 64
1, 9137, Note_on_c, 0, 49, 50
1, 9137, Note_on_c, 0, 54, 46
1, 9137, Note_off_c, 0, 76, 64
1, 9137, Note_on_c, 0, 77, 27
1, 9137, Note_on_c, 0, 93, 19
1, 9137, Note_on_c, 0, 98, 22
1, 9137, Note_off_c, 0, 99, 64
1, 9137, Note_on_c, 0, 103, 18
1, 9138, Note_on_c, 0, 68, 32
1, 9139, Note_off_c, 0, 29, 64
1, 9139, Note_on_c, 0, 30, 74
1, 9139, Note_off_c, 0, 54, 64
1, 9139, Note_off_c, 0, 66, 64
1, 9139, Note_on_c, 0, 78, 37
1, 9139, Note_off_c, 0, 81, 64
1, 9139, Note_on_c, 0, 82, 26
1, 9139, Note_off_c, 0, 84, 64
1, 9139, Note_on_c, 0, 92, 31
1, 9140, Note_on_c, 0, 29, 72
1, 9140, Note_off_c, 0, 30, 64
1, 9140, Note_off_c, 0, 49, 64
1, 9140, Note_off_c, 0, 61, 64
1, 9140, Note_off_c, 0, 79, 64
1, 9140, Note_off_c, 0, 93, 64
1, 9140, Note_on_c, 0, 100, 13
1, 9141, Note_on_c, 0, 54, 37
1, 9141, Note_off_c, 0, 85, 64
1, 9141, Note_on_c, 0, 86, 43
1, 9142, Note_on_c, 0, 73, 17
1, 9142, Note_on_c, 0, 75, 15
1, 9142, Note_on_c, 0, 95, 32
1, 9142, Note_on_c, 0, 96, 20
1, 9142, Note_on_c, 0, 99, 19
1, 9143, Note_off_c, 0, 29, 64
1, 9143, Note_on_c, 0, 30, 79
1, 9143, Note_off_c, 0, 54, 64
1, 9143, Note_off_c, 0, 68, 64
1, 9143, Note_off_c, 0, 78, 64
1, 9143, Note_on_c, 0, 79, 53
1, 9143, Note_on_c, 0, 81, 23
1, 9143, Note_off_c, 0, 82, 64
1, 9143, Note_on_c, 0, 88, 15
1, 9143, Note_on_c, 0, 101, 16
1, 9144, Note_on_c, 0, 61, 29
1, 9144, Note_on_c, 0, 83, 20
1, 9144, Note_off_c, 0, 100, 64
1, 9145, Note_on_c, 0, 68, 21
1, 9145, Note_off_c, 0, 73, 64
1, 9145, Note_off_c, 0, 75, 64
1, 9146, Note_on_c, 0, 29, 79
1, 9146, Note_off_c, 0, 30, 64
1, 9146, Note_on_c, 0, 49, 56
1, 9146, Note_on_c, 0, 71, 22
1, 9146, Note_on_c, 0, 78, 45
1, 9146, Note_off_c, 0, 79, 64
1, 9146, Note_on_c, 0, 87, 14
1, 9146, Note_off_c, 0, 99, 64
1, 9146, Note_off_c, 0, 103, 64
1, 9147, Note_off_c, 0, 29, 64
1, 9147, Note_on_c, 0, 30, 78
1, 9147, Note_off_c, 0, 61, 64
1, 9147, Note_off_c, 0, 88, 64
1, 9147, Note_off_c, 0, 90, 64
1, 9148, Note_off_c, 0, 78, 64
1, 9148, Note_on_c, 0, 79, 57
1, 9148, Note_on_c, 0, 94, 30
1, 9148, Note_off_c, 0, 96, 64
1, 9148, Note_on_c, 0, 97, 22
1, 9148, Note_on_c, 0, 100, 26
1, 9149, Note_off_c, 0, 49, 64
1, 9149, Note_off_c, 0, 71, 64
1, 9149, Note_on_c, 0, 84, 23
1, 9149, Note_on_c, 0, 85, 29
1, 9149, Note_off_c, 0, 87, 64
1, 9149, Note_off_c, 0, 101, 64
1, 9150, Note_off_c, 0, 30, 64
1, 9150, Note_on_c, 0, 34, 71
1, 9150, Note_off_c, 0, 68, 64
1, 9150, Note_on_c, 0, 70, 48
1, 9150, Note_off_c, 0, 77, 64
1, 9150, Note_off_c, 0, 81, 64
1, 9150, Note_off_c, 0, 83, 64
1, 9150, Note_off_c, 0, 98, 64
1, 9151, Note_off_c, 0, 34, 64
1, 9151, Note_on_c, 0, 60, 51
1, 9151, Note_on_c, 0, 83, 31
1, 9151, Note_off_c, 0, 86, 64
1, 9151, Note_on_c, 0, 87, 30
1, 9151, Note_on_c, 0, 88, 35
1, 9151, Note_on_c, 0, 93, 26
1, 9151, Note_on_c, 0, 96, 28
1, 9151, Note_on_c, 0, 98, 16
1, 9152, Note_on_c, 0, 64, 50
1, 9152, Note_on_c, 0, 74, 39
1, 9152, Note_on_c, 0, 77, 46
1, 9152, Note_on_c, 0, 80, 39
1, 9152, Note_off_c, 0, 84, 64
1, 9153, Note_on_c, 0, 51, 72
1, 9153, Note_off_c, 0, 60, 64
1, 9153, Note_on_c, 0, 72, 24
1, 9153, Note_off_c, 0, 79, 64
1, 9153, Note_off_c, 0, 83, 64
1, 9153, Note_on_c, 0, 90, 13
1, 9154, Note_on_c, 0, 48, 85
1, 9154, Note_off_c, 0, 51, 64
1, 9154, Note_off_c, 0, 74, 64
1, 9154, Note_on_c, 0, 79, 30
1, 9154, Note_off_c, 0, 87, 64
1, 9155, Note_on_c, 0, 45, 94
1, 9155, Note_off_c, 0, 48, 64
1, 9155, Note_off_c, 0, 64, 64
1, 9155, Note_on_c, 0, 66, 24
1, 9155, Note_on_c, 0, 73, 24
1, 9155, Note_off_c, 0, 92, 64
1, 9155, Note_off_c, 0, 94, 64
1, 9156, Note_on_c, 0, 42, 99
1, 9156, Note_off_c, 0, 45, 64
1, 9156, Note_off_c, 0, 72, 64
1, 9156, Note_off_c, 0, 85, 64
1, 9157, Note_on_c, 0, 40, 96
1, 9157, Note_off_c, 0, 42, 64
1, 9157, Note_off_c, 0, 70, 64
1, 9157, Note_on_c, 0, 71, 17
1, 9157, Note_off_c, 0, 80, 64
1, 9157, Note_on_c, 0, 87, 16
1, 9157, Note_off_c, 0, 90, 64
1, 9157, Note_on_c, 0, 94, 25
1, 9157, Note_off_c, 0, 98, 64
1, 9158, Note_on_c, 0, 38, 97
1, 9158, Note_off_c, 0, 40, 64
1, 9158, Note_on_c, 0, 61, 22
1, 9158, Note_on_c, 0, 68, 17
1, 9159, Note_on_c, 0, 36, 97
1, 9159, Note_off_c, 0, 38, 64
1, 9159, Note_on_c, 0, 82, 26
1, 9159, Note_on_c, 0, 86, 31
1, 9159, Note_on_c, 0, 90, 19
1, 9159, Note_off_c, 0, 93, 64
1, 9159, Note_off_c, 0, 95, 64
1, 9160, Note_on_c, 0, 35, 96
1, 9160, Note_off_c, 0, 36, 64
1, 9161, Note_on_c, 0, 34, 94
1, 9161, Note_off_c, 0, 35, 64
1, 9161, Note_off_c, 0, 71, 64
1, 9161, Note_off_c, 0, 73, 64
1, 9161, Note_on_c, 0, 74, 30
1, 9161, Note_off_c, 0, 87, 64
1, 9161, Note_off_c, 0, 100, 64
1, 9162, Note_on_c, 0, 33, 95
1, 9162, Note_off_c, 0, 34, 64
1, 9162, Note_on_c, 0, 49, 34
1, 9162, Note_off_c, 0, 68, 64
1, 9162, Note_on_c, 0, 70, 35
1, 9162, Note_on_c, 0, 80, 24
1, 9162, Note_off_c, 0, 88, 64
1, 9162, Note_on_c, 0, 93, 31
1, 9162, Note_off_c, 0, 94, 64
1, 9163, Note_on_c, 0, 32, 95
1, 9163, Note_off_c, 0, 33, 64
1, 9163, Note_off_c, 0, 90, 64
1, 9163, Note_on_c, 0, 100, 25
1, 9164, Note_on_c, 0, 48, 32
1, 9164, Note_off_c, 0, 49, 64
1, 9164, Note_on_c, 0, 88, 27
1, 9164, Note_on_c, 0, 102, 9
1, 9165, Note_on_c, 0, 31, 93
1, 9165, Note_off_c, 0, 32, 64
1, 9165, Note_on_c, 0, 81, 21
1, 9165, Note_on_c, 0, 84, 28
1, 9166, Note_off_c, 0, 48, 64
1, 9166, Note_off_c, 0, 66, 64
1, 9166, Note_on_c, 0, 90, 23
1, 9166, Note_on_c, 0, 99, 14
1, 9167, Note_on_c, 0, 87, 13
1, 9167, Note_on_c, 0, 95, 33
1, 9167, Note_off_c, 0, 97, 64
1, 9167, Note_off_c, 0, 102, 64
1, 9168, Note_on_c, 0, 30, 72
1, 9168, Note_off_c, 0, 31, 64
1, 9168, Note_off_c, 0, 61, 64
1, 9168, Note_off_c, 0, 77, 64
1, 9168, Note_off_c, 0, 79, 64
1, 9168, Note_off_c, 0, 80, 64
1, 9168, Note_off_c, 0, 82, 64
1, 9169, Note_off_c, 0, 74, 64
1, 9169, Note_on_c, 0, 76, 28
1, 9169, Note_off_c, 0, 88, 64
1, 9169, Note_on_c, 0, 97, 35
1, 9169, Note_off_c, 0, 100, 64
1, 9170, Note_off_c, 0, 30, 64
1, 9170, Note_on_c, 0, 41, 66
1, 9170, Note_on_c, 0, 79, 37
1, 9170, Note_off_c, 0, 81, 64
1, 9170, Note_on_c, 0, 85, 33
1, 9170, Note_off_c, 0, 86, 64
1, 9171, Note_on_c, 0, 68, 21
1, 9171, Note_off_c, 0, 70, 64
1, 9171, Note_on_c, 0, 81, 22
1, 9171, Note_off_c, 0, 84, 64
1, 9171, Note_on_c, 0, 86, 39
1, 9171, Note_off_c, 0, 87, 64
1, 9171, Note_on_c, 0, 88, 31
1, 9172, Note_on_c, 0, 31, 71
1, 9172, Note_off_c, 0, 41, 64
1, 9172, Note_on_c, 0, 64, 26
1, 9172, Note_on_c, 0, 83, 25
1, 9172, Note_on_c, 0, 89, 27
1, 9173, Note_on_c, 0, 30, 78
1, 9173, Note_off_c, 0, 31, 64
1, 9173, Note_on_c, 0, 77, 22
1, 9173, Note_off_c, 0, 85, 64
1, 9173, Note_off_c, 0, 90, 64
1, 9173, Note_on_c, 0, 92, 28
1, 9174, Note_on_c, 0, 29, 78
1, 9174, Note_off_c, 0, 30, 64
1, 9174, Note_on_c, 0, 71, 26
1, 9174, Note_off_c, 0, 76, 64
1, 9174, Note_off_c, 0, 79, 64
1, 9174, Note_on_c, 0, 80, 26
1, 9174, Note_off_c, 0, 81, 64
1, 9174, Note_on_c, 0, 85, 30
1, 9174, Note_on_c, 0, 90, 33
1, 9174, Note_off_c, 0, 99, 64
1, 9175, Note_off_c, 0, 29, 64
1, 9175, Note_on_c, 0, 30, 75
1, 9175, Note_on_c, 0, 49, 57
1, 9175, Note_on_c, 0, 78, 14
1, 9175, Note_on_c, 0, 94, 24
1, 9175, Note_on_c, 0, 99, 25
1, 9176, Note_off_c, 0, 64, 64
1, 9176, Note_on_c, 0, 66, 25
1, 9176, Note_on_c, 0, 91, 38
1, 9177, Note_on_c, 0, 29, 74
1, 9177, Note_off_c, 0, 30, 64
1, 9177, Note_off_c, 0, 49, 64
1, 9177, Note_on_c, 0, 61, 40
1, 9177, Note_off_c, 0, 77, 64
1, 9177, Note_on_c, 0, 82, 28
1, 9177, Note_on_c, 0, 84, 32
1, 9177, Note_off_c, 0, 96, 64
1, 9178, Note_off_c, 0, 68, 64
1, 9178, Note_off_c, 0, 71, 64
1, 9178, Note_on_c, 0, 74, 28
1, 9178, Note_off_c, 0, 80, 64
1, 9178, Note_off_c, 0, 83, 64
1, 9178, Note_off_c, 0, 85, 64
1, 9179, Note_on_c, 0, 70, 30
1, 9179, Note_on_c, 0, 83, 27
1, 9179, Note_off_c, 0, 92, 64
1, 9180, Note_on_c, 0, 76, 32
1, 9180, Note_off_c, 0, 78, 64
1, 9180, Note_on_c, 0, 79, 46
1, 9180, Note_off_c, 0, 84, 64
1, 9180, Note_on_c, 0, 96, 26
1, 9181, Note_off_c, 0, 29, 64
1, 9181, Note_on_c, 0, 30, 78
1, 9181, Note_on_c, 0, 54, 51
1, 9181, Note_off_c, 0, 74, 64
1, 9181, Note_on_c, 0, 87, 31
1, 9181, Note_off_c, 0, 88, 64
1, 9182, Note_on_c, 0, 75, 40
1, 9182, Note_off_c, 0, 76, 64
1, 9182, Note_on_c, 0, 88, 36
1, 9182, Note_off_c, 0, 90, 64
1, 9183, Note_off_c, 0, 54, 64
1, 9183, Note_off_c, 0, 83, 64
1, 9183, Note_on_c, 0, 85, 39
1, 9183, Note_on_c, 0, 92, 18
1, 9184, Note_off_c, 0, 75, 64
1, 9184, Note_on_c, 0, 76, 47
1, 9184, Note_on_c, 0, 81, 31
1, 9184, Note_off_c, 0, 82, 64
1, 9184, Note_on_c, 0, 83, 30
1, 9184, Note_off_c, 0, 86, 64
1, 9184, Note_on_c, 0, 90, 29
1, 9185, Note_on_c, 0, 84, 31
1, 9186, Note_on_c, 0, 74, 22
1, 9186, Note_off_c, 0, 83, 64
1, 9186, Note_off_c, 0, 85, 64
1, 9186, Note_on_c, 0, 86, 31
1, 9186, Note_off_c, 0, 87, 64
1, 9186, Note_off_c, 0, 92, 64
1, 9187, Note_off_c, 0, 30, 64
1, 9187, Note_on_c, 0, 31, 70
1, 9187, Note_on_c, 0, 54, 35
1, 9187, Note_off_c, 0, 66, 64
1, 9187, Note_on_c, 0, 67, 42
1, 9187, Note_on_c, 0, 83, 41
1, 9187, Note_off_c, 0, 89, 64
1, 9187, Note_on_c, 0, 92, 31
1, 9187, Note_off_c, 0, 93, 64
1, 9188, Note_off_c, 0, 31, 64
1, 9188, Note_on_c, 0, 34, 66
1, 9188, Note_off_c, 0, 70, 64
1, 9188, Note_on_c, 0, 72, 40
1, 9188, Note_on_c, 0, 85, 39
1, 9188, Note_on_c, 0, 89, 33
1, 9188, Note_off_c, 0, 90, 64
1, 9189, Note_off_c, 0, 34, 64
1, 9189, Note_off_c, 0, 54, 64
1, 9189, Note_off_c, 0, 61, 64
1, 9189, Note_on_c, 0, 70, 40
1, 9189, Note_off_c, 0, 74, 64
1, 9189, Note_off_c, 0, 79, 64
1, 9189, Note_off_c, 0, 81, 64
1, 9189, Note_off_c, 0, 84, 64
1, 9189, Note_off_c, 0, 86, 64
1, 9189, Note_on_c, 0, 87, 27
1, 9189, Note_on_c, 0, 90, 35
1, 9190, Note_on_c, 0, 55, 65
1, 9190, Note_off_c, 0, 67, 64
1, 9190, Note_off_c, 0, 72, 64
1, 9190, Note_on_c, 0, 73, 41
1, 9190, Note_on_c, 0, 84, 24
1, 9190, Note_on_c, 0, 86, 32
1, 9191, Note_on_c, 0, 49, 79
1, 9191, Note_off_c, 0, 55, 64
1, 9191, Note_on_c, 0, 63, 32
1, 9191, Note_on_c, 0, 66, 31
1, 9191, Note_on_c, 0, 78, 38
1, 9191, Note_off_c, 0, 83, 64
1, 9191, Note_off_c, 0, 90, 64
1, 9191, Note_off_c, 0, 92, 64
1, 9191, Note_off_c, 0, 96, 64
1, 9191, Note_off_c, 0, 99, 64
1, 9192, Note_on_c, 0, 45, 91
1, 9192, Note_off_c, 0, 49, 64
1, 9192, Note_on_c, 0, 68, 35
1, 9192, Note_off_c, 0, 70, 64
1, 9192, Note_off_c, 0, 87, 64
1, 9193, Note_on_c, 0, 42, 97
1, 9193, Note_off_c, 0, 45, 64
1, 9193, Note_on_c, 0, 61, 27
1, 9193, Note_off_c, 0, 63, 64
1, 9193, Note_off_c, 0, 66, 64
1, 9193, Note_off_c, 0, 84, 64
1, 9193, Note_off_c, 0, 94, 64
1, 9193, Note_off_c, 0, 95, 64
1, 9193, Note_on_c, 0, 96, 14
1, 9194, Note_on_c, 0, 41, 98
1, 9194, Note_off_c, 0, 42, 64
1, 9194, Note_on_c, 0, 83, 29
1, 9195, Note_on_c, 0, 38, 96
1, 9195, Note_off_c, 0, 41, 64
1, 9195, Note_on_c, 0, 84, 24
1, 9195, Note_off_c, 0, 85, 64
1, 9195, Note_off_c, 0, 89, 64
1, 9195, Note_on_c, 0, 94, 15
1, 9195, Note_off_c, 0, 97, 64
1, 9196, Note_on_c, 0, 37, 97
1, 9196, Note_off_c, 0, 38, 64
1, 9196, Note_off_c, 0, 73, 64
1, 9196, Note_on_c, 0, 81, 20
1, 9196, Note_on_c, 0, 97, 13
1, 9197, Note_on_c, 0, 36, 96
1, 9197, Note_off_c, 0, 37, 64
1, 9197, Note_on_c, 0, 73, 29
1, 9197, Note_off_c, 0, 83, 64
1, 9198, Note_on_c, 0, 34, 95
1, 9198, Note_off_c, 0, 36, 64
1, 9198, Note_on_c, 0, 67, 36
1, 9198, Note_off_c, 0, 68, 64
1, 9198, Note_on_c, 0, 82, 21
1, 9198, Note_off_c, 0, 84, 64
1, 9198, Note_off_c, 0, 86, 64
1, 9198, Note_on_c, 0, 87, 30
1, 9198, Note_on_c, 0, 89, 30
1, 9198, Note_off_c, 0, 96, 64
1, 9199, Note_on_c, 0, 33, 95
1, 9199, Note_off_c, 0, 34, 64
1, 9199, Note_on_c, 0, 77, 30
1, 9199, Note_on_c, 0, 80, 35
1, 9199, Note_off_c, 0, 81, 64
1, 9199, Note_off_c, 0, 97, 64
1, 9200, Note_off_c, 0, 67, 64
1, 9200, Note_off_c, 0, 76, 64
1, 9200, Note_on_c, 0, 83, 28
1, 9200, Note_on_c, 0, 86, 23
1, 9200, Note_off_c, 0, 88, 64
1, 9200, Note_off_c, 0, 91, 64
1, 9200, Note_off_c, 0, 94, 64
1, 9201, Note_on_c, 0, 32, 95
1, 9201, Note_off_c, 0, 33, 64
1, 9201, Note_on_c, 0, 85, 33
1, 9202, Note_on_c, 0, 31, 94
1, 9202, Note_off_c, 0, 32, 64
1, 9202, Note_on_c, 0, 67, 35
1, 9202, Note_off_c, 0, 82, 64
1, 9202, Note_on_c, 0, 91, 30
1, 9203, Note_on_c, 0, 68, 38
1, 9203, Note_off_c, 0, 77, 64
1, 9203, Note_on_c, 0, 82, 37
1, 9203, Note_off_c, 0, 83, 64
1, 9204, Note_off_c, 0, 67, 64
1, 9204, Note_on_c, 0, 83, 32
1, 9204, Note_off_c, 0, 85, 64
1, 9205, Note_on_c, 0, 30, 78
1, 9205, Note_off_c, 0, 31, 64
1, 9205, Note_on_c, 0, 67, 45
1, 9205, Note_off_c, 0, 68, 64
1, 9205, Note_on_c, 0, 81, 32
1, 9205, Note_on_c, 0, 84, 28
1, 9206, Note_off_c, 0, 80, 64
1, 9206, Note_off_c, 0, 83, 64
1, 9206, Note_off_c, 0, 87, 64
1, 9207, Note_off_c, 0, 30, 64
1, 9207, Note_off_c, 0, 73, 64
1, 9207, Note_on_c, 0, 77, 25
1, 9207, Note_on_c, 0, 83, 35
1, 9207, Note_on_c, 0, 85, 21
1, 9207, Note_on_c, 0, 88, 34
1, 9208, Note_off_c, 0, 61, 64
1, 9208, Note_on_c, 0, 76, 17
1, 9208, Note_on_c, 0, 80, 35
1, 9208, Note_off_c, 0, 81, 64
1, 9208, Note_off_c, 0, 84, 64
1, 9208, Note_off_c, 0, 86, 64
1, 9208, Note_on_c, 0, 87, 33
1, 9209, Note_on_c, 0, 36, 67
1, 9209, Note_on_c, 0, 61, 30
1, 9209, Note_on_c, 0, 70, 27
1, 9209, Note_off_c, 0, 78, 64
1, 9209, Note_on_c, 0, 84, 39
1, 9210, Note_on_c, 0, 31, 74
1, 9210, Note_off_c, 0, 36, 64
1, 9210, Note_on_c, 0, 49, 59
1, 9210, Note_on_c, 0, 64, 29
1, 9210, Note_off_c, 0, 80, 64
1, 9210, Note_off_c, 0, 83, 64
1, 9210, Note_off_c, 0, 85, 64
1, 9210, Note_on_c, 0, 86, 31
1, 9211, Note_on_c, 0, 30, 78
1, 9211, Note_off_c, 0, 31, 64
1, 9211, Note_on_c, 0, 73, 33
1, 9211, Note_off_c, 0, 76, 64
1, 9211, Note_on_c, 0, 83, 33
1, 9212, Note_on_c, 0, 29, 77
1, 9212, Note_off_c, 0, 30, 64
1, 9212, Note_off_c, 0, 64, 64
1, 9212, Note_on_c, 0, 76, 14
1, 9212, Note_off_c, 0, 77, 64
1, 9213, Note_off_c, 0, 29, 64
1, 9213, Note_on_c, 0, 30, 74
1, 9213, Note_off_c, 0, 49, 64
1, 9213, Note_off_c, 0, 82, 64
1, 9213, Note_off_c, 0, 87, 64
1, 9213, Note_off_c, 0, 88, 64
1, 9213, Note_on_c, 0, 90, 29
1, 9214, Note_on_c, 0, 88, 21
1, 9214, Note_on_c, 0, 93, 33
1, 9215, Note_on_c, 0, 29, 73
1, 9215, Note_off_c, 0, 30, 64
1, 9215, Note_off_c, 0, 76, 64
1, 9215, Note_on_c, 0, 87, 31
1, 9216, Note_on_c, 0, 58, 32
1, 9216, Note_off_c, 0, 83, 64
1, 9216, Note_off_c, 0, 89, 64
1, 9217, Note_off_c, 0, 61, 64
1, 9217, Note_off_c, 0, 84, 64
1, 9217, Note_on_c, 0, 89, 27
1, 9218, Note_off_c, 0, 29, 64
1, 9218, Note_on_c, 0, 30, 71
1, 9218, Note_on_c, 0, 43, 66
1, 9218, Note_off_c, 0, 58, 64
1, 9218, Note_off_c, 0, 70, 64
1, 9218, Note_on_c, 0, 82, 28
1, 9218, Note_off_c, 0, 88, 64
1, 9218, Note_off_c, 0, 90, 64
1, 9219, Note_off_c, 0, 30, 64
1, 9219, Note_on_c, 0, 31, 73
1, 9219, Note_off_c, 0, 43, 64
1, 9219, Note_on_c, 0, 76, 28
1, 9219, Note_off_c, 0, 86, 64
1, 9219, Note_on_c, 0, 88, 35
1, 9219, Note_on_c, 0, 90, 32
1, 9219, Note_off_c, 0, 91, 64
1, 9219, Note_on_c, 0, 92, 30
1, 9220, Note_on_c, 0, 30, 77
1, 9220, Note_off_c, 0, 31, 64
1, 9220, Note_off_c, 0, 67, 64
1, 9220, Note_on_c, 0, 68, 31
1, 9220, Note_on_c, 0, 71, 48
1, 9220, Note_on_c, 0, 86, 19
1, 9220, Note_off_c, 0, 87, 64
1, 9220, Note_on_c, 0, 95, 19
1, 9221, Note_on_c, 0, 29, 78
1, 9221, Note_off_c, 0, 30, 64
1, 9221, Note_on_c, 0, 49, 58
1, 9221, Note_on_c, 0, 63, 27
1, 9221, Note_on_c, 0, 84, 21
1, 9222, Note_off_c, 0, 29, 64
1, 9222, Note_on_c, 0, 30, 76
1, 9222, Note_off_c, 0, 76, 64
1, 9222, Note_on_c, 0, 87, 38
1, 9222, Note_off_c, 0, 89, 64
1, 9223, Note_off_c, 0, 95, 64
1, 9224, Note_off_c, 0, 49, 64
1, 9224, Note_off_c, 0, 63, 64
1, 9224, Note_off_c, 0, 73, 64
1, 9224, Note_on_c, 0, 74, 28
1, 9224, Note_off_c, 0, 82, 64
1, 9224, Note_off_c, 0, 84, 64
1, 9224, Note_off_c, 0, 86, 64
1, 9225, Note_off_c, 0, 30, 64
1, 9225, Note_on_c, 0, 34, 70
1, 9225, Note_on_c, 0, 67, 32
1, 9225, Note_off_c, 0, 68, 64
1, 9225, Note_on_c, 0, 86, 37
1, 9225, Note_on_c, 0, 94, 18
1, 9225, Note_on_c, 0, 97, 25
1, 9226, Note_off_c, 0, 34, 64
1, 9226, Note_on_c, 0, 78, 42
1, 9226, Note_on_c, 0, 81, 40
1, 9226, Note_on_c, 0, 101, 21
1, 9227, Note_off_c, 0, 67, 64
1, 9227, Note_on_c, 0, 68, 45
1, 9227, Note_off_c, 0, 74, 64
1, 9227, Note_on_c, 0, 84, 39
1, 9227, Note_on_c, 0, 85, 32
1, 9227, Note_off_c, 0, 87, 64
1, 9227, Note_on_c, 0, 89, 32
1, 9227, Note_off_c, 0, 90, 64
1, 9228, Note_on_c, 0, 51, 72
1, 9228, Note_off_c, 0, 71, 64
1, 9228, Note_on_c, 0, 72, 35
1, 9228, Note_on_c, 0, 76, 24
1, 9228, Note_on_c, 0, 77, 34
1, 9228, Note_off_c, 0, 78, 64
1, 9228, Note_on_c, 0, 87, 24
1, 9228, Note_off_c, 0, 88, 64
1, 9228, Note_on_c, 0, 90, 33
1, 9228, Note_off_c, 0, 92, 64
1, 9229, Note_on_c, 0, 48, 84
1, 9229, Note_off_c, 0, 51, 64
1, 9229, Note_off_c, 0, 81, 64
1, 9229, Note_on_c, 0, 82, 29
1, 9229, Note_on_c, 0, 88, 27
1, 9229, Note_off_c, 0, 101, 64
1, 9230, Note_on_c, 0, 44, 93
1, 9230, Note_off_c, 0, 48, 64
1, 9230, Note_off_c, 0, 72, 64
1, 9230, Note_on_c, 0, 73, 25
1, 9230, Note_off_c, 0, 89, 64
1, 9231, Note_on_c, 0, 41, 98
1, 9231, Note_off_c, 0, 44, 64
1, 9231, Note_off_c, 0, 82, 64
1, 9231, Note_off_c, 0, 93, 64
1, 9232, Note_on_c, 0, 40, 95
1, 9232, Note_off_c, 0, 41, 64
1, 9232, Note_on_c, 0, 70, 25
1, 9232, Note_off_c, 0, 77, 64
1, 9232, Note_on_c, 0, 78, 28
1, 9232, Note_on_c, 0, 83, 21
1, 9232, Note_off_c, 0, 84, 64
1, 9232, Note_off_c, 0, 87, 64
1, 9233, Note_on_c, 0, 38, 97
1, 9233, Note_off_c, 0, 40, 64
1, 9233, Note_on_c, 0, 82, 39
1, 9233, Note_off_c, 0, 85, 64
1, 9233, Note_on_c, 0, 89, 29
1, 9234, Note_on_c, 0, 36, 96
1, 9234, Note_off_c, 0, 38, 64
1, 9234, Note_off_c, 0, 76, 64
1, 9234, Note_on_c, 0, 79, 30
1, 9235, Note_on_c, 0, 35, 95
1, 9235, Note_off_c, 0, 36, 64
1, 9235, Note_on_c, 0, 76, 20
1, 9235, Note_on_c, 0, 93, 19
1, 9235, Note_off_c, 0, 97, 64
1, 9236, Note_on_c, 0, 34, 95
1, 9236, Note_off_c, 0, 35, 64
1, 9236, Note_on_c, 0, 84, 26
1, 9236, Note_off_c, 0, 89, 64
1, 9237, Note_on_c, 0, 33, 95
1, 9237, Note_off_c, 0, 34, 64
1, 9237, Note_on_c, 0, 67, 21
1, 9237, Note_off_c, 0, 68, 64
1, 9237, Note_off_c, 0, 78, 64
1, 9237, Note_on_c, 0, 89, 40
1, 9238, Note_on_c, 0, 32, 95
1, 9238, Note_off_c, 0, 33, 64
1, 9238, Note_off_c, 0, 73, 64
1, 9238, Note_on_c, 0, 74, 25
1, 9238, Note_off_c, 0, 76, 64
1, 9238, Note_off_c, 0, 94, 64
1, 9239, Note_on_c, 0, 48, 32
1, 9239, Note_off_c, 0, 70, 64
1, 9239, Note_on_c, 0, 71, 18
1, 9239, Note_off_c, 0, 83, 64
1, 9239, Note_on_c, 0, 85, 29
1, 9239, Note_off_c, 0, 86, 64
1, 9239, Note_on_c, 0, 98, 9
1, 9240, Note_on_c, 0, 31, 93
1, 9240, Note_off_c, 0, 32, 64
1, 9240, Note_off_c, 0, 79, 64
1, 9240, Note_on_c, 0, 80, 30
1, 9240, Note_on_c, 0, 86, 27
1, 9241, Note_off_c, 0, 48, 64
1, 9241, Note_off_c, 0, 90, 64
1, 9242, Note_on_c, 0, 30, 83
1, 9242, Note_off_c, 0, 31, 64
1, 9242, Note_off_c, 0, 67, 64
1, 9242, Note_on_c, 0, 68, 29
1, 9242, Note_off_c, 0, 71, 64
1, 9242, Note_on_c, 0, 78, 60
1, 9242, Note_off_c, 0, 84, 64
1, 9243, Note_on_c, 0, 79, 27
1, 9243, Note_off_c, 0, 80, 64
1, 9243, Note_on_c, 0, 92, 18
1, 9243, Note_on_c, 0, 95, 26
1, 9243, Note_on_c, 0, 96, 13
1, 9243, Note_off_c, 0, 98, 64
1, 9244, Note_on_c, 0, 91, 32
1, 9245, Note_off_c, 0, 30, 64
1, 9245, Note_on_c, 0, 84, 44
1, 9246, Note_on_c, 0, 37, 67
1, 9246, Note_on_c, 0, 71, 45
1, 9246, Note_on_c, 0, 76, 44
1, 9246, Note_off_c, 0, 79, 64
1, 9246, Note_off_c, 0, 85, 64
1, 9247, Note_on_c, 0, 31, 71
1, 9247, Note_off_c, 0, 37, 64
1, 9247, Note_on_c, 0, 64, 37
1, 9247, Note_on_c, 0, 67, 30
1, 9247, Note_off_c, 0, 68, 64
1, 9247, Note_on_c, 0, 85, 39
1, 9247, Note_off_c, 0, 92, 64
1, 9248, Note_on_c, 0, 30, 77
1, 9248, Note_off_c, 0, 31, 64
1, 9248, Note_on_c, 0, 80, 45
1, 9248, Note_off_c, 0, 86, 64
1, 9248, Note_on_c, 0, 87, 33
1, 9249, Note_on_c, 0, 29, 78
1, 9249, Note_off_c, 0, 30, 64
1, 9249, Note_on_c, 0, 73, 38
1, 9249, Note_off_c, 0, 74, 64
1, 9249, Note_on_c, 0, 86, 30
1, 9249, Note_off_c, 0, 88, 64
1, 9250, Note_off_c, 0, 29, 64
1, 9250, Note_on_c, 0, 30, 76
1, 9250, Note_on_c, 0, 49, 52
1, 9250, Note_off_c, 0, 67, 64
1, 9250, Note_on_c, 0, 68, 44
1, 9250, Note_off_c, 0, 71, 64
1, 9250, Note_on_c, 0, 72, 48
1, 9250, Note_off_c, 0, 82, 64
1, 9251, Note_off_c, 0, 73, 64
1, 9251, Note_on_c, 0, 77, 42
1, 9251, Note_off_c, 0, 78, 64
1, 9251, Note_on_c, 0, 79, 42
1, 9251, Note_off_c, 0, 80, 64
1, 9251, Note_on_c, 0, 82, 41
1, 9251, Note_off_c, 0, 85, 64
1, 9252, Note_on_c, 0, 29, 73
1, 9252, Note_off_c, 0, 30, 64
1, 9252, Note_off_c, 0, 49, 64
1, 9252, Note_on_c, 0, 58, 26
1, 9252, Note_off_c, 0, 72, 64
1, 9252, Note_on_c, 0, 73, 43
1, 9252, Note_off_c, 0, 86, 64
1, 9252, Note_off_c, 0, 96, 64
1, 9253, Note_off_c, 0, 64, 64
1, 9253, Note_on_c, 0, 72, 53
1, 9253, Note_off_c, 0, 76, 64
1, 9253, Note_off_c, 0, 79, 64
1, 9253, Note_on_c, 0, 81, 39
1, 9253, Note_on_c, 0, 83, 43
1, 9253, Note_on_c, 0, 86, 48
1, 9253, Note_on_c, 0, 92, 18
1, 9253, Note_off_c, 0, 93, 64
1, 9254, Note_off_c, 0, 73, 64
1, 9254, Note_on_c, 0, 79, 37
1, 9254, Note_off_c, 0, 82, 64
1, 9254, Note_off_c, 0, 84, 64
1, 9254, Note_on_c, 0, 85, 33
1, 9254, Note_off_c, 0, 89, 64
1, 9254, Note_on_c, 0, 96, 22
1, 9255, Note_off_c, 0, 58, 64
1, 9255, Note_on_c, 0, 64, 37
1, 9255, Note_on_c, 0, 71, 42
1, 9255, Note_on_c, 0, 75, 38
1, 9255, Note_off_c, 0, 77, 64
1, 9255, Note_off_c, 0, 95, 64
1, 9256, Note_off_c, 0, 29, 64
1, 9256, Note_on_c, 0, 30, 78
1, 9256, Note_off_c, 0, 72, 64
1, 9256, Note_on_c, 0, 89, 43
1, 9256, Note_off_c, 0, 92, 64
1, 9257, Note_off_c, 0, 71, 64
1, 9257, Note_on_c, 0, 72, 40
1, 9257, Note_off_c, 0, 83, 64
1, 9257, Note_off_c, 0, 85, 64
1, 9257, Note_on_c, 0, 100, 20
1, 9258, Note_on_c, 0, 49, 59
1, 9258, Note_on_c, 0, 67, 32
1, 9258, Note_off_c, 0, 68, 64
1, 9258, Note_on_c, 0, 78, 51
1, 9258, Note_off_c, 0, 79, 64
1, 9258, Note_on_c, 0, 85, 37
1, 9259, Note_on_c, 0, 29, 78
1, 9259, Note_off_c, 0, 30, 64
1, 9259, Note_on_c, 0, 68, 37
1, 9259, Note_off_c, 0, 72, 64
1, 9259, Note_off_c, 0, 75, 64
1, 9259, Note_on_c, 0, 82, 37
1, 9259, Note_on_c, 0, 83, 26
1, 9259, Note_off_c, 0, 87, 64
1, 9259, Note_off_c, 0, 91, 64
1, 9259, Note_on_c, 0, 92, 34
1, 9260, Note_off_c, 0, 49, 64
1, 9260, Note_off_c, 0, 67, 64
1, 9260, Note_on_c, 0, 73, 43
1, 9260, Note_on_c, 0, 80, 38
1, 9260, Note_on_c, 0, 87, 30
1, 9260, Note_on_c, 0, 95, 27
1, 9261, Note_off_c, 0, 29, 64
1, 9261, Note_on_c, 0, 30, 74
1, 9261, Note_off_c, 0, 64, 64
1, 9261, Note_on_c, 0, 71, 41
1, 9261, Note_off_c, 0, 81, 64
1, 9261, Note_on_c, 0, 91, 37
1, 9262, Note_off_c, 0, 30, 64
1, 9262, Note_on_c, 0, 33, 72
1, 9262, Note_off_c, 0, 68, 64
1, 9262, Note_off_c, 0, 83, 64
1, 9262, Note_off_c, 0, 96, 64
1, 9263, Note_off_c, 0, 33, 64
1, 9263, Note_on_c, 0, 35, 66
1, 9263, Note_on_c, 0, 81, 43
1, 9263, Note_off_c, 0, 82, 64
1, 9263, Note_on_c, 0, 83, 51
1, 9264, Note_off_c, 0, 35, 64
1, 9264, Note_off_c, 0, 78, 64
1, 9264, Note_on_c, 0, 79, 58
1, 9264, Note_off_c, 0, 80, 64
1, 9264, Note_off_c, 0, 87, 64
1, 9264, Note_on_c, 0, 88, 44
1, 9265, Note_on_c, 0, 54, 67
1, 9265, Note_on_c, 0, 62, 49
1, 9265, Note_off_c, 0, 73, 64
1, 9265, Note_on_c, 0, 82, 35
1, 9265, Note_off_c, 0, 85, 64
1, 9266, Note_on_c, 0, 48, 80
1, 9266, Note_off_c, 0, 54, 64
1, 9266, Note_on_c, 0, 87, 29
1, 9266, Note_off_c, 0, 95, 64
1, 9266, Note_on_c, 0, 96, 13
1, 9267, Note_on_c, 0, 45, 92
1, 9267, Note_off_c, 0, 48, 64
1, 9267, Note_off_c, 0, 62, 64
1, 9267, Note_on_c, 0, 77, 37
1, 9267, Note_on_c, 0, 80, 43
1, 9267, Note_off_c, 0, 82, 64
1, 9267, Note_on_c, 0, 84, 36
1, 9267, Note_off_c, 0, 100, 64
1, 9268, Note_on_c, 0, 42, 97
1, 9268, Note_off_c, 0, 45, 64
1, 9268, Note_off_c, 0, 71, 64
1, 9268, Note_on_c, 0, 72, 38
1, 9268, Note_off_c, 0, 88, 64
1, 9269, Note_on_c, 0, 41, 97
1, 9269, Note_off_c, 0, 42, 64
1, 9269, Note_on_c, 0, 73, 41
1, 9269, Note_on_c, 0, 75, 30
1, 9269, Note_on_c, 0, 76, 42
1, 9269, Note_off_c, 0, 77, 64
1, 9269, Note_on_c, 0, 78, 32
1, 9269, Note_off_c, 0, 79, 64
1, 9269, Note_off_c, 0, 86, 64
1, 9269, Note_off_c, 0, 89, 64
1, 9269, Note_off_c, 0, 92, 64
1, 9269, Note_off_c, 0, 96, 64
1, 9270, Note_on_c, 0, 38, 96
1, 9270, Note_off_c, 0, 41, 64
1, 9270, Note_off_c, 0, 72, 64
1, 9270, Note_on_c, 0, 79, 40
1, 9270, Note_on_c, 0, 89, 33
1, 9270, Note_off_c, 0, 91, 64
1, 9271, Note_on_c, 0, 37, 97
1, 9271, Note_off_c, 0, 38, 64
1, 9271, Note_off_c, 0, 76, 64
1, 9271, Note_on_c, 0, 77, 45
1, 9271, Note_off_c, 0, 78, 64
1, 9271, Note_off_c, 0, 81, 64
1, 9271, Note_on_c, 0, 82, 29
1, 9272, Note_on_c, 0, 36, 96
1, 9272, Note_off_c, 0, 37, 64
1, 9272, Note_on_c, 0, 70, 22
1, 9272, Note_on_c, 0, 72, 16
1, 9272, Note_off_c, 0, 83, 64
1, 9273, Note_on_c, 0, 34, 95
1, 9273, Note_off_c, 0, 36, 64
1, 9273, Note_off_c, 0, 73, 64
1, 9273, Note_off_c, 0, 75, 64
1, 9273, Note_on_c, 0, 90, 29
1, 9274, Note_on_c, 0, 76, 39
1, 9274, Note_off_c, 0, 77, 64
1, 9274, Note_on_c, 0, 78, 30
1, 9274, Note_off_c, 0, 80, 64
1, 9274, Note_off_c, 0, 87, 64
1, 9274, Note_off_c, 0, 89, 64
1, 9275, Note_on_c, 0, 32, 95
1, 9275, Note_off_c, 0, 34, 64
1, 9275, Note_off_c, 0, 72, 64
1, 9275, Note_off_c, 0, 79, 64
1, 9275, Note_on_c, 0, 83, 22
1, 9275, Note_off_c, 0, 84, 64
1, 9275, Note_on_c, 0, 89, 31
1, 9276, Note_off_c, 0, 82, 64
1, 9276, Note_on_c, 0, 87, 18
1, 9276, Note_on_c, 0, 92, 10
1, 9277, Note_off_c, 0, 76, 64
1, 9277, Note_off_c, 0, 78, 64
1, 9277, Note_on_c, 0, 80, 29
1, 9277, Note_on_c, 0, 84, 23
1, 9278, Note_on_c, 0, 31, 92
1, 9278, Note_off_c, 0, 32, 64
1, 9278, Note_off_c, 0, 70, 64
1, 9278, Note_on_c, 0, 81, 24
1, 9278, Note_on_c, 0, 82, 30
1, 9278, Note_off_c, 0, 83, 64
1, 9279, Note_on_c, 0, 86, 45
1, 9279, Note_off_c, 0, 87, 64
1, 9279, Note_off_c, 0, 90, 64
1, 9279, Note_off_c, 0, 92, 64
1, 9280, Note_on_c, 0, 30, 76
1, 9280, Note_off_c, 0, 31, 64
1, 9280, Note_on_c, 0, 87, 29
1, 9281, Note_on_c, 0, 72, 31
1, 9281, Note_off_c, 0, 81, 64
1, 9281, Note_on_c, 0, 93, 23
1, 9282, Note_off_c, 0, 30, 64
1, 9282, Note_on_c, 0, 76, 20
1, 9282, Note_off_c, 0, 80, 64
1, 9282, Note_on_c, 0, 83, 40
1, 9282, Note_off_c, 0, 84, 64
1, 9282, Note_on_c, 0, 85, 54
1, 9283, Note_on_c, 0, 61, 31
1, 9283, Note_on_c, 0, 71, 40
1, 9283, Note_on_c, 0, 75, 35
1, 9283, Note_on_c, 0, 80, 39
1, 9283, Note_on_c, 0, 81, 44
1, 9283, Note_on_c, 0, 90, 44
1, 9284, Note_on_c, 0, 36, 69
1, 9284, Note_on_c, 0, 54, 51
1, 9284, Note_off_c, 0, 72, 64
1, 9284, Note_off_c, 0, 82, 64
1, 9284, Note_on_c, 0, 91, 32
1, 9284, Note_on_c, 0, 96, 11
1, 9285, Note_on_c, 0, 30, 78
1, 9285, Note_off_c, 0, 36, 64
1, 9285, Note_off_c, 0, 61, 64
1, 9285, Note_off_c, 0, 76, 64
1, 9285, Note_on_c, 0, 84, 40
1, 9285, Note_on_c, 0, 88, 33
1, 9286, Note_on_c, 0, 29, 79
1, 9286, Note_off_c, 0, 30, 64
1, 9286, Note_on_c, 0, 68, 30
1, 9286, Note_on_c, 0, 76, 36
1, 9286, Note_off_c, 0, 81, 64
1, 9286, Note_on_c, 0, 82, 39
1, 9286, Note_off_c, 0, 89, 64
1, 9287, Note_on_c, 0, 49, 55
1, 9287, Note_off_c, 0, 54, 64
1, 9287, Note_on_c, 0, 74, 29
1, 9287, Note_off_c, 0, 75, 64
1, 9287, Note_off_c, 0, 80, 64
1, 9287, Note_off_c, 0, 86, 64
1, 9287, Note_on_c, 0, 89, 34
1, 9287, Note_off_c, 0, 96, 64
1, 9288, Note_off_c, 0, 29, 64
1, 9288, Note_on_c, 0, 30, 75
1, 9288, Note_on_c, 0, 78, 53
1, 9288, Note_off_c, 0, 87, 64
1, 9289, Note_off_c, 0, 49, 64
1, 9289, Note_off_c, 0, 68, 64
1, 9289, Note_on_c, 0, 70, 33
1, 9289, Note_on_c, 0, 73, 30
1, 9289, Note_off_c, 0, 74, 64
1, 9289, Note_off_c, 0, 76, 64
1, 9289, Note_on_c, 0, 77, 35
1, 9289, Note_on_c, 0, 80, 29
1, 9289, Note_off_c, 0, 82, 64
1, 9289, Note_off_c, 0, 85, 64
1, 9290, Note_on_c, 0, 29, 73
1, 9290, Note_off_c, 0, 30, 64
1, 9290, Note_on_c, 0, 82, 33
1, 9290, Note_off_c, 0, 84, 64
1, 9290, Note_on_c, 0, 85, 38
1, 9290, Note_on_c, 0, 87, 37
1, 9291, Note_on_c, 0, 60, 30
1, 9291, Note_off_c, 0, 71, 64
1, 9291, Note_on_c, 0, 76, 32
1, 9291, Note_off_c, 0, 77, 64
1, 9291, Note_off_c, 0, 80, 64
1, 9291, Note_off_c, 0, 88, 64
1, 9291, Note_off_c, 0, 89, 64
1, 9292, Note_on_c, 0, 64, 30
1, 9292, Note_on_c, 0, 79, 37
1, 9292, Note_on_c, 0, 80, 34
1, 9292, Note_on_c, 0, 81, 40
1, 9293, Note_off_c, 0, 29, 64
1, 9293, Note_on_c, 0, 30, 79
1, 9293, Note_off_c, 0, 60, 64
1, 9293, Note_on_c, 0, 68, 25
1, 9293, Note_on_c, 0, 71, 28
1, 9293, Note_off_c, 0, 76, 64
1, 9293, Note_on_c, 0, 77, 28
1, 9293, Note_off_c, 0, 82, 64
1, 9293, Note_on_c, 0, 89, 38
1, 9294, Note_off_c, 0, 73, 64
1, 9294, Note_on_c, 0, 74, 36
1, 9294, Note_off_c, 0, 78, 64
1, 9294, Note_on_c, 0, 84, 35
1, 9294, Note_off_c, 0, 91, 64
1, 9295, Note_on_c, 0, 61, 26
1, 9295, Note_off_c, 0, 70, 64
1, 9295, Note_off_c, 0, 81, 64
1, 9296, Note_on_c, 0, 29, 79
1, 9296, Note_off_c, 0, 30, 64
1, 9296, Note_on_c, 0, 49, 59
1, 9296, Note_on_c, 0, 63, 21
1, 9296, Note_off_c, 0, 64, 64
1, 9296, Note_off_c, 0, 71, 64
1, 9296, Note_off_c, 0, 85, 64
1, 9296, Note_off_c, 0, 90, 64
1, 9297, Note_off_c, 0, 29, 64
1, 9297, Note_on_c, 0, 30, 76
1, 9297, Note_off_c, 0, 77, 64
1, 9297, Note_off_c, 0, 79, 64
1, 9297, Note_on_c, 0, 81, 40
1, 9297, Note_off_c, 0, 84, 64
1, 9297, Note_on_c, 0, 88, 22
1, 9297, Note_off_c, 0, 93, 64
1, 9298, Note_off_c, 0, 61, 64
1, 9298, Note_off_c, 0, 74, 64
1, 9298, Note_on_c, 0, 79, 20
1, 9298, Note_on_c, 0, 86, 38
1, 9299, Note_off_c, 0, 49, 64
1, 9299, Note_off_c, 0, 68, 64
1, 9299, Note_on_c, 0, 77, 33
1, 9300, Note_off_c, 0, 30, 64
1, 9300, Note_on_c, 0, 34, 70
1, 9300, Note_on_c, 0, 54, 29
1, 9300, Note_off_c, 0, 63, 64
1, 9300, Note_on_c, 0, 74, 36
1, 9301, Note_off_c, 0, 34, 64
1, 9301, Note_on_c, 0, 75, 44
1, 9301, Note_off_c, 0, 79, 64
1, 9301, Note_off_c, 0, 80, 64
1, 9301, Note_on_c, 0, 84, 36
1, 9301, Note_off_c, 0, 88, 64
1, 9302, Note_off_c, 0, 54, 64
1, 9302, Note_off_c, 0, 74, 64
1, 9302, Note_off_c, 0, 81, 64
1, 9302, Note_on_c, 0, 82, 46
1, 9302, Note_off_c, 0, 83, 64
1, 9302, Note_on_c, 0, 85, 32
1, 9302, Note_on_c, 0, 88, 33
1, 9303, Note_on_c, 0, 51, 76
1, 9303, Note_on_c, 0, 69, 27
1, 9303, Note_on_c, 0, 80, 30
1, 9304, Note_on_c, 0, 46, 86
1, 9304, Note_off_c, 0, 51, 64
1, 9304, Note_off_c, 0, 77, 64
1, 9304, Note_off_c, 0, 86, 64
1, 9305, Note_on_c, 0, 44, 94
1, 9305, Note_off_c, 0, 46, 64
1, 9305, Note_off_c, 0, 75, 64
1, 9305, Note_on_c, 0, 76, 18
1, 9305, Note_off_c, 0, 82, 64
1, 9306, Note_on_c, 0, 41, 98
1, 9306, Note_off_c, 0, 44, 64
1, 9306, Note_on_c, 0, 82, 25
1, 9306, Note_off_c, 0, 89, 64
1, 9307, Note_on_c, 0, 39, 95
1, 9307, Note_off_c, 0, 41, 64
1, 9307, Note_off_c, 0, 69, 64
1, 9307, Note_off_c, 0, 85, 64
1, 9307, Note_on_c, 0, 86, 24
1, 9308, Note_on_c, 0, 38, 97
1, 9308, Note_off_c, 0, 39, 64
1, 9308, Note_on_c, 0, 72, 24
1, 9308, Note_on_c, 0, 77, 19
1, 9309, Note_on_c, 0, 36, 96
1, 9309, Note_off_c, 0, 38, 64
1, 9309, Note_off_c, 0, 76, 64
1, 9310, Note_on_c, 0, 35, 95
1, 9310, Note_off_c, 0, 36, 64
1, 9310, Note_on_c, 0, 83, 18
1, 9310, Note_on_c, 0, 85, 37
1, 9310, Note_off_c, 0, 87, 64
1, 9311, Note_on_c, 0, 34, 95
1, 9311, Note_off_c, 0, 35, 64
1, 9311, Note_off_c, 0, 77, 64
1, 9311, Note_off_c, 0, 82, 64
1, 9311, Note_off_c, 0, 88, 64
1, 9312, Note_on_c, 0, 33, 95
1, 9312, Note_off_c, 0, 34, 64
1, 9312, Note_off_c, 0, 72, 64
1, 9312, Note_on_c, 0, 73, 13
1, 9312, Note_on_c, 0, 75, 18
1, 9312, Note_on_c, 0, 89, 20
1, 9312, Note_on_c, 0, 90, 25
1, 9313, Note_on_c, 0, 32, 96
1, 9313, Note_off_c, 0, 33, 64
1, 9313, Note_off_c, 0, 83, 64
1, 9314, Note_on_c, 0, 76, 25
1, 9314, Note_on_c, 0, 82, 26
1, 9314, Note_off_c, 0, 84, 64
1, 9314, Note_off_c, 0, 86, 64
1, 9315, Note_on_c, 0, 31, 93
1, 9315, Note_off_c, 0, 32, 64
1, 9315, Note_off_c, 0, 73, 64
1, 9316, Note_on_c, 0, 73, 11
1, 9316, Note_off_c, 0, 75, 64
1, 9316, Note_off_c, 0, 80, 64
1, 9316, Note_on_c, 0, 84, 20
1, 9316, Note_on_c, 0, 86, 17
1, 9316, Note_on_c, 0, 91, 22
1, 9317, Note_on_c, 0, 30, 82
1, 9317, Note_off_c, 0, 31, 64
1, 9317, Note_on_c, 0, 78, 31
1, 9317, Note_off_c, 0, 89, 64
1, 9317, Note_off_c, 0, 90, 64
1, 9318, Note_off_c, 0, 82, 64
1, 9318, Note_on_c, 0, 83, 33
1, 9318, Note_on_c, 0, 87, 22
1, 9318, Note_on_c, 0, 89, 17
1, 9319, Note_on_c, 0, 80, 24
1, 9319, Note_off_c, 0, 84, 64
1, 9319, Note_off_c, 0, 86, 64
1, 9319, Note_on_c, 0, 88, 27
1, 9319, Note_off_c, 0, 91, 64
1, 9320, Note_off_c, 0, 30, 64
1, 9320, Note_off_c, 0, 73, 64
1, 9320, Note_on_c, 0, 77, 28
1, 9320, Note_on_c, 0, 82, 29
1, 9320, Note_on_c, 0, 86, 19
1, 9321, Note_on_c, 0, 36, 69
1, 9321, Note_on_c, 0, 64, 30
1, 9321, Note_off_c, 0, 76, 64
1, 9321, Note_off_c, 0, 78, 64
1, 9321, Note_on_c, 0, 79, 30
1, 9321, Note_on_c, 0, 81, 30
1, 9321, Note_off_c, 0, 87, 64
1, 9322, Note_on_c, 0, 30, 80
1, 9322, Note_off_c, 0, 36, 64
1, 9322, Note_on_c, 0, 71, 14
1, 9322, Note_on_c, 0, 74, 20
1, 9323, Note_on_c, 0, 68, 15
1, 9323, Note_off_c, 0, 80, 64
1, 9323, Note_on_c, 0, 84, 28
1, 9324, Note_on_c, 0, 29, 80
1, 9324, Note_off_c, 0, 30, 64
1, 9324, Note_on_c, 0, 63, 20
1, 9324, Note_off_c, 0, 64, 64
1, 9324, Note_on_c, 0, 80, 28
1, 9324, Note_off_c, 0, 83, 64
1, 9324, Note_off_c, 0, 85, 64
1, 9324, Note_off_c, 0, 89, 64
1, 9325, Note_off_c, 0, 29, 64
1, 9325, Note_on_c, 0, 30, 75
1, 9325, Note_off_c, 0, 71, 64
1, 9325, Note_on_c, 0, 76, 22
1, 9325, Note_off_c, 0, 79, 64
1, 9325, Note_off_c, 0, 82, 64
1, 9325, Note_on_c, 0, 90, 20
1, 9326, Note_on_c, 0, 60, 15
1, 9326, Note_off_c, 0, 68, 64
1, 9326, Note_off_c, 0, 77, 64
1, 9326, Note_on_c, 0, 83, 29
1, 9326, Note_on_c, 0, 85, 23
1, 9326, Note_off_c, 0, 86, 64
1, 9327, Note_on_c, 0, 29, 73
1, 9327, Note_off_c, 0, 30, 64
1, 9327, Note_off_c, 0, 63, 64
1, 9327, Note_off_c, 0, 74, 64
1, 9327, Note_off_c, 0, 81, 64
1, 9327, Note_off_c, 0, 84, 64
1, 9327, Note_on_c, 0, 86, 10
1, 9328, Note_on_c, 0, 77, 19
1, 9328, Note_on_c, 0, 79, 23
1, 9328, Note_off_c, 0, 88, 64
1, 9329, Note_off_c, 0, 60, 64
1, 9329, Note_off_c, 0, 76, 64
1, 9330, Note_on_c, 0, 68, 22
1, 9330, Note_on_c, 0, 82, 33
1, 9330, Note_on_c, 0, 84, 26
1, 9330, Note_off_c, 0, 86, 64
1, 9330, Note_on_c, 0, 87, 12
1, 9330, Note_on_c, 0, 88, 29
1, 9331, Note_off_c, 0, 29, 64
1, 9331, Note_on_c, 0, 30, 74
1, 9331, Note_on_c, 0, 48, 61
1, 9331, Note_on_c, 0, 61, 32
1, 9331, Note_on_c, 0, 70, 22
1, 9331, Note_on_c, 0, 76, 30
1, 9331, Note_on_c, 0, 78, 27
1, 9331, Note_on_c, 0, 93, 10
1, 9332, Note_off_c, 0, 30, 64
1, 9332, Note_on_c, 0, 31, 78
1, 9332, Note_off_c, 0, 77, 64
1, 9332, Note_off_c, 0, 80, 64
1, 9332, Note_off_c, 0, 83, 64
1, 9332, Note_off_c, 0, 90, 64
1, 9333, Note_on_c, 0, 30, 79
1, 9333, Note_off_c, 0, 31, 64
1, 9333, Note_off_c, 0, 48, 64
1, 9333, Note_on_c, 0, 49, 60
1, 9333, Note_off_c, 0, 76, 64
1, 9333, Note_off_c, 0, 79, 64
1, 9333, Note_on_c, 0, 80, 36
1, 9333, Note_on_c, 0, 83, 32
1, 9333, Note_off_c, 0, 87, 64
1, 9334, Note_on_c, 0, 29, 78
1, 9334, Note_off_c, 0, 30, 64
1, 9334, Note_off_c, 0, 68, 64
1, 9334, Note_on_c, 0, 74, 18
1, 9334, Note_off_c, 0, 82, 64
1, 9334, Note_off_c, 0, 85, 64
1, 9334, Note_on_c, 0, 86, 26
1, 9334, Note_off_c, 0, 93, 64
1, 9335, Note_off_c, 0, 49, 64
1, 9335, Note_off_c, 0, 70, 64
1, 9335, Note_off_c, 0, 78, 64
1, 9335, Note_on_c, 0, 82, 35
1, 9336, Note_off_c, 0, 29, 64
1, 9336, Note_on_c, 0, 30, 74
1, 9337, Note_off_c, 0, 30, 64
1, 9337, Note_on_c, 0, 33, 72
1, 9337, Note_on_c, 0, 54, 36
1, 9337, Note_off_c, 0, 74, 64
1, 9337, Note_off_c, 0, 84, 64
1, 9338, Note_off_c, 0, 33, 64
1, 9338, Note_on_c, 0, 35, 65
1, 9338, Note_on_c, 0, 76, 38
1, 9338, Note_off_c, 0, 80, 64
1, 9338, Note_on_c, 0, 81, 33
1, 9338, Note_on_c, 0, 84, 36
1, 9338, Note_on_c, 0, 85, 32
1, 9338, Note_on_c, 0, 87, 34
1, 9338, Note_on_c, 0, 90, 31
1, 9338, Note_on_c, 0, 91, 31
1, 9339, Note_off_c, 0, 35, 64
1, 9339, Note_off_c, 0, 54, 64
1, 9339, Note_off_c, 0, 61, 64
1, 9339, Note_on_c, 0, 72, 45
1, 9339, Note_on_c, 0, 79, 42
1, 9339, Note_off_c, 0, 83, 64
1, 9339, Note_off_c, 0, 86, 64
1, 9340, Note_on_c, 0, 53, 69
1, 9340, Note_on_c, 0, 74, 31
1, 9340, Note_on_c, 0, 92, 15
1, 9341, Note_on_c, 0, 48, 83
1, 9341, Note_off_c, 0, 53, 64
1, 9341, Note_off_c, 0, 76, 64
1, 9341, Note_off_c, 0, 81, 64
1, 9341, Note_on_c, 0, 83, 27
1, 9341, Note_off_c, 0, 87, 64
1, 9342, Note_on_c, 0, 45, 93
1, 9342, Note_off_c, 0, 48, 64
1, 9342, Note_off_c, 0, 72, 64
1, 9342, Note_off_c, 0, 74, 64
1, 9342, Note_on_c, 0, 78, 19
1, 9342, Note_off_c, 0, 79, 64
1, 9342, Note_on_c, 0, 89, 15
1, 9342, Note_off_c, 0, 91, 64
1, 9343, Note_on_c, 0, 42, 98
1, 9343, Note_off_c, 0, 45, 64
1, 9344, Note_on_c, 0, 40, 98
1, 9344, Note_off_c, 0, 42, 64
1, 9344, Note_off_c, 0, 82, 64
1, 9344, Note_off_c, 0, 84, 64
1, 9344, Note_off_c, 0, 85, 64
1, 9344, Note_off_c, 0, 92, 64
1, 9345, Note_on_c, 0, 38, 97
1, 9345, Note_off_c, 0, 40, 64
1, 9345, Note_off_c, 0, 90, 64
1, 9346, Note_on_c, 0, 37, 98
1, 9346, Note_off_c, 0, 38, 64
1, 9346, Note_on_c, 0, 87, 12
1, 9346, Note_off_c, 0, 88, 64
1, 9346, Note_off_c, 0, 89, 64
1, 9347, Note_on_c, 0, 35, 97
1, 9347, Note_off_c, 0, 37, 64
1, 9348, Note_on_c, 0, 34, 96
1, 9348, Note_off_c, 0, 35, 64
1, 9348, Note_on_c, 0, 85, 32
1, 9349, Note_on_c, 0, 33, 95
1, 9349, Note_off_c, 0, 34, 64
1, 9349, Note_on_c, 0, 73, 17
1, 9349, Note_on_c, 0, 82, 16
1, 9349, Note_off_c, 0, 87, 64
1, 9349, Note_on_c, 0, 89, 11
1, 9350, Note_on_c, 0, 32, 96
1, 9350, Note_off_c, 0, 33, 64
1, 9351, Note_off_c, 0, 78, 64
1, 9352, Note_on_c, 0, 31, 94
1, 9352, Note_off_c, 0, 32, 64
1, 9352, Note_on_c, 0, 80, 24
1, 9352, Note_on_c, 0, 81, 21
1, 9352, Note_off_c, 0, 82, 64
1, 9352, Note_off_c, 0, 85, 64
1, 9353, Note_on_c, 0, 87, 13
1, 9353, Note_off_c, 0, 89, 64
1, 9354, Note_on_c, 0, 88, 20
1, 9355, Note_on_c, 0, 30, 76
1, 9355, Note_off_c, 0, 31, 64
1, 9355, Note_off_c, 0, 81, 64
1, 9356, Note_on_c, 0, 82, 35
1, 9356, Note_off_c, 0, 87, 64
1, 9357, Note_off_c, 0, 30, 64
1, 9357, Note_off_c, 0, 73, 64
1, 9357, Note_on_c, 0, 79, 24
1, 9357, Note_off_c, 0, 80, 64
1, 9357, Note_off_c, 0, 83, 64
1, 9357, Note_on_c, 0, 84, 25
1, 9358, Note_on_c, 0, 68, 18
1, 9358, Note_on_c, 0, 76, 29
1, 9358, Note_on_c, 0, 83, 23
1, 9358, Note_on_c, 0, 93, 14
1, 9359, Note_on_c, 0, 32, 70
1, 9359, Note_on_c, 0, 64, 29
1, 9359, Note_on_c, 0, 78, 31
1, 9360, Note_on_c, 0, 30, 79
1, 9360, Note_off_c, 0, 32, 64
1, 9360, Note_on_c, 0, 71, 21
1, 9361, Note_on_c, 0, 29, 80
1, 9361, Note_off_c, 0, 30, 64
1, 9361, Note_on_c, 0, 61, 28
1, 9361, Note_on_c, 0, 74, 25
1, 9361, Note_off_c, 0, 79, 64
1, 9361, Note_on_c, 0, 80, 29
1, 9361, Note_on_c, 0, 85, 20
1, 9361, Note_on_c, 0, 89, 18
1, 9361, Note_off_c, 0, 93, 64
1, 9362, Note_off_c, 0, 29, 64
1, 9362, Note_on_c, 0, 30, 78
1, 9362, Note_off_c, 0, 64, 64
1, 9362, Note_off_c, 0, 68, 64
1, 9362, Note_off_c, 0, 76, 64
1, 9362, Note_off_c, 0, 83, 64
1, 9362, Note_off_c, 0, 88, 64
1, 9363, Note_off_c, 0, 78, 64
1, 9363, Note_off_c, 0, 84, 64
1, 9363, Note_on_c, 0, 86, 27
1, 9364, Note_off_c, 0, 71, 64
1, 9364, Note_on_c, 0, 77, 21
1, 9364, Note_on_c, 0, 84, 23
1, 9365, Note_on_c, 0, 29, 75
1, 9365, Note_off_c, 0, 30, 64
1, 9365, Note_off_c, 0, 74, 64
1, 9365, Note_off_c, 0, 85, 64
1, 9365, Note_on_c, 0, 88, 16
1, 9366, Note_off_c, 0, 61, 64
1, 9366, Note_off_c, 0, 80, 64
1, 9366, Note_on_c, 0, 81, 31
1, 9366, Note_off_c, 0, 82, 64
1, 9366, Note_off_c, 0, 89, 64
1, 9366, Note_on_c, 0, 91, 20
1, 9367, Note_off_c, 0, 77, 64
1, 9367, Note_on_c, 0, 78, 19
1, 9367, Note_off_c, 0, 84, 64
1, 9368, Note_off_c, 0, 29, 64
1, 9368, Note_on_c, 0, 30, 79
1, 9368, Note_on_c, 0, 61, 29
1, 9368, Note_on_c, 0, 68, 27
1, 9368, Note_on_c, 0, 75, 19
1, 9368, Note_on_c, 0, 84, 31
1, 9368, Note_off_c, 0, 88, 64
1, 9368, Note_on_c, 0, 89, 31
1, 9368, Note_on_c, 0, 95, 14
1, 9369, Note_off_c, 0, 86, 64
1, 9370, Note_off_c, 0, 78, 64
1, 9370, Note_on_c, 0, 79, 30
1, 9370, Note_on_c, 0, 82, 37
1, 9370, Note_on_c, 0, 85, 21
1, 9370, Note_on_c, 0, 88, 13
1, 9371, Note_on_c, 0, 49, 58
1, 9371, Note_on_c, 0, 63, 23
1, 9371, Note_off_c, 0, 75, 64
1, 9371, Note_on_c, 0, 86, 16
1, 9371, Note_off_c, 0, 95, 64
1, 9372, Note_off_c, 0, 68, 64
1, 9372, Note_off_c, 0, 81, 64
1, 9372, Note_on_c, 0, 83, 30
1, 9372, Note_on_c, 0, 87, 30
1, 9373, Note_off_c, 0, 61, 64
1, 9373, Note_on_c, 0, 73, 37
1, 9373, Note_on_c, 0, 78, 18
1, 9373, Note_off_c, 0, 79, 64
1, 9373, Note_off_c, 0, 82, 64
1, 9373, Note_off_c, 0, 88, 64
1, 9374, Note_off_c, 0, 49, 64
1, 9374, Note_off_c, 0, 85, 64
1, 9374, Note_off_c, 0, 86, 64
1, 9374, Note_off_c, 0, 91, 64
1, 9375, Note_off_c, 0, 30, 64
1, 9375, Note_on_c, 0, 34, 70
1, 9375, Note_on_c, 0, 54, 30
1, 9375, Note_off_c, 0, 63, 64
1, 9375, Note_on_c, 0, 69, 40
1, 9375, Note_on_c, 0, 79, 36
1, 9375, Note_on_c, 0, 86, 39
1, 9376, Note_off_c, 0, 34, 64
1, 9376, Note_on_c, 0, 64, 52
1, 9376, Note_off_c, 0, 78, 64
1, 9376, Note_on_c, 0, 81, 40
1, 9376, Note_off_c, 0, 84, 64
1, 9376, Note_on_c, 0, 90, 25
1, 9377, Note_off_c, 0, 54, 64
1, 9377, Note_on_c, 0, 72, 42
1, 9377, Note_off_c, 0, 73, 64
1, 9377, Note_on_c, 0, 75, 37
1, 9377, Note_on_c, 0, 78, 37
1, 9377, Note_off_c, 0, 79, 64
1, 9377, Note_on_c, 0, 85, 23
1, 9378, Note_on_c, 0, 51, 77
1, 9378, Note_off_c, 0, 69, 64
1, 9378, Note_off_c, 0, 86, 64
1, 9379, Note_on_c, 0, 45, 88
1, 9379, Note_off_c, 0, 51, 64
1, 9379, Note_off_c, 0, 72, 64
1, 9379, Note_off_c, 0, 75, 64
1, 9379, Note_off_c, 0, 81, 64
1, 9379, Note_off_c, 0, 87, 64
1, 9379, Note_off_c, 0, 90, 64
1, 9380, Note_on_c, 0, 43, 94
1, 9380, Note_off_c, 0, 45, 64
1, 9380, Note_off_c, 0, 78, 64
1, 9380, Note_on_c, 0, 81, 22
1, 9380, Note_off_c, 0, 85, 64
1, 9381, Note_on_c, 0, 41, 99
1, 9381, Note_off_c, 0, 43, 64
1, 9381, Note_off_c, 0, 64, 64
1, 9381, Note_off_c, 0, 83, 64
1, 9381, Note_on_c, 0, 85, 12
1, 9382, Note_on_c, 0, 39, 96
1, 9382, Note_off_c, 0, 41, 64
1, 9383, Note_on_c, 0, 37, 97
1, 9383, Note_off_c, 0, 39, 64
1, 9383, Note_off_c, 0, 81, 64
1, 9384, Note_on_c, 0, 36, 97
1, 9384, Note_off_c, 0, 37, 64
1, 9384, Note_off_c, 0, 85, 64
1, 9384, Note_off_c, 0, 89, 64
1, 9385, Note_on_c, 0, 35, 96
1, 9385, Note_off_c, 0, 36, 64
1, 9386, Note_on_c, 0, 34, 95
1, 9386, Note_off_c, 0, 35, 64
1, 9387, Note_on_c, 0, 33, 95
1, 9387, Note_off_c, 0, 34, 64
1, 9387, Note_on_c, 0, 82, 15
1, 9388, Note_on_c, 0, 32, 96
1, 9388, Note_off_c, 0, 33, 64
1, 9389, Note_on_c, 0, 80, 30
1, 9390, Note_on_c, 0, 31, 93
1, 9390, Note_off_c, 0, 32, 64
1, 9391, Note_on_c, 0, 83, 29
1, 9392, Note_on_c, 0, 30, 81
1, 9392, Note_off_c, 0, 31, 64
1, 9393, Note_on_c, 0, 78, 29
1, 9393, Note_off_c, 0, 82, 64
1, 9395, Note_off_c, 0, 30, 64
1, 9395, Note_on_c, 0, 73, 33
1, 9395, Note_on_c, 0, 85, 35
1, 9396, Note_on_c, 0, 37, 69
1, 9396, Note_on_c, 0, 61, 30
1, 9396, Note_on_c, 0, 68, 45
1, 9396, Note_on_c, 0, 91, 15
1, 9397, Note_on_c, 0, 31, 76
1, 9397, Note_off_c, 0, 37, 64
1, 9397, Note_on_c, 0, 76, 35
1, 9397, Note_on_c, 0, 87, 32
1, 9398, Note_on_c, 0, 30, 80
1, 9398, Note_off_c, 0, 31, 64
1, 9398, Note_on_c, 0, 81, 24
1, 9399, Note_on_c, 0, 29, 80
1, 9399, Note_off_c, 0, 30, 64
1, 9399, Note_on_c, 0, 49, 56
1, 9399, Note_off_c, 0, 80, 64
1, 9399, Note_on_c, 0, 86, 28
1, 9399, Note_off_c, 0, 91, 64
1, 9400, Note_on_c, 0, 71, 23
1, 9401, Note_off_c, 0, 29, 64
1, 9401, Note_on_c, 0, 30, 75
1, 9401, Note_off_c, 0, 61, 64
1, 9401, Note_off_c, 0, 73, 64
1, 9401, Note_off_c, 0, 76, 64
1, 9401, Note_off_c, 0, 85, 64
1, 9401, Note_on_c, 0, 90, 29
1, 9401, Note_on_c, 0, 91, 17
1, 9402, Note_on_c, 0, 29, 74
1, 9402, Note_off_c, 0, 30, 64
1, 9402, Note_on_c, 0, 70, 19
1, 9402, Note_off_c, 0, 81, 64
1, 9403, Note_off_c, 0, 29, 64
1, 9403, Note_on_c, 0, 30, 73
1, 9403, Note_off_c, 0, 71, 64
1, 9403, Note_on_c, 0, 75, 21
1, 9403, Note_on_c, 0, 77, 19
1, 9403, Note_on_c, 0, 82, 42
1, 9403, Note_off_c, 0, 83, 64
1, 9404, Note_on_c, 0, 29, 73
1, 9404, Note_off_c, 0, 30, 64
1, 9404, Note_on_c, 0, 79, 34
1, 9404, Note_on_c, 0, 89, 23
1, 9405, Note_off_c, 0, 49, 64
1, 9405, Note_on_c, 0, 64, 34
1, 9405, Note_off_c, 0, 78, 64
1, 9405, Note_on_c, 0, 85, 17
1, 9405, Note_off_c, 0, 91, 64
1, 9405, Note_on_c, 0, 96, 18
1, 9406, Note_off_c, 0, 29, 64
1, 9406, Note_on_c, 0, 30, 78
1, 9406, Note_off_c, 0, 70, 64
1, 9406, Note_on_c, 0, 74, 20
1, 9406, Note_off_c, 0, 75, 64
1, 9406, Note_on_c, 0, 76, 37
1, 9406, Note_off_c, 0, 77, 64
1, 9406, Note_on_c, 0, 78, 33
1, 9407, Note_on_c, 0, 84, 38
1, 9408, Note_on_c, 0, 29, 80
1, 9408, Note_off_c, 0, 30, 64
1, 9408, Note_off_c, 0, 79, 64
1, 9408, Note_off_c, 0, 85, 64
1, 9408, Note_off_c, 0, 86, 64
1, 9409, Note_off_c, 0, 29, 64
1, 9409, Note_on_c, 0, 30, 78
1, 9409, Note_off_c, 0, 74, 64
1, 9409, Note_off_c, 0, 87, 64
1, 9409, Note_off_c, 0, 89, 64
1, 9409, Note_off_c, 0, 96, 64
1, 9410, Note_on_c, 0, 48, 57
1, 9410, Note_off_c, 0, 64, 64
1, 9410, Note_on_c, 0, 74, 36
1, 9412, Note_off_c, 0, 30, 64
1, 9412, Note_on_c, 0, 34, 72
1, 9413, Note_on_c, 0, 70, 43
1, 9413, Note_on_c, 0, 81, 48
1, 9413, Note_on_c, 0, 83, 35
1, 9413, Note_on_c, 0, 87, 30
1, 9413, Note_on_c, 0, 89, 30
1, 9413, Note_on_c, 0, 92, 24
1, 9414, Note_off_c, 0, 34, 64
1, 9414, Note_off_c, 0, 48, 64
1, 9414, Note_off_c, 0, 78, 64
1, 9414, Note_on_c, 0, 79, 36
1, 9414, Note_off_c, 0, 82, 64
1, 9415, Note_on_c, 0, 51, 70
1, 9415, Note_off_c, 0, 70, 64
1, 9415, Note_off_c, 0, 74, 64
1, 9415, Note_off_c, 0, 76, 64
1, 9415, Note_on_c, 0, 82, 33
1, 9415, Note_off_c, 0, 84, 64
1, 9415, Note_on_c, 0, 85, 20
1, 9416, Note_on_c, 0, 48, 84
1, 9416, Note_off_c, 0, 51, 64
1, 9416, Note_off_c, 0, 68, 64
1, 9416, Note_off_c, 0, 79, 64
1, 9416, Note_off_c, 0, 81, 64
1, 9416, Note_off_c, 0, 87, 64
1, 9416, Note_off_c, 0, 90, 64
1, 9416, Note_off_c, 0, 92, 64
1, 9417, Note_on_c, 0, 45, 94
1, 9417, Note_off_c, 0, 48, 64
1, 9417, Note_off_c, 0, 83, 64
1, 9417, Note_off_c, 0, 89, 64
1, 9418, Note_on_c, 0, 42, 99
1, 9418, Note_off_c, 0, 45, 64
1, 9419, Note_on_c, 0, 40, 98
1, 9419, Note_off_c, 0, 42, 64
1, 9420, Note_on_c, 0, 38, 98
1, 9420, Note_off_c, 0, 40, 64
1, 9420, Note_off_c, 0, 85, 64
1, 9421, Note_on_c, 0, 37, 98
1, 9421, Note_off_c, 0, 38, 64
1, 9422, Note_on_c, 0, 35, 97
1, 9422, Note_off_c, 0, 37, 64
1, 9422, Note_off_c, 0, 82, 64
1, 9423, Note_on_c, 0, 34, 96
1, 9423, Note_off_c, 0, 35, 64
1, 9424, Note_on_c, 0, 33, 95
1, 9424, Note_off_c, 0, 34, 64
1, 9424, Note_on_c, 0, 48, 34
1, 9425, Note_on_c, 0, 32, 96
1, 9425, Note_off_c, 0, 33, 64
1, 9425, Note_on_c, 0, 80, 11
1, 9425, Note_on_c, 0, 85, 21
1, 9426, Note_off_c, 0, 48, 64
1, 9426, Note_on_c, 0, 49, 29
1, 9427, Note_on_c, 0, 31, 94
1, 9427, Note_off_c, 0, 32, 64
1, 9428, Note_off_c, 0, 49, 64
1, 9428, Note_on_c, 0, 78, 13
1, 9428, Note_off_c, 0, 80, 64
1, 9429, Note_on_c, 0, 90, 21
1, 9430, Note_on_c, 0, 30, 74
1, 9430, Note_off_c, 0, 31, 64
1, 9431, Note_off_c, 0, 30, 64
1, 9431, Note_off_c, 0, 78, 64
1, 9432, Note_on_c, 0, 81, 24
1, 9432, Note_on_c, 0, 91, 22
1, 9433, Note_on_c, 0, 77, 19
1, 9433, Note_on_c, 0, 79, 30
1, 9433, Note_on_c, 0, 84, 22
1, 9433, Note_on_c, 0, 89, 23
1, 9434, Note_on_c, 0, 31, 70
1, 9434, Note_on_c, 0, 83, 25
1, 9435, Note_on_c, 0, 30, 78
1, 9435, Note_off_c, 0, 31, 64
1, 9435, Note_on_c, 0, 63, 29
1, 9435, Note_off_c, 0, 85, 64
1, 9435, Note_off_c, 0, 91, 64
1, 9436, Note_on_c, 0, 29, 79
1, 9436, Note_off_c, 0, 30, 64
1, 9437, Note_off_c, 0, 63, 64
1, 9437, Note_on_c, 0, 64, 25
1, 9437, Note_off_c, 0, 77, 64
1, 9437, Note_off_c, 0, 89, 64
1, 9438, Note_off_c, 0, 29, 64
1, 9438, Note_on_c, 0, 30, 76
1, 9438, Note_on_c, 0, 82, 18
1, 9440, Note_on_c, 0, 29, 74
1, 9440, Note_off_c, 0, 30, 64
1, 9440, Note_off_c, 0, 64, 64
1, 9440, Note_off_c, 0, 83, 64
1, 9440, Note_on_c, 0, 86, 14
1, 9440, Note_off_c, 0, 90, 64
1, 9441, Note_on_c, 0, 70, 18
1, 9441, Note_off_c, 0, 82, 64
1, 9442, Note_on_c, 0, 90, 18
1, 9443, Note_off_c, 0, 29, 64
1, 9443, Note_on_c, 0, 30, 79
1, 9443, Note_on_c, 0, 61, 24
1, 9443, Note_on_c, 0, 68, 14
1, 9443, Note_on_c, 0, 82, 22
1, 9443, Note_off_c, 0, 86, 64
1, 9444, Note_on_c, 0, 49, 61
1, 9444, Note_on_c, 0, 63, 25
1, 9444, Note_on_c, 0, 71, 17
1, 9444, Note_on_c, 0, 77, 14
1, 9444, Note_off_c, 0, 84, 64
1, 9445, Note_off_c, 0, 70, 64
1, 9446, Note_off_c, 0, 81, 64
1, 9447, Note_off_c, 0, 49, 64
1, 9447, Note_off_c, 0, 71, 64
1, 9447, Note_off_c, 0, 82, 64
1, 9447, Note_on_c, 0, 84, 34
1, 9447, Note_on_c, 0, 87, 30
1, 9447, Note_off_c, 0, 90, 64
1, 9448, Note_off_c, 0, 61, 64
1, 9448, Note_off_c, 0, 63, 64
1, 9448, Note_on_c, 0, 74, 37
1, 9448, Note_on_c, 0, 76, 26
1, 9448, Note_off_c, 0, 77, 64
1, 9448, Note_off_c, 0, 79, 64
1, 9449, Note_off_c, 0, 68, 64
1, 9449, Note_on_c, 0, 77, 34
1, 9450, Note_off_c, 0, 30, 64
1, 9450, Note_on_c, 0, 34, 69
1, 9450, Note_on_c, 0, 73, 39
1, 9450, Note_on_c, 0, 80, 30
1, 9450, Note_on_c, 0, 81, 34
1, 9450, Note_on_c, 0, 90, 27
1, 9451, Note_off_c, 0, 34, 64
1, 9451, Note_on_c, 0, 55, 63
1, 9451, Note_off_c, 0, 76, 64
1, 9451, Note_on_c, 0, 79, 32
1, 9451, Note_on_c, 0, 82, 32
1, 9451, Note_on_c, 0, 88, 29
1, 9452, Note_on_c, 0, 70, 35
1, 9452, Note_on_c, 0, 72, 40
1, 9452, Note_off_c, 0, 73, 64
1, 9452, Note_off_c, 0, 74, 64
1, 9452, Note_off_c, 0, 77, 64
1, 9452, Note_off_c, 0, 80, 64
1, 9453, Note_on_c, 0, 50, 79
1, 9453, Note_off_c, 0, 55, 64
1, 9453, Note_off_c, 0, 87, 64
1, 9453, Note_off_c, 0, 88, 64
1, 9453, Note_off_c, 0, 90, 64
1, 9454, Note_on_c, 0, 45, 89
1, 9454, Note_off_c, 0, 50, 64
1, 9454, Note_off_c, 0, 70, 64
1, 9454, Note_off_c, 0, 72, 64
1, 9454, Note_off_c, 0, 82, 64
1, 9454, Note_on_c, 0, 85, 23
1, 9455, Note_on_c, 0, 42, 96
1, 9455, Note_off_c, 0, 45, 64
1, 9455, Note_off_c, 0, 79, 64
1, 9455, Note_off_c, 0, 84, 64
1, 9456, Note_on_c, 0, 41, 99
1, 9456, Note_off_c, 0, 42, 64
1, 9457, Note_on_c, 0, 39, 97
1, 9457, Note_off_c, 0, 41, 64
1, 9457, Note_off_c, 0, 81, 64
1, 9458, Note_on_c, 0, 37, 98
1, 9458, Note_off_c, 0, 39, 64
1, 9458, Note_off_c, 0, 85, 64
1, 9459, Note_on_c, 0, 36, 97
1, 9459, Note_off_c, 0, 37, 64
1, 9460, Note_on_c, 0, 35, 96
1, 9460, Note_off_c, 0, 36, 64
1, 9461, Note_on_c, 0, 34, 96
1, 9461, Note_off_c, 0, 35, 64
1, 9461, Note_on_c, 0, 82, 14
1, 9462, Note_on_c, 0, 33, 96
1, 9462, Note_off_c, 0, 34, 64
1, 9462, Note_on_c, 0, 83, 13
1, 9462, Note_on_c, 0, 89, 11
1, 9463, Note_on_c, 0, 32, 96
1, 9463, Note_off_c, 0, 33, 64
1, 9464, Note_on_c, 0, 79, 12
1, 9464, Note_off_c, 0, 82, 64
1, 9465, Note_on_c, 0, 31, 93
1, 9465, Note_off_c, 0, 32, 64
1, 9465, Note_off_c, 0, 83, 64
1, 9467, Note_on_c, 0, 30, 80
1, 9467, Note_off_c, 0, 31, 64
1, 9467, Note_off_c, 0, 79, 64
1, 9468, Note_off_c, 0, 89, 64
1, 9469, Note_off_c, 0, 30, 64
1, 9469, Note_on_c, 0, 84, 17
1, 9470, Note_on_c, 0, 74, 19
1, 9470, Note_on_c, 0, 77, 19
1, 9470, Note_on_c, 0, 81, 15
1, 9470, Note_on_c, 0, 83, 14
1, 9471, Note_on_c, 0, 36, 71
1, 9471, Note_on_c, 0, 68, 13
1, 9471, Note_on_c, 0, 82, 16
1, 9472, Note_on_c, 0, 31, 77
1, 9472, Note_off_c, 0, 36, 64
1, 9472, Note_on_c, 0, 49, 61
1, 9472, Note_on_c, 0, 76, 20
1, 9472, Note_on_c, 0, 79, 18
1, 9473, Note_on_c, 0, 30, 80
1, 9473, Note_off_c, 0, 31, 64
1, 9473, Note_off_c, 0, 84, 64
1, 9474, Note_on_c, 0, 29, 80
1, 9474, Note_off_c, 0, 30, 64
1, 9474, Note_off_c, 0, 74, 64
1, 9474, Note_off_c, 0, 77, 64
1, 9474, Note_off_c, 0, 82, 64
1, 9474, Note_off_c, 0, 83, 64
1, 9475, Note_off_c, 0, 49, 64
1, 9475, Note_on_c, 0, 74, 13
1, 9475, Note_off_c, 0, 79, 64
1, 9475, Note_on_c, 0, 80, 18
1, 9476, Note_off_c, 0, 29, 64
1, 9476, Note_on_c, 0, 30, 76
1, 9476, Note_off_c, 0, 68, 64
1, 9476, Note_on_c, 0, 77, 14
1, 9476, Note_off_c, 0, 81, 64
1, 9476, Note_on_c, 0, 82, 15
1, 9477, Note_on_c, 0, 29, 75
1, 9477, Note_off_c, 0, 30, 64
1, 9477, Note_off_c, 0, 76, 64
1, 9478, Note_off_c, 0, 74, 64
1, 9478, Note_on_c, 0, 84, 25
1, 9479, Note_on_c, 0, 76, 35
1, 9479, Note_off_c, 0, 77, 64
1, 9480, Note_off_c, 0, 29, 64
1, 9480, Note_on_c, 0, 30, 79
1, 9480, Note_on_c, 0, 61, 30
1, 9480, Note_on_c, 0, 78, 20
1, 9481, Note_on_c, 0, 63, 36
1, 9481, Note_on_c, 0, 68, 22
1, 9481, Note_on_c, 0, 72, 24
1, 9481, Note_off_c, 0, 80, 64
1, 9482, Note_on_c, 0, 49, 62
1, 9482, Note_off_c, 0, 61, 64
1, 9483, Note_on_c, 0, 29, 80
1, 9483, Note_off_c, 0, 30, 64
1, 9483, Note_off_c, 0, 78, 64
1, 9484, Note_off_c, 0, 29, 64
1, 9484, Note_on_c, 0, 30, 78
1, 9484, Note_off_c, 0, 49, 64
1, 9484, Note_off_c, 0, 63, 64
1, 9484, Note_off_c, 0, 68, 64
1, 9484, Note_off_c, 0, 72, 64
1, 9484, Note_off_c, 0, 76, 64
1, 9484, Note_on_c, 0, 78, 30
1, 9484, Note_off_c, 0, 84, 64
1, 9486, Note_on_c, 0, 69, 23
1, 9487, Note_off_c, 0, 30, 64
1, 9487, Note_on_c, 0, 34, 72
1, 9487, Note_on_c, 0, 54, 34
1, 9487, Note_off_c, 0, 78, 64
1, 9487, Note_off_c, 0, 82, 64
1, 9487, Note_on_c, 0, 91, 25
1, 9488, Note_off_c, 0, 34, 64
1, 9488, Note_on_c, 0, 66, 48
1, 9488, Note_on_c, 0, 74, 43
1, 9488, Note_on_c, 0, 80, 32
1, 9488, Note_on_c, 0, 84, 24
1, 9488, Note_on_c, 0, 85, 38
1, 9488, Note_on_c, 0, 88, 26
1, 9488, Note_on_c, 0, 90, 29
1, 9488, Note_on_c, 0, 93, 26
1, 9488, Note_on_c, 0, 95, 27
1, 9488, Note_on_c, 0, 96, 25
1, 9489, Note_off_c, 0, 54, 64
1, 9489, Note_off_c, 0, 69, 64
1, 9489, Note_on_c, 0, 71, 42
1, 9489, Note_on_c, 0, 89, 36
1, 9489, Note_on_c, 0, 94, 21
1, 9490, Note_on_c, 0, 53, 71
1, 9490, Note_off_c, 0, 66, 64
1, 9490, Note_on_c, 0, 67, 40
1, 9490, Note_on_c, 0, 81, 18
1, 9491, Note_on_c, 0, 48, 85
1, 9491, Note_off_c, 0, 53, 64
1, 9491, Note_off_c, 0, 71, 64
1, 9491, Note_off_c, 0, 90, 64
1, 9491, Note_off_c, 0, 91, 64
1, 9491, Note_off_c, 0, 93, 64
1, 9492, Note_on_c, 0, 45, 95
1, 9492, Note_off_c, 0, 48, 64
1, 9492, Note_off_c, 0, 67, 64
1, 9492, Note_off_c, 0, 74, 64
1, 9492, Note_off_c, 0, 80, 64
1, 9492, Note_off_c, 0, 85, 64
1, 9492, Note_off_c, 0, 95, 64
1, 9492, Note_off_c, 0, 96, 64
1, 9493, Note_on_c, 0, 42, 100
1, 9493, Note_off_c, 0, 45, 64
1, 9493, Note_off_c, 0, 84, 64
1, 9493, Note_off_c, 0, 88, 64
1, 9493, Note_off_c, 0, 94, 64
1, 9494, Note_on_c, 0, 40, 98
1, 9494, Note_off_c, 0, 42, 64
1, 9495, Note_on_c, 0, 38, 98
1, 9495, Note_off_c, 0, 40, 64
1, 9495, Note_off_c, 0, 81, 64
1, 9495, Note_off_c, 0, 89, 64
1, 9496, Note_on_c, 0, 36, 98
1, 9496, Note_off_c, 0, 38, 64
1, 9497, Note_on_c, 0, 35, 97
1, 9497, Note_off_c, 0, 36, 64
1, 9498, Note_on_c, 0, 34, 95
1, 9498, Note_off_c, 0, 35, 64
1, 9499, Note_on_c, 0, 33, 95
1, 9499, Note_off_c, 0, 34, 64
1, 9499, Note_on_c, 0, 82, 10
1, 9500, Note_on_c, 0, 32, 96
1, 9500, Note_off_c, 0, 33, 64
1, 9502, Note_on_c, 0, 31, 94
1, 9502, Note_off_c, 0, 32, 64
1, 9502, Note_off_c, 0, 82, 64
1, 9504, Note_on_c, 0, 30, 85
1, 9504, Note_off_c, 0, 31, 64
1, 9506, Note_off_c, 0, 30, 64
1, 9506, Note_on_c, 0, 70, 19
1, 9507, Note_on_c, 0, 72, 16
1, 9508, Note_on_c, 0, 37, 67
1, 9508, Note_on_c, 0, 86, 9
1, 9509, Note_on_c, 0, 31, 73
1, 9509, Note_off_c, 0, 37, 64
1, 9509, Note_on_c, 0, 64, 32
1, 9509, Note_on_c, 0, 68, 18
1, 9510, Note_on_c, 0, 30, 79
1, 9510, Note_off_c, 0, 31, 64
1, 9510, Note_off_c, 0, 70, 64
1, 9510, Note_off_c, 0, 72, 64
1, 9510, Note_on_c, 0, 75, 39
1, 9511, Note_on_c, 0, 29, 80
1, 9511, Note_off_c, 0, 30, 64
1, 9511, Note_on_c, 0, 61, 24
1, 9511, Note_on_c, 0, 85, 17
1, 9511, Note_off_c, 0, 86, 64
1, 9512, Note_off_c, 0, 64, 64
1, 9512, Note_off_c, 0, 75, 64
1, 9512, Note_on_c, 0, 76, 37
1, 9513, Note_off_c, 0, 29, 64
1, 9513, Note_on_c, 0, 30, 77
1, 9513, Note_off_c, 0, 68, 64
1, 9513, Note_on_c, 0, 72, 28
1, 9514, Note_on_c, 0, 65, 24
1, 9514, Note_off_c, 0, 85, 64
1, 9515, Note_on_c, 0, 29, 73
1, 9515, Note_off_c, 0, 30, 64
1, 9515, Note_off_c, 0, 61, 64
1, 9515, Note_on_c, 0, 75, 34
1, 9516, Note_off_c, 0, 72, 64
1, 9516, Note_off_c, 0, 76, 64
1, 9516, Note_on_c, 0, 78, 19
1, 9517, Note_on_c, 0, 64, 28
1, 9517, Note_off_c, 0, 65, 64
1, 9517, Note_on_c, 0, 72, 34
1, 9518, Note_off_c, 0, 29, 64
1, 9518, Note_on_c, 0, 30, 79
1, 9518, Note_on_c, 0, 54, 54
1, 9518, Note_on_c, 0, 77, 24
1, 9518, Note_on_c, 0, 86, 16
1, 9519, Note_on_c, 0, 49, 62
1, 9519, Note_on_c, 0, 71, 30
1, 9519, Note_off_c, 0, 72, 64
1, 9519, Note_off_c, 0, 78, 64
1, 9519, Note_on_c, 0, 85, 18
1, 9520, Note_off_c, 0, 54, 64
1, 9520, Note_off_c, 0, 64, 64
1, 9520, Note_on_c, 0, 68, 31
1, 9520, Note_on_c, 0, 74, 34
1, 9520, Note_off_c, 0, 75, 64
1, 9521, Note_on_c, 0, 29, 79
1, 9521, Note_off_c, 0, 30, 64
1, 9521, Note_off_c, 0, 71, 64
1, 9521, Note_off_c, 0, 77, 64
1, 9522, Note_on_c, 0, 64, 29
1, 9522, Note_off_c, 0, 68, 64
1, 9522, Note_on_c, 0, 73, 39
1, 9522, Note_off_c, 0, 74, 64
1, 9522, Note_on_c, 0, 77, 27
1, 9522, Note_off_c, 0, 85, 64
1, 9522, Note_off_c, 0, 86, 64
1, 9523, Note_off_c, 0, 29, 64
1, 9523, Note_on_c, 0, 30, 75
1, 9523, Note_on_c, 0, 80, 38
1, 9524, Note_off_c, 0, 30, 64
1, 9524, Note_on_c, 0, 31, 72
1, 9524, Note_off_c, 0, 49, 64
1, 9524, Note_off_c, 0, 64, 64
1, 9524, Note_off_c, 0, 73, 64
1, 9525, Note_off_c, 0, 31, 64
1, 9525, Note_on_c, 0, 35, 67
1, 9525, Note_on_c, 0, 68, 43
1, 9525, Note_on_c, 0, 72, 41
1, 9525, Note_on_c, 0, 74, 46
1, 9525, Note_off_c, 0, 77, 64
1, 9525, Note_on_c, 0, 83, 30
1, 9525, Note_on_c, 0, 85, 32
1, 9525, Note_on_c, 0, 90, 30
1, 9525, Note_on_c, 0, 93, 25
1, 9526, Note_off_c, 0, 35, 64
1, 9526, Note_on_c, 0, 78, 39
1, 9526, Note_on_c, 0, 81, 41
1, 9527, Note_on_c, 0, 55, 65
1, 9527, Note_off_c, 0, 68, 64
1, 9527, Note_off_c, 0, 80, 64
1, 9527, Note_off_c, 0, 83, 64
1, 9528, Note_on_c, 0, 49, 79
1, 9528, Note_off_c, 0, 55, 64
1, 9528, Note_off_c, 0, 85, 64
1, 9528, Note_off_c, 0, 90, 64
1, 9528, Note_off_c, 0, 93, 64
1, 9529, Note_on_c, 0, 45, 91
1, 9529, Note_off_c, 0, 49, 64
1, 9529, Note_off_c, 0, 72, 64
1, 9529, Note_off_c, 0, 74, 64
1, 9529, Note_off_c, 0, 81, 64
1, 9530, Note_on_c, 0, 42, 97
1, 9530, Note_off_c, 0, 45, 64
1, 9530, Note_off_c, 0, 78, 64
1, 9530, Note_on_c, 0, 80, 11
1, 9531, Note_on_c, 0, 41, 100
1, 9531, Note_off_c, 0, 42, 64
1, 9532, Note_on_c, 0, 38, 98
1, 9532, Note_off_c, 0, 41, 64
1, 9533, Note_on_c, 0, 37, 98
1, 9533, Note_off_c, 0, 38, 64
1, 9533, Note_on_c, 0, 78, 14
1, 9533, Note_off_c, 0, 80, 64
1, 9534, Note_on_c, 0, 36, 97
1, 9534, Note_off_c, 0, 37, 64
1, 9535, Note_on_c, 0, 35, 96
1, 9535, Note_off_c, 0, 36, 64
1, 9536, Note_on_c, 0, 34, 96
1, 9536, Note_off_c, 0, 35, 64
1, 9536, Note_off_c, 0, 78, 64
1, 9537, Note_on_c, 0, 33, 96
1, 9537, Note_off_c, 0, 34, 64
1, 9537, Note_on_c, 0, 77, 15
1, 9538, Note_on_c, 0, 32, 96
1, 9538, Note_off_c, 0, 33, 64
1, 9539, Note_on_c, 0, 31, 95
1, 9539, Note_off_c, 0, 32, 64
1, 9539, Note_on_c, 0, 82, 14
1, 9540, Note_on_c, 0, 75, 21
1, 9541, Note_off_c, 0, 77, 64
1, 9542, Note_on_c, 0, 30, 79
1, 9542, Note_off_c, 0, 31, 64
1, 9542, Note_on_c, 0, 78, 11
1, 9542, Note_off_c, 0, 82, 64
1, 9543, Note_on_c, 0, 84, 27
1, 9544, Note_off_c, 0, 30, 64
1, 9544, Note_off_c, 0, 75, 64
1, 9544, Note_on_c, 0, 82, 22
1, 9544, Note_on_c, 0, 88, 19
1, 9545, Note_on_c, 0, 77, 35
1, 9545, Note_off_c, 0, 78, 64
1, 9545, Note_on_c, 0, 91, 26
1, 9545, Note_on_c, 0, 95, 23
1, 9545, Note_on_c, 0, 96, 28
1, 9546, Note_on_c, 0, 36, 71
1, 9546, Note_on_c, 0, 64, 34
1, 9546, Note_on_c, 0, 68, 35
1, 9546, Note_on_c, 0, 76, 35
1, 9546, Note_on_c, 0, 85, 23
1, 9546, Note_on_c, 0, 87, 26
1, 9546, Note_on_c, 0, 93, 17
1, 9547, Note_on_c, 0, 31, 78
1, 9547, Note_off_c, 0, 36, 64
1, 9547, Note_on_c, 0, 78, 25
1, 9547, Note_off_c, 0, 82, 64
1, 9547, Note_on_c, 0, 83, 33
1, 9547, Note_off_c, 0, 88, 64
1, 9548, Note_on_c, 0, 29, 80
1, 9548, Note_off_c, 0, 31, 64
1, 9548, Note_off_c, 0, 68, 64
1, 9548, Note_off_c, 0, 77, 64
1, 9548, Note_off_c, 0, 95, 64
1, 9549, Note_on_c, 0, 49, 53
1, 9549, Note_on_c, 0, 73, 29
1, 9549, Note_off_c, 0, 76, 64
1, 9549, Note_off_c, 0, 85, 64
1, 9549, Note_off_c, 0, 93, 64
1, 9550, Note_off_c, 0, 29, 64
1, 9550, Note_on_c, 0, 30, 75
1, 9550, Note_on_c, 0, 54, 45
1, 9550, Note_on_c, 0, 81, 33
1, 9550, Note_on_c, 0, 86, 35
1, 9551, Note_off_c, 0, 64, 64
1, 9551, Note_off_c, 0, 84, 64
1, 9552, Note_off_c, 0, 49, 64
1, 9552, Note_off_c, 0, 54, 64
1, 9552, Note_on_c, 0, 70, 26
1, 9552, Note_on_c, 0, 74, 31
1, 9552, Note_on_c, 0, 76, 38
1, 9552, Note_off_c, 0, 96, 64
1, 9553, Note_on_c, 0, 29, 73
1, 9553, Note_off_c, 0, 30, 64
1, 9553, Note_off_c, 0, 73, 64
1, 9553, Note_on_c, 0, 80, 29
1, 9553, Note_off_c, 0, 81, 64
1, 9554, Note_on_c, 0, 85, 28
1, 9554, Note_on_c, 0, 93, 18
1, 9555, Note_off_c, 0, 29, 64
1, 9555, Note_on_c, 0, 30, 79
1, 9555, Note_on_c, 0, 61, 38
1, 9555, Note_off_c, 0, 78, 64
1, 9555, Note_off_c, 0, 91, 64
1, 9556, Note_on_c, 0, 68, 40
1, 9556, Note_off_c, 0, 70, 64
1, 9556, Note_off_c, 0, 74, 64
1, 9556, Note_on_c, 0, 82, 28
1, 9556, Note_on_c, 0, 89, 23
1, 9557, Note_on_c, 0, 49, 59
1, 9557, Note_on_c, 0, 75, 25
1, 9557, Note_on_c, 0, 78, 30
1, 9558, Note_on_c, 0, 29, 79
1, 9558, Note_off_c, 0, 30, 64
1, 9558, Note_on_c, 0, 64, 36
1, 9558, Note_on_c, 0, 72, 30
1, 9558, Note_off_c, 0, 76, 64
1, 9558, Note_off_c, 0, 85, 64
1, 9558, Note_on_c, 0, 90, 30
1, 9559, Note_off_c, 0, 61, 64
1, 9559, Note_on_c, 0, 77, 29
1, 9559, Note_off_c, 0, 87, 64
1, 9559, Note_off_c, 0, 93, 64
1, 9560, Note_off_c, 0, 29, 64
1, 9560, Note_on_c, 0, 30, 75
1, 9560, Note_on_c, 0, 48, 54
1, 9560, Note_off_c, 0, 49, 64
1, 9560, Note_off_c, 0, 64, 64
1, 9560, Note_off_c, 0, 72, 64
1, 9560, Note_on_c, 0, 85, 15
1, 9561, Note_off_c, 0, 80, 64
1, 9561, Note_on_c, 0, 81, 38
1, 9561, Note_off_c, 0, 82, 64
1, 9562, Note_off_c, 0, 30, 64
1, 9562, Note_on_c, 0, 34, 72
1, 9562, Note_off_c, 0, 48, 64
1, 9562, Note_on_c, 0, 54, 33
1, 9562, Note_off_c, 0, 68, 64
1, 9562, Note_on_c, 0, 74, 38
1, 9562, Note_off_c, 0, 75, 64
1, 9562, Note_off_c, 0, 78, 64
1, 9562, Note_on_c, 0, 79, 34
1, 9563, Note_off_c, 0, 34, 64
1, 9563, Note_on_c, 0, 70, 44
1, 9563, Note_on_c, 0, 76, 45
1, 9563, Note_off_c, 0, 77, 64
1, 9563, Note_on_c, 0, 84, 34
1, 9563, Note_off_c, 0, 85, 64
1, 9563, Note_off_c, 0, 89, 64
1, 9564, Note_off_c, 0, 54, 64
1, 9564, Note_off_c, 0, 83, 64
1, 9564, Note_on_c, 0, 85, 30
1, 9565, Note_on_c, 0, 51, 75
1, 9565, Note_on_c, 0, 66, 44
1, 9565, Note_off_c, 0, 86, 64
1, 9566, Note_on_c, 0, 48, 86
1, 9566, Note_off_c, 0, 51, 64
1, 9566, Note_off_c, 0, 76, 64
1, 9566, Note_off_c, 0, 79, 64
1, 9566, Note_off_c, 0, 81, 64
1, 9566, Note_off_c, 0, 84, 64
1, 9566, Note_off_c, 0, 85, 64
1, 9566, Note_off_c, 0, 90, 64
1, 9567, Note_on_c, 0, 45, 95
1, 9567, Note_off_c, 0, 48, 64
1, 9567, Note_off_c, 0, 66, 64
1, 9567, Note_off_c, 0, 70, 64
1, 9567, Note_off_c, 0, 74, 64
1, 9568, Note_on_c, 0, 42, 100
1, 9568, Note_off_c, 0, 45, 64
1, 9569, Note_on_c, 0, 40, 97
1, 9569, Note_off_c, 0, 42, 64
1, 9570, Note_on_c, 0, 38, 98
1, 9570, Note_off_c, 0, 40, 64
1, 9571, Note_on_c, 0, 36, 97
1, 9571, Note_off_c, 0, 38, 64
1, 9572, Note_on_c, 0, 35, 96
1, 9572, Note_off_c, 0, 36, 64
1, 9573, Note_on_c, 0, 34, 96
1, 9573, Note_off_c, 0, 35, 64
1, 9574, Note_on_c, 0, 33, 96
1, 9574, Note_off_c, 0, 34, 64
1, 9575, Note_on_c, 0, 32, 97
1, 9575, Note_off_c, 0, 33, 64
1, 9577, Note_on_c, 0, 31, 94
1, 9577, Note_off_c, 0, 32, 64
1, 9579, Note_on_c, 0, 30, 84
1, 9579, Note_off_c, 0, 31, 64
1, 9580, Note_on_c, 0, 75, 18
1, 9581, Note_off_c, 0, 30, 64
1, 9582, Note_on_c, 0, 70, 21
1, 9583, Note_on_c, 0, 37, 68
1, 9583, Note_on_c, 0, 77, 22
1, 9584, Note_on_c, 0, 31, 73
1, 9584, Note_off_c, 0, 37, 64
1, 9584, Note_on_c, 0, 63, 24
1, 9584, Note_on_c, 0, 66, 17
1, 9584, Note_on_c, 0, 80, 20
1, 9585, Note_on_c, 0, 30, 78
1, 9585, Note_off_c, 0, 31, 64
1, 9585, Note_on_c, 0, 73, 17
1, 9585, Note_on_c, 0, 85, 18
1, 9586, Note_on_c, 0, 29, 78
1, 9586, Note_off_c, 0, 30, 64
1, 9586, Note_off_c, 0, 70, 64
1, 9587, Note_off_c, 0, 66, 64
1, 9587, Note_off_c, 0, 77, 64
1, 9588, Note_off_c, 0, 29, 64
1, 9588, Note_on_c, 0, 30, 75
1, 9588, Note_on_c, 0, 70, 14
1, 9588, Note_off_c, 0, 75, 64
1, 9588, Note_off_c, 0, 80, 64
1, 9588, Note_off_c, 0, 85, 64
1, 9590, Note_on_c, 0, 29, 73
1, 9590, Note_off_c, 0, 30, 64
1, 9590, Note_on_c, 0, 66, 14
1, 9590, Note_on_c, 0, 69, 14
1, 9590, Note_off_c, 0, 73, 64
1, 9590, Note_on_c, 0, 77, 23
1, 9590, Note_on_c, 0, 80, 14
1, 9590, Note_on_c, 0, 85, 17
1, 9590, Note_on_c, 0, 90, 14
1, 9591, Note_off_c, 0, 63, 64
1, 9591, Note_off_c, 0, 70, 64
1, 9591, Note_on_c, 0, 71, 25
1, 9591, Note_on_c, 0, 87, 23
1, 9592, Note_on_c, 0, 74, 28
1, 9592, Note_on_c, 0, 78, 15
1, 9592, Note_on_c, 0, 82, 18
1, 9593, Note_off_c, 0, 29, 64
1, 9593, Note_on_c, 0, 30, 73
1, 9593, Note_on_c, 0, 61, 28
1, 9593, Note_off_c, 0, 66, 64
1, 9593, Note_on_c, 0, 68, 32
1, 9593, Note_off_c, 0, 69, 64
1, 9593, Note_off_c, 0, 90, 64
1, 9594, Note_off_c, 0, 30, 64
1, 9594, Note_on_c, 0, 31, 78
1, 9594, Note_on_c, 0, 49, 58
1, 9594, Note_on_c, 0, 64, 33
1, 9594, Note_off_c, 0, 87, 64
1, 9595, Note_on_c, 0, 30, 80
1, 9595, Note_off_c, 0, 31, 64
1, 9595, Note_on_c, 0, 66, 21
1, 9595, Note_off_c, 0, 68, 64
1, 9595, Note_off_c, 0, 71, 64
1, 9595, Note_off_c, 0, 78, 64
1, 9596, Note_on_c, 0, 29, 80
1, 9596, Note_off_c, 0, 30, 64
1, 9596, Note_off_c, 0, 61, 64
1, 9596, Note_on_c, 0, 63, 18
1, 9596, Note_off_c, 0, 64, 64
1, 9596, Note_off_c, 0, 77, 64
1, 9596, Note_off_c, 0, 85, 64
1, 9597, Note_off_c, 0, 49, 64
1, 9597, Note_on_c, 0, 68, 23
1, 9597, Note_on_c, 0, 71, 29
1, 9597, Note_off_c, 0, 74, 64
1, 9597, Note_on_c, 0, 77, 15
1, 9597, Note_off_c, 0, 80, 64
1, 9597, Note_off_c, 0, 82, 64
1, 9598, Note_off_c, 0, 29, 64
1, 9598, Note_on_c, 0, 30, 76
1, 9598, Note_off_c, 0, 66, 64
1, 9599, Note_off_c, 0, 30, 64
1, 9599, Note_on_c, 0, 32, 73
1, 9599, Note_on_c, 0, 54, 36
1, 9599, Note_on_c, 0, 85, 34
1, 9600, Note_off_c, 0, 32, 64
1, 9600, Note_on_c, 0, 35, 66
1, 9600, Note_off_c, 0, 63, 64
1, 9600, Note_off_c, 0, 68, 64
1, 9600, Note_off_c, 0, 71, 64
1, 9600, Note_on_c, 0, 80, 33
1, 9600, Note_on_c, 0, 83, 30
1, 9600, Note_on_c, 0, 88, 33
1, 9600, Note_on_c, 0, 89, 27
1, 9600, Note_on_c, 0, 91, 28
1, 9600, Note_on_c, 0, 93, 25
1, 9601, Note_off_c, 0, 35, 64
1, 9601, Note_off_c, 0, 54, 64
1, 9601, Note_on_c, 0, 70, 40
1, 9601, Note_on_c, 0, 75, 42
1, 9601, Note_off_c, 0, 77, 64
1, 9601, Note_on_c, 0, 78, 37
1, 9602, Note_on_c, 0, 54, 65
1, 9602, Note_on_c, 0, 84, 27
1, 9603, Note_on_c, 0, 49, 81
1, 9603, Note_off_c, 0, 54, 64
1, 9603, Note_off_c, 0, 78, 64
1, 9603, Note_off_c, 0, 80, 64
1, 9603, Note_off_c, 0, 83, 64
1, 9603, Note_off_c, 0, 85, 64
1, 9603, Note_off_c, 0, 88, 64
1, 9603, Note_off_c, 0, 91, 64
1, 9603, Note_off_c, 0, 93, 64
1, 9604, Note_on_c, 0, 45, 92
1, 9604, Note_off_c, 0, 49, 64
1, 9604, Note_off_c, 0, 70, 64
1, 9604, Note_off_c, 0, 75, 64
1, 9604, Note_off_c, 0, 89, 64
1, 9605, Note_on_c, 0, 42, 98
1, 9605, Note_off_c, 0, 45, 64
1, 9605, Note_off_c, 0, 84, 64
1, 9606, Note_on_c, 0, 41, 99
1, 9606, Note_off_c, 0, 42, 64
1, 9607, Note_on_c, 0, 38, 98
1, 9607, Note_off_c, 0, 41, 64
1, 9608, Note_on_c, 0, 37, 98
1, 9608, Note_off_c, 0, 38, 64
1, 9609, Note_on_c, 0, 36, 97
1, 9609, Note_off_c, 0, 37, 64
1, 9610, Note_on_c, 0, 34, 96
1, 9610, Note_off_c, 0, 36, 64
1, 9611, Note_on_c, 0, 33, 96
1, 9611, Note_off_c, 0, 34, 64
1, 9612, Note_on_c, 0, 49, 29
1, 9613, Note_on_c, 0, 32, 96
1, 9613, Note_off_c, 0, 33, 64
1, 9614, Note_on_c, 0, 31, 95
1, 9614, Note_off_c, 0, 32, 64
1, 9614, Note_off_c, 0, 49, 64
1, 9617, Note_on_c, 0, 30, 77
1, 9617, Note_off_c, 0, 31, 64
1, 9619, Note_off_c, 0, 30, 64
1, 9619, Note_on_c, 0, 70, 16
1, 9620, Note_on_c, 0, 36, 69
1, 9620, Note_on_c, 0, 84, 19
1, 9620, Note_on_c, 0, 87, 13
1, 9621, Note_on_c, 0, 61, 30
1, 9621, Note_on_c, 0, 77, 17
1, 9621, Note_on_c, 0, 78, 23
1, 9622, Note_on_c, 0, 31, 77
1, 9622, Note_off_c, 0, 36, 64
1, 9622, Note_off_c, 0, 70, 64
1, 9623, Note_on_c, 0, 29, 81
1, 9623, Note_off_c, 0, 31, 64
1, 9624, Note_on_c, 0, 70, 31
1, 9624, Note_off_c, 0, 78, 64
1, 9624, Note_off_c, 0, 87, 64
1, 9625, Note_off_c, 0, 29, 64
1, 9625, Note_on_c, 0, 30, 76
1, 9625, Note_off_c, 0, 84, 64
1, 9626, Note_off_c, 0, 70, 64
1, 9626, Note_off_c, 0, 77, 64
1, 9627, Note_off_c, 0, 61, 64
1, 9627, Note_on_c, 0, 63, 27
1, 9628, Note_on_c, 0, 29, 73
1, 9628, Note_off_c, 0, 30, 64
1, 9629, Note_on_c, 0, 42, 69
1, 9629, Note_on_c, 0, 79, 25
1, 9630, Note_off_c, 0, 29, 64
1, 9630, Note_on_c, 0, 30, 71
1, 9630, Note_on_c, 0, 61, 34
1, 9630, Note_off_c, 0, 63, 64
1, 9630, Note_on_c, 0, 69, 31
1, 9631, Note_off_c, 0, 30, 64
1, 9631, Note_on_c, 0, 31, 75
1, 9631, Note_off_c, 0, 42, 64
1, 9631, Note_on_c, 0, 63, 32
1, 9631, Note_on_c, 0, 83, 10
1, 9632, Note_on_c, 0, 30, 79
1, 9632, Note_off_c, 0, 31, 64
1, 9632, Note_on_c, 0, 49, 57
1, 9632, Note_off_c, 0, 61, 64
1, 9632, Note_off_c, 0, 69, 64
1, 9632, Note_on_c, 0, 71, 25
1, 9633, Note_on_c, 0, 29, 80
1, 9633, Note_off_c, 0, 30, 64
1, 9634, Note_off_c, 0, 49, 64
1, 9634, Note_on_c, 0, 70, 24
1, 9634, Note_off_c, 0, 83, 64
1, 9635, Note_off_c, 0, 29, 64
1, 9635, Note_on_c, 0, 30, 76
1, 9635, Note_off_c, 0, 79, 64
1, 9635, Note_on_c, 0, 83, 31
1, 9636, Note_off_c, 0, 71, 64
1, 9636, Note_on_c, 0, 72, 32
1, 9637, Note_off_c, 0, 30, 64
1, 9637, Note_on_c, 0, 34, 72
1, 9637, Note_off_c, 0, 70, 64
1, 9638, Note_off_c, 0, 34, 64
1, 9638, Note_on_c, 0, 77, 32
1, 9638, Note_on_c, 0, 88, 24
1, 9639, Note_off_c, 0, 63, 64
1, 9639, Note_on_c, 0, 69, 47
1, 9639, Note_off_c, 0, 72, 64
1, 9639, Note_on_c, 0, 80, 29
1, 9639, Note_on_c, 0, 85, 29
1, 9640, Note_on_c, 0, 51, 76
1, 9641, Note_on_c, 0, 48, 86
1, 9641, Note_off_c, 0, 51, 64
1, 9641, Note_off_c, 0, 69, 64
1, 9641, Note_off_c, 0, 77, 64
1, 9641, Note_off_c, 0, 80, 64
1, 9641, Note_off_c, 0, 83, 64
1, 9641, Note_off_c, 0, 85, 64
1, 9641, Note_off_c, 0, 88, 64
1, 9642, Note_on_c, 0, 44, 94
1, 9642, Note_off_c, 0, 48, 64
1, 9643, Note_on_c, 0, 41, 100
1, 9643, Note_off_c, 0, 44, 64
1, 9644, Note_on_c, 0, 40, 97
1, 9644, Note_off_c, 0, 41, 64
1, 9645, Note_on_c, 0, 38, 98
1, 9645, Note_off_c, 0, 40, 64
1, 9646, Note_on_c, 0, 36, 98
1, 9646, Note_off_c, 0, 38, 64
1, 9647, Note_on_c, 0, 35, 97
1, 9647, Note_off_c, 0, 36, 64
1, 9648, Note_on_c, 0, 34, 96
1, 9648, Note_off_c, 0, 35, 64
1, 9649, Note_on_c, 0, 33, 96
1, 9649, Note_off_c, 0, 34, 64
1, 9650, Note_on_c, 0, 32, 97
1, 9650, Note_off_c, 0, 33, 64
1, 9652, Note_on_c, 0, 31, 94
1, 9652, Note_off_c, 0, 32, 64
1, 9654, Note_on_c, 0, 30, 83
1, 9654, Note_off_c, 0, 31, 64
1, 9655, Note_on_c, 0, 60, 26
1, 9655, Note_on_c, 0, 77, 12
1, 9657, Note_off_c, 0, 30, 64
1, 9657, Note_on_c, 0, 71, 26
1, 9658, Note_on_c, 0, 41, 67
1, 9658, Note_off_c, 0, 60, 64
1, 9658, Note_on_c, 0, 61, 33
1, 9658, Note_off_c, 0, 77, 64
1, 9658, Note_on_c, 0, 88, 10
1, 9659, Note_on_c, 0, 31, 72
1, 9659, Note_off_c, 0, 41, 64
1, 9659, Note_on_c, 0, 70, 28
1, 9659, Note_on_c, 0, 74, 23
1, 9660, Note_on_c, 0, 30, 78
1, 9660, Note_off_c, 0, 31, 64
1, 9660, Note_off_c, 0, 61, 64
1, 9660, Note_on_c, 0, 64, 29
1, 9660, Note_off_c, 0, 71, 64
1, 9660, Note_on_c, 0, 78, 12
1, 9661, Note_on_c, 0, 29, 79
1, 9661, Note_off_c, 0, 30, 64
1, 9661, Note_on_c, 0, 61, 20
1, 9661, Note_on_c, 0, 79, 10
1, 9661, Note_off_c, 0, 88, 64
1, 9662, Note_off_c, 0, 64, 64
1, 9662, Note_on_c, 0, 69, 25
1, 9662, Note_off_c, 0, 70, 64
1, 9662, Note_on_c, 0, 72, 23
1, 9663, Note_off_c, 0, 74, 64
1, 9664, Note_off_c, 0, 29, 64
1, 9664, Note_on_c, 0, 30, 74
1, 9664, Note_off_c, 0, 78, 64
1, 9665, Note_on_c, 0, 29, 73
1, 9665, Note_off_c, 0, 30, 64
1, 9665, Note_off_c, 0, 61, 64
1, 9665, Note_off_c, 0, 69, 64
1, 9665, Note_off_c, 0, 72, 64
1, 9666, Note_on_c, 0, 73, 12
1, 9667, Note_on_c, 0, 70, 31
1, 9667, Note_on_c, 0, 76, 18
1, 9668, Note_off_c, 0, 29, 64
1, 9668, Note_on_c, 0, 30, 75
1, 9668, Note_on_c, 0, 64, 31
1, 9668, Note_on_c, 0, 77, 18
1, 9668, Note_off_c, 0, 79, 64
1, 9668, Note_on_c, 0, 83, 15
1, 9669, Note_off_c, 0, 30, 64
1, 9669, Note_on_c, 0, 31, 79
1, 9669, Note_off_c, 0, 73, 64
1, 9670, Note_on_c, 0, 30, 81
1, 9670, Note_off_c, 0, 31, 64
1, 9671, Note_on_c, 0, 29, 80
1, 9671, Note_off_c, 0, 30, 64
1, 9671, Note_off_c, 0, 77, 64
1, 9672, Note_off_c, 0, 29, 64
1, 9672, Note_on_c, 0, 30, 77
1, 9672, Note_on_c, 0, 61, 15
1, 9672, Note_off_c, 0, 64, 64
1, 9672, Note_on_c, 0, 66, 13
1, 9672, Note_off_c, 0, 70, 64
1, 9672, Note_on_c, 0, 75, 16
1, 9672, Note_off_c, 0, 76, 64
1, 9672, Note_off_c, 0, 83, 64
1, 9674, Note_off_c, 0, 30, 64
1, 9674, Note_on_c, 0, 32, 72
1, 9674, Note_on_c, 0, 54, 38
1, 9675, Note_off_c, 0, 32, 64
1, 9675, Note_on_c, 0, 34, 66
1, 9675, Note_on_c, 0, 60, 46
1, 9675, Note_off_c, 0, 61, 64
1, 9675, Note_on_c, 0, 65, 43
1, 9675, Note_off_c, 0, 66, 64
1, 9675, Note_on_c, 0, 78, 36
1, 9675, Note_on_c, 0, 82, 33
1, 9675, Note_on_c, 0, 83, 34
1, 9675, Note_on_c, 0, 85, 31
1, 9675, Note_on_c, 0, 87, 30
1, 9675, Note_on_c, 0, 88, 30
1, 9675, Note_on_c, 0, 91, 29
1, 9675, Note_on_c, 0, 92, 29
1, 9675, Note_on_c, 0, 93, 28
1, 9675, Note_on_c, 0, 96, 22
1, 9676, Note_off_c, 0, 34, 64
1, 9676, Note_off_c, 0, 54, 64
1, 9676, Note_off_c, 0, 75, 64
1, 9676, Note_on_c, 0, 81, 34
1, 9677, Note_on_c, 0, 53, 68
1, 9677, Note_off_c, 0, 60, 64
1, 9677, Note_on_c, 0, 64, 48
1, 9677, Note_off_c, 0, 65, 64
1, 9677, Note_on_c, 0, 69, 44
1, 9677, Note_off_c, 0, 88, 64
1, 9678, Note_on_c, 0, 49, 82
1, 9678, Note_off_c, 0, 53, 64
1, 9678, Note_off_c, 0, 78, 64
1, 9678, Note_off_c, 0, 81, 64
1, 9678, Note_off_c, 0, 82, 64
1, 9678, Note_off_c, 0, 83, 64
1, 9678, Note_off_c, 0, 85, 64
1, 9678, Note_off_c, 0, 87, 64
1, 9678, Note_off_c, 0, 91, 64
1, 9678, Note_off_c, 0, 92, 64
1, 9678, Note_off_c, 0, 93, 64
1, 9678, Note_off_c, 0, 96, 64
1, 9679, Note_on_c, 0, 45, 93
1, 9679, Note_off_c, 0, 49, 64
1, 9679, Note_off_c, 0, 64, 64
1, 9679, Note_off_c, 0, 69, 64
1, 9680, Note_on_c, 0, 42, 98
1, 9680, Note_off_c, 0, 45, 64
1, 9681, Note_on_c, 0, 41, 99
1, 9681, Note_off_c, 0, 42, 64
1, 9682, Note_on_c, 0, 38, 97
1, 9682, Note_off_c, 0, 41, 64
1, 9683, Note_on_c, 0, 37, 97
1, 9683, Note_off_c, 0, 38, 64
1, 9684, Note_on_c, 0, 36, 96
1, 9684, Note_off_c, 0, 37, 64
1, 9685, Note_on_c, 0, 34, 96
1, 9685, Note_off_c, 0, 36, 64
1, 9686, Note_on_c, 0, 33, 96
1, 9686, Note_off_c, 0, 34, 64
1, 9688, Note_on_c, 0, 32, 96
1, 9688, Note_off_c, 0, 33, 64
1, 9689, Note_on_c, 0, 31, 95
1, 9689, Note_off_c, 0, 32, 64
1, 9690, Note_on_c, 0, 49, 16
1, 9690, Note_on_c, 0, 75, 14
1, 9692, Note_on_c, 0, 30, 77
1, 9692, Note_off_c, 0, 31, 64
1, 9692, Note_on_c, 0, 69, 19
1, 9693, Note_off_c, 0, 49, 64
1, 9693, Note_off_c, 0, 75, 64
1, 9694, Note_off_c, 0, 30, 64
1, 9695, Note_on_c, 0, 67, 20
1, 9695, Note_on_c, 0, 77, 16
1, 9696, Note_on_c, 0, 36, 69
1, 9696, Note_on_c, 0, 54, 54
1, 9696, Note_on_c, 0, 63, 29
1, 9696, Note_on_c, 0, 84, 10
1, 9696, Note_on_c, 0, 88, 10
1, 9697, Note_on_c, 0, 30, 78
1, 9697, Note_off_c, 0, 36, 64
1, 9697, Note_off_c, 0, 69, 64
1, 9697, Note_on_c, 0, 71, 23
1, 9698, Note_on_c, 0, 29, 80
1, 9698, Note_off_c, 0, 30, 64
1, 9698, Note_on_c, 0, 61, 30
1, 9698, Note_off_c, 0, 67, 64
1, 9698, Note_on_c, 0, 68, 29
1, 9698, Note_off_c, 0, 77, 64
1, 9699, Note_on_c, 0, 49, 55
1, 9699, Note_off_c, 0, 54, 64
1, 9699, Note_off_c, 0, 84, 64
1, 9699, Note_off_c, 0, 88, 64
1, 9700, Note_off_c, 0, 29, 64
1, 9700, Note_on_c, 0, 30, 75
1, 9700, Note_off_c, 0, 61, 64
1, 9700, Note_off_c, 0, 68, 64
1, 9701, Note_off_c, 0, 71, 64
1, 9702, Note_on_c, 0, 29, 75
1, 9702, Note_off_c, 0, 30, 64
1, 9702, Note_off_c, 0, 49, 64
1, 9702, Note_off_c, 0, 63, 64
1, 9705, Note_off_c, 0, 29, 64
1, 9705, Note_on_c, 0, 30, 81
1, 9705, Note_on_c, 0, 86, 16
1, 9706, Note_on_c, 0, 61, 35
1, 9707, Note_on_c, 0, 68, 22
1, 9707, Note_on_c, 0, 70, 30
1, 9707, Note_on_c, 0, 77, 14
1, 9708, Note_off_c, 0, 86, 64
1, 9709, Note_on_c, 0, 29, 79
1, 9709, Note_off_c, 0, 30, 64
1, 9710, Note_off_c, 0, 29, 64
1, 9710, Note_on_c, 0, 30, 77
1, 9710, Note_on_c, 0, 63, 34
1, 9710, Note_off_c, 0, 68, 64
1, 9710, Note_on_c, 0, 69, 48
1, 9710, Note_off_c, 0, 70, 64
1, 9711, Note_off_c, 0, 61, 64
1, 9711, Note_off_c, 0, 77, 64
1, 9712, Note_off_c, 0, 30, 64
1, 9712, Note_on_c, 0, 34, 71
1, 9712, Note_on_c, 0, 54, 30
1, 9712, Note_on_c, 0, 66, 49
1, 9713, Note_on_c, 0, 74, 39
1, 9713, Note_on_c, 0, 83, 31
1, 9713, Note_on_c, 0, 88, 26
1, 9714, Note_off_c, 0, 34, 64
1, 9714, Note_off_c, 0, 54, 64
1, 9714, Note_off_c, 0, 63, 64
1, 9714, Note_on_c, 0, 77, 37
1, 9714, Note_on_c, 0, 82, 31
1, 9714, Note_on_c, 0, 85, 34
1, 9715, Note_on_c, 0, 51, 77
1, 9715, Note_off_c, 0, 74, 64
1, 9716, Note_on_c, 0, 46, 87
1, 9716, Note_off_c, 0, 51, 64
1, 9716, Note_off_c, 0, 66, 64
1, 9716, Note_off_c, 0, 69, 64
1, 9716, Note_off_c, 0, 77, 64
1, 9716, Note_off_c, 0, 82, 64
1, 9716, Note_off_c, 0, 85, 64
1, 9716, Note_off_c, 0, 88, 64
1, 9717, Note_on_c, 0, 44, 95
1, 9717, Note_off_c, 0, 46, 64
1, 9717, Note_off_c, 0, 83, 64
1, 9718, Note_on_c, 0, 41, 100
1, 9718, Note_off_c, 0, 44, 64
1, 9718, Note_on_c, 0, 69, 21
1, 9719, Note_on_c, 0, 39, 97
1, 9719, Note_off_c, 0, 41, 64
1, 9720, Note_on_c, 0, 38, 99
1, 9720, Note_off_c, 0, 39, 64
1, 9721, Note_on_c, 0, 36, 98
1, 9721, Note_off_c, 0, 38, 64
1, 9721, Note_on_c, 0, 67, 14
1, 9722, Note_on_c, 0, 35, 97
1, 9722, Note_off_c, 0, 36, 64
1, 9722, Note_off_c, 0, 69, 64
1, 9723, Note_on_c, 0, 34, 96
1, 9723, Note_off_c, 0, 35, 64
1, 9724, Note_on_c, 0, 33, 95
1, 9724, Note_off_c, 0, 34, 64
1, 9725, Note_on_c, 0, 32, 96
1, 9725, Note_off_c, 0, 33, 64
1, 9726, Note_on_c, 0, 48, 25
1, 9727, Note_on_c, 0, 31, 93
1, 9727, Note_off_c, 0, 32, 64
1, 9727, Note_on_c, 0, 69, 20
1, 9729, Note_on_c, 0, 30, 82
1, 9729, Note_off_c, 0, 31, 64
1, 9729, Note_off_c, 0, 48, 64
1, 9729, Note_off_c, 0, 67, 64
1, 9730, Note_on_c, 0, 75, 19
1, 9731, Note_off_c, 0, 30, 64
1, 9731, Note_off_c, 0, 69, 64
1, 9732, Note_on_c, 0, 77, 18
1, 9732, Note_on_c, 0, 80, 12
1, 9732, Note_on_c, 0, 81, 13
1, 9732, Note_on_c, 0, 86, 14
1, 9733, Note_on_c, 0, 41, 69
1, 9733, Note_on_c, 0, 74, 22
1, 9733, Note_off_c, 0, 75, 64
1, 9733, Note_on_c, 0, 84, 12
1, 9734, Note_on_c, 0, 31, 74
1, 9734, Note_off_c, 0, 41, 64
1, 9734, Note_on_c, 0, 64, 38
1, 9734, Note_on_c, 0, 68, 28
1, 9735, Note_on_c, 0, 30, 79
1, 9735, Note_off_c, 0, 31, 64
1, 9735, Note_off_c, 0, 80, 64
1, 9735, Note_off_c, 0, 86, 64
1, 9736, Note_on_c, 0, 29, 79
1, 9736, Note_off_c, 0, 30, 64
1, 9736, Note_off_c, 0, 74, 64
1, 9736, Note_on_c, 0, 75, 23
1, 9736, Note_off_c, 0, 77, 64
1, 9736, Note_on_c, 0, 78, 9
1, 9736, Note_off_c, 0, 84, 64
1, 9737, Note_off_c, 0, 64, 64
1, 9738, Note_off_c, 0, 29, 64
1, 9738, Note_on_c, 0, 30, 75
1, 9738, Note_off_c, 0, 68, 64
1, 9738, Note_off_c, 0, 81, 64
1, 9740, Note_on_c, 0, 29, 73
1, 9740, Note_off_c, 0, 30, 64
1, 9740, Note_off_c, 0, 75, 64
1, 9741, Note_on_c, 0, 61, 26
1, 9741, Note_on_c, 0, 65, 33
1, 9741, Note_on_c, 0, 69, 33
1, 9741, Note_off_c, 0, 78, 64
1, 9743, Note_off_c, 0, 29, 64
1, 9743, Note_on_c, 0, 30, 80
1, 9743, Note_on_c, 0, 54, 55
1, 9743, Note_on_c, 0, 64, 37
1, 9743, Note_off_c, 0, 65, 64
1, 9743, Note_on_c, 0, 68, 30
1, 9743, Note_off_c, 0, 69, 64
1, 9743, Note_on_c, 0, 78, 18
1, 9744, Note_off_c, 0, 61, 64
1, 9744, Note_on_c, 0, 69, 33
1, 9745, Note_off_c, 0, 68, 64
1, 9746, Note_off_c, 0, 54, 64
1, 9746, Note_off_c, 0, 78, 64
1, 9747, Note_on_c, 0, 29, 76
1, 9747, Note_off_c, 0, 30, 64
1, 9747, Note_off_c, 0, 64, 64
1, 9747, Note_off_c, 0, 69, 64
1, 9747, Note_on_c, 0, 75, 23
1, 9748, Note_off_c, 0, 29, 64
1, 9748, Note_on_c, 0, 30, 75
1, 9748, Note_on_c, 0, 76, 37
1, 9749, Note_off_c, 0, 30, 64
1, 9749, Note_on_c, 0, 33, 72
1, 9749, Note_on_c, 0, 47, 51
1, 9749, Note_on_c, 0, 83, 32
1, 9750, Note_off_c, 0, 33, 64
1, 9750, Note_on_c, 0, 34, 65
1, 9750, Note_on_c, 0, 72, 40
1, 9750, Note_off_c, 0, 75, 64
1, 9750, Note_on_c, 0, 79, 38
1, 9750, Note_on_c, 0, 81, 37
1, 9750, Note_on_c, 0, 86, 28
1, 9750, Note_on_c, 0, 90, 28
1, 9750, Note_on_c, 0, 92, 27
1, 9750, Note_on_c, 0, 94, 24
1, 9750, Note_on_c, 0, 97, 20
1, 9751, Note_off_c, 0, 34, 64
1, 9751, Note_off_c, 0, 47, 64
1, 9751, Note_on_c, 0, 70, 43
1, 9752, Note_on_c, 0, 54, 68
1, 9752, Note_off_c, 0, 72, 64
1, 9752, Note_on_c, 0, 78, 32
1, 9752, Note_on_c, 0, 84, 21
1, 9753, Note_on_c, 0, 48, 83
1, 9753, Note_off_c, 0, 54, 64
1, 9753, Note_on_c, 0, 69, 25
1, 9753, Note_off_c, 0, 70, 64
1, 9753, Note_off_c, 0, 76, 64
1, 9753, Note_off_c, 0, 79, 64
1, 9753, Note_off_c, 0, 81, 64
1, 9753, Note_off_c, 0, 83, 64
1, 9753, Note_off_c, 0, 86, 64
1, 9753, Note_off_c, 0, 90, 64
1, 9753, Note_off_c, 0, 92, 64
1, 9753, Note_off_c, 0, 94, 64
1, 9753, Note_off_c, 0, 97, 64
1, 9754, Note_on_c, 0, 45, 93
1, 9754, Note_off_c, 0, 48, 64
1, 9754, Note_off_c, 0, 78, 64
1, 9755, Note_on_c, 0, 42, 98
1, 9755, Note_off_c, 0, 45, 64
1, 9756, Note_on_c, 0, 40, 98
1, 9756, Note_off_c, 0, 42, 64
1, 9756, Note_off_c, 0, 84, 64
1, 9757, Note_on_c, 0, 38, 98
1, 9757, Note_off_c, 0, 40, 64
1, 9758, Note_on_c, 0, 37, 98
1, 9758, Note_off_c, 0, 38, 64
1, 9759, Note_on_c, 0, 35, 97
1, 9759, Note_off_c, 0, 37, 64
1, 9760, Note_on_c, 0, 34, 96
1, 9760, Note_off_c, 0, 35, 64
1, 9761, Note_on_c, 0, 33, 95
1, 9761, Note_off_c, 0, 34, 64
1, 9761, Note_on_c, 0, 71, 11
1, 9761, Note_on_c, 0, 75, 16
1, 9762, Note_on_c, 0, 32, 96
1, 9762, Note_off_c, 0, 33, 64
1, 9762, Note_on_c, 0, 63, 12
1, 9764, Note_on_c, 0, 31, 94
1, 9764, Note_off_c, 0, 32, 64
1, 9764, Note_off_c, 0, 71, 64
1, 9765, Note_off_c, 0, 63, 64
1, 9766, Note_off_c, 0, 69, 64
1, 9767, Note_on_c, 0, 30, 76
1, 9767, Note_off_c, 0, 31, 64
1, 9767, Note_on_c, 0, 67, 27
1, 9768, Note_off_c, 0, 30, 64
1, 9768, Note_on_c, 0, 77, 12
1, 9769, Note_on_c, 0, 63, 34
1, 9770, Note_on_c, 0, 80, 15
1, 9771, Note_on_c, 0, 36, 68
1, 9771, Note_on_c, 0, 54, 53
1, 9771, Note_on_c, 0, 61, 38
1, 9771, Note_off_c, 0, 63, 64
1, 9771, Note_off_c, 0, 67, 64
1, 9771, Note_on_c, 0, 68, 34
1, 9771, Note_off_c, 0, 75, 64
1, 9771, Note_off_c, 0, 77, 64
1, 9772, Note_on_c, 0, 31, 77
1, 9772, Note_off_c, 0, 36, 64
1, 9773, Note_on_c, 0, 29, 79
1, 9773, Note_off_c, 0, 31, 64
1, 9773, Note_on_c, 0, 65, 12
1, 9773, Note_off_c, 0, 68, 64
1, 9773, Note_on_c, 0, 69, 27
1, 9773, Note_off_c, 0, 80, 64
1, 9774, Note_off_c, 0, 29, 64
1, 9774, Note_on_c, 0, 30, 77
1, 9774, Note_off_c, 0, 54, 64
1, 9774, Note_on_c, 0, 82, 13
1, 9775, Note_on_c, 0, 48, 53
1, 9776, Note_on_c, 0, 29, 75
1, 9776, Note_off_c, 0, 30, 64
1, 9776, Note_off_c, 0, 69, 64
1, 9777, Note_off_c, 0, 61, 64
1, 9777, Note_off_c, 0, 65, 64
1, 9777, Note_off_c, 0, 82, 64
1, 9778, Note_off_c, 0, 48, 64
1, 9779, Note_on_c, 0, 61, 31
1, 9779, Note_on_c, 0, 69, 35
1, 9779, Note_on_c, 0, 77, 26
1, 9779, Note_on_c, 0, 85, 19
1, 9780, Note_off_c, 0, 29, 64
1, 9780, Note_on_c, 0, 30, 72
1, 9780, Note_on_c, 0, 65, 30
1, 9780, Note_on_c, 0, 84, 12
1, 9780, Note_on_c, 0, 88, 14
1, 9781, Note_off_c, 0, 30, 64
1, 9781, Note_on_c, 0, 31, 75
1, 9781, Note_off_c, 0, 69, 64
1, 9781, Note_on_c, 0, 82, 11
1, 9782, Note_on_c, 0, 30, 79
1, 9782, Note_off_c, 0, 31, 64
1, 9783, Note_on_c, 0, 29, 79
1, 9783, Note_off_c, 0, 30, 64
1, 9783, Note_on_c, 0, 49, 55
1, 9783, Note_off_c, 0, 61, 64
1, 9783, Note_off_c, 0, 65, 64
1, 9783, Note_off_c, 0, 84, 64
1, 9784, Note_off_c, 0, 29, 64
1, 9784, Note_on_c, 0, 30, 77
1, 9784, Note_on_c, 0, 78, 13
1, 9784, Note_off_c, 0, 85, 64
1, 9785, Note_off_c, 0, 77, 64
1, 9785, Note_off_c, 0, 82, 64
1, 9785, Note_off_c, 0, 88, 64
1, 9786, Note_off_c, 0, 49, 64
1, 9787, Note_off_c, 0, 30, 64
1, 9787, Note_on_c, 0, 34, 71
1, 9787, Note_on_c, 0, 75, 38
1, 9787, Note_off_c, 0, 78, 64
1, 9787, Note_on_c, 0, 85, 33
1, 9787, Note_on_c, 0, 86, 33
1, 9788, Note_on_c, 0, 73, 41
1, 9788, Note_on_c, 0, 78, 37
1, 9788, Note_on_c, 0, 81, 32
1, 9788, Note_on_c, 0, 82, 32
1, 9789, Note_off_c, 0, 34, 64
1, 9789, Note_on_c, 0, 66, 52
1, 9789, Note_on_c, 0, 70, 38
1, 9789, Note_on_c, 0, 84, 33
1, 9790, Note_on_c, 0, 51, 76
1, 9790, Note_on_c, 0, 68, 37
1, 9790, Note_on_c, 0, 77, 16
1, 9790, Note_off_c, 0, 78, 64
1, 9791, Note_on_c, 0, 46, 88
1, 9791, Note_off_c, 0, 51, 64
1, 9791, Note_off_c, 0, 66, 64
1, 9791, Note_off_c, 0, 81, 64
1, 9791, Note_off_c, 0, 85, 64
1, 9791, Note_off_c, 0, 86, 64
1, 9792, Note_on_c, 0, 44, 94
1, 9792, Note_off_c, 0, 46, 64
1, 9792, Note_off_c, 0, 68, 64
1, 9792, Note_off_c, 0, 84, 64
1, 9793, Note_on_c, 0, 41, 100
1, 9793, Note_off_c, 0, 44, 64
1, 9793, Note_on_c, 0, 69, 16
1, 9793, Note_off_c, 0, 70, 64
1, 9793, Note_off_c, 0, 75, 64
1, 9793, Note_off_c, 0, 82, 64
1, 9794, Note_on_c, 0, 39, 97
1, 9794, Note_off_c, 0, 41, 64
1, 9794, Note_on_c, 0, 74, 22
1, 9795, Note_on_c, 0, 37, 98
1, 9795, Note_off_c, 0, 39, 64
1, 9796, Note_on_c, 0, 36, 97
1, 9796, Note_off_c, 0, 37, 64
1, 9796, Note_off_c, 0, 73, 64
1, 9797, Note_on_c, 0, 35, 96
1, 9797, Note_off_c, 0, 36, 64
1, 9797, Note_off_c, 0, 69, 64
1, 9797, Note_on_c, 0, 88, 17
1, 9798, Note_on_c, 0, 34, 95
1, 9798, Note_off_c, 0, 35, 64
1, 9798, Note_off_c, 0, 74, 64
1, 9798, Note_on_c, 0, 75, 17
1, 9798, Note_on_c, 0, 78, 19
1, 9798, Note_on_c, 0, 80, 13
1, 9799, Note_on_c, 0, 33, 95
1, 9799, Note_off_c, 0, 34, 64
1, 9799, Note_off_c, 0, 77, 64
1, 9800, Note_on_c, 0, 32, 96
1, 9800, Note_off_c, 0, 33, 64
1, 9800, Note_off_c, 0, 88, 64
1, 9801, Note_on_c, 0, 31, 95
1, 9801, Note_off_c, 0, 32, 64
1, 9801, Note_off_c, 0, 75, 64
1, 9801, Note_on_c, 0, 76, 23
1, 9801, Note_off_c, 0, 78, 64
1, 9801, Note_on_c, 0, 89, 13
1, 9802, Note_on_c, 0, 67, 19
1, 9802, Note_on_c, 0, 69, 28
1, 9803, Note_on_c, 0, 77, 14
1, 9804, Note_on_c, 0, 30, 82
1, 9804, Note_off_c, 0, 31, 64
1, 9804, Note_on_c, 0, 74, 28
1, 9804, Note_off_c, 0, 80, 64
1, 9804, Note_on_c, 0, 85, 16
1, 9805, Note_off_c, 0, 67, 64
1, 9805, Note_off_c, 0, 76, 64
1, 9806, Note_off_c, 0, 30, 64
1, 9806, Note_on_c, 0, 58, 30
1, 9806, Note_off_c, 0, 69, 64
1, 9806, Note_off_c, 0, 77, 64
1, 9806, Note_off_c, 0, 89, 64
1, 9807, Note_on_c, 0, 69, 37
1, 9807, Note_off_c, 0, 74, 64
1, 9807, Note_off_c, 0, 85, 64
1, 9808, Note_on_c, 0, 37, 70
1, 9808, Note_off_c, 0, 58, 64
1, 9808, Note_on_c, 0, 71, 30
1, 9808, Note_on_c, 0, 76, 26
1, 9808, Note_on_c, 0, 82, 21
1, 9808, Note_on_c, 0, 86, 14
1, 9809, Note_on_c, 0, 32, 73
1, 9809, Note_off_c, 0, 37, 64
1, 9809, Note_on_c, 0, 49, 60
1, 9809, Note_on_c, 0, 66, 32
1, 9809, Note_on_c, 0, 73, 29
1, 9810, Note_on_c, 0, 30, 79
1, 9810, Note_off_c, 0, 32, 64
1, 9810, Note_off_c, 0, 69, 64
1, 9810, Note_on_c, 0, 80, 23
1, 9810, Note_on_c, 0, 88, 28
1, 9811, Note_on_c, 0, 29, 79
1, 9811, Note_off_c, 0, 30, 64
1, 9811, Note_on_c, 0, 77, 21
1, 9811, Note_off_c, 0, 82, 64
1, 9811, Note_off_c, 0, 86, 64
1, 9812, Note_off_c, 0, 66, 64
1, 9812, Note_off_c, 0, 76, 64
1, 9812, Note_on_c, 0, 78, 15
1, 9813, Note_off_c, 0, 29, 64
1, 9813, Note_on_c, 0, 30, 75
1, 9813, Note_on_c, 0, 68, 32
1, 9813, Note_off_c, 0, 73, 64
1, 9814, Note_off_c, 0, 49, 64
1, 9814, Note_on_c, 0, 61, 24
1, 9814, Note_off_c, 0, 71, 64
1, 9814, Note_off_c, 0, 80, 64
1, 9815, Note_on_c, 0, 29, 73
1, 9815, Note_off_c, 0, 30, 64
1, 9815, Note_off_c, 0, 68, 64
1, 9815, Note_on_c, 0, 69, 35
1, 9815, Note_on_c, 0, 92, 29
1, 9816, Note_off_c, 0, 77, 64
1, 9816, Note_on_c, 0, 83, 16
1, 9817, Note_on_c, 0, 42, 65
1, 9817, Note_off_c, 0, 61, 64
1, 9817, Note_on_c, 0, 80, 19
1, 9817, Note_on_c, 0, 87, 16
1, 9817, Note_on_c, 0, 89, 17
1, 9817, Note_on_c, 0, 90, 18
1, 9818, Note_off_c, 0, 29, 64
1, 9818, Note_on_c, 0, 30, 76
1, 9818, Note_off_c, 0, 42, 64
1, 9818, Note_on_c, 0, 61, 34
1, 9818, Note_on_c, 0, 77, 26
1, 9818, Note_off_c, 0, 78, 64
1, 9819, Note_off_c, 0, 30, 64
1, 9819, Note_on_c, 0, 31, 79
1, 9819, Note_off_c, 0, 83, 64
1, 9819, Note_on_c, 0, 86, 13
1, 9820, Note_on_c, 0, 30, 79
1, 9820, Note_off_c, 0, 31, 64
1, 9820, Note_off_c, 0, 80, 64
1, 9820, Note_off_c, 0, 88, 64
1, 9820, Note_off_c, 0, 89, 64
1, 9821, Note_on_c, 0, 29, 78
1, 9821, Note_off_c, 0, 30, 64
1, 9821, Note_off_c, 0, 61, 64
1, 9821, Note_on_c, 0, 75, 28
1, 9821, Note_off_c, 0, 87, 64
1, 9821, Note_off_c, 0, 90, 64
1, 9822, Note_on_c, 0, 64, 30
1, 9822, Note_off_c, 0, 86, 64
1, 9823, Note_off_c, 0, 29, 64
1, 9823, Note_on_c, 0, 30, 74
1, 9823, Note_on_c, 0, 68, 30
1, 9823, Note_off_c, 0, 69, 64
1, 9824, Note_off_c, 0, 30, 64
1, 9824, Note_on_c, 0, 33, 73
1, 9824, Note_off_c, 0, 77, 64
1, 9825, Note_off_c, 0, 33, 64
1, 9825, Note_on_c, 0, 34, 66
1, 9825, Note_off_c, 0, 68, 64
1, 9825, Note_on_c, 0, 69, 51
1, 9825, Note_on_c, 0, 77, 38
1, 9825, Note_on_c, 0, 79, 35
1, 9825, Note_on_c, 0, 83, 29
1, 9825, Note_on_c, 0, 84, 29
1, 9825, Note_on_c, 0, 86, 30
1, 9825, Note_on_c, 0, 88, 39
1, 9825, Note_on_c, 0, 90, 28
1, 9825, Note_on_c, 0, 94, 19
1, 9825, Note_on_c, 0, 97, 19
1, 9826, Note_off_c, 0, 34, 64
1, 9826, Note_off_c, 0, 64, 64
1, 9826, Note_on_c, 0, 65, 50
1, 9826, Note_off_c, 0, 75, 64
1, 9827, Note_on_c, 0, 53, 69
1, 9827, Note_on_c, 0, 74, 28
1, 9827, Note_off_c, 0, 77, 64
1, 9827, Note_on_c, 0, 80, 25
1, 9827, Note_on_c, 0, 82, 24
1, 9827, Note_on_c, 0, 85, 26
1, 9827, Note_off_c, 0, 86, 64
1, 9828, Note_on_c, 0, 48, 84
1, 9828, Note_off_c, 0, 53, 64
1, 9828, Note_off_c, 0, 69, 64
1, 9828, Note_off_c, 0, 79, 64
1, 9828, Note_off_c, 0, 83, 64
1, 9828, Note_off_c, 0, 84, 64
1, 9828, Note_off_c, 0, 92, 64
1, 9828, Note_off_c, 0, 94, 64
1, 9828, Note_off_c, 0, 97, 64
1, 9829, Note_on_c, 0, 45, 94
1, 9829, Note_off_c, 0, 48, 64
1, 9829, Note_off_c, 0, 65, 64
1, 9829, Note_on_c, 0, 67, 20
1, 9829, Note_on_c, 0, 77, 26
1, 9829, Note_off_c, 0, 90, 64
1, 9830, Note_on_c, 0, 42, 99
1, 9830, Note_off_c, 0, 45, 64
1, 9830, Note_off_c, 0, 74, 64
1, 9830, Note_off_c, 0, 80, 64
1, 9831, Note_on_c, 0, 40, 99
1, 9831, Note_off_c, 0, 42, 64
1, 9831, Note_on_c, 0, 76, 32
1, 9832, Note_on_c, 0, 38, 98
1, 9832, Note_off_c, 0, 40, 64
1, 9832, Note_on_c, 0, 66, 16
1, 9832, Note_off_c, 0, 67, 64
1, 9832, Note_off_c, 0, 77, 64
1, 9832, Note_on_c, 0, 78, 17
1, 9832, Note_on_c, 0, 92, 16
1, 9833, Note_on_c, 0, 37, 98
1, 9833, Note_off_c, 0, 38, 64
1, 9833, Note_on_c, 0, 70, 17
1, 9833, Note_off_c, 0, 76, 64
1, 9833, Note_off_c, 0, 82, 64
1, 9833, Note_on_c, 0, 83, 13
1, 9833, Note_on_c, 0, 89, 18
1, 9833, Note_on_c, 0, 91, 12
1, 9834, Note_on_c, 0, 35, 96
1, 9834, Note_off_c, 0, 37, 64
1, 9834, Note_on_c, 0, 80, 28
1, 9835, Note_on_c, 0, 34, 94
1, 9835, Note_off_c, 0, 35, 64
1, 9835, Note_off_c, 0, 66, 64
1, 9835, Note_on_c, 0, 82, 19
1, 9836, Note_on_c, 0, 33, 95
1, 9836, Note_off_c, 0, 34, 64
1, 9836, Note_on_c, 0, 67, 21
1, 9836, Note_off_c, 0, 70, 64
1, 9836, Note_off_c, 0, 83, 64
1, 9837, Note_on_c, 0, 64, 32
1, 9837, Note_on_c, 0, 83, 15
1, 9837, Note_off_c, 0, 91, 64
1, 9838, Note_on_c, 0, 32, 95
1, 9838, Note_off_c, 0, 33, 64
1, 9838, Note_off_c, 0, 82, 64
1, 9839, Note_on_c, 0, 31, 94
1, 9839, Note_off_c, 0, 32, 64
1, 9839, Note_off_c, 0, 64, 64
1, 9839, Note_on_c, 0, 66, 29
1, 9839, Note_off_c, 0, 67, 64
1, 9839, Note_off_c, 0, 78, 64
1, 9839, Note_off_c, 0, 89, 64
1, 9839, Note_off_c, 0, 92, 64
1, 9840, Note_on_c, 0, 62, 16
1, 9840, Note_on_c, 0, 81, 25
1, 9840, Note_off_c, 0, 83, 64
1, 9840, Note_off_c, 0, 85, 64
1, 9840, Note_on_c, 0, 89, 25
1, 9841, Note_on_c, 0, 69, 30
1, 9841, Note_on_c, 0, 75, 21
1, 9841, Note_on_c, 0, 93, 38
1, 9842, Note_on_c, 0, 30, 74
1, 9842, Note_off_c, 0, 31, 64
1, 9842, Note_off_c, 0, 66, 64
1, 9842, Note_on_c, 0, 73, 24
1, 9842, Note_on_c, 0, 85, 51
1, 9843, Note_off_c, 0, 30, 64
1, 9843, Note_on_c, 0, 79, 26
1, 9843, Note_off_c, 0, 80, 64
1, 9844, Note_off_c, 0, 62, 64
1, 9844, Note_on_c, 0, 68, 35
1, 9844, Note_off_c, 0, 69, 64
1, 9844, Note_on_c, 0, 83, 21
1, 9845, Note_on_c, 0, 64, 32
1, 9845, Note_off_c, 0, 75, 64
1, 9846, Note_on_c, 0, 32, 68
1, 9846, Note_off_c, 0, 68, 64
1, 9846, Note_on_c, 0, 69, 38
1, 9846, Note_on_c, 0, 84, 24
1, 9847, Note_on_c, 0, 30, 77
1, 9847, Note_off_c, 0, 32, 64
1, 9847, Note_on_c, 0, 63, 37
1, 9847, Note_off_c, 0, 64, 64
1, 9847, Note_off_c, 0, 79, 64
1, 9847, Note_off_c, 0, 81, 64
1, 9847, Note_off_c, 0, 83, 64
1, 9848, Note_on_c, 0, 29, 78
1, 9848, Note_off_c, 0, 30, 64
1, 9848, Note_on_c, 0, 49, 58
1, 9848, Note_on_c, 0, 83, 16
1, 9848, Note_off_c, 0, 89, 64
1, 9848, Note_on_c, 0, 99, 10
1, 9849, Note_off_c, 0, 63, 64
1, 9849, Note_off_c, 0, 84, 64
1, 9850, Note_off_c, 0, 29, 64
1, 9850, Note_on_c, 0, 30, 73
1, 9850, Note_off_c, 0, 49, 64
1, 9850, Note_off_c, 0, 69, 64
1, 9850, Note_on_c, 0, 70, 31
1, 9850, Note_off_c, 0, 73, 64
1, 9850, Note_on_c, 0, 92, 18
1, 9851, Note_on_c, 0, 78, 24
1, 9851, Note_off_c, 0, 83, 64
1, 9852, Note_on_c, 0, 29, 72
1, 9852, Note_off_c, 0, 30, 64
1, 9852, Note_on_c, 0, 53, 35
1, 9852, Note_on_c, 0, 69, 39
1, 9852, Note_off_c, 0, 70, 64
1, 9852, Note_on_c, 0, 76, 32
1, 9852, Note_off_c, 0, 88, 64
1, 9852, Note_on_c, 0, 89, 25
1, 9853, Note_on_c, 0, 80, 28
1, 9853, Note_on_c, 0, 88, 46
1, 9853, Note_on_c, 0, 91, 16
1, 9854, Note_off_c, 0, 53, 64
1, 9854, Note_on_c, 0, 103, 18
1, 9855, Note_off_c, 0, 29, 64
1, 9855, Note_on_c, 0, 30, 73
1, 9855, Note_on_c, 0, 64, 42
1, 9855, Note_on_c, 0, 73, 35
1, 9855, Note_on_c, 0, 87, 41
1, 9855, Note_on_c, 0, 90, 34
1, 9855, Note_off_c, 0, 92, 64
1, 9856, Note_off_c, 0, 30, 64
1, 9856, Note_on_c, 0, 31, 77
1, 9856, Note_on_c, 0, 49, 61
1, 9856, Note_on_c, 0, 77, 31
1, 9856, Note_off_c, 0, 78, 64
1, 9856, Note_off_c, 0, 99, 64
1, 9857, Note_on_c, 0, 30, 79
1, 9857, Note_off_c, 0, 31, 64
1, 9857, Note_on_c, 0, 75, 34
1, 9857, Note_off_c, 0, 76, 64
1, 9857, Note_off_c, 0, 80, 64
1, 9857, Note_on_c, 0, 92, 32
1, 9858, Note_on_c, 0, 29, 80
1, 9858, Note_off_c, 0, 30, 64
1, 9858, Note_on_c, 0, 63, 33
1, 9858, Note_off_c, 0, 64, 64
1, 9858, Note_on_c, 0, 71, 32
1, 9858, Note_on_c, 0, 80, 32
1, 9858, Note_off_c, 0, 89, 64
1, 9858, Note_off_c, 0, 91, 64
1, 9859, Note_on_c, 0, 91, 16
1, 9859, Note_on_c, 0, 98, 37
1, 9860, Note_off_c, 0, 29, 64
1, 9860, Note_on_c, 0, 30, 76
1, 9860, Note_off_c, 0, 73, 64
1, 9861, Note_off_c, 0, 49, 64
1, 9861, Note_off_c, 0, 63, 64
1, 9861, Note_off_c, 0, 71, 64
1, 9861, Note_on_c, 0, 76, 40
1, 9861, Note_off_c, 0, 77, 64
1, 9861, Note_on_c, 0, 78, 55
1, 9861, Note_on_c, 0, 81, 47
1, 9862, Note_off_c, 0, 30, 64
1, 9862, Note_on_c, 0, 34, 70
1, 9862, Note_on_c, 0, 74, 46
1, 9862, Note_off_c, 0, 75, 64
1, 9862, Note_on_c, 0, 82, 35
1, 9862, Note_on_c, 0, 89, 42
1, 9862, Note_off_c, 0, 91, 64
1, 9862, Note_on_c, 0, 95, 30
1, 9862, Note_off_c, 0, 103, 64
1, 9863, Note_off_c, 0, 34, 64
1, 9863, Note_on_c, 0, 64, 49
1, 9863, Note_on_c, 0, 67, 45
1, 9864, Note_off_c, 0, 69, 64
1, 9864, Note_on_c, 0, 71, 38
1, 9864, Note_off_c, 0, 80, 64
1, 9864, Note_off_c, 0, 82, 64
1, 9864, Note_on_c, 0, 83, 53
1, 9864, Note_off_c, 0, 90, 64
1, 9864, Note_on_c, 0, 91, 29
1, 9864, Note_on_c, 0, 94, 38
1, 9865, Note_on_c, 0, 50, 76
1, 9865, Note_off_c, 0, 64, 64
1, 9865, Note_on_c, 0, 82, 46
1, 9865, Note_off_c, 0, 85, 64
1, 9865, Note_off_c, 0, 92, 64
1, 9866, Note_on_c, 0, 46, 87
1, 9866, Note_off_c, 0, 50, 64
1, 9866, Note_off_c, 0, 67, 64
1, 9866, Note_off_c, 0, 76, 64
1, 9866, Note_off_c, 0, 78, 64
1, 9866, Note_on_c, 0, 79, 55
1, 9866, Note_on_c, 0, 84, 30
1, 9866, Note_off_c, 0, 98, 64
1, 9867, Note_on_c, 0, 42, 94
1, 9867, Note_off_c, 0, 46, 64
1, 9867, Note_on_c, 0, 64, 15
1, 9867, Note_off_c, 0, 71, 64
1, 9867, Note_on_c, 0, 73, 39
1, 9867, Note_off_c, 0, 74, 64
1, 9867, Note_on_c, 0, 78, 31
1, 9867, Note_off_c, 0, 82, 64
1, 9867, Note_off_c, 0, 89, 64
1, 9867, Note_on_c, 0, 92, 15
1, 9867, Note_off_c, 0, 95, 64
1, 9868, Note_on_c, 0, 41, 99
1, 9868, Note_off_c, 0, 42, 64
1, 9868, Note_on_c, 0, 76, 33
1, 9868, Note_on_c, 0, 80, 43
1, 9869, Note_on_c, 0, 39, 96
1, 9869, Note_off_c, 0, 41, 64
1, 9869, Note_off_c, 0, 81, 64
1, 9869, Note_on_c, 0, 82, 18
1, 9869, Note_off_c, 0, 84, 64
1, 9869, Note_on_c, 0, 89, 20
1, 9869, Note_off_c, 0, 91, 64
1, 9869, Note_off_c, 0, 93, 64
1, 9869, Note_off_c, 0, 94, 64
1, 9870, Note_on_c, 0, 37, 97
1, 9870, Note_off_c, 0, 39, 64
1, 9870, Note_off_c, 0, 64, 64
1, 9870, Note_on_c, 0, 75, 26
1, 9870, Note_off_c, 0, 76, 64
1, 9870, Note_on_c, 0, 77, 41
1, 9870, Note_off_c, 0, 78, 64
1, 9871, Note_on_c, 0, 36, 96
1, 9871, Note_off_c, 0, 37, 64
1, 9871, Note_off_c, 0, 83, 64
1, 9871, Note_on_c, 0, 84, 23
1, 9871, Note_off_c, 0, 92, 64
1, 9872, Note_on_c, 0, 35, 95
1, 9872, Note_off_c, 0, 36, 64
1, 9872, Note_off_c, 0, 80, 64
1, 9872, Note_off_c, 0, 82, 64
1, 9872, Note_on_c, 0, 86, 13
1, 9873, Note_on_c, 0, 34, 95
1, 9873, Note_off_c, 0, 35, 64
1, 9873, Note_off_c, 0, 88, 64
1, 9874, Note_on_c, 0, 33, 95
1, 9874, Note_off_c, 0, 34, 64
1, 9874, Note_off_c, 0, 73, 64
1, 9874, Note_off_c, 0, 87, 64
1, 9875, Note_on_c, 0, 32, 96
1, 9875, Note_off_c, 0, 33, 64
1, 9875, Note_off_c, 0, 86, 64
1, 9876, Note_on_c, 0, 31, 95
1, 9876, Note_off_c, 0, 32, 64
1, 9876, Note_off_c, 0, 77, 64
1, 9876, Note_off_c, 0, 79, 64
1, 9876, Note_off_c, 0, 84, 64
1, 9877, Note_on_c, 0, 82, 19
1, 9877, Note_on_c, 0, 88, 14
1, 9878, Note_on_c, 0, 78, 13
1, 9879, Note_on_c, 0, 30, 81
1, 9879, Note_off_c, 0, 31, 64
1, 9879, Note_off_c, 0, 89, 64
1, 9880, Note_on_c, 0, 70, 15
1, 9880, Note_off_c, 0, 75, 64
1, 9881, Note_off_c, 0, 30, 64
1, 9881, Note_off_c, 0, 78, 64
1, 9881, Note_off_c, 0, 82, 64
1, 9882, Note_on_c, 0, 86, 36
1, 9882, Note_on_c, 0, 90, 38
1, 9882, Note_on_c, 0, 91, 32
1, 9882, Note_on_c, 0, 92, 31
1, 9883, Note_on_c, 0, 37, 70
1, 9883, Note_off_c, 0, 70, 64
1, 9883, Note_on_c, 0, 71, 32
1, 9883, Note_on_c, 0, 80, 36
1, 9883, Note_on_c, 0, 87, 38
1, 9883, Note_on_c, 0, 89, 36
1, 9884, Note_on_c, 0, 32, 73
1, 9884, Note_off_c, 0, 37, 64
1, 9884, Note_on_c, 0, 49, 61
1, 9884, Note_on_c, 0, 75, 38
1, 9884, Note_on_c, 0, 82, 39
1, 9884, Note_on_c, 0, 85, 51
1, 9884, Note_off_c, 0, 86, 64
1, 9884, Note_off_c, 0, 88, 64
1, 9885, Note_on_c, 0, 30, 78
1, 9885, Note_off_c, 0, 32, 64
1, 9885, Note_off_c, 0, 71, 64
1, 9885, Note_on_c, 0, 73, 33
1, 9885, Note_on_c, 0, 79, 48
1, 9885, Note_on_c, 0, 84, 26
1, 9885, Note_on_c, 0, 95, 19
1, 9886, Note_on_c, 0, 29, 79
1, 9886, Note_off_c, 0, 30, 64
1, 9886, Note_on_c, 0, 63, 19
1, 9886, Note_on_c, 0, 68, 30
1, 9886, Note_on_c, 0, 77, 40
1, 9886, Note_on_c, 0, 93, 32
1, 9887, Note_off_c, 0, 29, 64
1, 9887, Note_on_c, 0, 30, 77
1, 9887, Note_on_c, 0, 71, 25
1, 9887, Note_off_c, 0, 73, 64
1, 9887, Note_off_c, 0, 80, 64
1, 9887, Note_off_c, 0, 82, 64
1, 9887, Note_on_c, 0, 83, 35
1, 9888, Note_on_c, 0, 73, 31
1, 9888, Note_on_c, 0, 76, 29
1, 9888, Note_off_c, 0, 77, 64
1, 9888, Note_on_c, 0, 78, 44
1, 9888, Note_off_c, 0, 79, 64
1, 9888, Note_on_c, 0, 80, 34
1, 9888, Note_off_c, 0, 84, 64
1, 9888, Note_off_c, 0, 87, 64
1, 9888, Note_off_c, 0, 90, 64
1, 9889, Note_on_c, 0, 29, 74
1, 9889, Note_off_c, 0, 30, 64
1, 9889, Note_off_c, 0, 49, 64
1, 9889, Note_off_c, 0, 63, 64
1, 9889, Note_off_c, 0, 75, 64
1, 9890, Note_on_c, 0, 67, 22
1, 9890, Note_off_c, 0, 68, 64
1, 9890, Note_on_c, 0, 70, 29
1, 9890, Note_off_c, 0, 71, 64
1, 9890, Note_off_c, 0, 73, 64
1, 9891, Note_on_c, 0, 64, 28
1, 9891, Note_on_c, 0, 75, 32
1, 9891, Note_off_c, 0, 76, 64
1, 9891, Note_on_c, 0, 88, 33
1, 9891, Note_off_c, 0, 95, 64
1, 9892, Note_off_c, 0, 29, 64
1, 9892, Note_on_c, 0, 30, 78
1, 9892, Note_off_c, 0, 70, 64
1, 9892, Note_on_c, 0, 71, 34
1, 9892, Note_on_c, 0, 77, 23
1, 9892, Note_off_c, 0, 89, 64
1, 9892, Note_on_c, 0, 94, 24
1, 9893, Note_off_c, 0, 67, 64
1, 9893, Note_on_c, 0, 70, 26
1, 9894, Note_off_c, 0, 71, 64
1, 9894, Note_on_c, 0, 74, 30
1, 9894, Note_off_c, 0, 75, 64
1, 9894, Note_off_c, 0, 78, 64
1, 9894, Note_on_c, 0, 79, 26
1, 9894, Note_on_c, 0, 84, 27
1, 9894, Note_off_c, 0, 92, 64
1, 9895, Note_on_c, 0, 29, 78
1, 9895, Note_off_c, 0, 30, 64
1, 9895, Note_on_c, 0, 61, 23
1, 9895, Note_on_c, 0, 72, 25
1, 9895, Note_off_c, 0, 77, 64
1, 9895, Note_on_c, 0, 90, 10
1, 9895, Note_off_c, 0, 94, 64
1, 9896, Note_on_c, 0, 77, 19
1, 9896, Note_on_c, 0, 81, 33
1, 9896, Note_off_c, 0, 83, 64
1, 9897, Note_off_c, 0, 29, 64
1, 9897, Note_on_c, 0, 30, 75
1, 9897, Note_off_c, 0, 64, 64
1, 9897, Note_off_c, 0, 79, 64
1, 9897, Note_off_c, 0, 84, 64
1, 9897, Note_off_c, 0, 91, 64
1, 9898, Note_off_c, 0, 61, 64
1, 9898, Note_off_c, 0, 72, 64
1, 9898, Note_off_c, 0, 74, 64
1, 9899, Note_off_c, 0, 30, 64
1, 9899, Note_on_c, 0, 33, 71
1, 9899, Note_off_c, 0, 70, 64
1, 9899, Note_off_c, 0, 80, 64
1, 9899, Note_off_c, 0, 81, 64
1, 9899, Note_on_c, 0, 82, 38
1, 9899, Note_off_c, 0, 85, 64
1, 9899, Note_off_c, 0, 90, 64
1, 9900, Note_off_c, 0, 33, 64
1, 9900, Note_on_c, 0, 75, 41
1, 9900, Note_on_c, 0, 78, 36
1, 9900, Note_on_c, 0, 81, 39
1, 9900, Note_on_c, 0, 91, 30
1, 9900, Note_on_c, 0, 95, 20
1, 9900, Note_on_c, 0, 96, 20
1, 9900, Note_on_c, 0, 97, 23
1, 9900, Note_on_c, 0, 101, 18
1, 9901, Note_off_c, 0, 77, 64
1, 9902, Note_on_c, 0, 53, 70
1, 9903, Note_on_c, 0, 48, 84
1, 9903, Note_off_c, 0, 53, 64
1, 9903, Note_off_c, 0, 82, 64
1, 9903, Note_off_c, 0, 91, 64
1, 9903, Note_off_c, 0, 95, 64
1, 9903, Note_off_c, 0, 96, 64
1, 9903, Note_off_c, 0, 97, 64
1, 9903, Note_off_c, 0, 101, 64
1, 9904, Note_on_c, 0, 45, 94
1, 9904, Note_off_c, 0, 48, 64
1, 9904, Note_off_c, 0, 75, 64
1, 9904, Note_off_c, 0, 81, 64
1, 9904, Note_off_c, 0, 93, 64
1, 9905, Note_on_c, 0, 42, 99
1, 9905, Note_off_c, 0, 45, 64
1, 9905, Note_off_c, 0, 78, 64
1, 9906, Note_on_c, 0, 40, 98
1, 9906, Note_off_c, 0, 42, 64
1, 9907, Note_on_c, 0, 38, 98
1, 9907, Note_off_c, 0, 40, 64
1, 9908, Note_on_c, 0, 37, 98
1, 9908, Note_off_c, 0, 38, 64
1, 9908, Note_off_c, 0, 88, 64
1, 9909, Note_on_c, 0, 35, 97
1, 9909, Note_off_c, 0, 37, 64
1, 9910, Note_on_c, 0, 34, 96
1, 9910, Note_off_c, 0, 35, 64
1, 9910, Note_on_c, 0, 80, 13
1, 9911, Note_on_c, 0, 33, 96
1, 9911, Note_off_c, 0, 34, 64
1, 9911, Note_on_c, 0, 84, 23
1, 9911, Note_on_c, 0, 88, 28
1, 9911, Note_on_c, 0, 89, 15
1, 9912, Note_on_c, 0, 85, 33
1, 9913, Note_on_c, 0, 32, 96
1, 9913, Note_off_c, 0, 33, 64
1, 9913, Note_on_c, 0, 82, 14
1, 9913, Note_on_c, 0, 90, 16
1, 9914, Note_on_c, 0, 31, 95
1, 9914, Note_off_c, 0, 32, 64
1, 9914, Note_on_c, 0, 78, 21
1, 9914, Note_on_c, 0, 91, 12
1, 9915, Note_off_c, 0, 84, 64
1, 9915, Note_off_c, 0, 89, 64
1, 9916, Note_off_c, 0, 82, 64
1, 9916, Note_off_c, 0, 90, 64
1, 9917, Note_on_c, 0, 30, 75
1, 9917, Note_off_c, 0, 31, 64
1, 9917, Note_off_c, 0, 88, 64
1, 9917, Note_off_c, 0, 91, 64
1, 9918, Note_off_c, 0, 30, 64
1, 9918, Note_off_c, 0, 78, 64
1, 9918, Note_on_c, 0, 79, 25
1, 9918, Note_on_c, 0, 84, 24
1, 9918, Note_on_c, 0, 88, 29
1, 9918, Note_on_c, 0, 93, 17
1, 9919, Note_on_c, 0, 42, 64
1, 9919, Note_on_c, 0, 83, 34
1, 9920, Note_on_c, 0, 61, 33
1, 9920, Note_on_c, 0, 74, 24
1, 9920, Note_on_c, 0, 77, 22
1, 9920, Note_off_c, 0, 80, 64
1, 9920, Note_on_c, 0, 82, 24
1, 9921, Note_on_c, 0, 32, 71
1, 9921, Note_off_c, 0, 42, 64
1, 9921, Note_on_c, 0, 63, 30
1, 9922, Note_on_c, 0, 30, 79
1, 9922, Note_off_c, 0, 32, 64
1, 9922, Note_off_c, 0, 61, 64
1, 9922, Note_off_c, 0, 79, 64
1, 9922, Note_off_c, 0, 93, 64
1, 9923, Note_on_c, 0, 29, 80
1, 9923, Note_off_c, 0, 30, 64
1, 9923, Note_off_c, 0, 63, 64
1, 9923, Note_on_c, 0, 79, 21
1, 9923, Note_off_c, 0, 85, 64
1, 9923, Note_on_c, 0, 87, 13
1, 9924, Note_on_c, 0, 73, 12
1, 9924, Note_off_c, 0, 74, 64
1, 9924, Note_off_c, 0, 82, 64
1, 9924, Note_off_c, 0, 83, 64
1, 9924, Note_off_c, 0, 84, 64
1, 9925, Note_off_c, 0, 88, 64
1, 9926, Note_off_c, 0, 29, 64
1, 9926, Note_on_c, 0, 30, 74
1, 9926, Note_on_c, 0, 92, 14
1, 9927, Note_on_c, 0, 29, 71
1, 9927, Note_off_c, 0, 30, 64
1, 9927, Note_on_c, 0, 48, 45
1, 9927, Note_off_c, 0, 79, 64
1, 9927, Note_off_c, 0, 87, 64
1, 9928, Note_on_c, 0, 80, 20
1, 9929, Note_off_c, 0, 48, 64
1, 9929, Note_on_c, 0, 61, 38
1, 9929, Note_off_c, 0, 73, 64
1, 9929, Note_on_c, 0, 88, 20
1, 9929, Note_off_c, 0, 92, 64
1, 9930, Note_off_c, 0, 29, 64
1, 9930, Note_on_c, 0, 30, 79
1, 9930, Note_on_c, 0, 68, 33
1, 9930, Note_on_c, 0, 79, 16
1, 9931, Note_on_c, 0, 49, 60
1, 9931, Note_on_c, 0, 71, 17
1, 9932, Note_off_c, 0, 80, 64
1, 9932, Note_off_c, 0, 88, 64
1, 9933, Note_on_c, 0, 29, 80
1, 9933, Note_off_c, 0, 30, 64
1, 9933, Note_off_c, 0, 77, 64
1, 9933, Note_off_c, 0, 79, 64
1, 9934, Note_off_c, 0, 49, 64
1, 9934, Note_off_c, 0, 68, 64
1, 9934, Note_on_c, 0, 77, 14
1, 9934, Note_on_c, 0, 82, 27
1, 9935, Note_off_c, 0, 29, 64
1, 9935, Note_on_c, 0, 30, 75
1, 9935, Note_off_c, 0, 71, 64
1, 9935, Note_on_c, 0, 83, 15
1, 9935, Note_on_c, 0, 85, 31
1, 9937, Note_off_c, 0, 30, 64
1, 9937, Note_on_c, 0, 34, 70
1, 9937, Note_on_c, 0, 88, 33
1, 9937, Note_on_c, 0, 89, 32
1, 9938, Note_off_c, 0, 34, 64
1, 9938, Note_off_c, 0, 61, 64
1, 9938, Note_on_c, 0, 72, 46
1, 9938, Note_on_c, 0, 76, 35
1, 9938, Note_off_c, 0, 77, 64
1, 9938, Note_on_c, 0, 79, 35
1, 9938, Note_off_c, 0, 83, 64
1, 9938, Note_on_c, 0, 87, 32
1, 9938, Note_on_c, 0, 90, 31
1, 9938, Note_on_c, 0, 92, 28
1, 9939, Note_on_c, 0, 74, 35
1, 9939, Note_on_c, 0, 80, 35
1, 9940, Note_on_c, 0, 51, 78
1, 9940, Note_off_c, 0, 85, 64
1, 9940, Note_off_c, 0, 89, 64
1, 9941, Note_on_c, 0, 46, 89
1, 9941, Note_off_c, 0, 51, 64
1, 9941, Note_off_c, 0, 72, 64
1, 9941, Note_off_c, 0, 74, 64
1, 9941, Note_off_c, 0, 76, 64
1, 9941, Note_on_c, 0, 85, 30
1, 9942, Note_on_c, 0, 42, 95
1, 9942, Note_off_c, 0, 46, 64
1, 9942, Note_off_c, 0, 88, 64
1, 9942, Note_on_c, 0, 89, 14
1, 9942, Note_off_c, 0, 90, 64
1, 9943, Note_on_c, 0, 41, 99
1, 9943, Note_off_c, 0, 42, 64
1, 9943, Note_off_c, 0, 82, 64
1, 9943, Note_off_c, 0, 92, 64
1, 9944, Note_on_c, 0, 39, 97
1, 9944, Note_off_c, 0, 41, 64
1, 9944, Note_off_c, 0, 79, 64
1, 9944, Note_off_c, 0, 87, 64
1, 9945, Note_on_c, 0, 37, 98
1, 9945, Note_off_c, 0, 39, 64
1, 9945, Note_on_c, 0, 78, 22
1, 9945, Note_off_c, 0, 89, 64
1, 9946, Note_on_c, 0, 36, 97
1, 9946, Note_off_c, 0, 37, 64
1, 9946, Note_on_c, 0, 84, 20
1, 9946, Note_on_c, 0, 88, 15
1, 9947, Note_on_c, 0, 35, 96
1, 9947, Note_off_c, 0, 36, 64
1, 9948, Note_on_c, 0, 34, 96
1, 9948, Note_off_c, 0, 35, 64
1, 9948, Note_on_c, 0, 73, 26
1, 9948, Note_on_c, 0, 82, 19
1, 9949, Note_on_c, 0, 33, 95
1, 9949, Note_off_c, 0, 34, 64
1, 9949, Note_on_c, 0, 83, 27
1, 9949, Note_off_c, 0, 84, 64
1, 9950, Note_on_c, 0, 32, 96
1, 9950, Note_off_c, 0, 33, 64
1, 9952, Note_on_c, 0, 31, 93
1, 9952, Note_off_c, 0, 32, 64
1, 9952, Note_off_c, 0, 83, 64
1, 9952, Note_off_c, 0, 88, 64
1, 9953, Note_off_c, 0, 80, 64
1, 9953, Note_off_c, 0, 85, 64
1, 9954, Note_on_c, 0, 30, 80
1, 9954, Note_off_c, 0, 31, 64
1, 9955, Note_off_c, 0, 78, 64
1, 9956, Note_off_c, 0, 82, 64
1, 9957, Note_off_c, 0, 30, 64
1, 9957, Note_on_c, 0, 80, 12
1, 9957, Note_on_c, 0, 83, 20
1, 9957, Note_on_c, 0, 84, 12
1, 9957, Note_on_c, 0, 87, 16
1, 9958, Note_on_c, 0, 36, 71
1, 9958, Note_on_c, 0, 61, 31
1, 9958, Note_on_c, 0, 64, 31
1, 9958, Note_on_c, 0, 68, 20
1, 9959, Note_on_c, 0, 31, 77
1, 9959, Note_off_c, 0, 36, 64
1, 9959, Note_on_c, 0, 49, 60
1, 9959, Note_on_c, 0, 70, 13
1, 9959, Note_on_c, 0, 78, 24
1, 9959, Note_on_c, 0, 88, 14
1, 9960, Note_on_c, 0, 30, 80
1, 9960, Note_off_c, 0, 31, 64
1, 9960, Note_off_c, 0, 73, 64
1, 9960, Note_off_c, 0, 80, 64
1, 9960, Note_off_c, 0, 87, 64
1, 9961, Note_on_c, 0, 29, 80
1, 9961, Note_off_c, 0, 30, 64
1, 9961, Note_off_c, 0, 64, 64
1, 9962, Note_off_c, 0, 29, 64
1, 9962, Note_on_c, 0, 30, 77
1, 9962, Note_off_c, 0, 49, 64
1, 9962, Note_off_c, 0, 70, 64
1, 9962, Note_on_c, 0, 82, 12
1, 9962, Note_off_c, 0, 83, 64
1, 9962, Note_off_c, 0, 84, 64
1, 9963, Note_off_c, 0, 88, 64
1, 9964, Note_on_c, 0, 29, 73
1, 9964, Note_off_c, 0, 30, 64
1, 9964, Note_on_c, 0, 48, 49
1, 9964, Note_off_c, 0, 68, 64
1, 9966, Note_off_c, 0, 48, 64
1, 9966, Note_off_c, 0, 61, 64
1, 9966, Note_off_c, 0, 78, 64
1, 9966, Note_on_c, 0, 81, 16
1, 9966, Note_off_c, 0, 82, 64
1, 9967, Note_off_c, 0, 29, 64
1, 9967, Note_on_c, 0, 30, 79
1, 9967, Note_on_c, 0, 74, 16
1, 9967, Note_on_c, 0, 83, 22
1, 9967, Note_on_c, 0, 85, 15
1, 9967, Note_on_c, 0, 87, 18
1, 9967, Note_on_c, 0, 88, 20
1, 9967, Note_on_c, 0, 89, 13
1, 9967, Note_on_c, 0, 91, 14
1, 9968, Note_on_c, 0, 68, 21
1, 9969, Note_on_c, 0, 49, 62
1, 9969, Note_on_c, 0, 63, 24
1, 9969, Note_on_c, 0, 77, 16
1, 9970, Note_off_c, 0, 74, 64
1, 9971, Note_on_c, 0, 29, 77
1, 9971, Note_off_c, 0, 30, 64
1, 9971, Note_on_c, 0, 86, 39
1, 9971, Note_off_c, 0, 87, 64
1, 9971, Note_off_c, 0, 88, 64
1, 9971, Note_off_c, 0, 89, 64
1, 9971, Note_off_c, 0, 91, 64
1, 9972, Note_off_c, 0, 29, 64
1, 9972, Note_on_c, 0, 30, 74
1, 9972, Note_off_c, 0, 63, 64
1, 9972, Note_off_c, 0, 68, 64
1, 9972, Note_off_c, 0, 81, 64
1, 9972, Note_off_c, 0, 85, 64
1, 9973, Note_off_c, 0, 49, 64
1, 9973, Note_on_c, 0, 80, 27
1, 9973, Note_off_c, 0, 83, 64
1, 9974, Note_off_c, 0, 30, 64
1, 9974, Note_on_c, 0, 34, 72
1, 9974, Note_on_c, 0, 47, 48
1, 9974, Note_off_c, 0, 77, 64
1, 9974, Note_on_c, 0, 85, 30
1, 9975, Note_off_c, 0, 34, 64
1, 9975, Note_on_c, 0, 64, 52
1, 9975, Note_on_c, 0, 69, 44
1, 9975, Note_on_c, 0, 78, 40
1, 9975, Note_on_c, 0, 83, 27
1, 9975, Note_on_c, 0, 87, 32
1, 9975, Note_on_c, 0, 89, 27
1, 9975, Note_on_c, 0, 94, 23
1, 9975, Note_on_c, 0, 95, 27
1, 9975, Note_on_c, 0, 100, 19
1, 9976, Note_off_c, 0, 47, 64
1, 9976, Note_off_c, 0, 80, 64
1, 9976, Note_off_c, 0, 85, 64
1, 9977, Note_on_c, 0, 53, 70
1, 9978, Note_on_c, 0, 48, 83
1, 9978, Note_off_c, 0, 53, 64
1, 9978, Note_off_c, 0, 69, 64
1, 9978, Note_on_c, 0, 79, 10
1, 9978, Note_off_c, 0, 89, 64
1, 9978, Note_off_c, 0, 94, 64
1, 9978, Note_off_c, 0, 95, 64
1, 9978, Note_off_c, 0, 100, 64
1, 9979, Note_on_c, 0, 45, 94
1, 9979, Note_off_c, 0, 48, 64
1, 9979, Note_on_c, 0, 85, 10
1, 9979, Note_off_c, 0, 86, 64
1, 9979, Note_off_c, 0, 87, 64
1, 9980, Note_on_c, 0, 42, 99
1, 9980, Note_off_c, 0, 45, 64
1, 9980, Note_off_c, 0, 78, 64
1, 9980, Note_off_c, 0, 83, 64
1, 9981, Note_on_c, 0, 40, 98
1, 9981, Note_off_c, 0, 42, 64
1, 9981, Note_off_c, 0, 64, 64
1, 9982, Note_on_c, 0, 38, 98
1, 9982, Note_off_c, 0, 40, 64
1, 9982, Note_off_c, 0, 85, 64
1, 9983, Note_on_c, 0, 37, 98
1, 9983, Note_off_c, 0, 38, 64
1, 9984, Note_on_c, 0, 35, 96
1, 9984, Note_off_c, 0, 37, 64
1, 9985, Note_on_c, 0, 34, 95
1, 9985, Note_off_c, 0, 35, 64
1, 9985, Note_off_c, 0, 79, 64
1, 9986, Note_on_c, 0, 33, 95
1, 9986, Note_off_c, 0, 34, 64
1, 9986, Note_on_c, 0, 48, 38
1, 9987, Note_on_c, 0, 32, 96
1, 9987, Note_off_c, 0, 33, 64
1, 9988, Note_off_c, 0, 48, 64
1, 9989, Note_on_c, 0, 31, 94
1, 9989, Note_off_c, 0, 32, 64
1, 9992, Note_on_c, 0, 30, 74
1, 9992, Note_off_c, 0, 31, 64
1, 9993, Note_on_c, 0, 82, 20
1, 9994, Note_off_c, 0, 30, 64
1, 9994, Note_on_c, 0, 83, 19
1, 9994, Note_on_c, 0, 86, 18
1, 9995, Note_on_c, 0, 42, 67
1, 9995, Note_on_c, 0, 80, 34
1, 9995, Note_on_c, 0, 85, 30
1, 9995, Note_on_c, 0, 89, 23
1, 9995, Note_on_c, 0, 90, 30
1, 9995, Note_on_c, 0, 91, 11
1, 9996, Note_on_c, 0, 32, 70
1, 9996, Note_off_c, 0, 42, 64
1, 9996, Note_on_c, 0, 61, 34
1, 9996, Note_on_c, 0, 68, 38
1, 9996, Note_on_c, 0, 75, 30
1, 9996, Note_off_c, 0, 82, 64
1, 9997, Note_on_c, 0, 31, 78
1, 9997, Note_off_c, 0, 32, 64
1, 9997, Note_on_c, 0, 49, 57
1, 9997, Note_on_c, 0, 78, 29
1, 9997, Note_off_c, 0, 86, 64
1, 9998, Note_on_c, 0, 29, 80
1, 9998, Note_off_c, 0, 31, 64
1, 9998, Note_on_c, 0, 58, 40
1, 9998, Note_on_c, 0, 76, 26
1, 9998, Note_off_c, 0, 91, 64
1, 9999, Note_off_c, 0, 49, 64
1, 9999, Note_off_c, 0, 75, 64
1, 10000, Note_off_c, 0, 29, 64
1, 10000, Note_on_c, 0, 30, 74
1, 10000, Note_on_c, 0, 66, 22
1, 10000, Note_on_c, 0, 74, 27
1, 10000, Note_off_c, 0, 83, 64
1, 10000, Note_on_c, 0, 88, 29
1, 10001, Note_off_c, 0, 58, 64
1, 10001, Note_on_c, 0, 83, 22
1, 10002, Note_on_c, 0, 29, 73
1, 10002, Note_off_c, 0, 30, 64
1, 10002, Note_off_c, 0, 89, 64
1, 10003, Note_off_c, 0, 66, 64
1, 10003, Note_off_c, 0, 76, 64
1, 10003, Note_on_c, 0, 89, 21
1, 10004, Note_off_c, 0, 61, 64
1, 10004, Note_on_c, 0, 64, 29
1, 10004, Note_off_c, 0, 68, 64
1, 10004, Note_on_c, 0, 69, 35
1, 10004, Note_on_c, 0, 82, 31
1, 10004, Note_off_c, 0, 85, 64
1, 10005, Note_off_c, 0, 29, 64
1, 10005, Note_on_c, 0, 30, 78
1, 10005, Note_on_c, 0, 58, 40
1, 10005, Note_on_c, 0, 68, 33
1, 10006, Note_on_c, 0, 49, 61
1, 10006, Note_off_c, 0, 69, 64
1, 10006, Note_on_c, 0, 71, 26
1, 10006, Note_on_c, 0, 91, 9
1, 10007, Note_off_c, 0, 58, 64
1, 10007, Note_on_c, 0, 84, 23
1, 10007, Note_off_c, 0, 89, 64
1, 10008, Note_on_c, 0, 29, 79
1, 10008, Note_off_c, 0, 30, 64
1, 10008, Note_off_c, 0, 64, 64
1, 10008, Note_off_c, 0, 74, 64
1, 10009, Note_off_c, 0, 29, 64
1, 10009, Note_on_c, 0, 30, 77
1, 10009, Note_off_c, 0, 49, 64
1, 10009, Note_on_c, 0, 64, 41
1, 10009, Note_on_c, 0, 74, 35
1, 10009, Note_on_c, 0, 77, 38
1, 10009, Note_on_c, 0, 85, 21
1, 10009, Note_off_c, 0, 91, 64
1, 10010, Note_off_c, 0, 71, 64
1, 10010, Note_off_c, 0, 83, 64
1, 10010, Note_on_c, 0, 103, 14
1, 10011, Note_off_c, 0, 30, 64
1, 10011, Note_on_c, 0, 31, 71
1, 10011, Note_off_c, 0, 78, 64
1, 10011, Note_off_c, 0, 84, 64
1, 10012, Note_off_c, 0, 31, 64
1, 10012, Note_on_c, 0, 34, 70
1, 10012, Note_off_c, 0, 68, 64
1, 10012, Note_on_c, 0, 83, 28
1, 10012, Note_on_c, 0, 87, 36
1, 10012, Note_on_c, 0, 93, 28
1, 10013, Note_off_c, 0, 34, 64
1, 10013, Note_on_c, 0, 70, 47
1, 10013, Note_on_c, 0, 78, 38
1, 10013, Note_off_c, 0, 80, 64
1, 10013, Note_on_c, 0, 81, 44
1, 10013, Note_off_c, 0, 82, 64
1, 10013, Note_on_c, 0, 84, 38
1, 10013, Note_off_c, 0, 85, 64
1, 10013, Note_off_c, 0, 88, 64
1, 10014, Note_off_c, 0, 64, 64
1, 10014, Note_off_c, 0, 77, 64
1, 10014, Note_off_c, 0, 90, 64
1, 10015, Note_on_c, 0, 50, 78
1, 10015, Note_off_c, 0, 70, 64
1, 10015, Note_off_c, 0, 74, 64
1, 10015, Note_off_c, 0, 81, 64
1, 10015, Note_off_c, 0, 83, 64
1, 10015, Note_off_c, 0, 84, 64
1, 10015, Note_off_c, 0, 93, 64
1, 10015, Note_off_c, 0, 103, 64
1, 10016, Note_on_c, 0, 45, 90
1, 10016, Note_off_c, 0, 50, 64
1, 10016, Note_off_c, 0, 87, 64
1, 10017, Note_on_c, 0, 42, 96
1, 10017, Note_off_c, 0, 45, 64
1, 10017, Note_off_c, 0, 78, 64
1, 10018, Note_on_c, 0, 41, 99
1, 10018, Note_off_c, 0, 42, 64
1, 10019, Note_on_c, 0, 39, 97
1, 10019, Note_off_c, 0, 41, 64
1, 10020, Note_on_c, 0, 37, 98
1, 10020, Note_off_c, 0, 39, 64
1, 10021, Note_on_c, 0, 36, 97
1, 10021, Note_off_c, 0, 37, 64
1, 10022, Note_on_c, 0, 35, 96
1, 10022, Note_off_c, 0, 36, 64
1, 10023, Note_on_c, 0, 34, 96
1, 10023, Note_off_c, 0, 35, 64
1, 10023, Note_on_c, 0, 70, 11
1, 10024, Note_on_c, 0, 33, 95
1, 10024, Note_off_c, 0, 34, 64
1, 10025, Note_on_c, 0, 32, 96
1, 10025, Note_off_c, 0, 33, 64
1, 10025, Note_on_c, 0, 81, 11
1, 10025, Note_on_c, 0, 85, 34
1, 10026, Note_on_c, 0, 31, 95
1, 10026, Note_off_c, 0, 32, 64
1, 10029, Note_on_c, 0, 30, 80
1, 10029, Note_off_c, 0, 31, 64
1, 10029, Note_off_c, 0, 81, 64
1, 10029, Note_on_c, 0, 90, 20
1, 10030, Note_off_c, 0, 70, 64
1, 10031, Note_off_c, 0, 30, 64
1, 10031, Note_on_c, 0, 84, 33
1, 10031, Note_on_c, 0, 89, 9
1, 10032, Note_on_c, 0, 70, 22
1, 10032, Note_on_c, 0, 83, 29
1, 10032, Note_on_c, 0, 88, 19
1, 10033, Note_on_c, 0, 36, 70
1, 10033, Note_on_c, 0, 61, 27
1, 10033, Note_on_c, 0, 77, 12
1, 10033, Note_on_c, 0, 93, 13
1, 10034, Note_on_c, 0, 31, 76
1, 10034, Note_off_c, 0, 36, 64
1, 10035, Note_on_c, 0, 30, 80
1, 10035, Note_off_c, 0, 31, 64
1, 10035, Note_on_c, 0, 75, 20
1, 10035, Note_on_c, 0, 79, 16
1, 10035, Note_off_c, 0, 83, 64
1, 10035, Note_off_c, 0, 84, 64
1, 10036, Note_on_c, 0, 29, 79
1, 10036, Note_off_c, 0, 30, 64
1, 10036, Note_on_c, 0, 49, 54
1, 10036, Note_off_c, 0, 77, 64
1, 10036, Note_off_c, 0, 88, 64
1, 10036, Note_off_c, 0, 90, 64
1, 10037, Note_off_c, 0, 61, 64
1, 10037, Note_off_c, 0, 70, 64
1, 10037, Note_off_c, 0, 89, 64
1, 10037, Note_off_c, 0, 93, 64
1, 10038, Note_off_c, 0, 29, 64
1, 10038, Note_on_c, 0, 30, 76
1, 10038, Note_off_c, 0, 75, 64
1, 10038, Note_off_c, 0, 85, 64
1, 10039, Note_off_c, 0, 49, 64
1, 10039, Note_on_c, 0, 88, 12
1, 10040, Note_on_c, 0, 29, 74
1, 10040, Note_off_c, 0, 30, 64
1, 10040, Note_off_c, 0, 79, 64
1, 10040, Note_on_c, 0, 81, 19
1, 10041, Note_on_c, 0, 63, 30
1, 10042, Note_on_c, 0, 42, 67
1, 10042, Note_on_c, 0, 70, 24
1, 10042, Note_on_c, 0, 86, 15
1, 10043, Note_off_c, 0, 29, 64
1, 10043, Note_on_c, 0, 30, 79
1, 10043, Note_off_c, 0, 42, 64
1, 10043, Note_off_c, 0, 88, 64
1, 10044, Note_off_c, 0, 63, 64
1, 10044, Note_off_c, 0, 81, 64
1, 10046, Note_on_c, 0, 49, 58
1, 10046, Note_off_c, 0, 70, 64
1, 10046, Note_off_c, 0, 86, 64
1, 10048, Note_off_c, 0, 49, 64
1, 10049, Note_off_c, 0, 30, 64
1, 10049, Note_on_c, 0, 34, 72
1, 10050, Note_on_c, 0, 71, 42
1, 10050, Note_on_c, 0, 81, 34
1, 10050, Note_on_c, 0, 82, 30
1, 10050, Note_on_c, 0, 86, 28
1, 10050, Note_on_c, 0, 87, 25
1, 10050, Note_on_c, 0, 88, 24
1, 10050, Note_on_c, 0, 89, 26
1, 10050, Note_on_c, 0, 91, 20
1, 10051, Note_off_c, 0, 34, 64
1, 10051, Note_on_c, 0, 79, 38
1, 10051, Note_on_c, 0, 84, 28
1, 10052, Note_on_c, 0, 51, 72
1, 10052, Note_on_c, 0, 62, 48
1, 10052, Note_off_c, 0, 71, 64
1, 10053, Note_on_c, 0, 48, 85
1, 10053, Note_off_c, 0, 51, 64
1, 10053, Note_off_c, 0, 79, 64
1, 10053, Note_off_c, 0, 82, 64
1, 10053, Note_off_c, 0, 88, 64
1, 10053, Note_off_c, 0, 89, 64
1, 10053, Note_off_c, 0, 91, 64
1, 10054, Note_on_c, 0, 45, 94
1, 10054, Note_off_c, 0, 48, 64
1, 10054, Note_off_c, 0, 86, 64
1, 10055, Note_on_c, 0, 42, 99
1, 10055, Note_off_c, 0, 45, 64
1, 10055, Note_off_c, 0, 62, 64
1, 10055, Note_off_c, 0, 84, 64
1, 10055, Note_off_c, 0, 87, 64
1, 10056, Note_on_c, 0, 40, 97
1, 10056, Note_off_c, 0, 42, 64
1, 10056, Note_off_c, 0, 81, 64
1, 10057, Note_on_c, 0, 38, 98
1, 10057, Note_off_c, 0, 40, 64
1, 10058, Note_on_c, 0, 36, 97
1, 10058, Note_off_c, 0, 38, 64
1, 10059, Note_on_c, 0, 35, 96
1, 10059, Note_off_c, 0, 36, 64
1, 10060, Note_on_c, 0, 34, 95
1, 10060, Note_off_c, 0, 35, 64
1, 10060, Note_on_c, 0, 85, 21
1, 10060, Note_on_c, 0, 90, 13
1, 10061, Note_on_c, 0, 33, 96
1, 10061, Note_off_c, 0, 34, 64
1, 10062, Note_on_c, 0, 32, 96
1, 10062, Note_off_c, 0, 33, 64
1, 10064, Note_on_c, 0, 31, 94
1, 10064, Note_off_c, 0, 32, 64
1, 10064, Note_on_c, 0, 84, 9
1, 10064, Note_off_c, 0, 85, 64
1, 10064, Note_off_c, 0, 90, 64
1, 10066, Note_on_c, 0, 30, 85
1, 10066, Note_off_c, 0, 31, 64
1, 10069, Note_off_c, 0, 30, 64
1, 10069, Note_on_c, 0, 42, 66
1, 10069, Note_on_c, 0, 83, 13
1, 10070, Note_off_c, 0, 84, 64
1, 10071, Note_on_c, 0, 31, 72
1, 10071, Note_off_c, 0, 42, 64
1, 10071, Note_on_c, 0, 68, 18
1, 10071, Note_on_c, 0, 71, 22
1, 10072, Note_on_c, 0, 30, 79
1, 10072, Note_off_c, 0, 31, 64
1, 10073, Note_on_c, 0, 29, 80
1, 10073, Note_off_c, 0, 30, 64
1, 10073, Note_on_c, 0, 63, 23
1, 10074, Note_off_c, 0, 29, 64
1, 10074, Note_on_c, 0, 30, 77
1, 10076, Note_off_c, 0, 68, 64
1, 10076, Note_off_c, 0, 71, 64
1, 10076, Note_off_c, 0, 83, 64
1, 10077, Note_on_c, 0, 29, 73
1, 10077, Note_off_c, 0, 30, 64
1, 10077, Note_off_c, 0, 63, 64
1, 10079, Note_on_c, 0, 71, 22
1, 10080, Note_off_c, 0, 29, 64
1, 10080, Note_on_c, 0, 30, 74
1, 10080, Note_on_c, 0, 54, 50
1, 10080, Note_on_c, 0, 61, 31
1, 10080, Note_on_c, 0, 68, 14
1, 10080, Note_on_c, 0, 81, 10
1, 10080, Note_on_c, 0, 84, 20
1, 10081, Note_off_c, 0, 30, 64
1, 10081, Note_on_c, 0, 31, 78
1, 10081, Note_on_c, 0, 49, 59
1, 10081, Note_on_c, 0, 63, 28
1, 10082, Note_on_c, 0, 30, 79
1, 10082, Note_off_c, 0, 31, 64
1, 10082, Note_off_c, 0, 54, 64
1, 10082, Note_on_c, 0, 70, 12
1, 10083, Note_on_c, 0, 29, 79
1, 10083, Note_off_c, 0, 30, 64
1, 10083, Note_off_c, 0, 61, 64
1, 10083, Note_on_c, 0, 78, 10
1, 10083, Note_off_c, 0, 81, 64
1, 10083, Note_off_c, 0, 84, 64
1, 10084, Note_off_c, 0, 49, 64
1, 10084, Note_off_c, 0, 63, 64
1, 10084, Note_off_c, 0, 68, 64
1, 10084, Note_off_c, 0, 71, 64
1, 10085, Note_off_c, 0, 29, 64
1, 10085, Note_on_c, 0, 30, 75
1, 10085, Note_off_c, 0, 70, 64
1, 10086, Note_off_c, 0, 30, 64
1, 10086, Note_on_c, 0, 31, 72
1, 10086, Note_off_c, 0, 78, 64
1, 10087, Note_off_c, 0, 31, 64
1, 10087, Note_on_c, 0, 34, 70
1, 10087, Note_on_c, 0, 79, 36
1, 10087, Note_on_c, 0, 80, 37
1, 10087, Note_on_c, 0, 83, 33
1, 10087, Note_on_c, 0, 85, 39
1, 10087, Note_on_c, 0, 88, 32
1, 10087, Note_on_c, 0, 102, 20
1, 10088, Note_off_c, 0, 34, 64
1, 10088, Note_on_c, 0, 66, 48
1, 10088, Note_on_c, 0, 86, 31
1, 10088, Note_on_c, 0, 94, 31
1, 10088, Note_on_c, 0, 96, 24
1, 10089, Note_on_c, 0, 55, 65
1, 10089, Note_on_c, 0, 72, 41
1, 10089, Note_on_c, 0, 76, 36
1, 10089, Note_off_c, 0, 79, 64
1, 10089, Note_on_c, 0, 82, 31
1, 10089, Note_on_c, 0, 89, 25
1, 10089, Note_on_c, 0, 93, 10
1, 10090, Note_on_c, 0, 49, 79
1, 10090, Note_off_c, 0, 55, 64
1, 10090, Note_off_c, 0, 83, 64
1, 10090, Note_off_c, 0, 86, 64
1, 10090, Note_off_c, 0, 102, 64
1, 10091, Note_on_c, 0, 45, 91
1, 10091, Note_off_c, 0, 49, 64
1, 10091, Note_off_c, 0, 66, 64
1, 10091, Note_off_c, 0, 72, 64
1, 10091, Note_off_c, 0, 76, 64
1, 10091, Note_off_c, 0, 85, 64
1, 10091, Note_on_c, 0, 86, 14
1, 10092, Note_on_c, 0, 42, 97
1, 10092, Note_off_c, 0, 45, 64
1, 10092, Note_off_c, 0, 82, 64
1, 10092, Note_off_c, 0, 88, 64
1, 10092, Note_off_c, 0, 93, 64
1, 10092, Note_off_c, 0, 96, 64
1, 10093, Note_on_c, 0, 41, 99
1, 10093, Note_off_c, 0, 42, 64
1, 10093, Note_off_c, 0, 94, 64
1, 10094, Note_on_c, 0, 38, 97
1, 10094, Note_off_c, 0, 41, 64
1, 10094, Note_off_c, 0, 86, 64
1, 10094, Note_off_c, 0, 89, 64
1, 10095, Note_on_c, 0, 37, 98
1, 10095, Note_off_c, 0, 38, 64
1, 10095, Note_off_c, 0, 80, 64
1, 10096, Note_on_c, 0, 36, 97
1, 10096, Note_off_c, 0, 37, 64
1, 10097, Note_on_c, 0, 35, 96
1, 10097, Note_off_c, 0, 36, 64
1, 10098, Note_on_c, 0, 34, 96
1, 10098, Note_off_c, 0, 35, 64
1, 10099, Note_on_c, 0, 33, 96
1, 10099, Note_off_c, 0, 34, 64
1, 10100, Note_on_c, 0, 32, 97
1, 10100, Note_off_c, 0, 33, 64
1, 10101, Note_on_c, 0, 31, 96
1, 10101, Note_off_c, 0, 32, 64
1, 10104, Note_on_c, 0, 30, 80
1, 10104, Note_off_c, 0, 31, 64
1, 10106, Note_off_c, 0, 30, 64
1, 10107, Note_on_c, 0, 66, 17
1, 10108, Note_on_c, 0, 36, 70
1, 10108, Note_on_c, 0, 61, 31
1, 10108, Note_on_c, 0, 64, 27
1, 10108, Note_on_c, 0, 68, 19
1, 10109, Note_on_c, 0, 31, 77
1, 10109, Note_off_c, 0, 36, 64
1, 10109, Note_on_c, 0, 49, 60
1, 10109, Note_on_c, 0, 70, 19
1, 10110, Note_on_c, 0, 30, 80
1, 10110, Note_off_c, 0, 31, 64
1, 10110, Note_on_c, 0, 72, 16
1, 10111, Note_on_c, 0, 29, 79
1, 10111, Note_off_c, 0, 30, 64
1, 10111, Note_off_c, 0, 64, 64
1, 10111, Note_off_c, 0, 66, 64
1, 10112, Note_off_c, 0, 49, 64
1, 10112, Note_off_c, 0, 61, 64
1, 10112, Note_off_c, 0, 70, 64
1, 10113, Note_off_c, 0, 29, 64
1, 10113, Note_on_c, 0, 30, 75
1, 10113, Note_off_c, 0, 68, 64
1, 10113, Note_off_c, 0, 72, 64
1, 10115, Note_on_c, 0, 29, 73
1, 10115, Note_off_c, 0, 30, 64
1, 10117, Note_off_c, 0, 29, 64
1, 10117, Note_on_c, 0, 30, 73
1, 10117, Note_on_c, 0, 61, 31
1, 10117, Note_on_c, 0, 79, 14
1, 10117, Note_on_c, 0, 85, 21
1, 10117, Note_on_c, 0, 88, 11
1, 10118, Note_off_c, 0, 30, 64
1, 10118, Note_on_c, 0, 31, 76
1, 10118, Note_on_c, 0, 68, 15
1, 10119, Note_on_c, 0, 30, 80
1, 10119, Note_off_c, 0, 31, 64
1, 10120, Note_on_c, 0, 29, 80
1, 10120, Note_off_c, 0, 30, 64
1, 10120, Note_on_c, 0, 63, 26
1, 10120, Note_off_c, 0, 79, 64
1, 10121, Note_off_c, 0, 29, 64
1, 10121, Note_on_c, 0, 30, 79
1, 10121, Note_off_c, 0, 85, 64
1, 10121, Note_off_c, 0, 88, 64
1, 10122, Note_off_c, 0, 61, 64
1, 10122, Note_off_c, 0, 68, 64
1, 10124, Note_off_c, 0, 30, 64
1, 10124, Note_on_c, 0, 34, 72
1, 10124, Note_off_c, 0, 63, 64
1, 10125, Note_on_c, 0, 80, 37
1, 10125, Note_on_c, 0, 84, 31
1, 10125, Note_on_c, 0, 89, 27
1, 10125, Note_on_c, 0, 90, 26
1, 10126, Note_off_c, 0, 34, 64
1, 10127, Note_on_c, 0, 51, 73
1, 10127, Note_on_c, 0, 62, 47
1, 10128, Note_on_c, 0, 48, 85
1, 10128, Note_off_c, 0, 51, 64
1, 10128, Note_off_c, 0, 80, 64
1, 10128, Note_off_c, 0, 84, 64
1, 10128, Note_off_c, 0, 89, 64
1, 10128, Note_off_c, 0, 90, 64
1, 10129, Note_on_c, 0, 45, 94
1, 10129, Note_off_c, 0, 48, 64
1, 10129, Note_off_c, 0, 62, 64
1, 10130, Note_on_c, 0, 42, 100
1, 10130, Note_off_c, 0, 45, 64
1, 10131, Note_on_c, 0, 40, 97
1, 10131, Note_off_c, 0, 42, 64
1, 10132, Note_on_c, 0, 38, 98
1, 10132, Note_off_c, 0, 40, 64
1, 10133, Note_on_c, 0, 36, 98
1, 10133, Note_off_c, 0, 38, 64
1, 10134, Note_on_c, 0, 35, 97
1, 10134, Note_off_c, 0, 36, 64
1, 10135, Note_on_c, 0, 34, 96
1, 10135, Note_off_c, 0, 35, 64
1, 10136, Note_on_c, 0, 33, 96
1, 10136, Note_off_c, 0, 34, 64
1, 10137, Note_on_c, 0, 32, 97
1, 10137, Note_off_c, 0, 33, 64
1, 10138, Note_on_c, 0, 48, 29
1, 10139, Note_on_c, 0, 31, 95
1, 10139, Note_off_c, 0, 32, 64
1, 10140, Note_off_c, 0, 48, 64
1, 10141, Note_on_c, 0, 30, 84
1, 10141, Note_off_c, 0, 31, 64
1, 10144, Note_off_c, 0, 30, 64
1, 10144, Note_on_c, 0, 85, 29
1, 10145, Note_on_c, 0, 37, 67
1, 10145, Note_on_c, 0, 70, 17
1, 10145, Note_on_c, 0, 79, 14
1, 10145, Note_on_c, 0, 88, 10
1, 10146, Note_on_c, 0, 31, 73
1, 10146, Note_off_c, 0, 37, 64
1, 10146, Note_on_c, 0, 61, 30
1, 10146, Note_on_c, 0, 68, 14
1, 10146, Note_on_c, 0, 84, 12
1, 10147, Note_on_c, 0, 30, 80
1, 10147, Note_off_c, 0, 31, 64
1, 10148, Note_on_c, 0, 29, 80
1, 10148, Note_off_c, 0, 30, 64
1, 10148, Note_on_c, 0, 63, 26
1, 10148, Note_off_c, 0, 79, 64
1, 10148, Note_off_c, 0, 88, 64
1, 10149, Note_off_c, 0, 61, 64
1, 10149, Note_off_c, 0, 70, 64
1, 10149, Note_off_c, 0, 84, 64
1, 10150, Note_off_c, 0, 85, 64
1, 10151, Note_off_c, 0, 29, 64
1, 10151, Note_on_c, 0, 30, 75
1, 10151, Note_off_c, 0, 68, 64
1, 10152, Note_on_c, 0, 29, 74
1, 10152, Note_off_c, 0, 30, 64
1, 10152, Note_off_c, 0, 63, 64
1, 10154, Note_on_c, 0, 68, 19
1, 10154, Note_on_c, 0, 89, 13
1, 10155, Note_off_c, 0, 29, 64
1, 10155, Note_on_c, 0, 30, 74
1, 10155, Note_on_c, 0, 54, 53
1, 10155, Note_on_c, 0, 61, 32
1, 10155, Note_on_c, 0, 64, 28
1, 10155, Note_on_c, 0, 77, 12
1, 10155, Note_on_c, 0, 85, 18
1, 10156, Note_off_c, 0, 30, 64
1, 10156, Note_on_c, 0, 31, 78
1, 10157, Note_on_c, 0, 30, 80
1, 10157, Note_off_c, 0, 31, 64
1, 10157, Note_off_c, 0, 54, 64
1, 10157, Note_on_c, 0, 71, 12
1, 10157, Note_off_c, 0, 89, 64
1, 10158, Note_on_c, 0, 29, 80
1, 10158, Note_off_c, 0, 30, 64
1, 10158, Note_on_c, 0, 63, 24
1, 10158, Note_off_c, 0, 64, 64
1, 10158, Note_off_c, 0, 77, 64
1, 10158, Note_off_c, 0, 85, 64
1, 10159, Note_off_c, 0, 29, 64
1, 10159, Note_on_c, 0, 30, 77
1, 10160, Note_off_c, 0, 68, 64
1, 10160, Note_off_c, 0, 71, 64
1, 10161, Note_off_c, 0, 30, 64
1, 10161, Note_on_c, 0, 32, 72
1, 10161, Note_off_c, 0, 61, 64
1, 10162, Note_off_c, 0, 32, 64
1, 10162, Note_on_c, 0, 34, 69
1, 10162, Note_off_c, 0, 63, 64
1, 10162, Note_on_c, 0, 73, 38
1, 10162, Note_on_c, 0, 79, 36
1, 10162, Note_on_c, 0, 82, 33
1, 10162, Note_on_c, 0, 84, 34
1, 10162, Note_on_c, 0, 86, 31
1, 10162, Note_on_c, 0, 93, 26
1, 10163, Note_off_c, 0, 34, 64
1, 10164, Note_on_c, 0, 55, 65
1, 10164, Note_on_c, 0, 72, 36
1, 10164, Note_off_c, 0, 73, 64
1, 10164, Note_off_c, 0, 79, 64
1, 10165, Note_on_c, 0, 48, 80
1, 10165, Note_off_c, 0, 55, 64
1, 10165, Note_off_c, 0, 82, 64
1, 10165, Note_off_c, 0, 84, 64
1, 10165, Note_off_c, 0, 86, 64
1, 10165, Note_off_c, 0, 93, 64
1, 10166, Note_on_c, 0, 45, 92
1, 10166, Note_off_c, 0, 48, 64
1, 10166, Note_off_c, 0, 72, 64
1, 10167, Note_on_c, 0, 42, 98
1, 10167, Note_off_c, 0, 45, 64
1, 10168, Note_on_c, 0, 41, 99
1, 10168, Note_off_c, 0, 42, 64
1, 10169, Note_on_c, 0, 38, 98
1, 10169, Note_off_c, 0, 41, 64
1, 10170, Note_on_c, 0, 37, 98
1, 10170, Note_off_c, 0, 38, 64
1, 10171, Note_on_c, 0, 36, 97
1, 10171, Note_off_c, 0, 37, 64
1, 10172, Note_on_c, 0, 34, 96
1, 10172, Note_off_c, 0, 36, 64
1, 10174, Note_on_c, 0, 33, 96
1, 10174, Note_off_c, 0, 34, 64
1, 10175, Note_on_c, 0, 32, 97
1, 10175, Note_off_c, 0, 33, 64
1, 10176, Note_on_c, 0, 31, 96
1, 10176, Note_off_c, 0, 32, 64
1, 10179, Note_on_c, 0, 30, 79
1, 10179, Note_off_c, 0, 31, 64
1, 10181, Note_off_c, 0, 30, 64
1, 10183, Note_on_c, 0, 36, 73
1, 10183, Note_on_c, 0, 54, 53
1, 10183, Note_on_c, 0, 68, 19
1, 10184, Note_on_c, 0, 31, 77
1, 10184, Note_off_c, 0, 36, 64
1, 10184, Note_on_c, 0, 63, 28
1, 10185, Note_on_c, 0, 30, 78
1, 10185, Note_off_c, 0, 31, 64
1, 10185, Note_on_c, 0, 49, 59
1, 10185, Note_on_c, 0, 70, 10
1, 10186, Note_on_c, 0, 29, 77
1, 10186, Note_off_c, 0, 30, 64
1, 10186, Note_off_c, 0, 54, 64
1, 10186, Note_off_c, 0, 68, 64
1, 10187, Note_off_c, 0, 29, 64
1, 10187, Note_on_c, 0, 30, 75
1, 10187, Note_off_c, 0, 49, 64
1, 10187, Note_on_c, 0, 61, 17
1, 10188, Note_off_c, 0, 70, 64
1, 10189, Note_on_c, 0, 29, 74
1, 10189, Note_off_c, 0, 30, 64
1, 10189, Note_off_c, 0, 63, 64
1, 10190, Note_off_c, 0, 61, 64
1, 10192, Note_off_c, 0, 29, 64
1, 10192, Note_on_c, 0, 30, 78
1, 10192, Note_on_c, 0, 43, 67
1, 10192, Note_on_c, 0, 86, 13
1, 10193, Note_off_c, 0, 43, 64
1, 10193, Note_on_c, 0, 64, 31
1, 10193, Note_on_c, 0, 68, 15
1, 10193, Note_on_c, 0, 74, 12
1, 10195, Note_on_c, 0, 29, 79
1, 10195, Note_off_c, 0, 30, 64
1, 10195, Note_on_c, 0, 61, 25
1, 10196, Note_off_c, 0, 29, 64
1, 10196, Note_on_c, 0, 30, 78
1, 10196, Note_on_c, 0, 63, 20
1, 10196, Note_off_c, 0, 64, 64
1, 10196, Note_off_c, 0, 74, 64
1, 10196, Note_off_c, 0, 86, 64
1, 10197, Note_off_c, 0, 68, 64
1, 10198, Note_off_c, 0, 61, 64
1, 10199, Note_off_c, 0, 30, 64
1, 10199, Note_on_c, 0, 34, 72
1, 10199, Note_off_c, 0, 63, 64
1, 10200, Note_on_c, 0, 78, 35
1, 10200, Note_on_c, 0, 80, 34
1, 10200, Note_on_c, 0, 83, 33
1, 10200, Note_on_c, 0, 85, 30
1, 10200, Note_on_c, 0, 86, 28
1, 10200, Note_on_c, 0, 89, 28
1, 10201, Note_off_c, 0, 34, 64
1, 10201, Note_on_c, 0, 81, 33
1, 10202, Note_on_c, 0, 51, 75
1, 10202, Note_on_c, 0, 64, 44
1, 10203, Note_on_c, 0, 48, 86
1, 10203, Note_off_c, 0, 51, 64
1, 10203, Note_off_c, 0, 78, 64
1, 10203, Note_off_c, 0, 81, 64
1, 10203, Note_off_c, 0, 83, 64
1, 10203, Note_off_c, 0, 85, 64
1, 10203, Note_off_c, 0, 86, 64
1, 10203, Note_off_c, 0, 89, 64
1, 10204, Note_on_c, 0, 45, 95
1, 10204, Note_off_c, 0, 48, 64
1, 10204, Note_off_c, 0, 64, 64
1, 10204, Note_off_c, 0, 80, 64
1, 10205, Note_on_c, 0, 42, 100
1, 10205, Note_off_c, 0, 45, 64
1, 10206, Note_on_c, 0, 40, 97
1, 10206, Note_off_c, 0, 42, 64
1, 10207, Note_on_c, 0, 38, 98
1, 10207, Note_off_c, 0, 40, 64
1, 10208, Note_on_c, 0, 36, 98
1, 10208, Note_off_c, 0, 38, 64
1, 10209, Note_on_c, 0, 35, 96
1, 10209, Note_off_c, 0, 36, 64
1, 10210, Note_on_c, 0, 34, 96
1, 10210, Note_off_c, 0, 35, 64
1, 10211, Note_on_c, 0, 33, 96
1, 10211, Note_off_c, 0, 34, 64
1, 10212, Note_on_c, 0, 32, 97
1, 10212, Note_off_c, 0, 33, 64
1, 10214, Note_on_c, 0, 31, 94
1, 10214, Note_off_c, 0, 32, 64
1, 10216, Note_on_c, 0, 30, 84
1, 10216, Note_off_c, 0, 31, 64
1, 10219, Note_off_c, 0, 30, 64
1, 10220, Note_on_c, 0, 37, 67
1, 10221, Note_on_c, 0, 31, 72
1, 10221, Note_off_c, 0, 37, 64
1, 10221, Note_on_c, 0, 61, 30
1, 10221, Note_on_c, 0, 70, 17
1, 10222, Note_on_c, 0, 30, 79
1, 10222, Note_off_c, 0, 31, 64
1, 10223, Note_on_c, 0, 29, 80
1, 10223, Note_off_c, 0, 30, 64
1, 10223, Note_on_c, 0, 49, 57
1, 10223, Note_on_c, 0, 101, 13
1, 10223, Note_on_c, 0, 102, 13
1, 10224, Note_off_c, 0, 61, 64
1, 10225, Note_off_c, 0, 29, 64
1, 10225, Note_on_c, 0, 30, 76
1, 10225, Note_off_c, 0, 70, 64
1, 10226, Note_off_c, 0, 49, 64
1, 10226, Note_on_c, 0, 76, 20
1, 10226, Note_on_c, 0, 99, 10
1, 10226, Note_off_c, 0, 102, 64
1, 10227, Note_on_c, 0, 29, 73
1, 10227, Note_off_c, 0, 30, 64
1, 10229, Note_on_c, 0, 84, 20
1, 10229, Note_on_c, 0, 86, 20
1, 10229, Note_on_c, 0, 94, 14
1, 10230, Note_off_c, 0, 29, 64
1, 10230, Note_on_c, 0, 30, 78
1, 10230, Note_on_c, 0, 61, 32
1, 10230, Note_on_c, 0, 68, 16
1, 10230, Note_on_c, 0, 70, 17
1, 10231, Note_on_c, 0, 54, 50
1, 10231, Note_on_c, 0, 71, 23
1, 10231, Note_on_c, 0, 85, 21
1, 10231, Note_off_c, 0, 99, 64
1, 10232, Note_off_c, 0, 76, 64
1, 10232, Note_off_c, 0, 84, 64
1, 10233, Note_off_c, 0, 54, 64
1, 10233, Note_off_c, 0, 61, 64
1, 10233, Note_off_c, 0, 70, 64
1, 10233, Note_off_c, 0, 94, 64
1, 10233, Note_off_c, 0, 101, 64
1, 10234, Note_off_c, 0, 85, 64
1, 10234, Note_off_c, 0, 86, 64
1, 10235, Note_off_c, 0, 68, 64
1, 10235, Note_off_c, 0, 71, 64
1, 10236, Note_off_c, 0, 30, 64
1, 10236, Note_on_c, 0, 32, 72
1, 10236, Note_on_c, 0, 76, 36
1, 10237, Note_off_c, 0, 32, 64
1, 10237, Note_on_c, 0, 34, 69
1, 10237, Note_on_c, 0, 70, 42
1, 10237, Note_on_c, 0, 78, 35
1, 10237, Note_on_c, 0, 84, 30
1, 10237, Note_on_c, 0, 85, 31
1, 10237, Note_on_c, 0, 91, 27
1, 10237, Note_on_c, 0, 92, 27
1, 10237, Note_on_c, 0, 93, 24
1, 10237, Note_on_c, 0, 95, 24
1, 10237, Note_on_c, 0, 99, 23
1, 10237, Note_on_c, 0, 101, 19
1, 10238, Note_off_c, 0, 34, 64
1, 10238, Note_on_c, 0, 86, 30
1, 10239, Note_on_c, 0, 55, 65
1, 10239, Note_on_c, 0, 69, 42
1, 10239, Note_off_c, 0, 70, 64
1, 10239, Note_off_c, 0, 76, 64
1, 10239, Note_off_c, 0, 78, 64
1, 10240, Note_on_c, 0, 49, 81
1, 10240, Note_off_c, 0, 55, 64
1, 10240, Note_off_c, 0, 84, 64
1, 10240, Note_off_c, 0, 85, 64
1, 10240, Note_off_c, 0, 86, 64
1, 10240, Note_off_c, 0, 91, 64
1, 10240, Note_off_c, 0, 92, 64
1, 10240, Note_off_c, 0, 93, 64
1, 10240, Note_off_c, 0, 95, 64
1, 10240, Note_off_c, 0, 99, 64
1, 10240, Note_off_c, 0, 101, 64
1, 10241, Note_on_c, 0, 45, 93
1, 10241, Note_off_c, 0, 49, 64
1, 10241, Note_off_c, 0, 69, 64
1, 10242, Note_on_c, 0, 42, 98
1, 10242, Note_off_c, 0, 45, 64
1, 10243, Note_on_c, 0, 41, 99
1, 10243, Note_off_c, 0, 42, 64
1, 10244, Note_on_c, 0, 38, 98
1, 10244, Note_off_c, 0, 41, 64
1, 10245, Note_on_c, 0, 37, 98
1, 10245, Note_off_c, 0, 38, 64
1, 10246, Note_on_c, 0, 36, 97
1, 10246, Note_off_c, 0, 37, 64
1, 10247, Note_on_c, 0, 34, 96
1, 10247, Note_off_c, 0, 36, 64
1, 10247, Note_on_c, 0, 93, 18
1, 10247, Note_on_c, 0, 95, 20
1, 10249, Note_on_c, 0, 33, 96
1, 10249, Note_off_c, 0, 34, 64
1, 10250, Note_on_c, 0, 32, 96
1, 10250, Note_off_c, 0, 33, 64
1, 10250, Note_on_c, 0, 83, 10
1, 10250, Note_on_c, 0, 86, 10
1, 10250, Note_on_c, 0, 96, 12
1, 10251, Note_on_c, 0, 31, 95
1, 10251, Note_off_c, 0, 32, 64
1, 10251, Note_on_c, 0, 92, 33
1, 10252, Note_on_c, 0, 87, 20
1, 10252, Note_on_c, 0, 90, 22
1, 10252, Note_off_c, 0, 93, 64
1, 10252, Note_on_c, 0, 94, 20
1, 10253, Note_off_c, 0, 83, 64
1, 10253, Note_off_c, 0, 86, 64
1, 10253, Note_on_c, 0, 91, 31
1, 10253, Note_off_c, 0, 95, 64
1, 10254, Note_on_c, 0, 30, 79
1, 10254, Note_off_c, 0, 31, 64
1, 10254, Note_on_c, 0, 88, 25
1, 10254, Note_on_c, 0, 93, 26
1, 10254, Note_on_c, 0, 95, 16
1, 10255, Note_off_c, 0, 90, 64
1, 10255, Note_off_c, 0, 96, 64
1, 10256, Note_off_c, 0, 30, 64
1, 10256, Note_on_c, 0, 86, 26
1, 10256, Note_on_c, 0, 89, 33
1, 10256, Note_on_c, 0, 96, 17
1, 10257, Note_on_c, 0, 68, 16
1, 10257, Note_on_c, 0, 72, 12
1, 10257, Note_on_c, 0, 79, 10
1, 10257, Note_off_c, 0, 87, 64
1, 10257, Note_off_c, 0, 95, 64
1, 10258, Note_on_c, 0, 36, 72
1, 10258, Note_on_c, 0, 61, 25
1, 10258, Note_on_c, 0, 87, 22
1, 10259, Note_on_c, 0, 31, 76
1, 10259, Note_off_c, 0, 36, 64
1, 10259, Note_on_c, 0, 81, 14
1, 10259, Note_on_c, 0, 83, 23
1, 10259, Note_off_c, 0, 88, 64
1, 10259, Note_off_c, 0, 92, 64
1, 10259, Note_off_c, 0, 94, 64
1, 10260, Note_on_c, 0, 29, 79
1, 10260, Note_off_c, 0, 31, 64
1, 10260, Note_off_c, 0, 72, 64
1, 10260, Note_on_c, 0, 90, 30
1, 10260, Note_off_c, 0, 96, 64
1, 10261, Note_on_c, 0, 49, 58
1, 10261, Note_off_c, 0, 61, 64
1, 10261, Note_off_c, 0, 79, 64
1, 10261, Note_off_c, 0, 89, 64
1, 10262, Note_off_c, 0, 29, 64
1, 10262, Note_on_c, 0, 30, 77
1, 10262, Note_on_c, 0, 82, 17
1, 10262, Note_off_c, 0, 83, 64
1, 10262, Note_off_c, 0, 86, 64
1, 10263, Note_off_c, 0, 68, 64
1, 10264, Note_on_c, 0, 29, 75
1, 10264, Note_off_c, 0, 30, 64
1, 10264, Note_off_c, 0, 49, 64
1, 10264, Note_off_c, 0, 81, 64
1, 10264, Note_off_c, 0, 90, 64
1, 10264, Note_off_c, 0, 91, 64
1, 10265, Note_off_c, 0, 82, 64
1, 10265, Note_off_c, 0, 87, 64
1, 10265, Note_off_c, 0, 93, 64
1, 10266, Note_on_c, 0, 87, 37
1, 10266, Note_on_c, 0, 88, 32
1, 10266, Note_on_c, 0, 89, 23
1, 10267, Note_off_c, 0, 29, 64
1, 10267, Note_on_c, 0, 30, 72
1, 10267, Note_on_c, 0, 63, 32
1, 10267, Note_on_c, 0, 68, 23
1, 10267, Note_on_c, 0, 79, 22
1, 10267, Note_on_c, 0, 84, 31
1, 10267, Note_on_c, 0, 85, 24
1, 10267, Note_on_c, 0, 90, 22
1, 10267, Note_on_c, 0, 93, 13
1, 10267, Note_on_c, 0, 94, 17
1, 10268, Note_off_c, 0, 30, 64
1, 10268, Note_on_c, 0, 31, 78
1, 10268, Note_on_c, 0, 71, 13
1, 10268, Note_on_c, 0, 77, 16
1, 10269, Note_off_c, 0, 63, 64
1, 10269, Note_on_c, 0, 80, 30
1, 10270, Note_on_c, 0, 29, 79
1, 10270, Note_off_c, 0, 31, 64
1, 10270, Note_on_c, 0, 61, 19
1, 10270, Note_on_c, 0, 63, 26
1, 10270, Note_off_c, 0, 79, 64
1, 10270, Note_off_c, 0, 84, 64
1, 10270, Note_off_c, 0, 85, 64
1, 10270, Note_off_c, 0, 87, 64
1, 10270, Note_off_c, 0, 88, 64
1, 10270, Note_off_c, 0, 89, 64
1, 10270, Note_off_c, 0, 90, 64
1, 10270, Note_off_c, 0, 94, 64
1, 10271, Note_off_c, 0, 71, 64
1, 10271, Note_off_c, 0, 93, 64
1, 10272, Note_off_c, 0, 29, 64
1, 10272, Note_on_c, 0, 30, 76
1, 10272, Note_off_c, 0, 68, 64
1, 10272, Note_off_c, 0, 77, 64
1, 10272, Note_on_c, 0, 88, 33
1, 10273, Note_off_c, 0, 61, 64
1, 10273, Note_on_c, 0, 85, 35
1, 10273, Note_on_c, 0, 89, 32
1, 10274, Note_off_c, 0, 30, 64
1, 10274, Note_on_c, 0, 34, 72
1, 10274, Note_off_c, 0, 63, 64
1, 10274, Note_on_c, 0, 82, 32
1, 10274, Note_on_c, 0, 90, 28
1, 10275, Note_off_c, 0, 34, 64
1, 10275, Note_on_c, 0, 72, 45
1, 10275, Note_on_c, 0, 75, 41
1, 10275, Note_on_c, 0, 79, 37
1, 10275, Note_on_c, 0, 81, 39
1, 10275, Note_on_c, 0, 86, 32
1, 10275, Note_on_c, 0, 95, 23
1, 10276, Note_on_c, 0, 77, 36
1, 10276, Note_off_c, 0, 80, 64
1, 10276, Note_on_c, 0, 83, 34
1, 10277, Note_on_c, 0, 51, 75
1, 10277, Note_on_c, 0, 62, 45
1, 10277, Note_on_c, 0, 78, 16
1, 10277, Note_off_c, 0, 79, 64
1, 10278, Note_on_c, 0, 46, 86
1, 10278, Note_off_c, 0, 51, 64
1, 10278, Note_off_c, 0, 72, 64
1, 10278, Note_off_c, 0, 77, 64
1, 10278, Note_off_c, 0, 82, 64
1, 10278, Note_off_c, 0, 86, 64
1, 10278, Note_off_c, 0, 95, 64
1, 10279, Note_on_c, 0, 44, 94
1, 10279, Note_off_c, 0, 46, 64
1, 10279, Note_off_c, 0, 62, 64
1, 10279, Note_off_c, 0, 83, 64
1, 10279, Note_off_c, 0, 89, 64
1, 10280, Note_on_c, 0, 41, 100
1, 10280, Note_off_c, 0, 44, 64
1, 10280, Note_off_c, 0, 75, 64
1, 10280, Note_off_c, 0, 78, 64
1, 10281, Note_on_c, 0, 40, 97
1, 10281, Note_off_c, 0, 41, 64
1, 10281, Note_on_c, 0, 79, 29
1, 10281, Note_on_c, 0, 83, 40
1, 10281, Note_off_c, 0, 85, 64
1, 10282, Note_on_c, 0, 38, 98
1, 10282, Note_off_c, 0, 40, 64
1, 10283, Note_on_c, 0, 36, 98
1, 10283, Note_off_c, 0, 38, 64
1, 10283, Note_on_c, 0, 78, 32
1, 10283, Note_on_c, 0, 86, 25
1, 10284, Note_on_c, 0, 35, 96
1, 10284, Note_off_c, 0, 36, 64
1, 10284, Note_off_c, 0, 79, 64
1, 10284, Note_off_c, 0, 88, 64
1, 10285, Note_on_c, 0, 34, 95
1, 10285, Note_off_c, 0, 35, 64
1, 10285, Note_on_c, 0, 84, 29
1, 10285, Note_on_c, 0, 85, 30
1, 10285, Note_on_c, 0, 88, 14
1, 10286, Note_on_c, 0, 33, 95
1, 10286, Note_off_c, 0, 34, 64
1, 10286, Note_off_c, 0, 78, 64
1, 10286, Note_off_c, 0, 83, 64
1, 10286, Note_off_c, 0, 86, 64
1, 10287, Note_on_c, 0, 32, 96
1, 10287, Note_off_c, 0, 33, 64
1, 10288, Note_on_c, 0, 48, 27
1, 10288, Note_on_c, 0, 79, 39
1, 10288, Note_off_c, 0, 81, 64
1, 10288, Note_on_c, 0, 82, 37
1, 10288, Note_off_c, 0, 85, 64
1, 10288, Note_off_c, 0, 90, 64
1, 10289, Note_on_c, 0, 31, 94
1, 10289, Note_off_c, 0, 32, 64
1, 10289, Note_off_c, 0, 84, 64
1, 10291, Note_on_c, 0, 30, 83
1, 10291, Note_off_c, 0, 31, 64
1, 10291, Note_off_c, 0, 48, 64
1, 10291, Note_off_c, 0, 79, 64
1, 10291, Note_off_c, 0, 82, 64
1, 10292, Note_on_c, 0, 76, 36
1, 10292, Note_on_c, 0, 80, 39
1, 10292, Note_on_c, 0, 82, 35
1, 10292, Note_on_c, 0, 83, 33
1, 10293, Note_on_c, 0, 70, 15
1, 10293, Note_on_c, 0, 78, 39
1, 10293, Note_on_c, 0, 85, 13
1, 10294, Note_off_c, 0, 30, 64
1, 10294, Note_on_c, 0, 74, 21
1, 10295, Note_on_c, 0, 41, 66
1, 10295, Note_off_c, 0, 82, 64
1, 10295, Note_off_c, 0, 83, 64
1, 10296, Note_on_c, 0, 31, 70
1, 10296, Note_on_c, 0, 49, 61
1, 10296, Note_on_c, 0, 66, 23
1, 10296, Note_off_c, 0, 76, 64
1, 10296, Note_off_c, 0, 80, 64
1, 10296, Note_off_c, 0, 88, 64
1, 10297, Note_on_c, 0, 30, 77
1, 10297, Note_off_c, 0, 31, 64
1, 10297, Note_off_c, 0, 41, 64
1, 10297, Note_off_c, 0, 70, 64
1, 10297, Note_on_c, 0, 71, 20
1, 10297, Note_off_c, 0, 74, 64
1, 10297, Note_on_c, 0, 80, 38
1, 10298, Note_on_c, 0, 29, 79
1, 10298, Note_off_c, 0, 30, 64
1, 10298, Note_on_c, 0, 76, 37
1, 10298, Note_on_c, 0, 82, 27
1, 10298, Note_off_c, 0, 85, 64
1, 10299, Note_off_c, 0, 29, 64
1, 10299, Note_on_c, 0, 30, 76
1, 10299, Note_off_c, 0, 49, 64
1, 10299, Note_off_c, 0, 66, 64
1, 10299, Note_on_c, 0, 74, 35
1, 10299, Note_on_c, 0, 85, 11
1, 10300, Note_off_c, 0, 71, 64
1, 10301, Note_on_c, 0, 29, 73
1, 10301, Note_off_c, 0, 30, 64
1, 10301, Note_off_c, 0, 74, 64
1, 10301, Note_on_c, 0, 84, 20
1, 10302, Note_off_c, 0, 76, 64
1, 10302, Note_off_c, 0, 85, 64
1, 10303, Note_on_c, 0, 77, 43
1, 10304, Note_on_c, 0, 74, 43
1, 10304, Note_off_c, 0, 78, 64
1, 10304, Note_off_c, 0, 80, 64
1, 10304, Note_on_c, 0, 81, 32
1, 10304, Note_off_c, 0, 82, 64
1, 10304, Note_on_c, 0, 87, 16
1, 10305, Note_off_c, 0, 29, 64
1, 10305, Note_on_c, 0, 30, 79
1, 10305, Note_on_c, 0, 61, 27
1, 10305, Note_on_c, 0, 68, 31
1, 10305, Note_on_c, 0, 82, 18
1, 10305, Note_on_c, 0, 83, 29
1, 10305, Note_on_c, 0, 85, 23
1, 10305, Note_on_c, 0, 103, 11
1, 10306, Note_on_c, 0, 70, 34
1, 10306, Note_on_c, 0, 76, 41
1, 10306, Note_on_c, 0, 79, 24
1, 10306, Note_off_c, 0, 84, 64
1, 10307, Note_on_c, 0, 29, 80
1, 10307, Note_off_c, 0, 30, 64
1, 10307, Note_off_c, 0, 68, 64
1, 10307, Note_off_c, 0, 77, 64
1, 10307, Note_off_c, 0, 81, 64
1, 10307, Note_off_c, 0, 87, 64
1, 10307, Note_on_c, 0, 92, 12
1, 10308, Note_on_c, 0, 49, 55
1, 10308, Note_off_c, 0, 74, 64
1, 10308, Note_on_c, 0, 75, 40
1, 10308, Note_off_c, 0, 76, 64
1, 10308, Note_on_c, 0, 77, 36
1, 10308, Note_on_c, 0, 78, 36
1, 10308, Note_on_c, 0, 81, 29
1, 10308, Note_off_c, 0, 82, 64
1, 10308, Note_on_c, 0, 84, 40
1, 10308, Note_off_c, 0, 85, 64
1, 10308, Note_on_c, 0, 86, 15
1, 10309, Note_on_c, 0, 60, 20
1, 10309, Note_off_c, 0, 61, 64
1, 10309, Note_on_c, 0, 69, 27
1, 10309, Note_on_c, 0, 76, 37
1, 10309, Note_off_c, 0, 79, 64
1, 10309, Note_on_c, 0, 91, 31
1, 10310, Note_off_c, 0, 29, 64
1, 10310, Note_on_c, 0, 30, 72
1, 10310, Note_off_c, 0, 49, 64
1, 10310, Note_on_c, 0, 63, 20
1, 10310, Note_off_c, 0, 70, 64
1, 10310, Note_on_c, 0, 71, 36
1, 10310, Note_on_c, 0, 72, 40
1, 10310, Note_off_c, 0, 75, 64
1, 10310, Note_off_c, 0, 77, 64
1, 10310, Note_on_c, 0, 87, 21
1, 10310, Note_off_c, 0, 92, 64
1, 10310, Note_off_c, 0, 103, 64
1, 10311, Note_off_c, 0, 30, 64
1, 10311, Note_on_c, 0, 33, 71
1, 10311, Note_on_c, 0, 79, 33
1, 10311, Note_off_c, 0, 86, 64
1, 10312, Note_off_c, 0, 33, 64
1, 10312, Note_on_c, 0, 35, 67
1, 10312, Note_off_c, 0, 60, 64
1, 10312, Note_off_c, 0, 69, 64
1, 10312, Note_off_c, 0, 71, 64
1, 10312, Note_off_c, 0, 78, 64
1, 10312, Note_on_c, 0, 80, 30
1, 10312, Note_on_c, 0, 86, 38
1, 10312, Note_on_c, 0, 89, 31
1, 10312, Note_on_c, 0, 90, 29
1, 10312, Note_on_c, 0, 94, 27
1, 10312, Note_on_c, 0, 97, 20
1, 10313, Note_off_c, 0, 35, 64
1, 10313, Note_off_c, 0, 63, 64
1, 10313, Note_on_c, 0, 70, 53
1, 10313, Note_off_c, 0, 72, 64
1, 10313, Note_off_c, 0, 76, 64
1, 10313, Note_on_c, 0, 77, 50
1, 10313, Note_off_c, 0, 79, 64
1, 10313, Note_off_c, 0, 81, 64
1, 10313, Note_off_c, 0, 87, 64
1, 10313, Note_on_c, 0, 88, 25
1, 10314, Note_on_c, 0, 54, 68
1, 10314, Note_on_c, 0, 65, 50
1, 10314, Note_on_c, 0, 73, 44
1, 10314, Note_on_c, 0, 74, 42
1, 10314, Note_on_c, 0, 78, 35
1, 10315, Note_on_c, 0, 48, 82
1, 10315, Note_off_c, 0, 54, 64
1, 10315, Note_off_c, 0, 70, 64
1, 10315, Note_on_c, 0, 72, 41
1, 10315, Note_off_c, 0, 83, 64
1, 10315, Note_off_c, 0, 86, 64
1, 10315, Note_off_c, 0, 90, 64
1, 10315, Note_off_c, 0, 94, 64
1, 10315, Note_off_c, 0, 97, 64
1, 10316, Note_on_c, 0, 45, 93
1, 10316, Note_off_c, 0, 48, 64
1, 10316, Note_off_c, 0, 65, 64
1, 10316, Note_off_c, 0, 73, 64
1, 10316, Note_off_c, 0, 74, 64
1, 10316, Note_off_c, 0, 78, 64
1, 10316, Note_on_c, 0, 79, 23
1, 10316, Note_off_c, 0, 80, 64
1, 10316, Note_off_c, 0, 89, 64
1, 10317, Note_on_c, 0, 42, 99
1, 10317, Note_off_c, 0, 45, 64
1, 10317, Note_off_c, 0, 77, 64
1, 10317, Note_off_c, 0, 84, 64
1, 10317, Note_off_c, 0, 88, 64
1, 10317, Note_off_c, 0, 91, 64
1, 10318, Note_on_c, 0, 41, 99
1, 10318, Note_off_c, 0, 42, 64
1, 10318, Note_off_c, 0, 72, 64
1, 10319, Note_on_c, 0, 38, 98
1, 10319, Note_off_c, 0, 41, 64
1, 10319, Note_on_c, 0, 73, 35
1, 10320, Note_on_c, 0, 37, 98
1, 10320, Note_off_c, 0, 38, 64
1, 10320, Note_on_c, 0, 70, 33
1, 10320, Note_off_c, 0, 79, 64
1, 10320, Note_on_c, 0, 80, 21
1, 10321, Note_on_c, 0, 35, 97
1, 10321, Note_off_c, 0, 37, 64
1, 10321, Note_off_c, 0, 73, 64
1, 10322, Note_on_c, 0, 34, 96
1, 10322, Note_off_c, 0, 35, 64
1, 10322, Note_off_c, 0, 70, 64
1, 10323, Note_on_c, 0, 33, 96
1, 10323, Note_off_c, 0, 34, 64
1, 10324, Note_on_c, 0, 70, 35
1, 10324, Note_on_c, 0, 72, 28
1, 10324, Note_on_c, 0, 75, 23
1, 10324, Note_off_c, 0, 80, 64
1, 10325, Note_on_c, 0, 32, 96
1, 10325, Note_off_c, 0, 33, 64
1, 10325, Note_on_c, 0, 77, 16
1, 10325, Note_on_c, 0, 78, 15
1, 10325, Note_on_c, 0, 80, 22
1, 10326, Note_on_c, 0, 31, 95
1, 10326, Note_off_c, 0, 32, 64
1, 10326, Note_on_c, 0, 69, 33
1, 10326, Note_off_c, 0, 70, 64
1, 10327, Note_off_c, 0, 75, 64
1, 10328, Note_off_c, 0, 69, 64
1, 10328, Note_off_c, 0, 72, 64
1, 10328, Note_on_c, 0, 75, 29
1, 10328, Note_off_c, 0, 77, 64
1, 10329, Note_on_c, 0, 30, 77
1, 10329, Note_off_c, 0, 31, 64
1, 10330, Note_on_c, 0, 66, 33
1, 10330, Note_on_c, 0, 70, 37
1, 10330, Note_on_c, 0, 73, 29
1, 10330, Note_off_c, 0, 78, 64
1, 10330, Note_on_c, 0, 88, 10
1, 10331, Note_off_c, 0, 30, 64
1, 10332, Note_off_c, 0, 66, 64
1, 10332, Note_on_c, 0, 67, 32
1, 10332, Note_on_c, 0, 76, 19
1, 10332, Note_on_c, 0, 84, 31
1, 10332, Note_on_c, 0, 86, 25
1, 10333, Note_on_c, 0, 36, 71
1, 10333, Note_off_c, 0, 70, 64
1, 10333, Note_on_c, 0, 72, 35
1, 10333, Note_off_c, 0, 75, 64
1, 10333, Note_off_c, 0, 88, 64
1, 10334, Note_on_c, 0, 30, 78
1, 10334, Note_off_c, 0, 36, 64
1, 10334, Note_on_c, 0, 49, 57
1, 10334, Note_on_c, 0, 64, 40
1, 10334, Note_off_c, 0, 67, 64
1, 10334, Note_off_c, 0, 73, 64
1, 10334, Note_off_c, 0, 80, 64
1, 10334, Note_on_c, 0, 81, 14
1, 10335, Note_on_c, 0, 29, 80
1, 10335, Note_off_c, 0, 30, 64
1, 10335, Note_on_c, 0, 66, 40
1, 10335, Note_off_c, 0, 76, 64
1, 10335, Note_on_c, 0, 77, 35
1, 10335, Note_on_c, 0, 80, 12
1, 10335, Note_on_c, 0, 82, 20
1, 10336, Note_on_c, 0, 63, 30
1, 10336, Note_off_c, 0, 64, 64
1, 10336, Note_on_c, 0, 69, 34
1, 10337, Note_off_c, 0, 29, 64
1, 10337, Note_on_c, 0, 30, 76
1, 10337, Note_off_c, 0, 49, 64
1, 10337, Note_off_c, 0, 66, 64
1, 10337, Note_on_c, 0, 87, 19
1, 10338, Note_on_c, 0, 78, 31
1, 10338, Note_off_c, 0, 80, 64
1, 10338, Note_off_c, 0, 81, 64
1, 10338, Note_on_c, 0, 85, 15
1, 10338, Note_off_c, 0, 86, 64
1, 10339, Note_on_c, 0, 29, 74
1, 10339, Note_off_c, 0, 30, 64
1, 10339, Note_off_c, 0, 77, 64
1, 10340, Note_on_c, 0, 67, 31
1, 10341, Note_off_c, 0, 63, 64
1, 10341, Note_off_c, 0, 69, 64
1, 10341, Note_off_c, 0, 72, 64
1, 10341, Note_on_c, 0, 75, 28
1, 10341, Note_on_c, 0, 77, 32
1, 10341, Note_off_c, 0, 78, 64
1, 10341, Note_off_c, 0, 85, 64
1, 10341, Note_on_c, 0, 92, 19
1, 10342, Note_off_c, 0, 29, 64
1, 10342, Note_on_c, 0, 30, 73
1, 10342, Note_on_c, 0, 61, 34
1, 10342, Note_on_c, 0, 80, 21
1, 10342, Note_on_c, 0, 90, 12
1, 10343, Note_off_c, 0, 30, 64
1, 10343, Note_on_c, 0, 31, 77
1, 10343, Note_off_c, 0, 67, 64
1, 10343, Note_on_c, 0, 69, 31
1, 10343, Note_on_c, 0, 78, 27
1, 10343, Note_off_c, 0, 82, 64
1, 10343, Note_on_c, 0, 86, 16
1, 10344, Note_on_c, 0, 30, 79
1, 10344, Note_off_c, 0, 31, 64
1, 10344, Note_off_c, 0, 77, 64
1, 10344, Note_off_c, 0, 87, 64
1, 10345, Note_on_c, 0, 29, 79
1, 10345, Note_off_c, 0, 30, 64
1, 10345, Note_on_c, 0, 68, 28
1, 10345, Note_off_c, 0, 69, 64
1, 10345, Note_off_c, 0, 75, 64
1, 10345, Note_on_c, 0, 77, 17
1, 10345, Note_off_c, 0, 84, 64
1, 10345, Note_off_c, 0, 90, 64
1, 10346, Note_off_c, 0, 61, 64
1, 10346, Note_off_c, 0, 78, 64
1, 10346, Note_off_c, 0, 80, 64
1, 10346, Note_off_c, 0, 92, 64
1, 10346, Note_on_c, 0, 93, 25
1, 10347, Note_off_c, 0, 29, 64
1, 10347, Note_on_c, 0, 30, 75
1, 10347, Note_on_c, 0, 78, 32
1, 10348, Note_off_c, 0, 30, 64
1, 10348, Note_on_c, 0, 31, 68
1, 10348, Note_on_c, 0, 63, 40
1, 10348, Note_off_c, 0, 68, 64
1, 10348, Note_off_c, 0, 86, 64
1, 10349, Note_off_c, 0, 31, 64
1, 10349, Note_on_c, 0, 34, 71
1, 10349, Note_on_c, 0, 72, 38
1, 10349, Note_on_c, 0, 80, 34
1, 10349, Note_on_c, 0, 81, 40
1, 10350, Note_off_c, 0, 34, 64
1, 10350, Note_on_c, 0, 76, 39
1, 10350, Note_off_c, 0, 77, 64
1, 10350, Note_on_c, 0, 86, 30
1, 10350, Note_on_c, 0, 89, 30
1, 10350, Note_on_c, 0, 91, 24
1, 10351, Note_off_c, 0, 63, 64
1, 10351, Note_off_c, 0, 72, 64
1, 10351, Note_off_c, 0, 78, 64
1, 10351, Note_off_c, 0, 80, 64
1, 10351, Note_on_c, 0, 87, 31
1, 10352, Note_on_c, 0, 51, 77
1, 10352, Note_off_c, 0, 93, 64
1, 10353, Note_on_c, 0, 46, 87
1, 10353, Note_off_c, 0, 51, 64
1, 10353, Note_off_c, 0, 76, 64
1, 10353, Note_off_c, 0, 81, 64
1, 10353, Note_off_c, 0, 86, 64
1, 10353, Note_off_c, 0, 87, 64
1, 10353, Note_off_c, 0, 89, 64
1, 10353, Note_off_c, 0, 91, 64
1, 10354, Note_on_c, 0, 44, 94
1, 10354, Note_off_c, 0, 46, 64
1, 10355, Note_on_c, 0, 41, 99
1, 10355, Note_off_c, 0, 44, 64
1, 10356, Note_on_c, 0, 39, 96
1, 10356, Note_off_c, 0, 41, 64
1, 10357, Note_on_c, 0, 37, 98
1, 10357, Note_off_c, 0, 39, 64
1, 10357, Note_on_c, 0, 71, 14
1, 10358, Note_on_c, 0, 36, 97
1, 10358, Note_off_c, 0, 37, 64
1, 10359, Note_on_c, 0, 35, 96
1, 10359, Note_off_c, 0, 36, 64
1, 10360, Note_on_c, 0, 34, 95
1, 10360, Note_off_c, 0, 35, 64
1, 10360, Note_on_c, 0, 77, 21
1, 10361, Note_on_c, 0, 33, 95
1, 10361, Note_off_c, 0, 34, 64
1, 10362, Note_on_c, 0, 32, 96
1, 10362, Note_off_c, 0, 33, 64
1, 10362, Note_off_c, 0, 71, 64
1, 10362, Note_on_c, 0, 73, 19
1, 10364, Note_on_c, 0, 31, 94
1, 10364, Note_off_c, 0, 32, 64
1, 10364, Note_off_c, 0, 77, 64
1, 10364, Note_on_c, 0, 81, 11
1, 10364, Note_on_c, 0, 83, 16
1, 10365, Note_on_c, 0, 75, 22
1, 10366, Note_on_c, 0, 30, 82
1, 10366, Note_off_c, 0, 31, 64
1, 10366, Note_off_c, 0, 73, 64
1, 10366, Note_on_c, 0, 78, 30
1, 10366, Note_on_c, 0, 84, 18
1, 10367, Note_on_c, 0, 76, 19
1, 10367, Note_off_c, 0, 81, 64
1, 10368, Note_on_c, 0, 82, 25
1, 10368, Note_off_c, 0, 83, 64
1, 10369, Note_off_c, 0, 30, 64
1, 10369, Note_on_c, 0, 68, 26
1, 10369, Note_on_c, 0, 72, 29
1, 10369, Note_on_c, 0, 85, 18
1, 10370, Note_on_c, 0, 36, 68
1, 10370, Note_off_c, 0, 76, 64
1, 10370, Note_on_c, 0, 77, 34
1, 10370, Note_off_c, 0, 78, 64
1, 10370, Note_off_c, 0, 84, 64
1, 10371, Note_on_c, 0, 31, 73
1, 10371, Note_off_c, 0, 36, 64
1, 10371, Note_on_c, 0, 64, 32
1, 10371, Note_on_c, 0, 74, 21
1, 10371, Note_off_c, 0, 75, 64
1, 10371, Note_on_c, 0, 78, 25
1, 10372, Note_on_c, 0, 30, 79
1, 10372, Note_off_c, 0, 31, 64
1, 10372, Note_off_c, 0, 77, 64
1, 10373, Note_on_c, 0, 29, 80
1, 10373, Note_off_c, 0, 30, 64
1, 10373, Note_on_c, 0, 63, 31
1, 10373, Note_off_c, 0, 64, 64
1, 10374, Note_off_c, 0, 29, 64
1, 10374, Note_on_c, 0, 30, 77
1, 10374, Note_off_c, 0, 72, 64
1, 10375, Note_on_c, 0, 49, 50
1, 10375, Note_off_c, 0, 78, 64
1, 10375, Note_off_c, 0, 82, 64
1, 10375, Note_off_c, 0, 85, 64
1, 10376, Note_on_c, 0, 29, 74
1, 10376, Note_off_c, 0, 30, 64
1, 10376, Note_on_c, 0, 71, 24
1, 10376, Note_on_c, 0, 82, 26
1, 10377, Note_off_c, 0, 49, 64
1, 10377, Note_off_c, 0, 63, 64
1, 10377, Note_off_c, 0, 68, 64
1, 10377, Note_off_c, 0, 74, 64
1, 10377, Note_on_c, 0, 79, 22
1, 10377, Note_on_c, 0, 81, 25
1, 10378, Note_on_c, 0, 76, 11
1, 10379, Note_off_c, 0, 82, 64
1, 10379, Note_on_c, 0, 89, 15
1, 10380, Note_off_c, 0, 29, 64
1, 10380, Note_on_c, 0, 30, 75
1, 10380, Note_on_c, 0, 61, 32
1, 10380, Note_on_c, 0, 86, 9
1, 10381, Note_off_c, 0, 30, 64
1, 10381, Note_on_c, 0, 31, 78
1, 10381, Note_on_c, 0, 49, 60
1, 10381, Note_off_c, 0, 71, 64
1, 10381, Note_on_c, 0, 72, 22
1, 10381, Note_off_c, 0, 76, 64
1, 10381, Note_on_c, 0, 82, 20
1, 10382, Note_on_c, 0, 30, 79
1, 10382, Note_off_c, 0, 31, 64
1, 10382, Note_on_c, 0, 68, 20
1, 10382, Note_on_c, 0, 76, 13
1, 10383, Note_on_c, 0, 29, 78
1, 10383, Note_off_c, 0, 30, 64
1, 10383, Note_off_c, 0, 49, 64
1, 10383, Note_off_c, 0, 86, 64
1, 10383, Note_off_c, 0, 89, 64
1, 10384, Note_off_c, 0, 72, 64
1, 10384, Note_off_c, 0, 79, 64
1, 10384, Note_off_c, 0, 81, 64
1, 10384, Note_off_c, 0, 82, 64
1, 10385, Note_off_c, 0, 29, 64
1, 10385, Note_on_c, 0, 30, 73
1, 10385, Note_off_c, 0, 61, 64
1, 10385, Note_off_c, 0, 76, 64
1, 10386, Note_off_c, 0, 30, 64
1, 10386, Note_on_c, 0, 33, 71
1, 10386, Note_off_c, 0, 68, 64
1, 10387, Note_off_c, 0, 33, 64
1, 10387, Note_on_c, 0, 35, 66
1, 10387, Note_on_c, 0, 70, 44
1, 10387, Note_on_c, 0, 75, 34
1, 10387, Note_on_c, 0, 77, 30
1, 10387, Note_on_c, 0, 81, 30
1, 10387, Note_on_c, 0, 83, 32
1, 10387, Note_on_c, 0, 85, 35
1, 10387, Note_on_c, 0, 86, 31
1, 10387, Note_on_c, 0, 88, 24
1, 10387, Note_on_c, 0, 90, 25
1, 10387, Note_on_c, 0, 91, 25
1, 10387, Note_on_c, 0, 92, 24
1, 10387, Note_on_c, 0, 94, 25
1, 10387, Note_on_c, 0, 96, 22
1, 10387, Note_on_c, 0, 99, 21
1, 10388, Note_off_c, 0, 35, 64
1, 10388, Note_on_c, 0, 65, 49
1, 10388, Note_on_c, 0, 79, 36
1, 10389, Note_on_c, 0, 53, 69
1, 10389, Note_on_c, 0, 72, 35
1, 10389, Note_off_c, 0, 75, 64
1, 10389, Note_on_c, 0, 78, 22
1, 10390, Note_on_c, 0, 48, 84
1, 10390, Note_off_c, 0, 53, 64
1, 10390, Note_on_c, 0, 75, 25
1, 10390, Note_off_c, 0, 77, 64
1, 10390, Note_off_c, 0, 79, 64
1, 10390, Note_off_c, 0, 81, 64
1, 10390, Note_off_c, 0, 86, 64
1, 10390, Note_off_c, 0, 88, 64
1, 10390, Note_off_c, 0, 90, 64
1, 10390, Note_off_c, 0, 91, 64
1, 10390, Note_off_c, 0, 92, 64
1, 10390, Note_off_c, 0, 94, 64
1, 10390, Note_off_c, 0, 96, 64
1, 10390, Note_off_c, 0, 99, 64
1, 10391, Note_on_c, 0, 45, 94
1, 10391, Note_off_c, 0, 48, 64
1, 10391, Note_off_c, 0, 70, 64
1, 10391, Note_off_c, 0, 72, 64
1, 10391, Note_on_c, 0, 81, 11
1, 10392, Note_on_c, 0, 42, 99
1, 10392, Note_off_c, 0, 45, 64
1, 10392, Note_off_c, 0, 65, 64
1, 10392, Note_on_c, 0, 69, 21
1, 10392, Note_off_c, 0, 83, 64
1, 10392, Note_on_c, 0, 84, 14
1, 10393, Note_on_c, 0, 40, 99
1, 10393, Note_off_c, 0, 42, 64
1, 10393, Note_off_c, 0, 78, 64
1, 10393, Note_on_c, 0, 82, 20
1, 10394, Note_on_c, 0, 38, 98
1, 10394, Note_off_c, 0, 40, 64
1, 10394, Note_on_c, 0, 70, 16
1, 10394, Note_off_c, 0, 81, 64
1, 10394, Note_off_c, 0, 85, 64
1, 10395, Note_on_c, 0, 37, 98
1, 10395, Note_off_c, 0, 38, 64
1, 10395, Note_off_c, 0, 69, 64
1, 10395, Note_off_c, 0, 84, 64
1, 10396, Note_on_c, 0, 35, 97
1, 10396, Note_off_c, 0, 37, 64
1, 10396, Note_on_c, 0, 69, 18
1, 10397, Note_on_c, 0, 34, 95
1, 10397, Note_off_c, 0, 35, 64
1, 10398, Note_on_c, 0, 33, 96
1, 10398, Note_off_c, 0, 34, 64
1, 10398, Note_on_c, 0, 48, 34
1, 10398, Note_off_c, 0, 70, 64
1, 10398, Note_on_c, 0, 73, 15
1, 10398, Note_off_c, 0, 75, 64
1, 10399, Note_on_c, 0, 66, 19
1, 10399, Note_off_c, 0, 69, 64
1, 10399, Note_off_c, 0, 82, 64
1, 10400, Note_on_c, 0, 32, 97
1, 10400, Note_off_c, 0, 33, 64
1, 10400, Note_off_c, 0, 48, 64
1, 10401, Note_on_c, 0, 31, 95
1, 10401, Note_off_c, 0, 32, 64
1, 10401, Note_off_c, 0, 73, 64
1, 10401, Note_on_c, 0, 83, 9
1, 10402, Note_off_c, 0, 66, 64
1, 10404, Note_on_c, 0, 30, 76
1, 10404, Note_off_c, 0, 31, 64
1, 10405, Note_off_c, 0, 83, 64
1, 10406, Note_off_c, 0, 30, 64
1, 10406, Note_on_c, 0, 83, 19
1, 10407, Note_on_c, 0, 72, 18
1, 10407, Note_on_c, 0, 79, 20
1, 10407, Note_on_c, 0, 82, 20
1, 10408, Note_on_c, 0, 32, 69
1, 10408, Note_on_c, 0, 61, 26
1, 10408, Note_on_c, 0, 68, 15
1, 10409, Note_on_c, 0, 31, 77
1, 10409, Note_off_c, 0, 32, 64
1, 10410, Note_on_c, 0, 29, 79
1, 10410, Note_off_c, 0, 31, 64
1, 10410, Note_off_c, 0, 72, 64
1, 10410, Note_on_c, 0, 77, 15
1, 10411, Note_off_c, 0, 61, 64
1, 10411, Note_off_c, 0, 82, 64
1, 10412, Note_off_c, 0, 29, 64
1, 10412, Note_on_c, 0, 30, 76
1, 10412, Note_on_c, 0, 61, 16
1, 10412, Note_off_c, 0, 68, 64
1, 10412, Note_off_c, 0, 79, 64
1, 10412, Note_off_c, 0, 83, 64
1, 10413, Note_off_c, 0, 77, 64
1, 10414, Note_on_c, 0, 29, 75
1, 10414, Note_off_c, 0, 30, 64
1, 10414, Note_on_c, 0, 54, 37
1, 10415, Note_off_c, 0, 61, 64
1, 10415, Note_on_c, 0, 81, 12
1, 10415, Note_on_c, 0, 86, 14
1, 10416, Note_off_c, 0, 54, 64
1, 10416, Note_on_c, 0, 78, 24
1, 10417, Note_off_c, 0, 29, 64
1, 10417, Note_on_c, 0, 30, 79
1, 10417, Note_on_c, 0, 61, 25
1, 10417, Note_on_c, 0, 70, 14
1, 10419, Note_on_c, 0, 63, 23
1, 10419, Note_on_c, 0, 87, 12
1, 10420, Note_on_c, 0, 29, 79
1, 10420, Note_off_c, 0, 30, 64
1, 10420, Note_off_c, 0, 81, 64
1, 10420, Note_off_c, 0, 86, 64
1, 10421, Note_off_c, 0, 29, 64
1, 10421, Note_on_c, 0, 30, 77
1, 10421, Note_off_c, 0, 61, 64
1, 10421, Note_off_c, 0, 70, 64
1, 10421, Note_on_c, 0, 73, 11
1, 10421, Note_on_c, 0, 77, 33
1, 10421, Note_off_c, 0, 78, 64
1, 10421, Note_on_c, 0, 96, 23
1, 10422, Note_off_c, 0, 87, 64
1, 10423, Note_on_c, 0, 29, 70
1, 10423, Note_off_c, 0, 30, 64
1, 10423, Note_on_c, 0, 54, 39
1, 10423, Note_on_c, 0, 82, 35
1, 10424, Note_off_c, 0, 29, 64
1, 10424, Note_on_c, 0, 34, 70
1, 10424, Note_off_c, 0, 63, 64
1, 10424, Note_off_c, 0, 73, 64
1, 10424, Note_on_c, 0, 84, 35
1, 10424, Note_on_c, 0, 87, 31
1, 10424, Note_on_c, 0, 88, 29
1, 10425, Note_off_c, 0, 34, 64
1, 10425, Note_off_c, 0, 54, 64
1, 10425, Note_on_c, 0, 73, 40
1, 10425, Note_on_c, 0, 78, 37
1, 10425, Note_on_c, 0, 83, 29
1, 10425, Note_on_c, 0, 91, 30
1, 10426, Note_on_c, 0, 70, 40
1, 10426, Note_on_c, 0, 76, 37
1, 10426, Note_off_c, 0, 77, 64
1, 10426, Note_on_c, 0, 86, 26
1, 10426, Note_off_c, 0, 87, 64
1, 10427, Note_on_c, 0, 51, 77
1, 10427, Note_off_c, 0, 78, 64
1, 10427, Note_off_c, 0, 88, 64
1, 10427, Note_off_c, 0, 91, 64
1, 10427, Note_off_c, 0, 96, 64
1, 10428, Note_on_c, 0, 46, 89
1, 10428, Note_off_c, 0, 51, 64
1, 10428, Note_off_c, 0, 70, 64
1, 10428, Note_off_c, 0, 73, 64
1, 10428, Note_off_c, 0, 76, 64
1, 10428, Note_off_c, 0, 82, 64
1, 10428, Note_off_c, 0, 83, 64
1, 10428, Note_off_c, 0, 84, 64
1, 10429, Note_on_c, 0, 43, 95
1, 10429, Note_off_c, 0, 46, 64
1, 10429, Note_off_c, 0, 86, 64
1, 10430, Note_on_c, 0, 41, 100
1, 10430, Note_off_c, 0, 43, 64
1, 10431, Note_on_c, 0, 39, 98
1, 10431, Note_off_c, 0, 41, 64
1, 10432, Note_on_c, 0, 37, 99
1, 10432, Note_off_c, 0, 39, 64
1, 10433, Note_on_c, 0, 36, 97
1, 10433, Note_off_c, 0, 37, 64
1, 10434, Note_on_c, 0, 35, 96
1, 10434, Note_off_c, 0, 36, 64
1, 10435, Note_on_c, 0, 34, 96
1, 10435, Note_off_c, 0, 35, 64
1, 10436, Note_on_c, 0, 33, 96
1, 10436, Note_off_c, 0, 34, 64
1, 10437, Note_on_c, 0, 32, 96
1, 10437, Note_off_c, 0, 33, 64
1, 10438, Note_on_c, 0, 31, 96
1, 10438, Note_off_c, 0, 32, 64
1, 10441, Note_on_c, 0, 30, 81
1, 10441, Note_off_c, 0, 31, 64
1, 10444, Note_off_c, 0, 30, 64
1, 10444, Note_on_c, 0, 80, 13
1, 10444, Note_on_c, 0, 81, 18
1, 10444, Note_on_c, 0, 83, 16
1, 10445, Note_on_c, 0, 36, 70
1, 10445, Note_on_c, 0, 61, 32
1, 10445, Note_on_c, 0, 85, 21
1, 10446, Note_on_c, 0, 31, 75
1, 10446, Note_off_c, 0, 36, 64
1, 10446, Note_on_c, 0, 49, 59
1, 10446, Note_on_c, 0, 68, 15
1, 10447, Note_on_c, 0, 30, 80
1, 10447, Note_off_c, 0, 31, 64
1, 10447, Note_on_c, 0, 75, 15
1, 10447, Note_off_c, 0, 80, 64
1, 10448, Note_on_c, 0, 29, 79
1, 10448, Note_off_c, 0, 30, 64
1, 10448, Note_off_c, 0, 81, 64
1, 10448, Note_off_c, 0, 83, 64
1, 10449, Note_off_c, 0, 49, 64
1, 10450, Note_off_c, 0, 29, 64
1, 10450, Note_on_c, 0, 30, 75
1, 10451, Note_on_c, 0, 48, 51
1, 10451, Note_off_c, 0, 61, 64
1, 10451, Note_off_c, 0, 68, 64
1, 10452, Note_on_c, 0, 29, 72
1, 10452, Note_off_c, 0, 30, 64
1, 10452, Note_on_c, 0, 82, 17
1, 10453, Note_off_c, 0, 48, 64
1, 10453, Note_off_c, 0, 75, 64
1, 10454, Note_off_c, 0, 29, 64
1, 10454, Note_on_c, 0, 30, 80
1, 10454, Note_on_c, 0, 64, 31
1, 10454, Note_on_c, 0, 79, 14
1, 10454, Note_off_c, 0, 85, 64
1, 10454, Note_on_c, 0, 86, 12
1, 10455, Note_on_c, 0, 61, 28
1, 10455, Note_on_c, 0, 68, 13
1, 10455, Note_on_c, 0, 71, 18
1, 10455, Note_on_c, 0, 78, 18
1, 10455, Note_off_c, 0, 82, 64
1, 10455, Note_on_c, 0, 84, 16
1, 10456, Note_on_c, 0, 48, 58
1, 10456, Note_on_c, 0, 63, 26
1, 10456, Note_off_c, 0, 64, 64
1, 10456, Note_on_c, 0, 97, 28
1, 10457, Note_on_c, 0, 29, 80
1, 10457, Note_off_c, 0, 30, 64
1, 10457, Note_off_c, 0, 79, 64
1, 10457, Note_on_c, 0, 82, 27
1, 10458, Note_off_c, 0, 29, 64
1, 10458, Note_on_c, 0, 30, 78
1, 10458, Note_off_c, 0, 48, 64
1, 10458, Note_off_c, 0, 61, 64
1, 10458, Note_off_c, 0, 84, 64
1, 10458, Note_off_c, 0, 86, 64
1, 10459, Note_off_c, 0, 63, 64
1, 10459, Note_off_c, 0, 78, 64
1, 10460, Note_off_c, 0, 68, 64
1, 10460, Note_off_c, 0, 71, 64
1, 10460, Note_on_c, 0, 80, 26
1, 10461, Note_off_c, 0, 30, 64
1, 10461, Note_on_c, 0, 33, 71
1, 10462, Note_off_c, 0, 33, 64
1, 10462, Note_on_c, 0, 74, 46
1, 10462, Note_on_c, 0, 78, 50
1, 10462, Note_on_c, 0, 83, 54
1, 10462, Note_on_c, 0, 86, 51
1, 10462, Note_on_c, 0, 88, 42
1, 10462, Note_on_c, 0, 89, 41
1, 10462, Note_on_c, 0, 91, 35
1, 10462, Note_on_c, 0, 92, 35
1, 10462, Note_on_c, 0, 94, 32
1, 10462, Note_on_c, 0, 96, 27
1, 10462, Note_on_c, 0, 99, 23
1, 10463, Note_on_c, 0, 71, 35
1, 10463, Note_off_c, 0, 80, 64
1, 10463, Note_on_c, 0, 81, 48
1, 10463, Note_off_c, 0, 82, 64
1, 10464, Note_on_c, 0, 53, 70
1, 10464, Note_on_c, 0, 67, 42
1, 10464, Note_on_c, 0, 82, 47
1, 10464, Note_on_c, 0, 87, 27
1, 10465, Note_on_c, 0, 48, 84
1, 10465, Note_off_c, 0, 53, 64
1, 10465, Note_off_c, 0, 78, 64
1, 10465, Note_on_c, 0, 79, 56
1, 10466, Note_on_c, 0, 45, 94
1, 10466, Note_off_c, 0, 48, 64
1, 10466, Note_off_c, 0, 67, 64
1, 10466, Note_on_c, 0, 78, 36
1, 10466, Note_off_c, 0, 96, 64
1, 10466, Note_off_c, 0, 97, 64
1, 10466, Note_off_c, 0, 99, 64
1, 10467, Note_on_c, 0, 42, 99
1, 10467, Note_off_c, 0, 45, 64
1, 10467, Note_off_c, 0, 71, 64
1, 10467, Note_on_c, 0, 73, 38
1, 10467, Note_off_c, 0, 74, 64
1, 10467, Note_on_c, 0, 80, 45
1, 10467, Note_off_c, 0, 82, 64
1, 10468, Note_on_c, 0, 40, 98
1, 10468, Note_off_c, 0, 42, 64
1, 10468, Note_on_c, 0, 72, 34
1, 10468, Note_on_c, 0, 76, 37
1, 10468, Note_off_c, 0, 81, 64
1, 10468, Note_off_c, 0, 86, 64
1, 10468, Note_off_c, 0, 89, 64
1, 10468, Note_off_c, 0, 92, 64
1, 10469, Note_on_c, 0, 38, 98
1, 10469, Note_off_c, 0, 40, 64
1, 10469, Note_on_c, 0, 75, 25
1, 10469, Note_off_c, 0, 87, 64
1, 10469, Note_off_c, 0, 91, 64
1, 10470, Note_on_c, 0, 37, 98
1, 10470, Note_off_c, 0, 38, 64
1, 10470, Note_off_c, 0, 76, 64
1, 10470, Note_on_c, 0, 77, 42
1, 10470, Note_off_c, 0, 78, 64
1, 10470, Note_on_c, 0, 87, 25
1, 10471, Note_on_c, 0, 35, 96
1, 10471, Note_off_c, 0, 37, 64
1, 10471, Note_off_c, 0, 72, 64
1, 10471, Note_off_c, 0, 80, 64
1, 10471, Note_on_c, 0, 81, 26
1, 10471, Note_off_c, 0, 83, 64
1, 10471, Note_on_c, 0, 84, 23
1, 10471, Note_on_c, 0, 86, 15
1, 10471, Note_off_c, 0, 94, 64
1, 10472, Note_on_c, 0, 34, 95
1, 10472, Note_off_c, 0, 35, 64
1, 10473, Note_on_c, 0, 33, 96
1, 10473, Note_off_c, 0, 34, 64
1, 10473, Note_on_c, 0, 48, 30
1, 10473, Note_off_c, 0, 77, 64
1, 10474, Note_on_c, 0, 32, 96
1, 10474, Note_off_c, 0, 33, 64
1, 10474, Note_off_c, 0, 81, 64
1, 10474, Note_off_c, 0, 88, 64
1, 10475, Note_off_c, 0, 48, 64
1, 10475, Note_on_c, 0, 76, 15
1, 10475, Note_off_c, 0, 79, 64
1, 10476, Note_on_c, 0, 31, 94
1, 10476, Note_off_c, 0, 32, 64
1, 10476, Note_off_c, 0, 75, 64
1, 10476, Note_on_c, 0, 82, 21
1, 10476, Note_off_c, 0, 87, 64
1, 10478, Note_on_c, 0, 30, 85
1, 10478, Note_off_c, 0, 31, 64
1, 10478, Note_off_c, 0, 73, 64
1, 10478, Note_off_c, 0, 76, 64
1, 10478, Note_off_c, 0, 84, 64
1, 10479, Note_off_c, 0, 82, 64
1, 10479, Note_on_c, 0, 88, 12
1, 10480, Note_on_c, 0, 81, 49
1, 10480, Note_off_c, 0, 86, 64
1, 10481, Note_off_c, 0, 30, 64
1, 10481, Note_on_c, 0, 42, 65
1, 10481, Note_on_c, 0, 87, 37
1, 10481, Note_on_c, 0, 90, 39
1, 10481, Note_on_c, 0, 92, 24
1, 10482, Note_on_c, 0, 61, 32
1, 10482, Note_on_c, 0, 71, 25
1, 10482, Note_on_c, 0, 75, 43
1, 10482, Note_on_c, 0, 84, 46
1, 10482, Note_on_c, 0, 86, 47
1, 10482, Note_on_c, 0, 89, 34
1, 10482, Note_on_c, 0, 91, 30
1, 10482, Note_on_c, 0, 94, 25
1, 10482, Note_on_c, 0, 95, 22
1, 10483, Note_on_c, 0, 31, 69
1, 10483, Note_on_c, 0, 41, 67
1, 10483, Note_off_c, 0, 42, 64
1, 10483, Note_on_c, 0, 58, 33
1, 10483, Note_on_c, 0, 68, 27
1, 10483, Note_on_c, 0, 78, 37
1, 10483, Note_on_c, 0, 80, 36
1, 10483, Note_off_c, 0, 88, 64
1, 10484, Note_on_c, 0, 30, 77
1, 10484, Note_off_c, 0, 31, 64
1, 10484, Note_off_c, 0, 41, 64
1, 10484, Note_off_c, 0, 61, 64
1, 10484, Note_on_c, 0, 85, 51
1, 10484, Note_off_c, 0, 86, 64
1, 10485, Note_on_c, 0, 29, 79
1, 10485, Note_off_c, 0, 30, 64
1, 10485, Note_off_c, 0, 71, 64
1, 10485, Note_on_c, 0, 77, 38
1, 10485, Note_off_c, 0, 78, 64
1, 10485, Note_on_c, 0, 79, 47
1, 10485, Note_on_c, 0, 82, 43
1, 10485, Note_on_c, 0, 83, 40
1, 10485, Note_off_c, 0, 84, 64
1, 10485, Note_off_c, 0, 95, 64
1, 10485, Note_on_c, 0, 96, 16
1, 10486, Note_off_c, 0, 58, 64
1, 10486, Note_on_c, 0, 63, 27
1, 10486, Note_on_c, 0, 74, 34
1, 10486, Note_off_c, 0, 80, 64
1, 10486, Note_off_c, 0, 94, 64
1, 10487, Note_off_c, 0, 29, 64
1, 10487, Note_on_c, 0, 30, 75
1, 10487, Note_off_c, 0, 75, 64
1, 10487, Note_on_c, 0, 78, 49
1, 10487, Note_off_c, 0, 79, 64
1, 10487, Note_off_c, 0, 82, 64
1, 10488, Note_on_c, 0, 70, 21
1, 10488, Note_off_c, 0, 74, 64
1, 10488, Note_on_c, 0, 76, 28
1, 10488, Note_off_c, 0, 77, 64
1, 10488, Note_on_c, 0, 80, 31
1, 10488, Note_off_c, 0, 81, 64
1, 10488, Note_on_c, 0, 88, 30
1, 10488, Note_off_c, 0, 91, 64
1, 10488, Note_off_c, 0, 96, 64
1, 10489, Note_on_c, 0, 29, 74
1, 10489, Note_off_c, 0, 30, 64
1, 10489, Note_off_c, 0, 89, 64
1, 10490, Note_on_c, 0, 60, 30
1, 10490, Note_off_c, 0, 63, 64
1, 10490, Note_off_c, 0, 92, 64
1, 10491, Note_off_c, 0, 68, 64
1, 10491, Note_off_c, 0, 70, 64
1, 10491, Note_on_c, 0, 71, 35
1, 10491, Note_on_c, 0, 75, 32
1, 10491, Note_on_c, 0, 89, 17
1, 10491, Note_on_c, 0, 91, 12
1, 10491, Note_on_c, 0, 94, 13
1, 10492, Note_off_c, 0, 29, 64
1, 10492, Note_on_c, 0, 30, 74
1, 10492, Note_on_c, 0, 64, 23
1, 10492, Note_on_c, 0, 66, 20
1, 10492, Note_off_c, 0, 76, 64
1, 10492, Note_off_c, 0, 78, 64
1, 10492, Note_on_c, 0, 79, 36
1, 10493, Note_off_c, 0, 30, 64
1, 10493, Note_on_c, 0, 31, 78
1, 10493, Note_on_c, 0, 49, 63
1, 10493, Note_off_c, 0, 60, 64
1, 10493, Note_on_c, 0, 74, 31
1, 10493, Note_off_c, 0, 75, 64
1, 10493, Note_on_c, 0, 84, 27
1, 10493, Note_off_c, 0, 87, 64
1, 10494, Note_on_c, 0, 30, 80
1, 10494, Note_off_c, 0, 31, 64
1, 10494, Note_off_c, 0, 80, 64
1, 10494, Note_off_c, 0, 89, 64
1, 10494, Note_off_c, 0, 90, 64
1, 10494, Note_off_c, 0, 91, 64
1, 10494, Note_off_c, 0, 94, 64
1, 10495, Note_on_c, 0, 29, 79
1, 10495, Note_off_c, 0, 30, 64
1, 10495, Note_on_c, 0, 53, 52
1, 10495, Note_off_c, 0, 64, 64
1, 10495, Note_off_c, 0, 71, 64
1, 10495, Note_on_c, 0, 80, 32
1, 10495, Note_off_c, 0, 85, 64
1, 10496, Note_off_c, 0, 66, 64
1, 10496, Note_on_c, 0, 81, 38
1, 10496, Note_off_c, 0, 84, 64
1, 10496, Note_on_c, 0, 85, 28
1, 10496, Note_off_c, 0, 88, 64
1, 10497, Note_off_c, 0, 29, 64
1, 10497, Note_on_c, 0, 30, 73
1, 10497, Note_off_c, 0, 53, 64
1, 10497, Note_on_c, 0, 54, 47
1, 10497, Note_off_c, 0, 80, 64
1, 10497, Note_on_c, 0, 87, 31
1, 10498, Note_off_c, 0, 49, 64
1, 10499, Note_off_c, 0, 30, 64
1, 10499, Note_on_c, 0, 34, 69
1, 10499, Note_off_c, 0, 74, 64
1, 10499, Note_on_c, 0, 78, 37
1, 10499, Note_off_c, 0, 79, 64
1, 10499, Note_on_c, 0, 89, 29
1, 10500, Note_off_c, 0, 34, 64
1, 10500, Note_off_c, 0, 54, 64
1, 10500, Note_on_c, 0, 73, 40
1, 10500, Note_on_c, 0, 75, 39
1, 10500, Note_off_c, 0, 83, 64
1, 10501, Note_on_c, 0, 83, 32
1, 10502, Note_on_c, 0, 50, 78
1, 10503, Note_on_c, 0, 46, 90
1, 10503, Note_off_c, 0, 50, 64
1, 10503, Note_off_c, 0, 73, 64
1, 10503, Note_off_c, 0, 78, 64
1, 10503, Note_off_c, 0, 81, 64
1, 10503, Note_off_c, 0, 83, 64
1, 10503, Note_off_c, 0, 89, 64
1, 10504, Note_on_c, 0, 42, 96
1, 10504, Note_off_c, 0, 46, 64
1, 10504, Note_off_c, 0, 75, 64
1, 10504, Note_off_c, 0, 87, 64
1, 10505, Note_on_c, 0, 41, 99
1, 10505, Note_off_c, 0, 42, 64
1, 10506, Note_on_c, 0, 39, 97
1, 10506, Note_off_c, 0, 41, 64
1, 10507, Note_on_c, 0, 37, 98
1, 10507, Note_off_c, 0, 39, 64
1, 10507, Note_off_c, 0, 85, 64
1, 10508, Note_on_c, 0, 36, 97
1, 10508, Note_off_c, 0, 37, 64
1, 10509, Note_on_c, 0, 35, 95
1, 10509, Note_off_c, 0, 36, 64
1, 10510, Note_on_c, 0, 34, 95
1, 10510, Note_off_c, 0, 35, 64
1, 10510, Note_on_c, 0, 80, 16
1, 10511, Note_on_c, 0, 33, 95
1, 10511, Note_off_c, 0, 34, 64
1, 10511, Note_on_c, 0, 85, 27
1, 10511, Note_on_c, 0, 87, 16
1, 10512, Note_on_c, 0, 32, 96
1, 10512, Note_off_c, 0, 33, 64
1, 10512, Note_on_c, 0, 90, 17
1, 10513, Note_on_c, 0, 78, 26
1, 10513, Note_on_c, 0, 89, 21
1, 10514, Note_on_c, 0, 31, 93
1, 10514, Note_off_c, 0, 32, 64
1, 10514, Note_on_c, 0, 83, 12
1, 10514, Note_off_c, 0, 87, 64
1, 10515, Note_off_c, 0, 90, 64
1, 10516, Note_on_c, 0, 30, 80
1, 10516, Note_off_c, 0, 31, 64
1, 10518, Note_off_c, 0, 30, 64
1, 10518, Note_on_c, 0, 76, 20
1, 10518, Note_off_c, 0, 78, 64
1, 10518, Note_on_c, 0, 79, 31
1, 10518, Note_off_c, 0, 80, 64
1, 10519, Note_on_c, 0, 74, 22
1, 10519, Note_on_c, 0, 82, 31
1, 10519, Note_off_c, 0, 83, 64
1, 10519, Note_off_c, 0, 85, 64
1, 10519, Note_on_c, 0, 86, 25
1, 10519, Note_on_c, 0, 88, 20
1, 10520, Note_on_c, 0, 36, 70
1, 10520, Note_on_c, 0, 61, 31
1, 10520, Note_on_c, 0, 64, 29
1, 10520, Note_on_c, 0, 77, 27
1, 10520, Note_on_c, 0, 83, 30
1, 10520, Note_on_c, 0, 85, 34
1, 10520, Note_on_c, 0, 90, 16
1, 10521, Note_on_c, 0, 31, 76
1, 10521, Note_off_c, 0, 36, 64
1, 10521, Note_on_c, 0, 49, 56
1, 10521, Note_on_c, 0, 68, 15
1, 10521, Note_off_c, 0, 76, 64
1, 10521, Note_on_c, 0, 84, 23
1, 10522, Note_on_c, 0, 30, 78
1, 10522, Note_off_c, 0, 31, 64
1, 10522, Note_off_c, 0, 61, 64
1, 10522, Note_on_c, 0, 87, 18
1, 10523, Note_on_c, 0, 29, 77
1, 10523, Note_off_c, 0, 30, 64
1, 10523, Note_off_c, 0, 64, 64
1, 10523, Note_off_c, 0, 82, 64
1, 10523, Note_off_c, 0, 85, 64
1, 10523, Note_off_c, 0, 90, 64
1, 10524, Note_off_c, 0, 29, 64
1, 10524, Note_on_c, 0, 30, 75
1, 10524, Note_off_c, 0, 49, 64
1, 10524, Note_off_c, 0, 68, 64
1, 10524, Note_off_c, 0, 74, 64
1, 10525, Note_off_c, 0, 88, 64
1, 10526, Note_on_c, 0, 29, 73
1, 10526, Note_off_c, 0, 30, 64
1, 10526, Note_on_c, 0, 80, 19
1, 10526, Note_off_c, 0, 83, 64
1, 10526, Note_off_c, 0, 89, 64
1, 10526, Note_on_c, 0, 90, 24
1, 10527, Note_on_c, 0, 61, 40
1, 10527, Note_off_c, 0, 79, 64
1, 10527, Note_off_c, 0, 87, 64
1, 10528, Note_on_c, 0, 82, 21
1, 10528, Note_on_c, 0, 93, 13
1, 10529, Note_off_c, 0, 29, 64
1, 10529, Note_on_c, 0, 30, 76
1, 10529, Note_on_c, 0, 88, 17
1, 10529, Note_on_c, 0, 101, 15
1, 10529, Note_on_c, 0, 102, 26
1, 10530, Note_on_c, 0, 66, 27
1, 10530, Note_on_c, 0, 76, 38
1, 10530, Note_off_c, 0, 80, 64
1, 10531, Note_off_c, 0, 30, 64
1, 10531, Note_on_c, 0, 31, 79
1, 10532, Note_on_c, 0, 30, 80
1, 10532, Note_off_c, 0, 31, 64
1, 10532, Note_off_c, 0, 77, 64
1, 10532, Note_on_c, 0, 81, 17
1, 10532, Note_off_c, 0, 88, 64
1, 10532, Note_off_c, 0, 93, 64
1, 10533, Note_on_c, 0, 29, 78
1, 10533, Note_off_c, 0, 30, 64
1, 10533, Note_on_c, 0, 78, 33
1, 10533, Note_on_c, 0, 85, 30
1, 10533, Note_off_c, 0, 90, 64
1, 10533, Note_off_c, 0, 101, 64
1, 10534, Note_off_c, 0, 82, 64
1, 10534, Note_off_c, 0, 84, 64
1, 10534, Note_off_c, 0, 86, 64
1, 10535, Note_off_c, 0, 29, 64
1, 10535, Note_on_c, 0, 30, 70
1, 10535, Note_off_c, 0, 66, 64
1, 10536, Note_off_c, 0, 30, 64
1, 10536, Note_on_c, 0, 34, 71
1, 10536, Note_off_c, 0, 81, 64
1, 10536, Note_on_c, 0, 82, 34
1, 10537, Note_off_c, 0, 34, 64
1, 10537, Note_off_c, 0, 61, 64
1, 10537, Note_on_c, 0, 67, 47
1, 10537, Note_on_c, 0, 86, 33
1, 10537, Note_on_c, 0, 89, 30
1, 10537, Note_on_c, 0, 90, 33
1, 10537, Note_on_c, 0, 92, 25
1, 10537, Note_on_c, 0, 93, 21
1, 10537, Note_on_c, 0, 95, 25
1, 10538, Note_on_c, 0, 72, 47
1, 10538, Note_off_c, 0, 78, 64
1, 10538, Note_on_c, 0, 80, 39
1, 10539, Note_on_c, 0, 51, 73
1, 10539, Note_off_c, 0, 67, 64
1, 10539, Note_on_c, 0, 68, 36
1, 10539, Note_off_c, 0, 76, 64
1, 10539, Note_on_c, 0, 77, 24
1, 10539, Note_off_c, 0, 85, 64
1, 10539, Note_on_c, 0, 87, 13
1, 10539, Note_on_c, 0, 91, 14
1, 10540, Note_on_c, 0, 48, 85
1, 10540, Note_off_c, 0, 51, 64
1, 10540, Note_off_c, 0, 93, 64
1, 10540, Note_off_c, 0, 95, 64
1, 10541, Note_on_c, 0, 45, 94
1, 10541, Note_off_c, 0, 48, 64
1, 10541, Note_off_c, 0, 68, 64
1, 10541, Note_on_c, 0, 70, 12
1, 10541, Note_off_c, 0, 72, 64
1, 10541, Note_on_c, 0, 85, 31
1, 10541, Note_off_c, 0, 86, 64
1, 10541, Note_off_c, 0, 92, 64
1, 10541, Note_off_c, 0, 102, 64
1, 10542, Note_on_c, 0, 42, 99
1, 10542, Note_off_c, 0, 45, 64
1, 10542, Note_off_c, 0, 82, 64
1, 10542, Note_on_c, 0, 84, 11
1, 10542, Note_off_c, 0, 87, 64
1, 10542, Note_off_c, 0, 90, 64
1, 10543, Note_on_c, 0, 40, 97
1, 10543, Note_off_c, 0, 42, 64
1, 10543, Note_on_c, 0, 73, 31
1, 10543, Note_on_c, 0, 76, 13
1, 10543, Note_off_c, 0, 77, 64
1, 10544, Note_on_c, 0, 38, 98
1, 10544, Note_off_c, 0, 40, 64
1, 10544, Note_off_c, 0, 70, 64
1, 10544, Note_on_c, 0, 78, 25
1, 10544, Note_off_c, 0, 91, 64
1, 10545, Note_on_c, 0, 36, 98
1, 10545, Note_off_c, 0, 38, 64
1, 10545, Note_off_c, 0, 84, 64
1, 10545, Note_off_c, 0, 89, 64
1, 10545, Note_on_c, 0, 94, 11
1, 10546, Note_on_c, 0, 35, 97
1, 10546, Note_off_c, 0, 36, 64
1, 10547, Note_on_c, 0, 34, 96
1, 10547, Note_off_c, 0, 35, 64
1, 10547, Note_on_c, 0, 82, 25
1, 10547, Note_on_c, 0, 86, 15
1, 10548, Note_on_c, 0, 33, 96
1, 10548, Note_off_c, 0, 34, 64
1, 10548, Note_off_c, 0, 76, 64
1, 10548, Note_on_c, 0, 83, 30
1, 10548, Note_on_c, 0, 88, 13
1, 10548, Note_off_c, 0, 94, 64
1, 10549, Note_on_c, 0, 32, 96
1, 10549, Note_off_c, 0, 33, 64
1, 10550, Note_on_c, 0, 48, 35
1, 10550, Note_off_c, 0, 80, 64
1, 10551, Note_on_c, 0, 31, 94
1, 10551, Note_off_c, 0, 32, 64
1, 10551, Note_off_c, 0, 83, 64
1, 10552, Note_off_c, 0, 48, 64
1, 10552, Note_off_c, 0, 86, 64
1, 10553, Note_on_c, 0, 30, 84
1, 10553, Note_off_c, 0, 31, 64
1, 10554, Note_off_c, 0, 78, 64
1, 10554, Note_on_c, 0, 86, 19
1, 10554, Note_off_c, 0, 88, 64
1, 10555, Note_off_c, 0, 30, 64
1, 10556, Note_on_c, 0, 66, 22
1, 10556, Note_on_c, 0, 77, 24
1, 10556, Note_on_c, 0, 91, 12
1, 10557, Note_on_c, 0, 37, 68
1, 10557, Note_off_c, 0, 82, 64
1, 10557, Note_on_c, 0, 83, 18
1, 10557, Note_on_c, 0, 93, 16
1, 10558, Note_on_c, 0, 31, 73
1, 10558, Note_off_c, 0, 37, 64
1, 10558, Note_on_c, 0, 61, 33
1, 10558, Note_on_c, 0, 70, 14
1, 10558, Note_off_c, 0, 73, 64
1, 10559, Note_on_c, 0, 30, 78
1, 10559, Note_off_c, 0, 31, 64
1, 10559, Note_on_c, 0, 49, 59
1, 10559, Note_off_c, 0, 77, 64
1, 10559, Note_on_c, 0, 78, 22
1, 10559, Note_on_c, 0, 80, 24
1, 10559, Note_on_c, 0, 81, 12
1, 10559, Note_off_c, 0, 85, 64
1, 10559, Note_on_c, 0, 87, 20
1, 10560, Note_on_c, 0, 29, 80
1, 10560, Note_off_c, 0, 30, 64
1, 10560, Note_on_c, 0, 64, 31
1, 10560, Note_on_c, 0, 74, 14
1, 10560, Note_off_c, 0, 83, 64
1, 10560, Note_off_c, 0, 86, 64
1, 10560, Note_off_c, 0, 91, 64
1, 10560, Note_off_c, 0, 93, 64
1, 10561, Note_off_c, 0, 29, 64
1, 10561, Note_on_c, 0, 30, 79
1, 10561, Note_off_c, 0, 49, 64
1, 10561, Note_off_c, 0, 66, 64
1, 10561, Note_off_c, 0, 70, 64
1, 10561, Note_on_c, 0, 83, 23
1, 10561, Note_on_c, 0, 91, 13
1, 10562, Note_on_c, 0, 67, 20
1, 10562, Note_off_c, 0, 78, 64
1, 10562, Note_off_c, 0, 80, 64
1, 10562, Note_off_c, 0, 81, 64
1, 10562, Note_on_c, 0, 82, 21
1, 10562, Note_on_c, 0, 86, 24
1, 10562, Note_off_c, 0, 87, 64
1, 10562, Note_on_c, 0, 89, 20
1, 10563, Note_off_c, 0, 64, 64
1, 10564, Note_on_c, 0, 29, 73
1, 10564, Note_off_c, 0, 30, 64
1, 10564, Note_off_c, 0, 74, 64
1, 10564, Note_on_c, 0, 85, 23
1, 10564, Note_off_c, 0, 91, 64
1, 10565, Note_on_c, 0, 77, 17
1, 10565, Note_on_c, 0, 79, 21
1, 10565, Note_on_c, 0, 88, 30
1, 10566, Note_off_c, 0, 61, 64
1, 10566, Note_on_c, 0, 75, 22
1, 10566, Note_on_c, 0, 90, 25
1, 10567, Note_off_c, 0, 29, 64
1, 10567, Note_on_c, 0, 30, 73
1, 10567, Note_on_c, 0, 54, 49
1, 10567, Note_off_c, 0, 67, 64
1, 10567, Note_on_c, 0, 68, 24
1, 10567, Note_off_c, 0, 82, 64
1, 10568, Note_off_c, 0, 30, 64
1, 10568, Note_on_c, 0, 31, 76
1, 10568, Note_off_c, 0, 86, 64
1, 10568, Note_on_c, 0, 92, 29
1, 10569, Note_on_c, 0, 30, 78
1, 10569, Note_off_c, 0, 31, 64
1, 10569, Note_off_c, 0, 90, 64
1, 10570, Note_on_c, 0, 29, 78
1, 10570, Note_off_c, 0, 30, 64
1, 10570, Note_on_c, 0, 49, 58
1, 10570, Note_off_c, 0, 54, 64
1, 10570, Note_off_c, 0, 75, 64
1, 10570, Note_off_c, 0, 79, 64
1, 10571, Note_off_c, 0, 29, 64
1, 10571, Note_on_c, 0, 30, 76
1, 10571, Note_off_c, 0, 68, 64
1, 10571, Note_on_c, 0, 79, 35
1, 10571, Note_on_c, 0, 80, 26
1, 10572, Note_on_c, 0, 72, 44
1, 10572, Note_off_c, 0, 77, 64
1, 10572, Note_on_c, 0, 82, 20
1, 10572, Note_off_c, 0, 83, 64
1, 10572, Note_off_c, 0, 85, 64
1, 10573, Note_off_c, 0, 30, 64
1, 10573, Note_on_c, 0, 31, 71
1, 10573, Note_off_c, 0, 49, 64
1, 10573, Note_on_c, 0, 60, 46
1, 10574, Note_off_c, 0, 31, 64
1, 10574, Note_on_c, 0, 35, 69
1, 10574, Note_on_c, 0, 76, 34
1, 10574, Note_on_c, 0, 83, 25
1, 10574, Note_on_c, 0, 90, 26
1, 10574, Note_on_c, 0, 93, 29
1, 10574, Note_on_c, 0, 94, 27
1, 10575, Note_off_c, 0, 35, 64
1, 10575, Note_on_c, 0, 55, 65
1, 10575, Note_on_c, 0, 78, 36
1, 10575, Note_on_c, 0, 81, 30
1, 10575, Note_off_c, 0, 82, 64
1, 10575, Note_on_c, 0, 87, 31
1, 10575, Note_off_c, 0, 89, 64
1, 10576, Note_off_c, 0, 60, 64
1, 10576, Note_on_c, 0, 73, 39
1, 10576, Note_off_c, 0, 79, 64
1, 10576, Note_off_c, 0, 80, 64
1, 10577, Note_on_c, 0, 49, 79
1, 10577, Note_off_c, 0, 55, 64
1, 10577, Note_on_c, 0, 64, 39
1, 10577, Note_on_c, 0, 66, 30
1, 10577, Note_off_c, 0, 72, 64
1, 10577, Note_on_c, 0, 79, 22
1, 10577, Note_off_c, 0, 92, 64
1, 10577, Note_off_c, 0, 94, 64
1, 10578, Note_on_c, 0, 45, 91
1, 10578, Note_off_c, 0, 49, 64
1, 10578, Note_off_c, 0, 73, 64
1, 10578, Note_off_c, 0, 78, 64
1, 10578, Note_off_c, 0, 88, 64
1, 10578, Note_off_c, 0, 90, 64
1, 10579, Note_on_c, 0, 42, 97
1, 10579, Note_off_c, 0, 45, 64
1, 10579, Note_off_c, 0, 66, 64
1, 10579, Note_on_c, 0, 69, 10
1, 10579, Note_off_c, 0, 76, 64
1, 10579, Note_off_c, 0, 81, 64
1, 10579, Note_on_c, 0, 85, 15
1, 10579, Note_off_c, 0, 87, 64
1, 10580, Note_on_c, 0, 41, 99
1, 10580, Note_off_c, 0, 42, 64
1, 10581, Note_on_c, 0, 38, 97
1, 10581, Note_off_c, 0, 41, 64
1, 10581, Note_off_c, 0, 64, 64
1, 10581, Note_off_c, 0, 83, 64
1, 10582, Note_on_c, 0, 37, 98
1, 10582, Note_off_c, 0, 38, 64
1, 10582, Note_off_c, 0, 69, 64
1, 10582, Note_off_c, 0, 85, 64
1, 10582, Note_off_c, 0, 93, 64
1, 10583, Note_on_c, 0, 36, 96
1, 10583, Note_off_c, 0, 37, 64
1, 10584, Note_on_c, 0, 35, 95
1, 10584, Note_off_c, 0, 36, 64
1, 10584, Note_on_c, 0, 78, 9
1, 10585, Note_on_c, 0, 34, 95
1, 10585, Note_off_c, 0, 35, 64
1, 10585, Note_on_c, 0, 68, 13
1, 10585, Note_off_c, 0, 79, 64
1, 10585, Note_on_c, 0, 84, 25
1, 10586, Note_on_c, 0, 33, 96
1, 10586, Note_off_c, 0, 34, 64
1, 10587, Note_on_c, 0, 32, 96
1, 10587, Note_off_c, 0, 33, 64
1, 10587, Note_off_c, 0, 78, 64
1, 10587, Note_on_c, 0, 86, 11
1, 10587, Note_on_c, 0, 89, 17
1, 10587, Note_on_c, 0, 93, 12
1, 10588, Note_on_c, 0, 31, 95
1, 10588, Note_off_c, 0, 32, 64
1, 10588, Note_on_c, 0, 83, 18
1, 10589, Note_on_c, 0, 79, 19
1, 10590, Note_off_c, 0, 86, 64
1, 10590, Note_on_c, 0, 87, 33
1, 10590, Note_off_c, 0, 89, 64
1, 10590, Note_on_c, 0, 94, 25
1, 10591, Note_on_c, 0, 30, 79
1, 10591, Note_off_c, 0, 31, 64
1, 10592, Note_off_c, 0, 68, 64
1, 10592, Note_on_c, 0, 86, 24
1, 10592, Note_on_c, 0, 89, 21
1, 10593, Note_off_c, 0, 30, 64
1, 10593, Note_on_c, 0, 65, 32
1, 10593, Note_off_c, 0, 93, 64
1, 10594, Note_on_c, 0, 73, 29
1, 10594, Note_off_c, 0, 79, 64
1, 10594, Note_on_c, 0, 80, 18
1, 10594, Note_off_c, 0, 83, 64
1, 10594, Note_on_c, 0, 88, 18
1, 10594, Note_on_c, 0, 91, 15
1, 10594, Note_on_c, 0, 93, 14
1, 10595, Note_on_c, 0, 36, 69
1, 10595, Note_on_c, 0, 61, 30
1, 10595, Note_on_c, 0, 64, 31
1, 10595, Note_off_c, 0, 65, 64
1, 10595, Note_on_c, 0, 68, 36
1, 10595, Note_off_c, 0, 84, 64
1, 10595, Note_on_c, 0, 85, 34
1, 10596, Note_on_c, 0, 31, 75
1, 10596, Note_off_c, 0, 36, 64
1, 10596, Note_on_c, 0, 49, 58
1, 10596, Note_on_c, 0, 81, 19
1, 10596, Note_off_c, 0, 94, 64
1, 10597, Note_on_c, 0, 30, 79
1, 10597, Note_off_c, 0, 31, 64
1, 10597, Note_on_c, 0, 78, 28
1, 10597, Note_off_c, 0, 80, 64
1, 10597, Note_on_c, 0, 83, 21
1, 10597, Note_off_c, 0, 88, 64
1, 10598, Note_on_c, 0, 29, 78
1, 10598, Note_off_c, 0, 30, 64
1, 10598, Note_off_c, 0, 64, 64
1, 10598, Note_off_c, 0, 86, 64
1, 10598, Note_off_c, 0, 91, 64
1, 10598, Note_off_c, 0, 93, 64
1, 10599, Note_off_c, 0, 29, 64
1, 10599, Note_on_c, 0, 30, 75
1, 10599, Note_off_c, 0, 49, 64
1, 10599, Note_on_c, 0, 74, 19
1, 10599, Note_on_c, 0, 86, 31
1, 10599, Note_on_c, 0, 92, 23
1, 10600, Note_off_c, 0, 61, 64
1, 10600, Note_off_c, 0, 81, 64
1, 10600, Note_off_c, 0, 85, 64
1, 10600, Note_off_c, 0, 89, 64
1, 10601, Note_on_c, 0, 29, 74
1, 10601, Note_off_c, 0, 30, 64
1, 10601, Note_on_c, 0, 84, 16
1, 10602, Note_on_c, 0, 58, 30
1, 10602, Note_on_c, 0, 64, 30
1, 10602, Note_off_c, 0, 83, 64
1, 10602, Note_on_c, 0, 89, 24
1, 10603, Note_on_c, 0, 42, 67
1, 10603, Note_off_c, 0, 74, 64
1, 10603, Note_off_c, 0, 86, 64
1, 10603, Note_off_c, 0, 87, 64
1, 10603, Note_on_c, 0, 94, 21
1, 10604, Note_off_c, 0, 29, 64
1, 10604, Note_on_c, 0, 30, 78
1, 10604, Note_off_c, 0, 58, 64
1, 10604, Note_on_c, 0, 82, 38
1, 10604, Note_off_c, 0, 84, 64
1, 10605, Note_off_c, 0, 42, 64
1, 10605, Note_on_c, 0, 74, 21
1, 10605, Note_on_c, 0, 77, 18
1, 10605, Note_on_c, 0, 87, 20
1, 10605, Note_on_c, 0, 95, 29
1, 10606, Note_on_c, 0, 60, 31
1, 10606, Note_on_c, 0, 63, 39
1, 10606, Note_off_c, 0, 64, 64
1, 10606, Note_off_c, 0, 73, 64
1, 10606, Note_on_c, 0, 84, 41
1, 10607, Note_on_c, 0, 49, 58
1, 10608, Note_off_c, 0, 60, 64
1, 10608, Note_off_c, 0, 63, 64
1, 10608, Note_off_c, 0, 74, 64
1, 10608, Note_off_c, 0, 77, 64
1, 10608, Note_on_c, 0, 83, 12
1, 10608, Note_off_c, 0, 87, 64
1, 10608, Note_off_c, 0, 89, 64
1, 10608, Note_off_c, 0, 95, 64
1, 10609, Note_on_c, 0, 48, 56
1, 10609, Note_off_c, 0, 49, 64
1, 10609, Note_off_c, 0, 94, 64
1, 10610, Note_off_c, 0, 68, 64
1, 10610, Note_off_c, 0, 78, 64
1, 10610, Note_on_c, 0, 91, 26
1, 10610, Note_off_c, 0, 92, 64
1, 10611, Note_off_c, 0, 30, 64
1, 10611, Note_on_c, 0, 34, 71
1, 10611, Note_off_c, 0, 48, 64
1, 10611, Note_on_c, 0, 70, 46
1, 10611, Note_on_c, 0, 79, 39
1, 10611, Note_on_c, 0, 85, 32
1, 10611, Note_on_c, 0, 89, 29
1, 10612, Note_off_c, 0, 34, 64
1, 10612, Note_on_c, 0, 56, 55
1, 10612, Note_on_c, 0, 64, 45
1, 10612, Note_on_c, 0, 67, 45
1, 10612, Note_on_c, 0, 81, 39
1, 10612, Note_off_c, 0, 83, 64
1, 10612, Note_on_c, 0, 87, 33
1, 10612, Note_on_c, 0, 95, 24
1, 10613, Note_off_c, 0, 82, 64
1, 10613, Note_off_c, 0, 85, 64
1, 10614, Note_on_c, 0, 51, 75
1, 10614, Note_off_c, 0, 56, 64
1, 10614, Note_off_c, 0, 64, 64
1, 10614, Note_off_c, 0, 67, 64
1, 10614, Note_on_c, 0, 85, 18
1, 10614, Note_off_c, 0, 91, 64
1, 10615, Note_on_c, 0, 48, 86
1, 10615, Note_off_c, 0, 51, 64
1, 10615, Note_off_c, 0, 70, 64
1, 10615, Note_off_c, 0, 79, 64
1, 10615, Note_off_c, 0, 81, 64
1, 10615, Note_off_c, 0, 84, 64
1, 10615, Note_off_c, 0, 87, 64
1, 10615, Note_off_c, 0, 89, 64
1, 10616, Note_on_c, 0, 45, 95
1, 10616, Note_off_c, 0, 48, 64
1, 10617, Note_on_c, 0, 42, 100
1, 10617, Note_off_c, 0, 45, 64
1, 10617, Note_off_c, 0, 85, 64
1, 10617, Note_on_c, 0, 96, 17
1, 10618, Note_on_c, 0, 40, 96
1, 10618, Note_off_c, 0, 42, 64
1, 10618, Note_on_c, 0, 79, 11
1, 10618, Note_off_c, 0, 95, 64
1, 10619, Note_on_c, 0, 38, 98
1, 10619, Note_off_c, 0, 40, 64
1, 10619, Note_on_c, 0, 86, 11
1, 10620, Note_on_c, 0, 36, 97
1, 10620, Note_off_c, 0, 38, 64
1, 10620, Note_on_c, 0, 89, 11
1, 10621, Note_on_c, 0, 35, 96
1, 10621, Note_off_c, 0, 36, 64
1, 10622, Note_on_c, 0, 34, 96
1, 10622, Note_off_c, 0, 35, 64
1, 10622, Note_off_c, 0, 79, 64
1, 10622, Note_off_c, 0, 96, 64
1, 10623, Note_on_c, 0, 33, 95
1, 10623, Note_off_c, 0, 34, 64
1, 10623, Note_on_c, 0, 48, 35
1, 10623, Note_on_c, 0, 81, 15
1, 10623, Note_off_c, 0, 86, 64
1, 10624, Note_on_c, 0, 32, 96
1, 10624, Note_off_c, 0, 33, 64
1, 10625, Note_on_c, 0, 68, 20
1, 10625, Note_on_c, 0, 85, 16
1, 10626, Note_on_c, 0, 31, 94
1, 10626, Note_off_c, 0, 32, 64
1, 10626, Note_off_c, 0, 81, 64
1, 10628, Note_on_c, 0, 30, 83
1, 10628, Note_off_c, 0, 31, 64
1, 10628, Note_off_c, 0, 48, 64
1, 10628, Note_off_c, 0, 89, 64
1, 10629, Note_on_c, 0, 83, 22
1, 10629, Note_on_c, 0, 92, 16
1, 10630, Note_on_c, 0, 59, 30
1, 10630, Note_off_c, 0, 85, 64
1, 10630, Note_on_c, 0, 97, 35
1, 10631, Note_off_c, 0, 30, 64
1, 10631, Note_on_c, 0, 64, 31
1, 10631, Note_on_c, 0, 77, 19
1, 10631, Note_on_c, 0, 85, 31
1, 10632, Note_on_c, 0, 36, 67
1, 10632, Note_off_c, 0, 59, 64
1, 10632, Note_off_c, 0, 68, 64
1, 10632, Note_on_c, 0, 86, 26
1, 10632, Note_on_c, 0, 87, 22
1, 10632, Note_off_c, 0, 92, 64
1, 10633, Note_on_c, 0, 31, 74
1, 10633, Note_off_c, 0, 36, 64
1, 10633, Note_on_c, 0, 49, 61
1, 10633, Note_on_c, 0, 70, 18
1, 10633, Note_on_c, 0, 81, 17
1, 10633, Note_on_c, 0, 89, 28
1, 10633, Note_on_c, 0, 90, 20
1, 10633, Note_on_c, 0, 92, 18
1, 10634, Note_on_c, 0, 30, 80
1, 10634, Note_off_c, 0, 31, 64
1, 10635, Note_on_c, 0, 29, 80
1, 10635, Note_off_c, 0, 30, 64
1, 10635, Note_on_c, 0, 54, 45
1, 10635, Note_on_c, 0, 71, 31
1, 10635, Note_off_c, 0, 77, 64
1, 10635, Note_on_c, 0, 79, 24
1, 10635, Note_on_c, 0, 84, 32
1, 10636, Note_off_c, 0, 29, 64
1, 10636, Note_on_c, 0, 30, 77
1, 10636, Note_off_c, 0, 49, 64
1, 10636, Note_off_c, 0, 70, 64
1, 10636, Note_on_c, 0, 80, 17
1, 10636, Note_off_c, 0, 85, 64
1, 10636, Note_off_c, 0, 87, 64
1, 10636, Note_off_c, 0, 92, 64
1, 10637, Note_off_c, 0, 54, 64
1, 10637, Note_off_c, 0, 64, 64
1, 10637, Note_off_c, 0, 81, 64
1, 10637, Note_on_c, 0, 87, 22
1, 10637, Note_on_c, 0, 93, 13
1, 10638, Note_on_c, 0, 49, 49
1, 10638, Note_on_c, 0, 81, 20
1, 10638, Note_off_c, 0, 83, 64
1, 10638, Note_on_c, 0, 88, 20
1, 10639, Note_on_c, 0, 29, 74
1, 10639, Note_off_c, 0, 30, 64
1, 10639, Note_off_c, 0, 80, 64
1, 10639, Note_off_c, 0, 86, 64
1, 10639, Note_off_c, 0, 90, 64
1, 10640, Note_off_c, 0, 49, 64
1, 10640, Note_off_c, 0, 84, 64
1, 10640, Note_on_c, 0, 86, 18
1, 10640, Note_off_c, 0, 87, 64
1, 10640, Note_off_c, 0, 93, 64
1, 10641, Note_off_c, 0, 88, 64
1, 10642, Note_off_c, 0, 29, 64
1, 10642, Note_on_c, 0, 30, 72
1, 10642, Note_on_c, 0, 61, 32
1, 10642, Note_on_c, 0, 68, 22
1, 10642, Note_off_c, 0, 71, 64
1, 10643, Note_off_c, 0, 30, 64
1, 10643, Note_on_c, 0, 31, 78
1, 10643, Note_on_c, 0, 74, 17
1, 10643, Note_off_c, 0, 79, 64
1, 10644, Note_on_c, 0, 30, 80
1, 10644, Note_off_c, 0, 31, 64
1, 10644, Note_on_c, 0, 71, 32
1, 10644, Note_off_c, 0, 86, 64
1, 10645, Note_on_c, 0, 29, 78
1, 10645, Note_off_c, 0, 30, 64
1, 10645, Note_off_c, 0, 61, 64
1, 10645, Note_off_c, 0, 68, 64
1, 10645, Note_off_c, 0, 81, 64
1, 10645, Note_off_c, 0, 89, 64
1, 10646, Note_on_c, 0, 61, 19
1, 10646, Note_on_c, 0, 64, 18
1, 10646, Note_off_c, 0, 71, 64
1, 10647, Note_off_c, 0, 29, 64
1, 10647, Note_on_c, 0, 30, 72
1, 10647, Note_off_c, 0, 74, 64
1, 10647, Note_on_c, 0, 87, 30
1, 10647, Note_on_c, 0, 88, 32
1, 10648, Note_off_c, 0, 30, 64
1, 10648, Note_on_c, 0, 33, 72
1, 10648, Note_on_c, 0, 48, 52
1, 10648, Note_on_c, 0, 98, 22
1, 10649, Note_off_c, 0, 33, 64
1, 10649, Note_on_c, 0, 35, 68
1, 10649, Note_off_c, 0, 61, 64
1, 10649, Note_on_c, 0, 67, 44
1, 10649, Note_on_c, 0, 76, 36
1, 10649, Note_on_c, 0, 80, 40
1, 10649, Note_on_c, 0, 82, 32
1, 10649, Note_on_c, 0, 84, 34
1, 10649, Note_on_c, 0, 89, 28
1, 10649, Note_on_c, 0, 91, 32
1, 10649, Note_on_c, 0, 93, 23
1, 10650, Note_off_c, 0, 35, 64
1, 10650, Note_off_c, 0, 48, 64
1, 10650, Note_on_c, 0, 54, 67
1, 10650, Note_off_c, 0, 64, 64
1, 10650, Note_on_c, 0, 72, 40
1, 10650, Note_on_c, 0, 86, 32
1, 10651, Note_off_c, 0, 67, 64
1, 10651, Note_on_c, 0, 90, 22
1, 10652, Note_on_c, 0, 49, 81
1, 10652, Note_off_c, 0, 54, 64
1, 10652, Note_off_c, 0, 72, 64
1, 10652, Note_off_c, 0, 80, 64
1, 10652, Note_on_c, 0, 81, 21
1, 10652, Note_off_c, 0, 82, 64
1, 10652, Note_off_c, 0, 88, 64
1, 10652, Note_off_c, 0, 89, 64
1, 10652, Note_off_c, 0, 91, 64
1, 10652, Note_off_c, 0, 93, 64
1, 10652, Note_off_c, 0, 97, 64
1, 10652, Note_off_c, 0, 98, 64
1, 10653, Note_on_c, 0, 45, 92
1, 10653, Note_off_c, 0, 49, 64
1, 10653, Note_off_c, 0, 76, 64
1, 10654, Note_on_c, 0, 42, 98
1, 10654, Note_off_c, 0, 45, 64
1, 10654, Note_off_c, 0, 87, 64
1, 10654, Note_off_c, 0, 90, 64
1, 10655, Note_on_c, 0, 41, 99
1, 10655, Note_off_c, 0, 42, 64
1, 10656, Note_on_c, 0, 38, 98
1, 10656, Note_off_c, 0, 41, 64
1, 10656, Note_off_c, 0, 81, 64
1, 10657, Note_on_c, 0, 37, 98
1, 10657, Note_off_c, 0, 38, 64
1, 10657, Note_on_c, 0, 87, 18
1, 10658, Note_on_c, 0, 36, 97
1, 10658, Note_off_c, 0, 37, 64
1, 10658, Note_off_c, 0, 84, 64
1, 10658, Note_off_c, 0, 86, 64
1, 10659, Note_on_c, 0, 34, 96
1, 10659, Note_off_c, 0, 36, 64
1, 10659, Note_on_c, 0, 83, 13
1, 10660, Note_on_c, 0, 33, 96
1, 10660, Note_off_c, 0, 34, 64
1, 10660, Note_on_c, 0, 70, 17
1, 10660, Note_on_c, 0, 82, 18
1, 10660, Note_on_c, 0, 85, 17
1, 10661, Note_on_c, 0, 67, 12
1, 10662, Note_on_c, 0, 32, 96
1, 10662, Note_off_c, 0, 33, 64
1, 10662, Note_on_c, 0, 90, 14
1, 10663, Note_on_c, 0, 31, 94
1, 10663, Note_off_c, 0, 32, 64
1, 10663, Note_off_c, 0, 82, 64
1, 10663, Note_off_c, 0, 85, 64
1, 10664, Note_off_c, 0, 67, 64
1, 10664, Note_off_c, 0, 83, 64
1, 10664, Note_on_c, 0, 86, 11
1, 10665, Note_on_c, 0, 85, 20
1, 10665, Note_off_c, 0, 87, 64
1, 10666, Note_on_c, 0, 30, 77
1, 10666, Note_off_c, 0, 31, 64
1, 10666, Note_on_c, 0, 78, 11
1, 10667, Note_on_c, 0, 83, 14
1, 10667, Note_on_c, 0, 88, 16
1, 10667, Note_off_c, 0, 90, 64
1, 10668, Note_off_c, 0, 30, 64
1, 10668, Note_on_c, 0, 69, 19
1, 10668, Note_off_c, 0, 70, 64
1, 10668, Note_off_c, 0, 85, 64
1, 10668, Note_off_c, 0, 86, 64
1, 10669, Note_on_c, 0, 36, 71
1, 10669, Note_on_c, 0, 74, 28
1, 10669, Note_off_c, 0, 78, 64
1, 10669, Note_on_c, 0, 90, 23
1, 10670, Note_on_c, 0, 54, 52
1, 10670, Note_on_c, 0, 61, 27
1, 10670, Note_on_c, 0, 68, 24
1, 10670, Note_off_c, 0, 83, 64
1, 10670, Note_on_c, 0, 87, 19
1, 10671, Note_on_c, 0, 31, 78
1, 10671, Note_off_c, 0, 36, 64
1, 10671, Note_off_c, 0, 69, 64
1, 10672, Note_on_c, 0, 29, 79
1, 10672, Note_off_c, 0, 31, 64
1, 10672, Note_on_c, 0, 72, 34
1, 10672, Note_on_c, 0, 81, 15
1, 10673, Note_off_c, 0, 54, 64
1, 10673, Note_on_c, 0, 99, 25
1, 10674, Note_off_c, 0, 29, 64
1, 10674, Note_on_c, 0, 30, 75
1, 10674, Note_off_c, 0, 61, 64
1, 10674, Note_off_c, 0, 74, 64
1, 10675, Note_off_c, 0, 81, 64
1, 10675, Note_on_c, 0, 83, 19
1, 10675, Note_on_c, 0, 86, 25
1, 10675, Note_off_c, 0, 87, 64
1, 10675, Note_off_c, 0, 88, 64
1, 10675, Note_on_c, 0, 89, 24
1, 10676, Note_on_c, 0, 29, 73
1, 10676, Note_off_c, 0, 30, 64
1, 10676, Note_on_c, 0, 62, 22
1, 10677, Note_on_c, 0, 66, 35
1, 10677, Note_off_c, 0, 68, 64
1, 10677, Note_on_c, 0, 82, 15
1, 10678, Note_on_c, 0, 87, 14
1, 10678, Note_on_c, 0, 100, 23
1, 10679, Note_off_c, 0, 29, 64
1, 10679, Note_on_c, 0, 30, 80
1, 10679, Note_on_c, 0, 43, 66
1, 10679, Note_off_c, 0, 62, 64
1, 10679, Note_off_c, 0, 72, 64
1, 10680, Note_off_c, 0, 43, 64
1, 10680, Note_on_c, 0, 74, 25
1, 10680, Note_on_c, 0, 81, 27
1, 10680, Note_off_c, 0, 82, 64
1, 10680, Note_off_c, 0, 83, 64
1, 10681, Note_on_c, 0, 49, 55
1, 10681, Note_on_c, 0, 60, 29
1, 10681, Note_on_c, 0, 69, 24
1, 10681, Note_off_c, 0, 87, 64
1, 10681, Note_off_c, 0, 90, 64
1, 10682, Note_on_c, 0, 76, 16
1, 10683, Note_off_c, 0, 49, 64
1, 10683, Note_off_c, 0, 60, 64
1, 10684, Note_off_c, 0, 74, 64
1, 10685, Note_off_c, 0, 69, 64
1, 10686, Note_off_c, 0, 30, 64
1, 10686, Note_on_c, 0, 34, 70
1, 10686, Note_on_c, 0, 54, 31
1, 10686, Note_off_c, 0, 66, 64
1, 10686, Note_on_c, 0, 74, 32
1, 10686, Note_on_c, 0, 79, 32
1, 10686, Note_on_c, 0, 80, 34
1, 10686, Note_on_c, 0, 83, 29
1, 10686, Note_on_c, 0, 90, 30
1, 10687, Note_off_c, 0, 34, 64
1, 10687, Note_on_c, 0, 73, 40
1, 10687, Note_off_c, 0, 76, 64
1, 10687, Note_on_c, 0, 87, 33
1, 10687, Note_on_c, 0, 88, 26
1, 10687, Note_on_c, 0, 91, 34
1, 10687, Note_on_c, 0, 94, 23
1, 10687, Note_on_c, 0, 96, 20
1, 10688, Note_off_c, 0, 54, 64
1, 10688, Note_off_c, 0, 74, 64
1, 10688, Note_on_c, 0, 76, 37
1, 10688, Note_on_c, 0, 78, 37
1, 10688, Note_off_c, 0, 79, 64
1, 10688, Note_off_c, 0, 81, 64
1, 10688, Note_off_c, 0, 86, 64
1, 10689, Note_on_c, 0, 51, 76
1, 10689, Note_off_c, 0, 73, 64
1, 10689, Note_on_c, 0, 79, 22
1, 10689, Note_on_c, 0, 84, 19
1, 10689, Note_off_c, 0, 100, 64
1, 10690, Note_on_c, 0, 46, 86
1, 10690, Note_off_c, 0, 51, 64
1, 10690, Note_off_c, 0, 76, 64
1, 10690, Note_off_c, 0, 78, 64
1, 10690, Note_off_c, 0, 80, 64
1, 10690, Note_off_c, 0, 99, 64
1, 10691, Note_on_c, 0, 44, 94
1, 10691, Note_off_c, 0, 46, 64
1, 10691, Note_on_c, 0, 81, 11
1, 10691, Note_on_c, 0, 82, 13
1, 10691, Note_off_c, 0, 83, 64
1, 10691, Note_on_c, 0, 86, 17
1, 10691, Note_off_c, 0, 87, 64
1, 10691, Note_off_c, 0, 88, 64
1, 10692, Note_on_c, 0, 41, 100
1, 10692, Note_off_c, 0, 44, 64
1, 10692, Note_off_c, 0, 79, 64
1, 10692, Note_on_c, 0, 85, 16
1, 10693, Note_on_c, 0, 39, 96
1, 10693, Note_off_c, 0, 41, 64
1, 10694, Note_on_c, 0, 37, 98
1, 10694, Note_off_c, 0, 39, 64
1, 10694, Note_off_c, 0, 91, 64
1, 10694, Note_off_c, 0, 96, 64
1, 10695, Note_on_c, 0, 36, 97
1, 10695, Note_off_c, 0, 37, 64
1, 10695, Note_off_c, 0, 81, 64
1, 10695, Note_off_c, 0, 84, 64
1, 10695, Note_off_c, 0, 85, 64
1, 10695, Note_off_c, 0, 90, 64
1, 10696, Note_on_c, 0, 35, 96
1, 10696, Note_off_c, 0, 36, 64
1, 10696, Note_off_c, 0, 86, 64
1, 10696, Note_off_c, 0, 89, 64
1, 10696, Note_on_c, 0, 90, 11
1, 10696, Note_off_c, 0, 94, 64
1, 10697, Note_on_c, 0, 34, 96
1, 10697, Note_off_c, 0, 35, 64
1, 10697, Note_on_c, 0, 85, 12
1, 10698, Note_on_c, 0, 33, 95
1, 10698, Note_off_c, 0, 34, 64
1, 10699, Note_on_c, 0, 32, 96
1, 10699, Note_off_c, 0, 33, 64
1, 10699, Note_on_c, 0, 49, 31
1, 10699, Note_off_c, 0, 82, 64
1, 10699, Note_on_c, 0, 83, 16
1, 10699, Note_on_c, 0, 88, 14
1, 10699, Note_on_c, 0, 91, 11
1, 10700, Note_off_c, 0, 85, 64
1, 10700, Note_off_c, 0, 90, 64
1, 10700, Note_on_c, 0, 101, 13
1, 10701, Note_on_c, 0, 31, 94
1, 10701, Note_off_c, 0, 32, 64
1, 10702, Note_off_c, 0, 49, 64
1, 10702, Note_on_c, 0, 71, 16
1, 10702, Note_off_c, 0, 91, 64
1, 10703, Note_on_c, 0, 30, 82
1, 10703, Note_off_c, 0, 31, 64
1, 10703, Note_off_c, 0, 101, 64
1, 10703, Note_on_c, 0, 102, 21
1, 10704, Note_on_c, 0, 81, 18
1, 10704, Note_on_c, 0, 86, 24
1, 10705, Note_off_c, 0, 71, 64
1, 10705, Note_on_c, 0, 80, 11
1, 10705, Note_off_c, 0, 83, 64
1, 10706, Note_off_c, 0, 30, 64
1, 10706, Note_on_c, 0, 84, 26
1, 10706, Note_on_c, 0, 90, 20
1, 10706, Note_on_c, 0, 95, 16
1, 10706, Note_on_c, 0, 101, 37
1, 10707, Note_on_c, 0, 36, 68
1, 10707, Note_off_c, 0, 102, 64
1, 10708, Note_on_c, 0, 31, 75
1, 10708, Note_off_c, 0, 36, 64
1, 10708, Note_on_c, 0, 61, 29
1, 10708, Note_on_c, 0, 64, 33
1, 10708, Note_off_c, 0, 80, 64
1, 10709, Note_on_c, 0, 30, 81
1, 10709, Note_off_c, 0, 31, 64
1, 10709, Note_on_c, 0, 89, 15
1, 10710, Note_on_c, 0, 29, 80
1, 10710, Note_off_c, 0, 30, 64
1, 10710, Note_on_c, 0, 49, 52
1, 10710, Note_off_c, 0, 61, 64
1, 10710, Note_off_c, 0, 64, 64
1, 10710, Note_on_c, 0, 77, 25
1, 10710, Note_on_c, 0, 79, 18
1, 10710, Note_off_c, 0, 88, 64
1, 10710, Note_off_c, 0, 90, 64
1, 10710, Note_off_c, 0, 95, 64
1, 10711, Note_off_c, 0, 29, 64
1, 10711, Note_on_c, 0, 30, 75
1, 10711, Note_on_c, 0, 64, 30
1, 10711, Note_off_c, 0, 84, 64
1, 10712, Note_on_c, 0, 70, 29
1, 10712, Note_off_c, 0, 81, 64
1, 10712, Note_on_c, 0, 83, 28
1, 10712, Note_off_c, 0, 89, 64
1, 10713, Note_off_c, 0, 49, 64
1, 10713, Note_on_c, 0, 54, 41
1, 10713, Note_on_c, 0, 102, 33
1, 10714, Note_on_c, 0, 29, 73
1, 10714, Note_off_c, 0, 30, 64
1, 10714, Note_off_c, 0, 64, 64
1, 10714, Note_on_c, 0, 76, 14
1, 10714, Note_off_c, 0, 77, 64
1, 10714, Note_on_c, 0, 78, 16
1, 10714, Note_off_c, 0, 79, 64
1, 10714, Note_on_c, 0, 81, 25
1, 10715, Note_off_c, 0, 54, 64
1, 10715, Note_on_c, 0, 85, 23
1, 10716, Note_on_c, 0, 88, 19
1, 10716, Note_on_c, 0, 89, 19
1, 10716, Note_on_c, 0, 91, 13
1, 10717, Note_off_c, 0, 29, 64
1, 10717, Note_on_c, 0, 30, 78
1, 10717, Note_on_c, 0, 61, 37
1, 10717, Note_on_c, 0, 77, 25
1, 10717, Note_off_c, 0, 81, 64
1, 10718, Note_on_c, 0, 64, 38
1, 10718, Note_on_c, 0, 68, 35
1, 10718, Note_off_c, 0, 78, 64
1, 10718, Note_on_c, 0, 79, 26
1, 10718, Note_on_c, 0, 81, 22
1, 10718, Note_off_c, 0, 101, 64
1, 10719, Note_off_c, 0, 70, 64
1, 10719, Note_off_c, 0, 76, 64
1, 10719, Note_off_c, 0, 85, 64
1, 10719, Note_off_c, 0, 91, 64
1, 10719, Note_on_c, 0, 103, 33
1, 10720, Note_off_c, 0, 61, 64
1, 10720, Note_on_c, 0, 74, 14
1, 10720, Note_off_c, 0, 77, 64
1, 10721, Note_on_c, 0, 63, 18
1, 10721, Note_off_c, 0, 64, 64
1, 10721, Note_on_c, 0, 67, 31
1, 10721, Note_off_c, 0, 68, 64
1, 10721, Note_off_c, 0, 79, 64
1, 10721, Note_on_c, 0, 85, 30
1, 10722, Note_on_c, 0, 82, 36
1, 10722, Note_off_c, 0, 83, 64
1, 10722, Note_off_c, 0, 88, 64
1, 10722, Note_off_c, 0, 89, 64
1, 10722, Note_on_c, 0, 92, 29
1, 10723, Note_off_c, 0, 30, 64
1, 10723, Note_on_c, 0, 33, 72
1, 10723, Note_off_c, 0, 67, 64
1, 10723, Note_off_c, 0, 74, 64
1, 10723, Note_on_c, 0, 76, 34
1, 10723, Note_off_c, 0, 81, 64
1, 10723, Note_off_c, 0, 86, 64
1, 10723, Note_on_c, 0, 98, 19
1, 10723, Note_off_c, 0, 103, 64
1, 10724, Note_off_c, 0, 33, 64
1, 10724, Note_on_c, 0, 34, 65
1, 10724, Note_on_c, 0, 68, 43
1, 10724, Note_on_c, 0, 75, 38
1, 10724, Note_on_c, 0, 79, 40
1, 10724, Note_on_c, 0, 81, 35
1, 10724, Note_on_c, 0, 89, 29
1, 10724, Note_on_c, 0, 90, 32
1, 10724, Note_on_c, 0, 95, 22
1, 10724, Note_on_c, 0, 96, 24
1, 10725, Note_off_c, 0, 34, 64
1, 10725, Note_off_c, 0, 63, 64
1, 10725, Note_on_c, 0, 72, 42
1, 10726, Note_on_c, 0, 53, 69
1, 10726, Note_on_c, 0, 66, 47
1, 10726, Note_off_c, 0, 68, 64
1, 10726, Note_off_c, 0, 76, 64
1, 10726, Note_off_c, 0, 79, 64
1, 10726, Note_off_c, 0, 81, 64
1, 10726, Note_off_c, 0, 102, 64
1, 10727, Note_on_c, 0, 48, 83
1, 10727, Note_off_c, 0, 53, 64
1, 10727, Note_on_c, 0, 70, 11
1, 10727, Note_off_c, 0, 72, 64
1, 10727, Note_off_c, 0, 75, 64
1, 10727, Note_off_c, 0, 82, 64
1, 10727, Note_off_c, 0, 85, 64
1, 10727, Note_off_c, 0, 92, 64
1, 10727, Note_off_c, 0, 98, 64
1, 10728, Note_on_c, 0, 45, 92
1, 10728, Note_off_c, 0, 48, 64
1, 10728, Note_off_c, 0, 66, 64
1, 10728, Note_on_c, 0, 83, 19
1, 10728, Note_off_c, 0, 90, 64
1, 10728, Note_off_c, 0, 95, 64
1, 10729, Note_on_c, 0, 42, 98
1, 10729, Note_off_c, 0, 45, 64
1, 10729, Note_on_c, 0, 79, 21
1, 10729, Note_on_c, 0, 86, 17
1, 10730, Note_on_c, 0, 40, 98
1, 10730, Note_off_c, 0, 42, 64
1, 10730, Note_off_c, 0, 70, 64
1, 10730, Note_on_c, 0, 81, 14
1, 10730, Note_off_c, 0, 89, 64
1, 10730, Note_off_c, 0, 96, 64
1, 10731, Note_on_c, 0, 38, 97
1, 10731, Note_off_c, 0, 40, 64
1, 10731, Note_off_c, 0, 83, 64
1, 10731, Note_on_c, 0, 89, 29
1, 10732, Note_on_c, 0, 37, 98
1, 10732, Note_off_c, 0, 38, 64
1, 10733, Note_on_c, 0, 35, 96
1, 10733, Note_off_c, 0, 37, 64
1, 10733, Note_off_c, 0, 86, 64
1, 10734, Note_on_c, 0, 34, 96
1, 10734, Note_off_c, 0, 35, 64
1, 10734, Note_on_c, 0, 84, 9
1, 10735, Note_on_c, 0, 33, 96
1, 10735, Note_off_c, 0, 34, 64
1, 10735, Note_on_c, 0, 69, 11
1, 10735, Note_off_c, 0, 79, 64
1, 10736, Note_on_c, 0, 32, 96
1, 10736, Note_off_c, 0, 33, 64
1, 10737, Note_off_c, 0, 81, 64
1, 10738, Note_on_c, 0, 31, 95
1, 10738, Note_off_c, 0, 32, 64
1, 10738, Note_off_c, 0, 69, 64
1, 10738, Note_off_c, 0, 84, 64
1, 10739, Note_on_c, 0, 63, 25
1, 10739, Note_on_c, 0, 78, 19
1, 10739, Note_on_c, 0, 92, 13
1, 10740, Note_on_c, 0, 85, 14
1, 10740, Note_on_c, 0, 93, 11
1, 10741, Note_on_c, 0, 30, 76
1, 10741, Note_off_c, 0, 31, 64
1, 10741, Note_on_c, 0, 88, 15
1, 10742, Note_off_c, 0, 30, 64
1, 10742, Note_on_c, 0, 86, 31
1, 10743, Note_on_c, 0, 82, 15
1, 10743, Note_on_c, 0, 90, 27
1, 10743, Note_off_c, 0, 92, 64
1, 10743, Note_off_c, 0, 93, 64
1, 10743, Note_on_c, 0, 96, 16
1, 10744, Note_off_c, 0, 63, 64
1, 10744, Note_on_c, 0, 73, 29
1, 10744, Note_on_c, 0, 77, 23
1, 10744, Note_on_c, 0, 83, 34
1, 10744, Note_on_c, 0, 84, 32
1, 10744, Note_on_c, 0, 87, 30
1, 10745, Note_on_c, 0, 36, 66
1, 10745, Note_on_c, 0, 68, 23
1, 10745, Note_off_c, 0, 78, 64
1, 10745, Note_on_c, 0, 79, 24
1, 10745, Note_on_c, 0, 81, 26
1, 10745, Note_off_c, 0, 85, 64
1, 10745, Note_off_c, 0, 88, 64
1, 10746, Note_on_c, 0, 31, 75
1, 10746, Note_off_c, 0, 36, 64
1, 10746, Note_off_c, 0, 87, 64
1, 10746, Note_on_c, 0, 88, 29
1, 10746, Note_off_c, 0, 90, 64
1, 10746, Note_on_c, 0, 91, 24
1, 10746, Note_on_c, 0, 99, 11
1, 10747, Note_on_c, 0, 29, 78
1, 10747, Note_off_c, 0, 31, 64
1, 10747, Note_on_c, 0, 61, 29
1, 10747, Note_on_c, 0, 71, 20
1, 10747, Note_off_c, 0, 77, 64
1, 10747, Note_on_c, 0, 90, 31
1, 10748, Note_off_c, 0, 29, 64
1, 10748, Note_on_c, 0, 30, 77
1, 10748, Note_off_c, 0, 68, 64
1, 10748, Note_on_c, 0, 77, 20
1, 10748, Note_off_c, 0, 82, 64
1, 10748, Note_on_c, 0, 87, 35
1, 10749, Note_on_c, 0, 66, 40
1, 10749, Note_off_c, 0, 79, 64
1, 10749, Note_off_c, 0, 88, 64
1, 10749, Note_on_c, 0, 92, 15
1, 10749, Note_off_c, 0, 99, 64
1, 10750, Note_off_c, 0, 71, 64
1, 10750, Note_on_c, 0, 75, 26
1, 10750, Note_off_c, 0, 84, 64
1, 10750, Note_off_c, 0, 89, 64
1, 10751, Note_on_c, 0, 29, 75
1, 10751, Note_off_c, 0, 30, 64
1, 10751, Note_off_c, 0, 61, 64
1, 10751, Note_off_c, 0, 73, 64
1, 10751, Note_off_c, 0, 96, 64
1, 10752, Note_on_c, 0, 58, 29
1, 10752, Note_on_c, 0, 68, 31
1, 10752, Note_off_c, 0, 91, 64
1, 10752, Note_off_c, 0, 92, 64
1, 10752, Note_on_c, 0, 101, 14
1, 10753, Note_off_c, 0, 75, 64
1, 10753, Note_on_c, 0, 100, 23
1, 10754, Note_off_c, 0, 29, 64
1, 10754, Note_on_c, 0, 30, 78
1, 10754, Note_off_c, 0, 58, 64
1, 10754, Note_on_c, 0, 61, 37
1, 10754, Note_off_c, 0, 68, 64
1, 10754, Note_on_c, 0, 69, 33
1, 10754, Note_on_c, 0, 91, 25
1, 10755, Note_off_c, 0, 77, 64
1, 10755, Note_off_c, 0, 81, 64
1, 10755, Note_off_c, 0, 86, 64
1, 10755, Note_off_c, 0, 87, 64
1, 10756, Note_off_c, 0, 69, 64
1, 10756, Note_on_c, 0, 72, 23
1, 10756, Note_on_c, 0, 75, 25
1, 10756, Note_on_c, 0, 79, 11
1, 10756, Note_on_c, 0, 88, 14
1, 10756, Note_off_c, 0, 90, 64
1, 10757, Note_on_c, 0, 29, 78
1, 10757, Note_off_c, 0, 30, 64
1, 10757, Note_on_c, 0, 49, 57
1, 10757, Note_off_c, 0, 61, 64
1, 10757, Note_off_c, 0, 101, 64
1, 10757, Note_on_c, 0, 102, 15
1, 10758, Note_off_c, 0, 29, 64
1, 10758, Note_on_c, 0, 30, 76
1, 10758, Note_on_c, 0, 65, 33
1, 10758, Note_off_c, 0, 66, 64
1, 10758, Note_on_c, 0, 68, 20
1, 10758, Note_on_c, 0, 76, 40
1, 10758, Note_off_c, 0, 91, 64
1, 10759, Note_off_c, 0, 75, 64
1, 10759, Note_off_c, 0, 79, 64
1, 10759, Note_on_c, 0, 81, 17
1, 10759, Note_on_c, 0, 86, 14
1, 10759, Note_off_c, 0, 88, 64
1, 10759, Note_off_c, 0, 100, 64
1, 10760, Note_on_c, 0, 29, 69
1, 10760, Note_off_c, 0, 30, 64
1, 10760, Note_off_c, 0, 49, 64
1, 10760, Note_on_c, 0, 54, 40
1, 10760, Note_off_c, 0, 72, 64
1, 10760, Note_on_c, 0, 73, 38
1, 10760, Note_off_c, 0, 83, 64
1, 10760, Note_on_c, 0, 89, 25
1, 10761, Note_off_c, 0, 29, 64
1, 10761, Note_on_c, 0, 34, 70
1, 10761, Note_off_c, 0, 65, 64
1, 10761, Note_on_c, 0, 66, 43
1, 10761, Note_off_c, 0, 68, 64
1, 10761, Note_on_c, 0, 71, 39
1, 10761, Note_on_c, 0, 87, 30
1, 10761, Note_on_c, 0, 92, 26
1, 10761, Note_off_c, 0, 102, 64
1, 10762, Note_off_c, 0, 34, 64
1, 10762, Note_off_c, 0, 54, 64
1, 10762, Note_on_c, 0, 77, 34
1, 10762, Note_on_c, 0, 79, 36
1, 10762, Note_on_c, 0, 80, 34
1, 10762, Note_off_c, 0, 81, 64
1, 10762, Note_on_c, 0, 82, 26
1, 10762, Note_off_c, 0, 86, 64
1, 10763, Note_off_c, 0, 66, 64
1, 10763, Note_on_c, 0, 84, 27
1, 10763, Note_on_c, 0, 86, 29
1, 10763, Note_off_c, 0, 87, 64
1, 10763, Note_on_c, 0, 90, 31
1, 10764, Note_on_c, 0, 51, 77
1, 10764, Note_off_c, 0, 71, 64
1, 10764, Note_on_c, 0, 72, 14
1, 10764, Note_off_c, 0, 73, 64
1, 10765, Note_on_c, 0, 46, 88
1, 10765, Note_off_c, 0, 51, 64
1, 10765, Note_off_c, 0, 77, 64
1, 10765, Note_off_c, 0, 86, 64
1, 10765, Note_off_c, 0, 90, 64
1, 10765, Note_off_c, 0, 92, 64
1, 10766, Note_on_c, 0, 43, 95
1, 10766, Note_off_c, 0, 46, 64
1, 10766, Note_off_c, 0, 76, 64
1, 10766, Note_off_c, 0, 79, 64
1, 10767, Note_on_c, 0, 41, 100
1, 10767, Note_off_c, 0, 43, 64
1, 10767, Note_off_c, 0, 72, 64
1, 10768, Note_on_c, 0, 39, 97
1, 10768, Note_off_c, 0, 41, 64
1, 10769, Note_on_c, 0, 37, 98
1, 10769, Note_off_c, 0, 39, 64
1, 10769, Note_on_c, 0, 72, 11
1, 10769, Note_on_c, 0, 87, 23
1, 10769, Note_on_c, 0, 91, 13
1, 10770, Note_on_c, 0, 36, 97
1, 10770, Note_off_c, 0, 37, 64
1, 10771, Note_on_c, 0, 35, 96
1, 10771, Note_off_c, 0, 36, 64
1, 10771, Note_off_c, 0, 80, 64
1, 10772, Note_on_c, 0, 34, 96
1, 10772, Note_off_c, 0, 35, 64
1, 10772, Note_off_c, 0, 82, 64
1, 10772, Note_on_c, 0, 86, 18
1, 10772, Note_on_c, 0, 90, 31
1, 10773, Note_on_c, 0, 33, 95
1, 10773, Note_off_c, 0, 34, 64
1, 10773, Note_off_c, 0, 72, 64
1, 10773, Note_on_c, 0, 82, 29
1, 10774, Note_on_c, 0, 32, 96
1, 10774, Note_off_c, 0, 33, 64
1, 10774, Note_on_c, 0, 80, 13
1, 10774, Note_off_c, 0, 84, 64
1, 10774, Note_on_c, 0, 85, 20
1, 10774, Note_off_c, 0, 87, 64
1, 10774, Note_on_c, 0, 88, 22
1, 10775, Note_on_c, 0, 81, 20
1, 10775, Note_off_c, 0, 82, 64
1, 10775, Note_on_c, 0, 87, 27
1, 10775, Note_off_c, 0, 91, 64
1, 10776, Note_on_c, 0, 31, 93
1, 10776, Note_off_c, 0, 32, 64
1, 10776, Note_off_c, 0, 86, 64
1, 10776, Note_on_c, 0, 92, 17
1, 10777, Note_off_c, 0, 80, 64
1, 10777, Note_on_c, 0, 83, 28
1, 10777, Note_off_c, 0, 89, 64
1, 10777, Note_on_c, 0, 91, 15
1, 10778, Note_on_c, 0, 30, 81
1, 10778, Note_off_c, 0, 31, 64
1, 10778, Note_off_c, 0, 88, 64
1, 10778, Note_on_c, 0, 89, 21
1, 10779, Note_on_c, 0, 88, 28
1, 10779, Note_on_c, 0, 94, 21
1, 10780, Note_off_c, 0, 30, 64
1, 10780, Note_on_c, 0, 82, 27
1, 10780, Note_off_c, 0, 85, 64
1, 10780, Note_on_c, 0, 86, 18
1, 10780, Note_off_c, 0, 87, 64
1, 10780, Note_off_c, 0, 91, 64
1, 10781, Note_on_c, 0, 64, 35
1, 10781, Note_on_c, 0, 85, 32
1, 10782, Note_on_c, 0, 36, 70
1, 10782, Note_on_c, 0, 70, 29
1, 10782, Note_on_c, 0, 78, 21
1, 10782, Note_off_c, 0, 81, 64
1, 10782, Note_off_c, 0, 83, 64
1, 10783, Note_on_c, 0, 31, 75
1, 10783, Note_off_c, 0, 36, 64
1, 10783, Note_on_c, 0, 49, 63
1, 10783, Note_on_c, 0, 83, 22
1, 10783, Note_off_c, 0, 89, 64
1, 10783, Note_on_c, 0, 93, 16
1, 10783, Note_on_c, 0, 96, 19
1, 10783, Note_on_c, 0, 101, 21
1, 10784, Note_on_c, 0, 30, 79
1, 10784, Note_off_c, 0, 31, 64
1, 10784, Note_on_c, 0, 67, 32
1, 10784, Note_on_c, 0, 69, 30
1, 10784, Note_off_c, 0, 70, 64
1, 10784, Note_on_c, 0, 71, 29
1, 10784, Note_off_c, 0, 82, 64
1, 10784, Note_off_c, 0, 86, 64
1, 10784, Note_on_c, 0, 87, 24
1, 10784, Note_on_c, 0, 89, 32
1, 10784, Note_off_c, 0, 92, 64
1, 10785, Note_on_c, 0, 29, 80
1, 10785, Note_off_c, 0, 30, 64
1, 10785, Note_on_c, 0, 48, 60
1, 10785, Note_off_c, 0, 49, 64
1, 10785, Note_on_c, 0, 77, 17
1, 10785, Note_off_c, 0, 78, 64
1, 10785, Note_on_c, 0, 82, 21
1, 10785, Note_off_c, 0, 94, 64
1, 10786, Note_off_c, 0, 29, 64
1, 10786, Note_on_c, 0, 30, 76
1, 10786, Note_off_c, 0, 96, 64
1, 10787, Note_off_c, 0, 48, 64
1, 10787, Note_on_c, 0, 49, 51
1, 10787, Note_off_c, 0, 64, 64
1, 10787, Note_off_c, 0, 69, 64
1, 10787, Note_off_c, 0, 87, 64
1, 10787, Note_off_c, 0, 93, 64
1, 10788, Note_on_c, 0, 29, 72
1, 10788, Note_off_c, 0, 30, 64
1, 10788, Note_on_c, 0, 79, 33
1, 10788, Note_off_c, 0, 83, 64
1, 10788, Note_off_c, 0, 88, 64
1, 10788, Note_on_c, 0, 103, 12
1, 10789, Note_off_c, 0, 49, 64
1, 10789, Note_off_c, 0, 67, 64
1, 10789, Note_on_c, 0, 69, 40
1, 10789, Note_on_c, 0, 73, 24
1, 10789, Note_off_c, 0, 77, 64
1, 10789, Note_off_c, 0, 82, 64
1, 10789, Note_on_c, 0, 86, 22
1, 10789, Note_on_c, 0, 92, 18
1, 10789, Note_on_c, 0, 94, 27
1, 10789, Note_on_c, 0, 95, 16
1, 10790, Note_on_c, 0, 74, 36
1, 10791, Note_off_c, 0, 29, 64
1, 10791, Note_on_c, 0, 30, 70
1, 10791, Note_on_c, 0, 64, 37
1, 10791, Note_on_c, 0, 67, 36
1, 10791, Note_off_c, 0, 71, 64
1, 10791, Note_off_c, 0, 79, 64
1, 10792, Note_off_c, 0, 30, 64
1, 10792, Note_on_c, 0, 31, 75
1, 10792, Note_on_c, 0, 48, 60
1, 10792, Note_on_c, 0, 71, 20
1, 10792, Note_off_c, 0, 73, 64
1, 10792, Note_on_c, 0, 82, 17
1, 10792, Note_on_c, 0, 84, 15
1, 10792, Note_off_c, 0, 95, 64
1, 10793, Note_on_c, 0, 30, 78
1, 10793, Note_off_c, 0, 31, 64
1, 10793, Note_off_c, 0, 67, 64
1, 10793, Note_off_c, 0, 69, 64
1, 10793, Note_off_c, 0, 86, 64
1, 10793, Note_off_c, 0, 92, 64
1, 10794, Note_off_c, 0, 48, 64
1, 10794, Note_on_c, 0, 61, 37
1, 10794, Note_off_c, 0, 85, 64
1, 10794, Note_on_c, 0, 87, 12
1, 10795, Note_off_c, 0, 64, 64
1, 10795, Note_off_c, 0, 71, 64
1, 10795, Note_on_c, 0, 72, 23
1, 10795, Note_off_c, 0, 84, 64
1, 10795, Note_on_c, 0, 85, 32
1, 10795, Note_off_c, 0, 90, 64
1, 10795, Note_on_c, 0, 102, 13
1, 10795, Note_off_c, 0, 103, 64
1, 10796, Note_on_c, 0, 29, 75
1, 10796, Note_off_c, 0, 30, 64
1, 10796, Note_on_c, 0, 60, 33
1, 10796, Note_off_c, 0, 61, 64
1, 10796, Note_on_c, 0, 79, 30
1, 10796, Note_off_c, 0, 82, 64
1, 10797, Note_off_c, 0, 29, 64
1, 10797, Note_on_c, 0, 30, 72
1, 10797, Note_on_c, 0, 67, 32
1, 10797, Note_off_c, 0, 74, 64
1, 10797, Note_on_c, 0, 76, 38
1, 10797, Note_off_c, 0, 87, 64
1, 10797, Note_on_c, 0, 93, 26
1, 10798, Note_off_c, 0, 30, 64
1, 10798, Note_on_c, 0, 33, 71
1, 10798, Note_off_c, 0, 60, 64
1, 10798, Note_off_c, 0, 72, 64
1, 10798, Note_off_c, 0, 79, 64
1, 10798, Note_on_c, 0, 80, 30
1, 10798, Note_on_c, 0, 82, 34
1, 10798, Note_on_c, 0, 84, 37
1, 10798, Note_off_c, 0, 101, 64
1, 10798, Note_off_c, 0, 102, 64
1, 10799, Note_off_c, 0, 33, 64
1, 10799, Note_on_c, 0, 35, 65
1, 10799, Note_on_c, 0, 69, 45
1, 10799, Note_on_c, 0, 90, 38
1, 10799, Note_on_c, 0, 99, 18
1, 10800, Note_off_c, 0, 35, 64
1, 10800, Note_off_c, 0, 67, 64
1, 10800, Note_on_c, 0, 72, 43
1, 10800, Note_on_c, 0, 79, 36
1, 10800, Note_off_c, 0, 80, 64
1, 10801, Note_on_c, 0, 53, 70
1, 10801, Note_on_c, 0, 63, 50
1, 10801, Note_on_c, 0, 68, 41
1, 10801, Note_off_c, 0, 69, 64
1, 10801, Note_on_c, 0, 77, 26
1, 10801, Note_off_c, 0, 82, 64
1, 10801, Note_on_c, 0, 83, 25
1, 10801, Note_on_c, 0, 92, 16
1, 10802, Note_on_c, 0, 48, 83
1, 10802, Note_off_c, 0, 53, 64
1, 10802, Note_off_c, 0, 72, 64
1, 10802, Note_off_c, 0, 76, 64
1, 10802, Note_off_c, 0, 94, 64
1, 10802, Note_off_c, 0, 99, 64
1, 10803, Note_on_c, 0, 45, 93
1, 10803, Note_off_c, 0, 48, 64
1, 10803, Note_off_c, 0, 63, 64
1, 10803, Note_on_c, 0, 66, 26
1, 10803, Note_on_c, 0, 82, 22
1, 10803, Note_off_c, 0, 85, 64
1, 10803, Note_on_c, 0, 87, 28
1, 10803, Note_off_c, 0, 89, 64
1, 10804, Note_on_c, 0, 42, 98
1, 10804, Note_off_c, 0, 45, 64
1, 10804, Note_off_c, 0, 68, 64
1, 10804, Note_off_c, 0, 79, 64
1, 10804, Note_off_c, 0, 83, 64
1, 10804, Note_off_c, 0, 93, 64
1, 10805, Note_on_c, 0, 40, 98
1, 10805, Note_off_c, 0, 42, 64
1, 10805, Note_off_c, 0, 77, 64
1, 10805, Note_on_c, 0, 85, 22
1, 10805, Note_on_c, 0, 89, 12
1, 10806, Note_on_c, 0, 38, 97
1, 10806, Note_off_c, 0, 40, 64
1, 10806, Note_off_c, 0, 82, 64
1, 10806, Note_on_c, 0, 83, 18
1, 10806, Note_off_c, 0, 84, 64
1, 10807, Note_on_c, 0, 37, 97
1, 10807, Note_off_c, 0, 38, 64
1, 10807, Note_on_c, 0, 70, 13
1, 10807, Note_on_c, 0, 80, 17
1, 10807, Note_on_c, 0, 88, 15
1, 10807, Note_on_c, 0, 94, 9
1, 10808, Note_on_c, 0, 35, 97
1, 10808, Note_off_c, 0, 37, 64
1, 10808, Note_off_c, 0, 87, 64
1, 10808, Note_off_c, 0, 89, 64
1, 10809, Note_on_c, 0, 34, 95
1, 10809, Note_off_c, 0, 35, 64
1, 10809, Note_on_c, 0, 87, 20
1, 10810, Note_on_c, 0, 33, 95
1, 10810, Note_off_c, 0, 34, 64
1, 10810, Note_on_c, 0, 63, 17
1, 10810, Note_off_c, 0, 70, 64
1, 10810, Note_off_c, 0, 80, 64
1, 10810, Note_off_c, 0, 83, 64
1, 10810, Note_off_c, 0, 88, 64
1, 10810, Note_off_c, 0, 92, 64
1, 10810, Note_off_c, 0, 94, 64
1, 10811, Note_on_c, 0, 32, 96
1, 10811, Note_off_c, 0, 33, 64
1, 10811, Note_on_c, 0, 65, 22
1, 10811, Note_off_c, 0, 66, 64
1, 10811, Note_on_c, 0, 71, 15
1, 10812, Note_on_c, 0, 76, 11
1, 10812, Note_off_c, 0, 85, 64
1, 10812, Note_on_c, 0, 88, 18
1, 10812, Note_on_c, 0, 91, 15
1, 10812, Note_on_c, 0, 93, 10
1, 10813, Note_on_c, 0, 31, 94
1, 10813, Note_off_c, 0, 32, 64
1, 10813, Note_off_c, 0, 63, 64
1, 10813, Note_on_c, 0, 81, 22
1, 10813, Note_on_c, 0, 83, 32
1, 10813, Note_on_c, 0, 85, 21
1, 10813, Note_off_c, 0, 90, 64
1, 10814, Note_off_c, 0, 65, 64
1, 10814, Note_off_c, 0, 87, 64
1, 10814, Note_on_c, 0, 90, 27
1, 10815, Note_on_c, 0, 30, 85
1, 10815, Note_off_c, 0, 31, 64
1, 10815, Note_on_c, 0, 65, 11
1, 10815, Note_off_c, 0, 76, 64
1, 10815, Note_off_c, 0, 91, 64
1, 10816, Note_on_c, 0, 74, 17
1, 10816, Note_on_c, 0, 86, 31
1, 10816, Note_on_c, 0, 89, 21
1, 10816, Note_on_c, 0, 92, 13
1, 10817, Note_off_c, 0, 30, 64
1, 10817, Note_off_c, 0, 71, 64
1, 10817, Note_off_c, 0, 85, 64
1, 10817, Note_off_c, 0, 93, 64
1, 10818, Note_on_c, 0, 42, 64
1, 10818, Note_on_c, 0, 62, 35
1, 10818, Note_on_c, 0, 77, 32
1, 10818, Note_on_c, 0, 80, 15
1, 10819, Note_off_c, 0, 65, 64
1, 10819, Note_off_c, 0, 74, 64
1, 10820, Note_on_c, 0, 31, 71
1, 10820, Note_off_c, 0, 42, 64
1, 10820, Note_off_c, 0, 62, 64
1, 10820, Note_on_c, 0, 63, 30
1, 10820, Note_off_c, 0, 90, 64
1, 10820, Note_on_c, 0, 91, 30
1, 10821, Note_on_c, 0, 30, 78
1, 10821, Note_off_c, 0, 31, 64
1, 10821, Note_off_c, 0, 80, 64
1, 10821, Note_off_c, 0, 83, 64
1, 10821, Note_on_c, 0, 84, 25
1, 10822, Note_on_c, 0, 29, 78
1, 10822, Note_off_c, 0, 30, 64
1, 10822, Note_off_c, 0, 63, 64
1, 10822, Note_on_c, 0, 71, 29
1, 10822, Note_on_c, 0, 76, 30
1, 10823, Note_on_c, 0, 62, 34
1, 10823, Note_off_c, 0, 88, 64
1, 10823, Note_off_c, 0, 91, 64
1, 10823, Note_on_c, 0, 94, 16
1, 10824, Note_on_c, 0, 67, 37
1, 10824, Note_off_c, 0, 92, 64
1, 10824, Note_on_c, 0, 96, 27
1, 10825, Note_off_c, 0, 29, 64
1, 10825, Note_on_c, 0, 30, 74
1, 10825, Note_off_c, 0, 62, 64
1, 10825, Note_off_c, 0, 71, 64
1, 10825, Note_on_c, 0, 72, 29
1, 10825, Note_on_c, 0, 82, 31
1, 10825, Note_off_c, 0, 84, 64
1, 10826, Note_on_c, 0, 29, 73
1, 10826, Note_off_c, 0, 30, 64
1, 10826, Note_off_c, 0, 76, 64
1, 10826, Note_on_c, 0, 80, 22
1, 10826, Note_off_c, 0, 81, 64
1, 10826, Note_on_c, 0, 84, 33
1, 10826, Note_on_c, 0, 91, 26
1, 10827, Note_off_c, 0, 29, 64
1, 10827, Note_on_c, 0, 30, 71
1, 10827, Note_on_c, 0, 90, 27
1, 10827, Note_on_c, 0, 95, 11
1, 10828, Note_on_c, 0, 29, 72
1, 10828, Note_off_c, 0, 30, 64
1, 10828, Note_on_c, 0, 70, 35
1, 10828, Note_off_c, 0, 72, 64
1, 10828, Note_on_c, 0, 83, 28
1, 10828, Note_on_c, 0, 93, 29
1, 10829, Note_off_c, 0, 29, 64
1, 10829, Note_on_c, 0, 30, 74
1, 10829, Note_on_c, 0, 61, 41
1, 10829, Note_off_c, 0, 67, 64
1, 10829, Note_off_c, 0, 77, 64
1, 10829, Note_on_c, 0, 87, 25
1, 10829, Note_off_c, 0, 89, 64
1, 10830, Note_off_c, 0, 30, 64
1, 10830, Note_on_c, 0, 31, 76
1, 10830, Note_on_c, 0, 49, 58
1, 10830, Note_off_c, 0, 70, 64
1, 10830, Note_on_c, 0, 79, 29
1, 10830, Note_off_c, 0, 94, 64
1, 10831, Note_on_c, 0, 30, 77
1, 10831, Note_off_c, 0, 31, 64
1, 10831, Note_on_c, 0, 66, 23
1, 10831, Note_on_c, 0, 76, 35
1, 10831, Note_on_c, 0, 81, 32
1, 10831, Note_off_c, 0, 82, 64
1, 10832, Note_on_c, 0, 29, 78
1, 10832, Note_off_c, 0, 30, 64
1, 10832, Note_off_c, 0, 61, 64
1, 10832, Note_on_c, 0, 75, 38
1, 10832, Note_off_c, 0, 95, 64
1, 10833, Note_off_c, 0, 49, 64
1, 10833, Note_on_c, 0, 68, 15
1, 10833, Note_on_c, 0, 72, 36
1, 10833, Note_off_c, 0, 76, 64
1, 10833, Note_off_c, 0, 80, 64
1, 10833, Note_off_c, 0, 84, 64
1, 10833, Note_on_c, 0, 85, 37
1, 10833, Note_on_c, 0, 89, 36
1, 10833, Note_on_c, 0, 92, 28
1, 10833, Note_off_c, 0, 96, 64
1, 10834, Note_off_c, 0, 29, 64
1, 10834, Note_on_c, 0, 30, 74
1, 10834, Note_off_c, 0, 79, 64
1, 10834, Note_on_c, 0, 82, 34
1, 10834, Note_off_c, 0, 83, 64
1, 10835, Note_off_c, 0, 66, 64
1, 10835, Note_on_c, 0, 73, 41
1, 10835, Note_on_c, 0, 80, 38
1, 10835, Note_off_c, 0, 81, 64
1, 10835, Note_off_c, 0, 87, 64
1, 10835, Note_on_c, 0, 88, 26
1, 10835, Note_off_c, 0, 90, 64
1, 10835, Note_on_c, 0, 96, 26
1, 10836, Note_off_c, 0, 30, 64
1, 10836, Note_on_c, 0, 34, 70
1, 10836, Note_off_c, 0, 68, 64
1, 10836, Note_on_c, 0, 71, 41
1, 10836, Note_off_c, 0, 72, 64
1, 10836, Note_on_c, 0, 81, 30
1, 10836, Note_on_c, 0, 84, 32
1, 10836, Note_on_c, 0, 90, 34
1, 10837, Note_off_c, 0, 34, 64
1, 10837, Note_on_c, 0, 78, 37
1, 10838, Note_on_c, 0, 64, 48
1, 10838, Note_on_c, 0, 69, 44
1, 10838, Note_off_c, 0, 71, 64
1, 10838, Note_off_c, 0, 81, 64
1, 10839, Note_on_c, 0, 51, 77
1, 10839, Note_off_c, 0, 82, 64
1, 10839, Note_off_c, 0, 86, 64
1, 10839, Note_off_c, 0, 91, 64
1, 10839, Note_off_c, 0, 93, 64
1, 10840, Note_on_c, 0, 46, 89
1, 10840, Note_off_c, 0, 51, 64
1, 10840, Note_off_c, 0, 64, 64
1, 10840, Note_off_c, 0, 75, 64
1, 10840, Note_on_c, 0, 77, 20
1, 10840, Note_on_c, 0, 83, 24
1, 10840, Note_off_c, 0, 84, 64
1, 10840, Note_on_c, 0, 91, 26
1, 10841, Note_on_c, 0, 42, 96
1, 10841, Note_off_c, 0, 46, 64
1, 10841, Note_off_c, 0, 69, 64
1, 10841, Note_off_c, 0, 90, 64
1, 10842, Note_on_c, 0, 41, 99
1, 10842, Note_off_c, 0, 42, 64
1, 10842, Note_off_c, 0, 78, 64
1, 10842, Note_off_c, 0, 88, 64
1, 10843, Note_on_c, 0, 39, 97
1, 10843, Note_off_c, 0, 41, 64
1, 10843, Note_on_c, 0, 69, 17
1, 10843, Note_on_c, 0, 88, 23
1, 10844, Note_on_c, 0, 37, 98
1, 10844, Note_off_c, 0, 39, 64
1, 10844, Note_on_c, 0, 64, 10
1, 10844, Note_off_c, 0, 85, 64
1, 10844, Note_on_c, 0, 86, 30
1, 10844, Note_off_c, 0, 92, 64
1, 10844, Note_on_c, 0, 93, 19
1, 10844, Note_off_c, 0, 96, 64
1, 10845, Note_on_c, 0, 36, 97
1, 10845, Note_off_c, 0, 37, 64
1, 10845, Note_off_c, 0, 73, 64
1, 10845, Note_off_c, 0, 77, 64
1, 10845, Note_off_c, 0, 80, 64
1, 10845, Note_on_c, 0, 81, 29
1, 10845, Note_off_c, 0, 91, 64
1, 10846, Note_on_c, 0, 35, 96
1, 10846, Note_off_c, 0, 36, 64
1, 10846, Note_on_c, 0, 71, 20
1, 10846, Note_on_c, 0, 90, 28
1, 10847, Note_on_c, 0, 34, 96
1, 10847, Note_off_c, 0, 35, 64
1, 10847, Note_off_c, 0, 64, 64
1, 10847, Note_on_c, 0, 76, 11
1, 10847, Note_on_c, 0, 80, 23
1, 10847, Note_on_c, 0, 91, 20
1, 10848, Note_on_c, 0, 33, 96
1, 10848, Note_off_c, 0, 34, 64
1, 10848, Note_on_c, 0, 74, 31
1, 10848, Note_on_c, 0, 78, 21
1, 10849, Note_on_c, 0, 32, 97
1, 10849, Note_off_c, 0, 33, 64
1, 10849, Note_off_c, 0, 83, 64
1, 10849, Note_on_c, 0, 84, 35
1, 10850, Note_on_c, 0, 31, 95
1, 10850, Note_off_c, 0, 32, 64
1, 10850, Note_off_c, 0, 76, 64
1, 10851, Note_off_c, 0, 71, 64
1, 10851, Note_off_c, 0, 80, 64
1, 10851, Note_off_c, 0, 86, 64
1, 10851, Note_on_c, 0, 87, 10
1, 10851, Note_off_c, 0, 91, 64
1, 10851, Note_on_c, 0, 92, 24
1, 10851, Note_on_c, 0, 97, 15
1, 10853, Note_on_c, 0, 30, 80
1, 10853, Note_off_c, 0, 31, 64
1, 10853, Note_off_c, 0, 89, 64
1, 10854, Note_off_c, 0, 69, 64
1, 10854, Note_off_c, 0, 87, 64
1, 10854, Note_on_c, 0, 95, 16
1, 10854, Note_off_c, 0, 97, 64
1, 10855, Note_off_c, 0, 78, 64
1, 10856, Note_off_c, 0, 30, 64
1, 10856, Note_on_c, 0, 71, 29
1, 10856, Note_on_c, 0, 79, 25
1, 10856, Note_on_c, 0, 89, 27
1, 10857, Note_on_c, 0, 36, 69
1, 10857, Note_on_c, 0, 61, 29
1, 10857, Note_on_c, 0, 66, 22
1, 10857, Note_on_c, 0, 68, 20
1, 10857, Note_off_c, 0, 74, 64
1, 10857, Note_off_c, 0, 93, 64
1, 10858, Note_on_c, 0, 31, 74
1, 10858, Note_off_c, 0, 36, 64
1, 10858, Note_on_c, 0, 54, 53
1, 10858, Note_on_c, 0, 70, 24
1, 10858, Note_off_c, 0, 71, 64
1, 10858, Note_on_c, 0, 87, 32
1, 10858, Note_off_c, 0, 90, 64
1, 10858, Note_on_c, 0, 94, 22
1, 10859, Note_on_c, 0, 30, 79
1, 10859, Note_off_c, 0, 31, 64
1, 10859, Note_off_c, 0, 61, 64
1, 10859, Note_on_c, 0, 77, 17
1, 10859, Note_off_c, 0, 79, 64
1, 10860, Note_on_c, 0, 29, 78
1, 10860, Note_off_c, 0, 30, 64
1, 10860, Note_on_c, 0, 63, 31
1, 10860, Note_off_c, 0, 66, 64
1, 10860, Note_off_c, 0, 68, 64
1, 10860, Note_on_c, 0, 79, 30
1, 10860, Note_off_c, 0, 81, 64
1, 10860, Note_on_c, 0, 82, 33
1, 10860, Note_off_c, 0, 88, 64
1, 10860, Note_off_c, 0, 95, 64
1, 10860, Note_on_c, 0, 98, 10
1, 10861, Note_off_c, 0, 29, 64
1, 10861, Note_on_c, 0, 30, 75
1, 10861, Note_off_c, 0, 54, 64
1, 10861, Note_on_c, 0, 85, 32
1, 10861, Note_on_c, 0, 88, 15
1, 10861, Note_on_c, 0, 93, 22
1, 10862, Note_off_c, 0, 70, 64
1, 10862, Note_off_c, 0, 84, 64
1, 10862, Note_on_c, 0, 91, 32
1, 10862, Note_off_c, 0, 92, 64
1, 10863, Note_on_c, 0, 29, 74
1, 10863, Note_off_c, 0, 30, 64
1, 10863, Note_on_c, 0, 48, 49
1, 10863, Note_on_c, 0, 69, 28
1, 10863, Note_on_c, 0, 72, 30
1, 10863, Note_on_c, 0, 102, 9
1, 10864, Note_off_c, 0, 63, 64
1, 10864, Note_off_c, 0, 77, 64
1, 10864, Note_off_c, 0, 88, 64
1, 10864, Note_off_c, 0, 93, 64
1, 10864, Note_off_c, 0, 98, 64
1, 10865, Note_off_c, 0, 48, 64
1, 10865, Note_on_c, 0, 93, 24
1, 10866, Note_off_c, 0, 29, 64
1, 10866, Note_on_c, 0, 30, 74
1, 10866, Note_on_c, 0, 63, 38
1, 10866, Note_on_c, 0, 90, 26
1, 10866, Note_off_c, 0, 102, 64
1, 10867, Note_on_c, 0, 68, 26
1, 10867, Note_off_c, 0, 69, 64
1, 10867, Note_on_c, 0, 74, 38
1, 10867, Note_on_c, 0, 76, 35
1, 10867, Note_on_c, 0, 98, 13
1, 10868, Note_off_c, 0, 30, 64
1, 10868, Note_on_c, 0, 31, 79
1, 10868, Note_on_c, 0, 70, 37
1, 10868, Note_on_c, 0, 78, 28
1, 10868, Note_on_c, 0, 83, 45
1, 10868, Note_off_c, 0, 87, 64
1, 10868, Note_off_c, 0, 94, 64
1, 10869, Note_on_c, 0, 29, 81
1, 10869, Note_off_c, 0, 31, 64
1, 10869, Note_on_c, 0, 61, 23
1, 10869, Note_off_c, 0, 63, 64
1, 10869, Note_on_c, 0, 64, 34
1, 10869, Note_off_c, 0, 72, 64
1, 10869, Note_off_c, 0, 82, 64
1, 10869, Note_on_c, 0, 92, 25
1, 10870, Note_on_c, 0, 49, 56
1, 10870, Note_off_c, 0, 68, 64
1, 10870, Note_off_c, 0, 76, 64
1, 10870, Note_on_c, 0, 77, 22
1, 10870, Note_on_c, 0, 88, 34
1, 10871, Note_off_c, 0, 29, 64
1, 10871, Note_on_c, 0, 30, 75
1, 10871, Note_off_c, 0, 70, 64
1, 10871, Note_on_c, 0, 71, 27
1, 10871, Note_off_c, 0, 78, 64
1, 10871, Note_off_c, 0, 79, 64
1, 10871, Note_on_c, 0, 80, 32
1, 10871, Note_off_c, 0, 98, 64
1, 10872, Note_off_c, 0, 49, 64
1, 10872, Note_on_c, 0, 69, 29
1, 10872, Note_off_c, 0, 85, 64
1, 10872, Note_off_c, 0, 91, 64
1, 10873, Note_off_c, 0, 30, 64
1, 10873, Note_on_c, 0, 34, 70
1, 10873, Note_on_c, 0, 55, 52
1, 10873, Note_off_c, 0, 61, 64
1, 10873, Note_off_c, 0, 64, 64
1, 10873, Note_on_c, 0, 76, 33
1, 10873, Note_off_c, 0, 77, 64
1, 10873, Note_off_c, 0, 89, 64
1, 10873, Note_on_c, 0, 94, 23
1, 10873, Note_on_c, 0, 99, 24
1, 10873, Note_on_c, 0, 101, 21
1, 10874, Note_off_c, 0, 34, 64
1, 10874, Note_on_c, 0, 60, 51
1, 10874, Note_on_c, 0, 64, 49
1, 10874, Note_off_c, 0, 69, 64
1, 10874, Note_on_c, 0, 70, 41
1, 10874, Note_off_c, 0, 71, 64
1, 10874, Note_on_c, 0, 85, 33
1, 10874, Note_on_c, 0, 87, 32
1, 10874, Note_on_c, 0, 98, 19
1, 10875, Note_on_c, 0, 73, 44
1, 10875, Note_off_c, 0, 74, 64
1, 10875, Note_on_c, 0, 78, 38
1, 10875, Note_on_c, 0, 79, 39
1, 10876, Note_on_c, 0, 53, 72
1, 10876, Note_off_c, 0, 55, 64
1, 10876, Note_off_c, 0, 60, 64
1, 10876, Note_on_c, 0, 86, 29
1, 10876, Note_off_c, 0, 93, 64
1, 10876, Note_on_c, 0, 96, 21
1, 10877, Note_on_c, 0, 48, 84
1, 10877, Note_off_c, 0, 53, 64
1, 10877, Note_off_c, 0, 70, 64
1, 10877, Note_off_c, 0, 73, 64
1, 10877, Note_off_c, 0, 76, 64
1, 10877, Note_off_c, 0, 78, 64
1, 10877, Note_off_c, 0, 85, 64
1, 10877, Note_off_c, 0, 98, 64
1, 10877, Note_off_c, 0, 99, 64
1, 10877, Note_off_c, 0, 101, 64
1, 10878, Note_on_c, 0, 45, 94
1, 10878, Note_off_c, 0, 48, 64
1, 10878, Note_on_c, 0, 63, 10
1, 10878, Note_off_c, 0, 64, 64
1, 10878, Note_on_c, 0, 77, 27
1, 10878, Note_off_c, 0, 79, 64
1, 10878, Note_off_c, 0, 83, 64
1, 10878, Note_on_c, 0, 84, 33
1, 10878, Note_off_c, 0, 87, 64
1, 10878, Note_off_c, 0, 88, 64
1, 10879, Note_on_c, 0, 42, 100
1, 10879, Note_off_c, 0, 45, 64
1, 10879, Note_on_c, 0, 68, 11
1, 10879, Note_off_c, 0, 90, 64
1, 10880, Note_on_c, 0, 40, 97
1, 10880, Note_off_c, 0, 42, 64
1, 10880, Note_on_c, 0, 72, 21
1, 10880, Note_off_c, 0, 80, 64
1, 10880, Note_on_c, 0, 81, 32
1, 10880, Note_off_c, 0, 92, 64
1, 10881, Note_on_c, 0, 38, 98
1, 10881, Note_off_c, 0, 40, 64
1, 10881, Note_off_c, 0, 63, 64
1, 10881, Note_off_c, 0, 86, 64
1, 10881, Note_on_c, 0, 87, 36
1, 10881, Note_off_c, 0, 94, 64
1, 10882, Note_on_c, 0, 36, 97
1, 10882, Note_off_c, 0, 38, 64
1, 10882, Note_off_c, 0, 68, 64
1, 10883, Note_on_c, 0, 35, 96
1, 10883, Note_off_c, 0, 36, 64
1, 10883, Note_on_c, 0, 95, 19
1, 10884, Note_on_c, 0, 34, 96
1, 10884, Note_off_c, 0, 35, 64
1, 10885, Note_on_c, 0, 33, 96
1, 10885, Note_off_c, 0, 34, 64
1, 10886, Note_on_c, 0, 32, 96
1, 10886, Note_off_c, 0, 33, 64
1, 10886, Note_off_c, 0, 72, 64
1, 10886, Note_on_c, 0, 73, 31
1, 10887, Note_on_c, 0, 53, 23
1, 10887, Note_on_c, 0, 98, 11
1, 10888, Note_on_c, 0, 31, 94
1, 10888, Note_off_c, 0, 32, 64
1, 10888, Note_off_c, 0, 77, 64
1, 10888, Note_on_c, 0, 78, 29
1, 10888, Note_off_c, 0, 84, 64
1, 10888, Note_on_c, 0, 85, 37
1, 10888, Note_on_c, 0, 90, 36
1, 10888, Note_off_c, 0, 96, 64
1, 10889, Note_on_c, 0, 92, 28
1, 10889, Note_on_c, 0, 94, 28
1, 10890, Note_on_c, 0, 30, 84
1, 10890, Note_off_c, 0, 31, 64
1, 10890, Note_off_c, 0, 53, 64
1, 10890, Note_on_c, 0, 54, 16
1, 10890, Note_on_c, 0, 71, 14
1, 10890, Note_on_c, 0, 77, 17
1, 10890, Note_on_c, 0, 80, 19
1, 10890, Note_off_c, 0, 81, 64
1, 10890, Note_on_c, 0, 82, 37
1, 10892, Note_off_c, 0, 30, 64
1, 10892, Note_off_c, 0, 87, 64
1, 10892, Note_on_c, 0, 88, 36
1, 10892, Note_off_c, 0, 98, 64
1, 10893, Note_off_c, 0, 54, 64
1, 10893, Note_off_c, 0, 71, 64
1, 10893, Note_on_c, 0, 76, 25
1, 10893, Note_off_c, 0, 77, 64
1, 10893, Note_on_c, 0, 84, 11
1, 10893, Note_on_c, 0, 89, 24
1, 10893, Note_off_c, 0, 95, 64
1, 10893, Note_on_c, 0, 96, 15
1, 10894, Note_off_c, 0, 80, 64
1, 10895, Note_on_c, 0, 31, 71
1, 10895, Note_on_c, 0, 68, 26
1, 10895, Note_on_c, 0, 71, 33
1, 10895, Note_off_c, 0, 73, 64
1, 10896, Note_on_c, 0, 30, 78
1, 10896, Note_off_c, 0, 31, 64
1, 10896, Note_on_c, 0, 49, 58
1, 10896, Note_on_c, 0, 87, 22
1, 10896, Note_on_c, 0, 93, 32
1, 10897, Note_on_c, 0, 29, 78
1, 10897, Note_off_c, 0, 30, 64
1, 10897, Note_off_c, 0, 71, 64
1, 10897, Note_on_c, 0, 73, 33
1, 10897, Note_on_c, 0, 79, 42
1, 10897, Note_off_c, 0, 84, 64
1, 10898, Note_off_c, 0, 68, 64
1, 10898, Note_off_c, 0, 76, 64
1, 10898, Note_off_c, 0, 78, 64
1, 10898, Note_on_c, 0, 80, 29
1, 10898, Note_off_c, 0, 82, 64
1, 10898, Note_on_c, 0, 83, 38
1, 10898, Note_on_c, 0, 84, 14
1, 10898, Note_off_c, 0, 85, 64
1, 10898, Note_on_c, 0, 86, 43
1, 10898, Note_off_c, 0, 89, 64
1, 10898, Note_off_c, 0, 92, 64
1, 10898, Note_on_c, 0, 101, 12
1, 10899, Note_off_c, 0, 29, 64
1, 10899, Note_on_c, 0, 30, 73
1, 10899, Note_on_c, 0, 74, 42
1, 10899, Note_on_c, 0, 89, 35
1, 10899, Note_off_c, 0, 90, 64
1, 10899, Note_off_c, 0, 94, 64
1, 10900, Note_off_c, 0, 49, 64
1, 10900, Note_on_c, 0, 60, 20
1, 10900, Note_on_c, 0, 67, 33
1, 10900, Note_off_c, 0, 73, 64
1, 10901, Note_on_c, 0, 29, 72
1, 10901, Note_off_c, 0, 30, 64
1, 10901, Note_off_c, 0, 80, 64
1, 10901, Note_off_c, 0, 84, 64
1, 10901, Note_off_c, 0, 88, 64
1, 10901, Note_on_c, 0, 92, 15
1, 10902, Note_on_c, 0, 54, 50
1, 10902, Note_off_c, 0, 67, 64
1, 10902, Note_on_c, 0, 84, 22
1, 10902, Note_off_c, 0, 87, 64
1, 10903, Note_off_c, 0, 60, 64
1, 10903, Note_on_c, 0, 80, 29
1, 10904, Note_off_c, 0, 29, 64
1, 10904, Note_on_c, 0, 30, 79
1, 10904, Note_off_c, 0, 54, 64
1, 10904, Note_on_c, 0, 76, 19
1, 10904, Note_off_c, 0, 92, 64
1, 10904, Note_on_c, 0, 97, 22
1, 10905, Note_on_c, 0, 63, 26
1, 10905, Note_on_c, 0, 77, 21
1, 10905, Note_off_c, 0, 80, 64
1, 10905, Note_off_c, 0, 96, 64
1, 10906, Note_on_c, 0, 72, 32
1, 10906, Note_on_c, 0, 85, 33
1, 10906, Note_on_c, 0, 94, 22
1, 10907, Note_on_c, 0, 29, 77
1, 10907, Note_off_c, 0, 30, 64
1, 10907, Note_on_c, 0, 54, 47
1, 10907, Note_off_c, 0, 76, 64
1, 10907, Note_off_c, 0, 79, 64
1, 10907, Note_on_c, 0, 80, 37
1, 10907, Note_off_c, 0, 84, 64
1, 10907, Note_on_c, 0, 88, 52
1, 10907, Note_off_c, 0, 101, 64
1, 10908, Note_off_c, 0, 29, 64
1, 10908, Note_on_c, 0, 30, 75
1, 10908, Note_off_c, 0, 63, 64
1, 10908, Note_on_c, 0, 68, 31
1, 10908, Note_on_c, 0, 76, 24
1, 10908, Note_off_c, 0, 77, 64
1, 10908, Note_on_c, 0, 79, 32
1, 10908, Note_on_c, 0, 81, 23
1, 10908, Note_off_c, 0, 86, 64
1, 10908, Note_on_c, 0, 87, 31
1, 10909, Note_off_c, 0, 54, 64
1, 10909, Note_off_c, 0, 72, 64
1, 10909, Note_on_c, 0, 73, 39
1, 10909, Note_off_c, 0, 74, 64
1, 10909, Note_off_c, 0, 80, 64
1, 10909, Note_on_c, 0, 84, 34
1, 10909, Note_on_c, 0, 86, 22
1, 10910, Note_off_c, 0, 30, 64
1, 10910, Note_on_c, 0, 31, 69
1, 10910, Note_off_c, 0, 68, 64
1, 10910, Note_on_c, 0, 77, 32
1, 10910, Note_on_c, 0, 80, 21
1, 10910, Note_off_c, 0, 97, 64
1, 10911, Note_off_c, 0, 31, 64
1, 10911, Note_on_c, 0, 35, 67
1, 10911, Note_on_c, 0, 67, 36
1, 10911, Note_on_c, 0, 71, 33
1, 10911, Note_off_c, 0, 79, 64
1, 10911, Note_on_c, 0, 90, 38
1, 10912, Note_off_c, 0, 35, 64
1, 10912, Note_off_c, 0, 73, 64
1, 10912, Note_off_c, 0, 87, 64
1, 10913, Note_on_c, 0, 58, 52
1, 10913, Note_on_c, 0, 66, 36
1, 10913, Note_off_c, 0, 67, 64
1, 10913, Note_off_c, 0, 71, 64
1, 10913, Note_on_c, 0, 72, 23
1, 10913, Note_off_c, 0, 76, 64
1, 10913, Note_off_c, 0, 81, 64
1, 10913, Note_on_c, 0, 82, 39
1, 10913, Note_off_c, 0, 84, 64
1, 10913, Note_off_c, 0, 86, 64
1, 10913, Note_off_c, 0, 93, 64
1, 10914, Note_on_c, 0, 79, 22
1, 10914, Note_on_c, 0, 86, 36
1, 10914, Note_on_c, 0, 91, 27
1, 10914, Note_on_c, 0, 93, 17
1, 10915, Note_off_c, 0, 58, 64
1, 10915, Note_off_c, 0, 83, 64
1, 10915, Note_on_c, 0, 84, 24
1, 10916, Note_off_c, 0, 72, 64
1, 10916, Note_on_c, 0, 73, 18
1, 10916, Note_off_c, 0, 80, 64
1, 10917, Note_on_c, 0, 55, 31
1, 10917, Note_on_c, 0, 65, 32
1, 10917, Note_off_c, 0, 66, 64
1, 10917, Note_on_c, 0, 75, 17
1, 10917, Note_off_c, 0, 79, 64
1, 10917, Note_on_c, 0, 80, 31
1, 10918, Note_on_c, 0, 78, 42
1, 10918, Note_off_c, 0, 94, 64
1, 10919, Note_on_c, 0, 54, 27
1, 10919, Note_off_c, 0, 55, 64
1, 10919, Note_off_c, 0, 73, 64
1, 10919, Note_off_c, 0, 77, 64
1, 10919, Note_on_c, 0, 83, 17
1, 10920, Note_off_c, 0, 65, 64
1, 10920, Note_off_c, 0, 75, 64
1, 10921, Note_on_c, 0, 65, 41
1, 10921, Note_on_c, 0, 74, 34
1, 10921, Note_off_c, 0, 85, 64
1, 10921, Note_on_c, 0, 97, 14
1, 10922, Note_on_c, 0, 53, 30
1, 10922, Note_off_c, 0, 54, 64
1, 10922, Note_on_c, 0, 58, 42
1, 10922, Note_on_c, 0, 72, 31
1, 10922, Note_off_c, 0, 93, 64
1, 10923, Note_on_c, 0, 68, 14
1, 10923, Note_off_c, 0, 83, 64
1, 10923, Note_off_c, 0, 89, 64
1, 10923, Note_on_c, 0, 93, 13
1, 10924, Note_off_c, 0, 53, 64
1, 10924, Note_off_c, 0, 58, 64
1, 10924, Note_off_c, 0, 84, 64
1, 10924, Note_off_c, 0, 90, 64
1, 10925, Note_off_c, 0, 74, 64
1, 10925, Note_off_c, 0, 91, 64
1, 10926, Note_on_c, 0, 55, 33
1, 10926, Note_off_c, 0, 72, 64
1, 10926, Note_off_c, 0, 78, 64
1, 10926, Note_on_c, 0, 85, 27
1, 10927, Note_off_c, 0, 68, 64
1, 10927, Note_on_c, 0, 74, 25
1, 10927, Note_on_c, 0, 78, 31
1, 10927, Note_on_c, 0, 91, 24
1, 10928, Note_off_c, 0, 55, 64
1, 10928, Note_on_c, 0, 70, 17
1, 10928, Note_off_c, 0, 97, 64
1, 10929, Note_on_c, 0, 58, 24
1, 10930, Note_on_c, 0, 53, 40
1, 10930, Note_off_c, 0, 74, 64
1, 10930, Note_on_c, 0, 75, 36
1, 10930, Note_off_c, 0, 93, 64
1, 10931, Note_off_c, 0, 70, 64
1, 10931, Note_on_c, 0, 79, 27
1, 10931, Note_off_c, 0, 80, 64
1, 10931, Note_on_c, 0, 90, 31
1, 10931, Note_on_c, 0, 93, 23
1, 10931, Note_on_c, 0, 96, 21
1, 10932, Note_off_c, 0, 58, 64
1, 10932, Note_on_c, 0, 59, 17
1, 10932, Note_on_c, 0, 73, 50
1, 10932, Note_off_c, 0, 85, 64
1, 10933, Note_on_c, 0, 70, 32
1, 10933, Note_on_c, 0, 95, 17
1, 10933, Note_on_c, 0, 99, 22
1, 10934, Note_off_c, 0, 75, 64
1, 10934, Note_on_c, 0, 84, 30
1, 10934, Note_on_c, 0, 97, 14
1, 10935, Note_off_c, 0, 59, 64
1, 10935, Note_off_c, 0, 65, 64
1, 10935, Note_on_c, 0, 66, 27
1, 10935, Note_off_c, 0, 78, 64
1, 10935, Note_on_c, 0, 81, 15
1, 10935, Note_on_c, 0, 87, 40
1, 10935, Note_on_c, 0, 89, 17
1, 10935, Note_off_c, 0, 96, 64
1, 10936, Note_on_c, 0, 57, 21
1, 10936, Note_off_c, 0, 79, 64
1, 10937, Note_off_c, 0, 53, 64
1, 10937, Note_on_c, 0, 76, 37
1, 10937, Note_on_c, 0, 77, 41
1, 10937, Note_on_c, 0, 79, 28
1, 10937, Note_off_c, 0, 95, 64
1, 10938, Note_on_c, 0, 64, 35
1, 10938, Note_off_c, 0, 81, 64
1, 10938, Note_off_c, 0, 90, 64
1, 10938, Note_on_c, 0, 95, 13
1, 10939, Note_on_c, 0, 55, 34
1, 10939, Note_off_c, 0, 66, 64
1, 10940, Note_off_c, 0, 57, 64
1, 10940, Note_off_c, 0, 64, 64
1, 10940, Note_on_c, 0, 65, 37
1, 10940, Note_off_c, 0, 89, 64
1, 10940, Note_on_c, 0, 90, 34
1, 10941, Note_off_c, 0, 55, 64
1, 10941, Note_on_c, 0, 56, 37
1, 10941, Note_on_c, 0, 81, 34
1, 10941, Note_off_c, 0, 97, 64
1, 10942, Note_off_c, 0, 65, 64
1, 10942, Note_off_c, 0, 99, 64
1, 10943, Note_off_c, 0, 84, 64
1, 10943, Note_off_c, 0, 95, 64
1, 10944, Note_off_c, 0, 76, 64
1, 10944, Note_off_c, 0, 91, 64
1, 10945, Note_on_c, 0, 78, 28
1, 10945, Note_off_c, 0, 79, 64
1, 10945, Note_on_c, 0, 95, 17
1, 10946, Note_off_c, 0, 56, 64
1, 10946, Note_on_c, 0, 76, 43
1, 10946, Note_on_c, 0, 83, 22
1, 10946, Note_on_c, 0, 91, 22
1, 10946, Note_off_c, 0, 93, 64
1, 10947, Note_off_c, 0, 77, 64
1, 10947, Note_on_c, 0, 84, 25
1, 10947, Note_off_c, 0, 88, 64
1, 10948, Note_off_c, 0, 73, 64
1, 10948, Note_off_c, 0, 78, 64
1, 10948, Note_on_c, 0, 80, 27
1, 10948, Note_off_c, 0, 81, 64
1, 10948, Note_on_c, 0, 93, 21
1, 10948, Note_off_c, 0, 95, 64
1, 10949, Note_on_c, 0, 73, 43
1, 10949, Note_off_c, 0, 82, 64
1, 10950, Note_off_c, 0, 70, 64
1, 10950, Note_on_c, 0, 82, 28
1, 10950, Note_off_c, 0, 83, 64
1, 10951, Note_on_c, 0, 57, 47
1, 10951, Note_on_c, 0, 89, 19
1, 10951, Note_off_c, 0, 91, 64
1, 10951, Note_on_c, 0, 95, 12
1, 10952, Note_off_c, 0, 73, 64
1, 10952, Note_off_c, 0, 76, 64
1, 10952, Note_on_c, 0, 78, 26
1, 10952, Note_off_c, 0, 84, 64
1, 10953, Note_off_c, 0, 57, 64
1, 10953, Note_on_c, 0, 74, 67
1, 10953, Note_off_c, 0, 86, 64
1, 10954, Note_on_c, 0, 67, 25
1, 10954, Note_on_c, 0, 70, 27
1, 10954, Note_off_c, 0, 90, 64
1, 10954, Note_off_c, 0, 95, 64
1, 10955, Note_on_c, 0, 83, 32
1, 10955, Note_off_c, 0, 89, 64
1, 10955, Note_on_c, 0, 91, 30
1, 10956, Note_off_c, 0, 78, 64
1, 10956, Note_on_c, 0, 79, 25
1, 10956, Note_off_c, 0, 80, 64
1, 10956, Note_off_c, 0, 93, 64
1, 10957, Note_off_c, 0, 67, 64
1, 10957, Note_off_c, 0, 70, 64
1, 10957, Note_on_c, 0, 71, 23
1, 10957, Note_on_c, 0, 92, 25
1, 10958, Note_on_c, 0, 52, 45
1, 10958, Note_on_c, 0, 67, 32
1, 10958, Note_on_c, 0, 89, 42
1, 10958, Note_on_c, 0, 97, 16
1, 10959, Note_off_c, 0, 82, 64
1, 10959, Note_on_c, 0, 93, 21
1, 10960, Note_on_c, 0, 51, 45
1, 10960, Note_off_c, 0, 52, 64
1, 10960, Note_off_c, 0, 71, 64
1, 10960, Note_off_c, 0, 79, 64
1, 10960, Note_on_c, 0, 85, 30
1, 10960, Note_off_c, 0, 92, 64
1, 10961, Note_on_c, 0, 65, 22
1, 10961, Note_on_c, 0, 78, 21
1, 10961, Note_on_c, 0, 94, 9
1, 10962, Note_off_c, 0, 51, 64
1, 10962, Note_on_c, 0, 52, 41
1, 10963, Note_on_c, 0, 82, 18
1, 10964, Note_off_c, 0, 65, 64
1, 10964, Note_off_c, 0, 67, 64
1, 10964, Note_on_c, 0, 77, 40
1, 10964, Note_off_c, 0, 91, 64
1, 10965, Note_on_c, 0, 63, 32
1, 10965, Note_off_c, 0, 78, 64
1, 10965, Note_on_c, 0, 79, 33
1, 10965, Note_on_c, 0, 84, 34
1, 10965, Note_on_c, 0, 92, 33
1, 10965, Note_off_c, 0, 94, 64
1, 10965, Note_off_c, 0, 97, 64
1, 10966, Note_off_c, 0, 52, 64
1, 10966, Note_off_c, 0, 74, 64
1, 10966, Note_on_c, 0, 75, 65
1, 10966, Note_off_c, 0, 85, 64
1, 10966, Note_off_c, 0, 89, 64
1, 10967, Note_on_c, 0, 53, 31
1, 10967, Note_on_c, 0, 68, 43
1, 10967, Note_on_c, 0, 70, 48
1, 10967, Note_on_c, 0, 73, 41
1, 10967, Note_on_c, 0, 81, 26
1, 10967, Note_off_c, 0, 82, 64
1, 10967, Note_off_c, 0, 83, 64
1, 10967, Note_on_c, 0, 85, 49
1, 10968, Note_off_c, 0, 77, 64
1, 10968, Note_on_c, 0, 90, 44
1, 10968, Note_on_c, 0, 95, 31
1, 10969, Note_on_c, 0, 51, 40
1, 10969, Note_off_c, 0, 53, 64
1, 10969, Note_off_c, 0, 63, 64
1, 10969, Note_off_c, 0, 68, 64
1, 10969, Note_on_c, 0, 82, 49
1, 10970, Note_on_c, 0, 66, 66
1, 10970, Note_off_c, 0, 79, 64
1, 10970, Note_on_c, 0, 80, 33
1, 10970, Note_off_c, 0, 81, 64
1, 10971, Note_off_c, 0, 51, 64
1, 10971, Note_off_c, 0, 75, 64
1, 10971, Note_off_c, 0, 84, 64
1, 10971, Note_on_c, 0, 86, 37
1, 10972, Note_on_c, 0, 53, 31
1, 10972, Note_off_c, 0, 80, 64
1, 10972, Note_on_c, 0, 84, 37
1, 10972, Note_off_c, 0, 87, 64
1, 10974, Note_on_c, 0, 52, 33
1, 10974, Note_off_c, 0, 53, 64
1, 10974, Note_on_c, 0, 80, 26
1, 10974, Note_on_c, 0, 99, 12
1, 10975, Note_off_c, 0, 93, 64
1, 10976, Note_off_c, 0, 52, 64
1, 10976, Note_on_c, 0, 76, 38
1, 10976, Note_off_c, 0, 84, 64
1, 10977, Note_off_c, 0, 80, 64
1, 10977, Note_on_c, 0, 84, 33
1, 10978, Note_on_c, 0, 89, 34
1, 10979, Note_on_c, 0, 83, 36
1, 10979, Note_on_c, 0, 93, 15
1, 10979, Note_off_c, 0, 99, 64
1, 10980, Note_on_c, 0, 53, 47
1, 10980, Note_on_c, 0, 80, 39
1, 10980, Note_off_c, 0, 84, 64
1, 10981, Note_off_c, 0, 76, 64
1, 10981, Note_off_c, 0, 83, 64
1, 10982, Note_on_c, 0, 51, 42
1, 10982, Note_off_c, 0, 53, 64
1, 10982, Note_on_c, 0, 76, 30
1, 10982, Note_on_c, 0, 83, 38
1, 10983, Note_on_c, 0, 91, 25
1, 10984, Note_off_c, 0, 73, 64
1, 10984, Note_off_c, 0, 90, 64
1, 10984, Note_off_c, 0, 93, 64
1, 10984, Note_off_c, 0, 95, 64
1, 10986, Note_off_c, 0, 66, 64
1, 10986, Note_on_c, 0, 67, 53
1, 10986, Note_on_c, 0, 74, 46
1, 10986, Note_off_c, 0, 83, 64
1, 10987, Note_off_c, 0, 51, 64
1, 10987, Note_on_c, 0, 93, 16
1, 10988, Note_off_c, 0, 70, 64
1, 10988, Note_off_c, 0, 80, 64
1, 10988, Note_on_c, 0, 81, 22
1, 10988, Note_off_c, 0, 92, 64
1, 10989, Note_on_c, 0, 61, 28
1, 10989, Note_off_c, 0, 67, 64
1, 10989, Note_on_c, 0, 68, 39
1, 10989, Note_on_c, 0, 78, 27
1, 10990, Note_on_c, 0, 64, 22
1, 10990, Note_off_c, 0, 82, 64
1, 10990, Note_off_c, 0, 85, 64
1, 10991, Note_on_c, 0, 58, 16
1, 10991, Note_off_c, 0, 76, 64
1, 10991, Note_on_c, 0, 83, 25
1, 10993, Note_on_c, 0, 70, 22
1, 10993, Note_off_c, 0, 74, 64
1, 10993, Note_on_c, 0, 75, 35
1, 10993, Note_off_c, 0, 89, 64
1, 10994, Note_off_c, 0, 58, 64
1, 10994, Note_off_c, 0, 64, 64
1, 10994, Note_on_c, 0, 77, 28
1, 10994, Note_off_c, 0, 78, 64
1, 10994, Note_on_c, 0, 84, 26
1, 10994, Note_off_c, 0, 91, 64
1, 10994, Note_off_c, 0, 93, 64
1, 10995, Note_on_c, 0, 82, 38
1, 10995, Note_off_c, 0, 83, 64
1, 10995, Note_on_c, 0, 88, 16
1, 10995, Note_on_c, 0, 95, 17
1, 10996, Note_off_c, 0, 70, 64
1, 10996, Note_off_c, 0, 75, 64
1, 10996, Note_on_c, 0, 76, 33
1, 10996, Note_on_c, 0, 90, 23
1, 10997, Note_on_c, 0, 66, 38
1, 10997, Note_on_c, 0, 72, 34
1, 10997, Note_off_c, 0, 77, 64
1, 10997, Note_off_c, 0, 81, 64
1, 10997, Note_off_c, 0, 84, 64
1, 10998, Note_on_c, 0, 84, 34
1, 10999, Note_off_c, 0, 68, 64
1, 10999, Note_on_c, 0, 70, 33
1, 10999, Note_off_c, 0, 72, 64
1, 10999, Note_on_c, 0, 73, 32
1, 10999, Note_on_c, 0, 92, 22
1, 10999, Note_on_c, 0, 97, 12
1, 11000, Note_off_c, 0, 76, 64
1, 11000, Note_on_c, 0, 87, 27
1, 11001, Note_on_c, 0, 76, 37
1, 11001, Note_on_c, 0, 81, 22
1, 11001, Note_off_c, 0, 88, 64
1, 11002, Note_off_c, 0, 95, 64
1, 11003, Note_on_c, 0, 80, 39
1, 11003, Note_on_c, 0, 83, 35
1, 11003, Note_off_c, 0, 84, 64
1, 11003, Note_off_c, 0, 97, 64
1, 11004, Note_on_c, 0, 93, 25
1, 11005, Note_on_c, 0, 75, 30
1, 11005, Note_off_c, 0, 83, 64
1, 11005, Note_on_c, 0, 91, 19
1, 11006, Note_on_c, 0, 55, 32
1, 11006, Note_off_c, 0, 61, 64
1, 11006, Note_off_c, 0, 76, 64
1, 11006, Note_on_c, 0, 77, 31
1, 11006, Note_off_c, 0, 81, 64
1, 11006, Note_on_c, 0, 83, 33
1, 11007, Note_off_c, 0, 75, 64
1, 11008, Note_on_c, 0, 54, 33
1, 11008, Note_off_c, 0, 55, 64
1, 11008, Note_on_c, 0, 72, 36
1, 11008, Note_on_c, 0, 75, 34
1, 11008, Note_off_c, 0, 77, 64
1, 11008, Note_off_c, 0, 90, 64
1, 11008, Note_on_c, 0, 97, 9
1, 11009, Note_on_c, 0, 61, 29
1, 11009, Note_on_c, 0, 64, 38
1, 11009, Note_off_c, 0, 66, 64
1, 11009, Note_off_c, 0, 70, 64
1, 11009, Note_off_c, 0, 73, 64
1, 11009, Note_off_c, 0, 86, 64
1, 11009, Note_on_c, 0, 90, 32
1, 11010, Note_on_c, 0, 66, 36
1, 11010, Note_on_c, 0, 68, 32
1, 11010, Note_off_c, 0, 72, 64
1, 11010, Note_on_c, 0, 73, 30
1, 11010, Note_off_c, 0, 91, 64
1, 11011, Note_off_c, 0, 75, 64
1, 11011, Note_on_c, 0, 78, 36
1, 11011, Note_on_c, 0, 86, 19
1, 11011, Note_off_c, 0, 87, 64
1, 11011, Note_on_c, 0, 91, 25
1, 11012, Note_off_c, 0, 61, 64
1, 11012, Note_on_c, 0, 71, 16
1, 11013, Note_off_c, 0, 73, 64
1, 11013, Note_on_c, 0, 77, 20
1, 11013, Note_on_c, 0, 96, 13
1, 11013, Note_off_c, 0, 97, 64
1, 11014, Note_off_c, 0, 66, 64
1, 11014, Note_on_c, 0, 74, 31
1, 11014, Note_off_c, 0, 78, 64
1, 11015, Note_off_c, 0, 71, 64
1, 11015, Note_on_c, 0, 79, 32
1, 11015, Note_off_c, 0, 82, 64
1, 11015, Note_on_c, 0, 87, 12
1, 11016, Note_off_c, 0, 68, 64
1, 11016, Note_on_c, 0, 73, 41
1, 11016, Note_off_c, 0, 74, 64
1, 11016, Note_off_c, 0, 80, 64
1, 11016, Note_on_c, 0, 94, 19
1, 11016, Note_off_c, 0, 96, 64
1, 11017, Note_on_c, 0, 84, 30
1, 11017, Note_off_c, 0, 90, 64
1, 11018, Note_on_c, 0, 72, 34
1, 11018, Note_off_c, 0, 73, 64
1, 11018, Note_on_c, 0, 74, 45
1, 11018, Note_off_c, 0, 77, 64
1, 11018, Note_on_c, 0, 78, 36
1, 11018, Note_off_c, 0, 87, 64
1, 11018, Note_off_c, 0, 92, 64
1, 11018, Note_on_c, 0, 102, 16
1, 11019, Note_off_c, 0, 64, 64
1, 11019, Note_on_c, 0, 66, 36
1, 11019, Note_off_c, 0, 79, 64
1, 11019, Note_off_c, 0, 84, 64
1, 11019, Note_on_c, 0, 97, 11
1, 11019, Note_on_c, 0, 99, 17
1, 11020, Note_on_c, 0, 61, 25
1, 11020, Note_on_c, 0, 68, 36
1, 11020, Note_on_c, 0, 70, 30
1, 11020, Note_off_c, 0, 72, 64
1, 11020, Note_on_c, 0, 81, 36
1, 11020, Note_off_c, 0, 83, 64
1, 11020, Note_on_c, 0, 84, 31
1, 11020, Note_on_c, 0, 85, 41
1, 11020, Note_off_c, 0, 86, 64
1, 11020, Note_off_c, 0, 93, 64
1, 11021, Note_on_c, 0, 64, 35
1, 11021, Note_off_c, 0, 66, 64
1, 11021, Note_on_c, 0, 88, 32
1, 11022, Note_off_c, 0, 70, 64
1, 11022, Note_off_c, 0, 74, 64
1, 11022, Note_on_c, 0, 75, 45
1, 11022, Note_on_c, 0, 79, 28
1, 11023, Note_off_c, 0, 99, 64
1, 11024, Note_off_c, 0, 84, 64
1, 11024, Note_on_c, 0, 92, 17
1, 11024, Note_off_c, 0, 94, 64
1, 11024, Note_off_c, 0, 97, 64
1, 11024, Note_off_c, 0, 102, 64
1, 11025, Note_off_c, 0, 54, 64
1, 11025, Note_on_c, 0, 58, 30
1, 11025, Note_off_c, 0, 61, 64
1, 11025, Note_off_c, 0, 64, 64
1, 11025, Note_off_c, 0, 75, 64
1, 11025, Note_on_c, 0, 94, 27
1, 11026, Note_on_c, 0, 54, 19
1, 11026, Note_on_c, 0, 66, 61
1, 11026, Note_off_c, 0, 68, 64
1, 11026, Note_on_c, 0, 73, 38
1, 11026, Note_on_c, 0, 76, 42
1, 11026, Note_on_c, 0, 84, 30
1, 11027, Note_off_c, 0, 58, 64
1, 11027, Note_off_c, 0, 79, 64
1, 11027, Note_on_c, 0, 80, 38
1, 11027, Note_off_c, 0, 92, 64
1, 11028, Note_on_c, 0, 58, 16
1, 11028, Note_off_c, 0, 91, 64
1, 11029, Note_on_c, 0, 70, 23
1, 11029, Note_on_c, 0, 91, 38
1, 11030, Note_on_c, 0, 82, 23
1, 11030, Note_off_c, 0, 84, 64
1, 11031, Note_off_c, 0, 54, 64
1, 11031, Note_off_c, 0, 81, 64
1, 11031, Note_on_c, 0, 84, 34
1, 11032, Note_on_c, 0, 54, 21
1, 11032, Note_off_c, 0, 70, 64
1, 11032, Note_off_c, 0, 73, 64
1, 11033, Note_on_c, 0, 70, 39
1, 11033, Note_on_c, 0, 74, 30
1, 11035, Note_off_c, 0, 54, 64
1, 11035, Note_off_c, 0, 58, 64
1, 11035, Note_on_c, 0, 73, 24
1, 11035, Note_off_c, 0, 74, 64
1, 11035, Note_on_c, 0, 77, 33
1, 11036, Note_on_c, 0, 54, 34
1, 11036, Note_off_c, 0, 76, 64
1, 11036, Note_on_c, 0, 83, 35
1, 11036, Note_off_c, 0, 84, 64
1, 11036, Note_on_c, 0, 86, 36
1, 11036, Note_on_c, 0, 93, 22
1, 11038, Note_off_c, 0, 83, 64
1, 11039, Note_on_c, 0, 61, 10
1, 11039, Note_off_c, 0, 77, 64
1, 11039, Note_off_c, 0, 78, 64
1, 11039, Note_off_c, 0, 82, 64
1, 11039, Note_on_c, 0, 89, 30
1, 11040, Note_on_c, 0, 82, 40
1, 11040, Note_on_c, 0, 83, 33
1, 11040, Note_off_c, 0, 88, 64
1, 11041, Note_on_c, 0, 58, 20
1, 11041, Note_on_c, 0, 77, 34
1, 11041, Note_on_c, 0, 88, 29
1, 11042, Note_off_c, 0, 61, 64
1, 11044, Note_off_c, 0, 58, 64
1, 11044, Note_off_c, 0, 73, 64
1, 11044, Note_on_c, 0, 74, 25
1, 11044, Note_on_c, 0, 79, 36
1, 11044, Note_on_c, 0, 90, 24
1, 11045, Note_on_c, 0, 61, 21
1, 11045, Note_off_c, 0, 70, 64
1, 11045, Note_off_c, 0, 80, 64
1, 11045, Note_off_c, 0, 94, 64
1, 11046, Note_on_c, 0, 65, 59
1, 11046, Note_off_c, 0, 66, 64
1, 11046, Note_on_c, 0, 69, 35
1, 11046, Note_on_c, 0, 81, 37
1, 11046, Note_off_c, 0, 82, 64
1, 11046, Note_on_c, 0, 84, 37
1, 11046, Note_off_c, 0, 85, 64
1, 11046, Note_off_c, 0, 89, 64
1, 11046, Note_off_c, 0, 91, 64
1, 11047, Note_on_c, 0, 76, 36
1, 11047, Note_on_c, 0, 78, 29
1, 11047, Note_on_c, 0, 94, 31
1, 11048, Note_off_c, 0, 77, 64
1, 11048, Note_on_c, 0, 82, 43
1, 11048, Note_off_c, 0, 83, 64
1, 11048, Note_off_c, 0, 86, 64
1, 11048, Note_on_c, 0, 87, 31
1, 11048, Note_on_c, 0, 89, 28
1, 11048, Note_off_c, 0, 93, 64
1, 11049, Note_on_c, 0, 58, 22
1, 11049, Note_off_c, 0, 61, 64
1, 11049, Note_on_c, 0, 64, 59
1, 11049, Note_off_c, 0, 65, 64
1, 11049, Note_on_c, 0, 68, 37
1, 11049, Note_off_c, 0, 69, 64
1, 11049, Note_on_c, 0, 70, 32
1, 11049, Note_off_c, 0, 81, 64
1, 11050, Note_off_c, 0, 78, 64
1, 11050, Note_on_c, 0, 93, 18
1, 11051, Note_off_c, 0, 70, 64
1, 11051, Note_on_c, 0, 73, 34
1, 11051, Note_off_c, 0, 74, 64
1, 11051, Note_on_c, 0, 75, 33
1, 11051, Note_on_c, 0, 78, 35
1, 11051, Note_off_c, 0, 79, 64
1, 11051, Note_off_c, 0, 87, 64
1, 11051, Note_off_c, 0, 90, 64
1, 11052, Note_on_c, 0, 63, 56
1, 11052, Note_off_c, 0, 64, 64
1, 11052, Note_off_c, 0, 76, 64
1, 11053, Note_off_c, 0, 58, 64
1, 11053, Note_on_c, 0, 74, 26
1, 11053, Note_off_c, 0, 75, 64
1, 11053, Note_on_c, 0, 76, 44
1, 11053, Note_on_c, 0, 83, 38
1, 11053, Note_off_c, 0, 93, 64
1, 11054, Note_off_c, 0, 68, 64
1, 11054, Note_on_c, 0, 69, 33
1, 11054, Note_off_c, 0, 82, 64
1, 11054, Note_on_c, 0, 93, 18
1, 11055, Note_on_c, 0, 62, 53
1, 11055, Note_off_c, 0, 63, 64
1, 11055, Note_off_c, 0, 73, 64
1, 11055, Note_on_c, 0, 82, 36
1, 11055, Note_off_c, 0, 89, 64
1, 11056, Note_off_c, 0, 74, 64
1, 11056, Note_on_c, 0, 80, 36
1, 11056, Note_on_c, 0, 97, 28
1, 11056, Note_on_c, 0, 101, 11
1, 11057, Note_on_c, 0, 65, 35
1, 11057, Note_on_c, 0, 68, 35
1, 11057, Note_off_c, 0, 69, 64
1, 11057, Note_on_c, 0, 73, 34
1, 11057, Note_off_c, 0, 83, 64
1, 11057, Note_on_c, 0, 89, 35
1, 11058, Note_off_c, 0, 62, 64
1, 11058, Note_off_c, 0, 93, 64
1, 11058, Note_on_c, 0, 98, 28
1, 11059, Note_off_c, 0, 54, 64
1, 11059, Note_on_c, 0, 55, 35
1, 11059, Note_on_c, 0, 60, 37
1, 11059, Note_off_c, 0, 65, 64
1, 11059, Note_on_c, 0, 70, 46
1, 11059, Note_off_c, 0, 76, 64
1, 11059, Note_off_c, 0, 84, 64
1, 11059, Note_on_c, 0, 93, 37
1, 11059, Note_off_c, 0, 101, 64
1, 11060, Note_on_c, 0, 67, 52
1, 11060, Note_off_c, 0, 68, 64
1, 11060, Note_off_c, 0, 78, 64
1, 11060, Note_off_c, 0, 80, 64
1, 11060, Note_on_c, 0, 87, 42
1, 11061, Note_on_c, 0, 54, 39
1, 11061, Note_off_c, 0, 55, 64
1, 11061, Note_off_c, 0, 60, 64
1, 11061, Note_on_c, 0, 72, 47
1, 11061, Note_off_c, 0, 73, 64
1, 11061, Note_on_c, 0, 81, 42
1, 11061, Note_off_c, 0, 82, 64
1, 11061, Note_on_c, 0, 90, 42
1, 11061, Note_on_c, 0, 95, 24
1, 11062, Note_on_c, 0, 74, 38
1, 11062, Note_on_c, 0, 75, 37
1, 11062, Note_on_c, 0, 78, 43
1, 11062, Note_on_c, 0, 86, 42
1, 11063, Note_on_c, 0, 53, 70
1, 11063, Note_off_c, 0, 54, 64
1, 11063, Note_off_c, 0, 72, 64
1, 11063, Note_on_c, 0, 80, 25
1, 11063, Note_on_c, 0, 83, 27
1, 11064, Note_on_c, 0, 48, 83
1, 11064, Note_off_c, 0, 53, 64
1, 11064, Note_on_c, 0, 63, 29
1, 11064, Note_off_c, 0, 75, 64
1, 11064, Note_on_c, 0, 85, 31
1, 11064, Note_off_c, 0, 88, 64
1, 11064, Note_on_c, 0, 91, 11
1, 11064, Note_off_c, 0, 97, 64
1, 11064, Note_off_c, 0, 98, 64
1, 11065, Note_on_c, 0, 45, 93
1, 11065, Note_off_c, 0, 48, 64
1, 11065, Note_on_c, 0, 66, 29
1, 11065, Note_off_c, 0, 67, 64
1, 11065, Note_off_c, 0, 70, 64
1, 11065, Note_on_c, 0, 73, 17
1, 11065, Note_off_c, 0, 74, 64
1, 11065, Note_on_c, 0, 76, 10
1, 11065, Note_off_c, 0, 81, 64
1, 11065, Note_on_c, 0, 84, 27
1, 11065, Note_off_c, 0, 86, 64
1, 11065, Note_off_c, 0, 89, 64
1, 11066, Note_on_c, 0, 42, 98
1, 11066, Note_off_c, 0, 45, 64
1, 11066, Note_off_c, 0, 63, 64
1, 11066, Note_on_c, 0, 82, 15
1, 11067, Note_on_c, 0, 41, 98
1, 11067, Note_off_c, 0, 42, 64
1, 11067, Note_on_c, 0, 68, 16
1, 11067, Note_off_c, 0, 80, 64
1, 11067, Note_off_c, 0, 83, 64
1, 11067, Note_on_c, 0, 86, 27
1, 11067, Note_on_c, 0, 88, 36
1, 11068, Note_on_c, 0, 38, 97
1, 11068, Note_off_c, 0, 41, 64
1, 11068, Note_off_c, 0, 76, 64
1, 11068, Note_on_c, 0, 80, 31
1, 11068, Note_off_c, 0, 85, 64
1, 11069, Note_on_c, 0, 37, 98
1, 11069, Note_off_c, 0, 38, 64
1, 11069, Note_off_c, 0, 82, 64
1, 11069, Note_on_c, 0, 83, 19
1, 11069, Note_on_c, 0, 97, 13
1, 11070, Note_on_c, 0, 35, 97
1, 11070, Note_off_c, 0, 37, 64
1, 11070, Note_off_c, 0, 68, 64
1, 11070, Note_off_c, 0, 84, 64
1, 11070, Note_on_c, 0, 89, 25
1, 11071, Note_on_c, 0, 34, 96
1, 11071, Note_off_c, 0, 35, 64
1, 11071, Note_on_c, 0, 84, 17
1, 11071, Note_off_c, 0, 91, 64
1, 11072, Note_on_c, 0, 33, 96
1, 11072, Note_off_c, 0, 34, 64
1, 11072, Note_on_c, 0, 82, 36
1, 11072, Note_off_c, 0, 83, 64
1, 11072, Note_off_c, 0, 86, 64
1, 11072, Note_off_c, 0, 97, 64
1, 11073, Note_on_c, 0, 54, 21
1, 11073, Note_on_c, 0, 74, 22
1, 11073, Note_off_c, 0, 80, 64
1, 11073, Note_on_c, 0, 83, 32
1, 11073, Note_on_c, 0, 91, 13
1, 11073, Note_off_c, 0, 93, 64
1, 11073, Note_off_c, 0, 95, 64
1, 11074, Note_on_c, 0, 32, 96
1, 11074, Note_off_c, 0, 33, 64
1, 11074, Note_on_c, 0, 65, 28
1, 11074, Note_off_c, 0, 66, 64
1, 11074, Note_off_c, 0, 73, 64
1, 11074, Note_off_c, 0, 84, 64
1, 11074, Note_off_c, 0, 88, 64
1, 11075, Note_on_c, 0, 31, 95
1, 11075, Note_off_c, 0, 32, 64
1, 11075, Note_off_c, 0, 78, 64
1, 11076, Note_off_c, 0, 54, 64
1, 11076, Note_on_c, 0, 84, 22
1, 11076, Note_off_c, 0, 87, 64
1, 11076, Note_on_c, 0, 88, 15
1, 11076, Note_off_c, 0, 91, 64
1, 11076, Note_on_c, 0, 92, 14
1, 11077, Note_on_c, 0, 64, 27
1, 11077, Note_off_c, 0, 65, 64
1, 11077, Note_off_c, 0, 74, 64
1, 11077, Note_on_c, 0, 75, 26
1, 11077, Note_on_c, 0, 79, 20
1, 11077, Note_off_c, 0, 83, 64
1, 11078, Note_on_c, 0, 30, 77
1, 11078, Note_off_c, 0, 31, 64
1, 11078, Note_off_c, 0, 89, 64
1, 11079, Note_off_c, 0, 30, 64
1, 11079, Note_on_c, 0, 73, 31
1, 11079, Note_on_c, 0, 78, 35
1, 11079, Note_on_c, 0, 81, 31
1, 11079, Note_off_c, 0, 84, 64
1, 11079, Note_on_c, 0, 85, 32
1, 11079, Note_off_c, 0, 90, 64
1, 11080, Note_on_c, 0, 63, 34
1, 11080, Note_off_c, 0, 64, 64
1, 11080, Note_on_c, 0, 70, 28
1, 11080, Note_on_c, 0, 89, 27
1, 11081, Note_on_c, 0, 76, 26
1, 11081, Note_off_c, 0, 79, 64
1, 11081, Note_off_c, 0, 81, 64
1, 11081, Note_off_c, 0, 88, 64
1, 11081, Note_off_c, 0, 92, 64
1, 11082, Note_on_c, 0, 36, 72
1, 11082, Note_off_c, 0, 75, 64
1, 11082, Note_on_c, 0, 81, 26
1, 11083, Note_on_c, 0, 31, 79
1, 11083, Note_off_c, 0, 36, 64
1, 11083, Note_on_c, 0, 87, 24
1, 11083, Note_on_c, 0, 92, 14
1, 11084, Note_on_c, 0, 30, 81
1, 11084, Note_off_c, 0, 31, 64
1, 11084, Note_off_c, 0, 63, 64
1, 11084, Note_on_c, 0, 80, 27
1, 11084, Note_on_c, 0, 86, 26
1, 11084, Note_on_c, 0, 88, 28
1, 11084, Note_on_c, 0, 91, 36
1, 11084, Note_on_c, 0, 93, 28
1, 11084, Note_off_c, 0, 94, 64
1, 11085, Note_on_c, 0, 29, 78
1, 11085, Note_off_c, 0, 30, 64
1, 11085, Note_off_c, 0, 70, 64
1, 11085, Note_off_c, 0, 81, 64
1, 11085, Note_on_c, 0, 83, 36
1, 11086, Note_off_c, 0, 89, 64
1, 11087, Note_off_c, 0, 29, 64
1, 11087, Note_on_c, 0, 30, 74
1, 11087, Note_on_c, 0, 66, 38
1, 11087, Note_on_c, 0, 84, 28
1, 11087, Note_off_c, 0, 87, 64
1, 11088, Note_on_c, 0, 29, 73
1, 11088, Note_off_c, 0, 30, 64
1, 11088, Note_off_c, 0, 76, 64
1, 11088, Note_on_c, 0, 79, 32
1, 11088, Note_off_c, 0, 80, 64
1, 11088, Note_off_c, 0, 85, 64
1, 11088, Note_off_c, 0, 92, 64
1, 11089, Note_off_c, 0, 29, 64
1, 11089, Note_on_c, 0, 30, 72
1, 11089, Note_on_c, 0, 89, 26
1, 11090, Note_on_c, 0, 29, 71
1, 11090, Note_off_c, 0, 30, 64
1, 11090, Note_on_c, 0, 68, 28
1, 11090, Note_off_c, 0, 73, 64
1, 11090, Note_off_c, 0, 84, 64
1, 11090, Note_off_c, 0, 88, 64
1, 11091, Note_off_c, 0, 29, 64
1, 11091, Note_on_c, 0, 30, 73
1, 11091, Note_on_c, 0, 61, 30
1, 11091, Note_off_c, 0, 78, 64
1, 11092, Note_off_c, 0, 30, 64
1, 11092, Note_on_c, 0, 31, 77
1, 11092, Note_on_c, 0, 70, 36
1, 11092, Note_on_c, 0, 76, 34
1, 11092, Note_off_c, 0, 79, 64
1, 11092, Note_off_c, 0, 82, 64
1, 11092, Note_off_c, 0, 83, 64
1, 11092, Note_on_c, 0, 84, 28
1, 11092, Note_on_c, 0, 87, 27
1, 11092, Note_off_c, 0, 89, 64
1, 11092, Note_on_c, 0, 92, 29
1, 11093, Note_on_c, 0, 30, 79
1, 11093, Note_off_c, 0, 31, 64
1, 11093, Note_off_c, 0, 68, 64
1, 11093, Note_on_c, 0, 83, 34
1, 11093, Note_on_c, 0, 85, 18
1, 11093, Note_off_c, 0, 86, 64
1, 11094, Note_on_c, 0, 29, 80
1, 11094, Note_off_c, 0, 30, 64
1, 11094, Note_on_c, 0, 49, 57
1, 11094, Note_on_c, 0, 89, 40
1, 11095, Note_on_c, 0, 81, 36
1, 11095, Note_off_c, 0, 84, 64
1, 11095, Note_on_c, 0, 86, 19
1, 11096, Note_off_c, 0, 29, 64
1, 11096, Note_on_c, 0, 30, 74
1, 11096, Note_off_c, 0, 61, 64
1, 11096, Note_off_c, 0, 85, 64
1, 11096, Note_off_c, 0, 87, 64
1, 11097, Note_off_c, 0, 30, 64
1, 11097, Note_on_c, 0, 31, 69
1, 11097, Note_off_c, 0, 49, 64
1, 11098, Note_off_c, 0, 31, 64
1, 11098, Note_on_c, 0, 34, 71
1, 11098, Note_off_c, 0, 66, 64
1, 11098, Note_on_c, 0, 80, 46
1, 11098, Note_on_c, 0, 85, 31
1, 11098, Note_off_c, 0, 86, 64
1, 11098, Note_on_c, 0, 90, 32
1, 11099, Note_off_c, 0, 34, 64
1, 11099, Note_on_c, 0, 66, 50
1, 11099, Note_on_c, 0, 72, 38
1, 11099, Note_on_c, 0, 75, 39
1, 11099, Note_on_c, 0, 86, 35
1, 11100, Note_on_c, 0, 69, 42
1, 11100, Note_off_c, 0, 70, 64
1, 11100, Note_off_c, 0, 76, 64
1, 11100, Note_off_c, 0, 81, 64
1, 11100, Note_on_c, 0, 82, 33
1, 11101, Note_on_c, 0, 51, 77
1, 11101, Note_off_c, 0, 72, 64
1, 11101, Note_on_c, 0, 79, 19
1, 11102, Note_on_c, 0, 46, 87
1, 11102, Note_off_c, 0, 51, 64
1, 11102, Note_off_c, 0, 66, 64
1, 11102, Note_off_c, 0, 69, 64
1, 11102, Note_off_c, 0, 80, 64
1, 11102, Note_off_c, 0, 82, 64
1, 11102, Note_on_c, 0, 84, 11
1, 11102, Note_off_c, 0, 91, 64
1, 11102, Note_off_c, 0, 92, 64
1, 11103, Note_on_c, 0, 44, 94
1, 11103, Note_off_c, 0, 46, 64
1, 11103, Note_on_c, 0, 74, 16
1, 11103, Note_off_c, 0, 83, 64
1, 11103, Note_off_c, 0, 90, 64
1, 11104, Note_on_c, 0, 41, 100
1, 11104, Note_off_c, 0, 44, 64
1, 11104, Note_off_c, 0, 75, 64
1, 11104, Note_off_c, 0, 79, 64
1, 11104, Note_on_c, 0, 92, 15
1, 11104, Note_off_c, 0, 93, 64
1, 11105, Note_on_c, 0, 39, 97
1, 11105, Note_off_c, 0, 41, 64
1, 11105, Note_on_c, 0, 64, 29
1, 11105, Note_on_c, 0, 83, 30
1, 11105, Note_off_c, 0, 89, 64
1, 11106, Note_on_c, 0, 37, 98
1, 11106, Note_off_c, 0, 39, 64
1, 11106, Note_on_c, 0, 78, 19
1, 11106, Note_off_c, 0, 86, 64
1, 11106, Note_on_c, 0, 91, 13
1, 11107, Note_on_c, 0, 36, 97
1, 11107, Note_off_c, 0, 37, 64
1, 11107, Note_on_c, 0, 73, 13
1, 11107, Note_off_c, 0, 74, 64
1, 11107, Note_off_c, 0, 84, 64
1, 11108, Note_on_c, 0, 35, 96
1, 11108, Note_off_c, 0, 36, 64
1, 11108, Note_on_c, 0, 82, 29
1, 11108, Note_off_c, 0, 83, 64
1, 11108, Note_off_c, 0, 92, 64
1, 11109, Note_on_c, 0, 34, 95
1, 11109, Note_off_c, 0, 35, 64
1, 11109, Note_off_c, 0, 64, 64
1, 11109, Note_on_c, 0, 83, 19
1, 11109, Note_on_c, 0, 90, 23
1, 11109, Note_off_c, 0, 91, 64
1, 11110, Note_on_c, 0, 33, 95
1, 11110, Note_off_c, 0, 34, 64
1, 11110, Note_off_c, 0, 73, 64
1, 11110, Note_on_c, 0, 93, 9
1, 11111, Note_on_c, 0, 32, 96
1, 11111, Note_off_c, 0, 33, 64
1, 11111, Note_on_c, 0, 80, 14
1, 11111, Note_off_c, 0, 82, 64
1, 11111, Note_off_c, 0, 85, 64
1, 11111, Note_on_c, 0, 86, 12
1, 11112, Note_on_c, 0, 61, 34
1, 11112, Note_on_c, 0, 71, 19
1, 11112, Note_on_c, 0, 82, 19
1, 11112, Note_on_c, 0, 92, 17
1, 11113, Note_on_c, 0, 31, 93
1, 11113, Note_off_c, 0, 32, 64
1, 11113, Note_off_c, 0, 83, 64
1, 11113, Note_on_c, 0, 84, 16
1, 11113, Note_on_c, 0, 89, 25
1, 11114, Note_off_c, 0, 78, 64
1, 11114, Note_off_c, 0, 80, 64
1, 11114, Note_on_c, 0, 85, 15
1, 11114, Note_off_c, 0, 86, 64
1, 11114, Note_off_c, 0, 93, 64
1, 11115, Note_on_c, 0, 30, 81
1, 11115, Note_off_c, 0, 31, 64
1, 11115, Note_off_c, 0, 71, 64
1, 11115, Note_on_c, 0, 78, 21
1, 11116, Note_off_c, 0, 82, 64
1, 11117, Note_on_c, 0, 72, 20
1, 11117, Note_on_c, 0, 81, 20
1, 11117, Note_off_c, 0, 84, 64
1, 11117, Note_on_c, 0, 86, 21
1, 11117, Note_on_c, 0, 88, 14
1, 11117, Note_off_c, 0, 90, 64
1, 11117, Note_on_c, 0, 91, 19
1, 11117, Note_off_c, 0, 92, 64
1, 11117, Note_on_c, 0, 93, 20
1, 11118, Note_off_c, 0, 30, 64
1, 11118, Note_on_c, 0, 68, 18
1, 11118, Note_on_c, 0, 76, 25
1, 11118, Note_off_c, 0, 85, 64
1, 11118, Note_on_c, 0, 92, 23
1, 11119, Note_on_c, 0, 37, 69
1, 11119, Note_on_c, 0, 77, 25
1, 11119, Note_off_c, 0, 78, 64
1, 11119, Note_on_c, 0, 94, 14
1, 11119, Note_on_c, 0, 96, 16
1, 11120, Note_on_c, 0, 31, 74
1, 11120, Note_off_c, 0, 37, 64
1, 11120, Note_on_c, 0, 49, 58
1, 11120, Note_on_c, 0, 66, 22
1, 11120, Note_off_c, 0, 72, 64
1, 11120, Note_on_c, 0, 80, 31
1, 11120, Note_on_c, 0, 83, 37
1, 11120, Note_off_c, 0, 86, 64
1, 11120, Note_off_c, 0, 88, 64
1, 11121, Note_on_c, 0, 30, 79
1, 11121, Note_off_c, 0, 31, 64
1, 11121, Note_on_c, 0, 84, 26
1, 11121, Note_on_c, 0, 86, 33
1, 11121, Note_off_c, 0, 89, 64
1, 11121, Note_on_c, 0, 90, 25
1, 11122, Note_on_c, 0, 29, 79
1, 11122, Note_off_c, 0, 30, 64
1, 11122, Note_off_c, 0, 61, 64
1, 11122, Note_off_c, 0, 68, 64
1, 11122, Note_off_c, 0, 77, 64
1, 11122, Note_on_c, 0, 78, 34
1, 11122, Note_on_c, 0, 87, 27
1, 11122, Note_on_c, 0, 88, 34
1, 11122, Note_off_c, 0, 93, 64
1, 11122, Note_off_c, 0, 96, 64
1, 11123, Note_off_c, 0, 49, 64
1, 11123, Note_on_c, 0, 61, 46
1, 11123, Note_off_c, 0, 81, 64
1, 11124, Note_off_c, 0, 29, 64
1, 11124, Note_on_c, 0, 30, 74
1, 11124, Note_off_c, 0, 76, 64
1, 11124, Note_on_c, 0, 77, 37
1, 11124, Note_on_c, 0, 81, 29
1, 11124, Note_off_c, 0, 86, 64
1, 11124, Note_off_c, 0, 94, 64
1, 11125, Note_off_c, 0, 84, 64
1, 11125, Note_off_c, 0, 91, 64
1, 11125, Note_off_c, 0, 92, 64
1, 11126, Note_on_c, 0, 29, 72
1, 11126, Note_off_c, 0, 30, 64
1, 11126, Note_on_c, 0, 49, 46
1, 11126, Note_off_c, 0, 66, 64
1, 11126, Note_on_c, 0, 68, 29
1, 11126, Note_on_c, 0, 86, 32
1, 11127, Note_on_c, 0, 72, 28
1, 11127, Note_off_c, 0, 78, 64
1, 11127, Note_off_c, 0, 81, 64
1, 11127, Note_on_c, 0, 82, 31
1, 11127, Note_on_c, 0, 91, 27
1, 11128, Note_off_c, 0, 49, 64
1, 11128, Note_on_c, 0, 76, 43
1, 11128, Note_off_c, 0, 77, 64
1, 11128, Note_on_c, 0, 78, 40
1, 11128, Note_off_c, 0, 87, 64
1, 11129, Note_off_c, 0, 29, 64
1, 11129, Note_on_c, 0, 30, 77
1, 11129, Note_on_c, 0, 70, 30
1, 11130, Note_off_c, 0, 68, 64
1, 11130, Note_on_c, 0, 85, 16
1, 11131, Note_on_c, 0, 29, 79
1, 11131, Note_off_c, 0, 30, 64
1, 11131, Note_on_c, 0, 66, 25
1, 11131, Note_off_c, 0, 70, 64
1, 11131, Note_on_c, 0, 87, 36
1, 11131, Note_off_c, 0, 88, 64
1, 11131, Note_off_c, 0, 90, 64
1, 11132, Note_off_c, 0, 72, 64
1, 11132, Note_off_c, 0, 91, 64
1, 11133, Note_on_c, 0, 70, 27
1, 11133, Note_on_c, 0, 72, 24
1, 11133, Note_off_c, 0, 80, 64
1, 11133, Note_off_c, 0, 82, 64
1, 11134, Note_off_c, 0, 29, 64
1, 11134, Note_on_c, 0, 30, 71
1, 11134, Note_on_c, 0, 82, 33
1, 11135, Note_off_c, 0, 30, 64
1, 11135, Note_on_c, 0, 33, 71
1, 11135, Note_on_c, 0, 54, 41
1, 11135, Note_off_c, 0, 66, 64
1, 11135, Note_off_c, 0, 83, 64
1, 11135, Note_off_c, 0, 85, 64
1, 11135, Note_on_c, 0, 91, 31
1, 11136, Note_off_c, 0, 33, 64
1, 11136, Note_on_c, 0, 35, 65
1, 11136, Note_off_c, 0, 61, 64
1, 11136, Note_on_c, 0, 67, 46
1, 11136, Note_off_c, 0, 72, 64
1, 11136, Note_on_c, 0, 83, 34
1, 11136, Note_on_c, 0, 85, 41
1, 11136, Note_on_c, 0, 89, 35
1, 11136, Note_on_c, 0, 93, 24
1, 11136, Note_on_c, 0, 96, 19
1, 11136, Note_on_c, 0, 100, 21
1, 11137, Note_off_c, 0, 35, 64
1, 11137, Note_off_c, 0, 54, 64
1, 11137, Note_off_c, 0, 70, 64
1, 11137, Note_on_c, 0, 72, 51
1, 11137, Note_off_c, 0, 86, 64
1, 11138, Note_on_c, 0, 53, 68
1, 11138, Note_off_c, 0, 67, 64
1, 11138, Note_off_c, 0, 78, 64
1, 11138, Note_on_c, 0, 79, 26
1, 11138, Note_on_c, 0, 86, 29
1, 11139, Note_on_c, 0, 48, 83
1, 11139, Note_off_c, 0, 53, 64
1, 11139, Note_off_c, 0, 76, 64
1, 11139, Note_off_c, 0, 83, 64
1, 11139, Note_off_c, 0, 87, 64
1, 11139, Note_off_c, 0, 91, 64
1, 11139, Note_off_c, 0, 93, 64
1, 11139, Note_off_c, 0, 96, 64
1, 11139, Note_off_c, 0, 100, 64
1, 11140, Note_on_c, 0, 45, 94
1, 11140, Note_off_c, 0, 48, 64
1, 11141, Note_on_c, 0, 42, 99
1, 11141, Note_off_c, 0, 45, 64
1, 11141, Note_off_c, 0, 72, 64
1, 11141, Note_on_c, 0, 76, 31
1, 11141, Note_off_c, 0, 79, 64
1, 11141, Note_on_c, 0, 80, 29
1, 11142, Note_on_c, 0, 40, 98
1, 11142, Note_off_c, 0, 42, 64
1, 11142, Note_on_c, 0, 78, 27
1, 11143, Note_on_c, 0, 38, 97
1, 11143, Note_off_c, 0, 40, 64
1, 11143, Note_on_c, 0, 73, 31
1, 11143, Note_off_c, 0, 89, 64
1, 11144, Note_on_c, 0, 37, 97
1, 11144, Note_off_c, 0, 38, 64
1, 11144, Note_on_c, 0, 66, 16
1, 11144, Note_on_c, 0, 84, 24
1, 11145, Note_on_c, 0, 35, 96
1, 11145, Note_off_c, 0, 37, 64
1, 11145, Note_off_c, 0, 85, 64
1, 11145, Note_on_c, 0, 87, 15
1, 11146, Note_on_c, 0, 34, 96
1, 11146, Note_off_c, 0, 35, 64
1, 11147, Note_on_c, 0, 33, 95
1, 11147, Note_off_c, 0, 34, 64
1, 11147, Note_off_c, 0, 82, 64
1, 11148, Note_on_c, 0, 32, 96
1, 11148, Note_off_c, 0, 33, 64
1, 11148, Note_on_c, 0, 82, 29
1, 11149, Note_off_c, 0, 76, 64
1, 11149, Note_off_c, 0, 84, 64
1, 11150, Note_on_c, 0, 31, 94
1, 11150, Note_off_c, 0, 32, 64
1, 11150, Note_off_c, 0, 87, 64
1, 11151, Note_on_c, 0, 76, 26
1, 11152, Note_on_c, 0, 54, 17
1, 11152, Note_on_c, 0, 83, 22
1, 11152, Note_on_c, 0, 89, 17
1, 11152, Note_on_c, 0, 91, 20
1, 11153, Note_on_c, 0, 30, 75
1, 11153, Note_off_c, 0, 31, 64
1, 11153, Note_on_c, 0, 70, 16
1, 11153, Note_off_c, 0, 78, 64
1, 11154, Note_on_c, 0, 78, 34
1, 11155, Note_off_c, 0, 30, 64
1, 11155, Note_off_c, 0, 66, 64
1, 11156, Note_off_c, 0, 54, 64
1, 11156, Note_on_c, 0, 64, 33
1, 11156, Note_off_c, 0, 70, 64
1, 11156, Note_off_c, 0, 76, 64
1, 11157, Note_on_c, 0, 35, 67
1, 11157, Note_on_c, 0, 70, 28
1, 11157, Note_off_c, 0, 73, 64
1, 11157, Note_on_c, 0, 74, 26
1, 11157, Note_on_c, 0, 79, 34
1, 11157, Note_on_c, 0, 88, 18
1, 11158, Note_on_c, 0, 31, 77
1, 11158, Note_off_c, 0, 35, 64
1, 11158, Note_off_c, 0, 80, 64
1, 11158, Note_off_c, 0, 83, 64
1, 11158, Note_off_c, 0, 86, 64
1, 11159, Note_on_c, 0, 29, 79
1, 11159, Note_off_c, 0, 31, 64
1, 11159, Note_on_c, 0, 61, 42
1, 11159, Note_off_c, 0, 78, 64
1, 11159, Note_on_c, 0, 86, 36
1, 11159, Note_off_c, 0, 89, 64
1, 11159, Note_on_c, 0, 90, 14
1, 11159, Note_off_c, 0, 91, 64
1, 11160, Note_off_c, 0, 29, 64
1, 11160, Note_on_c, 0, 30, 77
1, 11160, Note_on_c, 0, 49, 56
1, 11160, Note_on_c, 0, 83, 29
1, 11161, Note_on_c, 0, 78, 30
1, 11161, Note_off_c, 0, 88, 64
1, 11162, Note_off_c, 0, 49, 64
1, 11162, Note_off_c, 0, 64, 64
1, 11162, Note_off_c, 0, 70, 64
1, 11162, Note_on_c, 0, 87, 17
1, 11162, Note_off_c, 0, 90, 64
1, 11162, Note_on_c, 0, 92, 13
1, 11163, Note_on_c, 0, 29, 74
1, 11163, Note_off_c, 0, 30, 64
1, 11163, Note_off_c, 0, 74, 64
1, 11163, Note_on_c, 0, 77, 32
1, 11163, Note_off_c, 0, 78, 64
1, 11163, Note_on_c, 0, 85, 28
1, 11163, Note_on_c, 0, 89, 34
1, 11164, Note_on_c, 0, 74, 28
1, 11165, Note_off_c, 0, 61, 64
1, 11165, Note_off_c, 0, 77, 64
1, 11165, Note_on_c, 0, 78, 29
1, 11165, Note_off_c, 0, 79, 64
1, 11165, Note_off_c, 0, 83, 64
1, 11165, Note_off_c, 0, 87, 64
1, 11165, Note_on_c, 0, 88, 18
1, 11166, Note_off_c, 0, 29, 64
1, 11166, Note_on_c, 0, 30, 72
1, 11166, Note_on_c, 0, 64, 29
1, 11166, Note_on_c, 0, 77, 36
1, 11166, Note_off_c, 0, 82, 64
1, 11167, Note_off_c, 0, 30, 64
1, 11167, Note_on_c, 0, 31, 76
1, 11167, Note_on_c, 0, 49, 60
1, 11167, Note_on_c, 0, 81, 26
1, 11167, Note_on_c, 0, 87, 18
1, 11167, Note_on_c, 0, 91, 15
1, 11168, Note_on_c, 0, 30, 78
1, 11168, Note_off_c, 0, 31, 64
1, 11168, Note_off_c, 0, 74, 64
1, 11168, Note_on_c, 0, 82, 29
1, 11168, Note_on_c, 0, 84, 26
1, 11168, Note_off_c, 0, 88, 64
1, 11168, Note_off_c, 0, 92, 64
1, 11169, Note_on_c, 0, 29, 79
1, 11169, Note_off_c, 0, 30, 64
1, 11169, Note_off_c, 0, 64, 64
1, 11169, Note_off_c, 0, 78, 64
1, 11169, Note_off_c, 0, 86, 64
1, 11170, Note_off_c, 0, 49, 64
1, 11170, Note_on_c, 0, 61, 34
1, 11170, Note_on_c, 0, 73, 43
1, 11170, Note_on_c, 0, 83, 34
1, 11170, Note_on_c, 0, 92, 29
1, 11171, Note_off_c, 0, 29, 64
1, 11171, Note_on_c, 0, 30, 73
1, 11171, Note_on_c, 0, 54, 38
1, 11171, Note_on_c, 0, 86, 30
1, 11171, Note_off_c, 0, 91, 64
1, 11172, Note_on_c, 0, 60, 57
1, 11172, Note_off_c, 0, 61, 64
1, 11172, Note_on_c, 0, 76, 41
1, 11172, Note_off_c, 0, 77, 64
1, 11172, Note_off_c, 0, 81, 64
1, 11172, Note_off_c, 0, 84, 64
1, 11172, Note_off_c, 0, 85, 64
1, 11172, Note_off_c, 0, 87, 64
1, 11173, Note_off_c, 0, 30, 64
1, 11173, Note_on_c, 0, 35, 70
1, 11173, Note_off_c, 0, 54, 64
1, 11173, Note_on_c, 0, 90, 34
1, 11173, Note_on_c, 0, 93, 25
1, 11174, Note_off_c, 0, 35, 64
1, 11174, Note_on_c, 0, 79, 37
1, 11174, Note_on_c, 0, 81, 32
1, 11174, Note_off_c, 0, 82, 64
1, 11174, Note_on_c, 0, 87, 31
1, 11175, Note_on_c, 0, 64, 56
1, 11176, Note_on_c, 0, 51, 77
1, 11176, Note_off_c, 0, 60, 64
1, 11176, Note_on_c, 0, 68, 32
1, 11176, Note_off_c, 0, 87, 64
1, 11176, Note_off_c, 0, 93, 64
1, 11177, Note_on_c, 0, 45, 90
1, 11177, Note_off_c, 0, 51, 64
1, 11177, Note_off_c, 0, 76, 64
1, 11177, Note_off_c, 0, 79, 64
1, 11177, Note_off_c, 0, 81, 64
1, 11177, Note_off_c, 0, 83, 64
1, 11177, Note_on_c, 0, 84, 13
1, 11177, Note_off_c, 0, 90, 64
1, 11177, Note_off_c, 0, 92, 64
1, 11178, Note_on_c, 0, 43, 96
1, 11178, Note_off_c, 0, 45, 64
1, 11178, Note_off_c, 0, 68, 64
1, 11179, Note_on_c, 0, 41, 100
1, 11179, Note_off_c, 0, 43, 64
1, 11179, Note_on_c, 0, 68, 12
1, 11179, Note_on_c, 0, 79, 20
1, 11179, Note_off_c, 0, 86, 64
1, 11179, Note_off_c, 0, 89, 64
1, 11180, Note_on_c, 0, 39, 97
1, 11180, Note_off_c, 0, 41, 64
1, 11181, Note_on_c, 0, 37, 98
1, 11181, Note_off_c, 0, 39, 64
1, 11181, Note_off_c, 0, 73, 64
1, 11181, Note_on_c, 0, 81, 24
1, 11181, Note_off_c, 0, 84, 64
1, 11182, Note_on_c, 0, 36, 97
1, 11182, Note_off_c, 0, 37, 64
1, 11182, Note_off_c, 0, 64, 64
1, 11182, Note_on_c, 0, 77, 19
1, 11183, Note_on_c, 0, 35, 96
1, 11183, Note_off_c, 0, 36, 64
1, 11183, Note_off_c, 0, 68, 64
1, 11183, Note_on_c, 0, 80, 17
1, 11183, Note_on_c, 0, 84, 22
1, 11184, Note_on_c, 0, 34, 95
1, 11184, Note_off_c, 0, 35, 64
1, 11184, Note_off_c, 0, 81, 64
1, 11184, Note_on_c, 0, 87, 18
1, 11185, Note_on_c, 0, 33, 95
1, 11185, Note_off_c, 0, 34, 64
1, 11185, Note_on_c, 0, 64, 16
1, 11186, Note_on_c, 0, 32, 96
1, 11186, Note_off_c, 0, 33, 64
1, 11186, Note_on_c, 0, 68, 19
1, 11186, Note_on_c, 0, 85, 16
1, 11187, Note_on_c, 0, 31, 95
1, 11187, Note_off_c, 0, 32, 64
1, 11187, Note_on_c, 0, 72, 17
1, 11187, Note_off_c, 0, 77, 64
1, 11187, Note_off_c, 0, 80, 64
1, 11187, Note_on_c, 0, 83, 35
1, 11188, Note_off_c, 0, 64, 64
1, 11188, Note_off_c, 0, 79, 64
1, 11189, Note_on_c, 0, 77, 25
1, 11189, Note_off_c, 0, 87, 64
1, 11189, Note_on_c, 0, 88, 13
1, 11190, Note_on_c, 0, 30, 81
1, 11190, Note_off_c, 0, 31, 64
1, 11190, Note_off_c, 0, 68, 64
1, 11190, Note_on_c, 0, 71, 23
1, 11190, Note_off_c, 0, 72, 64
1, 11190, Note_on_c, 0, 75, 37
1, 11191, Note_off_c, 0, 85, 64
1, 11192, Note_on_c, 0, 82, 35
1, 11192, Note_off_c, 0, 83, 64
1, 11192, Note_on_c, 0, 85, 26
1, 11193, Note_off_c, 0, 30, 64
1, 11193, Note_on_c, 0, 65, 34
1, 11193, Note_off_c, 0, 77, 64
1, 11193, Note_on_c, 0, 78, 24
1, 11193, Note_on_c, 0, 83, 26
1, 11193, Note_on_c, 0, 92, 24
1, 11193, Note_on_c, 0, 93, 9
1, 11194, Note_on_c, 0, 36, 71
1, 11194, Note_on_c, 0, 61, 36
1, 11194, Note_on_c, 0, 68, 39
1, 11194, Note_off_c, 0, 71, 64
1, 11194, Note_on_c, 0, 72, 33
1, 11194, Note_off_c, 0, 84, 64
1, 11194, Note_on_c, 0, 90, 27
1, 11195, Note_on_c, 0, 31, 76
1, 11195, Note_off_c, 0, 36, 64
1, 11195, Note_off_c, 0, 65, 64
1, 11195, Note_off_c, 0, 88, 64
1, 11196, Note_on_c, 0, 30, 81
1, 11196, Note_off_c, 0, 31, 64
1, 11196, Note_on_c, 0, 58, 36
1, 11196, Note_on_c, 0, 71, 28
1, 11196, Note_off_c, 0, 72, 64
1, 11196, Note_off_c, 0, 75, 64
1, 11196, Note_off_c, 0, 78, 64
1, 11197, Note_on_c, 0, 29, 81
1, 11197, Note_off_c, 0, 30, 64
1, 11197, Note_on_c, 0, 49, 51
1, 11197, Note_on_c, 0, 78, 27
1, 11197, Note_off_c, 0, 82, 64
1, 11197, Note_on_c, 0, 86, 18
1, 11197, Note_off_c, 0, 92, 64
1, 11198, Note_off_c, 0, 58, 64
1, 11198, Note_on_c, 0, 88, 21
1, 11199, Note_off_c, 0, 29, 64
1, 11199, Note_on_c, 0, 30, 74
1, 11199, Note_off_c, 0, 61, 64
1, 11199, Note_on_c, 0, 77, 38
1, 11199, Note_off_c, 0, 83, 64
1, 11199, Note_off_c, 0, 85, 64
1, 11199, Note_off_c, 0, 93, 64
1, 11200, Note_on_c, 0, 48, 49
1, 11200, Note_off_c, 0, 49, 64
1, 11201, Note_on_c, 0, 29, 74
1, 11201, Note_off_c, 0, 30, 64
1, 11201, Note_on_c, 0, 58, 30
1, 11202, Note_off_c, 0, 48, 64
1, 11202, Note_on_c, 0, 64, 25
1, 11202, Note_off_c, 0, 71, 64
1, 11202, Note_on_c, 0, 73, 35
1, 11202, Note_off_c, 0, 88, 64
1, 11203, Note_off_c, 0, 29, 64
1, 11203, Note_on_c, 0, 30, 75
1, 11203, Note_off_c, 0, 58, 64
1, 11203, Note_off_c, 0, 68, 64
1, 11203, Note_off_c, 0, 78, 64
1, 11203, Note_off_c, 0, 86, 64
1, 11204, Note_on_c, 0, 68, 45
1, 11204, Note_on_c, 0, 78, 41
1, 11204, Note_on_c, 0, 82, 46
1, 11204, Note_on_c, 0, 84, 37
1, 11205, Note_off_c, 0, 30, 64
1, 11205, Note_on_c, 0, 31, 78
1, 11205, Note_off_c, 0, 64, 64
1, 11205, Note_on_c, 0, 72, 30
1, 11205, Note_off_c, 0, 73, 64
1, 11205, Note_on_c, 0, 74, 29
1, 11206, Note_on_c, 0, 30, 79
1, 11206, Note_off_c, 0, 31, 64
1, 11206, Note_on_c, 0, 64, 30
1, 11206, Note_on_c, 0, 83, 36
1, 11206, Note_on_c, 0, 87, 32
1, 11207, Note_on_c, 0, 29, 78
1, 11207, Note_off_c, 0, 30, 64
1, 11207, Note_off_c, 0, 72, 64
1, 11207, Note_off_c, 0, 77, 64
1, 11208, Note_on_c, 0, 86, 31
1, 11208, Note_on_c, 0, 88, 24
1, 11209, Note_off_c, 0, 29, 64
1, 11209, Note_on_c, 0, 30, 71
1, 11209, Note_off_c, 0, 64, 64
1, 11209, Note_off_c, 0, 74, 64
1, 11209, Note_on_c, 0, 76, 35
1, 11209, Note_on_c, 0, 81, 45
1, 11209, Note_off_c, 0, 90, 64
1, 11210, Note_off_c, 0, 30, 64
1, 11210, Note_on_c, 0, 34, 71
1, 11210, Note_on_c, 0, 54, 36
1, 11210, Note_on_c, 0, 74, 40
1, 11211, Note_off_c, 0, 34, 64
1, 11211, Note_on_c, 0, 70, 45
1, 11211, Note_off_c, 0, 76, 64
1, 11211, Note_on_c, 0, 92, 29
1, 11212, Note_off_c, 0, 54, 64
1, 11212, Note_on_c, 0, 76, 41
1, 11212, Note_off_c, 0, 78, 64
1, 11212, Note_on_c, 0, 79, 32
1, 11212, Note_off_c, 0, 82, 64
1, 11212, Note_off_c, 0, 84, 64
1, 11212, Note_on_c, 0, 85, 39
1, 11212, Note_off_c, 0, 86, 64
1, 11212, Note_off_c, 0, 88, 64
1, 11213, Note_on_c, 0, 53, 72
1, 11213, Note_on_c, 0, 62, 47
1, 11213, Note_off_c, 0, 68, 64
1, 11213, Note_off_c, 0, 70, 64
1, 11213, Note_on_c, 0, 72, 31
1, 11213, Note_on_c, 0, 73, 31
1, 11213, Note_off_c, 0, 83, 64
1, 11214, Note_on_c, 0, 48, 85
1, 11214, Note_off_c, 0, 53, 64
1, 11214, Note_off_c, 0, 74, 64
1, 11214, Note_off_c, 0, 79, 64
1, 11214, Note_off_c, 0, 81, 64
1, 11214, Note_off_c, 0, 87, 64
1, 11214, Note_off_c, 0, 92, 64
1, 11215, Note_on_c, 0, 45, 94
1, 11215, Note_off_c, 0, 48, 64
1, 11215, Note_on_c, 0, 71, 16
1, 11215, Note_off_c, 0, 72, 64
1, 11215, Note_off_c, 0, 73, 64
1, 11216, Note_on_c, 0, 42, 100
1, 11216, Note_off_c, 0, 45, 64
1, 11216, Note_off_c, 0, 62, 64
1, 11216, Note_off_c, 0, 76, 64
1, 11217, Note_on_c, 0, 40, 98
1, 11217, Note_off_c, 0, 42, 64
1, 11217, Note_on_c, 0, 76, 12
1, 11217, Note_on_c, 0, 79, 10
1, 11218, Note_on_c, 0, 38, 98
1, 11218, Note_off_c, 0, 40, 64
1, 11218, Note_off_c, 0, 71, 64
1, 11218, Note_on_c, 0, 83, 19
1, 11219, Note_on_c, 0, 36, 98
1, 11219, Note_off_c, 0, 38, 64
1, 11220, Note_on_c, 0, 35, 96
1, 11220, Note_off_c, 0, 36, 64
1, 11220, Note_off_c, 0, 76, 64
1, 11220, Note_on_c, 0, 78, 25
1, 11221, Note_on_c, 0, 34, 96
1, 11221, Note_off_c, 0, 35, 64
1, 11221, Note_off_c, 0, 79, 64
1, 11221, Note_on_c, 0, 81, 17
1, 11222, Note_on_c, 0, 33, 96
1, 11222, Note_off_c, 0, 34, 64
1, 11222, Note_on_c, 0, 73, 20
1, 11222, Note_off_c, 0, 85, 64
1, 11223, Note_on_c, 0, 32, 96
1, 11223, Note_off_c, 0, 33, 64
1, 11223, Note_on_c, 0, 88, 13
1, 11224, Note_off_c, 0, 81, 64
1, 11225, Note_on_c, 0, 31, 95
1, 11225, Note_off_c, 0, 32, 64
1, 11225, Note_off_c, 0, 83, 64
1, 11226, Note_off_c, 0, 88, 64
1, 11227, Note_on_c, 0, 30, 85
1, 11227, Note_off_c, 0, 31, 64
1, 11227, Note_on_c, 0, 72, 19
1, 11227, Note_off_c, 0, 73, 64
1, 11227, Note_on_c, 0, 77, 21
1, 11228, Note_off_c, 0, 78, 64
1, 11228, Note_on_c, 0, 85, 14
1, 11229, Note_on_c, 0, 66, 25
1, 11229, Note_on_c, 0, 90, 20
1, 11230, Note_off_c, 0, 30, 64
1, 11230, Note_on_c, 0, 42, 61
1, 11230, Note_off_c, 0, 72, 64
1, 11230, Note_on_c, 0, 73, 26
1, 11230, Note_on_c, 0, 75, 31
1, 11231, Note_on_c, 0, 70, 24
1, 11231, Note_on_c, 0, 81, 26
1, 11231, Note_on_c, 0, 83, 21
1, 11231, Note_off_c, 0, 85, 64
1, 11231, Note_on_c, 0, 88, 29
1, 11232, Note_on_c, 0, 31, 67
1, 11232, Note_off_c, 0, 42, 64
1, 11232, Note_on_c, 0, 76, 23
1, 11233, Note_on_c, 0, 30, 75
1, 11233, Note_off_c, 0, 31, 64
1, 11233, Note_on_c, 0, 49, 60
1, 11233, Note_off_c, 0, 73, 64
1, 11233, Note_off_c, 0, 75, 64
1, 11233, Note_off_c, 0, 77, 64
1, 11233, Note_on_c, 0, 87, 23
1, 11233, Note_on_c, 0, 89, 16
1, 11233, Note_off_c, 0, 90, 64
1, 11234, Note_on_c, 0, 29, 78
1, 11234, Note_off_c, 0, 30, 64
1, 11234, Note_on_c, 0, 80, 22
1, 11234, Note_off_c, 0, 81, 64
1, 11234, Note_off_c, 0, 83, 64
1, 11234, Note_on_c, 0, 86, 26
1, 11234, Note_on_c, 0, 90, 20
1, 11235, Note_off_c, 0, 29, 64
1, 11235, Note_on_c, 0, 30, 77
1, 11235, Note_off_c, 0, 49, 64
1, 11235, Note_off_c, 0, 66, 64
1, 11235, Note_off_c, 0, 70, 64
1, 11235, Note_on_c, 0, 72, 32
1, 11235, Note_on_c, 0, 75, 15
1, 11235, Note_off_c, 0, 76, 64
1, 11237, Note_off_c, 0, 80, 64
1, 11237, Note_off_c, 0, 89, 64
1, 11238, Note_on_c, 0, 29, 74
1, 11238, Note_off_c, 0, 30, 64
1, 11238, Note_off_c, 0, 75, 64
1, 11238, Note_on_c, 0, 76, 25
1, 11238, Note_on_c, 0, 81, 23
1, 11238, Note_off_c, 0, 87, 64
1, 11239, Note_off_c, 0, 90, 64
1, 11240, Note_on_c, 0, 85, 26
1, 11241, Note_off_c, 0, 29, 64
1, 11241, Note_on_c, 0, 30, 79
1, 11241, Note_on_c, 0, 61, 32
1, 11241, Note_on_c, 0, 63, 29
1, 11241, Note_off_c, 0, 72, 64
1, 11241, Note_on_c, 0, 73, 32
1, 11241, Note_on_c, 0, 82, 38
1, 11241, Note_on_c, 0, 87, 16
1, 11241, Note_on_c, 0, 90, 15
1, 11242, Note_on_c, 0, 49, 58
1, 11242, Note_off_c, 0, 81, 64
1, 11243, Note_on_c, 0, 78, 17
1, 11244, Note_off_c, 0, 73, 64
1, 11244, Note_off_c, 0, 85, 64
1, 11244, Note_off_c, 0, 88, 64
1, 11245, Note_off_c, 0, 49, 64
1, 11245, Note_off_c, 0, 61, 64
1, 11245, Note_off_c, 0, 63, 64
1, 11245, Note_off_c, 0, 76, 64
1, 11245, Note_off_c, 0, 87, 64
1, 11246, Note_on_c, 0, 70, 22
1, 11246, Note_on_c, 0, 79, 39
1, 11246, Note_off_c, 0, 86, 64
1, 11246, Note_on_c, 0, 88, 30
1, 11246, Note_off_c, 0, 90, 64
1, 11247, Note_off_c, 0, 30, 64
1, 11247, Note_on_c, 0, 31, 70
1, 11247, Note_on_c, 0, 54, 37
1, 11247, Note_on_c, 0, 75, 39
1, 11247, Note_on_c, 0, 77, 34
1, 11247, Note_off_c, 0, 78, 64
1, 11248, Note_off_c, 0, 31, 64
1, 11248, Note_on_c, 0, 34, 68
1, 11248, Note_on_c, 0, 73, 40
1, 11248, Note_on_c, 0, 90, 29
1, 11248, Note_on_c, 0, 92, 28
1, 11249, Note_off_c, 0, 34, 64
1, 11249, Note_off_c, 0, 54, 64
1, 11249, Note_off_c, 0, 70, 64
1, 11249, Note_on_c, 0, 71, 39
1, 11249, Note_on_c, 0, 81, 34
1, 11250, Note_on_c, 0, 64, 49
1, 11250, Note_off_c, 0, 77, 64
1, 11251, Note_on_c, 0, 49, 79
1, 11251, Note_off_c, 0, 92, 64
1, 11252, Note_on_c, 0, 45, 91
1, 11252, Note_off_c, 0, 49, 64
1, 11252, Note_off_c, 0, 64, 64
1, 11252, Note_off_c, 0, 73, 64
1, 11252, Note_off_c, 0, 75, 64
1, 11252, Note_on_c, 0, 78, 11
1, 11252, Note_off_c, 0, 79, 64
1, 11252, Note_off_c, 0, 88, 64
1, 11253, Note_on_c, 0, 42, 97
1, 11253, Note_off_c, 0, 45, 64
1, 11253, Note_off_c, 0, 82, 64
1, 11253, Note_off_c, 0, 90, 64
1, 11254, Note_on_c, 0, 41, 100
1, 11254, Note_off_c, 0, 42, 64
1, 11254, Note_off_c, 0, 71, 64
1, 11254, Note_off_c, 0, 81, 64
1, 11255, Note_on_c, 0, 38, 97
1, 11255, Note_off_c, 0, 41, 64
1, 11256, Note_on_c, 0, 37, 98
1, 11256, Note_off_c, 0, 38, 64
1, 11257, Note_on_c, 0, 36, 97
1, 11257, Note_off_c, 0, 37, 64
1, 11258, Note_on_c, 0, 35, 96
1, 11258, Note_off_c, 0, 36, 64
1, 11259, Note_on_c, 0, 34, 95
1, 11259, Note_off_c, 0, 35, 64
1, 11260, Note_on_c, 0, 33, 95
1, 11260, Note_off_c, 0, 34, 64
1, 11260, Note_on_c, 0, 88, 11
1, 11261, Note_on_c, 0, 32, 96
1, 11261, Note_off_c, 0, 33, 64
1, 11262, Note_on_c, 0, 31, 95
1, 11262, Note_off_c, 0, 32, 64
1, 11262, Note_off_c, 0, 78, 64
1, 11264, Note_off_c, 0, 88, 64
1, 11265, Note_on_c, 0, 30, 79
1, 11265, Note_off_c, 0, 31, 64
1, 11265, Note_on_c, 0, 76, 10
1, 11265, Note_on_c, 0, 80, 21
1, 11265, Note_on_c, 0, 86, 20
1, 11267, Note_off_c, 0, 30, 64
1, 11267, Note_on_c, 0, 69, 35
1, 11267, Note_on_c, 0, 87, 23
1, 11268, Note_off_c, 0, 76, 64
1, 11268, Note_off_c, 0, 80, 64
1, 11268, Note_on_c, 0, 83, 24
1, 11269, Note_on_c, 0, 36, 71
1, 11269, Note_on_c, 0, 54, 49
1, 11269, Note_on_c, 0, 61, 31
1, 11269, Note_on_c, 0, 76, 17
1, 11269, Note_on_c, 0, 82, 19
1, 11269, Note_on_c, 0, 84, 12
1, 11270, Note_on_c, 0, 30, 77
1, 11270, Note_off_c, 0, 36, 64
1, 11270, Note_off_c, 0, 69, 64
1, 11270, Note_on_c, 0, 80, 18
1, 11270, Note_off_c, 0, 87, 64
1, 11271, Note_on_c, 0, 29, 80
1, 11271, Note_off_c, 0, 30, 64
1, 11271, Note_on_c, 0, 49, 60
1, 11271, Note_off_c, 0, 54, 64
1, 11271, Note_on_c, 0, 66, 17
1, 11271, Note_on_c, 0, 74, 15
1, 11271, Note_on_c, 0, 91, 15
1, 11272, Note_off_c, 0, 84, 64
1, 11272, Note_on_c, 0, 85, 34
1, 11273, Note_off_c, 0, 29, 64
1, 11273, Note_on_c, 0, 30, 76
1, 11273, Note_off_c, 0, 49, 64
1, 11273, Note_off_c, 0, 76, 64
1, 11273, Note_off_c, 0, 80, 64
1, 11273, Note_on_c, 0, 81, 20
1, 11273, Note_off_c, 0, 86, 64
1, 11274, Note_off_c, 0, 66, 64
1, 11274, Note_on_c, 0, 71, 30
1, 11274, Note_off_c, 0, 82, 64
1, 11275, Note_on_c, 0, 29, 74
1, 11275, Note_off_c, 0, 30, 64
1, 11275, Note_off_c, 0, 74, 64
1, 11275, Note_on_c, 0, 77, 26
1, 11275, Note_on_c, 0, 86, 24
1, 11276, Note_on_c, 0, 80, 24
1, 11277, Note_off_c, 0, 61, 64
1, 11277, Note_on_c, 0, 76, 35
1, 11277, Note_off_c, 0, 81, 64
1, 11277, Note_off_c, 0, 83, 64
1, 11278, Note_off_c, 0, 29, 64
1, 11278, Note_on_c, 0, 30, 80
1, 11278, Note_on_c, 0, 63, 30
1, 11279, Note_on_c, 0, 70, 31
1, 11279, Note_off_c, 0, 71, 64
1, 11279, Note_on_c, 0, 79, 25
1, 11279, Note_off_c, 0, 80, 64
1, 11280, Note_on_c, 0, 58, 30
1, 11280, Note_off_c, 0, 63, 64
1, 11280, Note_on_c, 0, 73, 20
1, 11280, Note_off_c, 0, 76, 64
1, 11280, Note_on_c, 0, 81, 28
1, 11280, Note_on_c, 0, 87, 17
1, 11281, Note_on_c, 0, 29, 81
1, 11281, Note_off_c, 0, 30, 64
1, 11281, Note_on_c, 0, 61, 23
1, 11281, Note_off_c, 0, 86, 64
1, 11281, Note_off_c, 0, 91, 64
1, 11282, Note_off_c, 0, 29, 64
1, 11282, Note_on_c, 0, 30, 79
1, 11282, Note_off_c, 0, 58, 64
1, 11282, Note_on_c, 0, 76, 15
1, 11282, Note_off_c, 0, 77, 64
1, 11282, Note_on_c, 0, 86, 12
1, 11283, Note_off_c, 0, 79, 64
1, 11283, Note_on_c, 0, 80, 27
1, 11283, Note_off_c, 0, 81, 64
1, 11284, Note_off_c, 0, 70, 64
1, 11284, Note_off_c, 0, 73, 64
1, 11284, Note_off_c, 0, 87, 64
1, 11285, Note_off_c, 0, 30, 64
1, 11285, Note_on_c, 0, 34, 72
1, 11285, Note_off_c, 0, 61, 64
1, 11285, Note_on_c, 0, 73, 30
1, 11285, Note_on_c, 0, 75, 42
1, 11285, Note_on_c, 0, 78, 35
1, 11285, Note_off_c, 0, 86, 64
1, 11286, Note_off_c, 0, 34, 64
1, 11286, Note_on_c, 0, 60, 52
1, 11286, Note_off_c, 0, 76, 64
1, 11286, Note_on_c, 0, 79, 37
1, 11286, Note_on_c, 0, 81, 34
1, 11286, Note_on_c, 0, 86, 22
1, 11286, Note_on_c, 0, 89, 31
1, 11286, Note_on_c, 0, 94, 24
1, 11286, Note_on_c, 0, 98, 24
1, 11287, Note_on_c, 0, 65, 50
1, 11287, Note_off_c, 0, 73, 64
1, 11287, Note_off_c, 0, 78, 64
1, 11287, Note_off_c, 0, 80, 64
1, 11287, Note_on_c, 0, 83, 30
1, 11288, Note_on_c, 0, 51, 73
1, 11288, Note_off_c, 0, 60, 64
1, 11288, Note_on_c, 0, 84, 21
1, 11288, Note_on_c, 0, 88, 13
1, 11289, Note_on_c, 0, 48, 85
1, 11289, Note_off_c, 0, 51, 64
1, 11289, Note_off_c, 0, 65, 64
1, 11289, Note_off_c, 0, 75, 64
1, 11289, Note_off_c, 0, 81, 64
1, 11289, Note_on_c, 0, 82, 19
1, 11289, Note_off_c, 0, 83, 64
1, 11289, Note_off_c, 0, 86, 64
1, 11289, Note_off_c, 0, 94, 64
1, 11289, Note_off_c, 0, 98, 64
1, 11290, Note_on_c, 0, 45, 95
1, 11290, Note_off_c, 0, 48, 64
1, 11290, Note_off_c, 0, 85, 64
1, 11291, Note_on_c, 0, 42, 100
1, 11291, Note_off_c, 0, 45, 64
1, 11291, Note_off_c, 0, 79, 64
1, 11291, Note_off_c, 0, 84, 64
1, 11291, Note_off_c, 0, 88, 64
1, 11291, Note_off_c, 0, 89, 64
1, 11292, Note_on_c, 0, 40, 97
1, 11292, Note_off_c, 0, 42, 64
1, 11292, Note_off_c, 0, 82, 64
1, 11293, Note_on_c, 0, 38, 98
1, 11293, Note_off_c, 0, 40, 64
1, 11294, Note_on_c, 0, 36, 98
1, 11294, Note_off_c, 0, 38, 64
1, 11295, Note_on_c, 0, 35, 97
1, 11295, Note_off_c, 0, 36, 64
1, 11296, Note_on_c, 0, 34, 96
1, 11296, Note_off_c, 0, 35, 64
1, 11297, Note_on_c, 0, 33, 96
1, 11297, Note_off_c, 0, 34, 64
1, 11298, Note_on_c, 0, 32, 96
1, 11298, Note_off_c, 0, 33, 64
1, 11300, Note_on_c, 0, 31, 94
1, 11300, Note_off_c, 0, 32, 64
1, 11302, Note_on_c, 0, 30, 84
1, 11302, Note_off_c, 0, 31, 64
1, 11302, Note_on_c, 0, 82, 19
1, 11303, Note_on_c, 0, 77, 16
1, 11305, Note_off_c, 0, 30, 64
1, 11305, Note_on_c, 0, 71, 21
1, 11305, Note_on_c, 0, 80, 18
1, 11305, Note_off_c, 0, 82, 64
1, 11306, Note_on_c, 0, 37, 66
1, 11306, Note_on_c, 0, 85, 12
1, 11307, Note_on_c, 0, 31, 73
1, 11307, Note_off_c, 0, 37, 64
1, 11308, Note_on_c, 0, 30, 79
1, 11308, Note_off_c, 0, 31, 64
1, 11308, Note_on_c, 0, 49, 56
1, 11308, Note_off_c, 0, 71, 64
1, 11308, Note_on_c, 0, 72, 34
1, 11308, Note_on_c, 0, 76, 18
1, 11308, Note_off_c, 0, 77, 64
1, 11308, Note_on_c, 0, 78, 17
1, 11308, Note_off_c, 0, 80, 64
1, 11308, Note_on_c, 0, 82, 12
1, 11309, Note_on_c, 0, 29, 79
1, 11309, Note_off_c, 0, 30, 64
1, 11309, Note_on_c, 0, 63, 29
1, 11309, Note_on_c, 0, 83, 17
1, 11310, Note_off_c, 0, 29, 64
1, 11310, Note_on_c, 0, 30, 77
1, 11310, Note_off_c, 0, 49, 64
1, 11310, Note_off_c, 0, 85, 64
1, 11311, Note_on_c, 0, 71, 28
1, 11311, Note_off_c, 0, 72, 64
1, 11311, Note_off_c, 0, 76, 64
1, 11311, Note_off_c, 0, 82, 64
1, 11312, Note_on_c, 0, 29, 75
1, 11312, Note_off_c, 0, 30, 64
1, 11312, Note_off_c, 0, 63, 64
1, 11312, Note_on_c, 0, 76, 29
1, 11312, Note_on_c, 0, 85, 17
1, 11314, Note_off_c, 0, 71, 64
1, 11314, Note_on_c, 0, 72, 24
1, 11314, Note_off_c, 0, 83, 64
1, 11315, Note_on_c, 0, 74, 20
1, 11315, Note_off_c, 0, 78, 64
1, 11316, Note_off_c, 0, 29, 64
1, 11316, Note_on_c, 0, 30, 74
1, 11316, Note_on_c, 0, 61, 32
1, 11316, Note_on_c, 0, 64, 28
1, 11316, Note_on_c, 0, 78, 14
1, 11316, Note_on_c, 0, 81, 29
1, 11316, Note_off_c, 0, 85, 64
1, 11317, Note_off_c, 0, 30, 64
1, 11317, Note_on_c, 0, 31, 78
1, 11317, Note_on_c, 0, 49, 57
1, 11317, Note_off_c, 0, 72, 64
1, 11318, Note_on_c, 0, 30, 79
1, 11318, Note_off_c, 0, 31, 64
1, 11318, Note_off_c, 0, 76, 64
1, 11318, Note_on_c, 0, 77, 24
1, 11319, Note_on_c, 0, 29, 79
1, 11319, Note_off_c, 0, 30, 64
1, 11319, Note_off_c, 0, 64, 64
1, 11319, Note_on_c, 0, 68, 28
1, 11319, Note_off_c, 0, 78, 64
1, 11319, Note_on_c, 0, 79, 24
1, 11320, Note_off_c, 0, 29, 64
1, 11320, Note_on_c, 0, 30, 76
1, 11320, Note_off_c, 0, 49, 64
1, 11320, Note_on_c, 0, 73, 37
1, 11320, Note_off_c, 0, 74, 64
1, 11320, Note_on_c, 0, 82, 32
1, 11321, Note_off_c, 0, 61, 64
1, 11321, Note_on_c, 0, 70, 39
1, 11321, Note_off_c, 0, 81, 64
1, 11321, Note_on_c, 0, 83, 26
1, 11322, Note_off_c, 0, 30, 64
1, 11322, Note_on_c, 0, 32, 71
1, 11322, Note_on_c, 0, 54, 42
1, 11322, Note_on_c, 0, 75, 38
1, 11322, Note_off_c, 0, 79, 64
1, 11323, Note_off_c, 0, 32, 64
1, 11323, Note_on_c, 0, 35, 68
1, 11323, Note_off_c, 0, 68, 64
1, 11323, Note_off_c, 0, 77, 64
1, 11323, Note_on_c, 0, 78, 37
1, 11323, Note_on_c, 0, 80, 39
1, 11323, Note_on_c, 0, 86, 34
1, 11323, Note_on_c, 0, 91, 27
1, 11323, Note_on_c, 0, 93, 25
1, 11323, Note_on_c, 0, 101, 19
1, 11324, Note_off_c, 0, 35, 64
1, 11324, Note_off_c, 0, 54, 64
1, 11324, Note_off_c, 0, 83, 64
1, 11325, Note_on_c, 0, 55, 65
1, 11325, Note_off_c, 0, 70, 64
1, 11325, Note_off_c, 0, 80, 64
1, 11325, Note_on_c, 0, 81, 34
1, 11325, Note_off_c, 0, 82, 64
1, 11326, Note_on_c, 0, 49, 80
1, 11326, Note_off_c, 0, 55, 64
1, 11326, Note_on_c, 0, 66, 29
1, 11326, Note_off_c, 0, 75, 64
1, 11326, Note_off_c, 0, 78, 64
1, 11326, Note_off_c, 0, 91, 64
1, 11326, Note_off_c, 0, 93, 64
1, 11326, Note_off_c, 0, 101, 64
1, 11327, Note_on_c, 0, 45, 91
1, 11327, Note_off_c, 0, 49, 64
1, 11327, Note_off_c, 0, 73, 64
1, 11328, Note_on_c, 0, 42, 97
1, 11328, Note_off_c, 0, 45, 64
1, 11328, Note_off_c, 0, 66, 64
1, 11328, Note_off_c, 0, 86, 64
1, 11329, Note_on_c, 0, 41, 99
1, 11329, Note_off_c, 0, 42, 64
1, 11329, Note_off_c, 0, 81, 64
1, 11330, Note_on_c, 0, 38, 98
1, 11330, Note_off_c, 0, 41, 64
1, 11331, Note_on_c, 0, 37, 98
1, 11331, Note_off_c, 0, 38, 64
1, 11332, Note_on_c, 0, 36, 97
1, 11332, Note_off_c, 0, 37, 64
1, 11333, Note_on_c, 0, 34, 96
1, 11333, Note_off_c, 0, 36, 64
1, 11335, Note_on_c, 0, 33, 95
1, 11335, Note_off_c, 0, 34, 64
1, 11336, Note_on_c, 0, 32, 96
1, 11336, Note_off_c, 0, 33, 64
1, 11337, Note_on_c, 0, 31, 95
1, 11337, Note_off_c, 0, 32, 64
1, 11338, Note_on_c, 0, 82, 34
1, 11340, Note_on_c, 0, 30, 78
1, 11340, Note_off_c, 0, 31, 64
1, 11340, Note_on_c, 0, 70, 17
1, 11340, Note_on_c, 0, 99, 9
1, 11341, Note_on_c, 0, 77, 11
1, 11342, Note_off_c, 0, 30, 64
1, 11343, Note_off_c, 0, 70, 64
1, 11343, Note_on_c, 0, 78, 29
1, 11343, Note_on_c, 0, 85, 18
1, 11343, Note_off_c, 0, 99, 64
1, 11343, Note_on_c, 0, 102, 32
1, 11344, Note_on_c, 0, 36, 71
1, 11344, Note_on_c, 0, 58, 38
1, 11344, Note_on_c, 0, 61, 35
1, 11344, Note_on_c, 0, 64, 38
1, 11344, Note_off_c, 0, 77, 64
1, 11344, Note_on_c, 0, 79, 29
1, 11345, Note_on_c, 0, 31, 76
1, 11345, Note_off_c, 0, 36, 64
1, 11345, Note_on_c, 0, 54, 52
1, 11345, Note_on_c, 0, 87, 30
1, 11345, Note_on_c, 0, 89, 26
1, 11345, Note_on_c, 0, 100, 28
1, 11345, Note_on_c, 0, 101, 31
1, 11346, Note_on_c, 0, 30, 78
1, 11346, Note_off_c, 0, 31, 64
1, 11346, Note_off_c, 0, 58, 64
1, 11346, Note_off_c, 0, 61, 64
1, 11346, Note_on_c, 0, 68, 33
1, 11346, Note_on_c, 0, 75, 22
1, 11346, Note_on_c, 0, 99, 35
1, 11347, Note_off_c, 0, 54, 64
1, 11347, Note_on_c, 0, 63, 35
1, 11347, Note_off_c, 0, 64, 64
1, 11347, Note_off_c, 0, 78, 64
1, 11347, Note_on_c, 0, 81, 33
1, 11347, Note_on_c, 0, 84, 34
1, 11347, Note_off_c, 0, 85, 64
1, 11347, Note_on_c, 0, 86, 29
1, 11347, Note_on_c, 0, 92, 32
1, 11347, Note_on_c, 0, 97, 30
1, 11348, Note_off_c, 0, 68, 64
1, 11348, Note_on_c, 0, 73, 52
1, 11348, Note_on_c, 0, 78, 36
1, 11348, Note_off_c, 0, 79, 64
1, 11349, Note_off_c, 0, 63, 64
1, 11349, Note_on_c, 0, 70, 45
1, 11349, Note_off_c, 0, 75, 64
1, 11349, Note_on_c, 0, 83, 36
1, 11349, Note_off_c, 0, 86, 64
1, 11350, Note_on_c, 0, 29, 74
1, 11350, Note_off_c, 0, 30, 64
1, 11350, Note_off_c, 0, 73, 64
1, 11350, Note_off_c, 0, 84, 64
1, 11350, Note_on_c, 0, 88, 29
1, 11351, Note_off_c, 0, 82, 64
1, 11351, Note_on_c, 0, 94, 14
1, 11351, Note_off_c, 0, 97, 64
1, 11352, Note_on_c, 0, 76, 29
1, 11352, Note_on_c, 0, 79, 31
1, 11352, Note_on_c, 0, 84, 30
1, 11352, Note_off_c, 0, 89, 64
1, 11352, Note_on_c, 0, 97, 21
1, 11353, Note_off_c, 0, 29, 64
1, 11353, Note_on_c, 0, 30, 79
1, 11353, Note_off_c, 0, 70, 64
1, 11353, Note_on_c, 0, 77, 35
1, 11353, Note_off_c, 0, 78, 64
1, 11353, Note_off_c, 0, 81, 64
1, 11353, Note_on_c, 0, 82, 31
1, 11353, Note_off_c, 0, 83, 64
1, 11353, Note_on_c, 0, 85, 26
1, 11353, Note_off_c, 0, 88, 64
1, 11353, Note_off_c, 0, 101, 64
1, 11354, Note_on_c, 0, 70, 26
1, 11354, Note_on_c, 0, 72, 19
1, 11354, Note_on_c, 0, 74, 25
1, 11354, Note_on_c, 0, 86, 29
1, 11354, Note_off_c, 0, 87, 64
1, 11354, Note_on_c, 0, 101, 22
1, 11355, Note_off_c, 0, 77, 64
1, 11355, Note_on_c, 0, 87, 18
1, 11356, Note_on_c, 0, 29, 79
1, 11356, Note_off_c, 0, 30, 64
1, 11356, Note_on_c, 0, 61, 26
1, 11356, Note_on_c, 0, 78, 21
1, 11356, Note_off_c, 0, 84, 64
1, 11356, Note_off_c, 0, 86, 64
1, 11356, Note_off_c, 0, 92, 64
1, 11357, Note_off_c, 0, 29, 64
1, 11357, Note_on_c, 0, 30, 78
1, 11357, Note_on_c, 0, 64, 19
1, 11357, Note_off_c, 0, 76, 64
1, 11357, Note_off_c, 0, 94, 64
1, 11357, Note_off_c, 0, 101, 64
1, 11358, Note_off_c, 0, 82, 64
1, 11358, Note_off_c, 0, 87, 64
1, 11359, Note_off_c, 0, 70, 64
1, 11359, Note_off_c, 0, 74, 64
1, 11359, Note_on_c, 0, 77, 39
1, 11359, Note_off_c, 0, 78, 64
1, 11359, Note_off_c, 0, 79, 64
1, 11359, Note_on_c, 0, 80, 35
1, 11360, Note_off_c, 0, 30, 64
1, 11360, Note_on_c, 0, 34, 72
1, 11360, Note_on_c, 0, 54, 34
1, 11360, Note_off_c, 0, 64, 64
1, 11360, Note_on_c, 0, 71, 34
1, 11360, Note_off_c, 0, 72, 64
1, 11360, Note_on_c, 0, 82, 34
1, 11360, Note_off_c, 0, 85, 64
1, 11360, Note_on_c, 0, 87, 33
1, 11361, Note_off_c, 0, 34, 64
1, 11361, Note_off_c, 0, 61, 64
1, 11361, Note_on_c, 0, 62, 48
1, 11361, Note_on_c, 0, 81, 33
1, 11361, Note_on_c, 0, 85, 25
1, 11361, Note_on_c, 0, 88, 24
1, 11361, Note_on_c, 0, 91, 27
1, 11361, Note_on_c, 0, 96, 24
1, 11361, Note_on_c, 0, 98, 23
1, 11362, Note_off_c, 0, 54, 64
1, 11362, Note_on_c, 0, 67, 44
1, 11362, Note_on_c, 0, 69, 45
1, 11362, Note_off_c, 0, 71, 64
1, 11362, Note_on_c, 0, 86, 29
1, 11363, Note_on_c, 0, 51, 76
1, 11363, Note_off_c, 0, 62, 64
1, 11363, Note_on_c, 0, 73, 25
1, 11363, Note_off_c, 0, 77, 64
1, 11363, Note_off_c, 0, 87, 64
1, 11363, Note_off_c, 0, 100, 64
1, 11364, Note_on_c, 0, 48, 86
1, 11364, Note_off_c, 0, 51, 64
1, 11364, Note_off_c, 0, 69, 64
1, 11364, Note_off_c, 0, 80, 64
1, 11364, Note_off_c, 0, 91, 64
1, 11364, Note_off_c, 0, 96, 64
1, 11364, Note_off_c, 0, 98, 64
1, 11365, Note_on_c, 0, 44, 95
1, 11365, Note_off_c, 0, 48, 64
1, 11365, Note_on_c, 0, 66, 17
1, 11365, Note_off_c, 0, 67, 64
1, 11365, Note_off_c, 0, 86, 64
1, 11365, Note_off_c, 0, 102, 64
1, 11366, Note_on_c, 0, 41, 100
1, 11366, Note_off_c, 0, 44, 64
1, 11366, Note_off_c, 0, 82, 64
1, 11367, Note_on_c, 0, 40, 97
1, 11367, Note_off_c, 0, 41, 64
1, 11367, Note_off_c, 0, 81, 64
1, 11367, Note_off_c, 0, 85, 64
1, 11368, Note_on_c, 0, 38, 98
1, 11368, Note_off_c, 0, 40, 64
1, 11368, Note_off_c, 0, 88, 64
1, 11368, Note_off_c, 0, 97, 64
1, 11369, Note_on_c, 0, 36, 97
1, 11369, Note_off_c, 0, 38, 64
1, 11369, Note_on_c, 0, 82, 18
1, 11370, Note_on_c, 0, 35, 97
1, 11370, Note_off_c, 0, 36, 64
1, 11370, Note_off_c, 0, 73, 64
1, 11370, Note_off_c, 0, 99, 64
1, 11371, Note_on_c, 0, 34, 96
1, 11371, Note_off_c, 0, 35, 64
1, 11372, Note_on_c, 0, 33, 95
1, 11372, Note_off_c, 0, 34, 64
1, 11372, Note_off_c, 0, 66, 64
1, 11372, Note_off_c, 0, 82, 64
1, 11373, Note_on_c, 0, 32, 96
1, 11373, Note_off_c, 0, 33, 64
1, 11373, Note_on_c, 0, 86, 11
1, 11374, Note_on_c, 0, 82, 24
1, 11374, Note_on_c, 0, 97, 36
1, 11374, Note_on_c, 0, 99, 26
1, 11374, Note_on_c, 0, 102, 34
1, 11375, Note_on_c, 0, 31, 94
1, 11375, Note_off_c, 0, 32, 64
1, 11375, Note_on_c, 0, 92, 16
1, 11376, Note_on_c, 0, 77, 13
1, 11376, Note_on_c, 0, 90, 10
1, 11376, Note_on_c, 0, 96, 20
1, 11376, Note_on_c, 0, 101, 10
1, 11377, Note_on_c, 0, 30, 82
1, 11377, Note_off_c, 0, 31, 64
1, 11377, Note_on_c, 0, 73, 25
1, 11377, Note_on_c, 0, 83, 13
1, 11377, Note_on_c, 0, 93, 14
1, 11378, Note_off_c, 0, 86, 64
1, 11378, Note_on_c, 0, 89, 15
1, 11379, Note_off_c, 0, 30, 64
1, 11379, Note_off_c, 0, 77, 64
1, 11379, Note_on_c, 0, 86, 19
1, 11379, Note_off_c, 0, 90, 64
1, 11380, Note_on_c, 0, 63, 32
1, 11380, Note_on_c, 0, 77, 15
1, 11380, Note_off_c, 0, 101, 64
1, 11381, Note_on_c, 0, 37, 67
1, 11381, Note_on_c, 0, 78, 24
1, 11381, Note_on_c, 0, 84, 15
1, 11381, Note_off_c, 0, 92, 64
1, 11381, Note_off_c, 0, 93, 64
1, 11382, Note_on_c, 0, 31, 73
1, 11382, Note_off_c, 0, 37, 64
1, 11382, Note_on_c, 0, 68, 29
1, 11382, Note_off_c, 0, 83, 64
1, 11382, Note_off_c, 0, 89, 64
1, 11383, Note_on_c, 0, 30, 79
1, 11383, Note_off_c, 0, 31, 64
1, 11383, Note_off_c, 0, 73, 64
1, 11383, Note_off_c, 0, 77, 64
1, 11383, Note_on_c, 0, 81, 13
1, 11383, Note_off_c, 0, 82, 64
1, 11383, Note_on_c, 0, 83, 15
1, 11384, Note_on_c, 0, 29, 80
1, 11384, Note_off_c, 0, 30, 64
1, 11384, Note_on_c, 0, 61, 21
1, 11384, Note_off_c, 0, 63, 64
1, 11384, Note_on_c, 0, 64, 27
1, 11384, Note_off_c, 0, 68, 64
1, 11384, Note_off_c, 0, 96, 64
1, 11384, Note_on_c, 0, 100, 42
1, 11384, Note_on_c, 0, 101, 14
1, 11385, Note_on_c, 0, 49, 55
1, 11385, Note_on_c, 0, 77, 17
1, 11385, Note_off_c, 0, 78, 64
1, 11385, Note_off_c, 0, 99, 64
1, 11386, Note_off_c, 0, 29, 64
1, 11386, Note_on_c, 0, 30, 76
1, 11386, Note_off_c, 0, 81, 64
1, 11386, Note_off_c, 0, 86, 64
1, 11386, Note_on_c, 0, 99, 43
1, 11386, Note_off_c, 0, 100, 64
1, 11387, Note_off_c, 0, 49, 64
1, 11387, Note_on_c, 0, 74, 18
1, 11387, Note_off_c, 0, 84, 64
1, 11387, Note_off_c, 0, 101, 64
1, 11388, Note_on_c, 0, 29, 74
1, 11388, Note_off_c, 0, 30, 64
1, 11388, Note_off_c, 0, 64, 64
1, 11388, Note_on_c, 0, 76, 18
1, 11388, Note_off_c, 0, 77, 64
1, 11388, Note_on_c, 0, 79, 21
1, 11388, Note_on_c, 0, 85, 30
1, 11390, Note_off_c, 0, 29, 64
1, 11390, Note_on_c, 0, 30, 80
1, 11390, Note_off_c, 0, 61, 64
1, 11390, Note_off_c, 0, 74, 64
1, 11390, Note_on_c, 0, 86, 19
1, 11390, Note_on_c, 0, 88, 30
1, 11390, Note_on_c, 0, 89, 17
1, 11391, Note_on_c, 0, 61, 33
1, 11391, Note_on_c, 0, 64, 35
1, 11391, Note_on_c, 0, 71, 31
1, 11391, Note_on_c, 0, 75, 18
1, 11391, Note_on_c, 0, 78, 20
1, 11391, Note_off_c, 0, 79, 64
1, 11391, Note_on_c, 0, 80, 35
1, 11392, Note_off_c, 0, 88, 64
1, 11393, Note_on_c, 0, 63, 29
1, 11393, Note_off_c, 0, 64, 64
1, 11393, Note_off_c, 0, 76, 64
1, 11393, Note_off_c, 0, 86, 64
1, 11393, Note_off_c, 0, 89, 64
1, 11393, Note_on_c, 0, 94, 27
1, 11393, Note_on_c, 0, 101, 10
1, 11394, Note_on_c, 0, 68, 20
1, 11394, Note_on_c, 0, 90, 27
1, 11394, Note_on_c, 0, 100, 43
1, 11395, Note_on_c, 0, 29, 77
1, 11395, Note_off_c, 0, 30, 64
1, 11395, Note_off_c, 0, 63, 64
1, 11395, Note_off_c, 0, 78, 64
1, 11395, Note_on_c, 0, 82, 35
1, 11395, Note_off_c, 0, 83, 64
1, 11395, Note_on_c, 0, 88, 11
1, 11395, Note_off_c, 0, 99, 64
1, 11396, Note_off_c, 0, 29, 64
1, 11396, Note_on_c, 0, 30, 73
1, 11396, Note_off_c, 0, 61, 64
1, 11396, Note_on_c, 0, 99, 27
1, 11396, Note_off_c, 0, 101, 64
1, 11397, Note_off_c, 0, 30, 64
1, 11397, Note_on_c, 0, 32, 70
1, 11397, Note_on_c, 0, 63, 46
1, 11397, Note_off_c, 0, 68, 64
1, 11397, Note_on_c, 0, 70, 41
1, 11397, Note_off_c, 0, 71, 64
1, 11397, Note_off_c, 0, 90, 64
1, 11397, Note_off_c, 0, 94, 64
1, 11397, Note_on_c, 0, 101, 20
1, 11397, Note_off_c, 0, 102, 64
1, 11398, Note_off_c, 0, 32, 64
1, 11398, Note_on_c, 0, 34, 66
1, 11398, Note_off_c, 0, 75, 64
1, 11398, Note_on_c, 0, 78, 34
1, 11398, Note_on_c, 0, 83, 31
1, 11398, Note_on_c, 0, 84, 28
1, 11398, Note_on_c, 0, 86, 30
1, 11398, Note_on_c, 0, 87, 29
1, 11398, Note_on_c, 0, 89, 29
1, 11398, Note_on_c, 0, 91, 26
1, 11398, Note_on_c, 0, 93, 27
1, 11398, Note_on_c, 0, 102, 28
1, 11399, Note_off_c, 0, 34, 64
1, 11399, Note_on_c, 0, 73, 43
1, 11399, Note_on_c, 0, 76, 35
1, 11399, Note_off_c, 0, 88, 64
1, 11400, Note_on_c, 0, 54, 68
1, 11400, Note_off_c, 0, 63, 64
1, 11400, Note_off_c, 0, 82, 64
1, 11400, Note_off_c, 0, 85, 64
1, 11401, Note_on_c, 0, 48, 81
1, 11401, Note_off_c, 0, 54, 64
1, 11401, Note_on_c, 0, 63, 29
1, 11401, Note_off_c, 0, 73, 64
1, 11401, Note_off_c, 0, 80, 64
1, 11401, Note_off_c, 0, 84, 64
1, 11401, Note_off_c, 0, 86, 64
1, 11401, Note_off_c, 0, 89, 64
1, 11401, Note_off_c, 0, 91, 64
1, 11401, Note_off_c, 0, 99, 64
1, 11401, Note_off_c, 0, 100, 64
1, 11401, Note_off_c, 0, 101, 64
1, 11401, Note_off_c, 0, 102, 64
1, 11402, Note_on_c, 0, 45, 92
1, 11402, Note_off_c, 0, 48, 64
1, 11402, Note_off_c, 0, 70, 64
1, 11402, Note_on_c, 0, 71, 15
1, 11402, Note_off_c, 0, 78, 64
1, 11402, Note_off_c, 0, 83, 64
1, 11402, Note_off_c, 0, 93, 64
1, 11403, Note_on_c, 0, 42, 98
1, 11403, Note_off_c, 0, 45, 64
1, 11403, Note_off_c, 0, 63, 64
1, 11403, Note_on_c, 0, 64, 16
1, 11403, Note_off_c, 0, 76, 64
1, 11403, Note_off_c, 0, 87, 64
1, 11404, Note_on_c, 0, 41, 99
1, 11404, Note_off_c, 0, 42, 64
1, 11405, Note_on_c, 0, 38, 97
1, 11405, Note_off_c, 0, 41, 64
1, 11405, Note_on_c, 0, 85, 20
1, 11405, Note_on_c, 0, 91, 11
1, 11406, Note_on_c, 0, 37, 98
1, 11406, Note_off_c, 0, 38, 64
1, 11406, Note_off_c, 0, 71, 64
1, 11406, Note_on_c, 0, 89, 10
1, 11407, Note_on_c, 0, 36, 97
1, 11407, Note_off_c, 0, 37, 64
1, 11407, Note_on_c, 0, 80, 16
1, 11407, Note_on_c, 0, 99, 10
1, 11408, Note_on_c, 0, 34, 96
1, 11408, Note_off_c, 0, 36, 64
1, 11408, Note_off_c, 0, 85, 64
1, 11408, Note_off_c, 0, 91, 64
1, 11409, Note_on_c, 0, 33, 96
1, 11409, Note_off_c, 0, 34, 64
1, 11409, Note_off_c, 0, 89, 64
1, 11409, Note_off_c, 0, 97, 64
1, 11411, Note_on_c, 0, 32, 96
1, 11411, Note_off_c, 0, 33, 64
1, 11411, Note_off_c, 0, 64, 64
1, 11411, Note_on_c, 0, 97, 40
1, 11411, Note_off_c, 0, 99, 64
1, 11412, Note_on_c, 0, 31, 95
1, 11412, Note_off_c, 0, 32, 64
1, 11412, Note_on_c, 0, 100, 24
1, 11413, Note_on_c, 0, 76, 21
1, 11413, Note_off_c, 0, 80, 64
1, 11414, Note_on_c, 0, 71, 29
1, 11415, Note_on_c, 0, 30, 77
1, 11415, Note_off_c, 0, 31, 64
1, 11415, Note_on_c, 0, 80, 14
1, 11415, Note_off_c, 0, 100, 64
1, 11417, Note_off_c, 0, 30, 64
1, 11417, Note_on_c, 0, 77, 33
1, 11417, Note_on_c, 0, 86, 30
1, 11418, Note_off_c, 0, 76, 64
1, 11418, Note_on_c, 0, 84, 25
1, 11418, Note_on_c, 0, 99, 18
1, 11419, Note_on_c, 0, 36, 69
1, 11419, Note_on_c, 0, 70, 29
1, 11419, Note_off_c, 0, 71, 64
1, 11419, Note_on_c, 0, 76, 24
1, 11419, Note_on_c, 0, 90, 23
1, 11419, Note_on_c, 0, 93, 10
1, 11419, Note_on_c, 0, 100, 32
1, 11420, Note_on_c, 0, 31, 77
1, 11420, Note_off_c, 0, 36, 64
1, 11420, Note_on_c, 0, 49, 58
1, 11420, Note_on_c, 0, 54, 49
1, 11420, Note_off_c, 0, 77, 64
1, 11420, Note_off_c, 0, 86, 64
1, 11421, Note_on_c, 0, 29, 80
1, 11421, Note_off_c, 0, 31, 64
1, 11421, Note_off_c, 0, 80, 64
1, 11421, Note_off_c, 0, 99, 64
1, 11422, Note_off_c, 0, 54, 64
1, 11422, Note_on_c, 0, 63, 19
1, 11422, Note_on_c, 0, 66, 36
1, 11422, Note_on_c, 0, 73, 15
1, 11422, Note_off_c, 0, 93, 64
1, 11423, Note_off_c, 0, 29, 64
1, 11423, Note_on_c, 0, 30, 74
1, 11423, Note_off_c, 0, 49, 64
1, 11423, Note_off_c, 0, 70, 64
1, 11423, Note_off_c, 0, 90, 64
1, 11424, Note_on_c, 0, 54, 48
1, 11424, Note_on_c, 0, 61, 39
1, 11424, Note_on_c, 0, 70, 25
1, 11425, Note_on_c, 0, 29, 72
1, 11425, Note_off_c, 0, 30, 64
1, 11425, Note_off_c, 0, 73, 64
1, 11426, Note_off_c, 0, 63, 64
1, 11426, Note_on_c, 0, 72, 18
1, 11426, Note_on_c, 0, 80, 20
1, 11426, Note_on_c, 0, 85, 28
1, 11426, Note_on_c, 0, 90, 37
1, 11427, Note_on_c, 0, 83, 21
1, 11427, Note_off_c, 0, 84, 64
1, 11427, Note_on_c, 0, 86, 19
1, 11427, Note_off_c, 0, 100, 64
1, 11428, Note_off_c, 0, 29, 64
1, 11428, Note_on_c, 0, 30, 79
1, 11428, Note_off_c, 0, 54, 64
1, 11428, Note_off_c, 0, 76, 64
1, 11428, Note_on_c, 0, 77, 29
1, 11428, Note_on_c, 0, 92, 24
1, 11429, Note_off_c, 0, 70, 64
1, 11429, Note_off_c, 0, 80, 64
1, 11430, Note_off_c, 0, 72, 64
1, 11430, Note_off_c, 0, 86, 64
1, 11431, Note_on_c, 0, 29, 79
1, 11431, Note_off_c, 0, 30, 64
1, 11431, Note_on_c, 0, 82, 14
1, 11431, Note_off_c, 0, 83, 64
1, 11431, Note_on_c, 0, 84, 36
1, 11431, Note_off_c, 0, 85, 64
1, 11431, Note_off_c, 0, 90, 64
1, 11432, Note_on_c, 0, 79, 20
1, 11433, Note_off_c, 0, 29, 64
1, 11433, Note_on_c, 0, 30, 73
1, 11433, Note_on_c, 0, 85, 29
1, 11433, Note_on_c, 0, 86, 37
1, 11433, Note_on_c, 0, 90, 29
1, 11433, Note_on_c, 0, 91, 29
1, 11434, Note_on_c, 0, 73, 43
1, 11434, Note_off_c, 0, 77, 64
1, 11434, Note_off_c, 0, 82, 64
1, 11435, Note_off_c, 0, 30, 64
1, 11435, Note_on_c, 0, 34, 71
1, 11435, Note_off_c, 0, 61, 64
1, 11435, Note_off_c, 0, 66, 64
1, 11435, Note_on_c, 0, 67, 36
1, 11435, Note_on_c, 0, 78, 30
1, 11435, Note_off_c, 0, 79, 64
1, 11435, Note_on_c, 0, 80, 39
1, 11435, Note_on_c, 0, 94, 26
1, 11436, Note_off_c, 0, 34, 64
1, 11436, Note_on_c, 0, 71, 42
1, 11436, Note_on_c, 0, 82, 38
1, 11436, Note_on_c, 0, 93, 22
1, 11436, Note_on_c, 0, 100, 24
1, 11437, Note_on_c, 0, 64, 51
1, 11437, Note_off_c, 0, 67, 64
1, 11437, Note_off_c, 0, 78, 64
1, 11437, Note_off_c, 0, 85, 64
1, 11437, Note_on_c, 0, 89, 28
1, 11437, Note_off_c, 0, 92, 64
1, 11438, Note_on_c, 0, 51, 76
1, 11438, Note_off_c, 0, 90, 64
1, 11438, Note_off_c, 0, 94, 64
1, 11439, Note_on_c, 0, 46, 87
1, 11439, Note_off_c, 0, 51, 64
1, 11439, Note_off_c, 0, 64, 64
1, 11439, Note_off_c, 0, 82, 64
1, 11439, Note_off_c, 0, 84, 64
1, 11439, Note_off_c, 0, 86, 64
1, 11439, Note_off_c, 0, 91, 64
1, 11439, Note_off_c, 0, 93, 64
1, 11439, Note_off_c, 0, 100, 64
1, 11440, Note_on_c, 0, 44, 94
1, 11440, Note_off_c, 0, 46, 64
1, 11440, Note_off_c, 0, 71, 64
1, 11440, Note_off_c, 0, 73, 64
1, 11440, Note_off_c, 0, 80, 64
1, 11440, Note_off_c, 0, 89, 64
1, 11441, Note_on_c, 0, 41, 100
1, 11441, Note_off_c, 0, 44, 64
1, 11442, Note_on_c, 0, 39, 97
1, 11442, Note_off_c, 0, 41, 64
1, 11443, Note_on_c, 0, 37, 98
1, 11443, Note_off_c, 0, 39, 64
1, 11443, Note_on_c, 0, 91, 24
1, 11443, Note_off_c, 0, 97, 64
1, 11444, Note_on_c, 0, 36, 98
1, 11444, Note_off_c, 0, 37, 64
1, 11445, Note_on_c, 0, 35, 96
1, 11445, Note_off_c, 0, 36, 64
1, 11445, Note_on_c, 0, 90, 26
1, 11446, Note_on_c, 0, 34, 96
1, 11446, Note_off_c, 0, 35, 64
1, 11446, Note_on_c, 0, 48, 28
1, 11446, Note_off_c, 0, 91, 64
1, 11446, Note_on_c, 0, 97, 12
1, 11447, Note_on_c, 0, 33, 95
1, 11447, Note_off_c, 0, 34, 64
1, 11447, Note_on_c, 0, 81, 12
1, 11448, Note_on_c, 0, 32, 96
1, 11448, Note_off_c, 0, 33, 64
1, 11448, Note_on_c, 0, 70, 15
1, 11450, Note_on_c, 0, 31, 94
1, 11450, Note_off_c, 0, 32, 64
1, 11450, Note_off_c, 0, 48, 64
1, 11450, Note_on_c, 0, 49, 23
1, 11450, Note_on_c, 0, 80, 10
1, 11450, Note_off_c, 0, 81, 64
1, 11450, Note_off_c, 0, 90, 64
1, 11450, Note_off_c, 0, 97, 64
1, 11452, Note_on_c, 0, 30, 82
1, 11452, Note_off_c, 0, 31, 64
1, 11452, Note_off_c, 0, 70, 64
1, 11452, Note_on_c, 0, 76, 18
1, 11453, Note_off_c, 0, 49, 64
1, 11454, Note_off_c, 0, 30, 64
1, 11454, Note_off_c, 0, 80, 64
1, 11454, Note_on_c, 0, 90, 36
1, 11455, Note_on_c, 0, 70, 49
1, 11455, Note_off_c, 0, 76, 64
1, 11455, Note_on_c, 0, 86, 46
1, 11456, Note_on_c, 0, 37, 68
1, 11456, Note_on_c, 0, 59, 38
1, 11456, Note_on_c, 0, 63, 39
1, 11456, Note_on_c, 0, 78, 37
1, 11456, Note_on_c, 0, 89, 13
1, 11457, Note_on_c, 0, 31, 73
1, 11457, Note_off_c, 0, 37, 64
1, 11457, Note_on_c, 0, 73, 34
1, 11457, Note_on_c, 0, 83, 12
1, 11457, Note_on_c, 0, 85, 41
1, 11457, Note_off_c, 0, 86, 64
1, 11458, Note_on_c, 0, 30, 79
1, 11458, Note_off_c, 0, 31, 64
1, 11458, Note_off_c, 0, 59, 64
1, 11458, Note_on_c, 0, 62, 50
1, 11458, Note_off_c, 0, 63, 64
1, 11458, Note_on_c, 0, 76, 45
1, 11458, Note_on_c, 0, 87, 16
1, 11459, Note_on_c, 0, 29, 79
1, 11459, Note_off_c, 0, 30, 64
1, 11459, Note_on_c, 0, 49, 57
1, 11459, Note_on_c, 0, 66, 53
1, 11459, Note_on_c, 0, 80, 32
1, 11460, Note_off_c, 0, 29, 64
1, 11460, Note_on_c, 0, 30, 76
1, 11460, Note_off_c, 0, 62, 64
1, 11460, Note_off_c, 0, 83, 64
1, 11460, Note_off_c, 0, 89, 64
1, 11460, Note_on_c, 0, 94, 18
1, 11461, Note_off_c, 0, 87, 64
1, 11462, Note_on_c, 0, 48, 52
1, 11462, Note_off_c, 0, 49, 64
1, 11462, Note_on_c, 0, 100, 26
1, 11463, Note_on_c, 0, 83, 14
1, 11464, Note_on_c, 0, 29, 70
1, 11464, Note_off_c, 0, 30, 64
1, 11464, Note_off_c, 0, 48, 64
1, 11464, Note_off_c, 0, 73, 64
1, 11464, Note_on_c, 0, 89, 15
1, 11464, Note_off_c, 0, 94, 64
1, 11465, Note_on_c, 0, 84, 21
1, 11465, Note_off_c, 0, 85, 64
1, 11465, Note_on_c, 0, 91, 21
1, 11466, Note_off_c, 0, 29, 64
1, 11466, Note_on_c, 0, 30, 79
1, 11466, Note_on_c, 0, 61, 42
1, 11467, Note_on_c, 0, 49, 61
1, 11467, Note_off_c, 0, 83, 64
1, 11467, Note_on_c, 0, 87, 20
1, 11469, Note_on_c, 0, 83, 27
1, 11469, Note_off_c, 0, 84, 64
1, 11469, Note_on_c, 0, 85, 42
1, 11469, Note_off_c, 0, 89, 64
1, 11469, Note_off_c, 0, 91, 64
1, 11470, Note_off_c, 0, 49, 64
1, 11472, Note_off_c, 0, 30, 64
1, 11472, Note_on_c, 0, 33, 71
1, 11472, Note_off_c, 0, 61, 64
1, 11472, Note_off_c, 0, 66, 64
1, 11472, Note_on_c, 0, 67, 55
1, 11472, Note_off_c, 0, 80, 64
1, 11472, Note_off_c, 0, 83, 64
1, 11472, Note_on_c, 0, 86, 33
1, 11472, Note_off_c, 0, 100, 64
1, 11473, Note_off_c, 0, 33, 64
1, 11473, Note_on_c, 0, 35, 66
1, 11473, Note_on_c, 0, 63, 47
1, 11473, Note_on_c, 0, 74, 39
1, 11473, Note_on_c, 0, 83, 41
1, 11473, Note_on_c, 0, 91, 31
1, 11473, Note_on_c, 0, 92, 29
1, 11473, Note_on_c, 0, 93, 29
1, 11473, Note_on_c, 0, 96, 20
1, 11473, Note_on_c, 0, 101, 18
1, 11474, Note_off_c, 0, 35, 64
1, 11474, Note_on_c, 0, 80, 30
1, 11474, Note_off_c, 0, 87, 64
1, 11475, Note_on_c, 0, 54, 70
1, 11475, Note_off_c, 0, 67, 64
1, 11475, Note_on_c, 0, 68, 46
1, 11476, Note_on_c, 0, 48, 82
1, 11476, Note_off_c, 0, 54, 64
1, 11476, Note_off_c, 0, 80, 64
1, 11476, Note_off_c, 0, 86, 64
1, 11476, Note_off_c, 0, 91, 64
1, 11476, Note_off_c, 0, 92, 64
1, 11476, Note_off_c, 0, 93, 64
1, 11476, Note_off_c, 0, 96, 64
1, 11476, Note_off_c, 0, 101, 64
1, 11477, Note_on_c, 0, 45, 92
1, 11477, Note_off_c, 0, 48, 64
1, 11477, Note_off_c, 0, 70, 64
1, 11477, Note_off_c, 0, 76, 64
1, 11478, Note_on_c, 0, 42, 98
1, 11478, Note_off_c, 0, 45, 64
1, 11478, Note_on_c, 0, 56, 40
1, 11478, Note_off_c, 0, 83, 64
1, 11479, Note_on_c, 0, 40, 98
1, 11479, Note_off_c, 0, 42, 64
1, 11479, Note_off_c, 0, 63, 64
1, 11479, Note_off_c, 0, 74, 64
1, 11479, Note_off_c, 0, 78, 64
1, 11480, Note_on_c, 0, 38, 97
1, 11480, Note_off_c, 0, 40, 64
1, 11480, Note_off_c, 0, 56, 64
1, 11481, Note_on_c, 0, 37, 98
1, 11481, Note_off_c, 0, 38, 64
1, 11481, Note_on_c, 0, 56, 34
1, 11482, Note_on_c, 0, 35, 97
1, 11482, Note_off_c, 0, 37, 64
1, 11482, Note_on_c, 0, 84, 12
1, 11483, Note_on_c, 0, 34, 96
1, 11483, Note_off_c, 0, 35, 64
1, 11483, Note_on_c, 0, 66, 18
1, 11483, Note_on_c, 0, 75, 22
1, 11484, Note_on_c, 0, 33, 96
1, 11484, Note_off_c, 0, 34, 64
1, 11484, Note_on_c, 0, 86, 18
1, 11485, Note_on_c, 0, 32, 96
1, 11485, Note_off_c, 0, 33, 64
1, 11485, Note_off_c, 0, 68, 64
1, 11485, Note_off_c, 0, 90, 64
1, 11486, Note_off_c, 0, 66, 64
1, 11486, Note_on_c, 0, 79, 19
1, 11486, Note_off_c, 0, 85, 64
1, 11487, Note_on_c, 0, 31, 94
1, 11487, Note_off_c, 0, 32, 64
1, 11487, Note_off_c, 0, 86, 64
1, 11488, Note_on_c, 0, 66, 32
1, 11488, Note_on_c, 0, 73, 31
1, 11488, Note_off_c, 0, 84, 64
1, 11489, Note_on_c, 0, 61, 43
1, 11490, Note_on_c, 0, 30, 76
1, 11490, Note_off_c, 0, 31, 64
1, 11490, Note_off_c, 0, 79, 64
1, 11491, Note_off_c, 0, 30, 64
1, 11492, Note_off_c, 0, 56, 64
1, 11492, Note_off_c, 0, 75, 64
1, 11493, Note_on_c, 0, 88, 13
1, 11494, Note_on_c, 0, 36, 68
1, 11494, Note_on_c, 0, 54, 47
1, 11494, Note_off_c, 0, 66, 64
1, 11494, Note_on_c, 0, 70, 25
1, 11494, Note_on_c, 0, 77, 25
1, 11494, Note_on_c, 0, 79, 45
1, 11495, Note_on_c, 0, 30, 77
1, 11495, Note_off_c, 0, 36, 64
1, 11496, Note_on_c, 0, 29, 79
1, 11496, Note_off_c, 0, 30, 64
1, 11496, Note_on_c, 0, 84, 12
1, 11496, Note_on_c, 0, 86, 44
1, 11497, Note_off_c, 0, 54, 64
1, 11497, Note_on_c, 0, 66, 47
1, 11497, Note_off_c, 0, 70, 64
1, 11497, Note_off_c, 0, 77, 64
1, 11497, Note_on_c, 0, 90, 37
1, 11498, Note_off_c, 0, 29, 64
1, 11498, Note_on_c, 0, 30, 76
1, 11498, Note_on_c, 0, 70, 43
1, 11498, Note_off_c, 0, 88, 64
1, 11499, Note_on_c, 0, 83, 16
1, 11499, Note_off_c, 0, 84, 64
1, 11500, Note_on_c, 0, 29, 75
1, 11500, Note_off_c, 0, 30, 64
1, 11500, Note_off_c, 0, 61, 64
1, 11500, Note_on_c, 0, 80, 14
1, 11500, Note_on_c, 0, 85, 56
1, 11500, Note_off_c, 0, 86, 64
1, 11501, Note_off_c, 0, 79, 64
1, 11502, Note_on_c, 0, 79, 29
1, 11502, Note_on_c, 0, 94, 12
1, 11503, Note_off_c, 0, 29, 64
1, 11503, Note_on_c, 0, 30, 79
1, 11503, Note_on_c, 0, 61, 31
1, 11503, Note_on_c, 0, 77, 25
1, 11503, Note_on_c, 0, 78, 60
1, 11503, Note_off_c, 0, 80, 64
1, 11504, Note_on_c, 0, 49, 59
1, 11504, Note_off_c, 0, 79, 64
1, 11504, Note_on_c, 0, 80, 31
1, 11505, Note_off_c, 0, 94, 64
1, 11506, Note_on_c, 0, 29, 78
1, 11506, Note_off_c, 0, 30, 64
1, 11506, Note_on_c, 0, 54, 53
1, 11506, Note_off_c, 0, 61, 64
1, 11506, Note_on_c, 0, 63, 26
1, 11506, Note_off_c, 0, 77, 64
1, 11506, Note_off_c, 0, 90, 64
1, 11507, Note_off_c, 0, 29, 64
1, 11507, Note_on_c, 0, 30, 75
1, 11507, Note_off_c, 0, 49, 64
1, 11507, Note_off_c, 0, 80, 64
1, 11507, Note_off_c, 0, 83, 64
1, 11507, Note_on_c, 0, 100, 22
1, 11508, Note_off_c, 0, 54, 64
1, 11508, Note_off_c, 0, 73, 64
1, 11508, Note_on_c, 0, 76, 22
1, 11509, Note_on_c, 0, 29, 69
1, 11509, Note_off_c, 0, 30, 64
1, 11509, Note_off_c, 0, 63, 64
1, 11509, Note_on_c, 0, 64, 39
1, 11509, Note_off_c, 0, 66, 64
1, 11509, Note_on_c, 0, 67, 37
1, 11510, Note_off_c, 0, 29, 64
1, 11510, Note_on_c, 0, 34, 70
1, 11510, Note_on_c, 0, 56, 67
1, 11510, Note_on_c, 0, 80, 35
1, 11510, Note_on_c, 0, 84, 37
1, 11510, Note_on_c, 0, 86, 35
1, 11511, Note_off_c, 0, 34, 64
1, 11511, Note_off_c, 0, 76, 64
1, 11511, Note_off_c, 0, 85, 64
1, 11511, Note_on_c, 0, 88, 30
1, 11512, Note_off_c, 0, 64, 64
1, 11512, Note_off_c, 0, 67, 64
1, 11512, Note_on_c, 0, 69, 46
1, 11512, Note_off_c, 0, 70, 64
1, 11512, Note_on_c, 0, 74, 40
1, 11512, Note_on_c, 0, 76, 42
1, 11512, Note_off_c, 0, 80, 64
1, 11512, Note_on_c, 0, 85, 27
1, 11513, Note_on_c, 0, 51, 78
1, 11513, Note_off_c, 0, 56, 64
1, 11513, Note_on_c, 0, 66, 54
1, 11513, Note_off_c, 0, 86, 64
1, 11514, Note_on_c, 0, 46, 88
1, 11514, Note_off_c, 0, 51, 64
1, 11514, Note_off_c, 0, 69, 64
1, 11514, Note_on_c, 0, 73, 45
1, 11514, Note_off_c, 0, 74, 64
1, 11515, Note_on_c, 0, 43, 95
1, 11515, Note_off_c, 0, 46, 64
1, 11515, Note_on_c, 0, 61, 30
1, 11515, Note_off_c, 0, 76, 64
1, 11515, Note_off_c, 0, 100, 64
1, 11516, Note_on_c, 0, 41, 100
1, 11516, Note_off_c, 0, 43, 64
1, 11516, Note_off_c, 0, 84, 64
1, 11517, Note_on_c, 0, 39, 97
1, 11517, Note_off_c, 0, 41, 64
1, 11517, Note_off_c, 0, 61, 64
1, 11517, Note_on_c, 0, 80, 26
1, 11518, Note_on_c, 0, 37, 98
1, 11518, Note_off_c, 0, 39, 64
1, 11518, Note_on_c, 0, 61, 35
1, 11519, Note_on_c, 0, 36, 97
1, 11519, Note_off_c, 0, 37, 64
1, 11520, Note_on_c, 0, 35, 96
1, 11520, Note_off_c, 0, 36, 64
1, 11521, Note_on_c, 0, 34, 96
1, 11521, Note_off_c, 0, 35, 64
1, 11521, Note_off_c, 0, 88, 64
1, 11522, Note_on_c, 0, 33, 95
1, 11522, Note_off_c, 0, 34, 64
1, 11523, Note_on_c, 0, 32, 96
1, 11523, Note_off_c, 0, 33, 64
1, 11523, Note_off_c, 0, 80, 64
1, 11524, Note_on_c, 0, 70, 15
1, 11524, Note_off_c, 0, 85, 64
1, 11524, Note_on_c, 0, 99, 10
1, 11525, Note_on_c, 0, 31, 93
1, 11525, Note_off_c, 0, 32, 64
1, 11526, Note_off_c, 0, 61, 64
1, 11526, Note_on_c, 0, 79, 58
1, 11526, Note_on_c, 0, 100, 16
1, 11527, Note_on_c, 0, 30, 81
1, 11527, Note_off_c, 0, 31, 64
1, 11527, Note_off_c, 0, 70, 64
1, 11527, Note_on_c, 0, 71, 28
1, 11527, Note_off_c, 0, 78, 64
1, 11528, Note_on_c, 0, 70, 28
1, 11528, Note_on_c, 0, 84, 20
1, 11528, Note_on_c, 0, 92, 11
1, 11528, Note_off_c, 0, 99, 64
1, 11529, Note_off_c, 0, 30, 64
1, 11529, Note_on_c, 0, 90, 15
1, 11529, Note_on_c, 0, 95, 11
1, 11530, Note_off_c, 0, 79, 64
1, 11530, Note_on_c, 0, 93, 16
1, 11531, Note_on_c, 0, 36, 70
1, 11531, Note_off_c, 0, 70, 64
1, 11531, Note_on_c, 0, 74, 22
1, 11531, Note_on_c, 0, 79, 56
1, 11531, Note_off_c, 0, 92, 64
1, 11531, Note_off_c, 0, 100, 64
1, 11532, Note_on_c, 0, 31, 75
1, 11532, Note_off_c, 0, 36, 64
1, 11532, Note_off_c, 0, 66, 64
1, 11532, Note_on_c, 0, 68, 16
1, 11532, Note_on_c, 0, 70, 32
1, 11532, Note_off_c, 0, 73, 64
1, 11532, Note_off_c, 0, 95, 64
1, 11533, Note_on_c, 0, 30, 79
1, 11533, Note_off_c, 0, 31, 64
1, 11533, Note_on_c, 0, 64, 29
1, 11533, Note_off_c, 0, 71, 64
1, 11534, Note_on_c, 0, 29, 79
1, 11534, Note_off_c, 0, 30, 64
1, 11534, Note_off_c, 0, 74, 64
1, 11534, Note_on_c, 0, 77, 44
1, 11534, Note_on_c, 0, 86, 33
1, 11535, Note_off_c, 0, 29, 64
1, 11535, Note_on_c, 0, 30, 76
1, 11535, Note_off_c, 0, 64, 64
1, 11535, Note_off_c, 0, 68, 64
1, 11535, Note_on_c, 0, 103, 24
1, 11536, Note_on_c, 0, 68, 31
1, 11536, Note_on_c, 0, 85, 47
1, 11536, Note_off_c, 0, 86, 64
1, 11537, Note_on_c, 0, 29, 75
1, 11537, Note_off_c, 0, 30, 64
1, 11537, Note_off_c, 0, 70, 64
1, 11537, Note_off_c, 0, 84, 64
1, 11538, Note_on_c, 0, 54, 41
1, 11538, Note_on_c, 0, 78, 42
1, 11538, Note_off_c, 0, 79, 64
1, 11538, Note_off_c, 0, 85, 64
1, 11539, Note_on_c, 0, 85, 31
1, 11539, Note_off_c, 0, 90, 64
1, 11539, Note_on_c, 0, 91, 32
1, 11539, Note_on_c, 0, 96, 15
1, 11539, Note_on_c, 0, 98, 16
1, 11539, Note_on_c, 0, 100, 18
1, 11540, Note_off_c, 0, 29, 64
1, 11540, Note_on_c, 0, 30, 75
1, 11540, Note_off_c, 0, 54, 64
1, 11540, Note_on_c, 0, 63, 31
1, 11540, Note_on_c, 0, 71, 22
1, 11540, Note_on_c, 0, 86, 44
1, 11540, Note_on_c, 0, 88, 15
1, 11540, Note_on_c, 0, 95, 23
1, 11540, Note_on_c, 0, 102, 18
1, 11541, Note_off_c, 0, 68, 64
1, 11541, Note_off_c, 0, 78, 64
1, 11541, Note_on_c, 0, 79, 47
1, 11541, Note_off_c, 0, 85, 64
1, 11541, Note_on_c, 0, 101, 17
1, 11542, Note_off_c, 0, 30, 64
1, 11542, Note_on_c, 0, 31, 78
1, 11542, Note_on_c, 0, 73, 15
1, 11542, Note_on_c, 0, 80, 28
1, 11542, Note_on_c, 0, 90, 11
1, 11542, Note_off_c, 0, 91, 64
1, 11542, Note_off_c, 0, 93, 64
1, 11543, Note_on_c, 0, 30, 80
1, 11543, Note_off_c, 0, 31, 64
1, 11543, Note_off_c, 0, 63, 64
1, 11543, Note_on_c, 0, 70, 24
1, 11543, Note_on_c, 0, 78, 46
1, 11543, Note_off_c, 0, 79, 64
1, 11543, Note_on_c, 0, 83, 36
1, 11543, Note_on_c, 0, 87, 16
1, 11543, Note_off_c, 0, 88, 64
1, 11544, Note_on_c, 0, 29, 79
1, 11544, Note_off_c, 0, 30, 64
1, 11544, Note_off_c, 0, 71, 64
1, 11544, Note_on_c, 0, 88, 37
1, 11545, Note_off_c, 0, 29, 64
1, 11545, Note_on_c, 0, 30, 76
1, 11545, Note_off_c, 0, 78, 64
1, 11545, Note_on_c, 0, 79, 57
1, 11546, Note_on_c, 0, 72, 26
1, 11546, Note_off_c, 0, 73, 64
1, 11546, Note_on_c, 0, 75, 24
1, 11546, Note_on_c, 0, 85, 34
1, 11546, Note_on_c, 0, 94, 29
1, 11546, Note_off_c, 0, 96, 64
1, 11547, Note_off_c, 0, 30, 64
1, 11547, Note_on_c, 0, 33, 71
1, 11547, Note_off_c, 0, 87, 64
1, 11547, Note_off_c, 0, 90, 64
1, 11547, Note_off_c, 0, 98, 64
1, 11547, Note_off_c, 0, 100, 64
1, 11547, Note_off_c, 0, 103, 64
1, 11548, Note_off_c, 0, 33, 64
1, 11548, Note_on_c, 0, 35, 65
1, 11548, Note_on_c, 0, 55, 52
1, 11548, Note_on_c, 0, 65, 47
1, 11548, Note_off_c, 0, 70, 64
1, 11548, Note_off_c, 0, 80, 64
1, 11548, Note_on_c, 0, 81, 31
1, 11548, Note_off_c, 0, 86, 64
1, 11548, Note_on_c, 0, 87, 30
1, 11548, Note_on_c, 0, 92, 31
1, 11548, Note_on_c, 0, 96, 24
1, 11548, Note_on_c, 0, 98, 25
1, 11549, Note_off_c, 0, 35, 64
1, 11549, Note_on_c, 0, 70, 49
1, 11549, Note_off_c, 0, 72, 64
1, 11549, Note_off_c, 0, 75, 64
1, 11549, Note_on_c, 0, 80, 35
1, 11550, Note_on_c, 0, 53, 69
1, 11550, Note_off_c, 0, 55, 64
1, 11550, Note_on_c, 0, 67, 42
1, 11550, Note_on_c, 0, 74, 34
1, 11550, Note_off_c, 0, 79, 64
1, 11550, Note_off_c, 0, 81, 64
1, 11551, Note_on_c, 0, 48, 82
1, 11551, Note_off_c, 0, 53, 64
1, 11551, Note_on_c, 0, 62, 29
1, 11551, Note_off_c, 0, 65, 64
1, 11551, Note_off_c, 0, 83, 64
1, 11551, Note_on_c, 0, 84, 13
1, 11552, Note_on_c, 0, 45, 93
1, 11552, Note_off_c, 0, 48, 64
1, 11552, Note_on_c, 0, 66, 38
1, 11552, Note_off_c, 0, 67, 64
1, 11552, Note_off_c, 0, 74, 64
1, 11552, Note_off_c, 0, 88, 64
1, 11552, Note_off_c, 0, 102, 64
1, 11553, Note_on_c, 0, 42, 99
1, 11553, Note_off_c, 0, 45, 64
1, 11553, Note_off_c, 0, 62, 64
1, 11553, Note_on_c, 0, 79, 32
1, 11553, Note_off_c, 0, 98, 64
1, 11554, Note_on_c, 0, 40, 97
1, 11554, Note_off_c, 0, 42, 64
1, 11554, Note_off_c, 0, 70, 64
1, 11554, Note_on_c, 0, 71, 36
1, 11554, Note_on_c, 0, 73, 21
1, 11554, Note_off_c, 0, 77, 64
1, 11554, Note_off_c, 0, 84, 64
1, 11555, Note_on_c, 0, 38, 97
1, 11555, Note_off_c, 0, 40, 64
1, 11555, Note_on_c, 0, 77, 27
1, 11555, Note_off_c, 0, 80, 64
1, 11556, Note_on_c, 0, 37, 97
1, 11556, Note_off_c, 0, 38, 64
1, 11556, Note_on_c, 0, 90, 23
1, 11556, Note_off_c, 0, 96, 64
1, 11556, Note_on_c, 0, 98, 14
1, 11556, Note_off_c, 0, 101, 64
1, 11557, Note_on_c, 0, 35, 96
1, 11557, Note_off_c, 0, 37, 64
1, 11557, Note_off_c, 0, 85, 64
1, 11557, Note_on_c, 0, 86, 35
1, 11557, Note_on_c, 0, 88, 27
1, 11558, Note_on_c, 0, 34, 95
1, 11558, Note_off_c, 0, 35, 64
1, 11558, Note_on_c, 0, 64, 31
1, 11558, Note_off_c, 0, 73, 64
1, 11558, Note_on_c, 0, 74, 29
1, 11558, Note_off_c, 0, 94, 64
1, 11559, Note_on_c, 0, 33, 95
1, 11559, Note_off_c, 0, 34, 64
1, 11559, Note_on_c, 0, 76, 60
1, 11559, Note_on_c, 0, 80, 44
1, 11559, Note_on_c, 0, 93, 25
1, 11559, Note_on_c, 0, 96, 22
1, 11560, Note_on_c, 0, 32, 95
1, 11560, Note_off_c, 0, 33, 64
1, 11560, Note_off_c, 0, 64, 64
1, 11560, Note_off_c, 0, 66, 64
1, 11560, Note_off_c, 0, 77, 64
1, 11560, Note_on_c, 0, 97, 21
1, 11561, Note_on_c, 0, 64, 46
1, 11561, Note_off_c, 0, 90, 64
1, 11561, Note_off_c, 0, 98, 64
1, 11562, Note_on_c, 0, 31, 93
1, 11562, Note_off_c, 0, 32, 64
1, 11562, Note_on_c, 0, 70, 36
1, 11562, Note_on_c, 0, 84, 31
1, 11562, Note_off_c, 0, 87, 64
1, 11562, Note_off_c, 0, 95, 64
1, 11563, Note_on_c, 0, 78, 29
1, 11563, Note_off_c, 0, 79, 64
1, 11563, Note_off_c, 0, 97, 64
1, 11564, Note_off_c, 0, 71, 64
1, 11564, Note_on_c, 0, 83, 21
1, 11564, Note_on_c, 0, 87, 11
1, 11564, Note_on_c, 0, 89, 38
1, 11565, Note_on_c, 0, 30, 74
1, 11565, Note_off_c, 0, 31, 64
1, 11565, Note_on_c, 0, 73, 13
1, 11565, Note_off_c, 0, 88, 64
1, 11565, Note_on_c, 0, 95, 33
1, 11566, Note_off_c, 0, 30, 64
1, 11566, Note_off_c, 0, 74, 64
1, 11566, Note_off_c, 0, 78, 64
1, 11566, Note_on_c, 0, 97, 29
1, 11567, Note_on_c, 0, 78, 45
1, 11567, Note_off_c, 0, 93, 64
1, 11568, Note_on_c, 0, 42, 65
1, 11568, Note_on_c, 0, 68, 24
1, 11568, Note_off_c, 0, 73, 64
1, 11568, Note_on_c, 0, 81, 36
1, 11568, Note_off_c, 0, 83, 64
1, 11568, Note_on_c, 0, 85, 37
1, 11568, Note_off_c, 0, 87, 64
1, 11569, Note_on_c, 0, 31, 71
1, 11569, Note_off_c, 0, 42, 64
1, 11569, Note_on_c, 0, 54, 50
1, 11569, Note_off_c, 0, 70, 64
1, 11569, Note_on_c, 0, 73, 32
1, 11569, Note_off_c, 0, 78, 64
1, 11569, Note_on_c, 0, 83, 31
1, 11569, Note_off_c, 0, 86, 64
1, 11570, Note_on_c, 0, 30, 77
1, 11570, Note_off_c, 0, 31, 64
1, 11570, Note_on_c, 0, 49, 59
1, 11570, Note_on_c, 0, 78, 57
1, 11570, Note_off_c, 0, 81, 64
1, 11570, Note_off_c, 0, 84, 64
1, 11570, Note_off_c, 0, 85, 64
1, 11570, Note_on_c, 0, 86, 44
1, 11571, Note_on_c, 0, 29, 79
1, 11571, Note_off_c, 0, 30, 64
1, 11571, Note_on_c, 0, 63, 28
1, 11571, Note_off_c, 0, 64, 64
1, 11571, Note_on_c, 0, 71, 29
1, 11571, Note_off_c, 0, 80, 64
1, 11571, Note_on_c, 0, 82, 41
1, 11572, Note_off_c, 0, 54, 64
1, 11572, Note_on_c, 0, 80, 39
1, 11572, Note_off_c, 0, 96, 64
1, 11573, Note_off_c, 0, 29, 64
1, 11573, Note_on_c, 0, 30, 75
1, 11573, Note_off_c, 0, 49, 64
1, 11573, Note_on_c, 0, 91, 17
1, 11574, Note_on_c, 0, 61, 42
1, 11574, Note_off_c, 0, 63, 64
1, 11574, Note_off_c, 0, 83, 64
1, 11574, Note_on_c, 0, 84, 28
1, 11575, Note_on_c, 0, 29, 73
1, 11575, Note_off_c, 0, 30, 64
1, 11575, Note_on_c, 0, 66, 35
1, 11575, Note_off_c, 0, 73, 64
1, 11576, Note_on_c, 0, 85, 37
1, 11576, Note_off_c, 0, 91, 64
1, 11578, Note_off_c, 0, 29, 64
1, 11578, Note_on_c, 0, 30, 79
1, 11578, Note_off_c, 0, 68, 64
1, 11578, Note_on_c, 0, 70, 30
1, 11578, Note_off_c, 0, 86, 64
1, 11578, Note_on_c, 0, 87, 25
1, 11578, Note_on_c, 0, 91, 41
1, 11579, Note_on_c, 0, 49, 57
1, 11580, Note_off_c, 0, 84, 64
1, 11581, Note_on_c, 0, 29, 79
1, 11581, Note_off_c, 0, 30, 64
1, 11581, Note_off_c, 0, 71, 64
1, 11581, Note_off_c, 0, 87, 64
1, 11581, Note_on_c, 0, 99, 24
1, 11582, Note_off_c, 0, 29, 64
1, 11582, Note_on_c, 0, 30, 76
1, 11582, Note_off_c, 0, 49, 64
1, 11583, Note_on_c, 0, 54, 38
1, 11584, Note_off_c, 0, 70, 64
1, 11584, Note_on_c, 0, 74, 39
1, 11584, Note_on_c, 0, 79, 43
1, 11584, Note_on_c, 0, 84, 32
1, 11584, Note_off_c, 0, 85, 64
1, 11584, Note_on_c, 0, 87, 30
1, 11584, Note_on_c, 0, 93, 30
1, 11584, Note_off_c, 0, 95, 64
1, 11585, Note_off_c, 0, 30, 64
1, 11585, Note_on_c, 0, 34, 68
1, 11585, Note_off_c, 0, 61, 64
1, 11585, Note_off_c, 0, 66, 64
1, 11585, Note_on_c, 0, 67, 44
1, 11585, Note_off_c, 0, 78, 64
1, 11585, Note_on_c, 0, 83, 36
1, 11585, Note_on_c, 0, 85, 40
1, 11585, Note_off_c, 0, 89, 64
1, 11585, Note_on_c, 0, 90, 41
1, 11585, Note_on_c, 0, 101, 22
1, 11586, Note_off_c, 0, 34, 64
1, 11586, Note_off_c, 0, 54, 64
1, 11586, Note_on_c, 0, 70, 43
1, 11586, Note_on_c, 0, 77, 39
1, 11586, Note_off_c, 0, 92, 64
1, 11587, Note_on_c, 0, 66, 51
1, 11587, Note_off_c, 0, 67, 64
1, 11587, Note_on_c, 0, 73, 34
1, 11587, Note_off_c, 0, 74, 64
1, 11587, Note_off_c, 0, 80, 64
1, 11587, Note_on_c, 0, 86, 39
1, 11587, Note_off_c, 0, 87, 64
1, 11588, Note_on_c, 0, 51, 77
1, 11588, Note_on_c, 0, 69, 30
1, 11588, Note_off_c, 0, 70, 64
1, 11588, Note_off_c, 0, 77, 64
1, 11588, Note_off_c, 0, 83, 64
1, 11588, Note_off_c, 0, 91, 64
1, 11588, Note_off_c, 0, 101, 64
1, 11589, Note_on_c, 0, 45, 89
1, 11589, Note_off_c, 0, 51, 64
1, 11589, Note_off_c, 0, 73, 64
1, 11589, Note_off_c, 0, 85, 64
1, 11589, Note_on_c, 0, 92, 20
1, 11589, Note_off_c, 0, 99, 64
1, 11590, Note_on_c, 0, 42, 95
1, 11590, Note_off_c, 0, 45, 64
1, 11590, Note_on_c, 0, 61, 29
1, 11590, Note_off_c, 0, 66, 64
1, 11590, Note_on_c, 0, 71, 20
1, 11590, Note_off_c, 0, 79, 64
1, 11591, Note_on_c, 0, 41, 98
1, 11591, Note_off_c, 0, 42, 64
1, 11591, Note_on_c, 0, 57, 35
1, 11591, Note_off_c, 0, 69, 64
1, 11591, Note_on_c, 0, 83, 23
1, 11591, Note_off_c, 0, 84, 64
1, 11591, Note_on_c, 0, 89, 14
1, 11591, Note_off_c, 0, 97, 64
1, 11592, Note_on_c, 0, 39, 96
1, 11592, Note_off_c, 0, 41, 64
1, 11592, Note_on_c, 0, 69, 35
1, 11592, Note_off_c, 0, 82, 64
1, 11592, Note_on_c, 0, 84, 22
1, 11592, Note_on_c, 0, 94, 19
1, 11593, Note_on_c, 0, 37, 97
1, 11593, Note_off_c, 0, 39, 64
1, 11593, Note_off_c, 0, 71, 64
1, 11594, Note_on_c, 0, 36, 96
1, 11594, Note_off_c, 0, 37, 64
1, 11594, Note_on_c, 0, 64, 34
1, 11594, Note_off_c, 0, 83, 64
1, 11594, Note_off_c, 0, 89, 64
1, 11594, Note_on_c, 0, 95, 16
1, 11595, Note_on_c, 0, 35, 94
1, 11595, Note_off_c, 0, 36, 64
1, 11595, Note_off_c, 0, 69, 64
1, 11595, Note_on_c, 0, 82, 44
1, 11595, Note_off_c, 0, 84, 64
1, 11595, Note_on_c, 0, 89, 29
1, 11595, Note_off_c, 0, 92, 64
1, 11596, Note_on_c, 0, 34, 94
1, 11596, Note_off_c, 0, 35, 64
1, 11596, Note_on_c, 0, 80, 42
1, 11596, Note_on_c, 0, 83, 40
1, 11596, Note_on_c, 0, 84, 30
1, 11596, Note_off_c, 0, 86, 64
1, 11596, Note_on_c, 0, 87, 34
1, 11596, Note_off_c, 0, 94, 64
1, 11597, Note_on_c, 0, 33, 94
1, 11597, Note_off_c, 0, 34, 64
1, 11597, Note_on_c, 0, 75, 29
1, 11597, Note_off_c, 0, 76, 64
1, 11598, Note_on_c, 0, 32, 94
1, 11598, Note_off_c, 0, 33, 64
1, 11598, Note_off_c, 0, 64, 64
1, 11599, Note_on_c, 0, 31, 94
1, 11599, Note_off_c, 0, 32, 64
1, 11599, Note_on_c, 0, 67, 33
1, 11599, Note_off_c, 0, 75, 64
1, 11599, Note_on_c, 0, 76, 39
1, 11599, Note_off_c, 0, 84, 64
1, 11599, Note_on_c, 0, 91, 21
1, 11600, Note_on_c, 0, 86, 27
1, 11600, Note_off_c, 0, 95, 64
1, 11601, Note_off_c, 0, 67, 64
1, 11601, Note_on_c, 0, 69, 37
1, 11601, Note_off_c, 0, 76, 64
1, 11602, Note_on_c, 0, 30, 78
1, 11602, Note_off_c, 0, 31, 64
1, 11602, Note_on_c, 0, 67, 52
1, 11602, Note_on_c, 0, 76, 28
1, 11602, Note_off_c, 0, 80, 64
1, 11602, Note_on_c, 0, 85, 29
1, 11603, Note_off_c, 0, 69, 64
1, 11603, Note_on_c, 0, 81, 28
1, 11603, Note_off_c, 0, 90, 64
1, 11604, Note_off_c, 0, 30, 64
1, 11605, Note_off_c, 0, 57, 64
1, 11605, Note_off_c, 0, 61, 64
1, 11605, Note_on_c, 0, 70, 50
1, 11605, Note_on_c, 0, 74, 35
1, 11605, Note_off_c, 0, 82, 64
1, 11605, Note_off_c, 0, 86, 64
1, 11605, Note_on_c, 0, 92, 17
1, 11605, Note_on_c, 0, 96, 22
1, 11606, Note_on_c, 0, 36, 70
1, 11606, Note_on_c, 0, 61, 32
1, 11606, Note_on_c, 0, 86, 38
1, 11606, Note_off_c, 0, 89, 64
1, 11606, Note_on_c, 0, 90, 20
1, 11607, Note_on_c, 0, 31, 74
1, 11607, Note_off_c, 0, 36, 64
1, 11607, Note_off_c, 0, 70, 64
1, 11607, Note_on_c, 0, 71, 55
1, 11607, Note_on_c, 0, 78, 40
1, 11607, Note_on_c, 0, 84, 33
1, 11607, Note_off_c, 0, 85, 64
1, 11607, Note_off_c, 0, 87, 64
1, 11607, Note_on_c, 0, 89, 32
1, 11607, Note_off_c, 0, 93, 64
1, 11607, Note_on_c, 0, 97, 20
1, 11608, Note_on_c, 0, 30, 78
1, 11608, Note_off_c, 0, 31, 64
1, 11608, Note_off_c, 0, 74, 64
1, 11608, Note_off_c, 0, 91, 64
1, 11609, Note_on_c, 0, 29, 79
1, 11609, Note_off_c, 0, 30, 64
1, 11609, Note_on_c, 0, 70, 57
1, 11609, Note_off_c, 0, 71, 64
1, 11609, Note_on_c, 0, 73, 56
1, 11609, Note_off_c, 0, 81, 64
1, 11609, Note_off_c, 0, 84, 64
1, 11610, Note_off_c, 0, 29, 64
1, 11610, Note_on_c, 0, 30, 76
1, 11610, Note_off_c, 0, 78, 64
1, 11610, Note_off_c, 0, 97, 64
1, 11611, Note_on_c, 0, 78, 46
1, 11611, Note_off_c, 0, 83, 64
1, 11612, Note_on_c, 0, 29, 72
1, 11612, Note_off_c, 0, 30, 64
1, 11612, Note_off_c, 0, 67, 64
1, 11612, Note_off_c, 0, 76, 64
1, 11612, Note_on_c, 0, 83, 41
1, 11612, Note_on_c, 0, 87, 17
1, 11613, Note_on_c, 0, 67, 31
1, 11613, Note_on_c, 0, 76, 40
1, 11613, Note_on_c, 0, 79, 40
1, 11613, Note_off_c, 0, 90, 64
1, 11613, Note_off_c, 0, 92, 64
1, 11613, Note_on_c, 0, 93, 28
1, 11614, Note_off_c, 0, 61, 64
1, 11614, Note_off_c, 0, 96, 64
1, 11615, Note_off_c, 0, 29, 64
1, 11615, Note_on_c, 0, 30, 78
1, 11615, Note_off_c, 0, 67, 64
1, 11616, Note_off_c, 0, 79, 64
1, 11616, Note_on_c, 0, 84, 30
1, 11616, Note_off_c, 0, 87, 64
1, 11617, Note_off_c, 0, 76, 64
1, 11617, Note_on_c, 0, 80, 36
1, 11617, Note_off_c, 0, 83, 64
1, 11617, Note_on_c, 0, 95, 20
1, 11617, Note_on_c, 0, 99, 27
1, 11618, Note_on_c, 0, 83, 36
1, 11618, Note_off_c, 0, 89, 64
1, 11618, Note_on_c, 0, 91, 33
1, 11619, Note_off_c, 0, 78, 64
1, 11619, Note_on_c, 0, 79, 43
1, 11619, Note_off_c, 0, 84, 64
1, 11619, Note_on_c, 0, 89, 22
1, 11619, Note_on_c, 0, 90, 39
1, 11620, Note_on_c, 0, 68, 32
1, 11620, Note_on_c, 0, 76, 44
1, 11620, Note_on_c, 0, 78, 37
1, 11621, Note_on_c, 0, 84, 34
1, 11621, Note_off_c, 0, 95, 64
1, 11622, Note_off_c, 0, 30, 64
1, 11622, Note_on_c, 0, 34, 71
1, 11622, Note_on_c, 0, 67, 33
1, 11622, Note_off_c, 0, 68, 64
1, 11622, Note_on_c, 0, 77, 29
1, 11622, Note_off_c, 0, 80, 64
1, 11622, Note_off_c, 0, 86, 64
1, 11622, Note_on_c, 0, 87, 35
1, 11622, Note_off_c, 0, 89, 64
1, 11623, Note_off_c, 0, 34, 64
1, 11623, Note_on_c, 0, 75, 27
1, 11623, Note_off_c, 0, 78, 64
1, 11623, Note_on_c, 0, 81, 36
1, 11623, Note_on_c, 0, 86, 39
1, 11624, Note_off_c, 0, 67, 64
1, 11624, Note_off_c, 0, 77, 64
1, 11624, Note_off_c, 0, 87, 64
1, 11624, Note_on_c, 0, 89, 32
1, 11625, Note_on_c, 0, 53, 70
1, 11625, Note_on_c, 0, 67, 52
1, 11625, Note_on_c, 0, 87, 34
1, 11626, Note_on_c, 0, 48, 83
1, 11626, Note_off_c, 0, 53, 64
1, 11626, Note_off_c, 0, 70, 64
1, 11626, Note_off_c, 0, 75, 64
1, 11626, Note_on_c, 0, 80, 40
1, 11626, Note_off_c, 0, 84, 64
1, 11626, Note_off_c, 0, 86, 64
1, 11626, Note_off_c, 0, 91, 64
1, 11627, Note_on_c, 0, 45, 93
1, 11627, Note_off_c, 0, 48, 64
1, 11627, Note_off_c, 0, 67, 64
1, 11627, Note_on_c, 0, 68, 42
1, 11627, Note_off_c, 0, 79, 64
1, 11627, Note_off_c, 0, 81, 64
1, 11627, Note_on_c, 0, 82, 32
1, 11627, Note_on_c, 0, 84, 27
1, 11627, Note_off_c, 0, 99, 64
1, 11628, Note_on_c, 0, 42, 98
1, 11628, Note_off_c, 0, 45, 64
1, 11628, Note_on_c, 0, 56, 33
1, 11628, Note_on_c, 0, 79, 26
1, 11628, Note_off_c, 0, 93, 64
1, 11629, Note_on_c, 0, 40, 96
1, 11629, Note_off_c, 0, 42, 64
1, 11629, Note_on_c, 0, 75, 39
1, 11629, Note_off_c, 0, 76, 64
1, 11629, Note_off_c, 0, 82, 64
1, 11629, Note_on_c, 0, 86, 27
1, 11630, Note_on_c, 0, 38, 97
1, 11630, Note_off_c, 0, 40, 64
1, 11630, Note_on_c, 0, 78, 27
1, 11630, Note_off_c, 0, 83, 64
1, 11630, Note_off_c, 0, 87, 64
1, 11630, Note_on_c, 0, 95, 23
1, 11631, Note_on_c, 0, 36, 96
1, 11631, Note_off_c, 0, 38, 64
1, 11631, Note_off_c, 0, 73, 64
1, 11631, Note_on_c, 0, 76, 51
1, 11632, Note_on_c, 0, 35, 95
1, 11632, Note_off_c, 0, 36, 64
1, 11632, Note_off_c, 0, 75, 64
1, 11632, Note_off_c, 0, 79, 64
1, 11632, Note_on_c, 0, 82, 46
1, 11632, Note_on_c, 0, 83, 24
1, 11632, Note_off_c, 0, 84, 64
1, 11632, Note_on_c, 0, 93, 21
1, 11633, Note_on_c, 0, 34, 94
1, 11633, Note_off_c, 0, 35, 64
1, 11633, Note_off_c, 0, 56, 64
1, 11633, Note_on_c, 0, 73, 23
1, 11633, Note_on_c, 0, 84, 29
1, 11634, Note_on_c, 0, 33, 94
1, 11634, Note_off_c, 0, 34, 64
1, 11634, Note_on_c, 0, 56, 31
1, 11635, Note_on_c, 0, 32, 95
1, 11635, Note_off_c, 0, 33, 64
1, 11635, Note_on_c, 0, 71, 19
1, 11635, Note_off_c, 0, 78, 64
1, 11635, Note_off_c, 0, 80, 64
1, 11635, Note_on_c, 0, 87, 31
1, 11636, Note_off_c, 0, 73, 64
1, 11636, Note_off_c, 0, 84, 64
1, 11636, Note_on_c, 0, 85, 27
1, 11637, Note_on_c, 0, 31, 93
1, 11637, Note_off_c, 0, 32, 64
1, 11637, Note_off_c, 0, 56, 64
1, 11637, Note_on_c, 0, 67, 30
1, 11637, Note_off_c, 0, 68, 64
1, 11637, Note_on_c, 0, 91, 11
1, 11638, Note_on_c, 0, 56, 26
1, 11638, Note_on_c, 0, 70, 31
1, 11638, Note_off_c, 0, 71, 64
1, 11638, Note_on_c, 0, 73, 29
1, 11638, Note_off_c, 0, 83, 64
1, 11638, Note_on_c, 0, 84, 44
1, 11638, Note_off_c, 0, 86, 64
1, 11639, Note_on_c, 0, 30, 83
1, 11639, Note_off_c, 0, 31, 64
1, 11639, Note_off_c, 0, 67, 64
1, 11639, Note_on_c, 0, 68, 31
1, 11639, Note_off_c, 0, 89, 64
1, 11640, Note_off_c, 0, 85, 64
1, 11640, Note_on_c, 0, 86, 30
1, 11640, Note_off_c, 0, 91, 64
1, 11641, Note_off_c, 0, 30, 64
1, 11641, Note_on_c, 0, 92, 26
1, 11641, Note_on_c, 0, 97, 15
1, 11642, Note_on_c, 0, 78, 52
1, 11642, Note_off_c, 0, 87, 64
1, 11642, Note_on_c, 0, 91, 31
1, 11643, Note_off_c, 0, 56, 64
1, 11643, Note_on_c, 0, 89, 49
1, 11644, Note_on_c, 0, 31, 70
1, 11644, Note_on_c, 0, 64, 43
1, 11644, Note_on_c, 0, 67, 31
1, 11644, Note_off_c, 0, 68, 64
1, 11644, Note_off_c, 0, 70, 64
1, 11644, Note_on_c, 0, 71, 45
1, 11644, Note_off_c, 0, 73, 64
1, 11644, Note_on_c, 0, 74, 31
1, 11644, Note_on_c, 0, 79, 39
1, 11644, Note_off_c, 0, 84, 64
1, 11644, Note_on_c, 0, 85, 46
1, 11645, Note_on_c, 0, 30, 77
1, 11645, Note_off_c, 0, 31, 64
1, 11645, Note_on_c, 0, 49, 56
1, 11645, Note_on_c, 0, 84, 39
1, 11645, Note_off_c, 0, 86, 64
1, 11645, Note_on_c, 0, 87, 32
1, 11645, Note_off_c, 0, 90, 64
1, 11645, Note_off_c, 0, 93, 64
1, 11646, Note_on_c, 0, 29, 79
1, 11646, Note_off_c, 0, 30, 64
1, 11646, Note_off_c, 0, 79, 64
1, 11646, Note_on_c, 0, 80, 44
1, 11646, Note_off_c, 0, 97, 64
1, 11647, Note_off_c, 0, 49, 64
1, 11647, Note_off_c, 0, 64, 64
1, 11647, Note_off_c, 0, 67, 64
1, 11647, Note_on_c, 0, 68, 49
1, 11647, Note_off_c, 0, 71, 64
1, 11647, Note_on_c, 0, 72, 51
1, 11647, Note_off_c, 0, 74, 64
1, 11648, Note_on_c, 0, 48, 56
1, 11648, Note_off_c, 0, 78, 64
1, 11648, Note_on_c, 0, 100, 9
1, 11649, Note_off_c, 0, 29, 64
1, 11649, Note_on_c, 0, 30, 72
1, 11649, Note_on_c, 0, 77, 38
1, 11649, Note_off_c, 0, 89, 64
1, 11649, Note_on_c, 0, 90, 41
1, 11650, Note_on_c, 0, 29, 71
1, 11650, Note_off_c, 0, 30, 64
1, 11650, Note_on_c, 0, 54, 39
1, 11650, Note_on_c, 0, 66, 45
1, 11650, Note_off_c, 0, 68, 64
1, 11650, Note_off_c, 0, 76, 64
1, 11650, Note_on_c, 0, 83, 41
1, 11651, Note_off_c, 0, 48, 64
1, 11651, Note_on_c, 0, 76, 47
1, 11651, Note_off_c, 0, 77, 64
1, 11651, Note_on_c, 0, 79, 32
1, 11651, Note_on_c, 0, 81, 39
1, 11651, Note_off_c, 0, 82, 64
1, 11651, Note_off_c, 0, 84, 64
1, 11651, Note_on_c, 0, 86, 37
1, 11652, Note_off_c, 0, 54, 64
1, 11652, Note_on_c, 0, 71, 41
1, 11652, Note_on_c, 0, 75, 46
1, 11652, Note_off_c, 0, 80, 64
1, 11652, Note_on_c, 0, 89, 27
1, 11652, Note_off_c, 0, 95, 64
1, 11652, Note_off_c, 0, 100, 64
1, 11653, Note_off_c, 0, 29, 64
1, 11653, Note_on_c, 0, 30, 73
1, 11653, Note_on_c, 0, 54, 50
1, 11653, Note_on_c, 0, 68, 33
1, 11653, Note_off_c, 0, 72, 64
1, 11653, Note_on_c, 0, 73, 42
1, 11653, Note_off_c, 0, 76, 64
1, 11653, Note_on_c, 0, 78, 56
1, 11654, Note_off_c, 0, 30, 64
1, 11654, Note_on_c, 0, 31, 76
1, 11654, Note_on_c, 0, 49, 58
1, 11654, Note_on_c, 0, 76, 38
1, 11654, Note_off_c, 0, 79, 64
1, 11654, Note_on_c, 0, 82, 37
1, 11655, Note_on_c, 0, 30, 78
1, 11655, Note_off_c, 0, 31, 64
1, 11655, Note_off_c, 0, 54, 64
1, 11655, Note_off_c, 0, 68, 64
1, 11655, Note_off_c, 0, 71, 64
1, 11655, Note_on_c, 0, 72, 37
1, 11655, Note_off_c, 0, 73, 64
1, 11655, Note_off_c, 0, 83, 64
1, 11655, Note_on_c, 0, 88, 40
1, 11655, Note_off_c, 0, 91, 64
1, 11655, Note_on_c, 0, 95, 28
1, 11656, Note_on_c, 0, 29, 77
1, 11656, Note_off_c, 0, 30, 64
1, 11656, Note_on_c, 0, 64, 39
1, 11656, Note_off_c, 0, 87, 64
1, 11657, Note_off_c, 0, 29, 64
1, 11657, Note_on_c, 0, 30, 75
1, 11657, Note_off_c, 0, 49, 64
1, 11657, Note_off_c, 0, 75, 64
1, 11657, Note_on_c, 0, 80, 39
1, 11657, Note_on_c, 0, 91, 36
1, 11658, Note_off_c, 0, 64, 64
1, 11658, Note_on_c, 0, 69, 37
1, 11658, Note_off_c, 0, 72, 64
1, 11658, Note_on_c, 0, 73, 50
1, 11658, Note_off_c, 0, 81, 64
1, 11658, Note_on_c, 0, 83, 51
1, 11658, Note_off_c, 0, 89, 64
1, 11659, Note_off_c, 0, 30, 64
1, 11659, Note_on_c, 0, 31, 69
1, 11659, Note_off_c, 0, 66, 64
1, 11659, Note_on_c, 0, 67, 39
1, 11659, Note_on_c, 0, 71, 43
1, 11659, Note_off_c, 0, 86, 64
1, 11659, Note_on_c, 0, 87, 29
1, 11660, Note_off_c, 0, 31, 64
1, 11660, Note_on_c, 0, 34, 68
1, 11660, Note_on_c, 0, 59, 39
1, 11660, Note_on_c, 0, 75, 43
1, 11660, Note_off_c, 0, 76, 64
1, 11660, Note_off_c, 0, 78, 64
1, 11660, Note_on_c, 0, 79, 57
1, 11660, Note_off_c, 0, 80, 64
1, 11660, Note_on_c, 0, 89, 40
1, 11660, Note_on_c, 0, 93, 25
1, 11660, Note_on_c, 0, 96, 20
1, 11661, Note_off_c, 0, 34, 64
1, 11661, Note_off_c, 0, 67, 64
1, 11661, Note_on_c, 0, 81, 43
1, 11661, Note_off_c, 0, 82, 64
1, 11661, Note_on_c, 0, 86, 50
1, 11661, Note_off_c, 0, 87, 64
1, 11661, Note_off_c, 0, 92, 64
1, 11662, Note_on_c, 0, 55, 66
1, 11662, Note_off_c, 0, 59, 64
1, 11662, Note_on_c, 0, 65, 46
1, 11662, Note_on_c, 0, 68, 40
1, 11662, Note_off_c, 0, 69, 64
1, 11662, Note_off_c, 0, 73, 64
1, 11662, Note_off_c, 0, 75, 64
1, 11662, Note_off_c, 0, 85, 64
1, 11663, Note_on_c, 0, 49, 78
1, 11663, Note_off_c, 0, 55, 64
1, 11663, Note_on_c, 0, 73, 39
1, 11663, Note_on_c, 0, 76, 42
1, 11663, Note_on_c, 0, 82, 37
1, 11663, Note_on_c, 0, 85, 42
1, 11663, Note_off_c, 0, 86, 64
1, 11663, Note_on_c, 0, 87, 33
1, 11663, Note_on_c, 0, 92, 32
1, 11664, Note_on_c, 0, 45, 89
1, 11664, Note_off_c, 0, 49, 64
1, 11664, Note_off_c, 0, 65, 64
1, 11664, Note_on_c, 0, 66, 38
1, 11664, Note_off_c, 0, 68, 64
1, 11664, Note_off_c, 0, 71, 64
1, 11664, Note_on_c, 0, 77, 37
1, 11664, Note_on_c, 0, 84, 38
1, 11664, Note_on_c, 0, 86, 35
1, 11665, Note_on_c, 0, 42, 95
1, 11665, Note_off_c, 0, 45, 64
1, 11665, Note_on_c, 0, 72, 39
1, 11665, Note_on_c, 0, 80, 48
1, 11665, Note_off_c, 0, 82, 64
1, 11665, Note_off_c, 0, 85, 64
1, 11665, Note_off_c, 0, 88, 64
1, 11665, Note_off_c, 0, 95, 64
1, 11665, Note_off_c, 0, 96, 64
1, 11666, Note_on_c, 0, 41, 98
1, 11666, Note_off_c, 0, 42, 64
1, 11666, Note_on_c, 0, 70, 37
1, 11666, Note_off_c, 0, 73, 64
1, 11666, Note_off_c, 0, 77, 64
1, 11667, Note_on_c, 0, 38, 96
1, 11667, Note_off_c, 0, 41, 64
1, 11667, Note_off_c, 0, 81, 64
1, 11667, Note_off_c, 0, 86, 64
1, 11667, Note_off_c, 0, 91, 64
1, 11667, Note_off_c, 0, 93, 64
1, 11668, Note_on_c, 0, 37, 97
1, 11668, Note_off_c, 0, 38, 64
1, 11668, Note_on_c, 0, 73, 40
1, 11668, Note_off_c, 0, 76, 64
1, 11668, Note_on_c, 0, 77, 45
1, 11669, Note_on_c, 0, 36, 96
1, 11669, Note_off_c, 0, 37, 64
1, 11669, Note_off_c, 0, 72, 64
1, 11669, Note_off_c, 0, 79, 64
1, 11669, Note_off_c, 0, 84, 64
1, 11670, Note_on_c, 0, 35, 95
1, 11670, Note_off_c, 0, 36, 64
1, 11670, Note_on_c, 0, 76, 38
1, 11670, Note_off_c, 0, 77, 64
1, 11670, Note_on_c, 0, 84, 35
1, 11671, Note_on_c, 0, 34, 94
1, 11671, Note_off_c, 0, 35, 64
1, 11671, Note_off_c, 0, 83, 64
1, 11671, Note_off_c, 0, 92, 64
1, 11672, Note_on_c, 0, 33, 95
1, 11672, Note_off_c, 0, 34, 64
1, 11672, Note_on_c, 0, 79, 27
1, 11672, Note_on_c, 0, 83, 27
1, 11672, Note_off_c, 0, 84, 64
1, 11673, Note_on_c, 0, 32, 96
1, 11673, Note_off_c, 0, 33, 64
1, 11673, Note_off_c, 0, 80, 64
1, 11673, Note_on_c, 0, 81, 22
1, 11674, Note_on_c, 0, 31, 95
1, 11674, Note_off_c, 0, 32, 64
1, 11674, Note_on_c, 0, 54, 21
1, 11674, Note_off_c, 0, 66, 64
1, 11674, Note_off_c, 0, 76, 64
1, 11674, Note_on_c, 0, 82, 39
1, 11674, Note_on_c, 0, 92, 22
1, 11676, Note_off_c, 0, 79, 64
1, 11676, Note_on_c, 0, 80, 31
1, 11676, Note_off_c, 0, 81, 64
1, 11676, Note_on_c, 0, 86, 43
1, 11677, Note_on_c, 0, 30, 78
1, 11677, Note_off_c, 0, 31, 64
1, 11677, Note_on_c, 0, 78, 29
1, 11677, Note_off_c, 0, 83, 64
1, 11678, Note_on_c, 0, 75, 43
1, 11678, Note_off_c, 0, 89, 64
1, 11679, Note_off_c, 0, 30, 64
1, 11679, Note_on_c, 0, 61, 30
1, 11679, Note_on_c, 0, 66, 31
1, 11679, Note_on_c, 0, 79, 24
1, 11679, Note_on_c, 0, 85, 54
1, 11679, Note_on_c, 0, 93, 27
1, 11680, Note_on_c, 0, 36, 67
1, 11680, Note_off_c, 0, 54, 64
1, 11680, Note_on_c, 0, 72, 42
1, 11680, Note_off_c, 0, 73, 64
1, 11680, Note_off_c, 0, 80, 64
1, 11680, Note_on_c, 0, 81, 49
1, 11680, Note_on_c, 0, 89, 34
1, 11680, Note_on_c, 0, 95, 29
1, 11681, Note_off_c, 0, 70, 64
1, 11681, Note_off_c, 0, 82, 64
1, 11681, Note_on_c, 0, 83, 45
1, 11681, Note_on_c, 0, 91, 35
1, 11682, Note_on_c, 0, 30, 75
1, 11682, Note_off_c, 0, 36, 64
1, 11682, Note_off_c, 0, 61, 64
1, 11682, Note_on_c, 0, 71, 39
1, 11682, Note_off_c, 0, 72, 64
1, 11682, Note_on_c, 0, 73, 41
1, 11682, Note_off_c, 0, 79, 64
1, 11682, Note_on_c, 0, 80, 37
1, 11682, Note_off_c, 0, 87, 64
1, 11682, Note_on_c, 0, 88, 25
1, 11683, Note_on_c, 0, 29, 79
1, 11683, Note_off_c, 0, 30, 64
1, 11683, Note_on_c, 0, 70, 38
1, 11683, Note_off_c, 0, 81, 64
1, 11683, Note_on_c, 0, 82, 43
1, 11683, Note_off_c, 0, 83, 64
1, 11683, Note_off_c, 0, 86, 64
1, 11683, Note_off_c, 0, 89, 64
1, 11684, Note_on_c, 0, 61, 28
1, 11684, Note_off_c, 0, 71, 64
1, 11684, Note_off_c, 0, 78, 64
1, 11684, Note_off_c, 0, 80, 64
1, 11684, Note_on_c, 0, 81, 35
1, 11684, Note_on_c, 0, 86, 18
1, 11684, Note_on_c, 0, 89, 41
1, 11684, Note_off_c, 0, 95, 64
1, 11685, Note_off_c, 0, 29, 64
1, 11685, Note_on_c, 0, 30, 76
1, 11685, Note_off_c, 0, 66, 64
1, 11685, Note_off_c, 0, 70, 64
1, 11685, Note_on_c, 0, 71, 32
1, 11685, Note_off_c, 0, 73, 64
1, 11685, Note_on_c, 0, 78, 51
1, 11685, Note_off_c, 0, 82, 64
1, 11685, Note_on_c, 0, 83, 40
1, 11686, Note_on_c, 0, 64, 21
1, 11686, Note_on_c, 0, 76, 34
1, 11686, Note_on_c, 0, 80, 31
1, 11686, Note_off_c, 0, 90, 64
1, 11687, Note_on_c, 0, 29, 74
1, 11687, Note_off_c, 0, 30, 64
1, 11687, Note_on_c, 0, 70, 37
1, 11687, Note_off_c, 0, 71, 64
1, 11687, Note_off_c, 0, 81, 64
1, 11687, Note_off_c, 0, 91, 64
1, 11687, Note_off_c, 0, 92, 64
1, 11688, Note_off_c, 0, 75, 64
1, 11688, Note_off_c, 0, 80, 64
1, 11688, Note_off_c, 0, 86, 64
1, 11688, Note_on_c, 0, 91, 18
1, 11689, Note_on_c, 0, 42, 65
1, 11689, Note_on_c, 0, 73, 34
1, 11689, Note_on_c, 0, 75, 33
1, 11689, Note_off_c, 0, 76, 64
1, 11689, Note_on_c, 0, 86, 32
1, 11689, Note_off_c, 0, 89, 64
1, 11690, Note_off_c, 0, 29, 64
1, 11690, Note_on_c, 0, 30, 77
1, 11690, Note_off_c, 0, 61, 64
1, 11690, Note_off_c, 0, 64, 64
1, 11690, Note_off_c, 0, 70, 64
1, 11690, Note_on_c, 0, 71, 30
1, 11690, Note_on_c, 0, 81, 34
1, 11690, Note_off_c, 0, 83, 64
1, 11690, Note_on_c, 0, 84, 31
1, 11690, Note_off_c, 0, 88, 64
1, 11690, Note_on_c, 0, 89, 26
1, 11690, Note_on_c, 0, 95, 9
1, 11691, Note_off_c, 0, 42, 64
1, 11691, Note_on_c, 0, 80, 32
1, 11691, Note_on_c, 0, 83, 37
1, 11691, Note_on_c, 0, 88, 38
1, 11691, Note_off_c, 0, 91, 64
1, 11692, Note_on_c, 0, 49, 58
1, 11692, Note_off_c, 0, 73, 64
1, 11692, Note_on_c, 0, 74, 35
1, 11692, Note_off_c, 0, 75, 64
1, 11692, Note_off_c, 0, 85, 64
1, 11693, Note_on_c, 0, 29, 78
1, 11693, Note_off_c, 0, 30, 64
1, 11693, Note_on_c, 0, 63, 26
1, 11693, Note_off_c, 0, 71, 64
1, 11693, Note_off_c, 0, 80, 64
1, 11693, Note_off_c, 0, 81, 64
1, 11693, Note_on_c, 0, 82, 30
1, 11693, Note_on_c, 0, 91, 17
1, 11693, Note_off_c, 0, 95, 64
1, 11694, Note_off_c, 0, 49, 64
1, 11694, Note_off_c, 0, 74, 64
1, 11694, Note_on_c, 0, 80, 32
1, 11694, Note_on_c, 0, 81, 29
1, 11694, Note_on_c, 0, 85, 36
1, 11694, Note_off_c, 0, 86, 64
1, 11695, Note_on_c, 0, 70, 29
1, 11695, Note_on_c, 0, 76, 31
1, 11695, Note_off_c, 0, 84, 64
1, 11696, Note_off_c, 0, 29, 64
1, 11696, Note_on_c, 0, 30, 69
1, 11696, Note_off_c, 0, 89, 64
1, 11696, Note_off_c, 0, 91, 64
1, 11697, Note_off_c, 0, 30, 64
1, 11697, Note_on_c, 0, 34, 70
1, 11697, Note_on_c, 0, 72, 34
1, 11697, Note_on_c, 0, 74, 34
1, 11697, Note_on_c, 0, 79, 37
1, 11697, Note_off_c, 0, 80, 64
1, 11697, Note_off_c, 0, 81, 64
1, 11698, Note_off_c, 0, 34, 64
1, 11698, Note_on_c, 0, 35, 62
1, 11698, Note_on_c, 0, 66, 49
1, 11698, Note_on_c, 0, 75, 40
1, 11698, Note_off_c, 0, 76, 64
1, 11698, Note_on_c, 0, 81, 49
1, 11698, Note_off_c, 0, 82, 64
1, 11698, Note_on_c, 0, 94, 24
1, 11699, Note_off_c, 0, 63, 64
1, 11699, Note_off_c, 0, 70, 64
1, 11699, Note_off_c, 0, 72, 64
1, 11699, Note_off_c, 0, 74, 64
1, 11699, Note_off_c, 0, 79, 64
1, 11699, Note_on_c, 0, 80, 34
1, 11699, Note_on_c, 0, 89, 32
1, 11700, Note_off_c, 0, 35, 64
1, 11700, Note_on_c, 0, 51, 74
1, 11700, Note_off_c, 0, 66, 64
1, 11700, Note_on_c, 0, 70, 36
1, 11700, Note_off_c, 0, 78, 64
1, 11700, Note_off_c, 0, 83, 64
1, 11701, Note_on_c, 0, 48, 85
1, 11701, Note_off_c, 0, 51, 64
1, 11701, Note_on_c, 0, 73, 33
1, 11701, Note_off_c, 0, 81, 64
1, 11701, Note_off_c, 0, 94, 64
1, 11702, Note_on_c, 0, 45, 93
1, 11702, Note_off_c, 0, 48, 64
1, 11702, Note_off_c, 0, 70, 64
1, 11702, Note_off_c, 0, 75, 64
1, 11702, Note_on_c, 0, 84, 21
1, 11703, Note_on_c, 0, 42, 98
1, 11703, Note_off_c, 0, 45, 64
1, 11703, Note_on_c, 0, 69, 30
1, 11703, Note_off_c, 0, 73, 64
1, 11703, Note_on_c, 0, 82, 28
1, 11704, Note_on_c, 0, 40, 95
1, 11704, Note_off_c, 0, 42, 64
1, 11704, Note_off_c, 0, 85, 64
1, 11704, Note_on_c, 0, 86, 20
1, 11704, Note_on_c, 0, 87, 13
1, 11704, Note_off_c, 0, 89, 64
1, 11705, Note_on_c, 0, 38, 97
1, 11705, Note_off_c, 0, 40, 64
1, 11705, Note_on_c, 0, 73, 37
1, 11705, Note_on_c, 0, 83, 22
1, 11706, Note_on_c, 0, 36, 97
1, 11706, Note_off_c, 0, 38, 64
1, 11706, Note_off_c, 0, 88, 64
1, 11706, Note_off_c, 0, 93, 64
1, 11707, Note_on_c, 0, 35, 95
1, 11707, Note_off_c, 0, 36, 64
1, 11707, Note_on_c, 0, 64, 29
1, 11707, Note_off_c, 0, 82, 64
1, 11707, Note_off_c, 0, 84, 64
1, 11707, Note_off_c, 0, 87, 64
1, 11708, Note_on_c, 0, 34, 95
1, 11708, Note_off_c, 0, 35, 64
1, 11708, Note_off_c, 0, 69, 64
1, 11708, Note_on_c, 0, 84, 36
1, 11708, Note_on_c, 0, 90, 26
1, 11709, Note_on_c, 0, 33, 95
1, 11709, Note_off_c, 0, 34, 64
1, 11709, Note_on_c, 0, 78, 33
1, 11709, Note_on_c, 0, 89, 20
1, 11710, Note_on_c, 0, 32, 95
1, 11710, Note_off_c, 0, 33, 64
1, 11710, Note_on_c, 0, 71, 18
1, 11710, Note_on_c, 0, 76, 32
1, 11710, Note_off_c, 0, 83, 64
1, 11710, Note_on_c, 0, 85, 38
1, 11711, Note_on_c, 0, 82, 32
1, 11711, Note_on_c, 0, 83, 18
1, 11711, Note_on_c, 0, 87, 15
1, 11712, Note_on_c, 0, 31, 93
1, 11712, Note_off_c, 0, 32, 64
1, 11712, Note_on_c, 0, 81, 17
1, 11712, Note_off_c, 0, 86, 64
1, 11713, Note_off_c, 0, 90, 64
1, 11714, Note_on_c, 0, 30, 82
1, 11714, Note_off_c, 0, 31, 64
1, 11714, Note_off_c, 0, 83, 64
1, 11714, Note_on_c, 0, 86, 29
1, 11715, Note_off_c, 0, 71, 64
1, 11715, Note_off_c, 0, 82, 64
1, 11716, Note_off_c, 0, 30, 64
1, 11716, Note_off_c, 0, 81, 64
1, 11717, Note_off_c, 0, 64, 64
1, 11717, Note_on_c, 0, 65, 32
1, 11717, Note_off_c, 0, 78, 64
1, 11717, Note_on_c, 0, 82, 29
1, 11717, Note_off_c, 0, 87, 64
1, 11717, Note_on_c, 0, 88, 33
1, 11717, Note_off_c, 0, 89, 64
1, 11717, Note_on_c, 0, 93, 13
1, 11718, Note_on_c, 0, 41, 66
1, 11718, Note_on_c, 0, 68, 29
1, 11718, Note_on_c, 0, 72, 35
1, 11718, Note_off_c, 0, 73, 64
1, 11718, Note_on_c, 0, 79, 29
1, 11718, Note_off_c, 0, 80, 64
1, 11718, Note_on_c, 0, 81, 29
1, 11718, Note_on_c, 0, 83, 32
1, 11718, Note_off_c, 0, 84, 64
1, 11718, Note_on_c, 0, 89, 29
1, 11718, Note_on_c, 0, 92, 19
1, 11719, Note_on_c, 0, 31, 71
1, 11719, Note_off_c, 0, 41, 64
1, 11719, Note_off_c, 0, 65, 64
1, 11719, Note_on_c, 0, 66, 35
1, 11719, Note_on_c, 0, 74, 35
1, 11719, Note_off_c, 0, 76, 64
1, 11720, Note_on_c, 0, 30, 78
1, 11720, Note_off_c, 0, 31, 64
1, 11720, Note_off_c, 0, 72, 64
1, 11720, Note_on_c, 0, 80, 29
1, 11720, Note_off_c, 0, 83, 64
1, 11720, Note_on_c, 0, 87, 27
1, 11721, Note_on_c, 0, 29, 80
1, 11721, Note_off_c, 0, 30, 64
1, 11721, Note_on_c, 0, 61, 46
1, 11721, Note_on_c, 0, 70, 27
1, 11721, Note_off_c, 0, 74, 64
1, 11722, Note_off_c, 0, 68, 64
1, 11722, Note_off_c, 0, 79, 64
1, 11722, Note_off_c, 0, 82, 64
1, 11722, Note_off_c, 0, 89, 64
1, 11723, Note_off_c, 0, 29, 64
1, 11723, Note_on_c, 0, 30, 76
1, 11723, Note_off_c, 0, 81, 64
1, 11723, Note_off_c, 0, 86, 64
1, 11723, Note_on_c, 0, 90, 27
1, 11723, Note_off_c, 0, 92, 64
1, 11723, Note_off_c, 0, 93, 64
1, 11724, Note_on_c, 0, 77, 25
1, 11725, Note_on_c, 0, 29, 73
1, 11725, Note_off_c, 0, 30, 64
1, 11725, Note_on_c, 0, 86, 13
1, 11725, Note_off_c, 0, 87, 64
1, 11726, Note_on_c, 0, 84, 22
1, 11726, Note_on_c, 0, 93, 18
1, 11727, Note_on_c, 0, 79, 29
1, 11727, Note_off_c, 0, 80, 64
1, 11728, Note_off_c, 0, 29, 64
1, 11728, Note_on_c, 0, 30, 73
1, 11728, Note_on_c, 0, 76, 37
1, 11729, Note_off_c, 0, 30, 64
1, 11729, Note_on_c, 0, 31, 77
1, 11729, Note_on_c, 0, 71, 15
1, 11729, Note_off_c, 0, 77, 64
1, 11729, Note_on_c, 0, 83, 32
1, 11729, Note_off_c, 0, 86, 64
1, 11729, Note_on_c, 0, 89, 23
1, 11730, Note_on_c, 0, 30, 79
1, 11730, Note_off_c, 0, 31, 64
1, 11730, Note_on_c, 0, 80, 32
1, 11731, Note_on_c, 0, 29, 79
1, 11731, Note_off_c, 0, 30, 64
1, 11731, Note_off_c, 0, 70, 64
1, 11731, Note_off_c, 0, 79, 64
1, 11731, Note_off_c, 0, 90, 64
1, 11731, Note_off_c, 0, 93, 64
1, 11732, Note_off_c, 0, 84, 64
1, 11732, Note_on_c, 0, 86, 22
1, 11732, Note_off_c, 0, 89, 64
1, 11733, Note_off_c, 0, 29, 64
1, 11733, Note_on_c, 0, 30, 74
1, 11733, Note_on_c, 0, 70, 22
1, 11733, Note_off_c, 0, 71, 64
1, 11733, Note_on_c, 0, 79, 37
1, 11733, Note_on_c, 0, 82, 35
1, 11734, Note_off_c, 0, 30, 64
1, 11734, Note_on_c, 0, 32, 70
1, 11734, Note_on_c, 0, 72, 50
1, 11734, Note_off_c, 0, 83, 64
1, 11735, Note_off_c, 0, 32, 64
1, 11735, Note_on_c, 0, 35, 66
1, 11735, Note_on_c, 0, 54, 66
1, 11735, Note_off_c, 0, 66, 64
1, 11735, Note_on_c, 0, 67, 41
1, 11735, Note_on_c, 0, 74, 39
1, 11735, Note_on_c, 0, 87, 37
1, 11735, Note_on_c, 0, 89, 29
1, 11735, Note_on_c, 0, 98, 22
1, 11735, Note_on_c, 0, 102, 21
1, 11736, Note_off_c, 0, 35, 64
1, 11736, Note_off_c, 0, 61, 64
1, 11736, Note_off_c, 0, 70, 64
1, 11736, Note_off_c, 0, 80, 64
1, 11736, Note_on_c, 0, 81, 33
1, 11736, Note_off_c, 0, 86, 64
1, 11736, Note_on_c, 0, 90, 28
1, 11737, Note_on_c, 0, 64, 49
1, 11737, Note_off_c, 0, 67, 64
1, 11737, Note_on_c, 0, 69, 39
1, 11737, Note_off_c, 0, 87, 64
1, 11738, Note_on_c, 0, 49, 80
1, 11738, Note_off_c, 0, 54, 64
1, 11738, Note_off_c, 0, 76, 64
1, 11738, Note_on_c, 0, 80, 25
1, 11738, Note_off_c, 0, 82, 64
1, 11738, Note_off_c, 0, 85, 64
1, 11738, Note_off_c, 0, 89, 64
1, 11738, Note_off_c, 0, 98, 64
1, 11738, Note_off_c, 0, 102, 64
1, 11739, Note_on_c, 0, 45, 92
1, 11739, Note_off_c, 0, 49, 64
1, 11739, Note_off_c, 0, 69, 64
1, 11739, Note_on_c, 0, 71, 21
1, 11739, Note_off_c, 0, 72, 64
1, 11739, Note_on_c, 0, 73, 29
1, 11739, Note_off_c, 0, 74, 64
1, 11739, Note_on_c, 0, 78, 21
1, 11739, Note_off_c, 0, 79, 64
1, 11739, Note_on_c, 0, 85, 29
1, 11739, Note_off_c, 0, 88, 64
1, 11740, Note_on_c, 0, 42, 97
1, 11740, Note_off_c, 0, 45, 64
1, 11740, Note_on_c, 0, 83, 28
1, 11740, Note_on_c, 0, 88, 9
1, 11740, Note_on_c, 0, 89, 17
1, 11741, Note_on_c, 0, 41, 99
1, 11741, Note_off_c, 0, 42, 64
1, 11741, Note_off_c, 0, 85, 64
1, 11741, Note_off_c, 0, 90, 64
1, 11742, Note_on_c, 0, 38, 97
1, 11742, Note_off_c, 0, 41, 64
1, 11742, Note_on_c, 0, 53, 14
1, 11742, Note_off_c, 0, 78, 64
1, 11743, Note_on_c, 0, 37, 97
1, 11743, Note_off_c, 0, 38, 64
1, 11743, Note_off_c, 0, 81, 64
1, 11743, Note_on_c, 0, 86, 15
1, 11743, Note_off_c, 0, 88, 64
1, 11743, Note_off_c, 0, 89, 64
1, 11744, Note_on_c, 0, 36, 96
1, 11744, Note_off_c, 0, 37, 64
1, 11745, Note_on_c, 0, 34, 95
1, 11745, Note_off_c, 0, 36, 64
1, 11745, Note_off_c, 0, 53, 64
1, 11746, Note_on_c, 0, 33, 95
1, 11746, Note_off_c, 0, 34, 64
1, 11746, Note_on_c, 0, 78, 38
1, 11746, Note_on_c, 0, 82, 38
1, 11746, Note_on_c, 0, 85, 31
1, 11746, Note_on_c, 0, 89, 13
1, 11747, Note_off_c, 0, 64, 64
1, 11747, Note_on_c, 0, 69, 15
1, 11747, Note_off_c, 0, 71, 64
1, 11747, Note_off_c, 0, 80, 64
1, 11747, Note_off_c, 0, 86, 64
1, 11747, Note_on_c, 0, 88, 22
1, 11748, Note_on_c, 0, 32, 96
1, 11748, Note_off_c, 0, 33, 64
1, 11748, Note_on_c, 0, 84, 18
1, 11748, Note_on_c, 0, 86, 20
1, 11749, Note_on_c, 0, 31, 95
1, 11749, Note_off_c, 0, 32, 64
1, 11749, Note_on_c, 0, 66, 12
1, 11749, Note_on_c, 0, 80, 25
1, 11749, Note_off_c, 0, 85, 64
1, 11750, Note_off_c, 0, 69, 64
1, 11750, Note_off_c, 0, 83, 64
1, 11751, Note_on_c, 0, 61, 18
1, 11751, Note_on_c, 0, 70, 26
1, 11751, Note_off_c, 0, 84, 64
1, 11752, Note_on_c, 0, 30, 77
1, 11752, Note_off_c, 0, 31, 64
1, 11752, Note_on_c, 0, 84, 32
1, 11753, Note_off_c, 0, 30, 64
1, 11754, Note_off_c, 0, 66, 64
1, 11754, Note_off_c, 0, 86, 64
1, 11754, Note_off_c, 0, 89, 64
1, 11754, Note_on_c, 0, 93, 14
1, 11755, Note_off_c, 0, 61, 64
1, 11755, Note_on_c, 0, 64, 37
1, 11755, Note_off_c, 0, 80, 64
1, 11755, Note_on_c, 0, 91, 15
1, 11756, Note_on_c, 0, 35, 66
1, 11756, Note_on_c, 0, 61, 43
1, 11756, Note_off_c, 0, 73, 64
1, 11756, Note_on_c, 0, 86, 15
1, 11757, Note_on_c, 0, 30, 76
1, 11757, Note_off_c, 0, 35, 64
1, 11757, Note_on_c, 0, 81, 33
1, 11757, Note_off_c, 0, 93, 64
1, 11758, Note_on_c, 0, 29, 80
1, 11758, Note_off_c, 0, 30, 64
1, 11758, Note_on_c, 0, 66, 29
1, 11758, Note_off_c, 0, 70, 64
1, 11758, Note_on_c, 0, 83, 29
1, 11758, Note_on_c, 0, 89, 18
1, 11759, Note_off_c, 0, 64, 64
1, 11759, Note_on_c, 0, 70, 27
1, 11759, Note_off_c, 0, 82, 64
1, 11759, Note_on_c, 0, 85, 29
1, 11759, Note_off_c, 0, 91, 64
1, 11760, Note_off_c, 0, 29, 64
1, 11760, Note_on_c, 0, 30, 75
1, 11760, Note_on_c, 0, 79, 29
1, 11761, Note_on_c, 0, 77, 29
1, 11761, Note_off_c, 0, 84, 64
1, 11761, Note_off_c, 0, 86, 64
1, 11761, Note_on_c, 0, 94, 11
1, 11762, Note_on_c, 0, 29, 73
1, 11762, Note_off_c, 0, 30, 64
1, 11762, Note_off_c, 0, 79, 64
1, 11762, Note_on_c, 0, 91, 23
1, 11763, Note_off_c, 0, 89, 64
1, 11764, Note_on_c, 0, 42, 66
1, 11764, Note_off_c, 0, 61, 64
1, 11764, Note_off_c, 0, 66, 64
1, 11764, Note_on_c, 0, 73, 41
1, 11764, Note_on_c, 0, 75, 28
1, 11764, Note_off_c, 0, 78, 64
1, 11764, Note_on_c, 0, 80, 41
1, 11765, Note_off_c, 0, 29, 64
1, 11765, Note_on_c, 0, 30, 80
1, 11765, Note_on_c, 0, 64, 33
1, 11765, Note_on_c, 0, 68, 29
1, 11765, Note_off_c, 0, 70, 64
1, 11765, Note_on_c, 0, 71, 21
1, 11765, Note_off_c, 0, 88, 64
1, 11765, Note_on_c, 0, 90, 16
1, 11766, Note_off_c, 0, 42, 64
1, 11766, Note_on_c, 0, 49, 61
1, 11766, Note_off_c, 0, 94, 64
1, 11767, Note_on_c, 0, 82, 34
1, 11767, Note_off_c, 0, 85, 64
1, 11767, Note_on_c, 0, 88, 20
1, 11768, Note_on_c, 0, 29, 81
1, 11768, Note_off_c, 0, 30, 64
1, 11768, Note_off_c, 0, 71, 64
1, 11768, Note_off_c, 0, 75, 64
1, 11768, Note_off_c, 0, 81, 64
1, 11768, Note_on_c, 0, 87, 30
1, 11768, Note_off_c, 0, 90, 64
1, 11769, Note_off_c, 0, 68, 64
1, 11769, Note_on_c, 0, 76, 40
1, 11769, Note_on_c, 0, 86, 39
1, 11770, Note_off_c, 0, 29, 64
1, 11770, Note_on_c, 0, 30, 74
1, 11770, Note_off_c, 0, 64, 64
1, 11770, Note_on_c, 0, 70, 26
1, 11770, Note_off_c, 0, 77, 64
1, 11770, Note_off_c, 0, 82, 64
1, 11771, Note_off_c, 0, 49, 64
1, 11771, Note_on_c, 0, 60, 43
1, 11771, Note_off_c, 0, 83, 64
1, 11771, Note_off_c, 0, 88, 64
1, 11771, Note_off_c, 0, 91, 64
1, 11772, Note_off_c, 0, 30, 64
1, 11772, Note_on_c, 0, 34, 71
1, 11772, Note_on_c, 0, 72, 45
1, 11772, Note_off_c, 0, 73, 64
1, 11772, Note_on_c, 0, 74, 39
1, 11772, Note_on_c, 0, 78, 40
1, 11772, Note_on_c, 0, 83, 28
1, 11773, Note_off_c, 0, 34, 64
1, 11773, Note_on_c, 0, 56, 57
1, 11773, Note_off_c, 0, 70, 64
1, 11773, Note_on_c, 0, 91, 25
1, 11774, Note_off_c, 0, 60, 64
1, 11774, Note_on_c, 0, 64, 57
1, 11774, Note_off_c, 0, 74, 64
1, 11774, Note_on_c, 0, 81, 35
1, 11774, Note_on_c, 0, 85, 21
1, 11775, Note_on_c, 0, 51, 74
1, 11775, Note_off_c, 0, 56, 64
1, 11775, Note_on_c, 0, 69, 34
1, 11775, Note_on_c, 0, 71, 24
1, 11775, Note_off_c, 0, 72, 64
1, 11776, Note_on_c, 0, 46, 86
1, 11776, Note_off_c, 0, 51, 64
1, 11776, Note_off_c, 0, 76, 64
1, 11776, Note_off_c, 0, 78, 64
1, 11776, Note_on_c, 0, 79, 21
1, 11776, Note_off_c, 0, 80, 64
1, 11776, Note_off_c, 0, 83, 64
1, 11777, Note_on_c, 0, 44, 94
1, 11777, Note_off_c, 0, 46, 64
1, 11777, Note_on_c, 0, 75, 19
1, 11777, Note_off_c, 0, 81, 64
1, 11777, Note_off_c, 0, 86, 64
1, 11778, Note_on_c, 0, 41, 99
1, 11778, Note_off_c, 0, 44, 64
1, 11778, Note_off_c, 0, 69, 64
1, 11778, Note_on_c, 0, 70, 17
1, 11778, Note_off_c, 0, 71, 64
1, 11778, Note_on_c, 0, 81, 24
1, 11779, Note_on_c, 0, 39, 96
1, 11779, Note_off_c, 0, 41, 64
1, 11779, Note_on_c, 0, 68, 25
1, 11779, Note_on_c, 0, 84, 14
1, 11779, Note_off_c, 0, 87, 64
1, 11779, Note_off_c, 0, 91, 64
1, 11780, Note_on_c, 0, 38, 98
1, 11780, Note_off_c, 0, 39, 64
1, 11780, Note_on_c, 0, 74, 12
1, 11780, Note_off_c, 0, 75, 64
1, 11780, Note_on_c, 0, 78, 24
1, 11781, Note_on_c, 0, 36, 97
1, 11781, Note_off_c, 0, 38, 64
1, 11781, Note_off_c, 0, 70, 64
1, 11781, Note_off_c, 0, 81, 64
1, 11781, Note_on_c, 0, 82, 22
1, 11781, Note_off_c, 0, 85, 64
1, 11782, Note_on_c, 0, 35, 96
1, 11782, Note_off_c, 0, 36, 64
1, 11782, Note_off_c, 0, 79, 64
1, 11783, Note_on_c, 0, 34, 96
1, 11783, Note_off_c, 0, 35, 64
1, 11783, Note_off_c, 0, 74, 64
1, 11783, Note_on_c, 0, 86, 13
1, 11784, Note_on_c, 0, 33, 95
1, 11784, Note_off_c, 0, 34, 64
1, 11784, Note_off_c, 0, 64, 64
1, 11784, Note_on_c, 0, 89, 11
1, 11785, Note_on_c, 0, 32, 96
1, 11785, Note_off_c, 0, 33, 64
1, 11785, Note_off_c, 0, 84, 64
1, 11786, Note_off_c, 0, 78, 64
1, 11786, Note_on_c, 0, 85, 16
1, 11786, Note_off_c, 0, 86, 64
1, 11787, Note_on_c, 0, 31, 93
1, 11787, Note_off_c, 0, 32, 64
1, 11787, Note_on_c, 0, 80, 34
1, 11787, Note_on_c, 0, 88, 20
1, 11789, Note_on_c, 0, 30, 82
1, 11789, Note_off_c, 0, 31, 64
1, 11789, Note_on_c, 0, 54, 38
1, 11789, Note_on_c, 0, 70, 19
1, 11789, Note_off_c, 0, 82, 64
1, 11789, Note_off_c, 0, 89, 64
1, 11790, Note_on_c, 0, 78, 32
1, 11790, Note_off_c, 0, 85, 64
1, 11791, Note_off_c, 0, 68, 64
1, 11791, Note_on_c, 0, 82, 22
1, 11791, Note_on_c, 0, 85, 30
1, 11791, Note_on_c, 0, 86, 17
1, 11792, Note_off_c, 0, 30, 64
1, 11792, Note_on_c, 0, 65, 35
1, 11792, Note_on_c, 0, 67, 35
1, 11792, Note_on_c, 0, 73, 28
1, 11792, Note_on_c, 0, 76, 27
1, 11792, Note_off_c, 0, 80, 64
1, 11792, Note_on_c, 0, 83, 29
1, 11792, Note_on_c, 0, 91, 10
1, 11793, Note_on_c, 0, 37, 67
1, 11793, Note_off_c, 0, 54, 64
1, 11793, Note_on_c, 0, 81, 26
1, 11793, Note_on_c, 0, 92, 19
1, 11794, Note_on_c, 0, 31, 74
1, 11794, Note_off_c, 0, 37, 64
1, 11794, Note_on_c, 0, 54, 56
1, 11794, Note_on_c, 0, 61, 40
1, 11794, Note_off_c, 0, 65, 64
1, 11794, Note_off_c, 0, 67, 64
1, 11794, Note_on_c, 0, 68, 40
1, 11794, Note_off_c, 0, 70, 64
1, 11794, Note_off_c, 0, 82, 64
1, 11794, Note_on_c, 0, 87, 33
1, 11795, Note_on_c, 0, 30, 79
1, 11795, Note_off_c, 0, 31, 64
1, 11795, Note_on_c, 0, 84, 24
1, 11795, Note_off_c, 0, 86, 64
1, 11795, Note_off_c, 0, 91, 64
1, 11796, Note_on_c, 0, 29, 80
1, 11796, Note_off_c, 0, 30, 64
1, 11796, Note_on_c, 0, 49, 57
1, 11796, Note_on_c, 0, 86, 26
1, 11796, Note_off_c, 0, 92, 64
1, 11797, Note_off_c, 0, 54, 64
1, 11798, Note_on_c, 0, 77, 26
1, 11798, Note_off_c, 0, 85, 64
1, 11799, Note_off_c, 0, 29, 64
1, 11799, Note_on_c, 0, 30, 75
1, 11799, Note_off_c, 0, 49, 64
1, 11799, Note_on_c, 0, 70, 27
1, 11799, Note_off_c, 0, 84, 64
1, 11799, Note_on_c, 0, 91, 18
1, 11800, Note_on_c, 0, 29, 73
1, 11800, Note_off_c, 0, 30, 64
1, 11800, Note_off_c, 0, 81, 64
1, 11800, Note_on_c, 0, 82, 47
1, 11800, Note_off_c, 0, 86, 64
1, 11801, Note_on_c, 0, 86, 21
1, 11802, Note_off_c, 0, 61, 64
1, 11802, Note_off_c, 0, 70, 64
1, 11802, Note_on_c, 0, 74, 23
1, 11802, Note_off_c, 0, 77, 64
1, 11802, Note_off_c, 0, 91, 64
1, 11803, Note_off_c, 0, 29, 64
1, 11803, Note_on_c, 0, 30, 74
1, 11803, Note_on_c, 0, 64, 32
1, 11803, Note_on_c, 0, 71, 29
1, 11803, Note_off_c, 0, 73, 64
1, 11803, Note_off_c, 0, 88, 64
1, 11803, Note_on_c, 0, 96, 15
1, 11804, Note_off_c, 0, 30, 64
1, 11804, Note_on_c, 0, 31, 78
1, 11804, Note_on_c, 0, 58, 30
1, 11804, Note_off_c, 0, 87, 64
1, 11804, Note_on_c, 0, 89, 17
1, 11805, Note_on_c, 0, 30, 80
1, 11805, Note_off_c, 0, 31, 64
1, 11805, Note_off_c, 0, 71, 64
1, 11805, Note_off_c, 0, 83, 64
1, 11805, Note_on_c, 0, 84, 39
1, 11806, Note_on_c, 0, 29, 79
1, 11806, Note_off_c, 0, 30, 64
1, 11806, Note_off_c, 0, 58, 64
1, 11806, Note_off_c, 0, 64, 64
1, 11806, Note_off_c, 0, 74, 64
1, 11806, Note_off_c, 0, 76, 64
1, 11806, Note_on_c, 0, 77, 24
1, 11807, Note_on_c, 0, 88, 22
1, 11807, Note_off_c, 0, 89, 64
1, 11807, Note_off_c, 0, 96, 64
1, 11808, Note_off_c, 0, 29, 64
1, 11808, Note_on_c, 0, 30, 72
1, 11808, Note_on_c, 0, 64, 14
1, 11808, Note_on_c, 0, 74, 39
1, 11809, Note_off_c, 0, 30, 64
1, 11809, Note_on_c, 0, 33, 72
1, 11809, Note_on_c, 0, 54, 32
1, 11809, Note_off_c, 0, 68, 64
1, 11809, Note_off_c, 0, 77, 64
1, 11809, Note_on_c, 0, 87, 33
1, 11810, Note_off_c, 0, 33, 64
1, 11810, Note_on_c, 0, 35, 67
1, 11810, Note_on_c, 0, 71, 43
1, 11810, Note_on_c, 0, 77, 38
1, 11810, Note_off_c, 0, 86, 64
1, 11810, Note_on_c, 0, 91, 25
1, 11810, Note_on_c, 0, 93, 24
1, 11810, Note_on_c, 0, 97, 21
1, 11810, Note_on_c, 0, 98, 22
1, 11811, Note_off_c, 0, 35, 64
1, 11811, Note_off_c, 0, 54, 64
1, 11811, Note_off_c, 0, 64, 64
1, 11811, Note_on_c, 0, 65, 44
1, 11811, Note_off_c, 0, 78, 64
1, 11811, Note_on_c, 0, 79, 36
1, 11811, Note_off_c, 0, 88, 64
1, 11812, Note_on_c, 0, 53, 67
1, 11812, Note_on_c, 0, 67, 43
1, 11812, Note_on_c, 0, 70, 37
1, 11812, Note_off_c, 0, 71, 64
1, 11812, Note_on_c, 0, 75, 29
1, 11812, Note_on_c, 0, 85, 23
1, 11813, Note_on_c, 0, 48, 82
1, 11813, Note_off_c, 0, 53, 64
1, 11813, Note_off_c, 0, 74, 64
1, 11813, Note_off_c, 0, 79, 64
1, 11813, Note_off_c, 0, 84, 64
1, 11813, Note_off_c, 0, 87, 64
1, 11813, Note_off_c, 0, 91, 64
1, 11813, Note_off_c, 0, 93, 64
1, 11813, Note_off_c, 0, 97, 64
1, 11813, Note_off_c, 0, 98, 64
1, 11814, Note_on_c, 0, 45, 93
1, 11814, Note_off_c, 0, 48, 64
1, 11814, Note_off_c, 0, 65, 64
1, 11814, Note_off_c, 0, 67, 64
1, 11814, Note_off_c, 0, 75, 64
1, 11814, Note_on_c, 0, 80, 23
1, 11815, Note_on_c, 0, 42, 98
1, 11815, Note_off_c, 0, 45, 64
1, 11815, Note_on_c, 0, 66, 17
1, 11815, Note_off_c, 0, 77, 64
1, 11815, Note_on_c, 0, 88, 15
1, 11816, Note_on_c, 0, 40, 99
1, 11816, Note_off_c, 0, 42, 64
1, 11816, Note_off_c, 0, 85, 64
1, 11817, Note_on_c, 0, 38, 98
1, 11817, Note_off_c, 0, 40, 64
1, 11818, Note_on_c, 0, 37, 98
1, 11818, Note_off_c, 0, 38, 64
1, 11819, Note_on_c, 0, 35, 97
1, 11819, Note_off_c, 0, 37, 64
1, 11819, Note_off_c, 0, 70, 64
1, 11819, Note_off_c, 0, 80, 64
1, 11820, Note_on_c, 0, 34, 96
1, 11820, Note_off_c, 0, 35, 64
1, 11820, Note_off_c, 0, 82, 64
1, 11820, Note_off_c, 0, 88, 64
1, 11821, Note_on_c, 0, 33, 95
1, 11821, Note_off_c, 0, 34, 64
1, 11821, Note_on_c, 0, 84, 17
1, 11822, Note_on_c, 0, 73, 21
1, 11822, Note_on_c, 0, 81, 9
1, 11823, Note_on_c, 0, 32, 95
1, 11823, Note_off_c, 0, 33, 64
1, 11823, Note_on_c, 0, 83, 13
1, 11824, Note_on_c, 0, 31, 94
1, 11824, Note_off_c, 0, 32, 64
1, 11824, Note_off_c, 0, 84, 64
1, 11826, Note_on_c, 0, 76, 16
1, 11826, Note_off_c, 0, 81, 64
1, 11827, Note_on_c, 0, 30, 77
1, 11827, Note_off_c, 0, 31, 64
1, 11828, Note_on_c, 0, 80, 16
1, 11829, Note_off_c, 0, 30, 64
1, 11829, Note_on_c, 0, 84, 23
1, 11830, Note_off_c, 0, 66, 64
1, 11830, Note_off_c, 0, 83, 64
1, 11830, Note_on_c, 0, 87, 31
1, 11830, Note_on_c, 0, 88, 28
1, 11830, Note_on_c, 0, 92, 24
1, 11831, Note_on_c, 0, 36, 67
1, 11831, Note_on_c, 0, 61, 25
1, 11831, Note_on_c, 0, 63, 29
1, 11831, Note_on_c, 0, 68, 21
1, 11831, Note_off_c, 0, 73, 64
1, 11831, Note_on_c, 0, 74, 19
1, 11831, Note_off_c, 0, 80, 64
1, 11831, Note_on_c, 0, 83, 26
1, 11831, Note_on_c, 0, 85, 26
1, 11832, Note_on_c, 0, 31, 76
1, 11832, Note_off_c, 0, 36, 64
1, 11832, Note_off_c, 0, 76, 64
1, 11832, Note_on_c, 0, 89, 23
1, 11832, Note_on_c, 0, 93, 10
1, 11833, Note_on_c, 0, 29, 78
1, 11833, Note_off_c, 0, 31, 64
1, 11833, Note_off_c, 0, 63, 64
1, 11833, Note_off_c, 0, 88, 64
1, 11834, Note_off_c, 0, 61, 64
1, 11834, Note_off_c, 0, 84, 64
1, 11835, Note_off_c, 0, 29, 64
1, 11835, Note_on_c, 0, 30, 75
1, 11835, Note_off_c, 0, 74, 64
1, 11835, Note_off_c, 0, 87, 64
1, 11835, Note_off_c, 0, 89, 64
1, 11836, Note_on_c, 0, 61, 13
1, 11836, Note_on_c, 0, 84, 15
1, 11836, Note_off_c, 0, 85, 64
1, 11836, Note_off_c, 0, 92, 64
1, 11836, Note_off_c, 0, 93, 64
1, 11837, Note_on_c, 0, 29, 74
1, 11837, Note_off_c, 0, 30, 64
1, 11838, Note_on_c, 0, 81, 18
1, 11838, Note_on_c, 0, 86, 11
1, 11839, Note_off_c, 0, 61, 64
1, 11839, Note_off_c, 0, 68, 64
1, 11839, Note_on_c, 0, 82, 27
1, 11840, Note_off_c, 0, 29, 64
1, 11840, Note_on_c, 0, 30, 79
1, 11840, Note_on_c, 0, 71, 16
1, 11840, Note_off_c, 0, 84, 64
1, 11841, Note_on_c, 0, 49, 63
1, 11841, Note_on_c, 0, 64, 27
1, 11841, Note_off_c, 0, 86, 64
1, 11843, Note_on_c, 0, 78, 33
1, 11843, Note_off_c, 0, 81, 64
1, 11843, Note_off_c, 0, 83, 64
1, 11843, Note_on_c, 0, 84, 34
1, 11844, Note_off_c, 0, 64, 64
1, 11844, Note_on_c, 0, 80, 20
1, 11845, Note_off_c, 0, 71, 64
1, 11845, Note_on_c, 0, 88, 30
1, 11846, Note_off_c, 0, 49, 64
1, 11846, Note_off_c, 0, 82, 64
1, 11847, Note_off_c, 0, 30, 64
1, 11847, Note_on_c, 0, 34, 70
1, 11847, Note_on_c, 0, 87, 30
1, 11848, Note_off_c, 0, 34, 64
1, 11848, Note_on_c, 0, 70, 43
1, 11848, Note_on_c, 0, 72, 44
1, 11848, Note_on_c, 0, 76, 33
1, 11848, Note_off_c, 0, 80, 64
1, 11848, Note_on_c, 0, 86, 25
1, 11849, Note_on_c, 0, 81, 33
1, 11850, Note_on_c, 0, 51, 77
1, 11850, Note_off_c, 0, 88, 64
1, 11851, Note_on_c, 0, 46, 88
1, 11851, Note_off_c, 0, 51, 64
1, 11851, Note_off_c, 0, 70, 64
1, 11851, Note_off_c, 0, 72, 64
1, 11851, Note_off_c, 0, 76, 64
1, 11851, Note_on_c, 0, 85, 21
1, 11851, Note_off_c, 0, 86, 64
1, 11852, Note_on_c, 0, 43, 94
1, 11852, Note_off_c, 0, 46, 64
1, 11852, Note_on_c, 0, 83, 13
1, 11853, Note_on_c, 0, 41, 100
1, 11853, Note_off_c, 0, 43, 64
1, 11853, Note_off_c, 0, 84, 64
1, 11853, Note_off_c, 0, 87, 64
1, 11854, Note_on_c, 0, 39, 97
1, 11854, Note_off_c, 0, 41, 64
1, 11854, Note_off_c, 0, 78, 64
1, 11854, Note_off_c, 0, 81, 64
1, 11854, Note_off_c, 0, 85, 64
1, 11855, Note_on_c, 0, 37, 98
1, 11855, Note_off_c, 0, 39, 64
1, 11855, Note_off_c, 0, 83, 64
1, 11856, Note_on_c, 0, 36, 98
1, 11856, Note_off_c, 0, 37, 64
1, 11857, Note_on_c, 0, 35, 97
1, 11857, Note_off_c, 0, 36, 64
1, 11857, Note_on_c, 0, 66, 11
1, 11858, Note_on_c, 0, 34, 96
1, 11858, Note_off_c, 0, 35, 64
1, 11858, Note_on_c, 0, 85, 23
1, 11859, Note_on_c, 0, 33, 95
1, 11859, Note_off_c, 0, 34, 64
1, 11859, Note_on_c, 0, 89, 14
1, 11860, Note_on_c, 0, 32, 96
1, 11860, Note_off_c, 0, 33, 64
1, 11860, Note_on_c, 0, 83, 13
1, 11861, Note_off_c, 0, 66, 64
1, 11861, Note_off_c, 0, 85, 64
1, 11862, Note_on_c, 0, 31, 93
1, 11862, Note_off_c, 0, 32, 64
1, 11862, Note_on_c, 0, 80, 14
1, 11863, Note_off_c, 0, 83, 64
1, 11863, Note_off_c, 0, 89, 64
1, 11864, Note_on_c, 0, 30, 81
1, 11864, Note_off_c, 0, 31, 64
1, 11865, Note_off_c, 0, 80, 64
1, 11866, Note_off_c, 0, 30, 64
1, 11866, Note_on_c, 0, 84, 11
1, 11867, Note_on_c, 0, 78, 19
1, 11868, Note_on_c, 0, 36, 71
1, 11868, Note_on_c, 0, 61, 32
1, 11868, Note_on_c, 0, 71, 23
1, 11868, Note_on_c, 0, 76, 22
1, 11868, Note_on_c, 0, 81, 22
1, 11869, Note_on_c, 0, 31, 75
1, 11869, Note_off_c, 0, 36, 64
1, 11869, Note_on_c, 0, 79, 12
1, 11869, Note_on_c, 0, 82, 21
1, 11869, Note_off_c, 0, 84, 64
1, 11870, Note_on_c, 0, 30, 79
1, 11870, Note_off_c, 0, 31, 64
1, 11870, Note_off_c, 0, 78, 64
1, 11871, Note_on_c, 0, 29, 80
1, 11871, Note_off_c, 0, 30, 64
1, 11871, Note_on_c, 0, 54, 50
1, 11871, Note_off_c, 0, 71, 64
1, 11871, Note_off_c, 0, 81, 64
1, 11872, Note_off_c, 0, 29, 64
1, 11872, Note_on_c, 0, 30, 77
1, 11872, Note_on_c, 0, 78, 23
1, 11872, Note_off_c, 0, 79, 64
1, 11874, Note_on_c, 0, 29, 74
1, 11874, Note_off_c, 0, 30, 64
1, 11874, Note_off_c, 0, 54, 64
1, 11874, Note_off_c, 0, 61, 64
1, 11877, Note_on_c, 0, 42, 65
1, 11877, Note_on_c, 0, 70, 24
1, 11877, Note_on_c, 0, 74, 11
1, 11877, Note_off_c, 0, 76, 64
1, 11877, Note_on_c, 0, 84, 24
1, 11877, Note_on_c, 0, 86, 12
1, 11877, Note_on_c, 0, 88, 14
1, 11878, Note_off_c, 0, 29, 64
1, 11878, Note_on_c, 0, 30, 80
1, 11878, Note_off_c, 0, 42, 64
1, 11878, Note_on_c, 0, 72, 18
1, 11878, Note_on_c, 0, 85, 17
1, 11880, Note_on_c, 0, 49, 59
1, 11880, Note_on_c, 0, 68, 15
1, 11880, Note_off_c, 0, 86, 64
1, 11881, Note_on_c, 0, 29, 79
1, 11881, Note_off_c, 0, 30, 64
1, 11881, Note_off_c, 0, 72, 64
1, 11881, Note_on_c, 0, 73, 43
1, 11881, Note_off_c, 0, 74, 64
1, 11881, Note_off_c, 0, 88, 64
1, 11882, Note_off_c, 0, 29, 64
1, 11882, Note_on_c, 0, 30, 76
1, 11882, Note_off_c, 0, 49, 64
1, 11882, Note_off_c, 0, 78, 64
1, 11882, Note_off_c, 0, 82, 64
1, 11882, Note_off_c, 0, 84, 64
1, 11882, Note_off_c, 0, 85, 64
1, 11883, Note_on_c, 0, 60, 29
1, 11883, Note_off_c, 0, 68, 64
1, 11883, Note_off_c, 0, 70, 64
1, 11883, Note_on_c, 0, 84, 29
1, 11884, Note_off_c, 0, 30, 64
1, 11884, Note_on_c, 0, 33, 72
1, 11885, Note_off_c, 0, 33, 64
1, 11885, Note_on_c, 0, 35, 66
1, 11885, Note_off_c, 0, 60, 64
1, 11885, Note_on_c, 0, 81, 31
1, 11885, Note_on_c, 0, 86, 41
1, 11885, Note_on_c, 0, 88, 27
1, 11885, Note_on_c, 0, 89, 26
1, 11885, Note_on_c, 0, 90, 29
1, 11885, Note_on_c, 0, 91, 30
1, 11885, Note_on_c, 0, 93, 32
1, 11885, Note_on_c, 0, 94, 18
1, 11885, Note_on_c, 0, 95, 29
1, 11885, Note_on_c, 0, 97, 16
1, 11885, Note_on_c, 0, 99, 20
1, 11886, Note_off_c, 0, 35, 64
1, 11886, Note_on_c, 0, 78, 42
1, 11886, Note_on_c, 0, 87, 34
1, 11887, Note_on_c, 0, 53, 70
1, 11887, Note_on_c, 0, 62, 51
1, 11887, Note_on_c, 0, 77, 31
1, 11887, Note_off_c, 0, 84, 64
1, 11887, Note_on_c, 0, 92, 13
1, 11888, Note_on_c, 0, 48, 84
1, 11888, Note_off_c, 0, 53, 64
1, 11888, Note_off_c, 0, 73, 64
1, 11888, Note_off_c, 0, 87, 64
1, 11888, Note_off_c, 0, 90, 64
1, 11888, Note_off_c, 0, 91, 64
1, 11888, Note_off_c, 0, 95, 64
1, 11888, Note_off_c, 0, 97, 64
1, 11888, Note_off_c, 0, 99, 64
1, 11889, Note_on_c, 0, 45, 94
1, 11889, Note_off_c, 0, 48, 64
1, 11889, Note_off_c, 0, 78, 64
1, 11889, Note_off_c, 0, 86, 64
1, 11889, Note_on_c, 0, 87, 13
1, 11889, Note_off_c, 0, 93, 64
1, 11890, Note_on_c, 0, 42, 99
1, 11890, Note_off_c, 0, 45, 64
1, 11890, Note_off_c, 0, 88, 64
1, 11890, Note_off_c, 0, 92, 64
1, 11890, Note_off_c, 0, 94, 64
1, 11891, Note_on_c, 0, 40, 98
1, 11891, Note_off_c, 0, 42, 64
1, 11892, Note_on_c, 0, 38, 98
1, 11892, Note_off_c, 0, 40, 64
1, 11892, Note_off_c, 0, 62, 64
1, 11892, Note_off_c, 0, 77, 64
1, 11892, Note_off_c, 0, 87, 64
1, 11893, Note_on_c, 0, 37, 98
1, 11893, Note_off_c, 0, 38, 64
1, 11893, Note_off_c, 0, 81, 64
1, 11893, Note_off_c, 0, 89, 64
1, 11894, Note_on_c, 0, 35, 97
1, 11894, Note_off_c, 0, 37, 64
1, 11895, Note_on_c, 0, 34, 96
1, 11895, Note_off_c, 0, 35, 64
1, 11896, Note_on_c, 0, 33, 96
1, 11896, Note_off_c, 0, 34, 64
1, 11898, Note_on_c, 0, 32, 96
1, 11898, Note_off_c, 0, 33, 64
1, 11899, Note_on_c, 0, 31, 95
1, 11899, Note_off_c, 0, 32, 64
1, 11899, Note_on_c, 0, 61, 10
1, 11901, Note_on_c, 0, 78, 13
1, 11902, Note_on_c, 0, 30, 75
1, 11902, Note_off_c, 0, 31, 64
1, 11902, Note_off_c, 0, 61, 64
1, 11903, Note_off_c, 0, 30, 64
1, 11904, Note_on_c, 0, 75, 26
1, 11904, Note_off_c, 0, 78, 64
1, 11905, Note_on_c, 0, 43, 65
1, 11905, Note_on_c, 0, 86, 11
1, 11905, Note_on_c, 0, 89, 11
1, 11906, Note_on_c, 0, 36, 69
1, 11906, Note_off_c, 0, 43, 64
1, 11906, Note_on_c, 0, 61, 27
1, 11906, Note_on_c, 0, 64, 25
1, 11906, Note_on_c, 0, 70, 33
1, 11906, Note_on_c, 0, 81, 17
1, 11907, Note_on_c, 0, 30, 77
1, 11907, Note_off_c, 0, 36, 64
1, 11907, Note_on_c, 0, 49, 59
1, 11907, Note_off_c, 0, 75, 64
1, 11908, Note_on_c, 0, 29, 80
1, 11908, Note_off_c, 0, 30, 64
1, 11908, Note_on_c, 0, 78, 21
1, 11908, Note_on_c, 0, 83, 27
1, 11909, Note_off_c, 0, 49, 64
1, 11909, Note_off_c, 0, 61, 64
1, 11909, Note_off_c, 0, 81, 64
1, 11909, Note_off_c, 0, 89, 64
1, 11910, Note_off_c, 0, 29, 64
1, 11910, Note_on_c, 0, 30, 76
1, 11910, Note_off_c, 0, 64, 64
1, 11910, Note_on_c, 0, 66, 29
1, 11910, Note_off_c, 0, 86, 64
1, 11911, Note_off_c, 0, 70, 64
1, 11911, Note_on_c, 0, 75, 22
1, 11911, Note_off_c, 0, 78, 64
1, 11912, Note_on_c, 0, 29, 73
1, 11912, Note_off_c, 0, 30, 64
1, 11912, Note_on_c, 0, 68, 30
1, 11912, Note_on_c, 0, 73, 32
1, 11914, Note_on_c, 0, 79, 21
1, 11915, Note_off_c, 0, 29, 64
1, 11915, Note_on_c, 0, 30, 73
1, 11915, Note_on_c, 0, 61, 37
1, 11915, Note_on_c, 0, 88, 16
1, 11916, Note_off_c, 0, 30, 64
1, 11916, Note_on_c, 0, 31, 77
1, 11916, Note_off_c, 0, 66, 64
1, 11916, Note_off_c, 0, 75, 64
1, 11917, Note_on_c, 0, 30, 79
1, 11917, Note_off_c, 0, 31, 64
1, 11917, Note_on_c, 0, 66, 33
1, 11917, Note_off_c, 0, 68, 64
1, 11917, Note_off_c, 0, 73, 64
1, 11918, Note_on_c, 0, 29, 80
1, 11918, Note_off_c, 0, 30, 64
1, 11918, Note_on_c, 0, 49, 57
1, 11918, Note_on_c, 0, 63, 29
1, 11918, Note_on_c, 0, 68, 39
1, 11918, Note_on_c, 0, 82, 21
1, 11918, Note_off_c, 0, 83, 64
1, 11918, Note_off_c, 0, 88, 64
1, 11919, Note_off_c, 0, 61, 64
1, 11919, Note_off_c, 0, 66, 64
1, 11919, Note_on_c, 0, 73, 33
1, 11919, Note_on_c, 0, 76, 28
1, 11920, Note_off_c, 0, 29, 64
1, 11920, Note_on_c, 0, 30, 75
1, 11920, Note_off_c, 0, 79, 64
1, 11921, Note_off_c, 0, 49, 64
1, 11921, Note_off_c, 0, 63, 64
1, 11921, Note_on_c, 0, 70, 43
1, 11922, Note_off_c, 0, 30, 64
1, 11922, Note_on_c, 0, 34, 70
1, 11922, Note_off_c, 0, 76, 64
1, 11922, Note_on_c, 0, 78, 39
1, 11923, Note_off_c, 0, 34, 64
1, 11923, Note_on_c, 0, 66, 49
1, 11923, Note_on_c, 0, 72, 41
1, 11923, Note_off_c, 0, 73, 64
1, 11923, Note_on_c, 0, 74, 40
1, 11923, Note_on_c, 0, 81, 34
1, 11923, Note_off_c, 0, 82, 64
1, 11923, Note_on_c, 0, 83, 31
1, 11924, Note_off_c, 0, 68, 64
1, 11924, Note_off_c, 0, 78, 64
1, 11924, Note_on_c, 0, 79, 34
1, 11925, Note_on_c, 0, 50, 79
1, 11925, Note_off_c, 0, 70, 64
1, 11925, Note_off_c, 0, 81, 64
1, 11925, Note_off_c, 0, 83, 64
1, 11926, Note_on_c, 0, 46, 89
1, 11926, Note_off_c, 0, 50, 64
1, 11926, Note_off_c, 0, 66, 64
1, 11926, Note_off_c, 0, 72, 64
1, 11926, Note_off_c, 0, 74, 64
1, 11926, Note_off_c, 0, 79, 64
1, 11927, Note_on_c, 0, 42, 96
1, 11927, Note_off_c, 0, 46, 64
1, 11927, Note_on_c, 0, 80, 15
1, 11928, Note_on_c, 0, 41, 100
1, 11928, Note_off_c, 0, 42, 64
1, 11929, Note_on_c, 0, 39, 97
1, 11929, Note_off_c, 0, 41, 64
1, 11930, Note_on_c, 0, 37, 98
1, 11930, Note_off_c, 0, 39, 64
1, 11930, Note_on_c, 0, 78, 12
1, 11930, Note_off_c, 0, 80, 64
1, 11931, Note_on_c, 0, 36, 97
1, 11931, Note_off_c, 0, 37, 64
1, 11932, Note_on_c, 0, 35, 96
1, 11932, Note_off_c, 0, 36, 64
1, 11933, Note_on_c, 0, 34, 95
1, 11933, Note_off_c, 0, 35, 64
1, 11933, Note_on_c, 0, 79, 10
1, 11934, Note_on_c, 0, 33, 95
1, 11934, Note_off_c, 0, 34, 64
1, 11934, Note_on_c, 0, 77, 23
1, 11934, Note_off_c, 0, 78, 64
1, 11935, Note_on_c, 0, 32, 96
1, 11935, Note_off_c, 0, 33, 64
1, 11936, Note_on_c, 0, 31, 96
1, 11936, Note_off_c, 0, 32, 64
1, 11936, Note_off_c, 0, 79, 64
1, 11938, Note_on_c, 0, 76, 43
1, 11939, Note_on_c, 0, 30, 80
1, 11939, Note_off_c, 0, 31, 64
1, 11939, Note_off_c, 0, 77, 64
1, 11939, Note_on_c, 0, 84, 19
1, 11941, Note_on_c, 0, 79, 36
1, 11942, Note_off_c, 0, 30, 64
1, 11942, Note_on_c, 0, 77, 36
1, 11942, Note_on_c, 0, 86, 35
1, 11942, Note_on_c, 0, 96, 26
1, 11942, Note_on_c, 0, 97, 19
1, 11943, Note_on_c, 0, 36, 72
1, 11943, Note_on_c, 0, 61, 29
1, 11943, Note_on_c, 0, 64, 29
1, 11943, Note_on_c, 0, 68, 33
1, 11943, Note_on_c, 0, 83, 35
1, 11944, Note_on_c, 0, 31, 76
1, 11944, Note_off_c, 0, 36, 64
1, 11944, Note_on_c, 0, 80, 39
1, 11945, Note_on_c, 0, 30, 79
1, 11945, Note_off_c, 0, 31, 64
1, 11945, Note_off_c, 0, 61, 64
1, 11945, Note_off_c, 0, 64, 64
1, 11945, Note_off_c, 0, 68, 64
1, 11945, Note_off_c, 0, 77, 64
1, 11945, Note_off_c, 0, 97, 64
1, 11946, Note_on_c, 0, 29, 79
1, 11946, Note_off_c, 0, 30, 64
1, 11946, Note_on_c, 0, 49, 53
1, 11946, Note_on_c, 0, 81, 35
1, 11946, Note_off_c, 0, 83, 64
1, 11946, Note_on_c, 0, 87, 24
1, 11946, Note_on_c, 0, 90, 25
1, 11947, Note_off_c, 0, 29, 64
1, 11947, Note_on_c, 0, 30, 77
1, 11947, Note_on_c, 0, 78, 31
1, 11947, Note_off_c, 0, 96, 64
1, 11948, Note_off_c, 0, 79, 64
1, 11948, Note_on_c, 0, 83, 27
1, 11949, Note_on_c, 0, 29, 75
1, 11949, Note_off_c, 0, 30, 64
1, 11949, Note_on_c, 0, 48, 51
1, 11949, Note_off_c, 0, 49, 64
1, 11949, Note_off_c, 0, 76, 64
1, 11949, Note_off_c, 0, 80, 64
1, 11949, Note_off_c, 0, 84, 64
1, 11949, Note_off_c, 0, 90, 64
1, 11950, Note_on_c, 0, 67, 29
1, 11950, Note_on_c, 0, 76, 35
1, 11950, Note_on_c, 0, 80, 22
1, 11950, Note_off_c, 0, 81, 64
1, 11950, Note_on_c, 0, 82, 32
1, 11951, Note_off_c, 0, 48, 64
1, 11951, Note_on_c, 0, 85, 31
1, 11952, Note_off_c, 0, 29, 64
1, 11952, Note_on_c, 0, 30, 80
1, 11952, Note_off_c, 0, 83, 64
1, 11953, Note_on_c, 0, 63, 33
1, 11953, Note_off_c, 0, 67, 64
1, 11953, Note_on_c, 0, 68, 35
1, 11953, Note_on_c, 0, 74, 27
1, 11953, Note_off_c, 0, 80, 64
1, 11953, Note_off_c, 0, 82, 64
1, 11954, Note_on_c, 0, 49, 61
1, 11954, Note_on_c, 0, 82, 32
1, 11955, Note_off_c, 0, 63, 64
1, 11955, Note_on_c, 0, 64, 34
1, 11955, Note_on_c, 0, 77, 22
1, 11955, Note_off_c, 0, 78, 64
1, 11955, Note_off_c, 0, 85, 64
1, 11955, Note_on_c, 0, 89, 34
1, 11956, Note_on_c, 0, 29, 78
1, 11956, Note_off_c, 0, 30, 64
1, 11956, Note_off_c, 0, 49, 64
1, 11956, Note_off_c, 0, 74, 64
1, 11956, Note_on_c, 0, 75, 28
1, 11956, Note_off_c, 0, 76, 64
1, 11956, Note_on_c, 0, 83, 30
1, 11956, Note_off_c, 0, 87, 64
1, 11957, Note_off_c, 0, 64, 64
1, 11957, Note_on_c, 0, 85, 36
1, 11958, Note_off_c, 0, 29, 64
1, 11958, Note_on_c, 0, 30, 72
1, 11958, Note_on_c, 0, 67, 30
1, 11958, Note_off_c, 0, 77, 64
1, 11958, Note_on_c, 0, 81, 36
1, 11959, Note_off_c, 0, 30, 64
1, 11959, Note_on_c, 0, 34, 72
1, 11959, Note_off_c, 0, 68, 64
1, 11959, Note_on_c, 0, 79, 36
1, 11959, Note_off_c, 0, 82, 64
1, 11960, Note_off_c, 0, 34, 64
1, 11960, Note_on_c, 0, 35, 65
1, 11960, Note_on_c, 0, 64, 49
1, 11960, Note_on_c, 0, 70, 43
1, 11960, Note_on_c, 0, 74, 42
1, 11960, Note_off_c, 0, 75, 64
1, 11960, Note_on_c, 0, 84, 36
1, 11960, Note_on_c, 0, 94, 22
1, 11961, Note_off_c, 0, 35, 64
1, 11961, Note_off_c, 0, 67, 64
1, 11961, Note_on_c, 0, 78, 39
1, 11961, Note_off_c, 0, 79, 64
1, 11961, Note_off_c, 0, 83, 64
1, 11962, Note_on_c, 0, 51, 72
1, 11962, Note_off_c, 0, 64, 64
1, 11962, Note_off_c, 0, 74, 64
1, 11962, Note_off_c, 0, 86, 64
1, 11963, Note_on_c, 0, 48, 85
1, 11963, Note_off_c, 0, 51, 64
1, 11963, Note_off_c, 0, 78, 64
1, 11963, Note_off_c, 0, 81, 64
1, 11963, Note_off_c, 0, 84, 64
1, 11963, Note_off_c, 0, 85, 64
1, 11963, Note_off_c, 0, 89, 64
1, 11963, Note_off_c, 0, 94, 64
1, 11964, Note_on_c, 0, 45, 94
1, 11964, Note_off_c, 0, 48, 64
1, 11964, Note_off_c, 0, 70, 64
1, 11964, Note_on_c, 0, 78, 12
1, 11965, Note_on_c, 0, 42, 100
1, 11965, Note_off_c, 0, 45, 64
1, 11966, Note_on_c, 0, 40, 98
1, 11966, Note_off_c, 0, 42, 64
1, 11967, Note_on_c, 0, 38, 98
1, 11967, Note_off_c, 0, 40, 64
1, 11968, Note_on_c, 0, 36, 98
1, 11968, Note_off_c, 0, 38, 64
1, 11969, Note_on_c, 0, 35, 96
1, 11969, Note_off_c, 0, 36, 64
1, 11969, Note_off_c, 0, 78, 64
1, 11970, Note_on_c, 0, 34, 96
1, 11970, Note_off_c, 0, 35, 64
1, 11971, Note_on_c, 0, 33, 96
1, 11971, Note_off_c, 0, 34, 64
1, 11971, Note_on_c, 0, 82, 9
1, 11972, Note_on_c, 0, 32, 97
1, 11972, Note_off_c, 0, 33, 64
1, 11973, Note_on_c, 0, 79, 10
1, 11974, Note_on_c, 0, 31, 95
1, 11974, Note_off_c, 0, 32, 64
1, 11975, Note_off_c, 0, 82, 64
1, 11976, Note_on_c, 0, 30, 85
1, 11976, Note_off_c, 0, 31, 64
1, 11976, Note_off_c, 0, 79, 64
1, 11977, Note_on_c, 0, 75, 15
1, 11978, Note_off_c, 0, 30, 64
1, 11979, Note_on_c, 0, 42, 64
1, 11979, Note_on_c, 0, 63, 23
1, 11979, Note_on_c, 0, 81, 16
1, 11980, Note_on_c, 0, 77, 19
1, 11980, Note_on_c, 0, 78, 18
1, 11981, Note_on_c, 0, 32, 68
1, 11981, Note_off_c, 0, 42, 64
1, 11981, Note_on_c, 0, 68, 26
1, 11981, Note_off_c, 0, 75, 64
1, 11982, Note_on_c, 0, 30, 77
1, 11982, Note_off_c, 0, 32, 64
1, 11982, Note_on_c, 0, 49, 60
1, 11982, Note_off_c, 0, 63, 64
1, 11982, Note_off_c, 0, 81, 64
1, 11982, Note_on_c, 0, 85, 17
1, 11983, Note_on_c, 0, 29, 80
1, 11983, Note_off_c, 0, 30, 64
1, 11983, Note_off_c, 0, 78, 64
1, 11984, Note_off_c, 0, 29, 64
1, 11984, Note_on_c, 0, 30, 78
1, 11984, Note_off_c, 0, 49, 64
1, 11984, Note_off_c, 0, 68, 64
1, 11984, Note_on_c, 0, 70, 19
1, 11984, Note_off_c, 0, 77, 64
1, 11985, Note_off_c, 0, 85, 64
1, 11986, Note_on_c, 0, 49, 51
1, 11987, Note_on_c, 0, 29, 74
1, 11987, Note_off_c, 0, 30, 64
1, 11987, Note_off_c, 0, 70, 64
1, 11987, Note_on_c, 0, 77, 25
1, 11987, Note_on_c, 0, 87, 26
1, 11987, Note_on_c, 0, 90, 12
1, 11988, Note_off_c, 0, 49, 64
1, 11988, Note_on_c, 0, 71, 24
1, 11988, Note_on_c, 0, 74, 28
1, 11990, Note_off_c, 0, 29, 64
1, 11990, Note_on_c, 0, 30, 79
1, 11990, Note_on_c, 0, 54, 54
1, 11990, Note_on_c, 0, 61, 31
1, 11990, Note_on_c, 0, 78, 16
1, 11990, Note_on_c, 0, 80, 16
1, 11991, Note_on_c, 0, 49, 60
1, 11991, Note_on_c, 0, 64, 33
1, 11991, Note_off_c, 0, 71, 64
1, 11991, Note_off_c, 0, 77, 64
1, 11991, Note_on_c, 0, 82, 25
1, 11991, Note_off_c, 0, 87, 64
1, 11991, Note_off_c, 0, 90, 64
1, 11992, Note_off_c, 0, 54, 64
1, 11993, Note_on_c, 0, 29, 79
1, 11993, Note_off_c, 0, 30, 64
1, 11993, Note_off_c, 0, 64, 64
1, 11993, Note_off_c, 0, 78, 64
1, 11994, Note_off_c, 0, 29, 64
1, 11994, Note_on_c, 0, 30, 77
1, 11994, Note_off_c, 0, 49, 64
1, 11994, Note_off_c, 0, 80, 64
1, 11995, Note_off_c, 0, 61, 64
1, 11995, Note_on_c, 0, 84, 35
1, 11996, Note_off_c, 0, 30, 64
1, 11996, Note_on_c, 0, 31, 70
1, 11996, Note_on_c, 0, 54, 39
1, 11996, Note_on_c, 0, 67, 46
1, 11996, Note_off_c, 0, 74, 64
1, 11997, Note_off_c, 0, 31, 64
1, 11997, Note_on_c, 0, 34, 69
1, 11997, Note_on_c, 0, 81, 35
1, 11997, Note_off_c, 0, 82, 64
1, 11997, Note_on_c, 0, 83, 32
1, 11997, Note_on_c, 0, 85, 34
1, 11997, Note_on_c, 0, 88, 34
1, 11997, Note_on_c, 0, 89, 27
1, 11997, Note_on_c, 0, 92, 29
1, 11998, Note_off_c, 0, 34, 64
1, 11998, Note_off_c, 0, 54, 64
1, 11998, Note_on_c, 0, 71, 43
1, 11998, Note_on_c, 0, 75, 42
1, 11998, Note_on_c, 0, 78, 35
1, 11998, Note_on_c, 0, 91, 31
1, 11999, Note_on_c, 0, 66, 50
1, 11999, Note_off_c, 0, 67, 64
1, 11999, Note_on_c, 0, 80, 30
1, 11999, Note_off_c, 0, 81, 64
1, 11999, Note_on_c, 0, 82, 30
1, 12000, Note_on_c, 0, 49, 79
1, 12000, Note_off_c, 0, 71, 64
1, 12000, Note_off_c, 0, 75, 64
1, 12000, Note_on_c, 0, 76, 19
1, 12000, Note_off_c, 0, 83, 64
1, 12000, Note_off_c, 0, 88, 64
1, 12000, Note_off_c, 0, 89, 64
1, 12000, Note_off_c, 0, 91, 64
1, 12000, Note_off_c, 0, 92, 64
1, 12001, Note_on_c, 0, 45, 91
1, 12001, Note_off_c, 0, 49, 64
1, 12001, Note_off_c, 0, 78, 64
1, 12001, Note_off_c, 0, 80, 64
1, 12001, Note_off_c, 0, 84, 64
1, 12001, Note_off_c, 0, 85, 64
1, 12002, Note_on_c, 0, 42, 96
1, 12002, Note_off_c, 0, 45, 64
1, 12002, Note_off_c, 0, 82, 64
1, 12003, Note_on_c, 0, 41, 99
1, 12003, Note_off_c, 0, 42, 64
1, 12003, Note_off_c, 0, 66, 64
1, 12004, Note_on_c, 0, 38, 97
1, 12004, Note_off_c, 0, 41, 64
1, 12004, Note_off_c, 0, 76, 64
1, 12005, Note_on_c, 0, 37, 98
1, 12005, Note_off_c, 0, 38, 64
1, 12006, Note_on_c, 0, 36, 98
1, 12006, Note_off_c, 0, 37, 64
1, 12007, Note_on_c, 0, 35, 96
1, 12007, Note_off_c, 0, 36, 64
1, 12008, Note_on_c, 0, 34, 95
1, 12008, Note_off_c, 0, 35, 64
1, 12009, Note_on_c, 0, 33, 95
1, 12009, Note_off_c, 0, 34, 64
1, 12010, Note_on_c, 0, 32, 96
1, 12010, Note_off_c, 0, 33, 64
1, 12012, Note_on_c, 0, 31, 93
1, 12012, Note_off_c, 0, 32, 64
1, 12014, Note_on_c, 0, 30, 80
1, 12014, Note_off_c, 0, 31, 64
1, 12016, Note_off_c, 0, 30, 64
1, 12016, Note_on_c, 0, 87, 18
1, 12017, Note_on_c, 0, 86, 11
1, 12018, Note_on_c, 0, 36, 71
1, 12018, Note_on_c, 0, 63, 27
1, 12018, Note_on_c, 0, 66, 22
1, 12018, Note_on_c, 0, 76, 21
1, 12019, Note_on_c, 0, 31, 77
1, 12019, Note_off_c, 0, 36, 64
1, 12019, Note_on_c, 0, 81, 9
1, 12020, Note_on_c, 0, 30, 81
1, 12020, Note_off_c, 0, 31, 64
1, 12020, Note_on_c, 0, 49, 61
1, 12021, Note_on_c, 0, 29, 80
1, 12021, Note_off_c, 0, 30, 64
1, 12021, Note_off_c, 0, 76, 64
1, 12021, Note_off_c, 0, 86, 64
1, 12022, Note_off_c, 0, 49, 64
1, 12022, Note_off_c, 0, 63, 64
1, 12022, Note_on_c, 0, 64, 21
1, 12022, Note_off_c, 0, 81, 64
1, 12023, Note_off_c, 0, 29, 64
1, 12023, Note_on_c, 0, 30, 75
1, 12024, Note_on_c, 0, 29, 74
1, 12024, Note_off_c, 0, 30, 64
1, 12024, Note_off_c, 0, 87, 64
1, 12025, Note_on_c, 0, 49, 47
1, 12025, Note_off_c, 0, 64, 64
1, 12026, Note_off_c, 0, 66, 64
1, 12026, Note_on_c, 0, 79, 17
1, 12027, Note_off_c, 0, 29, 64
1, 12027, Note_on_c, 0, 30, 79
1, 12027, Note_off_c, 0, 49, 64
1, 12027, Note_on_c, 0, 61, 33
1, 12028, Note_on_c, 0, 68, 18
1, 12028, Note_on_c, 0, 71, 17
1, 12028, Note_on_c, 0, 76, 21
1, 12028, Note_on_c, 0, 82, 19
1, 12029, Note_off_c, 0, 61, 64
1, 12030, Note_on_c, 0, 29, 80
1, 12030, Note_off_c, 0, 30, 64
1, 12030, Note_on_c, 0, 63, 28
1, 12030, Note_on_c, 0, 78, 11
1, 12031, Note_off_c, 0, 29, 64
1, 12031, Note_on_c, 0, 30, 78
1, 12031, Note_off_c, 0, 71, 64
1, 12031, Note_on_c, 0, 72, 21
1, 12031, Note_off_c, 0, 79, 64
1, 12032, Note_on_c, 0, 29, 76
1, 12032, Note_off_c, 0, 30, 64
1, 12032, Note_on_c, 0, 61, 24
1, 12032, Note_on_c, 0, 77, 36
1, 12033, Note_off_c, 0, 29, 64
1, 12033, Note_on_c, 0, 30, 72
1, 12033, Note_off_c, 0, 63, 64
1, 12033, Note_on_c, 0, 64, 27
1, 12033, Note_off_c, 0, 68, 64
1, 12033, Note_off_c, 0, 78, 64
1, 12033, Note_off_c, 0, 82, 64
1, 12034, Note_off_c, 0, 30, 64
1, 12034, Note_on_c, 0, 34, 72
1, 12034, Note_off_c, 0, 72, 64
1, 12035, Note_off_c, 0, 34, 64
1, 12035, Note_off_c, 0, 76, 64
1, 12035, Note_on_c, 0, 79, 34
1, 12035, Note_on_c, 0, 81, 35
1, 12035, Note_on_c, 0, 84, 29
1, 12035, Note_on_c, 0, 88, 25
1, 12035, Note_on_c, 0, 90, 28
1, 12035, Note_on_c, 0, 92, 28
1, 12036, Note_off_c, 0, 61, 64
1, 12036, Note_off_c, 0, 64, 64
1, 12036, Note_on_c, 0, 69, 45
1, 12036, Note_on_c, 0, 72, 41
1, 12036, Note_on_c, 0, 85, 34
1, 12037, Note_on_c, 0, 51, 74
1, 12038, Note_on_c, 0, 48, 85
1, 12038, Note_off_c, 0, 51, 64
1, 12038, Note_off_c, 0, 69, 64
1, 12038, Note_off_c, 0, 72, 64
1, 12038, Note_off_c, 0, 77, 64
1, 12038, Note_off_c, 0, 79, 64
1, 12038, Note_off_c, 0, 81, 64
1, 12038, Note_off_c, 0, 84, 64
1, 12038, Note_off_c, 0, 85, 64
1, 12038, Note_off_c, 0, 88, 64
1, 12038, Note_off_c, 0, 90, 64
1, 12038, Note_off_c, 0, 92, 64
1, 12039, Note_on_c, 0, 45, 95
1, 12039, Note_off_c, 0, 48, 64
1, 12040, Note_on_c, 0, 42, 100
1, 12040, Note_off_c, 0, 45, 64
1, 12041, Note_on_c, 0, 40, 97
1, 12041, Note_off_c, 0, 42, 64
1, 12042, Note_on_c, 0, 38, 98
1, 12042, Note_off_c, 0, 40, 64
1, 12043, Note_on_c, 0, 36, 98
1, 12043, Note_off_c, 0, 38, 64
1, 12044, Note_on_c, 0, 35, 97
1, 12044, Note_off_c, 0, 36, 64
1, 12044, Note_on_c, 0, 69, 18
1, 12045, Note_on_c, 0, 34, 96
1, 12045, Note_off_c, 0, 35, 64
1, 12046, Note_on_c, 0, 33, 96
1, 12046, Note_off_c, 0, 34, 64
1, 12047, Note_on_c, 0, 32, 96
1, 12047, Note_off_c, 0, 33, 64
1, 12048, Note_off_c, 0, 69, 64
1, 12049, Note_on_c, 0, 31, 94
1, 12049, Note_off_c, 0, 32, 64
1, 12051, Note_on_c, 0, 30, 84
1, 12051, Note_off_c, 0, 31, 64
1, 12054, Note_off_c, 0, 30, 64
1, 12054, Note_on_c, 0, 75, 10
1, 12055, Note_on_c, 0, 36, 66
1, 12055, Note_on_c, 0, 79, 24
1, 12056, Note_on_c, 0, 31, 71
1, 12056, Note_off_c, 0, 36, 64
1, 12056, Note_on_c, 0, 70, 33
1, 12056, Note_on_c, 0, 76, 17
1, 12057, Note_on_c, 0, 30, 78
1, 12057, Note_off_c, 0, 31, 64
1, 12057, Note_on_c, 0, 74, 16
1, 12057, Note_off_c, 0, 75, 64
1, 12058, Note_on_c, 0, 29, 80
1, 12058, Note_off_c, 0, 30, 64
1, 12059, Note_on_c, 0, 61, 27
1, 12059, Note_on_c, 0, 66, 48
1, 12059, Note_off_c, 0, 76, 64
1, 12060, Note_off_c, 0, 29, 64
1, 12060, Note_on_c, 0, 30, 75
1, 12060, Note_off_c, 0, 74, 64
1, 12060, Note_off_c, 0, 79, 64
1, 12061, Note_on_c, 0, 83, 13
1, 12062, Note_on_c, 0, 29, 74
1, 12062, Note_off_c, 0, 30, 64
1, 12063, Note_off_c, 0, 61, 64
1, 12064, Note_on_c, 0, 77, 24
1, 12064, Note_on_c, 0, 87, 12
1, 12065, Note_off_c, 0, 29, 64
1, 12065, Note_on_c, 0, 30, 79
1, 12065, Note_on_c, 0, 64, 33
1, 12066, Note_on_c, 0, 80, 14
1, 12066, Note_off_c, 0, 83, 64
1, 12067, Note_on_c, 0, 49, 61
1, 12068, Note_off_c, 0, 87, 64
1, 12069, Note_on_c, 0, 29, 77
1, 12069, Note_off_c, 0, 30, 64
1, 12069, Note_off_c, 0, 49, 64
1, 12069, Note_off_c, 0, 64, 64
1, 12069, Note_off_c, 0, 77, 64
1, 12069, Note_off_c, 0, 80, 64
1, 12069, Note_on_c, 0, 85, 31
1, 12070, Note_off_c, 0, 29, 64
1, 12070, Note_on_c, 0, 30, 74
1, 12071, Note_off_c, 0, 30, 64
1, 12071, Note_on_c, 0, 32, 71
1, 12072, Note_off_c, 0, 32, 64
1, 12072, Note_on_c, 0, 35, 67
1, 12072, Note_on_c, 0, 68, 43
1, 12072, Note_off_c, 0, 70, 64
1, 12072, Note_on_c, 0, 77, 39
1, 12072, Note_on_c, 0, 79, 34
1, 12072, Note_on_c, 0, 82, 34
1, 12072, Note_on_c, 0, 86, 27
1, 12072, Note_on_c, 0, 92, 30
1, 12073, Note_off_c, 0, 35, 64
1, 12073, Note_on_c, 0, 53, 65
1, 12073, Note_on_c, 0, 83, 35
1, 12074, Note_off_c, 0, 68, 64
1, 12074, Note_on_c, 0, 69, 44
1, 12074, Note_on_c, 0, 73, 38
1, 12074, Note_on_c, 0, 76, 33
1, 12074, Note_off_c, 0, 79, 64
1, 12075, Note_on_c, 0, 48, 81
1, 12075, Note_off_c, 0, 53, 64
1, 12075, Note_off_c, 0, 66, 64
1, 12075, Note_off_c, 0, 82, 64
1, 12075, Note_off_c, 0, 85, 64
1, 12075, Note_off_c, 0, 86, 64
1, 12075, Note_off_c, 0, 92, 64
1, 12076, Note_on_c, 0, 45, 91
1, 12076, Note_off_c, 0, 48, 64
1, 12076, Note_off_c, 0, 69, 64
1, 12076, Note_off_c, 0, 73, 64
1, 12076, Note_off_c, 0, 76, 64
1, 12076, Note_off_c, 0, 77, 64
1, 12076, Note_off_c, 0, 83, 64
1, 12077, Note_on_c, 0, 42, 97
1, 12077, Note_off_c, 0, 45, 64
1, 12078, Note_on_c, 0, 41, 99
1, 12078, Note_off_c, 0, 42, 64
1, 12079, Note_on_c, 0, 38, 97
1, 12079, Note_off_c, 0, 41, 64
1, 12079, Note_on_c, 0, 55, 16
1, 12080, Note_on_c, 0, 37, 98
1, 12080, Note_off_c, 0, 38, 64
1, 12081, Note_on_c, 0, 36, 97
1, 12081, Note_off_c, 0, 37, 64
1, 12082, Note_on_c, 0, 34, 96
1, 12082, Note_off_c, 0, 36, 64
1, 12082, Note_off_c, 0, 55, 64
1, 12083, Note_on_c, 0, 33, 95
1, 12083, Note_off_c, 0, 34, 64
1, 12085, Note_on_c, 0, 32, 96
1, 12085, Note_off_c, 0, 33, 64
1, 12086, Note_on_c, 0, 31, 95
1, 12086, Note_off_c, 0, 32, 64
1, 12086, Note_on_c, 0, 68, 15
1, 12089, Note_on_c, 0, 30, 79
1, 12089, Note_off_c, 0, 31, 64
1, 12089, Note_off_c, 0, 68, 64
1, 12090, Note_off_c, 0, 30, 64
1, 12090, Note_on_c, 0, 67, 22
1, 12090, Note_on_c, 0, 69, 19
1, 12091, Note_on_c, 0, 80, 14
1, 12092, Note_on_c, 0, 74, 17
1, 12093, Note_on_c, 0, 36, 70
1, 12093, Note_on_c, 0, 61, 34
1, 12093, Note_on_c, 0, 66, 19
1, 12093, Note_off_c, 0, 67, 64
1, 12093, Note_on_c, 0, 78, 20
1, 12094, Note_on_c, 0, 31, 77
1, 12094, Note_off_c, 0, 36, 64
1, 12094, Note_on_c, 0, 49, 60
1, 12094, Note_on_c, 0, 63, 25
1, 12094, Note_on_c, 0, 71, 16
1, 12095, Note_on_c, 0, 29, 80
1, 12095, Note_off_c, 0, 31, 64
1, 12096, Note_off_c, 0, 69, 64
1, 12097, Note_off_c, 0, 29, 64
1, 12097, Note_on_c, 0, 30, 76
1, 12097, Note_off_c, 0, 49, 64
1, 12097, Note_off_c, 0, 61, 64
1, 12097, Note_off_c, 0, 66, 64
1, 12097, Note_off_c, 0, 78, 64
1, 12097, Note_off_c, 0, 80, 64
1, 12098, Note_off_c, 0, 71, 64
1, 12098, Note_off_c, 0, 74, 64
1, 12098, Note_on_c, 0, 81, 11
1, 12099, Note_on_c, 0, 29, 74
1, 12099, Note_off_c, 0, 30, 64
1, 12099, Note_off_c, 0, 63, 64
1, 12099, Note_on_c, 0, 69, 21
1, 12101, Note_off_c, 0, 81, 64
1, 12102, Note_off_c, 0, 29, 64
1, 12102, Note_on_c, 0, 30, 79
1, 12102, Note_on_c, 0, 87, 13
1, 12103, Note_on_c, 0, 63, 33
1, 12103, Note_on_c, 0, 66, 26
1, 12103, Note_off_c, 0, 69, 64
1, 12105, Note_on_c, 0, 29, 80
1, 12105, Note_off_c, 0, 30, 64
1, 12105, Note_off_c, 0, 87, 64
1, 12106, Note_off_c, 0, 29, 64
1, 12106, Note_on_c, 0, 30, 78
1, 12106, Note_off_c, 0, 66, 64
1, 12107, Note_on_c, 0, 69, 22
1, 12107, Note_on_c, 0, 73, 37
1, 12108, Note_off_c, 0, 63, 64
1, 12109, Note_off_c, 0, 30, 64
1, 12109, Note_on_c, 0, 34, 71
1, 12109, Note_on_c, 0, 63, 32
1, 12110, Note_on_c, 0, 66, 49
1, 12110, Note_off_c, 0, 69, 64
1, 12110, Note_on_c, 0, 81, 31
1, 12110, Note_on_c, 0, 84, 37
1, 12110, Note_on_c, 0, 88, 28
1, 12111, Note_off_c, 0, 34, 64
1, 12111, Note_off_c, 0, 63, 64
1, 12111, Note_on_c, 0, 69, 45
1, 12111, Note_off_c, 0, 73, 64
1, 12111, Note_on_c, 0, 82, 29
1, 12112, Note_on_c, 0, 51, 76
1, 12112, Note_on_c, 0, 62, 46
1, 12112, Note_off_c, 0, 81, 64
1, 12112, Note_off_c, 0, 84, 64
1, 12113, Note_on_c, 0, 48, 86
1, 12113, Note_off_c, 0, 51, 64
1, 12113, Note_off_c, 0, 66, 64
1, 12113, Note_off_c, 0, 69, 64
1, 12113, Note_on_c, 0, 73, 17
1, 12113, Note_off_c, 0, 88, 64
1, 12114, Note_on_c, 0, 44, 95
1, 12114, Note_off_c, 0, 48, 64
1, 12114, Note_off_c, 0, 62, 64
1, 12115, Note_on_c, 0, 41, 100
1, 12115, Note_off_c, 0, 44, 64
1, 12115, Note_on_c, 0, 69, 24
1, 12115, Note_off_c, 0, 82, 64
1, 12116, Note_on_c, 0, 40, 97
1, 12116, Note_off_c, 0, 41, 64
1, 12116, Note_off_c, 0, 73, 64
1, 12117, Note_on_c, 0, 38, 98
1, 12117, Note_off_c, 0, 40, 64
1, 12118, Note_on_c, 0, 36, 98
1, 12118, Note_off_c, 0, 38, 64
1, 12119, Note_on_c, 0, 35, 97
1, 12119, Note_off_c, 0, 36, 64
1, 12119, Note_off_c, 0, 69, 64
1, 12119, Note_on_c, 0, 74, 14
1, 12120, Note_on_c, 0, 34, 96
1, 12120, Note_off_c, 0, 35, 64
1, 12121, Note_on_c, 0, 33, 96
1, 12121, Note_off_c, 0, 34, 64
1, 12122, Note_on_c, 0, 32, 97
1, 12122, Note_off_c, 0, 33, 64
1, 12122, Note_on_c, 0, 49, 26
1, 12123, Note_on_c, 0, 66, 28
1, 12124, Note_on_c, 0, 31, 94
1, 12124, Note_off_c, 0, 32, 64
1, 12124, Note_on_c, 0, 69, 15
1, 12125, Note_off_c, 0, 49, 64
1, 12125, Note_off_c, 0, 74, 64
1, 12126, Note_on_c, 0, 30, 83
1, 12126, Note_off_c, 0, 31, 64
1, 12126, Note_on_c, 0, 76, 14
1, 12128, Note_off_c, 0, 69, 64
1, 12129, Note_off_c, 0, 30, 64
1, 12129, Note_on_c, 0, 71, 21
1, 12129, Note_on_c, 0, 73, 19
1, 12129, Note_on_c, 0, 77, 13
1, 12129, Note_on_c, 0, 80, 17
1, 12129, Note_on_c, 0, 86, 20
1, 12130, Note_on_c, 0, 41, 67
1, 12130, Note_off_c, 0, 66, 64
1, 12130, Note_off_c, 0, 76, 64
1, 12131, Note_on_c, 0, 31, 72
1, 12131, Note_off_c, 0, 41, 64
1, 12131, Note_on_c, 0, 64, 34
1, 12131, Note_on_c, 0, 68, 25
1, 12131, Note_on_c, 0, 74, 31
1, 12132, Note_on_c, 0, 30, 78
1, 12132, Note_off_c, 0, 31, 64
1, 12132, Note_off_c, 0, 73, 64
1, 12132, Note_off_c, 0, 80, 64
1, 12133, Note_on_c, 0, 29, 79
1, 12133, Note_off_c, 0, 30, 64
1, 12133, Note_off_c, 0, 77, 64
1, 12133, Note_off_c, 0, 86, 64
1, 12134, Note_off_c, 0, 29, 64
1, 12134, Note_on_c, 0, 30, 76
1, 12134, Note_off_c, 0, 64, 64
1, 12134, Note_off_c, 0, 68, 64
1, 12134, Note_off_c, 0, 71, 64
1, 12134, Note_off_c, 0, 74, 64
1, 12134, Note_on_c, 0, 78, 13
1, 12136, Note_on_c, 0, 29, 74
1, 12136, Note_off_c, 0, 30, 64
1, 12136, Note_on_c, 0, 80, 19
1, 12137, Note_off_c, 0, 78, 64
1, 12138, Note_on_c, 0, 61, 28
1, 12138, Note_on_c, 0, 76, 11
1, 12139, Note_on_c, 0, 66, 35
1, 12139, Note_on_c, 0, 87, 13
1, 12140, Note_off_c, 0, 29, 64
1, 12140, Note_on_c, 0, 30, 73
1, 12140, Note_on_c, 0, 64, 34
1, 12140, Note_on_c, 0, 68, 30
1, 12141, Note_off_c, 0, 30, 64
1, 12141, Note_on_c, 0, 31, 77
1, 12141, Note_on_c, 0, 49, 61
1, 12141, Note_off_c, 0, 61, 64
1, 12141, Note_on_c, 0, 70, 36
1, 12142, Note_on_c, 0, 30, 79
1, 12142, Note_off_c, 0, 31, 64
1, 12142, Note_off_c, 0, 68, 64
1, 12142, Note_off_c, 0, 76, 64
1, 12142, Note_off_c, 0, 87, 64
1, 12143, Note_on_c, 0, 29, 79
1, 12143, Note_off_c, 0, 30, 64
1, 12143, Note_off_c, 0, 64, 64
1, 12143, Note_off_c, 0, 70, 64
1, 12143, Note_on_c, 0, 75, 22
1, 12144, Note_off_c, 0, 49, 64
1, 12144, Note_on_c, 0, 70, 43
1, 12145, Note_off_c, 0, 29, 64
1, 12145, Note_on_c, 0, 30, 74
1, 12145, Note_on_c, 0, 64, 22
1, 12145, Note_off_c, 0, 66, 64
1, 12145, Note_on_c, 0, 72, 39
1, 12146, Note_off_c, 0, 30, 64
1, 12146, Note_on_c, 0, 32, 72
1, 12146, Note_on_c, 0, 83, 34
1, 12147, Note_off_c, 0, 32, 64
1, 12147, Note_on_c, 0, 35, 67
1, 12147, Note_on_c, 0, 73, 39
1, 12147, Note_on_c, 0, 78, 38
1, 12147, Note_on_c, 0, 86, 29
1, 12147, Note_on_c, 0, 88, 31
1, 12147, Note_on_c, 0, 89, 29
1, 12147, Note_on_c, 0, 93, 25
1, 12147, Note_on_c, 0, 94, 23
1, 12147, Note_on_c, 0, 96, 22
1, 12148, Note_off_c, 0, 35, 64
1, 12148, Note_off_c, 0, 64, 64
1, 12148, Note_off_c, 0, 75, 64
1, 12148, Note_on_c, 0, 76, 34
1, 12148, Note_off_c, 0, 80, 64
1, 12148, Note_on_c, 0, 81, 35
1, 12148, Note_on_c, 0, 92, 30
1, 12149, Note_on_c, 0, 54, 67
1, 12149, Note_on_c, 0, 71, 37
1, 12149, Note_off_c, 0, 72, 64
1, 12149, Note_off_c, 0, 73, 64
1, 12150, Note_on_c, 0, 48, 82
1, 12150, Note_off_c, 0, 54, 64
1, 12150, Note_on_c, 0, 63, 31
1, 12150, Note_on_c, 0, 69, 23
1, 12150, Note_off_c, 0, 70, 64
1, 12150, Note_off_c, 0, 76, 64
1, 12150, Note_off_c, 0, 81, 64
1, 12150, Note_off_c, 0, 83, 64
1, 12150, Note_off_c, 0, 86, 64
1, 12150, Note_off_c, 0, 88, 64
1, 12150, Note_off_c, 0, 89, 64
1, 12150, Note_off_c, 0, 92, 64
1, 12150, Note_off_c, 0, 93, 64
1, 12150, Note_off_c, 0, 94, 64
1, 12150, Note_off_c, 0, 96, 64
1, 12151, Note_on_c, 0, 45, 93
1, 12151, Note_off_c, 0, 48, 64
1, 12151, Note_off_c, 0, 78, 64
1, 12152, Note_on_c, 0, 42, 98
1, 12152, Note_off_c, 0, 45, 64
1, 12152, Note_off_c, 0, 63, 64
1, 12152, Note_off_c, 0, 71, 64
1, 12153, Note_on_c, 0, 41, 99
1, 12153, Note_off_c, 0, 42, 64
1, 12154, Note_on_c, 0, 38, 98
1, 12154, Note_off_c, 0, 41, 64
1, 12155, Note_on_c, 0, 37, 98
1, 12155, Note_off_c, 0, 38, 64
1, 12156, Note_on_c, 0, 35, 97
1, 12156, Note_off_c, 0, 37, 64
1, 12157, Note_on_c, 0, 34, 96
1, 12157, Note_off_c, 0, 35, 64
1, 12158, Note_on_c, 0, 33, 95
1, 12158, Note_off_c, 0, 34, 64
1, 12158, Note_off_c, 0, 69, 64
1, 12158, Note_on_c, 0, 75, 28
1, 12158, Note_on_c, 0, 77, 18
1, 12159, Note_on_c, 0, 69, 28
1, 12160, Note_on_c, 0, 32, 96
1, 12160, Note_off_c, 0, 33, 64
1, 12161, Note_on_c, 0, 31, 95
1, 12161, Note_off_c, 0, 32, 64
1, 12161, Note_off_c, 0, 77, 64
1, 12163, Note_off_c, 0, 69, 64
1, 12163, Note_on_c, 0, 78, 13
1, 12164, Note_on_c, 0, 30, 77
1, 12164, Note_off_c, 0, 31, 64
1, 12164, Note_on_c, 0, 67, 26
1, 12165, Note_off_c, 0, 30, 64
1, 12166, Note_on_c, 0, 70, 22
1, 12166, Note_off_c, 0, 78, 64
1, 12166, Note_on_c, 0, 88, 21
1, 12168, Note_on_c, 0, 36, 68
1, 12168, Note_on_c, 0, 61, 35
1, 12168, Note_off_c, 0, 67, 64
1, 12168, Note_on_c, 0, 78, 14
1, 12168, Note_on_c, 0, 85, 10
1, 12169, Note_on_c, 0, 30, 76
1, 12169, Note_off_c, 0, 36, 64
1, 12169, Note_on_c, 0, 54, 48
1, 12169, Note_off_c, 0, 70, 64
1, 12169, Note_off_c, 0, 75, 64
1, 12169, Note_off_c, 0, 88, 64
1, 12170, Note_on_c, 0, 29, 79
1, 12170, Note_off_c, 0, 30, 64
1, 12170, Note_on_c, 0, 69, 33
1, 12171, Note_off_c, 0, 54, 64
1, 12171, Note_off_c, 0, 61, 64
1, 12171, Note_on_c, 0, 66, 33
1, 12171, Note_off_c, 0, 78, 64
1, 12172, Note_on_c, 0, 74, 24
1, 12173, Note_off_c, 0, 29, 64
1, 12173, Note_on_c, 0, 30, 73
1, 12173, Note_on_c, 0, 68, 21
1, 12173, Note_off_c, 0, 69, 64
1, 12173, Note_off_c, 0, 85, 64
1, 12174, Note_on_c, 0, 29, 73
1, 12174, Note_off_c, 0, 30, 64
1, 12175, Note_on_c, 0, 61, 39
1, 12175, Note_off_c, 0, 66, 64
1, 12175, Note_on_c, 0, 78, 15
1, 12175, Note_on_c, 0, 85, 18
1, 12176, Note_on_c, 0, 66, 34
1, 12176, Note_off_c, 0, 68, 64
1, 12176, Note_on_c, 0, 69, 29
1, 12176, Note_on_c, 0, 77, 29
1, 12176, Note_on_c, 0, 84, 12
1, 12176, Note_on_c, 0, 88, 19
1, 12177, Note_off_c, 0, 29, 64
1, 12177, Note_on_c, 0, 30, 78
1, 12178, Note_off_c, 0, 78, 64
1, 12179, Note_on_c, 0, 64, 29
1, 12179, Note_on_c, 0, 80, 17
1, 12179, Note_off_c, 0, 88, 64
1, 12180, Note_on_c, 0, 29, 79
1, 12180, Note_off_c, 0, 30, 64
1, 12180, Note_on_c, 0, 49, 59
1, 12180, Note_off_c, 0, 66, 64
1, 12180, Note_off_c, 0, 69, 64
1, 12180, Note_on_c, 0, 70, 41
1, 12180, Note_on_c, 0, 78, 35
1, 12180, Note_on_c, 0, 83, 13
1, 12180, Note_off_c, 0, 84, 64
1, 12181, Note_off_c, 0, 29, 64
1, 12181, Note_on_c, 0, 30, 77
1, 12181, Note_off_c, 0, 64, 64
1, 12181, Note_on_c, 0, 81, 33
1, 12181, Note_off_c, 0, 85, 64
1, 12182, Note_off_c, 0, 77, 64
1, 12182, Note_off_c, 0, 80, 64
1, 12183, Note_off_c, 0, 49, 64
1, 12183, Note_on_c, 0, 76, 33
1, 12183, Note_off_c, 0, 83, 64
1, 12183, Note_on_c, 0, 85, 27
1, 12184, Note_off_c, 0, 30, 64
1, 12184, Note_on_c, 0, 34, 71
1, 12184, Note_on_c, 0, 66, 52
1, 12184, Note_off_c, 0, 74, 64
1, 12184, Note_on_c, 0, 75, 39
1, 12184, Note_on_c, 0, 77, 34
1, 12185, Note_off_c, 0, 34, 64
1, 12185, Note_off_c, 0, 61, 64
1, 12185, Note_on_c, 0, 73, 39
1, 12185, Note_on_c, 0, 83, 33
1, 12185, Note_on_c, 0, 86, 30
1, 12186, Note_off_c, 0, 76, 64
1, 12186, Note_off_c, 0, 78, 64
1, 12186, Note_on_c, 0, 79, 37
1, 12186, Note_off_c, 0, 85, 64
1, 12187, Note_on_c, 0, 51, 76
1, 12187, Note_off_c, 0, 77, 64
1, 12188, Note_on_c, 0, 46, 88
1, 12188, Note_off_c, 0, 51, 64
1, 12188, Note_off_c, 0, 66, 64
1, 12188, Note_off_c, 0, 73, 64
1, 12188, Note_on_c, 0, 78, 14
1, 12188, Note_off_c, 0, 79, 64
1, 12188, Note_off_c, 0, 81, 64
1, 12188, Note_off_c, 0, 83, 64
1, 12188, Note_off_c, 0, 86, 64
1, 12189, Note_on_c, 0, 44, 95
1, 12189, Note_off_c, 0, 46, 64
1, 12190, Note_on_c, 0, 41, 100
1, 12190, Note_off_c, 0, 44, 64
1, 12190, Note_on_c, 0, 85, 18
1, 12191, Note_on_c, 0, 39, 97
1, 12191, Note_off_c, 0, 41, 64
1, 12191, Note_on_c, 0, 74, 21
1, 12191, Note_off_c, 0, 75, 64
1, 12191, Note_on_c, 0, 77, 13
1, 12192, Note_on_c, 0, 37, 99
1, 12192, Note_off_c, 0, 39, 64
1, 12192, Note_on_c, 0, 66, 26
1, 12192, Note_off_c, 0, 70, 64
1, 12193, Note_on_c, 0, 36, 98
1, 12193, Note_off_c, 0, 37, 64
1, 12193, Note_off_c, 0, 78, 64
1, 12194, Note_on_c, 0, 35, 96
1, 12194, Note_off_c, 0, 36, 64
1, 12194, Note_on_c, 0, 88, 17
1, 12195, Note_on_c, 0, 34, 96
1, 12195, Note_off_c, 0, 35, 64
1, 12195, Note_off_c, 0, 74, 64
1, 12195, Note_on_c, 0, 75, 18
1, 12195, Note_on_c, 0, 80, 10
1, 12196, Note_on_c, 0, 33, 95
1, 12196, Note_off_c, 0, 34, 64
1, 12196, Note_on_c, 0, 64, 18
1, 12196, Note_off_c, 0, 66, 64
1, 12196, Note_off_c, 0, 77, 64
1, 12197, Note_on_c, 0, 32, 96
1, 12197, Note_off_c, 0, 33, 64
1, 12197, Note_off_c, 0, 88, 64
1, 12198, Note_off_c, 0, 75, 64
1, 12198, Note_on_c, 0, 76, 22
1, 12199, Note_on_c, 0, 31, 94
1, 12199, Note_off_c, 0, 32, 64
1, 12199, Note_on_c, 0, 69, 29
1, 12199, Note_on_c, 0, 89, 14
1, 12200, Note_off_c, 0, 64, 64
1, 12200, Note_on_c, 0, 77, 15
1, 12200, Note_off_c, 0, 80, 64
1, 12201, Note_on_c, 0, 30, 82
1, 12201, Note_off_c, 0, 31, 64
1, 12201, Note_on_c, 0, 74, 26
1, 12201, Note_off_c, 0, 76, 64
1, 12202, Note_on_c, 0, 75, 24
1, 12203, Note_off_c, 0, 30, 64
1, 12203, Note_off_c, 0, 69, 64
1, 12203, Note_off_c, 0, 89, 64
1, 12204, Note_on_c, 0, 66, 36
1, 12204, Note_on_c, 0, 69, 32
1, 12204, Note_off_c, 0, 74, 64
1, 12204, Note_on_c, 0, 83, 14
1, 12205, Note_on_c, 0, 37, 70
1, 12205, Note_on_c, 0, 71, 31
1, 12205, Note_on_c, 0, 80, 24
1, 12205, Note_on_c, 0, 82, 20
1, 12205, Note_on_c, 0, 89, 17
1, 12206, Note_on_c, 0, 31, 74
1, 12206, Note_off_c, 0, 37, 64
1, 12206, Note_on_c, 0, 41, 65
1, 12206, Note_on_c, 0, 74, 14
1, 12206, Note_off_c, 0, 77, 64
1, 12206, Note_off_c, 0, 85, 64
1, 12207, Note_on_c, 0, 30, 77
1, 12207, Note_off_c, 0, 31, 64
1, 12207, Note_off_c, 0, 41, 64
1, 12207, Note_off_c, 0, 75, 64
1, 12207, Note_on_c, 0, 88, 19
1, 12208, Note_on_c, 0, 29, 78
1, 12208, Note_off_c, 0, 30, 64
1, 12208, Note_off_c, 0, 69, 64
1, 12208, Note_on_c, 0, 77, 17
1, 12208, Note_off_c, 0, 83, 64
1, 12208, Note_off_c, 0, 89, 64
1, 12209, Note_off_c, 0, 29, 64
1, 12209, Note_on_c, 0, 30, 76
1, 12209, Note_off_c, 0, 74, 64
1, 12209, Note_off_c, 0, 82, 64
1, 12210, Note_on_c, 0, 49, 51
1, 12210, Note_on_c, 0, 85, 29
1, 12211, Note_on_c, 0, 29, 75
1, 12211, Note_off_c, 0, 30, 64
1, 12211, Note_off_c, 0, 66, 64
1, 12211, Note_off_c, 0, 71, 64
1, 12211, Note_off_c, 0, 80, 64
1, 12212, Note_off_c, 0, 49, 64
1, 12212, Note_on_c, 0, 69, 35
1, 12213, Note_on_c, 0, 74, 29
1, 12214, Note_on_c, 0, 42, 65
1, 12214, Note_off_c, 0, 77, 64
1, 12214, Note_on_c, 0, 89, 18
1, 12214, Note_on_c, 0, 91, 24
1, 12215, Note_off_c, 0, 29, 64
1, 12215, Note_on_c, 0, 30, 74
1, 12215, Note_off_c, 0, 42, 64
1, 12215, Note_on_c, 0, 48, 62
1, 12215, Note_on_c, 0, 61, 34
1, 12215, Note_on_c, 0, 77, 31
1, 12216, Note_off_c, 0, 30, 64
1, 12216, Note_on_c, 0, 31, 78
1, 12216, Note_off_c, 0, 74, 64
1, 12216, Note_off_c, 0, 88, 64
1, 12217, Note_on_c, 0, 30, 79
1, 12217, Note_off_c, 0, 31, 64
1, 12217, Note_off_c, 0, 48, 64
1, 12217, Note_on_c, 0, 49, 60
1, 12217, Note_off_c, 0, 91, 64
1, 12218, Note_on_c, 0, 60, 32
1, 12218, Note_off_c, 0, 61, 64
1, 12218, Note_off_c, 0, 77, 64
1, 12219, Note_off_c, 0, 49, 64
1, 12219, Note_on_c, 0, 64, 24
1, 12219, Note_on_c, 0, 75, 28
1, 12220, Note_on_c, 0, 68, 32
1, 12220, Note_off_c, 0, 69, 64
1, 12220, Note_off_c, 0, 89, 64
1, 12221, Note_off_c, 0, 30, 64
1, 12221, Note_on_c, 0, 33, 71
1, 12221, Note_off_c, 0, 60, 64
1, 12222, Note_off_c, 0, 33, 64
1, 12222, Note_on_c, 0, 34, 67
1, 12222, Note_off_c, 0, 64, 64
1, 12222, Note_on_c, 0, 65, 47
1, 12222, Note_off_c, 0, 68, 64
1, 12222, Note_on_c, 0, 69, 49
1, 12222, Note_on_c, 0, 71, 50
1, 12222, Note_on_c, 0, 84, 32
1, 12222, Note_on_c, 0, 88, 40
1, 12222, Note_on_c, 0, 90, 25
1, 12222, Note_on_c, 0, 91, 26
1, 12222, Note_on_c, 0, 92, 27
1, 12222, Note_on_c, 0, 94, 26
1, 12222, Note_on_c, 0, 98, 24
1, 12223, Note_off_c, 0, 34, 64
1, 12223, Note_on_c, 0, 74, 43
1, 12223, Note_off_c, 0, 75, 64
1, 12223, Note_on_c, 0, 79, 36
1, 12223, Note_off_c, 0, 85, 64
1, 12224, Note_on_c, 0, 53, 69
1, 12224, Note_off_c, 0, 71, 64
1, 12224, Note_on_c, 0, 80, 19
1, 12224, Note_on_c, 0, 82, 17
1, 12225, Note_on_c, 0, 48, 84
1, 12225, Note_off_c, 0, 53, 64
1, 12225, Note_off_c, 0, 69, 64
1, 12225, Note_off_c, 0, 79, 64
1, 12225, Note_off_c, 0, 84, 64
1, 12225, Note_off_c, 0, 90, 64
1, 12225, Note_off_c, 0, 91, 64
1, 12225, Note_off_c, 0, 92, 64
1, 12225, Note_off_c, 0, 94, 64
1, 12225, Note_off_c, 0, 98, 64
1, 12226, Note_on_c, 0, 45, 93
1, 12226, Note_off_c, 0, 48, 64
1, 12226, Note_off_c, 0, 65, 64
1, 12226, Note_on_c, 0, 67, 19
1, 12226, Note_on_c, 0, 77, 26
1, 12226, Note_on_c, 0, 79, 20
1, 12226, Note_on_c, 0, 85, 24
1, 12226, Note_off_c, 0, 88, 64
1, 12227, Note_on_c, 0, 42, 98
1, 12227, Note_off_c, 0, 45, 64
1, 12227, Note_off_c, 0, 74, 64
1, 12227, Note_on_c, 0, 88, 23
1, 12228, Note_on_c, 0, 40, 98
1, 12228, Note_off_c, 0, 42, 64
1, 12228, Note_on_c, 0, 76, 33
1, 12229, Note_on_c, 0, 38, 98
1, 12229, Note_off_c, 0, 40, 64
1, 12229, Note_on_c, 0, 66, 16
1, 12229, Note_off_c, 0, 67, 64
1, 12229, Note_off_c, 0, 77, 64
1, 12229, Note_off_c, 0, 79, 64
1, 12229, Note_off_c, 0, 80, 64
1, 12229, Note_on_c, 0, 81, 21
1, 12229, Note_on_c, 0, 83, 14
1, 12230, Note_on_c, 0, 37, 98
1, 12230, Note_off_c, 0, 38, 64
1, 12230, Note_off_c, 0, 76, 64
1, 12230, Note_off_c, 0, 82, 64
1, 12230, Note_on_c, 0, 89, 19
1, 12231, Note_on_c, 0, 35, 96
1, 12231, Note_off_c, 0, 37, 64
1, 12232, Note_on_c, 0, 34, 94
1, 12232, Note_off_c, 0, 35, 64
1, 12232, Note_off_c, 0, 66, 64
1, 12232, Note_on_c, 0, 78, 16
1, 12232, Note_off_c, 0, 83, 64
1, 12233, Note_on_c, 0, 33, 95
1, 12233, Note_off_c, 0, 34, 64
1, 12233, Note_on_c, 0, 48, 30
1, 12233, Note_on_c, 0, 64, 34
1, 12233, Note_on_c, 0, 67, 21
1, 12233, Note_on_c, 0, 75, 29
1, 12233, Note_on_c, 0, 80, 27
1, 12233, Note_on_c, 0, 83, 19
1, 12234, Note_on_c, 0, 32, 95
1, 12234, Note_off_c, 0, 33, 64
1, 12235, Note_off_c, 0, 48, 64
1, 12235, Note_off_c, 0, 78, 64
1, 12236, Note_on_c, 0, 31, 94
1, 12236, Note_off_c, 0, 32, 64
1, 12236, Note_off_c, 0, 64, 64
1, 12236, Note_on_c, 0, 66, 26
1, 12236, Note_off_c, 0, 67, 64
1, 12236, Note_off_c, 0, 81, 64
1, 12236, Note_off_c, 0, 89, 64
1, 12237, Note_on_c, 0, 73, 28
1, 12237, Note_off_c, 0, 75, 64
1, 12237, Note_on_c, 0, 81, 30
1, 12237, Note_off_c, 0, 85, 64
1, 12238, Note_on_c, 0, 57, 14
1, 12238, Note_on_c, 0, 78, 29
1, 12238, Note_off_c, 0, 83, 64
1, 12238, Note_on_c, 0, 93, 39
1, 12239, Note_on_c, 0, 30, 75
1, 12239, Note_off_c, 0, 31, 64
1, 12239, Note_off_c, 0, 66, 64
1, 12239, Note_on_c, 0, 75, 28
1, 12239, Note_on_c, 0, 85, 52
1, 12239, Note_on_c, 0, 89, 31
1, 12240, Note_off_c, 0, 30, 64
1, 12240, Note_on_c, 0, 64, 30
1, 12240, Note_off_c, 0, 80, 64
1, 12241, Note_on_c, 0, 77, 24
1, 12241, Note_off_c, 0, 78, 64
1, 12241, Note_on_c, 0, 79, 30
1, 12241, Note_on_c, 0, 82, 16
1, 12241, Note_off_c, 0, 88, 64
1, 12242, Note_off_c, 0, 57, 64
1, 12242, Note_on_c, 0, 69, 37
1, 12242, Note_off_c, 0, 73, 64
1, 12243, Note_on_c, 0, 31, 69
1, 12243, Note_on_c, 0, 73, 22
1, 12243, Note_on_c, 0, 84, 19
1, 12243, Note_on_c, 0, 92, 16
1, 12244, Note_on_c, 0, 30, 77
1, 12244, Note_off_c, 0, 31, 64
1, 12244, Note_on_c, 0, 63, 34
1, 12244, Note_off_c, 0, 64, 64
1, 12244, Note_off_c, 0, 75, 64
1, 12244, Note_on_c, 0, 76, 23
1, 12244, Note_off_c, 0, 77, 64
1, 12244, Note_off_c, 0, 82, 64
1, 12244, Note_on_c, 0, 88, 50
1, 12244, Note_on_c, 0, 90, 27
1, 12245, Note_on_c, 0, 29, 78
1, 12245, Note_off_c, 0, 30, 64
1, 12245, Note_on_c, 0, 78, 17
1, 12245, Note_off_c, 0, 79, 64
1, 12245, Note_off_c, 0, 89, 64
1, 12246, Note_on_c, 0, 49, 56
1, 12246, Note_off_c, 0, 63, 64
1, 12246, Note_on_c, 0, 66, 18
1, 12246, Note_off_c, 0, 81, 64
1, 12246, Note_off_c, 0, 84, 64
1, 12246, Note_off_c, 0, 92, 64
1, 12247, Note_off_c, 0, 29, 64
1, 12247, Note_on_c, 0, 30, 74
1, 12247, Note_off_c, 0, 69, 64
1, 12247, Note_on_c, 0, 70, 32
1, 12247, Note_on_c, 0, 72, 21
1, 12247, Note_off_c, 0, 76, 64
1, 12247, Note_on_c, 0, 79, 18
1, 12247, Note_on_c, 0, 81, 26
1, 12248, Note_off_c, 0, 73, 64
1, 12248, Note_off_c, 0, 78, 64
1, 12248, Note_off_c, 0, 90, 64
1, 12248, Note_on_c, 0, 92, 32
1, 12249, Note_on_c, 0, 29, 73
1, 12249, Note_off_c, 0, 30, 64
1, 12249, Note_off_c, 0, 49, 64
1, 12249, Note_on_c, 0, 69, 39
1, 12249, Note_off_c, 0, 70, 64
1, 12249, Note_on_c, 0, 76, 18
1, 12249, Note_on_c, 0, 80, 28
1, 12249, Note_on_c, 0, 87, 12
1, 12249, Note_on_c, 0, 91, 23
1, 12250, Note_on_c, 0, 73, 34
1, 12250, Note_on_c, 0, 77, 27
1, 12250, Note_off_c, 0, 79, 64
1, 12250, Note_off_c, 0, 81, 64
1, 12250, Note_on_c, 0, 89, 42
1, 12251, Note_off_c, 0, 66, 64
1, 12251, Note_off_c, 0, 72, 64
1, 12251, Note_on_c, 0, 90, 19
1, 12252, Note_off_c, 0, 29, 64
1, 12252, Note_on_c, 0, 30, 80
1, 12252, Note_on_c, 0, 64, 41
1, 12252, Note_on_c, 0, 66, 35
1, 12253, Note_on_c, 0, 75, 34
1, 12253, Note_off_c, 0, 76, 64
1, 12253, Note_off_c, 0, 87, 64
1, 12254, Note_off_c, 0, 80, 64
1, 12254, Note_on_c, 0, 95, 31
1, 12255, Note_on_c, 0, 29, 80
1, 12255, Note_off_c, 0, 30, 64
1, 12255, Note_on_c, 0, 49, 58
1, 12255, Note_off_c, 0, 66, 64
1, 12255, Note_off_c, 0, 69, 64
1, 12255, Note_on_c, 0, 71, 32
1, 12255, Note_on_c, 0, 80, 33
1, 12255, Note_off_c, 0, 91, 64
1, 12256, Note_on_c, 0, 63, 29
1, 12256, Note_off_c, 0, 64, 64
1, 12256, Note_on_c, 0, 67, 28
1, 12256, Note_on_c, 0, 91, 28
1, 12256, Note_on_c, 0, 98, 39
1, 12257, Note_off_c, 0, 29, 64
1, 12257, Note_on_c, 0, 30, 75
1, 12257, Note_off_c, 0, 73, 64
1, 12258, Note_off_c, 0, 49, 64
1, 12258, Note_off_c, 0, 63, 64
1, 12258, Note_on_c, 0, 69, 39
1, 12258, Note_off_c, 0, 71, 64
1, 12258, Note_on_c, 0, 76, 39
1, 12258, Note_off_c, 0, 77, 64
1, 12258, Note_off_c, 0, 90, 64
1, 12258, Note_on_c, 0, 94, 36
1, 12259, Note_off_c, 0, 30, 64
1, 12259, Note_on_c, 0, 34, 71
1, 12259, Note_on_c, 0, 78, 54
1, 12259, Note_on_c, 0, 81, 46
1, 12259, Note_on_c, 0, 82, 32
1, 12259, Note_on_c, 0, 87, 37
1, 12260, Note_off_c, 0, 34, 64
1, 12260, Note_off_c, 0, 67, 64
1, 12260, Note_on_c, 0, 68, 46
1, 12260, Note_on_c, 0, 74, 45
1, 12260, Note_off_c, 0, 75, 64
1, 12261, Note_on_c, 0, 64, 49
1, 12261, Note_off_c, 0, 69, 64
1, 12261, Note_on_c, 0, 71, 41
1, 12261, Note_off_c, 0, 80, 64
1, 12261, Note_off_c, 0, 82, 64
1, 12261, Note_on_c, 0, 83, 51
1, 12261, Note_off_c, 0, 87, 64
1, 12262, Note_on_c, 0, 51, 78
1, 12262, Note_off_c, 0, 68, 64
1, 12262, Note_on_c, 0, 82, 43
1, 12262, Note_off_c, 0, 85, 64
1, 12262, Note_on_c, 0, 87, 26
1, 12263, Note_on_c, 0, 46, 89
1, 12263, Note_off_c, 0, 51, 64
1, 12263, Note_off_c, 0, 64, 64
1, 12263, Note_off_c, 0, 76, 64
1, 12263, Note_on_c, 0, 77, 38
1, 12263, Note_off_c, 0, 78, 64
1, 12263, Note_on_c, 0, 79, 54
1, 12263, Note_on_c, 0, 84, 30
1, 12263, Note_off_c, 0, 92, 64
1, 12263, Note_off_c, 0, 93, 64
1, 12263, Note_off_c, 0, 98, 64
1, 12264, Note_on_c, 0, 43, 95
1, 12264, Note_off_c, 0, 46, 64
1, 12264, Note_off_c, 0, 71, 64
1, 12264, Note_on_c, 0, 73, 41
1, 12264, Note_off_c, 0, 74, 64
1, 12264, Note_on_c, 0, 76, 35
1, 12264, Note_on_c, 0, 78, 35
1, 12264, Note_on_c, 0, 80, 44
1, 12264, Note_off_c, 0, 82, 64
1, 12264, Note_off_c, 0, 89, 64
1, 12264, Note_off_c, 0, 95, 64
1, 12265, Note_on_c, 0, 41, 99
1, 12265, Note_off_c, 0, 43, 64
1, 12265, Note_off_c, 0, 77, 64
1, 12266, Note_on_c, 0, 39, 96
1, 12266, Note_off_c, 0, 41, 64
1, 12266, Note_off_c, 0, 81, 64
1, 12266, Note_off_c, 0, 84, 64
1, 12266, Note_on_c, 0, 89, 18
1, 12266, Note_off_c, 0, 91, 64
1, 12266, Note_off_c, 0, 94, 64
1, 12267, Note_on_c, 0, 37, 98
1, 12267, Note_off_c, 0, 39, 64
1, 12267, Note_on_c, 0, 75, 21
1, 12267, Note_off_c, 0, 76, 64
1, 12267, Note_on_c, 0, 77, 42
1, 12267, Note_off_c, 0, 78, 64
1, 12268, Note_on_c, 0, 36, 97
1, 12268, Note_off_c, 0, 37, 64
1, 12268, Note_off_c, 0, 83, 64
1, 12268, Note_on_c, 0, 84, 22
1, 12269, Note_on_c, 0, 35, 96
1, 12269, Note_off_c, 0, 36, 64
1, 12269, Note_off_c, 0, 80, 64
1, 12270, Note_on_c, 0, 34, 96
1, 12270, Note_off_c, 0, 35, 64
1, 12270, Note_on_c, 0, 71, 17
1, 12270, Note_off_c, 0, 73, 64
1, 12270, Note_off_c, 0, 88, 64
1, 12271, Note_on_c, 0, 33, 96
1, 12271, Note_off_c, 0, 34, 64
1, 12271, Note_off_c, 0, 75, 64
1, 12272, Note_on_c, 0, 32, 97
1, 12272, Note_off_c, 0, 33, 64
1, 12272, Note_on_c, 0, 75, 19
1, 12272, Note_off_c, 0, 77, 64
1, 12273, Note_on_c, 0, 78, 14
1, 12273, Note_off_c, 0, 79, 64
1, 12273, Note_on_c, 0, 88, 16
1, 12274, Note_on_c, 0, 31, 93
1, 12274, Note_off_c, 0, 32, 64
1, 12274, Note_off_c, 0, 71, 64
1, 12274, Note_on_c, 0, 82, 22
1, 12274, Note_off_c, 0, 84, 64
1, 12274, Note_off_c, 0, 87, 64
1, 12276, Note_on_c, 0, 30, 81
1, 12276, Note_off_c, 0, 31, 64
1, 12276, Note_off_c, 0, 75, 64
1, 12277, Note_off_c, 0, 78, 64
1, 12278, Note_off_c, 0, 82, 64
1, 12279, Note_off_c, 0, 30, 64
1, 12279, Note_on_c, 0, 66, 12
1, 12279, Note_on_c, 0, 72, 37
1, 12279, Note_on_c, 0, 84, 44
1, 12279, Note_on_c, 0, 86, 36
1, 12279, Note_off_c, 0, 89, 64
1, 12279, Note_on_c, 0, 90, 32
1, 12279, Note_on_c, 0, 92, 28
1, 12279, Note_on_c, 0, 93, 23
1, 12279, Note_on_c, 0, 94, 18
1, 12279, Note_on_c, 0, 95, 18
1, 12280, Note_on_c, 0, 37, 69
1, 12280, Note_on_c, 0, 61, 30
1, 12280, Note_on_c, 0, 80, 39
1, 12280, Note_on_c, 0, 87, 28
1, 12280, Note_off_c, 0, 88, 64
1, 12280, Note_on_c, 0, 89, 33
1, 12280, Note_on_c, 0, 91, 36
1, 12281, Note_on_c, 0, 31, 75
1, 12281, Note_off_c, 0, 37, 64
1, 12281, Note_on_c, 0, 49, 59
1, 12281, Note_on_c, 0, 76, 41
1, 12281, Note_on_c, 0, 78, 35
1, 12281, Note_on_c, 0, 82, 39
1, 12281, Note_on_c, 0, 85, 56
1, 12281, Note_off_c, 0, 86, 64
1, 12282, Note_on_c, 0, 30, 79
1, 12282, Note_off_c, 0, 31, 64
1, 12282, Note_off_c, 0, 66, 64
1, 12283, Note_on_c, 0, 29, 80
1, 12283, Note_off_c, 0, 30, 64
1, 12283, Note_on_c, 0, 68, 32
1, 12283, Note_off_c, 0, 72, 64
1, 12283, Note_on_c, 0, 74, 41
1, 12283, Note_on_c, 0, 77, 40
1, 12283, Note_off_c, 0, 78, 64
1, 12283, Note_on_c, 0, 79, 46
1, 12283, Note_on_c, 0, 81, 32
1, 12283, Note_off_c, 0, 84, 64
1, 12284, Note_off_c, 0, 29, 64
1, 12284, Note_on_c, 0, 30, 78
1, 12284, Note_off_c, 0, 49, 64
1, 12284, Note_off_c, 0, 76, 64
1, 12284, Note_off_c, 0, 80, 64
1, 12284, Note_off_c, 0, 82, 64
1, 12284, Note_on_c, 0, 83, 36
1, 12284, Note_off_c, 0, 92, 64
1, 12285, Note_off_c, 0, 74, 64
1, 12285, Note_on_c, 0, 76, 32
1, 12285, Note_off_c, 0, 77, 64
1, 12285, Note_on_c, 0, 78, 41
1, 12285, Note_off_c, 0, 79, 64
1, 12285, Note_on_c, 0, 80, 37
1, 12285, Note_off_c, 0, 87, 64
1, 12285, Note_off_c, 0, 90, 64
1, 12285, Note_off_c, 0, 94, 64
1, 12286, Note_on_c, 0, 29, 74
1, 12286, Note_off_c, 0, 30, 64
1, 12286, Note_on_c, 0, 48, 53
1, 12286, Note_on_c, 0, 70, 31
1, 12286, Note_off_c, 0, 81, 64
1, 12286, Note_on_c, 0, 84, 28
1, 12287, Note_on_c, 0, 67, 21
1, 12287, Note_off_c, 0, 68, 64
1, 12287, Note_on_c, 0, 74, 31
1, 12288, Note_off_c, 0, 48, 64
1, 12288, Note_off_c, 0, 61, 64
1, 12288, Note_off_c, 0, 76, 64
1, 12288, Note_on_c, 0, 88, 35
1, 12288, Note_off_c, 0, 89, 64
1, 12288, Note_off_c, 0, 95, 64
1, 12289, Note_on_c, 0, 42, 66
1, 12289, Note_off_c, 0, 70, 64
1, 12289, Note_on_c, 0, 71, 34
1, 12289, Note_off_c, 0, 74, 64
1, 12289, Note_on_c, 0, 75, 34
1, 12289, Note_off_c, 0, 84, 64
1, 12289, Note_off_c, 0, 93, 64
1, 12289, Note_on_c, 0, 94, 13
1, 12290, Note_off_c, 0, 29, 64
1, 12290, Note_on_c, 0, 30, 79
1, 12290, Note_off_c, 0, 42, 64
1, 12290, Note_on_c, 0, 64, 29
1, 12290, Note_off_c, 0, 67, 64
1, 12290, Note_on_c, 0, 70, 29
1, 12290, Note_off_c, 0, 78, 64
1, 12290, Note_on_c, 0, 79, 30
1, 12290, Note_on_c, 0, 86, 24
1, 12290, Note_on_c, 0, 89, 18
1, 12290, Note_off_c, 0, 91, 64
1, 12291, Note_on_c, 0, 49, 59
1, 12291, Note_off_c, 0, 71, 64
1, 12291, Note_on_c, 0, 74, 31
1, 12291, Note_off_c, 0, 75, 64
1, 12291, Note_on_c, 0, 84, 25
1, 12292, Note_on_c, 0, 29, 80
1, 12292, Note_off_c, 0, 30, 64
1, 12292, Note_on_c, 0, 68, 15
1, 12292, Note_off_c, 0, 70, 64
1, 12292, Note_off_c, 0, 85, 64
1, 12292, Note_off_c, 0, 94, 64
1, 12293, Note_off_c, 0, 29, 64
1, 12293, Note_on_c, 0, 30, 78
1, 12293, Note_off_c, 0, 49, 64
1, 12293, Note_on_c, 0, 63, 27
1, 12293, Note_off_c, 0, 64, 64
1, 12293, Note_off_c, 0, 74, 64
1, 12293, Note_on_c, 0, 77, 19
1, 12293, Note_on_c, 0, 81, 30
1, 12293, Note_off_c, 0, 86, 64
1, 12293, Note_off_c, 0, 88, 64
1, 12294, Note_off_c, 0, 80, 64
1, 12294, Note_off_c, 0, 84, 64
1, 12295, Note_off_c, 0, 68, 64
1, 12295, Note_off_c, 0, 83, 64
1, 12295, Note_off_c, 0, 89, 64
1, 12296, Note_off_c, 0, 30, 64
1, 12296, Note_on_c, 0, 34, 72
1, 12296, Note_off_c, 0, 63, 64
1, 12296, Note_off_c, 0, 77, 64
1, 12296, Note_off_c, 0, 81, 64
1, 12297, Note_off_c, 0, 34, 64
1, 12297, Note_on_c, 0, 67, 46
1, 12297, Note_on_c, 0, 75, 41
1, 12297, Note_on_c, 0, 81, 39
1, 12297, Note_on_c, 0, 89, 28
1, 12297, Note_on_c, 0, 95, 20
1, 12297, Note_on_c, 0, 97, 17
1, 12298, Note_on_c, 0, 72, 43
1, 12298, Note_on_c, 0, 78, 38
1, 12298, Note_off_c, 0, 79, 64
1, 12298, Note_on_c, 0, 88, 34
1, 12299, Note_on_c, 0, 53, 72
1, 12299, Note_off_c, 0, 67, 64
1, 12299, Note_on_c, 0, 83, 19
1, 12300, Note_on_c, 0, 48, 85
1, 12300, Note_off_c, 0, 53, 64
1, 12300, Note_off_c, 0, 72, 64
1, 12300, Note_off_c, 0, 88, 64
1, 12300, Note_off_c, 0, 89, 64
1, 12300, Note_off_c, 0, 97, 64
1, 12301, Note_on_c, 0, 45, 95
1, 12301, Note_off_c, 0, 48, 64
1, 12301, Note_off_c, 0, 81, 64
1, 12301, Note_off_c, 0, 95, 64
1, 12302, Note_on_c, 0, 42, 100
1, 12302, Note_off_c, 0, 45, 64
1, 12302, Note_off_c, 0, 75, 64
1, 12302, Note_off_c, 0, 78, 64
1, 12302, Note_on_c, 0, 82, 23
1, 12303, Note_on_c, 0, 40, 98
1, 12303, Note_off_c, 0, 42, 64
1, 12303, Note_off_c, 0, 83, 64
1, 12304, Note_on_c, 0, 38, 98
1, 12304, Note_off_c, 0, 40, 64
1, 12305, Note_on_c, 0, 37, 98
1, 12305, Note_off_c, 0, 38, 64
1, 12306, Note_on_c, 0, 35, 97
1, 12306, Note_off_c, 0, 37, 64
1, 12307, Note_on_c, 0, 34, 95
1, 12307, Note_off_c, 0, 35, 64
1, 12307, Note_on_c, 0, 90, 16
1, 12308, Note_on_c, 0, 33, 95
1, 12308, Note_off_c, 0, 34, 64
1, 12308, Note_on_c, 0, 76, 13
1, 12308, Note_on_c, 0, 80, 19
1, 12308, Note_on_c, 0, 84, 24
1, 12308, Note_on_c, 0, 88, 26
1, 12308, Note_on_c, 0, 89, 15
1, 12309, Note_on_c, 0, 32, 96
1, 12309, Note_off_c, 0, 33, 64
1, 12309, Note_on_c, 0, 85, 32
1, 12310, Note_on_c, 0, 66, 25
1, 12311, Note_on_c, 0, 31, 94
1, 12311, Note_off_c, 0, 32, 64
1, 12311, Note_off_c, 0, 76, 64
1, 12311, Note_off_c, 0, 84, 64
1, 12312, Note_off_c, 0, 88, 64
1, 12312, Note_off_c, 0, 89, 64
1, 12312, Note_off_c, 0, 90, 64
1, 12313, Note_on_c, 0, 30, 85
1, 12313, Note_off_c, 0, 31, 64
1, 12313, Note_off_c, 0, 82, 64
1, 12314, Note_on_c, 0, 71, 10
1, 12314, Note_on_c, 0, 89, 9
1, 12315, Note_off_c, 0, 30, 64
1, 12315, Note_on_c, 0, 79, 32
1, 12315, Note_on_c, 0, 88, 29
1, 12316, Note_on_c, 0, 42, 63
1, 12316, Note_on_c, 0, 83, 27
1, 12316, Note_on_c, 0, 84, 20
1, 12317, Note_on_c, 0, 61, 32
1, 12317, Note_off_c, 0, 71, 64
1, 12317, Note_on_c, 0, 82, 30
1, 12317, Note_on_c, 0, 86, 21
1, 12317, Note_off_c, 0, 89, 64
1, 12318, Note_on_c, 0, 31, 69
1, 12318, Note_off_c, 0, 42, 64
1, 12318, Note_on_c, 0, 70, 17
1, 12318, Note_on_c, 0, 74, 28
1, 12318, Note_on_c, 0, 77, 32
1, 12319, Note_on_c, 0, 30, 77
1, 12319, Note_off_c, 0, 31, 64
1, 12319, Note_on_c, 0, 58, 29
1, 12319, Note_off_c, 0, 66, 64
1, 12319, Note_off_c, 0, 80, 64
1, 12320, Note_on_c, 0, 29, 79
1, 12320, Note_off_c, 0, 30, 64
1, 12320, Note_off_c, 0, 61, 64
1, 12320, Note_off_c, 0, 85, 64
1, 12320, Note_on_c, 0, 87, 17
1, 12320, Note_on_c, 0, 90, 31
1, 12321, Note_on_c, 0, 49, 54
1, 12321, Note_off_c, 0, 58, 64
1, 12321, Note_off_c, 0, 74, 64
1, 12321, Note_off_c, 0, 82, 64
1, 12322, Note_off_c, 0, 70, 64
1, 12322, Note_off_c, 0, 84, 64
1, 12322, Note_off_c, 0, 88, 64
1, 12323, Note_off_c, 0, 29, 64
1, 12323, Note_on_c, 0, 30, 74
1, 12323, Note_off_c, 0, 49, 64
1, 12323, Note_on_c, 0, 76, 29
1, 12323, Note_off_c, 0, 77, 64
1, 12323, Note_on_c, 0, 80, 24
1, 12323, Note_off_c, 0, 86, 64
1, 12324, Note_on_c, 0, 68, 33
1, 12324, Note_on_c, 0, 77, 31
1, 12324, Note_off_c, 0, 79, 64
1, 12324, Note_on_c, 0, 84, 20
1, 12325, Note_on_c, 0, 29, 71
1, 12325, Note_off_c, 0, 30, 64
1, 12325, Note_on_c, 0, 66, 31
1, 12325, Note_off_c, 0, 87, 64
1, 12326, Note_on_c, 0, 86, 21
1, 12327, Note_off_c, 0, 29, 64
1, 12327, Note_on_c, 0, 30, 79
1, 12327, Note_off_c, 0, 76, 64
1, 12327, Note_off_c, 0, 83, 64
1, 12328, Note_on_c, 0, 49, 56
1, 12328, Note_on_c, 0, 76, 40
1, 12328, Note_on_c, 0, 81, 12
1, 12328, Note_on_c, 0, 85, 31
1, 12329, Note_on_c, 0, 63, 31
1, 12329, Note_off_c, 0, 77, 64
1, 12329, Note_off_c, 0, 80, 64
1, 12329, Note_off_c, 0, 86, 64
1, 12329, Note_on_c, 0, 92, 17
1, 12330, Note_on_c, 0, 29, 79
1, 12330, Note_off_c, 0, 30, 64
1, 12330, Note_off_c, 0, 68, 64
1, 12330, Note_on_c, 0, 71, 18
1, 12331, Note_off_c, 0, 49, 64
1, 12331, Note_off_c, 0, 63, 64
1, 12331, Note_on_c, 0, 73, 46
1, 12331, Note_off_c, 0, 81, 64
1, 12331, Note_on_c, 0, 83, 29
1, 12332, Note_off_c, 0, 29, 64
1, 12332, Note_on_c, 0, 30, 75
1, 12332, Note_on_c, 0, 70, 39
1, 12332, Note_on_c, 0, 80, 18
1, 12332, Note_off_c, 0, 84, 64
1, 12332, Note_off_c, 0, 92, 64
1, 12333, Note_off_c, 0, 30, 64
1, 12333, Note_on_c, 0, 31, 70
1, 12333, Note_on_c, 0, 54, 42
1, 12333, Note_off_c, 0, 66, 64
1, 12333, Note_off_c, 0, 71, 64
1, 12334, Note_off_c, 0, 31, 64
1, 12334, Note_on_c, 0, 34, 69
1, 12334, Note_on_c, 0, 78, 36
1, 12334, Note_on_c, 0, 84, 31
1, 12334, Note_on_c, 0, 89, 35
1, 12334, Note_on_c, 0, 92, 25
1, 12335, Note_off_c, 0, 34, 64
1, 12335, Note_off_c, 0, 54, 64
1, 12335, Note_off_c, 0, 80, 64
1, 12335, Note_off_c, 0, 83, 64
1, 12335, Note_on_c, 0, 87, 33
1, 12335, Note_on_c, 0, 91, 32
1, 12336, Note_off_c, 0, 70, 64
1, 12336, Note_on_c, 0, 72, 50
1, 12336, Note_off_c, 0, 73, 64
1, 12336, Note_off_c, 0, 78, 64
1, 12336, Note_on_c, 0, 80, 32
1, 12336, Note_off_c, 0, 85, 64
1, 12336, Note_on_c, 0, 86, 29
1, 12337, Note_on_c, 0, 49, 78
1, 12337, Note_on_c, 0, 70, 20
1, 12337, Note_off_c, 0, 76, 64
1, 12337, Note_off_c, 0, 87, 64
1, 12337, Note_off_c, 0, 89, 64
1, 12337, Note_off_c, 0, 92, 64
1, 12338, Note_on_c, 0, 45, 90
1, 12338, Note_off_c, 0, 49, 64
1, 12338, Note_on_c, 0, 78, 23
1, 12338, Note_off_c, 0, 84, 64
1, 12338, Note_on_c, 0, 85, 33
1, 12339, Note_on_c, 0, 42, 96
1, 12339, Note_off_c, 0, 45, 64
1, 12339, Note_off_c, 0, 72, 64
1, 12339, Note_off_c, 0, 86, 64
1, 12339, Note_off_c, 0, 90, 64
1, 12340, Note_on_c, 0, 41, 99
1, 12340, Note_off_c, 0, 42, 64
1, 12340, Note_on_c, 0, 73, 38
1, 12340, Note_on_c, 0, 76, 19
1, 12340, Note_off_c, 0, 91, 64
1, 12341, Note_on_c, 0, 39, 97
1, 12341, Note_off_c, 0, 41, 64
1, 12342, Note_on_c, 0, 37, 98
1, 12342, Note_off_c, 0, 39, 64
1, 12342, Note_on_c, 0, 84, 30
1, 12343, Note_on_c, 0, 36, 97
1, 12343, Note_off_c, 0, 37, 64
1, 12344, Note_on_c, 0, 35, 96
1, 12344, Note_off_c, 0, 36, 64
1, 12344, Note_off_c, 0, 70, 64
1, 12345, Note_on_c, 0, 34, 95
1, 12345, Note_off_c, 0, 35, 64
1, 12345, Note_on_c, 0, 82, 22
1, 12345, Note_on_c, 0, 86, 14
1, 12346, Note_on_c, 0, 33, 95
1, 12346, Note_off_c, 0, 34, 64
1, 12346, Note_off_c, 0, 76, 64
1, 12346, Note_on_c, 0, 83, 30
1, 12346, Note_off_c, 0, 84, 64
1, 12347, Note_on_c, 0, 32, 96
1, 12347, Note_off_c, 0, 33, 64
1, 12348, Note_off_c, 0, 78, 64
1, 12348, Note_off_c, 0, 83, 64
1, 12348, Note_off_c, 0, 86, 64
1, 12349, Note_on_c, 0, 31, 93
1, 12349, Note_off_c, 0, 32, 64
1, 12349, Note_on_c, 0, 78, 28
1, 12350, Note_on_c, 0, 61, 12
1, 12350, Note_off_c, 0, 80, 64
1, 12351, Note_on_c, 0, 30, 80
1, 12351, Note_off_c, 0, 31, 64
1, 12352, Note_on_c, 0, 75, 18
1, 12352, Note_off_c, 0, 78, 64
1, 12352, Note_on_c, 0, 80, 13
1, 12353, Note_off_c, 0, 30, 64
1, 12353, Note_on_c, 0, 54, 39
1, 12353, Note_off_c, 0, 85, 64
1, 12354, Note_off_c, 0, 61, 64
1, 12354, Note_on_c, 0, 77, 15
1, 12354, Note_on_c, 0, 79, 22
1, 12354, Note_off_c, 0, 82, 64
1, 12354, Note_on_c, 0, 83, 26
1, 12354, Note_on_c, 0, 86, 15
1, 12354, Note_on_c, 0, 93, 14
1, 12355, Note_on_c, 0, 36, 68
1, 12355, Note_off_c, 0, 54, 64
1, 12355, Note_on_c, 0, 70, 25
1, 12355, Note_off_c, 0, 75, 64
1, 12355, Note_on_c, 0, 78, 30
1, 12355, Note_off_c, 0, 80, 64
1, 12356, Note_on_c, 0, 31, 76
1, 12356, Note_off_c, 0, 36, 64
1, 12356, Note_on_c, 0, 49, 59
1, 12356, Note_on_c, 0, 64, 39
1, 12356, Note_on_c, 0, 88, 23
1, 12357, Note_on_c, 0, 30, 80
1, 12357, Note_off_c, 0, 31, 64
1, 12357, Note_on_c, 0, 66, 30
1, 12357, Note_off_c, 0, 93, 64
1, 12358, Note_on_c, 0, 29, 78
1, 12358, Note_off_c, 0, 30, 64
1, 12358, Note_off_c, 0, 77, 64
1, 12358, Note_off_c, 0, 79, 64
1, 12359, Note_off_c, 0, 29, 64
1, 12359, Note_on_c, 0, 30, 74
1, 12360, Note_off_c, 0, 64, 64
1, 12361, Note_on_c, 0, 29, 74
1, 12361, Note_off_c, 0, 30, 64
1, 12361, Note_off_c, 0, 49, 64
1, 12361, Note_off_c, 0, 66, 64
1, 12361, Note_on_c, 0, 76, 19
1, 12361, Note_off_c, 0, 83, 64
1, 12361, Note_off_c, 0, 86, 64
1, 12362, Note_off_c, 0, 73, 64
1, 12362, Note_on_c, 0, 77, 22
1, 12363, Note_off_c, 0, 78, 64
1, 12363, Note_on_c, 0, 79, 12
1, 12363, Note_on_c, 0, 81, 16
1, 12363, Note_on_c, 0, 85, 29
1, 12364, Note_off_c, 0, 29, 64
1, 12364, Note_on_c, 0, 30, 79
1, 12364, Note_on_c, 0, 64, 29
1, 12364, Note_off_c, 0, 76, 64
1, 12364, Note_on_c, 0, 89, 22
1, 12364, Note_on_c, 0, 90, 17
1, 12364, Note_on_c, 0, 91, 12
1, 12364, Note_on_c, 0, 93, 27
1, 12365, Note_on_c, 0, 87, 10
1, 12366, Note_on_c, 0, 49, 60
1, 12366, Note_off_c, 0, 79, 64
1, 12366, Note_off_c, 0, 81, 64
1, 12367, Note_on_c, 0, 29, 80
1, 12367, Note_off_c, 0, 30, 64
1, 12367, Note_on_c, 0, 83, 15
1, 12367, Note_off_c, 0, 90, 64
1, 12368, Note_off_c, 0, 49, 64
1, 12368, Note_on_c, 0, 61, 34
1, 12368, Note_off_c, 0, 70, 64
1, 12368, Note_on_c, 0, 76, 39
1, 12368, Note_on_c, 0, 78, 19
1, 12368, Note_on_c, 0, 80, 32
1, 12368, Note_on_c, 0, 84, 9
1, 12368, Note_off_c, 0, 87, 64
1, 12368, Note_off_c, 0, 91, 64
1, 12369, Note_off_c, 0, 29, 64
1, 12369, Note_on_c, 0, 30, 75
1, 12369, Note_off_c, 0, 64, 64
1, 12369, Note_off_c, 0, 77, 64
1, 12370, Note_off_c, 0, 83, 64
1, 12370, Note_off_c, 0, 88, 64
1, 12371, Note_off_c, 0, 30, 64
1, 12371, Note_on_c, 0, 34, 72
1, 12371, Note_on_c, 0, 60, 36
1, 12371, Note_off_c, 0, 61, 64
1, 12371, Note_on_c, 0, 72, 45
1, 12371, Note_off_c, 0, 78, 64
1, 12372, Note_off_c, 0, 34, 64
1, 12372, Note_on_c, 0, 35, 65
1, 12372, Note_on_c, 0, 69, 44
1, 12372, Note_on_c, 0, 78, 43
1, 12372, Note_on_c, 0, 83, 28
1, 12372, Note_off_c, 0, 84, 64
1, 12372, Note_on_c, 0, 86, 42
1, 12372, Note_on_c, 0, 87, 34
1, 12372, Note_on_c, 0, 91, 20
1, 12372, Note_on_c, 0, 94, 28
1, 12373, Note_off_c, 0, 35, 64
1, 12373, Note_off_c, 0, 60, 64
1, 12373, Note_on_c, 0, 61, 57
1, 12373, Note_on_c, 0, 64, 55
1, 12373, Note_off_c, 0, 85, 64
1, 12374, Note_on_c, 0, 51, 72
1, 12374, Note_off_c, 0, 72, 64
1, 12374, Note_on_c, 0, 75, 29
1, 12374, Note_off_c, 0, 80, 64
1, 12375, Note_on_c, 0, 48, 85
1, 12375, Note_off_c, 0, 51, 64
1, 12375, Note_on_c, 0, 79, 22
1, 12375, Note_off_c, 0, 91, 64
1, 12375, Note_off_c, 0, 93, 64
1, 12376, Note_on_c, 0, 45, 94
1, 12376, Note_off_c, 0, 48, 64
1, 12376, Note_off_c, 0, 61, 64
1, 12376, Note_off_c, 0, 69, 64
1, 12376, Note_off_c, 0, 75, 64
1, 12376, Note_off_c, 0, 78, 64
1, 12376, Note_on_c, 0, 80, 19
1, 12376, Note_off_c, 0, 86, 64
1, 12376, Note_off_c, 0, 89, 64
1, 12376, Note_off_c, 0, 94, 64
1, 12377, Note_on_c, 0, 42, 99
1, 12377, Note_off_c, 0, 45, 64
1, 12377, Note_off_c, 0, 76, 64
1, 12377, Note_on_c, 0, 85, 10
1, 12377, Note_off_c, 0, 87, 64
1, 12378, Note_on_c, 0, 40, 97
1, 12378, Note_off_c, 0, 42, 64
1, 12378, Note_on_c, 0, 68, 38
1, 12378, Note_off_c, 0, 83, 64
1, 12379, Note_on_c, 0, 38, 97
1, 12379, Note_off_c, 0, 40, 64
1, 12379, Note_off_c, 0, 80, 64
1, 12380, Note_on_c, 0, 36, 97
1, 12380, Note_off_c, 0, 38, 64
1, 12380, Note_off_c, 0, 85, 64
1, 12381, Note_on_c, 0, 35, 96
1, 12381, Note_off_c, 0, 36, 64
1, 12381, Note_on_c, 0, 85, 10
1, 12382, Note_on_c, 0, 34, 95
1, 12382, Note_off_c, 0, 35, 64
1, 12382, Note_on_c, 0, 73, 13
1, 12382, Note_on_c, 0, 78, 13
1, 12383, Note_on_c, 0, 33, 96
1, 12383, Note_off_c, 0, 34, 64
1, 12383, Note_on_c, 0, 48, 34
1, 12383, Note_off_c, 0, 64, 64
1, 12383, Note_off_c, 0, 79, 64
1, 12383, Note_on_c, 0, 89, 10
1, 12384, Note_on_c, 0, 32, 96
1, 12384, Note_off_c, 0, 33, 64
1, 12384, Note_off_c, 0, 85, 64
1, 12385, Note_off_c, 0, 48, 64
1, 12385, Note_off_c, 0, 78, 64
1, 12386, Note_on_c, 0, 31, 94
1, 12386, Note_off_c, 0, 32, 64
1, 12386, Note_on_c, 0, 66, 9
1, 12386, Note_off_c, 0, 73, 64
1, 12387, Note_on_c, 0, 79, 26
1, 12387, Note_off_c, 0, 89, 64
1, 12388, Note_on_c, 0, 30, 84
1, 12388, Note_off_c, 0, 31, 64
1, 12388, Note_on_c, 0, 61, 16
1, 12388, Note_on_c, 0, 71, 17
1, 12388, Note_on_c, 0, 73, 18
1, 12388, Note_on_c, 0, 84, 20
1, 12389, Note_off_c, 0, 66, 64
1, 12389, Note_on_c, 0, 82, 26
1, 12390, Note_on_c, 0, 85, 31
1, 12391, Note_off_c, 0, 30, 64
1, 12391, Note_off_c, 0, 61, 64
1, 12391, Note_off_c, 0, 71, 64
1, 12391, Note_on_c, 0, 72, 28
1, 12391, Note_off_c, 0, 73, 64
1, 12391, Note_on_c, 0, 83, 20
1, 12391, Note_on_c, 0, 86, 19
1, 12391, Note_on_c, 0, 88, 23
1, 12391, Note_on_c, 0, 89, 21
1, 12392, Note_on_c, 0, 37, 67
1, 12392, Note_on_c, 0, 77, 19
1, 12392, Note_off_c, 0, 79, 64
1, 12392, Note_off_c, 0, 84, 64
1, 12392, Note_on_c, 0, 90, 30
1, 12392, Note_on_c, 0, 91, 22
1, 12393, Note_on_c, 0, 31, 73
1, 12393, Note_off_c, 0, 37, 64
1, 12393, Note_on_c, 0, 61, 32
1, 12393, Note_on_c, 0, 64, 34
1, 12393, Note_on_c, 0, 71, 32
1, 12393, Note_on_c, 0, 87, 27
1, 12394, Note_on_c, 0, 30, 79
1, 12394, Note_off_c, 0, 31, 64
1, 12394, Note_off_c, 0, 72, 64
1, 12394, Note_off_c, 0, 82, 64
1, 12394, Note_off_c, 0, 88, 64
1, 12394, Note_off_c, 0, 89, 64
1, 12395, Note_on_c, 0, 29, 80
1, 12395, Note_off_c, 0, 30, 64
1, 12395, Note_off_c, 0, 77, 64
1, 12395, Note_on_c, 0, 78, 32
1, 12396, Note_off_c, 0, 91, 64
1, 12397, Note_off_c, 0, 29, 64
1, 12397, Note_on_c, 0, 30, 75
1, 12397, Note_on_c, 0, 58, 38
1, 12397, Note_off_c, 0, 61, 64
1, 12397, Note_on_c, 0, 66, 22
1, 12397, Note_off_c, 0, 71, 64
1, 12397, Note_on_c, 0, 74, 32
1, 12397, Note_off_c, 0, 83, 64
1, 12398, Note_on_c, 0, 61, 24
1, 12398, Note_off_c, 0, 64, 64
1, 12399, Note_on_c, 0, 29, 73
1, 12399, Note_off_c, 0, 30, 64
1, 12399, Note_on_c, 0, 72, 25
1, 12400, Note_off_c, 0, 58, 64
1, 12400, Note_on_c, 0, 64, 34
1, 12400, Note_on_c, 0, 82, 31
1, 12400, Note_off_c, 0, 85, 64
1, 12401, Note_off_c, 0, 61, 64
1, 12401, Note_off_c, 0, 66, 64
1, 12401, Note_on_c, 0, 83, 19
1, 12401, Note_on_c, 0, 85, 20
1, 12401, Note_on_c, 0, 89, 16
1, 12402, Note_off_c, 0, 29, 64
1, 12402, Note_on_c, 0, 30, 74
1, 12402, Note_off_c, 0, 72, 64
1, 12402, Note_off_c, 0, 87, 64
1, 12402, Note_on_c, 0, 96, 11
1, 12403, Note_off_c, 0, 30, 64
1, 12403, Note_on_c, 0, 31, 78
1, 12403, Note_on_c, 0, 49, 59
1, 12403, Note_on_c, 0, 63, 33
1, 12403, Note_off_c, 0, 64, 64
1, 12404, Note_on_c, 0, 30, 80
1, 12404, Note_off_c, 0, 31, 64
1, 12404, Note_on_c, 0, 84, 42
1, 12404, Note_off_c, 0, 85, 64
1, 12404, Note_off_c, 0, 86, 64
1, 12405, Note_on_c, 0, 29, 80
1, 12405, Note_off_c, 0, 30, 64
1, 12405, Note_on_c, 0, 77, 39
1, 12405, Note_on_c, 0, 79, 20
1, 12405, Note_off_c, 0, 89, 64
1, 12405, Note_off_c, 0, 96, 64
1, 12406, Note_off_c, 0, 49, 64
1, 12406, Note_off_c, 0, 63, 64
1, 12406, Note_on_c, 0, 64, 30
1, 12406, Note_off_c, 0, 78, 64
1, 12406, Note_off_c, 0, 83, 64
1, 12406, Note_on_c, 0, 88, 23
1, 12407, Note_off_c, 0, 29, 64
1, 12407, Note_on_c, 0, 30, 74
1, 12407, Note_off_c, 0, 74, 64
1, 12408, Note_off_c, 0, 30, 64
1, 12408, Note_on_c, 0, 31, 70
1, 12408, Note_off_c, 0, 68, 64
1, 12408, Note_on_c, 0, 69, 42
1, 12408, Note_on_c, 0, 72, 41
1, 12408, Note_off_c, 0, 79, 64
1, 12409, Note_off_c, 0, 31, 64
1, 12409, Note_on_c, 0, 35, 68
1, 12409, Note_on_c, 0, 54, 30
1, 12409, Note_on_c, 0, 61, 45
1, 12409, Note_on_c, 0, 75, 39
1, 12409, Note_on_c, 0, 79, 40
1, 12409, Note_on_c, 0, 81, 46
1, 12409, Note_on_c, 0, 85, 33
1, 12409, Note_on_c, 0, 92, 28
1, 12410, Note_off_c, 0, 35, 64
1, 12410, Note_off_c, 0, 64, 64
1, 12410, Note_off_c, 0, 82, 64
1, 12410, Note_off_c, 0, 88, 64
1, 12411, Note_off_c, 0, 54, 64
1, 12411, Note_on_c, 0, 55, 65
1, 12411, Note_off_c, 0, 61, 64
1, 12411, Note_on_c, 0, 74, 34
1, 12411, Note_off_c, 0, 75, 64
1, 12411, Note_off_c, 0, 79, 64
1, 12412, Note_on_c, 0, 49, 80
1, 12412, Note_off_c, 0, 55, 64
1, 12412, Note_off_c, 0, 72, 64
1, 12412, Note_on_c, 0, 73, 18
1, 12412, Note_off_c, 0, 77, 64
1, 12412, Note_off_c, 0, 81, 64
1, 12412, Note_off_c, 0, 84, 64
1, 12412, Note_off_c, 0, 85, 64
1, 12412, Note_off_c, 0, 90, 64
1, 12412, Note_off_c, 0, 92, 64
1, 12413, Note_on_c, 0, 45, 91
1, 12413, Note_off_c, 0, 49, 64
1, 12413, Note_off_c, 0, 69, 64
1, 12413, Note_off_c, 0, 74, 64
1, 12414, Note_on_c, 0, 42, 97
1, 12414, Note_off_c, 0, 45, 64
1, 12415, Note_on_c, 0, 41, 99
1, 12415, Note_off_c, 0, 42, 64
1, 12416, Note_on_c, 0, 38, 98
1, 12416, Note_off_c, 0, 41, 64
1, 12417, Note_on_c, 0, 37, 98
1, 12417, Note_off_c, 0, 38, 64
1, 12417, Note_on_c, 0, 78, 17
1, 12418, Note_on_c, 0, 36, 97
1, 12418, Note_off_c, 0, 37, 64
1, 12419, Note_on_c, 0, 34, 96
1, 12419, Note_off_c, 0, 36, 64
1, 12419, Note_on_c, 0, 82, 12
1, 12420, Note_on_c, 0, 84, 14
1, 12421, Note_on_c, 0, 33, 96
1, 12421, Note_off_c, 0, 34, 64
1, 12421, Note_on_c, 0, 81, 19
1, 12422, Note_on_c, 0, 32, 96
1, 12422, Note_off_c, 0, 33, 64
1, 12422, Note_off_c, 0, 82, 64
1, 12422, Note_on_c, 0, 85, 29
1, 12423, Note_on_c, 0, 31, 95
1, 12423, Note_off_c, 0, 32, 64
1, 12423, Note_off_c, 0, 84, 64
1, 12424, Note_on_c, 0, 76, 9
1, 12426, Note_on_c, 0, 30, 79
1, 12426, Note_off_c, 0, 31, 64
1, 12426, Note_off_c, 0, 81, 64
1, 12426, Note_on_c, 0, 89, 10
1, 12426, Note_on_c, 0, 90, 25
1, 12427, Note_off_c, 0, 76, 64
1, 12428, Note_off_c, 0, 30, 64
1, 12428, Note_off_c, 0, 78, 64
1, 12429, Note_on_c, 0, 36, 68
1, 12429, Note_on_c, 0, 70, 22
1, 12429, Note_on_c, 0, 77, 15
1, 12429, Note_on_c, 0, 80, 17
1, 12429, Note_on_c, 0, 83, 24
1, 12429, Note_on_c, 0, 86, 27
1, 12429, Note_on_c, 0, 88, 21
1, 12429, Note_off_c, 0, 89, 64
1, 12429, Note_on_c, 0, 92, 22
1, 12430, Note_on_c, 0, 63, 30
1, 12430, Note_off_c, 0, 73, 64
1, 12431, Note_on_c, 0, 31, 76
1, 12431, Note_off_c, 0, 36, 64
1, 12431, Note_on_c, 0, 79, 16
1, 12432, Note_on_c, 0, 30, 79
1, 12432, Note_off_c, 0, 31, 64
1, 12432, Note_off_c, 0, 63, 64
1, 12432, Note_on_c, 0, 64, 34
1, 12432, Note_on_c, 0, 68, 25
1, 12432, Note_on_c, 0, 73, 28
1, 12432, Note_on_c, 0, 78, 17
1, 12432, Note_off_c, 0, 80, 64
1, 12432, Note_on_c, 0, 84, 22
1, 12432, Note_off_c, 0, 92, 64
1, 12433, Note_off_c, 0, 70, 64
1, 12433, Note_off_c, 0, 77, 64
1, 12433, Note_off_c, 0, 86, 64
1, 12433, Note_off_c, 0, 88, 64
1, 12434, Note_off_c, 0, 64, 64
1, 12434, Note_off_c, 0, 79, 64
1, 12434, Note_off_c, 0, 85, 64
1, 12434, Note_on_c, 0, 86, 13
1, 12435, Note_on_c, 0, 64, 26
1, 12435, Note_off_c, 0, 68, 64
1, 12435, Note_off_c, 0, 90, 64
1, 12436, Note_on_c, 0, 29, 73
1, 12436, Note_off_c, 0, 30, 64
1, 12436, Note_on_c, 0, 76, 26
1, 12437, Note_on_c, 0, 71, 26
1, 12437, Note_off_c, 0, 78, 64
1, 12437, Note_off_c, 0, 86, 64
1, 12438, Note_on_c, 0, 42, 67
1, 12438, Note_on_c, 0, 68, 32
1, 12438, Note_off_c, 0, 84, 64
1, 12439, Note_off_c, 0, 29, 64
1, 12439, Note_on_c, 0, 30, 73
1, 12439, Note_off_c, 0, 73, 64
1, 12439, Note_on_c, 0, 74, 27
1, 12439, Note_on_c, 0, 78, 18
1, 12439, Note_off_c, 0, 83, 64
1, 12440, Note_off_c, 0, 30, 64
1, 12440, Note_on_c, 0, 31, 79
1, 12440, Note_off_c, 0, 42, 64
1, 12440, Note_on_c, 0, 61, 29
1, 12440, Note_on_c, 0, 81, 12
1, 12441, Note_on_c, 0, 49, 63
1, 12441, Note_off_c, 0, 64, 64
1, 12441, Note_off_c, 0, 76, 64
1, 12442, Note_on_c, 0, 29, 79
1, 12442, Note_off_c, 0, 31, 64
1, 12442, Note_off_c, 0, 71, 64
1, 12442, Note_on_c, 0, 72, 29
1, 12442, Note_on_c, 0, 76, 20
1, 12443, Note_off_c, 0, 49, 64
1, 12443, Note_off_c, 0, 68, 64
1, 12443, Note_on_c, 0, 70, 19
1, 12443, Note_off_c, 0, 74, 64
1, 12443, Note_off_c, 0, 81, 64
1, 12444, Note_off_c, 0, 29, 64
1, 12444, Note_on_c, 0, 30, 75
1, 12444, Note_off_c, 0, 61, 64
1, 12444, Note_off_c, 0, 72, 64
1, 12445, Note_off_c, 0, 76, 64
1, 12445, Note_off_c, 0, 78, 64
1, 12446, Note_off_c, 0, 30, 64
1, 12446, Note_on_c, 0, 34, 72
1, 12446, Note_on_c, 0, 72, 38
1, 12446, Note_on_c, 0, 76, 32
1, 12447, Note_off_c, 0, 34, 64
1, 12447, Note_on_c, 0, 60, 55
1, 12447, Note_off_c, 0, 70, 64
1, 12447, Note_on_c, 0, 79, 38
1, 12447, Note_on_c, 0, 81, 33
1, 12447, Note_on_c, 0, 82, 32
1, 12447, Note_on_c, 0, 86, 30
1, 12447, Note_on_c, 0, 87, 28
1, 12447, Note_on_c, 0, 89, 27
1, 12447, Note_on_c, 0, 92, 26
1, 12448, Note_on_c, 0, 70, 42
1, 12448, Note_off_c, 0, 72, 64
1, 12448, Note_on_c, 0, 73, 44
1, 12448, Note_on_c, 0, 75, 38
1, 12448, Note_off_c, 0, 76, 64
1, 12448, Note_on_c, 0, 84, 33
1, 12449, Note_on_c, 0, 51, 74
1, 12449, Note_off_c, 0, 60, 64
1, 12450, Note_on_c, 0, 48, 85
1, 12450, Note_off_c, 0, 51, 64
1, 12450, Note_off_c, 0, 70, 64
1, 12450, Note_off_c, 0, 73, 64
1, 12450, Note_off_c, 0, 79, 64
1, 12450, Note_off_c, 0, 82, 64
1, 12450, Note_off_c, 0, 86, 64
1, 12450, Note_off_c, 0, 89, 64
1, 12450, Note_off_c, 0, 92, 64
1, 12451, Note_on_c, 0, 44, 94
1, 12451, Note_off_c, 0, 48, 64
1, 12451, Note_off_c, 0, 75, 64
1, 12451, Note_off_c, 0, 84, 64
1, 12452, Note_on_c, 0, 42, 99
1, 12452, Note_off_c, 0, 44, 64
1, 12452, Note_off_c, 0, 87, 64
1, 12453, Note_on_c, 0, 40, 97
1, 12453, Note_off_c, 0, 42, 64
1, 12453, Note_off_c, 0, 81, 64
1, 12454, Note_on_c, 0, 38, 98
1, 12454, Note_off_c, 0, 40, 64
1, 12455, Note_on_c, 0, 36, 97
1, 12455, Note_off_c, 0, 38, 64
1, 12456, Note_on_c, 0, 35, 96
1, 12456, Note_off_c, 0, 36, 64
1, 12457, Note_on_c, 0, 34, 95
1, 12457, Note_off_c, 0, 35, 64
1, 12457, Note_on_c, 0, 82, 19
1, 12457, Note_on_c, 0, 85, 12
1, 12458, Note_on_c, 0, 33, 95
1, 12458, Note_off_c, 0, 34, 64
1, 12458, Note_on_c, 0, 83, 12
1, 12459, Note_on_c, 0, 32, 96
1, 12459, Note_off_c, 0, 33, 64
1, 12459, Note_on_c, 0, 74, 21
1, 12460, Note_off_c, 0, 82, 64
1, 12461, Note_on_c, 0, 31, 94
1, 12461, Note_off_c, 0, 32, 64
1, 12461, Note_off_c, 0, 83, 64
1, 12462, Note_off_c, 0, 85, 64
1, 12463, Note_on_c, 0, 30, 83
1, 12463, Note_off_c, 0, 31, 64
1, 12465, Note_on_c, 0, 84, 9
1, 12466, Note_off_c, 0, 30, 64
1, 12466, Note_off_c, 0, 74, 64
1, 12466, Note_on_c, 0, 75, 19
1, 12466, Note_on_c, 0, 78, 21
1, 12466, Note_on_c, 0, 83, 13
1, 12467, Note_on_c, 0, 37, 67
1, 12467, Note_on_c, 0, 61, 30
1, 12467, Note_on_c, 0, 64, 35
1, 12467, Note_on_c, 0, 70, 21
1, 12467, Note_on_c, 0, 81, 11
1, 12468, Note_on_c, 0, 31, 72
1, 12468, Note_off_c, 0, 37, 64
1, 12468, Note_off_c, 0, 84, 64
1, 12469, Note_on_c, 0, 30, 78
1, 12469, Note_off_c, 0, 31, 64
1, 12469, Note_off_c, 0, 61, 64
1, 12469, Note_off_c, 0, 83, 64
1, 12470, Note_on_c, 0, 29, 80
1, 12470, Note_off_c, 0, 30, 64
1, 12470, Note_on_c, 0, 49, 60
1, 12470, Note_off_c, 0, 64, 64
1, 12470, Note_off_c, 0, 70, 64
1, 12470, Note_off_c, 0, 81, 64
1, 12471, Note_on_c, 0, 70, 36
1, 12471, Note_off_c, 0, 75, 64
1, 12472, Note_off_c, 0, 29, 64
1, 12472, Note_on_c, 0, 30, 76
1, 12472, Note_on_c, 0, 66, 37
1, 12474, Note_on_c, 0, 29, 74
1, 12474, Note_off_c, 0, 30, 64
1, 12475, Note_off_c, 0, 49, 64
1, 12476, Note_on_c, 0, 76, 21
1, 12476, Note_on_c, 0, 84, 25
1, 12477, Note_off_c, 0, 29, 64
1, 12477, Note_on_c, 0, 30, 78
1, 12477, Note_on_c, 0, 54, 53
1, 12477, Note_on_c, 0, 64, 34
1, 12479, Note_off_c, 0, 76, 64
1, 12479, Note_off_c, 0, 84, 64
1, 12480, Note_on_c, 0, 29, 79
1, 12480, Note_off_c, 0, 30, 64
1, 12480, Note_on_c, 0, 49, 57
1, 12480, Note_off_c, 0, 54, 64
1, 12480, Note_off_c, 0, 64, 64
1, 12480, Note_on_c, 0, 73, 18
1, 12480, Note_off_c, 0, 78, 64
1, 12480, Note_on_c, 0, 85, 37
1, 12482, Note_off_c, 0, 29, 64
1, 12482, Note_on_c, 0, 30, 74
1, 12482, Note_off_c, 0, 70, 64
1, 12483, Note_off_c, 0, 30, 64
1, 12483, Note_on_c, 0, 32, 72
1, 12483, Note_off_c, 0, 49, 64
1, 12483, Note_off_c, 0, 66, 64
1, 12484, Note_off_c, 0, 32, 64
1, 12484, Note_on_c, 0, 35, 68
1, 12484, Note_off_c, 0, 73, 64
1, 12484, Note_on_c, 0, 75, 32
1, 12484, Note_on_c, 0, 78, 39
1, 12484, Note_on_c, 0, 80, 37
1, 12484, Note_on_c, 0, 87, 33
1, 12484, Note_on_c, 0, 93, 27
1, 12485, Note_off_c, 0, 35, 64
1, 12485, Note_on_c, 0, 54, 68
1, 12485, Note_on_c, 0, 73, 45
1, 12485, Note_on_c, 0, 83, 29
1, 12485, Note_on_c, 0, 91, 25
1, 12486, Note_off_c, 0, 75, 64
1, 12486, Note_on_c, 0, 86, 21
1, 12487, Note_on_c, 0, 49, 81
1, 12487, Note_off_c, 0, 54, 64
1, 12487, Note_off_c, 0, 80, 64
1, 12487, Note_off_c, 0, 87, 64
1, 12488, Note_on_c, 0, 45, 92
1, 12488, Note_off_c, 0, 49, 64
1, 12488, Note_off_c, 0, 78, 64
1, 12489, Note_on_c, 0, 42, 98
1, 12489, Note_off_c, 0, 45, 64
1, 12489, Note_off_c, 0, 73, 64
1, 12489, Note_off_c, 0, 86, 64
1, 12489, Note_off_c, 0, 91, 64
1, 12489, Note_off_c, 0, 93, 64
1, 12490, Note_on_c, 0, 41, 99
1, 12490, Note_off_c, 0, 42, 64
1, 12490, Note_off_c, 0, 85, 64
1, 12491, Note_on_c, 0, 38, 98
1, 12491, Note_off_c, 0, 41, 64
1, 12491, Note_off_c, 0, 83, 64
1, 12492, Note_on_c, 0, 37, 98
1, 12492, Note_off_c, 0, 38, 64
1, 12493, Note_on_c, 0, 36, 97
1, 12493, Note_off_c, 0, 37, 64
1, 12494, Note_on_c, 0, 34, 96
1, 12494, Note_off_c, 0, 36, 64
1, 12495, Note_on_c, 0, 33, 96
1, 12495, Note_off_c, 0, 34, 64
1, 12496, Note_on_c, 0, 73, 30
1, 12497, Note_on_c, 0, 32, 96
1, 12497, Note_off_c, 0, 33, 64
1, 12498, Note_on_c, 0, 31, 95
1, 12498, Note_off_c, 0, 32, 64
1, 12501, Note_on_c, 0, 30, 78
1, 12501, Note_off_c, 0, 31, 64
1, 12503, Note_off_c, 0, 30, 64
1, 12504, Note_on_c, 0, 72, 29
1, 12504, Note_on_c, 0, 80, 18
1, 12505, Note_on_c, 0, 36, 71
1, 12505, Note_on_c, 0, 61, 33
1, 12505, Note_on_c, 0, 64, 32
1, 12505, Note_off_c, 0, 73, 64
1, 12506, Note_on_c, 0, 31, 76
1, 12506, Note_off_c, 0, 36, 64
1, 12506, Note_off_c, 0, 72, 64
1, 12507, Note_on_c, 0, 29, 79
1, 12507, Note_off_c, 0, 31, 64
1, 12507, Note_on_c, 0, 49, 60
1, 12507, Note_off_c, 0, 61, 64
1, 12507, Note_on_c, 0, 68, 20
1, 12507, Note_on_c, 0, 78, 23
1, 12508, Note_on_c, 0, 63, 30
1, 12508, Note_off_c, 0, 64, 64
1, 12508, Note_on_c, 0, 66, 25
1, 12508, Note_off_c, 0, 80, 64
1, 12509, Note_off_c, 0, 29, 64
1, 12509, Note_on_c, 0, 30, 76
1, 12509, Note_off_c, 0, 49, 64
1, 12509, Note_on_c, 0, 72, 19
1, 12510, Note_off_c, 0, 68, 64
1, 12510, Note_on_c, 0, 80, 11
1, 12510, Note_on_c, 0, 83, 9
1, 12511, Note_on_c, 0, 29, 74
1, 12511, Note_off_c, 0, 30, 64
1, 12512, Note_off_c, 0, 63, 64
1, 12512, Note_off_c, 0, 72, 64
1, 12512, Note_on_c, 0, 73, 32
1, 12513, Note_on_c, 0, 61, 32
1, 12513, Note_on_c, 0, 69, 32
1, 12513, Note_off_c, 0, 80, 64
1, 12513, Note_off_c, 0, 83, 64
1, 12513, Note_on_c, 0, 84, 12
1, 12514, Note_off_c, 0, 29, 64
1, 12514, Note_on_c, 0, 30, 72
1, 12514, Note_off_c, 0, 66, 64
1, 12514, Note_on_c, 0, 74, 42
1, 12515, Note_off_c, 0, 30, 64
1, 12515, Note_on_c, 0, 31, 75
1, 12515, Note_off_c, 0, 69, 64
1, 12515, Note_off_c, 0, 73, 64
1, 12515, Note_on_c, 0, 79, 23
1, 12516, Note_on_c, 0, 30, 79
1, 12516, Note_off_c, 0, 31, 64
1, 12516, Note_on_c, 0, 69, 26
1, 12516, Note_off_c, 0, 78, 64
1, 12516, Note_on_c, 0, 80, 15
1, 12516, Note_on_c, 0, 83, 15
1, 12516, Note_off_c, 0, 84, 64
1, 12517, Note_on_c, 0, 29, 80
1, 12517, Note_off_c, 0, 30, 64
1, 12517, Note_on_c, 0, 49, 58
1, 12518, Note_on_c, 0, 71, 13
1, 12519, Note_off_c, 0, 29, 64
1, 12519, Note_on_c, 0, 30, 76
1, 12519, Note_on_c, 0, 63, 17
1, 12519, Note_on_c, 0, 76, 26
1, 12519, Note_on_c, 0, 78, 36
1, 12519, Note_off_c, 0, 79, 64
1, 12519, Note_off_c, 0, 83, 64
1, 12520, Note_off_c, 0, 49, 64
1, 12520, Note_off_c, 0, 61, 64
1, 12521, Note_off_c, 0, 30, 64
1, 12521, Note_on_c, 0, 34, 71
1, 12521, Note_off_c, 0, 69, 64
1, 12521, Note_off_c, 0, 71, 64
1, 12521, Note_on_c, 0, 72, 38
1, 12522, Note_off_c, 0, 34, 64
1, 12522, Note_off_c, 0, 63, 64
1, 12522, Note_on_c, 0, 75, 40
1, 12522, Note_off_c, 0, 76, 64
1, 12522, Note_off_c, 0, 80, 64
1, 12522, Note_on_c, 0, 81, 38
1, 12522, Note_on_c, 0, 88, 27
1, 12523, Note_off_c, 0, 72, 64
1, 12523, Note_off_c, 0, 74, 64
1, 12523, Note_on_c, 0, 84, 29
1, 12524, Note_on_c, 0, 51, 76
1, 12524, Note_off_c, 0, 75, 64
1, 12525, Note_on_c, 0, 46, 87
1, 12525, Note_off_c, 0, 51, 64
1, 12525, Note_off_c, 0, 78, 64
1, 12525, Note_off_c, 0, 81, 64
1, 12525, Note_off_c, 0, 88, 64
1, 12526, Note_on_c, 0, 44, 95
1, 12526, Note_off_c, 0, 46, 64
1, 12526, Note_off_c, 0, 84, 64
1, 12527, Note_on_c, 0, 41, 100
1, 12527, Note_off_c, 0, 44, 64
1, 12528, Note_on_c, 0, 40, 96
1, 12528, Note_off_c, 0, 41, 64
1, 12529, Note_on_c, 0, 38, 98
1, 12529, Note_off_c, 0, 40, 64
1, 12530, Note_on_c, 0, 36, 98
1, 12530, Note_off_c, 0, 38, 64
1, 12531, Note_on_c, 0, 35, 97
1, 12531, Note_off_c, 0, 36, 64
1, 12531, Note_on_c, 0, 66, 31
1, 12532, Note_on_c, 0, 34, 96
1, 12532, Note_off_c, 0, 35, 64
1, 12533, Note_on_c, 0, 33, 96
1, 12533, Note_off_c, 0, 34, 64
1, 12534, Note_on_c, 0, 32, 97
1, 12534, Note_off_c, 0, 33, 64
1, 12536, Note_on_c, 0, 31, 94
1, 12536, Note_off_c, 0, 32, 64
1, 12536, Note_on_c, 0, 73, 12
1, 12538, Note_on_c, 0, 30, 82
1, 12538, Note_off_c, 0, 31, 64
1, 12541, Note_off_c, 0, 30, 64
1, 12541, Note_off_c, 0, 73, 64
1, 12541, Note_on_c, 0, 76, 21
1, 12542, Note_on_c, 0, 41, 68
1, 12542, Note_on_c, 0, 64, 31
1, 12542, Note_on_c, 0, 79, 17
1, 12543, Note_on_c, 0, 31, 73
1, 12543, Note_off_c, 0, 41, 64
1, 12543, Note_on_c, 0, 77, 16
1, 12543, Note_on_c, 0, 83, 9
1, 12544, Note_on_c, 0, 30, 79
1, 12544, Note_off_c, 0, 31, 64
1, 12544, Note_off_c, 0, 76, 64
1, 12545, Note_on_c, 0, 29, 79
1, 12545, Note_off_c, 0, 30, 64
1, 12545, Note_on_c, 0, 49, 58
1, 12545, Note_off_c, 0, 64, 64
1, 12545, Note_on_c, 0, 74, 31
1, 12546, Note_off_c, 0, 29, 64
1, 12546, Note_on_c, 0, 30, 76
1, 12546, Note_off_c, 0, 66, 64
1, 12546, Note_off_c, 0, 77, 64
1, 12546, Note_off_c, 0, 79, 64
1, 12547, Note_off_c, 0, 83, 64
1, 12548, Note_on_c, 0, 29, 74
1, 12548, Note_off_c, 0, 30, 64
1, 12548, Note_on_c, 0, 48, 54
1, 12548, Note_off_c, 0, 49, 64
1, 12548, Note_off_c, 0, 74, 64
1, 12548, Note_on_c, 0, 75, 30
1, 12549, Note_on_c, 0, 71, 25
1, 12550, Note_off_c, 0, 48, 64
1, 12550, Note_on_c, 0, 73, 40
1, 12550, Note_off_c, 0, 75, 64
1, 12550, Note_on_c, 0, 76, 27
1, 12551, Note_on_c, 0, 63, 30
1, 12552, Note_off_c, 0, 29, 64
1, 12552, Note_on_c, 0, 30, 79
1, 12552, Note_on_c, 0, 61, 29
1, 12552, Note_on_c, 0, 68, 26
1, 12552, Note_off_c, 0, 71, 64
1, 12553, Note_off_c, 0, 63, 64
1, 12553, Note_off_c, 0, 76, 64
1, 12554, Note_off_c, 0, 61, 64
1, 12554, Note_on_c, 0, 63, 31
1, 12554, Note_on_c, 0, 76, 28
1, 12555, Note_on_c, 0, 29, 79
1, 12555, Note_off_c, 0, 30, 64
1, 12555, Note_off_c, 0, 68, 64
1, 12557, Note_off_c, 0, 29, 64
1, 12557, Note_on_c, 0, 30, 73
1, 12557, Note_off_c, 0, 63, 64
1, 12558, Note_off_c, 0, 30, 64
1, 12558, Note_on_c, 0, 33, 71
1, 12558, Note_on_c, 0, 54, 37
1, 12558, Note_off_c, 0, 73, 64
1, 12559, Note_off_c, 0, 33, 64
1, 12559, Note_on_c, 0, 35, 67
1, 12559, Note_on_c, 0, 73, 46
1, 12559, Note_off_c, 0, 76, 64
1, 12559, Note_on_c, 0, 77, 38
1, 12559, Note_on_c, 0, 79, 38
1, 12559, Note_on_c, 0, 83, 31
1, 12559, Note_on_c, 0, 84, 28
1, 12559, Note_on_c, 0, 86, 31
1, 12559, Note_on_c, 0, 87, 30
1, 12559, Note_on_c, 0, 88, 31
1, 12559, Note_on_c, 0, 90, 30
1, 12559, Note_on_c, 0, 92, 26
1, 12559, Note_on_c, 0, 93, 24
1, 12559, Note_on_c, 0, 94, 22
1, 12560, Note_off_c, 0, 35, 64
1, 12560, Note_off_c, 0, 54, 64
1, 12560, Note_on_c, 0, 70, 43
1, 12560, Note_on_c, 0, 81, 33
1, 12561, Note_on_c, 0, 53, 70
1, 12561, Note_on_c, 0, 67, 44
1, 12561, Note_off_c, 0, 77, 64
1, 12561, Note_on_c, 0, 78, 32
1, 12561, Note_off_c, 0, 87, 64
1, 12562, Note_on_c, 0, 48, 83
1, 12562, Note_off_c, 0, 53, 64
1, 12562, Note_off_c, 0, 79, 64
1, 12562, Note_off_c, 0, 81, 64
1, 12562, Note_off_c, 0, 83, 64
1, 12562, Note_off_c, 0, 84, 64
1, 12562, Note_off_c, 0, 90, 64
1, 12562, Note_off_c, 0, 92, 64
1, 12562, Note_off_c, 0, 93, 64
1, 12562, Note_off_c, 0, 94, 64
1, 12563, Note_on_c, 0, 45, 93
1, 12563, Note_off_c, 0, 48, 64
1, 12563, Note_on_c, 0, 66, 17
1, 12563, Note_off_c, 0, 67, 64
1, 12563, Note_off_c, 0, 70, 64
1, 12563, Note_off_c, 0, 86, 64
1, 12564, Note_on_c, 0, 42, 99
1, 12564, Note_off_c, 0, 45, 64
1, 12564, Note_off_c, 0, 88, 64
1, 12565, Note_on_c, 0, 40, 99
1, 12565, Note_off_c, 0, 42, 64
1, 12565, Note_off_c, 0, 78, 64
1, 12566, Note_on_c, 0, 38, 98
1, 12566, Note_off_c, 0, 40, 64
1, 12567, Note_on_c, 0, 37, 98
1, 12567, Note_off_c, 0, 38, 64
1, 12567, Note_off_c, 0, 73, 64
1, 12568, Note_on_c, 0, 35, 97
1, 12568, Note_off_c, 0, 37, 64
1, 12569, Note_on_c, 0, 34, 96
1, 12569, Note_off_c, 0, 35, 64
1, 12570, Note_on_c, 0, 33, 96
1, 12570, Note_off_c, 0, 34, 64
1, 12570, Note_on_c, 0, 48, 33
1, 12570, Note_off_c, 0, 66, 64
1, 12572, Note_on_c, 0, 32, 96
1, 12572, Note_off_c, 0, 33, 64
1, 12572, Note_off_c, 0, 48, 64
1, 12572, Note_on_c, 0, 73, 25
1, 12573, Note_on_c, 0, 31, 95
1, 12573, Note_off_c, 0, 32, 64
1, 12574, Note_on_c, 0, 74, 29
1, 12576, Note_on_c, 0, 30, 76
1, 12576, Note_off_c, 0, 31, 64
1, 12577, Note_on_c, 0, 78, 23
1, 12578, Note_off_c, 0, 30, 64
1, 12578, Note_off_c, 0, 74, 64
1, 12578, Note_on_c, 0, 75, 32
1, 12579, Note_off_c, 0, 73, 64
1, 12580, Note_on_c, 0, 31, 78
1, 12580, Note_on_c, 0, 66, 34
1, 12580, Note_on_c, 0, 68, 21
1, 12580, Note_on_c, 0, 79, 10
1, 12582, Note_on_c, 0, 30, 80
1, 12582, Note_off_c, 0, 31, 64
1, 12583, Note_off_c, 0, 68, 64
1, 12583, Note_on_c, 0, 69, 29
1, 12583, Note_off_c, 0, 79, 64
1, 12584, Note_on_c, 0, 61, 35
1, 12585, Note_off_c, 0, 78, 64
1, 12586, Note_on_c, 0, 29, 74
1, 12586, Note_off_c, 0, 30, 64
1, 12586, Note_off_c, 0, 69, 64
1, 12586, Note_on_c, 0, 70, 26
1, 12587, Note_off_c, 0, 75, 64
1, 12587, Note_on_c, 0, 76, 29
1, 12589, Note_off_c, 0, 29, 64
1, 12589, Note_on_c, 0, 30, 73
1, 12589, Note_on_c, 0, 75, 37
1, 12589, Note_off_c, 0, 76, 64
1, 12590, Note_off_c, 0, 30, 64
1, 12590, Note_on_c, 0, 31, 77
1, 12590, Note_off_c, 0, 70, 64
1, 12591, Note_on_c, 0, 30, 79
1, 12591, Note_off_c, 0, 31, 64
1, 12591, Note_off_c, 0, 75, 64
1, 12592, Note_on_c, 0, 29, 79
1, 12592, Note_off_c, 0, 30, 64
1, 12592, Note_on_c, 0, 49, 58
1, 12592, Note_on_c, 0, 63, 20
1, 12592, Note_on_c, 0, 70, 44
1, 12593, Note_off_c, 0, 29, 64
1, 12593, Note_on_c, 0, 30, 77
1, 12594, Note_off_c, 0, 61, 64
1, 12595, Note_on_c, 0, 29, 70
1, 12595, Note_off_c, 0, 30, 64
1, 12595, Note_off_c, 0, 49, 64
1, 12595, Note_on_c, 0, 76, 35
1, 12596, Note_off_c, 0, 29, 64
1, 12596, Note_on_c, 0, 34, 70
1, 12596, Note_off_c, 0, 63, 64
1, 12596, Note_off_c, 0, 66, 64
1, 12596, Note_on_c, 0, 67, 35
1, 12596, Note_on_c, 0, 78, 37
1, 12597, Note_off_c, 0, 34, 64
1, 12597, Note_on_c, 0, 73, 41
1, 12597, Note_on_c, 0, 80, 32
1, 12597, Note_on_c, 0, 81, 34
1, 12597, Note_on_c, 0, 83, 31
1, 12598, Note_off_c, 0, 67, 64
1, 12599, Note_on_c, 0, 51, 78
1, 12599, Note_off_c, 0, 80, 64
1, 12599, Note_off_c, 0, 81, 64
1, 12600, Note_on_c, 0, 46, 88
1, 12600, Note_off_c, 0, 51, 64
1, 12601, Note_on_c, 0, 43, 95
1, 12601, Note_off_c, 0, 46, 64
1, 12601, Note_off_c, 0, 70, 64
1, 12601, Note_off_c, 0, 76, 64
1, 12601, Note_off_c, 0, 83, 64
1, 12602, Note_on_c, 0, 41, 100
1, 12602, Note_off_c, 0, 43, 64
1, 12603, Note_on_c, 0, 39, 97
1, 12603, Note_off_c, 0, 41, 64
1, 12604, Note_on_c, 0, 37, 98
1, 12604, Note_off_c, 0, 39, 64
1, 12604, Note_off_c, 0, 78, 64
1, 12605, Note_on_c, 0, 36, 97
1, 12605, Note_off_c, 0, 37, 64
1, 12606, Note_on_c, 0, 35, 96
1, 12606, Note_off_c, 0, 36, 64
1, 12606, Note_on_c, 0, 64, 25
1, 12607, Note_on_c, 0, 34, 96
1, 12607, Note_off_c, 0, 35, 64
1, 12608, Note_on_c, 0, 33, 95
1, 12608, Note_off_c, 0, 34, 64
1, 12608, Note_on_c, 0, 76, 26
1, 12609, Note_on_c, 0, 32, 96
1, 12609, Note_off_c, 0, 33, 64
1, 12609, Note_on_c, 0, 71, 19
1, 12611, Note_on_c, 0, 31, 93
1, 12611, Note_off_c, 0, 32, 64
1, 12611, Note_off_c, 0, 73, 64
1, 12612, Note_on_c, 0, 73, 33
1, 12613, Note_on_c, 0, 30, 82
1, 12613, Note_off_c, 0, 31, 64
1, 12614, Note_off_c, 0, 71, 64
1, 12615, Note_on_c, 0, 80, 16
1, 12616, Note_off_c, 0, 30, 64
1, 12616, Note_off_c, 0, 73, 64
1, 12617, Note_on_c, 0, 36, 69
1, 12617, Note_on_c, 0, 63, 24
1, 12617, Note_off_c, 0, 64, 64
1, 12617, Note_on_c, 0, 70, 35
1, 12617, Note_on_c, 0, 73, 36
1, 12617, Note_on_c, 0, 81, 15
1, 12617, Note_on_c, 0, 87, 11
1, 12618, Note_on_c, 0, 31, 75
1, 12618, Note_off_c, 0, 36, 64
1, 12618, Note_off_c, 0, 76, 64
1, 12618, Note_on_c, 0, 79, 16
1, 12618, Note_off_c, 0, 80, 64
1, 12619, Note_on_c, 0, 30, 81
1, 12619, Note_off_c, 0, 31, 64
1, 12619, Note_on_c, 0, 54, 52
1, 12619, Note_on_c, 0, 67, 30
1, 12619, Note_on_c, 0, 76, 30
1, 12620, Note_on_c, 0, 29, 81
1, 12620, Note_off_c, 0, 30, 64
1, 12620, Note_off_c, 0, 81, 64
1, 12621, Note_off_c, 0, 54, 64
1, 12621, Note_on_c, 0, 66, 32
1, 12621, Note_off_c, 0, 67, 64
1, 12622, Note_off_c, 0, 29, 64
1, 12622, Note_on_c, 0, 30, 75
1, 12622, Note_on_c, 0, 54, 45
1, 12622, Note_off_c, 0, 63, 64
1, 12622, Note_off_c, 0, 79, 64
1, 12622, Note_on_c, 0, 80, 27
1, 12622, Note_off_c, 0, 87, 64
1, 12622, Note_on_c, 0, 93, 10
1, 12623, Note_on_c, 0, 48, 51
1, 12623, Note_on_c, 0, 61, 36
1, 12623, Note_off_c, 0, 76, 64
1, 12624, Note_on_c, 0, 29, 73
1, 12624, Note_off_c, 0, 30, 64
1, 12624, Note_off_c, 0, 73, 64
1, 12624, Note_on_c, 0, 74, 11
1, 12624, Note_on_c, 0, 91, 12
1, 12625, Note_off_c, 0, 48, 64
1, 12625, Note_on_c, 0, 78, 34
1, 12626, Note_off_c, 0, 54, 64
1, 12626, Note_on_c, 0, 86, 22
1, 12627, Note_off_c, 0, 29, 64
1, 12627, Note_on_c, 0, 30, 75
1, 12627, Note_on_c, 0, 72, 33
1, 12627, Note_off_c, 0, 74, 64
1, 12627, Note_off_c, 0, 91, 64
1, 12628, Note_off_c, 0, 30, 64
1, 12628, Note_on_c, 0, 31, 79
1, 12628, Note_off_c, 0, 66, 64
1, 12628, Note_on_c, 0, 74, 42
1, 12628, Note_off_c, 0, 80, 64
1, 12628, Note_on_c, 0, 81, 17
1, 12628, Note_on_c, 0, 85, 21
1, 12628, Note_off_c, 0, 93, 64
1, 12629, Note_on_c, 0, 30, 80
1, 12629, Note_off_c, 0, 31, 64
1, 12629, Note_on_c, 0, 63, 29
1, 12629, Note_on_c, 0, 68, 47
1, 12629, Note_off_c, 0, 72, 64
1, 12630, Note_on_c, 0, 29, 78
1, 12630, Note_off_c, 0, 30, 64
1, 12630, Note_on_c, 0, 82, 38
1, 12631, Note_off_c, 0, 29, 64
1, 12631, Note_on_c, 0, 30, 76
1, 12631, Note_off_c, 0, 63, 64
1, 12631, Note_on_c, 0, 76, 30
1, 12631, Note_off_c, 0, 81, 64
1, 12631, Note_off_c, 0, 85, 64
1, 12631, Note_off_c, 0, 86, 64
1, 12632, Note_on_c, 0, 73, 43
1, 12633, Note_off_c, 0, 30, 64
1, 12633, Note_on_c, 0, 33, 72
1, 12633, Note_off_c, 0, 78, 64
1, 12633, Note_on_c, 0, 79, 38
1, 12634, Note_off_c, 0, 33, 64
1, 12634, Note_on_c, 0, 35, 66
1, 12634, Note_off_c, 0, 61, 64
1, 12634, Note_off_c, 0, 70, 64
1, 12634, Note_off_c, 0, 74, 64
1, 12634, Note_on_c, 0, 75, 48
1, 12634, Note_on_c, 0, 89, 27
1, 12634, Note_on_c, 0, 90, 26
1, 12634, Note_on_c, 0, 92, 24
1, 12634, Note_on_c, 0, 93, 22
1, 12634, Note_on_c, 0, 95, 24
1, 12634, Note_on_c, 0, 98, 23
1, 12635, Note_off_c, 0, 35, 64
1, 12635, Note_off_c, 0, 76, 64
1, 12635, Note_on_c, 0, 77, 37
1, 12635, Note_on_c, 0, 84, 37
1, 12636, Note_on_c, 0, 54, 71
1, 12636, Note_on_c, 0, 64, 50
1, 12636, Note_off_c, 0, 68, 64
1, 12636, Note_on_c, 0, 69, 41
1, 12636, Note_off_c, 0, 73, 64
1, 12637, Note_on_c, 0, 48, 84
1, 12637, Note_off_c, 0, 54, 64
1, 12637, Note_off_c, 0, 77, 64
1, 12637, Note_off_c, 0, 79, 64
1, 12637, Note_off_c, 0, 82, 64
1, 12637, Note_off_c, 0, 84, 64
1, 12637, Note_off_c, 0, 89, 64
1, 12637, Note_off_c, 0, 90, 64
1, 12637, Note_off_c, 0, 92, 64
1, 12637, Note_off_c, 0, 93, 64
1, 12637, Note_off_c, 0, 95, 64
1, 12637, Note_off_c, 0, 98, 64
1, 12638, Note_on_c, 0, 45, 94
1, 12638, Note_off_c, 0, 48, 64
1, 12638, Note_off_c, 0, 64, 64
1, 12638, Note_off_c, 0, 69, 64
1, 12638, Note_off_c, 0, 75, 64
1, 12638, Note_on_c, 0, 76, 11
1, 12638, Note_on_c, 0, 96, 14
1, 12639, Note_on_c, 0, 42, 100
1, 12639, Note_off_c, 0, 45, 64
1, 12640, Note_on_c, 0, 40, 99
1, 12640, Note_off_c, 0, 42, 64
1, 12641, Note_on_c, 0, 38, 98
1, 12641, Note_off_c, 0, 40, 64
1, 12641, Note_on_c, 0, 70, 28
1, 12641, Note_off_c, 0, 76, 64
1, 12641, Note_off_c, 0, 96, 64
1, 12642, Note_on_c, 0, 37, 98
1, 12642, Note_off_c, 0, 38, 64
1, 12643, Note_on_c, 0, 35, 97
1, 12643, Note_off_c, 0, 37, 64
1, 12643, Note_on_c, 0, 76, 14
1, 12644, Note_on_c, 0, 34, 96
1, 12644, Note_off_c, 0, 35, 64
1, 12644, Note_on_c, 0, 66, 38
1, 12644, Note_on_c, 0, 92, 24
1, 12644, Note_on_c, 0, 93, 17
1, 12644, Note_on_c, 0, 94, 19
1, 12645, Note_on_c, 0, 33, 96
1, 12645, Note_off_c, 0, 34, 64
1, 12646, Note_on_c, 0, 32, 96
1, 12646, Note_off_c, 0, 33, 64
1, 12646, Note_on_c, 0, 74, 9
1, 12647, Note_off_c, 0, 76, 64
1, 12647, Note_on_c, 0, 87, 18
1, 12647, Note_on_c, 0, 91, 29
1, 12647, Note_off_c, 0, 93, 64
1, 12647, Note_on_c, 0, 95, 16
1, 12648, Note_on_c, 0, 31, 95
1, 12648, Note_off_c, 0, 32, 64
1, 12648, Note_on_c, 0, 90, 16
1, 12649, Note_on_c, 0, 54, 28
1, 12649, Note_off_c, 0, 74, 64
1, 12649, Note_on_c, 0, 85, 21
1, 12649, Note_on_c, 0, 89, 31
1, 12650, Note_on_c, 0, 30, 86
1, 12650, Note_off_c, 0, 31, 64
1, 12650, Note_on_c, 0, 93, 25
1, 12650, Note_on_c, 0, 96, 10
1, 12651, Note_on_c, 0, 76, 30
1, 12651, Note_on_c, 0, 81, 21
1, 12651, Note_off_c, 0, 92, 64
1, 12652, Note_off_c, 0, 90, 64
1, 12652, Note_on_c, 0, 92, 30
1, 12652, Note_off_c, 0, 95, 64
1, 12653, Note_off_c, 0, 30, 64
1, 12653, Note_on_c, 0, 86, 33
1, 12653, Note_on_c, 0, 95, 24
1, 12654, Note_on_c, 0, 37, 66
1, 12654, Note_off_c, 0, 54, 64
1, 12654, Note_off_c, 0, 70, 64
1, 12654, Note_off_c, 0, 85, 64
1, 12654, Note_off_c, 0, 94, 64
1, 12654, Note_off_c, 0, 96, 64
1, 12655, Note_on_c, 0, 31, 72
1, 12655, Note_off_c, 0, 37, 64
1, 12655, Note_on_c, 0, 54, 56
1, 12655, Note_on_c, 0, 61, 54
1, 12655, Note_on_c, 0, 70, 46
1, 12655, Note_on_c, 0, 77, 28
1, 12655, Note_on_c, 0, 78, 40
1, 12655, Note_on_c, 0, 80, 40
1, 12655, Note_on_c, 0, 94, 19
1, 12656, Note_on_c, 0, 30, 78
1, 12656, Note_off_c, 0, 31, 64
1, 12656, Note_on_c, 0, 49, 59
1, 12656, Note_off_c, 0, 66, 64
1, 12656, Note_off_c, 0, 76, 64
1, 12656, Note_off_c, 0, 81, 64
1, 12656, Note_off_c, 0, 87, 64
1, 12656, Note_off_c, 0, 95, 64
1, 12657, Note_on_c, 0, 29, 79
1, 12657, Note_off_c, 0, 30, 64
1, 12657, Note_off_c, 0, 54, 64
1, 12657, Note_on_c, 0, 84, 18
1, 12657, Note_on_c, 0, 87, 29
1, 12658, Note_off_c, 0, 49, 64
1, 12658, Note_on_c, 0, 66, 51
1, 12659, Note_off_c, 0, 86, 64
1, 12660, Note_off_c, 0, 29, 64
1, 12660, Note_on_c, 0, 30, 75
1, 12661, Note_on_c, 0, 29, 73
1, 12661, Note_off_c, 0, 30, 64
1, 12661, Note_on_c, 0, 76, 39
1, 12661, Note_off_c, 0, 77, 64
1, 12661, Note_off_c, 0, 93, 64
1, 12662, Note_off_c, 0, 29, 64
1, 12662, Note_on_c, 0, 30, 71
1, 12662, Note_off_c, 0, 84, 64
1, 12662, Note_off_c, 0, 87, 64
1, 12662, Note_off_c, 0, 89, 64
1, 12662, Note_off_c, 0, 91, 64
1, 12662, Note_off_c, 0, 92, 64
1, 12663, Note_on_c, 0, 29, 71
1, 12663, Note_off_c, 0, 30, 64
1, 12663, Note_off_c, 0, 61, 64
1, 12663, Note_on_c, 0, 91, 24
1, 12664, Note_off_c, 0, 29, 64
1, 12664, Note_on_c, 0, 30, 79
1, 12664, Note_on_c, 0, 54, 52
1, 12664, Note_on_c, 0, 61, 43
1, 12664, Note_on_c, 0, 64, 35
1, 12664, Note_on_c, 0, 84, 29
1, 12664, Note_on_c, 0, 86, 27
1, 12664, Note_on_c, 0, 87, 28
1, 12665, Note_on_c, 0, 49, 59
1, 12665, Note_on_c, 0, 89, 29
1, 12666, Note_off_c, 0, 54, 64
1, 12666, Note_off_c, 0, 64, 64
1, 12666, Note_on_c, 0, 83, 38
1, 12666, Note_on_c, 0, 93, 11
1, 12667, Note_on_c, 0, 29, 79
1, 12667, Note_off_c, 0, 30, 64
1, 12667, Note_off_c, 0, 76, 64
1, 12667, Note_off_c, 0, 84, 64
1, 12667, Note_off_c, 0, 87, 64
1, 12667, Note_off_c, 0, 91, 64
1, 12667, Note_off_c, 0, 94, 64
1, 12668, Note_off_c, 0, 29, 64
1, 12668, Note_on_c, 0, 30, 77
1, 12668, Note_off_c, 0, 49, 64
1, 12668, Note_off_c, 0, 86, 64
1, 12668, Note_off_c, 0, 89, 64
1, 12669, Note_on_c, 0, 76, 46
1, 12669, Note_off_c, 0, 93, 64
1, 12670, Note_on_c, 0, 54, 39
1, 12670, Note_on_c, 0, 79, 40
1, 12670, Note_on_c, 0, 87, 34
1, 12671, Note_off_c, 0, 30, 64
1, 12671, Note_on_c, 0, 35, 69
1, 12671, Note_off_c, 0, 61, 64
1, 12671, Note_off_c, 0, 66, 64
1, 12671, Note_on_c, 0, 67, 53
1, 12671, Note_on_c, 0, 72, 51
1, 12671, Note_on_c, 0, 74, 37
1, 12671, Note_off_c, 0, 78, 64
1, 12671, Note_on_c, 0, 89, 32
1, 12671, Note_on_c, 0, 90, 30
1, 12671, Note_on_c, 0, 93, 30
1, 12672, Note_off_c, 0, 35, 64
1, 12672, Note_off_c, 0, 54, 64
1, 12672, Note_on_c, 0, 55, 65
1, 12673, Note_on_c, 0, 66, 53
1, 12673, Note_off_c, 0, 67, 64
1, 12673, Note_off_c, 0, 70, 64
1, 12673, Note_off_c, 0, 79, 64
1, 12674, Note_on_c, 0, 51, 77
1, 12674, Note_off_c, 0, 55, 64
1, 12674, Note_on_c, 0, 68, 32
1, 12674, Note_off_c, 0, 76, 64
1, 12674, Note_on_c, 0, 77, 19
1, 12674, Note_on_c, 0, 79, 35
1, 12674, Note_off_c, 0, 80, 64
1, 12674, Note_off_c, 0, 83, 64
1, 12675, Note_on_c, 0, 46, 89
1, 12675, Note_off_c, 0, 51, 64
1, 12675, Note_off_c, 0, 66, 64
1, 12675, Note_off_c, 0, 72, 64
1, 12675, Note_on_c, 0, 81, 26
1, 12675, Note_off_c, 0, 87, 64
1, 12675, Note_on_c, 0, 88, 24
1, 12675, Note_off_c, 0, 93, 64
1, 12676, Note_on_c, 0, 42, 95
1, 12676, Note_off_c, 0, 46, 64
1, 12676, Note_off_c, 0, 74, 64
1, 12676, Note_on_c, 0, 75, 35
1, 12676, Note_off_c, 0, 79, 64
1, 12676, Note_on_c, 0, 80, 34
1, 12676, Note_off_c, 0, 89, 64
1, 12677, Note_on_c, 0, 41, 99
1, 12677, Note_off_c, 0, 42, 64
1, 12677, Note_off_c, 0, 77, 64
1, 12678, Note_on_c, 0, 39, 97
1, 12678, Note_off_c, 0, 41, 64
1, 12678, Note_on_c, 0, 56, 36
1, 12678, Note_off_c, 0, 81, 64
1, 12678, Note_on_c, 0, 82, 35
1, 12678, Note_on_c, 0, 85, 37
1, 12678, Note_off_c, 0, 90, 64
1, 12679, Note_on_c, 0, 37, 98
1, 12679, Note_off_c, 0, 39, 64
1, 12679, Note_on_c, 0, 79, 31
1, 12680, Note_on_c, 0, 36, 97
1, 12680, Note_off_c, 0, 37, 64
1, 12680, Note_on_c, 0, 81, 43
1, 12680, Note_on_c, 0, 84, 37
1, 12680, Note_on_c, 0, 86, 30
1, 12681, Note_on_c, 0, 35, 96
1, 12681, Note_off_c, 0, 36, 64
1, 12681, Note_off_c, 0, 79, 64
1, 12681, Note_off_c, 0, 80, 64
1, 12681, Note_off_c, 0, 82, 64
1, 12681, Note_off_c, 0, 85, 64
1, 12681, Note_on_c, 0, 89, 20
1, 12681, Note_on_c, 0, 92, 17
1, 12682, Note_on_c, 0, 34, 95
1, 12682, Note_off_c, 0, 35, 64
1, 12682, Note_off_c, 0, 56, 64
1, 12683, Note_on_c, 0, 33, 95
1, 12683, Note_off_c, 0, 34, 64
1, 12683, Note_on_c, 0, 56, 42
1, 12683, Note_off_c, 0, 88, 64
1, 12684, Note_on_c, 0, 32, 96
1, 12684, Note_off_c, 0, 33, 64
1, 12684, Note_off_c, 0, 92, 64
1, 12685, Note_on_c, 0, 31, 95
1, 12685, Note_off_c, 0, 32, 64
1, 12685, Note_on_c, 0, 73, 27
1, 12685, Note_on_c, 0, 80, 36
1, 12685, Note_on_c, 0, 83, 31
1, 12685, Note_off_c, 0, 84, 64
1, 12685, Note_off_c, 0, 89, 64
1, 12686, Note_on_c, 0, 62, 30
1, 12686, Note_on_c, 0, 66, 45
1, 12686, Note_off_c, 0, 68, 64
1, 12686, Note_on_c, 0, 88, 10
1, 12687, Note_off_c, 0, 80, 64
1, 12687, Note_off_c, 0, 81, 64
1, 12687, Note_on_c, 0, 82, 27
1, 12688, Note_on_c, 0, 30, 80
1, 12688, Note_off_c, 0, 31, 64
1, 12688, Note_on_c, 0, 61, 43
1, 12688, Note_off_c, 0, 62, 64
1, 12688, Note_off_c, 0, 73, 64
1, 12688, Note_off_c, 0, 83, 64
1, 12688, Note_on_c, 0, 84, 28
1, 12688, Note_off_c, 0, 86, 64
1, 12689, Note_on_c, 0, 72, 28
1, 12689, Note_on_c, 0, 74, 32
1, 12689, Note_on_c, 0, 80, 35
1, 12689, Note_off_c, 0, 88, 64
1, 12690, Note_off_c, 0, 30, 64
1, 12690, Note_on_c, 0, 77, 36
1, 12690, Note_on_c, 0, 79, 34
1, 12690, Note_off_c, 0, 82, 64
1, 12690, Note_on_c, 0, 83, 24
1, 12691, Note_on_c, 0, 85, 23
1, 12691, Note_on_c, 0, 94, 10
1, 12692, Note_on_c, 0, 36, 70
1, 12692, Note_off_c, 0, 56, 64
1, 12692, Note_off_c, 0, 72, 64
1, 12692, Note_off_c, 0, 74, 64
1, 12692, Note_off_c, 0, 79, 64
1, 12693, Note_on_c, 0, 31, 76
1, 12693, Note_off_c, 0, 36, 64
1, 12693, Note_off_c, 0, 77, 64
1, 12693, Note_on_c, 0, 81, 13
1, 12694, Note_on_c, 0, 30, 78
1, 12694, Note_off_c, 0, 31, 64
1, 12694, Note_on_c, 0, 49, 59
1, 12694, Note_on_c, 0, 70, 47
1, 12694, Note_off_c, 0, 75, 64
1, 12694, Note_on_c, 0, 77, 35
1, 12694, Note_off_c, 0, 80, 64
1, 12694, Note_off_c, 0, 83, 64
1, 12694, Note_off_c, 0, 84, 64
1, 12694, Note_off_c, 0, 94, 64
1, 12695, Note_on_c, 0, 29, 78
1, 12695, Note_off_c, 0, 30, 64
1, 12695, Note_on_c, 0, 80, 27
1, 12696, Note_off_c, 0, 49, 64
1, 12696, Note_on_c, 0, 74, 36
1, 12696, Note_off_c, 0, 81, 64
1, 12696, Note_on_c, 0, 83, 13
1, 12697, Note_off_c, 0, 29, 64
1, 12697, Note_on_c, 0, 30, 74
1, 12697, Note_on_c, 0, 76, 37
1, 12698, Note_on_c, 0, 29, 73
1, 12698, Note_off_c, 0, 30, 64
1, 12698, Note_on_c, 0, 48, 51
1, 12698, Note_off_c, 0, 61, 64
1, 12698, Note_off_c, 0, 77, 64
1, 12698, Note_on_c, 0, 84, 23
1, 12699, Note_on_c, 0, 73, 41
1, 12699, Note_off_c, 0, 76, 64
1, 12699, Note_off_c, 0, 83, 64
1, 12699, Note_off_c, 0, 85, 64
1, 12700, Note_off_c, 0, 48, 64
1, 12700, Note_off_c, 0, 74, 64
1, 12700, Note_on_c, 0, 77, 42
1, 12700, Note_off_c, 0, 80, 64
1, 12701, Note_off_c, 0, 29, 64
1, 12701, Note_on_c, 0, 30, 78
1, 12701, Note_on_c, 0, 79, 38
1, 12702, Note_on_c, 0, 87, 21
1, 12703, Note_on_c, 0, 63, 29
1, 12703, Note_on_c, 0, 75, 41
1, 12703, Note_on_c, 0, 76, 39
1, 12703, Note_on_c, 0, 83, 25
1, 12703, Note_off_c, 0, 84, 64
1, 12704, Note_on_c, 0, 29, 79
1, 12704, Note_off_c, 0, 30, 64
1, 12704, Note_on_c, 0, 49, 58
1, 12704, Note_off_c, 0, 73, 64
1, 12704, Note_off_c, 0, 77, 64
1, 12705, Note_off_c, 0, 29, 64
1, 12705, Note_on_c, 0, 30, 78
1, 12705, Note_on_c, 0, 73, 46
1, 12705, Note_on_c, 0, 81, 35
1, 12705, Note_on_c, 0, 84, 39
1, 12705, Note_off_c, 0, 87, 64
1, 12706, Note_on_c, 0, 48, 56
1, 12706, Note_off_c, 0, 49, 64
1, 12706, Note_off_c, 0, 76, 64
1, 12706, Note_off_c, 0, 79, 64
1, 12707, Note_off_c, 0, 63, 64
1, 12707, Note_off_c, 0, 70, 64
1, 12707, Note_on_c, 0, 74, 48
1, 12707, Note_off_c, 0, 75, 64
1, 12707, Note_on_c, 0, 79, 37
1, 12707, Note_on_c, 0, 82, 40
1, 12707, Note_off_c, 0, 83, 64
1, 12708, Note_off_c, 0, 30, 64
1, 12708, Note_on_c, 0, 34, 71
1, 12708, Note_off_c, 0, 48, 64
1, 12709, Note_off_c, 0, 34, 64
1, 12709, Note_off_c, 0, 66, 64
1, 12709, Note_off_c, 0, 79, 64
1, 12709, Note_on_c, 0, 80, 33
1, 12709, Note_on_c, 0, 90, 29
1, 12709, Note_on_c, 0, 91, 34
1, 12710, Note_on_c, 0, 66, 59
1, 12710, Note_on_c, 0, 72, 55
1, 12710, Note_off_c, 0, 73, 64
1, 12710, Note_off_c, 0, 74, 64
1, 12710, Note_on_c, 0, 76, 51
1, 12710, Note_off_c, 0, 81, 64
1, 12711, Note_on_c, 0, 53, 72
1, 12711, Note_on_c, 0, 69, 38
1, 12711, Note_on_c, 0, 74, 36
1, 12712, Note_on_c, 0, 48, 84
1, 12712, Note_off_c, 0, 53, 64
1, 12712, Note_off_c, 0, 91, 64
1, 12713, Note_on_c, 0, 45, 94
1, 12713, Note_off_c, 0, 48, 64
1, 12713, Note_off_c, 0, 69, 64
1, 12713, Note_on_c, 0, 71, 39
1, 12713, Note_off_c, 0, 72, 64
1, 12713, Note_off_c, 0, 74, 64
1, 12713, Note_on_c, 0, 75, 33
1, 12713, Note_off_c, 0, 76, 64
1, 12714, Note_on_c, 0, 42, 99
1, 12714, Note_off_c, 0, 45, 64
1, 12714, Note_off_c, 0, 84, 64
1, 12715, Note_on_c, 0, 40, 97
1, 12715, Note_off_c, 0, 42, 64
1, 12715, Note_on_c, 0, 62, 30
1, 12715, Note_on_c, 0, 70, 37
1, 12715, Note_off_c, 0, 71, 64
1, 12715, Note_on_c, 0, 73, 36
1, 12715, Note_off_c, 0, 75, 64
1, 12716, Note_on_c, 0, 38, 98
1, 12716, Note_off_c, 0, 40, 64
1, 12716, Note_on_c, 0, 84, 15
1, 12717, Note_on_c, 0, 36, 98
1, 12717, Note_off_c, 0, 38, 64
1, 12717, Note_on_c, 0, 61, 31
1, 12717, Note_off_c, 0, 62, 64
1, 12717, Note_on_c, 0, 72, 37
1, 12717, Note_off_c, 0, 73, 64
1, 12718, Note_on_c, 0, 35, 97
1, 12718, Note_off_c, 0, 36, 64
1, 12718, Note_on_c, 0, 81, 16
1, 12719, Note_on_c, 0, 34, 96
1, 12719, Note_off_c, 0, 35, 64
1, 12719, Note_off_c, 0, 72, 64
1, 12719, Note_on_c, 0, 73, 43
1, 12719, Note_off_c, 0, 80, 64
1, 12720, Note_on_c, 0, 33, 95
1, 12720, Note_off_c, 0, 34, 64
1, 12721, Note_on_c, 0, 32, 96
1, 12721, Note_off_c, 0, 33, 64
1, 12721, Note_off_c, 0, 81, 64
1, 12721, Note_off_c, 0, 84, 64
1, 12722, Note_on_c, 0, 80, 14
1, 12723, Note_on_c, 0, 31, 94
1, 12723, Note_off_c, 0, 32, 64
1, 12723, Note_off_c, 0, 70, 64
1, 12723, Note_off_c, 0, 90, 64
1, 12725, Note_on_c, 0, 30, 84
1, 12725, Note_off_c, 0, 31, 64
1, 12726, Note_on_c, 0, 70, 29
1, 12727, Note_on_c, 0, 86, 32
1, 12727, Note_on_c, 0, 87, 21
1, 12728, Note_off_c, 0, 30, 64
1, 12728, Note_off_c, 0, 61, 64
1, 12728, Note_off_c, 0, 70, 64
1, 12728, Note_on_c, 0, 72, 42
1, 12728, Note_off_c, 0, 73, 64
1, 12729, Note_on_c, 0, 42, 65
1, 12729, Note_on_c, 0, 73, 30
1, 12730, Note_on_c, 0, 31, 73
1, 12730, Note_off_c, 0, 42, 64
1, 12730, Note_on_c, 0, 70, 42
1, 12730, Note_on_c, 0, 77, 38
1, 12730, Note_off_c, 0, 82, 64
1, 12730, Note_on_c, 0, 88, 21
1, 12731, Note_on_c, 0, 30, 80
1, 12731, Note_off_c, 0, 31, 64
1, 12731, Note_off_c, 0, 66, 64
1, 12731, Note_off_c, 0, 72, 64
1, 12731, Note_off_c, 0, 80, 64
1, 12732, Note_on_c, 0, 29, 81
1, 12732, Note_off_c, 0, 30, 64
1, 12732, Note_on_c, 0, 61, 40
1, 12732, Note_off_c, 0, 73, 64
1, 12732, Note_on_c, 0, 76, 36
1, 12732, Note_on_c, 0, 80, 26
1, 12734, Note_off_c, 0, 29, 64
1, 12734, Note_on_c, 0, 30, 74
1, 12734, Note_on_c, 0, 67, 34
1, 12734, Note_off_c, 0, 76, 64
1, 12734, Note_off_c, 0, 88, 64
1, 12735, Note_on_c, 0, 78, 30
1, 12735, Note_off_c, 0, 80, 64
1, 12735, Note_on_c, 0, 85, 33
1, 12735, Note_off_c, 0, 86, 64
1, 12736, Note_on_c, 0, 29, 73
1, 12736, Note_off_c, 0, 30, 64
1, 12736, Note_off_c, 0, 67, 64
1, 12736, Note_on_c, 0, 69, 34
1, 12736, Note_off_c, 0, 70, 64
1, 12736, Note_on_c, 0, 75, 29
1, 12736, Note_off_c, 0, 77, 64
1, 12736, Note_on_c, 0, 80, 27
1, 12736, Note_off_c, 0, 87, 64
1, 12736, Note_on_c, 0, 88, 24
1, 12737, Note_on_c, 0, 84, 30
1, 12738, Note_off_c, 0, 61, 64
1, 12738, Note_on_c, 0, 74, 41
1, 12738, Note_on_c, 0, 77, 33
1, 12738, Note_on_c, 0, 91, 11
1, 12739, Note_off_c, 0, 29, 64
1, 12739, Note_on_c, 0, 30, 79
1, 12739, Note_on_c, 0, 54, 53
1, 12739, Note_on_c, 0, 67, 39
1, 12739, Note_off_c, 0, 80, 64
1, 12740, Note_on_c, 0, 49, 61
1, 12740, Note_off_c, 0, 69, 64
1, 12740, Note_on_c, 0, 70, 41
1, 12740, Note_off_c, 0, 77, 64
1, 12740, Note_off_c, 0, 78, 64
1, 12741, Note_off_c, 0, 54, 64
1, 12741, Note_on_c, 0, 63, 33
1, 12741, Note_off_c, 0, 67, 64
1, 12741, Note_on_c, 0, 72, 32
1, 12741, Note_off_c, 0, 75, 64
1, 12741, Note_on_c, 0, 76, 29
1, 12742, Note_on_c, 0, 29, 79
1, 12742, Note_off_c, 0, 30, 64
1, 12742, Note_off_c, 0, 84, 64
1, 12742, Note_off_c, 0, 91, 64
1, 12743, Note_off_c, 0, 72, 64
1, 12743, Note_on_c, 0, 73, 39
1, 12743, Note_off_c, 0, 76, 64
1, 12743, Note_on_c, 0, 77, 31
1, 12743, Note_off_c, 0, 88, 64
1, 12744, Note_off_c, 0, 29, 64
1, 12744, Note_on_c, 0, 30, 74
1, 12744, Note_on_c, 0, 84, 29
1, 12744, Note_on_c, 0, 87, 28
1, 12745, Note_off_c, 0, 30, 64
1, 12745, Note_on_c, 0, 31, 70
1, 12745, Note_off_c, 0, 49, 64
1, 12745, Note_on_c, 0, 54, 38
1, 12745, Note_on_c, 0, 60, 46
1, 12746, Note_off_c, 0, 31, 64
1, 12746, Note_on_c, 0, 35, 69
1, 12746, Note_off_c, 0, 63, 64
1, 12746, Note_on_c, 0, 78, 37
1, 12746, Note_on_c, 0, 80, 33
1, 12746, Note_on_c, 0, 83, 31
1, 12747, Note_off_c, 0, 35, 64
1, 12747, Note_off_c, 0, 54, 64
1, 12747, Note_on_c, 0, 55, 65
1, 12747, Note_off_c, 0, 74, 64
1, 12747, Note_on_c, 0, 75, 48
1, 12747, Note_off_c, 0, 77, 64
1, 12747, Note_on_c, 0, 81, 32
1, 12747, Note_on_c, 0, 89, 31
1, 12748, Note_off_c, 0, 60, 64
1, 12748, Note_off_c, 0, 80, 64
1, 12748, Note_off_c, 0, 85, 64
1, 12749, Note_on_c, 0, 49, 80
1, 12749, Note_off_c, 0, 55, 64
1, 12749, Note_off_c, 0, 73, 64
1, 12749, Note_off_c, 0, 78, 64
1, 12749, Note_off_c, 0, 84, 64
1, 12749, Note_off_c, 0, 87, 64
1, 12750, Note_on_c, 0, 45, 91
1, 12750, Note_off_c, 0, 49, 64
1, 12750, Note_on_c, 0, 66, 36
1, 12750, Note_off_c, 0, 75, 64
1, 12750, Note_on_c, 0, 80, 32
1, 12750, Note_off_c, 0, 81, 64
1, 12750, Note_off_c, 0, 83, 64
1, 12750, Note_off_c, 0, 89, 64
1, 12751, Note_on_c, 0, 42, 96
1, 12751, Note_off_c, 0, 45, 64
1, 12751, Note_off_c, 0, 70, 64
1, 12752, Note_on_c, 0, 41, 99
1, 12752, Note_off_c, 0, 42, 64
1, 12752, Note_on_c, 0, 76, 39
1, 12753, Note_on_c, 0, 39, 97
1, 12753, Note_off_c, 0, 41, 64
1, 12753, Note_on_c, 0, 71, 35
1, 12754, Note_on_c, 0, 37, 98
1, 12754, Note_off_c, 0, 39, 64
1, 12755, Note_on_c, 0, 36, 97
1, 12755, Note_off_c, 0, 37, 64
1, 12756, Note_on_c, 0, 35, 96
1, 12756, Note_off_c, 0, 36, 64
1, 12757, Note_on_c, 0, 34, 96
1, 12757, Note_off_c, 0, 35, 64
1, 12757, Note_on_c, 0, 64, 47
1, 12757, Note_on_c, 0, 79, 31
1, 12757, Note_off_c, 0, 80, 64
1, 12757, Note_on_c, 0, 86, 22
1, 12758, Note_on_c, 0, 33, 95
1, 12758, Note_off_c, 0, 34, 64
1, 12758, Note_off_c, 0, 66, 64
1, 12758, Note_on_c, 0, 90, 15
1, 12759, Note_on_c, 0, 32, 96
1, 12759, Note_off_c, 0, 33, 64
1, 12759, Note_on_c, 0, 80, 32
1, 12760, Note_on_c, 0, 31, 94
1, 12760, Note_off_c, 0, 32, 64
1, 12761, Note_off_c, 0, 79, 64
1, 12762, Note_on_c, 0, 78, 24
1, 12763, Note_on_c, 0, 30, 79
1, 12763, Note_off_c, 0, 31, 64
1, 12764, Note_on_c, 0, 75, 31
1, 12764, Note_on_c, 0, 79, 40
1, 12764, Note_on_c, 0, 82, 40
1, 12764, Note_on_c, 0, 84, 26
1, 12765, Note_off_c, 0, 30, 64
1, 12765, Note_off_c, 0, 80, 64
1, 12765, Note_off_c, 0, 90, 64
1, 12766, Note_on_c, 0, 73, 52
1, 12766, Note_off_c, 0, 75, 64
1, 12766, Note_off_c, 0, 76, 64
1, 12766, Note_off_c, 0, 78, 64
1, 12766, Note_on_c, 0, 88, 14
1, 12767, Note_on_c, 0, 36, 69
1, 12767, Note_on_c, 0, 54, 52
1, 12767, Note_on_c, 0, 61, 34
1, 12767, Note_on_c, 0, 76, 59
1, 12767, Note_on_c, 0, 78, 59
1, 12767, Note_on_c, 0, 92, 9
1, 12768, Note_on_c, 0, 31, 76
1, 12768, Note_off_c, 0, 36, 64
1, 12768, Note_on_c, 0, 49, 59
1, 12768, Note_off_c, 0, 79, 64
1, 12769, Note_on_c, 0, 29, 79
1, 12769, Note_off_c, 0, 31, 64
1, 12769, Note_off_c, 0, 61, 64
1, 12769, Note_on_c, 0, 80, 47
1, 12769, Note_on_c, 0, 89, 31
1, 12769, Note_on_c, 0, 91, 18
1, 12770, Note_off_c, 0, 54, 64
1, 12770, Note_off_c, 0, 64, 64
1, 12770, Note_on_c, 0, 65, 28
1, 12770, Note_off_c, 0, 71, 64
1, 12770, Note_off_c, 0, 88, 64
1, 12770, Note_off_c, 0, 92, 64
1, 12771, Note_off_c, 0, 29, 64
1, 12771, Note_on_c, 0, 30, 75
1, 12771, Note_off_c, 0, 49, 64
1, 12771, Note_on_c, 0, 70, 32
1, 12771, Note_off_c, 0, 84, 64
1, 12773, Note_on_c, 0, 29, 73
1, 12773, Note_off_c, 0, 30, 64
1, 12773, Note_off_c, 0, 65, 64
1, 12774, Note_on_c, 0, 93, 10
1, 12776, Note_off_c, 0, 29, 64
1, 12776, Note_on_c, 0, 30, 80
1, 12776, Note_on_c, 0, 61, 29
1, 12776, Note_on_c, 0, 68, 30
1, 12776, Note_off_c, 0, 70, 64
1, 12776, Note_on_c, 0, 87, 11
1, 12777, Note_off_c, 0, 86, 64
1, 12777, Note_off_c, 0, 93, 64
1, 12778, Note_off_c, 0, 61, 64
1, 12778, Note_on_c, 0, 64, 30
1, 12778, Note_on_c, 0, 86, 24
1, 12778, Note_off_c, 0, 91, 64
1, 12779, Note_on_c, 0, 66, 30
1, 12779, Note_on_c, 0, 84, 41
1, 12779, Note_off_c, 0, 87, 64
1, 12780, Note_off_c, 0, 68, 64
1, 12780, Note_on_c, 0, 70, 41
1, 12781, Note_off_c, 0, 64, 64
1, 12781, Note_on_c, 0, 91, 22
1, 12782, Note_off_c, 0, 86, 64
1, 12783, Note_off_c, 0, 30, 64
1, 12783, Note_on_c, 0, 34, 71
1, 12783, Note_on_c, 0, 54, 36
1, 12783, Note_off_c, 0, 66, 64
1, 12783, Note_off_c, 0, 73, 64
1, 12784, Note_off_c, 0, 34, 64
1, 12784, Note_on_c, 0, 79, 36
1, 12784, Note_off_c, 0, 80, 64
1, 12784, Note_on_c, 0, 85, 39
1, 12784, Note_on_c, 0, 86, 32
1, 12784, Note_on_c, 0, 93, 24
1, 12785, Note_off_c, 0, 54, 64
1, 12785, Note_off_c, 0, 70, 64
1, 12785, Note_on_c, 0, 71, 51
1, 12785, Note_on_c, 0, 74, 39
1, 12785, Note_off_c, 0, 76, 64
1, 12785, Note_on_c, 0, 77, 31
1, 12785, Note_off_c, 0, 78, 64
1, 12785, Note_on_c, 0, 80, 30
1, 12785, Note_on_c, 0, 90, 31
1, 12786, Note_on_c, 0, 51, 72
1, 12786, Note_on_c, 0, 66, 45
1, 12786, Note_on_c, 0, 69, 41
1, 12786, Note_off_c, 0, 91, 64
1, 12787, Note_on_c, 0, 48, 84
1, 12787, Note_off_c, 0, 51, 64
1, 12787, Note_on_c, 0, 73, 33
1, 12787, Note_off_c, 0, 74, 64
1, 12787, Note_off_c, 0, 79, 64
1, 12787, Note_off_c, 0, 82, 64
1, 12787, Note_off_c, 0, 90, 64
1, 12787, Note_off_c, 0, 93, 64
1, 12788, Note_on_c, 0, 45, 94
1, 12788, Note_off_c, 0, 48, 64
1, 12788, Note_off_c, 0, 66, 64
1, 12788, Note_on_c, 0, 76, 21
1, 12788, Note_off_c, 0, 77, 64
1, 12788, Note_off_c, 0, 85, 64
1, 12789, Note_on_c, 0, 42, 99
1, 12789, Note_off_c, 0, 45, 64
1, 12789, Note_on_c, 0, 57, 40
1, 12789, Note_on_c, 0, 85, 34
1, 12789, Note_off_c, 0, 86, 64
1, 12789, Note_off_c, 0, 89, 64
1, 12790, Note_on_c, 0, 40, 97
1, 12790, Note_off_c, 0, 42, 64
1, 12790, Note_on_c, 0, 64, 32
1, 12790, Note_off_c, 0, 71, 64
1, 12791, Note_on_c, 0, 38, 98
1, 12791, Note_off_c, 0, 40, 64
1, 12791, Note_off_c, 0, 73, 64
1, 12791, Note_off_c, 0, 84, 64
1, 12792, Note_on_c, 0, 36, 97
1, 12792, Note_off_c, 0, 38, 64
1, 12792, Note_off_c, 0, 76, 64
1, 12792, Note_off_c, 0, 80, 64
1, 12792, Note_on_c, 0, 83, 20
1, 12793, Note_on_c, 0, 35, 96
1, 12793, Note_off_c, 0, 36, 64
1, 12793, Note_on_c, 0, 78, 50
1, 12794, Note_on_c, 0, 34, 95
1, 12794, Note_off_c, 0, 35, 64
1, 12794, Note_on_c, 0, 74, 32
1, 12795, Note_on_c, 0, 33, 95
1, 12795, Note_off_c, 0, 34, 64
1, 12796, Note_on_c, 0, 32, 96
1, 12796, Note_off_c, 0, 33, 64
1, 12796, Note_on_c, 0, 49, 30
1, 12796, Note_on_c, 0, 73, 24
1, 12797, Note_off_c, 0, 64, 64
1, 12798, Note_on_c, 0, 31, 93
1, 12798, Note_off_c, 0, 32, 64
1, 12798, Note_on_c, 0, 66, 21
1, 12799, Note_off_c, 0, 49, 64
1, 12799, Note_off_c, 0, 73, 64
1, 12799, Note_on_c, 0, 80, 37
1, 12799, Note_on_c, 0, 82, 24
1, 12800, Note_on_c, 0, 30, 83
1, 12800, Note_off_c, 0, 31, 64
1, 12800, Note_on_c, 0, 76, 34
1, 12801, Note_off_c, 0, 83, 64
1, 12802, Note_off_c, 0, 74, 64
1, 12802, Note_on_c, 0, 75, 29
1, 12802, Note_off_c, 0, 82, 64
1, 12803, Note_off_c, 0, 30, 64
1, 12803, Note_off_c, 0, 57, 64
1, 12803, Note_off_c, 0, 69, 64
1, 12803, Note_on_c, 0, 70, 51
1, 12804, Note_on_c, 0, 41, 66
1, 12804, Note_on_c, 0, 65, 26
1, 12804, Note_off_c, 0, 66, 64
1, 12804, Note_off_c, 0, 75, 64
1, 12804, Note_on_c, 0, 86, 38
1, 12804, Note_on_c, 0, 87, 18
1, 12805, Note_on_c, 0, 31, 70
1, 12805, Note_on_c, 0, 61, 34
1, 12805, Note_on_c, 0, 83, 25
1, 12806, Note_on_c, 0, 30, 77
1, 12806, Note_off_c, 0, 31, 64
1, 12806, Note_off_c, 0, 41, 64
1, 12806, Note_off_c, 0, 70, 64
1, 12807, Note_on_c, 0, 29, 79
1, 12807, Note_off_c, 0, 30, 64
1, 12807, Note_off_c, 0, 65, 64
1, 12807, Note_on_c, 0, 70, 58
1, 12807, Note_on_c, 0, 73, 56
1, 12807, Note_off_c, 0, 87, 64
1, 12808, Note_off_c, 0, 29, 64
1, 12808, Note_on_c, 0, 30, 77
1, 12808, Note_on_c, 0, 66, 41
1, 12809, Note_off_c, 0, 83, 64
1, 12810, Note_on_c, 0, 29, 74
1, 12810, Note_off_c, 0, 30, 64
1, 12810, Note_off_c, 0, 76, 64
1, 12810, Note_on_c, 0, 83, 38
1, 12811, Note_off_c, 0, 61, 64
1, 12811, Note_on_c, 0, 76, 30
1, 12811, Note_on_c, 0, 89, 31
1, 12812, Note_off_c, 0, 83, 64
1, 12812, Note_on_c, 0, 84, 41
1, 12813, Note_on_c, 0, 91, 12
1, 12814, Note_off_c, 0, 29, 64
1, 12814, Note_on_c, 0, 31, 78
1, 12814, Note_on_c, 0, 54, 50
1, 12814, Note_on_c, 0, 61, 29
1, 12814, Note_off_c, 0, 76, 64
1, 12814, Note_off_c, 0, 84, 64
1, 12815, Note_on_c, 0, 49, 60
1, 12815, Note_on_c, 0, 76, 46
1, 12815, Note_on_c, 0, 84, 33
1, 12816, Note_on_c, 0, 30, 79
1, 12816, Note_off_c, 0, 31, 64
1, 12816, Note_off_c, 0, 54, 64
1, 12816, Note_off_c, 0, 91, 64
1, 12817, Note_on_c, 0, 29, 79
1, 12817, Note_off_c, 0, 30, 64
1, 12817, Note_off_c, 0, 84, 64
1, 12818, Note_off_c, 0, 49, 64
1, 12818, Note_on_c, 0, 83, 35
1, 12819, Note_off_c, 0, 29, 64
1, 12819, Note_on_c, 0, 30, 73
1, 12819, Note_on_c, 0, 54, 43
1, 12819, Note_on_c, 0, 79, 15
1, 12820, Note_off_c, 0, 30, 64
1, 12820, Note_on_c, 0, 32, 71
1, 12820, Note_off_c, 0, 61, 64
1, 12820, Note_off_c, 0, 78, 64
1, 12821, Note_off_c, 0, 32, 64
1, 12821, Note_on_c, 0, 35, 68
1, 12821, Note_off_c, 0, 54, 64
1, 12821, Note_off_c, 0, 66, 64
1, 12821, Note_off_c, 0, 73, 64
1, 12821, Note_off_c, 0, 80, 64
1, 12821, Note_on_c, 0, 81, 29
1, 12821, Note_on_c, 0, 84, 33
1, 12821, Note_on_c, 0, 87, 32
1, 12821, Note_on_c, 0, 92, 27
1, 12822, Note_off_c, 0, 35, 64
1, 12822, Note_on_c, 0, 73, 53
1, 12822, Note_on_c, 0, 75, 36
1, 12822, Note_off_c, 0, 79, 64
1, 12822, Note_off_c, 0, 85, 64
1, 12823, Note_on_c, 0, 55, 66
1, 12823, Note_off_c, 0, 76, 64
1, 12824, Note_on_c, 0, 49, 79
1, 12824, Note_off_c, 0, 55, 64
1, 12824, Note_off_c, 0, 75, 64
1, 12824, Note_on_c, 0, 76, 47
1, 12824, Note_off_c, 0, 84, 64
1, 12824, Note_off_c, 0, 86, 64
1, 12825, Note_on_c, 0, 45, 91
1, 12825, Note_off_c, 0, 49, 64
1, 12825, Note_off_c, 0, 70, 64
1, 12825, Note_on_c, 0, 80, 28
1, 12825, Note_off_c, 0, 89, 64
1, 12826, Note_on_c, 0, 42, 97
1, 12826, Note_off_c, 0, 45, 64
1, 12826, Note_on_c, 0, 56, 36
1, 12826, Note_on_c, 0, 75, 41
1, 12826, Note_off_c, 0, 81, 64
1, 12826, Note_off_c, 0, 83, 64
1, 12826, Note_on_c, 0, 84, 20
1, 12826, Note_on_c, 0, 90, 13
1, 12827, Note_on_c, 0, 41, 99
1, 12827, Note_off_c, 0, 42, 64
1, 12827, Note_off_c, 0, 73, 64
1, 12827, Note_off_c, 0, 76, 64
1, 12828, Note_on_c, 0, 38, 97
1, 12828, Note_off_c, 0, 41, 64
1, 12828, Note_off_c, 0, 56, 64
1, 12828, Note_off_c, 0, 87, 64
1, 12828, Note_off_c, 0, 92, 64
1, 12829, Note_on_c, 0, 37, 98
1, 12829, Note_off_c, 0, 38, 64
1, 12829, Note_on_c, 0, 56, 35
1, 12829, Note_on_c, 0, 73, 29
1, 12829, Note_on_c, 0, 76, 48
1, 12829, Note_on_c, 0, 78, 18
1, 12829, Note_off_c, 0, 84, 64
1, 12830, Note_on_c, 0, 36, 97
1, 12830, Note_off_c, 0, 37, 64
1, 12830, Note_off_c, 0, 75, 64
1, 12830, Note_off_c, 0, 80, 64
1, 12831, Note_on_c, 0, 34, 96
1, 12831, Note_off_c, 0, 36, 64
1, 12831, Note_on_c, 0, 71, 25
1, 12831, Note_off_c, 0, 90, 64
1, 12832, Note_off_c, 0, 56, 64
1, 12832, Note_on_c, 0, 65, 15
1, 12833, Note_on_c, 0, 33, 95
1, 12833, Note_off_c, 0, 34, 64
1, 12833, Note_off_c, 0, 78, 64
1, 12833, Note_on_c, 0, 82, 27
1, 12833, Note_on_c, 0, 87, 20
1, 12834, Note_on_c, 0, 32, 95
1, 12834, Note_off_c, 0, 33, 64
1, 12834, Note_off_c, 0, 73, 64
1, 12835, Note_on_c, 0, 31, 94
1, 12835, Note_off_c, 0, 32, 64
1, 12835, Note_off_c, 0, 65, 64
1, 12835, Note_on_c, 0, 70, 28
1, 12835, Note_off_c, 0, 71, 64
1, 12836, Note_on_c, 0, 56, 14
1, 12836, Note_on_c, 0, 66, 34
1, 12836, Note_on_c, 0, 86, 13
1, 12837, Note_off_c, 0, 87, 64
1, 12838, Note_on_c, 0, 30, 78
1, 12838, Note_off_c, 0, 31, 64
1, 12838, Note_on_c, 0, 80, 9
1, 12838, Note_on_c, 0, 83, 30
1, 12839, Note_off_c, 0, 30, 64
1, 12840, Note_on_c, 0, 72, 42
1, 12840, Note_off_c, 0, 86, 64
1, 12841, Note_off_c, 0, 56, 64
1, 12841, Note_off_c, 0, 70, 64
1, 12841, Note_on_c, 0, 79, 25
1, 12841, Note_off_c, 0, 80, 64
1, 12841, Note_on_c, 0, 87, 21
1, 12842, Note_on_c, 0, 36, 66
1, 12842, Note_on_c, 0, 61, 34
1, 12842, Note_on_c, 0, 73, 37
1, 12842, Note_on_c, 0, 89, 29
1, 12843, Note_on_c, 0, 30, 76
1, 12843, Note_off_c, 0, 36, 64
1, 12843, Note_on_c, 0, 49, 56
1, 12843, Note_off_c, 0, 66, 64
1, 12843, Note_on_c, 0, 70, 37
1, 12843, Note_off_c, 0, 72, 64
1, 12843, Note_on_c, 0, 75, 38
1, 12843, Note_off_c, 0, 76, 64
1, 12843, Note_on_c, 0, 80, 33
1, 12843, Note_off_c, 0, 83, 64
1, 12843, Note_on_c, 0, 84, 23
1, 12843, Note_on_c, 0, 88, 20
1, 12844, Note_on_c, 0, 29, 79
1, 12844, Note_off_c, 0, 30, 64
1, 12844, Note_on_c, 0, 76, 36
1, 12845, Note_off_c, 0, 75, 64
1, 12845, Note_off_c, 0, 79, 64
1, 12846, Note_off_c, 0, 29, 64
1, 12846, Note_on_c, 0, 30, 75
1, 12846, Note_off_c, 0, 49, 64
1, 12846, Note_off_c, 0, 73, 64
1, 12846, Note_off_c, 0, 82, 64
1, 12846, Note_on_c, 0, 83, 24
1, 12846, Note_off_c, 0, 84, 64
1, 12847, Note_on_c, 0, 66, 35
1, 12847, Note_off_c, 0, 70, 64
1, 12847, Note_on_c, 0, 73, 43
1, 12847, Note_off_c, 0, 76, 64
1, 12847, Note_off_c, 0, 87, 64
1, 12848, Note_on_c, 0, 29, 73
1, 12848, Note_off_c, 0, 30, 64
1, 12848, Note_off_c, 0, 61, 64
1, 12848, Note_on_c, 0, 76, 28
1, 12848, Note_off_c, 0, 88, 64
1, 12849, Note_on_c, 0, 69, 37
1, 12849, Note_on_c, 0, 78, 37
1, 12849, Note_off_c, 0, 83, 64
1, 12850, Note_on_c, 0, 83, 23
1, 12851, Note_off_c, 0, 29, 64
1, 12851, Note_on_c, 0, 30, 79
1, 12851, Note_off_c, 0, 69, 64
1, 12851, Note_off_c, 0, 73, 64
1, 12851, Note_on_c, 0, 74, 43
1, 12851, Note_on_c, 0, 87, 26
1, 12851, Note_off_c, 0, 89, 64
1, 12852, Note_on_c, 0, 61, 38
1, 12852, Note_on_c, 0, 69, 31
1, 12852, Note_off_c, 0, 76, 64
1, 12854, Note_on_c, 0, 29, 79
1, 12854, Note_off_c, 0, 30, 64
1, 12854, Note_on_c, 0, 49, 56
1, 12854, Note_off_c, 0, 66, 64
1, 12854, Note_off_c, 0, 69, 64
1, 12854, Note_on_c, 0, 73, 47
1, 12854, Note_on_c, 0, 77, 34
1, 12854, Note_off_c, 0, 83, 64
1, 12854, Note_on_c, 0, 86, 50
1, 12854, Note_off_c, 0, 87, 64
1, 12855, Note_off_c, 0, 29, 64
1, 12855, Note_on_c, 0, 30, 77
1, 12855, Note_on_c, 0, 68, 45
1, 12855, Note_off_c, 0, 74, 64
1, 12855, Note_off_c, 0, 78, 64
1, 12855, Note_on_c, 0, 82, 16
1, 12855, Note_on_c, 0, 87, 44
1, 12856, Note_on_c, 0, 74, 55
1, 12856, Note_on_c, 0, 78, 34
1, 12857, Note_off_c, 0, 49, 64
1, 12857, Note_off_c, 0, 61, 64
1, 12857, Note_off_c, 0, 73, 64
1, 12857, Note_on_c, 0, 76, 38
1, 12857, Note_off_c, 0, 77, 64
1, 12858, Note_off_c, 0, 30, 64
1, 12858, Note_on_c, 0, 34, 71
1, 12858, Note_on_c, 0, 73, 44
1, 12859, Note_off_c, 0, 34, 64
1, 12859, Note_on_c, 0, 81, 52
1, 12859, Note_off_c, 0, 82, 64
1, 12859, Note_on_c, 0, 89, 42
1, 12859, Note_on_c, 0, 95, 32
1, 12859, Note_on_c, 0, 97, 24
1, 12859, Note_on_c, 0, 100, 22
1, 12860, Note_on_c, 0, 65, 49
1, 12860, Note_off_c, 0, 73, 64
1, 12860, Note_off_c, 0, 76, 64
1, 12860, Note_off_c, 0, 80, 64
1, 12860, Note_on_c, 0, 83, 49
1, 12860, Note_on_c, 0, 94, 39
1, 12860, Note_on_c, 0, 96, 14
1, 12861, Note_on_c, 0, 51, 74
1, 12861, Note_on_c, 0, 71, 37
1, 12861, Note_on_c, 0, 76, 42
1, 12861, Note_off_c, 0, 78, 64
1, 12861, Note_on_c, 0, 79, 56
1, 12861, Note_on_c, 0, 82, 50
1, 12861, Note_on_c, 0, 85, 48
1, 12861, Note_off_c, 0, 86, 64
1, 12862, Note_on_c, 0, 46, 85
1, 12862, Note_off_c, 0, 51, 64
1, 12862, Note_off_c, 0, 65, 64
1, 12862, Note_on_c, 0, 66, 43
1, 12862, Note_off_c, 0, 68, 64
1, 12862, Note_on_c, 0, 73, 45
1, 12862, Note_off_c, 0, 74, 64
1, 12862, Note_on_c, 0, 77, 36
1, 12862, Note_on_c, 0, 86, 31
1, 12863, Note_on_c, 0, 44, 93
1, 12863, Note_off_c, 0, 46, 64
1, 12863, Note_on_c, 0, 70, 41
1, 12863, Note_off_c, 0, 71, 64
1, 12863, Note_on_c, 0, 80, 49
1, 12863, Note_off_c, 0, 81, 64
1, 12863, Note_off_c, 0, 96, 64
1, 12863, Note_off_c, 0, 97, 64
1, 12863, Note_off_c, 0, 100, 64
1, 12864, Note_on_c, 0, 41, 99
1, 12864, Note_off_c, 0, 44, 64
1, 12864, Note_off_c, 0, 82, 64
1, 12864, Note_off_c, 0, 86, 64
1, 12864, Note_on_c, 0, 90, 21
1, 12864, Note_off_c, 0, 95, 64
1, 12864, Note_on_c, 0, 96, 13
1, 12865, Note_on_c, 0, 40, 96
1, 12865, Note_off_c, 0, 41, 64
1, 12865, Note_off_c, 0, 77, 64
1, 12865, Note_on_c, 0, 78, 43
1, 12866, Note_on_c, 0, 38, 97
1, 12866, Note_off_c, 0, 40, 64
1, 12866, Note_off_c, 0, 70, 64
1, 12866, Note_off_c, 0, 76, 64
1, 12866, Note_on_c, 0, 88, 23
1, 12866, Note_off_c, 0, 94, 64
1, 12867, Note_on_c, 0, 36, 97
1, 12867, Note_off_c, 0, 38, 64
1, 12867, Note_off_c, 0, 79, 64
1, 12867, Note_off_c, 0, 87, 64
1, 12867, Note_off_c, 0, 89, 64
1, 12867, Note_on_c, 0, 94, 15
1, 12867, Note_off_c, 0, 96, 64
1, 12868, Note_on_c, 0, 35, 96
1, 12868, Note_off_c, 0, 36, 64
1, 12868, Note_on_c, 0, 70, 34
1, 12868, Note_off_c, 0, 83, 64
1, 12868, Note_on_c, 0, 84, 27
1, 12869, Note_on_c, 0, 34, 95
1, 12869, Note_off_c, 0, 35, 64
1, 12869, Note_on_c, 0, 75, 26
1, 12870, Note_on_c, 0, 33, 95
1, 12870, Note_off_c, 0, 34, 64
1, 12870, Note_on_c, 0, 82, 43
1, 12870, Note_off_c, 0, 94, 64
1, 12871, Note_on_c, 0, 32, 96
1, 12871, Note_off_c, 0, 33, 64
1, 12871, Note_off_c, 0, 66, 64
1, 12871, Note_off_c, 0, 90, 64
1, 12872, Note_on_c, 0, 54, 21
1, 12873, Note_on_c, 0, 31, 93
1, 12873, Note_off_c, 0, 32, 64
1, 12873, Note_on_c, 0, 66, 39
1, 12873, Note_off_c, 0, 75, 64
1, 12873, Note_off_c, 0, 80, 64
1, 12873, Note_off_c, 0, 85, 64
1, 12875, Note_on_c, 0, 30, 82
1, 12875, Note_off_c, 0, 31, 64
1, 12875, Note_off_c, 0, 73, 64
1, 12875, Note_on_c, 0, 80, 18
1, 12875, Note_off_c, 0, 84, 64
1, 12876, Note_off_c, 0, 78, 64
1, 12876, Note_off_c, 0, 88, 64
1, 12877, Note_off_c, 0, 30, 64
1, 12877, Note_on_c, 0, 77, 27
1, 12878, Note_off_c, 0, 54, 64
1, 12878, Note_off_c, 0, 70, 64
1, 12878, Note_on_c, 0, 71, 32
1, 12878, Note_on_c, 0, 84, 50
1, 12878, Note_on_c, 0, 87, 33
1, 12878, Note_on_c, 0, 89, 36
1, 12878, Note_on_c, 0, 90, 31
1, 12878, Note_on_c, 0, 91, 35
1, 12878, Note_on_c, 0, 92, 24
1, 12878, Note_on_c, 0, 95, 21
1, 12879, Note_on_c, 0, 36, 67
1, 12879, Note_off_c, 0, 80, 64
1, 12879, Note_on_c, 0, 81, 31
1, 12880, Note_on_c, 0, 31, 72
1, 12880, Note_off_c, 0, 36, 64
1, 12880, Note_off_c, 0, 77, 64
1, 12880, Note_on_c, 0, 80, 38
1, 12880, Note_on_c, 0, 83, 45
1, 12880, Note_on_c, 0, 85, 51
1, 12880, Note_off_c, 0, 90, 64
1, 12881, Note_on_c, 0, 30, 77
1, 12881, Note_off_c, 0, 31, 64
1, 12881, Note_on_c, 0, 60, 32
1, 12881, Note_off_c, 0, 66, 64
1, 12881, Note_on_c, 0, 68, 33
1, 12881, Note_off_c, 0, 71, 64
1, 12881, Note_on_c, 0, 77, 40
1, 12881, Note_on_c, 0, 79, 48
1, 12881, Note_off_c, 0, 81, 64
1, 12881, Note_on_c, 0, 90, 33
1, 12882, Note_on_c, 0, 29, 78
1, 12882, Note_off_c, 0, 30, 64
1, 12882, Note_on_c, 0, 66, 34
1, 12882, Note_on_c, 0, 74, 44
1, 12882, Note_off_c, 0, 83, 64
1, 12882, Note_off_c, 0, 87, 64
1, 12882, Note_on_c, 0, 88, 18
1, 12883, Note_off_c, 0, 60, 64
1, 12883, Note_on_c, 0, 61, 27
1, 12883, Note_off_c, 0, 68, 64
1, 12883, Note_off_c, 0, 80, 64
1, 12883, Note_on_c, 0, 83, 40
1, 12884, Note_off_c, 0, 29, 64
1, 12884, Note_on_c, 0, 30, 75
1, 12884, Note_off_c, 0, 66, 64
1, 12884, Note_on_c, 0, 70, 35
1, 12884, Note_on_c, 0, 73, 51
1, 12884, Note_on_c, 0, 78, 50
1, 12884, Note_off_c, 0, 79, 64
1, 12884, Note_off_c, 0, 82, 64
1, 12884, Note_off_c, 0, 95, 64
1, 12885, Note_on_c, 0, 64, 36
1, 12885, Note_off_c, 0, 74, 64
1, 12885, Note_on_c, 0, 75, 37
1, 12885, Note_on_c, 0, 76, 40
1, 12885, Note_off_c, 0, 77, 64
1, 12886, Note_on_c, 0, 29, 72
1, 12886, Note_off_c, 0, 30, 64
1, 12886, Note_on_c, 0, 80, 42
1, 12886, Note_off_c, 0, 91, 64
1, 12887, Note_off_c, 0, 75, 64
1, 12887, Note_on_c, 0, 87, 29
1, 12887, Note_on_c, 0, 91, 17
1, 12887, Note_off_c, 0, 92, 64
1, 12888, Note_off_c, 0, 61, 64
1, 12888, Note_off_c, 0, 84, 64
1, 12888, Note_off_c, 0, 88, 64
1, 12889, Note_off_c, 0, 29, 64
1, 12889, Note_on_c, 0, 30, 79
1, 12889, Note_off_c, 0, 76, 64
1, 12889, Note_on_c, 0, 84, 28
1, 12889, Note_on_c, 0, 88, 38
1, 12890, Note_off_c, 0, 70, 64
1, 12890, Note_on_c, 0, 82, 29
1, 12890, Note_off_c, 0, 91, 64
1, 12891, Note_off_c, 0, 64, 64
1, 12891, Note_on_c, 0, 66, 37
1, 12891, Note_on_c, 0, 76, 25
1, 12891, Note_off_c, 0, 89, 64
1, 12891, Note_on_c, 0, 91, 15
1, 12892, Note_on_c, 0, 29, 77
1, 12892, Note_off_c, 0, 30, 64
1, 12892, Note_off_c, 0, 83, 64
1, 12892, Note_on_c, 0, 86, 29
1, 12892, Note_off_c, 0, 90, 64
1, 12893, Note_off_c, 0, 29, 64
1, 12893, Note_on_c, 0, 30, 75
1, 12893, Note_on_c, 0, 64, 25
1, 12893, Note_on_c, 0, 70, 39
1, 12893, Note_off_c, 0, 73, 64
1, 12893, Note_on_c, 0, 81, 39
1, 12893, Note_off_c, 0, 82, 64
1, 12893, Note_off_c, 0, 87, 64
1, 12894, Note_off_c, 0, 66, 64
1, 12894, Note_off_c, 0, 91, 64
1, 12895, Note_off_c, 0, 30, 64
1, 12895, Note_on_c, 0, 33, 71
1, 12895, Note_on_c, 0, 48, 54
1, 12895, Note_on_c, 0, 72, 38
1, 12895, Note_off_c, 0, 76, 64
1, 12895, Note_off_c, 0, 84, 64
1, 12896, Note_off_c, 0, 33, 64
1, 12896, Note_on_c, 0, 35, 66
1, 12896, Note_on_c, 0, 89, 38
1, 12896, Note_on_c, 0, 95, 24
1, 12896, Note_on_c, 0, 96, 25
1, 12896, Note_on_c, 0, 99, 19
1, 12897, Note_off_c, 0, 35, 64
1, 12897, Note_off_c, 0, 48, 64
1, 12897, Note_off_c, 0, 64, 64
1, 12897, Note_off_c, 0, 72, 64
1, 12897, Note_on_c, 0, 74, 38
1, 12897, Note_off_c, 0, 80, 64
1, 12897, Note_off_c, 0, 86, 64
1, 12897, Note_on_c, 0, 91, 31
1, 12898, Note_on_c, 0, 54, 67
1, 12898, Note_on_c, 0, 72, 32
1, 12898, Note_on_c, 0, 76, 34
1, 12898, Note_off_c, 0, 88, 64
1, 12899, Note_on_c, 0, 48, 82
1, 12899, Note_off_c, 0, 54, 64
1, 12899, Note_on_c, 0, 64, 23
1, 12899, Note_off_c, 0, 74, 64
1, 12899, Note_off_c, 0, 81, 64
1, 12899, Note_off_c, 0, 91, 64
1, 12899, Note_off_c, 0, 95, 64
1, 12899, Note_off_c, 0, 96, 64
1, 12899, Note_off_c, 0, 99, 64
1, 12900, Note_on_c, 0, 45, 93
1, 12900, Note_off_c, 0, 48, 64
1, 12900, Note_off_c, 0, 72, 64
1, 12900, Note_on_c, 0, 73, 36
1, 12900, Note_off_c, 0, 85, 64
1, 12901, Note_on_c, 0, 42, 98
1, 12901, Note_off_c, 0, 45, 64
1, 12901, Note_off_c, 0, 89, 64
1, 12902, Note_on_c, 0, 41, 98
1, 12902, Note_off_c, 0, 42, 64
1, 12902, Note_off_c, 0, 64, 64
1, 12902, Note_on_c, 0, 83, 27
1, 12902, Note_on_c, 0, 86, 12
1, 12903, Note_on_c, 0, 38, 97
1, 12903, Note_off_c, 0, 41, 64
1, 12904, Note_on_c, 0, 37, 98
1, 12904, Note_off_c, 0, 38, 64
1, 12904, Note_off_c, 0, 70, 64
1, 12905, Note_on_c, 0, 36, 97
1, 12905, Note_off_c, 0, 37, 64
1, 12905, Note_off_c, 0, 86, 64
1, 12906, Note_on_c, 0, 34, 95
1, 12906, Note_off_c, 0, 36, 64
1, 12906, Note_off_c, 0, 73, 64
1, 12906, Note_on_c, 0, 74, 39
1, 12907, Note_on_c, 0, 33, 95
1, 12907, Note_off_c, 0, 34, 64
1, 12907, Note_on_c, 0, 64, 27
1, 12907, Note_off_c, 0, 76, 64
1, 12908, Note_on_c, 0, 82, 22
1, 12908, Note_off_c, 0, 83, 64
1, 12908, Note_on_c, 0, 84, 27
1, 12908, Note_on_c, 0, 87, 18
1, 12909, Note_on_c, 0, 32, 96
1, 12909, Note_off_c, 0, 33, 64
1, 12909, Note_on_c, 0, 80, 18
1, 12909, Note_on_c, 0, 85, 33
1, 12910, Note_on_c, 0, 31, 94
1, 12910, Note_off_c, 0, 32, 64
1, 12910, Note_on_c, 0, 83, 23
1, 12911, Note_off_c, 0, 82, 64
1, 12911, Note_off_c, 0, 87, 64
1, 12912, Note_off_c, 0, 80, 64
1, 12912, Note_off_c, 0, 84, 64
1, 12912, Note_on_c, 0, 87, 12
1, 12913, Note_on_c, 0, 30, 76
1, 12913, Note_off_c, 0, 31, 64
1, 12913, Note_on_c, 0, 71, 24
1, 12913, Note_on_c, 0, 80, 28
1, 12914, Note_on_c, 0, 84, 25
1, 12915, Note_off_c, 0, 30, 64
1, 12915, Note_off_c, 0, 74, 64
1, 12915, Note_on_c, 0, 75, 36
1, 12915, Note_on_c, 0, 76, 29
1, 12915, Note_off_c, 0, 78, 64
1, 12915, Note_on_c, 0, 79, 28
1, 12915, Note_off_c, 0, 83, 64
1, 12916, Note_off_c, 0, 64, 64
1, 12916, Note_off_c, 0, 71, 64
1, 12916, Note_on_c, 0, 72, 34
1, 12916, Note_off_c, 0, 80, 64
1, 12916, Note_on_c, 0, 82, 29
1, 12916, Note_off_c, 0, 87, 64
1, 12916, Note_on_c, 0, 88, 35
1, 12917, Note_on_c, 0, 36, 67
1, 12917, Note_on_c, 0, 54, 56
1, 12917, Note_on_c, 0, 61, 39
1, 12917, Note_on_c, 0, 68, 40
1, 12918, Note_on_c, 0, 30, 76
1, 12918, Note_off_c, 0, 36, 64
1, 12918, Note_off_c, 0, 72, 64
1, 12918, Note_on_c, 0, 74, 39
1, 12918, Note_off_c, 0, 75, 64
1, 12918, Note_off_c, 0, 76, 64
1, 12918, Note_on_c, 0, 77, 35
1, 12918, Note_on_c, 0, 87, 25
1, 12919, Note_on_c, 0, 29, 78
1, 12919, Note_off_c, 0, 30, 64
1, 12919, Note_off_c, 0, 61, 64
1, 12919, Note_on_c, 0, 70, 51
1, 12919, Note_off_c, 0, 79, 64
1, 12919, Note_on_c, 0, 91, 19
1, 12920, Note_off_c, 0, 54, 64
1, 12920, Note_on_c, 0, 61, 47
1, 12920, Note_off_c, 0, 68, 64
1, 12920, Note_off_c, 0, 74, 64
1, 12920, Note_off_c, 0, 82, 64
1, 12920, Note_off_c, 0, 84, 64
1, 12920, Note_off_c, 0, 88, 64
1, 12921, Note_off_c, 0, 29, 64
1, 12921, Note_on_c, 0, 30, 76
1, 12921, Note_on_c, 0, 75, 31
1, 12921, Note_on_c, 0, 88, 30
1, 12921, Note_on_c, 0, 90, 31
1, 12922, Note_off_c, 0, 91, 64
1, 12923, Note_on_c, 0, 29, 74
1, 12923, Note_off_c, 0, 30, 64
1, 12923, Note_off_c, 0, 75, 64
1, 12923, Note_on_c, 0, 83, 23
1, 12924, Note_on_c, 0, 55, 31
1, 12924, Note_on_c, 0, 84, 28
1, 12924, Note_on_c, 0, 91, 31
1, 12925, Note_off_c, 0, 85, 64
1, 12925, Note_on_c, 0, 86, 27
1, 12925, Note_off_c, 0, 87, 64
1, 12925, Note_on_c, 0, 92, 33
1, 12926, Note_off_c, 0, 29, 64
1, 12926, Note_on_c, 0, 30, 73
1, 12926, Note_off_c, 0, 55, 64
1, 12926, Note_on_c, 0, 79, 26
1, 12927, Note_off_c, 0, 30, 64
1, 12927, Note_on_c, 0, 31, 77
1, 12928, Note_on_c, 0, 30, 80
1, 12928, Note_off_c, 0, 31, 64
1, 12928, Note_on_c, 0, 76, 43
1, 12928, Note_off_c, 0, 77, 64
1, 12928, Note_off_c, 0, 83, 64
1, 12929, Note_on_c, 0, 29, 80
1, 12929, Note_off_c, 0, 30, 64
1, 12929, Note_on_c, 0, 49, 58
1, 12929, Note_on_c, 0, 83, 34
1, 12929, Note_off_c, 0, 84, 64
1, 12930, Note_off_c, 0, 29, 64
1, 12930, Note_on_c, 0, 30, 78
1, 12930, Note_off_c, 0, 79, 64
1, 12930, Note_on_c, 0, 80, 23
1, 12930, Note_on_c, 0, 84, 40
1, 12930, Note_off_c, 0, 88, 64
1, 12930, Note_on_c, 0, 89, 16
1, 12931, Note_off_c, 0, 83, 64
1, 12932, Note_off_c, 0, 49, 64
1, 12932, Note_on_c, 0, 72, 51
1, 12932, Note_off_c, 0, 86, 64
1, 12932, Note_on_c, 0, 93, 18
1, 12933, Note_off_c, 0, 30, 64
1, 12933, Note_on_c, 0, 34, 69
1, 12933, Note_on_c, 0, 53, 32
1, 12933, Note_on_c, 0, 67, 46
1, 12933, Note_on_c, 0, 74, 40
1, 12934, Note_off_c, 0, 34, 64
1, 12934, Note_off_c, 0, 61, 64
1, 12934, Note_off_c, 0, 80, 64
1, 12934, Note_off_c, 0, 89, 64
1, 12934, Note_on_c, 0, 95, 23
1, 12935, Note_off_c, 0, 53, 64
1, 12935, Note_on_c, 0, 64, 49
1, 12935, Note_on_c, 0, 66, 48
1, 12935, Note_off_c, 0, 67, 64
1, 12935, Note_off_c, 0, 70, 64
1, 12935, Note_on_c, 0, 80, 33
1, 12935, Note_on_c, 0, 87, 22
1, 12936, Note_on_c, 0, 51, 75
1, 12936, Note_on_c, 0, 81, 16
1, 12936, Note_off_c, 0, 92, 64
1, 12936, Note_off_c, 0, 93, 64
1, 12937, Note_on_c, 0, 46, 87
1, 12937, Note_off_c, 0, 51, 64
1, 12937, Note_off_c, 0, 64, 64
1, 12937, Note_off_c, 0, 66, 64
1, 12937, Note_on_c, 0, 73, 48
1, 12937, Note_off_c, 0, 74, 64
1, 12937, Note_on_c, 0, 77, 19
1, 12937, Note_off_c, 0, 84, 64
1, 12937, Note_off_c, 0, 95, 64
1, 12938, Note_on_c, 0, 44, 94
1, 12938, Note_off_c, 0, 46, 64
1, 12938, Note_on_c, 0, 70, 16
1, 12938, Note_off_c, 0, 72, 64
1, 12938, Note_on_c, 0, 74, 20
1, 12939, Note_on_c, 0, 41, 100
1, 12939, Note_off_c, 0, 44, 64
1, 12939, Note_off_c, 0, 76, 64
1, 12939, Note_off_c, 0, 81, 64
1, 12939, Note_off_c, 0, 91, 64
1, 12940, Note_on_c, 0, 39, 96
1, 12940, Note_off_c, 0, 41, 64
1, 12940, Note_on_c, 0, 78, 20
1, 12940, Note_off_c, 0, 87, 64
1, 12941, Note_on_c, 0, 37, 98
1, 12941, Note_off_c, 0, 39, 64
1, 12941, Note_on_c, 0, 64, 21
1, 12941, Note_off_c, 0, 74, 64
1, 12941, Note_on_c, 0, 76, 32
1, 12941, Note_off_c, 0, 77, 64
1, 12942, Note_on_c, 0, 36, 97
1, 12942, Note_off_c, 0, 37, 64
1, 12943, Note_on_c, 0, 35, 96
1, 12943, Note_off_c, 0, 36, 64
1, 12943, Note_off_c, 0, 70, 64
1, 12944, Note_on_c, 0, 34, 95
1, 12944, Note_off_c, 0, 35, 64
1, 12945, Note_on_c, 0, 33, 95
1, 12945, Note_off_c, 0, 34, 64
1, 12945, Note_off_c, 0, 64, 64
1, 12945, Note_on_c, 0, 82, 27
1, 12945, Note_on_c, 0, 83, 36
1, 12945, Note_off_c, 0, 90, 64
1, 12946, Note_on_c, 0, 32, 96
1, 12946, Note_off_c, 0, 33, 64
1, 12946, Note_on_c, 0, 69, 23
1, 12946, Note_off_c, 0, 78, 64
1, 12946, Note_on_c, 0, 79, 20
1, 12947, Note_on_c, 0, 31, 95
1, 12947, Note_off_c, 0, 32, 64
1, 12947, Note_on_c, 0, 56, 24
1, 12947, Note_off_c, 0, 83, 64
1, 12947, Note_on_c, 0, 90, 18
1, 12949, Note_on_c, 0, 61, 15
1, 12949, Note_off_c, 0, 79, 64
1, 12950, Note_on_c, 0, 30, 82
1, 12950, Note_off_c, 0, 31, 64
1, 12950, Note_off_c, 0, 56, 64
1, 12950, Note_off_c, 0, 69, 64
1, 12950, Note_on_c, 0, 70, 13
1, 12950, Note_off_c, 0, 80, 64
1, 12952, Note_off_c, 0, 30, 64
1, 12952, Note_on_c, 0, 78, 21
1, 12953, Note_off_c, 0, 61, 64
1, 12953, Note_off_c, 0, 70, 64
1, 12953, Note_on_c, 0, 83, 26
1, 12953, Note_off_c, 0, 90, 64
1, 12954, Note_on_c, 0, 36, 67
1, 12954, Note_on_c, 0, 61, 45
1, 12955, Note_on_c, 0, 31, 75
1, 12955, Note_off_c, 0, 36, 64
1, 12955, Note_on_c, 0, 49, 59
1, 12955, Note_on_c, 0, 70, 31
1, 12955, Note_off_c, 0, 76, 64
1, 12955, Note_on_c, 0, 77, 36
1, 12955, Note_off_c, 0, 78, 64
1, 12955, Note_on_c, 0, 80, 24
1, 12955, Note_on_c, 0, 87, 12
1, 12956, Note_on_c, 0, 30, 79
1, 12956, Note_off_c, 0, 31, 64
1, 12956, Note_off_c, 0, 82, 64
1, 12957, Note_on_c, 0, 29, 78
1, 12957, Note_off_c, 0, 30, 64
1, 12957, Note_on_c, 0, 68, 27
1, 12957, Note_off_c, 0, 77, 64
1, 12957, Note_on_c, 0, 79, 40
1, 12957, Note_on_c, 0, 86, 29
1, 12958, Note_off_c, 0, 80, 64
1, 12958, Note_on_c, 0, 88, 19
1, 12959, Note_off_c, 0, 29, 64
1, 12959, Note_on_c, 0, 30, 74
1, 12959, Note_off_c, 0, 49, 64
1, 12959, Note_on_c, 0, 66, 27
1, 12959, Note_off_c, 0, 87, 64
1, 12960, Note_on_c, 0, 29, 73
1, 12960, Note_off_c, 0, 30, 64
1, 12960, Note_off_c, 0, 68, 64
1, 12960, Note_off_c, 0, 70, 64
1, 12960, Note_off_c, 0, 73, 64
1, 12960, Note_on_c, 0, 76, 19
1, 12960, Note_on_c, 0, 78, 32
1, 12960, Note_off_c, 0, 79, 64
1, 12960, Note_on_c, 0, 80, 30
1, 12960, Note_on_c, 0, 82, 14
1, 12960, Note_on_c, 0, 93, 10
1, 12961, Note_on_c, 0, 70, 43
1, 12961, Note_off_c, 0, 88, 64
1, 12962, Note_off_c, 0, 66, 64
1, 12962, Note_off_c, 0, 83, 64
1, 12962, Note_on_c, 0, 85, 27
1, 12962, Note_on_c, 0, 91, 26
1, 12963, Note_on_c, 0, 42, 66
1, 12963, Note_off_c, 0, 61, 64
1, 12963, Note_on_c, 0, 67, 31
1, 12963, Note_on_c, 0, 74, 52
1, 12963, Note_off_c, 0, 86, 64
1, 12963, Note_on_c, 0, 87, 24
1, 12963, Note_on_c, 0, 94, 15
1, 12963, Note_on_c, 0, 95, 20
1, 12964, Note_off_c, 0, 29, 64
1, 12964, Note_on_c, 0, 30, 80
1, 12964, Note_off_c, 0, 42, 64
1, 12964, Note_on_c, 0, 64, 28
1, 12964, Note_on_c, 0, 71, 31
1, 12964, Note_off_c, 0, 76, 64
1, 12964, Note_on_c, 0, 77, 34
1, 12964, Note_off_c, 0, 82, 64
1, 12964, Note_off_c, 0, 93, 64
1, 12965, Note_off_c, 0, 67, 64
1, 12965, Note_off_c, 0, 70, 64
1, 12965, Note_off_c, 0, 78, 64
1, 12965, Note_off_c, 0, 85, 64
1, 12965, Note_on_c, 0, 88, 20
1, 12966, Note_on_c, 0, 68, 28
1, 12966, Note_on_c, 0, 79, 37
1, 12966, Note_off_c, 0, 80, 64
1, 12966, Note_on_c, 0, 85, 24
1, 12966, Note_off_c, 0, 87, 64
1, 12967, Note_on_c, 0, 29, 79
1, 12967, Note_off_c, 0, 30, 64
1, 12967, Note_on_c, 0, 61, 36
1, 12967, Note_off_c, 0, 64, 64
1, 12967, Note_on_c, 0, 70, 33
1, 12967, Note_off_c, 0, 71, 64
1, 12968, Note_off_c, 0, 29, 64
1, 12968, Note_on_c, 0, 30, 76
1, 12968, Note_on_c, 0, 90, 26
1, 12968, Note_off_c, 0, 91, 64
1, 12968, Note_on_c, 0, 93, 19
1, 12969, Note_on_c, 0, 72, 37
1, 12969, Note_on_c, 0, 76, 47
1, 12969, Note_off_c, 0, 94, 64
1, 12970, Note_off_c, 0, 30, 64
1, 12970, Note_on_c, 0, 33, 71
1, 12970, Note_on_c, 0, 60, 35
1, 12970, Note_off_c, 0, 61, 64
1, 12970, Note_off_c, 0, 68, 64
1, 12970, Note_on_c, 0, 80, 30
1, 12970, Note_on_c, 0, 87, 30
1, 12970, Note_off_c, 0, 88, 64
1, 12971, Note_off_c, 0, 33, 64
1, 12971, Note_on_c, 0, 35, 66
1, 12971, Note_on_c, 0, 65, 51
1, 12971, Note_on_c, 0, 73, 49
1, 12971, Note_off_c, 0, 77, 64
1, 12971, Note_on_c, 0, 78, 42
1, 12971, Note_on_c, 0, 81, 36
1, 12971, Note_on_c, 0, 83, 31
1, 12971, Note_off_c, 0, 85, 64
1, 12971, Note_on_c, 0, 94, 24
1, 12971, Note_on_c, 0, 96, 18
1, 12971, Note_on_c, 0, 97, 21
1, 12972, Note_off_c, 0, 35, 64
1, 12972, Note_off_c, 0, 60, 64
1, 12972, Note_off_c, 0, 70, 64
1, 12972, Note_off_c, 0, 72, 64
1, 12972, Note_off_c, 0, 79, 64
1, 12972, Note_off_c, 0, 80, 64
1, 12972, Note_off_c, 0, 93, 64
1, 12973, Note_on_c, 0, 53, 69
1, 12973, Note_on_c, 0, 64, 53
1, 12973, Note_off_c, 0, 65, 64
1, 12973, Note_on_c, 0, 69, 45
1, 12973, Note_off_c, 0, 74, 64
1, 12974, Note_on_c, 0, 48, 83
1, 12974, Note_off_c, 0, 53, 64
1, 12974, Note_off_c, 0, 94, 64
1, 12974, Note_off_c, 0, 95, 64
1, 12974, Note_off_c, 0, 96, 64
1, 12974, Note_off_c, 0, 97, 64
1, 12975, Note_on_c, 0, 45, 93
1, 12975, Note_off_c, 0, 48, 64
1, 12975, Note_off_c, 0, 69, 64
1, 12975, Note_off_c, 0, 73, 64
1, 12975, Note_off_c, 0, 76, 64
1, 12975, Note_on_c, 0, 80, 17
1, 12975, Note_off_c, 0, 81, 64
1, 12976, Note_on_c, 0, 42, 98
1, 12976, Note_off_c, 0, 45, 64
1, 12976, Note_on_c, 0, 73, 22
1, 12976, Note_on_c, 0, 75, 19
1, 12976, Note_on_c, 0, 81, 23
1, 12976, Note_off_c, 0, 83, 64
1, 12977, Note_on_c, 0, 40, 97
1, 12977, Note_off_c, 0, 42, 64
1, 12977, Note_on_c, 0, 68, 19
1, 12977, Note_off_c, 0, 78, 64
1, 12977, Note_on_c, 0, 85, 30
1, 12977, Note_off_c, 0, 90, 64
1, 12978, Note_on_c, 0, 38, 97
1, 12978, Note_off_c, 0, 40, 64
1, 12978, Note_on_c, 0, 56, 22
1, 12978, Note_off_c, 0, 64, 64
1, 12978, Note_on_c, 0, 70, 24
1, 12978, Note_on_c, 0, 78, 23
1, 12978, Note_on_c, 0, 84, 17
1, 12979, Note_on_c, 0, 37, 98
1, 12979, Note_off_c, 0, 38, 64
1, 12979, Note_on_c, 0, 66, 45
1, 12979, Note_off_c, 0, 73, 64
1, 12979, Note_off_c, 0, 75, 64
1, 12979, Note_off_c, 0, 87, 64
1, 12980, Note_on_c, 0, 35, 97
1, 12980, Note_off_c, 0, 37, 64
1, 12980, Note_off_c, 0, 68, 64
1, 12980, Note_off_c, 0, 81, 64
1, 12981, Note_on_c, 0, 34, 96
1, 12981, Note_off_c, 0, 35, 64
1, 12981, Note_on_c, 0, 61, 19
1, 12981, Note_off_c, 0, 70, 64
1, 12982, Note_on_c, 0, 33, 96
1, 12982, Note_off_c, 0, 34, 64
1, 12982, Note_off_c, 0, 56, 64
1, 12982, Note_off_c, 0, 78, 64
1, 12982, Note_off_c, 0, 84, 64
1, 12983, Note_on_c, 0, 88, 13
1, 12984, Note_on_c, 0, 32, 96
1, 12984, Note_off_c, 0, 33, 64
1, 12984, Note_off_c, 0, 80, 64
1, 12984, Note_on_c, 0, 89, 12
1, 12985, Note_on_c, 0, 31, 94
1, 12985, Note_off_c, 0, 32, 64
1, 12985, Note_on_c, 0, 79, 24
1, 12986, Note_off_c, 0, 61, 64
1, 12986, Note_on_c, 0, 80, 28
1, 12986, Note_on_c, 0, 83, 23
1, 12986, Note_on_c, 0, 84, 25
1, 12987, Note_on_c, 0, 75, 13
1, 12987, Note_on_c, 0, 87, 18
1, 12988, Note_on_c, 0, 30, 76
1, 12988, Note_off_c, 0, 31, 64
1, 12988, Note_on_c, 0, 54, 28
1, 12988, Note_on_c, 0, 82, 23
1, 12988, Note_off_c, 0, 89, 64
1, 12989, Note_off_c, 0, 30, 64
1, 12989, Note_on_c, 0, 77, 23
1, 12989, Note_on_c, 0, 81, 33
1, 12989, Note_off_c, 0, 83, 64
1, 12989, Note_on_c, 0, 90, 28
1, 12990, Note_on_c, 0, 73, 25
1, 12990, Note_off_c, 0, 75, 64
1, 12990, Note_off_c, 0, 80, 64
1, 12990, Note_off_c, 0, 88, 64
1, 12991, Note_off_c, 0, 54, 64
1, 12991, Note_on_c, 0, 86, 27
1, 12991, Note_off_c, 0, 87, 64
1, 12992, Note_on_c, 0, 32, 69
1, 12992, Note_on_c, 0, 61, 37
1, 12992, Note_off_c, 0, 79, 64
1, 12992, Note_off_c, 0, 82, 64
1, 12992, Note_on_c, 0, 87, 30
1, 12992, Note_on_c, 0, 92, 11
1, 12993, Note_on_c, 0, 30, 77
1, 12993, Note_off_c, 0, 32, 64
1, 12993, Note_on_c, 0, 70, 43
1, 12993, Note_on_c, 0, 75, 38
1, 12993, Note_off_c, 0, 77, 64
1, 12994, Note_on_c, 0, 29, 78
1, 12994, Note_off_c, 0, 30, 64
1, 12994, Note_on_c, 0, 65, 36
1, 12994, Note_off_c, 0, 66, 64
1, 12994, Note_on_c, 0, 68, 47
1, 12994, Note_on_c, 0, 88, 19
1, 12995, Note_off_c, 0, 29, 64
1, 12995, Note_on_c, 0, 30, 76
1, 12995, Note_off_c, 0, 70, 64
1, 12995, Note_off_c, 0, 73, 64
1, 12995, Note_on_c, 0, 74, 42
1, 12995, Note_on_c, 0, 83, 27
1, 12995, Note_off_c, 0, 84, 64
1, 12995, Note_off_c, 0, 92, 64
1, 12996, Note_on_c, 0, 73, 45
1, 12996, Note_off_c, 0, 75, 64
1, 12997, Note_on_c, 0, 58, 32
1, 12997, Note_on_c, 0, 78, 31
1, 12997, Note_off_c, 0, 87, 64
1, 12997, Note_on_c, 0, 89, 30
1, 12998, Note_on_c, 0, 29, 72
1, 12998, Note_off_c, 0, 30, 64
1, 12998, Note_off_c, 0, 83, 64
1, 12998, Note_on_c, 0, 84, 16
1, 12998, Note_on_c, 0, 87, 22
1, 12999, Note_off_c, 0, 29, 64
1, 12999, Note_on_c, 0, 30, 70
1, 12999, Note_off_c, 0, 58, 64
1, 12999, Note_off_c, 0, 74, 64
1, 12999, Note_off_c, 0, 81, 64
1, 12999, Note_on_c, 0, 82, 30
1, 12999, Note_off_c, 0, 85, 64
1, 12999, Note_on_c, 0, 95, 23
1, 12999, Note_on_c, 0, 97, 10
1, 13000, Note_on_c, 0, 29, 70
1, 13000, Note_off_c, 0, 30, 64
1, 13000, Note_off_c, 0, 61, 64
1, 13000, Note_on_c, 0, 72, 39
1, 13000, Note_on_c, 0, 83, 30
1, 13001, Note_off_c, 0, 29, 64
1, 13001, Note_on_c, 0, 30, 79
1, 13001, Note_on_c, 0, 64, 38
1, 13001, Note_off_c, 0, 65, 64
1, 13001, Note_on_c, 0, 76, 45
1, 13002, Note_off_c, 0, 72, 64
1, 13002, Note_on_c, 0, 74, 46
1, 13002, Note_off_c, 0, 84, 64
1, 13002, Note_off_c, 0, 88, 64
1, 13003, Note_off_c, 0, 78, 64
1, 13003, Note_off_c, 0, 82, 64
1, 13003, Note_on_c, 0, 84, 42
1, 13003, Note_off_c, 0, 97, 64
1, 13004, Note_on_c, 0, 29, 79
1, 13004, Note_off_c, 0, 30, 64
1, 13004, Note_on_c, 0, 94, 22
1, 13005, Note_on_c, 0, 60, 21
1, 13005, Note_on_c, 0, 71, 32
1, 13005, Note_off_c, 0, 73, 64
1, 13005, Note_on_c, 0, 77, 38
1, 13005, Note_off_c, 0, 87, 64
1, 13006, Note_off_c, 0, 29, 64
1, 13006, Note_on_c, 0, 30, 74
1, 13006, Note_off_c, 0, 64, 64
1, 13006, Note_on_c, 0, 82, 48
1, 13006, Note_on_c, 0, 93, 25
1, 13007, Note_off_c, 0, 68, 64
1, 13007, Note_off_c, 0, 71, 64
1, 13007, Note_on_c, 0, 91, 23
1, 13008, Note_off_c, 0, 30, 64
1, 13008, Note_on_c, 0, 34, 69
1, 13008, Note_off_c, 0, 60, 64
1, 13008, Note_on_c, 0, 61, 38
1, 13008, Note_on_c, 0, 71, 38
1, 13008, Note_off_c, 0, 76, 64
1, 13008, Note_on_c, 0, 85, 36
1, 13008, Note_on_c, 0, 87, 33
1, 13009, Note_off_c, 0, 34, 64
1, 13009, Note_on_c, 0, 78, 39
1, 13010, Note_off_c, 0, 61, 64
1, 13010, Note_on_c, 0, 67, 46
1, 13010, Note_off_c, 0, 71, 64
1, 13010, Note_off_c, 0, 74, 64
1, 13010, Note_off_c, 0, 77, 64
1, 13010, Note_on_c, 0, 81, 40
1, 13010, Note_off_c, 0, 82, 64
1, 13010, Note_off_c, 0, 85, 64
1, 13010, Note_off_c, 0, 91, 64
1, 13011, Note_on_c, 0, 50, 78
1, 13011, Note_on_c, 0, 70, 26
1, 13011, Note_off_c, 0, 83, 64
1, 13011, Note_off_c, 0, 86, 64
1, 13011, Note_off_c, 0, 90, 64
1, 13011, Note_off_c, 0, 93, 64
1, 13011, Note_off_c, 0, 94, 64
1, 13011, Note_off_c, 0, 95, 64
1, 13012, Note_on_c, 0, 46, 89
1, 13012, Note_off_c, 0, 50, 64
1, 13012, Note_off_c, 0, 78, 64
1, 13012, Note_off_c, 0, 81, 64
1, 13012, Note_off_c, 0, 84, 64
1, 13012, Note_off_c, 0, 87, 64
1, 13012, Note_off_c, 0, 89, 64
1, 13013, Note_on_c, 0, 42, 95
1, 13013, Note_off_c, 0, 46, 64
1, 13013, Note_off_c, 0, 67, 64
1, 13013, Note_on_c, 0, 72, 17
1, 13013, Note_on_c, 0, 88, 15
1, 13014, Note_on_c, 0, 41, 100
1, 13014, Note_off_c, 0, 42, 64
1, 13014, Note_on_c, 0, 66, 24
1, 13015, Note_on_c, 0, 39, 97
1, 13015, Note_off_c, 0, 41, 64
1, 13015, Note_on_c, 0, 79, 9
1, 13016, Note_on_c, 0, 37, 98
1, 13016, Note_off_c, 0, 39, 64
1, 13016, Note_off_c, 0, 72, 64
1, 13016, Note_on_c, 0, 74, 43
1, 13016, Note_on_c, 0, 83, 21
1, 13017, Note_on_c, 0, 36, 97
1, 13017, Note_off_c, 0, 37, 64
1, 13017, Note_off_c, 0, 88, 64
1, 13018, Note_on_c, 0, 35, 96
1, 13018, Note_off_c, 0, 36, 64
1, 13019, Note_on_c, 0, 34, 96
1, 13019, Note_off_c, 0, 35, 64
1, 13019, Note_on_c, 0, 54, 19
1, 13019, Note_off_c, 0, 79, 64
1, 13020, Note_on_c, 0, 33, 95
1, 13020, Note_off_c, 0, 34, 64
1, 13020, Note_off_c, 0, 70, 64
1, 13020, Note_off_c, 0, 83, 64
1, 13020, Note_on_c, 0, 84, 22
1, 13021, Note_on_c, 0, 32, 96
1, 13021, Note_off_c, 0, 33, 64
1, 13021, Note_on_c, 0, 81, 15
1, 13021, Note_on_c, 0, 83, 30
1, 13021, Note_on_c, 0, 85, 31
1, 13022, Note_on_c, 0, 31, 95
1, 13022, Note_off_c, 0, 32, 64
1, 13022, Note_on_c, 0, 53, 13
1, 13022, Note_off_c, 0, 54, 64
1, 13023, Note_on_c, 0, 68, 30
1, 13023, Note_off_c, 0, 84, 64
1, 13024, Note_off_c, 0, 66, 64
1, 13024, Note_on_c, 0, 71, 27
1, 13024, Note_on_c, 0, 73, 39
1, 13024, Note_on_c, 0, 78, 22
1, 13025, Note_on_c, 0, 30, 81
1, 13025, Note_off_c, 0, 31, 64
1, 13025, Note_off_c, 0, 53, 64
1, 13025, Note_off_c, 0, 81, 64
1, 13027, Note_off_c, 0, 30, 64
1, 13027, Note_on_c, 0, 59, 30
1, 13027, Note_off_c, 0, 71, 64
1, 13027, Note_off_c, 0, 78, 64
1, 13027, Note_on_c, 0, 82, 22
1, 13028, Note_on_c, 0, 64, 30
1, 13028, Note_on_c, 0, 71, 33
1, 13028, Note_off_c, 0, 74, 64
1, 13028, Note_on_c, 0, 75, 43
1, 13028, Note_on_c, 0, 81, 27
1, 13028, Note_on_c, 0, 88, 20
1, 13029, Note_on_c, 0, 36, 69
1, 13029, Note_off_c, 0, 59, 64
1, 13029, Note_on_c, 0, 61, 31
1, 13029, Note_on_c, 0, 67, 20
1, 13029, Note_on_c, 0, 91, 19
1, 13029, Note_on_c, 0, 93, 30
1, 13030, Note_on_c, 0, 31, 74
1, 13030, Note_off_c, 0, 36, 64
1, 13030, Note_on_c, 0, 49, 60
1, 13030, Note_off_c, 0, 73, 64
1, 13030, Note_on_c, 0, 74, 36
1, 13030, Note_off_c, 0, 75, 64
1, 13030, Note_off_c, 0, 82, 64
1, 13030, Note_off_c, 0, 83, 64
1, 13030, Note_on_c, 0, 84, 41
1, 13031, Note_on_c, 0, 30, 78
1, 13031, Note_off_c, 0, 31, 64
1, 13031, Note_on_c, 0, 78, 33
1, 13032, Note_on_c, 0, 29, 79
1, 13032, Note_off_c, 0, 30, 64
1, 13032, Note_off_c, 0, 64, 64
1, 13032, Note_on_c, 0, 66, 43
1, 13032, Note_off_c, 0, 67, 64
1, 13032, Note_off_c, 0, 68, 64
1, 13032, Note_on_c, 0, 70, 48
1, 13032, Note_off_c, 0, 71, 64
1, 13032, Note_on_c, 0, 73, 43
1, 13032, Note_off_c, 0, 74, 64
1, 13032, Note_off_c, 0, 93, 64
1, 13033, Note_off_c, 0, 29, 64
1, 13033, Note_on_c, 0, 30, 76
1, 13033, Note_off_c, 0, 61, 64
1, 13033, Note_on_c, 0, 75, 30
1, 13033, Note_on_c, 0, 89, 20
1, 13033, Note_on_c, 0, 92, 23
1, 13034, Note_on_c, 0, 80, 23
1, 13034, Note_off_c, 0, 88, 64
1, 13034, Note_off_c, 0, 91, 64
1, 13035, Note_off_c, 0, 49, 64
1, 13036, Note_off_c, 0, 75, 64
1, 13036, Note_on_c, 0, 76, 19
1, 13036, Note_off_c, 0, 81, 64
1, 13036, Note_off_c, 0, 85, 64
1, 13036, Note_off_c, 0, 89, 64
1, 13037, Note_on_c, 0, 29, 69
1, 13037, Note_off_c, 0, 30, 64
1, 13037, Note_on_c, 0, 62, 30
1, 13037, Note_off_c, 0, 73, 64
1, 13037, Note_on_c, 0, 87, 16
1, 13037, Note_on_c, 0, 91, 24
1, 13038, Note_off_c, 0, 29, 64
1, 13038, Note_on_c, 0, 30, 79
1, 13038, Note_on_c, 0, 89, 18
1, 13038, Note_off_c, 0, 92, 64
1, 13038, Note_on_c, 0, 98, 13
1, 13039, Note_off_c, 0, 62, 64
1, 13039, Note_on_c, 0, 64, 33
1, 13039, Note_on_c, 0, 73, 40
1, 13039, Note_off_c, 0, 76, 64
1, 13039, Note_on_c, 0, 86, 14
1, 13040, Note_on_c, 0, 49, 60
1, 13040, Note_off_c, 0, 87, 64
1, 13041, Note_off_c, 0, 64, 64
1, 13042, Note_on_c, 0, 29, 78
1, 13042, Note_off_c, 0, 30, 64
1, 13042, Note_off_c, 0, 49, 64
1, 13042, Note_off_c, 0, 89, 64
1, 13043, Note_on_c, 0, 81, 11
1, 13043, Note_off_c, 0, 86, 64
1, 13043, Note_off_c, 0, 98, 64
1, 13044, Note_off_c, 0, 29, 64
1, 13044, Note_on_c, 0, 30, 71
1, 13044, Note_off_c, 0, 80, 64
1, 13044, Note_off_c, 0, 84, 64
1, 13045, Note_off_c, 0, 30, 64
1, 13045, Note_on_c, 0, 34, 70
1, 13045, Note_off_c, 0, 66, 64
1, 13045, Note_on_c, 0, 67, 30
1, 13045, Note_off_c, 0, 91, 64
1, 13046, Note_off_c, 0, 34, 64
1, 13046, Note_on_c, 0, 68, 47
1, 13046, Note_on_c, 0, 71, 40
1, 13046, Note_on_c, 0, 79, 42
1, 13046, Note_off_c, 0, 81, 64
1, 13046, Note_on_c, 0, 84, 32
1, 13046, Note_on_c, 0, 86, 28
1, 13046, Note_on_c, 0, 88, 23
1, 13046, Note_on_c, 0, 89, 27
1, 13046, Note_on_c, 0, 92, 19
1, 13046, Note_on_c, 0, 95, 17
1, 13046, Note_on_c, 0, 99, 17
1, 13047, Note_off_c, 0, 67, 64
1, 13047, Note_off_c, 0, 70, 64
1, 13047, Note_off_c, 0, 78, 64
1, 13047, Note_on_c, 0, 87, 25
1, 13048, Note_on_c, 0, 51, 70
1, 13048, Note_on_c, 0, 64, 48
1, 13048, Note_on_c, 0, 67, 48
1, 13048, Note_off_c, 0, 68, 64
1, 13048, Note_on_c, 0, 77, 20
1, 13048, Note_on_c, 0, 78, 30
1, 13048, Note_off_c, 0, 79, 64
1, 13048, Note_on_c, 0, 81, 20
1, 13049, Note_on_c, 0, 48, 85
1, 13049, Note_off_c, 0, 51, 64
1, 13049, Note_off_c, 0, 71, 64
1, 13049, Note_off_c, 0, 84, 64
1, 13049, Note_off_c, 0, 86, 64
1, 13049, Note_off_c, 0, 88, 64
1, 13049, Note_off_c, 0, 89, 64
1, 13049, Note_off_c, 0, 92, 64
1, 13049, Note_off_c, 0, 95, 64
1, 13049, Note_off_c, 0, 99, 64
1, 13050, Note_on_c, 0, 45, 94
1, 13050, Note_off_c, 0, 48, 64
1, 13050, Note_on_c, 0, 63, 21
1, 13050, Note_off_c, 0, 64, 64
1, 13050, Note_off_c, 0, 67, 64
1, 13051, Note_on_c, 0, 42, 99
1, 13051, Note_off_c, 0, 45, 64
1, 13051, Note_off_c, 0, 77, 64
1, 13052, Note_on_c, 0, 40, 97
1, 13052, Note_off_c, 0, 42, 64
1, 13053, Note_on_c, 0, 38, 98
1, 13053, Note_off_c, 0, 40, 64
1, 13053, Note_off_c, 0, 63, 64
1, 13053, Note_off_c, 0, 81, 64
1, 13053, Note_off_c, 0, 87, 64
1, 13054, Note_on_c, 0, 36, 98
1, 13054, Note_off_c, 0, 38, 64
1, 13055, Note_on_c, 0, 35, 97
1, 13055, Note_off_c, 0, 36, 64
1, 13055, Note_on_c, 0, 76, 23
1, 13056, Note_on_c, 0, 34, 96
1, 13056, Note_off_c, 0, 35, 64
1, 13056, Note_on_c, 0, 82, 26
1, 13056, Note_on_c, 0, 83, 19
1, 13057, Note_on_c, 0, 33, 96
1, 13057, Note_off_c, 0, 34, 64
1, 13057, Note_on_c, 0, 61, 14
1, 13057, Note_on_c, 0, 79, 11
1, 13058, Note_on_c, 0, 32, 96
1, 13058, Note_off_c, 0, 33, 64
1, 13059, Note_off_c, 0, 76, 64
1, 13059, Note_off_c, 0, 78, 64
1, 13059, Note_on_c, 0, 86, 39
1, 13060, Note_on_c, 0, 31, 94
1, 13060, Note_off_c, 0, 32, 64
1, 13060, Note_off_c, 0, 61, 64
1, 13060, Note_on_c, 0, 76, 26
1, 13060, Note_on_c, 0, 78, 16
1, 13060, Note_off_c, 0, 79, 64
1, 13060, Note_on_c, 0, 80, 15
1, 13060, Note_off_c, 0, 83, 64
1, 13061, Note_off_c, 0, 73, 64
1, 13061, Note_off_c, 0, 82, 64
1, 13062, Note_on_c, 0, 30, 85
1, 13062, Note_off_c, 0, 31, 64
1, 13062, Note_on_c, 0, 70, 24
1, 13062, Note_on_c, 0, 73, 45
1, 13064, Note_off_c, 0, 76, 64
1, 13064, Note_off_c, 0, 80, 64
1, 13064, Note_on_c, 0, 83, 16
1, 13065, Note_off_c, 0, 30, 64
1, 13065, Note_on_c, 0, 72, 46
1, 13065, Note_off_c, 0, 73, 64
1, 13065, Note_on_c, 0, 79, 19
1, 13065, Note_on_c, 0, 81, 21
1, 13066, Note_on_c, 0, 42, 65
1, 13066, Note_off_c, 0, 78, 64
1, 13066, Note_on_c, 0, 88, 14
1, 13067, Note_on_c, 0, 31, 70
1, 13067, Note_off_c, 0, 42, 64
1, 13067, Note_on_c, 0, 61, 30
1, 13067, Note_on_c, 0, 66, 28
1, 13067, Note_off_c, 0, 70, 64
1, 13067, Note_on_c, 0, 73, 44
1, 13067, Note_on_c, 0, 75, 35
1, 13067, Note_off_c, 0, 83, 64
1, 13067, Note_on_c, 0, 90, 10
1, 13068, Note_on_c, 0, 30, 78
1, 13068, Note_off_c, 0, 31, 64
1, 13068, Note_off_c, 0, 72, 64
1, 13069, Note_on_c, 0, 29, 80
1, 13069, Note_off_c, 0, 30, 64
1, 13069, Note_on_c, 0, 49, 59
1, 13069, Note_on_c, 0, 72, 38
1, 13069, Note_off_c, 0, 75, 64
1, 13069, Note_on_c, 0, 76, 29
1, 13069, Note_on_c, 0, 78, 29
1, 13070, Note_off_c, 0, 61, 64
1, 13070, Note_on_c, 0, 74, 34
1, 13070, Note_on_c, 0, 83, 14
1, 13070, Note_off_c, 0, 88, 64
1, 13071, Note_off_c, 0, 49, 64
1, 13071, Note_off_c, 0, 66, 64
1, 13071, Note_off_c, 0, 73, 64
1, 13071, Note_off_c, 0, 90, 64
1, 13072, Note_off_c, 0, 29, 64
1, 13072, Note_on_c, 0, 30, 74
1, 13072, Note_on_c, 0, 62, 31
1, 13072, Note_on_c, 0, 68, 30
1, 13072, Note_off_c, 0, 72, 64
1, 13072, Note_off_c, 0, 79, 64
1, 13072, Note_off_c, 0, 81, 64
1, 13072, Note_on_c, 0, 101, 14
1, 13073, Note_on_c, 0, 29, 73
1, 13073, Note_off_c, 0, 30, 64
1, 13073, Note_on_c, 0, 70, 28
1, 13074, Note_on_c, 0, 66, 35
1, 13074, Note_off_c, 0, 68, 64
1, 13074, Note_off_c, 0, 74, 64
1, 13074, Note_on_c, 0, 84, 28
1, 13075, Note_on_c, 0, 74, 59
1, 13075, Note_off_c, 0, 76, 64
1, 13075, Note_on_c, 0, 82, 30
1, 13075, Note_off_c, 0, 83, 64
1, 13075, Note_off_c, 0, 86, 64
1, 13075, Note_on_c, 0, 87, 42
1, 13075, Note_off_c, 0, 101, 64
1, 13076, Note_off_c, 0, 29, 64
1, 13076, Note_on_c, 0, 30, 72
1, 13076, Note_on_c, 0, 61, 28
1, 13076, Note_off_c, 0, 62, 64
1, 13076, Note_off_c, 0, 70, 64
1, 13077, Note_off_c, 0, 30, 64
1, 13077, Note_on_c, 0, 31, 77
1, 13077, Note_on_c, 0, 49, 60
1, 13077, Note_on_c, 0, 68, 38
1, 13077, Note_on_c, 0, 91, 11
1, 13078, Note_on_c, 0, 30, 80
1, 13078, Note_off_c, 0, 31, 64
1, 13078, Note_on_c, 0, 76, 32
1, 13079, Note_on_c, 0, 29, 79
1, 13079, Note_off_c, 0, 30, 64
1, 13079, Note_off_c, 0, 61, 64
1, 13079, Note_off_c, 0, 68, 64
1, 13079, Note_on_c, 0, 70, 33
1, 13079, Note_off_c, 0, 78, 64
1, 13079, Note_off_c, 0, 84, 64
1, 13080, Note_off_c, 0, 49, 64
1, 13080, Note_off_c, 0, 76, 64
1, 13080, Note_on_c, 0, 77, 15
1, 13080, Note_on_c, 0, 81, 17
1, 13080, Note_off_c, 0, 91, 64
1, 13081, Note_off_c, 0, 29, 64
1, 13081, Note_on_c, 0, 30, 75
1, 13081, Note_off_c, 0, 66, 64
1, 13081, Note_off_c, 0, 70, 64
1, 13081, Note_on_c, 0, 72, 43
1, 13081, Note_on_c, 0, 79, 17
1, 13081, Note_off_c, 0, 82, 64
1, 13081, Note_on_c, 0, 100, 17
1, 13082, Note_off_c, 0, 30, 64
1, 13082, Note_on_c, 0, 31, 70
1, 13082, Note_on_c, 0, 54, 37
1, 13082, Note_on_c, 0, 89, 30
1, 13083, Note_off_c, 0, 31, 64
1, 13083, Note_on_c, 0, 34, 69
1, 13083, Note_on_c, 0, 78, 34
1, 13083, Note_on_c, 0, 80, 35
1, 13083, Note_off_c, 0, 81, 64
1, 13083, Note_on_c, 0, 83, 35
1, 13083, Note_on_c, 0, 88, 31
1, 13083, Note_on_c, 0, 93, 29
1, 13083, Note_on_c, 0, 96, 25
1, 13084, Note_off_c, 0, 34, 64
1, 13084, Note_off_c, 0, 54, 64
1, 13084, Note_on_c, 0, 55, 65
1, 13084, Note_on_c, 0, 76, 39
1, 13084, Note_off_c, 0, 77, 64
1, 13084, Note_off_c, 0, 79, 64
1, 13084, Note_on_c, 0, 81, 35
1, 13084, Note_off_c, 0, 87, 64
1, 13084, Note_on_c, 0, 91, 30
1, 13084, Note_on_c, 0, 97, 20
1, 13085, Note_on_c, 0, 70, 36
1, 13085, Note_off_c, 0, 74, 64
1, 13085, Note_off_c, 0, 80, 64
1, 13085, Note_on_c, 0, 85, 34
1, 13085, Note_on_c, 0, 87, 24
1, 13085, Note_on_c, 0, 94, 22
1, 13086, Note_on_c, 0, 50, 78
1, 13086, Note_off_c, 0, 55, 64
1, 13086, Note_on_c, 0, 80, 12
1, 13086, Note_off_c, 0, 89, 64
1, 13086, Note_off_c, 0, 91, 64
1, 13086, Note_off_c, 0, 96, 64
1, 13086, Note_off_c, 0, 100, 64
1, 13087, Note_on_c, 0, 45, 90
1, 13087, Note_off_c, 0, 50, 64
1, 13087, Note_off_c, 0, 70, 64
1, 13087, Note_off_c, 0, 72, 64
1, 13087, Note_on_c, 0, 73, 22
1, 13087, Note_on_c, 0, 75, 15
1, 13087, Note_off_c, 0, 76, 64
1, 13087, Note_off_c, 0, 81, 64
1, 13087, Note_off_c, 0, 88, 64
1, 13087, Note_on_c, 0, 89, 18
1, 13087, Note_off_c, 0, 97, 64
1, 13088, Note_on_c, 0, 42, 96
1, 13088, Note_off_c, 0, 45, 64
1, 13088, Note_on_c, 0, 84, 18
1, 13088, Note_off_c, 0, 87, 64
1, 13088, Note_off_c, 0, 93, 64
1, 13088, Note_off_c, 0, 94, 64
1, 13089, Note_on_c, 0, 41, 100
1, 13089, Note_off_c, 0, 42, 64
1, 13089, Note_on_c, 0, 66, 39
1, 13089, Note_off_c, 0, 85, 64
1, 13090, Note_on_c, 0, 39, 97
1, 13090, Note_off_c, 0, 41, 64
1, 13090, Note_off_c, 0, 73, 64
1, 13090, Note_off_c, 0, 75, 64
1, 13090, Note_off_c, 0, 83, 64
1, 13091, Note_on_c, 0, 37, 98
1, 13091, Note_off_c, 0, 39, 64
1, 13091, Note_on_c, 0, 70, 38
1, 13091, Note_off_c, 0, 84, 64
1, 13091, Note_off_c, 0, 89, 64
1, 13092, Note_on_c, 0, 36, 97
1, 13092, Note_off_c, 0, 37, 64
1, 13092, Note_on_c, 0, 61, 12
1, 13092, Note_on_c, 0, 88, 38
1, 13093, Note_on_c, 0, 35, 96
1, 13093, Note_off_c, 0, 36, 64
1, 13093, Note_on_c, 0, 76, 40
1, 13094, Note_on_c, 0, 34, 96
1, 13094, Note_off_c, 0, 35, 64
1, 13094, Note_off_c, 0, 78, 64
1, 13094, Note_off_c, 0, 80, 64
1, 13095, Note_on_c, 0, 33, 95
1, 13095, Note_off_c, 0, 34, 64
1, 13095, Note_off_c, 0, 61, 64
1, 13096, Note_on_c, 0, 32, 96
1, 13096, Note_off_c, 0, 33, 64
1, 13097, Note_on_c, 0, 31, 95
1, 13097, Note_off_c, 0, 32, 64
1, 13097, Note_on_c, 0, 73, 27
1, 13098, Note_on_c, 0, 80, 24
1, 13099, Note_on_c, 0, 83, 11
1, 13100, Note_on_c, 0, 30, 80
1, 13100, Note_off_c, 0, 31, 64
1, 13102, Note_off_c, 0, 30, 64
1, 13102, Note_on_c, 0, 61, 33
1, 13102, Note_off_c, 0, 73, 64
1, 13103, Note_off_c, 0, 83, 64
1, 13103, Note_on_c, 0, 84, 23
1, 13103, Note_on_c, 0, 86, 14
1, 13104, Note_on_c, 0, 36, 72
1, 13104, Note_on_c, 0, 54, 51
1, 13104, Note_on_c, 0, 73, 54
1, 13104, Note_on_c, 0, 81, 29
1, 13105, Note_on_c, 0, 31, 77
1, 13105, Note_off_c, 0, 36, 64
1, 13105, Note_on_c, 0, 49, 62
1, 13105, Note_on_c, 0, 65, 38
1, 13105, Note_off_c, 0, 66, 64
1, 13106, Note_on_c, 0, 30, 80
1, 13106, Note_off_c, 0, 31, 64
1, 13106, Note_off_c, 0, 76, 64
1, 13106, Note_on_c, 0, 77, 50
1, 13107, Note_on_c, 0, 29, 80
1, 13107, Note_off_c, 0, 30, 64
1, 13107, Note_on_c, 0, 74, 35
1, 13107, Note_off_c, 0, 80, 64
1, 13107, Note_off_c, 0, 84, 64
1, 13107, Note_off_c, 0, 86, 64
1, 13108, Note_off_c, 0, 29, 64
1, 13108, Note_on_c, 0, 30, 77
1, 13108, Note_off_c, 0, 49, 64
1, 13108, Note_off_c, 0, 54, 64
1, 13108, Note_on_c, 0, 64, 34
1, 13108, Note_off_c, 0, 65, 64
1, 13108, Note_on_c, 0, 80, 16
1, 13108, Note_on_c, 0, 84, 14
1, 13108, Note_off_c, 0, 88, 64
1, 13109, Note_on_c, 0, 49, 48
1, 13109, Note_off_c, 0, 61, 64
1, 13109, Note_off_c, 0, 74, 64
1, 13109, Note_on_c, 0, 75, 39
1, 13110, Note_on_c, 0, 29, 74
1, 13110, Note_off_c, 0, 30, 64
1, 13110, Note_on_c, 0, 54, 43
1, 13110, Note_on_c, 0, 68, 22
1, 13111, Note_off_c, 0, 64, 64
1, 13111, Note_on_c, 0, 86, 23
1, 13112, Note_off_c, 0, 54, 64
1, 13112, Note_off_c, 0, 70, 64
1, 13112, Note_on_c, 0, 71, 31
1, 13112, Note_off_c, 0, 75, 64
1, 13112, Note_on_c, 0, 90, 16
1, 13113, Note_off_c, 0, 29, 64
1, 13113, Note_on_c, 0, 30, 74
1, 13113, Note_off_c, 0, 49, 64
1, 13113, Note_off_c, 0, 68, 64
1, 13113, Note_off_c, 0, 80, 64
1, 13113, Note_off_c, 0, 84, 64
1, 13114, Note_on_c, 0, 61, 36
1, 13114, Note_on_c, 0, 63, 35
1, 13114, Note_on_c, 0, 68, 41
1, 13114, Note_off_c, 0, 71, 64
1, 13114, Note_on_c, 0, 84, 18
1, 13115, Note_off_c, 0, 30, 64
1, 13115, Note_on_c, 0, 31, 77
1, 13115, Note_off_c, 0, 81, 64
1, 13115, Note_off_c, 0, 90, 64
1, 13116, Note_on_c, 0, 29, 78
1, 13116, Note_off_c, 0, 31, 64
1, 13116, Note_off_c, 0, 63, 64
1, 13116, Note_on_c, 0, 64, 38
1, 13116, Note_on_c, 0, 81, 20
1, 13116, Note_on_c, 0, 87, 31
1, 13116, Note_on_c, 0, 100, 15
1, 13117, Note_off_c, 0, 61, 64
1, 13117, Note_on_c, 0, 72, 30
1, 13117, Note_off_c, 0, 84, 64
1, 13117, Note_off_c, 0, 86, 64
1, 13118, Note_off_c, 0, 29, 64
1, 13118, Note_on_c, 0, 30, 75
1, 13118, Note_off_c, 0, 68, 64
1, 13119, Note_off_c, 0, 64, 64
1, 13119, Note_off_c, 0, 72, 64
1, 13119, Note_on_c, 0, 80, 27
1, 13119, Note_off_c, 0, 81, 64
1, 13120, Note_off_c, 0, 30, 64
1, 13120, Note_on_c, 0, 34, 72
1, 13120, Note_on_c, 0, 68, 42
1, 13120, Note_on_c, 0, 72, 53
1, 13120, Note_off_c, 0, 73, 64
1, 13120, Note_on_c, 0, 78, 33
1, 13120, Note_off_c, 0, 100, 64
1, 13121, Note_off_c, 0, 34, 64
1, 13121, Note_on_c, 0, 63, 48
1, 13121, Note_on_c, 0, 81, 36
1, 13121, Note_on_c, 0, 83, 31
1, 13121, Note_on_c, 0, 85, 28
1, 13121, Note_on_c, 0, 88, 30
1, 13121, Note_on_c, 0, 91, 26
1, 13121, Note_on_c, 0, 94, 25
1, 13121, Note_on_c, 0, 98, 18
1, 13122, Note_on_c, 0, 70, 43
1, 13122, Note_on_c, 0, 74, 38
1, 13122, Note_on_c, 0, 76, 35
1, 13122, Note_off_c, 0, 77, 64
1, 13122, Note_off_c, 0, 78, 64
1, 13122, Note_on_c, 0, 79, 37
1, 13122, Note_off_c, 0, 80, 64
1, 13123, Note_on_c, 0, 51, 74
1, 13123, Note_off_c, 0, 63, 64
1, 13123, Note_on_c, 0, 65, 44
1, 13123, Note_off_c, 0, 68, 64
1, 13123, Note_on_c, 0, 71, 41
1, 13123, Note_off_c, 0, 72, 64
1, 13123, Note_on_c, 0, 73, 38
1, 13123, Note_on_c, 0, 78, 35
1, 13124, Note_on_c, 0, 48, 85
1, 13124, Note_off_c, 0, 51, 64
1, 13124, Note_off_c, 0, 70, 64
1, 13124, Note_off_c, 0, 74, 64
1, 13124, Note_off_c, 0, 79, 64
1, 13124, Note_off_c, 0, 81, 64
1, 13124, Note_off_c, 0, 83, 64
1, 13124, Note_off_c, 0, 85, 64
1, 13124, Note_off_c, 0, 88, 64
1, 13124, Note_off_c, 0, 91, 64
1, 13124, Note_off_c, 0, 94, 64
1, 13124, Note_off_c, 0, 98, 64
1, 13125, Note_on_c, 0, 45, 94
1, 13125, Note_off_c, 0, 48, 64
1, 13125, Note_off_c, 0, 65, 64
1, 13125, Note_off_c, 0, 71, 64
1, 13125, Note_off_c, 0, 87, 64
1, 13126, Note_on_c, 0, 42, 99
1, 13126, Note_off_c, 0, 45, 64
1, 13127, Note_on_c, 0, 40, 97
1, 13127, Note_off_c, 0, 42, 64
1, 13127, Note_off_c, 0, 76, 64
1, 13127, Note_on_c, 0, 80, 10
1, 13128, Note_on_c, 0, 38, 98
1, 13128, Note_off_c, 0, 40, 64
1, 13128, Note_off_c, 0, 73, 64
1, 13128, Note_on_c, 0, 74, 42
1, 13129, Note_on_c, 0, 36, 97
1, 13129, Note_off_c, 0, 38, 64
1, 13129, Note_on_c, 0, 70, 16
1, 13129, Note_off_c, 0, 78, 64
1, 13130, Note_on_c, 0, 35, 96
1, 13130, Note_off_c, 0, 36, 64
1, 13130, Note_on_c, 0, 78, 36
1, 13130, Note_off_c, 0, 80, 64
1, 13131, Note_on_c, 0, 34, 96
1, 13131, Note_off_c, 0, 35, 64
1, 13132, Note_on_c, 0, 33, 96
1, 13132, Note_off_c, 0, 34, 64
1, 13132, Note_off_c, 0, 70, 64
1, 13133, Note_on_c, 0, 32, 96
1, 13133, Note_off_c, 0, 33, 64
1, 13134, Note_on_c, 0, 48, 31
1, 13135, Note_on_c, 0, 31, 95
1, 13135, Note_off_c, 0, 32, 64
1, 13135, Note_on_c, 0, 67, 17
1, 13135, Note_on_c, 0, 71, 31
1, 13136, Note_off_c, 0, 48, 64
1, 13137, Note_on_c, 0, 30, 84
1, 13137, Note_off_c, 0, 31, 64
1, 13137, Note_on_c, 0, 63, 28
1, 13137, Note_on_c, 0, 77, 21
1, 13138, Note_off_c, 0, 67, 64
1, 13139, Note_off_c, 0, 30, 64
1, 13139, Note_on_c, 0, 69, 16
1, 13139, Note_off_c, 0, 78, 64
1, 13139, Note_on_c, 0, 79, 52
1, 13140, Note_off_c, 0, 71, 64
1, 13140, Note_on_c, 0, 73, 35
1, 13140, Note_off_c, 0, 74, 64
1, 13140, Note_on_c, 0, 75, 49
1, 13140, Note_on_c, 0, 82, 23
1, 13141, Note_on_c, 0, 37, 66
1, 13141, Note_off_c, 0, 77, 64
1, 13141, Note_on_c, 0, 90, 17
1, 13141, Note_on_c, 0, 92, 16
1, 13142, Note_on_c, 0, 31, 73
1, 13142, Note_off_c, 0, 37, 64
1, 13142, Note_on_c, 0, 54, 53
1, 13142, Note_on_c, 0, 68, 24
1, 13142, Note_off_c, 0, 69, 64
1, 13142, Note_on_c, 0, 86, 26
1, 13142, Note_on_c, 0, 95, 17
1, 13143, Note_on_c, 0, 30, 78
1, 13143, Note_off_c, 0, 31, 64
1, 13143, Note_on_c, 0, 70, 44
1, 13143, Note_off_c, 0, 73, 64
1, 13143, Note_off_c, 0, 75, 64
1, 13143, Note_on_c, 0, 84, 22
1, 13143, Note_on_c, 0, 89, 24
1, 13144, Note_on_c, 0, 29, 79
1, 13144, Note_off_c, 0, 30, 64
1, 13144, Note_on_c, 0, 81, 19
1, 13144, Note_on_c, 0, 88, 23
1, 13144, Note_off_c, 0, 90, 64
1, 13145, Note_on_c, 0, 49, 57
1, 13145, Note_off_c, 0, 54, 64
1, 13145, Note_off_c, 0, 63, 64
1, 13145, Note_on_c, 0, 73, 35
1, 13146, Note_off_c, 0, 29, 64
1, 13146, Note_on_c, 0, 30, 73
1, 13146, Note_on_c, 0, 63, 21
1, 13146, Note_off_c, 0, 68, 64
1, 13146, Note_off_c, 0, 82, 64
1, 13146, Note_off_c, 0, 84, 64
1, 13146, Note_on_c, 0, 87, 32
1, 13146, Note_off_c, 0, 92, 64
1, 13147, Note_off_c, 0, 49, 64
1, 13147, Note_on_c, 0, 83, 25
1, 13147, Note_on_c, 0, 84, 18
1, 13148, Note_on_c, 0, 29, 71
1, 13148, Note_off_c, 0, 30, 64
1, 13149, Note_off_c, 0, 63, 64
1, 13149, Note_off_c, 0, 73, 64
1, 13149, Note_on_c, 0, 74, 35
1, 13149, Note_off_c, 0, 86, 64
1, 13149, Note_off_c, 0, 88, 64
1, 13150, Note_on_c, 0, 66, 56
1, 13150, Note_off_c, 0, 83, 64
1, 13150, Note_on_c, 0, 90, 16
1, 13151, Note_off_c, 0, 29, 64
1, 13151, Note_on_c, 0, 30, 80
1, 13151, Note_off_c, 0, 81, 64
1, 13151, Note_off_c, 0, 89, 64
1, 13152, Note_on_c, 0, 49, 59
1, 13152, Note_off_c, 0, 95, 64
1, 13153, Note_on_c, 0, 73, 41
1, 13153, Note_off_c, 0, 74, 64
1, 13153, Note_on_c, 0, 76, 44
1, 13153, Note_on_c, 0, 89, 17
1, 13154, Note_on_c, 0, 29, 79
1, 13154, Note_off_c, 0, 30, 64
1, 13154, Note_off_c, 0, 84, 64
1, 13154, Note_off_c, 0, 90, 64
1, 13155, Note_off_c, 0, 29, 64
1, 13155, Note_on_c, 0, 30, 76
1, 13155, Note_off_c, 0, 49, 64
1, 13155, Note_on_c, 0, 84, 15
1, 13155, Note_on_c, 0, 92, 37
1, 13156, Note_off_c, 0, 79, 64
1, 13156, Note_on_c, 0, 80, 51
1, 13156, Note_off_c, 0, 87, 64
1, 13157, Note_off_c, 0, 30, 64
1, 13157, Note_on_c, 0, 31, 70
1, 13157, Note_off_c, 0, 66, 64
1, 13157, Note_on_c, 0, 67, 43
1, 13157, Note_off_c, 0, 89, 64
1, 13157, Note_on_c, 0, 91, 28
1, 13158, Note_off_c, 0, 31, 64
1, 13158, Note_on_c, 0, 35, 68
1, 13158, Note_off_c, 0, 73, 64
1, 13158, Note_on_c, 0, 83, 30
1, 13158, Note_on_c, 0, 86, 31
1, 13158, Note_on_c, 0, 87, 34
1, 13158, Note_on_c, 0, 89, 27
1, 13158, Note_on_c, 0, 90, 26
1, 13158, Note_on_c, 0, 93, 25
1, 13158, Note_on_c, 0, 100, 22
1, 13159, Note_off_c, 0, 35, 64
1, 13159, Note_on_c, 0, 66, 53
1, 13159, Note_off_c, 0, 67, 64
1, 13159, Note_on_c, 0, 69, 43
1, 13159, Note_on_c, 0, 73, 42
1, 13159, Note_off_c, 0, 84, 64
1, 13160, Note_on_c, 0, 54, 66
1, 13160, Note_off_c, 0, 70, 64
1, 13160, Note_off_c, 0, 80, 64
1, 13160, Note_off_c, 0, 87, 64
1, 13161, Note_on_c, 0, 49, 80
1, 13161, Note_off_c, 0, 54, 64
1, 13161, Note_off_c, 0, 66, 64
1, 13161, Note_off_c, 0, 69, 64
1, 13161, Note_on_c, 0, 80, 39
1, 13161, Note_off_c, 0, 83, 64
1, 13161, Note_off_c, 0, 86, 64
1, 13161, Note_off_c, 0, 89, 64
1, 13161, Note_off_c, 0, 90, 64
1, 13161, Note_off_c, 0, 91, 64
1, 13161, Note_off_c, 0, 93, 64
1, 13161, Note_off_c, 0, 100, 64
1, 13162, Note_on_c, 0, 45, 92
1, 13162, Note_off_c, 0, 49, 64
1, 13162, Note_off_c, 0, 76, 64
1, 13163, Note_on_c, 0, 42, 97
1, 13163, Note_off_c, 0, 45, 64
1, 13164, Note_on_c, 0, 41, 100
1, 13164, Note_off_c, 0, 42, 64
1, 13164, Note_on_c, 0, 68, 24
1, 13165, Note_on_c, 0, 38, 98
1, 13165, Note_off_c, 0, 41, 64
1, 13166, Note_on_c, 0, 37, 98
1, 13166, Note_off_c, 0, 38, 64
1, 13166, Note_on_c, 0, 62, 13
1, 13166, Note_on_c, 0, 70, 19
1, 13167, Note_on_c, 0, 36, 97
1, 13167, Note_off_c, 0, 37, 64
1, 13167, Note_off_c, 0, 68, 64
1, 13167, Note_on_c, 0, 75, 21
1, 13168, Note_on_c, 0, 35, 96
1, 13168, Note_off_c, 0, 36, 64
1, 13169, Note_on_c, 0, 34, 96
1, 13169, Note_off_c, 0, 35, 64
1, 13169, Note_on_c, 0, 90, 21
1, 13170, Note_on_c, 0, 33, 95
1, 13170, Note_off_c, 0, 34, 64
1, 13170, Note_off_c, 0, 62, 64
1, 13170, Note_on_c, 0, 78, 18
1, 13170, Note_on_c, 0, 86, 11
1, 13170, Note_on_c, 0, 87, 21
1, 13171, Note_on_c, 0, 32, 96
1, 13171, Note_off_c, 0, 33, 64
1, 13171, Note_off_c, 0, 75, 64
1, 13172, Note_on_c, 0, 31, 95
1, 13172, Note_off_c, 0, 32, 64
1, 13172, Note_on_c, 0, 74, 33
1, 13172, Note_off_c, 0, 80, 64
1, 13172, Note_on_c, 0, 81, 57
1, 13172, Note_on_c, 0, 88, 21
1, 13172, Note_off_c, 0, 92, 64
1, 13173, Note_on_c, 0, 66, 15
1, 13173, Note_off_c, 0, 70, 64
1, 13173, Note_on_c, 0, 72, 31
1, 13173, Note_off_c, 0, 73, 64
1, 13173, Note_off_c, 0, 78, 64
1, 13173, Note_off_c, 0, 86, 64
1, 13173, Note_off_c, 0, 87, 64
1, 13174, Note_on_c, 0, 73, 49
1, 13174, Note_off_c, 0, 74, 64
1, 13175, Note_on_c, 0, 30, 79
1, 13175, Note_off_c, 0, 31, 64
1, 13175, Note_off_c, 0, 72, 64
1, 13175, Note_on_c, 0, 78, 17
1, 13175, Note_on_c, 0, 87, 16
1, 13175, Note_off_c, 0, 88, 64
1, 13175, Note_off_c, 0, 90, 64
1, 13175, Note_on_c, 0, 91, 15
1, 13176, Note_off_c, 0, 66, 64
1, 13176, Note_on_c, 0, 67, 13
1, 13176, Note_on_c, 0, 70, 27
1, 13177, Note_off_c, 0, 30, 64
1, 13177, Note_on_c, 0, 83, 25
1, 13178, Note_on_c, 0, 36, 69
1, 13178, Note_off_c, 0, 78, 64
1, 13178, Note_on_c, 0, 79, 29
1, 13178, Note_on_c, 0, 86, 16
1, 13178, Note_on_c, 0, 88, 25
1, 13179, Note_on_c, 0, 54, 52
1, 13179, Note_on_c, 0, 61, 34
1, 13179, Note_on_c, 0, 64, 35
1, 13179, Note_off_c, 0, 67, 64
1, 13179, Note_off_c, 0, 70, 64
1, 13179, Note_off_c, 0, 87, 64
1, 13180, Note_on_c, 0, 31, 77
1, 13180, Note_off_c, 0, 36, 64
1, 13180, Note_on_c, 0, 67, 35
1, 13180, Note_on_c, 0, 77, 27
1, 13181, Note_on_c, 0, 30, 80
1, 13181, Note_off_c, 0, 31, 64
1, 13181, Note_off_c, 0, 54, 64
1, 13181, Note_on_c, 0, 71, 49
1, 13181, Note_off_c, 0, 91, 64
1, 13182, Note_on_c, 0, 29, 79
1, 13182, Note_off_c, 0, 30, 64
1, 13182, Note_on_c, 0, 49, 55
1, 13182, Note_off_c, 0, 67, 64
1, 13182, Note_on_c, 0, 69, 40
1, 13182, Note_off_c, 0, 79, 64
1, 13183, Note_off_c, 0, 29, 64
1, 13183, Note_on_c, 0, 30, 76
1, 13183, Note_on_c, 0, 54, 43
1, 13183, Note_off_c, 0, 73, 64
1, 13183, Note_on_c, 0, 79, 36
1, 13183, Note_off_c, 0, 86, 64
1, 13183, Note_off_c, 0, 88, 64
1, 13184, Note_off_c, 0, 64, 64
1, 13184, Note_on_c, 0, 88, 15
1, 13185, Note_on_c, 0, 29, 74
1, 13185, Note_off_c, 0, 30, 64
1, 13185, Note_on_c, 0, 48, 47
1, 13185, Note_off_c, 0, 49, 64
1, 13185, Note_on_c, 0, 68, 37
1, 13185, Note_off_c, 0, 69, 64
1, 13185, Note_on_c, 0, 76, 39
1, 13185, Note_off_c, 0, 77, 64
1, 13186, Note_off_c, 0, 29, 64
1, 13186, Note_on_c, 0, 30, 72
1, 13186, Note_off_c, 0, 54, 64
1, 13186, Note_on_c, 0, 74, 54
1, 13186, Note_off_c, 0, 79, 64
1, 13186, Note_on_c, 0, 87, 18
1, 13187, Note_on_c, 0, 29, 70
1, 13187, Note_off_c, 0, 30, 64
1, 13187, Note_off_c, 0, 48, 64
1, 13187, Note_off_c, 0, 61, 64
1, 13187, Note_on_c, 0, 63, 37
1, 13187, Note_on_c, 0, 67, 40
1, 13187, Note_off_c, 0, 68, 64
1, 13187, Note_off_c, 0, 71, 64
1, 13187, Note_on_c, 0, 89, 29
1, 13188, Note_off_c, 0, 29, 64
1, 13188, Note_on_c, 0, 30, 78
1, 13188, Note_on_c, 0, 43, 65
1, 13188, Note_on_c, 0, 69, 46
1, 13188, Note_on_c, 0, 85, 26
1, 13188, Note_off_c, 0, 88, 64
1, 13189, Note_off_c, 0, 43, 64
1, 13189, Note_on_c, 0, 66, 38
1, 13189, Note_off_c, 0, 67, 64
1, 13190, Note_on_c, 0, 77, 25
1, 13190, Note_off_c, 0, 81, 64
1, 13190, Note_on_c, 0, 82, 61
1, 13190, Note_off_c, 0, 83, 64
1, 13191, Note_on_c, 0, 29, 78
1, 13191, Note_off_c, 0, 30, 64
1, 13191, Note_on_c, 0, 49, 56
1, 13191, Note_on_c, 0, 54, 49
1, 13191, Note_off_c, 0, 66, 64
1, 13191, Note_off_c, 0, 76, 64
1, 13191, Note_on_c, 0, 84, 31
1, 13191, Note_on_c, 0, 92, 22
1, 13192, Note_off_c, 0, 63, 64
1, 13192, Note_on_c, 0, 68, 36
1, 13192, Note_off_c, 0, 69, 64
1, 13193, Note_off_c, 0, 29, 64
1, 13193, Note_on_c, 0, 30, 75
1, 13193, Note_off_c, 0, 77, 64
1, 13193, Note_on_c, 0, 78, 21
1, 13194, Note_off_c, 0, 49, 64
1, 13194, Note_off_c, 0, 54, 64
1, 13194, Note_on_c, 0, 64, 29
1, 13194, Note_off_c, 0, 68, 64
1, 13194, Note_off_c, 0, 87, 64
1, 13195, Note_off_c, 0, 30, 64
1, 13195, Note_on_c, 0, 34, 70
1, 13195, Note_on_c, 0, 79, 40
1, 13196, Note_off_c, 0, 34, 64
1, 13196, Note_on_c, 0, 69, 47
1, 13196, Note_off_c, 0, 78, 64
1, 13196, Note_on_c, 0, 80, 38
1, 13196, Note_on_c, 0, 87, 26
1, 13196, Note_on_c, 0, 88, 26
1, 13196, Note_on_c, 0, 90, 33
1, 13197, Note_off_c, 0, 64, 64
1, 13197, Note_off_c, 0, 74, 64
1, 13197, Note_on_c, 0, 76, 38
1, 13197, Note_off_c, 0, 85, 64
1, 13197, Note_on_c, 0, 86, 30
1, 13198, Note_on_c, 0, 51, 75
1, 13198, Note_off_c, 0, 69, 64
1, 13198, Note_on_c, 0, 72, 37
1, 13198, Note_on_c, 0, 74, 27
1, 13198, Note_on_c, 0, 78, 25
1, 13199, Note_on_c, 0, 48, 85
1, 13199, Note_off_c, 0, 51, 64
1, 13199, Note_off_c, 0, 76, 64
1, 13199, Note_off_c, 0, 79, 64
1, 13199, Note_off_c, 0, 84, 64
1, 13199, Note_off_c, 0, 88, 64
1, 13200, Note_on_c, 0, 44, 94
1, 13200, Note_off_c, 0, 48, 64
1, 13200, Note_on_c, 0, 66, 31
1, 13200, Note_on_c, 0, 70, 34
1, 13200, Note_off_c, 0, 72, 64
1, 13200, Note_off_c, 0, 80, 64
1, 13200, Note_on_c, 0, 88, 23
1, 13201, Note_on_c, 0, 42, 99
1, 13201, Note_off_c, 0, 44, 64
1, 13201, Note_on_c, 0, 73, 16
1, 13201, Note_off_c, 0, 74, 64
1, 13201, Note_off_c, 0, 86, 64
1, 13202, Note_on_c, 0, 40, 96
1, 13202, Note_off_c, 0, 42, 64
1, 13202, Note_off_c, 0, 89, 64
1, 13202, Note_off_c, 0, 92, 64
1, 13203, Note_on_c, 0, 38, 98
1, 13203, Note_off_c, 0, 40, 64
1, 13203, Note_on_c, 0, 80, 13
1, 13203, Note_off_c, 0, 87, 64
1, 13203, Note_off_c, 0, 90, 64
1, 13204, Note_on_c, 0, 36, 97
1, 13204, Note_off_c, 0, 38, 64
1, 13205, Note_on_c, 0, 35, 96
1, 13205, Note_off_c, 0, 36, 64
1, 13206, Note_on_c, 0, 34, 96
1, 13206, Note_off_c, 0, 35, 64
1, 13206, Note_off_c, 0, 73, 64
1, 13206, Note_off_c, 0, 80, 64
1, 13206, Note_on_c, 0, 83, 62
1, 13206, Note_off_c, 0, 88, 64
1, 13207, Note_on_c, 0, 33, 95
1, 13207, Note_off_c, 0, 34, 64
1, 13207, Note_on_c, 0, 56, 24
1, 13207, Note_on_c, 0, 73, 18
1, 13207, Note_off_c, 0, 82, 64
1, 13208, Note_on_c, 0, 32, 96
1, 13208, Note_off_c, 0, 33, 64
1, 13208, Note_off_c, 0, 66, 64
1, 13208, Note_off_c, 0, 78, 64
1, 13209, Note_on_c, 0, 31, 96
1, 13209, Note_off_c, 0, 32, 64
1, 13209, Note_on_c, 0, 76, 14
1, 13210, Note_off_c, 0, 56, 64
1, 13210, Note_on_c, 0, 66, 45
1, 13210, Note_on_c, 0, 81, 28
1, 13211, Note_on_c, 0, 53, 20
1, 13211, Note_off_c, 0, 70, 64
1, 13212, Note_on_c, 0, 30, 83
1, 13212, Note_off_c, 0, 31, 64
1, 13212, Note_on_c, 0, 70, 25
1, 13212, Note_off_c, 0, 73, 64
1, 13213, Note_off_c, 0, 76, 64
1, 13213, Note_on_c, 0, 79, 12
1, 13213, Note_on_c, 0, 86, 21
1, 13214, Note_off_c, 0, 30, 64
1, 13214, Note_off_c, 0, 53, 64
1, 13215, Note_on_c, 0, 41, 65
1, 13215, Note_off_c, 0, 66, 64
1, 13215, Note_off_c, 0, 70, 64
1, 13215, Note_on_c, 0, 71, 35
1, 13215, Note_on_c, 0, 73, 45
1, 13216, Note_on_c, 0, 61, 31
1, 13216, Note_on_c, 0, 66, 46
1, 13216, Note_on_c, 0, 91, 20
1, 13217, Note_on_c, 0, 31, 69
1, 13217, Note_on_c, 0, 69, 35
1, 13217, Note_on_c, 0, 89, 16
1, 13217, Note_on_c, 0, 94, 15
1, 13218, Note_on_c, 0, 30, 77
1, 13218, Note_off_c, 0, 31, 64
1, 13218, Note_off_c, 0, 41, 64
1, 13218, Note_off_c, 0, 71, 64
1, 13218, Note_on_c, 0, 77, 18
1, 13218, Note_off_c, 0, 79, 64
1, 13218, Note_on_c, 0, 90, 16
1, 13219, Note_on_c, 0, 29, 79
1, 13219, Note_off_c, 0, 30, 64
1, 13219, Note_on_c, 0, 65, 36
1, 13219, Note_off_c, 0, 66, 64
1, 13219, Note_off_c, 0, 69, 64
1, 13219, Note_on_c, 0, 70, 37
1, 13219, Note_on_c, 0, 74, 44
1, 13219, Note_on_c, 0, 79, 16
1, 13220, Note_off_c, 0, 73, 64
1, 13220, Note_off_c, 0, 89, 64
1, 13221, Note_off_c, 0, 61, 64
1, 13221, Note_off_c, 0, 65, 64
1, 13221, Note_on_c, 0, 73, 52
1, 13221, Note_off_c, 0, 94, 64
1, 13222, Note_off_c, 0, 29, 64
1, 13222, Note_on_c, 0, 30, 75
1, 13222, Note_on_c, 0, 68, 35
1, 13222, Note_off_c, 0, 77, 64
1, 13222, Note_on_c, 0, 92, 18
1, 13223, Note_on_c, 0, 29, 74
1, 13223, Note_off_c, 0, 30, 64
1, 13223, Note_on_c, 0, 62, 34
1, 13223, Note_off_c, 0, 74, 64
1, 13223, Note_on_c, 0, 75, 41
1, 13223, Note_on_c, 0, 78, 12
1, 13223, Note_off_c, 0, 90, 64
1, 13224, Note_off_c, 0, 68, 64
1, 13224, Note_on_c, 0, 76, 35
1, 13224, Note_off_c, 0, 79, 64
1, 13225, Note_on_c, 0, 42, 66
1, 13225, Note_off_c, 0, 83, 64
1, 13225, Note_on_c, 0, 84, 63
1, 13226, Note_off_c, 0, 29, 64
1, 13226, Note_on_c, 0, 30, 75
1, 13226, Note_off_c, 0, 42, 64
1, 13226, Note_on_c, 0, 54, 48
1, 13226, Note_on_c, 0, 61, 39
1, 13226, Note_off_c, 0, 62, 64
1, 13226, Note_off_c, 0, 70, 64
1, 13226, Note_off_c, 0, 75, 64
1, 13226, Note_off_c, 0, 78, 64
1, 13226, Note_on_c, 0, 79, 26
1, 13226, Note_off_c, 0, 81, 64
1, 13226, Note_on_c, 0, 89, 35
1, 13226, Note_on_c, 0, 93, 14
1, 13227, Note_off_c, 0, 30, 64
1, 13227, Note_on_c, 0, 31, 79
1, 13227, Note_on_c, 0, 49, 58
1, 13228, Note_on_c, 0, 30, 79
1, 13228, Note_off_c, 0, 31, 64
1, 13228, Note_off_c, 0, 61, 64
1, 13228, Note_on_c, 0, 64, 31
1, 13228, Note_on_c, 0, 74, 50
1, 13228, Note_off_c, 0, 76, 64
1, 13229, Note_off_c, 0, 54, 64
1, 13229, Note_on_c, 0, 76, 46
1, 13229, Note_on_c, 0, 82, 37
1, 13229, Note_off_c, 0, 93, 64
1, 13230, Note_off_c, 0, 49, 64
1, 13230, Note_off_c, 0, 64, 64
1, 13230, Note_off_c, 0, 73, 64
1, 13230, Note_off_c, 0, 79, 64
1, 13230, Note_on_c, 0, 85, 11
1, 13230, Note_off_c, 0, 92, 64
1, 13231, Note_on_c, 0, 61, 24
1, 13231, Note_on_c, 0, 72, 54
1, 13231, Note_on_c, 0, 73, 48
1, 13231, Note_off_c, 0, 74, 64
1, 13231, Note_on_c, 0, 75, 41
1, 13231, Note_on_c, 0, 77, 37
1, 13231, Note_off_c, 0, 86, 64
1, 13232, Note_off_c, 0, 30, 64
1, 13232, Note_on_c, 0, 32, 70
1, 13232, Note_off_c, 0, 76, 64
1, 13232, Note_on_c, 0, 80, 35
1, 13233, Note_off_c, 0, 32, 64
1, 13233, Note_on_c, 0, 34, 66
1, 13233, Note_on_c, 0, 65, 48
1, 13233, Note_on_c, 0, 68, 46
1, 13233, Note_off_c, 0, 73, 64
1, 13233, Note_on_c, 0, 74, 43
1, 13233, Note_on_c, 0, 81, 35
1, 13233, Note_off_c, 0, 85, 64
1, 13233, Note_on_c, 0, 90, 28
1, 13233, Note_on_c, 0, 97, 22
1, 13234, Note_off_c, 0, 34, 64
1, 13234, Note_off_c, 0, 61, 64
1, 13234, Note_off_c, 0, 75, 64
1, 13234, Note_on_c, 0, 78, 40
1, 13234, Note_off_c, 0, 91, 64
1, 13235, Note_on_c, 0, 54, 68
1, 13235, Note_off_c, 0, 68, 64
1, 13235, Note_off_c, 0, 77, 64
1, 13236, Note_on_c, 0, 48, 81
1, 13236, Note_off_c, 0, 54, 64
1, 13236, Note_on_c, 0, 69, 14
1, 13236, Note_on_c, 0, 75, 20
1, 13236, Note_off_c, 0, 82, 64
1, 13236, Note_off_c, 0, 89, 64
1, 13236, Note_off_c, 0, 90, 64
1, 13236, Note_off_c, 0, 97, 64
1, 13237, Note_on_c, 0, 45, 92
1, 13237, Note_off_c, 0, 48, 64
1, 13237, Note_off_c, 0, 72, 64
1, 13237, Note_off_c, 0, 74, 64
1, 13237, Note_off_c, 0, 78, 64
1, 13238, Note_on_c, 0, 42, 98
1, 13238, Note_off_c, 0, 45, 64
1, 13238, Note_on_c, 0, 64, 12
1, 13238, Note_off_c, 0, 65, 64
1, 13238, Note_off_c, 0, 81, 64
1, 13239, Note_on_c, 0, 41, 99
1, 13239, Note_off_c, 0, 42, 64
1, 13239, Note_off_c, 0, 69, 64
1, 13239, Note_off_c, 0, 80, 64
1, 13240, Note_on_c, 0, 38, 97
1, 13240, Note_off_c, 0, 41, 64
1, 13240, Note_off_c, 0, 75, 64
1, 13241, Note_on_c, 0, 37, 98
1, 13241, Note_off_c, 0, 38, 64
1, 13241, Note_on_c, 0, 76, 25
1, 13242, Note_on_c, 0, 36, 97
1, 13242, Note_off_c, 0, 37, 64
1, 13242, Note_on_c, 0, 58, 15
1, 13242, Note_on_c, 0, 70, 30
1, 13242, Note_off_c, 0, 84, 64
1, 13242, Note_on_c, 0, 85, 65
1, 13243, Note_on_c, 0, 34, 96
1, 13243, Note_off_c, 0, 36, 64
1, 13243, Note_off_c, 0, 64, 64
1, 13243, Note_on_c, 0, 74, 48
1, 13244, Note_on_c, 0, 83, 29
1, 13245, Note_on_c, 0, 32, 96
1, 13245, Note_off_c, 0, 34, 64
1, 13245, Note_off_c, 0, 58, 64
1, 13245, Note_on_c, 0, 61, 16
1, 13245, Note_off_c, 0, 70, 64
1, 13245, Note_on_c, 0, 80, 13
1, 13247, Note_on_c, 0, 31, 95
1, 13247, Note_off_c, 0, 32, 64
1, 13248, Note_on_c, 0, 55, 30
1, 13248, Note_off_c, 0, 61, 64
1, 13248, Note_off_c, 0, 80, 64
1, 13248, Note_on_c, 0, 81, 22
1, 13249, Note_off_c, 0, 76, 64
1, 13250, Note_on_c, 0, 30, 77
1, 13250, Note_off_c, 0, 31, 64
1, 13250, Note_off_c, 0, 55, 64
1, 13250, Note_on_c, 0, 77, 21
1, 13252, Note_off_c, 0, 30, 64
1, 13253, Note_on_c, 0, 68, 30
1, 13253, Note_on_c, 0, 72, 29
1, 13253, Note_off_c, 0, 74, 64
1, 13253, Note_on_c, 0, 75, 45
1, 13253, Note_off_c, 0, 77, 64
1, 13253, Note_on_c, 0, 84, 29
1, 13253, Note_on_c, 0, 90, 20
1, 13254, Note_on_c, 0, 36, 70
1, 13254, Note_on_c, 0, 54, 55
1, 13254, Note_on_c, 0, 61, 37
1, 13255, Note_on_c, 0, 31, 77
1, 13255, Note_off_c, 0, 36, 64
1, 13255, Note_on_c, 0, 71, 40
1, 13255, Note_off_c, 0, 72, 64
1, 13255, Note_on_c, 0, 94, 13
1, 13256, Note_on_c, 0, 30, 79
1, 13256, Note_off_c, 0, 31, 64
1, 13256, Note_on_c, 0, 78, 37
1, 13256, Note_off_c, 0, 81, 64
1, 13256, Note_off_c, 0, 83, 64
1, 13257, Note_on_c, 0, 29, 78
1, 13257, Note_off_c, 0, 30, 64
1, 13257, Note_off_c, 0, 54, 64
1, 13257, Note_on_c, 0, 70, 37
1, 13257, Note_off_c, 0, 71, 64
1, 13257, Note_on_c, 0, 73, 39
1, 13257, Note_off_c, 0, 75, 64
1, 13257, Note_on_c, 0, 76, 29
1, 13258, Note_off_c, 0, 68, 64
1, 13258, Note_on_c, 0, 99, 12
1, 13259, Note_off_c, 0, 29, 64
1, 13259, Note_on_c, 0, 30, 75
1, 13259, Note_on_c, 0, 49, 50
1, 13259, Note_on_c, 0, 66, 46
1, 13259, Note_off_c, 0, 70, 64
1, 13259, Note_on_c, 0, 83, 29
1, 13259, Note_off_c, 0, 84, 64
1, 13260, Note_on_c, 0, 29, 73
1, 13260, Note_off_c, 0, 30, 64
1, 13260, Note_on_c, 0, 70, 50
1, 13260, Note_off_c, 0, 73, 64
1, 13260, Note_on_c, 0, 81, 33
1, 13260, Note_off_c, 0, 85, 64
1, 13260, Note_on_c, 0, 86, 66
1, 13260, Note_off_c, 0, 94, 64
1, 13261, Note_off_c, 0, 49, 64
1, 13261, Note_on_c, 0, 57, 38
1, 13261, Note_off_c, 0, 99, 64
1, 13262, Note_off_c, 0, 61, 64
1, 13262, Note_off_c, 0, 76, 64
1, 13262, Note_off_c, 0, 83, 64
1, 13262, Note_on_c, 0, 84, 42
1, 13262, Note_on_c, 0, 87, 18
1, 13262, Note_off_c, 0, 90, 64
1, 13262, Note_on_c, 0, 91, 22
1, 13263, Note_off_c, 0, 29, 64
1, 13263, Note_on_c, 0, 30, 79
1, 13263, Note_on_c, 0, 43, 65
1, 13263, Note_off_c, 0, 57, 64
1, 13264, Note_off_c, 0, 43, 64
1, 13264, Note_on_c, 0, 61, 36
1, 13264, Note_on_c, 0, 73, 42
1, 13264, Note_on_c, 0, 75, 32
1, 13264, Note_on_c, 0, 80, 17
1, 13265, Note_off_c, 0, 91, 64
1, 13266, Note_off_c, 0, 81, 64
1, 13267, Note_off_c, 0, 75, 64
1, 13267, Note_on_c, 0, 76, 33
1, 13267, Note_off_c, 0, 87, 64
1, 13269, Note_off_c, 0, 30, 64
1, 13269, Note_on_c, 0, 31, 68
1, 13269, Note_off_c, 0, 61, 64
1, 13269, Note_off_c, 0, 80, 64
1, 13269, Note_on_c, 0, 92, 24
1, 13270, Note_off_c, 0, 31, 64
1, 13270, Note_on_c, 0, 34, 69
1, 13270, Note_on_c, 0, 54, 36
1, 13270, Note_off_c, 0, 66, 64
1, 13270, Note_on_c, 0, 67, 39
1, 13270, Note_on_c, 0, 75, 35
1, 13270, Note_off_c, 0, 76, 64
1, 13270, Note_on_c, 0, 83, 31
1, 13270, Note_on_c, 0, 89, 29
1, 13271, Note_off_c, 0, 34, 64
1, 13271, Note_on_c, 0, 66, 46
1, 13271, Note_on_c, 0, 80, 31
1, 13271, Note_off_c, 0, 84, 64
1, 13272, Note_off_c, 0, 54, 64
1, 13272, Note_off_c, 0, 67, 64
1, 13272, Note_on_c, 0, 74, 41
1, 13272, Note_off_c, 0, 75, 64
1, 13272, Note_on_c, 0, 76, 41
1, 13272, Note_off_c, 0, 83, 64
1, 13273, Note_on_c, 0, 51, 77
1, 13273, Note_off_c, 0, 66, 64
1, 13273, Note_on_c, 0, 67, 32
1, 13273, Note_off_c, 0, 73, 64
1, 13274, Note_on_c, 0, 46, 86
1, 13274, Note_off_c, 0, 51, 64
1, 13274, Note_off_c, 0, 70, 64
1, 13274, Note_on_c, 0, 71, 20
1, 13274, Note_off_c, 0, 76, 64
1, 13274, Note_off_c, 0, 78, 64
1, 13274, Note_off_c, 0, 80, 64
1, 13275, Note_on_c, 0, 44, 94
1, 13275, Note_off_c, 0, 46, 64
1, 13275, Note_off_c, 0, 67, 64
1, 13275, Note_on_c, 0, 73, 41
1, 13275, Note_off_c, 0, 92, 64
1, 13276, Note_on_c, 0, 41, 99
1, 13276, Note_off_c, 0, 44, 64
1, 13276, Note_on_c, 0, 69, 31
1, 13276, Note_off_c, 0, 89, 64
1, 13277, Note_on_c, 0, 39, 95
1, 13277, Note_off_c, 0, 41, 64
1, 13277, Note_off_c, 0, 71, 64
1, 13278, Note_on_c, 0, 37, 97
1, 13278, Note_off_c, 0, 39, 64
1, 13278, Note_off_c, 0, 74, 64
1, 13278, Note_off_c, 0, 86, 64
1, 13278, Note_on_c, 0, 87, 67
1, 13279, Note_on_c, 0, 36, 97
1, 13279, Note_off_c, 0, 37, 64
1, 13279, Note_off_c, 0, 69, 64
1, 13279, Note_on_c, 0, 76, 25
1, 13280, Note_on_c, 0, 35, 96
1, 13280, Note_off_c, 0, 36, 64
1, 13281, Note_on_c, 0, 34, 95
1, 13281, Note_off_c, 0, 35, 64
1, 13281, Note_on_c, 0, 68, 24
1, 13282, Note_on_c, 0, 33, 94
1, 13282, Note_off_c, 0, 34, 64
1, 13282, Note_off_c, 0, 76, 64
1, 13283, Note_on_c, 0, 32, 96
1, 13283, Note_off_c, 0, 33, 64
1, 13283, Note_on_c, 0, 89, 15
1, 13284, Note_on_c, 0, 31, 95
1, 13284, Note_off_c, 0, 32, 64
1, 13284, Note_on_c, 0, 48, 29
1, 13284, Note_on_c, 0, 69, 30
1, 13284, Note_on_c, 0, 88, 21
1, 13285, Note_on_c, 0, 66, 20
1, 13285, Note_off_c, 0, 68, 64
1, 13285, Note_on_c, 0, 72, 29
1, 13285, Note_on_c, 0, 74, 36
1, 13285, Note_on_c, 0, 76, 33
1, 13285, Note_on_c, 0, 83, 23
1, 13286, Note_off_c, 0, 48, 64
1, 13286, Note_on_c, 0, 57, 15
1, 13286, Note_off_c, 0, 73, 64
1, 13286, Note_off_c, 0, 89, 64
1, 13287, Note_on_c, 0, 30, 82
1, 13287, Note_off_c, 0, 31, 64
1, 13287, Note_on_c, 0, 73, 49
1, 13287, Note_off_c, 0, 74, 64
1, 13287, Note_off_c, 0, 88, 64
1, 13288, Note_off_c, 0, 69, 64
1, 13288, Note_off_c, 0, 72, 64
1, 13289, Note_off_c, 0, 57, 64
1, 13289, Note_off_c, 0, 76, 64
1, 13289, Note_on_c, 0, 77, 16
1, 13290, Note_off_c, 0, 30, 64
1, 13290, Note_off_c, 0, 66, 64
1, 13290, Note_on_c, 0, 72, 47
1, 13291, Note_on_c, 0, 41, 67
1, 13291, Note_on_c, 0, 64, 29
1, 13291, Note_on_c, 0, 79, 27
1, 13291, Note_on_c, 0, 90, 11
1, 13292, Note_on_c, 0, 31, 73
1, 13292, Note_on_c, 0, 61, 21
1, 13292, Note_on_c, 0, 71, 48
1, 13292, Note_off_c, 0, 72, 64
1, 13292, Note_on_c, 0, 76, 29
1, 13292, Note_on_c, 0, 92, 20
1, 13293, Note_on_c, 0, 29, 78
1, 13293, Note_off_c, 0, 31, 64
1, 13293, Note_off_c, 0, 41, 64
1, 13293, Note_off_c, 0, 64, 64
1, 13293, Note_off_c, 0, 77, 64
1, 13293, Note_on_c, 0, 84, 23
1, 13294, Note_off_c, 0, 76, 64
1, 13294, Note_on_c, 0, 82, 22
1, 13294, Note_off_c, 0, 90, 64
1, 13295, Note_off_c, 0, 29, 64
1, 13295, Note_on_c, 0, 30, 75
1, 13295, Note_off_c, 0, 71, 64
1, 13295, Note_on_c, 0, 72, 41
1, 13295, Note_on_c, 0, 78, 32
1, 13296, Note_off_c, 0, 79, 64
1, 13297, Note_off_c, 0, 61, 64
1, 13297, Note_off_c, 0, 72, 64
1, 13297, Note_on_c, 0, 76, 32
1, 13297, Note_off_c, 0, 82, 64
1, 13297, Note_off_c, 0, 84, 64
1, 13297, Note_off_c, 0, 87, 64
1, 13297, Note_on_c, 0, 88, 67
1, 13297, Note_on_c, 0, 94, 21
1, 13298, Note_on_c, 0, 29, 71
1, 13298, Note_off_c, 0, 30, 64
1, 13298, Note_on_c, 0, 63, 17
1, 13298, Note_on_c, 0, 68, 37
1, 13298, Note_on_c, 0, 70, 44
1, 13299, Note_on_c, 0, 84, 24
1, 13299, Note_on_c, 0, 93, 19
1, 13300, Note_off_c, 0, 70, 64
1, 13300, Note_off_c, 0, 73, 64
1, 13300, Note_on_c, 0, 74, 55
1, 13300, Note_off_c, 0, 83, 64
1, 13301, Note_off_c, 0, 29, 64
1, 13301, Note_on_c, 0, 30, 74
1, 13301, Note_on_c, 0, 58, 39
1, 13301, Note_off_c, 0, 63, 64
1, 13301, Note_on_c, 0, 64, 33
1, 13301, Note_on_c, 0, 85, 14
1, 13301, Note_off_c, 0, 92, 64
1, 13301, Note_off_c, 0, 94, 64
1, 13301, Note_on_c, 0, 95, 16
1, 13302, Note_off_c, 0, 30, 64
1, 13302, Note_on_c, 0, 31, 78
1, 13302, Note_on_c, 0, 72, 41
1, 13302, Note_off_c, 0, 78, 64
1, 13302, Note_on_c, 0, 92, 29
1, 13302, Note_on_c, 0, 94, 22
1, 13303, Note_on_c, 0, 30, 78
1, 13303, Note_off_c, 0, 31, 64
1, 13303, Note_off_c, 0, 58, 64
1, 13303, Note_on_c, 0, 61, 28
1, 13303, Note_off_c, 0, 68, 64
1, 13303, Note_on_c, 0, 69, 30
1, 13303, Note_on_c, 0, 71, 37
1, 13303, Note_on_c, 0, 80, 28
1, 13303, Note_on_c, 0, 82, 16
1, 13303, Note_on_c, 0, 90, 22
1, 13304, Note_on_c, 0, 29, 77
1, 13304, Note_off_c, 0, 30, 64
1, 13304, Note_off_c, 0, 64, 64
1, 13304, Note_off_c, 0, 72, 64
1, 13304, Note_off_c, 0, 85, 64
1, 13304, Note_off_c, 0, 93, 64
1, 13304, Note_off_c, 0, 95, 64
1, 13304, Note_on_c, 0, 97, 14
1, 13305, Note_on_c, 0, 68, 35
1, 13305, Note_off_c, 0, 69, 64
1, 13305, Note_off_c, 0, 71, 64
1, 13305, Note_on_c, 0, 72, 49
1, 13305, Note_off_c, 0, 76, 64
1, 13305, Note_on_c, 0, 96, 24
1, 13306, Note_off_c, 0, 29, 64
1, 13306, Note_on_c, 0, 30, 72
1, 13306, Note_off_c, 0, 61, 64
1, 13306, Note_on_c, 0, 64, 53
1, 13306, Note_on_c, 0, 95, 23
1, 13307, Note_off_c, 0, 30, 64
1, 13307, Note_on_c, 0, 33, 70
1, 13307, Note_on_c, 0, 70, 45
1, 13307, Note_off_c, 0, 80, 64
1, 13307, Note_off_c, 0, 82, 64
1, 13307, Note_on_c, 0, 87, 31
1, 13307, Note_off_c, 0, 90, 64
1, 13307, Note_on_c, 0, 91, 27
1, 13307, Note_off_c, 0, 97, 64
1, 13308, Note_off_c, 0, 33, 64
1, 13308, Note_on_c, 0, 35, 65
1, 13308, Note_off_c, 0, 68, 64
1, 13308, Note_on_c, 0, 78, 43
1, 13308, Note_on_c, 0, 81, 34
1, 13308, Note_on_c, 0, 85, 31
1, 13308, Note_on_c, 0, 98, 21
1, 13309, Note_off_c, 0, 35, 64
1, 13309, Note_off_c, 0, 74, 64
1, 13309, Note_on_c, 0, 75, 46
1, 13309, Note_on_c, 0, 83, 36
1, 13309, Note_off_c, 0, 84, 64
1, 13309, Note_off_c, 0, 94, 64
1, 13310, Note_on_c, 0, 53, 68
1, 13310, Note_on_c, 0, 62, 55
1, 13310, Note_off_c, 0, 64, 64
1, 13310, Note_off_c, 0, 72, 64
1, 13310, Note_on_c, 0, 86, 16
1, 13311, Note_on_c, 0, 48, 82
1, 13311, Note_off_c, 0, 53, 64
1, 13311, Note_off_c, 0, 81, 64
1, 13311, Note_off_c, 0, 83, 64
1, 13311, Note_on_c, 0, 84, 21
1, 13311, Note_off_c, 0, 85, 64
1, 13311, Note_off_c, 0, 87, 64
1, 13311, Note_off_c, 0, 91, 64
1, 13311, Note_off_c, 0, 92, 64
1, 13311, Note_off_c, 0, 95, 64
1, 13311, Note_off_c, 0, 96, 64
1, 13311, Note_off_c, 0, 98, 64
1, 13312, Note_on_c, 0, 45, 93
1, 13312, Note_off_c, 0, 48, 64
1, 13312, Note_off_c, 0, 62, 64
1, 13312, Note_on_c, 0, 69, 36
1, 13312, Note_on_c, 0, 73, 23
1, 13312, Note_off_c, 0, 75, 64
1, 13312, Note_off_c, 0, 78, 64
1, 13313, Note_on_c, 0, 42, 98
1, 13313, Note_off_c, 0, 45, 64
1, 13313, Note_off_c, 0, 70, 64
1, 13313, Note_on_c, 0, 76, 27
1, 13314, Note_on_c, 0, 40, 98
1, 13314, Note_off_c, 0, 42, 64
1, 13314, Note_on_c, 0, 66, 22
1, 13314, Note_off_c, 0, 69, 64
1, 13314, Note_on_c, 0, 70, 37
1, 13314, Note_on_c, 0, 80, 10
1, 13314, Note_off_c, 0, 86, 64
1, 13315, Note_on_c, 0, 38, 98
1, 13315, Note_off_c, 0, 40, 64
1, 13315, Note_on_c, 0, 86, 24
1, 13315, Note_on_c, 0, 101, 33
1, 13316, Note_on_c, 0, 37, 98
1, 13316, Note_off_c, 0, 38, 64
1, 13316, Note_off_c, 0, 73, 64
1, 13316, Note_on_c, 0, 77, 15
1, 13316, Note_off_c, 0, 88, 64
1, 13316, Note_on_c, 0, 89, 68
1, 13317, Note_on_c, 0, 35, 97
1, 13317, Note_off_c, 0, 37, 64
1, 13317, Note_on_c, 0, 73, 25
1, 13317, Note_off_c, 0, 80, 64
1, 13317, Note_off_c, 0, 84, 64
1, 13318, Note_on_c, 0, 34, 95
1, 13318, Note_off_c, 0, 35, 64
1, 13318, Note_off_c, 0, 66, 64
1, 13318, Note_off_c, 0, 86, 64
1, 13319, Note_on_c, 0, 33, 95
1, 13319, Note_off_c, 0, 34, 64
1, 13319, Note_off_c, 0, 77, 64
1, 13319, Note_on_c, 0, 85, 29
1, 13320, Note_off_c, 0, 73, 64
1, 13320, Note_on_c, 0, 87, 32
1, 13321, Note_on_c, 0, 32, 95
1, 13321, Note_off_c, 0, 33, 64
1, 13321, Note_off_c, 0, 70, 64
1, 13321, Note_on_c, 0, 80, 15
1, 13322, Note_on_c, 0, 31, 94
1, 13322, Note_off_c, 0, 32, 64
1, 13322, Note_on_c, 0, 66, 37
1, 13322, Note_on_c, 0, 69, 21
1, 13322, Note_on_c, 0, 73, 33
1, 13323, Note_off_c, 0, 76, 64
1, 13324, Note_on_c, 0, 75, 17
1, 13325, Note_on_c, 0, 30, 76
1, 13325, Note_off_c, 0, 31, 64
1, 13325, Note_on_c, 0, 63, 30
1, 13325, Note_off_c, 0, 69, 64
1, 13325, Note_on_c, 0, 70, 40
1, 13325, Note_on_c, 0, 81, 15
1, 13326, Note_off_c, 0, 30, 64
1, 13326, Note_off_c, 0, 80, 64
1, 13327, Note_off_c, 0, 66, 64
1, 13327, Note_off_c, 0, 75, 64
1, 13327, Note_on_c, 0, 79, 18
1, 13328, Note_on_c, 0, 66, 33
1, 13328, Note_off_c, 0, 81, 64
1, 13328, Note_on_c, 0, 84, 22
1, 13328, Note_on_c, 0, 86, 9
1, 13329, Note_on_c, 0, 36, 68
1, 13329, Note_on_c, 0, 88, 43
1, 13329, Note_on_c, 0, 94, 18
1, 13330, Note_on_c, 0, 31, 75
1, 13330, Note_off_c, 0, 36, 64
1, 13330, Note_on_c, 0, 54, 51
1, 13330, Note_off_c, 0, 63, 64
1, 13330, Note_on_c, 0, 76, 32
1, 13330, Note_on_c, 0, 83, 21
1, 13331, Note_on_c, 0, 29, 78
1, 13331, Note_off_c, 0, 31, 64
1, 13331, Note_on_c, 0, 61, 35
1, 13331, Note_off_c, 0, 73, 64
1, 13331, Note_on_c, 0, 74, 49
1, 13331, Note_off_c, 0, 84, 64
1, 13331, Note_off_c, 0, 86, 64
1, 13331, Note_on_c, 0, 95, 24
1, 13332, Note_on_c, 0, 49, 55
1, 13332, Note_off_c, 0, 54, 64
1, 13332, Note_on_c, 0, 65, 32
1, 13332, Note_off_c, 0, 66, 64
1, 13332, Note_on_c, 0, 73, 40
1, 13333, Note_off_c, 0, 76, 64
1, 13333, Note_on_c, 0, 81, 21
1, 13334, Note_off_c, 0, 29, 64
1, 13334, Note_on_c, 0, 30, 71
1, 13334, Note_off_c, 0, 49, 64
1, 13334, Note_off_c, 0, 61, 64
1, 13334, Note_off_c, 0, 65, 64
1, 13334, Note_on_c, 0, 67, 33
1, 13334, Note_off_c, 0, 73, 64
1, 13334, Note_on_c, 0, 78, 38
1, 13334, Note_off_c, 0, 79, 64
1, 13334, Note_off_c, 0, 95, 64
1, 13334, Note_on_c, 0, 96, 20
1, 13335, Note_on_c, 0, 29, 70
1, 13335, Note_off_c, 0, 30, 64
1, 13335, Note_off_c, 0, 70, 64
1, 13335, Note_on_c, 0, 73, 50
1, 13335, Note_off_c, 0, 74, 64
1, 13335, Note_off_c, 0, 85, 64
1, 13335, Note_on_c, 0, 86, 35
1, 13335, Note_off_c, 0, 87, 64
1, 13335, Note_off_c, 0, 89, 64
1, 13335, Note_on_c, 0, 90, 71
1, 13335, Note_off_c, 0, 101, 64
1, 13336, Note_off_c, 0, 67, 64
1, 13336, Note_on_c, 0, 70, 39
1, 13336, Note_on_c, 0, 75, 43
1, 13336, Note_off_c, 0, 83, 64
1, 13337, Note_on_c, 0, 64, 34
1, 13337, Note_off_c, 0, 94, 64
1, 13337, Note_off_c, 0, 96, 64
1, 13338, Note_off_c, 0, 29, 64
1, 13338, Note_on_c, 0, 30, 77
1, 13338, Note_off_c, 0, 70, 64
1, 13338, Note_off_c, 0, 81, 64
1, 13338, Note_on_c, 0, 84, 26
1, 13339, Note_on_c, 0, 49, 60
1, 13339, Note_off_c, 0, 64, 64
1, 13339, Note_on_c, 0, 68, 36
1, 13339, Note_off_c, 0, 75, 64
1, 13339, Note_on_c, 0, 76, 35
1, 13340, Note_on_c, 0, 71, 35
1, 13340, Note_on_c, 0, 75, 34
1, 13340, Note_on_c, 0, 81, 20
1, 13340, Note_on_c, 0, 97, 14
1, 13341, Note_off_c, 0, 68, 64
1, 13341, Note_off_c, 0, 76, 64
1, 13341, Note_off_c, 0, 78, 64
1, 13341, Note_on_c, 0, 92, 29
1, 13342, Note_on_c, 0, 29, 75
1, 13342, Note_off_c, 0, 30, 64
1, 13342, Note_off_c, 0, 71, 64
1, 13342, Note_on_c, 0, 72, 53
1, 13342, Note_off_c, 0, 73, 64
1, 13342, Note_on_c, 0, 74, 52
1, 13342, Note_off_c, 0, 75, 64
1, 13342, Note_on_c, 0, 76, 39
1, 13342, Note_on_c, 0, 83, 29
1, 13343, Note_off_c, 0, 29, 64
1, 13343, Note_on_c, 0, 30, 74
1, 13343, Note_on_c, 0, 78, 29
1, 13343, Note_off_c, 0, 81, 64
1, 13343, Note_off_c, 0, 84, 64
1, 13343, Note_on_c, 0, 85, 18
1, 13343, Note_on_c, 0, 91, 16
1, 13344, Note_off_c, 0, 49, 64
1, 13345, Note_off_c, 0, 30, 64
1, 13345, Note_on_c, 0, 34, 70
1, 13345, Note_on_c, 0, 56, 60
1, 13345, Note_on_c, 0, 65, 40
1, 13345, Note_on_c, 0, 70, 38
1, 13345, Note_off_c, 0, 74, 64
1, 13345, Note_on_c, 0, 81, 30
1, 13345, Note_on_c, 0, 96, 13
1, 13345, Note_off_c, 0, 97, 64
1, 13346, Note_off_c, 0, 34, 64
1, 13346, Note_on_c, 0, 75, 35
1, 13346, Note_off_c, 0, 76, 64
1, 13346, Note_off_c, 0, 85, 64
1, 13346, Note_off_c, 0, 91, 64
1, 13347, Note_off_c, 0, 65, 64
1, 13347, Note_off_c, 0, 72, 64
1, 13347, Note_on_c, 0, 73, 48
1, 13347, Note_off_c, 0, 78, 64
1, 13347, Note_on_c, 0, 79, 37
1, 13348, Note_on_c, 0, 51, 75
1, 13348, Note_off_c, 0, 56, 64
1, 13348, Note_on_c, 0, 68, 30
1, 13348, Note_off_c, 0, 75, 64
1, 13348, Note_on_c, 0, 78, 14
1, 13348, Note_off_c, 0, 81, 64
1, 13348, Note_off_c, 0, 83, 64
1, 13348, Note_off_c, 0, 86, 64
1, 13349, Note_on_c, 0, 46, 88
1, 13349, Note_off_c, 0, 51, 64
1, 13349, Note_off_c, 0, 70, 64
1, 13349, Note_off_c, 0, 96, 64
1, 13350, Note_on_c, 0, 43, 94
1, 13350, Note_off_c, 0, 46, 64
1, 13350, Note_on_c, 0, 76, 32
1, 13350, Note_off_c, 0, 79, 64
1, 13351, Note_on_c, 0, 41, 99
1, 13351, Note_off_c, 0, 43, 64
1, 13351, Note_off_c, 0, 68, 64
1, 13351, Note_on_c, 0, 69, 28
1, 13351, Note_off_c, 0, 78, 64
1, 13351, Note_off_c, 0, 92, 64
1, 13352, Note_on_c, 0, 39, 96
1, 13352, Note_off_c, 0, 41, 64
1, 13352, Note_off_c, 0, 88, 64
1, 13352, Note_on_c, 0, 89, 34
1, 13353, Note_on_c, 0, 37, 98
1, 13353, Note_off_c, 0, 39, 64
1, 13353, Note_on_c, 0, 71, 30
1, 13353, Note_off_c, 0, 73, 64
1, 13353, Note_off_c, 0, 76, 64
1, 13354, Note_on_c, 0, 36, 97
1, 13354, Note_off_c, 0, 37, 64
1, 13354, Note_off_c, 0, 69, 64
1, 13354, Note_on_c, 0, 73, 29
1, 13354, Note_off_c, 0, 90, 64
1, 13354, Note_on_c, 0, 91, 67
1, 13355, Note_on_c, 0, 35, 95
1, 13355, Note_off_c, 0, 36, 64
1, 13355, Note_on_c, 0, 65, 17
1, 13355, Note_on_c, 0, 70, 36
1, 13355, Note_off_c, 0, 71, 64
1, 13355, Note_on_c, 0, 87, 33
1, 13356, Note_on_c, 0, 34, 94
1, 13356, Note_off_c, 0, 35, 64
1, 13356, Note_off_c, 0, 73, 64
1, 13356, Note_on_c, 0, 74, 47
1, 13357, Note_on_c, 0, 33, 94
1, 13357, Note_off_c, 0, 34, 64
1, 13357, Note_on_c, 0, 58, 22
1, 13357, Note_on_c, 0, 69, 30
1, 13357, Note_off_c, 0, 70, 64
1, 13358, Note_on_c, 0, 32, 95
1, 13358, Note_off_c, 0, 33, 64
1, 13358, Note_on_c, 0, 64, 19
1, 13358, Note_off_c, 0, 65, 64
1, 13358, Note_on_c, 0, 80, 13
1, 13358, Note_on_c, 0, 85, 12
1, 13360, Note_on_c, 0, 31, 93
1, 13360, Note_off_c, 0, 32, 64
1, 13360, Note_off_c, 0, 58, 64
1, 13361, Note_off_c, 0, 85, 64
1, 13362, Note_on_c, 0, 30, 81
1, 13362, Note_off_c, 0, 31, 64
1, 13362, Note_on_c, 0, 77, 32
1, 13362, Note_off_c, 0, 80, 64
1, 13363, Note_on_c, 0, 85, 11
1, 13364, Note_off_c, 0, 64, 64
1, 13364, Note_off_c, 0, 69, 64
1, 13364, Note_on_c, 0, 98, 9
1, 13365, Note_off_c, 0, 30, 64
1, 13365, Note_on_c, 0, 55, 55
1, 13365, Note_on_c, 0, 69, 35
1, 13365, Note_on_c, 0, 73, 34
1, 13365, Note_off_c, 0, 74, 64
1, 13365, Note_on_c, 0, 75, 51
1, 13365, Note_on_c, 0, 83, 33
1, 13366, Note_on_c, 0, 37, 68
1, 13366, Note_off_c, 0, 77, 64
1, 13366, Note_off_c, 0, 85, 64
1, 13367, Note_on_c, 0, 31, 73
1, 13367, Note_off_c, 0, 37, 64
1, 13367, Note_on_c, 0, 80, 17
1, 13367, Note_on_c, 0, 93, 23
1, 13368, Note_on_c, 0, 30, 76
1, 13368, Note_off_c, 0, 31, 64
1, 13368, Note_off_c, 0, 55, 64
1, 13368, Note_on_c, 0, 63, 29
1, 13368, Note_on_c, 0, 66, 33
1, 13368, Note_off_c, 0, 69, 64
1, 13368, Note_on_c, 0, 70, 51
1, 13368, Note_on_c, 0, 72, 40
1, 13368, Note_off_c, 0, 73, 64
1, 13368, Note_on_c, 0, 78, 40
1, 13368, Note_on_c, 0, 85, 15
1, 13368, Note_on_c, 0, 94, 22
1, 13369, Note_on_c, 0, 29, 75
1, 13369, Note_off_c, 0, 30, 64
1, 13369, Note_on_c, 0, 49, 55
1, 13370, Note_on_c, 0, 58, 30
1, 13370, Note_off_c, 0, 63, 64
1, 13370, Note_on_c, 0, 64, 37
1, 13370, Note_off_c, 0, 72, 64
1, 13370, Note_on_c, 0, 73, 36
1, 13370, Note_off_c, 0, 80, 64
1, 13370, Note_on_c, 0, 92, 67
1, 13370, Note_off_c, 0, 93, 64
1, 13370, Note_off_c, 0, 98, 64
1, 13371, Note_off_c, 0, 29, 64
1, 13371, Note_on_c, 0, 30, 73
1, 13371, Note_on_c, 0, 54, 39
1, 13371, Note_off_c, 0, 66, 64
1, 13371, Note_on_c, 0, 88, 36
1, 13372, Note_on_c, 0, 48, 51
1, 13372, Note_off_c, 0, 49, 64
1, 13372, Note_off_c, 0, 58, 64
1, 13372, Note_off_c, 0, 75, 64
1, 13372, Note_off_c, 0, 85, 64
1, 13372, Note_off_c, 0, 89, 64
1, 13373, Note_on_c, 0, 29, 71
1, 13373, Note_off_c, 0, 30, 64
1, 13373, Note_off_c, 0, 54, 64
1, 13373, Note_off_c, 0, 73, 64
1, 13373, Note_on_c, 0, 74, 43
1, 13373, Note_off_c, 0, 83, 64
1, 13374, Note_off_c, 0, 48, 64
1, 13374, Note_off_c, 0, 64, 64
1, 13374, Note_on_c, 0, 66, 50
1, 13374, Note_off_c, 0, 87, 64
1, 13374, Note_off_c, 0, 91, 64
1, 13375, Note_off_c, 0, 29, 64
1, 13375, Note_on_c, 0, 30, 74
1, 13375, Note_on_c, 0, 77, 38
1, 13375, Note_on_c, 0, 99, 21
1, 13376, Note_on_c, 0, 72, 35
1, 13377, Note_off_c, 0, 30, 64
1, 13377, Note_on_c, 0, 31, 77
1, 13377, Note_off_c, 0, 74, 64
1, 13377, Note_off_c, 0, 78, 64
1, 13378, Note_on_c, 0, 30, 76
1, 13378, Note_off_c, 0, 31, 64
1, 13378, Note_off_c, 0, 72, 64
1, 13378, Note_on_c, 0, 73, 44
1, 13378, Note_off_c, 0, 77, 64
1, 13378, Note_on_c, 0, 95, 22
1, 13378, Note_on_c, 0, 98, 11
1, 13378, Note_on_c, 0, 101, 13
1, 13379, Note_on_c, 0, 29, 75
1, 13379, Note_off_c, 0, 30, 64
1, 13380, Note_off_c, 0, 70, 64
1, 13380, Note_on_c, 0, 97, 21
1, 13381, Note_off_c, 0, 29, 64
1, 13381, Note_on_c, 0, 30, 70
1, 13381, Note_on_c, 0, 70, 33
1, 13381, Note_on_c, 0, 79, 35
1, 13382, Note_off_c, 0, 30, 64
1, 13382, Note_on_c, 0, 33, 70
1, 13382, Note_off_c, 0, 66, 64
1, 13382, Note_on_c, 0, 67, 43
1, 13382, Note_on_c, 0, 76, 35
1, 13382, Note_on_c, 0, 86, 34
1, 13382, Note_off_c, 0, 98, 64
1, 13382, Note_off_c, 0, 101, 64
1, 13383, Note_off_c, 0, 33, 64
1, 13383, Note_on_c, 0, 69, 53
1, 13383, Note_on_c, 0, 89, 27
1, 13383, Note_on_c, 0, 93, 32
1, 13384, Note_on_c, 0, 66, 56
1, 13384, Note_off_c, 0, 67, 64
1, 13384, Note_off_c, 0, 70, 64
1, 13384, Note_on_c, 0, 71, 45
1, 13384, Note_off_c, 0, 76, 64
1, 13384, Note_on_c, 0, 90, 41
1, 13385, Note_on_c, 0, 53, 70
1, 13385, Note_off_c, 0, 95, 64
1, 13386, Note_on_c, 0, 48, 83
1, 13386, Note_off_c, 0, 53, 64
1, 13386, Note_off_c, 0, 69, 64
1, 13386, Note_off_c, 0, 71, 64
1, 13386, Note_on_c, 0, 77, 21
1, 13386, Note_off_c, 0, 86, 64
1, 13386, Note_off_c, 0, 89, 64
1, 13386, Note_off_c, 0, 93, 64
1, 13386, Note_off_c, 0, 94, 64
1, 13386, Note_off_c, 0, 97, 64
1, 13386, Note_off_c, 0, 99, 64
1, 13387, Note_on_c, 0, 45, 93
1, 13387, Note_off_c, 0, 48, 64
1, 13387, Note_off_c, 0, 66, 64
1, 13387, Note_on_c, 0, 67, 29
1, 13387, Note_on_c, 0, 69, 31
1, 13387, Note_off_c, 0, 73, 64
1, 13387, Note_on_c, 0, 74, 31
1, 13388, Note_on_c, 0, 42, 98
1, 13388, Note_off_c, 0, 45, 64
1, 13389, Note_on_c, 0, 40, 97
1, 13389, Note_off_c, 0, 42, 64
1, 13389, Note_on_c, 0, 55, 21
1, 13389, Note_off_c, 0, 67, 64
1, 13389, Note_on_c, 0, 68, 31
1, 13389, Note_off_c, 0, 69, 64
1, 13389, Note_on_c, 0, 73, 52
1, 13390, Note_on_c, 0, 38, 97
1, 13390, Note_off_c, 0, 40, 64
1, 13390, Note_off_c, 0, 88, 64
1, 13390, Note_on_c, 0, 89, 39
1, 13391, Note_on_c, 0, 37, 97
1, 13391, Note_off_c, 0, 38, 64
1, 13391, Note_on_c, 0, 66, 21
1, 13391, Note_off_c, 0, 74, 64
1, 13391, Note_off_c, 0, 90, 64
1, 13391, Note_on_c, 0, 91, 39
1, 13392, Note_on_c, 0, 35, 95
1, 13392, Note_off_c, 0, 37, 64
1, 13392, Note_off_c, 0, 55, 64
1, 13392, Note_off_c, 0, 68, 64
1, 13392, Note_off_c, 0, 77, 64
1, 13392, Note_off_c, 0, 79, 64
1, 13393, Note_on_c, 0, 34, 94
1, 13393, Note_off_c, 0, 35, 64
1, 13394, Note_on_c, 0, 33, 94
1, 13394, Note_off_c, 0, 34, 64
1, 13394, Note_off_c, 0, 66, 64
1, 13394, Note_on_c, 0, 86, 13
1, 13394, Note_off_c, 0, 92, 64
1, 13394, Note_on_c, 0, 93, 51
1, 13395, Note_on_c, 0, 32, 95
1, 13395, Note_off_c, 0, 33, 64
1, 13395, Note_on_c, 0, 69, 30
1, 13395, Note_on_c, 0, 75, 33
1, 13396, Note_on_c, 0, 77, 30
1, 13396, Note_on_c, 0, 82, 14
1, 13397, Note_on_c, 0, 31, 93
1, 13397, Note_off_c, 0, 32, 64
1, 13397, Note_off_c, 0, 69, 64
1, 13397, Note_on_c, 0, 79, 20
1, 13398, Note_on_c, 0, 62, 18
1, 13398, Note_off_c, 0, 75, 64
1, 13398, Note_on_c, 0, 76, 22
1, 13398, Note_off_c, 0, 86, 64
1, 13399, Note_on_c, 0, 70, 28
1, 13399, Note_off_c, 0, 77, 64
1, 13399, Note_on_c, 0, 78, 22
1, 13399, Note_off_c, 0, 82, 64
1, 13399, Note_on_c, 0, 87, 23
1, 13400, Note_on_c, 0, 30, 74
1, 13400, Note_off_c, 0, 31, 64
1, 13400, Note_off_c, 0, 79, 64
1, 13400, Note_on_c, 0, 84, 9
1, 13401, Note_on_c, 0, 66, 46
1, 13401, Note_off_c, 0, 76, 64
1, 13402, Note_off_c, 0, 30, 64
1, 13402, Note_off_c, 0, 62, 64
1, 13403, Note_on_c, 0, 42, 65
1, 13403, Note_on_c, 0, 60, 35
1, 13403, Note_on_c, 0, 69, 41
1, 13403, Note_off_c, 0, 70, 64
1, 13403, Note_on_c, 0, 72, 42
1, 13403, Note_off_c, 0, 73, 64
1, 13403, Note_on_c, 0, 85, 22
1, 13403, Note_on_c, 0, 100, 19
1, 13404, Note_on_c, 0, 31, 70
1, 13404, Note_off_c, 0, 42, 64
1, 13404, Note_on_c, 0, 54, 55
1, 13404, Note_on_c, 0, 73, 53
1, 13404, Note_on_c, 0, 75, 25
1, 13404, Note_off_c, 0, 84, 64
1, 13404, Note_on_c, 0, 92, 16
1, 13404, Note_on_c, 0, 95, 15
1, 13405, Note_on_c, 0, 30, 77
1, 13405, Note_off_c, 0, 31, 64
1, 13405, Note_off_c, 0, 72, 64
1, 13405, Note_on_c, 0, 76, 31
1, 13405, Note_off_c, 0, 78, 64
1, 13405, Note_on_c, 0, 86, 16
1, 13405, Note_on_c, 0, 90, 18
1, 13406, Note_on_c, 0, 29, 79
1, 13406, Note_off_c, 0, 30, 64
1, 13406, Note_on_c, 0, 63, 25
1, 13406, Note_on_c, 0, 79, 20
1, 13406, Note_off_c, 0, 100, 64
1, 13407, Note_off_c, 0, 29, 64
1, 13407, Note_on_c, 0, 30, 76
1, 13407, Note_off_c, 0, 60, 64
1, 13407, Note_off_c, 0, 69, 64
1, 13407, Note_on_c, 0, 70, 38
1, 13407, Note_off_c, 0, 75, 64
1, 13407, Note_off_c, 0, 92, 64
1, 13408, Note_on_c, 0, 29, 73
1, 13408, Note_off_c, 0, 30, 64
1, 13408, Note_off_c, 0, 54, 64
1, 13408, Note_on_c, 0, 71, 43
1, 13408, Note_off_c, 0, 73, 64
1, 13408, Note_off_c, 0, 86, 64
1, 13408, Note_off_c, 0, 90, 64
1, 13409, Note_off_c, 0, 29, 64
1, 13409, Note_on_c, 0, 30, 73
1, 13409, Note_off_c, 0, 70, 64
1, 13410, Note_on_c, 0, 29, 72
1, 13410, Note_off_c, 0, 30, 64
1, 13410, Note_off_c, 0, 63, 64
1, 13410, Note_off_c, 0, 66, 64
1, 13410, Note_on_c, 0, 67, 32
1, 13410, Note_on_c, 0, 74, 49
1, 13410, Note_off_c, 0, 79, 64
1, 13410, Note_off_c, 0, 85, 64
1, 13411, Note_on_c, 0, 70, 48
1, 13411, Note_off_c, 0, 71, 64
1, 13411, Note_off_c, 0, 76, 64
1, 13411, Note_on_c, 0, 85, 16
1, 13411, Note_on_c, 0, 92, 36
1, 13411, Note_on_c, 0, 98, 19
1, 13412, Note_on_c, 0, 54, 51
1, 13412, Note_off_c, 0, 74, 64
1, 13412, Note_on_c, 0, 76, 45
1, 13412, Note_on_c, 0, 81, 20
1, 13412, Note_on_c, 0, 86, 25
1, 13412, Note_off_c, 0, 87, 64
1, 13412, Note_off_c, 0, 91, 64
1, 13412, Note_on_c, 0, 94, 41
1, 13412, Note_on_c, 0, 99, 15
1, 13413, Note_off_c, 0, 29, 64
1, 13413, Note_on_c, 0, 30, 78
1, 13413, Note_on_c, 0, 64, 41
1, 13413, Note_on_c, 0, 74, 61
1, 13413, Note_on_c, 0, 83, 20
1, 13413, Note_on_c, 0, 87, 21
1, 13413, Note_on_c, 0, 91, 16
1, 13413, Note_off_c, 0, 95, 64
1, 13413, Note_on_c, 0, 96, 11
1, 13413, Note_on_c, 0, 97, 20
1, 13414, Note_on_c, 0, 49, 58
1, 13414, Note_off_c, 0, 67, 64
1, 13414, Note_on_c, 0, 69, 39
1, 13414, Note_off_c, 0, 70, 64
1, 13414, Note_on_c, 0, 72, 30
1, 13414, Note_on_c, 0, 79, 33
1, 13414, Note_off_c, 0, 93, 64
1, 13415, Note_off_c, 0, 54, 64
1, 13416, Note_on_c, 0, 63, 29
1, 13416, Note_off_c, 0, 64, 64
1, 13416, Note_on_c, 0, 66, 30
1, 13416, Note_off_c, 0, 72, 64
1, 13416, Note_off_c, 0, 76, 64
1, 13416, Note_off_c, 0, 81, 64
1, 13416, Note_off_c, 0, 83, 64
1, 13416, Note_off_c, 0, 91, 64
1, 13416, Note_off_c, 0, 96, 64
1, 13417, Note_on_c, 0, 29, 76
1, 13417, Note_off_c, 0, 30, 64
1, 13417, Note_off_c, 0, 69, 64
1, 13417, Note_on_c, 0, 77, 27
1, 13417, Note_off_c, 0, 85, 64
1, 13418, Note_off_c, 0, 29, 64
1, 13418, Note_on_c, 0, 30, 73
1, 13418, Note_off_c, 0, 63, 64
1, 13418, Note_on_c, 0, 81, 38
1, 13418, Note_on_c, 0, 83, 35
1, 13418, Note_on_c, 0, 84, 19
1, 13418, Note_off_c, 0, 87, 64
1, 13418, Note_off_c, 0, 89, 64
1, 13419, Note_off_c, 0, 30, 64
1, 13419, Note_on_c, 0, 31, 68
1, 13419, Note_off_c, 0, 49, 64
1, 13419, Note_off_c, 0, 66, 64
1, 13419, Note_on_c, 0, 69, 51
1, 13419, Note_on_c, 0, 72, 38
1, 13419, Note_on_c, 0, 89, 33
1, 13419, Note_off_c, 0, 99, 64
1, 13420, Note_off_c, 0, 31, 64
1, 13420, Note_on_c, 0, 34, 69
1, 13420, Note_on_c, 0, 68, 40
1, 13420, Note_on_c, 0, 76, 43
1, 13420, Note_off_c, 0, 77, 64
1, 13420, Note_on_c, 0, 85, 27
1, 13421, Note_off_c, 0, 34, 64
1, 13421, Note_off_c, 0, 72, 64
1, 13421, Note_off_c, 0, 84, 64
1, 13421, Note_on_c, 0, 96, 18
1, 13422, Note_on_c, 0, 64, 51
1, 13422, Note_off_c, 0, 68, 64
1, 13422, Note_on_c, 0, 72, 46
1, 13423, Note_on_c, 0, 51, 77
1, 13423, Note_on_c, 0, 70, 31
1, 13423, Note_off_c, 0, 76, 64
1, 13423, Note_off_c, 0, 79, 64
1, 13423, Note_off_c, 0, 85, 64
1, 13423, Note_off_c, 0, 97, 64
1, 13423, Note_off_c, 0, 98, 64
1, 13424, Note_on_c, 0, 45, 88
1, 13424, Note_off_c, 0, 51, 64
1, 13424, Note_off_c, 0, 64, 64
1, 13424, Note_off_c, 0, 69, 64
1, 13424, Note_on_c, 0, 77, 30
1, 13424, Note_off_c, 0, 89, 64
1, 13425, Note_on_c, 0, 42, 95
1, 13425, Note_off_c, 0, 45, 64
1, 13425, Note_on_c, 0, 61, 27
1, 13425, Note_on_c, 0, 69, 34
1, 13425, Note_off_c, 0, 72, 64
1, 13425, Note_on_c, 0, 78, 29
1, 13425, Note_off_c, 0, 81, 64
1, 13425, Note_on_c, 0, 84, 16
1, 13425, Note_off_c, 0, 96, 64
1, 13426, Note_on_c, 0, 41, 98
1, 13426, Note_off_c, 0, 42, 64
1, 13426, Note_off_c, 0, 74, 64
1, 13426, Note_on_c, 0, 75, 32
1, 13427, Note_on_c, 0, 39, 96
1, 13427, Note_off_c, 0, 41, 64
1, 13427, Note_off_c, 0, 78, 64
1, 13427, Note_off_c, 0, 86, 64
1, 13428, Note_on_c, 0, 37, 97
1, 13428, Note_off_c, 0, 39, 64
1, 13428, Note_off_c, 0, 70, 64
1, 13428, Note_on_c, 0, 80, 19
1, 13428, Note_off_c, 0, 83, 64
1, 13428, Note_off_c, 0, 84, 64
1, 13429, Note_on_c, 0, 36, 96
1, 13429, Note_off_c, 0, 37, 64
1, 13429, Note_off_c, 0, 61, 64
1, 13429, Note_off_c, 0, 75, 64
1, 13429, Note_on_c, 0, 76, 29
1, 13429, Note_off_c, 0, 77, 64
1, 13429, Note_on_c, 0, 89, 12
1, 13429, Note_on_c, 0, 91, 35
1, 13430, Note_on_c, 0, 35, 96
1, 13430, Note_off_c, 0, 36, 64
1, 13430, Note_off_c, 0, 69, 64
1, 13430, Note_on_c, 0, 70, 37
1, 13430, Note_off_c, 0, 92, 64
1, 13431, Note_on_c, 0, 34, 95
1, 13431, Note_off_c, 0, 35, 64
1, 13431, Note_on_c, 0, 66, 38
1, 13431, Note_on_c, 0, 93, 28
1, 13432, Note_on_c, 0, 33, 93
1, 13432, Note_off_c, 0, 34, 64
1, 13432, Note_on_c, 0, 86, 16
1, 13432, Note_off_c, 0, 89, 64
1, 13433, Note_on_c, 0, 32, 94
1, 13433, Note_off_c, 0, 33, 64
1, 13433, Note_off_c, 0, 66, 64
1, 13434, Note_on_c, 0, 68, 33
1, 13434, Note_off_c, 0, 94, 64
1, 13434, Note_on_c, 0, 95, 61
1, 13435, Note_on_c, 0, 31, 91
1, 13435, Note_off_c, 0, 32, 64
1, 13435, Note_on_c, 0, 66, 43
1, 13435, Note_off_c, 0, 70, 64
1, 13435, Note_on_c, 0, 73, 25
1, 13436, Note_off_c, 0, 68, 64
1, 13436, Note_on_c, 0, 75, 23
1, 13436, Note_off_c, 0, 76, 64
1, 13436, Note_off_c, 0, 86, 64
1, 13436, Note_on_c, 0, 89, 15
1, 13436, Note_on_c, 0, 90, 25
1, 13437, Note_on_c, 0, 30, 80
1, 13437, Note_off_c, 0, 31, 64
1, 13437, Note_on_c, 0, 70, 41
1, 13437, Note_on_c, 0, 88, 21
1, 13438, Note_on_c, 0, 76, 27
1, 13439, Note_off_c, 0, 30, 64
1, 13439, Note_on_c, 0, 56, 38
1, 13439, Note_off_c, 0, 73, 64
1, 13439, Note_off_c, 0, 75, 64
1, 13440, Note_on_c, 0, 71, 37
1, 13440, Note_on_c, 0, 73, 46
1, 13441, Note_on_c, 0, 36, 70
1, 13441, Note_off_c, 0, 56, 64
1, 13441, Note_off_c, 0, 66, 64
1, 13441, Note_on_c, 0, 67, 49
1, 13441, Note_off_c, 0, 70, 64
1, 13442, Note_on_c, 0, 31, 74
1, 13442, Note_off_c, 0, 36, 64
1, 13442, Note_on_c, 0, 54, 53
1, 13442, Note_off_c, 0, 71, 64
1, 13442, Note_on_c, 0, 75, 37
1, 13442, Note_off_c, 0, 76, 64
1, 13442, Note_off_c, 0, 80, 64
1, 13442, Note_off_c, 0, 89, 64
1, 13442, Note_on_c, 0, 99, 20
1, 13443, Note_on_c, 0, 30, 76
1, 13443, Note_off_c, 0, 31, 64
1, 13443, Note_off_c, 0, 67, 64
1, 13443, Note_on_c, 0, 68, 44
1, 13443, Note_on_c, 0, 81, 25
1, 13443, Note_on_c, 0, 98, 16
1, 13444, Note_on_c, 0, 29, 77
1, 13444, Note_off_c, 0, 30, 64
1, 13444, Note_on_c, 0, 74, 48
1, 13444, Note_off_c, 0, 75, 64
1, 13444, Note_on_c, 0, 84, 24
1, 13444, Note_on_c, 0, 102, 28
1, 13445, Note_off_c, 0, 29, 64
1, 13445, Note_on_c, 0, 30, 75
1, 13445, Note_on_c, 0, 67, 40
1, 13445, Note_off_c, 0, 68, 64
1, 13445, Note_off_c, 0, 88, 64
1, 13446, Note_off_c, 0, 54, 64
1, 13446, Note_on_c, 0, 62, 31
1, 13446, Note_on_c, 0, 70, 37
1, 13446, Note_on_c, 0, 78, 37
1, 13447, Note_on_c, 0, 29, 72
1, 13447, Note_off_c, 0, 30, 64
1, 13447, Note_on_c, 0, 48, 47
1, 13447, Note_off_c, 0, 73, 64
1, 13447, Note_off_c, 0, 74, 64
1, 13447, Note_off_c, 0, 81, 64
1, 13447, Note_on_c, 0, 86, 21
1, 13447, Note_on_c, 0, 88, 23
1, 13447, Note_on_c, 0, 101, 20
1, 13448, Note_off_c, 0, 67, 64
1, 13448, Note_off_c, 0, 70, 64
1, 13448, Note_on_c, 0, 71, 44
1, 13448, Note_on_c, 0, 73, 57
1, 13448, Note_on_c, 0, 76, 33
1, 13448, Note_on_c, 0, 80, 14
1, 13448, Note_off_c, 0, 98, 64
1, 13449, Note_off_c, 0, 48, 64
1, 13449, Note_on_c, 0, 66, 27
1, 13449, Note_on_c, 0, 69, 34
1, 13449, Note_off_c, 0, 91, 64
1, 13449, Note_on_c, 0, 92, 35
1, 13450, Note_off_c, 0, 29, 64
1, 13450, Note_on_c, 0, 30, 77
1, 13450, Note_on_c, 0, 43, 67
1, 13450, Note_off_c, 0, 76, 64
1, 13450, Note_off_c, 0, 86, 64
1, 13450, Note_off_c, 0, 88, 64
1, 13451, Note_off_c, 0, 43, 64
1, 13451, Note_on_c, 0, 60, 40
1, 13451, Note_off_c, 0, 62, 64
1, 13451, Note_off_c, 0, 69, 64
1, 13451, Note_off_c, 0, 80, 64
1, 13451, Note_on_c, 0, 98, 13
1, 13452, Note_off_c, 0, 71, 64
1, 13452, Note_on_c, 0, 75, 30
1, 13452, Note_off_c, 0, 78, 64
1, 13452, Note_on_c, 0, 82, 17
1, 13452, Note_on_c, 0, 86, 15
1, 13452, Note_on_c, 0, 89, 36
1, 13452, Note_off_c, 0, 101, 64
1, 13453, Note_on_c, 0, 29, 77
1, 13453, Note_off_c, 0, 30, 64
1, 13453, Note_off_c, 0, 60, 64
1, 13453, Note_on_c, 0, 61, 42
1, 13453, Note_on_c, 0, 69, 30
1, 13453, Note_on_c, 0, 80, 27
1, 13453, Note_off_c, 0, 84, 64
1, 13453, Note_on_c, 0, 88, 46
1, 13453, Note_off_c, 0, 90, 64
1, 13453, Note_on_c, 0, 94, 18
1, 13454, Note_off_c, 0, 29, 64
1, 13454, Note_on_c, 0, 30, 76
1, 13454, Note_on_c, 0, 49, 53
1, 13454, Note_off_c, 0, 66, 64
1, 13454, Note_on_c, 0, 72, 42
1, 13454, Note_off_c, 0, 75, 64
1, 13454, Note_on_c, 0, 76, 33
1, 13454, Note_on_c, 0, 83, 24
1, 13455, Note_off_c, 0, 73, 64
1, 13455, Note_off_c, 0, 82, 64
1, 13455, Note_off_c, 0, 86, 64
1, 13455, Note_on_c, 0, 87, 26
1, 13455, Note_on_c, 0, 90, 40
1, 13455, Note_off_c, 0, 102, 64
1, 13456, Note_off_c, 0, 49, 64
1, 13456, Note_off_c, 0, 69, 64
1, 13456, Note_on_c, 0, 79, 17
1, 13456, Note_off_c, 0, 80, 64
1, 13456, Note_off_c, 0, 93, 64
1, 13456, Note_off_c, 0, 95, 64
1, 13456, Note_on_c, 0, 96, 65
1, 13457, Note_off_c, 0, 30, 64
1, 13457, Note_on_c, 0, 34, 70
1, 13457, Note_on_c, 0, 47, 45
1, 13457, Note_on_c, 0, 63, 40
1, 13457, Note_on_c, 0, 74, 42
1, 13457, Note_off_c, 0, 94, 64
1, 13457, Note_off_c, 0, 98, 64
1, 13458, Note_off_c, 0, 34, 64
1, 13458, Note_on_c, 0, 57, 61
1, 13458, Note_off_c, 0, 61, 64
1, 13458, Note_off_c, 0, 72, 64
1, 13458, Note_off_c, 0, 76, 64
1, 13458, Note_on_c, 0, 80, 34
1, 13458, Note_on_c, 0, 82, 43
1, 13458, Note_off_c, 0, 83, 64
1, 13458, Note_on_c, 0, 84, 25
1, 13459, Note_off_c, 0, 47, 64
1, 13459, Note_off_c, 0, 63, 64
1, 13459, Note_on_c, 0, 66, 32
1, 13459, Note_on_c, 0, 73, 29
1, 13459, Note_off_c, 0, 74, 64
1, 13459, Note_off_c, 0, 79, 64
1, 13459, Note_on_c, 0, 86, 29
1, 13459, Note_on_c, 0, 93, 35
1, 13460, Note_on_c, 0, 55, 67
1, 13460, Note_off_c, 0, 57, 64
1, 13460, Note_off_c, 0, 87, 64
1, 13460, Note_on_c, 0, 91, 27
1, 13461, Note_on_c, 0, 51, 78
1, 13461, Note_off_c, 0, 55, 64
1, 13461, Note_on_c, 0, 68, 18
1, 13461, Note_on_c, 0, 72, 24
1, 13461, Note_off_c, 0, 96, 64
1, 13462, Note_on_c, 0, 48, 82
1, 13462, Note_off_c, 0, 51, 64
1, 13462, Note_on_c, 0, 83, 26
1, 13462, Note_off_c, 0, 84, 64
1, 13462, Note_on_c, 0, 85, 31
1, 13462, Note_off_c, 0, 99, 64
1, 13463, Note_on_c, 0, 46, 78
1, 13463, Note_off_c, 0, 48, 64
1, 13463, Note_off_c, 0, 73, 64
1, 13464, Note_on_c, 0, 45, 71
1, 13464, Note_off_c, 0, 46, 64
1, 13464, Note_off_c, 0, 72, 64
1, 13464, Note_on_c, 0, 76, 14
1, 13465, Note_on_c, 0, 43, 66
1, 13465, Note_off_c, 0, 45, 64
1, 13465, Note_off_c, 0, 66, 64
1, 13465, Note_off_c, 0, 91, 64
1, 13466, Note_on_c, 0, 41, 65
1, 13466, Note_off_c, 0, 43, 64
1, 13466, Note_on_c, 0, 72, 23
1, 13466, Note_off_c, 0, 85, 64
1, 13466, Note_on_c, 0, 91, 26
1, 13467, Note_on_c, 0, 38, 67
1, 13467, Note_off_c, 0, 41, 64
1, 13467, Note_on_c, 0, 74, 23
1, 13467, Note_off_c, 0, 76, 64
1, 13467, Note_off_c, 0, 83, 64
1, 13467, Note_on_c, 0, 84, 31
1, 13468, Note_on_c, 0, 37, 67
1, 13468, Note_off_c, 0, 38, 64
1, 13468, Note_off_c, 0, 68, 64
1, 13468, Note_on_c, 0, 76, 22
1, 13468, Note_on_c, 0, 85, 28
1, 13469, Note_off_c, 0, 37, 64
1, 13469, Note_on_c, 0, 71, 14
1, 13469, Note_off_c, 0, 72, 64
1, 13470, Note_on_c, 0, 35, 60
1, 13471, Note_on_c, 0, 78, 32
1, 13471, Note_on_c, 0, 83, 34
1, 13471, Note_off_c, 0, 84, 64
1, 13472, Note_off_c, 0, 35, 64
1, 13472, Note_on_c, 0, 45, 36
1, 13472, Note_off_c, 0, 71, 64
1, 13472, Note_off_c, 0, 92, 64
1, 13472, Note_on_c, 0, 95, 35
1, 13473, Note_on_c, 0, 58, 36
1, 13474, Note_off_c, 0, 45, 64
1, 13474, Note_off_c, 0, 83, 64
1, 13474, Note_on_c, 0, 84, 32
1, 13475, Note_on_c, 0, 33, 36
1, 13475, Note_on_c, 0, 47, 47
1, 13475, Note_on_c, 0, 73, 45
1, 13476, Note_on_c, 0, 55, 42
1, 13476, Note_off_c, 0, 58, 64
1, 13476, Note_off_c, 0, 84, 64
1, 13477, Note_off_c, 0, 33, 64
1, 13477, Note_off_c, 0, 47, 64
1, 13477, Note_off_c, 0, 76, 64
1, 13477, Note_on_c, 0, 96, 15
1, 13478, Note_off_c, 0, 55, 64
1, 13478, Note_on_c, 0, 70, 36
1, 13478, Note_off_c, 0, 74, 64
1, 13478, Note_on_c, 0, 75, 31
1, 13478, Note_on_c, 0, 81, 34
1, 13479, Note_on_c, 0, 77, 33
1, 13479, Note_off_c, 0, 78, 64
1, 13479, Note_on_c, 0, 79, 31
1, 13479, Note_off_c, 0, 80, 64
1, 13479, Note_off_c, 0, 86, 64
1, 13479, Note_on_c, 0, 92, 21
1, 13480, Note_off_c, 0, 75, 64
1, 13480, Note_on_c, 0, 76, 38
1, 13480, Note_on_c, 0, 83, 21
1, 13480, Note_off_c, 0, 85, 64
1, 13480, Note_on_c, 0, 86, 31
1, 13481, Note_on_c, 0, 56, 50
1, 13481, Note_on_c, 0, 87, 29
1, 13481, Note_off_c, 0, 90, 64
1, 13481, Note_off_c, 0, 91, 64
1, 13482, Note_on_c, 0, 64, 26
1, 13482, Note_off_c, 0, 86, 64
1, 13482, Note_off_c, 0, 96, 64
1, 13483, Note_off_c, 0, 81, 64
1, 13483, Note_on_c, 0, 90, 37
1, 13483, Note_off_c, 0, 92, 64
1, 13484, Note_on_c, 0, 40, 59
1, 13484, Note_on_c, 0, 81, 32
1, 13484, Note_off_c, 0, 83, 64
1, 13484, Note_on_c, 0, 84, 19
1, 13484, Note_on_c, 0, 86, 35
1, 13484, Note_off_c, 0, 89, 64
1, 13485, Note_on_c, 0, 47, 48
1, 13485, Note_off_c, 0, 56, 64
1, 13485, Note_on_c, 0, 57, 42
1, 13486, Note_off_c, 0, 40, 64
1, 13486, Note_off_c, 0, 64, 64
1, 13486, Note_on_c, 0, 83, 15
1, 13486, Note_off_c, 0, 87, 64
1, 13487, Note_off_c, 0, 47, 64
1, 13487, Note_off_c, 0, 57, 64
1, 13487, Note_off_c, 0, 81, 64
1, 13487, Note_off_c, 0, 84, 64
1, 13487, Note_on_c, 0, 92, 34
1, 13488, Note_on_c, 0, 66, 25
1, 13488, Note_off_c, 0, 77, 64
1, 13488, Note_on_c, 0, 81, 25
1, 13488, Note_on_c, 0, 87, 44
1, 13488, Note_on_c, 0, 96, 18
1, 13489, Note_on_c, 0, 52, 34
1, 13489, Note_on_c, 0, 57, 41
1, 13489, Note_on_c, 0, 77, 40
1, 13489, Note_off_c, 0, 83, 64
1, 13489, Note_off_c, 0, 90, 64
1, 13490, Note_on_c, 0, 63, 34
1, 13490, Note_off_c, 0, 76, 64
1, 13490, Note_on_c, 0, 90, 37
1, 13491, Note_off_c, 0, 52, 64
1, 13491, Note_off_c, 0, 57, 64
1, 13491, Note_on_c, 0, 76, 38
1, 13491, Note_off_c, 0, 88, 64
1, 13491, Note_off_c, 0, 93, 64
1, 13491, Note_off_c, 0, 96, 64
1, 13492, Note_on_c, 0, 50, 31
1, 13492, Note_off_c, 0, 81, 64
1, 13492, Note_off_c, 0, 92, 64
1, 13492, Note_on_c, 0, 93, 15
1, 13493, Note_on_c, 0, 59, 25
1, 13493, Note_on_c, 0, 92, 22
1, 13493, Note_off_c, 0, 95, 64
1, 13493, Note_on_c, 0, 96, 38
1, 13494, Note_off_c, 0, 50, 64
1, 13494, Note_on_c, 0, 51, 44
1, 13495, Note_on_c, 0, 56, 44
1, 13495, Note_off_c, 0, 63, 64
1, 13495, Note_off_c, 0, 66, 64
1, 13495, Note_off_c, 0, 73, 64
1, 13495, Note_on_c, 0, 83, 20
1, 13496, Note_off_c, 0, 59, 64
1, 13496, Note_on_c, 0, 73, 37
1, 13496, Note_off_c, 0, 77, 64
1, 13496, Note_on_c, 0, 78, 26
1, 13496, Note_off_c, 0, 79, 64
1, 13496, Note_on_c, 0, 80, 32
1, 13497, Note_off_c, 0, 56, 64
1, 13497, Note_on_c, 0, 85, 48
1, 13498, Note_on_c, 0, 50, 49
1, 13498, Note_off_c, 0, 51, 64
1, 13498, Note_on_c, 0, 55, 43
1, 13498, Note_on_c, 0, 61, 22
1, 13498, Note_off_c, 0, 70, 64
1, 13498, Note_off_c, 0, 83, 64
1, 13498, Note_off_c, 0, 86, 64
1, 13498, Note_on_c, 0, 89, 18
1, 13498, Note_off_c, 0, 93, 64
1, 13498, Note_off_c, 0, 96, 64
1, 13499, Note_off_c, 0, 78, 64
1, 13499, Note_on_c, 0, 86, 26
1, 13499, Note_off_c, 0, 87, 64
1, 13499, Note_off_c, 0, 90, 64
1, 13500, Note_off_c, 0, 50, 64
1, 13500, Note_off_c, 0, 55, 64
1, 13500, Note_on_c, 0, 84, 19
1, 13500, Note_on_c, 0, 93, 12
1, 13501, Note_on_c, 0, 47, 44
1, 13501, Note_off_c, 0, 92, 64
1, 13502, Note_off_c, 0, 61, 64
1, 13502, Note_on_c, 0, 70, 24
1, 13502, Note_off_c, 0, 73, 64
1, 13502, Note_on_c, 0, 74, 69
1, 13502, Note_on_c, 0, 79, 23
1, 13502, Note_off_c, 0, 80, 64
1, 13502, Note_on_c, 0, 83, 29
1, 13502, Note_on_c, 0, 87, 41
1, 13502, Note_on_c, 0, 91, 29
1, 13503, Note_off_c, 0, 47, 64
1, 13503, Note_on_c, 0, 50, 46
1, 13503, Note_on_c, 0, 67, 29
1, 13503, Note_off_c, 0, 84, 64
1, 13503, Note_off_c, 0, 89, 64
1, 13503, Note_on_c, 0, 90, 30
1, 13503, Note_on_c, 0, 92, 12
1, 13503, Note_off_c, 0, 93, 64
1, 13504, Note_on_c, 0, 80, 31
1, 13504, Note_on_c, 0, 84, 24
1, 13505, Note_off_c, 0, 50, 64
1, 13505, Note_on_c, 0, 65, 33
1, 13505, Note_off_c, 0, 70, 64
1, 13505, Note_on_c, 0, 89, 34
1, 13506, Note_off_c, 0, 76, 64
1, 13506, Note_on_c, 0, 77, 33
1, 13506, Note_off_c, 0, 79, 64
1, 13506, Note_off_c, 0, 86, 64
1, 13507, Note_off_c, 0, 67, 64
1, 13507, Note_on_c, 0, 79, 21
1, 13507, Note_off_c, 0, 83, 64
1, 13507, Note_on_c, 0, 88, 28
1, 13507, Note_off_c, 0, 92, 64
1, 13507, Note_on_c, 0, 95, 17
1, 13508, Note_off_c, 0, 80, 64
1, 13509, Note_on_c, 0, 67, 32
1, 13509, Note_off_c, 0, 84, 64
1, 13510, Note_on_c, 0, 36, 46
1, 13510, Note_on_c, 0, 81, 24
1, 13510, Note_off_c, 0, 87, 64
1, 13510, Note_on_c, 0, 93, 24
1, 13511, Note_on_c, 0, 46, 36
1, 13511, Note_on_c, 0, 57, 34
1, 13511, Note_off_c, 0, 65, 64
1, 13512, Note_off_c, 0, 36, 64
1, 13512, Note_off_c, 0, 74, 64
1, 13512, Note_on_c, 0, 75, 67
1, 13512, Note_off_c, 0, 88, 64
1, 13512, Note_off_c, 0, 90, 64
1, 13512, Note_off_c, 0, 95, 64
1, 13513, Note_on_c, 0, 45, 43
1, 13513, Note_off_c, 0, 46, 64
1, 13513, Note_off_c, 0, 57, 64
1, 13513, Note_on_c, 0, 68, 43
1, 13513, Note_on_c, 0, 73, 48
1, 13513, Note_off_c, 0, 82, 64
1, 13513, Note_on_c, 0, 83, 30
1, 13513, Note_on_c, 0, 92, 32
1, 13514, Note_on_c, 0, 66, 66
1, 13514, Note_off_c, 0, 67, 64
1, 13514, Note_on_c, 0, 95, 35
1, 13515, Note_off_c, 0, 45, 64
1, 13515, Note_off_c, 0, 77, 64
1, 13515, Note_on_c, 0, 82, 41
1, 13515, Note_on_c, 0, 86, 37
1, 13515, Note_on_c, 0, 88, 33
1, 13515, Note_off_c, 0, 91, 64
1, 13516, Note_off_c, 0, 68, 64
1, 13516, Note_on_c, 0, 70, 40
1, 13516, Note_off_c, 0, 79, 64
1, 13516, Note_on_c, 0, 80, 27
1, 13516, Note_off_c, 0, 81, 64
1, 13516, Note_on_c, 0, 91, 25
1, 13517, Note_off_c, 0, 83, 64
1, 13517, Note_on_c, 0, 84, 29
1, 13518, Note_on_c, 0, 35, 45
1, 13518, Note_on_c, 0, 48, 49
1, 13518, Note_off_c, 0, 75, 64
1, 13518, Note_on_c, 0, 76, 31
1, 13520, Note_off_c, 0, 35, 64
1, 13520, Note_off_c, 0, 48, 64
1, 13520, Note_on_c, 0, 61, 24
1, 13520, Note_on_c, 0, 83, 33
1, 13520, Note_off_c, 0, 84, 64
1, 13522, Note_on_c, 0, 57, 47
1, 13522, Note_off_c, 0, 80, 64
1, 13522, Note_on_c, 0, 84, 29
1, 13522, Note_off_c, 0, 91, 64
1, 13523, Note_off_c, 0, 83, 64
1, 13524, Note_off_c, 0, 61, 64
1, 13525, Note_on_c, 0, 56, 36
1, 13525, Note_off_c, 0, 57, 64
1, 13525, Note_on_c, 0, 61, 24
1, 13525, Note_on_c, 0, 80, 35
1, 13525, Note_on_c, 0, 91, 23
1, 13526, Note_off_c, 0, 84, 64
1, 13526, Note_off_c, 0, 88, 64
1, 13527, Note_on_c, 0, 84, 34
1, 13528, Note_off_c, 0, 56, 64
1, 13528, Note_on_c, 0, 57, 41
1, 13529, Note_off_c, 0, 91, 64
1, 13529, Note_off_c, 0, 93, 64
1, 13530, Note_on_c, 0, 44, 56
1, 13530, Note_off_c, 0, 57, 64
1, 13530, Note_off_c, 0, 61, 64
1, 13532, Note_off_c, 0, 44, 64
1, 13532, Note_off_c, 0, 66, 64
1, 13532, Note_off_c, 0, 92, 64
1, 13533, Note_off_c, 0, 73, 64
1, 13533, Note_on_c, 0, 74, 45
1, 13533, Note_off_c, 0, 84, 64
1, 13533, Note_on_c, 0, 87, 27
1, 13533, Note_on_c, 0, 91, 15
1, 13533, Note_on_c, 0, 93, 17
1, 13534, Note_on_c, 0, 67, 36
1, 13534, Note_off_c, 0, 86, 64
1, 13535, Note_on_c, 0, 60, 32
1, 13535, Note_off_c, 0, 70, 64
1, 13535, Note_on_c, 0, 78, 27
1, 13535, Note_off_c, 0, 80, 64
1, 13535, Note_off_c, 0, 82, 64
1, 13535, Note_off_c, 0, 95, 64
1, 13536, Note_on_c, 0, 56, 46
1, 13536, Note_on_c, 0, 66, 38
1, 13536, Note_off_c, 0, 67, 64
1, 13536, Note_off_c, 0, 76, 64
1, 13536, Note_off_c, 0, 87, 64
1, 13537, Note_off_c, 0, 60, 64
1, 13537, Note_on_c, 0, 61, 41
1, 13537, Note_on_c, 0, 83, 25
1, 13537, Note_on_c, 0, 94, 23
1, 13538, Note_off_c, 0, 91, 64
1, 13539, Note_off_c, 0, 56, 64
1, 13539, Note_on_c, 0, 68, 33
1, 13539, Note_on_c, 0, 70, 37
1, 13539, Note_on_c, 0, 73, 47
1, 13540, Note_on_c, 0, 46, 46
1, 13540, Note_off_c, 0, 74, 64
1, 13540, Note_on_c, 0, 75, 40
1, 13540, Note_on_c, 0, 81, 11
1, 13541, Note_on_c, 0, 84, 34
1, 13541, Note_off_c, 0, 93, 64
1, 13542, Note_off_c, 0, 46, 64
1, 13542, Note_on_c, 0, 47, 50
1, 13543, Note_on_c, 0, 55, 36
1, 13543, Note_off_c, 0, 66, 64
1, 13543, Note_off_c, 0, 81, 64
1, 13543, Note_on_c, 0, 82, 38
1, 13543, Note_off_c, 0, 83, 64
1, 13543, Note_on_c, 0, 91, 18
1, 13544, Note_off_c, 0, 47, 64
1, 13544, Note_on_c, 0, 66, 44
1, 13544, Note_off_c, 0, 68, 64
1, 13544, Note_off_c, 0, 75, 64
1, 13544, Note_on_c, 0, 76, 34
1, 13544, Note_on_c, 0, 87, 24
1, 13544, Note_on_c, 0, 93, 22
1, 13545, Note_off_c, 0, 55, 64
1, 13545, Note_off_c, 0, 85, 64
1, 13545, Note_off_c, 0, 89, 64
1, 13546, Note_on_c, 0, 45, 47
1, 13546, Note_on_c, 0, 83, 32
1, 13546, Note_off_c, 0, 84, 64
1, 13548, Note_off_c, 0, 83, 64
1, 13548, Note_on_c, 0, 84, 32
1, 13549, Note_off_c, 0, 45, 64
1, 13550, Note_off_c, 0, 78, 64
1, 13550, Note_on_c, 0, 80, 33
1, 13550, Note_on_c, 0, 83, 29
1, 13550, Note_off_c, 0, 84, 64
1, 13551, Note_on_c, 0, 45, 55
1, 13551, Note_off_c, 0, 87, 64
1, 13551, Note_off_c, 0, 93, 64
1, 13552, Note_off_c, 0, 83, 64
1, 13553, Note_off_c, 0, 45, 64
1, 13553, Note_on_c, 0, 64, 34
1, 13553, Note_off_c, 0, 76, 64
1, 13553, Note_on_c, 0, 83, 35
1, 13554, Note_on_c, 0, 37, 39
1, 13554, Note_on_c, 0, 55, 49
1, 13554, Note_off_c, 0, 70, 64
1, 13554, Note_off_c, 0, 82, 64
1, 13554, Note_on_c, 0, 86, 14
1, 13554, Note_on_c, 0, 90, 26
1, 13554, Note_on_c, 0, 93, 19
1, 13555, Note_on_c, 0, 68, 38
1, 13556, Note_off_c, 0, 37, 64
1, 13556, Note_on_c, 0, 45, 43
1, 13556, Note_off_c, 0, 61, 64
1, 13556, Note_on_c, 0, 82, 34
1, 13556, Note_on_c, 0, 87, 23
1, 13556, Note_on_c, 0, 89, 28
1, 13557, Note_off_c, 0, 55, 64
1, 13557, Note_off_c, 0, 83, 64
1, 13557, Note_off_c, 0, 86, 64
1, 13557, Note_off_c, 0, 90, 64
1, 13558, Note_off_c, 0, 45, 64
1, 13558, Note_on_c, 0, 53, 49
1, 13558, Note_on_c, 0, 86, 25
1, 13558, Note_on_c, 0, 90, 36
1, 13559, Note_on_c, 0, 61, 33
1, 13559, Note_off_c, 0, 66, 64
1, 13559, Note_off_c, 0, 73, 64
1, 13559, Note_on_c, 0, 74, 16
1, 13559, Note_on_c, 0, 85, 22
1, 13559, Note_off_c, 0, 89, 64
1, 13560, Note_on_c, 0, 45, 45
1, 13560, Note_on_c, 0, 84, 35
1, 13561, Note_off_c, 0, 53, 64
1, 13561, Note_on_c, 0, 55, 49
1, 13561, Note_on_c, 0, 89, 14
1, 13562, Note_off_c, 0, 45, 64
1, 13562, Note_off_c, 0, 61, 64
1, 13562, Note_off_c, 0, 64, 64
1, 13562, Note_on_c, 0, 72, 43
1, 13562, Note_on_c, 0, 73, 45
1, 13562, Note_off_c, 0, 84, 64
1, 13562, Note_off_c, 0, 87, 64
1, 13563, Note_off_c, 0, 55, 64
1, 13563, Note_on_c, 0, 64, 32
1, 13563, Note_off_c, 0, 74, 64
1, 13563, Note_off_c, 0, 80, 64
1, 13563, Note_on_c, 0, 81, 27
1, 13563, Note_on_c, 0, 88, 38
1, 13564, Note_off_c, 0, 82, 64
1, 13564, Note_off_c, 0, 85, 64
1, 13565, Note_off_c, 0, 86, 64
1, 13566, Note_on_c, 0, 61, 23
1, 13566, Note_off_c, 0, 73, 64
1, 13566, Note_on_c, 0, 83, 21
1, 13566, Note_on_c, 0, 92, 30
1, 13566, Note_off_c, 0, 94, 64
1, 13567, Note_off_c, 0, 89, 64
1, 13568, Note_off_c, 0, 93, 64
1, 13568, Note_on_c, 0, 96, 18
1, 13569, Note_off_c, 0, 61, 64
1, 13569, Note_on_c, 0, 70, 33
1, 13569, Note_off_c, 0, 72, 64
1, 13569, Note_on_c, 0, 75, 31
1, 13569, Note_on_c, 0, 76, 43
1, 13569, Note_on_c, 0, 79, 28
1, 13569, Note_on_c, 0, 86, 28
1, 13569, Note_off_c, 0, 91, 64
1, 13570, Note_on_c, 0, 66, 63
1, 13570, Note_off_c, 0, 68, 64
1, 13570, Note_on_c, 0, 89, 21
1, 13571, Note_on_c, 0, 47, 32
1, 13571, Note_off_c, 0, 70, 64
1, 13571, Note_off_c, 0, 75, 64
1, 13571, Note_on_c, 0, 84, 35
1, 13572, Note_off_c, 0, 64, 64
1, 13572, Note_on_c, 0, 73, 40
1, 13572, Note_off_c, 0, 83, 64
1, 13572, Note_on_c, 0, 94, 34
1, 13573, Note_off_c, 0, 47, 64
1, 13573, Note_on_c, 0, 70, 25
1, 13573, Note_on_c, 0, 82, 27
1, 13573, Note_off_c, 0, 86, 64
1, 13573, Note_off_c, 0, 96, 64
1, 13574, Note_off_c, 0, 79, 64
1, 13575, Note_on_c, 0, 38, 33
1, 13575, Note_on_c, 0, 71, 17
1, 13576, Note_off_c, 0, 70, 64
1, 13576, Note_off_c, 0, 81, 64
1, 13576, Note_off_c, 0, 89, 64
1, 13577, Note_off_c, 0, 38, 64
1, 13577, Note_on_c, 0, 80, 37
1, 13577, Note_off_c, 0, 84, 64
1, 13577, Note_on_c, 0, 91, 38
1, 13578, Note_off_c, 0, 71, 64
1, 13578, Note_on_c, 0, 84, 37
1, 13578, Note_on_c, 0, 87, 13
1, 13579, Note_off_c, 0, 90, 64
1, 13580, Note_on_c, 0, 55, 38
1, 13580, Note_on_c, 0, 95, 15
1, 13581, Note_on_c, 0, 45, 55
1, 13581, Note_on_c, 0, 70, 38
1, 13581, Note_off_c, 0, 73, 64
1, 13581, Note_on_c, 0, 74, 29
1, 13582, Note_on_c, 0, 81, 20
1, 13582, Note_off_c, 0, 82, 64
1, 13582, Note_on_c, 0, 86, 42
1, 13582, Note_off_c, 0, 87, 64
1, 13583, Note_off_c, 0, 45, 64
1, 13583, Note_on_c, 0, 46, 46
1, 13583, Note_on_c, 0, 53, 32
1, 13583, Note_off_c, 0, 55, 64
1, 13583, Note_on_c, 0, 83, 26
1, 13583, Note_on_c, 0, 89, 27
1, 13584, Note_off_c, 0, 84, 64
1, 13584, Note_on_c, 0, 96, 18
1, 13585, Note_off_c, 0, 53, 64
1, 13585, Note_on_c, 0, 73, 32
1, 13585, Note_off_c, 0, 74, 64
1, 13585, Note_off_c, 0, 81, 64
1, 13585, Note_on_c, 0, 84, 20
1, 13586, Note_off_c, 0, 46, 64
1, 13586, Note_off_c, 0, 83, 64
1, 13586, Note_off_c, 0, 88, 64
1, 13587, Note_on_c, 0, 56, 25
1, 13588, Note_on_c, 0, 93, 26
1, 13589, Note_on_c, 0, 51, 35
1, 13589, Note_on_c, 0, 59, 32
1, 13589, Note_off_c, 0, 95, 64
1, 13590, Note_off_c, 0, 56, 64
1, 13590, Note_off_c, 0, 73, 64
1, 13590, Note_on_c, 0, 74, 36
1, 13590, Note_on_c, 0, 87, 34
1, 13591, Note_off_c, 0, 51, 64
1, 13591, Note_off_c, 0, 59, 64
1, 13591, Note_on_c, 0, 61, 31
1, 13591, Note_off_c, 0, 76, 64
1, 13591, Note_off_c, 0, 84, 64
1, 13591, Note_off_c, 0, 86, 64
1, 13591, Note_off_c, 0, 89, 64
1, 13591, Note_off_c, 0, 96, 64
1, 13592, Note_on_c, 0, 65, 61
1, 13592, Note_off_c, 0, 66, 64
1, 13592, Note_on_c, 0, 69, 27
1, 13592, Note_on_c, 0, 79, 23
1, 13592, Note_on_c, 0, 81, 27
1, 13592, Note_on_c, 0, 84, 29
1, 13592, Note_on_c, 0, 89, 15
1, 13592, Note_off_c, 0, 91, 64
1, 13593, Note_off_c, 0, 61, 64
1, 13593, Note_off_c, 0, 70, 64
1, 13593, Note_on_c, 0, 71, 30
1, 13593, Note_off_c, 0, 80, 64
1, 13593, Note_on_c, 0, 82, 28
1, 13593, Note_off_c, 0, 87, 64
1, 13593, Note_on_c, 0, 90, 17
1, 13594, Note_on_c, 0, 45, 53
1, 13594, Note_on_c, 0, 58, 35
1, 13594, Note_on_c, 0, 95, 26
1, 13595, Note_on_c, 0, 35, 23
1, 13595, Note_on_c, 0, 68, 15
1, 13595, Note_off_c, 0, 69, 64
1, 13595, Note_on_c, 0, 76, 31
1, 13595, Note_off_c, 0, 81, 64
1, 13595, Note_on_c, 0, 83, 32
1, 13595, Note_off_c, 0, 89, 64
1, 13596, Note_off_c, 0, 45, 64
1, 13596, Note_off_c, 0, 58, 64
1, 13596, Note_on_c, 0, 64, 60
1, 13596, Note_off_c, 0, 65, 64
1, 13596, Note_off_c, 0, 71, 64
1, 13596, Note_off_c, 0, 79, 64
1, 13596, Note_on_c, 0, 87, 22
1, 13597, Note_on_c, 0, 72, 37
1, 13597, Note_off_c, 0, 74, 64
1, 13597, Note_on_c, 0, 75, 35
1, 13597, Note_off_c, 0, 76, 64
1, 13597, Note_on_c, 0, 79, 17
1, 13597, Note_off_c, 0, 82, 64
1, 13597, Note_off_c, 0, 84, 64
1, 13597, Note_on_c, 0, 85, 27
1, 13598, Note_off_c, 0, 35, 64
1, 13598, Note_on_c, 0, 77, 33
1, 13598, Note_on_c, 0, 82, 42
1, 13598, Note_off_c, 0, 83, 64
1, 13598, Note_off_c, 0, 90, 64
1, 13598, Note_off_c, 0, 94, 64
1, 13598, Note_off_c, 0, 95, 64
1, 13599, Note_on_c, 0, 45, 38
1, 13599, Note_on_c, 0, 63, 56
1, 13599, Note_off_c, 0, 64, 64
1, 13599, Note_on_c, 0, 83, 24
1, 13600, Note_off_c, 0, 68, 64
1, 13600, Note_off_c, 0, 72, 64
1, 13600, Note_on_c, 0, 78, 38
1, 13600, Note_off_c, 0, 79, 64
1, 13600, Note_on_c, 0, 91, 23
1, 13601, Note_on_c, 0, 69, 29
1, 13601, Note_on_c, 0, 72, 40
1, 13601, Note_off_c, 0, 75, 64
1, 13601, Note_on_c, 0, 88, 28
1, 13601, Note_on_c, 0, 90, 46
1, 13602, Note_off_c, 0, 45, 64
1, 13602, Note_off_c, 0, 63, 64
1, 13602, Note_on_c, 0, 66, 29
1, 13602, Note_on_c, 0, 76, 39
1, 13602, Note_off_c, 0, 77, 64
1, 13602, Note_off_c, 0, 87, 64
1, 13603, Note_on_c, 0, 61, 52
1, 13603, Note_on_c, 0, 77, 36
1, 13603, Note_off_c, 0, 83, 64
1, 13604, Note_on_c, 0, 65, 36
1, 13604, Note_off_c, 0, 69, 64
1, 13604, Note_off_c, 0, 72, 64
1, 13604, Note_on_c, 0, 73, 52
1, 13604, Note_on_c, 0, 75, 31
1, 13604, Note_off_c, 0, 76, 64
1, 13604, Note_off_c, 0, 78, 64
1, 13604, Note_on_c, 0, 80, 37
1, 13604, Note_on_c, 0, 86, 35
1, 13605, Note_off_c, 0, 66, 64
1, 13605, Note_on_c, 0, 87, 51
1, 13605, Note_off_c, 0, 93, 64
1, 13606, Note_on_c, 0, 60, 37
1, 13606, Note_off_c, 0, 61, 64
1, 13606, Note_off_c, 0, 75, 64
1, 13606, Note_on_c, 0, 76, 28
1, 13606, Note_off_c, 0, 85, 64
1, 13606, Note_off_c, 0, 88, 64
1, 13606, Note_on_c, 0, 89, 41
1, 13606, Note_on_c, 0, 96, 24
1, 13607, Note_on_c, 0, 64, 32
1, 13607, Note_off_c, 0, 65, 64
1, 13607, Note_off_c, 0, 77, 64
1, 13607, Note_on_c, 0, 79, 37
1, 13607, Note_off_c, 0, 80, 64
1, 13608, Note_on_c, 0, 66, 39
1, 13608, Note_on_c, 0, 72, 39
1, 13608, Note_off_c, 0, 73, 64
1, 13608, Note_off_c, 0, 82, 64
1, 13608, Note_on_c, 0, 93, 26
1, 13608, Note_on_c, 0, 95, 25
1, 13609, Note_off_c, 0, 60, 64
1, 13609, Note_off_c, 0, 64, 64
1, 13609, Note_on_c, 0, 73, 38
1, 13609, Note_off_c, 0, 76, 64
1, 13609, Note_off_c, 0, 86, 64
1, 13609, Note_off_c, 0, 96, 64
1, 13610, Note_off_c, 0, 72, 64
1, 13610, Note_on_c, 0, 83, 28
1, 13610, Note_off_c, 0, 91, 64
1, 13611, Note_on_c, 0, 77, 14
1, 13611, Note_on_c, 0, 88, 38
1, 13611, Note_on_c, 0, 96, 12
1, 13612, Note_on_c, 0, 55, 35
1, 13612, Note_on_c, 0, 61, 29
1, 13612, Note_off_c, 0, 79, 64
1, 13612, Note_on_c, 0, 80, 32
1, 13612, Note_on_c, 0, 82, 25
1, 13612, Note_off_c, 0, 89, 64
1, 13613, Note_on_c, 0, 70, 30
1, 13614, Note_off_c, 0, 55, 64
1, 13614, Note_off_c, 0, 73, 64
1, 13614, Note_on_c, 0, 74, 29
1, 13614, Note_on_c, 0, 76, 21
1, 13614, Note_off_c, 0, 77, 64
1, 13614, Note_off_c, 0, 88, 64
1, 13614, Note_on_c, 0, 89, 37
1, 13614, Note_off_c, 0, 92, 64
1, 13615, Note_off_c, 0, 83, 64
1, 13615, Note_on_c, 0, 88, 29
1, 13616, Note_off_c, 0, 89, 64
1, 13617, Note_off_c, 0, 61, 64
1, 13617, Note_on_c, 0, 83, 26
1, 13617, Note_off_c, 0, 88, 64
1, 13617, Note_on_c, 0, 89, 29
1, 13618, Note_on_c, 0, 44, 36
1, 13618, Note_off_c, 0, 70, 64
1, 13618, Note_on_c, 0, 73, 35
1, 13618, Note_off_c, 0, 82, 64
1, 13619, Note_off_c, 0, 66, 64
1, 13619, Note_off_c, 0, 74, 64
1, 13619, Note_off_c, 0, 76, 64
1, 13619, Note_off_c, 0, 93, 64
1, 13619, Note_off_c, 0, 95, 64
1, 13619, Note_off_c, 0, 96, 64
1, 13620, Note_off_c, 0, 44, 64
1, 13620, Note_on_c, 0, 45, 38
1, 13620, Note_on_c, 0, 65, 30
1, 13620, Note_off_c, 0, 73, 64
1, 13620, Note_on_c, 0, 74, 39
1, 13621, Note_on_c, 0, 54, 30
1, 13621, Note_on_c, 0, 72, 36
1, 13621, Note_on_c, 0, 79, 23
1, 13621, Note_off_c, 0, 80, 64
1, 13621, Note_on_c, 0, 82, 29
1, 13621, Note_on_c, 0, 88, 21
1, 13622, Note_off_c, 0, 45, 64
1, 13622, Note_off_c, 0, 83, 64
1, 13622, Note_off_c, 0, 87, 64
1, 13622, Note_off_c, 0, 89, 64
1, 13623, Note_off_c, 0, 54, 64
1, 13623, Note_on_c, 0, 55, 32
1, 13623, Note_on_c, 0, 64, 33
1, 13623, Note_off_c, 0, 65, 64
1, 13624, Note_on_c, 0, 45, 49
1, 13624, Note_off_c, 0, 72, 64
1, 13624, Note_off_c, 0, 74, 64
1, 13624, Note_on_c, 0, 75, 41
1, 13624, Note_off_c, 0, 79, 64
1, 13625, Note_off_c, 0, 55, 64
1, 13625, Note_on_c, 0, 79, 17
1, 13625, Note_on_c, 0, 81, 26
1, 13625, Note_off_c, 0, 82, 64
1, 13625, Note_on_c, 0, 85, 29
1, 13625, Note_on_c, 0, 89, 25
1, 13626, Note_on_c, 0, 70, 28
1, 13626, Note_on_c, 0, 73, 29
1, 13626, Note_on_c, 0, 82, 30
1, 13627, Note_off_c, 0, 45, 64
1, 13627, Note_on_c, 0, 63, 39
1, 13627, Note_off_c, 0, 64, 64
1, 13627, Note_on_c, 0, 78, 31
1, 13627, Note_on_c, 0, 83, 17
1, 13627, Note_off_c, 0, 88, 64
1, 13627, Note_off_c, 0, 90, 64
1, 13628, Note_off_c, 0, 79, 64
1, 13628, Note_off_c, 0, 81, 64
1, 13629, Note_on_c, 0, 62, 45
1, 13629, Note_off_c, 0, 63, 64
1, 13629, Note_on_c, 0, 66, 39
1, 13629, Note_on_c, 0, 88, 24
1, 13630, Note_off_c, 0, 70, 64
1, 13630, Note_on_c, 0, 71, 27
1, 13630, Note_off_c, 0, 75, 64
1, 13630, Note_on_c, 0, 76, 42
1, 13630, Note_off_c, 0, 83, 64
1, 13631, Note_off_c, 0, 73, 64
1, 13631, Note_on_c, 0, 80, 27
1, 13631, Note_on_c, 0, 84, 24
1, 13631, Note_on_c, 0, 91, 25
1, 13632, Note_on_c, 0, 55, 32
1, 13632, Note_off_c, 0, 62, 64
1, 13632, Note_off_c, 0, 85, 64
1, 13633, Note_on_c, 0, 85, 24
1, 13633, Note_off_c, 0, 89, 64
1, 13634, Note_off_c, 0, 55, 64
1, 13634, Note_on_c, 0, 72, 19
1, 13634, Note_on_c, 0, 89, 25
1, 13635, Note_off_c, 0, 80, 64
1, 13635, Note_off_c, 0, 88, 64
1, 13636, Note_on_c, 0, 47, 34
1, 13636, Note_off_c, 0, 71, 64
1, 13636, Note_on_c, 0, 95, 19
1, 13637, Note_on_c, 0, 53, 32
1, 13637, Note_on_c, 0, 87, 31
1, 13637, Note_on_c, 0, 93, 9
1, 13638, Note_off_c, 0, 47, 64
1, 13638, Note_off_c, 0, 66, 64
1, 13638, Note_off_c, 0, 72, 64
1, 13638, Note_on_c, 0, 80, 33
1, 13638, Note_on_c, 0, 83, 27
1, 13638, Note_off_c, 0, 85, 64
1, 13639, Note_off_c, 0, 84, 64
1, 13639, Note_on_c, 0, 85, 29
1, 13640, Note_off_c, 0, 53, 64
1, 13640, Note_on_c, 0, 74, 25
1, 13640, Note_off_c, 0, 93, 64
1, 13640, Note_off_c, 0, 95, 64
1, 13641, Note_on_c, 0, 55, 38
1, 13641, Note_on_c, 0, 66, 44
1, 13642, Note_off_c, 0, 83, 64
1, 13643, Note_on_c, 0, 70, 33
1, 13644, Note_off_c, 0, 66, 64
1, 13644, Note_on_c, 0, 67, 38
1, 13644, Note_off_c, 0, 74, 64
1, 13644, Note_off_c, 0, 78, 64
1, 13645, Note_off_c, 0, 55, 64
1, 13646, Note_off_c, 0, 70, 64
1, 13647, Note_off_c, 0, 67, 64
1, 13647, Note_on_c, 0, 72, 46
1, 13647, Note_on_c, 0, 74, 39
1, 13647, Note_on_c, 0, 77, 20
1, 13647, Note_off_c, 0, 91, 64
1, 13648, Note_on_c, 0, 65, 35
1, 13649, Note_on_c, 0, 56, 24
1, 13649, Note_off_c, 0, 76, 64
1, 13649, Note_off_c, 0, 80, 64
1, 13649, Note_off_c, 0, 82, 64
1, 13649, Note_off_c, 0, 87, 64
1, 13650, Note_off_c, 0, 65, 64
1, 13650, Note_on_c, 0, 66, 36
1, 13650, Note_off_c, 0, 74, 64
1, 13650, Note_off_c, 0, 77, 64
1, 13650, Note_on_c, 0, 83, 42
1, 13651, Note_on_c, 0, 46, 29
1, 13651, Note_on_c, 0, 74, 39
1, 13651, Note_off_c, 0, 85, 64
1, 13651, Note_off_c, 0, 89, 64
1, 13652, Note_off_c, 0, 66, 64
1, 13652, Note_off_c, 0, 72, 64
1, 13652, Note_on_c, 0, 77, 22
1, 13652, Note_on_c, 0, 85, 24
1, 13652, Note_on_c, 0, 87, 12
1, 13653, Note_off_c, 0, 46, 64
1, 13653, Note_off_c, 0, 56, 64
1, 13653, Note_on_c, 0, 64, 32
1, 13653, Note_off_c, 0, 74, 64
1, 13653, Note_on_c, 0, 75, 35
1, 13654, Note_on_c, 0, 72, 28
1, 13654, Note_on_c, 0, 78, 19
1, 13654, Note_on_c, 0, 82, 30
1, 13654, Note_off_c, 0, 83, 64
1, 13654, Note_on_c, 0, 86, 16
1, 13655, Note_on_c, 0, 74, 35
1, 13655, Note_off_c, 0, 75, 64
1, 13655, Note_off_c, 0, 77, 64
1, 13655, Note_off_c, 0, 87, 64
1, 13656, Note_off_c, 0, 64, 64
1, 13656, Note_on_c, 0, 67, 34
1, 13657, Note_off_c, 0, 72, 64
1, 13657, Note_on_c, 0, 73, 37
1, 13657, Note_off_c, 0, 74, 64
1, 13657, Note_on_c, 0, 80, 18
1, 13657, Note_on_c, 0, 88, 16
1, 13658, Note_on_c, 0, 53, 35
1, 13658, Note_off_c, 0, 67, 64
1, 13658, Note_on_c, 0, 72, 36
1, 13659, Note_off_c, 0, 73, 64
1, 13659, Note_on_c, 0, 89, 15
1, 13660, Note_on_c, 0, 41, 44
1, 13660, Note_off_c, 0, 53, 64
1, 13660, Note_on_c, 0, 61, 14
1, 13660, Note_off_c, 0, 72, 64
1, 13660, Note_on_c, 0, 73, 37
1, 13660, Note_off_c, 0, 78, 64
1, 13660, Note_on_c, 0, 83, 23
1, 13660, Note_off_c, 0, 88, 64
1, 13661, Note_on_c, 0, 66, 35
1, 13662, Note_off_c, 0, 41, 64
1, 13662, Note_on_c, 0, 72, 49
1, 13662, Note_on_c, 0, 76, 13
1, 13662, Note_off_c, 0, 82, 64
1, 13662, Note_off_c, 0, 86, 64
1, 13662, Note_on_c, 0, 87, 33
1, 13662, Note_on_c, 0, 91, 16
1, 13663, Note_on_c, 0, 45, 36
1, 13663, Note_off_c, 0, 73, 64
1, 13663, Note_on_c, 0, 79, 22
1, 13663, Note_off_c, 0, 85, 64
1, 13664, Note_off_c, 0, 61, 64
1, 13664, Note_off_c, 0, 80, 64
1, 13665, Note_off_c, 0, 45, 64
1, 13665, Note_on_c, 0, 53, 37
1, 13665, Note_off_c, 0, 66, 64
1, 13665, Note_on_c, 0, 67, 29
1, 13665, Note_on_c, 0, 73, 48
1, 13665, Note_off_c, 0, 91, 64
1, 13665, Note_on_c, 0, 93, 10
1, 13665, Note_on_c, 0, 94, 14
1, 13666, Note_off_c, 0, 72, 64
1, 13666, Note_off_c, 0, 79, 64
1, 13666, Note_on_c, 0, 80, 26
1, 13666, Note_off_c, 0, 83, 64
1, 13666, Note_off_c, 0, 89, 64
1, 13666, Note_on_c, 0, 90, 25
1, 13667, Note_off_c, 0, 53, 64
1, 13667, Note_on_c, 0, 66, 47
1, 13667, Note_off_c, 0, 67, 64
1, 13667, Note_on_c, 0, 89, 27
1, 13668, Note_on_c, 0, 45, 42
1, 13668, Note_off_c, 0, 76, 64
1, 13668, Note_on_c, 0, 77, 11
1, 13668, Note_on_c, 0, 82, 25
1, 13668, Note_off_c, 0, 93, 64
1, 13669, Note_on_c, 0, 83, 30
1, 13671, Note_off_c, 0, 45, 64
1, 13671, Note_on_c, 0, 76, 14
1, 13671, Note_off_c, 0, 77, 64
1, 13671, Note_off_c, 0, 82, 64
1, 13671, Note_off_c, 0, 94, 64
1, 13672, Note_on_c, 0, 74, 26
1, 13672, Note_on_c, 0, 82, 22
1, 13672, Note_off_c, 0, 89, 64
1, 13672, Note_on_c, 0, 91, 12
1, 13673, Note_off_c, 0, 90, 64
1, 13674, Note_on_c, 0, 45, 38
1, 13674, Note_off_c, 0, 66, 64
1, 13674, Note_off_c, 0, 73, 64
1, 13674, Note_off_c, 0, 76, 64
1, 13674, Note_off_c, 0, 83, 64
1, 13675, Note_on_c, 0, 55, 28
1, 13675, Note_off_c, 0, 82, 64
1, 13675, Note_on_c, 0, 83, 31
1, 13675, Note_off_c, 0, 91, 64
1, 13676, Note_on_c, 0, 66, 35
1, 13676, Note_off_c, 0, 74, 64
1, 13676, Note_on_c, 0, 79, 19
1, 13676, Note_on_c, 0, 85, 21
1, 13677, Note_off_c, 0, 45, 64
1, 13677, Note_on_c, 0, 74, 29
1, 13677, Note_off_c, 0, 80, 64
1, 13677, Note_on_c, 0, 81, 25
1, 13677, Note_on_c, 0, 89, 13
1, 13679, Note_off_c, 0, 55, 64
1, 13679, Note_on_c, 0, 73, 43
1, 13679, Note_off_c, 0, 74, 64
1, 13679, Note_on_c, 0, 75, 33
1, 13679, Note_on_c, 0, 86, 18
1, 13679, Note_on_c, 0, 92, 14
1, 13680, Note_off_c, 0, 79, 64
1, 13680, Note_off_c, 0, 87, 64
1, 13680, Note_off_c, 0, 89, 64
1, 13681, Note_off_c, 0, 66, 64
1, 13681, Note_on_c, 0, 77, 24
1, 13681, Note_on_c, 0, 79, 19
1, 13681, Note_off_c, 0, 85, 64
1, 13681, Note_on_c, 0, 88, 16
1, 13682, Note_on_c, 0, 74, 30
1, 13682, Note_off_c, 0, 75, 64
1, 13682, Note_off_c, 0, 86, 64
1, 13682, Note_off_c, 0, 92, 64
1, 13683, Note_on_c, 0, 82, 35
1, 13683, Note_off_c, 0, 83, 64
1, 13684, Note_on_c, 0, 72, 30
1, 13684, Note_off_c, 0, 73, 64
1, 13684, Note_off_c, 0, 77, 64
1, 13684, Note_on_c, 0, 78, 34
1, 13684, Note_off_c, 0, 79, 64
1, 13685, Note_on_c, 0, 56, 40
1, 13685, Note_off_c, 0, 74, 64
1, 13686, Note_on_c, 0, 67, 29
1, 13686, Note_off_c, 0, 72, 64
1, 13686, Note_on_c, 0, 74, 36
1, 13686, Note_on_c, 0, 76, 34
1, 13687, Note_on_c, 0, 55, 47
1, 13687, Note_off_c, 0, 56, 64
1, 13687, Note_off_c, 0, 88, 64
1, 13688, Note_on_c, 0, 72, 41
1, 13688, Note_on_c, 0, 80, 28
1, 13688, Note_off_c, 0, 81, 64
1, 13688, Note_off_c, 0, 82, 64
1, 13688, Note_on_c, 0, 89, 11
1, 13689, Note_on_c, 0, 82, 16
1, 13690, Note_on_c, 0, 66, 28
1, 13690, Note_off_c, 0, 67, 64
1, 13690, Note_on_c, 0, 79, 18
1, 13691, Note_on_c, 0, 81, 15
1, 13691, Note_off_c, 0, 89, 64
1, 13692, Note_off_c, 0, 76, 64
1, 13692, Note_off_c, 0, 82, 64
1, 13693, Note_off_c, 0, 80, 64
1, 13693, Note_on_c, 0, 82, 25
1, 13693, Note_on_c, 0, 83, 32
1, 13693, Note_on_c, 0, 87, 28
1, 13694, Note_off_c, 0, 74, 64
1, 13694, Note_off_c, 0, 79, 64
1, 13694, Note_off_c, 0, 81, 64
1, 13695, Note_off_c, 0, 66, 64
1, 13695, Note_off_c, 0, 72, 64
1, 13695, Note_on_c, 0, 73, 45
1, 13695, Note_on_c, 0, 88, 21
1, 13696, Note_off_c, 0, 78, 64
1, 13696, Note_on_c, 0, 80, 28
1, 13697, Note_off_c, 0, 83, 64
1, 13697, Note_on_c, 0, 84, 23
1, 13698, Note_off_c, 0, 55, 64
1, 13698, Note_on_c, 0, 70, 16
1, 13698, Note_on_c, 0, 75, 43
1, 13698, Note_off_c, 0, 88, 64
1, 13699, Note_on_c, 0, 78, 25
1, 13699, Note_on_c, 0, 89, 15
1, 13700, Note_on_c, 0, 66, 49
1, 13700, Note_off_c, 0, 84, 64
1, 13700, Note_on_c, 0, 86, 21
1, 13700, Note_off_c, 0, 87, 64
1, 13700, Note_on_c, 0, 88, 16
1, 13700, Note_on_c, 0, 91, 14
1, 13702, Note_on_c, 0, 51, 21
1, 13702, Note_on_c, 0, 83, 29
1, 13703, Note_off_c, 0, 86, 64
1, 13704, Note_off_c, 0, 70, 64
1, 13704, Note_off_c, 0, 88, 64
1, 13704, Note_off_c, 0, 91, 64
1, 13705, Note_on_c, 0, 44, 38
1, 13705, Note_off_c, 0, 51, 64
1, 13705, Note_on_c, 0, 72, 36
1, 13705, Note_off_c, 0, 73, 64
1, 13705, Note_off_c, 0, 75, 64
1, 13705, Note_on_c, 0, 77, 28
1, 13705, Note_off_c, 0, 80, 64
1, 13705, Note_on_c, 0, 86, 22
1, 13706, Note_off_c, 0, 66, 64
1, 13706, Note_on_c, 0, 67, 34
1, 13706, Note_off_c, 0, 83, 64
1, 13707, Note_off_c, 0, 44, 64
1, 13707, Note_off_c, 0, 78, 64
1, 13707, Note_off_c, 0, 89, 64
1, 13707, Note_on_c, 0, 92, 16
1, 13708, Note_off_c, 0, 77, 64
1, 13708, Note_on_c, 0, 83, 35
1, 13708, Note_on_c, 0, 88, 13
1, 13709, Note_off_c, 0, 72, 64
1, 13709, Note_on_c, 0, 73, 43
1, 13709, Note_on_c, 0, 77, 34
1, 13709, Note_on_c, 0, 80, 30
1, 13709, Note_off_c, 0, 82, 64
1, 13710, Note_on_c, 0, 78, 34
1, 13710, Note_on_c, 0, 82, 32
1, 13711, Note_on_c, 0, 35, 35
1, 13711, Note_on_c, 0, 81, 25
1, 13711, Note_off_c, 0, 88, 64
1, 13711, Note_off_c, 0, 92, 64
1, 13712, Note_off_c, 0, 67, 64
1, 13712, Note_off_c, 0, 73, 64
1, 13712, Note_on_c, 0, 74, 31
1, 13712, Note_on_c, 0, 79, 30
1, 13712, Note_off_c, 0, 80, 64
1, 13712, Note_off_c, 0, 83, 64
1, 13713, Note_off_c, 0, 35, 64
1, 13713, Note_on_c, 0, 56, 37
1, 13713, Note_off_c, 0, 77, 64
1, 13713, Note_on_c, 0, 84, 35
1, 13714, Note_on_c, 0, 69, 29
1, 13714, Note_off_c, 0, 74, 64
1, 13714, Note_on_c, 0, 75, 45
1, 13714, Note_off_c, 0, 81, 64
1, 13714, Note_off_c, 0, 86, 64
1, 13715, Note_on_c, 0, 31, 31
1, 13715, Note_on_c, 0, 72, 46
1, 13716, Note_on_c, 0, 77, 23
1, 13716, Note_off_c, 0, 79, 64
1, 13716, Note_on_c, 0, 83, 26
1, 13716, Note_off_c, 0, 84, 64
1, 13717, Note_off_c, 0, 31, 64
1, 13717, Note_on_c, 0, 67, 36
1, 13717, Note_off_c, 0, 69, 64
1, 13717, Note_off_c, 0, 78, 64
1, 13717, Note_off_c, 0, 82, 64
1, 13718, Note_off_c, 0, 72, 64
1, 13718, Note_on_c, 0, 90, 21
1, 13719, Note_off_c, 0, 56, 64
1, 13719, Note_on_c, 0, 57, 50
1, 13719, Note_off_c, 0, 67, 64
1, 13719, Note_on_c, 0, 78, 27
1, 13719, Note_on_c, 0, 80, 38
1, 13720, Note_on_c, 0, 71, 31
1, 13720, Note_off_c, 0, 77, 64
1, 13722, Note_off_c, 0, 78, 64
1, 13722, Note_on_c, 0, 81, 30
1, 13724, Note_on_c, 0, 56, 50
1, 13724, Note_off_c, 0, 57, 64
1, 13724, Note_on_c, 0, 69, 30
1, 13724, Note_on_c, 0, 78, 23
1, 13724, Note_off_c, 0, 81, 64
1, 13725, Note_off_c, 0, 71, 64
1, 13725, Note_off_c, 0, 80, 64
1, 13726, Note_on_c, 0, 66, 30
1, 13726, Note_on_c, 0, 80, 24
1, 13727, Note_off_c, 0, 69, 64
1, 13727, Note_on_c, 0, 70, 31
1, 13727, Note_on_c, 0, 85, 13
1, 13727, Note_off_c, 0, 90, 64
1, 13727, Note_on_c, 0, 93, 9
1, 13728, Note_off_c, 0, 66, 64
1, 13728, Note_on_c, 0, 73, 35
1, 13728, Note_on_c, 0, 76, 29
1, 13728, Note_on_c, 0, 81, 20
1, 13728, Note_off_c, 0, 83, 64
1, 13729, Note_off_c, 0, 56, 64
1, 13729, Note_off_c, 0, 78, 64
1, 13729, Note_off_c, 0, 80, 64
1, 13730, Note_on_c, 0, 56, 49
1, 13730, Note_off_c, 0, 73, 64
1, 13730, Note_on_c, 0, 74, 37
1, 13730, Note_off_c, 0, 75, 64
1, 13730, Note_off_c, 0, 76, 64
1, 13730, Note_on_c, 0, 77, 35
1, 13730, Note_on_c, 0, 90, 26
1, 13730, Note_off_c, 0, 93, 64
1, 13731, Note_on_c, 0, 67, 26
1, 13731, Note_off_c, 0, 70, 64
1, 13731, Note_on_c, 0, 75, 33
1, 13731, Note_off_c, 0, 81, 64
1, 13731, Note_on_c, 0, 83, 20
1, 13732, Note_on_c, 0, 72, 18
1, 13732, Note_off_c, 0, 74, 64
1, 13732, Note_off_c, 0, 85, 64
1, 13733, Note_on_c, 0, 76, 19
1, 13733, Note_off_c, 0, 77, 64
1, 13733, Note_on_c, 0, 88, 25
1, 13733, Note_on_c, 0, 94, 20
1, 13734, Note_off_c, 0, 67, 64
1, 13734, Note_off_c, 0, 75, 64
1, 13734, Note_on_c, 0, 82, 16
1, 13735, Note_off_c, 0, 72, 64
1, 13735, Note_off_c, 0, 83, 64
1, 13735, Note_on_c, 0, 86, 22
1, 13736, Note_on_c, 0, 64, 20
1, 13736, Note_on_c, 0, 73, 42
1, 13736, Note_on_c, 0, 75, 30
1, 13736, Note_off_c, 0, 76, 64
1, 13736, Note_on_c, 0, 83, 20
1, 13737, Note_off_c, 0, 56, 64
1, 13737, Note_on_c, 0, 57, 41
1, 13737, Note_on_c, 0, 76, 42
1, 13737, Note_on_c, 0, 81, 31
1, 13737, Note_off_c, 0, 82, 64
1, 13737, Note_off_c, 0, 88, 64
1, 13737, Note_on_c, 0, 95, 26
1, 13738, Note_on_c, 0, 67, 24
1, 13738, Note_on_c, 0, 72, 38
1, 13738, Note_off_c, 0, 73, 64
1, 13738, Note_off_c, 0, 75, 64
1, 13738, Note_on_c, 0, 92, 31
1, 13739, Note_on_c, 0, 70, 27
1, 13739, Note_on_c, 0, 75, 45
1, 13739, Note_off_c, 0, 76, 64
1, 13739, Note_off_c, 0, 83, 64
1, 13739, Note_on_c, 0, 88, 21
1, 13740, Note_on_c, 0, 56, 45
1, 13740, Note_off_c, 0, 57, 64
1, 13740, Note_off_c, 0, 64, 64
1, 13740, Note_on_c, 0, 78, 29
1, 13740, Note_on_c, 0, 80, 34
1, 13741, Note_off_c, 0, 67, 64
1, 13741, Note_off_c, 0, 72, 64
1, 13741, Note_off_c, 0, 81, 64
1, 13741, Note_on_c, 0, 85, 31
1, 13741, Note_off_c, 0, 86, 64
1, 13741, Note_on_c, 0, 89, 15
1, 13741, Note_on_c, 0, 93, 29
1, 13742, Note_on_c, 0, 69, 19
1, 13742, Note_off_c, 0, 70, 64
1, 13743, Note_on_c, 0, 65, 31
1, 13743, Note_off_c, 0, 88, 64
1, 13744, Note_off_c, 0, 56, 64
1, 13744, Note_on_c, 0, 57, 57
1, 13744, Note_on_c, 0, 73, 26
1, 13744, Note_off_c, 0, 95, 64
1, 13745, Note_off_c, 0, 65, 64
1, 13745, Note_off_c, 0, 75, 64
1, 13745, Note_on_c, 0, 76, 57
1, 13745, Note_off_c, 0, 80, 64
1, 13745, Note_on_c, 0, 81, 29
1, 13746, Note_off_c, 0, 69, 64
1, 13746, Note_off_c, 0, 89, 64
1, 13747, Note_off_c, 0, 85, 64
1, 13747, Note_on_c, 0, 87, 29
1, 13747, Note_on_c, 0, 89, 11
1, 13747, Note_off_c, 0, 92, 64
1, 13747, Note_off_c, 0, 94, 64
1, 13747, Note_on_c, 0, 95, 17
1, 13748, Note_on_c, 0, 72, 27
1, 13748, Note_off_c, 0, 73, 64
1, 13748, Note_on_c, 0, 80, 26
1, 13748, Note_on_c, 0, 85, 38
1, 13749, Note_on_c, 0, 56, 56
1, 13749, Note_off_c, 0, 57, 64
1, 13749, Note_off_c, 0, 93, 64
1, 13750, Note_on_c, 0, 66, 29
1, 13750, Note_on_c, 0, 91, 16
1, 13750, Note_off_c, 0, 95, 64
1, 13751, Note_off_c, 0, 56, 64
1, 13751, Note_on_c, 0, 57, 35
1, 13751, Note_on_c, 0, 67, 29
1, 13751, Note_off_c, 0, 81, 64
1, 13751, Note_off_c, 0, 89, 64
1, 13752, Note_off_c, 0, 66, 64
1, 13752, Note_on_c, 0, 81, 19
1, 13753, Note_off_c, 0, 57, 64
1, 13753, Note_on_c, 0, 60, 15
1, 13753, Note_on_c, 0, 66, 33
1, 13753, Note_off_c, 0, 67, 64
1, 13753, Note_off_c, 0, 72, 64
1, 13753, Note_off_c, 0, 76, 64
1, 13753, Note_on_c, 0, 79, 20
1, 13753, Note_off_c, 0, 91, 64
1, 13754, Note_on_c, 0, 72, 21
1, 13754, Note_on_c, 0, 74, 26
1, 13754, Note_off_c, 0, 80, 64
1, 13754, Note_on_c, 0, 84, 28
1, 13754, Note_off_c, 0, 90, 64
1, 13755, Note_off_c, 0, 87, 64
1, 13755, Note_on_c, 0, 89, 16
1, 13756, Note_off_c, 0, 60, 64
1, 13756, Note_off_c, 0, 66, 64
1, 13756, Note_on_c, 0, 67, 31
1, 13756, Note_off_c, 0, 79, 64
1, 13757, Note_off_c, 0, 72, 64
1, 13757, Note_off_c, 0, 74, 64
1, 13757, Note_on_c, 0, 76, 24
1, 13757, Note_on_c, 0, 80, 27
1, 13757, Note_off_c, 0, 81, 64
1, 13757, Note_on_c, 0, 82, 25
1, 13757, Note_on_c, 0, 83, 18
1, 13757, Note_off_c, 0, 84, 64
1, 13758, Note_on_c, 0, 66, 31
1, 13758, Note_off_c, 0, 67, 64
1, 13758, Note_on_c, 0, 74, 31
1, 13759, Note_on_c, 0, 70, 13
1, 13759, Note_on_c, 0, 87, 19
1, 13759, Note_off_c, 0, 89, 64
1, 13760, Note_on_c, 0, 65, 22
1, 13760, Note_off_c, 0, 66, 64
1, 13760, Note_off_c, 0, 78, 64
1, 13760, Note_off_c, 0, 83, 64
1, 13760, Note_on_c, 0, 84, 18
1, 13760, Note_off_c, 0, 85, 64
1, 13761, Note_on_c, 0, 57, 24
1, 13762, Note_on_c, 0, 73, 32
1, 13762, Note_off_c, 0, 74, 64
1, 13762, Note_on_c, 0, 79, 20
1, 13762, Note_off_c, 0, 80, 64
1, 13762, Note_on_c, 0, 81, 15
1, 13762, Note_on_c, 0, 86, 16
1, 13762, Note_off_c, 0, 87, 64
1, 13763, Note_on_c, 0, 75, 28
1, 13763, Note_off_c, 0, 76, 64
1, 13764, Note_off_c, 0, 57, 64
1, 13764, Note_on_c, 0, 64, 15
1, 13764, Note_off_c, 0, 65, 64
1, 13764, Note_off_c, 0, 70, 64
1, 13764, Note_on_c, 0, 80, 18
1, 13764, Note_on_c, 0, 83, 24
1, 13764, Note_off_c, 0, 84, 64
1, 13765, Note_off_c, 0, 81, 64
1, 13765, Note_on_c, 0, 85, 32
1, 13766, Note_on_c, 0, 71, 11
1, 13766, Note_off_c, 0, 86, 64
1, 13767, Note_off_c, 0, 75, 64
1, 13767, Note_off_c, 0, 79, 64
1, 13767, Note_off_c, 0, 82, 64
1, 13768, Note_off_c, 0, 64, 64
1, 13768, Note_on_c, 0, 77, 19
1, 13769, Note_on_c, 0, 62, 14
1, 13769, Note_on_c, 0, 70, 24
1, 13769, Note_off_c, 0, 71, 64
1, 13769, Note_on_c, 0, 75, 25
1, 13769, Note_on_c, 0, 79, 17
1, 13769, Note_off_c, 0, 80, 64
1, 13770, Note_on_c, 0, 32, 42
1, 13770, Note_off_c, 0, 83, 64
1, 13771, Note_off_c, 0, 73, 64
1, 13771, Note_off_c, 0, 77, 64
1, 13772, Note_on_c, 0, 31, 39
1, 13772, Note_off_c, 0, 32, 64
1, 13772, Note_on_c, 0, 67, 24
1, 13772, Note_off_c, 0, 79, 64
1, 13773, Note_on_c, 0, 61, 16
1, 13773, Note_off_c, 0, 62, 64
1, 13773, Note_on_c, 0, 76, 31
1, 13773, Note_on_c, 0, 84, 26
1, 13774, Note_on_c, 0, 30, 29
1, 13774, Note_off_c, 0, 31, 64
1, 13774, Note_off_c, 0, 70, 64
1, 13774, Note_on_c, 0, 74, 38
1, 13774, Note_off_c, 0, 75, 64
1, 13774, Note_on_c, 0, 83, 24
1, 13774, Note_off_c, 0, 85, 64
1, 13775, Note_off_c, 0, 67, 64
1, 13775, Note_on_c, 0, 68, 20
1, 13775, Note_on_c, 0, 81, 21
1, 13775, Note_on_c, 0, 90, 21
1, 13776, Note_off_c, 0, 30, 64
1, 13776, Note_on_c, 0, 57, 24
1, 13776, Note_off_c, 0, 61, 64
1, 13776, Note_on_c, 0, 65, 30
1, 13776, Note_on_c, 0, 73, 31
1, 13776, Note_off_c, 0, 74, 64
1, 13776, Note_on_c, 0, 78, 27
1, 13776, Note_on_c, 0, 87, 32
1, 13777, Note_on_c, 0, 94, 13
1, 13778, Note_off_c, 0, 65, 64
1, 13778, Note_off_c, 0, 68, 64
1, 13778, Note_off_c, 0, 73, 64
1, 13778, Note_on_c, 0, 74, 25
1, 13778, Note_off_c, 0, 76, 64
1, 13778, Note_on_c, 0, 89, 19
1, 13778, Note_on_c, 0, 92, 19
1, 13779, Note_off_c, 0, 57, 64
1, 13779, Note_on_c, 0, 67, 32
1, 13779, Note_on_c, 0, 77, 26
1, 13779, Note_off_c, 0, 78, 64
1, 13779, Note_off_c, 0, 81, 64
1, 13780, Note_on_c, 0, 70, 29
1, 13780, Note_on_c, 0, 72, 37
1, 13780, Note_on_c, 0, 78, 31
1, 13780, Note_on_c, 0, 80, 29
1, 13780, Note_on_c, 0, 82, 31
1, 13780, Note_off_c, 0, 83, 64
1, 13780, Note_on_c, 0, 88, 18
1, 13781, Note_off_c, 0, 67, 64
1, 13781, Note_on_c, 0, 85, 25
1, 13781, Note_on_c, 0, 91, 20
1, 13782, Note_off_c, 0, 70, 64
1, 13782, Note_off_c, 0, 82, 64
1, 13782, Note_off_c, 0, 89, 64
1, 13782, Note_off_c, 0, 92, 64
1, 13783, Note_on_c, 0, 58, 21
1, 13783, Note_on_c, 0, 64, 21
1, 13783, Note_off_c, 0, 77, 64
1, 13783, Note_off_c, 0, 88, 64
1, 13784, Note_on_c, 0, 82, 18
1, 13784, Note_off_c, 0, 84, 64
1, 13785, Note_on_c, 0, 71, 22
1, 13785, Note_off_c, 0, 72, 64
1, 13785, Note_on_c, 0, 73, 31
1, 13785, Note_off_c, 0, 74, 64
1, 13785, Note_on_c, 0, 75, 35
1, 13786, Note_on_c, 0, 81, 31
1, 13786, Note_off_c, 0, 94, 64
1, 13787, Note_off_c, 0, 64, 64
1, 13787, Note_off_c, 0, 73, 64
1, 13787, Note_on_c, 0, 79, 23
1, 13787, Note_off_c, 0, 80, 64
1, 13787, Note_off_c, 0, 90, 64
1, 13788, Note_off_c, 0, 58, 64
1, 13788, Note_on_c, 0, 69, 34
1, 13788, Note_off_c, 0, 71, 64
1, 13788, Note_on_c, 0, 73, 30
1, 13788, Note_off_c, 0, 87, 64
1, 13788, Note_on_c, 0, 88, 14
1, 13788, Note_off_c, 0, 91, 64
1, 13789, Note_on_c, 0, 32, 45
1, 13789, Note_on_c, 0, 50, 11
1, 13789, Note_on_c, 0, 61, 12
1, 13789, Note_on_c, 0, 74, 37
1, 13789, Note_off_c, 0, 75, 64
1, 13789, Note_on_c, 0, 76, 28
1, 13789, Note_off_c, 0, 82, 64
1, 13789, Note_on_c, 0, 87, 18
1, 13790, Note_off_c, 0, 69, 64
1, 13790, Note_on_c, 0, 71, 28
1, 13790, Note_off_c, 0, 73, 64
1, 13790, Note_on_c, 0, 84, 14
1, 13791, Note_on_c, 0, 31, 44
1, 13791, Note_off_c, 0, 32, 64
1, 13791, Note_on_c, 0, 57, 16
1, 13791, Note_off_c, 0, 79, 64
1, 13791, Note_off_c, 0, 88, 64
1, 13792, Note_off_c, 0, 61, 64
1, 13792, Note_off_c, 0, 76, 64
1, 13792, Note_on_c, 0, 77, 29
1, 13792, Note_off_c, 0, 78, 64
1, 13793, Note_on_c, 0, 30, 32
1, 13793, Note_off_c, 0, 31, 64
1, 13793, Note_off_c, 0, 50, 64
1, 13793, Note_off_c, 0, 71, 64
1, 13793, Note_off_c, 0, 74, 64
1, 13793, Note_on_c, 0, 78, 29
1, 13793, Note_on_c, 0, 86, 20
1, 13793, Note_off_c, 0, 87, 64
1, 13794, Note_off_c, 0, 57, 64
1, 13794, Note_off_c, 0, 77, 64
1, 13794, Note_on_c, 0, 80, 28
1, 13794, Note_off_c, 0, 85, 64
1, 13795, Note_off_c, 0, 30, 64
1, 13795, Note_off_c, 0, 84, 64
1, 13796, Note_on_c, 0, 73, 41
1, 13796, Note_on_c, 0, 87, 19
1, 13797, Note_on_c, 0, 67, 36
1, 13797, Note_on_c, 0, 84, 25
1, 13797, Note_on_c, 0, 89, 19
1, 13798, Note_on_c, 0, 72, 31
1, 13798, Note_off_c, 0, 73, 64
1, 13798, Note_on_c, 0, 75, 33
1, 13798, Note_on_c, 0, 82, 32
1, 13798, Note_on_c, 0, 85, 11
1, 13799, Note_on_c, 0, 56, 29
1, 13799, Note_off_c, 0, 67, 64
1, 13799, Note_off_c, 0, 81, 64
1, 13799, Note_off_c, 0, 86, 64
1, 13800, Note_on_c, 0, 67, 38
1, 13800, Note_on_c, 0, 77, 15
1, 13800, Note_off_c, 0, 78, 64
1, 13800, Note_off_c, 0, 80, 64
1, 13800, Note_off_c, 0, 87, 64
1, 13801, Note_off_c, 0, 72, 64
1, 13801, Note_on_c, 0, 78, 29
1, 13801, Note_on_c, 0, 80, 28
1, 13801, Note_on_c, 0, 83, 22
1, 13801, Note_off_c, 0, 85, 64
1, 13802, Note_on_c, 0, 72, 38
1, 13802, Note_off_c, 0, 89, 64
1, 13803, Note_off_c, 0, 67, 64
1, 13803, Note_on_c, 0, 76, 35
1, 13803, Note_off_c, 0, 77, 64
1, 13804, Note_on_c, 0, 66, 39
1, 13804, Note_off_c, 0, 75, 64
1, 13804, Note_off_c, 0, 82, 64
1, 13804, Note_on_c, 0, 87, 27
1, 13805, Note_on_c, 0, 68, 31
1, 13805, Note_on_c, 0, 73, 46
1, 13805, Note_off_c, 0, 76, 64
1, 13805, Note_off_c, 0, 78, 64
1, 13805, Note_on_c, 0, 82, 32
1, 13805, Note_off_c, 0, 83, 64
1, 13806, Note_off_c, 0, 56, 64
1, 13808, Note_off_c, 0, 66, 64
1, 13808, Note_off_c, 0, 72, 64
1, 13808, Note_off_c, 0, 84, 64
1, 13808, Note_on_c, 0, 88, 24
1, 13809, Note_on_c, 0, 67, 31
1, 13809, Note_off_c, 0, 68, 64
1, 13810, Note_on_c, 0, 68, 40
1, 13810, Note_off_c, 0, 80, 64
1, 13810, Note_on_c, 0, 84, 22
1, 13810, Note_on_c, 0, 86, 30
1, 13811, Note_on_c, 0, 56, 20
1, 13811, Note_off_c, 0, 67, 64
1, 13811, Note_on_c, 0, 83, 27
1, 13811, Note_off_c, 0, 88, 64
1, 13812, Note_on_c, 0, 67, 43
1, 13812, Note_off_c, 0, 68, 64
1, 13812, Note_on_c, 0, 81, 23
1, 13812, Note_off_c, 0, 82, 64
1, 13812, Note_off_c, 0, 87, 64
1, 13813, Note_on_c, 0, 74, 38
1, 13813, Note_on_c, 0, 77, 18
1, 13814, Note_off_c, 0, 56, 64
1, 13814, Note_on_c, 0, 66, 29
1, 13814, Note_off_c, 0, 67, 64
1, 13814, Note_on_c, 0, 72, 30
1, 13814, Note_off_c, 0, 73, 64
1, 13814, Note_on_c, 0, 82, 36
1, 13814, Note_on_c, 0, 87, 20
1, 13815, Note_off_c, 0, 83, 64
1, 13816, Note_off_c, 0, 66, 64
1, 13816, Note_off_c, 0, 72, 64
1, 13816, Note_off_c, 0, 77, 64
1, 13816, Note_off_c, 0, 84, 64
1, 13816, Note_on_c, 0, 88, 18
1, 13817, Note_on_c, 0, 66, 33
1, 13817, Note_on_c, 0, 73, 42
1, 13817, Note_on_c, 0, 89, 17
1, 13818, Note_off_c, 0, 74, 64
1, 13818, Note_off_c, 0, 81, 64
1, 13818, Note_on_c, 0, 102, 19
1, 13819, Note_on_c, 0, 55, 26
1, 13819, Note_off_c, 0, 66, 64
1, 13819, Note_on_c, 0, 67, 33
1, 13819, Note_on_c, 0, 77, 17
1, 13819, Note_on_c, 0, 80, 25
1, 13819, Note_on_c, 0, 83, 45
1, 13819, Note_off_c, 0, 87, 64
1, 13819, Note_off_c, 0, 88, 64
1, 13819, Note_on_c, 0, 90, 20
1, 13819, Note_on_c, 0, 100, 12
1, 13820, Note_on_c, 0, 72, 32
1, 13820, Note_on_c, 0, 76, 27
1, 13820, Note_off_c, 0, 89, 64
1, 13820, Note_on_c, 0, 99, 14
1, 13821, Note_off_c, 0, 82, 64
1, 13822, Note_on_c, 0, 66, 26
1, 13822, Note_off_c, 0, 67, 64
1, 13822, Note_off_c, 0, 77, 64
1, 13822, Note_on_c, 0, 78, 36
1, 13822, Note_on_c, 0, 82, 30
1, 13823, Note_off_c, 0, 72, 64
1, 13823, Note_off_c, 0, 76, 64
1, 13823, Note_off_c, 0, 80, 64
1, 13824, Note_on_c, 0, 72, 34
1, 13824, Note_off_c, 0, 73, 64
1, 13824, Note_on_c, 0, 77, 31
1, 13824, Note_off_c, 0, 78, 64
1, 13824, Note_off_c, 0, 99, 64
1, 13825, Note_off_c, 0, 55, 64
1, 13825, Note_on_c, 0, 78, 36
1, 13825, Note_on_c, 0, 87, 32
1, 13826, Note_on_c, 0, 55, 28
1, 13826, Note_off_c, 0, 72, 64
1, 13826, Note_on_c, 0, 73, 51
1, 13826, Note_on_c, 0, 76, 37
1, 13826, Note_off_c, 0, 77, 64
1, 13826, Note_off_c, 0, 82, 64
1, 13827, Note_on_c, 0, 69, 21
1, 13827, Note_off_c, 0, 78, 64
1, 13827, Note_on_c, 0, 79, 40
1, 13827, Note_on_c, 0, 80, 18
1, 13827, Note_off_c, 0, 90, 64
1, 13827, Note_on_c, 0, 101, 11
1, 13828, Note_on_c, 0, 81, 26
1, 13828, Note_off_c, 0, 86, 64
1, 13828, Note_on_c, 0, 89, 12
1, 13828, Note_off_c, 0, 102, 64
1, 13829, Note_off_c, 0, 73, 64
1, 13829, Note_on_c, 0, 74, 50
1, 13829, Note_on_c, 0, 82, 29
1, 13830, Note_off_c, 0, 55, 64
1, 13830, Note_off_c, 0, 66, 64
1, 13830, Note_off_c, 0, 69, 64
1, 13830, Note_off_c, 0, 83, 64
1, 13830, Note_off_c, 0, 87, 64
1, 13830, Note_off_c, 0, 101, 64
1, 13831, Note_on_c, 0, 53, 35
1, 13831, Note_off_c, 0, 74, 64
1, 13831, Note_off_c, 0, 81, 64
1, 13832, Note_on_c, 0, 62, 20
1, 13832, Note_on_c, 0, 67, 20
1, 13832, Note_off_c, 0, 80, 64
1, 13832, Note_on_c, 0, 84, 15
1, 13832, Note_off_c, 0, 89, 64
1, 13832, Note_off_c, 0, 100, 64
1, 13833, Note_on_c, 0, 71, 34
1, 13833, Note_off_c, 0, 76, 64
1, 13833, Note_on_c, 0, 86, 21
1, 13833, Note_on_c, 0, 87, 37
1, 13834, Note_on_c, 0, 73, 41
1, 13834, Note_on_c, 0, 78, 42
1, 13834, Note_off_c, 0, 79, 64
1, 13834, Note_on_c, 0, 81, 21
1, 13835, Note_off_c, 0, 67, 64
1, 13835, Note_on_c, 0, 68, 29
1, 13835, Note_off_c, 0, 84, 64
1, 13836, Note_off_c, 0, 62, 64
1, 13836, Note_off_c, 0, 78, 64
1, 13836, Note_on_c, 0, 83, 35
1, 13836, Note_off_c, 0, 86, 64
1, 13836, Note_on_c, 0, 88, 34
1, 13836, Note_on_c, 0, 92, 17
1, 13837, Note_off_c, 0, 53, 64
1, 13837, Note_off_c, 0, 68, 64
1, 13837, Note_on_c, 0, 78, 37
1, 13837, Note_off_c, 0, 81, 64
1, 13839, Note_on_c, 0, 84, 37
1, 13840, Note_on_c, 0, 66, 24
1, 13840, Note_off_c, 0, 71, 64
1, 13840, Note_off_c, 0, 73, 64
1, 13840, Note_on_c, 0, 74, 46
1, 13840, Note_on_c, 0, 76, 31
1, 13840, Note_on_c, 0, 91, 20
1, 13841, Note_on_c, 0, 85, 30
1, 13841, Note_off_c, 0, 87, 64
1, 13842, Note_off_c, 0, 82, 64
1, 13842, Note_on_c, 0, 87, 34
1, 13842, Note_on_c, 0, 89, 31
1, 13843, Note_off_c, 0, 76, 64
1, 13843, Note_on_c, 0, 80, 40
1, 13843, Note_on_c, 0, 82, 45
1, 13843, Note_off_c, 0, 83, 64
1, 13843, Note_off_c, 0, 88, 64
1, 13844, Note_off_c, 0, 78, 64
1, 13844, Note_on_c, 0, 79, 41
1, 13844, Note_on_c, 0, 83, 43
1, 13844, Note_off_c, 0, 84, 64
1, 13844, Note_off_c, 0, 87, 64
1, 13844, Note_on_c, 0, 88, 38
1, 13845, Note_off_c, 0, 80, 64
1, 13845, Note_off_c, 0, 91, 64
1, 13846, Note_off_c, 0, 66, 64
1, 13846, Note_on_c, 0, 67, 33
1, 13846, Note_on_c, 0, 78, 42
1, 13846, Note_on_c, 0, 84, 26
1, 13847, Note_off_c, 0, 79, 64
1, 13847, Note_off_c, 0, 83, 64
1, 13848, Note_on_c, 0, 53, 19
1, 13848, Note_on_c, 0, 72, 37
1, 13848, Note_on_c, 0, 81, 45
1, 13848, Note_off_c, 0, 85, 64
1, 13848, Note_on_c, 0, 91, 20
1, 13848, Note_off_c, 0, 92, 64
1, 13849, Note_off_c, 0, 67, 64
1, 13849, Note_on_c, 0, 77, 34
1, 13849, Note_on_c, 0, 85, 33
1, 13850, Note_on_c, 0, 67, 29
1, 13850, Note_off_c, 0, 74, 64
1, 13850, Note_on_c, 0, 80, 38
1, 13850, Note_off_c, 0, 81, 64
1, 13850, Note_off_c, 0, 84, 64
1, 13850, Note_on_c, 0, 87, 27
1, 13850, Note_off_c, 0, 88, 64
1, 13851, Note_on_c, 0, 71, 35
1, 13851, Note_off_c, 0, 72, 64
1, 13852, Note_off_c, 0, 53, 64
1, 13852, Note_on_c, 0, 88, 30
1, 13852, Note_on_c, 0, 93, 22
1, 13853, Note_on_c, 0, 50, 33
1, 13853, Note_on_c, 0, 66, 45
1, 13853, Note_off_c, 0, 67, 64
1, 13853, Note_off_c, 0, 71, 64
1, 13853, Note_on_c, 0, 76, 45
1, 13853, Note_off_c, 0, 80, 64
1, 13853, Note_on_c, 0, 81, 35
1, 13853, Note_on_c, 0, 84, 39
1, 13853, Note_off_c, 0, 85, 64
1, 13853, Note_on_c, 0, 86, 33
1, 13853, Note_off_c, 0, 87, 64
1, 13853, Note_off_c, 0, 91, 64
1, 13853, Note_on_c, 0, 95, 22
1, 13854, Note_on_c, 0, 72, 47
1, 13854, Note_on_c, 0, 74, 48
1, 13854, Note_on_c, 0, 91, 13
1, 13855, Note_off_c, 0, 50, 64
1, 13855, Note_on_c, 0, 80, 37
1, 13855, Note_off_c, 0, 82, 64
1, 13855, Note_on_c, 0, 83, 32
1, 13855, Note_on_c, 0, 87, 35
1, 13855, Note_off_c, 0, 88, 64
1, 13856, Note_off_c, 0, 78, 64
1, 13856, Note_on_c, 0, 79, 31
1, 13856, Note_off_c, 0, 81, 64
1, 13856, Note_on_c, 0, 82, 28
1, 13857, Note_off_c, 0, 77, 64
1, 13857, Note_off_c, 0, 80, 64
1, 13857, Note_on_c, 0, 81, 34
1, 13857, Note_off_c, 0, 83, 64
1, 13857, Note_off_c, 0, 91, 64
1, 13858, Note_on_c, 0, 85, 37
1, 13858, Note_off_c, 0, 86, 64
1, 13859, Note_off_c, 0, 72, 64
1, 13859, Note_on_c, 0, 73, 45
1, 13859, Note_off_c, 0, 74, 64
1, 13859, Note_on_c, 0, 77, 34
1, 13859, Note_off_c, 0, 81, 64
1, 13859, Note_on_c, 0, 86, 31
1, 13860, Note_on_c, 0, 70, 36
1, 13860, Note_off_c, 0, 79, 64
1, 13860, Note_on_c, 0, 83, 28
1, 13860, Note_off_c, 0, 84, 64
1, 13861, Note_off_c, 0, 66, 64
1, 13861, Note_on_c, 0, 67, 20
1, 13861, Note_on_c, 0, 74, 37
1, 13861, Note_off_c, 0, 76, 64
1, 13861, Note_on_c, 0, 81, 28
1, 13861, Note_on_c, 0, 84, 34
1, 13861, Note_off_c, 0, 85, 64
1, 13861, Note_on_c, 0, 90, 32
1, 13862, Note_off_c, 0, 73, 64
1, 13862, Note_on_c, 0, 76, 37
1, 13862, Note_off_c, 0, 77, 64
1, 13862, Note_on_c, 0, 78, 40
1, 13862, Note_off_c, 0, 93, 64
1, 13863, Note_on_c, 0, 55, 23
1, 13863, Note_off_c, 0, 70, 64
1, 13863, Note_off_c, 0, 82, 64
1, 13864, Note_off_c, 0, 67, 64
1, 13864, Note_on_c, 0, 72, 57
1, 13864, Note_off_c, 0, 81, 64
1, 13864, Note_on_c, 0, 82, 38
1, 13864, Note_off_c, 0, 83, 64
1, 13864, Note_off_c, 0, 89, 64
1, 13865, Note_on_c, 0, 31, 54
1, 13865, Note_on_c, 0, 66, 38
1, 13865, Note_off_c, 0, 76, 64
1, 13865, Note_on_c, 0, 79, 24
1, 13865, Note_on_c, 0, 89, 19
1, 13865, Note_on_c, 0, 93, 20
1, 13866, Note_on_c, 0, 71, 58
1, 13866, Note_off_c, 0, 72, 64
1, 13866, Note_off_c, 0, 74, 64
1, 13866, Note_on_c, 0, 75, 28
1, 13867, Note_off_c, 0, 55, 64
1, 13867, Note_on_c, 0, 73, 38
1, 13867, Note_on_c, 0, 88, 31
1, 13867, Note_off_c, 0, 95, 64
1, 13867, Note_on_c, 0, 97, 10
1, 13868, Note_off_c, 0, 66, 64
1, 13868, Note_on_c, 0, 67, 42
1, 13868, Note_off_c, 0, 71, 64
1, 13868, Note_off_c, 0, 79, 64
1, 13868, Note_on_c, 0, 83, 16
1, 13869, Note_on_c, 0, 63, 24
1, 13869, Note_on_c, 0, 74, 48
1, 13869, Note_off_c, 0, 75, 64
1, 13869, Note_on_c, 0, 81, 28
1, 13869, Note_off_c, 0, 84, 64
1, 13869, Note_off_c, 0, 87, 64
1, 13869, Note_off_c, 0, 93, 64
1, 13870, Note_off_c, 0, 31, 64
1, 13870, Note_on_c, 0, 66, 36
1, 13870, Note_off_c, 0, 67, 64
1, 13870, Note_off_c, 0, 73, 64
1, 13870, Note_on_c, 0, 77, 33
1, 13870, Note_on_c, 0, 80, 42
1, 13870, Note_on_c, 0, 84, 30
1, 13870, Note_off_c, 0, 89, 64
1, 13870, Note_off_c, 0, 97, 64
1, 13871, Note_on_c, 0, 71, 38
1, 13871, Note_off_c, 0, 78, 64
1, 13871, Note_off_c, 0, 82, 64
1, 13871, Note_off_c, 0, 83, 64
1, 13871, Note_on_c, 0, 87, 35
1, 13871, Note_off_c, 0, 88, 64
1, 13872, Note_off_c, 0, 63, 64
1, 13872, Note_on_c, 0, 65, 40
1, 13872, Note_off_c, 0, 66, 64
1, 13872, Note_on_c, 0, 78, 40
1, 13872, Note_on_c, 0, 82, 41
1, 13873, Note_off_c, 0, 77, 64
1, 13873, Note_on_c, 0, 85, 31
1, 13874, Note_off_c, 0, 71, 64
1, 13874, Note_on_c, 0, 73, 52
1, 13874, Note_off_c, 0, 81, 64
1, 13874, Note_on_c, 0, 88, 24
1, 13875, Note_on_c, 0, 69, 29
1, 13875, Note_off_c, 0, 82, 64
1, 13875, Note_on_c, 0, 83, 42
1, 13875, Note_off_c, 0, 85, 64
1, 13875, Note_on_c, 0, 93, 17
1, 13876, Note_on_c, 0, 51, 19
1, 13876, Note_on_c, 0, 64, 31
1, 13876, Note_off_c, 0, 65, 64
1, 13876, Note_on_c, 0, 71, 37
1, 13876, Note_off_c, 0, 74, 64
1, 13876, Note_off_c, 0, 84, 64
1, 13877, Note_on_c, 0, 68, 29
1, 13877, Note_off_c, 0, 69, 64
1, 13877, Note_on_c, 0, 84, 33
1, 13878, Note_on_c, 0, 76, 36
1, 13878, Note_off_c, 0, 86, 64
1, 13878, Note_off_c, 0, 88, 64
1, 13878, Note_on_c, 0, 91, 10
1, 13879, Note_off_c, 0, 64, 64
1, 13879, Note_off_c, 0, 71, 64
1, 13879, Note_on_c, 0, 81, 37
1, 13879, Note_off_c, 0, 83, 64
1, 13879, Note_off_c, 0, 84, 64
1, 13879, Note_off_c, 0, 87, 64
1, 13880, Note_off_c, 0, 51, 64
1, 13880, Note_on_c, 0, 66, 38
1, 13880, Note_off_c, 0, 68, 64
1, 13880, Note_on_c, 0, 82, 30
1, 13880, Note_on_c, 0, 84, 36
1, 13880, Note_on_c, 0, 89, 21
1, 13881, Note_on_c, 0, 79, 26
1, 13881, Note_on_c, 0, 86, 30
1, 13882, Note_off_c, 0, 78, 64
1, 13882, Note_off_c, 0, 80, 64
1, 13882, Note_on_c, 0, 83, 19
1, 13882, Note_off_c, 0, 91, 64
1, 13883, Note_off_c, 0, 81, 64
1, 13884, Note_off_c, 0, 76, 64
1, 13884, Note_on_c, 0, 77, 33
1, 13884, Note_on_c, 0, 81, 30
1, 13884, Note_off_c, 0, 89, 64
1, 13884, Note_on_c, 0, 92, 16
1, 13885, Note_on_c, 0, 70, 31
1, 13885, Note_on_c, 0, 76, 39
1, 13885, Note_off_c, 0, 82, 64
1, 13885, Note_off_c, 0, 83, 64
1, 13885, Note_off_c, 0, 93, 64
1, 13885, Note_on_c, 0, 95, 15
1, 13887, Note_on_c, 0, 62, 28
1, 13887, Note_off_c, 0, 66, 64
1, 13887, Note_off_c, 0, 73, 64
1, 13887, Note_on_c, 0, 75, 29
1, 13887, Note_off_c, 0, 76, 64
1, 13888, Note_off_c, 0, 70, 64
1, 13888, Note_on_c, 0, 87, 33
1, 13889, Note_on_c, 0, 70, 29
1, 13889, Note_on_c, 0, 74, 28
1, 13889, Note_off_c, 0, 75, 64
1, 13889, Note_on_c, 0, 78, 39
1, 13889, Note_off_c, 0, 84, 64
1, 13889, Note_on_c, 0, 85, 35
1, 13889, Note_off_c, 0, 95, 64
1, 13890, Note_on_c, 0, 60, 28
1, 13890, Note_off_c, 0, 62, 64
1, 13890, Note_off_c, 0, 79, 64
1, 13890, Note_off_c, 0, 86, 64
1, 13890, Note_off_c, 0, 92, 64
1, 13891, Note_off_c, 0, 70, 64
1, 13891, Note_off_c, 0, 77, 64
1, 13891, Note_on_c, 0, 83, 37
1, 13891, Note_on_c, 0, 88, 24
1, 13892, Note_on_c, 0, 72, 40
1, 13892, Note_on_c, 0, 76, 28
1, 13892, Note_on_c, 0, 79, 37
1, 13892, Note_off_c, 0, 85, 64
1, 13893, Note_off_c, 0, 60, 64
1, 13893, Note_on_c, 0, 73, 32
1, 13893, Note_off_c, 0, 74, 64
1, 13893, Note_on_c, 0, 94, 19
1, 13894, Note_off_c, 0, 79, 64
1, 13894, Note_off_c, 0, 81, 64
1, 13895, Note_off_c, 0, 72, 64
1, 13895, Note_off_c, 0, 78, 64
1, 13895, Note_on_c, 0, 80, 33
1, 13896, Note_off_c, 0, 83, 64
1, 13896, Note_on_c, 0, 89, 23
1, 13896, Note_on_c, 0, 91, 26
1, 13897, Note_on_c, 0, 71, 37
1, 13897, Note_off_c, 0, 73, 64
1, 13897, Note_on_c, 0, 74, 39
1, 13897, Note_off_c, 0, 76, 64
1, 13897, Note_on_c, 0, 77, 35
1, 13897, Note_off_c, 0, 87, 64
1, 13898, Note_on_c, 0, 78, 32
1, 13898, Note_off_c, 0, 80, 64
1, 13898, Note_on_c, 0, 81, 38
1, 13898, Note_off_c, 0, 94, 64
1, 13898, Note_on_c, 0, 97, 17
1, 13899, Note_off_c, 0, 77, 64
1, 13900, Note_on_c, 0, 70, 29
1, 13900, Note_on_c, 0, 77, 37
1, 13900, Note_on_c, 0, 80, 34
1, 13900, Note_off_c, 0, 81, 64
1, 13900, Note_on_c, 0, 85, 33
1, 13900, Note_off_c, 0, 88, 64
1, 13900, Note_off_c, 0, 90, 64
1, 13901, Note_off_c, 0, 71, 64
1, 13901, Note_off_c, 0, 78, 64
1, 13901, Note_on_c, 0, 79, 32
1, 13901, Note_on_c, 0, 88, 34
1, 13901, Note_on_c, 0, 90, 14
1, 13901, Note_on_c, 0, 94, 24
1, 13902, Note_on_c, 0, 67, 24
1, 13902, Note_off_c, 0, 97, 64
1, 13903, Note_on_c, 0, 64, 29
1, 13903, Note_on_c, 0, 72, 37
1, 13903, Note_off_c, 0, 79, 64
1, 13903, Note_on_c, 0, 81, 33
1, 13904, Note_off_c, 0, 94, 64
1, 13904, Note_on_c, 0, 96, 19
1, 13904, Note_on_c, 0, 99, 10
1, 13905, Note_on_c, 0, 79, 25
1, 13905, Note_off_c, 0, 85, 64
1, 13905, Note_on_c, 0, 97, 10
1, 13906, Note_off_c, 0, 67, 64
1, 13906, Note_on_c, 0, 69, 31
1, 13906, Note_off_c, 0, 70, 64
1, 13906, Note_off_c, 0, 80, 64
1, 13906, Note_on_c, 0, 82, 38
1, 13906, Note_on_c, 0, 85, 33
1, 13906, Note_off_c, 0, 89, 64
1, 13906, Note_off_c, 0, 90, 64
1, 13907, Note_on_c, 0, 58, 33
1, 13907, Note_off_c, 0, 64, 64
1, 13907, Note_off_c, 0, 72, 64
1, 13907, Note_on_c, 0, 76, 26
1, 13907, Note_off_c, 0, 77, 64
1, 13907, Note_on_c, 0, 78, 30
1, 13907, Note_off_c, 0, 91, 64
1, 13907, Note_off_c, 0, 96, 64
1, 13908, Note_on_c, 0, 73, 41
1, 13908, Note_off_c, 0, 74, 64
1, 13908, Note_off_c, 0, 79, 64
1, 13908, Note_on_c, 0, 83, 37
1, 13908, Note_on_c, 0, 86, 20
1, 13908, Note_off_c, 0, 99, 64
1, 13909, Note_on_c, 0, 66, 44
1, 13910, Note_off_c, 0, 69, 64
1, 13910, Note_on_c, 0, 74, 34
1, 13910, Note_off_c, 0, 76, 64
1, 13910, Note_off_c, 0, 78, 64
1, 13910, Note_off_c, 0, 82, 64
1, 13910, Note_on_c, 0, 87, 23
1, 13910, Note_on_c, 0, 90, 25
1, 13910, Note_off_c, 0, 97, 64
1, 13911, Note_off_c, 0, 58, 64
1, 13911, Note_on_c, 0, 72, 34
1, 13911, Note_off_c, 0, 73, 64
1, 13911, Note_on_c, 0, 80, 33
1, 13911, Note_off_c, 0, 81, 64
1, 13911, Note_on_c, 0, 84, 35
1, 13911, Note_off_c, 0, 85, 64
1, 13911, Note_off_c, 0, 86, 64
1, 13911, Note_off_c, 0, 88, 64
1, 13912, Note_on_c, 0, 79, 32
1, 13912, Note_on_c, 0, 85, 26
1, 13912, Note_on_c, 0, 93, 12
1, 13913, Note_on_c, 0, 70, 40
1, 13913, Note_on_c, 0, 76, 36
1, 13913, Note_off_c, 0, 80, 64
1, 13913, Note_off_c, 0, 83, 64
1, 13914, Note_on_c, 0, 77, 39
1, 13915, Note_off_c, 0, 70, 64
1, 13915, Note_on_c, 0, 71, 35
1, 13915, Note_off_c, 0, 72, 64
1, 13915, Note_on_c, 0, 73, 38
1, 13915, Note_off_c, 0, 74, 64
1, 13915, Note_on_c, 0, 86, 18
1, 13916, Note_on_c, 0, 63, 26
1, 13916, Note_off_c, 0, 79, 64
1, 13917, Note_off_c, 0, 77, 64
1, 13917, Note_on_c, 0, 80, 26
1, 13917, Note_off_c, 0, 93, 64
1, 13918, Note_on_c, 0, 33, 58
1, 13918, Note_off_c, 0, 86, 64
1, 13919, Note_off_c, 0, 63, 64
1, 13919, Note_off_c, 0, 76, 64
1, 13919, Note_off_c, 0, 85, 64
1, 13919, Note_on_c, 0, 86, 12
1, 13919, Note_off_c, 0, 90, 64
1, 13919, Note_on_c, 0, 91, 12
1, 13920, Note_on_c, 0, 32, 59
1, 13920, Note_off_c, 0, 33, 64
1, 13920, Note_on_c, 0, 70, 32
1, 13920, Note_off_c, 0, 71, 64
1, 13920, Note_off_c, 0, 73, 64
1, 13920, Note_on_c, 0, 76, 34
1, 13921, Note_on_c, 0, 72, 39
1, 13921, Note_on_c, 0, 74, 29
1, 13921, Note_on_c, 0, 79, 23
1, 13921, Note_off_c, 0, 80, 64
1, 13921, Note_on_c, 0, 81, 36
1, 13922, Note_on_c, 0, 31, 57
1, 13922, Note_off_c, 0, 32, 64
1, 13922, Note_off_c, 0, 70, 64
1, 13922, Note_on_c, 0, 71, 37
1, 13922, Note_off_c, 0, 86, 64
1, 13922, Note_on_c, 0, 88, 38
1, 13922, Note_on_c, 0, 92, 25
1, 13923, Note_on_c, 0, 58, 31
1, 13923, Note_off_c, 0, 72, 64
1, 13923, Note_on_c, 0, 73, 34
1, 13923, Note_off_c, 0, 76, 64
1, 13924, Note_on_c, 0, 30, 43
1, 13924, Note_off_c, 0, 31, 64
1, 13924, Note_off_c, 0, 74, 64
1, 13924, Note_on_c, 0, 75, 35
1, 13924, Note_off_c, 0, 79, 64
1, 13924, Note_on_c, 0, 80, 36
1, 13924, Note_off_c, 0, 81, 64
1, 13924, Note_off_c, 0, 91, 64
1, 13925, Note_off_c, 0, 58, 64
1, 13925, Note_on_c, 0, 77, 21
1, 13925, Note_on_c, 0, 79, 26
1, 13925, Note_on_c, 0, 81, 34
1, 13925, Note_off_c, 0, 87, 64
1, 13926, Note_off_c, 0, 30, 64
1, 13926, Note_off_c, 0, 80, 64
1, 13926, Note_on_c, 0, 82, 20
1, 13927, Note_on_c, 0, 86, 29
1, 13928, Note_off_c, 0, 73, 64
1, 13928, Note_off_c, 0, 75, 64
1, 13928, Note_off_c, 0, 77, 64
1, 13928, Note_on_c, 0, 78, 46
1, 13928, Note_off_c, 0, 79, 64
1, 13928, Note_on_c, 0, 80, 34
1, 13928, Note_on_c, 0, 85, 37
1, 13929, Note_off_c, 0, 71, 64
1, 13929, Note_on_c, 0, 73, 30
1, 13929, Note_off_c, 0, 82, 64
1, 13929, Note_on_c, 0, 83, 28
1, 13931, Note_on_c, 0, 68, 32
1, 13931, Note_on_c, 0, 72, 32
1, 13931, Note_off_c, 0, 73, 64
1, 13931, Note_on_c, 0, 76, 29
1, 13932, Note_on_c, 0, 74, 32
1, 13932, Note_off_c, 0, 81, 64
1, 13933, Note_off_c, 0, 72, 64
1, 13933, Note_on_c, 0, 82, 34
1, 13933, Note_off_c, 0, 86, 64
1, 13933, Note_on_c, 0, 87, 32
1, 13934, Note_off_c, 0, 66, 64
1, 13934, Note_on_c, 0, 73, 32
1, 13934, Note_off_c, 0, 76, 64
1, 13934, Note_off_c, 0, 83, 64
1, 13934, Note_off_c, 0, 88, 64
1, 13934, Note_on_c, 0, 89, 23
1, 13935, Note_on_c, 0, 49, 21
1, 13935, Note_on_c, 0, 66, 36
1, 13935, Note_off_c, 0, 74, 64
1, 13935, Note_on_c, 0, 77, 38
1, 13935, Note_off_c, 0, 78, 64
1, 13935, Note_off_c, 0, 84, 64
1, 13935, Note_on_c, 0, 90, 27
1, 13936, Note_off_c, 0, 68, 64
1, 13936, Note_on_c, 0, 71, 38
1, 13936, Note_off_c, 0, 73, 64
1, 13936, Note_on_c, 0, 76, 38
1, 13936, Note_on_c, 0, 81, 35
1, 13936, Note_off_c, 0, 82, 64
1, 13937, Note_off_c, 0, 66, 64
1, 13937, Note_on_c, 0, 68, 34
1, 13937, Note_on_c, 0, 79, 37
1, 13937, Note_on_c, 0, 94, 14
1, 13938, Note_off_c, 0, 77, 64
1, 13938, Note_off_c, 0, 80, 64
1, 13939, Note_off_c, 0, 49, 64
1, 13939, Note_on_c, 0, 66, 18
1, 13939, Note_off_c, 0, 68, 64
1, 13939, Note_on_c, 0, 77, 31
1, 13939, Note_on_c, 0, 84, 28
1, 13939, Note_on_c, 0, 86, 33
1, 13940, Note_on_c, 0, 63, 18
1, 13940, Note_on_c, 0, 68, 22
1, 13940, Note_off_c, 0, 71, 64
1, 13940, Note_on_c, 0, 72, 42
1, 13940, Note_off_c, 0, 76, 64
1, 13940, Note_on_c, 0, 82, 25
1, 13940, Note_off_c, 0, 94, 64
1, 13941, Note_on_c, 0, 80, 33
1, 13941, Note_off_c, 0, 85, 64
1, 13942, Note_off_c, 0, 66, 64
1, 13942, Note_on_c, 0, 71, 41
1, 13942, Note_off_c, 0, 72, 64
1, 13942, Note_on_c, 0, 75, 29
1, 13942, Note_off_c, 0, 79, 64
1, 13942, Note_off_c, 0, 81, 64
1, 13942, Note_on_c, 0, 85, 33
1, 13942, Note_on_c, 0, 88, 28
1, 13942, Note_off_c, 0, 90, 64
1, 13943, Note_off_c, 0, 63, 64
1, 13943, Note_on_c, 0, 64, 14
1, 13943, Note_off_c, 0, 68, 64
1, 13943, Note_off_c, 0, 82, 64
1, 13943, Note_off_c, 0, 89, 64
1, 13943, Note_on_c, 0, 94, 13
1, 13944, Note_off_c, 0, 71, 64
1, 13944, Note_on_c, 0, 82, 33
1, 13945, Note_on_c, 0, 72, 41
1, 13945, Note_on_c, 0, 74, 42
1, 13945, Note_off_c, 0, 77, 64
1, 13945, Note_on_c, 0, 78, 29
1, 13945, Note_off_c, 0, 80, 64
1, 13945, Note_on_c, 0, 81, 41
1, 13945, Note_off_c, 0, 87, 64
1, 13945, Note_on_c, 0, 90, 31
1, 13945, Note_on_c, 0, 91, 14
1, 13946, Note_on_c, 0, 61, 23
1, 13946, Note_off_c, 0, 64, 64
1, 13946, Note_off_c, 0, 75, 64
1, 13946, Note_off_c, 0, 82, 64
1, 13946, Note_on_c, 0, 83, 22
1, 13946, Note_off_c, 0, 86, 64
1, 13947, Note_on_c, 0, 77, 37
1, 13947, Note_off_c, 0, 78, 64
1, 13947, Note_on_c, 0, 80, 41
1, 13947, Note_off_c, 0, 84, 64
1, 13947, Note_off_c, 0, 94, 64
1, 13948, Note_on_c, 0, 64, 23
1, 13948, Note_on_c, 0, 67, 32
1, 13948, Note_on_c, 0, 70, 34
1, 13948, Note_on_c, 0, 87, 35
1, 13949, Note_on_c, 0, 56, 11
1, 13949, Note_on_c, 0, 78, 29
1, 13949, Note_off_c, 0, 81, 64
1, 13949, Note_off_c, 0, 83, 64
1, 13949, Note_off_c, 0, 90, 64
1, 13949, Note_off_c, 0, 91, 64
1, 13950, Note_on_c, 0, 66, 31
1, 13950, Note_off_c, 0, 67, 64
1, 13950, Note_off_c, 0, 72, 64
1, 13950, Note_off_c, 0, 77, 64
1, 13950, Note_on_c, 0, 83, 29
1, 13950, Note_on_c, 0, 84, 31
1, 13950, Note_off_c, 0, 88, 64
1, 13951, Note_off_c, 0, 64, 64
1, 13951, Note_on_c, 0, 77, 40
1, 13951, Note_off_c, 0, 78, 64
1, 13951, Note_on_c, 0, 79, 35
1, 13951, Note_off_c, 0, 85, 64
1, 13952, Note_off_c, 0, 56, 64
1, 13952, Note_on_c, 0, 73, 32
1, 13952, Note_off_c, 0, 74, 64
1, 13952, Note_on_c, 0, 86, 30
1, 13952, Note_on_c, 0, 88, 30
1, 13953, Note_off_c, 0, 66, 64
1, 13953, Note_on_c, 0, 67, 29
1, 13953, Note_off_c, 0, 70, 64
1, 13953, Note_off_c, 0, 83, 64
1, 13954, Note_on_c, 0, 65, 31
1, 13954, Note_on_c, 0, 70, 38
1, 13954, Note_off_c, 0, 79, 64
1, 13954, Note_on_c, 0, 83, 40
1, 13954, Note_on_c, 0, 90, 19
1, 13954, Note_off_c, 0, 92, 64
1, 13955, Note_off_c, 0, 67, 64
1, 13955, Note_on_c, 0, 74, 46
1, 13955, Note_on_c, 0, 79, 27
1, 13955, Note_on_c, 0, 85, 32
1, 13956, Note_off_c, 0, 61, 64
1, 13956, Note_on_c, 0, 81, 28
1, 13957, Note_on_c, 0, 55, 32
1, 13957, Note_off_c, 0, 73, 64
1, 13957, Note_off_c, 0, 84, 64
1, 13957, Note_off_c, 0, 86, 64
1, 13958, Note_off_c, 0, 65, 64
1, 13958, Note_on_c, 0, 73, 47
1, 13958, Note_off_c, 0, 79, 64
1, 13958, Note_off_c, 0, 88, 64
1, 13958, Note_off_c, 0, 90, 64
1, 13959, Note_on_c, 0, 66, 35
1, 13959, Note_off_c, 0, 74, 64
1, 13959, Note_off_c, 0, 81, 64
1, 13959, Note_on_c, 0, 82, 40
1, 13959, Note_on_c, 0, 84, 38
1, 13959, Note_on_c, 0, 88, 33
1, 13960, Note_on_c, 0, 41, 66
1, 13960, Note_off_c, 0, 55, 64
1, 13960, Note_on_c, 0, 81, 30
1, 13960, Note_off_c, 0, 83, 64
1, 13960, Note_on_c, 0, 91, 26
1, 13961, Note_on_c, 0, 38, 65
1, 13961, Note_off_c, 0, 41, 64
1, 13961, Note_off_c, 0, 73, 64
1, 13961, Note_on_c, 0, 74, 43
1, 13961, Note_off_c, 0, 85, 64
1, 13961, Note_on_c, 0, 90, 26
1, 13962, Note_on_c, 0, 37, 65
1, 13962, Note_off_c, 0, 38, 64
1, 13962, Note_on_c, 0, 73, 44
1, 13962, Note_off_c, 0, 77, 64
1, 13962, Note_off_c, 0, 80, 64
1, 13962, Note_off_c, 0, 87, 64
1, 13963, Note_off_c, 0, 37, 64
1, 13963, Note_on_c, 0, 76, 41
1, 13963, Note_off_c, 0, 81, 64
1, 13963, Note_off_c, 0, 91, 64
1, 13963, Note_on_c, 0, 92, 28
1, 13964, Note_off_c, 0, 66, 64
1, 13964, Note_off_c, 0, 74, 64
1, 13964, Note_on_c, 0, 78, 33
1, 13964, Note_on_c, 0, 93, 19
1, 13965, Note_on_c, 0, 67, 37
1, 13965, Note_off_c, 0, 70, 64
1, 13965, Note_on_c, 0, 91, 17
1, 13966, Note_on_c, 0, 72, 32
1, 13966, Note_on_c, 0, 74, 29
1, 13966, Note_off_c, 0, 84, 64
1, 13967, Note_on_c, 0, 32, 64
1, 13967, Note_on_c, 0, 61, 26
1, 13967, Note_on_c, 0, 66, 49
1, 13967, Note_off_c, 0, 67, 64
1, 13967, Note_off_c, 0, 73, 64
1, 13967, Note_off_c, 0, 76, 64
1, 13967, Note_on_c, 0, 77, 33
1, 13967, Note_off_c, 0, 78, 64
1, 13967, Note_on_c, 0, 79, 22
1, 13967, Note_off_c, 0, 93, 64
1, 13968, Note_on_c, 0, 84, 37
1, 13968, Note_on_c, 0, 93, 27
1, 13969, Note_on_c, 0, 31, 61
1, 13969, Note_off_c, 0, 32, 64
1, 13969, Note_on_c, 0, 71, 39
1, 13969, Note_off_c, 0, 72, 64
1, 13969, Note_on_c, 0, 75, 27
1, 13969, Note_on_c, 0, 85, 37
1, 13970, Note_off_c, 0, 74, 64
1, 13970, Note_off_c, 0, 84, 64
1, 13970, Note_off_c, 0, 90, 64
1, 13970, Note_on_c, 0, 96, 13
1, 13971, Note_on_c, 0, 30, 50
1, 13971, Note_off_c, 0, 31, 64
1, 13971, Note_off_c, 0, 71, 64
1, 13971, Note_on_c, 0, 72, 46
1, 13971, Note_off_c, 0, 77, 64
1, 13971, Note_off_c, 0, 79, 64
1, 13971, Note_on_c, 0, 80, 39
1, 13971, Note_on_c, 0, 83, 35
1, 13972, Note_on_c, 0, 70, 33
1, 13972, Note_off_c, 0, 75, 64
1, 13972, Note_on_c, 0, 76, 34
1, 13972, Note_off_c, 0, 82, 64
1, 13972, Note_off_c, 0, 91, 64
1, 13973, Note_off_c, 0, 30, 64
1, 13973, Note_off_c, 0, 61, 64
1, 13973, Note_off_c, 0, 72, 64
1, 13973, Note_on_c, 0, 91, 26
1, 13974, Note_on_c, 0, 61, 26
1, 13974, Note_on_c, 0, 77, 27
1, 13974, Note_on_c, 0, 90, 33
1, 13974, Note_off_c, 0, 92, 64
1, 13974, Note_off_c, 0, 96, 64
1, 13975, Note_on_c, 0, 73, 44
1, 13975, Note_on_c, 0, 75, 32
1, 13975, Note_off_c, 0, 76, 64
1, 13976, Note_off_c, 0, 66, 64
1, 13976, Note_on_c, 0, 94, 20
1, 13977, Note_on_c, 0, 66, 43
1, 13977, Note_off_c, 0, 75, 64
1, 13977, Note_on_c, 0, 81, 36
1, 13977, Note_off_c, 0, 85, 64
1, 13977, Note_off_c, 0, 88, 64
1, 13977, Note_on_c, 0, 89, 30
1, 13978, Note_off_c, 0, 70, 64
1, 13978, Note_on_c, 0, 71, 44
1, 13978, Note_on_c, 0, 78, 50
1, 13978, Note_off_c, 0, 80, 64
1, 13978, Note_on_c, 0, 82, 27
1, 13978, Note_off_c, 0, 83, 64
1, 13978, Note_on_c, 0, 92, 21
1, 13979, Note_off_c, 0, 73, 64
1, 13979, Note_on_c, 0, 76, 45
1, 13979, Note_off_c, 0, 77, 64
1, 13979, Note_off_c, 0, 89, 64
1, 13980, Note_on_c, 0, 53, 20
1, 13980, Note_off_c, 0, 71, 64
1, 13980, Note_on_c, 0, 84, 36
1, 13981, Note_off_c, 0, 61, 64
1, 13981, Note_off_c, 0, 66, 64
1, 13981, Note_on_c, 0, 67, 47
1, 13981, Note_on_c, 0, 73, 43
1, 13981, Note_on_c, 0, 80, 41
1, 13981, Note_off_c, 0, 82, 64
1, 13981, Note_on_c, 0, 83, 27
1, 13981, Note_off_c, 0, 90, 64
1, 13981, Note_off_c, 0, 91, 64
1, 13981, Note_off_c, 0, 92, 64
1, 13982, Note_off_c, 0, 81, 64
1, 13982, Note_on_c, 0, 82, 46
1, 13982, Note_on_c, 0, 89, 26
1, 13982, Note_off_c, 0, 93, 64
1, 13983, Note_off_c, 0, 53, 64
1, 13983, Note_on_c, 0, 57, 32
1, 13983, Note_off_c, 0, 67, 64
1, 13983, Note_off_c, 0, 84, 64
1, 13984, Note_on_c, 0, 68, 36
1, 13985, Note_off_c, 0, 57, 64
1, 13985, Note_off_c, 0, 83, 64
1, 13985, Note_on_c, 0, 84, 24
1, 13986, Note_on_c, 0, 61, 27
1, 13987, Note_off_c, 0, 89, 64
1, 13987, Note_off_c, 0, 94, 64
1, 13988, Note_on_c, 0, 72, 29
1, 13988, Note_off_c, 0, 78, 64
1, 13988, Note_on_c, 0, 83, 30
1, 13988, Note_off_c, 0, 84, 64
1, 13988, Note_on_c, 0, 87, 30
1, 13989, Note_on_c, 0, 55, 22
1, 13989, Note_off_c, 0, 73, 64
1, 13989, Note_on_c, 0, 93, 23
1, 13990, Note_off_c, 0, 72, 64
1, 13990, Note_on_c, 0, 73, 36
1, 13990, Note_on_c, 0, 96, 12
1, 13991, Note_off_c, 0, 87, 64
1, 13991, Note_on_c, 0, 89, 15
1, 13992, Note_off_c, 0, 55, 64
1, 13992, Note_on_c, 0, 87, 29
1, 13993, Note_off_c, 0, 73, 64
1, 13993, Note_on_c, 0, 77, 35
1, 13993, Note_on_c, 0, 78, 43
1, 13993, Note_off_c, 0, 83, 64
1, 13993, Note_on_c, 0, 91, 14
1, 13994, Note_on_c, 0, 55, 23
1, 13994, Note_on_c, 0, 73, 42
1, 13994, Note_on_c, 0, 83, 49
1, 13994, Note_on_c, 0, 86, 26
1, 13995, Note_off_c, 0, 87, 64
1, 13995, Note_off_c, 0, 89, 64
1, 13996, Note_off_c, 0, 61, 64
1, 13996, Note_off_c, 0, 77, 64
1, 13996, Note_off_c, 0, 82, 64
1, 13996, Note_on_c, 0, 89, 18
1, 13997, Note_off_c, 0, 78, 64
1, 13997, Note_on_c, 0, 79, 39
1, 13997, Note_off_c, 0, 80, 64
1, 13997, Note_off_c, 0, 91, 64
1, 13998, Note_off_c, 0, 73, 64
1, 13998, Note_on_c, 0, 74, 41
1, 13998, Note_on_c, 0, 78, 48
1, 13999, Note_off_c, 0, 79, 64
1, 13999, Note_on_c, 0, 82, 42
1, 13999, Note_off_c, 0, 89, 64
1, 13999, Note_on_c, 0, 91, 37
1, 14000, Note_on_c, 0, 73, 44
1, 14000, Note_off_c, 0, 74, 64
1, 14000, Note_on_c, 0, 75, 39
1, 14000, Note_off_c, 0, 76, 64
1, 14000, Note_off_c, 0, 96, 64
1, 14001, Note_on_c, 0, 92, 27
1, 14002, Note_on_c, 0, 54, 38
1, 14002, Note_off_c, 0, 55, 64
1, 14002, Note_off_c, 0, 75, 64
1, 14002, Note_on_c, 0, 76, 30
1, 14002, Note_on_c, 0, 84, 30
1, 14002, Note_on_c, 0, 89, 36
1, 14002, Note_off_c, 0, 93, 64
1, 14003, Note_off_c, 0, 86, 64
1, 14003, Note_on_c, 0, 87, 26
1, 14003, Note_on_c, 0, 93, 33
1, 14004, Note_off_c, 0, 54, 64
1, 14004, Note_on_c, 0, 61, 27
1, 14004, Note_off_c, 0, 73, 64
1, 14004, Note_on_c, 0, 74, 29
1, 14004, Note_off_c, 0, 76, 64
1, 14004, Note_off_c, 0, 84, 64
1, 14004, Note_on_c, 0, 86, 35
1, 14005, Note_on_c, 0, 97, 14
1, 14006, Note_on_c, 0, 42, 68
1, 14006, Note_on_c, 0, 73, 48
1, 14006, Note_off_c, 0, 74, 64
1, 14007, Note_on_c, 0, 40, 70
1, 14007, Note_off_c, 0, 42, 64
1, 14007, Note_on_c, 0, 70, 37
1, 14007, Note_on_c, 0, 76, 30
1, 14008, Note_on_c, 0, 38, 69
1, 14008, Note_off_c, 0, 40, 64
1, 14008, Note_off_c, 0, 87, 64
1, 14008, Note_off_c, 0, 92, 64
1, 14008, Note_off_c, 0, 97, 64
1, 14009, Note_on_c, 0, 37, 69
1, 14009, Note_off_c, 0, 38, 64
1, 14009, Note_off_c, 0, 68, 64
1, 14009, Note_off_c, 0, 78, 64
1, 14009, Note_on_c, 0, 87, 41
1, 14009, Note_on_c, 0, 92, 39
1, 14010, Note_on_c, 0, 36, 68
1, 14010, Note_off_c, 0, 37, 64
1, 14010, Note_off_c, 0, 73, 64
1, 14010, Note_on_c, 0, 74, 41
1, 14010, Note_on_c, 0, 79, 47
1, 14010, Note_on_c, 0, 81, 35
1, 14010, Note_off_c, 0, 82, 64
1, 14010, Note_on_c, 0, 96, 14
1, 14011, Note_on_c, 0, 34, 67
1, 14011, Note_off_c, 0, 36, 64
1, 14011, Note_on_c, 0, 66, 34
1, 14011, Note_on_c, 0, 72, 34
1, 14011, Note_on_c, 0, 82, 45
1, 14012, Note_on_c, 0, 54, 10
1, 14012, Note_off_c, 0, 61, 64
1, 14012, Note_off_c, 0, 70, 64
1, 14012, Note_off_c, 0, 74, 64
1, 14012, Note_on_c, 0, 80, 22
1, 14012, Note_off_c, 0, 81, 64
1, 14012, Note_off_c, 0, 83, 64
1, 14012, Note_off_c, 0, 86, 64
1, 14013, Note_on_c, 0, 33, 66
1, 14013, Note_off_c, 0, 34, 64
1, 14013, Note_off_c, 0, 72, 64
1, 14013, Note_on_c, 0, 73, 43
1, 14013, Note_on_c, 0, 77, 34
1, 14013, Note_on_c, 0, 83, 34
1, 14013, Note_on_c, 0, 86, 39
1, 14013, Note_on_c, 0, 90, 33
1, 14013, Note_off_c, 0, 96, 64
1, 14014, Note_on_c, 0, 32, 67
1, 14014, Note_off_c, 0, 33, 64
1, 14014, Note_off_c, 0, 76, 64
1, 14015, Note_off_c, 0, 54, 64
1, 14015, Note_on_c, 0, 74, 49
1, 14015, Note_off_c, 0, 80, 64
1, 14016, Note_on_c, 0, 31, 65
1, 14016, Note_off_c, 0, 32, 64
1, 14016, Note_on_c, 0, 64, 21
1, 14016, Note_off_c, 0, 66, 64
1, 14016, Note_on_c, 0, 68, 23
1, 14016, Note_on_c, 0, 76, 40
1, 14016, Note_off_c, 0, 77, 64
1, 14016, Note_on_c, 0, 78, 27
1, 14016, Note_off_c, 0, 83, 64
1, 14017, Note_on_c, 0, 70, 30
1, 14017, Note_on_c, 0, 72, 35
1, 14017, Note_off_c, 0, 73, 64
1, 14017, Note_on_c, 0, 80, 35
1, 14017, Note_off_c, 0, 91, 64
1, 14018, Note_off_c, 0, 31, 64
1, 14019, Note_on_c, 0, 54, 33
1, 14019, Note_off_c, 0, 68, 64
1, 14019, Note_off_c, 0, 72, 64
1, 14019, Note_off_c, 0, 76, 64
1, 14019, Note_off_c, 0, 78, 64
1, 14019, Note_off_c, 0, 80, 64
1, 14019, Note_off_c, 0, 86, 64
1, 14020, Note_off_c, 0, 64, 64
1, 14020, Note_on_c, 0, 68, 36
1, 14020, Note_off_c, 0, 70, 64
1, 14020, Note_on_c, 0, 72, 49
1, 14020, Note_on_c, 0, 80, 41
1, 14020, Note_off_c, 0, 90, 64
1, 14021, Note_on_c, 0, 71, 43
1, 14021, Note_off_c, 0, 74, 64
1, 14021, Note_on_c, 0, 90, 34
1, 14021, Note_off_c, 0, 93, 64
1, 14022, Note_off_c, 0, 54, 64
1, 14022, Note_on_c, 0, 66, 41
1, 14022, Note_off_c, 0, 68, 64
1, 14022, Note_off_c, 0, 72, 64
1, 14022, Note_on_c, 0, 73, 44
1, 14022, Note_on_c, 0, 76, 36
1, 14022, Note_on_c, 0, 78, 47
1, 14022, Note_off_c, 0, 79, 64
1, 14022, Note_on_c, 0, 83, 43
1, 14023, Note_on_c, 0, 70, 30
1, 14023, Note_off_c, 0, 71, 64
1, 14023, Note_on_c, 0, 72, 40
1, 14023, Note_off_c, 0, 82, 64
1, 14023, Note_on_c, 0, 88, 41
1, 14023, Note_on_c, 0, 91, 37
1, 14023, Note_on_c, 0, 93, 23
1, 14024, Note_off_c, 0, 73, 64
1, 14024, Note_on_c, 0, 82, 39
1, 14024, Note_off_c, 0, 83, 64
1, 14024, Note_on_c, 0, 86, 38
1, 14024, Note_off_c, 0, 87, 64
1, 14025, Note_off_c, 0, 70, 64
1, 14025, Note_on_c, 0, 75, 36
1, 14025, Note_off_c, 0, 76, 64
1, 14025, Note_off_c, 0, 80, 64
1, 14025, Note_on_c, 0, 83, 43
1, 14025, Note_on_c, 0, 85, 39
1, 14026, Note_off_c, 0, 66, 64
1, 14026, Note_on_c, 0, 70, 39
1, 14026, Note_off_c, 0, 72, 64
1, 14026, Note_on_c, 0, 73, 32
1, 14026, Note_on_c, 0, 76, 35
1, 14026, Note_on_c, 0, 81, 39
1, 14026, Note_off_c, 0, 86, 64
1, 14026, Note_off_c, 0, 89, 64
1, 14027, Note_on_c, 0, 66, 32
1, 14027, Note_off_c, 0, 75, 64
1, 14027, Note_off_c, 0, 82, 64
1, 14027, Note_on_c, 0, 84, 29
1, 14028, Note_off_c, 0, 73, 64
1, 14028, Note_off_c, 0, 76, 64
1, 14028, Note_on_c, 0, 89, 37
1, 14029, Note_on_c, 0, 74, 35
1, 14029, Note_on_c, 0, 80, 27
1, 14029, Note_off_c, 0, 84, 64
1, 14029, Note_off_c, 0, 90, 64
1, 14030, Note_on_c, 0, 84, 33
1, 14031, Note_on_c, 0, 73, 39
1, 14031, Note_off_c, 0, 74, 64
1, 14031, Note_off_c, 0, 81, 64
1, 14031, Note_on_c, 0, 87, 28
1, 14032, Note_on_c, 0, 65, 33
1, 14032, Note_off_c, 0, 66, 64
1, 14032, Note_on_c, 0, 74, 42
1, 14032, Note_on_c, 0, 79, 41
1, 14032, Note_off_c, 0, 84, 64
1, 14033, Note_off_c, 0, 70, 64
1, 14033, Note_off_c, 0, 73, 64
1, 14033, Note_off_c, 0, 78, 64
1, 14033, Note_off_c, 0, 93, 64
1, 14034, Note_off_c, 0, 65, 64
1, 14034, Note_on_c, 0, 66, 39
1, 14034, Note_off_c, 0, 80, 64
1, 14034, Note_off_c, 0, 83, 64
1, 14034, Note_on_c, 0, 84, 32
1, 14034, Note_on_c, 0, 93, 31
1, 14035, Note_off_c, 0, 74, 64
1, 14035, Note_on_c, 0, 86, 30
1, 14036, Note_off_c, 0, 66, 64
1, 14036, Note_on_c, 0, 72, 31
1, 14036, Note_on_c, 0, 83, 46
1, 14036, Note_off_c, 0, 87, 64
1, 14037, Note_on_c, 0, 74, 32
1, 14037, Note_on_c, 0, 80, 22
1, 14037, Note_on_c, 0, 87, 29
1, 14037, Note_off_c, 0, 89, 64
1, 14038, Note_on_c, 0, 63, 33
1, 14038, Note_on_c, 0, 67, 29
1, 14038, Note_on_c, 0, 71, 33
1, 14038, Note_off_c, 0, 72, 64
1, 14038, Note_off_c, 0, 84, 64
1, 14038, Note_on_c, 0, 89, 47
1, 14039, Note_on_c, 0, 66, 29
1, 14039, Note_on_c, 0, 73, 44
1, 14039, Note_off_c, 0, 74, 64
1, 14039, Note_on_c, 0, 76, 33
1, 14039, Note_on_c, 0, 78, 39
1, 14039, Note_off_c, 0, 79, 64
1, 14039, Note_on_c, 0, 81, 31
1, 14039, Note_on_c, 0, 84, 27
1, 14039, Note_off_c, 0, 86, 64
1, 14039, Note_off_c, 0, 87, 64
1, 14040, Note_off_c, 0, 63, 64
1, 14040, Note_off_c, 0, 67, 64
1, 14040, Note_on_c, 0, 69, 26
1, 14040, Note_off_c, 0, 80, 64
1, 14040, Note_off_c, 0, 85, 64
1, 14040, Note_on_c, 0, 86, 44
1, 14041, Note_off_c, 0, 71, 64
1, 14042, Note_on_c, 0, 80, 24
1, 14042, Note_off_c, 0, 84, 64
1, 14042, Note_on_c, 0, 87, 38
1, 14042, Note_off_c, 0, 88, 64
1, 14043, Note_on_c, 0, 58, 25
1, 14043, Note_off_c, 0, 76, 64
1, 14043, Note_on_c, 0, 82, 46
1, 14043, Note_off_c, 0, 93, 64
1, 14043, Note_on_c, 0, 96, 19
1, 14044, Note_on_c, 0, 65, 35
1, 14044, Note_off_c, 0, 66, 64
1, 14044, Note_off_c, 0, 69, 64
1, 14044, Note_on_c, 0, 70, 33
1, 14044, Note_on_c, 0, 76, 31
1, 14044, Note_off_c, 0, 83, 64
1, 14044, Note_on_c, 0, 84, 20
1, 14044, Note_off_c, 0, 91, 64
1, 14045, Note_off_c, 0, 78, 64
1, 14045, Note_on_c, 0, 79, 44
1, 14045, Note_off_c, 0, 80, 64
1, 14046, Note_off_c, 0, 65, 64
1, 14046, Note_off_c, 0, 76, 64
1, 14046, Note_on_c, 0, 77, 37
1, 14047, Note_off_c, 0, 70, 64
1, 14047, Note_on_c, 0, 71, 26
1, 14047, Note_off_c, 0, 84, 64
1, 14047, Note_off_c, 0, 87, 64
1, 14047, Note_on_c, 0, 88, 38
1, 14048, Note_off_c, 0, 58, 64
1, 14048, Note_on_c, 0, 70, 28
1, 14048, Note_off_c, 0, 77, 64
1, 14048, Note_on_c, 0, 78, 47
1, 14048, Note_on_c, 0, 84, 38
1, 14049, Note_on_c, 0, 63, 18
1, 14049, Note_off_c, 0, 79, 64
1, 14050, Note_off_c, 0, 71, 64
1, 14050, Note_on_c, 0, 80, 43
1, 14050, Note_off_c, 0, 81, 64
1, 14050, Note_off_c, 0, 96, 64
1, 14051, Note_on_c, 0, 79, 26
1, 14051, Note_on_c, 0, 83, 33
1, 14051, Note_off_c, 0, 86, 64
1, 14051, Note_on_c, 0, 87, 34
1, 14052, Note_off_c, 0, 88, 64
1, 14052, Note_on_c, 0, 100, 12
1, 14053, Note_off_c, 0, 63, 64
1, 14053, Note_on_c, 0, 74, 32
1, 14053, Note_on_c, 0, 77, 41
1, 14054, Note_on_c, 0, 67, 28
1, 14054, Note_off_c, 0, 79, 64
1, 14055, Note_off_c, 0, 70, 64
1, 14055, Note_on_c, 0, 72, 39
1, 14055, Note_off_c, 0, 73, 64
1, 14055, Note_off_c, 0, 74, 64
1, 14055, Note_off_c, 0, 78, 64
1, 14055, Note_on_c, 0, 85, 53
1, 14055, Note_on_c, 0, 88, 45
1, 14056, Note_on_c, 0, 74, 35
1, 14056, Note_off_c, 0, 83, 64
1, 14056, Note_off_c, 0, 84, 64
1, 14056, Note_on_c, 0, 90, 34
1, 14057, Note_off_c, 0, 67, 64
1, 14057, Note_on_c, 0, 68, 29
1, 14057, Note_off_c, 0, 72, 64
1, 14057, Note_on_c, 0, 76, 39
1, 14057, Note_off_c, 0, 77, 64
1, 14057, Note_on_c, 0, 78, 38
1, 14057, Note_on_c, 0, 86, 43
1, 14057, Note_off_c, 0, 87, 64
1, 14057, Note_off_c, 0, 89, 64
1, 14057, Note_on_c, 0, 91, 38
1, 14057, Note_on_c, 0, 93, 28
1, 14058, Note_off_c, 0, 74, 64
1, 14058, Note_on_c, 0, 81, 46
1, 14058, Note_off_c, 0, 82, 64
1, 14058, Note_on_c, 0, 83, 56
1, 14058, Note_on_c, 0, 89, 41
1, 14058, Note_off_c, 0, 90, 64
1, 14059, Note_off_c, 0, 68, 64
1, 14059, Note_on_c, 0, 71, 38
1, 14059, Note_on_c, 0, 74, 39
1, 14059, Note_off_c, 0, 76, 64
1, 14059, Note_off_c, 0, 78, 64
1, 14059, Note_on_c, 0, 79, 60
1, 14059, Note_on_c, 0, 82, 39
1, 14059, Note_on_c, 0, 90, 32
1, 14060, Note_on_c, 0, 76, 46
1, 14060, Note_off_c, 0, 80, 64
1, 14060, Note_on_c, 0, 87, 41
1, 14060, Note_off_c, 0, 100, 64
1, 14061, Note_on_c, 0, 45, 66
1, 14061, Note_off_c, 0, 81, 64
1, 14061, Note_off_c, 0, 82, 64
1, 14061, Note_on_c, 0, 84, 43
1, 14061, Note_off_c, 0, 85, 64
1, 14061, Note_off_c, 0, 90, 64
1, 14062, Note_on_c, 0, 42, 73
1, 14062, Note_off_c, 0, 45, 64
1, 14062, Note_off_c, 0, 71, 64
1, 14062, Note_on_c, 0, 72, 39
1, 14062, Note_off_c, 0, 74, 64
1, 14062, Note_off_c, 0, 76, 64
1, 14062, Note_on_c, 0, 78, 42
1, 14063, Note_on_c, 0, 40, 73
1, 14063, Note_off_c, 0, 42, 64
1, 14063, Note_on_c, 0, 76, 41
1, 14063, Note_off_c, 0, 91, 64
1, 14064, Note_on_c, 0, 38, 73
1, 14064, Note_off_c, 0, 40, 64
1, 14064, Note_on_c, 0, 67, 22
1, 14064, Note_off_c, 0, 72, 64
1, 14064, Note_off_c, 0, 78, 64
1, 14064, Note_off_c, 0, 84, 64
1, 14064, Note_on_c, 0, 85, 36
1, 14064, Note_off_c, 0, 86, 64
1, 14064, Note_off_c, 0, 92, 64
1, 14064, Note_off_c, 0, 93, 64
1, 14065, Note_on_c, 0, 37, 73
1, 14065, Note_off_c, 0, 38, 64
1, 14065, Note_on_c, 0, 74, 45
1, 14065, Note_off_c, 0, 76, 64
1, 14065, Note_on_c, 0, 77, 42
1, 14065, Note_on_c, 0, 90, 30
1, 14066, Note_on_c, 0, 35, 72
1, 14066, Note_off_c, 0, 37, 64
1, 14066, Note_on_c, 0, 71, 21
1, 14066, Note_on_c, 0, 80, 19
1, 14066, Note_on_c, 0, 81, 36
1, 14066, Note_off_c, 0, 83, 64
1, 14066, Note_on_c, 0, 84, 46
1, 14066, Note_off_c, 0, 89, 64
1, 14066, Note_on_c, 0, 92, 49
1, 14067, Note_on_c, 0, 34, 71
1, 14067, Note_off_c, 0, 35, 64
1, 14067, Note_on_c, 0, 78, 52
1, 14067, Note_off_c, 0, 79, 64
1, 14067, Note_on_c, 0, 83, 22
1, 14068, Note_on_c, 0, 33, 71
1, 14068, Note_off_c, 0, 34, 64
1, 14068, Note_on_c, 0, 76, 32
1, 14068, Note_off_c, 0, 77, 64
1, 14069, Note_off_c, 0, 67, 64
1, 14069, Note_off_c, 0, 71, 64
1, 14069, Note_off_c, 0, 80, 64
1, 14070, Note_on_c, 0, 32, 72
1, 14070, Note_off_c, 0, 33, 64
1, 14071, Note_on_c, 0, 31, 71
1, 14071, Note_off_c, 0, 32, 64
1, 14071, Note_off_c, 0, 76, 64
1, 14072, Note_on_c, 0, 62, 16
1, 14072, Note_on_c, 0, 82, 33
1, 14072, Note_off_c, 0, 83, 64
1, 14073, Note_off_c, 0, 81, 64
1, 14073, Note_off_c, 0, 88, 64
1, 14073, Note_on_c, 0, 89, 33
1, 14074, Note_on_c, 0, 30, 55
1, 14074, Note_off_c, 0, 31, 64
1, 14074, Note_on_c, 0, 70, 32
1, 14074, Note_on_c, 0, 73, 33
1, 14074, Note_off_c, 0, 85, 64
1, 14075, Note_off_c, 0, 62, 64
1, 14075, Note_off_c, 0, 74, 64
1, 14075, Note_on_c, 0, 75, 48
1, 14075, Note_on_c, 0, 88, 22
1, 14075, Note_off_c, 0, 90, 64
1, 14075, Note_on_c, 0, 97, 26
1, 14076, Note_off_c, 0, 30, 64
1, 14076, Note_off_c, 0, 73, 64
1, 14076, Note_on_c, 0, 80, 51
1, 14076, Note_on_c, 0, 85, 54
1, 14076, Note_on_c, 0, 95, 30
1, 14077, Note_on_c, 0, 54, 40
1, 14077, Note_on_c, 0, 98, 11
1, 14078, Note_on_c, 0, 73, 42
1, 14078, Note_off_c, 0, 88, 64
1, 14079, Note_off_c, 0, 54, 64
1, 14079, Note_on_c, 0, 57, 31
1, 14079, Note_on_c, 0, 66, 43
1, 14079, Note_off_c, 0, 75, 64
1, 14079, Note_on_c, 0, 81, 47
1, 14079, Note_off_c, 0, 82, 64
1, 14079, Note_on_c, 0, 94, 23
1, 14080, Note_on_c, 0, 45, 68
1, 14080, Note_off_c, 0, 73, 64
1, 14080, Note_on_c, 0, 76, 42
1, 14080, Note_on_c, 0, 82, 41
1, 14080, Note_off_c, 0, 89, 64
1, 14080, Note_off_c, 0, 98, 64
1, 14081, Note_on_c, 0, 42, 74
1, 14081, Note_off_c, 0, 45, 64
1, 14081, Note_off_c, 0, 57, 64
1, 14081, Note_on_c, 0, 61, 18
1, 14081, Note_on_c, 0, 71, 23
1, 14081, Note_off_c, 0, 80, 64
1, 14081, Note_on_c, 0, 83, 37
1, 14081, Note_off_c, 0, 84, 64
1, 14081, Note_on_c, 0, 89, 36
1, 14081, Note_off_c, 0, 95, 64
1, 14082, Note_on_c, 0, 40, 76
1, 14082, Note_off_c, 0, 42, 64
1, 14082, Note_off_c, 0, 70, 64
1, 14082, Note_on_c, 0, 73, 39
1, 14082, Note_off_c, 0, 76, 64
1, 14082, Note_off_c, 0, 82, 64
1, 14083, Note_on_c, 0, 38, 75
1, 14083, Note_off_c, 0, 40, 64
1, 14083, Note_on_c, 0, 69, 22
1, 14083, Note_on_c, 0, 80, 37
1, 14083, Note_off_c, 0, 81, 64
1, 14083, Note_on_c, 0, 82, 38
1, 14083, Note_on_c, 0, 84, 40
1, 14083, Note_off_c, 0, 85, 64
1, 14083, Note_off_c, 0, 94, 64
1, 14084, Note_on_c, 0, 37, 74
1, 14084, Note_off_c, 0, 38, 64
1, 14084, Note_off_c, 0, 71, 64
1, 14084, Note_off_c, 0, 83, 64
1, 14084, Note_on_c, 0, 85, 39
1, 14084, Note_on_c, 0, 88, 38
1, 14084, Note_on_c, 0, 98, 27
1, 14085, Note_on_c, 0, 35, 73
1, 14085, Note_off_c, 0, 37, 64
1, 14085, Note_off_c, 0, 73, 64
1, 14085, Note_on_c, 0, 81, 37
1, 14085, Note_on_c, 0, 91, 23
1, 14085, Note_off_c, 0, 97, 64
1, 14086, Note_on_c, 0, 34, 73
1, 14086, Note_off_c, 0, 35, 64
1, 14086, Note_off_c, 0, 61, 64
1, 14086, Note_on_c, 0, 62, 21
1, 14086, Note_off_c, 0, 69, 64
1, 14086, Note_on_c, 0, 73, 37
1, 14086, Note_on_c, 0, 75, 40
1, 14086, Note_off_c, 0, 84, 64
1, 14086, Note_off_c, 0, 87, 64
1, 14087, Note_on_c, 0, 33, 72
1, 14087, Note_off_c, 0, 34, 64
1, 14087, Note_on_c, 0, 71, 24
1, 14087, Note_on_c, 0, 76, 38
1, 14087, Note_off_c, 0, 78, 64
1, 14087, Note_on_c, 0, 79, 54
1, 14087, Note_off_c, 0, 82, 64
1, 14087, Note_on_c, 0, 83, 39
1, 14087, Note_on_c, 0, 84, 39
1, 14087, Note_on_c, 0, 86, 41
1, 14088, Note_off_c, 0, 75, 64
1, 14088, Note_off_c, 0, 80, 64
1, 14088, Note_off_c, 0, 85, 64
1, 14088, Note_on_c, 0, 87, 29
1, 14089, Note_on_c, 0, 32, 72
1, 14089, Note_off_c, 0, 33, 64
1, 14089, Note_on_c, 0, 50, 17
1, 14089, Note_on_c, 0, 69, 37
1, 14089, Note_off_c, 0, 73, 64
1, 14089, Note_on_c, 0, 75, 36
1, 14089, Note_on_c, 0, 82, 43
1, 14089, Note_off_c, 0, 98, 64
1, 14090, Note_off_c, 0, 71, 64
1, 14090, Note_off_c, 0, 76, 64
1, 14090, Note_off_c, 0, 88, 64
1, 14091, Note_on_c, 0, 31, 70
1, 14091, Note_off_c, 0, 32, 64
1, 14091, Note_off_c, 0, 62, 64
1, 14091, Note_on_c, 0, 85, 36
1, 14091, Note_on_c, 0, 88, 34
1, 14091, Note_off_c, 0, 91, 64
1, 14092, Note_off_c, 0, 50, 64
1, 14092, Note_off_c, 0, 84, 64
1, 14092, Note_off_c, 0, 89, 64
1, 14093, Note_off_c, 0, 31, 64
1, 14093, Note_off_c, 0, 66, 64
1, 14093, Note_on_c, 0, 67, 31
1, 14093, Note_off_c, 0, 69, 64
1, 14093, Note_on_c, 0, 73, 29
1, 14093, Note_off_c, 0, 81, 64
1, 14093, Note_off_c, 0, 83, 64
1, 14093, Note_on_c, 0, 84, 39
1, 14093, Note_on_c, 0, 89, 34
1, 14094, Note_on_c, 0, 71, 39
1, 14094, Note_off_c, 0, 75, 64
1, 14094, Note_off_c, 0, 87, 64
1, 14094, Note_on_c, 0, 90, 26
1, 14095, Note_off_c, 0, 67, 64
1, 14095, Note_off_c, 0, 73, 64
1, 14095, Note_on_c, 0, 74, 49
1, 14096, Note_on_c, 0, 77, 22
1, 14096, Note_off_c, 0, 85, 64
1, 14097, Note_on_c, 0, 66, 38
1, 14097, Note_on_c, 0, 81, 44
1, 14097, Note_on_c, 0, 87, 33
1, 14097, Note_off_c, 0, 88, 64
1, 14098, Note_on_c, 0, 68, 29
1, 14098, Note_off_c, 0, 71, 64
1, 14098, Note_off_c, 0, 82, 64
1, 14098, Note_on_c, 0, 83, 41
1, 14098, Note_on_c, 0, 97, 15
1, 14099, Note_off_c, 0, 66, 64
1, 14099, Note_on_c, 0, 76, 23
1, 14099, Note_off_c, 0, 77, 64
1, 14099, Note_off_c, 0, 79, 64
1, 14099, Note_off_c, 0, 87, 64
1, 14099, Note_on_c, 0, 88, 40
1, 14100, Note_on_c, 0, 67, 39
1, 14100, Note_off_c, 0, 68, 64
1, 14100, Note_on_c, 0, 72, 30
1, 14100, Note_on_c, 0, 82, 38
1, 14100, Note_on_c, 0, 87, 40
1, 14101, Note_off_c, 0, 81, 64
1, 14101, Note_off_c, 0, 83, 64
1, 14102, Note_off_c, 0, 76, 64
1, 14102, Note_on_c, 0, 78, 22
1, 14102, Note_on_c, 0, 81, 30
1, 14102, Note_on_c, 0, 83, 36
1, 14102, Note_off_c, 0, 88, 64
1, 14103, Note_on_c, 0, 71, 18
1, 14103, Note_off_c, 0, 82, 64
1, 14103, Note_on_c, 0, 85, 27
1, 14103, Note_off_c, 0, 87, 64
1, 14103, Note_on_c, 0, 88, 35
1, 14103, Note_off_c, 0, 90, 64
1, 14104, Note_on_c, 0, 55, 25
1, 14104, Note_off_c, 0, 72, 64
1, 14105, Note_off_c, 0, 67, 64
1, 14105, Note_on_c, 0, 73, 47
1, 14105, Note_off_c, 0, 74, 64
1, 14105, Note_on_c, 0, 75, 18
1, 14105, Note_off_c, 0, 78, 64
1, 14105, Note_off_c, 0, 81, 64
1, 14105, Note_on_c, 0, 82, 40
1, 14105, Note_off_c, 0, 83, 64
1, 14105, Note_on_c, 0, 87, 38
1, 14106, Note_on_c, 0, 67, 29
1, 14106, Note_off_c, 0, 71, 64
1, 14106, Note_off_c, 0, 85, 64
1, 14107, Note_on_c, 0, 76, 37
1, 14107, Note_on_c, 0, 81, 37
1, 14107, Note_off_c, 0, 82, 64
1, 14107, Note_off_c, 0, 88, 64
1, 14108, Note_off_c, 0, 55, 64
1, 14108, Note_on_c, 0, 66, 23
1, 14108, Note_off_c, 0, 67, 64
1, 14108, Note_off_c, 0, 75, 64
1, 14108, Note_on_c, 0, 79, 44
1, 14108, Note_off_c, 0, 87, 64
1, 14108, Note_on_c, 0, 88, 42
1, 14108, Note_on_c, 0, 90, 27
1, 14109, Note_on_c, 0, 70, 25
1, 14109, Note_off_c, 0, 84, 64
1, 14110, Note_off_c, 0, 81, 64
1, 14110, Note_on_c, 0, 82, 42
1, 14110, Note_on_c, 0, 93, 26
1, 14110, Note_off_c, 0, 97, 64
1, 14111, Note_off_c, 0, 66, 64
1, 14111, Note_on_c, 0, 83, 44
1, 14111, Note_off_c, 0, 86, 64
1, 14111, Note_on_c, 0, 87, 39
1, 14112, Note_on_c, 0, 66, 31
1, 14112, Note_on_c, 0, 78, 40
1, 14112, Note_off_c, 0, 79, 64
1, 14112, Note_off_c, 0, 82, 64
1, 14113, Note_off_c, 0, 88, 64
1, 14113, Note_off_c, 0, 90, 64
1, 14114, Note_on_c, 0, 80, 30
1, 14114, Note_on_c, 0, 81, 26
1, 14114, Note_on_c, 0, 88, 46
1, 14115, Note_off_c, 0, 70, 64
1, 14115, Note_on_c, 0, 77, 29
1, 14115, Note_off_c, 0, 78, 64
1, 14115, Note_on_c, 0, 82, 40
1, 14115, Note_off_c, 0, 87, 64
1, 14115, Note_on_c, 0, 91, 24
1, 14115, Note_on_c, 0, 98, 18
1, 14116, Note_off_c, 0, 66, 64
1, 14116, Note_on_c, 0, 67, 34
1, 14116, Note_off_c, 0, 76, 64
1, 14117, Note_on_c, 0, 78, 34
1, 14117, Note_off_c, 0, 81, 64
1, 14118, Note_on_c, 0, 53, 16
1, 14118, Note_on_c, 0, 66, 36
1, 14118, Note_off_c, 0, 67, 64
1, 14118, Note_off_c, 0, 80, 64
1, 14118, Note_off_c, 0, 83, 64
1, 14118, Note_on_c, 0, 87, 37
1, 14118, Note_off_c, 0, 98, 64
1, 14119, Note_off_c, 0, 77, 64
1, 14119, Note_on_c, 0, 86, 41
1, 14120, Note_off_c, 0, 66, 64
1, 14120, Note_on_c, 0, 81, 23
1, 14120, Note_on_c, 0, 83, 33
1, 14120, Note_off_c, 0, 87, 64
1, 14120, Note_on_c, 0, 96, 14
1, 14121, Note_on_c, 0, 66, 30
1, 14121, Note_on_c, 0, 77, 24
1, 14121, Note_off_c, 0, 78, 64
1, 14121, Note_off_c, 0, 82, 64
1, 14121, Note_on_c, 0, 84, 32
1, 14121, Note_on_c, 0, 87, 22
1, 14122, Note_on_c, 0, 76, 30
1, 14122, Note_on_c, 0, 80, 31
1, 14122, Note_on_c, 0, 94, 22
1, 14123, Note_off_c, 0, 73, 64
1, 14123, Note_on_c, 0, 74, 51
1, 14123, Note_off_c, 0, 81, 64
1, 14123, Note_off_c, 0, 84, 64
1, 14124, Note_off_c, 0, 77, 64
1, 14124, Note_on_c, 0, 79, 28
1, 14124, Note_on_c, 0, 81, 35
1, 14124, Note_off_c, 0, 91, 64
1, 14125, Note_off_c, 0, 53, 64
1, 14125, Note_off_c, 0, 80, 64
1, 14125, Note_on_c, 0, 84, 23
1, 14125, Note_off_c, 0, 87, 64
1, 14125, Note_off_c, 0, 93, 64
1, 14126, Note_off_c, 0, 76, 64
1, 14126, Note_on_c, 0, 82, 48
1, 14126, Note_off_c, 0, 83, 64
1, 14127, Note_off_c, 0, 66, 64
1, 14127, Note_on_c, 0, 83, 32
1, 14128, Note_on_c, 0, 53, 18
1, 14128, Note_on_c, 0, 78, 47
1, 14128, Note_off_c, 0, 79, 64
1, 14128, Note_on_c, 0, 80, 41
1, 14128, Note_off_c, 0, 81, 64
1, 14128, Note_on_c, 0, 91, 27
1, 14129, Note_on_c, 0, 63, 18
1, 14129, Note_on_c, 0, 87, 35
1, 14129, Note_off_c, 0, 88, 64
1, 14129, Note_off_c, 0, 96, 64
1, 14130, Note_on_c, 0, 60, 18
1, 14130, Note_on_c, 0, 85, 45
1, 14130, Note_off_c, 0, 86, 64
1, 14130, Note_on_c, 0, 88, 44
1, 14131, Note_off_c, 0, 53, 64
1, 14131, Note_off_c, 0, 74, 64
1, 14131, Note_on_c, 0, 75, 45
1, 14131, Note_off_c, 0, 84, 64
1, 14131, Note_off_c, 0, 91, 64
1, 14132, Note_off_c, 0, 63, 64
1, 14132, Note_on_c, 0, 73, 37
1, 14132, Note_on_c, 0, 76, 30
1, 14132, Note_off_c, 0, 83, 64
1, 14132, Note_on_c, 0, 84, 36
1, 14132, Note_on_c, 0, 93, 32
1, 14133, Note_off_c, 0, 60, 64
1, 14133, Note_off_c, 0, 75, 64
1, 14133, Note_off_c, 0, 80, 64
1, 14133, Note_off_c, 0, 87, 64
1, 14134, Note_on_c, 0, 62, 22
1, 14134, Note_on_c, 0, 66, 38
1, 14134, Note_off_c, 0, 73, 64
1, 14134, Note_on_c, 0, 74, 41
1, 14134, Note_on_c, 0, 80, 25
1, 14135, Note_on_c, 0, 70, 23
1, 14135, Note_on_c, 0, 87, 31
1, 14135, Note_on_c, 0, 91, 19
1, 14136, Note_off_c, 0, 78, 64
1, 14136, Note_off_c, 0, 84, 64
1, 14136, Note_off_c, 0, 88, 64
1, 14137, Note_off_c, 0, 62, 64
1, 14137, Note_on_c, 0, 81, 31
1, 14137, Note_on_c, 0, 88, 37
1, 14138, Note_on_c, 0, 79, 29
1, 14138, Note_off_c, 0, 80, 64
1, 14138, Note_off_c, 0, 82, 64
1, 14138, Note_on_c, 0, 83, 32
1, 14138, Note_off_c, 0, 89, 64
1, 14139, Note_on_c, 0, 72, 37
1, 14139, Note_off_c, 0, 81, 64
1, 14139, Note_on_c, 0, 82, 45
1, 14139, Note_off_c, 0, 87, 64
1, 14139, Note_off_c, 0, 91, 64
1, 14140, Note_off_c, 0, 74, 64
1, 14140, Note_off_c, 0, 76, 64
1, 14140, Note_off_c, 0, 83, 64
1, 14140, Note_on_c, 0, 87, 18
1, 14141, Note_on_c, 0, 89, 33
1, 14141, Note_off_c, 0, 92, 64
1, 14141, Note_on_c, 0, 95, 12
1, 14141, Note_on_c, 0, 96, 22
1, 14142, Note_on_c, 0, 81, 34
1, 14142, Note_on_c, 0, 83, 43
1, 14142, Note_on_c, 0, 86, 35
1, 14143, Note_off_c, 0, 72, 64
1, 14143, Note_on_c, 0, 73, 37
1, 14143, Note_on_c, 0, 76, 26
1, 14143, Note_off_c, 0, 79, 64
1, 14143, Note_off_c, 0, 85, 64
1, 14143, Note_on_c, 0, 92, 27
1, 14143, Note_on_c, 0, 97, 22
1, 14144, Note_on_c, 0, 79, 29
1, 14144, Note_off_c, 0, 81, 64
1, 14144, Note_off_c, 0, 87, 64
1, 14144, Note_off_c, 0, 95, 64
1, 14145, Note_off_c, 0, 73, 64
1, 14145, Note_on_c, 0, 85, 32
1, 14145, Note_on_c, 0, 87, 43
1, 14145, Note_off_c, 0, 88, 64
1, 14145, Note_on_c, 0, 91, 34
1, 14145, Note_off_c, 0, 94, 64
1, 14146, Note_on_c, 0, 73, 48
1, 14146, Note_off_c, 0, 79, 64
1, 14146, Note_on_c, 0, 80, 27
1, 14146, Note_off_c, 0, 86, 64
1, 14147, Note_on_c, 0, 81, 38
1, 14147, Note_off_c, 0, 82, 64
1, 14147, Note_off_c, 0, 89, 64
1, 14147, Note_off_c, 0, 92, 64
1, 14147, Note_off_c, 0, 97, 64
1, 14148, Note_off_c, 0, 73, 64
1, 14148, Note_on_c, 0, 79, 28
1, 14148, Note_on_c, 0, 86, 9
1, 14148, Note_off_c, 0, 87, 64
1, 14148, Note_on_c, 0, 88, 35
1, 14148, Note_on_c, 0, 89, 33
1, 14149, Note_off_c, 0, 76, 64
1, 14149, Note_off_c, 0, 80, 64
1, 14149, Note_on_c, 0, 84, 31
1, 14149, Note_on_c, 0, 92, 30
1, 14149, Note_on_c, 0, 98, 11
1, 14150, Note_off_c, 0, 70, 64
1, 14150, Note_off_c, 0, 81, 64
1, 14150, Note_on_c, 0, 82, 47
1, 14151, Note_off_c, 0, 86, 64
1, 14151, Note_on_c, 0, 87, 32
1, 14152, Note_on_c, 0, 50, 49
1, 14152, Note_off_c, 0, 66, 64
1, 14152, Note_on_c, 0, 75, 36
1, 14152, Note_off_c, 0, 79, 64
1, 14152, Note_on_c, 0, 80, 31
1, 14152, Note_on_c, 0, 81, 38
1, 14152, Note_off_c, 0, 91, 64
1, 14152, Note_off_c, 0, 93, 64
1, 14153, Note_on_c, 0, 66, 31
1, 14153, Note_on_c, 0, 73, 51
1, 14153, Note_off_c, 0, 82, 64
1, 14153, Note_off_c, 0, 88, 64
1, 14154, Note_off_c, 0, 50, 64
1, 14154, Note_on_c, 0, 77, 30
1, 14154, Note_on_c, 0, 82, 34
1, 14154, Note_off_c, 0, 83, 64
1, 14154, Note_on_c, 0, 91, 28
1, 14155, Note_on_c, 0, 45, 74
1, 14155, Note_on_c, 0, 70, 28
1, 14155, Note_off_c, 0, 75, 64
1, 14155, Note_on_c, 0, 76, 30
1, 14155, Note_off_c, 0, 81, 64
1, 14155, Note_on_c, 0, 83, 42
1, 14155, Note_off_c, 0, 84, 64
1, 14155, Note_off_c, 0, 92, 64
1, 14156, Note_on_c, 0, 42, 80
1, 14156, Note_off_c, 0, 45, 64
1, 14156, Note_on_c, 0, 65, 37
1, 14156, Note_off_c, 0, 66, 64
1, 14156, Note_off_c, 0, 77, 64
1, 14156, Note_on_c, 0, 79, 34
1, 14156, Note_on_c, 0, 81, 51
1, 14156, Note_off_c, 0, 82, 64
1, 14156, Note_on_c, 0, 88, 44
1, 14156, Note_on_c, 0, 92, 32
1, 14157, Note_on_c, 0, 40, 80
1, 14157, Note_off_c, 0, 42, 64
1, 14157, Note_on_c, 0, 53, 20
1, 14157, Note_on_c, 0, 67, 43
1, 14157, Note_on_c, 0, 75, 31
1, 14157, Note_off_c, 0, 76, 64
1, 14157, Note_off_c, 0, 80, 64
1, 14157, Note_on_c, 0, 82, 38
1, 14157, Note_off_c, 0, 83, 64
1, 14157, Note_on_c, 0, 86, 31
1, 14157, Note_off_c, 0, 87, 64
1, 14157, Note_off_c, 0, 91, 64
1, 14158, Note_on_c, 0, 38, 80
1, 14158, Note_off_c, 0, 40, 64
1, 14158, Note_off_c, 0, 65, 64
1, 14158, Note_on_c, 0, 77, 32
1, 14158, Note_off_c, 0, 89, 64
1, 14158, Note_off_c, 0, 98, 64
1, 14159, Note_on_c, 0, 37, 80
1, 14159, Note_off_c, 0, 38, 64
1, 14159, Note_off_c, 0, 70, 64
1, 14159, Note_off_c, 0, 73, 64
1, 14159, Note_off_c, 0, 82, 64
1, 14159, Note_on_c, 0, 83, 42
1, 14159, Note_off_c, 0, 85, 64
1, 14160, Note_on_c, 0, 35, 78
1, 14160, Note_off_c, 0, 37, 64
1, 14160, Note_on_c, 0, 63, 30
1, 14160, Note_on_c, 0, 73, 31
1, 14160, Note_off_c, 0, 75, 64
1, 14160, Note_on_c, 0, 78, 34
1, 14160, Note_on_c, 0, 85, 40
1, 14161, Note_on_c, 0, 34, 77
1, 14161, Note_off_c, 0, 35, 64
1, 14161, Note_off_c, 0, 53, 64
1, 14161, Note_on_c, 0, 74, 32
1, 14161, Note_on_c, 0, 76, 30
1, 14161, Note_off_c, 0, 77, 64
1, 14161, Note_off_c, 0, 79, 64
1, 14161, Note_on_c, 0, 84, 40
1, 14161, Note_off_c, 0, 86, 64
1, 14161, Note_on_c, 0, 87, 40
1, 14161, Note_on_c, 0, 89, 33
1, 14162, Note_on_c, 0, 33, 77
1, 14162, Note_off_c, 0, 34, 64
1, 14162, Note_on_c, 0, 56, 16
1, 14162, Note_off_c, 0, 63, 64
1, 14162, Note_on_c, 0, 66, 39
1, 14162, Note_off_c, 0, 67, 64
1, 14162, Note_off_c, 0, 73, 64
1, 14163, Note_on_c, 0, 73, 35
1, 14163, Note_off_c, 0, 74, 64
1, 14163, Note_on_c, 0, 79, 36
1, 14163, Note_off_c, 0, 83, 64
1, 14164, Note_on_c, 0, 32, 78
1, 14164, Note_off_c, 0, 33, 64
1, 14164, Note_on_c, 0, 74, 34
1, 14164, Note_on_c, 0, 82, 35
1, 14164, Note_off_c, 0, 84, 64
1, 14164, Note_off_c, 0, 87, 64
1, 14165, Note_on_c, 0, 55, 20
1, 14165, Note_off_c, 0, 56, 64
1, 14165, Note_on_c, 0, 71, 30
1, 14165, Note_off_c, 0, 73, 64
1, 14165, Note_off_c, 0, 79, 64
1, 14165, Note_on_c, 0, 84, 22
1, 14166, Note_on_c, 0, 31, 75
1, 14166, Note_off_c, 0, 32, 64
1, 14166, Note_on_c, 0, 70, 28
1, 14166, Note_off_c, 0, 74, 64
1, 14166, Note_on_c, 0, 79, 39
1, 14166, Note_off_c, 0, 92, 64
1, 14167, Note_on_c, 0, 30, 69
1, 14167, Note_off_c, 0, 31, 64
1, 14167, Note_off_c, 0, 71, 64
1, 14167, Note_on_c, 0, 74, 34
1, 14167, Note_off_c, 0, 78, 64
1, 14167, Note_off_c, 0, 81, 64
1, 14167, Note_off_c, 0, 85, 64
1, 14167, Note_on_c, 0, 87, 30
1, 14167, Note_on_c, 0, 92, 40
1, 14168, Note_off_c, 0, 55, 64
1, 14168, Note_off_c, 0, 79, 64
1, 14168, Note_on_c, 0, 81, 35
1, 14168, Note_on_c, 0, 83, 37
1, 14168, Note_off_c, 0, 84, 64
1, 14168, Note_on_c, 0, 85, 37
1, 14168, Note_on_c, 0, 91, 30
1, 14169, Note_off_c, 0, 30, 64
1, 14169, Note_off_c, 0, 66, 64
1, 14169, Note_off_c, 0, 70, 64
1, 14169, Note_off_c, 0, 76, 64
1, 14169, Note_off_c, 0, 82, 64
1, 14170, Note_on_c, 0, 70, 25
1, 14170, Note_off_c, 0, 74, 64
1, 14170, Note_on_c, 0, 79, 34
1, 14170, Note_on_c, 0, 90, 34
1, 14170, Note_off_c, 0, 91, 64
1, 14170, Note_on_c, 0, 98, 21
1, 14171, Note_on_c, 0, 72, 29
1, 14171, Note_on_c, 0, 82, 27
1, 14172, Note_on_c, 0, 61, 13
1, 14172, Note_on_c, 0, 64, 22
1, 14172, Note_on_c, 0, 67, 24
1, 14172, Note_on_c, 0, 77, 31
1, 14172, Note_on_c, 0, 94, 32
1, 14173, Note_on_c, 0, 74, 35
1, 14173, Note_off_c, 0, 79, 64
1, 14173, Note_off_c, 0, 83, 64
1, 14174, Note_off_c, 0, 72, 64
1, 14174, Note_off_c, 0, 82, 64
1, 14174, Note_on_c, 0, 83, 34
1, 14174, Note_on_c, 0, 91, 23
1, 14175, Note_off_c, 0, 61, 64
1, 14175, Note_off_c, 0, 64, 64
1, 14175, Note_off_c, 0, 67, 64
1, 14175, Note_on_c, 0, 68, 33
1, 14175, Note_off_c, 0, 70, 64
1, 14175, Note_off_c, 0, 74, 64
1, 14175, Note_on_c, 0, 76, 30
1, 14175, Note_off_c, 0, 88, 64
1, 14175, Note_off_c, 0, 98, 64
1, 14176, Note_off_c, 0, 77, 64
1, 14176, Note_off_c, 0, 81, 64
1, 14176, Note_on_c, 0, 82, 38
1, 14176, Note_off_c, 0, 83, 64
1, 14176, Note_on_c, 0, 84, 36
1, 14177, Note_on_c, 0, 73, 43
1, 14177, Note_off_c, 0, 76, 64
1, 14177, Note_on_c, 0, 78, 26
1, 14177, Note_off_c, 0, 85, 64
1, 14177, Note_on_c, 0, 88, 45
1, 14177, Note_off_c, 0, 89, 64
1, 14177, Note_on_c, 0, 97, 9
1, 14178, Note_on_c, 0, 89, 29
1, 14179, Note_on_c, 0, 74, 49
1, 14179, Note_on_c, 0, 76, 29
1, 14179, Note_on_c, 0, 81, 35
1, 14179, Note_off_c, 0, 90, 64
1, 14179, Note_off_c, 0, 91, 64
1, 14179, Note_on_c, 0, 95, 20
1, 14179, Note_off_c, 0, 96, 64
1, 14180, Note_on_c, 0, 72, 26
1, 14180, Note_off_c, 0, 73, 64
1, 14180, Note_off_c, 0, 82, 64
1, 14180, Note_on_c, 0, 83, 32
1, 14180, Note_off_c, 0, 84, 64
1, 14180, Note_on_c, 0, 85, 38
1, 14181, Note_on_c, 0, 67, 36
1, 14181, Note_off_c, 0, 68, 64
1, 14181, Note_off_c, 0, 76, 64
1, 14181, Note_off_c, 0, 78, 64
1, 14181, Note_on_c, 0, 80, 25
1, 14181, Note_on_c, 0, 90, 32
1, 14181, Note_off_c, 0, 97, 64
1, 14182, Note_on_c, 0, 78, 33
1, 14182, Note_on_c, 0, 82, 30
1, 14182, Note_off_c, 0, 89, 64
1, 14183, Note_off_c, 0, 67, 64
1, 14183, Note_off_c, 0, 81, 64
1, 14183, Note_off_c, 0, 83, 64
1, 14183, Note_off_c, 0, 87, 64
1, 14183, Note_on_c, 0, 89, 35
1, 14183, Note_on_c, 0, 91, 30
1, 14183, Note_on_c, 0, 99, 11
1, 14184, Note_on_c, 0, 64, 37
1, 14184, Note_off_c, 0, 72, 64
1, 14184, Note_on_c, 0, 73, 36
1, 14184, Note_on_c, 0, 77, 20
1, 14184, Note_off_c, 0, 80, 64
1, 14184, Note_on_c, 0, 81, 26
1, 14185, Note_off_c, 0, 74, 64
1, 14186, Note_on_c, 0, 68, 28
1, 14186, Note_off_c, 0, 73, 64
1, 14186, Note_on_c, 0, 74, 48
1, 14186, Note_off_c, 0, 78, 64
1, 14186, Note_off_c, 0, 82, 64
1, 14186, Note_on_c, 0, 83, 31
1, 14186, Note_on_c, 0, 87, 33
1, 14187, Note_on_c, 0, 70, 40
1, 14187, Note_on_c, 0, 73, 36
1, 14188, Note_on_c, 0, 56, 11
1, 14188, Note_off_c, 0, 64, 64
1, 14188, Note_off_c, 0, 74, 64
1, 14188, Note_on_c, 0, 75, 40
1, 14188, Note_off_c, 0, 77, 64
1, 14188, Note_on_c, 0, 78, 24
1, 14188, Note_on_c, 0, 82, 47
1, 14188, Note_off_c, 0, 83, 64
1, 14188, Note_on_c, 0, 84, 41
1, 14188, Note_off_c, 0, 91, 64
1, 14189, Note_off_c, 0, 90, 64
1, 14189, Note_on_c, 0, 91, 25
1, 14189, Note_off_c, 0, 95, 64
1, 14189, Note_off_c, 0, 99, 64
1, 14190, Note_off_c, 0, 81, 64
1, 14190, Note_on_c, 0, 95, 21
1, 14191, Note_off_c, 0, 56, 64
1, 14191, Note_off_c, 0, 68, 64
1, 14191, Note_off_c, 0, 73, 64
1, 14191, Note_on_c, 0, 74, 37
1, 14191, Note_off_c, 0, 75, 64
1, 14191, Note_on_c, 0, 86, 38
1, 14191, Note_on_c, 0, 90, 32
1, 14192, Note_on_c, 0, 66, 30
1, 14192, Note_off_c, 0, 78, 64
1, 14192, Note_on_c, 0, 80, 32
1, 14192, Note_off_c, 0, 85, 64
1, 14193, Note_on_c, 0, 59, 30
1, 14193, Note_on_c, 0, 69, 29
1, 14193, Note_off_c, 0, 70, 64
1, 14193, Note_on_c, 0, 73, 37
1, 14193, Note_off_c, 0, 74, 64
1, 14193, Note_on_c, 0, 83, 33
1, 14193, Note_off_c, 0, 84, 64
1, 14193, Note_on_c, 0, 85, 44
1, 14193, Note_off_c, 0, 95, 64
1, 14194, Note_off_c, 0, 80, 64
1, 14194, Note_off_c, 0, 86, 64
1, 14194, Note_off_c, 0, 91, 64
1, 14194, Note_on_c, 0, 93, 17
1, 14195, Note_off_c, 0, 59, 64
1, 14195, Note_off_c, 0, 66, 64
1, 14195, Note_on_c, 0, 68, 32
1, 14195, Note_off_c, 0, 69, 64
1, 14195, Note_on_c, 0, 75, 32
1, 14195, Note_on_c, 0, 78, 26
1, 14195, Note_on_c, 0, 84, 28
1, 14195, Note_off_c, 0, 89, 64
1, 14196, Note_on_c, 0, 70, 36
1, 14196, Note_off_c, 0, 83, 64
1, 14196, Note_off_c, 0, 88, 64
1, 14197, Note_on_c, 0, 64, 31
1, 14197, Note_off_c, 0, 68, 64
1, 14197, Note_on_c, 0, 72, 28
1, 14197, Note_off_c, 0, 73, 64
1, 14197, Note_on_c, 0, 79, 34
1, 14197, Note_on_c, 0, 88, 41
1, 14198, Note_on_c, 0, 66, 36
1, 14198, Note_off_c, 0, 78, 64
1, 14198, Note_on_c, 0, 83, 53
1, 14198, Note_on_c, 0, 86, 32
1, 14198, Note_on_c, 0, 89, 37
1, 14198, Note_off_c, 0, 93, 64
1, 14199, Note_off_c, 0, 64, 64
1, 14199, Note_off_c, 0, 82, 64
1, 14199, Note_off_c, 0, 87, 64
1, 14200, Note_off_c, 0, 72, 64
1, 14200, Note_on_c, 0, 76, 27
1, 14200, Note_off_c, 0, 79, 64
1, 14200, Note_on_c, 0, 82, 43
1, 14200, Note_off_c, 0, 86, 64
1, 14200, Note_on_c, 0, 91, 34
1, 14200, Note_on_c, 0, 93, 28
1, 14201, Note_off_c, 0, 70, 64
1, 14201, Note_on_c, 0, 71, 22
1, 14201, Note_off_c, 0, 75, 64
1, 14201, Note_on_c, 0, 86, 35
1, 14201, Note_on_c, 0, 87, 30
1, 14202, Note_off_c, 0, 90, 64
1, 14202, Note_off_c, 0, 92, 64
1, 14203, Note_on_c, 0, 60, 37
1, 14203, Note_on_c, 0, 80, 35
1, 14203, Note_off_c, 0, 84, 64
1, 14203, Note_off_c, 0, 86, 64
1, 14204, Note_off_c, 0, 71, 64
1, 14204, Note_on_c, 0, 74, 26
1, 14204, Note_off_c, 0, 85, 64
1, 14204, Note_off_c, 0, 87, 64
1, 14205, Note_on_c, 0, 70, 27
1, 14205, Note_off_c, 0, 93, 64
1, 14206, Note_off_c, 0, 66, 64
1, 14206, Note_on_c, 0, 67, 34
1, 14206, Note_on_c, 0, 85, 35
1, 14207, Note_on_c, 0, 73, 44
1, 14207, Note_off_c, 0, 74, 64
1, 14207, Note_on_c, 0, 75, 31
1, 14207, Note_off_c, 0, 76, 64
1, 14207, Note_on_c, 0, 87, 37
1, 14208, Note_off_c, 0, 67, 64
1, 14208, Note_off_c, 0, 70, 64
1, 14208, Note_on_c, 0, 77, 30
1, 14208, Note_off_c, 0, 88, 64
1, 14208, Note_off_c, 0, 94, 64
1, 14209, Note_off_c, 0, 60, 64
1, 14209, Note_on_c, 0, 81, 26
1, 14209, Note_off_c, 0, 83, 64
1, 14209, Note_on_c, 0, 86, 30
1, 14209, Note_on_c, 0, 90, 27
1, 14210, Note_on_c, 0, 48, 67
1, 14210, Note_off_c, 0, 80, 64
1, 14210, Note_off_c, 0, 82, 64
1, 14211, Note_on_c, 0, 45, 78
1, 14211, Note_off_c, 0, 48, 64
1, 14211, Note_on_c, 0, 65, 21
1, 14211, Note_on_c, 0, 70, 29
1, 14211, Note_off_c, 0, 77, 64
1, 14211, Note_on_c, 0, 78, 25
1, 14211, Note_on_c, 0, 82, 29
1, 14211, Note_off_c, 0, 85, 64
1, 14212, Note_on_c, 0, 42, 84
1, 14212, Note_off_c, 0, 45, 64
1, 14212, Note_off_c, 0, 75, 64
1, 14212, Note_on_c, 0, 76, 17
1, 14212, Note_on_c, 0, 88, 30
1, 14212, Note_off_c, 0, 91, 64
1, 14213, Note_on_c, 0, 40, 83
1, 14213, Note_off_c, 0, 42, 64
1, 14213, Note_on_c, 0, 79, 21
1, 14213, Note_off_c, 0, 81, 64
1, 14213, Note_on_c, 0, 84, 19
1, 14213, Note_off_c, 0, 87, 64
1, 14214, Note_on_c, 0, 38, 83
1, 14214, Note_off_c, 0, 40, 64
1, 14214, Note_on_c, 0, 64, 25
1, 14214, Note_off_c, 0, 65, 64
1, 14214, Note_off_c, 0, 70, 64
1, 14214, Note_off_c, 0, 82, 64
1, 14214, Note_on_c, 0, 83, 36
1, 14214, Note_off_c, 0, 89, 64
1, 14215, Note_on_c, 0, 36, 82
1, 14215, Note_off_c, 0, 38, 64
1, 14215, Note_on_c, 0, 68, 32
1, 14215, Note_off_c, 0, 76, 64
1, 14215, Note_off_c, 0, 78, 64
1, 14216, Note_on_c, 0, 35, 81
1, 14216, Note_off_c, 0, 36, 64
1, 14216, Note_on_c, 0, 82, 40
1, 14216, Note_off_c, 0, 84, 64
1, 14216, Note_on_c, 0, 89, 21
1, 14216, Note_on_c, 0, 91, 26
1, 14216, Note_on_c, 0, 96, 26
1, 14217, Note_on_c, 0, 34, 80
1, 14217, Note_off_c, 0, 35, 64
1, 14217, Note_off_c, 0, 64, 64
1, 14217, Note_on_c, 0, 70, 25
1, 14217, Note_on_c, 0, 76, 38
1, 14217, Note_off_c, 0, 86, 64
1, 14217, Note_on_c, 0, 87, 36
1, 14218, Note_on_c, 0, 33, 81
1, 14218, Note_off_c, 0, 34, 64
1, 14218, Note_on_c, 0, 84, 31
1, 14218, Note_off_c, 0, 88, 64
1, 14219, Note_off_c, 0, 68, 64
1, 14219, Note_off_c, 0, 79, 64
1, 14219, Note_on_c, 0, 86, 25
1, 14219, Note_off_c, 0, 90, 64
1, 14220, Note_on_c, 0, 32, 82
1, 14220, Note_off_c, 0, 33, 64
1, 14220, Note_on_c, 0, 66, 29
1, 14220, Note_on_c, 0, 81, 38
1, 14220, Note_off_c, 0, 83, 64
1, 14220, Note_off_c, 0, 87, 64
1, 14220, Note_on_c, 0, 88, 38
1, 14220, Note_off_c, 0, 89, 64
1, 14220, Note_on_c, 0, 90, 28
1, 14221, Note_on_c, 0, 31, 81
1, 14221, Note_off_c, 0, 32, 64
1, 14221, Note_off_c, 0, 73, 64
1, 14221, Note_on_c, 0, 74, 35
1, 14221, Note_on_c, 0, 77, 36
1, 14222, Note_on_c, 0, 64, 24
1, 14222, Note_on_c, 0, 73, 38
1, 14222, Note_off_c, 0, 76, 64
1, 14222, Note_on_c, 0, 83, 45
1, 14223, Note_on_c, 0, 30, 73
1, 14223, Note_off_c, 0, 31, 64
1, 14223, Note_off_c, 0, 66, 64
1, 14223, Note_off_c, 0, 74, 64
1, 14223, Note_on_c, 0, 92, 32
1, 14224, Note_off_c, 0, 81, 64
1, 14224, Note_off_c, 0, 86, 64
1, 14224, Note_on_c, 0, 87, 23
1, 14224, Note_off_c, 0, 88, 64
1, 14225, Note_on_c, 0, 78, 17
1, 14225, Note_off_c, 0, 82, 64
1, 14225, Note_off_c, 0, 84, 64
1, 14225, Note_off_c, 0, 91, 64
1, 14226, Note_off_c, 0, 30, 64
1, 14226, Note_off_c, 0, 64, 64
1, 14226, Note_on_c, 0, 82, 39
1, 14226, Note_on_c, 0, 84, 33
1, 14226, Note_on_c, 0, 88, 30
1, 14226, Note_on_c, 0, 98, 12
1, 14227, Note_off_c, 0, 70, 64
1, 14227, Note_on_c, 0, 71, 32
1, 14227, Note_on_c, 0, 75, 25
1, 14227, Note_off_c, 0, 77, 64
1, 14227, Note_on_c, 0, 89, 34
1, 14228, Note_off_c, 0, 87, 64
1, 14229, Note_off_c, 0, 71, 64
1, 14229, Note_on_c, 0, 77, 27
1, 14229, Note_off_c, 0, 78, 64
1, 14229, Note_off_c, 0, 84, 64
1, 14229, Note_on_c, 0, 85, 42
1, 14230, Note_on_c, 0, 66, 30
1, 14230, Note_on_c, 0, 72, 34
1, 14230, Note_off_c, 0, 73, 64
1, 14230, Note_off_c, 0, 75, 64
1, 14230, Note_on_c, 0, 79, 31
1, 14230, Note_off_c, 0, 82, 64
1, 14230, Note_on_c, 0, 86, 27
1, 14230, Note_off_c, 0, 88, 64
1, 14230, Note_off_c, 0, 98, 64
1, 14231, Note_off_c, 0, 90, 64
1, 14232, Note_off_c, 0, 66, 64
1, 14232, Note_on_c, 0, 68, 31
1, 14232, Note_on_c, 0, 74, 23
1, 14232, Note_off_c, 0, 77, 64
1, 14232, Note_off_c, 0, 83, 64
1, 14233, Note_on_c, 0, 64, 35
1, 14233, Note_on_c, 0, 83, 38
1, 14233, Note_on_c, 0, 87, 36
1, 14234, Note_on_c, 0, 77, 37
1, 14234, Note_off_c, 0, 79, 64
1, 14235, Note_off_c, 0, 64, 64
1, 14235, Note_on_c, 0, 67, 41
1, 14235, Note_off_c, 0, 68, 64
1, 14235, Note_off_c, 0, 72, 64
1, 14235, Note_on_c, 0, 75, 33
1, 14236, Note_off_c, 0, 74, 64
1, 14236, Note_off_c, 0, 86, 64
1, 14236, Note_on_c, 0, 88, 34
1, 14237, Note_on_c, 0, 74, 51
1, 14237, Note_on_c, 0, 84, 38
1, 14237, Note_on_c, 0, 93, 32
1, 14238, Note_on_c, 0, 64, 31
1, 14238, Note_off_c, 0, 75, 64
1, 14238, Note_on_c, 0, 80, 32
1, 14238, Note_on_c, 0, 82, 26
1, 14238, Note_off_c, 0, 85, 64
1, 14238, Note_off_c, 0, 89, 64
1, 14239, Note_off_c, 0, 83, 64
1, 14239, Note_on_c, 0, 85, 30
1, 14240, Note_off_c, 0, 64, 64
1, 14240, Note_off_c, 0, 67, 64
1, 14240, Note_on_c, 0, 68, 32
1, 14240, Note_on_c, 0, 78, 39
1, 14241, Note_on_c, 0, 71, 32
1, 14241, Note_off_c, 0, 77, 64
1, 14241, Note_off_c, 0, 96, 64
1, 14242, Note_on_c, 0, 51, 22
1, 14242, Note_on_c, 0, 77, 35
1, 14242, Note_off_c, 0, 78, 64
1, 14242, Note_off_c, 0, 82, 64
1, 14242, Note_on_c, 0, 83, 40
1, 14242, Note_on_c, 0, 98, 12
1, 14243, Note_off_c, 0, 71, 64
1, 14243, Note_on_c, 0, 72, 27
1, 14243, Note_on_c, 0, 91, 29
1, 14244, Note_off_c, 0, 68, 64
1, 14244, Note_off_c, 0, 74, 64
1, 14244, Note_on_c, 0, 75, 47
1, 14244, Note_on_c, 0, 79, 31
1, 14244, Note_off_c, 0, 80, 64
1, 14244, Note_off_c, 0, 85, 64
1, 14244, Note_off_c, 0, 87, 64
1, 14245, Note_on_c, 0, 70, 26
1, 14245, Note_on_c, 0, 74, 37
1, 14245, Note_off_c, 0, 77, 64
1, 14245, Note_on_c, 0, 78, 31
1, 14246, Note_on_c, 0, 66, 41
1, 14246, Note_off_c, 0, 72, 64
1, 14246, Note_off_c, 0, 75, 64
1, 14246, Note_on_c, 0, 76, 31
1, 14246, Note_on_c, 0, 81, 29
1, 14247, Note_off_c, 0, 51, 64
1, 14247, Note_off_c, 0, 78, 64
1, 14247, Note_off_c, 0, 88, 64
1, 14248, Note_off_c, 0, 76, 64
1, 14248, Note_on_c, 0, 85, 21
1, 14248, Note_on_c, 0, 88, 30
1, 14248, Note_on_c, 0, 94, 16
1, 14249, Note_on_c, 0, 68, 32
1, 14249, Note_on_c, 0, 72, 32
1, 14249, Note_off_c, 0, 79, 64
1, 14249, Note_on_c, 0, 80, 32
1, 14249, Note_off_c, 0, 84, 64
1, 14249, Note_off_c, 0, 91, 64
1, 14249, Note_on_c, 0, 102, 9
1, 14250, Note_off_c, 0, 66, 64
1, 14250, Note_on_c, 0, 78, 40
1, 14250, Note_off_c, 0, 81, 64
1, 14250, Note_on_c, 0, 82, 43
1, 14250, Note_on_c, 0, 87, 42
1, 14251, Note_on_c, 0, 66, 35
1, 14251, Note_off_c, 0, 70, 64
1, 14251, Note_off_c, 0, 74, 64
1, 14251, Note_on_c, 0, 86, 30
1, 14251, Note_off_c, 0, 88, 64
1, 14251, Note_off_c, 0, 98, 64
1, 14252, Note_on_c, 0, 70, 27
1, 14252, Note_off_c, 0, 72, 64
1, 14252, Note_on_c, 0, 74, 35
1, 14252, Note_off_c, 0, 85, 64
1, 14252, Note_on_c, 0, 91, 32
1, 14253, Note_off_c, 0, 66, 64
1, 14253, Note_on_c, 0, 67, 33
1, 14253, Note_off_c, 0, 68, 64
1, 14253, Note_on_c, 0, 88, 37
1, 14253, Note_off_c, 0, 102, 64
1, 14254, Note_on_c, 0, 66, 48
1, 14254, Note_on_c, 0, 71, 32
1, 14254, Note_on_c, 0, 85, 37
1, 14254, Note_off_c, 0, 86, 64
1, 14254, Note_on_c, 0, 89, 24
1, 14254, Note_on_c, 0, 98, 15
1, 14255, Note_off_c, 0, 67, 64
1, 14255, Note_off_c, 0, 70, 64
1, 14255, Note_on_c, 0, 73, 38
1, 14255, Note_on_c, 0, 77, 39
1, 14255, Note_off_c, 0, 78, 64
1, 14255, Note_on_c, 0, 81, 34
1, 14255, Note_off_c, 0, 82, 64
1, 14255, Note_off_c, 0, 92, 64
1, 14255, Note_off_c, 0, 94, 64
1, 14256, Note_off_c, 0, 66, 64
1, 14256, Note_off_c, 0, 71, 64
1, 14256, Note_off_c, 0, 74, 64
1, 14256, Note_off_c, 0, 80, 64
1, 14256, Note_on_c, 0, 82, 44
1, 14256, Note_off_c, 0, 91, 64
1, 14256, Note_on_c, 0, 92, 38
1, 14257, Note_on_c, 0, 48, 70
1, 14257, Note_on_c, 0, 66, 42
1, 14257, Note_off_c, 0, 73, 64
1, 14257, Note_on_c, 0, 74, 51
1, 14257, Note_on_c, 0, 76, 28
1, 14257, Note_off_c, 0, 77, 64
1, 14257, Note_on_c, 0, 80, 27
1, 14257, Note_off_c, 0, 81, 64
1, 14257, Note_off_c, 0, 85, 64
1, 14257, Note_off_c, 0, 87, 64
1, 14257, Note_on_c, 0, 91, 27
1, 14257, Note_off_c, 0, 98, 64
1, 14258, Note_on_c, 0, 44, 81
1, 14258, Note_off_c, 0, 48, 64
1, 14258, Note_on_c, 0, 85, 32
1, 14258, Note_on_c, 0, 87, 28
1, 14258, Note_off_c, 0, 93, 64
1, 14259, Note_on_c, 0, 42, 87
1, 14259, Note_off_c, 0, 44, 64
1, 14259, Note_off_c, 0, 66, 64
1, 14259, Note_on_c, 0, 73, 33
1, 14259, Note_off_c, 0, 82, 64
1, 14259, Note_on_c, 0, 93, 28
1, 14259, Note_on_c, 0, 94, 17
1, 14260, Note_on_c, 0, 40, 84
1, 14260, Note_off_c, 0, 42, 64
1, 14260, Note_on_c, 0, 70, 26
1, 14260, Note_off_c, 0, 74, 64
1, 14260, Note_on_c, 0, 78, 41
1, 14260, Note_off_c, 0, 88, 64
1, 14261, Note_on_c, 0, 38, 85
1, 14261, Note_off_c, 0, 40, 64
1, 14261, Note_on_c, 0, 66, 48
1, 14261, Note_on_c, 0, 79, 33
1, 14261, Note_on_c, 0, 82, 43
1, 14261, Note_off_c, 0, 83, 64
1, 14261, Note_on_c, 0, 88, 39
1, 14261, Note_off_c, 0, 89, 64
1, 14261, Note_on_c, 0, 98, 22
1, 14262, Note_on_c, 0, 36, 85
1, 14262, Note_off_c, 0, 38, 64
1, 14262, Note_off_c, 0, 80, 64
1, 14262, Note_on_c, 0, 81, 22
1, 14262, Note_on_c, 0, 89, 29
1, 14263, Note_on_c, 0, 35, 84
1, 14263, Note_off_c, 0, 36, 64
1, 14263, Note_on_c, 0, 75, 30
1, 14263, Note_off_c, 0, 76, 64
1, 14263, Note_off_c, 0, 87, 64
1, 14263, Note_off_c, 0, 94, 64
1, 14264, Note_on_c, 0, 34, 83
1, 14264, Note_off_c, 0, 35, 64
1, 14264, Note_on_c, 0, 72, 42
1, 14264, Note_off_c, 0, 79, 64
1, 14264, Note_on_c, 0, 95, 27
1, 14265, Note_on_c, 0, 33, 83
1, 14265, Note_off_c, 0, 34, 64
1, 14265, Note_off_c, 0, 73, 64
1, 14265, Note_off_c, 0, 81, 64
1, 14265, Note_off_c, 0, 91, 64
1, 14266, Note_on_c, 0, 56, 17
1, 14266, Note_off_c, 0, 70, 64
1, 14266, Note_on_c, 0, 79, 27
1, 14266, Note_on_c, 0, 81, 31
1, 14266, Note_off_c, 0, 89, 64
1, 14266, Note_off_c, 0, 93, 64
1, 14267, Note_on_c, 0, 32, 84
1, 14267, Note_off_c, 0, 33, 64
1, 14267, Note_on_c, 0, 70, 35
1, 14267, Note_off_c, 0, 78, 64
1, 14267, Note_off_c, 0, 85, 64
1, 14267, Note_on_c, 0, 86, 23
1, 14267, Note_on_c, 0, 97, 22
1, 14268, Note_on_c, 0, 31, 83
1, 14268, Note_off_c, 0, 32, 64
1, 14268, Note_off_c, 0, 72, 64
1, 14268, Note_on_c, 0, 73, 49
1, 14268, Note_off_c, 0, 75, 64
1, 14269, Note_off_c, 0, 56, 64
1, 14269, Note_off_c, 0, 66, 64
1, 14269, Note_on_c, 0, 77, 32
1, 14269, Note_on_c, 0, 83, 35
1, 14270, Note_on_c, 0, 30, 74
1, 14270, Note_off_c, 0, 31, 64
1, 14270, Note_off_c, 0, 81, 64
1, 14270, Note_on_c, 0, 99, 25
1, 14271, Note_off_c, 0, 73, 64
1, 14271, Note_on_c, 0, 80, 28
1, 14271, Note_on_c, 0, 96, 26
1, 14272, Note_on_c, 0, 55, 24
1, 14272, Note_on_c, 0, 63, 13
1, 14272, Note_on_c, 0, 68, 30
1, 14272, Note_on_c, 0, 73, 53
1, 14272, Note_off_c, 0, 77, 64
1, 14272, Note_on_c, 0, 78, 47
1, 14272, Note_off_c, 0, 79, 64
1, 14272, Note_off_c, 0, 86, 64
1, 14272, Note_off_c, 0, 95, 64
1, 14273, Note_off_c, 0, 30, 64
1, 14273, Note_on_c, 0, 74, 44
1, 14273, Note_on_c, 0, 89, 27
1, 14274, Note_off_c, 0, 68, 64
1, 14274, Note_off_c, 0, 73, 64
1, 14274, Note_on_c, 0, 76, 41
1, 14274, Note_on_c, 0, 87, 41
1, 14274, Note_off_c, 0, 98, 64
1, 14275, Note_off_c, 0, 55, 64
1, 14275, Note_on_c, 0, 66, 48
1, 14275, Note_on_c, 0, 91, 21
1, 14275, Note_on_c, 0, 98, 29
1, 14276, Note_off_c, 0, 70, 64
1, 14276, Note_off_c, 0, 80, 64
1, 14276, Note_off_c, 0, 87, 64
1, 14276, Note_off_c, 0, 89, 64
1, 14277, Note_off_c, 0, 63, 64
1, 14277, Note_off_c, 0, 83, 64
1, 14277, Note_on_c, 0, 84, 20
1, 14277, Note_on_c, 0, 87, 20
1, 14277, Note_off_c, 0, 99, 64
1, 14278, Note_on_c, 0, 83, 24
1, 14278, Note_on_c, 0, 85, 44
1, 14278, Note_off_c, 0, 91, 64
1, 14279, Note_on_c, 0, 70, 31
1, 14279, Note_off_c, 0, 74, 64
1, 14279, Note_on_c, 0, 80, 33
1, 14280, Note_on_c, 0, 53, 22
1, 14280, Note_on_c, 0, 72, 34
1, 14280, Note_on_c, 0, 74, 48
1, 14280, Note_off_c, 0, 76, 64
1, 14280, Note_on_c, 0, 89, 28
1, 14280, Note_on_c, 0, 91, 19
1, 14280, Note_on_c, 0, 95, 42
1, 14280, Note_off_c, 0, 97, 64
1, 14281, Note_off_c, 0, 66, 64
1, 14281, Note_on_c, 0, 67, 33
1, 14281, Note_off_c, 0, 78, 64
1, 14282, Note_off_c, 0, 72, 64
1, 14282, Note_on_c, 0, 78, 29
1, 14282, Note_off_c, 0, 83, 64
1, 14282, Note_off_c, 0, 92, 64
1, 14282, Note_off_c, 0, 96, 64
1, 14283, Note_off_c, 0, 70, 64
1, 14283, Note_on_c, 0, 81, 26
1, 14283, Note_off_c, 0, 85, 64
1, 14283, Note_off_c, 0, 87, 64
1, 14283, Note_off_c, 0, 91, 64
1, 14283, Note_on_c, 0, 92, 39
1, 14283, Note_on_c, 0, 96, 30
1, 14284, Note_off_c, 0, 53, 64
1, 14284, Note_on_c, 0, 72, 33
1, 14284, Note_on_c, 0, 73, 36
1, 14284, Note_off_c, 0, 74, 64
1, 14284, Note_on_c, 0, 76, 29
1, 14284, Note_off_c, 0, 80, 64
1, 14284, Note_off_c, 0, 84, 64
1, 14284, Note_on_c, 0, 87, 23
1, 14284, Note_off_c, 0, 88, 64
1, 14285, Note_on_c, 0, 51, 33
1, 14285, Note_off_c, 0, 67, 64
1, 14286, Note_off_c, 0, 72, 64
1, 14286, Note_off_c, 0, 76, 64
1, 14286, Note_off_c, 0, 78, 64
1, 14286, Note_on_c, 0, 79, 19
1, 14286, Note_off_c, 0, 81, 64
1, 14287, Note_off_c, 0, 51, 64
1, 14287, Note_on_c, 0, 66, 44
1, 14287, Note_off_c, 0, 96, 64
1, 14288, Note_on_c, 0, 70, 26
1, 14288, Note_off_c, 0, 73, 64
1, 14288, Note_on_c, 0, 76, 27
1, 14288, Note_on_c, 0, 93, 34
1, 14288, Note_on_c, 0, 96, 24
1, 14289, Note_on_c, 0, 73, 51
1, 14289, Note_on_c, 0, 81, 23
1, 14290, Note_on_c, 0, 86, 25
1, 14291, Note_off_c, 0, 73, 64
1, 14291, Note_on_c, 0, 74, 52
1, 14291, Note_off_c, 0, 76, 64
1, 14291, Note_off_c, 0, 82, 64
1, 14292, Note_on_c, 0, 55, 34
1, 14292, Note_off_c, 0, 70, 64
1, 14292, Note_on_c, 0, 77, 20
1, 14292, Note_off_c, 0, 81, 64
1, 14292, Note_on_c, 0, 88, 39
1, 14293, Note_on_c, 0, 73, 56
1, 14293, Note_on_c, 0, 81, 21
1, 14293, Note_on_c, 0, 83, 20
1, 14293, Note_off_c, 0, 87, 64
1, 14294, Note_off_c, 0, 74, 64
1, 14294, Note_off_c, 0, 79, 64
1, 14294, Note_on_c, 0, 80, 17
1, 14294, Note_off_c, 0, 86, 64
1, 14294, Note_off_c, 0, 96, 64
1, 14294, Note_on_c, 0, 99, 27
1, 14295, Note_on_c, 0, 86, 23
1, 14295, Note_off_c, 0, 89, 64
1, 14295, Note_on_c, 0, 96, 25
1, 14296, Note_off_c, 0, 77, 64
1, 14296, Note_off_c, 0, 83, 64
1, 14296, Note_on_c, 0, 91, 34
1, 14297, Note_on_c, 0, 74, 45
1, 14297, Note_on_c, 0, 89, 37
1, 14297, Note_off_c, 0, 93, 64
1, 14297, Note_on_c, 0, 97, 33
1, 14298, Note_on_c, 0, 83, 27
1, 14299, Note_off_c, 0, 66, 64
1, 14299, Note_off_c, 0, 74, 64
1, 14299, Note_on_c, 0, 75, 48
1, 14299, Note_off_c, 0, 80, 64
1, 14299, Note_on_c, 0, 93, 40
1, 14299, Note_off_c, 0, 95, 64
1, 14300, Note_off_c, 0, 55, 64
1, 14300, Note_on_c, 0, 76, 49
1, 14300, Note_on_c, 0, 82, 41
1, 14300, Note_on_c, 0, 84, 23
1, 14300, Note_off_c, 0, 86, 64
1, 14300, Note_on_c, 0, 95, 29
1, 14301, Note_on_c, 0, 68, 39
1, 14301, Note_off_c, 0, 81, 64
1, 14301, Note_on_c, 0, 86, 36
1, 14301, Note_off_c, 0, 88, 64
1, 14302, Note_off_c, 0, 75, 64
1, 14303, Note_off_c, 0, 68, 64
1, 14303, Note_on_c, 0, 75, 39
1, 14303, Note_off_c, 0, 76, 64
1, 14304, Note_on_c, 0, 48, 73
1, 14304, Note_on_c, 0, 66, 41
1, 14304, Note_on_c, 0, 76, 38
1, 14304, Note_off_c, 0, 84, 64
1, 14304, Note_off_c, 0, 86, 64
1, 14304, Note_off_c, 0, 91, 64
1, 14305, Note_on_c, 0, 44, 82
1, 14305, Note_off_c, 0, 48, 64
1, 14305, Note_on_c, 0, 70, 35
1, 14305, Note_on_c, 0, 72, 30
1, 14305, Note_off_c, 0, 73, 64
1, 14305, Note_off_c, 0, 75, 64
1, 14305, Note_off_c, 0, 83, 64
1, 14305, Note_on_c, 0, 91, 16
1, 14306, Note_on_c, 0, 41, 88
1, 14306, Note_off_c, 0, 44, 64
1, 14306, Note_on_c, 0, 81, 45
1, 14306, Note_off_c, 0, 82, 64
1, 14307, Note_on_c, 0, 40, 86
1, 14307, Note_off_c, 0, 41, 64
1, 14307, Note_on_c, 0, 54, 15
1, 14307, Note_off_c, 0, 72, 64
1, 14307, Note_off_c, 0, 76, 64
1, 14307, Note_off_c, 0, 96, 64
1, 14308, Note_on_c, 0, 38, 88
1, 14308, Note_off_c, 0, 40, 64
1, 14308, Note_on_c, 0, 73, 43
1, 14308, Note_on_c, 0, 76, 37
1, 14308, Note_on_c, 0, 80, 22
1, 14308, Note_off_c, 0, 81, 64
1, 14308, Note_on_c, 0, 82, 43
1, 14308, Note_on_c, 0, 96, 34
1, 14309, Note_on_c, 0, 36, 87
1, 14309, Note_off_c, 0, 38, 64
1, 14309, Note_on_c, 0, 81, 44
1, 14309, Note_on_c, 0, 86, 36
1, 14309, Note_off_c, 0, 91, 64
1, 14310, Note_on_c, 0, 35, 86
1, 14310, Note_off_c, 0, 36, 64
1, 14310, Note_off_c, 0, 73, 64
1, 14310, Note_on_c, 0, 74, 46
1, 14311, Note_on_c, 0, 34, 85
1, 14311, Note_off_c, 0, 35, 64
1, 14311, Note_off_c, 0, 54, 64
1, 14311, Note_off_c, 0, 66, 64
1, 14311, Note_on_c, 0, 67, 40
1, 14311, Note_off_c, 0, 80, 64
1, 14311, Note_off_c, 0, 82, 64
1, 14311, Note_on_c, 0, 83, 35
1, 14311, Note_on_c, 0, 85, 35
1, 14311, Note_off_c, 0, 98, 64
1, 14312, Note_on_c, 0, 33, 84
1, 14312, Note_off_c, 0, 34, 64
1, 14312, Note_on_c, 0, 82, 42
1, 14313, Note_on_c, 0, 32, 85
1, 14313, Note_off_c, 0, 33, 64
1, 14313, Note_on_c, 0, 66, 40
1, 14313, Note_on_c, 0, 73, 36
1, 14313, Note_off_c, 0, 74, 64
1, 14314, Note_off_c, 0, 67, 64
1, 14315, Note_on_c, 0, 31, 84
1, 14315, Note_off_c, 0, 32, 64
1, 14315, Note_off_c, 0, 81, 64
1, 14315, Note_on_c, 0, 91, 32
1, 14316, Note_off_c, 0, 76, 64
1, 14316, Note_on_c, 0, 81, 27
1, 14316, Note_off_c, 0, 82, 64
1, 14316, Note_on_c, 0, 87, 37
1, 14317, Note_on_c, 0, 30, 75
1, 14317, Note_off_c, 0, 31, 64
1, 14317, Note_off_c, 0, 73, 64
1, 14317, Note_on_c, 0, 76, 35
1, 14318, Note_on_c, 0, 79, 36
1, 14318, Note_off_c, 0, 83, 64
1, 14318, Note_off_c, 0, 86, 64
1, 14319, Note_off_c, 0, 30, 64
1, 14319, Note_off_c, 0, 66, 64
1, 14319, Note_off_c, 0, 70, 64
1, 14319, Note_on_c, 0, 71, 30
1, 14319, Note_off_c, 0, 76, 64
1, 14319, Note_on_c, 0, 83, 33
1, 14320, Note_on_c, 0, 66, 35
1, 14320, Note_on_c, 0, 74, 32
1, 14320, Note_off_c, 0, 81, 64
1, 14320, Note_on_c, 0, 84, 20
1, 14321, Note_on_c, 0, 81, 29
1, 14321, Note_off_c, 0, 87, 64
1, 14321, Note_on_c, 0, 88, 31
1, 14322, Note_on_c, 0, 65, 33
1, 14322, Note_off_c, 0, 66, 64
1, 14322, Note_on_c, 0, 73, 58
1, 14322, Note_off_c, 0, 74, 64
1, 14322, Note_on_c, 0, 76, 29
1, 14322, Note_on_c, 0, 78, 27
1, 14322, Note_off_c, 0, 79, 64
1, 14322, Note_on_c, 0, 80, 13
1, 14322, Note_on_c, 0, 86, 29
1, 14323, Note_on_c, 0, 70, 38
1, 14323, Note_off_c, 0, 71, 64
1, 14323, Note_on_c, 0, 74, 38
1, 14323, Note_off_c, 0, 84, 64
1, 14323, Note_off_c, 0, 89, 64
1, 14323, Note_off_c, 0, 96, 64
1, 14324, Note_off_c, 0, 88, 64
1, 14325, Note_off_c, 0, 76, 64
1, 14325, Note_on_c, 0, 79, 32
1, 14325, Note_off_c, 0, 80, 64
1, 14325, Note_on_c, 0, 87, 30
1, 14325, Note_on_c, 0, 89, 25
1, 14326, Note_off_c, 0, 65, 64
1, 14326, Note_off_c, 0, 74, 64
1, 14326, Note_on_c, 0, 80, 26
1, 14326, Note_on_c, 0, 84, 33
1, 14326, Note_on_c, 0, 88, 53
1, 14326, Note_on_c, 0, 90, 33
1, 14327, Note_on_c, 0, 50, 10
1, 14327, Note_on_c, 0, 76, 29
1, 14327, Note_off_c, 0, 93, 64
1, 14328, Note_off_c, 0, 79, 64
1, 14328, Note_on_c, 0, 93, 33
1, 14328, Note_off_c, 0, 95, 64
1, 14329, Note_off_c, 0, 84, 64
1, 14330, Note_off_c, 0, 50, 64
1, 14330, Note_off_c, 0, 81, 64
1, 14330, Note_on_c, 0, 82, 42
1, 14330, Note_off_c, 0, 83, 64
1, 14330, Note_on_c, 0, 84, 30
1, 14330, Note_off_c, 0, 87, 64
1, 14330, Note_off_c, 0, 89, 64
1, 14330, Note_on_c, 0, 95, 32
1, 14331, Note_on_c, 0, 65, 29
1, 14331, Note_off_c, 0, 70, 64
1, 14331, Note_off_c, 0, 76, 64
1, 14331, Note_off_c, 0, 86, 64
1, 14332, Note_on_c, 0, 70, 28
1, 14332, Note_off_c, 0, 78, 64
1, 14332, Note_on_c, 0, 79, 30
1, 14332, Note_off_c, 0, 91, 64
1, 14333, Note_on_c, 0, 76, 42
1, 14333, Note_off_c, 0, 80, 64
1, 14333, Note_on_c, 0, 87, 35
1, 14334, Note_on_c, 0, 89, 27
1, 14335, Note_on_c, 0, 62, 18
1, 14335, Note_off_c, 0, 65, 64
1, 14335, Note_on_c, 0, 66, 24
1, 14335, Note_on_c, 0, 78, 37
1, 14335, Note_off_c, 0, 79, 64
1, 14335, Note_off_c, 0, 95, 64
1, 14336, Note_off_c, 0, 76, 64
1, 14336, Note_off_c, 0, 84, 64
1, 14337, Note_on_c, 0, 76, 43
1, 14337, Note_off_c, 0, 78, 64
1, 14337, Note_off_c, 0, 82, 64
1, 14338, Note_off_c, 0, 66, 64
1, 14338, Note_on_c, 0, 82, 34
1, 14338, Note_on_c, 0, 84, 18
1, 14338, Note_on_c, 0, 86, 32
1, 14338, Note_off_c, 0, 90, 64
1, 14338, Note_on_c, 0, 95, 32
1, 14339, Note_off_c, 0, 62, 64
1, 14339, Note_on_c, 0, 77, 25
1, 14339, Note_on_c, 0, 91, 25
1, 14340, Note_off_c, 0, 70, 64
1, 14340, Note_on_c, 0, 72, 32
1, 14340, Note_on_c, 0, 83, 32
1, 14340, Note_off_c, 0, 93, 64
1, 14340, Note_off_c, 0, 99, 64
1, 14341, Note_on_c, 0, 64, 12
1, 14341, Note_off_c, 0, 82, 64
1, 14341, Note_off_c, 0, 84, 64
1, 14341, Note_off_c, 0, 85, 64
1, 14341, Note_on_c, 0, 102, 10
1, 14342, Note_off_c, 0, 72, 64
1, 14342, Note_on_c, 0, 79, 37
1, 14342, Note_on_c, 0, 84, 30
1, 14342, Note_off_c, 0, 92, 64
1, 14343, Note_on_c, 0, 68, 28
1, 14343, Note_off_c, 0, 73, 64
1, 14343, Note_off_c, 0, 76, 64
1, 14343, Note_off_c, 0, 77, 64
1, 14343, Note_on_c, 0, 78, 37
1, 14343, Note_off_c, 0, 87, 64
1, 14343, Note_on_c, 0, 93, 27
1, 14344, Note_off_c, 0, 64, 64
1, 14344, Note_on_c, 0, 73, 37
1, 14344, Note_off_c, 0, 79, 64
1, 14344, Note_on_c, 0, 81, 40
1, 14344, Note_off_c, 0, 84, 64
1, 14344, Note_off_c, 0, 86, 64
1, 14344, Note_on_c, 0, 87, 26
1, 14344, Note_on_c, 0, 96, 23
1, 14345, Note_on_c, 0, 77, 43
1, 14345, Note_on_c, 0, 86, 18
1, 14345, Note_off_c, 0, 89, 64
1, 14345, Note_on_c, 0, 92, 37
1, 14345, Note_on_c, 0, 98, 26
1, 14346, Note_on_c, 0, 74, 59
1, 14346, Note_off_c, 0, 78, 64
1, 14346, Note_on_c, 0, 79, 20
1, 14346, Note_off_c, 0, 102, 64
1, 14347, Note_on_c, 0, 65, 35
1, 14347, Note_off_c, 0, 81, 64
1, 14348, Note_off_c, 0, 73, 64
1, 14348, Note_off_c, 0, 77, 64
1, 14348, Note_on_c, 0, 84, 33
1, 14348, Note_off_c, 0, 87, 64
1, 14348, Note_on_c, 0, 94, 24
1, 14349, Note_off_c, 0, 65, 64
1, 14349, Note_on_c, 0, 77, 33
1, 14349, Note_off_c, 0, 79, 64
1, 14349, Note_on_c, 0, 80, 31
1, 14349, Note_on_c, 0, 82, 30
1, 14349, Note_off_c, 0, 83, 64
1, 14349, Note_off_c, 0, 86, 64
1, 14349, Note_on_c, 0, 87, 28
1, 14349, Note_off_c, 0, 96, 64
1, 14350, Note_off_c, 0, 68, 64
1, 14350, Note_on_c, 0, 72, 31
1, 14350, Note_on_c, 0, 83, 21
1, 14350, Note_on_c, 0, 85, 26
1, 14350, Note_off_c, 0, 91, 64
1, 14351, Note_on_c, 0, 67, 32
1, 14351, Note_off_c, 0, 77, 64
1, 14351, Note_on_c, 0, 78, 27
1, 14351, Note_on_c, 0, 91, 13
1, 14351, Note_off_c, 0, 97, 64
1, 14352, Note_off_c, 0, 84, 64
1, 14352, Note_off_c, 0, 87, 64
1, 14352, Note_off_c, 0, 94, 64
1, 14353, Note_on_c, 0, 62, 21
1, 14353, Note_off_c, 0, 72, 64
1, 14353, Note_on_c, 0, 84, 24
1, 14354, Note_on_c, 0, 71, 25
1, 14354, Note_off_c, 0, 78, 64
1, 14354, Note_off_c, 0, 83, 64
1, 14354, Note_off_c, 0, 85, 64
1, 14354, Note_off_c, 0, 91, 64
1, 14356, Note_off_c, 0, 62, 64
1, 14356, Note_off_c, 0, 67, 64
1, 14356, Note_on_c, 0, 78, 29
1, 14356, Note_off_c, 0, 80, 64
1, 14356, Note_on_c, 0, 83, 32
1, 14356, Note_off_c, 0, 84, 64
1, 14356, Note_on_c, 0, 85, 39
1, 14356, Note_on_c, 0, 101, 30
1, 14357, Note_on_c, 0, 65, 47
1, 14357, Note_on_c, 0, 72, 44
1, 14357, Note_off_c, 0, 74, 64
1, 14357, Note_on_c, 0, 75, 50
1, 14357, Note_off_c, 0, 82, 64
1, 14357, Note_on_c, 0, 90, 35
1, 14358, Note_on_c, 0, 69, 32
1, 14358, Note_off_c, 0, 71, 64
1, 14358, Note_off_c, 0, 78, 64
1, 14358, Note_off_c, 0, 88, 64
1, 14359, Note_on_c, 0, 51, 67
1, 14359, Note_off_c, 0, 65, 64
1, 14359, Note_on_c, 0, 66, 41
1, 14359, Note_on_c, 0, 88, 34
1, 14360, Note_on_c, 0, 46, 77
1, 14360, Note_off_c, 0, 51, 64
1, 14360, Note_off_c, 0, 72, 64
1, 14360, Note_on_c, 0, 73, 31
1, 14360, Note_off_c, 0, 75, 64
1, 14360, Note_on_c, 0, 82, 42
1, 14360, Note_off_c, 0, 83, 64
1, 14360, Note_on_c, 0, 84, 27
1, 14360, Note_on_c, 0, 89, 31
1, 14360, Note_off_c, 0, 93, 64
1, 14361, Note_on_c, 0, 44, 85
1, 14361, Note_off_c, 0, 46, 64
1, 14361, Note_off_c, 0, 69, 64
1, 14361, Note_on_c, 0, 74, 30
1, 14361, Note_on_c, 0, 76, 36
1, 14361, Note_off_c, 0, 85, 64
1, 14361, Note_on_c, 0, 93, 27
1, 14362, Note_on_c, 0, 41, 92
1, 14362, Note_off_c, 0, 44, 64
1, 14362, Note_off_c, 0, 73, 64
1, 14363, Note_on_c, 0, 39, 89
1, 14363, Note_off_c, 0, 41, 64
1, 14363, Note_on_c, 0, 70, 40
1, 14363, Note_on_c, 0, 83, 29
1, 14363, Note_off_c, 0, 101, 64
1, 14364, Note_on_c, 0, 37, 90
1, 14364, Note_off_c, 0, 39, 64
1, 14364, Note_off_c, 0, 74, 64
1, 14364, Note_on_c, 0, 79, 31
1, 14365, Note_on_c, 0, 36, 89
1, 14365, Note_off_c, 0, 37, 64
1, 14365, Note_off_c, 0, 83, 64
1, 14365, Note_on_c, 0, 85, 30
1, 14366, Note_on_c, 0, 35, 88
1, 14366, Note_off_c, 0, 36, 64
1, 14366, Note_on_c, 0, 74, 30
1, 14366, Note_on_c, 0, 81, 31
1, 14366, Note_off_c, 0, 82, 64
1, 14366, Note_on_c, 0, 83, 32
1, 14367, Note_on_c, 0, 34, 87
1, 14367, Note_off_c, 0, 35, 64
1, 14367, Note_off_c, 0, 84, 64
1, 14367, Note_off_c, 0, 89, 64
1, 14367, Note_off_c, 0, 98, 64
1, 14368, Note_on_c, 0, 33, 87
1, 14368, Note_off_c, 0, 34, 64
1, 14368, Note_on_c, 0, 89, 43
1, 14368, Note_on_c, 0, 96, 27
1, 14369, Note_on_c, 0, 32, 88
1, 14369, Note_off_c, 0, 33, 64
1, 14369, Note_off_c, 0, 76, 64
1, 14369, Note_off_c, 0, 79, 64
1, 14369, Note_on_c, 0, 80, 21
1, 14369, Note_on_c, 0, 87, 18
1, 14370, Note_on_c, 0, 77, 35
1, 14370, Note_off_c, 0, 83, 64
1, 14371, Note_on_c, 0, 31, 87
1, 14371, Note_off_c, 0, 32, 64
1, 14371, Note_on_c, 0, 63, 21
1, 14371, Note_off_c, 0, 74, 64
1, 14371, Note_on_c, 0, 84, 29
1, 14371, Note_off_c, 0, 85, 64
1, 14371, Note_off_c, 0, 90, 64
1, 14371, Note_off_c, 0, 96, 64
1, 14372, Note_off_c, 0, 81, 64
1, 14372, Note_on_c, 0, 86, 34
1, 14372, Note_off_c, 0, 88, 64
1, 14372, Note_on_c, 0, 90, 31
1, 14373, Note_on_c, 0, 30, 77
1, 14373, Note_off_c, 0, 31, 64
1, 14373, Note_on_c, 0, 75, 32
1, 14373, Note_off_c, 0, 80, 64
1, 14373, Note_on_c, 0, 85, 40
1, 14373, Note_on_c, 0, 99, 23
1, 14374, Note_off_c, 0, 63, 64
1, 14374, Note_on_c, 0, 83, 32
1, 14374, Note_off_c, 0, 84, 64
1, 14374, Note_on_c, 0, 88, 36
1, 14374, Note_off_c, 0, 95, 64
1, 14375, Note_on_c, 0, 72, 30
1, 14375, Note_off_c, 0, 77, 64
1, 14375, Note_on_c, 0, 80, 42
1, 14375, Note_off_c, 0, 87, 64
1, 14376, Note_off_c, 0, 30, 64
1, 14376, Note_on_c, 0, 68, 37
1, 14376, Note_on_c, 0, 79, 37
1, 14376, Note_on_c, 0, 103, 19
1, 14377, Note_off_c, 0, 66, 64
1, 14377, Note_off_c, 0, 72, 64
1, 14377, Note_off_c, 0, 75, 64
1, 14377, Note_on_c, 0, 76, 37
1, 14377, Note_on_c, 0, 87, 32
1, 14378, Note_on_c, 0, 51, 67
1, 14378, Note_on_c, 0, 66, 35
1, 14378, Note_off_c, 0, 68, 64
1, 14378, Note_off_c, 0, 70, 64
1, 14378, Note_on_c, 0, 71, 32
1, 14378, Note_off_c, 0, 79, 64
1, 14378, Note_off_c, 0, 86, 64
1, 14379, Note_on_c, 0, 46, 78
1, 14379, Note_off_c, 0, 51, 64
1, 14379, Note_on_c, 0, 73, 46
1, 14379, Note_off_c, 0, 83, 64
1, 14379, Note_on_c, 0, 86, 33
1, 14379, Note_off_c, 0, 93, 64
1, 14379, Note_off_c, 0, 103, 64
1, 14380, Note_on_c, 0, 44, 86
1, 14380, Note_off_c, 0, 46, 64
1, 14380, Note_on_c, 0, 77, 28
1, 14380, Note_off_c, 0, 85, 64
1, 14380, Note_off_c, 0, 87, 64
1, 14380, Note_on_c, 0, 91, 20
1, 14380, Note_on_c, 0, 93, 38
1, 14380, Note_on_c, 0, 96, 21
1, 14381, Note_on_c, 0, 41, 92
1, 14381, Note_off_c, 0, 44, 64
1, 14381, Note_on_c, 0, 65, 28
1, 14381, Note_off_c, 0, 66, 64
1, 14381, Note_off_c, 0, 76, 64
1, 14382, Note_on_c, 0, 40, 89
1, 14382, Note_off_c, 0, 41, 64
1, 14382, Note_on_c, 0, 70, 25
1, 14382, Note_off_c, 0, 71, 64
1, 14382, Note_on_c, 0, 84, 37
1, 14382, Note_on_c, 0, 87, 19
1, 14382, Note_on_c, 0, 95, 24
1, 14383, Note_on_c, 0, 38, 91
1, 14383, Note_off_c, 0, 40, 64
1, 14383, Note_on_c, 0, 76, 31
1, 14383, Note_on_c, 0, 81, 19
1, 14383, Note_off_c, 0, 90, 64
1, 14384, Note_on_c, 0, 36, 90
1, 14384, Note_off_c, 0, 38, 64
1, 14384, Note_off_c, 0, 77, 64
1, 14384, Note_on_c, 0, 78, 28
1, 14384, Note_off_c, 0, 86, 64
1, 14385, Note_on_c, 0, 35, 89
1, 14385, Note_off_c, 0, 36, 64
1, 14385, Note_off_c, 0, 65, 64
1, 14385, Note_on_c, 0, 75, 41
1, 14385, Note_off_c, 0, 76, 64
1, 14385, Note_on_c, 0, 86, 37
1, 14385, Note_off_c, 0, 87, 64
1, 14385, Note_on_c, 0, 90, 33
1, 14385, Note_off_c, 0, 91, 64
1, 14385, Note_on_c, 0, 97, 32
1, 14386, Note_on_c, 0, 34, 88
1, 14386, Note_off_c, 0, 35, 64
1, 14386, Note_off_c, 0, 70, 64
1, 14387, Note_on_c, 0, 33, 87
1, 14387, Note_off_c, 0, 34, 64
1, 14387, Note_on_c, 0, 70, 32
1, 14387, Note_off_c, 0, 75, 64
1, 14387, Note_on_c, 0, 76, 40
1, 14387, Note_off_c, 0, 99, 64
1, 14388, Note_on_c, 0, 32, 89
1, 14388, Note_off_c, 0, 33, 64
1, 14388, Note_on_c, 0, 66, 18
1, 14388, Note_off_c, 0, 78, 64
1, 14388, Note_off_c, 0, 81, 64
1, 14388, Note_off_c, 0, 89, 64
1, 14388, Note_on_c, 0, 91, 33
1, 14389, Note_on_c, 0, 79, 26
1, 14389, Note_on_c, 0, 89, 33
1, 14389, Note_on_c, 0, 99, 26
1, 14390, Note_on_c, 0, 31, 88
1, 14390, Note_off_c, 0, 32, 64
1, 14390, Note_off_c, 0, 80, 64
1, 14390, Note_on_c, 0, 83, 27
1, 14390, Note_on_c, 0, 87, 37
1, 14390, Note_off_c, 0, 90, 64
1, 14391, Note_off_c, 0, 66, 64
1, 14391, Note_on_c, 0, 78, 35
1, 14391, Note_off_c, 0, 84, 64
1, 14391, Note_on_c, 0, 90, 37
1, 14391, Note_off_c, 0, 96, 64
1, 14392, Note_on_c, 0, 30, 77
1, 14392, Note_off_c, 0, 31, 64
1, 14392, Note_off_c, 0, 79, 64
1, 14392, Note_on_c, 0, 81, 38
1, 14392, Note_off_c, 0, 95, 64
1, 14392, Note_on_c, 0, 96, 33
1, 14393, Note_on_c, 0, 71, 34
1, 14393, Note_on_c, 0, 77, 33
1, 14393, Note_on_c, 0, 84, 29
1, 14393, Note_off_c, 0, 86, 64
1, 14393, Note_off_c, 0, 88, 64
1, 14394, Note_off_c, 0, 30, 64
1, 14394, Note_off_c, 0, 70, 64
1, 14394, Note_off_c, 0, 73, 64
1, 14394, Note_off_c, 0, 78, 64
1, 14395, Note_on_c, 0, 53, 12
1, 14395, Note_off_c, 0, 71, 64
1, 14395, Note_on_c, 0, 72, 46
1, 14395, Note_off_c, 0, 77, 64
1, 14395, Note_off_c, 0, 83, 64
1, 14395, Note_off_c, 0, 89, 64
1, 14396, Note_on_c, 0, 79, 26
1, 14396, Note_on_c, 0, 82, 38
1, 14396, Note_on_c, 0, 89, 31
1, 14396, Note_on_c, 0, 95, 31
1, 14397, Note_off_c, 0, 72, 64
1, 14398, Note_on_c, 0, 68, 26
1, 14398, Note_on_c, 0, 72, 36
1, 14398, Note_on_c, 0, 78, 32
1, 14398, Note_off_c, 0, 84, 64
1, 14398, Note_off_c, 0, 99, 64
1, 14399, Note_off_c, 0, 53, 64
1, 14399, Note_on_c, 0, 64, 11
1, 14399, Note_on_c, 0, 70, 28
1, 14399, Note_off_c, 0, 79, 64
1, 14399, Note_on_c, 0, 86, 30
1, 14399, Note_off_c, 0, 90, 64
1, 14399, Note_off_c, 0, 92, 64
1, 14399, Note_off_c, 0, 95, 64
1, 14400, Note_off_c, 0, 72, 64
1, 14400, Note_on_c, 0, 73, 36
1, 14400, Note_off_c, 0, 81, 64
1, 14400, Note_off_c, 0, 87, 64
1, 14400, Note_on_c, 0, 92, 42
1, 14400, Note_on_c, 0, 95, 30
1, 14401, Note_on_c, 0, 81, 26
1, 14401, Note_off_c, 0, 82, 64
1, 14401, Note_on_c, 0, 83, 31
1, 14402, Note_off_c, 0, 64, 64
1, 14402, Note_off_c, 0, 70, 64
1, 14402, Note_off_c, 0, 73, 64
1, 14403, Note_off_c, 0, 68, 64
1, 14403, Note_on_c, 0, 73, 47
1, 14403, Note_on_c, 0, 87, 23
1, 14403, Note_off_c, 0, 97, 64
1, 14404, Note_on_c, 0, 74, 60
1, 14404, Note_off_c, 0, 76, 64
1, 14404, Note_on_c, 0, 80, 24
1, 14404, Note_on_c, 0, 97, 26
1, 14405, Note_off_c, 0, 73, 64
1, 14405, Note_off_c, 0, 96, 64
1, 14406, Note_off_c, 0, 81, 64
1, 14406, Note_on_c, 0, 85, 27
1, 14406, Note_off_c, 0, 87, 64
1, 14406, Note_on_c, 0, 96, 33
1, 14407, Note_on_c, 0, 73, 49
1, 14407, Note_on_c, 0, 81, 29
1, 14407, Note_on_c, 0, 87, 44
1, 14408, Note_on_c, 0, 66, 22
1, 14408, Note_off_c, 0, 80, 64
1, 14408, Note_on_c, 0, 88, 31
1, 14408, Note_off_c, 0, 89, 64
1, 14408, Note_on_c, 0, 94, 12
1, 14409, Note_off_c, 0, 73, 64
1, 14409, Note_off_c, 0, 78, 64
1, 14409, Note_on_c, 0, 82, 31
1, 14410, Note_on_c, 0, 78, 25
1, 14410, Note_on_c, 0, 80, 26
1, 14410, Note_off_c, 0, 83, 64
1, 14410, Note_on_c, 0, 84, 23
1, 14410, Note_off_c, 0, 95, 64
1, 14411, Note_off_c, 0, 66, 64
1, 14411, Note_off_c, 0, 88, 64
1, 14411, Note_on_c, 0, 89, 24
1, 14411, Note_off_c, 0, 91, 64
1, 14411, Note_off_c, 0, 94, 64
1, 14412, Note_on_c, 0, 68, 22
1, 14412, Note_off_c, 0, 74, 64
1, 14412, Note_on_c, 0, 75, 55
1, 14412, Note_off_c, 0, 82, 64
1, 14412, Note_off_c, 0, 86, 64
1, 14413, Note_off_c, 0, 78, 64
1, 14413, Note_on_c, 0, 79, 32
1, 14413, Note_off_c, 0, 80, 64
1, 14413, Note_on_c, 0, 82, 44
1, 14413, Note_off_c, 0, 84, 64
1, 14413, Note_on_c, 0, 95, 25
1, 14414, Note_on_c, 0, 73, 44
1, 14414, Note_off_c, 0, 81, 64
1, 14414, Note_on_c, 0, 88, 40
1, 14415, Note_off_c, 0, 68, 64
1, 14415, Note_on_c, 0, 81, 30
1, 14415, Note_off_c, 0, 89, 64
1, 14415, Note_on_c, 0, 91, 45
1, 14416, Note_on_c, 0, 66, 42
1, 14416, Note_on_c, 0, 70, 35
1, 14416, Note_off_c, 0, 79, 64
1, 14416, Note_on_c, 0, 80, 31
1, 14416, Note_on_c, 0, 83, 20
1, 14417, Note_on_c, 0, 55, 21
1, 14417, Note_off_c, 0, 75, 64
1, 14417, Note_on_c, 0, 76, 19
1, 14417, Note_off_c, 0, 81, 64
1, 14417, Note_off_c, 0, 82, 64
1, 14417, Note_off_c, 0, 85, 64
1, 14417, Note_off_c, 0, 88, 64
1, 14418, Note_off_c, 0, 87, 64
1, 14418, Note_on_c, 0, 94, 28
1, 14418, Note_off_c, 0, 95, 64
1, 14418, Note_on_c, 0, 100, 15
1, 14419, Note_off_c, 0, 70, 64
1, 14419, Note_on_c, 0, 82, 41
1, 14419, Note_off_c, 0, 83, 64
1, 14419, Note_on_c, 0, 87, 29
1, 14419, Note_on_c, 0, 89, 35
1, 14420, Note_off_c, 0, 55, 64
1, 14420, Note_on_c, 0, 56, 22
1, 14420, Note_on_c, 0, 70, 41
1, 14420, Note_off_c, 0, 76, 64
1, 14420, Note_on_c, 0, 83, 40
1, 14420, Note_on_c, 0, 86, 26
1, 14421, Note_off_c, 0, 73, 64
1, 14421, Note_on_c, 0, 74, 38
1, 14421, Note_on_c, 0, 76, 36
1, 14421, Note_off_c, 0, 87, 64
1, 14421, Note_on_c, 0, 88, 41
1, 14421, Note_off_c, 0, 100, 64
1, 14422, Note_on_c, 0, 85, 32
1, 14422, Note_on_c, 0, 87, 34
1, 14423, Note_off_c, 0, 56, 64
1, 14423, Note_on_c, 0, 73, 46
1, 14423, Note_off_c, 0, 74, 64
1, 14423, Note_on_c, 0, 84, 31
1, 14424, Note_off_c, 0, 66, 64
1, 14424, Note_on_c, 0, 67, 29
1, 14424, Note_off_c, 0, 86, 64
1, 14425, Note_off_c, 0, 87, 64
1, 14426, Note_off_c, 0, 70, 64
1, 14426, Note_on_c, 0, 87, 28
1, 14427, Note_on_c, 0, 66, 43
1, 14427, Note_off_c, 0, 67, 64
1, 14427, Note_on_c, 0, 70, 38
1, 14427, Note_off_c, 0, 76, 64
1, 14427, Note_off_c, 0, 85, 64
1, 14427, Note_on_c, 0, 86, 17
1, 14427, Note_on_c, 0, 98, 29
1, 14428, Note_on_c, 0, 76, 26
1, 14428, Note_on_c, 0, 79, 21
1, 14428, Note_off_c, 0, 80, 64
1, 14428, Note_off_c, 0, 83, 64
1, 14428, Note_off_c, 0, 94, 64
1, 14430, Note_on_c, 0, 74, 29
1, 14430, Note_off_c, 0, 84, 64
1, 14430, Note_off_c, 0, 86, 64
1, 14430, Note_off_c, 0, 88, 64
1, 14430, Note_off_c, 0, 89, 64
1, 14430, Note_off_c, 0, 98, 64
1, 14431, Note_off_c, 0, 66, 64
1, 14431, Note_off_c, 0, 73, 64
1, 14431, Note_off_c, 0, 79, 64
1, 14431, Note_on_c, 0, 81, 26
1, 14431, Note_on_c, 0, 88, 36
1, 14431, Note_off_c, 0, 91, 64
1, 14432, Note_on_c, 0, 61, 37
1, 14432, Note_on_c, 0, 73, 41
1, 14432, Note_off_c, 0, 74, 64
1, 14432, Note_off_c, 0, 76, 64
1, 14432, Note_off_c, 0, 82, 64
1, 14432, Note_on_c, 0, 91, 16
1, 14432, Note_off_c, 0, 93, 64
1, 14432, Note_on_c, 0, 98, 33
1, 14433, Note_off_c, 0, 70, 64
1, 14433, Note_on_c, 0, 75, 25
1, 14433, Note_on_c, 0, 80, 15
1, 14433, Note_on_c, 0, 82, 28
1, 14433, Note_off_c, 0, 87, 64
1, 14433, Note_on_c, 0, 89, 21
1, 14433, Note_on_c, 0, 93, 37
1, 14433, Note_on_c, 0, 99, 31
1, 14434, Note_off_c, 0, 61, 64
1, 14435, Note_on_c, 0, 66, 41
1, 14435, Note_on_c, 0, 70, 29
1, 14435, Note_off_c, 0, 73, 64
1, 14435, Note_on_c, 0, 74, 33
1, 14435, Note_off_c, 0, 81, 64
1, 14435, Note_on_c, 0, 84, 20
1, 14436, Note_on_c, 0, 73, 41
1, 14436, Note_off_c, 0, 75, 64
1, 14436, Note_off_c, 0, 89, 64
1, 14436, Note_off_c, 0, 91, 64
1, 14437, Note_on_c, 0, 65, 27
1, 14437, Note_off_c, 0, 66, 64
1, 14437, Note_off_c, 0, 80, 64
1, 14437, Note_off_c, 0, 82, 64
1, 14437, Note_on_c, 0, 91, 22
1, 14437, Note_on_c, 0, 95, 31
1, 14438, Note_off_c, 0, 74, 64
1, 14438, Note_on_c, 0, 79, 33
1, 14438, Note_on_c, 0, 82, 45
1, 14438, Note_on_c, 0, 89, 14
1, 14438, Note_off_c, 0, 96, 64
1, 14439, Note_on_c, 0, 87, 33
1, 14439, Note_on_c, 0, 90, 30
1, 14439, Note_on_c, 0, 101, 28
1, 14440, Note_off_c, 0, 65, 64
1, 14440, Note_on_c, 0, 72, 30
1, 14440, Note_off_c, 0, 73, 64
1, 14440, Note_off_c, 0, 84, 64
1, 14440, Note_off_c, 0, 88, 64
1, 14440, Note_on_c, 0, 96, 27
1, 14441, Note_off_c, 0, 79, 64
1, 14441, Note_on_c, 0, 88, 41
1, 14442, Note_on_c, 0, 66, 44
1, 14442, Note_off_c, 0, 72, 64
1, 14442, Note_on_c, 0, 73, 44
1, 14442, Note_on_c, 0, 76, 39
1, 14442, Note_on_c, 0, 79, 20
1, 14442, Note_on_c, 0, 86, 28
1, 14443, Note_on_c, 0, 83, 15
1, 14444, Note_on_c, 0, 74, 47
1, 14444, Note_off_c, 0, 89, 64
1, 14444, Note_off_c, 0, 91, 64
1, 14445, Note_off_c, 0, 73, 64
1, 14445, Note_on_c, 0, 81, 36
1, 14445, Note_on_c, 0, 91, 35
1, 14446, Note_on_c, 0, 55, 19
1, 14446, Note_on_c, 0, 78, 44
1, 14446, Note_off_c, 0, 79, 64
1, 14446, Note_off_c, 0, 83, 64
1, 14446, Note_on_c, 0, 84, 26
1, 14447, Note_off_c, 0, 76, 64
1, 14447, Note_off_c, 0, 82, 64
1, 14447, Note_on_c, 0, 83, 39
1, 14448, Note_on_c, 0, 73, 58
1, 14448, Note_off_c, 0, 74, 64
1, 14448, Note_on_c, 0, 80, 33
1, 14448, Note_off_c, 0, 87, 64
1, 14448, Note_on_c, 0, 89, 36
1, 14449, Note_off_c, 0, 70, 64
1, 14449, Note_off_c, 0, 81, 64
1, 14450, Note_off_c, 0, 55, 64
1, 14450, Note_on_c, 0, 76, 38
1, 14450, Note_on_c, 0, 82, 38
1, 14450, Note_off_c, 0, 84, 64
1, 14450, Note_off_c, 0, 86, 64
1, 14450, Note_on_c, 0, 87, 37
1, 14452, Note_off_c, 0, 66, 64
1, 14452, Note_on_c, 0, 67, 51
1, 14452, Note_on_c, 0, 71, 38
1, 14452, Note_on_c, 0, 81, 37
1, 14452, Note_off_c, 0, 83, 64
1, 14453, Note_on_c, 0, 51, 71
1, 14453, Note_off_c, 0, 80, 64
1, 14453, Note_off_c, 0, 88, 64
1, 14453, Note_off_c, 0, 90, 64
1, 14454, Note_on_c, 0, 46, 82
1, 14454, Note_off_c, 0, 51, 64
1, 14454, Note_on_c, 0, 70, 29
1, 14454, Note_off_c, 0, 71, 64
1, 14454, Note_off_c, 0, 76, 64
1, 14454, Note_off_c, 0, 78, 64
1, 14454, Note_off_c, 0, 82, 64
1, 14454, Note_on_c, 0, 84, 24
1, 14454, Note_off_c, 0, 87, 64
1, 14455, Note_on_c, 0, 43, 89
1, 14455, Note_off_c, 0, 46, 64
1, 14455, Note_on_c, 0, 66, 17
1, 14455, Note_off_c, 0, 67, 64
1, 14455, Note_on_c, 0, 90, 30
1, 14456, Note_on_c, 0, 41, 94
1, 14456, Note_off_c, 0, 43, 64
1, 14456, Note_off_c, 0, 81, 64
1, 14456, Note_on_c, 0, 83, 23
1, 14456, Note_on_c, 0, 86, 29
1, 14456, Note_off_c, 0, 97, 64
1, 14457, Note_on_c, 0, 39, 91
1, 14457, Note_off_c, 0, 41, 64
1, 14457, Note_off_c, 0, 73, 64
1, 14457, Note_on_c, 0, 76, 31
1, 14457, Note_on_c, 0, 82, 38
1, 14457, Note_on_c, 0, 88, 44
1, 14457, Note_off_c, 0, 89, 64
1, 14458, Note_on_c, 0, 37, 93
1, 14458, Note_off_c, 0, 39, 64
1, 14458, Note_off_c, 0, 66, 64
1, 14458, Note_off_c, 0, 84, 64
1, 14459, Note_on_c, 0, 36, 92
1, 14459, Note_off_c, 0, 37, 64
1, 14459, Note_on_c, 0, 66, 32
1, 14459, Note_off_c, 0, 70, 64
1, 14459, Note_on_c, 0, 74, 53
1, 14459, Note_on_c, 0, 78, 34
1, 14459, Note_off_c, 0, 83, 64
1, 14460, Note_on_c, 0, 35, 91
1, 14460, Note_off_c, 0, 36, 64
1, 14460, Note_on_c, 0, 84, 21
1, 14461, Note_on_c, 0, 34, 91
1, 14461, Note_off_c, 0, 35, 64
1, 14461, Note_off_c, 0, 66, 64
1, 14461, Note_off_c, 0, 76, 64
1, 14461, Note_off_c, 0, 86, 64
1, 14461, Note_off_c, 0, 90, 64
1, 14462, Note_on_c, 0, 33, 90
1, 14462, Note_off_c, 0, 34, 64
1, 14462, Note_on_c, 0, 79, 26
1, 14462, Note_on_c, 0, 87, 35
1, 14463, Note_on_c, 0, 32, 90
1, 14463, Note_off_c, 0, 33, 64
1, 14463, Note_on_c, 0, 65, 20
1, 14463, Note_off_c, 0, 78, 64
1, 14463, Note_on_c, 0, 81, 23
1, 14464, Note_off_c, 0, 84, 64
1, 14464, Note_on_c, 0, 85, 27
1, 14464, Note_off_c, 0, 87, 64
1, 14464, Note_on_c, 0, 89, 34
1, 14465, Note_on_c, 0, 31, 89
1, 14465, Note_off_c, 0, 32, 64
1, 14465, Note_on_c, 0, 78, 29
1, 14465, Note_off_c, 0, 79, 64
1, 14465, Note_on_c, 0, 87, 33
1, 14465, Note_off_c, 0, 92, 64
1, 14465, Note_off_c, 0, 98, 64
1, 14465, Note_off_c, 0, 99, 64
1, 14466, Note_on_c, 0, 98, 27
1, 14467, Note_off_c, 0, 65, 64
1, 14467, Note_on_c, 0, 66, 33
1, 14467, Note_off_c, 0, 81, 64
1, 14467, Note_on_c, 0, 84, 17
1, 14467, Note_off_c, 0, 88, 64
1, 14467, Note_on_c, 0, 92, 41
1, 14467, Note_off_c, 0, 95, 64
1, 14468, Note_off_c, 0, 31, 64
1, 14468, Note_off_c, 0, 85, 64
1, 14468, Note_on_c, 0, 88, 34
1, 14468, Note_off_c, 0, 91, 64
1, 14468, Note_on_c, 0, 95, 31
1, 14469, Note_on_c, 0, 70, 31
1, 14469, Note_off_c, 0, 74, 64
1, 14469, Note_on_c, 0, 75, 45
1, 14469, Note_on_c, 0, 83, 31
1, 14469, Note_off_c, 0, 87, 64
1, 14469, Note_on_c, 0, 91, 28
1, 14470, Note_on_c, 0, 85, 36
1, 14470, Note_on_c, 0, 90, 29
1, 14471, Note_off_c, 0, 66, 64
1, 14471, Note_on_c, 0, 73, 38
1, 14471, Note_off_c, 0, 75, 64
1, 14471, Note_off_c, 0, 83, 64
1, 14471, Note_off_c, 0, 84, 64
1, 14471, Note_off_c, 0, 89, 64
1, 14471, Note_off_c, 0, 96, 64
1, 14472, Note_on_c, 0, 66, 44
1, 14472, Note_off_c, 0, 88, 64
1, 14472, Note_on_c, 0, 89, 42
1, 14472, Note_on_c, 0, 96, 31
1, 14472, Note_off_c, 0, 101, 64
1, 14473, Note_off_c, 0, 93, 64
1, 14474, Note_on_c, 0, 79, 37
1, 14474, Note_on_c, 0, 88, 42
1, 14474, Note_off_c, 0, 89, 64
1, 14474, Note_on_c, 0, 93, 41
1, 14474, Note_on_c, 0, 101, 28
1, 14475, Note_off_c, 0, 78, 64
1, 14475, Note_off_c, 0, 95, 64
1, 14476, Note_off_c, 0, 70, 64
1, 14476, Note_on_c, 0, 80, 18
1, 14476, Note_off_c, 0, 91, 64
1, 14477, Note_on_c, 0, 69, 32
1, 14477, Note_off_c, 0, 73, 64
1, 14477, Note_on_c, 0, 74, 25
1, 14477, Note_on_c, 0, 78, 44
1, 14477, Note_off_c, 0, 79, 64
1, 14477, Note_on_c, 0, 86, 33
1, 14477, Note_on_c, 0, 95, 33
1, 14478, Note_on_c, 0, 70, 30
1, 14478, Note_on_c, 0, 89, 18
1, 14479, Note_off_c, 0, 69, 64
1, 14479, Note_on_c, 0, 91, 19
1, 14480, Note_on_c, 0, 73, 32
1, 14480, Note_off_c, 0, 74, 64
1, 14480, Note_off_c, 0, 80, 64
1, 14480, Note_off_c, 0, 93, 64
1, 14481, Note_on_c, 0, 76, 26
1, 14481, Note_on_c, 0, 80, 18
1, 14481, Note_on_c, 0, 84, 34
1, 14481, Note_off_c, 0, 90, 64
1, 14481, Note_on_c, 0, 93, 34
1, 14482, Note_off_c, 0, 82, 64
1, 14482, Note_off_c, 0, 86, 64
1, 14482, Note_on_c, 0, 87, 34
1, 14482, Note_off_c, 0, 89, 64
1, 14483, Note_off_c, 0, 73, 64
1, 14483, Note_on_c, 0, 74, 29
1, 14483, Note_on_c, 0, 82, 41
1, 14483, Note_off_c, 0, 85, 64
1, 14484, Note_off_c, 0, 78, 64
1, 14484, Note_off_c, 0, 80, 64
1, 14484, Note_off_c, 0, 87, 64
1, 14485, Note_off_c, 0, 74, 64
1, 14485, Note_on_c, 0, 75, 29
1, 14485, Note_off_c, 0, 76, 64
1, 14485, Note_off_c, 0, 91, 64
1, 14486, Note_on_c, 0, 71, 29
1, 14486, Note_on_c, 0, 73, 24
1, 14486, Note_on_c, 0, 85, 34
1, 14486, Note_on_c, 0, 87, 44
1, 14487, Note_off_c, 0, 70, 64
1, 14487, Note_off_c, 0, 75, 64
1, 14487, Note_on_c, 0, 80, 16
1, 14487, Note_on_c, 0, 89, 31
1, 14487, Note_on_c, 0, 91, 21
1, 14487, Note_off_c, 0, 95, 64
1, 14488, Note_on_c, 0, 70, 29
1, 14488, Note_off_c, 0, 71, 64
1, 14488, Note_on_c, 0, 95, 35
1, 14489, Note_off_c, 0, 73, 64
1, 14489, Note_on_c, 0, 79, 36
1, 14489, Note_off_c, 0, 98, 64
1, 14490, Note_on_c, 0, 73, 50
1, 14490, Note_on_c, 0, 76, 32
1, 14490, Note_off_c, 0, 80, 64
1, 14490, Note_on_c, 0, 81, 30
1, 14490, Note_on_c, 0, 83, 30
1, 14490, Note_off_c, 0, 84, 64
1, 14491, Note_on_c, 0, 65, 34
1, 14491, Note_off_c, 0, 66, 64
1, 14491, Note_on_c, 0, 68, 25
1, 14492, Note_on_c, 0, 86, 35
1, 14493, Note_off_c, 0, 70, 64
1, 14493, Note_off_c, 0, 76, 64
1, 14493, Note_off_c, 0, 82, 64
1, 14493, Note_off_c, 0, 85, 64
1, 14493, Note_on_c, 0, 94, 43
1, 14494, Note_on_c, 0, 70, 34
1, 14494, Note_on_c, 0, 78, 24
1, 14494, Note_off_c, 0, 79, 64
1, 14494, Note_on_c, 0, 84, 25
1, 14494, Note_off_c, 0, 88, 64
1, 14494, Note_on_c, 0, 90, 30
1, 14494, Note_off_c, 0, 91, 64
1, 14495, Note_off_c, 0, 65, 64
1, 14495, Note_off_c, 0, 68, 64
1, 14495, Note_on_c, 0, 77, 22
1, 14495, Note_off_c, 0, 81, 64
1, 14496, Note_on_c, 0, 79, 30
1, 14497, Note_off_c, 0, 70, 64
1, 14497, Note_off_c, 0, 78, 64
1, 14497, Note_on_c, 0, 88, 44
1, 14497, Note_on_c, 0, 91, 31
1, 14497, Note_off_c, 0, 93, 64
1, 14498, Note_on_c, 0, 75, 29
1, 14498, Note_off_c, 0, 77, 64
1, 14498, Note_on_c, 0, 78, 37
1, 14498, Note_off_c, 0, 84, 64
1, 14499, Note_off_c, 0, 79, 64
1, 14499, Note_on_c, 0, 82, 30
1, 14499, Note_off_c, 0, 83, 64
1, 14499, Note_off_c, 0, 89, 64
1, 14500, Note_on_c, 0, 66, 28
1, 14500, Note_on_c, 0, 70, 41
1, 14500, Note_on_c, 0, 76, 41
1, 14500, Note_on_c, 0, 89, 19
1, 14500, Note_on_c, 0, 93, 37
1, 14501, Note_off_c, 0, 75, 64
1, 14501, Note_on_c, 0, 81, 32
1, 14501, Note_off_c, 0, 82, 64
1, 14501, Note_on_c, 0, 84, 27
1, 14502, Note_on_c, 0, 80, 35
1, 14503, Note_off_c, 0, 89, 64
1, 14504, Note_on_c, 0, 83, 36
1, 14504, Note_off_c, 0, 84, 64
1, 14504, Note_off_c, 0, 86, 64
1, 14504, Note_on_c, 0, 89, 16
1, 14505, Note_off_c, 0, 66, 64
1, 14506, Note_off_c, 0, 73, 64
1, 14506, Note_on_c, 0, 86, 33
1, 14506, Note_off_c, 0, 87, 64
1, 14507, Note_on_c, 0, 65, 52
1, 14507, Note_on_c, 0, 68, 43
1, 14507, Note_off_c, 0, 81, 64
1, 14507, Note_off_c, 0, 89, 64
1, 14508, Note_off_c, 0, 70, 64
1, 14508, Note_on_c, 0, 72, 42
1, 14509, Note_on_c, 0, 50, 75
1, 14509, Note_on_c, 0, 73, 22
1, 14509, Note_off_c, 0, 86, 64
1, 14509, Note_on_c, 0, 87, 22
1, 14509, Note_off_c, 0, 91, 64
1, 14510, Note_on_c, 0, 46, 86
1, 14510, Note_off_c, 0, 50, 64
1, 14510, Note_off_c, 0, 72, 64
1, 14510, Note_off_c, 0, 78, 64
1, 14510, Note_on_c, 0, 82, 25
1, 14510, Note_on_c, 0, 89, 22
1, 14510, Note_off_c, 0, 93, 64
1, 14510, Note_on_c, 0, 98, 17
1, 14510, Note_off_c, 0, 101, 64
1, 14511, Note_on_c, 0, 42, 93
1, 14511, Note_off_c, 0, 46, 64
1, 14511, Note_off_c, 0, 65, 64
1, 14511, Note_off_c, 0, 68, 64
1, 14511, Note_on_c, 0, 71, 24
1, 14511, Note_off_c, 0, 76, 64
1, 14511, Note_on_c, 0, 93, 41
1, 14512, Note_on_c, 0, 41, 96
1, 14512, Note_off_c, 0, 42, 64
1, 14512, Note_on_c, 0, 68, 24
1, 14512, Note_on_c, 0, 76, 24
1, 14512, Note_off_c, 0, 80, 64
1, 14512, Note_off_c, 0, 83, 64
1, 14512, Note_off_c, 0, 88, 64
1, 14512, Note_off_c, 0, 96, 64
1, 14513, Note_on_c, 0, 39, 94
1, 14513, Note_off_c, 0, 41, 64
1, 14513, Note_on_c, 0, 59, 9
1, 14513, Note_off_c, 0, 73, 64
1, 14513, Note_on_c, 0, 74, 57
1, 14513, Note_off_c, 0, 82, 64
1, 14513, Note_on_c, 0, 84, 18
1, 14513, Note_off_c, 0, 87, 64
1, 14513, Note_on_c, 0, 88, 35
1, 14513, Note_off_c, 0, 89, 64
1, 14513, Note_on_c, 0, 96, 39
1, 14513, Note_on_c, 0, 101, 21
1, 14514, Note_on_c, 0, 37, 95
1, 14514, Note_off_c, 0, 39, 64
1, 14514, Note_on_c, 0, 70, 26
1, 14514, Note_off_c, 0, 71, 64
1, 14514, Note_on_c, 0, 78, 32
1, 14514, Note_on_c, 0, 82, 29
1, 14514, Note_on_c, 0, 91, 20
1, 14515, Note_on_c, 0, 36, 94
1, 14515, Note_off_c, 0, 37, 64
1, 14515, Note_on_c, 0, 66, 19
1, 14515, Note_off_c, 0, 68, 64
1, 14515, Note_off_c, 0, 98, 64
1, 14516, Note_on_c, 0, 35, 92
1, 14516, Note_off_c, 0, 36, 64
1, 14516, Note_on_c, 0, 81, 21
1, 14516, Note_on_c, 0, 85, 22
1, 14516, Note_off_c, 0, 90, 64
1, 14516, Note_on_c, 0, 98, 26
1, 14517, Note_on_c, 0, 34, 92
1, 14517, Note_off_c, 0, 35, 64
1, 14517, Note_off_c, 0, 59, 64
1, 14517, Note_off_c, 0, 76, 64
1, 14517, Note_off_c, 0, 78, 64
1, 14517, Note_off_c, 0, 84, 64
1, 14518, Note_on_c, 0, 33, 91
1, 14518, Note_off_c, 0, 34, 64
1, 14518, Note_off_c, 0, 70, 64
1, 14518, Note_on_c, 0, 79, 24
1, 14518, Note_off_c, 0, 82, 64
1, 14519, Note_on_c, 0, 32, 93
1, 14519, Note_off_c, 0, 33, 64
1, 14519, Note_on_c, 0, 82, 29
1, 14520, Note_off_c, 0, 66, 64
1, 14520, Note_on_c, 0, 87, 27
1, 14520, Note_on_c, 0, 90, 26
1, 14521, Note_on_c, 0, 31, 91
1, 14521, Note_off_c, 0, 32, 64
1, 14521, Note_off_c, 0, 79, 64
1, 14521, Note_off_c, 0, 81, 64
1, 14521, Note_off_c, 0, 88, 64
1, 14521, Note_on_c, 0, 89, 12
1, 14521, Note_on_c, 0, 97, 33
1, 14522, Note_on_c, 0, 58, 16
1, 14522, Note_on_c, 0, 67, 13
1, 14522, Note_on_c, 0, 84, 18
1, 14522, Note_off_c, 0, 85, 64
1, 14522, Note_on_c, 0, 88, 39
1, 14522, Note_off_c, 0, 91, 64
1, 14523, Note_on_c, 0, 30, 81
1, 14523, Note_off_c, 0, 31, 64
1, 14523, Note_on_c, 0, 79, 22
1, 14523, Note_on_c, 0, 99, 30
1, 14524, Note_on_c, 0, 81, 23
1, 14524, Note_off_c, 0, 89, 64
1, 14525, Note_off_c, 0, 30, 64
1, 14525, Note_off_c, 0, 67, 64
1, 14525, Note_on_c, 0, 68, 23
1, 14525, Note_off_c, 0, 74, 64
1, 14525, Note_on_c, 0, 75, 56
1, 14525, Note_off_c, 0, 82, 64
1, 14525, Note_off_c, 0, 84, 64
1, 14525, Note_off_c, 0, 87, 64
1, 14525, Note_on_c, 0, 89, 32
1, 14525, Note_off_c, 0, 94, 64
1, 14526, Note_off_c, 0, 58, 64
1, 14526, Note_on_c, 0, 82, 30
1, 14526, Note_on_c, 0, 85, 30
1, 14526, Note_off_c, 0, 90, 64
1, 14526, Note_off_c, 0, 95, 64
1, 14527, Note_on_c, 0, 66, 51
1, 14527, Note_off_c, 0, 81, 64
1, 14527, Note_on_c, 0, 90, 21
1, 14527, Note_on_c, 0, 102, 33
1, 14528, Note_off_c, 0, 68, 64
1, 14528, Note_on_c, 0, 70, 41
1, 14528, Note_off_c, 0, 79, 64
1, 14528, Note_off_c, 0, 88, 64
1, 14528, Note_on_c, 0, 95, 36
1, 14529, Note_on_c, 0, 61, 17
1, 14529, Note_on_c, 0, 80, 31
1, 14529, Note_on_c, 0, 88, 33
1, 14529, Note_off_c, 0, 89, 64
1, 14530, Note_on_c, 0, 84, 24
1, 14530, Note_off_c, 0, 90, 64
1, 14531, Note_off_c, 0, 75, 64
1, 14531, Note_on_c, 0, 76, 32
1, 14531, Note_off_c, 0, 85, 64
1, 14531, Note_on_c, 0, 90, 38
1, 14532, Note_off_c, 0, 61, 64
1, 14532, Note_on_c, 0, 74, 24
1, 14532, Note_off_c, 0, 80, 64
1, 14532, Note_on_c, 0, 83, 26
1, 14533, Note_on_c, 0, 81, 26
1, 14533, Note_off_c, 0, 84, 64
1, 14533, Note_on_c, 0, 85, 28
1, 14533, Note_off_c, 0, 88, 64
1, 14534, Note_on_c, 0, 59, 18
1, 14534, Note_off_c, 0, 98, 64
1, 14535, Note_on_c, 0, 98, 27
1, 14536, Note_on_c, 0, 73, 21
1, 14536, Note_off_c, 0, 83, 64
1, 14536, Note_on_c, 0, 84, 27
1, 14536, Note_on_c, 0, 91, 34
1, 14536, Note_on_c, 0, 94, 34
1, 14537, Note_off_c, 0, 59, 64
1, 14537, Note_off_c, 0, 74, 64
1, 14538, Note_off_c, 0, 82, 64
1, 14538, Note_on_c, 0, 83, 13
1, 14538, Note_off_c, 0, 85, 64
1, 14538, Note_on_c, 0, 89, 32
1, 14539, Note_off_c, 0, 81, 64
1, 14539, Note_off_c, 0, 90, 64
1, 14539, Note_off_c, 0, 95, 64
1, 14539, Note_off_c, 0, 97, 64
1, 14540, Note_off_c, 0, 73, 64
1, 14540, Note_on_c, 0, 81, 21
1, 14540, Note_on_c, 0, 95, 33
1, 14540, Note_on_c, 0, 97, 26
1, 14541, Note_on_c, 0, 86, 28
1, 14541, Note_on_c, 0, 88, 39
1, 14541, Note_off_c, 0, 92, 64
1, 14542, Note_on_c, 0, 75, 31
1, 14542, Note_off_c, 0, 76, 64
1, 14542, Note_off_c, 0, 83, 64
1, 14542, Note_on_c, 0, 92, 38
1, 14543, Note_on_c, 0, 73, 49
1, 14543, Note_off_c, 0, 81, 64
1, 14543, Note_on_c, 0, 83, 29
1, 14543, Note_off_c, 0, 84, 64
1, 14543, Note_off_c, 0, 93, 64
1, 14544, Note_on_c, 0, 77, 16
1, 14544, Note_on_c, 0, 84, 14
1, 14544, Note_off_c, 0, 89, 64
1, 14545, Note_on_c, 0, 55, 21
1, 14545, Note_on_c, 0, 93, 38
1, 14545, Note_off_c, 0, 101, 64
1, 14546, Note_off_c, 0, 86, 64
1, 14546, Note_on_c, 0, 87, 38
1, 14547, Note_on_c, 0, 65, 23
1, 14547, Note_off_c, 0, 66, 64
1, 14547, Note_off_c, 0, 84, 64
1, 14547, Note_off_c, 0, 88, 64
1, 14547, Note_on_c, 0, 89, 35
1, 14548, Note_off_c, 0, 55, 64
1, 14548, Note_off_c, 0, 75, 64
1, 14548, Note_off_c, 0, 77, 64
1, 14548, Note_off_c, 0, 91, 64
1, 14548, Note_off_c, 0, 98, 64
1, 14549, Note_off_c, 0, 73, 64
1, 14549, Note_on_c, 0, 74, 43
1, 14549, Note_off_c, 0, 83, 64
1, 14549, Note_on_c, 0, 85, 42
1, 14549, Note_on_c, 0, 91, 31
1, 14549, Note_on_c, 0, 98, 37
1, 14550, Note_on_c, 0, 73, 35
1, 14551, Note_off_c, 0, 74, 64
1, 14551, Note_on_c, 0, 76, 21
1, 14551, Note_on_c, 0, 79, 32
1, 14551, Note_on_c, 0, 88, 32
1, 14552, Note_on_c, 0, 72, 52
1, 14553, Note_on_c, 0, 64, 50
1, 14553, Note_off_c, 0, 65, 64
1, 14553, Note_on_c, 0, 67, 50
1, 14553, Note_off_c, 0, 73, 64
1, 14553, Note_on_c, 0, 83, 32
1, 14553, Note_on_c, 0, 86, 41
1, 14554, Note_off_c, 0, 70, 64
1, 14554, Note_off_c, 0, 76, 64
1, 14554, Note_on_c, 0, 77, 38
1, 14554, Note_off_c, 0, 87, 64
1, 14555, Note_off_c, 0, 72, 64
1, 14555, Note_on_c, 0, 73, 55
1, 14556, Note_on_c, 0, 51, 78
1, 14556, Note_off_c, 0, 77, 64
1, 14556, Note_off_c, 0, 83, 64
1, 14556, Note_off_c, 0, 89, 64
1, 14556, Note_off_c, 0, 91, 64
1, 14556, Note_off_c, 0, 92, 64
1, 14557, Note_on_c, 0, 45, 89
1, 14557, Note_off_c, 0, 51, 64
1, 14557, Note_off_c, 0, 64, 64
1, 14557, Note_on_c, 0, 70, 29
1, 14557, Note_on_c, 0, 76, 37
1, 14557, Note_on_c, 0, 81, 24
1, 14557, Note_on_c, 0, 83, 23
1, 14557, Note_off_c, 0, 86, 64
1, 14557, Note_on_c, 0, 87, 22
1, 14557, Note_on_c, 0, 92, 29
1, 14557, Note_off_c, 0, 102, 64
1, 14558, Note_on_c, 0, 42, 94
1, 14558, Note_off_c, 0, 45, 64
1, 14558, Note_off_c, 0, 67, 64
1, 14558, Note_off_c, 0, 85, 64
1, 14559, Note_on_c, 0, 41, 97
1, 14559, Note_off_c, 0, 42, 64
1, 14559, Note_off_c, 0, 70, 64
1, 14559, Note_on_c, 0, 78, 22
1, 14559, Note_on_c, 0, 84, 22
1, 14560, Note_on_c, 0, 39, 95
1, 14560, Note_off_c, 0, 41, 64
1, 14560, Note_off_c, 0, 73, 64
1, 14560, Note_off_c, 0, 81, 64
1, 14560, Note_on_c, 0, 82, 32
1, 14560, Note_off_c, 0, 83, 64
1, 14560, Note_off_c, 0, 87, 64
1, 14561, Note_on_c, 0, 37, 96
1, 14561, Note_off_c, 0, 39, 64
1, 14561, Note_on_c, 0, 71, 29
1, 14561, Note_on_c, 0, 73, 44
1, 14561, Note_off_c, 0, 79, 64
1, 14561, Note_on_c, 0, 89, 10
1, 14561, Note_off_c, 0, 93, 64
1, 14561, Note_off_c, 0, 99, 64
1, 14562, Note_on_c, 0, 36, 95
1, 14562, Note_off_c, 0, 37, 64
1, 14562, Note_on_c, 0, 70, 20
1, 14562, Note_on_c, 0, 86, 20
1, 14562, Note_on_c, 0, 87, 34
1, 14562, Note_on_c, 0, 91, 31
1, 14562, Note_off_c, 0, 92, 64
1, 14562, Note_on_c, 0, 93, 25
1, 14562, Note_off_c, 0, 94, 64
1, 14562, Note_off_c, 0, 97, 64
1, 14563, Note_on_c, 0, 35, 94
1, 14563, Note_off_c, 0, 36, 64
1, 14563, Note_off_c, 0, 71, 64
1, 14563, Note_off_c, 0, 78, 64
1, 14563, Note_off_c, 0, 82, 64
1, 14563, Note_off_c, 0, 84, 64
1, 14563, Note_on_c, 0, 94, 22
1, 14564, Note_on_c, 0, 34, 93
1, 14564, Note_off_c, 0, 35, 64
1, 14564, Note_on_c, 0, 67, 17
1, 14564, Note_on_c, 0, 78, 35
1, 14564, Note_on_c, 0, 82, 35
1, 14564, Note_off_c, 0, 89, 64
1, 14565, Note_on_c, 0, 33, 92
1, 14565, Note_off_c, 0, 34, 64
1, 14565, Note_off_c, 0, 70, 64
1, 14565, Note_off_c, 0, 76, 64
1, 14565, Note_on_c, 0, 92, 40
1, 14565, Note_on_c, 0, 102, 20
1, 14566, Note_on_c, 0, 32, 93
1, 14566, Note_off_c, 0, 33, 64
1, 14566, Note_off_c, 0, 82, 64
1, 14566, Note_on_c, 0, 83, 36
1, 14566, Note_off_c, 0, 86, 64
1, 14566, Note_on_c, 0, 89, 28
1, 14566, Note_off_c, 0, 93, 64
1, 14566, Note_off_c, 0, 94, 64
1, 14567, Note_off_c, 0, 67, 64
1, 14567, Note_on_c, 0, 82, 35
1, 14567, Note_on_c, 0, 93, 30
1, 14568, Note_on_c, 0, 31, 92
1, 14568, Note_off_c, 0, 32, 64
1, 14568, Note_off_c, 0, 73, 64
1, 14568, Note_on_c, 0, 76, 36
1, 14568, Note_off_c, 0, 83, 64
1, 14569, Note_on_c, 0, 83, 24
1, 14569, Note_off_c, 0, 88, 64
1, 14570, Note_on_c, 0, 30, 81
1, 14570, Note_off_c, 0, 31, 64
1, 14570, Note_on_c, 0, 66, 26
1, 14570, Note_on_c, 0, 70, 29
1, 14570, Note_on_c, 0, 73, 33
1, 14571, Note_off_c, 0, 76, 64
1, 14572, Note_off_c, 0, 30, 64
1, 14572, Note_on_c, 0, 53, 18
1, 14572, Note_off_c, 0, 73, 64
1, 14572, Note_on_c, 0, 74, 61
1, 14572, Note_off_c, 0, 83, 64
1, 14572, Note_on_c, 0, 88, 40
1, 14572, Note_off_c, 0, 93, 64
1, 14573, Note_on_c, 0, 72, 39
1, 14574, Note_off_c, 0, 66, 64
1, 14574, Note_off_c, 0, 70, 64
1, 14574, Note_off_c, 0, 82, 64
1, 14574, Note_on_c, 0, 83, 36
1, 14575, Note_on_c, 0, 82, 31
1, 14576, Note_off_c, 0, 53, 64
1, 14576, Note_on_c, 0, 66, 35
1, 14576, Note_off_c, 0, 78, 64
1, 14576, Note_off_c, 0, 95, 64
1, 14577, Note_off_c, 0, 72, 64
1, 14577, Note_off_c, 0, 87, 64
1, 14577, Note_off_c, 0, 89, 64
1, 14577, Note_on_c, 0, 97, 50
1, 14577, Note_on_c, 0, 99, 24
1, 14578, Note_on_c, 0, 78, 40
1, 14578, Note_on_c, 0, 89, 30
1, 14578, Note_on_c, 0, 93, 33
1, 14579, Note_off_c, 0, 83, 64
1, 14579, Note_on_c, 0, 84, 28
1, 14579, Note_off_c, 0, 92, 64
1, 14580, Note_on_c, 0, 85, 33
1, 14581, Note_off_c, 0, 66, 64
1, 14581, Note_on_c, 0, 81, 34
1, 14581, Note_on_c, 0, 95, 40
1, 14581, Note_on_c, 0, 101, 30
1, 14582, Note_on_c, 0, 55, 60
1, 14582, Note_off_c, 0, 74, 64
1, 14582, Note_on_c, 0, 75, 53
1, 14582, Note_on_c, 0, 76, 35
1, 14582, Note_off_c, 0, 82, 64
1, 14582, Note_off_c, 0, 88, 64
1, 14582, Note_on_c, 0, 92, 40
1, 14583, Note_on_c, 0, 69, 38
1, 14583, Note_on_c, 0, 71, 39
1, 14583, Note_on_c, 0, 79, 34
1, 14583, Note_on_c, 0, 82, 34
1, 14583, Note_off_c, 0, 96, 64
1, 14584, Note_on_c, 0, 48, 71
1, 14584, Note_off_c, 0, 55, 64
1, 14584, Note_on_c, 0, 66, 48
1, 14584, Note_off_c, 0, 76, 64
1, 14584, Note_on_c, 0, 80, 20
1, 14584, Note_off_c, 0, 81, 64
1, 14584, Note_off_c, 0, 91, 64
1, 14584, Note_on_c, 0, 96, 35
1, 14585, Note_on_c, 0, 46, 81
1, 14585, Note_off_c, 0, 48, 64
1, 14585, Note_off_c, 0, 71, 64
1, 14585, Note_on_c, 0, 73, 19
1, 14585, Note_off_c, 0, 75, 64
1, 14585, Note_off_c, 0, 79, 64
1, 14585, Note_off_c, 0, 82, 64
1, 14586, Note_on_c, 0, 42, 88
1, 14586, Note_off_c, 0, 46, 64
1, 14586, Note_off_c, 0, 69, 64
1, 14586, Note_on_c, 0, 70, 34
1, 14586, Note_on_c, 0, 82, 41
1, 14586, Note_off_c, 0, 85, 64
1, 14587, Note_on_c, 0, 41, 92
1, 14587, Note_off_c, 0, 42, 64
1, 14587, Note_on_c, 0, 74, 19
1, 14587, Note_off_c, 0, 84, 64
1, 14587, Note_on_c, 0, 85, 29
1, 14588, Note_on_c, 0, 38, 89
1, 14588, Note_off_c, 0, 41, 64
1, 14588, Note_off_c, 0, 73, 64
1, 14588, Note_on_c, 0, 88, 38
1, 14588, Note_off_c, 0, 89, 64
1, 14589, Note_on_c, 0, 37, 90
1, 14589, Note_off_c, 0, 38, 64
1, 14589, Note_on_c, 0, 76, 27
1, 14589, Note_off_c, 0, 82, 64
1, 14589, Note_on_c, 0, 83, 24
1, 14589, Note_on_c, 0, 94, 24
1, 14589, Note_off_c, 0, 99, 64
1, 14590, Note_on_c, 0, 36, 89
1, 14590, Note_off_c, 0, 37, 64
1, 14590, Note_off_c, 0, 85, 64
1, 14591, Note_on_c, 0, 35, 88
1, 14591, Note_off_c, 0, 36, 64
1, 14591, Note_on_c, 0, 73, 30
1, 14591, Note_off_c, 0, 74, 64
1, 14591, Note_off_c, 0, 78, 64
1, 14592, Note_on_c, 0, 34, 87
1, 14592, Note_off_c, 0, 35, 64
1, 14592, Note_on_c, 0, 82, 45
1, 14592, Note_off_c, 0, 83, 64
1, 14592, Note_on_c, 0, 86, 27
1, 14592, Note_on_c, 0, 89, 32
1, 14593, Note_on_c, 0, 33, 87
1, 14593, Note_off_c, 0, 34, 64
1, 14593, Note_off_c, 0, 70, 64
1, 14593, Note_on_c, 0, 72, 37
1, 14593, Note_off_c, 0, 73, 64
1, 14593, Note_off_c, 0, 80, 64
1, 14593, Note_off_c, 0, 102, 64
1, 14594, Note_on_c, 0, 32, 88
1, 14594, Note_off_c, 0, 33, 64
1, 14594, Note_on_c, 0, 83, 33
1, 14594, Note_on_c, 0, 90, 37
1, 14594, Note_on_c, 0, 91, 19
1, 14595, Note_on_c, 0, 80, 28
1, 14596, Note_on_c, 0, 31, 85
1, 14596, Note_off_c, 0, 32, 64
1, 14596, Note_on_c, 0, 62, 38
1, 14596, Note_on_c, 0, 71, 37
1, 14596, Note_off_c, 0, 72, 64
1, 14596, Note_on_c, 0, 73, 32
1, 14596, Note_off_c, 0, 83, 64
1, 14597, Note_on_c, 0, 48, 74
1, 14597, Note_off_c, 0, 76, 64
1, 14597, Note_off_c, 0, 86, 64
1, 14597, Note_off_c, 0, 89, 64
1, 14598, Note_off_c, 0, 31, 64
1, 14598, Note_on_c, 0, 45, 85
1, 14598, Note_off_c, 0, 48, 64
1, 14598, Note_off_c, 0, 71, 64
1, 14598, Note_on_c, 0, 76, 19
1, 14598, Note_off_c, 0, 91, 64
1, 14598, Note_on_c, 0, 99, 20
1, 14599, Note_on_c, 0, 42, 91
1, 14599, Note_off_c, 0, 45, 64
1, 14599, Note_off_c, 0, 62, 64
1, 14599, Note_off_c, 0, 80, 64
1, 14599, Note_on_c, 0, 81, 33
1, 14599, Note_on_c, 0, 91, 26
1, 14599, Note_off_c, 0, 93, 64
1, 14600, Note_on_c, 0, 40, 91
1, 14600, Note_off_c, 0, 42, 64
1, 14600, Note_off_c, 0, 66, 64
1, 14600, Note_on_c, 0, 74, 32
1, 14600, Note_on_c, 0, 78, 13
1, 14601, Note_on_c, 0, 38, 92
1, 14601, Note_off_c, 0, 40, 64
1, 14601, Note_off_c, 0, 73, 64
1, 14601, Note_off_c, 0, 76, 64
1, 14601, Note_on_c, 0, 87, 34
1, 14601, Note_on_c, 0, 93, 38
1, 14602, Note_on_c, 0, 37, 92
1, 14602, Note_off_c, 0, 38, 64
1, 14602, Note_on_c, 0, 73, 54
1, 14602, Note_on_c, 0, 75, 30
1, 14602, Note_off_c, 0, 82, 64
1, 14602, Note_on_c, 0, 83, 20
1, 14603, Note_on_c, 0, 35, 91
1, 14603, Note_off_c, 0, 37, 64
1, 14603, Note_off_c, 0, 74, 64
1, 14603, Note_on_c, 0, 77, 25
1, 14603, Note_off_c, 0, 78, 64
1, 14604, Note_on_c, 0, 34, 89
1, 14604, Note_off_c, 0, 35, 64
1, 14604, Note_on_c, 0, 70, 34
1, 14604, Note_off_c, 0, 75, 64
1, 14604, Note_off_c, 0, 88, 64
1, 14604, Note_on_c, 0, 89, 38
1, 14605, Note_on_c, 0, 33, 89
1, 14605, Note_off_c, 0, 34, 64
1, 14605, Note_off_c, 0, 81, 64
1, 14605, Note_off_c, 0, 101, 64
1, 14606, Note_on_c, 0, 76, 30
1, 14606, Note_on_c, 0, 81, 34
1, 14606, Note_on_c, 0, 84, 30
1, 14606, Note_off_c, 0, 90, 64
1, 14607, Note_on_c, 0, 32, 89
1, 14607, Note_off_c, 0, 33, 64
1, 14607, Note_on_c, 0, 66, 49
1, 14607, Note_off_c, 0, 97, 64
1, 14608, Note_on_c, 0, 31, 89
1, 14608, Note_off_c, 0, 32, 64
1, 14608, Note_off_c, 0, 70, 64
1, 14608, Note_off_c, 0, 77, 64
1, 14608, Note_off_c, 0, 92, 64
1, 14608, Note_on_c, 0, 97, 32
1, 14609, Note_on_c, 0, 51, 67
1, 14609, Note_on_c, 0, 75, 32
1, 14609, Note_off_c, 0, 76, 64
1, 14609, Note_off_c, 0, 87, 64
1, 14609, Note_on_c, 0, 88, 32
1, 14609, Note_on_c, 0, 90, 24
1, 14609, Note_on_c, 0, 92, 37
1, 14609, Note_off_c, 0, 99, 64
1, 14610, Note_on_c, 0, 46, 78
1, 14610, Note_off_c, 0, 51, 64
1, 14610, Note_off_c, 0, 83, 64
1, 14610, Note_off_c, 0, 84, 64
1, 14610, Note_off_c, 0, 89, 64
1, 14610, Note_on_c, 0, 99, 32
1, 14611, Note_off_c, 0, 31, 64
1, 14611, Note_on_c, 0, 43, 87
1, 14611, Note_off_c, 0, 46, 64
1, 14611, Note_off_c, 0, 66, 64
1, 14611, Note_off_c, 0, 96, 64
1, 14612, Note_on_c, 0, 41, 93
1, 14612, Note_off_c, 0, 43, 64
1, 14612, Note_on_c, 0, 66, 29
1, 14612, Note_off_c, 0, 81, 64
1, 14612, Note_on_c, 0, 82, 32
1, 14612, Note_on_c, 0, 86, 21
1, 14612, Note_off_c, 0, 94, 64
1, 14612, Note_on_c, 0, 96, 37
1, 14613, Note_on_c, 0, 39, 91
1, 14613, Note_off_c, 0, 41, 64
1, 14613, Note_on_c, 0, 83, 29
1, 14613, Note_off_c, 0, 90, 64
1, 14613, Note_off_c, 0, 93, 64
1, 14614, Note_on_c, 0, 37, 93
1, 14614, Note_off_c, 0, 39, 64
1, 14614, Note_off_c, 0, 75, 64
1, 14614, Note_on_c, 0, 76, 41
1, 14614, Note_off_c, 0, 82, 64
1, 14614, Note_on_c, 0, 87, 28
1, 14614, Note_on_c, 0, 93, 25
1, 14614, Note_on_c, 0, 94, 23
1, 14615, Note_on_c, 0, 36, 92
1, 14615, Note_off_c, 0, 37, 64
1, 14615, Note_on_c, 0, 84, 17
1, 14616, Note_on_c, 0, 35, 91
1, 14616, Note_off_c, 0, 36, 64
1, 14616, Note_off_c, 0, 66, 64
1, 14616, Note_on_c, 0, 81, 29
1, 14616, Note_on_c, 0, 82, 26
1, 14616, Note_off_c, 0, 83, 64
1, 14616, Note_off_c, 0, 88, 64
1, 14616, Note_on_c, 0, 89, 35
1, 14617, Note_on_c, 0, 77, 23
1, 14617, Note_off_c, 0, 86, 64
1, 14617, Note_off_c, 0, 91, 64
1, 14617, Note_off_c, 0, 93, 64
1, 14618, Note_on_c, 0, 26, 67
1, 14618, Note_off_c, 0, 35, 64
1, 14618, Note_on_c, 0, 37, 86
1, 14618, Note_off_c, 0, 76, 64
1, 14618, Note_off_c, 0, 84, 64
1, 14618, Note_on_c, 0, 91, 22
1, 14618, Note_off_c, 0, 96, 64
1, 14618, Note_off_c, 0, 99, 64
1, 14619, Note_off_c, 0, 26, 64
1, 14619, Note_on_c, 0, 35, 88
1, 14619, Note_off_c, 0, 37, 64
1, 14619, Note_on_c, 0, 60, 47
1, 14619, Note_off_c, 0, 73, 64
1, 14619, Note_on_c, 0, 79, 29
1, 14619, Note_off_c, 0, 82, 64
1, 14619, Note_on_c, 0, 83, 29
1, 14620, Note_on_c, 0, 31, 91
1, 14620, Note_off_c, 0, 35, 64
1, 14620, Note_off_c, 0, 77, 64
1, 14621, Note_on_c, 0, 51, 67
1, 14621, Note_off_c, 0, 60, 64
1, 14621, Note_off_c, 0, 87, 64
1, 14621, Note_off_c, 0, 89, 64
1, 14621, Note_off_c, 0, 92, 64
1, 14621, Note_off_c, 0, 95, 64
1, 14621, Note_off_c, 0, 97, 64
1, 14621, Note_off_c, 0, 98, 64
1, 14622, Note_on_c, 0, 48, 79
1, 14622, Note_off_c, 0, 51, 64
1, 14622, Note_off_c, 0, 79, 64
1, 14622, Note_off_c, 0, 81, 64
1, 14622, Note_off_c, 0, 83, 64
1, 14622, Note_off_c, 0, 91, 64
1, 14622, Note_off_c, 0, 94, 64
1, 14623, Note_off_c, 0, 31, 64
1, 14623, Note_on_c, 0, 44, 89
1, 14623, Note_off_c, 0, 48, 64
1, 14624, Note_on_c, 0, 41, 96
1, 14624, Note_off_c, 0, 44, 64
1, 14625, Note_on_c, 0, 40, 94
1, 14625, Note_off_c, 0, 41, 64
1, 14626, Note_on_c, 0, 38, 96
1, 14626, Note_off_c, 0, 40, 64
1, 14627, Note_on_c, 0, 36, 95
1, 14627, Note_off_c, 0, 38, 64
1, 14628, Note_on_c, 0, 35, 94
1, 14628, Note_off_c, 0, 36, 64
1, 14629, Note_on_c, 0, 34, 94
1, 14629, Note_off_c, 0, 35, 64
1, 14630, Note_on_c, 0, 33, 93
1, 14630, Note_off_c, 0, 34, 64
1, 14631, Note_on_c, 0, 32, 94
1, 14631, Note_off_c, 0, 33, 64
1, 14633, Note_on_c, 0, 31, 93
1, 14633, Note_off_c, 0, 32, 64
1, 14635, Note_on_c, 0, 30, 85
1, 14635, Note_off_c, 0, 31, 64
1, 14638, Note_off_c, 0, 30, 64
1, 14656, Note_on_c, 0, 73, 41
1, 14656, Note_on_c, 0, 82, 49
1, 14656, Note_on_c, 0, 88, 46
1, 14656, Note_on_c, 0, 91, 35
1, 14656, Note_on_c, 0, 96, 37
1, 14656, Note_on_c, 0, 99, 39
1, 14657, Note_on_c, 0, 71, 46
1, 14657, Note_on_c, 0, 79, 32
1, 14657, Note_on_c, 0, 86, 41
1, 14657, Note_on_c, 0, 90, 40
1, 14657, Note_on_c, 0, 92, 38
1, 14657, Note_on_c, 0, 93, 35
1, 14657, Note_on_c, 0, 95, 26
1, 14657, Note_on_c, 0, 101, 25
1, 14658, Note_on_c, 0, 54, 66
1, 14658, Note_on_c, 0, 77, 32
1, 14658, Note_on_c, 0, 89, 45
1, 14659, Note_on_c, 0, 49, 81
1, 14659, Note_off_c, 0, 54, 64
1, 14659, Note_off_c, 0, 71, 64
1, 14660, Note_on_c, 0, 45, 91
1, 14660, Note_off_c, 0, 49, 64
1, 14660, Note_on_c, 0, 78, 38
1, 14660, Note_off_c, 0, 79, 64
1, 14660, Note_on_c, 0, 84, 25
1, 14660, Note_off_c, 0, 95, 64
1, 14660, Note_off_c, 0, 99, 64
1, 14661, Note_on_c, 0, 42, 96
1, 14661, Note_off_c, 0, 45, 64
1, 14661, Note_on_c, 0, 79, 22
1, 14661, Note_on_c, 0, 80, 23
1, 14661, Note_on_c, 0, 99, 19
1, 14662, Note_on_c, 0, 41, 98
1, 14662, Note_off_c, 0, 42, 64
1, 14662, Note_on_c, 0, 66, 21
1, 14662, Note_off_c, 0, 73, 64
1, 14662, Note_off_c, 0, 77, 64
1, 14662, Note_off_c, 0, 101, 64
1, 14663, Note_on_c, 0, 38, 96
1, 14663, Note_off_c, 0, 41, 64
1, 14663, Note_on_c, 0, 74, 23
1, 14663, Note_on_c, 0, 95, 36
1, 14664, Note_on_c, 0, 37, 96
1, 14664, Note_off_c, 0, 38, 64
1, 14664, Note_off_c, 0, 79, 64
1, 14664, Note_off_c, 0, 91, 64
1, 14665, Note_on_c, 0, 36, 96
1, 14665, Note_off_c, 0, 37, 64
1, 14665, Note_off_c, 0, 66, 64
1, 14666, Note_on_c, 0, 34, 95
1, 14666, Note_off_c, 0, 36, 64
1, 14666, Note_on_c, 0, 73, 31
1, 14666, Note_off_c, 0, 74, 64
1, 14666, Note_on_c, 0, 75, 35
1, 14666, Note_on_c, 0, 77, 23
1, 14666, Note_on_c, 0, 91, 36
1, 14666, Note_off_c, 0, 92, 64
1, 14667, Note_off_c, 0, 84, 64
1, 14667, Note_on_c, 0, 85, 36
1, 14667, Note_on_c, 0, 92, 34
1, 14667, Note_off_c, 0, 96, 64
1, 14668, Note_on_c, 0, 33, 93
1, 14668, Note_off_c, 0, 34, 64
1, 14668, Note_on_c, 0, 66, 20
1, 14668, Note_off_c, 0, 73, 64
1, 14668, Note_off_c, 0, 75, 64
1, 14668, Note_off_c, 0, 80, 64
1, 14668, Note_on_c, 0, 83, 39
1, 14668, Note_off_c, 0, 86, 64
1, 14668, Note_on_c, 0, 87, 32
1, 14668, Note_off_c, 0, 90, 64
1, 14668, Note_off_c, 0, 95, 64
1, 14668, Note_on_c, 0, 96, 35
1, 14668, Note_on_c, 0, 102, 9
1, 14669, Note_on_c, 0, 32, 95
1, 14669, Note_off_c, 0, 33, 64
1, 14669, Note_on_c, 0, 75, 46
1, 14669, Note_off_c, 0, 77, 64
1, 14669, Note_on_c, 0, 80, 29
1, 14669, Note_on_c, 0, 86, 31
1, 14669, Note_off_c, 0, 88, 64
1, 14670, Note_on_c, 0, 72, 32
1, 14670, Note_on_c, 0, 77, 43
1, 14670, Note_off_c, 0, 78, 64
1, 14670, Note_on_c, 0, 79, 40
1, 14670, Note_on_c, 0, 88, 31
1, 14671, Note_on_c, 0, 31, 94
1, 14671, Note_off_c, 0, 32, 64
1, 14671, Note_off_c, 0, 66, 64
1, 14671, Note_on_c, 0, 76, 50
1, 14671, Note_off_c, 0, 80, 64
1, 14671, Note_off_c, 0, 89, 64
1, 14671, Note_off_c, 0, 96, 64
1, 14672, Note_on_c, 0, 30, 91
1, 14672, Note_off_c, 0, 31, 64
1, 14672, Note_on_c, 0, 71, 37
1, 14672, Note_off_c, 0, 72, 64
1, 14672, Note_on_c, 0, 74, 48
1, 14672, Note_off_c, 0, 75, 64
1, 14672, Note_off_c, 0, 77, 64
1, 14672, Note_on_c, 0, 78, 48
1, 14672, Note_off_c, 0, 79, 64
1, 14672, Note_on_c, 0, 80, 45
1, 14672, Note_off_c, 0, 87, 64
1, 14672, Note_off_c, 0, 102, 64
1, 14673, Note_off_c, 0, 76, 64
1, 14673, Note_on_c, 0, 77, 48
1, 14673, Note_off_c, 0, 99, 64
1, 14675, Note_off_c, 0, 30, 64
1, 14675, Note_off_c, 0, 71, 64
1, 14675, Note_off_c, 0, 74, 64
1, 14675, Note_off_c, 0, 77, 64
1, 14675, Note_on_c, 0, 87, 37
1, 14675, Note_off_c, 0, 88, 64
1, 14676, Note_on_c, 0, 77, 38
1, 14676, Note_off_c, 0, 80, 64
1, 14676, Note_on_c, 0, 81, 46
1, 14676, Note_off_c, 0, 82, 64
1, 14676, Note_off_c, 0, 91, 64
1, 14676, Note_on_c, 0, 94, 33
1, 14676, Note_on_c, 0, 96, 41
1, 14676, Note_on_c, 0, 103, 13
1, 14677, Note_on_c, 0, 36, 69
1, 14677, Note_on_c, 0, 54, 50
1, 14677, Note_on_c, 0, 61, 27
1, 14677, Note_on_c, 0, 70, 47
1, 14677, Note_on_c, 0, 73, 47
1, 14677, Note_on_c, 0, 79, 38
1, 14677, Note_off_c, 0, 86, 64
1, 14677, Note_on_c, 0, 88, 40
1, 14678, Note_on_c, 0, 31, 77
1, 14678, Note_off_c, 0, 36, 64
1, 14678, Note_on_c, 0, 49, 58
1, 14678, Note_off_c, 0, 78, 64
1, 14679, Note_on_c, 0, 30, 80
1, 14679, Note_off_c, 0, 31, 64
1, 14679, Note_off_c, 0, 54, 64
1, 14679, Note_on_c, 0, 86, 33
1, 14680, Note_on_c, 0, 29, 79
1, 14680, Note_off_c, 0, 30, 64
1, 14680, Note_off_c, 0, 61, 64
1, 14680, Note_on_c, 0, 75, 29
1, 14680, Note_off_c, 0, 87, 64
1, 14680, Note_off_c, 0, 93, 64
1, 14680, Note_on_c, 0, 102, 18
1, 14681, Note_off_c, 0, 29, 64
1, 14681, Note_on_c, 0, 30, 77
1, 14681, Note_off_c, 0, 49, 64
1, 14681, Note_off_c, 0, 79, 64
1, 14681, Note_off_c, 0, 83, 64
1, 14681, Note_on_c, 0, 90, 37
1, 14682, Note_on_c, 0, 63, 15
1, 14682, Note_on_c, 0, 79, 40
1, 14682, Note_on_c, 0, 83, 23
1, 14682, Note_off_c, 0, 85, 64
1, 14683, Note_on_c, 0, 29, 75
1, 14683, Note_off_c, 0, 30, 64
1, 14683, Note_on_c, 0, 72, 33
1, 14683, Note_on_c, 0, 99, 20
1, 14684, Note_off_c, 0, 73, 64
1, 14684, Note_off_c, 0, 75, 64
1, 14684, Note_on_c, 0, 76, 32
1, 14684, Note_off_c, 0, 92, 64
1, 14684, Note_off_c, 0, 102, 64
1, 14684, Note_off_c, 0, 103, 64
1, 14685, Note_off_c, 0, 29, 64
1, 14685, Note_on_c, 0, 30, 69
1, 14685, Note_off_c, 0, 63, 64
1, 14685, Note_off_c, 0, 72, 64
1, 14685, Note_on_c, 0, 73, 34
1, 14685, Note_off_c, 0, 83, 64
1, 14685, Note_on_c, 0, 87, 47
1, 14685, Note_on_c, 0, 92, 42
1, 14686, Note_off_c, 0, 30, 64
1, 14686, Note_on_c, 0, 75, 47
1, 14686, Note_off_c, 0, 76, 64
1, 14686, Note_off_c, 0, 77, 64
1, 14686, Note_on_c, 0, 78, 39
1, 14686, Note_off_c, 0, 81, 64
1, 14686, Note_on_c, 0, 83, 23
1, 14686, Note_on_c, 0, 85, 35
1, 14686, Note_off_c, 0, 86, 64
1, 14687, Note_on_c, 0, 43, 68
1, 14687, Note_on_c, 0, 66, 22
1, 14687, Note_off_c, 0, 70, 64
1, 14687, Note_off_c, 0, 73, 64
1, 14687, Note_on_c, 0, 77, 45
1, 14688, Note_on_c, 0, 31, 74
1, 14688, Note_off_c, 0, 43, 64
1, 14688, Note_on_c, 0, 70, 40
1, 14688, Note_on_c, 0, 73, 46
1, 14688, Note_off_c, 0, 78, 64
1, 14688, Note_off_c, 0, 99, 64
1, 14689, Note_on_c, 0, 30, 81
1, 14689, Note_off_c, 0, 31, 64
1, 14689, Note_off_c, 0, 75, 64
1, 14689, Note_off_c, 0, 83, 64
1, 14689, Note_on_c, 0, 84, 33
1, 14689, Note_on_c, 0, 86, 32
1, 14690, Note_on_c, 0, 29, 81
1, 14690, Note_off_c, 0, 30, 64
1, 14690, Note_on_c, 0, 75, 43
1, 14690, Note_off_c, 0, 79, 64
1, 14690, Note_on_c, 0, 80, 32
1, 14690, Note_off_c, 0, 88, 64
1, 14690, Note_on_c, 0, 91, 34
1, 14691, Note_off_c, 0, 29, 64
1, 14691, Note_on_c, 0, 30, 77
1, 14691, Note_on_c, 0, 79, 40
1, 14691, Note_on_c, 0, 81, 45
1, 14691, Note_on_c, 0, 83, 32
1, 14691, Note_off_c, 0, 85, 64
1, 14691, Note_off_c, 0, 94, 64
1, 14692, Note_off_c, 0, 30, 64
1, 14692, Note_on_c, 0, 33, 72
1, 14692, Note_on_c, 0, 54, 44
1, 14692, Note_on_c, 0, 74, 47
1, 14692, Note_off_c, 0, 75, 64
1, 14692, Note_on_c, 0, 76, 51
1, 14692, Note_off_c, 0, 77, 64
1, 14692, Note_off_c, 0, 92, 64
1, 14692, Note_on_c, 0, 94, 25
1, 14693, Note_on_c, 0, 49, 34
1, 14693, Note_on_c, 0, 65, 34
1, 14693, Note_off_c, 0, 66, 64
1, 14693, Note_on_c, 0, 67, 33
1, 14693, Note_off_c, 0, 73, 64
1, 14693, Note_off_c, 0, 80, 64
1, 14693, Note_on_c, 0, 85, 40
1, 14693, Note_on_c, 0, 92, 40
1, 14694, Note_off_c, 0, 33, 64
1, 14694, Note_off_c, 0, 54, 64
1, 14694, Note_on_c, 0, 73, 51
1, 14694, Note_off_c, 0, 74, 64
1, 14694, Note_on_c, 0, 78, 44
1, 14694, Note_off_c, 0, 79, 64
1, 14694, Note_off_c, 0, 83, 64
1, 14694, Note_off_c, 0, 86, 64
1, 14695, Note_off_c, 0, 49, 64
1, 14695, Note_off_c, 0, 65, 64
1, 14695, Note_off_c, 0, 67, 64
1, 14695, Note_on_c, 0, 69, 44
1, 14695, Note_off_c, 0, 70, 64
1, 14695, Note_off_c, 0, 76, 64
1, 14695, Note_off_c, 0, 84, 64
1, 14695, Note_on_c, 0, 86, 43
1, 14696, Note_on_c, 0, 50, 76
1, 14696, Note_on_c, 0, 63, 42
1, 14696, Note_on_c, 0, 72, 34
1, 14696, Note_off_c, 0, 85, 64
1, 14697, Note_on_c, 0, 48, 85
1, 14697, Note_off_c, 0, 50, 64
1, 14697, Note_off_c, 0, 69, 64
1, 14697, Note_off_c, 0, 73, 64
1, 14697, Note_on_c, 0, 74, 33
1, 14697, Note_on_c, 0, 85, 43
1, 14697, Note_off_c, 0, 86, 64
1, 14697, Note_off_c, 0, 91, 64
1, 14698, Note_on_c, 0, 44, 93
1, 14698, Note_off_c, 0, 48, 64
1, 14698, Note_off_c, 0, 63, 64
1, 14698, Note_on_c, 0, 70, 29
1, 14698, Note_on_c, 0, 77, 32
1, 14698, Note_on_c, 0, 80, 24
1, 14698, Note_off_c, 0, 81, 64
1, 14698, Note_on_c, 0, 91, 21
1, 14699, Note_on_c, 0, 41, 98
1, 14699, Note_off_c, 0, 44, 64
1, 14699, Note_off_c, 0, 72, 64
1, 14699, Note_off_c, 0, 74, 64
1, 14700, Note_on_c, 0, 40, 95
1, 14700, Note_off_c, 0, 41, 64
1, 14700, Note_on_c, 0, 74, 29
1, 14700, Note_off_c, 0, 77, 64
1, 14700, Note_on_c, 0, 88, 32
1, 14701, Note_on_c, 0, 38, 97
1, 14701, Note_off_c, 0, 40, 64
1, 14701, Note_off_c, 0, 91, 64
1, 14702, Note_on_c, 0, 36, 96
1, 14702, Note_off_c, 0, 38, 64
1, 14702, Note_on_c, 0, 72, 34
1, 14702, Note_off_c, 0, 74, 64
1, 14702, Note_on_c, 0, 83, 31
1, 14703, Note_on_c, 0, 35, 95
1, 14703, Note_off_c, 0, 36, 64
1, 14703, Note_off_c, 0, 70, 64
1, 14703, Note_on_c, 0, 74, 62
1, 14703, Note_off_c, 0, 80, 64
1, 14703, Note_on_c, 0, 81, 18
1, 14704, Note_on_c, 0, 34, 95
1, 14704, Note_off_c, 0, 35, 64
1, 14704, Note_on_c, 0, 67, 15
1, 14704, Note_on_c, 0, 77, 29
1, 14704, Note_on_c, 0, 91, 26
1, 14705, Note_on_c, 0, 33, 94
1, 14705, Note_off_c, 0, 34, 64
1, 14705, Note_off_c, 0, 72, 64
1, 14705, Note_on_c, 0, 82, 26
1, 14705, Note_on_c, 0, 89, 35
1, 14706, Note_on_c, 0, 71, 20
1, 14706, Note_off_c, 0, 78, 64
1, 14706, Note_off_c, 0, 83, 64
1, 14707, Note_on_c, 0, 32, 95
1, 14707, Note_off_c, 0, 33, 64
1, 14707, Note_off_c, 0, 67, 64
1, 14707, Note_off_c, 0, 88, 64
1, 14707, Note_on_c, 0, 93, 30
1, 14707, Note_off_c, 0, 94, 64
1, 14708, Note_on_c, 0, 31, 95
1, 14708, Note_off_c, 0, 32, 64
1, 14708, Note_off_c, 0, 82, 64
1, 14708, Note_off_c, 0, 87, 64
1, 14708, Note_on_c, 0, 88, 34
1, 14708, Note_on_c, 0, 94, 32
1, 14709, Note_on_c, 0, 80, 22
1, 14709, Note_on_c, 0, 83, 26
1, 14709, Note_on_c, 0, 84, 17
1, 14710, Note_on_c, 0, 30, 88
1, 14710, Note_off_c, 0, 31, 64
1, 14710, Note_on_c, 0, 68, 36
1, 14710, Note_off_c, 0, 71, 64
1, 14710, Note_off_c, 0, 91, 64
1, 14711, Note_off_c, 0, 74, 64
1, 14711, Note_on_c, 0, 75, 61
1, 14711, Note_off_c, 0, 81, 64
1, 14711, Note_off_c, 0, 89, 64
1, 14712, Note_off_c, 0, 30, 64
1, 14712, Note_off_c, 0, 77, 64
1, 14712, Note_off_c, 0, 80, 64
1, 14712, Note_on_c, 0, 81, 29
1, 14712, Note_off_c, 0, 84, 64
1, 14712, Note_on_c, 0, 89, 35
1, 14713, Note_on_c, 0, 73, 36
1, 14713, Note_on_c, 0, 78, 47
1, 14713, Note_on_c, 0, 82, 47
1, 14713, Note_off_c, 0, 83, 64
1, 14713, Note_on_c, 0, 84, 28
1, 14713, Note_off_c, 0, 93, 64
1, 14714, Note_on_c, 0, 37, 69
1, 14714, Note_on_c, 0, 66, 63
1, 14714, Note_off_c, 0, 68, 64
1, 14714, Note_on_c, 0, 69, 37
1, 14715, Note_on_c, 0, 31, 75
1, 14715, Note_off_c, 0, 37, 64
1, 14715, Note_on_c, 0, 93, 29
1, 14715, Note_on_c, 0, 95, 34
1, 14716, Note_on_c, 0, 30, 79
1, 14716, Note_off_c, 0, 31, 64
1, 14716, Note_off_c, 0, 69, 64
1, 14716, Note_on_c, 0, 70, 38
1, 14716, Note_off_c, 0, 75, 64
1, 14716, Note_on_c, 0, 76, 34
1, 14716, Note_off_c, 0, 84, 64
1, 14716, Note_on_c, 0, 86, 37
1, 14717, Note_on_c, 0, 29, 79
1, 14717, Note_off_c, 0, 30, 64
1, 14717, Note_on_c, 0, 49, 56
1, 14717, Note_on_c, 0, 75, 29
1, 14717, Note_off_c, 0, 81, 64
1, 14717, Note_off_c, 0, 96, 64
1, 14718, Note_off_c, 0, 29, 64
1, 14718, Note_on_c, 0, 30, 76
1, 14718, Note_on_c, 0, 83, 38
1, 14718, Note_off_c, 0, 89, 64
1, 14718, Note_on_c, 0, 91, 24
1, 14719, Note_off_c, 0, 76, 64
1, 14719, Note_off_c, 0, 88, 64
1, 14719, Note_on_c, 0, 89, 38
1, 14720, Note_off_c, 0, 49, 64
1, 14720, Note_off_c, 0, 83, 64
1, 14720, Note_on_c, 0, 84, 36
1, 14720, Note_on_c, 0, 88, 31
1, 14721, Note_on_c, 0, 29, 72
1, 14721, Note_off_c, 0, 30, 64
1, 14721, Note_on_c, 0, 76, 33
1, 14722, Note_off_c, 0, 29, 64
1, 14722, Note_on_c, 0, 30, 69
1, 14722, Note_off_c, 0, 75, 64
1, 14722, Note_off_c, 0, 91, 64
1, 14723, Note_on_c, 0, 80, 45
1, 14723, Note_off_c, 0, 90, 64
1, 14723, Note_on_c, 0, 91, 35
1, 14724, Note_off_c, 0, 30, 64
1, 14724, Note_off_c, 0, 93, 64
1, 14725, Note_on_c, 0, 36, 72
1, 14725, Note_on_c, 0, 75, 35
1, 14725, Note_off_c, 0, 76, 64
1, 14725, Note_on_c, 0, 77, 25
1, 14725, Note_on_c, 0, 93, 32
1, 14726, Note_on_c, 0, 30, 79
1, 14726, Note_off_c, 0, 36, 64
1, 14726, Note_on_c, 0, 83, 42
1, 14726, Note_off_c, 0, 84, 64
1, 14726, Note_off_c, 0, 88, 64
1, 14727, Note_on_c, 0, 29, 81
1, 14727, Note_off_c, 0, 30, 64
1, 14727, Note_on_c, 0, 49, 60
1, 14727, Note_off_c, 0, 73, 64
1, 14727, Note_off_c, 0, 78, 64
1, 14728, Note_on_c, 0, 74, 29
1, 14728, Note_off_c, 0, 75, 64
1, 14728, Note_off_c, 0, 77, 64
1, 14728, Note_on_c, 0, 88, 21
1, 14729, Note_off_c, 0, 29, 64
1, 14729, Note_on_c, 0, 30, 74
1, 14729, Note_on_c, 0, 48, 57
1, 14729, Note_off_c, 0, 49, 64
1, 14729, Note_on_c, 0, 76, 22
1, 14729, Note_on_c, 0, 79, 33
1, 14729, Note_off_c, 0, 93, 64
1, 14730, Note_off_c, 0, 30, 64
1, 14730, Note_on_c, 0, 34, 67
1, 14730, Note_on_c, 0, 54, 33
1, 14730, Note_off_c, 0, 66, 64
1, 14730, Note_on_c, 0, 67, 55
1, 14731, Note_off_c, 0, 48, 64
1, 14731, Note_on_c, 0, 60, 43
1, 14731, Note_off_c, 0, 74, 64
1, 14731, Note_on_c, 0, 75, 38
1, 14731, Note_off_c, 0, 88, 64
1, 14731, Note_on_c, 0, 93, 39
1, 14732, Note_off_c, 0, 34, 64
1, 14732, Note_off_c, 0, 54, 64
1, 14732, Note_on_c, 0, 64, 51
1, 14732, Note_off_c, 0, 76, 64
1, 14732, Note_on_c, 0, 78, 38
1, 14732, Note_off_c, 0, 79, 64
1, 14732, Note_on_c, 0, 88, 28
1, 14732, Note_on_c, 0, 96, 25
1, 14733, Note_on_c, 0, 54, 68
1, 14733, Note_off_c, 0, 60, 64
1, 14733, Note_off_c, 0, 70, 64
1, 14733, Note_off_c, 0, 80, 64
1, 14733, Note_on_c, 0, 81, 32
1, 14733, Note_off_c, 0, 89, 64
1, 14733, Note_off_c, 0, 92, 64
1, 14734, Note_on_c, 0, 49, 82
1, 14734, Note_off_c, 0, 54, 64
1, 14734, Note_off_c, 0, 67, 64
1, 14734, Note_on_c, 0, 68, 37
1, 14734, Note_off_c, 0, 82, 64
1, 14734, Note_off_c, 0, 85, 64
1, 14734, Note_on_c, 0, 92, 30
1, 14735, Note_on_c, 0, 45, 92
1, 14735, Note_off_c, 0, 49, 64
1, 14735, Note_off_c, 0, 64, 64
1, 14735, Note_on_c, 0, 70, 16
1, 14735, Note_on_c, 0, 74, 40
1, 14735, Note_off_c, 0, 75, 64
1, 14735, Note_on_c, 0, 85, 27
1, 14735, Note_off_c, 0, 93, 64
1, 14736, Note_on_c, 0, 42, 97
1, 14736, Note_off_c, 0, 45, 64
1, 14736, Note_on_c, 0, 61, 39
1, 14736, Note_off_c, 0, 68, 64
1, 14736, Note_off_c, 0, 88, 64
1, 14736, Note_off_c, 0, 96, 64
1, 14737, Note_on_c, 0, 41, 98
1, 14737, Note_off_c, 0, 42, 64
1, 14737, Note_on_c, 0, 88, 34
1, 14738, Note_on_c, 0, 38, 97
1, 14738, Note_off_c, 0, 41, 64
1, 14738, Note_on_c, 0, 68, 25
1, 14738, Note_off_c, 0, 81, 64
1, 14738, Note_on_c, 0, 82, 40
1, 14738, Note_on_c, 0, 93, 25
1, 14738, Note_on_c, 0, 96, 27
1, 14739, Note_on_c, 0, 37, 97
1, 14739, Note_off_c, 0, 38, 64
1, 14739, Note_off_c, 0, 70, 64
1, 14739, Note_off_c, 0, 74, 64
1, 14739, Note_on_c, 0, 75, 34
1, 14739, Note_off_c, 0, 86, 64
1, 14740, Note_on_c, 0, 35, 96
1, 14740, Note_off_c, 0, 37, 64
1, 14740, Note_off_c, 0, 83, 64
1, 14740, Note_on_c, 0, 89, 18
1, 14741, Note_on_c, 0, 34, 95
1, 14741, Note_off_c, 0, 35, 64
1, 14741, Note_on_c, 0, 66, 30
1, 14741, Note_off_c, 0, 78, 64
1, 14742, Note_on_c, 0, 76, 27
1, 14742, Note_on_c, 0, 84, 28
1, 14743, Note_on_c, 0, 33, 93
1, 14743, Note_off_c, 0, 34, 64
1, 14743, Note_off_c, 0, 68, 64
1, 14743, Note_off_c, 0, 75, 64
1, 14743, Note_off_c, 0, 89, 64
1, 14743, Note_off_c, 0, 93, 64
1, 14744, Note_on_c, 0, 32, 96
1, 14744, Note_off_c, 0, 33, 64
1, 14744, Note_on_c, 0, 70, 28
1, 14744, Note_on_c, 0, 89, 14
1, 14744, Note_off_c, 0, 91, 64
1, 14745, Note_off_c, 0, 85, 64
1, 14746, Note_on_c, 0, 31, 95
1, 14746, Note_off_c, 0, 32, 64
1, 14746, Note_on_c, 0, 83, 29
1, 14746, Note_off_c, 0, 84, 64
1, 14746, Note_on_c, 0, 86, 21
1, 14747, Note_on_c, 0, 30, 91
1, 14747, Note_off_c, 0, 31, 64
1, 14747, Note_off_c, 0, 89, 64
1, 14747, Note_on_c, 0, 90, 26
1, 14747, Note_on_c, 0, 93, 23
1, 14748, Note_on_c, 0, 78, 30
1, 14748, Note_off_c, 0, 83, 64
1, 14748, Note_on_c, 0, 84, 29
1, 14748, Note_on_c, 0, 91, 22
1, 14749, Note_on_c, 0, 80, 37
1, 14749, Note_off_c, 0, 92, 64
1, 14750, Note_off_c, 0, 30, 64
1, 14750, Note_off_c, 0, 88, 64
1, 14750, Note_on_c, 0, 89, 22
1, 14750, Note_on_c, 0, 92, 39
1, 14751, Note_off_c, 0, 66, 64
1, 14751, Note_on_c, 0, 83, 32
1, 14751, Note_off_c, 0, 90, 64
1, 14752, Note_on_c, 0, 36, 70
1, 14752, Note_on_c, 0, 64, 42
1, 14752, Note_on_c, 0, 68, 39
1, 14752, Note_off_c, 0, 70, 64
1, 14752, Note_off_c, 0, 76, 64
1, 14752, Note_off_c, 0, 84, 64
1, 14752, Note_on_c, 0, 85, 36
1, 14752, Note_off_c, 0, 86, 64
1, 14752, Note_on_c, 0, 90, 30
1, 14752, Note_off_c, 0, 91, 64
1, 14752, Note_off_c, 0, 96, 64
1, 14753, Note_on_c, 0, 30, 79
1, 14753, Note_off_c, 0, 36, 64
1, 14753, Note_on_c, 0, 49, 58
1, 14753, Note_off_c, 0, 82, 64
1, 14753, Note_on_c, 0, 84, 36
1, 14753, Note_off_c, 0, 93, 64
1, 14754, Note_on_c, 0, 29, 80
1, 14754, Note_off_c, 0, 30, 64
1, 14754, Note_off_c, 0, 78, 64
1, 14754, Note_off_c, 0, 83, 64
1, 14754, Note_on_c, 0, 88, 29
1, 14754, Note_on_c, 0, 93, 27
1, 14755, Note_off_c, 0, 64, 64
1, 14755, Note_on_c, 0, 66, 31
1, 14755, Note_on_c, 0, 78, 33
1, 14755, Note_on_c, 0, 82, 39
1, 14755, Note_off_c, 0, 84, 64
1, 14755, Note_on_c, 0, 91, 26
1, 14755, Note_off_c, 0, 94, 64
1, 14755, Note_on_c, 0, 96, 24
1, 14756, Note_off_c, 0, 29, 64
1, 14756, Note_on_c, 0, 30, 75
1, 14756, Note_off_c, 0, 49, 64
1, 14756, Note_on_c, 0, 84, 31
1, 14756, Note_off_c, 0, 92, 64
1, 14756, Note_off_c, 0, 95, 64
1, 14757, Note_on_c, 0, 54, 50
1, 14757, Note_on_c, 0, 76, 34
1, 14757, Note_on_c, 0, 95, 27
1, 14758, Note_on_c, 0, 29, 73
1, 14758, Note_off_c, 0, 30, 64
1, 14758, Note_off_c, 0, 78, 64
1, 14758, Note_on_c, 0, 83, 30
1, 14758, Note_off_c, 0, 84, 64
1, 14758, Note_on_c, 0, 86, 25
1, 14758, Note_off_c, 0, 88, 64
1, 14759, Note_on_c, 0, 64, 43
1, 14759, Note_on_c, 0, 75, 33
1, 14759, Note_off_c, 0, 80, 64
1, 14759, Note_off_c, 0, 90, 64
1, 14759, Note_on_c, 0, 98, 25
1, 14760, Note_off_c, 0, 29, 64
1, 14760, Note_on_c, 0, 30, 67
1, 14760, Note_off_c, 0, 61, 64
1, 14760, Note_on_c, 0, 79, 34
1, 14760, Note_off_c, 0, 82, 64
1, 14760, Note_off_c, 0, 89, 64
1, 14761, Note_off_c, 0, 30, 64
1, 14761, Note_off_c, 0, 66, 64
1, 14761, Note_off_c, 0, 75, 64
1, 14761, Note_on_c, 0, 81, 28
1, 14761, Note_on_c, 0, 82, 29
1, 14761, Note_on_c, 0, 84, 42
1, 14761, Note_on_c, 0, 89, 25
1, 14762, Note_on_c, 0, 42, 70
1, 14762, Note_off_c, 0, 54, 64
1, 14762, Note_off_c, 0, 83, 64
1, 14763, Note_on_c, 0, 31, 76
1, 14763, Note_off_c, 0, 42, 64
1, 14763, Note_on_c, 0, 61, 37
1, 14763, Note_on_c, 0, 72, 37
1, 14763, Note_on_c, 0, 74, 41
1, 14763, Note_off_c, 0, 86, 64
1, 14763, Note_on_c, 0, 87, 33
1, 14764, Note_on_c, 0, 30, 81
1, 14764, Note_off_c, 0, 31, 64
1, 14764, Note_off_c, 0, 68, 64
1, 14764, Note_on_c, 0, 78, 37
1, 14764, Note_off_c, 0, 79, 64
1, 14764, Note_off_c, 0, 82, 64
1, 14764, Note_off_c, 0, 91, 64
1, 14765, Note_on_c, 0, 29, 81
1, 14765, Note_off_c, 0, 30, 64
1, 14765, Note_on_c, 0, 49, 58
1, 14765, Note_on_c, 0, 68, 32
1, 14765, Note_off_c, 0, 76, 64
1, 14765, Note_off_c, 0, 96, 64
1, 14766, Note_off_c, 0, 29, 64
1, 14766, Note_on_c, 0, 30, 78
1, 14766, Note_on_c, 0, 70, 21
1, 14766, Note_off_c, 0, 72, 64
1, 14766, Note_off_c, 0, 74, 64
1, 14766, Note_on_c, 0, 77, 36
1, 14766, Note_off_c, 0, 78, 64
1, 14766, Note_on_c, 0, 82, 39
1, 14767, Note_off_c, 0, 30, 64
1, 14767, Note_on_c, 0, 34, 72
1, 14767, Note_off_c, 0, 49, 64
1, 14767, Note_on_c, 0, 54, 58
1, 14767, Note_off_c, 0, 64, 64
1, 14767, Note_on_c, 0, 74, 46
1, 14767, Note_on_c, 0, 78, 36
1, 14767, Note_off_c, 0, 81, 64
1, 14767, Note_off_c, 0, 93, 64
1, 14768, Note_off_c, 0, 34, 64
1, 14768, Note_off_c, 0, 61, 64
1, 14768, Note_on_c, 0, 64, 42
1, 14768, Note_on_c, 0, 73, 40
1, 14768, Note_off_c, 0, 77, 64
1, 14768, Note_on_c, 0, 79, 42
1, 14768, Note_off_c, 0, 87, 64
1, 14769, Note_off_c, 0, 68, 64
1, 14769, Note_on_c, 0, 69, 45
1, 14769, Note_off_c, 0, 70, 64
1, 14769, Note_off_c, 0, 74, 64
1, 14769, Note_on_c, 0, 75, 39
1, 14769, Note_off_c, 0, 85, 64
1, 14769, Note_off_c, 0, 89, 64
1, 14769, Note_on_c, 0, 97, 24
1, 14769, Note_on_c, 0, 99, 24
1, 14770, Note_off_c, 0, 64, 64
1, 14770, Note_off_c, 0, 73, 64
1, 14770, Note_off_c, 0, 78, 64
1, 14770, Note_on_c, 0, 93, 23
1, 14771, Note_on_c, 0, 50, 76
1, 14771, Note_off_c, 0, 54, 64
1, 14771, Note_on_c, 0, 66, 58
1, 14771, Note_on_c, 0, 73, 36
1, 14771, Note_on_c, 0, 80, 34
1, 14771, Note_on_c, 0, 89, 22
1, 14772, Note_on_c, 0, 46, 87
1, 14772, Note_off_c, 0, 50, 64
1, 14772, Note_off_c, 0, 69, 64
1, 14772, Note_off_c, 0, 75, 64
1, 14772, Note_on_c, 0, 76, 37
1, 14772, Note_off_c, 0, 79, 64
1, 14772, Note_on_c, 0, 85, 37
1, 14772, Note_off_c, 0, 99, 64
1, 14773, Note_on_c, 0, 44, 93
1, 14773, Note_off_c, 0, 46, 64
1, 14773, Note_off_c, 0, 93, 64
1, 14773, Note_off_c, 0, 98, 64
1, 14774, Note_on_c, 0, 41, 98
1, 14774, Note_off_c, 0, 44, 64
1, 14774, Note_on_c, 0, 87, 20
1, 14774, Note_off_c, 0, 89, 64
1, 14774, Note_on_c, 0, 91, 35
1, 14775, Note_on_c, 0, 39, 96
1, 14775, Note_off_c, 0, 41, 64
1, 14775, Note_on_c, 0, 83, 26
1, 14775, Note_off_c, 0, 84, 64
1, 14775, Note_off_c, 0, 95, 64
1, 14775, Note_off_c, 0, 97, 64
1, 14776, Note_on_c, 0, 37, 97
1, 14776, Note_off_c, 0, 39, 64
1, 14776, Note_on_c, 0, 84, 27
1, 14776, Note_on_c, 0, 93, 19
1, 14777, Note_on_c, 0, 36, 96
1, 14777, Note_off_c, 0, 37, 64
1, 14777, Note_on_c, 0, 61, 16
1, 14778, Note_on_c, 0, 35, 95
1, 14778, Note_off_c, 0, 36, 64
1, 14778, Note_off_c, 0, 82, 64
1, 14778, Note_on_c, 0, 95, 30
1, 14779, Note_on_c, 0, 34, 94
1, 14779, Note_off_c, 0, 35, 64
1, 14779, Note_on_c, 0, 70, 26
1, 14779, Note_off_c, 0, 83, 64
1, 14779, Note_off_c, 0, 93, 64
1, 14780, Note_on_c, 0, 33, 93
1, 14780, Note_off_c, 0, 34, 64
1, 14780, Note_off_c, 0, 76, 64
1, 14780, Note_on_c, 0, 86, 35
1, 14781, Note_on_c, 0, 32, 94
1, 14781, Note_off_c, 0, 33, 64
1, 14781, Note_off_c, 0, 87, 64
1, 14781, Note_on_c, 0, 88, 20
1, 14781, Note_on_c, 0, 93, 28
1, 14781, Note_on_c, 0, 96, 29
1, 14782, Note_off_c, 0, 73, 64
1, 14782, Note_on_c, 0, 87, 22
1, 14782, Note_off_c, 0, 95, 64
1, 14783, Note_on_c, 0, 31, 93
1, 14783, Note_off_c, 0, 32, 64
1, 14783, Note_on_c, 0, 76, 24
1, 14783, Note_on_c, 0, 95, 20
1, 14784, Note_off_c, 0, 88, 64
1, 14784, Note_on_c, 0, 89, 31
1, 14785, Note_on_c, 0, 30, 84
1, 14785, Note_off_c, 0, 31, 64
1, 14785, Note_on_c, 0, 82, 33
1, 14785, Note_off_c, 0, 84, 64
1, 14786, Note_off_c, 0, 87, 64
1, 14786, Note_off_c, 0, 93, 64
1, 14788, Note_off_c, 0, 30, 64
1, 14788, Note_on_c, 0, 74, 30
1, 14788, Note_on_c, 0, 93, 39
1, 14788, Note_off_c, 0, 96, 64
1, 14789, Note_off_c, 0, 61, 64
1, 14789, Note_off_c, 0, 76, 64
1, 14790, Note_on_c, 0, 69, 18
1, 14790, Note_off_c, 0, 70, 64
1, 14790, Note_on_c, 0, 75, 30
1, 14790, Note_off_c, 0, 91, 64
1, 14790, Note_on_c, 0, 92, 37
1, 14790, Note_on_c, 0, 96, 28
1, 14791, Note_on_c, 0, 65, 58
1, 14791, Note_off_c, 0, 66, 64
1, 14791, Note_off_c, 0, 74, 64
1, 14791, Note_on_c, 0, 79, 32
1, 14791, Note_off_c, 0, 80, 64
1, 14791, Note_on_c, 0, 81, 28
1, 14791, Note_on_c, 0, 84, 28
1, 14792, Note_on_c, 0, 74, 44
1, 14792, Note_off_c, 0, 75, 64
1, 14792, Note_on_c, 0, 76, 29
1, 14792, Note_off_c, 0, 85, 64
1, 14792, Note_on_c, 0, 94, 34
1, 14792, Note_off_c, 0, 95, 64
1, 14793, Note_off_c, 0, 69, 64
1, 14793, Note_on_c, 0, 83, 24
1, 14793, Note_on_c, 0, 95, 33
1, 14794, Note_on_c, 0, 64, 57
1, 14794, Note_off_c, 0, 65, 64
1, 14794, Note_on_c, 0, 71, 32
1, 14794, Note_off_c, 0, 89, 64
1, 14795, Note_off_c, 0, 76, 64
1, 14795, Note_on_c, 0, 87, 27
1, 14795, Note_on_c, 0, 97, 17
1, 14796, Note_off_c, 0, 74, 64
1, 14796, Note_on_c, 0, 75, 37
1, 14796, Note_off_c, 0, 81, 64
1, 14796, Note_off_c, 0, 83, 64
1, 14796, Note_on_c, 0, 85, 28
1, 14796, Note_off_c, 0, 86, 64
1, 14796, Note_on_c, 0, 89, 36
1, 14797, Note_on_c, 0, 63, 55
1, 14797, Note_off_c, 0, 64, 64
1, 14797, Note_off_c, 0, 84, 64
1, 14797, Note_on_c, 0, 86, 31
1, 14798, Note_on_c, 0, 77, 32
1, 14799, Note_on_c, 0, 69, 31
1, 14799, Note_on_c, 0, 78, 33
1, 14800, Note_on_c, 0, 62, 52
1, 14800, Note_off_c, 0, 63, 64
1, 14800, Note_on_c, 0, 66, 30
1, 14800, Note_off_c, 0, 71, 64
1, 14800, Note_on_c, 0, 72, 37
1, 14800, Note_off_c, 0, 75, 64
1, 14800, Note_on_c, 0, 76, 31
1, 14800, Note_off_c, 0, 77, 64
1, 14800, Note_on_c, 0, 88, 32
1, 14800, Note_off_c, 0, 97, 64
1, 14801, Note_off_c, 0, 79, 64
1, 14801, Note_off_c, 0, 86, 64
1, 14802, Note_on_c, 0, 65, 37
1, 14802, Note_off_c, 0, 66, 64
1, 14802, Note_off_c, 0, 69, 64
1, 14802, Note_off_c, 0, 72, 64
1, 14802, Note_on_c, 0, 73, 48
1, 14802, Note_on_c, 0, 75, 35
1, 14802, Note_off_c, 0, 76, 64
1, 14802, Note_off_c, 0, 78, 64
1, 14802, Note_on_c, 0, 80, 40
1, 14802, Note_on_c, 0, 83, 38
1, 14802, Note_on_c, 0, 86, 36
1, 14802, Note_off_c, 0, 87, 64
1, 14803, Note_on_c, 0, 61, 40
1, 14803, Note_off_c, 0, 62, 64
1, 14803, Note_on_c, 0, 90, 25
1, 14804, Note_off_c, 0, 88, 64
1, 14805, Note_off_c, 0, 61, 64
1, 14805, Note_on_c, 0, 67, 36
1, 14805, Note_off_c, 0, 75, 64
1, 14805, Note_on_c, 0, 76, 40
1, 14805, Note_on_c, 0, 91, 40
1, 14806, Note_off_c, 0, 65, 64
1, 14806, Note_on_c, 0, 72, 49
1, 14806, Note_off_c, 0, 73, 64
1, 14806, Note_on_c, 0, 78, 41
1, 14806, Note_off_c, 0, 80, 64
1, 14806, Note_on_c, 0, 81, 38
1, 14806, Note_on_c, 0, 100, 19
1, 14807, Note_off_c, 0, 67, 64
1, 14807, Note_on_c, 0, 77, 40
1, 14807, Note_off_c, 0, 82, 64
1, 14807, Note_off_c, 0, 85, 64
1, 14807, Note_off_c, 0, 90, 64
1, 14808, Note_on_c, 0, 53, 70
1, 14808, Note_on_c, 0, 67, 47
1, 14808, Note_on_c, 0, 74, 33
1, 14808, Note_off_c, 0, 78, 64
1, 14808, Note_on_c, 0, 80, 27
1, 14808, Note_on_c, 0, 85, 22
1, 14808, Note_off_c, 0, 86, 64
1, 14808, Note_on_c, 0, 87, 43
1, 14808, Note_on_c, 0, 90, 40
1, 14809, Note_on_c, 0, 48, 84
1, 14809, Note_off_c, 0, 53, 64
1, 14809, Note_off_c, 0, 76, 64
1, 14809, Note_off_c, 0, 77, 64
1, 14809, Note_off_c, 0, 81, 64
1, 14809, Note_on_c, 0, 82, 21
1, 14809, Note_off_c, 0, 83, 64
1, 14810, Note_on_c, 0, 45, 93
1, 14810, Note_off_c, 0, 48, 64
1, 14810, Note_on_c, 0, 66, 30
1, 14810, Note_off_c, 0, 67, 64
1, 14810, Note_on_c, 0, 71, 12
1, 14810, Note_off_c, 0, 72, 64
1, 14810, Note_on_c, 0, 73, 21
1, 14810, Note_off_c, 0, 74, 64
1, 14810, Note_on_c, 0, 83, 20
1, 14810, Note_off_c, 0, 89, 64
1, 14810, Note_off_c, 0, 91, 64
1, 14810, Note_off_c, 0, 93, 64
1, 14811, Note_on_c, 0, 42, 98
1, 14811, Note_off_c, 0, 45, 64
1, 14811, Note_on_c, 0, 89, 33
1, 14811, Note_on_c, 0, 93, 19
1, 14811, Note_off_c, 0, 100, 64
1, 14812, Note_on_c, 0, 40, 97
1, 14812, Note_off_c, 0, 42, 64
1, 14812, Note_on_c, 0, 91, 23
1, 14813, Note_on_c, 0, 38, 97
1, 14813, Note_off_c, 0, 40, 64
1, 14813, Note_off_c, 0, 83, 64
1, 14813, Note_on_c, 0, 88, 25
1, 14813, Note_off_c, 0, 89, 64
1, 14813, Note_off_c, 0, 92, 64
1, 14814, Note_on_c, 0, 37, 97
1, 14814, Note_off_c, 0, 38, 64
1, 14814, Note_off_c, 0, 71, 64
1, 14814, Note_off_c, 0, 94, 64
1, 14815, Note_on_c, 0, 35, 96
1, 14815, Note_off_c, 0, 37, 64
1, 14815, Note_on_c, 0, 92, 27
1, 14815, Note_on_c, 0, 94, 23
1, 14816, Note_on_c, 0, 34, 95
1, 14816, Note_off_c, 0, 35, 64
1, 14816, Note_off_c, 0, 93, 64
1, 14816, Note_on_c, 0, 98, 12
1, 14817, Note_on_c, 0, 33, 95
1, 14817, Note_off_c, 0, 34, 64
1, 14817, Note_on_c, 0, 83, 24
1, 14817, Note_off_c, 0, 88, 64
1, 14818, Note_on_c, 0, 65, 25
1, 14818, Note_off_c, 0, 66, 64
1, 14818, Note_off_c, 0, 73, 64
1, 14818, Note_on_c, 0, 89, 25
1, 14819, Note_on_c, 0, 32, 95
1, 14819, Note_off_c, 0, 33, 64
1, 14819, Note_on_c, 0, 79, 16
1, 14819, Note_off_c, 0, 80, 64
1, 14819, Note_on_c, 0, 84, 30
1, 14819, Note_off_c, 0, 91, 64
1, 14819, Note_on_c, 0, 93, 19
1, 14819, Note_off_c, 0, 95, 64
1, 14819, Note_off_c, 0, 98, 64
1, 14820, Note_on_c, 0, 31, 96
1, 14820, Note_off_c, 0, 32, 64
1, 14820, Note_on_c, 0, 75, 23
1, 14820, Note_off_c, 0, 83, 64
1, 14820, Note_off_c, 0, 94, 64
1, 14820, Note_on_c, 0, 95, 18
1, 14821, Note_on_c, 0, 64, 27
1, 14821, Note_off_c, 0, 65, 64
1, 14821, Note_on_c, 0, 68, 18
1, 14821, Note_on_c, 0, 72, 21
1, 14821, Note_on_c, 0, 88, 31
1, 14821, Note_off_c, 0, 96, 64
1, 14822, Note_on_c, 0, 30, 90
1, 14822, Note_off_c, 0, 31, 64
1, 14822, Note_on_c, 0, 77, 16
1, 14823, Note_off_c, 0, 79, 64
1, 14823, Note_on_c, 0, 81, 28
1, 14823, Note_off_c, 0, 82, 64
1, 14823, Note_off_c, 0, 85, 64
1, 14823, Note_off_c, 0, 89, 64
1, 14824, Note_off_c, 0, 68, 64
1, 14824, Note_off_c, 0, 72, 64
1, 14824, Note_off_c, 0, 75, 64
1, 14824, Note_off_c, 0, 87, 64
1, 14824, Note_off_c, 0, 93, 64
1, 14825, Note_off_c, 0, 30, 64
1, 14825, Note_on_c, 0, 44, 65
1, 14825, Note_on_c, 0, 63, 38
1, 14825, Note_off_c, 0, 64, 64
1, 14825, Note_on_c, 0, 73, 29
1, 14825, Note_on_c, 0, 86, 15
1, 14825, Note_on_c, 0, 94, 13
1, 14826, Note_on_c, 0, 70, 21
1, 14826, Note_off_c, 0, 77, 64
1, 14826, Note_on_c, 0, 78, 28
1, 14826, Note_on_c, 0, 89, 18
1, 14826, Note_off_c, 0, 90, 64
1, 14826, Note_off_c, 0, 95, 64
1, 14827, Note_on_c, 0, 31, 71
1, 14827, Note_off_c, 0, 44, 64
1, 14827, Note_on_c, 0, 76, 37
1, 14827, Note_on_c, 0, 80, 32
1, 14828, Note_on_c, 0, 30, 78
1, 14828, Note_off_c, 0, 31, 64
1, 14828, Note_on_c, 0, 72, 37
1, 14828, Note_off_c, 0, 73, 64
1, 14828, Note_off_c, 0, 81, 64
1, 14828, Note_on_c, 0, 82, 28
1, 14828, Note_off_c, 0, 86, 64
1, 14828, Note_on_c, 0, 95, 9
1, 14829, Note_on_c, 0, 29, 80
1, 14829, Note_off_c, 0, 30, 64
1, 14829, Note_off_c, 0, 63, 64
1, 14829, Note_on_c, 0, 74, 19
1, 14829, Note_off_c, 0, 94, 64
1, 14830, Note_off_c, 0, 29, 64
1, 14830, Note_on_c, 0, 30, 78
1, 14830, Note_off_c, 0, 70, 64
1, 14830, Note_on_c, 0, 91, 34
1, 14831, Note_on_c, 0, 81, 17
1, 14831, Note_off_c, 0, 89, 64
1, 14831, Note_on_c, 0, 90, 31
1, 14831, Note_off_c, 0, 95, 64
1, 14832, Note_on_c, 0, 60, 18
1, 14832, Note_on_c, 0, 66, 52
1, 14832, Note_off_c, 0, 74, 64
1, 14832, Note_off_c, 0, 80, 64
1, 14832, Note_on_c, 0, 93, 23
1, 14833, Note_on_c, 0, 29, 73
1, 14833, Note_off_c, 0, 30, 64
1, 14834, Note_on_c, 0, 80, 30
1, 14834, Note_on_c, 0, 85, 30
1, 14835, Note_off_c, 0, 29, 64
1, 14835, Note_on_c, 0, 30, 67
1, 14835, Note_off_c, 0, 60, 64
1, 14835, Note_off_c, 0, 72, 64
1, 14835, Note_off_c, 0, 78, 64
1, 14835, Note_off_c, 0, 81, 64
1, 14835, Note_off_c, 0, 82, 64
1, 14835, Note_on_c, 0, 89, 32
1, 14835, Note_on_c, 0, 95, 24
1, 14836, Note_on_c, 0, 82, 40
1, 14836, Note_on_c, 0, 83, 32
1, 14836, Note_on_c, 0, 86, 19
1, 14836, Note_off_c, 0, 92, 64
1, 14837, Note_off_c, 0, 30, 64
1, 14837, Note_on_c, 0, 41, 71
1, 14837, Note_on_c, 0, 71, 34
1, 14837, Note_off_c, 0, 84, 64
1, 14837, Note_on_c, 0, 96, 24
1, 14838, Note_on_c, 0, 30, 77
1, 14838, Note_off_c, 0, 41, 64
1, 14838, Note_on_c, 0, 61, 28
1, 14838, Note_on_c, 0, 74, 17
1, 14838, Note_on_c, 0, 77, 26
1, 14839, Note_on_c, 0, 29, 82
1, 14839, Note_off_c, 0, 30, 64
1, 14839, Note_off_c, 0, 71, 64
1, 14839, Note_off_c, 0, 76, 64
1, 14839, Note_off_c, 0, 83, 64
1, 14839, Note_on_c, 0, 84, 28
1, 14839, Note_on_c, 0, 87, 38
1, 14840, Note_on_c, 0, 49, 59
1, 14841, Note_off_c, 0, 29, 64
1, 14841, Note_on_c, 0, 30, 77
1, 14841, Note_on_c, 0, 70, 42
1, 14841, Note_off_c, 0, 77, 64
1, 14841, Note_on_c, 0, 83, 32
1, 14841, Note_off_c, 0, 85, 64
1, 14842, Note_off_c, 0, 30, 64
1, 14842, Note_on_c, 0, 34, 72
1, 14842, Note_off_c, 0, 49, 64
1, 14842, Note_on_c, 0, 54, 40
1, 14842, Note_off_c, 0, 61, 64
1, 14842, Note_on_c, 0, 73, 36
1, 14842, Note_off_c, 0, 74, 64
1, 14842, Note_on_c, 0, 75, 38
1, 14842, Note_on_c, 0, 77, 37
1, 14842, Note_off_c, 0, 80, 64
1, 14842, Note_off_c, 0, 84, 64
1, 14842, Note_off_c, 0, 93, 64
1, 14843, Note_off_c, 0, 34, 64
1, 14843, Note_on_c, 0, 80, 42
1, 14843, Note_off_c, 0, 86, 64
1, 14843, Note_off_c, 0, 88, 64
1, 14844, Note_off_c, 0, 54, 64
1, 14844, Note_off_c, 0, 82, 64
1, 14844, Note_on_c, 0, 88, 28
1, 14844, Note_on_c, 0, 93, 32
1, 14844, Note_on_c, 0, 94, 22
1, 14845, Note_on_c, 0, 63, 49
1, 14845, Note_on_c, 0, 69, 45
1, 14845, Note_off_c, 0, 70, 64
1, 14845, Note_off_c, 0, 73, 64
1, 14845, Note_off_c, 0, 80, 64
1, 14845, Note_on_c, 0, 84, 32
1, 14846, Note_on_c, 0, 50, 78
1, 14846, Note_on_c, 0, 71, 14
1, 14846, Note_on_c, 0, 86, 24
1, 14846, Note_off_c, 0, 90, 64
1, 14847, Note_on_c, 0, 46, 89
1, 14847, Note_off_c, 0, 50, 64
1, 14847, Note_off_c, 0, 63, 64
1, 14847, Note_off_c, 0, 87, 64
1, 14847, Note_off_c, 0, 94, 64
1, 14847, Note_off_c, 0, 95, 64
1, 14848, Note_on_c, 0, 43, 95
1, 14848, Note_off_c, 0, 46, 64
1, 14848, Note_off_c, 0, 66, 64
1, 14848, Note_on_c, 0, 74, 19
1, 14848, Note_off_c, 0, 75, 64
1, 14848, Note_off_c, 0, 84, 64
1, 14848, Note_off_c, 0, 88, 64
1, 14848, Note_off_c, 0, 93, 64
1, 14848, Note_off_c, 0, 96, 64
1, 14849, Note_on_c, 0, 41, 99
1, 14849, Note_off_c, 0, 43, 64
1, 14849, Note_off_c, 0, 71, 64
1, 14849, Note_off_c, 0, 77, 64
1, 14849, Note_off_c, 0, 89, 64
1, 14849, Note_on_c, 0, 94, 14
1, 14850, Note_on_c, 0, 39, 97
1, 14850, Note_off_c, 0, 41, 64
1, 14850, Note_on_c, 0, 64, 23
1, 14850, Note_off_c, 0, 69, 64
1, 14850, Note_on_c, 0, 88, 18
1, 14851, Note_on_c, 0, 37, 98
1, 14851, Note_off_c, 0, 39, 64
1, 14851, Note_on_c, 0, 85, 21
1, 14851, Note_off_c, 0, 86, 64
1, 14851, Note_on_c, 0, 93, 17
1, 14852, Note_on_c, 0, 36, 97
1, 14852, Note_off_c, 0, 37, 64
1, 14852, Note_off_c, 0, 94, 64
1, 14853, Note_on_c, 0, 35, 96
1, 14853, Note_off_c, 0, 36, 64
1, 14853, Note_on_c, 0, 63, 18
1, 14853, Note_off_c, 0, 64, 64
1, 14853, Note_on_c, 0, 82, 23
1, 14854, Note_on_c, 0, 34, 95
1, 14854, Note_off_c, 0, 35, 64
1, 14854, Note_off_c, 0, 74, 64
1, 14854, Note_off_c, 0, 83, 64
1, 14854, Note_on_c, 0, 84, 17
1, 14854, Note_on_c, 0, 87, 21
1, 14854, Note_off_c, 0, 88, 64
1, 14854, Note_off_c, 0, 91, 64
1, 14854, Note_on_c, 0, 92, 29
1, 14854, Note_off_c, 0, 93, 64
1, 14855, Note_on_c, 0, 33, 95
1, 14855, Note_off_c, 0, 34, 64
1, 14855, Note_on_c, 0, 88, 22
1, 14856, Note_on_c, 0, 32, 96
1, 14856, Note_off_c, 0, 33, 64
1, 14856, Note_off_c, 0, 63, 64
1, 14856, Note_on_c, 0, 73, 17
1, 14857, Note_on_c, 0, 80, 22
1, 14857, Note_on_c, 0, 89, 14
1, 14857, Note_on_c, 0, 93, 13
1, 14858, Note_on_c, 0, 31, 95
1, 14858, Note_off_c, 0, 32, 64
1, 14858, Note_off_c, 0, 87, 64
1, 14858, Note_on_c, 0, 95, 9
1, 14860, Note_on_c, 0, 30, 86
1, 14860, Note_off_c, 0, 31, 64
1, 14860, Note_on_c, 0, 76, 28
1, 14861, Note_on_c, 0, 71, 25
1, 14861, Note_off_c, 0, 80, 64
1, 14861, Note_off_c, 0, 89, 64
1, 14861, Note_off_c, 0, 93, 64
1, 14861, Note_off_c, 0, 95, 64
1, 14862, Note_off_c, 0, 30, 64
1, 14862, Note_off_c, 0, 73, 64
1, 14862, Note_off_c, 0, 85, 64
1, 14862, Note_on_c, 0, 95, 22
1, 14863, Note_on_c, 0, 64, 25
1, 14863, Note_on_c, 0, 69, 33
1, 14863, Note_off_c, 0, 84, 64
1, 14863, Note_on_c, 0, 85, 26
1, 14863, Note_on_c, 0, 87, 25
1, 14863, Note_on_c, 0, 91, 14
1, 14863, Note_on_c, 0, 93, 24
1, 14864, Note_on_c, 0, 37, 71
1, 14864, Note_on_c, 0, 61, 29
1, 14864, Note_off_c, 0, 71, 64
1, 14864, Note_on_c, 0, 80, 22
1, 14864, Note_off_c, 0, 82, 64
1, 14864, Note_off_c, 0, 88, 64
1, 14864, Note_on_c, 0, 90, 24
1, 14865, Note_on_c, 0, 31, 76
1, 14865, Note_off_c, 0, 37, 64
1, 14865, Note_on_c, 0, 49, 59
1, 14865, Note_off_c, 0, 69, 64
1, 14865, Note_on_c, 0, 82, 18
1, 14866, Note_on_c, 0, 30, 80
1, 14866, Note_off_c, 0, 31, 64
1, 14866, Note_on_c, 0, 66, 25
1, 14866, Note_on_c, 0, 74, 22
1, 14866, Note_off_c, 0, 76, 64
1, 14866, Note_off_c, 0, 85, 64
1, 14867, Note_on_c, 0, 29, 80
1, 14867, Note_off_c, 0, 30, 64
1, 14867, Note_on_c, 0, 63, 16
1, 14867, Note_off_c, 0, 64, 64
1, 14867, Note_on_c, 0, 77, 28
1, 14867, Note_off_c, 0, 90, 64
1, 14867, Note_off_c, 0, 91, 64
1, 14867, Note_on_c, 0, 96, 14
1, 14868, Note_off_c, 0, 29, 64
1, 14868, Note_on_c, 0, 30, 77
1, 14868, Note_off_c, 0, 49, 64
1, 14869, Note_on_c, 0, 71, 36
1, 14869, Note_off_c, 0, 80, 64
1, 14869, Note_on_c, 0, 81, 20
1, 14869, Note_off_c, 0, 82, 64
1, 14869, Note_on_c, 0, 91, 22
1, 14869, Note_off_c, 0, 92, 64
1, 14870, Note_on_c, 0, 29, 75
1, 14870, Note_off_c, 0, 30, 64
1, 14870, Note_off_c, 0, 63, 64
1, 14870, Note_off_c, 0, 87, 64
1, 14870, Note_on_c, 0, 90, 27
1, 14871, Note_off_c, 0, 61, 64
1, 14871, Note_on_c, 0, 73, 23
1, 14871, Note_off_c, 0, 74, 64
1, 14871, Note_on_c, 0, 80, 33
1, 14871, Note_on_c, 0, 85, 27
1, 14872, Note_off_c, 0, 29, 64
1, 14872, Note_on_c, 0, 30, 70
1, 14872, Note_on_c, 0, 48, 39
1, 14872, Note_on_c, 0, 76, 33
1, 14872, Note_off_c, 0, 77, 64
1, 14872, Note_off_c, 0, 81, 64
1, 14872, Note_on_c, 0, 94, 20
1, 14873, Note_on_c, 0, 86, 34
1, 14874, Note_off_c, 0, 30, 64
1, 14874, Note_on_c, 0, 44, 65
1, 14874, Note_off_c, 0, 48, 64
1, 14874, Note_off_c, 0, 66, 64
1, 14874, Note_on_c, 0, 68, 31
1, 14874, Note_on_c, 0, 75, 24
1, 14874, Note_off_c, 0, 76, 64
1, 14874, Note_on_c, 0, 79, 30
1, 14874, Note_off_c, 0, 80, 64
1, 14875, Note_on_c, 0, 36, 71
1, 14875, Note_off_c, 0, 44, 64
1, 14875, Note_on_c, 0, 70, 36
1, 14875, Note_off_c, 0, 73, 64
1, 14875, Note_on_c, 0, 81, 24
1, 14875, Note_off_c, 0, 94, 64
1, 14876, Note_on_c, 0, 30, 81
1, 14876, Note_off_c, 0, 36, 64
1, 14876, Note_off_c, 0, 68, 64
1, 14876, Note_off_c, 0, 71, 64
1, 14877, Note_on_c, 0, 29, 82
1, 14877, Note_off_c, 0, 30, 64
1, 14877, Note_off_c, 0, 79, 64
1, 14877, Note_on_c, 0, 80, 29
1, 14877, Note_off_c, 0, 91, 64
1, 14877, Note_off_c, 0, 96, 64
1, 14878, Note_off_c, 0, 75, 64
1, 14878, Note_on_c, 0, 78, 32
1, 14878, Note_off_c, 0, 81, 64
1, 14878, Note_off_c, 0, 85, 64
1, 14879, Note_off_c, 0, 29, 64
1, 14879, Note_on_c, 0, 33, 74
1, 14879, Note_on_c, 0, 54, 45
1, 14879, Note_off_c, 0, 70, 64
1, 14879, Note_on_c, 0, 84, 37
1, 14880, Note_off_c, 0, 33, 64
1, 14880, Note_on_c, 0, 34, 65
1, 14880, Note_on_c, 0, 49, 36
1, 14880, Note_on_c, 0, 70, 45
1, 14880, Note_on_c, 0, 73, 41
1, 14880, Note_on_c, 0, 75, 44
1, 14880, Note_on_c, 0, 79, 37
1, 14880, Note_off_c, 0, 80, 64
1, 14880, Note_off_c, 0, 93, 64
1, 14880, Note_off_c, 0, 95, 64
1, 14881, Note_off_c, 0, 34, 64
1, 14881, Note_on_c, 0, 59, 52
1, 14881, Note_on_c, 0, 89, 28
1, 14881, Note_on_c, 0, 93, 26
1, 14881, Note_on_c, 0, 95, 22
1, 14881, Note_on_c, 0, 99, 25
1, 14882, Note_off_c, 0, 54, 64
1, 14882, Note_on_c, 0, 77, 37
1, 14882, Note_off_c, 0, 78, 64
1, 14882, Note_on_c, 0, 92, 31
1, 14883, Note_off_c, 0, 49, 64
1, 14883, Note_on_c, 0, 53, 71
1, 14883, Note_off_c, 0, 59, 64
1, 14883, Note_on_c, 0, 72, 34
1, 14883, Note_off_c, 0, 73, 64
1, 14883, Note_off_c, 0, 75, 64
1, 14883, Note_off_c, 0, 84, 64
1, 14884, Note_on_c, 0, 48, 85
1, 14884, Note_off_c, 0, 53, 64
1, 14884, Note_off_c, 0, 70, 64
1, 14884, Note_on_c, 0, 78, 17
1, 14884, Note_off_c, 0, 79, 64
1, 14884, Note_off_c, 0, 89, 64
1, 14884, Note_off_c, 0, 95, 64
1, 14884, Note_off_c, 0, 99, 64
1, 14885, Note_on_c, 0, 45, 94
1, 14885, Note_off_c, 0, 48, 64
1, 14885, Note_on_c, 0, 76, 25
1, 14885, Note_off_c, 0, 77, 64
1, 14885, Note_on_c, 0, 80, 13
1, 14885, Note_on_c, 0, 85, 13
1, 14885, Note_off_c, 0, 86, 64
1, 14886, Note_on_c, 0, 42, 99
1, 14886, Note_off_c, 0, 45, 64
1, 14886, Note_off_c, 0, 72, 64
1, 14886, Note_off_c, 0, 93, 64
1, 14887, Note_on_c, 0, 40, 98
1, 14887, Note_off_c, 0, 42, 64
1, 14887, Note_on_c, 0, 91, 17
1, 14888, Note_on_c, 0, 38, 98
1, 14888, Note_off_c, 0, 40, 64
1, 14888, Note_off_c, 0, 78, 64
1, 14888, Note_on_c, 0, 82, 17
1, 14889, Note_on_c, 0, 36, 98
1, 14889, Note_off_c, 0, 38, 64
1, 14889, Note_off_c, 0, 80, 64
1, 14889, Note_on_c, 0, 84, 17
1, 14890, Note_on_c, 0, 35, 97
1, 14890, Note_off_c, 0, 36, 64
1, 14890, Note_off_c, 0, 90, 64
1, 14891, Note_on_c, 0, 34, 96
1, 14891, Note_off_c, 0, 35, 64
1, 14891, Note_off_c, 0, 85, 64
1, 14891, Note_on_c, 0, 95, 20
1, 14892, Note_on_c, 0, 33, 95
1, 14892, Note_off_c, 0, 34, 64
1, 14892, Note_off_c, 0, 76, 64
1, 14892, Note_on_c, 0, 80, 21
1, 14892, Note_off_c, 0, 82, 64
1, 14892, Note_off_c, 0, 92, 64
1, 14893, Note_on_c, 0, 78, 12
1, 14893, Note_on_c, 0, 93, 17
1, 14894, Note_on_c, 0, 32, 96
1, 14894, Note_off_c, 0, 33, 64
1, 14894, Note_on_c, 0, 66, 18
1, 14894, Note_off_c, 0, 84, 64
1, 14894, Note_on_c, 0, 87, 30
1, 14894, Note_on_c, 0, 90, 18
1, 14894, Note_off_c, 0, 91, 64
1, 14895, Note_on_c, 0, 31, 96
1, 14895, Note_off_c, 0, 32, 64
1, 14895, Note_on_c, 0, 89, 29
1, 14896, Note_on_c, 0, 91, 11
1, 14897, Note_on_c, 0, 30, 90
1, 14897, Note_off_c, 0, 31, 64
1, 14897, Note_off_c, 0, 78, 64
1, 14897, Note_on_c, 0, 82, 18
1, 14897, Note_off_c, 0, 93, 64
1, 14899, Note_off_c, 0, 66, 64
1, 14899, Note_on_c, 0, 85, 25
1, 14900, Note_off_c, 0, 30, 64
1, 14900, Note_on_c, 0, 75, 13
1, 14900, Note_on_c, 0, 83, 23
1, 14900, Note_off_c, 0, 90, 64
1, 14900, Note_on_c, 0, 93, 18
1, 14900, Note_on_c, 0, 96, 24
1, 14900, Note_on_c, 0, 98, 20
1, 14901, Note_on_c, 0, 42, 67
1, 14901, Note_on_c, 0, 77, 30
1, 14901, Note_off_c, 0, 82, 64
1, 14901, Note_on_c, 0, 88, 27
1, 14901, Note_off_c, 0, 91, 64
1, 14901, Note_on_c, 0, 92, 28
1, 14901, Note_on_c, 0, 94, 9
1, 14902, Note_on_c, 0, 31, 72
1, 14902, Note_off_c, 0, 42, 64
1, 14902, Note_on_c, 0, 61, 33
1, 14902, Note_on_c, 0, 64, 35
1, 14902, Note_off_c, 0, 80, 64
1, 14902, Note_on_c, 0, 84, 15
1, 14903, Note_on_c, 0, 30, 79
1, 14903, Note_off_c, 0, 31, 64
1, 14903, Note_on_c, 0, 72, 36
1, 14903, Note_off_c, 0, 77, 64
1, 14903, Note_on_c, 0, 78, 15
1, 14903, Note_off_c, 0, 83, 64
1, 14903, Note_off_c, 0, 85, 64
1, 14903, Note_on_c, 0, 86, 14
1, 14903, Note_off_c, 0, 98, 64
1, 14904, Note_on_c, 0, 29, 80
1, 14904, Note_off_c, 0, 30, 64
1, 14904, Note_off_c, 0, 64, 64
1, 14904, Note_off_c, 0, 75, 64
1, 14904, Note_on_c, 0, 83, 33
1, 14904, Note_off_c, 0, 93, 64
1, 14904, Note_off_c, 0, 96, 64
1, 14905, Note_off_c, 0, 61, 64
1, 14905, Note_off_c, 0, 84, 64
1, 14905, Note_off_c, 0, 88, 64
1, 14906, Note_off_c, 0, 29, 64
1, 14906, Note_on_c, 0, 30, 77
1, 14906, Note_on_c, 0, 71, 30
1, 14906, Note_off_c, 0, 72, 64
1, 14906, Note_off_c, 0, 78, 64
1, 14906, Note_off_c, 0, 89, 64
1, 14907, Note_on_c, 0, 68, 34
1, 14907, Note_on_c, 0, 73, 15
1, 14907, Note_on_c, 0, 77, 21
1, 14907, Note_off_c, 0, 95, 64
1, 14908, Note_on_c, 0, 29, 73
1, 14908, Note_off_c, 0, 30, 64
1, 14908, Note_on_c, 0, 85, 20
1, 14908, Note_off_c, 0, 86, 64
1, 14908, Note_off_c, 0, 87, 64
1, 14908, Note_off_c, 0, 92, 64
1, 14908, Note_off_c, 0, 94, 64
1, 14909, Note_off_c, 0, 71, 64
1, 14909, Note_on_c, 0, 76, 16
1, 14909, Note_on_c, 0, 78, 9
1, 14909, Note_off_c, 0, 83, 64
1, 14909, Note_on_c, 0, 88, 23
1, 14910, Note_off_c, 0, 29, 64
1, 14910, Note_on_c, 0, 30, 66
1, 14910, Note_off_c, 0, 73, 64
1, 14910, Note_off_c, 0, 77, 64
1, 14910, Note_on_c, 0, 86, 28
1, 14911, Note_on_c, 0, 83, 22
1, 14911, Note_off_c, 0, 85, 64
1, 14911, Note_on_c, 0, 92, 30
1, 14912, Note_off_c, 0, 30, 64
1, 14912, Note_on_c, 0, 41, 71
1, 14912, Note_off_c, 0, 78, 64
1, 14912, Note_on_c, 0, 90, 14
1, 14912, Note_on_c, 0, 93, 16
1, 14913, Note_on_c, 0, 30, 79
1, 14913, Note_off_c, 0, 41, 64
1, 14913, Note_on_c, 0, 61, 32
1, 14913, Note_on_c, 0, 77, 27
1, 14913, Note_on_c, 0, 82, 16
1, 14914, Note_on_c, 0, 29, 82
1, 14914, Note_off_c, 0, 30, 64
1, 14914, Note_off_c, 0, 76, 64
1, 14914, Note_on_c, 0, 84, 21
1, 14915, Note_on_c, 0, 75, 38
1, 14916, Note_off_c, 0, 29, 64
1, 14916, Note_on_c, 0, 30, 78
1, 14916, Note_on_c, 0, 48, 59
1, 14916, Note_off_c, 0, 61, 64
1, 14916, Note_on_c, 0, 80, 34
1, 14916, Note_off_c, 0, 83, 64
1, 14917, Note_off_c, 0, 30, 64
1, 14917, Note_on_c, 0, 34, 71
1, 14917, Note_on_c, 0, 54, 40
1, 14917, Note_off_c, 0, 82, 64
1, 14917, Note_off_c, 0, 86, 64
1, 14917, Note_off_c, 0, 88, 64
1, 14917, Note_off_c, 0, 90, 64
1, 14918, Note_off_c, 0, 34, 64
1, 14918, Note_off_c, 0, 48, 64
1, 14918, Note_on_c, 0, 67, 43
1, 14918, Note_off_c, 0, 68, 64
1, 14918, Note_on_c, 0, 70, 37
1, 14918, Note_off_c, 0, 77, 64
1, 14918, Note_on_c, 0, 78, 38
1, 14918, Note_on_c, 0, 85, 30
1, 14918, Note_on_c, 0, 89, 28
1, 14918, Note_on_c, 0, 95, 33
1, 14918, Note_on_c, 0, 96, 24
1, 14919, Note_off_c, 0, 54, 64
1, 14919, Note_on_c, 0, 72, 39
1, 14919, Note_off_c, 0, 84, 64
1, 14919, Note_on_c, 0, 86, 30
1, 14919, Note_off_c, 0, 93, 64
1, 14920, Note_off_c, 0, 67, 64
1, 14920, Note_off_c, 0, 78, 64
1, 14920, Note_on_c, 0, 79, 30
1, 14920, Note_on_c, 0, 83, 35
1, 14920, Note_off_c, 0, 85, 64
1, 14920, Note_on_c, 0, 88, 25
1, 14921, Note_on_c, 0, 50, 78
1, 14921, Note_off_c, 0, 72, 64
1, 14921, Note_on_c, 0, 73, 17
1, 14921, Note_off_c, 0, 80, 64
1, 14921, Note_off_c, 0, 96, 64
1, 14922, Note_on_c, 0, 45, 90
1, 14922, Note_off_c, 0, 50, 64
1, 14922, Note_off_c, 0, 70, 64
1, 14922, Note_off_c, 0, 75, 64
1, 14922, Note_off_c, 0, 79, 64
1, 14922, Note_off_c, 0, 86, 64
1, 14922, Note_on_c, 0, 87, 14
1, 14922, Note_off_c, 0, 95, 64
1, 14923, Note_on_c, 0, 42, 97
1, 14923, Note_off_c, 0, 45, 64
1, 14923, Note_off_c, 0, 88, 64
1, 14924, Note_on_c, 0, 41, 100
1, 14924, Note_off_c, 0, 42, 64
1, 14924, Note_off_c, 0, 73, 64
1, 14924, Note_off_c, 0, 92, 64
1, 14925, Note_on_c, 0, 38, 97
1, 14925, Note_off_c, 0, 41, 64
1, 14925, Note_on_c, 0, 80, 12
1, 14925, Note_off_c, 0, 89, 64
1, 14926, Note_on_c, 0, 37, 98
1, 14926, Note_off_c, 0, 38, 64
1, 14927, Note_on_c, 0, 36, 97
1, 14927, Note_off_c, 0, 37, 64
1, 14928, Note_on_c, 0, 35, 96
1, 14928, Note_off_c, 0, 36, 64
1, 14928, Note_off_c, 0, 87, 64
1, 14928, Note_on_c, 0, 94, 15
1, 14929, Note_on_c, 0, 34, 95
1, 14929, Note_off_c, 0, 35, 64
1, 14930, Note_on_c, 0, 33, 95
1, 14930, Note_off_c, 0, 34, 64
1, 14930, Note_on_c, 0, 85, 13
1, 14931, Note_on_c, 0, 32, 96
1, 14931, Note_off_c, 0, 33, 64
1, 14931, Note_off_c, 0, 94, 64
1, 14932, Note_on_c, 0, 68, 36
1, 14932, Note_off_c, 0, 80, 64
1, 14932, Note_on_c, 0, 82, 18
1, 14932, Note_on_c, 0, 92, 16
1, 14933, Note_on_c, 0, 31, 94
1, 14933, Note_off_c, 0, 32, 64
1, 14933, Note_on_c, 0, 71, 14
1, 14935, Note_on_c, 0, 30, 84
1, 14935, Note_off_c, 0, 31, 64
1, 14935, Note_on_c, 0, 81, 24
1, 14935, Note_off_c, 0, 82, 64
1, 14935, Note_off_c, 0, 83, 64
1, 14935, Note_off_c, 0, 85, 64
1, 14935, Note_on_c, 0, 86, 19
1, 14936, Note_off_c, 0, 71, 64
1, 14936, Note_on_c, 0, 83, 14
1, 14937, Note_off_c, 0, 30, 64
1, 14937, Note_on_c, 0, 77, 40
1, 14937, Note_on_c, 0, 78, 40
1, 14938, Note_on_c, 0, 88, 20
1, 14938, Note_on_c, 0, 91, 15
1, 14939, Note_on_c, 0, 73, 30
1, 14939, Note_off_c, 0, 78, 64
1, 14939, Note_on_c, 0, 79, 40
1, 14940, Note_on_c, 0, 76, 29
1, 14940, Note_off_c, 0, 86, 64
1, 14941, Note_off_c, 0, 73, 64
1, 14941, Note_off_c, 0, 77, 64
1, 14941, Note_off_c, 0, 79, 64
1, 14941, Note_off_c, 0, 83, 64
1, 14941, Note_on_c, 0, 84, 23
1, 14941, Note_off_c, 0, 92, 64
1, 14942, Note_off_c, 0, 81, 64
1, 14942, Note_on_c, 0, 86, 13
1, 14942, Note_off_c, 0, 91, 64
1, 14943, Note_off_c, 0, 68, 64
1, 14945, Note_on_c, 0, 65, 26
1, 14946, Note_off_c, 0, 84, 64
1, 14947, Note_on_c, 0, 68, 23
1, 14947, Note_on_c, 0, 84, 14
1, 14947, Note_off_c, 0, 86, 64
1, 14948, Note_off_c, 0, 65, 64
1, 14948, Note_on_c, 0, 74, 15
1, 14948, Note_on_c, 0, 82, 28
1, 14948, Note_on_c, 0, 95, 14
1, 14949, Note_on_c, 0, 63, 11
1, 14949, Note_on_c, 0, 83, 26
1, 14949, Note_on_c, 0, 85, 40
1, 14949, Note_on_c, 0, 87, 34
1, 14950, Note_on_c, 0, 72, 17
1, 14950, Note_off_c, 0, 84, 64
1, 14950, Note_on_c, 0, 90, 18
1, 14950, Note_on_c, 0, 93, 13
1, 14951, Note_off_c, 0, 68, 64
1, 14951, Note_off_c, 0, 76, 64
1, 14951, Note_on_c, 0, 77, 21
1, 14952, Note_off_c, 0, 74, 64
1, 14952, Note_off_c, 0, 88, 64
1, 14952, Note_on_c, 0, 92, 14
1, 14953, Note_off_c, 0, 72, 64
1, 14953, Note_on_c, 0, 80, 34
1, 14953, Note_off_c, 0, 83, 64
1, 14954, Note_off_c, 0, 63, 64
1, 14954, Note_on_c, 0, 76, 38
1, 14954, Note_off_c, 0, 82, 64
1, 14954, Note_off_c, 0, 93, 64
1, 14955, Note_off_c, 0, 77, 64
1, 14955, Note_on_c, 0, 82, 37
1, 14955, Note_off_c, 0, 90, 64
1, 14955, Note_off_c, 0, 92, 64
1, 14955, Note_off_c, 0, 95, 64
1, 14956, Note_on_c, 0, 59, 53
1, 14956, Note_on_c, 0, 63, 50
1, 14956, Note_on_c, 0, 74, 40
1, 14956, Note_on_c, 0, 90, 25
1, 14956, Note_on_c, 0, 91, 26
1, 14956, Note_on_c, 0, 93, 32
1, 14956, Note_on_c, 0, 95, 25
1, 14957, Note_on_c, 0, 72, 45
1, 14957, Note_off_c, 0, 80, 64
1, 14957, Note_on_c, 0, 81, 42
1, 14957, Note_off_c, 0, 82, 64
1, 14958, Note_on_c, 0, 51, 73
1, 14958, Note_off_c, 0, 59, 64
1, 14958, Note_off_c, 0, 63, 64
1, 14958, Note_on_c, 0, 64, 46
1, 14958, Note_on_c, 0, 67, 41
1, 14958, Note_off_c, 0, 76, 64
1, 14958, Note_on_c, 0, 77, 21
1, 14958, Note_on_c, 0, 83, 20
1, 14959, Note_on_c, 0, 48, 86
1, 14959, Note_off_c, 0, 51, 64
1, 14959, Note_off_c, 0, 72, 64
1, 14959, Note_off_c, 0, 74, 64
1, 14959, Note_off_c, 0, 81, 64
1, 14959, Note_off_c, 0, 85, 64
1, 14959, Note_off_c, 0, 87, 64
1, 14959, Note_off_c, 0, 90, 64
1, 14959, Note_off_c, 0, 91, 64
1, 14959, Note_off_c, 0, 93, 64
1, 14959, Note_off_c, 0, 95, 64
1, 14960, Note_on_c, 0, 45, 95
1, 14960, Note_off_c, 0, 48, 64
1, 14960, Note_off_c, 0, 64, 64
1, 14960, Note_off_c, 0, 67, 64
1, 14960, Note_on_c, 0, 86, 10
1, 14961, Note_on_c, 0, 42, 100
1, 14961, Note_off_c, 0, 45, 64
1, 14961, Note_off_c, 0, 77, 64
1, 14962, Note_on_c, 0, 40, 98
1, 14962, Note_off_c, 0, 42, 64
1, 14963, Note_on_c, 0, 38, 98
1, 14963, Note_off_c, 0, 40, 64
1, 14963, Note_off_c, 0, 86, 64
1, 14964, Note_on_c, 0, 36, 98
1, 14964, Note_off_c, 0, 38, 64
1, 14965, Note_on_c, 0, 35, 97
1, 14965, Note_off_c, 0, 36, 64
1, 14965, Note_on_c, 0, 78, 12
1, 14965, Note_off_c, 0, 83, 64
1, 14966, Note_on_c, 0, 34, 96
1, 14966, Note_off_c, 0, 35, 64
1, 14966, Note_on_c, 0, 82, 13
1, 14967, Note_on_c, 0, 33, 95
1, 14967, Note_off_c, 0, 34, 64
1, 14967, Note_on_c, 0, 77, 9
1, 14967, Note_on_c, 0, 92, 10
1, 14969, Note_on_c, 0, 32, 96
1, 14969, Note_off_c, 0, 33, 64
1, 14969, Note_off_c, 0, 78, 64
1, 14969, Note_off_c, 0, 82, 64
1, 14970, Note_on_c, 0, 31, 96
1, 14970, Note_off_c, 0, 32, 64
1, 14970, Note_off_c, 0, 77, 64
1, 14971, Note_on_c, 0, 82, 20
1, 14971, Note_off_c, 0, 92, 64
1, 14972, Note_on_c, 0, 30, 89
1, 14972, Note_off_c, 0, 31, 64
1, 14972, Note_on_c, 0, 77, 19
1, 14974, Note_on_c, 0, 83, 20
1, 14975, Note_off_c, 0, 30, 64
1, 14975, Note_on_c, 0, 66, 27
1, 14975, Note_on_c, 0, 75, 22
1, 14975, Note_on_c, 0, 84, 18
1, 14976, Note_on_c, 0, 37, 67
1, 14976, Note_on_c, 0, 61, 30
1, 14976, Note_on_c, 0, 92, 16
1, 14977, Note_on_c, 0, 31, 74
1, 14977, Note_off_c, 0, 37, 64
1, 14977, Note_on_c, 0, 68, 25
1, 14977, Note_on_c, 0, 71, 22
1, 14977, Note_off_c, 0, 77, 64
1, 14978, Note_on_c, 0, 30, 80
1, 14978, Note_off_c, 0, 31, 64
1, 14978, Note_off_c, 0, 61, 64
1, 14978, Note_off_c, 0, 66, 64
1, 14978, Note_off_c, 0, 75, 64
1, 14978, Note_off_c, 0, 84, 64
1, 14978, Note_on_c, 0, 89, 15
1, 14979, Note_on_c, 0, 29, 80
1, 14979, Note_off_c, 0, 30, 64
1, 14979, Note_on_c, 0, 61, 23
1, 14979, Note_on_c, 0, 64, 27
1, 14979, Note_off_c, 0, 83, 64
1, 14980, Note_off_c, 0, 68, 64
1, 14980, Note_off_c, 0, 71, 64
1, 14980, Note_on_c, 0, 74, 20
1, 14980, Note_on_c, 0, 77, 17
1, 14980, Note_off_c, 0, 82, 64
1, 14980, Note_on_c, 0, 83, 16
1, 14981, Note_off_c, 0, 29, 64
1, 14981, Note_on_c, 0, 30, 76
1, 14981, Note_off_c, 0, 89, 64
1, 14981, Note_off_c, 0, 92, 64
1, 14982, Note_off_c, 0, 61, 64
1, 14982, Note_on_c, 0, 85, 13
1, 14983, Note_on_c, 0, 29, 74
1, 14983, Note_off_c, 0, 30, 64
1, 14983, Note_off_c, 0, 64, 64
1, 14983, Note_off_c, 0, 77, 64
1, 14984, Note_off_c, 0, 29, 64
1, 14984, Note_on_c, 0, 30, 72
1, 14984, Note_off_c, 0, 83, 64
1, 14984, Note_on_c, 0, 84, 16
1, 14985, Note_off_c, 0, 74, 64
1, 14985, Note_on_c, 0, 76, 24
1, 14985, Note_off_c, 0, 85, 64
1, 14986, Note_on_c, 0, 63, 35
1, 14986, Note_on_c, 0, 73, 19
1, 14986, Note_on_c, 0, 80, 15
1, 14986, Note_on_c, 0, 81, 15
1, 14986, Note_on_c, 0, 89, 22
1, 14987, Note_off_c, 0, 30, 64
1, 14987, Note_on_c, 0, 36, 74
1, 14987, Note_on_c, 0, 68, 25
1, 14988, Note_on_c, 0, 30, 80
1, 14988, Note_off_c, 0, 36, 64
1, 14988, Note_off_c, 0, 76, 64
1, 14988, Note_on_c, 0, 83, 32
1, 14989, Note_on_c, 0, 29, 82
1, 14989, Note_off_c, 0, 30, 64
1, 14989, Note_on_c, 0, 49, 61
1, 14989, Note_off_c, 0, 63, 64
1, 14989, Note_on_c, 0, 64, 30
1, 14989, Note_on_c, 0, 78, 27
1, 14989, Note_on_c, 0, 88, 25
1, 14990, Note_on_c, 0, 82, 35
1, 14990, Note_off_c, 0, 84, 64
1, 14991, Note_off_c, 0, 29, 64
1, 14991, Note_on_c, 0, 30, 77
1, 14991, Note_on_c, 0, 48, 59
1, 14991, Note_off_c, 0, 49, 64
1, 14991, Note_on_c, 0, 77, 22
1, 14991, Note_off_c, 0, 81, 64
1, 14991, Note_off_c, 0, 89, 64
1, 14992, Note_off_c, 0, 30, 64
1, 14992, Note_on_c, 0, 34, 70
1, 14992, Note_on_c, 0, 54, 36
1, 14992, Note_off_c, 0, 68, 64
1, 14992, Note_on_c, 0, 70, 42
1, 14992, Note_off_c, 0, 78, 64
1, 14993, Note_off_c, 0, 34, 64
1, 14993, Note_off_c, 0, 48, 64
1, 14993, Note_on_c, 0, 63, 52
1, 14993, Note_off_c, 0, 64, 64
1, 14993, Note_off_c, 0, 73, 64
1, 14993, Note_on_c, 0, 76, 36
1, 14993, Note_on_c, 0, 78, 37
1, 14993, Note_on_c, 0, 79, 35
1, 14993, Note_on_c, 0, 85, 34
1, 14993, Note_on_c, 0, 86, 34
1, 14993, Note_on_c, 0, 87, 32
1, 14993, Note_on_c, 0, 93, 26
1, 14993, Note_on_c, 0, 96, 24
1, 14994, Note_off_c, 0, 54, 64
1, 14994, Note_on_c, 0, 73, 37
1, 14994, Note_off_c, 0, 77, 64
1, 14994, Note_off_c, 0, 80, 64
1, 14994, Note_on_c, 0, 92, 30
1, 14995, Note_on_c, 0, 54, 67
1, 14995, Note_off_c, 0, 70, 64
1, 14995, Note_off_c, 0, 85, 64
1, 14996, Note_on_c, 0, 49, 81
1, 14996, Note_off_c, 0, 54, 64
1, 14996, Note_off_c, 0, 79, 64
1, 14996, Note_off_c, 0, 82, 64
1, 14996, Note_off_c, 0, 83, 64
1, 14996, Note_off_c, 0, 86, 64
1, 14996, Note_off_c, 0, 87, 64
1, 14996, Note_off_c, 0, 88, 64
1, 14996, Note_off_c, 0, 92, 64
1, 14996, Note_off_c, 0, 93, 64
1, 14996, Note_off_c, 0, 96, 64
1, 14997, Note_on_c, 0, 45, 92
1, 14997, Note_off_c, 0, 49, 64
1, 14997, Note_off_c, 0, 73, 64
1, 14997, Note_off_c, 0, 78, 64
1, 14998, Note_on_c, 0, 42, 98
1, 14998, Note_off_c, 0, 45, 64
1, 14998, Note_off_c, 0, 63, 64
1, 14998, Note_off_c, 0, 76, 64
1, 14999, Note_on_c, 0, 41, 99
1, 14999, Note_off_c, 0, 42, 64
1, 15000, Note_on_c, 0, 38, 98
1, 15000, Note_off_c, 0, 41, 64
1, 15001, Note_on_c, 0, 37, 98
1, 15001, Note_off_c, 0, 38, 64
1, 15001, Note_on_c, 0, 82, 15
1, 15002, Note_on_c, 0, 36, 97
1, 15002, Note_off_c, 0, 37, 64
1, 15003, Note_on_c, 0, 35, 96
1, 15003, Note_off_c, 0, 36, 64
1, 15004, Note_on_c, 0, 34, 96
1, 15004, Note_off_c, 0, 35, 64
1, 15004, Note_off_c, 0, 82, 64
1, 15005, Note_on_c, 0, 33, 95
1, 15005, Note_off_c, 0, 34, 64
1, 15006, Note_on_c, 0, 32, 96
1, 15006, Note_off_c, 0, 33, 64
1, 15008, Note_on_c, 0, 31, 95
1, 15008, Note_off_c, 0, 32, 64
1, 15010, Note_on_c, 0, 30, 85
1, 15010, Note_off_c, 0, 31, 64
1, 15011, Note_on_c, 0, 77, 29
1, 15011, Note_on_c, 0, 80, 13
1, 15011, Note_on_c, 0, 87, 14
1, 15012, Note_off_c, 0, 30, 64
1, 15013, Note_on_c, 0, 68, 19
1, 15013, Note_on_c, 0, 71, 17
1, 15013, Note_on_c, 0, 84, 15
1, 15013, Note_on_c, 0, 86, 22
1, 15014, Note_on_c, 0, 36, 71
1, 15014, Note_on_c, 0, 61, 29
1, 15014, Note_on_c, 0, 63, 31
1, 15014, Note_on_c, 0, 74, 14
1, 15014, Note_on_c, 0, 83, 17
1, 15015, Note_on_c, 0, 31, 78
1, 15015, Note_off_c, 0, 36, 64
1, 15015, Note_on_c, 0, 81, 18
1, 15015, Note_off_c, 0, 87, 64
1, 15016, Note_on_c, 0, 29, 81
1, 15016, Note_off_c, 0, 31, 64
1, 15016, Note_on_c, 0, 49, 60
1, 15017, Note_off_c, 0, 71, 64
1, 15017, Note_off_c, 0, 74, 64
1, 15017, Note_off_c, 0, 80, 64
1, 15017, Note_off_c, 0, 84, 64
1, 15017, Note_off_c, 0, 86, 64
1, 15018, Note_off_c, 0, 29, 64
1, 15018, Note_on_c, 0, 30, 76
1, 15018, Note_off_c, 0, 49, 64
1, 15018, Note_off_c, 0, 77, 64
1, 15019, Note_off_c, 0, 61, 64
1, 15019, Note_off_c, 0, 68, 64
1, 15019, Note_on_c, 0, 77, 21
1, 15019, Note_on_c, 0, 80, 15
1, 15019, Note_off_c, 0, 81, 64
1, 15020, Note_on_c, 0, 29, 75
1, 15020, Note_off_c, 0, 30, 64
1, 15020, Note_on_c, 0, 72, 14
1, 15021, Note_off_c, 0, 83, 64
1, 15022, Note_off_c, 0, 29, 64
1, 15022, Note_on_c, 0, 30, 69
1, 15022, Note_on_c, 0, 76, 23
1, 15022, Note_off_c, 0, 77, 64
1, 15022, Note_off_c, 0, 80, 64
1, 15022, Note_on_c, 0, 83, 21
1, 15023, Note_off_c, 0, 30, 64
1, 15023, Note_off_c, 0, 72, 64
1, 15023, Note_on_c, 0, 81, 37
1, 15024, Note_on_c, 0, 42, 68
1, 15024, Note_on_c, 0, 68, 24
1, 15024, Note_on_c, 0, 74, 16
1, 15024, Note_on_c, 0, 86, 24
1, 15024, Note_on_c, 0, 89, 12
1, 15025, Note_on_c, 0, 31, 74
1, 15025, Note_off_c, 0, 42, 64
1, 15025, Note_on_c, 0, 77, 21
1, 15026, Note_on_c, 0, 30, 81
1, 15026, Note_off_c, 0, 31, 64
1, 15026, Note_off_c, 0, 63, 64
1, 15026, Note_off_c, 0, 76, 64
1, 15027, Note_on_c, 0, 29, 82
1, 15027, Note_off_c, 0, 30, 64
1, 15027, Note_on_c, 0, 61, 31
1, 15028, Note_off_c, 0, 29, 64
1, 15028, Note_on_c, 0, 30, 79
1, 15028, Note_off_c, 0, 77, 64
1, 15028, Note_off_c, 0, 86, 64
1, 15029, Note_off_c, 0, 30, 64
1, 15029, Note_on_c, 0, 33, 74
1, 15029, Note_on_c, 0, 54, 40
1, 15029, Note_off_c, 0, 61, 64
1, 15029, Note_off_c, 0, 68, 64
1, 15029, Note_off_c, 0, 74, 64
1, 15029, Note_on_c, 0, 77, 37
1, 15029, Note_on_c, 0, 86, 27
1, 15029, Note_off_c, 0, 89, 64
1, 15030, Note_off_c, 0, 83, 64
1, 15030, Note_on_c, 0, 88, 31
1, 15031, Note_off_c, 0, 33, 64
1, 15031, Note_on_c, 0, 59, 55
1, 15031, Note_on_c, 0, 65, 51
1, 15031, Note_on_c, 0, 80, 37
1, 15031, Note_on_c, 0, 83, 36
1, 15031, Note_on_c, 0, 90, 25
1, 15032, Note_off_c, 0, 54, 64
1, 15032, Note_on_c, 0, 69, 45
1, 15032, Note_off_c, 0, 77, 64
1, 15032, Note_on_c, 0, 87, 33
1, 15032, Note_off_c, 0, 88, 64
1, 15032, Note_on_c, 0, 89, 32
1, 15033, Note_on_c, 0, 51, 75
1, 15033, Note_off_c, 0, 59, 64
1, 15033, Note_off_c, 0, 81, 64
1, 15033, Note_off_c, 0, 86, 64
1, 15034, Note_on_c, 0, 48, 85
1, 15034, Note_off_c, 0, 51, 64
1, 15034, Note_off_c, 0, 65, 64
1, 15034, Note_off_c, 0, 69, 64
1, 15034, Note_off_c, 0, 80, 64
1, 15034, Note_off_c, 0, 83, 64
1, 15034, Note_off_c, 0, 87, 64
1, 15034, Note_off_c, 0, 89, 64
1, 15034, Note_off_c, 0, 90, 64
1, 15035, Note_on_c, 0, 44, 95
1, 15035, Note_off_c, 0, 48, 64
1, 15036, Note_on_c, 0, 41, 100
1, 15036, Note_off_c, 0, 44, 64
1, 15037, Note_on_c, 0, 40, 97
1, 15037, Note_off_c, 0, 41, 64
1, 15038, Note_on_c, 0, 38, 98
1, 15038, Note_off_c, 0, 40, 64
1, 15039, Note_on_c, 0, 36, 98
1, 15039, Note_off_c, 0, 38, 64
1, 15040, Note_on_c, 0, 35, 97
1, 15040, Note_off_c, 0, 36, 64
1, 15041, Note_on_c, 0, 34, 96
1, 15041, Note_off_c, 0, 35, 64
1, 15042, Note_on_c, 0, 33, 96
1, 15042, Note_off_c, 0, 34, 64
1, 15044, Note_on_c, 0, 32, 97
1, 15044, Note_off_c, 0, 33, 64
1, 15045, Note_on_c, 0, 31, 97
1, 15045, Note_off_c, 0, 32, 64
1, 15047, Note_on_c, 0, 30, 88
1, 15047, Note_off_c, 0, 31, 64
1, 15049, Note_off_c, 0, 30, 64
1, 15049, Note_on_c, 0, 81, 21
1, 15050, Note_on_c, 0, 64, 29
1, 15050, Note_on_c, 0, 68, 22
1, 15050, Note_on_c, 0, 84, 14
1, 15050, Note_on_c, 0, 85, 13
1, 15051, Note_on_c, 0, 37, 69
1, 15052, Note_on_c, 0, 31, 74
1, 15052, Note_off_c, 0, 37, 64
1, 15052, Note_off_c, 0, 81, 64
1, 15053, Note_on_c, 0, 30, 80
1, 15053, Note_off_c, 0, 31, 64
1, 15053, Note_off_c, 0, 68, 64
1, 15053, Note_on_c, 0, 80, 16
1, 15053, Note_off_c, 0, 84, 64
1, 15053, Note_off_c, 0, 85, 64
1, 15054, Note_on_c, 0, 29, 80
1, 15054, Note_off_c, 0, 30, 64
1, 15054, Note_on_c, 0, 63, 24
1, 15054, Note_off_c, 0, 64, 64
1, 15054, Note_on_c, 0, 82, 11
1, 15055, Note_off_c, 0, 29, 64
1, 15055, Note_on_c, 0, 30, 77
1, 15056, Note_off_c, 0, 80, 64
1, 15057, Note_off_c, 0, 63, 64
1, 15057, Note_on_c, 0, 85, 20
1, 15058, Note_on_c, 0, 29, 74
1, 15058, Note_off_c, 0, 30, 64
1, 15058, Note_off_c, 0, 82, 64
1, 15060, Note_off_c, 0, 29, 64
1, 15060, Note_on_c, 0, 30, 65
1, 15060, Note_on_c, 0, 81, 18
1, 15061, Note_on_c, 0, 74, 22
1, 15061, Note_on_c, 0, 87, 31
1, 15061, Note_on_c, 0, 89, 14
1, 15062, Note_off_c, 0, 30, 64
1, 15062, Note_on_c, 0, 36, 72
1, 15062, Note_on_c, 0, 61, 31
1, 15062, Note_on_c, 0, 64, 31
1, 15062, Note_on_c, 0, 68, 25
1, 15062, Note_on_c, 0, 82, 22
1, 15063, Note_on_c, 0, 30, 80
1, 15063, Note_off_c, 0, 36, 64
1, 15063, Note_on_c, 0, 49, 61
1, 15063, Note_on_c, 0, 77, 24
1, 15063, Note_off_c, 0, 81, 64
1, 15064, Note_on_c, 0, 29, 82
1, 15064, Note_off_c, 0, 30, 64
1, 15064, Note_off_c, 0, 74, 64
1, 15065, Note_off_c, 0, 61, 64
1, 15065, Note_off_c, 0, 64, 64
1, 15065, Note_off_c, 0, 89, 64
1, 15066, Note_off_c, 0, 29, 64
1, 15066, Note_on_c, 0, 30, 76
1, 15066, Note_on_c, 0, 48, 58
1, 15066, Note_off_c, 0, 49, 64
1, 15067, Note_off_c, 0, 30, 64
1, 15067, Note_on_c, 0, 34, 69
1, 15067, Note_on_c, 0, 54, 35
1, 15067, Note_off_c, 0, 77, 64
1, 15068, Note_off_c, 0, 48, 64
1, 15068, Note_on_c, 0, 63, 47
1, 15068, Note_on_c, 0, 70, 44
1, 15068, Note_on_c, 0, 74, 38
1, 15068, Note_on_c, 0, 76, 39
1, 15068, Note_on_c, 0, 80, 36
1, 15068, Note_on_c, 0, 81, 35
1, 15068, Note_on_c, 0, 83, 35
1, 15068, Note_on_c, 0, 89, 28
1, 15068, Note_on_c, 0, 90, 29
1, 15068, Note_on_c, 0, 91, 27
1, 15068, Note_on_c, 0, 96, 24
1, 15068, Note_on_c, 0, 97, 21
1, 15068, Note_on_c, 0, 98, 22
1, 15069, Note_off_c, 0, 34, 64
1, 15069, Note_off_c, 0, 54, 64
1, 15069, Note_off_c, 0, 68, 64
1, 15069, Note_off_c, 0, 82, 64
1, 15069, Note_off_c, 0, 85, 64
1, 15070, Note_on_c, 0, 54, 68
1, 15070, Note_off_c, 0, 63, 64
1, 15070, Note_on_c, 0, 64, 51
1, 15070, Note_off_c, 0, 74, 64
1, 15070, Note_off_c, 0, 76, 64
1, 15071, Note_on_c, 0, 49, 82
1, 15071, Note_off_c, 0, 54, 64
1, 15071, Note_off_c, 0, 70, 64
1, 15071, Note_off_c, 0, 80, 64
1, 15071, Note_off_c, 0, 81, 64
1, 15071, Note_off_c, 0, 83, 64
1, 15071, Note_off_c, 0, 87, 64
1, 15071, Note_off_c, 0, 89, 64
1, 15071, Note_off_c, 0, 90, 64
1, 15071, Note_off_c, 0, 91, 64
1, 15071, Note_off_c, 0, 96, 64
1, 15071, Note_off_c, 0, 97, 64
1, 15071, Note_off_c, 0, 98, 64
1, 15072, Note_on_c, 0, 45, 93
1, 15072, Note_off_c, 0, 49, 64
1, 15072, Note_off_c, 0, 64, 64
1, 15073, Note_on_c, 0, 42, 99
1, 15073, Note_off_c, 0, 45, 64
1, 15074, Note_on_c, 0, 41, 99
1, 15074, Note_off_c, 0, 42, 64
1, 15075, Note_on_c, 0, 38, 98
1, 15075, Note_off_c, 0, 41, 64
1, 15076, Note_on_c, 0, 37, 98
1, 15076, Note_off_c, 0, 38, 64
1, 15077, Note_on_c, 0, 36, 97
1, 15077, Note_off_c, 0, 37, 64
1, 15078, Note_on_c, 0, 34, 96
1, 15078, Note_off_c, 0, 36, 64
1, 15080, Note_on_c, 0, 33, 95
1, 15080, Note_off_c, 0, 34, 64
1, 15081, Note_on_c, 0, 32, 96
1, 15081, Note_off_c, 0, 33, 64
1, 15082, Note_on_c, 0, 79, 12
1, 15083, Note_on_c, 0, 31, 94
1, 15083, Note_off_c, 0, 32, 64
1, 15085, Note_on_c, 0, 30, 82
1, 15085, Note_off_c, 0, 31, 64
1, 15087, Note_off_c, 0, 30, 64
1, 15087, Note_off_c, 0, 79, 64
1, 15091, Note_on_c, 0, 77, 19
1, 15093, Note_on_c, 0, 81, 20
1, 15095, Note_on_c, 0, 74, 13
1, 15096, Note_off_c, 0, 81, 64
1, 15098, Note_off_c, 0, 74, 64
1, 15098, Note_on_c, 0, 85, 13
1, 15099, Note_on_c, 0, 81, 13
1, 15100, Note_on_c, 0, 79, 16
1, 15101, Note_on_c, 0, 75, 14
1, 15101, Note_on_c, 0, 80, 34
1, 15101, Note_off_c, 0, 85, 64
1, 15102, Note_off_c, 0, 81, 64
1, 15103, Note_on_c, 0, 78, 12
1, 15103, Note_off_c, 0, 79, 64
1, 15104, Note_off_c, 0, 75, 64
1, 15104, Note_off_c, 0, 77, 64
1, 15106, Note_on_c, 0, 64, 53
1, 15106, Note_on_c, 0, 70, 46
1, 15106, Note_on_c, 0, 77, 38
1, 15106, Note_off_c, 0, 78, 64
1, 15106, Note_on_c, 0, 83, 34
1, 15107, Note_on_c, 0, 78, 38
1, 15107, Note_on_c, 0, 86, 30
1, 15108, Note_on_c, 0, 51, 78
1, 15108, Note_off_c, 0, 64, 64
1, 15109, Note_on_c, 0, 46, 88
1, 15109, Note_off_c, 0, 51, 64
1, 15109, Note_off_c, 0, 70, 64
1, 15109, Note_off_c, 0, 77, 64
1, 15109, Note_off_c, 0, 78, 64
1, 15109, Note_off_c, 0, 80, 64
1, 15109, Note_off_c, 0, 83, 64
1, 15109, Note_off_c, 0, 86, 64
1, 15110, Note_on_c, 0, 44, 95
1, 15110, Note_off_c, 0, 46, 64
1, 15111, Note_on_c, 0, 41, 101
1, 15111, Note_off_c, 0, 44, 64
1, 15112, Note_on_c, 0, 39, 97
1, 15112, Note_off_c, 0, 41, 64
1, 15113, Note_on_c, 0, 37, 98
1, 15113, Note_off_c, 0, 39, 64
1, 15114, Note_on_c, 0, 36, 98
1, 15114, Note_off_c, 0, 37, 64
1, 15115, Note_on_c, 0, 35, 97
1, 15115, Note_off_c, 0, 36, 64
1, 15116, Note_on_c, 0, 34, 96
1, 15116, Note_off_c, 0, 35, 64
1, 15117, Note_on_c, 0, 33, 96
1, 15117, Note_off_c, 0, 34, 64
1, 15118, Note_on_c, 0, 32, 97
1, 15118, Note_off_c, 0, 33, 64
1, 15120, Note_on_c, 0, 31, 96
1, 15120, Note_off_c, 0, 32, 64
1, 15122, Note_on_c, 0, 30, 88
1, 15122, Note_off_c, 0, 31, 64
1, 15124, Note_off_c, 0, 30, 64
1, 15125, Note_on_c, 0, 76, 23
1, 15126, Note_on_c, 0, 37, 70
1, 15126, Note_on_c, 0, 61, 26
1, 15126, Note_on_c, 0, 64, 26
1, 15126, Note_on_c, 0, 68, 20
1, 15126, Note_on_c, 0, 77, 23
1, 15127, Note_on_c, 0, 31, 76
1, 15127, Note_off_c, 0, 37, 64
1, 15127, Note_on_c, 0, 83, 16
1, 15128, Note_on_c, 0, 30, 80
1, 15128, Note_off_c, 0, 31, 64
1, 15128, Note_off_c, 0, 76, 64
1, 15128, Note_on_c, 0, 84, 9
1, 15129, Note_on_c, 0, 29, 80
1, 15129, Note_off_c, 0, 30, 64
1, 15129, Note_on_c, 0, 49, 58
1, 15129, Note_on_c, 0, 63, 22
1, 15129, Note_off_c, 0, 64, 64
1, 15130, Note_off_c, 0, 29, 64
1, 15130, Note_on_c, 0, 30, 78
1, 15130, Note_off_c, 0, 68, 64
1, 15130, Note_off_c, 0, 77, 64
1, 15131, Note_off_c, 0, 61, 64
1, 15131, Note_off_c, 0, 83, 64
1, 15131, Note_off_c, 0, 84, 64
1, 15132, Note_on_c, 0, 29, 75
1, 15132, Note_off_c, 0, 30, 64
1, 15132, Note_on_c, 0, 48, 53
1, 15132, Note_off_c, 0, 49, 64
1, 15133, Note_off_c, 0, 63, 64
1, 15134, Note_off_c, 0, 29, 64
1, 15134, Note_on_c, 0, 30, 71
1, 15134, Note_off_c, 0, 48, 64
1, 15134, Note_on_c, 0, 79, 27
1, 15134, Note_on_c, 0, 82, 16
1, 15136, Note_off_c, 0, 30, 64
1, 15136, Note_on_c, 0, 72, 21
1, 15136, Note_on_c, 0, 85, 18
1, 15137, Note_on_c, 0, 36, 73
1, 15137, Note_on_c, 0, 61, 33
1, 15137, Note_on_c, 0, 64, 30
1, 15137, Note_on_c, 0, 68, 20
1, 15137, Note_on_c, 0, 74, 16
1, 15137, Note_on_c, 0, 77, 20
1, 15138, Note_on_c, 0, 30, 81
1, 15138, Note_off_c, 0, 36, 64
1, 15139, Note_on_c, 0, 29, 83
1, 15139, Note_off_c, 0, 30, 64
1, 15139, Note_off_c, 0, 82, 64
1, 15140, Note_off_c, 0, 61, 64
1, 15140, Note_off_c, 0, 64, 64
1, 15140, Note_off_c, 0, 72, 64
1, 15140, Note_off_c, 0, 74, 64
1, 15140, Note_off_c, 0, 85, 64
1, 15141, Note_off_c, 0, 29, 64
1, 15141, Note_on_c, 0, 30, 75
1, 15141, Note_on_c, 0, 48, 57
1, 15141, Note_on_c, 0, 54, 47
1, 15141, Note_on_c, 0, 61, 12
1, 15141, Note_off_c, 0, 68, 64
1, 15142, Note_off_c, 0, 30, 64
1, 15142, Note_on_c, 0, 34, 67
1, 15142, Note_off_c, 0, 79, 64
1, 15143, Note_off_c, 0, 48, 64
1, 15143, Note_on_c, 0, 65, 47
1, 15143, Note_on_c, 0, 76, 37
1, 15143, Note_on_c, 0, 78, 35
1, 15143, Note_on_c, 0, 83, 36
1, 15143, Note_on_c, 0, 85, 31
1, 15143, Note_on_c, 0, 86, 30
1, 15143, Note_on_c, 0, 92, 30
1, 15143, Note_on_c, 0, 93, 23
1, 15143, Note_on_c, 0, 96, 22
1, 15143, Note_on_c, 0, 99, 20
1, 15144, Note_off_c, 0, 34, 64
1, 15144, Note_off_c, 0, 54, 64
1, 15144, Note_off_c, 0, 61, 64
1, 15144, Note_off_c, 0, 77, 64
1, 15144, Note_on_c, 0, 81, 37
1, 15145, Note_on_c, 0, 54, 71
1, 15145, Note_off_c, 0, 65, 64
1, 15145, Note_off_c, 0, 78, 64
1, 15146, Note_on_c, 0, 48, 84
1, 15146, Note_off_c, 0, 54, 64
1, 15146, Note_off_c, 0, 76, 64
1, 15146, Note_off_c, 0, 81, 64
1, 15146, Note_off_c, 0, 83, 64
1, 15146, Note_off_c, 0, 85, 64
1, 15146, Note_off_c, 0, 86, 64
1, 15146, Note_off_c, 0, 92, 64
1, 15146, Note_off_c, 0, 93, 64
1, 15146, Note_off_c, 0, 96, 64
1, 15146, Note_off_c, 0, 99, 64
1, 15147, Note_on_c, 0, 45, 94
1, 15147, Note_off_c, 0, 48, 64
1, 15148, Note_on_c, 0, 42, 99
1, 15148, Note_off_c, 0, 45, 64
1, 15149, Note_on_c, 0, 40, 99
1, 15149, Note_off_c, 0, 42, 64
1, 15150, Note_on_c, 0, 38, 98
1, 15150, Note_off_c, 0, 40, 64
1, 15151, Note_on_c, 0, 37, 98
1, 15151, Note_off_c, 0, 38, 64
1, 15152, Note_on_c, 0, 35, 97
1, 15152, Note_off_c, 0, 37, 64
1, 15153, Note_on_c, 0, 34, 96
1, 15153, Note_off_c, 0, 35, 64
1, 15154, Note_on_c, 0, 33, 96
1, 15154, Note_off_c, 0, 34, 64
1, 15156, Note_on_c, 0, 32, 96
1, 15156, Note_off_c, 0, 33, 64
1, 15156, Note_on_c, 0, 49, 25
1, 15157, Note_on_c, 0, 31, 97
1, 15157, Note_off_c, 0, 32, 64
1, 15159, Note_on_c, 0, 30, 91
1, 15159, Note_off_c, 0, 31, 64
1, 15159, Note_off_c, 0, 49, 64
1, 15162, Note_off_c, 0, 30, 64
1, 15162, Note_on_c, 0, 44, 65
1, 15163, Note_on_c, 0, 86, 16
1, 15164, Note_on_c, 0, 31, 71
1, 15164, Note_off_c, 0, 44, 64
1, 15164, Note_on_c, 0, 64, 30
1, 15164, Note_on_c, 0, 68, 19
1, 15164, Note_on_c, 0, 70, 15
1, 15164, Note_on_c, 0, 79, 18
1, 15165, Note_on_c, 0, 30, 79
1, 15165, Note_off_c, 0, 31, 64
1, 15166, Note_on_c, 0, 29, 81
1, 15166, Note_off_c, 0, 30, 64
1, 15166, Note_on_c, 0, 63, 27
1, 15166, Note_off_c, 0, 64, 64
1, 15166, Note_on_c, 0, 71, 15
1, 15167, Note_off_c, 0, 70, 64
1, 15167, Note_off_c, 0, 79, 64
1, 15167, Note_off_c, 0, 86, 64
1, 15168, Note_off_c, 0, 29, 64
1, 15168, Note_on_c, 0, 30, 77
1, 15169, Note_off_c, 0, 63, 64
1, 15169, Note_off_c, 0, 68, 64
1, 15169, Note_off_c, 0, 71, 64
1, 15170, Note_on_c, 0, 29, 75
1, 15170, Note_off_c, 0, 30, 64
1, 15171, Note_on_c, 0, 76, 23
1, 15172, Note_off_c, 0, 29, 64
1, 15172, Note_on_c, 0, 30, 68
1, 15173, Note_on_c, 0, 72, 24
1, 15173, Note_on_c, 0, 80, 17
1, 15173, Note_on_c, 0, 82, 20
1, 15173, Note_on_c, 0, 87, 19
1, 15174, Note_off_c, 0, 30, 64
1, 15174, Note_on_c, 0, 42, 71
1, 15174, Note_on_c, 0, 61, 31
1, 15174, Note_on_c, 0, 64, 30
1, 15175, Note_on_c, 0, 30, 78
1, 15175, Note_off_c, 0, 42, 64
1, 15175, Note_on_c, 0, 68, 18
1, 15175, Note_on_c, 0, 77, 23
1, 15176, Note_on_c, 0, 29, 82
1, 15176, Note_off_c, 0, 30, 64
1, 15176, Note_off_c, 0, 80, 64
1, 15176, Note_off_c, 0, 87, 64
1, 15177, Note_on_c, 0, 49, 60
1, 15177, Note_on_c, 0, 63, 26
1, 15177, Note_off_c, 0, 64, 64
1, 15177, Note_off_c, 0, 72, 64
1, 15178, Note_off_c, 0, 29, 64
1, 15178, Note_on_c, 0, 30, 78
1, 15178, Note_off_c, 0, 61, 64
1, 15178, Note_off_c, 0, 68, 64
1, 15178, Note_off_c, 0, 77, 64
1, 15179, Note_off_c, 0, 30, 64
1, 15179, Note_on_c, 0, 34, 72
1, 15179, Note_off_c, 0, 49, 64
1, 15179, Note_on_c, 0, 54, 42
1, 15179, Note_off_c, 0, 76, 64
1, 15180, Note_off_c, 0, 34, 64
1, 15180, Note_off_c, 0, 63, 64
1, 15180, Note_on_c, 0, 81, 35
1, 15181, Note_off_c, 0, 54, 64
1, 15181, Note_on_c, 0, 74, 37
1, 15181, Note_on_c, 0, 76, 35
1, 15181, Note_on_c, 0, 80, 33
1, 15181, Note_off_c, 0, 82, 64
1, 15181, Note_on_c, 0, 85, 31
1, 15181, Note_on_c, 0, 89, 30
1, 15182, Note_on_c, 0, 73, 38
1, 15182, Note_on_c, 0, 78, 30
1, 15182, Note_off_c, 0, 81, 64
1, 15183, Note_on_c, 0, 50, 78
1, 15183, Note_off_c, 0, 85, 64
1, 15183, Note_off_c, 0, 89, 64
1, 15184, Note_on_c, 0, 46, 89
1, 15184, Note_off_c, 0, 50, 64
1, 15184, Note_off_c, 0, 73, 64
1, 15184, Note_off_c, 0, 74, 64
1, 15184, Note_off_c, 0, 76, 64
1, 15184, Note_off_c, 0, 78, 64
1, 15184, Note_off_c, 0, 80, 64
1, 15185, Note_on_c, 0, 43, 96
1, 15185, Note_off_c, 0, 46, 64
1, 15186, Note_on_c, 0, 41, 100
1, 15186, Note_off_c, 0, 43, 64
1, 15187, Note_on_c, 0, 39, 97
1, 15187, Note_off_c, 0, 41, 64
1, 15188, Note_on_c, 0, 37, 99
1, 15188, Note_off_c, 0, 39, 64
1, 15189, Note_on_c, 0, 36, 98
1, 15189, Note_off_c, 0, 37, 64
1, 15190, Note_on_c, 0, 35, 97
1, 15190, Note_off_c, 0, 36, 64
1, 15191, Note_on_c, 0, 34, 96
1, 15191, Note_off_c, 0, 35, 64
1, 15192, Note_on_c, 0, 33, 95
1, 15192, Note_off_c, 0, 34, 64
1, 15193, Note_on_c, 0, 32, 97
1, 15193, Note_off_c, 0, 33, 64
1, 15195, Note_on_c, 0, 31, 96
1, 15195, Note_off_c, 0, 32, 64
1, 15197, Note_on_c, 0, 30, 87
1, 15197, Note_off_c, 0, 31, 64
1, 15199, Note_off_c, 0, 30, 64
1, 15200, Note_on_c, 0, 68, 21
1, 15201, Note_on_c, 0, 37, 71
1, 15201, Note_on_c, 0, 61, 30
1, 15201, Note_on_c, 0, 64, 28
1, 15201, Note_on_c, 0, 74, 11
1, 15202, Note_on_c, 0, 31, 77
1, 15202, Note_off_c, 0, 37, 64
1, 15202, Note_on_c, 0, 70, 13
1, 15203, Note_on_c, 0, 30, 80
1, 15203, Note_off_c, 0, 31, 64
1, 15203, Note_on_c, 0, 78, 17
1, 15204, Note_on_c, 0, 29, 80
1, 15204, Note_off_c, 0, 30, 64
1, 15204, Note_on_c, 0, 49, 57
1, 15204, Note_on_c, 0, 63, 22
1, 15204, Note_off_c, 0, 64, 64
1, 15204, Note_on_c, 0, 71, 12
1, 15204, Note_off_c, 0, 74, 64
1, 15205, Note_off_c, 0, 29, 64
1, 15205, Note_on_c, 0, 30, 77
1, 15206, Note_off_c, 0, 68, 64
1, 15206, Note_off_c, 0, 70, 64
1, 15207, Note_on_c, 0, 29, 75
1, 15207, Note_off_c, 0, 30, 64
1, 15207, Note_off_c, 0, 49, 64
1, 15207, Note_off_c, 0, 63, 64
1, 15207, Note_off_c, 0, 71, 64
1, 15207, Note_off_c, 0, 78, 64
1, 15207, Note_on_c, 0, 83, 10
1, 15208, Note_off_c, 0, 61, 64
1, 15209, Note_off_c, 0, 29, 64
1, 15209, Note_on_c, 0, 30, 71
1, 15209, Note_on_c, 0, 76, 18
1, 15209, Note_on_c, 0, 85, 18
1, 15211, Note_off_c, 0, 30, 64
1, 15211, Note_on_c, 0, 44, 65
1, 15211, Note_on_c, 0, 77, 22
1, 15211, Note_on_c, 0, 80, 21
1, 15211, Note_on_c, 0, 81, 11
1, 15211, Note_off_c, 0, 83, 64
1, 15212, Note_on_c, 0, 36, 73
1, 15212, Note_off_c, 0, 44, 64
1, 15212, Note_on_c, 0, 61, 29
1, 15212, Note_on_c, 0, 68, 17
1, 15212, Note_on_c, 0, 71, 19
1, 15212, Note_off_c, 0, 76, 64
1, 15212, Note_on_c, 0, 82, 35
1, 15213, Note_on_c, 0, 30, 82
1, 15213, Note_off_c, 0, 36, 64
1, 15214, Note_on_c, 0, 29, 83
1, 15214, Note_off_c, 0, 30, 64
1, 15214, Note_on_c, 0, 79, 17
1, 15214, Note_off_c, 0, 80, 64
1, 15214, Note_off_c, 0, 81, 64
1, 15215, Note_off_c, 0, 61, 64
1, 15216, Note_off_c, 0, 29, 64
1, 15216, Note_on_c, 0, 32, 75
1, 15216, Note_on_c, 0, 48, 56
1, 15216, Note_on_c, 0, 54, 46
1, 15216, Note_off_c, 0, 68, 64
1, 15216, Note_off_c, 0, 77, 64
1, 15216, Note_off_c, 0, 85, 64
1, 15217, Note_off_c, 0, 32, 64
1, 15217, Note_on_c, 0, 34, 66
1, 15217, Note_off_c, 0, 71, 64
1, 15217, Note_on_c, 0, 75, 42
1, 15218, Note_off_c, 0, 34, 64
1, 15218, Note_off_c, 0, 48, 64
1, 15218, Note_on_c, 0, 49, 35
1, 15218, Note_on_c, 0, 65, 48
1, 15218, Note_off_c, 0, 79, 64
1, 15218, Note_on_c, 0, 81, 33
1, 15218, Note_on_c, 0, 84, 32
1, 15218, Note_on_c, 0, 86, 36
1, 15218, Note_on_c, 0, 88, 27
1, 15218, Note_on_c, 0, 90, 29
1, 15218, Note_on_c, 0, 91, 29
1, 15218, Note_on_c, 0, 92, 23
1, 15218, Note_on_c, 0, 95, 22
1, 15218, Note_on_c, 0, 97, 21
1, 15219, Note_off_c, 0, 54, 64
1, 15219, Note_on_c, 0, 78, 35
1, 15219, Note_on_c, 0, 83, 33
1, 15220, Note_off_c, 0, 49, 64
1, 15220, Note_on_c, 0, 53, 71
1, 15220, Note_on_c, 0, 64, 48
1, 15220, Note_off_c, 0, 65, 64
1, 15220, Note_on_c, 0, 70, 38
1, 15220, Note_off_c, 0, 84, 64
1, 15221, Note_on_c, 0, 48, 85
1, 15221, Note_off_c, 0, 53, 64
1, 15221, Note_off_c, 0, 75, 64
1, 15221, Note_off_c, 0, 78, 64
1, 15221, Note_off_c, 0, 83, 64
1, 15221, Note_off_c, 0, 88, 64
1, 15221, Note_off_c, 0, 90, 64
1, 15221, Note_off_c, 0, 91, 64
1, 15221, Note_off_c, 0, 92, 64
1, 15221, Note_off_c, 0, 95, 64
1, 15222, Note_on_c, 0, 45, 94
1, 15222, Note_off_c, 0, 48, 64
1, 15222, Note_off_c, 0, 64, 64
1, 15222, Note_off_c, 0, 97, 64
1, 15223, Note_on_c, 0, 42, 100
1, 15223, Note_off_c, 0, 45, 64
1, 15223, Note_off_c, 0, 70, 64
1, 15224, Note_on_c, 0, 40, 98
1, 15224, Note_off_c, 0, 42, 64
1, 15224, Note_off_c, 0, 82, 64
1, 15225, Note_on_c, 0, 38, 98
1, 15225, Note_off_c, 0, 40, 64
1, 15225, Note_off_c, 0, 81, 64
1, 15225, Note_off_c, 0, 86, 64
1, 15226, Note_on_c, 0, 37, 98
1, 15226, Note_off_c, 0, 38, 64
1, 15227, Note_on_c, 0, 35, 97
1, 15227, Note_off_c, 0, 37, 64
1, 15228, Note_on_c, 0, 34, 96
1, 15228, Note_off_c, 0, 35, 64
1, 15229, Note_on_c, 0, 33, 95
1, 15229, Note_off_c, 0, 34, 64
1, 15229, Note_on_c, 0, 82, 11
1, 15229, Note_on_c, 0, 91, 12
1, 15230, Note_on_c, 0, 87, 21
1, 15230, Note_on_c, 0, 90, 12
1, 15231, Note_on_c, 0, 32, 96
1, 15231, Note_off_c, 0, 33, 64
1, 15232, Note_on_c, 0, 31, 96
1, 15232, Note_off_c, 0, 32, 64
1, 15233, Note_off_c, 0, 87, 64
1, 15233, Note_off_c, 0, 90, 64
1, 15233, Note_off_c, 0, 91, 64
1, 15234, Note_on_c, 0, 30, 88
1, 15234, Note_off_c, 0, 31, 64
1, 15234, Note_off_c, 0, 82, 64
1, 15237, Note_off_c, 0, 30, 64
1, 15237, Note_on_c, 0, 87, 26
1, 15237, Note_on_c, 0, 95, 18
1, 15237, Note_on_c, 0, 98, 26
1, 15238, Note_on_c, 0, 79, 22
1, 15238, Note_on_c, 0, 81, 24
1, 15238, Note_on_c, 0, 83, 15
1, 15238, Note_on_c, 0, 88, 24
1, 15238, Note_on_c, 0, 90, 14
1, 15238, Note_on_c, 0, 92, 23
1, 15239, Note_on_c, 0, 86, 15
1, 15240, Note_off_c, 0, 87, 64
1, 15240, Note_off_c, 0, 95, 64
1, 15240, Note_off_c, 0, 98, 64
1, 15241, Note_off_c, 0, 79, 64
1, 15241, Note_off_c, 0, 83, 64
1, 15242, Note_off_c, 0, 86, 64
1, 15242, Note_off_c, 0, 90, 64
1, 15242, Note_off_c, 0, 92, 64
1, 15243, Note_off_c, 0, 88, 64
1, 15244, Note_off_c, 0, 81, 64
1, 15246, Note_on_c, 0, 77, 22
1, 15246, Note_on_c, 0, 83, 33
1, 15246, Note_on_c, 0, 86, 44
1, 15246, Note_on_c, 0, 88, 31
1, 15246, Note_on_c, 0, 90, 38
1, 15246, Note_on_c, 0, 93, 44
1, 15247, Note_on_c, 0, 81, 22
1, 15247, Note_on_c, 0, 91, 35
1, 15247, Note_on_c, 0, 94, 33
1, 15247, Note_on_c, 0, 96, 36
1, 15247, Note_on_c, 0, 99, 13
1, 15247, Note_on_c, 0, 101, 10
1, 15248, Note_off_c, 0, 83, 64
1, 15248, Note_on_c, 0, 84, 24
1, 15249, Note_on_c, 0, 79, 35
1, 15249, Note_on_c, 0, 87, 29
1, 15249, Note_on_c, 0, 89, 29
1, 15250, Note_off_c, 0, 81, 64
1, 15252, Note_off_c, 0, 77, 64
1, 15252, Note_on_c, 0, 83, 36
1, 15252, Note_off_c, 0, 88, 64
1, 15252, Note_off_c, 0, 90, 64
1, 15252, Note_off_c, 0, 101, 64
1, 15253, Note_off_c, 0, 84, 64
1, 15253, Note_off_c, 0, 86, 64
1, 15253, Note_off_c, 0, 96, 64
1, 15253, Note_off_c, 0, 99, 64
1, 15254, Note_off_c, 0, 91, 64
1, 15254, Note_off_c, 0, 93, 64
1, 15255, Note_on_c, 0, 75, 37
1, 15255, Note_on_c, 0, 82, 34
1, 15255, Note_on_c, 0, 86, 33
1, 15256, Note_on_c, 0, 71, 42
1, 15256, Note_on_c, 0, 73, 41
1, 15256, Note_on_c, 0, 81, 35
1, 15256, Note_off_c, 0, 87, 64
1, 15257, Note_on_c, 0, 55, 65
1, 15257, Note_on_c, 0, 63, 54
1, 15257, Note_off_c, 0, 75, 64
1, 15257, Note_on_c, 0, 76, 36
1, 15257, Note_off_c, 0, 79, 64
1, 15257, Note_off_c, 0, 82, 64
1, 15258, Note_on_c, 0, 51, 80
1, 15258, Note_off_c, 0, 55, 64
1, 15258, Note_off_c, 0, 81, 64
1, 15258, Note_off_c, 0, 83, 64
1, 15258, Note_off_c, 0, 86, 64
1, 15258, Note_off_c, 0, 89, 64
1, 15258, Note_off_c, 0, 94, 64
1, 15259, Note_on_c, 0, 45, 91
1, 15259, Note_off_c, 0, 51, 64
1, 15259, Note_off_c, 0, 73, 64
1, 15259, Note_off_c, 0, 76, 64
1, 15260, Note_on_c, 0, 42, 97
1, 15260, Note_off_c, 0, 45, 64
1, 15260, Note_off_c, 0, 71, 64
1, 15261, Note_on_c, 0, 41, 100
1, 15261, Note_off_c, 0, 42, 64
1, 15262, Note_on_c, 0, 39, 98
1, 15262, Note_off_c, 0, 41, 64
1, 15262, Note_off_c, 0, 63, 64
1, 15263, Note_on_c, 0, 37, 99
1, 15263, Note_off_c, 0, 39, 64
1, 15264, Note_on_c, 0, 36, 98
1, 15264, Note_off_c, 0, 37, 64
1, 15265, Note_on_c, 0, 35, 97
1, 15265, Note_off_c, 0, 36, 64
1, 15266, Note_on_c, 0, 34, 96
1, 15266, Note_off_c, 0, 35, 64
1, 15266, Note_on_c, 0, 79, 39
1, 15266, Note_on_c, 0, 85, 22
1, 15267, Note_on_c, 0, 33, 95
1, 15267, Note_off_c, 0, 34, 64
1, 15267, Note_on_c, 0, 73, 42
1, 15267, Note_on_c, 0, 76, 45
1, 15267, Note_on_c, 0, 82, 29
1, 15268, Note_on_c, 0, 32, 97
1, 15268, Note_off_c, 0, 33, 64
1, 15268, Note_on_c, 0, 78, 44
1, 15268, Note_off_c, 0, 79, 64
1, 15268, Note_on_c, 0, 80, 28
1, 15268, Note_on_c, 0, 83, 20
1, 15269, Note_on_c, 0, 75, 46
1, 15269, Note_off_c, 0, 76, 64
1, 15269, Note_off_c, 0, 85, 64
1, 15270, Note_on_c, 0, 31, 96
1, 15270, Note_off_c, 0, 32, 64
1, 15271, Note_off_c, 0, 73, 64
1, 15271, Note_on_c, 0, 74, 49
1, 15271, Note_off_c, 0, 75, 64
1, 15272, Note_on_c, 0, 30, 86
1, 15272, Note_off_c, 0, 31, 64
1, 15272, Note_on_c, 0, 71, 37
1, 15272, Note_on_c, 0, 77, 46
1, 15272, Note_on_c, 0, 84, 23
1, 15273, Note_on_c, 0, 72, 42
1, 15273, Note_off_c, 0, 78, 64
1, 15273, Note_off_c, 0, 83, 64
1, 15274, Note_off_c, 0, 30, 64
1, 15274, Note_off_c, 0, 71, 64
1, 15274, Note_off_c, 0, 74, 64
1, 15274, Note_on_c, 0, 75, 38
1, 15274, Note_off_c, 0, 77, 64
1, 15274, Note_on_c, 0, 78, 37
1, 15274, Note_off_c, 0, 80, 64
1, 15274, Note_off_c, 0, 82, 64
1, 15275, Note_on_c, 0, 80, 30
1, 15275, Note_on_c, 0, 86, 23
1, 15276, Note_on_c, 0, 37, 71
1, 15276, Note_on_c, 0, 61, 28
1, 15276, Note_on_c, 0, 64, 26
1, 15276, Note_on_c, 0, 66, 18
1, 15276, Note_on_c, 0, 70, 41
1, 15276, Note_on_c, 0, 83, 19
1, 15277, Note_on_c, 0, 31, 77
1, 15277, Note_off_c, 0, 37, 64
1, 15277, Note_on_c, 0, 49, 60
1, 15277, Note_off_c, 0, 72, 64
1, 15277, Note_off_c, 0, 75, 64
1, 15277, Note_on_c, 0, 76, 37
1, 15278, Note_on_c, 0, 30, 80
1, 15278, Note_off_c, 0, 31, 64
1, 15278, Note_on_c, 0, 74, 30
1, 15278, Note_off_c, 0, 78, 64
1, 15278, Note_on_c, 0, 79, 23
1, 15278, Note_off_c, 0, 84, 64
1, 15278, Note_off_c, 0, 86, 64
1, 15279, Note_on_c, 0, 29, 80
1, 15279, Note_off_c, 0, 30, 64
1, 15279, Note_off_c, 0, 64, 64
1, 15279, Note_off_c, 0, 66, 64
1, 15280, Note_off_c, 0, 29, 64
1, 15280, Note_on_c, 0, 30, 77
1, 15280, Note_off_c, 0, 49, 64
1, 15280, Note_on_c, 0, 64, 19
1, 15280, Note_on_c, 0, 73, 39
1, 15280, Note_off_c, 0, 74, 64
1, 15280, Note_on_c, 0, 77, 29
1, 15280, Note_off_c, 0, 83, 64
1, 15281, Note_on_c, 0, 75, 46
1, 15281, Note_off_c, 0, 76, 64
1, 15281, Note_off_c, 0, 80, 64
1, 15282, Note_on_c, 0, 29, 75
1, 15282, Note_off_c, 0, 30, 64
1, 15282, Note_off_c, 0, 79, 64
1, 15282, Note_on_c, 0, 80, 16
1, 15283, Note_off_c, 0, 61, 64
1, 15283, Note_off_c, 0, 64, 64
1, 15283, Note_off_c, 0, 70, 64
1, 15284, Note_off_c, 0, 29, 64
1, 15284, Note_on_c, 0, 30, 70
1, 15284, Note_off_c, 0, 77, 64
1, 15284, Note_on_c, 0, 83, 27
1, 15285, Note_off_c, 0, 80, 64
1, 15286, Note_off_c, 0, 30, 64
1, 15286, Note_on_c, 0, 43, 67
1, 15286, Note_on_c, 0, 77, 35
1, 15286, Note_on_c, 0, 80, 38
1, 15287, Note_on_c, 0, 33, 72
1, 15287, Note_off_c, 0, 43, 64
1, 15287, Note_on_c, 0, 64, 27
1, 15288, Note_on_c, 0, 30, 81
1, 15288, Note_off_c, 0, 33, 64
1, 15288, Note_off_c, 0, 83, 64
1, 15289, Note_on_c, 0, 29, 82
1, 15289, Note_off_c, 0, 30, 64
1, 15289, Note_off_c, 0, 73, 64
1, 15289, Note_on_c, 0, 76, 45
1, 15289, Note_off_c, 0, 77, 64
1, 15290, Note_off_c, 0, 29, 64
1, 15290, Note_on_c, 0, 30, 80
1, 15290, Note_off_c, 0, 75, 64
1, 15290, Note_on_c, 0, 79, 34
1, 15290, Note_off_c, 0, 80, 64
1, 15290, Note_on_c, 0, 82, 27
1, 15291, Note_off_c, 0, 30, 64
1, 15291, Note_on_c, 0, 33, 74
1, 15291, Note_on_c, 0, 54, 44
1, 15291, Note_off_c, 0, 64, 64
1, 15291, Note_on_c, 0, 74, 48
1, 15292, Note_on_c, 0, 70, 30
1, 15292, Note_on_c, 0, 80, 36
1, 15293, Note_on_c, 0, 77, 44
1, 15293, Note_off_c, 0, 79, 64
1, 15293, Note_off_c, 0, 82, 64
1, 15293, Note_on_c, 0, 83, 35
1, 15293, Note_on_c, 0, 85, 34
1, 15293, Note_on_c, 0, 90, 27
1, 15293, Note_on_c, 0, 91, 28
1, 15293, Note_on_c, 0, 94, 23
1, 15294, Note_off_c, 0, 33, 64
1, 15294, Note_off_c, 0, 54, 64
1, 15294, Note_on_c, 0, 69, 47
1, 15294, Note_off_c, 0, 70, 64
1, 15294, Note_on_c, 0, 73, 47
1, 15294, Note_off_c, 0, 74, 64
1, 15294, Note_off_c, 0, 76, 64
1, 15294, Note_on_c, 0, 79, 37
1, 15294, Note_on_c, 0, 86, 31
1, 15295, Note_on_c, 0, 51, 73
1, 15295, Note_on_c, 0, 72, 39
1, 15295, Note_on_c, 0, 75, 36
1, 15295, Note_on_c, 0, 78, 38
1, 15296, Note_on_c, 0, 48, 85
1, 15296, Note_off_c, 0, 51, 64
1, 15296, Note_off_c, 0, 69, 64
1, 15296, Note_off_c, 0, 73, 64
1, 15296, Note_off_c, 0, 77, 64
1, 15296, Note_off_c, 0, 79, 64
1, 15296, Note_off_c, 0, 80, 64
1, 15296, Note_off_c, 0, 85, 64
1, 15296, Note_off_c, 0, 90, 64
1, 15296, Note_off_c, 0, 91, 64
1, 15296, Note_off_c, 0, 94, 64
1, 15297, Note_on_c, 0, 45, 95
1, 15297, Note_off_c, 0, 48, 64
1, 15297, Note_on_c, 0, 74, 28
1, 15297, Note_on_c, 0, 77, 33
1, 15297, Note_off_c, 0, 78, 64
1, 15297, Note_on_c, 0, 79, 20
1, 15297, Note_off_c, 0, 86, 64
1, 15298, Note_on_c, 0, 42, 100
1, 15298, Note_off_c, 0, 45, 64
1, 15298, Note_off_c, 0, 72, 64
1, 15298, Note_off_c, 0, 75, 64
1, 15298, Note_off_c, 0, 83, 64
1, 15299, Note_on_c, 0, 40, 98
1, 15299, Note_off_c, 0, 42, 64
1, 15300, Note_on_c, 0, 38, 98
1, 15300, Note_off_c, 0, 40, 64
1, 15300, Note_off_c, 0, 74, 64
1, 15300, Note_on_c, 0, 75, 38
1, 15301, Note_on_c, 0, 36, 98
1, 15301, Note_off_c, 0, 38, 64
1, 15301, Note_on_c, 0, 74, 42
1, 15302, Note_on_c, 0, 35, 97
1, 15302, Note_off_c, 0, 36, 64
1, 15302, Note_off_c, 0, 77, 64
1, 15303, Note_on_c, 0, 34, 96
1, 15303, Note_off_c, 0, 35, 64
1, 15303, Note_off_c, 0, 79, 64
1, 15304, Note_on_c, 0, 33, 95
1, 15304, Note_off_c, 0, 34, 64
1, 15304, Note_off_c, 0, 74, 64
1, 15305, Note_on_c, 0, 49, 24
1, 15306, Note_on_c, 0, 32, 96
1, 15306, Note_off_c, 0, 33, 64
1, 15306, Note_off_c, 0, 75, 64
1, 15307, Note_on_c, 0, 31, 97
1, 15307, Note_off_c, 0, 32, 64
1, 15309, Note_on_c, 0, 30, 90
1, 15309, Note_off_c, 0, 31, 64
1, 15309, Note_off_c, 0, 49, 64
1, 15312, Note_off_c, 0, 30, 64
1, 15312, Note_on_c, 0, 77, 17
1, 15312, Note_on_c, 0, 80, 20
1, 15313, Note_on_c, 0, 41, 68
1, 15313, Note_on_c, 0, 68, 17
1, 15313, Note_on_c, 0, 71, 18
1, 15313, Note_on_c, 0, 78, 17
1, 15313, Note_on_c, 0, 84, 11
1, 15313, Note_on_c, 0, 86, 10
1, 15314, Note_on_c, 0, 31, 74
1, 15314, Note_off_c, 0, 41, 64
1, 15314, Note_on_c, 0, 75, 25
1, 15315, Note_on_c, 0, 30, 80
1, 15315, Note_off_c, 0, 31, 64
1, 15315, Note_off_c, 0, 77, 64
1, 15316, Note_on_c, 0, 29, 81
1, 15316, Note_off_c, 0, 30, 64
1, 15316, Note_on_c, 0, 61, 26
1, 15316, Note_off_c, 0, 78, 64
1, 15316, Note_off_c, 0, 80, 64
1, 15316, Note_off_c, 0, 84, 64
1, 15317, Note_off_c, 0, 71, 64
1, 15317, Note_off_c, 0, 86, 64
1, 15318, Note_off_c, 0, 29, 64
1, 15318, Note_on_c, 0, 30, 76
1, 15318, Note_off_c, 0, 68, 64
1, 15319, Note_on_c, 0, 74, 16
1, 15319, Note_on_c, 0, 77, 14
1, 15320, Note_on_c, 0, 29, 74
1, 15320, Note_off_c, 0, 30, 64
1, 15320, Note_off_c, 0, 61, 64
1, 15320, Note_off_c, 0, 75, 64
1, 15321, Note_on_c, 0, 80, 19
1, 15322, Note_off_c, 0, 29, 64
1, 15322, Note_on_c, 0, 30, 66
1, 15323, Note_on_c, 0, 81, 16
1, 15323, Note_on_c, 0, 85, 20
1, 15323, Note_on_c, 0, 88, 15
1, 15324, Note_off_c, 0, 30, 64
1, 15324, Note_on_c, 0, 36, 72
1, 15324, Note_on_c, 0, 61, 29
1, 15324, Note_on_c, 0, 64, 28
1, 15324, Note_on_c, 0, 68, 25
1, 15324, Note_off_c, 0, 74, 64
1, 15324, Note_off_c, 0, 77, 64
1, 15324, Note_on_c, 0, 87, 15
1, 15325, Note_on_c, 0, 30, 79
1, 15325, Note_off_c, 0, 36, 64
1, 15325, Note_on_c, 0, 74, 27
1, 15326, Note_on_c, 0, 29, 82
1, 15326, Note_off_c, 0, 30, 64
1, 15326, Note_off_c, 0, 80, 64
1, 15326, Note_off_c, 0, 88, 64
1, 15327, Note_on_c, 0, 63, 26
1, 15327, Note_off_c, 0, 64, 64
1, 15327, Note_off_c, 0, 87, 64
1, 15328, Note_off_c, 0, 29, 64
1, 15328, Note_on_c, 0, 30, 77
1, 15328, Note_on_c, 0, 48, 60
1, 15328, Note_on_c, 0, 78, 13
1, 15328, Note_off_c, 0, 81, 64
1, 15329, Note_off_c, 0, 30, 64
1, 15329, Note_on_c, 0, 34, 70
1, 15329, Note_on_c, 0, 54, 38
1, 15329, Note_off_c, 0, 61, 64
1, 15329, Note_off_c, 0, 68, 64
1, 15329, Note_off_c, 0, 85, 64
1, 15330, Note_off_c, 0, 34, 64
1, 15330, Note_off_c, 0, 48, 64
1, 15330, Note_off_c, 0, 63, 64
1, 15330, Note_on_c, 0, 71, 41
1, 15330, Note_on_c, 0, 79, 38
1, 15330, Note_on_c, 0, 85, 31
1, 15330, Note_on_c, 0, 86, 34
1, 15330, Note_on_c, 0, 88, 30
1, 15330, Note_on_c, 0, 90, 29
1, 15331, Note_off_c, 0, 54, 64
1, 15331, Note_on_c, 0, 63, 52
1, 15331, Note_off_c, 0, 74, 64
1, 15331, Note_off_c, 0, 78, 64
1, 15332, Note_on_c, 0, 54, 65
1, 15332, Note_on_c, 0, 70, 42
1, 15332, Note_off_c, 0, 71, 64
1, 15332, Note_off_c, 0, 79, 64
1, 15333, Note_on_c, 0, 49, 80
1, 15333, Note_off_c, 0, 54, 64
1, 15333, Note_off_c, 0, 85, 64
1, 15333, Note_off_c, 0, 86, 64
1, 15333, Note_off_c, 0, 88, 64
1, 15333, Note_off_c, 0, 90, 64
1, 15334, Note_on_c, 0, 45, 92
1, 15334, Note_off_c, 0, 49, 64
1, 15334, Note_off_c, 0, 70, 64
1, 15335, Note_on_c, 0, 42, 98
1, 15335, Note_off_c, 0, 45, 64
1, 15335, Note_off_c, 0, 63, 64
1, 15336, Note_on_c, 0, 41, 100
1, 15336, Note_off_c, 0, 42, 64
1, 15337, Note_on_c, 0, 38, 98
1, 15337, Note_off_c, 0, 41, 64
1, 15338, Note_on_c, 0, 37, 98
1, 15338, Note_off_c, 0, 38, 64
1, 15339, Note_on_c, 0, 36, 97
1, 15339, Note_off_c, 0, 37, 64
1, 15340, Note_on_c, 0, 35, 96
1, 15340, Note_off_c, 0, 36, 64
1, 15341, Note_on_c, 0, 34, 96
1, 15341, Note_off_c, 0, 35, 64
1, 15342, Note_on_c, 0, 33, 95
1, 15342, Note_off_c, 0, 34, 64
1, 15343, Note_on_c, 0, 32, 97
1, 15343, Note_off_c, 0, 33, 64
1, 15345, Note_on_c, 0, 31, 96
1, 15345, Note_off_c, 0, 32, 64
1, 15346, Note_on_c, 0, 30, 93
1, 15346, Note_off_c, 0, 31, 64
1, 15349, Note_off_c, 0, 30, 64
1, 15350, Note_on_c, 0, 68, 22
1, 15350, Note_on_c, 0, 76, 25
1, 15350, Note_on_c, 0, 79, 18
1, 15351, Note_on_c, 0, 36, 71
1, 15351, Note_on_c, 0, 61, 31
1, 15352, Note_on_c, 0, 31, 78
1, 15352, Note_off_c, 0, 36, 64
1, 15352, Note_on_c, 0, 63, 27
1, 15353, Note_on_c, 0, 30, 81
1, 15353, Note_off_c, 0, 31, 64
1, 15353, Note_on_c, 0, 83, 11
1, 15354, Note_on_c, 0, 29, 80
1, 15354, Note_off_c, 0, 30, 64
1, 15354, Note_off_c, 0, 76, 64
1, 15354, Note_off_c, 0, 79, 64
1, 15355, Note_off_c, 0, 29, 64
1, 15355, Note_on_c, 0, 30, 77
1, 15355, Note_off_c, 0, 63, 64
1, 15355, Note_off_c, 0, 68, 64
1, 15356, Note_off_c, 0, 61, 64
1, 15357, Note_on_c, 0, 29, 75
1, 15357, Note_off_c, 0, 30, 64
1, 15357, Note_on_c, 0, 75, 20
1, 15359, Note_off_c, 0, 29, 64
1, 15359, Note_on_c, 0, 30, 70
1, 15360, Note_on_c, 0, 74, 11
1, 15360, Note_off_c, 0, 75, 64
1, 15361, Note_off_c, 0, 30, 64
1, 15361, Note_on_c, 0, 43, 68
1, 15361, Note_on_c, 0, 85, 16
1, 15361, Note_on_c, 0, 86, 12
1, 15362, Note_on_c, 0, 31, 74
1, 15362, Note_off_c, 0, 43, 64
1, 15362, Note_on_c, 0, 64, 30
1, 15362, Note_on_c, 0, 68, 19
1, 15362, Note_on_c, 0, 71, 11
1, 15362, Note_on_c, 0, 84, 11
1, 15363, Note_on_c, 0, 30, 82
1, 15363, Note_off_c, 0, 31, 64
1, 15363, Note_off_c, 0, 83, 64
1, 15364, Note_on_c, 0, 29, 82
1, 15364, Note_off_c, 0, 30, 64
1, 15364, Note_on_c, 0, 61, 26
1, 15364, Note_off_c, 0, 74, 64
1, 15364, Note_off_c, 0, 85, 64
1, 15364, Note_off_c, 0, 86, 64
1, 15365, Note_off_c, 0, 29, 64
1, 15365, Note_on_c, 0, 30, 79
1, 15365, Note_off_c, 0, 64, 64
1, 15365, Note_off_c, 0, 84, 64
1, 15366, Note_off_c, 0, 30, 64
1, 15366, Note_on_c, 0, 33, 74
1, 15366, Note_on_c, 0, 54, 43
1, 15366, Note_off_c, 0, 71, 64
1, 15367, Note_off_c, 0, 61, 64
1, 15367, Note_off_c, 0, 68, 64
1, 15368, Note_off_c, 0, 54, 64
1, 15368, Note_on_c, 0, 75, 39
1, 15368, Note_on_c, 0, 77, 30
1, 15368, Note_on_c, 0, 81, 28
1, 15368, Note_on_c, 0, 83, 29
1, 15368, Note_on_c, 0, 84, 32
1, 15368, Note_on_c, 0, 86, 29
1, 15368, Note_on_c, 0, 90, 29
1, 15369, Note_off_c, 0, 33, 64
1, 15369, Note_on_c, 0, 64, 51
1, 15369, Note_on_c, 0, 79, 31
1, 15370, Note_on_c, 0, 51, 75
1, 15370, Note_off_c, 0, 75, 64
1, 15370, Note_off_c, 0, 90, 64
1, 15371, Note_on_c, 0, 48, 86
1, 15371, Note_off_c, 0, 51, 64
1, 15371, Note_off_c, 0, 64, 64
1, 15371, Note_off_c, 0, 77, 64
1, 15371, Note_off_c, 0, 79, 64
1, 15371, Note_off_c, 0, 81, 64
1, 15371, Note_off_c, 0, 83, 64
1, 15371, Note_off_c, 0, 84, 64
1, 15371, Note_off_c, 0, 86, 64
1, 15372, Note_on_c, 0, 44, 95
1, 15372, Note_off_c, 0, 48, 64
1, 15373, Note_on_c, 0, 42, 100
1, 15373, Note_off_c, 0, 44, 64
1, 15374, Note_on_c, 0, 40, 97
1, 15374, Note_off_c, 0, 42, 64
1, 15375, Note_on_c, 0, 38, 98
1, 15375, Note_off_c, 0, 40, 64
1, 15376, Note_on_c, 0, 36, 98
1, 15376, Note_off_c, 0, 38, 64
1, 15377, Note_on_c, 0, 35, 97
1, 15377, Note_off_c, 0, 36, 64
1, 15378, Note_on_c, 0, 34, 96
1, 15378, Note_off_c, 0, 35, 64
1, 15379, Note_on_c, 0, 33, 95
1, 15379, Note_off_c, 0, 34, 64
1, 15380, Note_on_c, 0, 32, 96
1, 15380, Note_off_c, 0, 33, 64
1, 15382, Note_on_c, 0, 31, 95
1, 15382, Note_off_c, 0, 32, 64
1, 15384, Note_on_c, 0, 30, 87
1, 15384, Note_off_c, 0, 31, 64
1, 15387, Note_off_c, 0, 30, 64
1, 15397, Note_on_c, 0, 82, 13
1, 15398, Note_on_c, 0, 80, 11
1, 15400, Note_off_c, 0, 82, 64
1, 15403, Note_off_c, 0, 80, 64
1, 15404, Note_on_c, 0, 81, 37
1, 15405, Note_on_c, 0, 75, 38
1, 15405, Note_on_c, 0, 76, 41
1, 15405, Note_on_c, 0, 78, 39
1, 15405, Note_on_c, 0, 82, 36
1, 15405, Note_on_c, 0, 84, 35
1, 15405, Note_on_c, 0, 86, 34
1, 15405, Note_on_c, 0, 92, 24
1, 15406, Note_on_c, 0, 70, 42
1, 15407, Note_on_c, 0, 53, 69
1, 15407, Note_off_c, 0, 75, 64
1, 15407, Note_off_c, 0, 78, 64
1, 15407, Note_off_c, 0, 81, 64
1, 15407, Note_off_c, 0, 82, 64
1, 15408, Note_on_c, 0, 48, 83
1, 15408, Note_off_c, 0, 53, 64
1, 15408, Note_off_c, 0, 76, 64
1, 15408, Note_off_c, 0, 84, 64
1, 15408, Note_off_c, 0, 86, 64
1, 15408, Note_off_c, 0, 92, 64
1, 15409, Note_on_c, 0, 45, 93
1, 15409, Note_off_c, 0, 48, 64
1, 15409, Note_off_c, 0, 70, 64
1, 15410, Note_on_c, 0, 42, 99
1, 15410, Note_off_c, 0, 45, 64
1, 15411, Note_on_c, 0, 41, 100
1, 15411, Note_off_c, 0, 42, 64
1, 15412, Note_on_c, 0, 38, 98
1, 15412, Note_off_c, 0, 41, 64
1, 15413, Note_on_c, 0, 37, 98
1, 15413, Note_off_c, 0, 38, 64
1, 15414, Note_on_c, 0, 36, 97
1, 15414, Note_off_c, 0, 37, 64
1, 15415, Note_on_c, 0, 34, 96
1, 15415, Note_off_c, 0, 36, 64
1, 15417, Note_on_c, 0, 33, 95
1, 15417, Note_off_c, 0, 34, 64
1, 15418, Note_on_c, 0, 32, 97
1, 15418, Note_off_c, 0, 33, 64
1, 15420, Note_on_c, 0, 31, 96
1, 15420, Note_off_c, 0, 32, 64
1, 15421, Note_on_c, 0, 30, 92
1, 15421, Note_off_c, 0, 31, 64
1, 15424, Note_off_c, 0, 30, 64
1, 15425, Note_on_c, 0, 68, 18
1, 15425, Note_on_c, 0, 72, 17
1, 15425, Note_on_c, 0, 78, 21
1, 15426, Note_on_c, 0, 36, 72
1, 15426, Note_on_c, 0, 61, 29
1, 15426, Note_on_c, 0, 64, 31
1, 15426, Note_on_c, 0, 74, 10
1, 15426, Note_on_c, 0, 77, 12
1, 15427, Note_on_c, 0, 30, 79
1, 15427, Note_off_c, 0, 36, 64
1, 15428, Note_on_c, 0, 29, 81
1, 15428, Note_off_c, 0, 30, 64
1, 15428, Note_off_c, 0, 72, 64
1, 15428, Note_off_c, 0, 78, 64
1, 15429, Note_off_c, 0, 61, 64
1, 15429, Note_off_c, 0, 64, 64
1, 15429, Note_off_c, 0, 74, 64
1, 15429, Note_off_c, 0, 77, 64
1, 15430, Note_off_c, 0, 29, 64
1, 15430, Note_on_c, 0, 30, 77
1, 15430, Note_off_c, 0, 68, 64
1, 15432, Note_on_c, 0, 29, 75
1, 15432, Note_off_c, 0, 30, 64
1, 15434, Note_off_c, 0, 29, 64
1, 15434, Note_on_c, 0, 30, 69
1, 15435, Note_off_c, 0, 30, 64
1, 15435, Note_on_c, 0, 68, 22
1, 15435, Note_on_c, 0, 76, 19
1, 15436, Note_on_c, 0, 42, 70
1, 15436, Note_on_c, 0, 85, 12
1, 15436, Note_on_c, 0, 86, 10
1, 15437, Note_on_c, 0, 31, 76
1, 15437, Note_off_c, 0, 42, 64
1, 15437, Note_on_c, 0, 70, 18
1, 15438, Note_on_c, 0, 30, 82
1, 15438, Note_off_c, 0, 31, 64
1, 15438, Note_off_c, 0, 68, 64
1, 15438, Note_on_c, 0, 80, 14
1, 15439, Note_on_c, 0, 29, 82
1, 15439, Note_off_c, 0, 30, 64
1, 15439, Note_on_c, 0, 49, 59
1, 15439, Note_on_c, 0, 63, 25
1, 15439, Note_on_c, 0, 78, 14
1, 15439, Note_off_c, 0, 85, 64
1, 15439, Note_off_c, 0, 86, 64
1, 15440, Note_off_c, 0, 29, 64
1, 15440, Note_on_c, 0, 30, 79
1, 15441, Note_off_c, 0, 30, 64
1, 15441, Note_on_c, 0, 33, 74
1, 15441, Note_off_c, 0, 49, 64
1, 15441, Note_on_c, 0, 54, 44
1, 15441, Note_off_c, 0, 70, 64
1, 15441, Note_off_c, 0, 76, 64
1, 15441, Note_off_c, 0, 80, 64
1, 15442, Note_off_c, 0, 63, 64
1, 15443, Note_off_c, 0, 33, 64
1, 15443, Note_off_c, 0, 54, 64
1, 15443, Note_on_c, 0, 76, 38
1, 15443, Note_on_c, 0, 77, 38
1, 15443, Note_off_c, 0, 78, 64
1, 15443, Note_on_c, 0, 79, 31
1, 15443, Note_on_c, 0, 81, 31
1, 15444, Note_on_c, 0, 74, 37
1, 15444, Note_on_c, 0, 80, 31
1, 15444, Note_on_c, 0, 85, 29
1, 15445, Note_on_c, 0, 50, 77
1, 15445, Note_off_c, 0, 76, 64
1, 15445, Note_off_c, 0, 81, 64
1, 15446, Note_on_c, 0, 46, 87
1, 15446, Note_off_c, 0, 50, 64
1, 15446, Note_off_c, 0, 74, 64
1, 15446, Note_off_c, 0, 77, 64
1, 15446, Note_off_c, 0, 79, 64
1, 15446, Note_off_c, 0, 80, 64
1, 15446, Note_off_c, 0, 85, 64
1, 15447, Note_on_c, 0, 44, 95
1, 15447, Note_off_c, 0, 46, 64
1, 15448, Note_on_c, 0, 41, 100
1, 15448, Note_off_c, 0, 44, 64
1, 15449, Note_on_c, 0, 39, 97
1, 15449, Note_off_c, 0, 41, 64
1, 15450, Note_on_c, 0, 38, 99
1, 15450, Note_off_c, 0, 39, 64
1, 15451, Note_on_c, 0, 36, 98
1, 15451, Note_off_c, 0, 38, 64
1, 15452, Note_on_c, 0, 35, 97
1, 15452, Note_off_c, 0, 36, 64
1, 15453, Note_on_c, 0, 34, 96
1, 15453, Note_off_c, 0, 35, 64
1, 15454, Note_on_c, 0, 33, 96
1, 15454, Note_off_c, 0, 34, 64
1, 15456, Note_on_c, 0, 32, 97
1, 15456, Note_off_c, 0, 33, 64
1, 15457, Note_on_c, 0, 31, 97
1, 15457, Note_off_c, 0, 32, 64
1, 15459, Note_on_c, 0, 30, 88
1, 15459, Note_off_c, 0, 31, 64
1, 15461, Note_off_c, 0, 30, 64
1, 15463, Note_on_c, 0, 37, 70
1, 15463, Note_on_c, 0, 61, 29
1, 15463, Note_on_c, 0, 64, 29
1, 15463, Note_on_c, 0, 68, 22
1, 15463, Note_on_c, 0, 70, 18
1, 15464, Note_on_c, 0, 31, 76
1, 15464, Note_off_c, 0, 37, 64
1, 15464, Note_on_c, 0, 74, 14
1, 15465, Note_on_c, 0, 30, 80
1, 15465, Note_off_c, 0, 31, 64
1, 15466, Note_on_c, 0, 29, 81
1, 15466, Note_off_c, 0, 30, 64
1, 15466, Note_on_c, 0, 49, 58
1, 15466, Note_on_c, 0, 63, 27
1, 15466, Note_off_c, 0, 64, 64
1, 15467, Note_off_c, 0, 29, 64
1, 15467, Note_on_c, 0, 30, 78
1, 15468, Note_off_c, 0, 61, 64
1, 15468, Note_off_c, 0, 70, 64
1, 15468, Note_off_c, 0, 74, 64
1, 15469, Note_off_c, 0, 49, 64
1, 15469, Note_off_c, 0, 68, 64
1, 15470, Note_on_c, 0, 29, 74
1, 15470, Note_off_c, 0, 30, 64
1, 15470, Note_off_c, 0, 63, 64
1, 15472, Note_off_c, 0, 29, 64
1, 15472, Note_on_c, 0, 30, 65
1, 15473, Note_off_c, 0, 30, 64
1, 15473, Note_on_c, 0, 80, 23
1, 15473, Note_on_c, 0, 83, 14
1, 15474, Note_on_c, 0, 36, 73
1, 15474, Note_on_c, 0, 61, 31
1, 15474, Note_on_c, 0, 64, 30
1, 15474, Note_on_c, 0, 68, 23
1, 15475, Note_on_c, 0, 30, 81
1, 15475, Note_off_c, 0, 36, 64
1, 15476, Note_on_c, 0, 29, 83
1, 15476, Note_off_c, 0, 30, 64
1, 15477, Note_off_c, 0, 61, 64
1, 15477, Note_on_c, 0, 63, 48
1, 15477, Note_off_c, 0, 64, 64
1, 15477, Note_off_c, 0, 80, 64
1, 15477, Note_off_c, 0, 83, 64
1, 15478, Note_off_c, 0, 29, 64
1, 15478, Note_on_c, 0, 30, 76
1, 15478, Note_on_c, 0, 48, 58
1, 15478, Note_on_c, 0, 54, 47
1, 15479, Note_off_c, 0, 30, 64
1, 15479, Note_on_c, 0, 34, 68
1, 15479, Note_off_c, 0, 68, 64
1, 15480, Note_off_c, 0, 48, 64
1, 15480, Note_on_c, 0, 70, 43
1, 15480, Note_on_c, 0, 73, 39
1, 15480, Note_on_c, 0, 77, 40
1, 15480, Note_on_c, 0, 81, 35
1, 15480, Note_on_c, 0, 83, 34
1, 15480, Note_on_c, 0, 86, 30
1, 15480, Note_on_c, 0, 88, 29
1, 15480, Note_on_c, 0, 90, 29
1, 15480, Note_on_c, 0, 91, 26
1, 15480, Note_on_c, 0, 92, 26
1, 15480, Note_on_c, 0, 96, 21
1, 15480, Note_on_c, 0, 99, 22
1, 15481, Note_off_c, 0, 34, 64
1, 15481, Note_off_c, 0, 54, 64
1, 15482, Note_on_c, 0, 54, 70
1, 15482, Note_on_c, 0, 62, 51
1, 15482, Note_off_c, 0, 63, 64
1, 15482, Note_off_c, 0, 70, 64
1, 15482, Note_off_c, 0, 73, 64
1, 15483, Note_on_c, 0, 48, 83
1, 15483, Note_off_c, 0, 54, 64
1, 15483, Note_off_c, 0, 77, 64
1, 15483, Note_off_c, 0, 81, 64
1, 15483, Note_off_c, 0, 83, 64
1, 15483, Note_off_c, 0, 86, 64
1, 15483, Note_off_c, 0, 88, 64
1, 15483, Note_off_c, 0, 90, 64
1, 15483, Note_off_c, 0, 91, 64
1, 15483, Note_off_c, 0, 92, 64
1, 15483, Note_off_c, 0, 96, 64
1, 15483, Note_off_c, 0, 99, 64
1, 15484, Note_on_c, 0, 45, 94
1, 15484, Note_off_c, 0, 48, 64
1, 15484, Note_off_c, 0, 62, 64
1, 15485, Note_on_c, 0, 42, 99
1, 15485, Note_off_c, 0, 45, 64
1, 15486, Note_on_c, 0, 40, 99
1, 15486, Note_off_c, 0, 42, 64
1, 15487, Note_on_c, 0, 38, 98
1, 15487, Note_off_c, 0, 40, 64
1, 15488, Note_on_c, 0, 37, 98
1, 15488, Note_off_c, 0, 38, 64
1, 15489, Note_on_c, 0, 35, 97
1, 15489, Note_off_c, 0, 37, 64
1, 15490, Note_on_c, 0, 34, 96
1, 15490, Note_off_c, 0, 35, 64
1, 15491, Note_on_c, 0, 33, 96
1, 15491, Note_off_c, 0, 34, 64
1, 15493, Note_on_c, 0, 32, 97
1, 15493, Note_off_c, 0, 33, 64
1, 15495, Note_on_c, 0, 31, 96
1, 15495, Note_off_c, 0, 32, 64
1, 15496, Note_on_c, 0, 30, 91
1, 15496, Note_off_c, 0, 31, 64
1, 15499, Note_off_c, 0, 30, 64
1, 15499, Note_on_c, 0, 44, 64
1, 15500, Note_on_c, 0, 76, 12
1, 15501, Note_on_c, 0, 31, 71
1, 15501, Note_off_c, 0, 44, 64
1, 15501, Note_on_c, 0, 54, 52
1, 15501, Note_on_c, 0, 61, 34
1, 15501, Note_on_c, 0, 64, 37
1, 15501, Note_on_c, 0, 68, 19
1, 15502, Note_on_c, 0, 30, 79
1, 15502, Note_off_c, 0, 31, 64
1, 15502, Note_on_c, 0, 71, 11
1, 15503, Note_on_c, 0, 29, 81
1, 15503, Note_off_c, 0, 30, 64
1, 15503, Note_on_c, 0, 63, 25
1, 15503, Note_off_c, 0, 64, 64
1, 15504, Note_off_c, 0, 54, 64
1, 15504, Note_off_c, 0, 76, 64
1, 15505, Note_off_c, 0, 29, 64
1, 15505, Note_on_c, 0, 30, 77
1, 15505, Note_off_c, 0, 68, 64
1, 15506, Note_off_c, 0, 61, 64
1, 15506, Note_off_c, 0, 63, 64
1, 15506, Note_off_c, 0, 71, 64
1, 15507, Note_on_c, 0, 29, 74
1, 15507, Note_off_c, 0, 30, 64
1, 15509, Note_off_c, 0, 29, 64
1, 15509, Note_on_c, 0, 30, 69
1, 15510, Note_off_c, 0, 30, 64
1, 15511, Note_on_c, 0, 42, 70
1, 15511, Note_on_c, 0, 61, 31
1, 15511, Note_on_c, 0, 71, 16
1, 15511, Note_on_c, 0, 79, 13
1, 15511, Note_on_c, 0, 87, 17
1, 15512, Note_on_c, 0, 30, 82
1, 15512, Note_off_c, 0, 42, 64
1, 15512, Note_on_c, 0, 68, 22
1, 15513, Note_on_c, 0, 77, 15
1, 15514, Note_on_c, 0, 29, 82
1, 15514, Note_off_c, 0, 30, 64
1, 15514, Note_on_c, 0, 49, 60
1, 15514, Note_off_c, 0, 79, 64
1, 15514, Note_off_c, 0, 87, 64
1, 15515, Note_off_c, 0, 29, 64
1, 15515, Note_on_c, 0, 30, 78
1, 15515, Note_off_c, 0, 61, 64
1, 15515, Note_on_c, 0, 63, 20
1, 15516, Note_off_c, 0, 30, 64
1, 15516, Note_on_c, 0, 34, 72
1, 15516, Note_off_c, 0, 49, 64
1, 15516, Note_on_c, 0, 54, 41
1, 15516, Note_off_c, 0, 71, 64
1, 15516, Note_on_c, 0, 74, 33
1, 15516, Note_on_c, 0, 78, 33
1, 15517, Note_off_c, 0, 34, 64
1, 15517, Note_off_c, 0, 68, 64
1, 15517, Note_off_c, 0, 77, 64
1, 15518, Note_off_c, 0, 54, 64
1, 15518, Note_off_c, 0, 63, 64
1, 15518, Note_on_c, 0, 70, 45
1, 15518, Note_on_c, 0, 80, 30
1, 15518, Note_on_c, 0, 85, 30
1, 15519, Note_off_c, 0, 74, 64
1, 15519, Note_on_c, 0, 77, 37
1, 15519, Note_on_c, 0, 81, 31
1, 15520, Note_on_c, 0, 50, 78
1, 15520, Note_off_c, 0, 85, 64
1, 15521, Note_on_c, 0, 46, 89
1, 15521, Note_off_c, 0, 50, 64
1, 15521, Note_off_c, 0, 70, 64
1, 15521, Note_off_c, 0, 77, 64
1, 15521, Note_off_c, 0, 78, 64
1, 15521, Note_off_c, 0, 80, 64
1, 15521, Note_off_c, 0, 81, 64
1, 15522, Note_on_c, 0, 43, 95
1, 15522, Note_off_c, 0, 46, 64
1, 15523, Note_on_c, 0, 41, 100
1, 15523, Note_off_c, 0, 43, 64
1, 15524, Note_on_c, 0, 39, 97
1, 15524, Note_off_c, 0, 41, 64
1, 15525, Note_on_c, 0, 37, 99
1, 15525, Note_off_c, 0, 39, 64
1, 15526, Note_on_c, 0, 36, 98
1, 15526, Note_off_c, 0, 37, 64
1, 15527, Note_on_c, 0, 35, 97
1, 15527, Note_off_c, 0, 36, 64
1, 15528, Note_on_c, 0, 34, 96
1, 15528, Note_off_c, 0, 35, 64
1, 15529, Note_on_c, 0, 33, 95
1, 15529, Note_off_c, 0, 34, 64
1, 15530, Note_on_c, 0, 32, 96
1, 15530, Note_off_c, 0, 33, 64
1, 15532, Note_on_c, 0, 31, 95
1, 15532, Note_off_c, 0, 32, 64
1, 15534, Note_on_c, 0, 30, 85
1, 15534, Note_off_c, 0, 31, 64
1, 15536, Note_off_c, 0, 30, 64
1, 15555, Note_on_c, 0, 69, 47
1, 15555, Note_on_c, 0, 73, 40
1, 15555, Note_on_c, 0, 75, 38
1, 15555, Note_on_c, 0, 84, 35
1, 15555, Note_on_c, 0, 89, 29
1, 15555, Note_on_c, 0, 90, 28
1, 15555, Note_on_c, 0, 92, 25
1, 15556, Note_on_c, 0, 83, 35
1, 15556, Note_on_c, 0, 88, 29
1, 15557, Note_on_c, 0, 53, 72
1, 15557, Note_off_c, 0, 69, 64
1, 15557, Note_off_c, 0, 73, 64
1, 15557, Note_off_c, 0, 75, 64
1, 15558, Note_on_c, 0, 48, 85
1, 15558, Note_off_c, 0, 53, 64
1, 15558, Note_off_c, 0, 83, 64
1, 15558, Note_off_c, 0, 84, 64
1, 15558, Note_off_c, 0, 88, 64
1, 15558, Note_off_c, 0, 89, 64
1, 15558, Note_off_c, 0, 90, 64
1, 15558, Note_off_c, 0, 92, 64
1, 15559, Note_on_c, 0, 45, 95
1, 15559, Note_off_c, 0, 48, 64
1, 15560, Note_on_c, 0, 42, 100
1, 15560, Note_off_c, 0, 45, 64
1, 15561, Note_on_c, 0, 40, 99
1, 15561, Note_off_c, 0, 42, 64
1, 15562, Note_on_c, 0, 38, 99
1, 15562, Note_off_c, 0, 40, 64
1, 15563, Note_on_c, 0, 37, 98
1, 15563, Note_off_c, 0, 38, 64
1, 15564, Note_on_c, 0, 35, 97
1, 15564, Note_off_c, 0, 37, 64
1, 15565, Note_on_c, 0, 34, 96
1, 15565, Note_off_c, 0, 35, 64
1, 15566, Note_on_c, 0, 33, 96
1, 15566, Note_off_c, 0, 34, 64
1, 15567, Note_on_c, 0, 49, 25
1, 15568, Note_on_c, 0, 32, 97
1, 15568, Note_off_c, 0, 33, 64
1, 15569, Note_on_c, 0, 31, 97
1, 15569, Note_off_c, 0, 32, 64
1, 15570, Note_off_c, 0, 49, 64
1, 15571, Note_on_c, 0, 30, 91
1, 15571, Note_off_c, 0, 31, 64
1, 15574, Note_off_c, 0, 30, 64
1, 15575, Note_on_c, 0, 43, 66
1, 15576, Note_on_c, 0, 31, 72
1, 15576, Note_off_c, 0, 43, 64
1, 15576, Note_on_c, 0, 64, 28
1, 15577, Note_on_c, 0, 30, 79
1, 15577, Note_off_c, 0, 31, 64
1, 15578, Note_on_c, 0, 29, 81
1, 15578, Note_off_c, 0, 30, 64
1, 15579, Note_on_c, 0, 63, 22
1, 15579, Note_off_c, 0, 64, 64
1, 15580, Note_off_c, 0, 29, 64
1, 15580, Note_on_c, 0, 30, 77
1, 15582, Note_on_c, 0, 29, 75
1, 15582, Note_off_c, 0, 30, 64
1, 15582, Note_off_c, 0, 63, 64
1, 15584, Note_off_c, 0, 29, 64
1, 15584, Note_on_c, 0, 30, 68
1, 15585, Note_on_c, 0, 68, 21
1, 15585, Note_on_c, 0, 83, 10
1, 15586, Note_off_c, 0, 30, 64
1, 15586, Note_on_c, 0, 41, 71
1, 15586, Note_on_c, 0, 61, 29
1, 15586, Note_on_c, 0, 64, 31
1, 15586, Note_on_c, 0, 70, 15
1, 15586, Note_on_c, 0, 85, 10
1, 15587, Note_on_c, 0, 30, 78
1, 15587, Note_off_c, 0, 41, 64
1, 15588, Note_on_c, 0, 29, 82
1, 15588, Note_off_c, 0, 30, 64
1, 15589, Note_off_c, 0, 83, 64
1, 15589, Note_off_c, 0, 85, 64
1, 15590, Note_off_c, 0, 29, 64
1, 15590, Note_on_c, 0, 30, 78
1, 15590, Note_on_c, 0, 48, 60
1, 15590, Note_off_c, 0, 64, 64
1, 15591, Note_off_c, 0, 30, 64
1, 15591, Note_on_c, 0, 34, 72
1, 15591, Note_on_c, 0, 54, 41
1, 15591, Note_off_c, 0, 68, 64
1, 15591, Note_off_c, 0, 70, 64
1, 15592, Note_off_c, 0, 34, 64
1, 15592, Note_off_c, 0, 48, 64
1, 15592, Note_off_c, 0, 61, 64
1, 15593, Note_off_c, 0, 54, 64
1, 15593, Note_on_c, 0, 77, 35
1, 15593, Note_on_c, 0, 79, 33
1, 15593, Note_on_c, 0, 81, 32
1, 15593, Note_on_c, 0, 83, 33
1, 15593, Note_on_c, 0, 86, 30
1, 15595, Note_on_c, 0, 50, 79
1, 15595, Note_off_c, 0, 77, 64
1, 15595, Note_off_c, 0, 79, 64
1, 15595, Note_off_c, 0, 81, 64
1, 15595, Note_off_c, 0, 83, 64
1, 15595, Note_off_c, 0, 86, 64
1, 15596, Note_on_c, 0, 46, 90
1, 15596, Note_off_c, 0, 50, 64
1, 15597, Note_on_c, 0, 42, 97
1, 15597, Note_off_c, 0, 46, 64
1, 15598, Note_on_c, 0, 41, 100
1, 15598, Note_off_c, 0, 42, 64
1, 15599, Note_on_c, 0, 39, 98
1, 15599, Note_off_c, 0, 41, 64
1, 15600, Note_on_c, 0, 37, 99
1, 15600, Note_off_c, 0, 39, 64
1, 15601, Note_on_c, 0, 36, 98
1, 15601, Note_off_c, 0, 37, 64
1, 15602, Note_on_c, 0, 35, 97
1, 15602, Note_off_c, 0, 36, 64
1, 15603, Note_on_c, 0, 34, 96
1, 15603, Note_off_c, 0, 35, 64
1, 15604, Note_on_c, 0, 33, 96
1, 15604, Note_off_c, 0, 34, 64
1, 15605, Note_on_c, 0, 32, 97
1, 15605, Note_off_c, 0, 33, 64
1, 15607, Note_on_c, 0, 31, 96
1, 15607, Note_off_c, 0, 32, 64
1, 15609, Note_on_c, 0, 30, 87
1, 15609, Note_off_c, 0, 31, 64
1, 15611, Note_off_c, 0, 30, 64
1, 15612, Note_on_c, 0, 70, 18
1, 15613, Note_on_c, 0, 37, 72
1, 15613, Note_on_c, 0, 61, 27
1, 15613, Note_on_c, 0, 64, 29
1, 15613, Note_on_c, 0, 68, 19
1, 15614, Note_on_c, 0, 31, 77
1, 15614, Note_off_c, 0, 37, 64
1, 15614, Note_on_c, 0, 49, 60
1, 15614, Note_on_c, 0, 71, 16
1, 15615, Note_on_c, 0, 30, 80
1, 15615, Note_off_c, 0, 31, 64
1, 15616, Note_on_c, 0, 29, 80
1, 15616, Note_off_c, 0, 30, 64
1, 15616, Note_off_c, 0, 64, 64
1, 15617, Note_off_c, 0, 29, 64
1, 15617, Note_on_c, 0, 30, 77
1, 15617, Note_off_c, 0, 49, 64
1, 15618, Note_off_c, 0, 61, 64
1, 15618, Note_off_c, 0, 68, 64
1, 15618, Note_off_c, 0, 71, 64
1, 15619, Note_on_c, 0, 29, 75
1, 15619, Note_off_c, 0, 30, 64
1, 15619, Note_off_c, 0, 70, 64
1, 15621, Note_off_c, 0, 29, 64
1, 15621, Note_on_c, 0, 30, 71
1, 15623, Note_off_c, 0, 30, 64
1, 15623, Note_on_c, 0, 43, 67
1, 15623, Note_on_c, 0, 82, 15
1, 15624, Note_on_c, 0, 36, 72
1, 15624, Note_off_c, 0, 43, 64
1, 15624, Note_on_c, 0, 61, 30
1, 15624, Note_on_c, 0, 64, 30
1, 15624, Note_on_c, 0, 68, 24
1, 15624, Note_on_c, 0, 77, 17
1, 15625, Note_on_c, 0, 30, 82
1, 15625, Note_off_c, 0, 36, 64
1, 15626, Note_on_c, 0, 29, 82
1, 15626, Note_off_c, 0, 30, 64
1, 15627, Note_off_c, 0, 29, 64
1, 15627, Note_on_c, 0, 30, 80
1, 15627, Note_off_c, 0, 61, 64
1, 15627, Note_on_c, 0, 63, 24
1, 15627, Note_off_c, 0, 64, 64
1, 15627, Note_off_c, 0, 68, 64
1, 15627, Note_off_c, 0, 77, 64
1, 15628, Note_off_c, 0, 30, 64
1, 15628, Note_on_c, 0, 33, 75
1, 15628, Note_on_c, 0, 54, 45
1, 15628, Note_off_c, 0, 82, 64
1, 15629, Note_off_c, 0, 33, 64
1, 15629, Note_on_c, 0, 34, 66
1, 15630, Note_off_c, 0, 34, 64
1, 15630, Note_off_c, 0, 54, 64
1, 15630, Note_on_c, 0, 59, 54
1, 15630, Note_off_c, 0, 63, 64
1, 15630, Note_on_c, 0, 80, 36
1, 15630, Note_on_c, 0, 82, 34
1, 15630, Note_on_c, 0, 86, 30
1, 15630, Note_on_c, 0, 87, 30
1, 15630, Note_on_c, 0, 89, 26
1, 15630, Note_on_c, 0, 91, 28
1, 15630, Note_on_c, 0, 93, 26
1, 15630, Note_on_c, 0, 95, 23
1, 15631, Note_on_c, 0, 68, 48
1, 15631, Note_on_c, 0, 75, 42
1, 15631, Note_on_c, 0, 85, 31
1, 15632, Note_on_c, 0, 51, 72
1, 15632, Note_off_c, 0, 59, 64
1, 15632, Note_on_c, 0, 64, 48
1, 15633, Note_on_c, 0, 48, 85
1, 15633, Note_off_c, 0, 51, 64
1, 15633, Note_off_c, 0, 68, 64
1, 15633, Note_off_c, 0, 75, 64
1, 15633, Note_off_c, 0, 80, 64
1, 15633, Note_off_c, 0, 82, 64
1, 15633, Note_off_c, 0, 85, 64
1, 15633, Note_off_c, 0, 86, 64
1, 15633, Note_off_c, 0, 87, 64
1, 15633, Note_off_c, 0, 89, 64
1, 15633, Note_off_c, 0, 91, 64
1, 15633, Note_off_c, 0, 93, 64
1, 15633, Note_off_c, 0, 95, 64
1, 15634, Note_on_c, 0, 45, 95
1, 15634, Note_off_c, 0, 48, 64
1, 15634, Note_off_c, 0, 64, 64
1, 15635, Note_on_c, 0, 42, 100
1, 15635, Note_off_c, 0, 45, 64
1, 15636, Note_on_c, 0, 40, 98
1, 15636, Note_off_c, 0, 42, 64
1, 15637, Note_on_c, 0, 38, 99
1, 15637, Note_off_c, 0, 40, 64
1, 15638, Note_on_c, 0, 36, 98
1, 15638, Note_off_c, 0, 38, 64
1, 15639, Note_on_c, 0, 35, 97
1, 15639, Note_off_c, 0, 36, 64
1, 15640, Note_on_c, 0, 34, 96
1, 15640, Note_off_c, 0, 35, 64
1, 15641, Note_on_c, 0, 33, 96
1, 15641, Note_off_c, 0, 34, 64
1, 15642, Note_on_c, 0, 49, 26
1, 15643, Note_on_c, 0, 32, 97
1, 15643, Note_off_c, 0, 33, 64
1, 15644, Note_on_c, 0, 31, 97
1, 15644, Note_off_c, 0, 32, 64
1, 15646, Note_on_c, 0, 30, 90
1, 15646, Note_off_c, 0, 31, 64
1, 15646, Note_off_c, 0, 49, 64
1, 15649, Note_off_c, 0, 30, 64
1, 15649, Note_on_c, 0, 70, 18
1, 15650, Note_on_c, 0, 41, 67
1, 15650, Note_on_c, 0, 68, 20
1, 15650, Note_on_c, 0, 74, 14
1, 15650, Note_on_c, 0, 79, 11
1, 15651, Note_on_c, 0, 31, 74
1, 15651, Note_off_c, 0, 41, 64
1, 15651, Note_on_c, 0, 61, 30
1, 15652, Note_on_c, 0, 30, 80
1, 15652, Note_off_c, 0, 31, 64
1, 15652, Note_off_c, 0, 70, 64
1, 15652, Note_on_c, 0, 71, 12
1, 15653, Note_on_c, 0, 29, 81
1, 15653, Note_off_c, 0, 30, 64
1, 15653, Note_off_c, 0, 79, 64
1, 15654, Note_off_c, 0, 74, 64
1, 15655, Note_off_c, 0, 29, 64
1, 15655, Note_on_c, 0, 30, 76
1, 15655, Note_off_c, 0, 68, 64
1, 15655, Note_off_c, 0, 71, 64
1, 15657, Note_on_c, 0, 29, 74
1, 15657, Note_off_c, 0, 30, 64
1, 15657, Note_off_c, 0, 61, 64
1, 15659, Note_off_c, 0, 29, 64
1, 15659, Note_on_c, 0, 30, 67
1, 15660, Note_on_c, 0, 68, 20
1, 15661, Note_off_c, 0, 30, 64
1, 15661, Note_on_c, 0, 36, 72
1, 15661, Note_on_c, 0, 61, 31
1, 15661, Note_on_c, 0, 71, 14
1, 15661, Note_on_c, 0, 77, 18
1, 15662, Note_on_c, 0, 30, 79
1, 15662, Note_off_c, 0, 36, 64
1, 15663, Note_on_c, 0, 29, 82
1, 15663, Note_off_c, 0, 30, 64
1, 15664, Note_on_c, 0, 63, 24
1, 15665, Note_off_c, 0, 29, 64
1, 15665, Note_on_c, 0, 30, 77
1, 15665, Note_on_c, 0, 48, 59
1, 15665, Note_off_c, 0, 71, 64
1, 15666, Note_off_c, 0, 30, 64
1, 15666, Note_on_c, 0, 34, 70
1, 15666, Note_on_c, 0, 54, 39
1, 15666, Note_off_c, 0, 61, 64
1, 15666, Note_off_c, 0, 68, 64
1, 15666, Note_off_c, 0, 77, 64
1, 15667, Note_off_c, 0, 34, 64
1, 15667, Note_off_c, 0, 48, 64
1, 15667, Note_off_c, 0, 63, 64
1, 15667, Note_on_c, 0, 71, 40
1, 15667, Note_on_c, 0, 74, 39
1, 15667, Note_on_c, 0, 82, 35
1, 15667, Note_on_c, 0, 85, 32
1, 15668, Note_off_c, 0, 54, 64
1, 15668, Note_on_c, 0, 63, 51
1, 15668, Note_on_c, 0, 77, 37
1, 15668, Note_on_c, 0, 88, 29
1, 15669, Note_on_c, 0, 54, 66
1, 15670, Note_on_c, 0, 49, 80
1, 15670, Note_off_c, 0, 54, 64
1, 15670, Note_off_c, 0, 63, 64
1, 15670, Note_off_c, 0, 74, 64
1, 15670, Note_off_c, 0, 82, 64
1, 15670, Note_off_c, 0, 85, 64
1, 15670, Note_off_c, 0, 88, 64
1, 15671, Note_on_c, 0, 45, 92
1, 15671, Note_off_c, 0, 49, 64
1, 15671, Note_off_c, 0, 71, 64
1, 15671, Note_off_c, 0, 77, 64
1, 15672, Note_on_c, 0, 42, 97
1, 15672, Note_off_c, 0, 45, 64
1, 15673, Note_on_c, 0, 41, 100
1, 15673, Note_off_c, 0, 42, 64
1, 15674, Note_on_c, 0, 38, 98
1, 15674, Note_off_c, 0, 41, 64
1, 15675, Note_on_c, 0, 37, 98
1, 15675, Note_off_c, 0, 38, 64
1, 15676, Note_on_c, 0, 36, 97
1, 15676, Note_off_c, 0, 37, 64
1, 15677, Note_on_c, 0, 35, 96
1, 15677, Note_off_c, 0, 36, 64
1, 15678, Note_on_c, 0, 34, 96
1, 15678, Note_off_c, 0, 35, 64
1, 15679, Note_on_c, 0, 33, 95
1, 15679, Note_off_c, 0, 34, 64
1, 15680, Note_on_c, 0, 32, 96
1, 15680, Note_off_c, 0, 33, 64
1, 15682, Note_on_c, 0, 31, 95
1, 15682, Note_off_c, 0, 32, 64
1, 15684, Note_on_c, 0, 30, 84
1, 15684, Note_off_c, 0, 31, 64
1, 15686, Note_off_c, 0, 30, 64
1, 15690, Note_on_c, 0, 69, 19
1, 15690, Note_on_c, 0, 72, 10
1, 15693, Note_off_c, 0, 72, 64
1, 15695, Note_off_c, 0, 69, 64
1, 15697, Note_on_c, 0, 69, 13
1, 15699, Note_on_c, 0, 78, 14
1, 15699, Note_on_c, 0, 79, 20
1, 15699, Note_on_c, 0, 85, 15
1, 15700, Note_off_c, 0, 69, 64
1, 15702, Note_off_c, 0, 78, 64
1, 15702, Note_off_c, 0, 79, 64
1, 15704, Note_on_c, 0, 82, 28
1, 15705, Note_on_c, 0, 71, 44
1, 15705, Note_on_c, 0, 74, 44
1, 15705, Note_on_c, 0, 76, 42
1, 15705, Note_on_c, 0, 80, 41
1, 15705, Note_on_c, 0, 84, 33
1, 15705, Note_off_c, 0, 85, 64
1, 15705, Note_on_c, 0, 90, 27
1, 15706, Note_on_c, 0, 79, 37
1, 15707, Note_on_c, 0, 51, 75
1, 15707, Note_off_c, 0, 71, 64
1, 15707, Note_off_c, 0, 82, 64
1, 15707, Note_off_c, 0, 84, 64
1, 15708, Note_on_c, 0, 48, 86
1, 15708, Note_off_c, 0, 51, 64
1, 15708, Note_off_c, 0, 74, 64
1, 15708, Note_off_c, 0, 80, 64
1, 15708, Note_off_c, 0, 90, 64
1, 15709, Note_on_c, 0, 45, 95
1, 15709, Note_off_c, 0, 48, 64
1, 15709, Note_off_c, 0, 76, 64
1, 15709, Note_off_c, 0, 79, 64
1, 15710, Note_on_c, 0, 42, 100
1, 15710, Note_off_c, 0, 45, 64
1, 15711, Note_on_c, 0, 40, 98
1, 15711, Note_off_c, 0, 42, 64
1, 15711, Note_on_c, 0, 82, 27
1, 15711, Note_on_c, 0, 83, 21
1, 15712, Note_on_c, 0, 38, 98
1, 15712, Note_off_c, 0, 40, 64
1, 15713, Note_on_c, 0, 36, 98
1, 15713, Note_off_c, 0, 38, 64
1, 15713, Note_on_c, 0, 79, 22
1, 15714, Note_on_c, 0, 35, 97
1, 15714, Note_off_c, 0, 36, 64
1, 15715, Note_on_c, 0, 34, 96
1, 15715, Note_off_c, 0, 35, 64
1, 15715, Note_on_c, 0, 77, 12
1, 15716, Note_on_c, 0, 33, 96
1, 15716, Note_off_c, 0, 34, 64
1, 15716, Note_off_c, 0, 79, 64
1, 15716, Note_off_c, 0, 82, 64
1, 15718, Note_on_c, 0, 32, 97
1, 15718, Note_off_c, 0, 33, 64
1, 15719, Note_on_c, 0, 31, 97
1, 15719, Note_off_c, 0, 32, 64
1, 15719, Note_on_c, 0, 80, 44
1, 15719, Note_on_c, 0, 82, 17
1, 15719, Note_off_c, 0, 83, 64
1, 15721, Note_on_c, 0, 30, 89
1, 15721, Note_off_c, 0, 31, 64
1, 15721, Note_on_c, 0, 73, 19
1, 15721, Note_on_c, 0, 75, 24
1, 15721, Note_off_c, 0, 77, 64
1, 15721, Note_on_c, 0, 78, 25
1, 15722, Note_on_c, 0, 77, 19
1, 15722, Note_off_c, 0, 82, 64
1, 15723, Note_on_c, 0, 29, 65
1, 15723, Note_off_c, 0, 30, 64
1, 15724, Note_off_c, 0, 29, 64
1, 15724, Note_off_c, 0, 78, 64
1, 15724, Note_on_c, 0, 79, 30
1, 15724, Note_on_c, 0, 83, 17
1, 15724, Note_on_c, 0, 88, 15
1, 15725, Note_on_c, 0, 41, 68
1, 15725, Note_on_c, 0, 70, 21
1, 15725, Note_off_c, 0, 73, 64
1, 15725, Note_on_c, 0, 74, 24
1, 15725, Note_off_c, 0, 80, 64
1, 15726, Note_on_c, 0, 31, 74
1, 15726, Note_off_c, 0, 41, 64
1, 15726, Note_on_c, 0, 61, 27
1, 15726, Note_on_c, 0, 68, 14
1, 15726, Note_off_c, 0, 75, 64
1, 15726, Note_off_c, 0, 77, 64
1, 15726, Note_on_c, 0, 78, 27
1, 15726, Note_on_c, 0, 80, 25
1, 15726, Note_on_c, 0, 82, 33
1, 15727, Note_on_c, 0, 30, 80
1, 15727, Note_off_c, 0, 31, 64
1, 15727, Note_off_c, 0, 79, 64
1, 15727, Note_off_c, 0, 83, 64
1, 15728, Note_on_c, 0, 29, 81
1, 15728, Note_off_c, 0, 30, 64
1, 15728, Note_on_c, 0, 63, 23
1, 15728, Note_off_c, 0, 74, 64
1, 15728, Note_off_c, 0, 88, 64
1, 15729, Note_off_c, 0, 29, 64
1, 15729, Note_on_c, 0, 30, 78
1, 15729, Note_off_c, 0, 68, 64
1, 15729, Note_off_c, 0, 80, 64
1, 15729, Note_on_c, 0, 85, 18
1, 15730, Note_off_c, 0, 70, 64
1, 15730, Note_on_c, 0, 72, 25
1, 15730, Note_on_c, 0, 81, 34
1, 15730, Note_off_c, 0, 82, 64
1, 15731, Note_off_c, 0, 61, 64
1, 15731, Note_on_c, 0, 80, 44
1, 15731, Note_on_c, 0, 83, 22
1, 15732, Note_on_c, 0, 29, 74
1, 15732, Note_off_c, 0, 30, 64
1, 15732, Note_off_c, 0, 63, 64
1, 15733, Note_off_c, 0, 81, 64
1, 15734, Note_off_c, 0, 29, 64
1, 15734, Note_on_c, 0, 30, 66
1, 15734, Note_on_c, 0, 70, 15
1, 15734, Note_on_c, 0, 75, 31
1, 15734, Note_on_c, 0, 77, 30
1, 15734, Note_off_c, 0, 78, 64
1, 15735, Note_on_c, 0, 68, 20
1, 15735, Note_on_c, 0, 81, 34
1, 15736, Note_off_c, 0, 30, 64
1, 15736, Note_on_c, 0, 36, 72
1, 15736, Note_on_c, 0, 61, 31
1, 15736, Note_on_c, 0, 64, 29
1, 15737, Note_on_c, 0, 30, 80
1, 15737, Note_off_c, 0, 36, 64
1, 15737, Note_on_c, 0, 49, 61
1, 15737, Note_on_c, 0, 78, 40
1, 15737, Note_on_c, 0, 82, 43
1, 15738, Note_on_c, 0, 29, 82
1, 15738, Note_off_c, 0, 30, 64
1, 15738, Note_off_c, 0, 72, 64
1, 15738, Note_off_c, 0, 81, 64
1, 15739, Note_off_c, 0, 61, 64
1, 15739, Note_on_c, 0, 63, 43
1, 15739, Note_off_c, 0, 64, 64
1, 15739, Note_off_c, 0, 70, 64
1, 15739, Note_off_c, 0, 75, 64
1, 15739, Note_off_c, 0, 77, 64
1, 15740, Note_off_c, 0, 29, 64
1, 15740, Note_on_c, 0, 30, 77
1, 15740, Note_on_c, 0, 48, 59
1, 15740, Note_off_c, 0, 49, 64
1, 15740, Note_off_c, 0, 83, 64
1, 15740, Note_off_c, 0, 85, 64
1, 15741, Note_off_c, 0, 30, 64
1, 15741, Note_on_c, 0, 34, 69
1, 15741, Note_on_c, 0, 54, 37
1, 15742, Note_off_c, 0, 48, 64
1, 15742, Note_on_c, 0, 70, 40
1, 15742, Note_on_c, 0, 73, 42
1, 15742, Note_on_c, 0, 77, 38
1, 15742, Note_on_c, 0, 81, 43
1, 15742, Note_on_c, 0, 84, 40
1, 15742, Note_on_c, 0, 86, 32
1, 15742, Note_on_c, 0, 87, 33
1, 15742, Note_on_c, 0, 91, 28
1, 15743, Note_off_c, 0, 34, 64
1, 15743, Note_off_c, 0, 54, 64
1, 15743, Note_off_c, 0, 68, 64
1, 15744, Note_on_c, 0, 54, 67
1, 15744, Note_off_c, 0, 63, 64
1, 15744, Note_off_c, 0, 70, 64
1, 15744, Note_on_c, 0, 71, 39
1, 15744, Note_off_c, 0, 78, 64
1, 15744, Note_off_c, 0, 82, 64
1, 15745, Note_on_c, 0, 49, 81
1, 15745, Note_off_c, 0, 54, 64
1, 15745, Note_off_c, 0, 86, 64
1, 15745, Note_off_c, 0, 91, 64
1, 15746, Note_on_c, 0, 45, 92
1, 15746, Note_off_c, 0, 49, 64
1, 15746, Note_off_c, 0, 71, 64
1, 15746, Note_on_c, 0, 76, 22
1, 15746, Note_off_c, 0, 77, 64
1, 15746, Note_off_c, 0, 84, 64
1, 15746, Note_off_c, 0, 87, 64
1, 15747, Note_on_c, 0, 42, 98
1, 15747, Note_off_c, 0, 45, 64
1, 15748, Note_on_c, 0, 41, 99
1, 15748, Note_off_c, 0, 42, 64
1, 15748, Note_off_c, 0, 73, 64
1, 15748, Note_on_c, 0, 74, 27
1, 15749, Note_on_c, 0, 38, 98
1, 15749, Note_off_c, 0, 41, 64
1, 15750, Note_on_c, 0, 37, 98
1, 15750, Note_off_c, 0, 38, 64
1, 15751, Note_on_c, 0, 36, 97
1, 15751, Note_off_c, 0, 37, 64
1, 15751, Note_on_c, 0, 78, 43
1, 15751, Note_off_c, 0, 80, 64
1, 15751, Note_on_c, 0, 84, 15
1, 15752, Note_on_c, 0, 34, 96
1, 15752, Note_off_c, 0, 36, 64
1, 15752, Note_off_c, 0, 76, 64
1, 15753, Note_on_c, 0, 69, 14
1, 15753, Note_off_c, 0, 74, 64
1, 15753, Note_on_c, 0, 80, 26
1, 15754, Note_on_c, 0, 33, 95
1, 15754, Note_off_c, 0, 34, 64
1, 15754, Note_on_c, 0, 76, 29
1, 15755, Note_on_c, 0, 32, 96
1, 15755, Note_off_c, 0, 33, 64
1, 15755, Note_on_c, 0, 82, 18
1, 15755, Note_off_c, 0, 84, 64
1, 15756, Note_off_c, 0, 76, 64
1, 15757, Note_on_c, 0, 31, 96
1, 15757, Note_off_c, 0, 32, 64
1, 15757, Note_on_c, 0, 76, 31
1, 15758, Note_on_c, 0, 30, 92
1, 15758, Note_off_c, 0, 31, 64
1, 15758, Note_on_c, 0, 74, 13
1, 15758, Note_on_c, 0, 83, 19
1, 15759, Note_off_c, 0, 81, 64
1, 15760, Note_off_c, 0, 82, 64
1, 15761, Note_off_c, 0, 30, 64
1, 15761, Note_off_c, 0, 69, 64
1, 15762, Note_off_c, 0, 74, 64
1, 15762, Note_on_c, 0, 81, 49
1, 15763, Note_on_c, 0, 36, 71
1, 15763, Note_on_c, 0, 61, 29
1, 15763, Note_on_c, 0, 64, 28
1, 15763, Note_on_c, 0, 68, 21
1, 15763, Note_on_c, 0, 71, 34
1, 15763, Note_on_c, 0, 74, 35
1, 15763, Note_off_c, 0, 80, 64
1, 15763, Note_on_c, 0, 89, 14
1, 15764, Note_on_c, 0, 30, 80
1, 15764, Note_off_c, 0, 36, 64
1, 15765, Note_off_c, 0, 74, 64
1, 15766, Note_on_c, 0, 29, 79
1, 15766, Note_off_c, 0, 30, 64
1, 15766, Note_on_c, 0, 63, 20
1, 15766, Note_off_c, 0, 64, 64
1, 15766, Note_off_c, 0, 68, 64
1, 15766, Note_off_c, 0, 71, 64
1, 15766, Note_off_c, 0, 89, 64
1, 15767, Note_off_c, 0, 29, 64
1, 15767, Note_on_c, 0, 30, 76
1, 15767, Note_on_c, 0, 80, 24
1, 15768, Note_off_c, 0, 61, 64
1, 15768, Note_on_c, 0, 74, 32
1, 15768, Note_off_c, 0, 78, 64
1, 15768, Note_off_c, 0, 81, 64
1, 15768, Note_off_c, 0, 83, 64
1, 15769, Note_on_c, 0, 29, 75
1, 15769, Note_off_c, 0, 30, 64
1, 15769, Note_off_c, 0, 63, 64
1, 15769, Note_on_c, 0, 81, 19
1, 15770, Note_on_c, 0, 82, 17
1, 15771, Note_off_c, 0, 29, 64
1, 15771, Note_on_c, 0, 30, 70
1, 15771, Note_on_c, 0, 48, 36
1, 15771, Note_off_c, 0, 80, 64
1, 15772, Note_off_c, 0, 30, 64
1, 15772, Note_on_c, 0, 70, 16
1, 15772, Note_off_c, 0, 76, 64
1, 15772, Note_on_c, 0, 84, 16
1, 15773, Note_on_c, 0, 42, 69
1, 15773, Note_off_c, 0, 48, 64
1, 15773, Note_on_c, 0, 61, 30
1, 15773, Note_on_c, 0, 78, 34
1, 15773, Note_on_c, 0, 80, 44
1, 15773, Note_off_c, 0, 82, 64
1, 15774, Note_on_c, 0, 32, 75
1, 15774, Note_off_c, 0, 42, 64
1, 15774, Note_on_c, 0, 64, 31
1, 15774, Note_on_c, 0, 72, 39
1, 15774, Note_on_c, 0, 88, 15
1, 15775, Note_on_c, 0, 30, 82
1, 15775, Note_off_c, 0, 32, 64
1, 15775, Note_off_c, 0, 70, 64
1, 15775, Note_on_c, 0, 75, 45
1, 15776, Note_on_c, 0, 29, 82
1, 15776, Note_off_c, 0, 30, 64
1, 15776, Note_off_c, 0, 74, 64
1, 15776, Note_on_c, 0, 82, 24
1, 15776, Note_off_c, 0, 84, 64
1, 15776, Note_on_c, 0, 85, 16
1, 15777, Note_off_c, 0, 29, 64
1, 15777, Note_on_c, 0, 30, 79
1, 15777, Note_off_c, 0, 61, 64
1, 15777, Note_off_c, 0, 64, 64
1, 15777, Note_off_c, 0, 75, 64
1, 15777, Note_on_c, 0, 76, 50
1, 15777, Note_off_c, 0, 81, 64
1, 15778, Note_off_c, 0, 30, 64
1, 15778, Note_on_c, 0, 33, 73
1, 15778, Note_on_c, 0, 54, 41
1, 15778, Note_on_c, 0, 73, 33
1, 15778, Note_on_c, 0, 75, 34
1, 15778, Note_off_c, 0, 78, 64
1, 15778, Note_off_c, 0, 88, 64
1, 15779, Note_off_c, 0, 72, 64
1, 15779, Note_on_c, 0, 78, 30
1, 15779, Note_on_c, 0, 81, 37
1, 15779, Note_off_c, 0, 85, 64
1, 15780, Note_off_c, 0, 33, 64
1, 15780, Note_off_c, 0, 54, 64
1, 15780, Note_off_c, 0, 75, 64
1, 15780, Note_off_c, 0, 80, 64
1, 15780, Note_on_c, 0, 83, 31
1, 15781, Note_on_c, 0, 72, 42
1, 15781, Note_off_c, 0, 73, 64
1, 15781, Note_off_c, 0, 78, 64
1, 15781, Note_on_c, 0, 79, 37
1, 15781, Note_off_c, 0, 82, 64
1, 15782, Note_on_c, 0, 51, 76
1, 15783, Note_on_c, 0, 46, 86
1, 15783, Note_off_c, 0, 51, 64
1, 15783, Note_off_c, 0, 72, 64
1, 15783, Note_on_c, 0, 78, 26
1, 15783, Note_off_c, 0, 79, 64
1, 15783, Note_on_c, 0, 80, 16
1, 15783, Note_off_c, 0, 83, 64
1, 15784, Note_on_c, 0, 44, 95
1, 15784, Note_off_c, 0, 46, 64
1, 15784, Note_on_c, 0, 69, 16
1, 15785, Note_on_c, 0, 41, 100
1, 15785, Note_off_c, 0, 44, 64
1, 15785, Note_on_c, 0, 73, 28
1, 15785, Note_off_c, 0, 76, 64
1, 15785, Note_off_c, 0, 81, 64
1, 15785, Note_on_c, 0, 82, 44
1, 15786, Note_on_c, 0, 40, 96
1, 15786, Note_off_c, 0, 41, 64
1, 15786, Note_on_c, 0, 79, 31
1, 15786, Note_on_c, 0, 84, 21
1, 15787, Note_on_c, 0, 38, 98
1, 15787, Note_off_c, 0, 40, 64
1, 15787, Note_on_c, 0, 76, 35
1, 15787, Note_off_c, 0, 80, 64
1, 15788, Note_on_c, 0, 36, 97
1, 15788, Note_off_c, 0, 38, 64
1, 15789, Note_on_c, 0, 35, 96
1, 15789, Note_off_c, 0, 36, 64
1, 15789, Note_off_c, 0, 69, 64
1, 15789, Note_on_c, 0, 80, 38
1, 15789, Note_on_c, 0, 83, 22
1, 15790, Note_on_c, 0, 34, 95
1, 15790, Note_off_c, 0, 35, 64
1, 15790, Note_off_c, 0, 76, 64
1, 15790, Note_off_c, 0, 79, 64
1, 15790, Note_on_c, 0, 81, 19
1, 15790, Note_off_c, 0, 82, 64
1, 15791, Note_on_c, 0, 33, 95
1, 15791, Note_off_c, 0, 34, 64
1, 15791, Note_off_c, 0, 84, 64
1, 15792, Note_on_c, 0, 32, 96
1, 15792, Note_off_c, 0, 33, 64
1, 15792, Note_off_c, 0, 73, 64
1, 15794, Note_on_c, 0, 31, 96
1, 15794, Note_off_c, 0, 32, 64
1, 15794, Note_off_c, 0, 78, 64
1, 15794, Note_off_c, 0, 81, 64
1, 15796, Note_on_c, 0, 30, 88
1, 15796, Note_off_c, 0, 31, 64
1, 15796, Note_on_c, 0, 78, 28
1, 15797, Note_off_c, 0, 83, 64
1, 15797, Note_on_c, 0, 84, 30
1, 15798, Note_off_c, 0, 30, 64
1, 15798, Note_on_c, 0, 73, 41
1, 15798, Note_on_c, 0, 76, 42
1, 15798, Note_on_c, 0, 77, 20
1, 15798, Note_off_c, 0, 80, 64
1, 15798, Note_on_c, 0, 81, 39
1, 15798, Note_on_c, 0, 87, 19
1, 15800, Note_on_c, 0, 37, 68
1, 15800, Note_on_c, 0, 61, 27
1, 15800, Note_on_c, 0, 72, 38
1, 15800, Note_off_c, 0, 73, 64
1, 15800, Note_off_c, 0, 78, 64
1, 15800, Note_on_c, 0, 79, 35
1, 15800, Note_on_c, 0, 83, 34
1, 15800, Note_off_c, 0, 84, 64
1, 15801, Note_on_c, 0, 31, 75
1, 15801, Note_off_c, 0, 37, 64
1, 15801, Note_on_c, 0, 68, 19
1, 15801, Note_off_c, 0, 77, 64
1, 15801, Note_off_c, 0, 87, 64
1, 15802, Note_on_c, 0, 30, 80
1, 15802, Note_off_c, 0, 31, 64
1, 15802, Note_off_c, 0, 72, 64
1, 15802, Note_off_c, 0, 83, 64
1, 15803, Note_on_c, 0, 29, 80
1, 15803, Note_off_c, 0, 30, 64
1, 15803, Note_on_c, 0, 49, 57
1, 15803, Note_on_c, 0, 75, 28
1, 15803, Note_off_c, 0, 76, 64
1, 15803, Note_on_c, 0, 77, 38
1, 15803, Note_on_c, 0, 83, 32
1, 15804, Note_off_c, 0, 68, 64
1, 15804, Note_off_c, 0, 79, 64
1, 15805, Note_off_c, 0, 29, 64
1, 15805, Note_on_c, 0, 30, 76
1, 15806, Note_off_c, 0, 49, 64
1, 15806, Note_on_c, 0, 68, 33
1, 15806, Note_off_c, 0, 81, 64
1, 15807, Note_on_c, 0, 29, 73
1, 15807, Note_off_c, 0, 30, 64
1, 15807, Note_off_c, 0, 61, 64
1, 15808, Note_off_c, 0, 75, 64
1, 15808, Note_on_c, 0, 76, 39
1, 15808, Note_on_c, 0, 85, 23
1, 15808, Note_on_c, 0, 86, 17
1, 15809, Note_off_c, 0, 29, 64
1, 15809, Note_on_c, 0, 30, 65
1, 15809, Note_on_c, 0, 71, 31
1, 15809, Note_on_c, 0, 81, 39
1, 15809, Note_on_c, 0, 91, 12
1, 15810, Note_off_c, 0, 30, 64
1, 15810, Note_on_c, 0, 73, 35
1, 15810, Note_on_c, 0, 75, 50
1, 15810, Note_off_c, 0, 76, 64
1, 15811, Note_on_c, 0, 36, 72
1, 15811, Note_on_c, 0, 61, 28
1, 15811, Note_on_c, 0, 84, 23
1, 15811, Note_off_c, 0, 86, 64
1, 15812, Note_on_c, 0, 30, 80
1, 15812, Note_off_c, 0, 36, 64
1, 15812, Note_off_c, 0, 73, 64
1, 15812, Note_off_c, 0, 77, 64
1, 15812, Note_off_c, 0, 83, 64
1, 15812, Note_off_c, 0, 85, 64
1, 15812, Note_on_c, 0, 86, 11
1, 15813, Note_on_c, 0, 29, 82
1, 15813, Note_off_c, 0, 30, 64
1, 15813, Note_off_c, 0, 68, 64
1, 15813, Note_off_c, 0, 71, 64
1, 15813, Note_off_c, 0, 81, 64
1, 15814, Note_on_c, 0, 81, 46
1, 15814, Note_off_c, 0, 91, 64
1, 15815, Note_off_c, 0, 29, 64
1, 15815, Note_on_c, 0, 30, 76
1, 15815, Note_on_c, 0, 48, 56
1, 15815, Note_on_c, 0, 54, 48
1, 15815, Note_off_c, 0, 84, 64
1, 15815, Note_off_c, 0, 86, 64
1, 15816, Note_off_c, 0, 30, 64
1, 15816, Note_on_c, 0, 34, 68
1, 15817, Note_off_c, 0, 48, 64
1, 15817, Note_on_c, 0, 49, 37
1, 15817, Note_off_c, 0, 61, 64
1, 15817, Note_on_c, 0, 73, 47
1, 15817, Note_on_c, 0, 84, 41
1, 15817, Note_on_c, 0, 86, 35
1, 15817, Note_on_c, 0, 88, 28
1, 15817, Note_on_c, 0, 89, 26
1, 15817, Note_on_c, 0, 90, 26
1, 15817, Note_on_c, 0, 92, 26
1, 15817, Note_on_c, 0, 94, 26
1, 15817, Note_on_c, 0, 95, 25
1, 15818, Note_off_c, 0, 34, 64
1, 15818, Note_off_c, 0, 54, 64
1, 15818, Note_on_c, 0, 79, 34
1, 15818, Note_on_c, 0, 83, 49
1, 15819, Note_off_c, 0, 49, 64
1, 15819, Note_on_c, 0, 54, 68
1, 15819, Note_on_c, 0, 69, 39
1, 15819, Note_on_c, 0, 71, 35
1, 15819, Note_on_c, 0, 76, 27
1, 15820, Note_on_c, 0, 48, 83
1, 15820, Note_off_c, 0, 54, 64
1, 15820, Note_off_c, 0, 79, 64
1, 15820, Note_off_c, 0, 86, 64
1, 15820, Note_off_c, 0, 90, 64
1, 15820, Note_off_c, 0, 92, 64
1, 15820, Note_off_c, 0, 94, 64
1, 15820, Note_off_c, 0, 95, 64
1, 15821, Note_on_c, 0, 45, 93
1, 15821, Note_off_c, 0, 48, 64
1, 15821, Note_on_c, 0, 68, 18
1, 15821, Note_off_c, 0, 69, 64
1, 15821, Note_off_c, 0, 71, 64
1, 15821, Note_on_c, 0, 82, 49
1, 15821, Note_off_c, 0, 83, 64
1, 15821, Note_off_c, 0, 89, 64
1, 15822, Note_on_c, 0, 42, 98
1, 15822, Note_off_c, 0, 45, 64
1, 15822, Note_off_c, 0, 76, 64
1, 15822, Note_on_c, 0, 77, 29
1, 15823, Note_on_c, 0, 40, 98
1, 15823, Note_off_c, 0, 42, 64
1, 15824, Note_on_c, 0, 38, 97
1, 15824, Note_off_c, 0, 40, 64
1, 15824, Note_off_c, 0, 75, 64
1, 15824, Note_on_c, 0, 76, 33
1, 15824, Note_off_c, 0, 77, 64
1, 15824, Note_on_c, 0, 80, 38
1, 15824, Note_off_c, 0, 84, 64
1, 15825, Note_on_c, 0, 37, 98
1, 15825, Note_off_c, 0, 38, 64
1, 15825, Note_off_c, 0, 68, 64
1, 15825, Note_on_c, 0, 77, 18
1, 15825, Note_off_c, 0, 82, 64
1, 15825, Note_off_c, 0, 88, 64
1, 15826, Note_on_c, 0, 35, 97
1, 15826, Note_off_c, 0, 37, 64
1, 15826, Note_on_c, 0, 83, 30
1, 15827, Note_on_c, 0, 34, 96
1, 15827, Note_off_c, 0, 35, 64
1, 15827, Note_off_c, 0, 81, 64
1, 15828, Note_off_c, 0, 73, 64
1, 15828, Note_on_c, 0, 74, 32
1, 15828, Note_on_c, 0, 81, 32
1, 15829, Note_on_c, 0, 33, 95
1, 15829, Note_off_c, 0, 34, 64
1, 15829, Note_off_c, 0, 77, 64
1, 15830, Note_on_c, 0, 32, 95
1, 15830, Note_off_c, 0, 33, 64
1, 15830, Note_on_c, 0, 77, 32
1, 15830, Note_on_c, 0, 84, 20
1, 15831, Note_on_c, 0, 94, 9
1, 15832, Note_on_c, 0, 31, 93
1, 15832, Note_off_c, 0, 32, 64
1, 15832, Note_on_c, 0, 68, 24
1, 15832, Note_off_c, 0, 74, 64
1, 15832, Note_off_c, 0, 77, 64
1, 15833, Note_on_c, 0, 74, 32
1, 15833, Note_on_c, 0, 77, 32
1, 15833, Note_off_c, 0, 84, 64
1, 15833, Note_on_c, 0, 88, 41
1, 15834, Note_on_c, 0, 30, 80
1, 15834, Note_off_c, 0, 31, 64
1, 15834, Note_off_c, 0, 80, 64
1, 15834, Note_off_c, 0, 94, 64
1, 15835, Note_off_c, 0, 77, 64
1, 15835, Note_on_c, 0, 85, 38
1, 15835, Note_on_c, 0, 90, 23
1, 15835, Note_on_c, 0, 91, 12
1, 15835, Note_on_c, 0, 92, 14
1, 15836, Note_off_c, 0, 30, 64
1, 15836, Note_on_c, 0, 77, 38
1, 15836, Note_on_c, 0, 84, 30
1, 15837, Note_off_c, 0, 68, 64
1, 15837, Note_off_c, 0, 76, 64
1, 15838, Note_on_c, 0, 80, 44
1, 15838, Note_on_c, 0, 87, 27
1, 15839, Note_on_c, 0, 73, 43
1, 15839, Note_off_c, 0, 74, 64
1, 15839, Note_off_c, 0, 84, 64
1, 15839, Note_off_c, 0, 85, 64
1, 15839, Note_off_c, 0, 91, 64
1, 15840, Note_on_c, 0, 70, 23
1, 15840, Note_on_c, 0, 75, 39
1, 15840, Note_off_c, 0, 77, 64
1, 15840, Note_on_c, 0, 78, 31
1, 15840, Note_on_c, 0, 82, 52
1, 15840, Note_off_c, 0, 83, 64
1, 15840, Note_off_c, 0, 88, 64
1, 15840, Note_off_c, 0, 90, 64
1, 15840, Note_off_c, 0, 92, 64
1, 15841, Note_on_c, 0, 68, 32
1, 15841, Note_off_c, 0, 81, 64
1, 15842, Note_on_c, 0, 77, 29
1, 15842, Note_off_c, 0, 78, 64
1, 15843, Note_off_c, 0, 70, 64
1, 15843, Note_on_c, 0, 84, 34
1, 15844, Note_off_c, 0, 75, 64
1, 15844, Note_on_c, 0, 81, 35
1, 15845, Note_on_c, 0, 78, 30
1, 15845, Note_on_c, 0, 88, 42
1, 15846, Note_off_c, 0, 77, 64
1, 15846, Note_off_c, 0, 81, 64
1, 15846, Note_on_c, 0, 86, 32
1, 15846, Note_off_c, 0, 87, 64
1, 15847, Note_off_c, 0, 68, 64
1, 15847, Note_on_c, 0, 83, 15
1, 15848, Note_on_c, 0, 68, 31
1, 15848, Note_on_c, 0, 76, 42
1, 15848, Note_off_c, 0, 80, 64
1, 15848, Note_on_c, 0, 81, 17
1, 15848, Note_off_c, 0, 82, 64
1, 15849, Note_off_c, 0, 84, 64
1, 15849, Note_off_c, 0, 86, 64
1, 15849, Note_on_c, 0, 87, 27
1, 15849, Note_off_c, 0, 88, 64
1, 15850, Note_off_c, 0, 73, 64
1, 15851, Note_off_c, 0, 78, 64
1, 15851, Note_on_c, 0, 82, 37
1, 15851, Note_off_c, 0, 83, 64
1, 15852, Note_off_c, 0, 76, 64
1, 15852, Note_on_c, 0, 77, 44
1, 15853, Note_off_c, 0, 81, 64
1, 15853, Note_on_c, 0, 86, 39
1, 15854, Note_off_c, 0, 68, 64
1, 15854, Note_on_c, 0, 69, 37
1, 15854, Note_on_c, 0, 72, 45
1, 15854, Note_on_c, 0, 76, 36
1, 15854, Note_off_c, 0, 77, 64
1, 15854, Note_on_c, 0, 81, 53
1, 15854, Note_on_c, 0, 83, 37
1, 15854, Note_off_c, 0, 87, 64
1, 15854, Note_on_c, 0, 91, 29
1, 15854, Note_on_c, 0, 92, 31
1, 15854, Note_on_c, 0, 96, 21
1, 15855, Note_on_c, 0, 77, 42
1, 15855, Note_on_c, 0, 87, 44
1, 15855, Note_on_c, 0, 89, 46
1, 15855, Note_on_c, 0, 90, 38
1, 15855, Note_on_c, 0, 97, 21
1, 15856, Note_off_c, 0, 69, 64
1, 15856, Note_on_c, 0, 74, 40
1, 15856, Note_off_c, 0, 76, 64
1, 15856, Note_on_c, 0, 79, 47
1, 15856, Note_off_c, 0, 91, 64
1, 15857, Note_on_c, 0, 51, 77
1, 15857, Note_on_c, 0, 71, 24
1, 15857, Note_on_c, 0, 88, 31
1, 15858, Note_on_c, 0, 46, 88
1, 15858, Note_off_c, 0, 51, 64
1, 15858, Note_off_c, 0, 72, 64
1, 15858, Note_off_c, 0, 77, 64
1, 15858, Note_off_c, 0, 79, 64
1, 15858, Note_on_c, 0, 80, 39
1, 15858, Note_off_c, 0, 82, 64
1, 15858, Note_off_c, 0, 89, 64
1, 15858, Note_off_c, 0, 96, 64
1, 15858, Note_off_c, 0, 97, 64
1, 15859, Note_on_c, 0, 43, 94
1, 15859, Note_off_c, 0, 46, 64
1, 15859, Note_on_c, 0, 73, 16
1, 15859, Note_off_c, 0, 74, 64
1, 15859, Note_on_c, 0, 76, 17
1, 15859, Note_off_c, 0, 88, 64
1, 15859, Note_off_c, 0, 90, 64
1, 15859, Note_off_c, 0, 92, 64
1, 15860, Note_on_c, 0, 41, 100
1, 15860, Note_off_c, 0, 43, 64
1, 15860, Note_off_c, 0, 71, 64
1, 15860, Note_off_c, 0, 81, 64
1, 15860, Note_off_c, 0, 83, 64
1, 15860, Note_off_c, 0, 87, 64
1, 15861, Note_on_c, 0, 39, 97
1, 15861, Note_off_c, 0, 41, 64
1, 15861, Note_on_c, 0, 74, 24
1, 15861, Note_on_c, 0, 77, 28
1, 15861, Note_off_c, 0, 86, 64
1, 15861, Note_on_c, 0, 88, 32
1, 15862, Note_on_c, 0, 37, 98
1, 15862, Note_off_c, 0, 39, 64
1, 15862, Note_off_c, 0, 73, 64
1, 15862, Note_on_c, 0, 83, 17
1, 15862, Note_on_c, 0, 85, 25
1, 15863, Note_on_c, 0, 36, 97
1, 15863, Note_off_c, 0, 37, 64
1, 15863, Note_off_c, 0, 76, 64
1, 15864, Note_on_c, 0, 35, 96
1, 15864, Note_off_c, 0, 36, 64
1, 15864, Note_off_c, 0, 77, 64
1, 15864, Note_on_c, 0, 79, 39
1, 15864, Note_off_c, 0, 80, 64
1, 15864, Note_on_c, 0, 84, 19
1, 15865, Note_on_c, 0, 34, 95
1, 15865, Note_off_c, 0, 35, 64
1, 15865, Note_on_c, 0, 73, 41
1, 15865, Note_off_c, 0, 74, 64
1, 15865, Note_on_c, 0, 82, 35
1, 15865, Note_off_c, 0, 83, 64
1, 15865, Note_off_c, 0, 85, 64
1, 15865, Note_on_c, 0, 86, 29
1, 15866, Note_on_c, 0, 33, 95
1, 15866, Note_off_c, 0, 34, 64
1, 15866, Note_on_c, 0, 70, 29
1, 15866, Note_on_c, 0, 76, 43
1, 15866, Note_on_c, 0, 80, 16
1, 15867, Note_on_c, 0, 32, 96
1, 15867, Note_off_c, 0, 33, 64
1, 15867, Note_on_c, 0, 78, 45
1, 15867, Note_off_c, 0, 79, 64
1, 15867, Note_on_c, 0, 83, 26
1, 15868, Note_on_c, 0, 68, 21
1, 15868, Note_on_c, 0, 75, 44
1, 15868, Note_off_c, 0, 84, 64
1, 15868, Note_off_c, 0, 88, 64
1, 15869, Note_on_c, 0, 31, 96
1, 15869, Note_off_c, 0, 32, 64
1, 15869, Note_off_c, 0, 73, 64
1, 15869, Note_off_c, 0, 76, 64
1, 15869, Note_on_c, 0, 79, 41
1, 15869, Note_off_c, 0, 86, 64
1, 15869, Note_on_c, 0, 88, 12
1, 15870, Note_off_c, 0, 70, 64
1, 15870, Note_on_c, 0, 71, 43
1, 15870, Note_off_c, 0, 78, 64
1, 15870, Note_off_c, 0, 80, 64
1, 15871, Note_on_c, 0, 30, 87
1, 15871, Note_off_c, 0, 31, 64
1, 15871, Note_on_c, 0, 74, 48
1, 15871, Note_off_c, 0, 75, 64
1, 15871, Note_on_c, 0, 77, 50
1, 15871, Note_on_c, 0, 80, 35
1, 15871, Note_on_c, 0, 85, 25
1, 15872, Note_off_c, 0, 68, 64
1, 15872, Note_off_c, 0, 79, 64
1, 15872, Note_off_c, 0, 82, 64
1, 15873, Note_off_c, 0, 30, 64
1, 15873, Note_on_c, 0, 70, 36
1, 15873, Note_off_c, 0, 71, 64
1, 15873, Note_on_c, 0, 72, 43
1, 15873, Note_off_c, 0, 74, 64
1, 15873, Note_on_c, 0, 75, 39
1, 15873, Note_off_c, 0, 77, 64
1, 15873, Note_on_c, 0, 78, 35
1, 15873, Note_off_c, 0, 80, 64
1, 15873, Note_on_c, 0, 81, 36
1, 15874, Note_on_c, 0, 66, 23
1, 15874, Note_on_c, 0, 77, 39
1, 15875, Note_on_c, 0, 37, 69
1, 15875, Note_on_c, 0, 61, 27
1, 15875, Note_off_c, 0, 75, 64
1, 15875, Note_on_c, 0, 76, 41
1, 15875, Note_off_c, 0, 78, 64
1, 15875, Note_on_c, 0, 80, 43
1, 15875, Note_off_c, 0, 88, 64
1, 15876, Note_on_c, 0, 31, 75
1, 15876, Note_off_c, 0, 37, 64
1, 15876, Note_on_c, 0, 63, 25
1, 15876, Note_off_c, 0, 83, 64
1, 15876, Note_off_c, 0, 85, 64
1, 15877, Note_on_c, 0, 30, 80
1, 15877, Note_off_c, 0, 31, 64
1, 15878, Note_on_c, 0, 29, 79
1, 15878, Note_off_c, 0, 30, 64
1, 15878, Note_on_c, 0, 49, 55
1, 15878, Note_off_c, 0, 72, 64
1, 15878, Note_on_c, 0, 73, 40
1, 15878, Note_off_c, 0, 81, 64
1, 15879, Note_off_c, 0, 29, 64
1, 15879, Note_on_c, 0, 30, 77
1, 15879, Note_off_c, 0, 66, 64
1, 15879, Note_off_c, 0, 76, 64
1, 15879, Note_on_c, 0, 79, 28
1, 15879, Note_on_c, 0, 81, 46
1, 15880, Note_off_c, 0, 61, 64
1, 15880, Note_off_c, 0, 80, 64
1, 15880, Note_on_c, 0, 83, 37
1, 15881, Note_on_c, 0, 29, 75
1, 15881, Note_off_c, 0, 30, 64
1, 15881, Note_on_c, 0, 48, 52
1, 15881, Note_off_c, 0, 49, 64
1, 15881, Note_off_c, 0, 63, 64
1, 15881, Note_on_c, 0, 76, 28
1, 15881, Note_on_c, 0, 84, 17
1, 15882, Note_off_c, 0, 79, 64
1, 15883, Note_off_c, 0, 29, 64
1, 15883, Note_on_c, 0, 30, 71
1, 15883, Note_off_c, 0, 48, 64
1, 15883, Note_on_c, 0, 75, 53
1, 15884, Note_off_c, 0, 70, 64
1, 15884, Note_off_c, 0, 73, 64
1, 15884, Note_off_c, 0, 76, 64
1, 15884, Note_on_c, 0, 90, 16
1, 15885, Note_off_c, 0, 30, 64
1, 15885, Note_on_c, 0, 73, 39
1, 15885, Note_off_c, 0, 77, 64
1, 15885, Note_on_c, 0, 78, 35
1, 15885, Note_on_c, 0, 80, 35
1, 15885, Note_on_c, 0, 82, 34
1, 15885, Note_on_c, 0, 86, 33
1, 15886, Note_on_c, 0, 36, 72
1, 15886, Note_on_c, 0, 61, 24
1, 15886, Note_on_c, 0, 68, 30
1, 15886, Note_on_c, 0, 77, 31
1, 15886, Note_off_c, 0, 83, 64
1, 15887, Note_on_c, 0, 30, 80
1, 15887, Note_off_c, 0, 36, 64
1, 15887, Note_off_c, 0, 80, 64
1, 15887, Note_on_c, 0, 88, 36
1, 15888, Note_on_c, 0, 29, 81
1, 15888, Note_off_c, 0, 30, 64
1, 15888, Note_off_c, 0, 78, 64
1, 15888, Note_off_c, 0, 82, 64
1, 15888, Note_on_c, 0, 83, 26
1, 15888, Note_off_c, 0, 90, 64
1, 15889, Note_off_c, 0, 61, 64
1, 15889, Note_on_c, 0, 76, 49
1, 15889, Note_off_c, 0, 77, 64
1, 15890, Note_off_c, 0, 29, 64
1, 15890, Note_on_c, 0, 30, 74
1, 15890, Note_on_c, 0, 48, 57
1, 15890, Note_off_c, 0, 68, 64
1, 15890, Note_on_c, 0, 70, 36
1, 15890, Note_off_c, 0, 73, 64
1, 15890, Note_on_c, 0, 74, 52
1, 15890, Note_off_c, 0, 75, 64
1, 15890, Note_off_c, 0, 84, 64
1, 15891, Note_off_c, 0, 30, 64
1, 15891, Note_on_c, 0, 34, 66
1, 15891, Note_off_c, 0, 81, 64
1, 15891, Note_off_c, 0, 83, 64
1, 15892, Note_on_c, 0, 65, 46
1, 15892, Note_off_c, 0, 70, 64
1, 15892, Note_on_c, 0, 71, 41
1, 15892, Note_off_c, 0, 76, 64
1, 15892, Note_on_c, 0, 79, 38
1, 15892, Note_on_c, 0, 81, 33
1, 15892, Note_on_c, 0, 90, 31
1, 15892, Note_on_c, 0, 92, 27
1, 15892, Note_on_c, 0, 94, 21
1, 15892, Note_on_c, 0, 96, 18
1, 15893, Note_off_c, 0, 34, 64
1, 15893, Note_off_c, 0, 48, 64
1, 15894, Note_on_c, 0, 53, 71
1, 15894, Note_off_c, 0, 65, 64
1, 15894, Note_on_c, 0, 66, 44
1, 15894, Note_on_c, 0, 69, 41
1, 15894, Note_off_c, 0, 71, 64
1, 15894, Note_on_c, 0, 72, 38
1, 15894, Note_off_c, 0, 74, 64
1, 15894, Note_on_c, 0, 75, 33
1, 15894, Note_off_c, 0, 86, 64
1, 15895, Note_on_c, 0, 48, 83
1, 15895, Note_off_c, 0, 53, 64
1, 15895, Note_off_c, 0, 92, 64
1, 15895, Note_off_c, 0, 94, 64
1, 15895, Note_off_c, 0, 96, 64
1, 15896, Note_on_c, 0, 45, 94
1, 15896, Note_off_c, 0, 48, 64
1, 15896, Note_off_c, 0, 66, 64
1, 15896, Note_off_c, 0, 69, 64
1, 15896, Note_on_c, 0, 77, 29
1, 15896, Note_off_c, 0, 79, 64
1, 15896, Note_off_c, 0, 88, 64
1, 15896, Note_off_c, 0, 90, 64
1, 15897, Note_on_c, 0, 42, 99
1, 15897, Note_off_c, 0, 45, 64
1, 15897, Note_on_c, 0, 80, 22
1, 15898, Note_on_c, 0, 40, 99
1, 15898, Note_off_c, 0, 42, 64
1, 15898, Note_off_c, 0, 72, 64
1, 15898, Note_on_c, 0, 79, 26
1, 15898, Note_off_c, 0, 81, 64
1, 15899, Note_on_c, 0, 38, 98
1, 15899, Note_off_c, 0, 40, 64
1, 15899, Note_off_c, 0, 75, 64
1, 15899, Note_off_c, 0, 77, 64
1, 15900, Note_on_c, 0, 37, 98
1, 15900, Note_off_c, 0, 38, 64
1, 15900, Note_on_c, 0, 74, 47
1, 15901, Note_on_c, 0, 35, 97
1, 15901, Note_off_c, 0, 37, 64
1, 15901, Note_on_c, 0, 75, 23
1, 15901, Note_off_c, 0, 79, 64
1, 15901, Note_on_c, 0, 83, 17
1, 15902, Note_on_c, 0, 34, 96
1, 15902, Note_off_c, 0, 35, 64
1, 15903, Note_on_c, 0, 33, 95
1, 15903, Note_off_c, 0, 34, 64
1, 15903, Note_off_c, 0, 80, 64
1, 15904, Note_on_c, 0, 78, 17
1, 15905, Note_on_c, 0, 32, 96
1, 15905, Note_off_c, 0, 33, 64
1, 15905, Note_on_c, 0, 49, 23
1, 15905, Note_off_c, 0, 75, 64
1, 15905, Note_on_c, 0, 77, 12
1, 15906, Note_on_c, 0, 31, 97
1, 15906, Note_off_c, 0, 32, 64
1, 15906, Note_off_c, 0, 74, 64
1, 15906, Note_on_c, 0, 75, 13
1, 15906, Note_off_c, 0, 83, 64
1, 15907, Note_on_c, 0, 81, 23
1, 15908, Note_on_c, 0, 30, 91
1, 15908, Note_off_c, 0, 31, 64
1, 15908, Note_off_c, 0, 49, 64
1, 15908, Note_on_c, 0, 72, 11
1, 15908, Note_off_c, 0, 77, 64
1, 15909, Note_off_c, 0, 75, 64
1, 15911, Note_off_c, 0, 30, 64
1, 15911, Note_on_c, 0, 68, 24
1, 15911, Note_off_c, 0, 72, 64
1, 15911, Note_on_c, 0, 76, 25
1, 15912, Note_on_c, 0, 73, 16
1, 15912, Note_off_c, 0, 78, 64
1, 15912, Note_on_c, 0, 83, 10
1, 15913, Note_on_c, 0, 31, 71
1, 15913, Note_on_c, 0, 54, 49
1, 15913, Note_on_c, 0, 61, 30
1, 15914, Note_on_c, 0, 30, 79
1, 15914, Note_off_c, 0, 31, 64
1, 15914, Note_on_c, 0, 75, 14
1, 15914, Note_off_c, 0, 76, 64
1, 15915, Note_on_c, 0, 29, 80
1, 15915, Note_off_c, 0, 30, 64
1, 15915, Note_on_c, 0, 63, 27
1, 15915, Note_off_c, 0, 83, 64
1, 15916, Note_off_c, 0, 54, 64
1, 15916, Note_off_c, 0, 61, 64
1, 15917, Note_off_c, 0, 29, 64
1, 15917, Note_on_c, 0, 30, 76
1, 15917, Note_off_c, 0, 68, 64
1, 15917, Note_on_c, 0, 69, 16
1, 15918, Note_off_c, 0, 63, 64
1, 15918, Note_on_c, 0, 74, 19
1, 15918, Note_off_c, 0, 75, 64
1, 15919, Note_on_c, 0, 29, 74
1, 15919, Note_off_c, 0, 30, 64
1, 15919, Note_off_c, 0, 73, 64
1, 15919, Note_on_c, 0, 80, 20
1, 15919, Note_on_c, 0, 83, 19
1, 15919, Note_on_c, 0, 88, 15
1, 15920, Note_off_c, 0, 69, 64
1, 15920, Note_on_c, 0, 72, 22
1, 15920, Note_on_c, 0, 85, 12
1, 15921, Note_off_c, 0, 29, 64
1, 15921, Note_on_c, 0, 30, 67
1, 15922, Note_on_c, 0, 68, 27
1, 15922, Note_on_c, 0, 82, 13
1, 15922, Note_off_c, 0, 83, 64
1, 15923, Note_off_c, 0, 30, 64
1, 15923, Note_on_c, 0, 41, 71
1, 15923, Note_on_c, 0, 61, 29
1, 15923, Note_off_c, 0, 72, 64
1, 15923, Note_off_c, 0, 74, 64
1, 15923, Note_off_c, 0, 85, 64
1, 15923, Note_on_c, 0, 87, 12
1, 15924, Note_on_c, 0, 30, 82
1, 15924, Note_off_c, 0, 41, 64
1, 15924, Note_on_c, 0, 64, 29
1, 15924, Note_off_c, 0, 81, 64
1, 15925, Note_off_c, 0, 68, 64
1, 15925, Note_on_c, 0, 72, 29
1, 15925, Note_off_c, 0, 80, 64
1, 15925, Note_off_c, 0, 82, 64
1, 15925, Note_off_c, 0, 88, 64
1, 15926, Note_on_c, 0, 29, 81
1, 15926, Note_off_c, 0, 30, 64
1, 15926, Note_on_c, 0, 49, 59
1, 15926, Note_off_c, 0, 64, 64
1, 15926, Note_on_c, 0, 81, 12
1, 15926, Note_off_c, 0, 87, 64
1, 15927, Note_off_c, 0, 29, 64
1, 15927, Note_on_c, 0, 30, 77
1, 15927, Note_on_c, 0, 77, 37
1, 15927, Note_on_c, 0, 80, 23
1, 15928, Note_off_c, 0, 30, 64
1, 15928, Note_on_c, 0, 34, 71
1, 15928, Note_off_c, 0, 49, 64
1, 15928, Note_on_c, 0, 54, 38
1, 15928, Note_off_c, 0, 61, 64
1, 15928, Note_off_c, 0, 72, 64
1, 15929, Note_off_c, 0, 34, 64
1, 15929, Note_on_c, 0, 60, 30
1, 15929, Note_on_c, 0, 71, 39
1, 15929, Note_on_c, 0, 74, 41
1, 15929, Note_off_c, 0, 81, 64
1, 15930, Note_off_c, 0, 54, 64
1, 15930, Note_on_c, 0, 69, 43
1, 15930, Note_on_c, 0, 78, 37
1, 15930, Note_off_c, 0, 80, 64
1, 15930, Note_on_c, 0, 84, 31
1, 15931, Note_off_c, 0, 60, 64
1, 15931, Note_on_c, 0, 70, 44
1, 15931, Note_off_c, 0, 71, 64
1, 15931, Note_on_c, 0, 73, 40
1, 15931, Note_off_c, 0, 74, 64
1, 15931, Note_on_c, 0, 75, 32
1, 15932, Note_on_c, 0, 50, 78
1, 15932, Note_off_c, 0, 78, 64
1, 15932, Note_off_c, 0, 84, 64
1, 15933, Note_on_c, 0, 46, 90
1, 15933, Note_off_c, 0, 50, 64
1, 15933, Note_off_c, 0, 69, 64
1, 15933, Note_off_c, 0, 70, 64
1, 15933, Note_off_c, 0, 73, 64
1, 15933, Note_off_c, 0, 75, 64
1, 15934, Note_on_c, 0, 42, 96
1, 15934, Note_off_c, 0, 46, 64
1, 15934, Note_on_c, 0, 73, 14
1, 15935, Note_on_c, 0, 41, 100
1, 15935, Note_off_c, 0, 42, 64
1, 15935, Note_off_c, 0, 77, 64
1, 15936, Note_on_c, 0, 39, 97
1, 15936, Note_off_c, 0, 41, 64
1, 15937, Note_on_c, 0, 37, 98
1, 15937, Note_off_c, 0, 39, 64
1, 15938, Note_on_c, 0, 36, 97
1, 15938, Note_off_c, 0, 37, 64
1, 15938, Note_off_c, 0, 73, 64
1, 15939, Note_on_c, 0, 35, 96
1, 15939, Note_off_c, 0, 36, 64
1, 15940, Note_on_c, 0, 34, 96
1, 15940, Note_off_c, 0, 35, 64
1, 15940, Note_on_c, 0, 81, 25
1, 15941, Note_on_c, 0, 33, 95
1, 15941, Note_off_c, 0, 34, 64
1, 15941, Note_on_c, 0, 75, 22
1, 15942, Note_on_c, 0, 32, 96
1, 15942, Note_off_c, 0, 33, 64
1, 15944, Note_on_c, 0, 31, 96
1, 15944, Note_off_c, 0, 32, 64
1, 15946, Note_on_c, 0, 30, 87
1, 15946, Note_off_c, 0, 31, 64
1, 15946, Note_off_c, 0, 75, 64
1, 15948, Note_off_c, 0, 30, 64
1, 15948, Note_on_c, 0, 76, 20
1, 15949, Note_on_c, 0, 74, 22
1, 15949, Note_off_c, 0, 81, 64
1, 15950, Note_on_c, 0, 37, 70
1, 15950, Note_on_c, 0, 61, 28
1, 15950, Note_on_c, 0, 64, 25
1, 15950, Note_on_c, 0, 68, 27
1, 15951, Note_on_c, 0, 31, 76
1, 15951, Note_off_c, 0, 37, 64
1, 15951, Note_on_c, 0, 49, 60
1, 15951, Note_off_c, 0, 76, 64
1, 15952, Note_on_c, 0, 30, 79
1, 15952, Note_off_c, 0, 31, 64
1, 15952, Note_on_c, 0, 70, 25
1, 15952, Note_off_c, 0, 74, 64
1, 15952, Note_on_c, 0, 78, 13
1, 15953, Note_on_c, 0, 29, 79
1, 15953, Note_off_c, 0, 30, 64
1, 15953, Note_off_c, 0, 64, 64
1, 15954, Note_off_c, 0, 29, 64
1, 15954, Note_on_c, 0, 30, 77
1, 15954, Note_off_c, 0, 49, 64
1, 15954, Note_on_c, 0, 76, 16
1, 15955, Note_off_c, 0, 61, 64
1, 15955, Note_off_c, 0, 70, 64
1, 15956, Note_on_c, 0, 29, 75
1, 15956, Note_off_c, 0, 30, 64
1, 15956, Note_off_c, 0, 78, 64
1, 15957, Note_off_c, 0, 76, 64
1, 15958, Note_off_c, 0, 68, 64
1, 15959, Note_off_c, 0, 29, 64
1, 15959, Note_on_c, 0, 70, 27
1, 15959, Note_on_c, 0, 76, 17
1, 15960, Note_on_c, 0, 43, 65
1, 15960, Note_on_c, 0, 68, 22
1, 15960, Note_on_c, 0, 79, 16
1, 15961, Note_on_c, 0, 36, 72
1, 15961, Note_off_c, 0, 43, 64
1, 15962, Note_on_c, 0, 30, 82
1, 15962, Note_off_c, 0, 36, 64
1, 15963, Note_on_c, 0, 29, 82
1, 15963, Note_off_c, 0, 30, 64
1, 15963, Note_on_c, 0, 63, 27
1, 15963, Note_off_c, 0, 76, 64
1, 15964, Note_off_c, 0, 68, 64
1, 15964, Note_off_c, 0, 70, 64
1, 15964, Note_on_c, 0, 71, 16
1, 15965, Note_off_c, 0, 29, 64
1, 15965, Note_on_c, 0, 33, 75
1, 15965, Note_on_c, 0, 54, 44
1, 15965, Note_on_c, 0, 76, 38
1, 15965, Note_off_c, 0, 79, 64
1, 15966, Note_off_c, 0, 33, 64
1, 15966, Note_on_c, 0, 34, 66
1, 15966, Note_on_c, 0, 49, 39
1, 15967, Note_off_c, 0, 54, 64
1, 15967, Note_off_c, 0, 63, 64
1, 15967, Note_on_c, 0, 70, 43
1, 15967, Note_off_c, 0, 71, 64
1, 15967, Note_on_c, 0, 72, 40
1, 15967, Note_on_c, 0, 74, 39
1, 15967, Note_on_c, 0, 78, 35
1, 15967, Note_on_c, 0, 81, 34
1, 15967, Note_on_c, 0, 85, 33
1, 15967, Note_on_c, 0, 87, 26
1, 15967, Note_on_c, 0, 89, 29
1, 15967, Note_on_c, 0, 91, 25
1, 15967, Note_on_c, 0, 92, 25
1, 15968, Note_off_c, 0, 34, 64
1, 15968, Note_on_c, 0, 83, 31
1, 15969, Note_off_c, 0, 49, 64
1, 15969, Note_on_c, 0, 53, 72
1, 15969, Note_on_c, 0, 64, 48
1, 15969, Note_off_c, 0, 70, 64
1, 15969, Note_off_c, 0, 72, 64
1, 15969, Note_off_c, 0, 78, 64
1, 15970, Note_on_c, 0, 48, 85
1, 15970, Note_off_c, 0, 53, 64
1, 15970, Note_off_c, 0, 74, 64
1, 15970, Note_off_c, 0, 76, 64
1, 15970, Note_off_c, 0, 83, 64
1, 15970, Note_off_c, 0, 85, 64
1, 15970, Note_off_c, 0, 87, 64
1, 15970, Note_off_c, 0, 89, 64
1, 15970, Note_off_c, 0, 91, 64
1, 15970, Note_off_c, 0, 92, 64
1, 15971, Note_on_c, 0, 45, 95
1, 15971, Note_off_c, 0, 48, 64
1, 15971, Note_off_c, 0, 64, 64
1, 15972, Note_on_c, 0, 42, 100
1, 15972, Note_off_c, 0, 45, 64
1, 15973, Note_on_c, 0, 40, 98
1, 15973, Note_off_c, 0, 42, 64
1, 15974, Note_on_c, 0, 38, 98
1, 15974, Note_off_c, 0, 40, 64
1, 15974, Note_off_c, 0, 81, 64
1, 15975, Note_on_c, 0, 36, 98
1, 15975, Note_off_c, 0, 38, 64
1, 15976, Note_on_c, 0, 35, 97
1, 15976, Note_off_c, 0, 36, 64
1, 15977, Note_on_c, 0, 34, 96
1, 15977, Note_off_c, 0, 35, 64
1, 15978, Note_on_c, 0, 33, 96
1, 15978, Note_off_c, 0, 34, 64
1, 15980, Note_on_c, 0, 32, 96
1, 15980, Note_off_c, 0, 33, 64
1, 15981, Note_on_c, 0, 31, 96
1, 15981, Note_off_c, 0, 32, 64
1, 15983, Note_on_c, 0, 30, 88
1, 15983, Note_off_c, 0, 31, 64
1, 15986, Note_off_c, 0, 30, 64
1, 15987, Note_on_c, 0, 60, 42
1, 15988, Note_on_c, 0, 71, 12
1, 15989, Note_off_c, 0, 60, 64
1, 15991, Note_on_c, 0, 63, 13
1, 15991, Note_off_c, 0, 71, 64
1, 15994, Note_off_c, 0, 63, 64
1, 16004, Note_on_c, 0, 78, 38
1, 16004, Note_on_c, 0, 80, 35
1, 16004, Note_on_c, 0, 81, 34
1, 16004, Note_on_c, 0, 84, 34
1, 16004, Note_on_c, 0, 85, 33
1, 16004, Note_on_c, 0, 88, 30
1, 16005, Note_on_c, 0, 70, 43
1, 16005, Note_on_c, 0, 74, 38
1, 16005, Note_on_c, 0, 77, 38
1, 16006, Note_on_c, 0, 62, 51
1, 16006, Note_off_c, 0, 78, 64
1, 16006, Note_off_c, 0, 84, 64
1, 16007, Note_on_c, 0, 50, 80
1, 16007, Note_off_c, 0, 70, 64
1, 16007, Note_off_c, 0, 80, 64
1, 16007, Note_off_c, 0, 81, 64
1, 16007, Note_off_c, 0, 85, 64
1, 16007, Note_off_c, 0, 88, 64
1, 16008, Note_on_c, 0, 45, 91
1, 16008, Note_off_c, 0, 50, 64
1, 16008, Note_off_c, 0, 62, 64
1, 16008, Note_off_c, 0, 77, 64
1, 16009, Note_on_c, 0, 42, 97
1, 16009, Note_off_c, 0, 45, 64
1, 16009, Note_off_c, 0, 74, 64
1, 16010, Note_on_c, 0, 41, 100
1, 16010, Note_off_c, 0, 42, 64
1, 16011, Note_on_c, 0, 38, 98
1, 16011, Note_off_c, 0, 41, 64
1, 16012, Note_on_c, 0, 37, 98
1, 16012, Note_off_c, 0, 38, 64
1, 16013, Note_on_c, 0, 36, 98
1, 16013, Note_off_c, 0, 37, 64
1, 16014, Note_on_c, 0, 35, 96
1, 16014, Note_off_c, 0, 36, 64
1, 16015, Note_on_c, 0, 34, 96
1, 16015, Note_off_c, 0, 35, 64
1, 16016, Note_on_c, 0, 33, 95
1, 16016, Note_off_c, 0, 34, 64
1, 16017, Note_on_c, 0, 32, 97
1, 16017, Note_off_c, 0, 33, 64
1, 16019, Note_on_c, 0, 31, 96
1, 16019, Note_off_c, 0, 32, 64
1, 16021, Note_on_c, 0, 30, 86
1, 16021, Note_off_c, 0, 31, 64
1, 16023, Note_off_c, 0, 30, 64
1, 16025, Note_on_c, 0, 37, 72
1, 16025, Note_on_c, 0, 61, 30
1, 16025, Note_on_c, 0, 68, 19
1, 16025, Note_on_c, 0, 98, 16
1, 16025, Note_on_c, 0, 101, 11
1, 16026, Note_on_c, 0, 30, 80
1, 16026, Note_off_c, 0, 37, 64
1, 16026, Note_on_c, 0, 49, 60
1, 16027, Note_on_c, 0, 63, 27
1, 16027, Note_on_c, 0, 66, 12
1, 16028, Note_on_c, 0, 29, 80
1, 16028, Note_off_c, 0, 30, 64
1, 16028, Note_off_c, 0, 61, 64
1, 16028, Note_off_c, 0, 98, 64
1, 16028, Note_off_c, 0, 101, 64
1, 16029, Note_off_c, 0, 29, 64
1, 16029, Note_on_c, 0, 30, 77
1, 16029, Note_off_c, 0, 49, 64
1, 16030, Note_off_c, 0, 63, 64
1, 16030, Note_off_c, 0, 66, 64
1, 16030, Note_off_c, 0, 68, 64
1, 16031, Note_on_c, 0, 29, 75
1, 16031, Note_off_c, 0, 30, 64
1, 16033, Note_off_c, 0, 29, 64
1, 16033, Note_on_c, 0, 30, 69
1, 16034, Note_on_c, 0, 72, 25
1, 16035, Note_off_c, 0, 30, 64
1, 16035, Note_on_c, 0, 43, 67
1, 16035, Note_on_c, 0, 76, 15
1, 16036, Note_on_c, 0, 32, 73
1, 16036, Note_off_c, 0, 43, 64
1, 16036, Note_on_c, 0, 64, 28
1, 16036, Note_on_c, 0, 70, 43
1, 16037, Note_on_c, 0, 30, 82
1, 16037, Note_off_c, 0, 32, 64
1, 16037, Note_off_c, 0, 72, 64
1, 16038, Note_on_c, 0, 29, 82
1, 16038, Note_off_c, 0, 30, 64
1, 16038, Note_on_c, 0, 61, 26
1, 16039, Note_off_c, 0, 29, 64
1, 16039, Note_on_c, 0, 30, 80
1, 16039, Note_off_c, 0, 64, 64
1, 16039, Note_off_c, 0, 76, 64
1, 16040, Note_off_c, 0, 30, 64
1, 16040, Note_on_c, 0, 33, 74
1, 16040, Note_on_c, 0, 54, 44
1, 16040, Note_on_c, 0, 63, 49
1, 16041, Note_off_c, 0, 61, 64
1, 16042, Note_on_c, 0, 59, 54
1, 16042, Note_on_c, 0, 76, 39
1, 16042, Note_on_c, 0, 79, 34
1, 16042, Note_on_c, 0, 81, 34
1, 16042, Note_on_c, 0, 83, 34
1, 16042, Note_on_c, 0, 84, 32
1, 16042, Note_on_c, 0, 85, 33
1, 16042, Note_on_c, 0, 86, 32
1, 16043, Note_off_c, 0, 33, 64
1, 16043, Note_off_c, 0, 54, 64
1, 16043, Note_on_c, 0, 72, 42
1, 16044, Note_on_c, 0, 50, 74
1, 16044, Note_off_c, 0, 59, 64
1, 16044, Note_off_c, 0, 63, 64
1, 16044, Note_off_c, 0, 70, 64
1, 16045, Note_on_c, 0, 48, 86
1, 16045, Note_off_c, 0, 50, 64
1, 16045, Note_off_c, 0, 72, 64
1, 16045, Note_off_c, 0, 76, 64
1, 16045, Note_off_c, 0, 79, 64
1, 16045, Note_off_c, 0, 81, 64
1, 16045, Note_off_c, 0, 83, 64
1, 16045, Note_off_c, 0, 84, 64
1, 16045, Note_off_c, 0, 85, 64
1, 16045, Note_off_c, 0, 86, 64
1, 16046, Note_on_c, 0, 45, 95
1, 16046, Note_off_c, 0, 48, 64
1, 16047, Note_on_c, 0, 42, 100
1, 16047, Note_off_c, 0, 45, 64
1, 16048, Note_on_c, 0, 40, 98
1, 16048, Note_off_c, 0, 42, 64
1, 16049, Note_on_c, 0, 38, 99
1, 16049, Note_off_c, 0, 40, 64
1, 16050, Note_on_c, 0, 36, 98
1, 16050, Note_off_c, 0, 38, 64
1, 16051, Note_on_c, 0, 35, 97
1, 16051, Note_off_c, 0, 36, 64
1, 16052, Note_on_c, 0, 34, 96
1, 16052, Note_off_c, 0, 35, 64
1, 16053, Note_on_c, 0, 33, 96
1, 16053, Note_off_c, 0, 34, 64
1, 16055, Note_on_c, 0, 32, 97
1, 16055, Note_off_c, 0, 33, 64
1, 16056, Note_on_c, 0, 31, 97
1, 16056, Note_off_c, 0, 32, 64
1, 16058, Note_on_c, 0, 30, 89
1, 16058, Note_off_c, 0, 31, 64
1, 16061, Note_off_c, 0, 30, 64
1, 16061, Note_on_c, 0, 72, 31
1, 16062, Note_on_c, 0, 41, 67
1, 16062, Note_on_c, 0, 78, 24
1, 16062, Note_on_c, 0, 82, 25
1, 16062, Note_on_c, 0, 85, 20
1, 16062, Note_on_c, 0, 88, 37
1, 16063, Note_on_c, 0, 31, 73
1, 16063, Note_off_c, 0, 41, 64
1, 16063, Note_on_c, 0, 64, 31
1, 16063, Note_on_c, 0, 66, 28
1, 16063, Note_on_c, 0, 73, 15
1, 16063, Note_on_c, 0, 77, 12
1, 16064, Note_on_c, 0, 30, 80
1, 16064, Note_off_c, 0, 31, 64
1, 16064, Note_off_c, 0, 72, 64
1, 16065, Note_on_c, 0, 29, 81
1, 16065, Note_off_c, 0, 30, 64
1, 16065, Note_on_c, 0, 70, 25
1, 16065, Note_off_c, 0, 88, 64
1, 16066, Note_off_c, 0, 64, 64
1, 16066, Note_off_c, 0, 66, 64
1, 16066, Note_off_c, 0, 77, 64
1, 16066, Note_off_c, 0, 82, 64
1, 16066, Note_off_c, 0, 85, 64
1, 16067, Note_off_c, 0, 29, 64
1, 16067, Note_on_c, 0, 30, 76
1, 16068, Note_off_c, 0, 70, 64
1, 16068, Note_off_c, 0, 73, 64
1, 16069, Note_on_c, 0, 29, 74
1, 16069, Note_off_c, 0, 30, 64
1, 16071, Note_off_c, 0, 29, 64
1, 16071, Note_on_c, 0, 30, 66
1, 16072, Note_on_c, 0, 74, 18
1, 16073, Note_off_c, 0, 30, 64
1, 16073, Note_on_c, 0, 36, 73
1, 16073, Note_on_c, 0, 61, 30
1, 16073, Note_on_c, 0, 64, 29
1, 16073, Note_on_c, 0, 77, 18
1, 16074, Note_on_c, 0, 30, 80
1, 16074, Note_off_c, 0, 36, 64
1, 16074, Note_on_c, 0, 49, 61
1, 16074, Note_on_c, 0, 70, 41
1, 16075, Note_on_c, 0, 29, 82
1, 16075, Note_off_c, 0, 30, 64
1, 16075, Note_off_c, 0, 74, 64
1, 16076, Note_off_c, 0, 64, 64
1, 16076, Note_off_c, 0, 77, 64
1, 16076, Note_off_c, 0, 78, 64
1, 16077, Note_off_c, 0, 29, 64
1, 16077, Note_on_c, 0, 30, 77
1, 16077, Note_on_c, 0, 48, 59
1, 16077, Note_off_c, 0, 49, 64
1, 16078, Note_off_c, 0, 30, 64
1, 16078, Note_on_c, 0, 34, 69
1, 16078, Note_on_c, 0, 54, 38
1, 16078, Note_off_c, 0, 61, 64
1, 16079, Note_off_c, 0, 34, 64
1, 16079, Note_off_c, 0, 48, 64
1, 16079, Note_on_c, 0, 78, 37
1, 16079, Note_on_c, 0, 81, 33
1, 16079, Note_on_c, 0, 84, 33
1, 16079, Note_on_c, 0, 85, 31
1, 16079, Note_on_c, 0, 87, 30
1, 16079, Note_on_c, 0, 91, 29
1, 16079, Note_on_c, 0, 95, 23
1, 16080, Note_off_c, 0, 54, 64
1, 16080, Note_on_c, 0, 73, 39
1, 16080, Note_on_c, 0, 76, 37
1, 16081, Note_on_c, 0, 54, 66
1, 16081, Note_off_c, 0, 70, 64
1, 16081, Note_off_c, 0, 81, 64
1, 16081, Note_off_c, 0, 85, 64
1, 16082, Note_on_c, 0, 49, 81
1, 16082, Note_off_c, 0, 54, 64
1, 16082, Note_off_c, 0, 73, 64
1, 16082, Note_off_c, 0, 76, 64
1, 16082, Note_off_c, 0, 78, 64
1, 16082, Note_off_c, 0, 84, 64
1, 16082, Note_off_c, 0, 87, 64
1, 16082, Note_off_c, 0, 91, 64
1, 16082, Note_off_c, 0, 95, 64
1, 16083, Note_on_c, 0, 45, 92
1, 16083, Note_off_c, 0, 49, 64
1, 16084, Note_on_c, 0, 42, 98
1, 16084, Note_off_c, 0, 45, 64
1, 16085, Note_on_c, 0, 41, 100
1, 16085, Note_off_c, 0, 42, 64
1, 16086, Note_on_c, 0, 38, 98
1, 16086, Note_off_c, 0, 41, 64
1, 16087, Note_on_c, 0, 37, 98
1, 16087, Note_off_c, 0, 38, 64
1, 16088, Note_on_c, 0, 36, 97
1, 16088, Note_off_c, 0, 37, 64
1, 16089, Note_on_c, 0, 35, 96
1, 16089, Note_off_c, 0, 36, 64
1, 16090, Note_on_c, 0, 34, 96
1, 16090, Note_off_c, 0, 35, 64
1, 16091, Note_on_c, 0, 33, 95
1, 16091, Note_off_c, 0, 34, 64
1, 16092, Note_on_c, 0, 32, 97
1, 16092, Note_off_c, 0, 33, 64
1, 16094, Note_on_c, 0, 31, 96
1, 16094, Note_off_c, 0, 32, 64
1, 16095, Note_on_c, 0, 30, 92
1, 16095, Note_off_c, 0, 31, 64
1, 16098, Note_off_c, 0, 30, 64
1, 16099, Note_on_c, 0, 72, 12
1, 16099, Note_on_c, 0, 85, 18
1, 16099, Note_on_c, 0, 87, 24
1, 16100, Note_on_c, 0, 36, 69
1, 16100, Note_on_c, 0, 61, 34
1, 16100, Note_on_c, 0, 64, 33
1, 16101, Note_on_c, 0, 30, 76
1, 16101, Note_off_c, 0, 36, 64
1, 16102, Note_on_c, 0, 29, 79
1, 16102, Note_off_c, 0, 30, 64
1, 16102, Note_on_c, 0, 71, 9
1, 16102, Note_off_c, 0, 85, 64
1, 16102, Note_off_c, 0, 87, 64
1, 16103, Note_off_c, 0, 61, 64
1, 16103, Note_off_c, 0, 64, 64
1, 16103, Note_off_c, 0, 72, 64
1, 16104, Note_off_c, 0, 29, 64
1, 16104, Note_on_c, 0, 30, 77
1, 16105, Note_off_c, 0, 71, 64
1, 16106, Note_on_c, 0, 29, 75
1, 16106, Note_off_c, 0, 30, 64
1, 16107, Note_on_c, 0, 70, 19
1, 16108, Note_off_c, 0, 29, 64
1, 16108, Note_on_c, 0, 30, 70
1, 16108, Note_on_c, 0, 73, 11
1, 16110, Note_off_c, 0, 30, 64
1, 16110, Note_on_c, 0, 42, 70
1, 16110, Note_off_c, 0, 70, 64
1, 16110, Note_on_c, 0, 71, 26
1, 16110, Note_on_c, 0, 74, 15
1, 16111, Note_on_c, 0, 31, 75
1, 16111, Note_off_c, 0, 42, 64
1, 16111, Note_on_c, 0, 61, 32
1, 16111, Note_on_c, 0, 64, 30
1, 16111, Note_on_c, 0, 68, 20
1, 16111, Note_off_c, 0, 73, 64
1, 16111, Note_on_c, 0, 79, 12
1, 16112, Note_on_c, 0, 30, 82
1, 16112, Note_off_c, 0, 31, 64
1, 16113, Note_on_c, 0, 29, 82
1, 16113, Note_off_c, 0, 30, 64
1, 16113, Note_off_c, 0, 64, 64
1, 16114, Note_off_c, 0, 29, 64
1, 16114, Note_on_c, 0, 30, 79
1, 16114, Note_off_c, 0, 61, 64
1, 16114, Note_off_c, 0, 68, 64
1, 16114, Note_off_c, 0, 74, 64
1, 16115, Note_off_c, 0, 30, 64
1, 16115, Note_on_c, 0, 33, 74
1, 16115, Note_on_c, 0, 54, 45
1, 16115, Note_on_c, 0, 63, 30
1, 16115, Note_off_c, 0, 71, 64
1, 16115, Note_off_c, 0, 79, 64
1, 16116, Note_on_c, 0, 49, 39
1, 16116, Note_on_c, 0, 69, 35
1, 16117, Note_on_c, 0, 83, 31
1, 16117, Note_on_c, 0, 86, 30
1, 16117, Note_on_c, 0, 87, 29
1, 16117, Note_on_c, 0, 89, 26
1, 16117, Note_on_c, 0, 91, 28
1, 16118, Note_off_c, 0, 33, 64
1, 16118, Note_off_c, 0, 49, 64
1, 16118, Note_off_c, 0, 54, 64
1, 16118, Note_off_c, 0, 63, 64
1, 16118, Note_off_c, 0, 69, 64
1, 16118, Note_on_c, 0, 70, 44
1, 16118, Note_on_c, 0, 76, 37
1, 16118, Note_on_c, 0, 77, 39
1, 16118, Note_on_c, 0, 84, 30
1, 16119, Note_on_c, 0, 50, 75
1, 16119, Note_on_c, 0, 68, 36
1, 16120, Note_on_c, 0, 46, 86
1, 16120, Note_off_c, 0, 50, 64
1, 16120, Note_off_c, 0, 70, 64
1, 16120, Note_off_c, 0, 76, 64
1, 16120, Note_off_c, 0, 77, 64
1, 16120, Note_off_c, 0, 83, 64
1, 16120, Note_off_c, 0, 84, 64
1, 16120, Note_off_c, 0, 86, 64
1, 16120, Note_off_c, 0, 87, 64
1, 16120, Note_off_c, 0, 89, 64
1, 16120, Note_off_c, 0, 91, 64
1, 16121, Note_on_c, 0, 44, 95
1, 16121, Note_off_c, 0, 46, 64
1, 16121, Note_off_c, 0, 68, 64
1, 16122, Note_on_c, 0, 41, 100
1, 16122, Note_off_c, 0, 44, 64
1, 16123, Note_on_c, 0, 40, 97
1, 16123, Note_off_c, 0, 41, 64
1, 16124, Note_on_c, 0, 38, 98
1, 16124, Note_off_c, 0, 40, 64
1, 16125, Note_on_c, 0, 36, 98
1, 16125, Note_off_c, 0, 38, 64
1, 16126, Note_on_c, 0, 35, 97
1, 16126, Note_off_c, 0, 36, 64
1, 16127, Note_on_c, 0, 34, 96
1, 16127, Note_off_c, 0, 35, 64
1, 16128, Note_on_c, 0, 33, 95
1, 16128, Note_off_c, 0, 34, 64
1, 16129, Note_on_c, 0, 32, 96
1, 16129, Note_off_c, 0, 33, 64
1, 16131, Note_on_c, 0, 31, 96
1, 16131, Note_off_c, 0, 32, 64
1, 16133, Note_on_c, 0, 30, 87
1, 16133, Note_off_c, 0, 31, 64
1, 16136, Note_off_c, 0, 30, 64
1, 16136, Note_on_c, 0, 72, 30
1, 16136, Note_on_c, 0, 77, 40
1, 16136, Note_on_c, 0, 81, 26
1, 16137, Note_on_c, 0, 79, 40
1, 16138, Note_off_c, 0, 72, 64
1, 16139, Note_off_c, 0, 77, 64
1, 16139, Note_off_c, 0, 79, 64
1, 16139, Note_off_c, 0, 81, 64
1, 16141, Note_on_c, 0, 70, 32
1, 16147, Note_off_c, 0, 70, 64
1, 16149, Note_on_c, 0, 70, 24
1, 16152, Note_on_c, 0, 78, 18
1, 16154, Note_on_c, 0, 73, 42
1, 16154, Note_on_c, 0, 75, 40
1, 16154, Note_on_c, 0, 79, 35
1, 16154, Note_on_c, 0, 81, 36
1, 16154, Note_on_c, 0, 84, 35
1, 16154, Note_on_c, 0, 86, 33
1, 16154, Note_on_c, 0, 90, 29
1, 16154, Note_on_c, 0, 92, 28
1, 16155, Note_on_c, 0, 69, 44
1, 16155, Note_off_c, 0, 70, 64
1, 16155, Note_off_c, 0, 78, 64
1, 16155, Note_on_c, 0, 89, 29
1, 16156, Note_on_c, 0, 53, 69
1, 16157, Note_on_c, 0, 48, 83
1, 16157, Note_off_c, 0, 53, 64
1, 16157, Note_off_c, 0, 73, 64
1, 16157, Note_off_c, 0, 75, 64
1, 16157, Note_off_c, 0, 81, 64
1, 16157, Note_off_c, 0, 84, 64
1, 16157, Note_off_c, 0, 86, 64
1, 16157, Note_off_c, 0, 89, 64
1, 16157, Note_off_c, 0, 90, 64
1, 16157, Note_off_c, 0, 92, 64
1, 16158, Note_on_c, 0, 45, 93
1, 16158, Note_off_c, 0, 48, 64
1, 16158, Note_off_c, 0, 69, 64
1, 16158, Note_off_c, 0, 79, 64
1, 16159, Note_on_c, 0, 42, 99
1, 16159, Note_off_c, 0, 45, 64
1, 16160, Note_on_c, 0, 41, 99
1, 16160, Note_off_c, 0, 42, 64
1, 16161, Note_on_c, 0, 38, 98
1, 16161, Note_off_c, 0, 41, 64
1, 16162, Note_on_c, 0, 37, 98
1, 16162, Note_off_c, 0, 38, 64
1, 16163, Note_on_c, 0, 36, 97
1, 16163, Note_off_c, 0, 37, 64
1, 16164, Note_on_c, 0, 34, 96
1, 16164, Note_off_c, 0, 36, 64
1, 16166, Note_on_c, 0, 33, 95
1, 16166, Note_off_c, 0, 34, 64
1, 16167, Note_on_c, 0, 32, 97
1, 16167, Note_off_c, 0, 33, 64
1, 16169, Note_on_c, 0, 31, 96
1, 16169, Note_off_c, 0, 32, 64
1, 16170, Note_on_c, 0, 30, 92
1, 16170, Note_off_c, 0, 31, 64
1, 16173, Note_off_c, 0, 30, 64
1, 16174, Note_on_c, 0, 79, 9
1, 16175, Note_on_c, 0, 36, 71
1, 16175, Note_on_c, 0, 64, 29
1, 16175, Note_on_c, 0, 68, 17
1, 16176, Note_on_c, 0, 30, 78
1, 16176, Note_off_c, 0, 36, 64
1, 16177, Note_on_c, 0, 29, 80
1, 16177, Note_off_c, 0, 30, 64
1, 16177, Note_on_c, 0, 61, 30
1, 16178, Note_off_c, 0, 68, 64
1, 16178, Note_off_c, 0, 79, 64
1, 16179, Note_off_c, 0, 29, 64
1, 16179, Note_on_c, 0, 30, 77
1, 16180, Note_off_c, 0, 61, 64
1, 16180, Note_off_c, 0, 64, 64
1, 16181, Note_on_c, 0, 29, 75
1, 16181, Note_off_c, 0, 30, 64
1, 16182, Note_on_c, 0, 76, 9
1, 16183, Note_off_c, 0, 29, 64
1, 16183, Note_on_c, 0, 30, 69
1, 16184, Note_off_c, 0, 30, 64
1, 16185, Note_on_c, 0, 42, 70
1, 16185, Note_on_c, 0, 61, 33
1, 16185, Note_off_c, 0, 76, 64
1, 16185, Note_on_c, 0, 80, 10
1, 16186, Note_on_c, 0, 31, 76
1, 16186, Note_off_c, 0, 42, 64
1, 16186, Note_on_c, 0, 68, 21
1, 16187, Note_on_c, 0, 30, 82
1, 16187, Note_off_c, 0, 31, 64
1, 16188, Note_on_c, 0, 29, 82
1, 16188, Note_off_c, 0, 30, 64
1, 16188, Note_on_c, 0, 49, 60
1, 16188, Note_on_c, 0, 63, 51
1, 16188, Note_on_c, 0, 70, 16
1, 16188, Note_off_c, 0, 80, 64
1, 16189, Note_off_c, 0, 29, 64
1, 16189, Note_on_c, 0, 30, 78
1, 16189, Note_off_c, 0, 61, 64
1, 16189, Note_off_c, 0, 68, 64
1, 16190, Note_off_c, 0, 30, 64
1, 16190, Note_on_c, 0, 33, 72
1, 16190, Note_off_c, 0, 49, 64
1, 16190, Note_on_c, 0, 54, 43
1, 16191, Note_off_c, 0, 70, 64
1, 16191, Note_on_c, 0, 71, 37
1, 16192, Note_off_c, 0, 33, 64
1, 16192, Note_off_c, 0, 54, 64
1, 16192, Note_on_c, 0, 73, 39
1, 16192, Note_on_c, 0, 76, 36
1, 16192, Note_on_c, 0, 78, 34
1, 16192, Note_on_c, 0, 79, 31
1, 16192, Note_on_c, 0, 81, 34
1, 16193, Note_on_c, 0, 70, 45
1, 16193, Note_off_c, 0, 71, 64
1, 16193, Note_on_c, 0, 84, 34
1, 16194, Note_on_c, 0, 51, 76
1, 16194, Note_off_c, 0, 63, 64
1, 16194, Note_off_c, 0, 79, 64
1, 16195, Note_on_c, 0, 46, 87
1, 16195, Note_off_c, 0, 51, 64
1, 16195, Note_off_c, 0, 73, 64
1, 16195, Note_off_c, 0, 76, 64
1, 16195, Note_off_c, 0, 78, 64
1, 16195, Note_off_c, 0, 81, 64
1, 16195, Note_off_c, 0, 84, 64
1, 16196, Note_on_c, 0, 44, 94
1, 16196, Note_off_c, 0, 46, 64
1, 16196, Note_off_c, 0, 70, 64
1, 16197, Note_on_c, 0, 41, 100
1, 16197, Note_off_c, 0, 44, 64
1, 16198, Note_on_c, 0, 39, 97
1, 16198, Note_off_c, 0, 41, 64
1, 16199, Note_on_c, 0, 37, 98
1, 16199, Note_off_c, 0, 39, 64
1, 16200, Note_on_c, 0, 36, 97
1, 16200, Note_off_c, 0, 37, 64
1, 16201, Note_on_c, 0, 35, 96
1, 16201, Note_off_c, 0, 36, 64
1, 16202, Note_on_c, 0, 34, 96
1, 16202, Note_off_c, 0, 35, 64
1, 16203, Note_on_c, 0, 33, 96
1, 16203, Note_off_c, 0, 34, 64
1, 16205, Note_on_c, 0, 32, 97
1, 16205, Note_off_c, 0, 33, 64
1, 16206, Note_on_c, 0, 31, 97
1, 16206, Note_off_c, 0, 32, 64
1, 16208, Note_on_c, 0, 30, 88
1, 16208, Note_off_c, 0, 31, 64
1, 16211, Note_off_c, 0, 30, 64
1, 16212, Note_on_c, 0, 37, 71
1, 16212, Note_on_c, 0, 61, 27
1, 16212, Note_on_c, 0, 80, 14
1, 16213, Note_on_c, 0, 31, 77
1, 16213, Note_off_c, 0, 37, 64
1, 16213, Note_on_c, 0, 64, 30
1, 16213, Note_on_c, 0, 70, 21
1, 16214, Note_on_c, 0, 30, 80
1, 16214, Note_off_c, 0, 31, 64
1, 16215, Note_on_c, 0, 29, 81
1, 16215, Note_off_c, 0, 30, 64
1, 16215, Note_off_c, 0, 61, 64
1, 16215, Note_on_c, 0, 63, 27
1, 16215, Note_off_c, 0, 64, 64
1, 16215, Note_on_c, 0, 66, 10
1, 16216, Note_off_c, 0, 70, 64
1, 16216, Note_on_c, 0, 79, 11
1, 16216, Note_off_c, 0, 80, 64
1, 16217, Note_off_c, 0, 29, 64
1, 16217, Note_on_c, 0, 30, 76
1, 16218, Note_off_c, 0, 63, 64
1, 16218, Note_off_c, 0, 66, 64
1, 16218, Note_on_c, 0, 86, 20
1, 16219, Note_on_c, 0, 29, 74
1, 16219, Note_off_c, 0, 30, 64
1, 16219, Note_on_c, 0, 84, 19
1, 16220, Note_off_c, 0, 29, 64
1, 16220, Note_on_c, 0, 30, 71
1, 16220, Note_on_c, 0, 70, 23
1, 16220, Note_off_c, 0, 79, 64
1, 16221, Note_on_c, 0, 76, 16
1, 16221, Note_off_c, 0, 86, 64
1, 16222, Note_off_c, 0, 30, 64
1, 16222, Note_on_c, 0, 68, 23
1, 16222, Note_on_c, 0, 73, 14
1, 16222, Note_on_c, 0, 79, 13
1, 16222, Note_on_c, 0, 87, 25
1, 16222, Note_on_c, 0, 88, 31
1, 16223, Note_on_c, 0, 36, 73
1, 16223, Note_on_c, 0, 61, 33
1, 16224, Note_on_c, 0, 30, 81
1, 16224, Note_off_c, 0, 36, 64
1, 16224, Note_on_c, 0, 74, 11
1, 16224, Note_on_c, 0, 81, 18
1, 16224, Note_on_c, 0, 90, 16
1, 16225, Note_on_c, 0, 29, 82
1, 16225, Note_off_c, 0, 30, 64
1, 16225, Note_off_c, 0, 73, 64
1, 16225, Note_off_c, 0, 76, 64
1, 16225, Note_off_c, 0, 79, 64
1, 16225, Note_on_c, 0, 82, 25
1, 16225, Note_off_c, 0, 84, 64
1, 16226, Note_on_c, 0, 86, 26
1, 16227, Note_off_c, 0, 29, 64
1, 16227, Note_on_c, 0, 30, 75
1, 16227, Note_on_c, 0, 48, 57
1, 16227, Note_on_c, 0, 54, 46
1, 16227, Note_off_c, 0, 68, 64
1, 16227, Note_off_c, 0, 70, 64
1, 16227, Note_off_c, 0, 74, 64
1, 16227, Note_off_c, 0, 81, 64
1, 16227, Note_off_c, 0, 87, 64
1, 16227, Note_off_c, 0, 90, 64
1, 16227, Note_on_c, 0, 92, 26
1, 16228, Note_off_c, 0, 30, 64
1, 16228, Note_on_c, 0, 34, 67
1, 16228, Note_off_c, 0, 61, 64
1, 16228, Note_on_c, 0, 71, 47
1, 16228, Note_on_c, 0, 73, 29
1, 16228, Note_on_c, 0, 79, 36
1, 16229, Note_on_c, 0, 65, 45
1, 16229, Note_on_c, 0, 80, 36
1, 16229, Note_on_c, 0, 87, 33
1, 16229, Note_on_c, 0, 90, 38
1, 16229, Note_on_c, 0, 96, 21
1, 16229, Note_on_c, 0, 97, 19
1, 16229, Note_on_c, 0, 101, 17
1, 16230, Note_off_c, 0, 34, 64
1, 16230, Note_off_c, 0, 54, 64
1, 16230, Note_off_c, 0, 73, 64
1, 16230, Note_on_c, 0, 74, 38
1, 16230, Note_on_c, 0, 76, 37
1, 16230, Note_on_c, 0, 78, 47
1, 16230, Note_off_c, 0, 79, 64
1, 16230, Note_off_c, 0, 82, 64
1, 16230, Note_on_c, 0, 84, 38
1, 16230, Note_off_c, 0, 86, 64
1, 16231, Note_off_c, 0, 48, 64
1, 16231, Note_on_c, 0, 54, 70
1, 16231, Note_off_c, 0, 65, 64
1, 16231, Note_on_c, 0, 70, 38
1, 16231, Note_off_c, 0, 71, 64
1, 16231, Note_on_c, 0, 77, 32
1, 16232, Note_on_c, 0, 48, 84
1, 16232, Note_off_c, 0, 54, 64
1, 16232, Note_off_c, 0, 74, 64
1, 16232, Note_off_c, 0, 76, 64
1, 16232, Note_off_c, 0, 78, 64
1, 16232, Note_off_c, 0, 80, 64
1, 16232, Note_off_c, 0, 84, 64
1, 16232, Note_off_c, 0, 88, 64
1, 16232, Note_off_c, 0, 90, 64
1, 16232, Note_off_c, 0, 96, 64
1, 16232, Note_off_c, 0, 97, 64
1, 16232, Note_off_c, 0, 101, 64
1, 16233, Note_on_c, 0, 45, 94
1, 16233, Note_off_c, 0, 48, 64
1, 16233, Note_off_c, 0, 70, 64
1, 16233, Note_off_c, 0, 92, 64
1, 16234, Note_on_c, 0, 42, 99
1, 16234, Note_off_c, 0, 45, 64
1, 16234, Note_off_c, 0, 77, 64
1, 16235, Note_on_c, 0, 40, 98
1, 16235, Note_off_c, 0, 42, 64
1, 16235, Note_on_c, 0, 88, 36
1, 16236, Note_on_c, 0, 38, 98
1, 16236, Note_off_c, 0, 40, 64
1, 16236, Note_on_c, 0, 84, 34
1, 16236, Note_on_c, 0, 89, 18
1, 16237, Note_on_c, 0, 37, 98
1, 16237, Note_off_c, 0, 38, 64
1, 16237, Note_on_c, 0, 69, 12
1, 16237, Note_on_c, 0, 76, 24
1, 16237, Note_on_c, 0, 81, 34
1, 16237, Note_on_c, 0, 85, 21
1, 16237, Note_off_c, 0, 87, 64
1, 16238, Note_on_c, 0, 35, 97
1, 16238, Note_off_c, 0, 37, 64
1, 16239, Note_on_c, 0, 34, 96
1, 16239, Note_off_c, 0, 35, 64
1, 16239, Note_on_c, 0, 79, 31
1, 16239, Note_on_c, 0, 86, 12
1, 16239, Note_on_c, 0, 90, 16
1, 16239, Note_on_c, 0, 92, 18
1, 16240, Note_on_c, 0, 33, 95
1, 16240, Note_off_c, 0, 34, 64
1, 16240, Note_off_c, 0, 69, 64
1, 16240, Note_off_c, 0, 76, 64
1, 16240, Note_off_c, 0, 81, 64
1, 16241, Note_on_c, 0, 73, 19
1, 16241, Note_on_c, 0, 83, 37
1, 16241, Note_off_c, 0, 89, 64
1, 16242, Note_on_c, 0, 32, 95
1, 16242, Note_off_c, 0, 33, 64
1, 16242, Note_on_c, 0, 81, 41
1, 16242, Note_off_c, 0, 85, 64
1, 16242, Note_off_c, 0, 86, 64
1, 16242, Note_off_c, 0, 92, 64
1, 16243, Note_on_c, 0, 31, 96
1, 16243, Note_off_c, 0, 32, 64
1, 16243, Note_on_c, 0, 82, 43
1, 16243, Note_off_c, 0, 83, 64
1, 16244, Note_on_c, 0, 77, 31
1, 16244, Note_off_c, 0, 79, 64
1, 16244, Note_on_c, 0, 86, 28
1, 16245, Note_on_c, 0, 30, 91
1, 16245, Note_off_c, 0, 31, 64
1, 16245, Note_on_c, 0, 72, 28
1, 16245, Note_off_c, 0, 73, 64
1, 16245, Note_off_c, 0, 84, 64
1, 16245, Note_off_c, 0, 90, 64
1, 16245, Note_on_c, 0, 91, 18
1, 16246, Note_on_c, 0, 85, 36
1, 16247, Note_on_c, 0, 75, 24
1, 16247, Note_on_c, 0, 78, 37
1, 16247, Note_on_c, 0, 80, 32
1, 16247, Note_off_c, 0, 81, 64
1, 16247, Note_off_c, 0, 86, 64
1, 16248, Note_off_c, 0, 30, 64
1, 16248, Note_on_c, 0, 71, 15
1, 16248, Note_off_c, 0, 72, 64
1, 16248, Note_on_c, 0, 87, 37
1, 16248, Note_off_c, 0, 88, 64
1, 16249, Note_on_c, 0, 74, 23
1, 16249, Note_off_c, 0, 77, 64
1, 16249, Note_on_c, 0, 83, 33
1, 16249, Note_on_c, 0, 88, 27
1, 16250, Note_on_c, 0, 31, 71
1, 16250, Note_on_c, 0, 64, 29
1, 16250, Note_on_c, 0, 68, 19
1, 16250, Note_off_c, 0, 75, 64
1, 16250, Note_off_c, 0, 82, 64
1, 16250, Note_off_c, 0, 85, 64
1, 16251, Note_on_c, 0, 30, 79
1, 16251, Note_off_c, 0, 31, 64
1, 16251, Note_on_c, 0, 70, 23
1, 16251, Note_off_c, 0, 71, 64
1, 16252, Note_on_c, 0, 29, 80
1, 16252, Note_off_c, 0, 30, 64
1, 16252, Note_on_c, 0, 72, 29
1, 16252, Note_on_c, 0, 76, 36
1, 16253, Note_off_c, 0, 29, 64
1, 16253, Note_on_c, 0, 30, 78
1, 16253, Note_on_c, 0, 63, 31
1, 16253, Note_off_c, 0, 64, 64
1, 16253, Note_off_c, 0, 68, 64
1, 16253, Note_off_c, 0, 74, 64
1, 16253, Note_on_c, 0, 82, 25
1, 16253, Note_on_c, 0, 86, 20
1, 16253, Note_off_c, 0, 91, 64
1, 16254, Note_on_c, 0, 69, 18
1, 16254, Note_off_c, 0, 70, 64
1, 16254, Note_off_c, 0, 83, 64
1, 16254, Note_on_c, 0, 84, 33
1, 16254, Note_on_c, 0, 93, 12
1, 16255, Note_on_c, 0, 89, 17
1, 16255, Note_on_c, 0, 91, 13
1, 16256, Note_on_c, 0, 29, 74
1, 16256, Note_off_c, 0, 30, 64
1, 16256, Note_on_c, 0, 71, 31
1, 16256, Note_off_c, 0, 72, 64
1, 16256, Note_on_c, 0, 75, 32
1, 16256, Note_on_c, 0, 77, 31
1, 16256, Note_off_c, 0, 88, 64
1, 16257, Note_off_c, 0, 63, 64
1, 16257, Note_off_c, 0, 76, 64
1, 16257, Note_off_c, 0, 78, 64
1, 16257, Note_off_c, 0, 80, 64
1, 16257, Note_on_c, 0, 81, 18
1, 16257, Note_on_c, 0, 88, 27
1, 16258, Note_off_c, 0, 29, 64
1, 16258, Note_on_c, 0, 30, 67
1, 16258, Note_off_c, 0, 69, 64
1, 16258, Note_off_c, 0, 71, 64
1, 16258, Note_on_c, 0, 85, 29
1, 16258, Note_off_c, 0, 89, 64
1, 16258, Note_on_c, 0, 90, 24
1, 16258, Note_off_c, 0, 91, 64
1, 16259, Note_off_c, 0, 75, 64
1, 16259, Note_on_c, 0, 76, 27
1, 16259, Note_off_c, 0, 77, 64
1, 16259, Note_on_c, 0, 78, 22
1, 16259, Note_on_c, 0, 83, 27
1, 16259, Note_off_c, 0, 84, 64
1, 16259, Note_off_c, 0, 86, 64
1, 16259, Note_on_c, 0, 89, 22
1, 16260, Note_off_c, 0, 30, 64
1, 16260, Note_on_c, 0, 42, 70
1, 16260, Note_on_c, 0, 68, 30
1, 16260, Note_off_c, 0, 81, 64
1, 16260, Note_off_c, 0, 82, 64
1, 16260, Note_on_c, 0, 91, 15
1, 16260, Note_off_c, 0, 93, 64
1, 16261, Note_on_c, 0, 30, 81
1, 16261, Note_off_c, 0, 42, 64
1, 16261, Note_on_c, 0, 71, 43
1, 16262, Note_off_c, 0, 68, 64
1, 16262, Note_on_c, 0, 75, 33
1, 16262, Note_off_c, 0, 76, 64
1, 16262, Note_off_c, 0, 89, 64
1, 16262, Note_on_c, 0, 93, 14
1, 16263, Note_on_c, 0, 29, 81
1, 16263, Note_off_c, 0, 30, 64
1, 16263, Note_on_c, 0, 49, 59
1, 16263, Note_on_c, 0, 84, 41
1, 16263, Note_off_c, 0, 85, 64
1, 16263, Note_on_c, 0, 86, 38
1, 16263, Note_off_c, 0, 91, 64
1, 16264, Note_off_c, 0, 29, 64
1, 16264, Note_on_c, 0, 30, 77
1, 16264, Note_off_c, 0, 78, 64
1, 16264, Note_on_c, 0, 89, 23
1, 16265, Note_off_c, 0, 30, 64
1, 16265, Note_on_c, 0, 34, 71
1, 16265, Note_off_c, 0, 49, 64
1, 16265, Note_on_c, 0, 54, 39
1, 16265, Note_on_c, 0, 63, 50
1, 16265, Note_on_c, 0, 70, 41
1, 16265, Note_on_c, 0, 85, 39
1, 16265, Note_off_c, 0, 90, 64
1, 16266, Note_off_c, 0, 34, 64
1, 16266, Note_off_c, 0, 71, 64
1, 16266, Note_off_c, 0, 75, 64
1, 16266, Note_on_c, 0, 78, 35
1, 16266, Note_on_c, 0, 81, 31
1, 16266, Note_off_c, 0, 83, 64
1, 16266, Note_on_c, 0, 91, 30
1, 16267, Note_off_c, 0, 54, 64
1, 16267, Note_on_c, 0, 66, 49
1, 16267, Note_on_c, 0, 74, 42
1, 16267, Note_on_c, 0, 77, 36
1, 16267, Note_off_c, 0, 88, 64
1, 16267, Note_on_c, 0, 92, 29
1, 16267, Note_off_c, 0, 93, 64
1, 16268, Note_on_c, 0, 69, 49
1, 16268, Note_off_c, 0, 70, 64
1, 16268, Note_on_c, 0, 71, 41
1, 16268, Note_on_c, 0, 80, 33
1, 16268, Note_off_c, 0, 81, 64
1, 16268, Note_off_c, 0, 85, 64
1, 16269, Note_on_c, 0, 50, 78
1, 16269, Note_off_c, 0, 63, 64
1, 16269, Note_off_c, 0, 92, 64
1, 16270, Note_on_c, 0, 46, 89
1, 16270, Note_off_c, 0, 50, 64
1, 16270, Note_off_c, 0, 66, 64
1, 16270, Note_off_c, 0, 78, 64
1, 16270, Note_on_c, 0, 79, 16
1, 16270, Note_off_c, 0, 80, 64
1, 16270, Note_off_c, 0, 86, 64
1, 16270, Note_on_c, 0, 90, 14
1, 16271, Note_on_c, 0, 43, 95
1, 16271, Note_off_c, 0, 46, 64
1, 16271, Note_off_c, 0, 69, 64
1, 16271, Note_off_c, 0, 71, 64
1, 16271, Note_off_c, 0, 74, 64
1, 16271, Note_off_c, 0, 77, 64
1, 16271, Note_on_c, 0, 86, 19
1, 16271, Note_off_c, 0, 87, 64
1, 16271, Note_on_c, 0, 88, 15
1, 16272, Note_on_c, 0, 41, 99
1, 16272, Note_off_c, 0, 43, 64
1, 16272, Note_on_c, 0, 69, 15
1, 16272, Note_off_c, 0, 89, 64
1, 16272, Note_off_c, 0, 91, 64
1, 16273, Note_on_c, 0, 39, 97
1, 16273, Note_off_c, 0, 41, 64
1, 16273, Note_on_c, 0, 73, 15
1, 16273, Note_on_c, 0, 78, 15
1, 16273, Note_off_c, 0, 79, 64
1, 16273, Note_off_c, 0, 84, 64
1, 16274, Note_on_c, 0, 37, 98
1, 16274, Note_off_c, 0, 39, 64
1, 16274, Note_on_c, 0, 80, 31
1, 16274, Note_off_c, 0, 90, 64
1, 16275, Note_on_c, 0, 36, 97
1, 16275, Note_off_c, 0, 37, 64
1, 16275, Note_off_c, 0, 69, 64
1, 16275, Note_on_c, 0, 75, 22
1, 16275, Note_off_c, 0, 86, 64
1, 16275, Note_on_c, 0, 87, 23
1, 16275, Note_off_c, 0, 88, 64
1, 16276, Note_on_c, 0, 35, 96
1, 16276, Note_off_c, 0, 36, 64
1, 16276, Note_off_c, 0, 73, 64
1, 16276, Note_on_c, 0, 85, 18
1, 16277, Note_on_c, 0, 34, 95
1, 16277, Note_off_c, 0, 35, 64
1, 16277, Note_off_c, 0, 80, 64
1, 16277, Note_on_c, 0, 88, 23
1, 16278, Note_on_c, 0, 33, 94
1, 16278, Note_off_c, 0, 34, 64
1, 16278, Note_on_c, 0, 91, 12
1, 16279, Note_on_c, 0, 32, 96
1, 16279, Note_off_c, 0, 33, 64
1, 16280, Note_on_c, 0, 80, 10
1, 16280, Note_off_c, 0, 88, 64
1, 16281, Note_on_c, 0, 31, 94
1, 16281, Note_off_c, 0, 32, 64
1, 16281, Note_on_c, 0, 89, 12
1, 16281, Note_off_c, 0, 91, 64
1, 16282, Note_off_c, 0, 75, 64
1, 16282, Note_on_c, 0, 76, 25
1, 16282, Note_off_c, 0, 78, 64
1, 16282, Note_on_c, 0, 84, 23
1, 16282, Note_off_c, 0, 87, 64
1, 16282, Note_on_c, 0, 90, 11
1, 16283, Note_on_c, 0, 30, 84
1, 16283, Note_off_c, 0, 31, 64
1, 16283, Note_on_c, 0, 72, 18
1, 16283, Note_off_c, 0, 80, 64
1, 16283, Note_off_c, 0, 85, 64
1, 16283, Note_on_c, 0, 86, 18
1, 16283, Note_on_c, 0, 92, 9
1, 16284, Note_on_c, 0, 85, 22
1, 16285, Note_off_c, 0, 30, 64
1, 16285, Note_off_c, 0, 76, 64
1, 16285, Note_off_c, 0, 84, 64
1, 16285, Note_on_c, 0, 87, 21
1, 16285, Note_off_c, 0, 90, 64
1, 16286, Note_off_c, 0, 86, 64
1, 16287, Note_off_c, 0, 89, 64
1, 16288, Note_on_c, 0, 69, 19
1, 16288, Note_off_c, 0, 72, 64
1, 16288, Note_off_c, 0, 85, 64
1, 16288, Note_off_c, 0, 92, 64
1, 16290, Note_on_c, 0, 71, 22
1, 16290, Note_on_c, 0, 83, 30
1, 16290, Note_on_c, 0, 89, 25
1, 16290, Note_on_c, 0, 93, 10
1, 16291, Note_off_c, 0, 69, 64
1, 16291, Note_on_c, 0, 90, 22
1, 16292, Note_on_c, 0, 84, 15
1, 16292, Note_on_c, 0, 88, 31
1, 16293, Note_on_c, 0, 86, 36
1, 16293, Note_off_c, 0, 93, 64
1, 16294, Note_off_c, 0, 71, 64
1, 16294, Note_on_c, 0, 76, 26
1, 16294, Note_off_c, 0, 83, 64
1, 16294, Note_off_c, 0, 89, 64
1, 16295, Note_off_c, 0, 84, 64
1, 16295, Note_on_c, 0, 85, 34
1, 16295, Note_off_c, 0, 87, 64
1, 16295, Note_on_c, 0, 89, 25
1, 16295, Note_on_c, 0, 92, 17
1, 16296, Note_on_c, 0, 80, 26
1, 16296, Note_on_c, 0, 83, 36
1, 16298, Note_off_c, 0, 76, 64
1, 16298, Note_on_c, 0, 81, 29
1, 16298, Note_off_c, 0, 90, 64
1, 16299, Note_on_c, 0, 73, 21
1, 16299, Note_off_c, 0, 80, 64
1, 16299, Note_off_c, 0, 92, 64
1, 16300, Note_off_c, 0, 83, 64
1, 16301, Note_on_c, 0, 77, 27
1, 16301, Note_off_c, 0, 88, 64
1, 16302, Note_on_c, 0, 82, 42
1, 16302, Note_on_c, 0, 88, 37
1, 16303, Note_off_c, 0, 73, 64
1, 16304, Note_on_c, 0, 62, 49
1, 16304, Note_on_c, 0, 70, 43
1, 16304, Note_on_c, 0, 76, 39
1, 16304, Note_off_c, 0, 81, 64
1, 16304, Note_on_c, 0, 84, 41
1, 16304, Note_on_c, 0, 87, 29
1, 16304, Note_on_c, 0, 90, 30
1, 16304, Note_on_c, 0, 91, 29
1, 16304, Note_on_c, 0, 92, 25
1, 16304, Note_on_c, 0, 95, 24
1, 16305, Note_off_c, 0, 77, 64
1, 16305, Note_on_c, 0, 81, 44
1, 16305, Note_off_c, 0, 82, 64
1, 16305, Note_on_c, 0, 83, 41
1, 16305, Note_off_c, 0, 85, 64
1, 16305, Note_off_c, 0, 89, 64
1, 16306, Note_on_c, 0, 53, 71
1, 16306, Note_off_c, 0, 62, 64
1, 16306, Note_on_c, 0, 64, 48
1, 16306, Note_off_c, 0, 70, 64
1, 16306, Note_on_c, 0, 75, 29
1, 16306, Note_on_c, 0, 89, 15
1, 16307, Note_on_c, 0, 48, 85
1, 16307, Note_off_c, 0, 53, 64
1, 16307, Note_off_c, 0, 76, 64
1, 16307, Note_on_c, 0, 78, 17
1, 16307, Note_off_c, 0, 81, 64
1, 16307, Note_off_c, 0, 84, 64
1, 16307, Note_off_c, 0, 87, 64
1, 16307, Note_off_c, 0, 92, 64
1, 16307, Note_off_c, 0, 95, 64
1, 16308, Note_on_c, 0, 45, 94
1, 16308, Note_off_c, 0, 48, 64
1, 16308, Note_off_c, 0, 64, 64
1, 16308, Note_on_c, 0, 70, 10
1, 16308, Note_off_c, 0, 75, 64
1, 16308, Note_on_c, 0, 84, 19
1, 16308, Note_off_c, 0, 86, 64
1, 16309, Note_on_c, 0, 42, 99
1, 16309, Note_off_c, 0, 45, 64
1, 16309, Note_off_c, 0, 88, 64
1, 16309, Note_off_c, 0, 91, 64
1, 16310, Note_on_c, 0, 40, 98
1, 16310, Note_off_c, 0, 42, 64
1, 16310, Note_off_c, 0, 78, 64
1, 16310, Note_off_c, 0, 83, 64
1, 16310, Note_off_c, 0, 89, 64
1, 16311, Note_on_c, 0, 38, 98
1, 16311, Note_off_c, 0, 40, 64
1, 16311, Note_off_c, 0, 70, 64
1, 16311, Note_on_c, 0, 71, 10
1, 16312, Note_on_c, 0, 37, 98
1, 16312, Note_off_c, 0, 38, 64
1, 16312, Note_on_c, 0, 78, 18
1, 16313, Note_on_c, 0, 35, 97
1, 16313, Note_off_c, 0, 37, 64
1, 16313, Note_on_c, 0, 88, 9
1, 16314, Note_on_c, 0, 34, 96
1, 16314, Note_off_c, 0, 35, 64
1, 16314, Note_off_c, 0, 71, 64
1, 16315, Note_on_c, 0, 33, 96
1, 16315, Note_off_c, 0, 34, 64
1, 16315, Note_on_c, 0, 76, 15
1, 16316, Note_on_c, 0, 80, 9
1, 16316, Note_on_c, 0, 85, 20
1, 16316, Note_off_c, 0, 88, 64
1, 16317, Note_on_c, 0, 32, 96
1, 16317, Note_off_c, 0, 33, 64
1, 16317, Note_on_c, 0, 71, 21
1, 16317, Note_off_c, 0, 78, 64
1, 16317, Note_off_c, 0, 84, 64
1, 16318, Note_on_c, 0, 31, 97
1, 16318, Note_off_c, 0, 32, 64
1, 16318, Note_on_c, 0, 87, 17
1, 16318, Note_off_c, 0, 90, 64
1, 16319, Note_on_c, 0, 75, 14
1, 16319, Note_off_c, 0, 76, 64
1, 16319, Note_off_c, 0, 80, 64
1, 16320, Note_on_c, 0, 30, 90
1, 16320, Note_off_c, 0, 31, 64
1, 16320, Note_on_c, 0, 70, 15
1, 16320, Note_off_c, 0, 71, 64
1, 16321, Note_off_c, 0, 85, 64
1, 16321, Note_off_c, 0, 87, 64
1, 16321, Note_on_c, 0, 88, 24
1, 16323, Note_off_c, 0, 30, 64
1, 16323, Note_on_c, 0, 69, 25
1, 16323, Note_off_c, 0, 70, 64
1, 16323, Note_off_c, 0, 75, 64
1, 16323, Note_on_c, 0, 76, 18
1, 16323, Note_on_c, 0, 79, 16
1, 16323, Note_on_c, 0, 84, 19
1, 16323, Note_on_c, 0, 86, 19
1, 16324, Note_on_c, 0, 42, 65
1, 16324, Note_off_c, 0, 88, 64
1, 16324, Note_on_c, 0, 90, 13
1, 16325, Note_on_c, 0, 31, 73
1, 16325, Note_off_c, 0, 42, 64
1, 16325, Note_on_c, 0, 64, 29
1, 16326, Note_on_c, 0, 30, 80
1, 16326, Note_off_c, 0, 31, 64
1, 16326, Note_on_c, 0, 49, 60
1, 16326, Note_off_c, 0, 69, 64
1, 16326, Note_on_c, 0, 75, 17
1, 16326, Note_on_c, 0, 83, 20
1, 16326, Note_off_c, 0, 86, 64
1, 16327, Note_on_c, 0, 29, 81
1, 16327, Note_off_c, 0, 30, 64
1, 16327, Note_on_c, 0, 63, 26
1, 16327, Note_off_c, 0, 64, 64
1, 16327, Note_off_c, 0, 79, 64
1, 16328, Note_off_c, 0, 49, 64
1, 16328, Note_off_c, 0, 76, 64
1, 16328, Note_off_c, 0, 90, 64
1, 16329, Note_off_c, 0, 29, 64
1, 16329, Note_on_c, 0, 30, 76
1, 16329, Note_off_c, 0, 75, 64
1, 16329, Note_off_c, 0, 84, 64
1, 16330, Note_off_c, 0, 63, 64
1, 16330, Note_on_c, 0, 77, 14
1, 16331, Note_on_c, 0, 29, 74
1, 16331, Note_off_c, 0, 30, 64
1, 16332, Note_on_c, 0, 81, 17
1, 16333, Note_off_c, 0, 29, 64
1, 16333, Note_on_c, 0, 30, 67
1, 16333, Note_on_c, 0, 70, 30
1, 16333, Note_off_c, 0, 77, 64
1, 16334, Note_on_c, 0, 77, 19
1, 16334, Note_on_c, 0, 84, 33
1, 16334, Note_on_c, 0, 86, 15
1, 16335, Note_off_c, 0, 30, 64
1, 16335, Note_on_c, 0, 41, 71
1, 16335, Note_on_c, 0, 61, 30
1, 16335, Note_on_c, 0, 64, 29
1, 16336, Note_on_c, 0, 30, 78
1, 16336, Note_off_c, 0, 41, 64
1, 16336, Note_off_c, 0, 83, 64
1, 16337, Note_on_c, 0, 29, 82
1, 16337, Note_off_c, 0, 30, 64
1, 16337, Note_off_c, 0, 86, 64
1, 16338, Note_on_c, 0, 63, 23
1, 16338, Note_off_c, 0, 64, 64
1, 16338, Note_off_c, 0, 77, 64
1, 16338, Note_off_c, 0, 81, 64
1, 16339, Note_off_c, 0, 29, 64
1, 16339, Note_on_c, 0, 30, 77
1, 16339, Note_on_c, 0, 48, 59
1, 16339, Note_off_c, 0, 70, 64
1, 16340, Note_off_c, 0, 30, 64
1, 16340, Note_on_c, 0, 34, 71
1, 16340, Note_on_c, 0, 54, 40
1, 16340, Note_off_c, 0, 61, 64
1, 16341, Note_off_c, 0, 34, 64
1, 16341, Note_off_c, 0, 48, 64
1, 16341, Note_off_c, 0, 63, 64
1, 16341, Note_on_c, 0, 70, 40
1, 16341, Note_on_c, 0, 78, 34
1, 16341, Note_on_c, 0, 87, 33
1, 16341, Note_on_c, 0, 90, 37
1, 16342, Note_off_c, 0, 54, 64
1, 16342, Note_on_c, 0, 63, 50
1, 16342, Note_on_c, 0, 80, 28
1, 16342, Note_on_c, 0, 83, 32
1, 16343, Note_on_c, 0, 54, 65
1, 16343, Note_off_c, 0, 70, 64
1, 16343, Note_on_c, 0, 77, 29
1, 16344, Note_on_c, 0, 50, 79
1, 16344, Note_off_c, 0, 54, 64
1, 16344, Note_off_c, 0, 63, 64
1, 16344, Note_off_c, 0, 78, 64
1, 16344, Note_off_c, 0, 83, 64
1, 16344, Note_off_c, 0, 90, 64
1, 16345, Note_on_c, 0, 45, 91
1, 16345, Note_off_c, 0, 50, 64
1, 16345, Note_off_c, 0, 77, 64
1, 16345, Note_off_c, 0, 80, 64
1, 16345, Note_off_c, 0, 84, 64
1, 16346, Note_on_c, 0, 42, 97
1, 16346, Note_off_c, 0, 45, 64
1, 16346, Note_on_c, 0, 83, 21
1, 16347, Note_on_c, 0, 41, 100
1, 16347, Note_off_c, 0, 42, 64
1, 16347, Note_on_c, 0, 88, 14
1, 16348, Note_on_c, 0, 39, 98
1, 16348, Note_off_c, 0, 41, 64
1, 16348, Note_on_c, 0, 84, 11
1, 16349, Note_on_c, 0, 37, 98
1, 16349, Note_off_c, 0, 39, 64
1, 16350, Note_on_c, 0, 36, 97
1, 16350, Note_off_c, 0, 37, 64
1, 16350, Note_off_c, 0, 87, 64
1, 16351, Note_on_c, 0, 35, 96
1, 16351, Note_off_c, 0, 36, 64
1, 16351, Note_off_c, 0, 84, 64
1, 16351, Note_off_c, 0, 88, 64
1, 16352, Note_on_c, 0, 34, 96
1, 16352, Note_off_c, 0, 35, 64
1, 16353, Note_on_c, 0, 33, 95
1, 16353, Note_off_c, 0, 34, 64
1, 16354, Note_on_c, 0, 32, 97
1, 16354, Note_off_c, 0, 33, 64
1, 16355, Note_off_c, 0, 83, 64
1, 16356, Note_on_c, 0, 31, 96
1, 16356, Note_off_c, 0, 32, 64
1, 16356, Note_on_c, 0, 81, 19
1, 16357, Note_on_c, 0, 86, 15
1, 16358, Note_on_c, 0, 30, 86
1, 16358, Note_off_c, 0, 31, 64
1, 16359, Note_off_c, 0, 81, 64
1, 16360, Note_off_c, 0, 30, 64
1, 16360, Note_on_c, 0, 82, 23
1, 16360, Note_off_c, 0, 86, 64
1, 16361, Note_on_c, 0, 80, 17
1, 16361, Note_on_c, 0, 83, 20
1, 16361, Note_on_c, 0, 85, 21
1, 16361, Note_on_c, 0, 86, 18
1, 16362, Note_on_c, 0, 37, 71
1, 16362, Note_on_c, 0, 61, 29
1, 16362, Note_on_c, 0, 64, 28
1, 16362, Note_on_c, 0, 68, 20
1, 16363, Note_on_c, 0, 31, 77
1, 16363, Note_off_c, 0, 37, 64
1, 16363, Note_on_c, 0, 49, 60
1, 16363, Note_on_c, 0, 71, 16
1, 16364, Note_on_c, 0, 30, 80
1, 16364, Note_off_c, 0, 31, 64
1, 16365, Note_on_c, 0, 29, 80
1, 16365, Note_off_c, 0, 30, 64
1, 16365, Note_off_c, 0, 64, 64
1, 16365, Note_off_c, 0, 80, 64
1, 16365, Note_off_c, 0, 83, 64
1, 16365, Note_off_c, 0, 86, 64
1, 16365, Note_on_c, 0, 90, 9
1, 16366, Note_off_c, 0, 49, 64
1, 16366, Note_off_c, 0, 68, 64
1, 16366, Note_off_c, 0, 71, 64
1, 16366, Note_on_c, 0, 84, 21
1, 16366, Note_off_c, 0, 85, 64
1, 16367, Note_off_c, 0, 29, 64
1, 16367, Note_on_c, 0, 30, 76
1, 16367, Note_off_c, 0, 61, 64
1, 16368, Note_on_c, 0, 29, 75
1, 16368, Note_off_c, 0, 30, 64
1, 16368, Note_off_c, 0, 90, 64
1, 16369, Note_off_c, 0, 82, 64
1, 16370, Note_off_c, 0, 29, 64
1, 16370, Note_on_c, 0, 30, 70
1, 16371, Note_on_c, 0, 70, 28
1, 16371, Note_on_c, 0, 76, 23
1, 16372, Note_off_c, 0, 30, 64
1, 16372, Note_on_c, 0, 43, 67
1, 16373, Note_on_c, 0, 32, 73
1, 16373, Note_off_c, 0, 43, 64
1, 16373, Note_on_c, 0, 64, 30
1, 16373, Note_on_c, 0, 68, 24
1, 16374, Note_on_c, 0, 30, 82
1, 16374, Note_off_c, 0, 32, 64
1, 16375, Note_on_c, 0, 29, 83
1, 16375, Note_off_c, 0, 30, 64
1, 16375, Note_off_c, 0, 76, 64
1, 16375, Note_on_c, 0, 77, 14
1, 16375, Note_off_c, 0, 84, 64
1, 16376, Note_off_c, 0, 64, 64
1, 16376, Note_off_c, 0, 68, 64
1, 16377, Note_off_c, 0, 29, 64
1, 16377, Note_on_c, 0, 33, 74
1, 16377, Note_on_c, 0, 54, 46
1, 16378, Note_off_c, 0, 70, 64
1, 16378, Note_off_c, 0, 77, 64
1, 16379, Note_on_c, 0, 65, 49
1, 16379, Note_on_c, 0, 75, 38
1, 16379, Note_on_c, 0, 78, 37
1, 16379, Note_on_c, 0, 81, 32
1, 16379, Note_on_c, 0, 82, 34
1, 16379, Note_on_c, 0, 86, 32
1, 16379, Note_on_c, 0, 88, 32
1, 16380, Note_off_c, 0, 33, 64
1, 16380, Note_off_c, 0, 54, 64
1, 16380, Note_on_c, 0, 84, 36
1, 16381, Note_on_c, 0, 50, 73
1, 16381, Note_on_c, 0, 64, 45
1, 16381, Note_off_c, 0, 65, 64
1, 16382, Note_on_c, 0, 48, 86
1, 16382, Note_off_c, 0, 50, 64
1, 16382, Note_off_c, 0, 75, 64
1, 16382, Note_off_c, 0, 78, 64
1, 16382, Note_off_c, 0, 81, 64
1, 16382, Note_off_c, 0, 82, 64
1, 16382, Note_off_c, 0, 86, 64
1, 16382, Note_off_c, 0, 88, 64
1, 16383, Note_on_c, 0, 45, 95
1, 16383, Note_off_c, 0, 48, 64
1, 16383, Note_off_c, 0, 64, 64
1, 16384, Note_on_c, 0, 42, 100
1, 16384, Note_off_c, 0, 45, 64
1, 16384, Note_off_c, 0, 84, 64
1, 16385, Note_on_c, 0, 40, 98
1, 16385, Note_off_c, 0, 42, 64
1, 16386, Note_on_c, 0, 38, 98
1, 16386, Note_off_c, 0, 40, 64
1, 16387, Note_on_c, 0, 36, 98
1, 16387, Note_off_c, 0, 38, 64
1, 16388, Note_on_c, 0, 35, 97
1, 16388, Note_off_c, 0, 36, 64
1, 16389, Note_on_c, 0, 34, 96
1, 16389, Note_off_c, 0, 35, 64
1, 16390, Note_on_c, 0, 33, 96
1, 16390, Note_off_c, 0, 34, 64
1, 16392, Note_on_c, 0, 32, 96
1, 16392, Note_off_c, 0, 33, 64
1, 16393, Note_on_c, 0, 31, 97
1, 16393, Note_off_c, 0, 32, 64
1, 16395, Note_on_c, 0, 30, 90
1, 16395, Note_off_c, 0, 31, 64
1, 16398, Note_off_c, 0, 30, 64
1, 16399, Note_on_c, 0, 41, 66
1, 16399, Note_on_c, 0, 70, 30
1, 16399, Note_on_c, 0, 78, 17
1, 16400, Note_on_c, 0, 31, 73
1, 16400, Note_off_c, 0, 41, 64
1, 16400, Note_on_c, 0, 80, 9
1, 16401, Note_on_c, 0, 30, 79
1, 16401, Note_off_c, 0, 31, 64
1, 16401, Note_on_c, 0, 76, 12
1, 16402, Note_on_c, 0, 29, 80
1, 16402, Note_off_c, 0, 30, 64
1, 16402, Note_off_c, 0, 78, 64
1, 16403, Note_on_c, 0, 63, 23
1, 16403, Note_off_c, 0, 80, 64
1, 16404, Note_off_c, 0, 29, 64
1, 16404, Note_on_c, 0, 30, 76
1, 16404, Note_off_c, 0, 76, 64
1, 16406, Note_on_c, 0, 29, 74
1, 16406, Note_off_c, 0, 30, 64
1, 16406, Note_off_c, 0, 63, 64
1, 16408, Note_off_c, 0, 29, 64
1, 16408, Note_on_c, 0, 30, 66
1, 16408, Note_off_c, 0, 70, 64
1, 16409, Note_on_c, 0, 72, 20
1, 16409, Note_on_c, 0, 83, 20
1, 16409, Note_on_c, 0, 85, 18
1, 16409, Note_on_c, 0, 87, 13
1, 16409, Note_on_c, 0, 89, 12
1, 16410, Note_off_c, 0, 30, 64
1, 16410, Note_on_c, 0, 36, 72
1, 16410, Note_on_c, 0, 61, 31
1, 16410, Note_on_c, 0, 64, 30
1, 16410, Note_on_c, 0, 68, 22
1, 16411, Note_on_c, 0, 30, 79
1, 16411, Note_off_c, 0, 36, 64
1, 16412, Note_on_c, 0, 29, 82
1, 16412, Note_off_c, 0, 30, 64
1, 16412, Note_off_c, 0, 72, 64
1, 16412, Note_on_c, 0, 78, 13
1, 16412, Note_off_c, 0, 83, 64
1, 16412, Note_off_c, 0, 85, 64
1, 16412, Note_off_c, 0, 87, 64
1, 16412, Note_off_c, 0, 89, 64
1, 16413, Note_on_c, 0, 63, 24
1, 16413, Note_off_c, 0, 64, 64
1, 16414, Note_off_c, 0, 29, 64
1, 16414, Note_on_c, 0, 30, 77
1, 16414, Note_on_c, 0, 48, 59
1, 16414, Note_off_c, 0, 68, 64
1, 16415, Note_off_c, 0, 30, 64
1, 16415, Note_on_c, 0, 34, 70
1, 16415, Note_on_c, 0, 54, 39
1, 16415, Note_off_c, 0, 61, 64
1, 16415, Note_off_c, 0, 78, 64
1, 16416, Note_off_c, 0, 34, 64
1, 16416, Note_off_c, 0, 48, 64
1, 16416, Note_off_c, 0, 63, 64
1, 16416, Note_on_c, 0, 70, 46
1, 16416, Note_on_c, 0, 75, 37
1, 16416, Note_on_c, 0, 83, 40
1, 16416, Note_on_c, 0, 86, 36
1, 16416, Note_on_c, 0, 90, 27
1, 16416, Note_on_c, 0, 91, 26
1, 16417, Note_off_c, 0, 54, 64
1, 16418, Note_on_c, 0, 54, 65
1, 16418, Note_on_c, 0, 62, 50
1, 16419, Note_on_c, 0, 49, 80
1, 16419, Note_off_c, 0, 54, 64
1, 16419, Note_off_c, 0, 83, 64
1, 16419, Note_off_c, 0, 90, 64
1, 16419, Note_off_c, 0, 91, 64
1, 16420, Note_on_c, 0, 45, 92
1, 16420, Note_off_c, 0, 49, 64
1, 16420, Note_off_c, 0, 62, 64
1, 16420, Note_off_c, 0, 75, 64
1, 16420, Note_on_c, 0, 81, 22
1, 16420, Note_on_c, 0, 84, 14
1, 16421, Note_on_c, 0, 42, 98
1, 16421, Note_off_c, 0, 45, 64
1, 16421, Note_off_c, 0, 70, 64
1, 16422, Note_on_c, 0, 41, 100
1, 16422, Note_off_c, 0, 42, 64
1, 16423, Note_on_c, 0, 38, 98
1, 16423, Note_off_c, 0, 41, 64
1, 16423, Note_off_c, 0, 84, 64
1, 16423, Note_off_c, 0, 86, 64
1, 16424, Note_on_c, 0, 37, 98
1, 16424, Note_off_c, 0, 38, 64
1, 16424, Note_off_c, 0, 81, 64
1, 16425, Note_on_c, 0, 36, 97
1, 16425, Note_off_c, 0, 37, 64
1, 16426, Note_on_c, 0, 35, 97
1, 16426, Note_off_c, 0, 36, 64
1, 16427, Note_on_c, 0, 34, 96
1, 16427, Note_off_c, 0, 35, 64
1, 16427, Note_on_c, 0, 86, 18
1, 16427, Note_on_c, 0, 89, 13
1, 16427, Note_on_c, 0, 91, 14
1, 16428, Note_on_c, 0, 33, 95
1, 16428, Note_off_c, 0, 34, 64
1, 16428, Note_on_c, 0, 90, 14
1, 16428, Note_on_c, 0, 94, 15
1, 16429, Note_on_c, 0, 32, 96
1, 16429, Note_off_c, 0, 33, 64
1, 16431, Note_on_c, 0, 31, 95
1, 16431, Note_off_c, 0, 32, 64
1, 16431, Note_off_c, 0, 86, 64
1, 16431, Note_on_c, 0, 88, 12
1, 16431, Note_off_c, 0, 89, 64
1, 16431, Note_off_c, 0, 90, 64
1, 16431, Note_off_c, 0, 91, 64
1, 16432, Note_off_c, 0, 94, 64
1, 16433, Note_on_c, 0, 30, 83
1, 16433, Note_off_c, 0, 31, 64
1, 16434, Note_off_c, 0, 88, 64
1, 16435, Note_off_c, 0, 30, 64
1, 16436, Note_on_c, 0, 76, 14
1, 16436, Note_on_c, 0, 82, 20
1, 16436, Note_on_c, 0, 83, 19
1, 16436, Note_on_c, 0, 87, 31
1, 16436, Note_on_c, 0, 88, 32
1, 16436, Note_on_c, 0, 92, 22
1, 16436, Note_on_c, 0, 93, 17
1, 16436, Note_on_c, 0, 97, 17
1, 16436, Note_on_c, 0, 98, 21
1, 16437, Note_on_c, 0, 74, 16
1, 16437, Note_on_c, 0, 79, 22
1, 16437, Note_on_c, 0, 81, 18
1, 16438, Note_off_c, 0, 87, 64
1, 16439, Note_off_c, 0, 76, 64
1, 16439, Note_off_c, 0, 82, 64
1, 16439, Note_off_c, 0, 93, 64
1, 16439, Note_off_c, 0, 97, 64
1, 16439, Note_off_c, 0, 98, 64
1, 16440, Note_on_c, 0, 82, 14
1, 16440, Note_off_c, 0, 83, 64
1, 16440, Note_off_c, 0, 92, 64
1, 16441, Note_off_c, 0, 79, 64
1, 16443, Note_off_c, 0, 74, 64
1, 16443, Note_off_c, 0, 81, 64
1, 16443, Note_off_c, 0, 88, 64
1, 16444, Note_off_c, 0, 82, 64
1, 16444, Note_on_c, 0, 86, 39
1, 16444, Note_on_c, 0, 88, 36
1, 16444, Note_on_c, 0, 90, 38
1, 16444, Note_on_c, 0, 95, 32
1, 16445, Note_on_c, 0, 91, 37
1, 16445, Note_on_c, 0, 93, 42
1, 16445, Note_on_c, 0, 94, 31
1, 16446, Note_on_c, 0, 70, 23
1, 16446, Note_on_c, 0, 81, 13
1, 16446, Note_on_c, 0, 84, 24
1, 16446, Note_on_c, 0, 96, 34
1, 16446, Note_on_c, 0, 99, 15
1, 16446, Note_on_c, 0, 101, 10
1, 16447, Note_on_c, 0, 87, 34
1, 16447, Note_on_c, 0, 89, 28
1, 16449, Note_off_c, 0, 88, 64
1, 16449, Note_off_c, 0, 96, 64
1, 16449, Note_off_c, 0, 101, 64
1, 16450, Note_off_c, 0, 70, 64
1, 16450, Note_off_c, 0, 81, 64
1, 16451, Note_on_c, 0, 71, 32
1, 16451, Note_off_c, 0, 90, 64
1, 16451, Note_off_c, 0, 99, 64
1, 16452, Note_off_c, 0, 84, 64
1, 16452, Note_off_c, 0, 86, 64
1, 16452, Note_off_c, 0, 91, 64
1, 16453, Note_off_c, 0, 87, 64
1, 16453, Note_off_c, 0, 93, 64
1, 16453, Note_off_c, 0, 94, 64
1, 16454, Note_on_c, 0, 77, 36
1, 16454, Note_on_c, 0, 83, 38
1, 16454, Note_on_c, 0, 86, 32
1, 16454, Note_on_c, 0, 87, 30
1, 16454, Note_on_c, 0, 88, 27
1, 16455, Note_off_c, 0, 71, 64
1, 16455, Note_on_c, 0, 81, 33
1, 16456, Note_on_c, 0, 51, 74
1, 16456, Note_on_c, 0, 71, 29
1, 16456, Note_off_c, 0, 95, 64
1, 16457, Note_on_c, 0, 48, 86
1, 16457, Note_off_c, 0, 51, 64
1, 16457, Note_on_c, 0, 63, 16
1, 16457, Note_off_c, 0, 77, 64
1, 16457, Note_off_c, 0, 81, 64
1, 16457, Note_off_c, 0, 83, 64
1, 16457, Note_off_c, 0, 86, 64
1, 16457, Note_off_c, 0, 87, 64
1, 16457, Note_off_c, 0, 88, 64
1, 16457, Note_off_c, 0, 89, 64
1, 16458, Note_on_c, 0, 45, 95
1, 16458, Note_off_c, 0, 48, 64
1, 16458, Note_off_c, 0, 71, 64
1, 16459, Note_on_c, 0, 42, 100
1, 16459, Note_off_c, 0, 45, 64
1, 16460, Note_on_c, 0, 40, 97
1, 16460, Note_off_c, 0, 42, 64
1, 16460, Note_off_c, 0, 63, 64
1, 16461, Note_on_c, 0, 38, 99
1, 16461, Note_off_c, 0, 40, 64
1, 16462, Note_on_c, 0, 36, 98
1, 16462, Note_off_c, 0, 38, 64
1, 16463, Note_on_c, 0, 35, 97
1, 16463, Note_off_c, 0, 36, 64
1, 16464, Note_on_c, 0, 34, 96
1, 16464, Note_off_c, 0, 35, 64
1, 16464, Note_on_c, 0, 73, 40
1, 16464, Note_on_c, 0, 75, 40
1, 16464, Note_on_c, 0, 79, 36
1, 16465, Note_on_c, 0, 33, 96
1, 16465, Note_off_c, 0, 34, 64
1, 16465, Note_on_c, 0, 78, 43
1, 16465, Note_on_c, 0, 82, 30
1, 16465, Note_on_c, 0, 83, 21
1, 16466, Note_off_c, 0, 75, 64
1, 16466, Note_on_c, 0, 76, 49
1, 16466, Note_off_c, 0, 79, 64
1, 16467, Note_on_c, 0, 32, 97
1, 16467, Note_off_c, 0, 33, 64
1, 16467, Note_on_c, 0, 75, 47
1, 16467, Note_on_c, 0, 80, 30
1, 16468, Note_on_c, 0, 31, 97
1, 16468, Note_off_c, 0, 32, 64
1, 16468, Note_off_c, 0, 73, 64
1, 16468, Note_off_c, 0, 76, 64
1, 16468, Note_off_c, 0, 83, 64
1, 16469, Note_on_c, 0, 74, 51
1, 16469, Note_off_c, 0, 75, 64
1, 16469, Note_off_c, 0, 78, 64
1, 16469, Note_on_c, 0, 83, 22
1, 16469, Note_on_c, 0, 84, 23
1, 16470, Note_on_c, 0, 30, 89
1, 16470, Note_off_c, 0, 31, 64
1, 16470, Note_on_c, 0, 71, 40
1, 16470, Note_on_c, 0, 77, 50
1, 16471, Note_on_c, 0, 72, 39
1, 16472, Note_off_c, 0, 71, 64
1, 16472, Note_off_c, 0, 77, 64
1, 16472, Note_on_c, 0, 78, 34
1, 16472, Note_off_c, 0, 80, 64
1, 16472, Note_off_c, 0, 83, 64
1, 16473, Note_off_c, 0, 30, 64
1, 16473, Note_on_c, 0, 77, 33
1, 16473, Note_on_c, 0, 80, 30
1, 16474, Note_on_c, 0, 41, 68
1, 16474, Note_on_c, 0, 61, 29
1, 16474, Note_off_c, 0, 78, 64
1, 16475, Note_on_c, 0, 31, 73
1, 16475, Note_on_c, 0, 70, 33
1, 16475, Note_off_c, 0, 72, 64
1, 16475, Note_on_c, 0, 73, 41
1, 16475, Note_off_c, 0, 74, 64
1, 16475, Note_on_c, 0, 76, 31
1, 16475, Note_off_c, 0, 82, 64
1, 16475, Note_off_c, 0, 84, 64
1, 16475, Note_on_c, 0, 87, 12
1, 16476, Note_on_c, 0, 30, 79
1, 16476, Note_off_c, 0, 31, 64
1, 16476, Note_off_c, 0, 41, 64
1, 16476, Note_on_c, 0, 74, 35
1, 16476, Note_off_c, 0, 77, 64
1, 16476, Note_on_c, 0, 79, 26
1, 16476, Note_off_c, 0, 80, 64
1, 16477, Note_on_c, 0, 29, 81
1, 16477, Note_off_c, 0, 30, 64
1, 16477, Note_on_c, 0, 49, 58
1, 16477, Note_off_c, 0, 70, 64
1, 16477, Note_off_c, 0, 73, 64
1, 16478, Note_on_c, 0, 73, 34
1, 16478, Note_off_c, 0, 74, 64
1, 16478, Note_on_c, 0, 77, 27
1, 16478, Note_off_c, 0, 87, 64
1, 16479, Note_off_c, 0, 29, 64
1, 16479, Note_on_c, 0, 30, 76
1, 16479, Note_on_c, 0, 63, 16
1, 16479, Note_off_c, 0, 79, 64
1, 16480, Note_off_c, 0, 49, 64
1, 16480, Note_on_c, 0, 75, 49
1, 16480, Note_off_c, 0, 76, 64
1, 16481, Note_on_c, 0, 29, 74
1, 16481, Note_off_c, 0, 30, 64
1, 16481, Note_off_c, 0, 61, 64
1, 16481, Note_off_c, 0, 77, 64
1, 16482, Note_off_c, 0, 29, 64
1, 16482, Note_on_c, 0, 30, 72
1, 16482, Note_off_c, 0, 63, 64
1, 16482, Note_off_c, 0, 73, 64
1, 16482, Note_on_c, 0, 74, 33
1, 16483, Note_on_c, 0, 78, 36
1, 16483, Note_on_c, 0, 81, 32
1, 16484, Note_on_c, 0, 64, 31
1, 16484, Note_off_c, 0, 74, 64
1, 16484, Note_on_c, 0, 84, 20
1, 16485, Note_off_c, 0, 30, 64
1, 16485, Note_on_c, 0, 36, 72
1, 16485, Note_on_c, 0, 61, 28
1, 16485, Note_on_c, 0, 70, 28
1, 16485, Note_on_c, 0, 77, 32
1, 16485, Note_off_c, 0, 78, 64
1, 16485, Note_off_c, 0, 81, 64
1, 16486, Note_on_c, 0, 30, 80
1, 16486, Note_off_c, 0, 36, 64
1, 16486, Note_on_c, 0, 49, 62
1, 16486, Note_on_c, 0, 68, 24
1, 16486, Note_on_c, 0, 73, 36
1, 16486, Note_on_c, 0, 79, 30
1, 16487, Note_on_c, 0, 29, 82
1, 16487, Note_off_c, 0, 30, 64
1, 16487, Note_off_c, 0, 64, 64
1, 16487, Note_off_c, 0, 84, 64
1, 16488, Note_off_c, 0, 61, 64
1, 16488, Note_on_c, 0, 76, 49
1, 16488, Note_off_c, 0, 77, 64
1, 16489, Note_off_c, 0, 29, 64
1, 16489, Note_on_c, 0, 30, 77
1, 16489, Note_on_c, 0, 48, 58
1, 16489, Note_off_c, 0, 49, 64
1, 16489, Note_off_c, 0, 68, 64
1, 16489, Note_off_c, 0, 70, 64
1, 16489, Note_off_c, 0, 73, 64
1, 16489, Note_on_c, 0, 74, 45
1, 16489, Note_off_c, 0, 75, 64
1, 16489, Note_on_c, 0, 83, 37
1, 16490, Note_off_c, 0, 30, 64
1, 16490, Note_on_c, 0, 34, 69
1, 16490, Note_on_c, 0, 54, 37
1, 16490, Note_off_c, 0, 79, 64
1, 16490, Note_on_c, 0, 80, 36
1, 16491, Note_off_c, 0, 48, 64
1, 16491, Note_on_c, 0, 77, 43
1, 16491, Note_on_c, 0, 85, 36
1, 16491, Note_on_c, 0, 90, 29
1, 16491, Note_on_c, 0, 91, 28
1, 16491, Note_on_c, 0, 93, 26
1, 16491, Note_on_c, 0, 94, 25
1, 16491, Note_on_c, 0, 96, 23
1, 16492, Note_off_c, 0, 34, 64
1, 16492, Note_off_c, 0, 54, 64
1, 16492, Note_on_c, 0, 64, 48
1, 16492, Note_on_c, 0, 73, 48
1, 16492, Note_off_c, 0, 74, 64
1, 16492, Note_off_c, 0, 76, 64
1, 16492, Note_on_c, 0, 86, 30
1, 16493, Note_on_c, 0, 54, 67
1, 16493, Note_on_c, 0, 69, 43
1, 16493, Note_on_c, 0, 72, 41
1, 16493, Note_on_c, 0, 75, 35
1, 16493, Note_off_c, 0, 77, 64
1, 16493, Note_on_c, 0, 78, 35
1, 16493, Note_off_c, 0, 80, 64
1, 16494, Note_on_c, 0, 49, 82
1, 16494, Note_off_c, 0, 54, 64
1, 16494, Note_off_c, 0, 64, 64
1, 16494, Note_off_c, 0, 73, 64
1, 16494, Note_off_c, 0, 83, 64
1, 16494, Note_off_c, 0, 85, 64
1, 16494, Note_off_c, 0, 86, 64
1, 16494, Note_off_c, 0, 90, 64
1, 16494, Note_off_c, 0, 91, 64
1, 16494, Note_off_c, 0, 93, 64
1, 16494, Note_off_c, 0, 94, 64
1, 16494, Note_off_c, 0, 96, 64
1, 16495, Note_on_c, 0, 45, 93
1, 16495, Note_off_c, 0, 49, 64
1, 16495, Note_off_c, 0, 69, 64
1, 16495, Note_on_c, 0, 77, 36
1, 16495, Note_off_c, 0, 78, 64
1, 16496, Note_on_c, 0, 42, 98
1, 16496, Note_off_c, 0, 45, 64
1, 16496, Note_off_c, 0, 75, 64
1, 16497, Note_on_c, 0, 41, 99
1, 16497, Note_off_c, 0, 42, 64
1, 16497, Note_off_c, 0, 72, 64
1, 16497, Note_on_c, 0, 74, 41
1, 16498, Note_on_c, 0, 38, 98
1, 16498, Note_off_c, 0, 41, 64
1, 16499, Note_on_c, 0, 37, 98
1, 16499, Note_off_c, 0, 38, 64
1, 16500, Note_on_c, 0, 36, 97
1, 16500, Note_off_c, 0, 37, 64
1, 16500, Note_on_c, 0, 75, 29
1, 16500, Note_off_c, 0, 77, 64
1, 16501, Note_on_c, 0, 34, 96
1, 16501, Note_off_c, 0, 36, 64
1, 16502, Note_off_c, 0, 74, 64
1, 16502, Note_off_c, 0, 75, 64
1, 16503, Note_on_c, 0, 33, 95
1, 16503, Note_off_c, 0, 34, 64
1, 16504, Note_on_c, 0, 32, 97
1, 16504, Note_off_c, 0, 33, 64
1, 16506, Note_on_c, 0, 31, 96
1, 16506, Note_off_c, 0, 32, 64
1, 16507, Note_on_c, 0, 30, 92
1, 16507, Note_off_c, 0, 31, 64
1, 16510, Note_off_c, 0, 30, 64
1, 16511, Note_on_c, 0, 64, 31
1, 16511, Note_on_c, 0, 71, 17
1, 16511, Note_on_c, 0, 73, 18
1, 16512, Note_on_c, 0, 36, 71
1, 16513, Note_on_c, 0, 30, 78
1, 16513, Note_off_c, 0, 36, 64
1, 16513, Note_on_c, 0, 49, 58
1, 16513, Note_on_c, 0, 54, 48
1, 16514, Note_on_c, 0, 29, 81
1, 16514, Note_off_c, 0, 30, 64
1, 16514, Note_on_c, 0, 63, 28
1, 16514, Note_off_c, 0, 64, 64
1, 16514, Note_off_c, 0, 71, 64
1, 16515, Note_off_c, 0, 54, 64
1, 16516, Note_off_c, 0, 29, 64
1, 16516, Note_on_c, 0, 30, 77
1, 16516, Note_off_c, 0, 49, 64
1, 16518, Note_on_c, 0, 29, 75
1, 16518, Note_off_c, 0, 30, 64
1, 16518, Note_off_c, 0, 63, 64
1, 16518, Note_off_c, 0, 73, 64
1, 16518, Note_on_c, 0, 74, 17
1, 16520, Note_off_c, 0, 29, 64
1, 16520, Note_on_c, 0, 30, 70
1, 16521, Note_off_c, 0, 30, 64
1, 16521, Note_on_c, 0, 62, 31
1, 16521, Note_on_c, 0, 68, 21
1, 16522, Note_on_c, 0, 42, 70
1, 16522, Note_off_c, 0, 74, 64
1, 16522, Note_on_c, 0, 77, 9
1, 16522, Note_on_c, 0, 81, 13
1, 16522, Note_on_c, 0, 83, 9
1, 16523, Note_on_c, 0, 31, 76
1, 16523, Note_off_c, 0, 42, 64
1, 16523, Note_off_c, 0, 62, 64
1, 16523, Note_on_c, 0, 63, 51
1, 16523, Note_on_c, 0, 73, 23
1, 16524, Note_on_c, 0, 30, 82
1, 16524, Note_off_c, 0, 31, 64
1, 16525, Note_on_c, 0, 29, 82
1, 16525, Note_off_c, 0, 30, 64
1, 16525, Note_off_c, 0, 77, 64
1, 16525, Note_off_c, 0, 83, 64
1, 16526, Note_off_c, 0, 29, 64
1, 16526, Note_on_c, 0, 30, 79
1, 16526, Note_off_c, 0, 81, 64
1, 16527, Note_off_c, 0, 30, 64
1, 16527, Note_on_c, 0, 33, 73
1, 16527, Note_on_c, 0, 54, 41
1, 16527, Note_off_c, 0, 68, 64
1, 16528, Note_off_c, 0, 73, 64
1, 16528, Note_on_c, 0, 74, 37
1, 16528, Note_on_c, 0, 76, 37
1, 16529, Note_off_c, 0, 33, 64
1, 16529, Note_off_c, 0, 54, 64
1, 16529, Note_on_c, 0, 70, 48
1, 16530, Note_off_c, 0, 74, 64
1, 16530, Note_on_c, 0, 84, 32
1, 16531, Note_on_c, 0, 50, 76
1, 16531, Note_off_c, 0, 63, 64
1, 16532, Note_on_c, 0, 46, 87
1, 16532, Note_off_c, 0, 50, 64
1, 16532, Note_off_c, 0, 70, 64
1, 16532, Note_off_c, 0, 76, 64
1, 16532, Note_off_c, 0, 84, 64
1, 16533, Note_on_c, 0, 44, 95
1, 16533, Note_off_c, 0, 46, 64
1, 16534, Note_on_c, 0, 41, 100
1, 16534, Note_off_c, 0, 44, 64
1, 16535, Note_on_c, 0, 39, 97
1, 16535, Note_off_c, 0, 41, 64
1, 16536, Note_on_c, 0, 38, 98
1, 16536, Note_off_c, 0, 39, 64
1, 16537, Note_on_c, 0, 36, 98
1, 16537, Note_off_c, 0, 38, 64
1, 16538, Note_on_c, 0, 35, 97
1, 16538, Note_off_c, 0, 36, 64
1, 16539, Note_on_c, 0, 34, 96
1, 16539, Note_off_c, 0, 35, 64
1, 16540, Note_on_c, 0, 33, 96
1, 16540, Note_off_c, 0, 34, 64
1, 16542, Note_on_c, 0, 32, 97
1, 16542, Note_off_c, 0, 33, 64
1, 16543, Note_on_c, 0, 31, 97
1, 16543, Note_off_c, 0, 32, 64
1, 16545, Note_on_c, 0, 30, 88
1, 16545, Note_off_c, 0, 31, 64
1, 16547, Note_off_c, 0, 30, 64
1, 16548, Note_on_c, 0, 73, 16
1, 16549, Note_on_c, 0, 37, 69
1, 16549, Note_on_c, 0, 61, 31
1, 16549, Note_on_c, 0, 68, 15
1, 16550, Note_on_c, 0, 31, 75
1, 16550, Note_off_c, 0, 37, 64
1, 16550, Note_on_c, 0, 49, 60
1, 16550, Note_on_c, 0, 70, 16
1, 16551, Note_on_c, 0, 30, 80
1, 16551, Note_off_c, 0, 31, 64
1, 16551, Note_off_c, 0, 61, 64
1, 16551, Note_off_c, 0, 73, 64
1, 16552, Note_on_c, 0, 29, 80
1, 16552, Note_off_c, 0, 30, 64
1, 16553, Note_off_c, 0, 68, 64
1, 16554, Note_off_c, 0, 29, 64
1, 16554, Note_on_c, 0, 30, 76
1, 16554, Note_on_c, 0, 74, 14
1, 16555, Note_off_c, 0, 49, 64
1, 16555, Note_off_c, 0, 70, 64
1, 16556, Note_on_c, 0, 29, 74
1, 16556, Note_off_c, 0, 30, 64
1, 16556, Note_on_c, 0, 75, 19
1, 16557, Note_off_c, 0, 74, 64
1, 16558, Note_off_c, 0, 29, 64
1, 16558, Note_on_c, 0, 62, 31
1, 16559, Note_on_c, 0, 70, 30
1, 16559, Note_off_c, 0, 75, 64
1, 16560, Note_on_c, 0, 36, 73
1, 16560, Note_on_c, 0, 61, 34
1, 16560, Note_off_c, 0, 62, 64
1, 16560, Note_on_c, 0, 79, 14
1, 16561, Note_on_c, 0, 30, 81
1, 16561, Note_off_c, 0, 36, 64
1, 16562, Note_on_c, 0, 29, 83
1, 16562, Note_off_c, 0, 30, 64
1, 16562, Note_on_c, 0, 63, 32
1, 16563, Note_off_c, 0, 61, 64
1, 16564, Note_off_c, 0, 29, 64
1, 16564, Note_on_c, 0, 30, 76
1, 16564, Note_on_c, 0, 48, 58
1, 16564, Note_on_c, 0, 54, 48
1, 16564, Note_off_c, 0, 63, 64
1, 16564, Note_on_c, 0, 74, 39
1, 16564, Note_off_c, 0, 79, 64
1, 16565, Note_off_c, 0, 30, 64
1, 16565, Note_on_c, 0, 34, 67
1, 16565, Note_off_c, 0, 70, 64
1, 16566, Note_off_c, 0, 48, 64
1, 16566, Note_off_c, 0, 54, 64
1, 16566, Note_on_c, 0, 55, 38
1, 16566, Note_on_c, 0, 63, 51
1, 16566, Note_on_c, 0, 69, 44
1, 16566, Note_on_c, 0, 80, 32
1, 16566, Note_on_c, 0, 83, 36
1, 16566, Note_on_c, 0, 84, 35
1, 16566, Note_on_c, 0, 90, 29
1, 16566, Note_on_c, 0, 91, 28
1, 16566, Note_on_c, 0, 94, 24
1, 16566, Note_on_c, 0, 97, 21
1, 16566, Note_on_c, 0, 99, 21
1, 16567, Note_off_c, 0, 34, 64
1, 16567, Note_on_c, 0, 77, 37
1, 16568, Note_on_c, 0, 54, 70
1, 16568, Note_off_c, 0, 55, 64
1, 16568, Note_off_c, 0, 69, 64
1, 16568, Note_off_c, 0, 80, 64
1, 16569, Note_on_c, 0, 48, 84
1, 16569, Note_off_c, 0, 54, 64
1, 16569, Note_off_c, 0, 63, 64
1, 16569, Note_off_c, 0, 74, 64
1, 16569, Note_off_c, 0, 77, 64
1, 16569, Note_off_c, 0, 83, 64
1, 16569, Note_off_c, 0, 84, 64
1, 16569, Note_off_c, 0, 90, 64
1, 16569, Note_off_c, 0, 91, 64
1, 16569, Note_off_c, 0, 94, 64
1, 16569, Note_off_c, 0, 97, 64
1, 16569, Note_off_c, 0, 99, 64
1, 16570, Note_on_c, 0, 45, 94
1, 16570, Note_off_c, 0, 48, 64
1, 16571, Note_on_c, 0, 42, 99
1, 16571, Note_off_c, 0, 45, 64
1, 16572, Note_on_c, 0, 40, 99
1, 16572, Note_off_c, 0, 42, 64
1, 16573, Note_on_c, 0, 38, 98
1, 16573, Note_off_c, 0, 40, 64
1, 16574, Note_on_c, 0, 37, 98
1, 16574, Note_off_c, 0, 38, 64
1, 16575, Note_on_c, 0, 35, 97
1, 16575, Note_off_c, 0, 37, 64
1, 16576, Note_on_c, 0, 34, 96
1, 16576, Note_off_c, 0, 35, 64
1, 16577, Note_on_c, 0, 33, 95
1, 16577, Note_off_c, 0, 34, 64
1, 16579, Note_on_c, 0, 32, 96
1, 16579, Note_off_c, 0, 33, 64
1, 16581, Note_on_c, 0, 31, 94
1, 16581, Note_off_c, 0, 32, 64
1, 16583, Note_on_c, 0, 30, 81
1, 16583, Note_off_c, 0, 31, 64
1, 16584, Note_on_c, 0, 70, 33
1, 16585, Note_off_c, 0, 30, 64
1, 16585, Note_on_c, 0, 62, 37
1, 16586, Note_on_c, 0, 68, 24
1, 16587, Note_off_c, 0, 62, 64
1, 16589, Note_off_c, 0, 68, 64
1, 16590, Note_on_c, 0, 63, 15
1, 16593, Note_off_c, 0, 70, 64
1, 16594, Note_off_c, 0, 63, 64
1, 16595, Note_on_c, 0, 65, 26
1, 16599, Note_on_c, 0, 70, 22
1, 16601, Note_on_c, 0, 60, 33
1, 16603, Note_off_c, 0, 65, 64
1, 16603, Note_on_c, 0, 66, 37
1, 16604, Note_off_c, 0, 70, 64
1, 16604, Note_on_c, 0, 79, 36
1, 16604, Note_on_c, 0, 83, 31
1, 16604, Note_on_c, 0, 84, 31
1, 16605, Note_off_c, 0, 60, 64
1, 16605, Note_off_c, 0, 66, 64
1, 16605, Note_on_c, 0, 75, 36
1, 16605, Note_on_c, 0, 76, 36
1, 16606, Note_on_c, 0, 51, 78
1, 16606, Note_off_c, 0, 83, 64
1, 16606, Note_off_c, 0, 84, 64
1, 16607, Note_on_c, 0, 46, 89
1, 16607, Note_off_c, 0, 51, 64
1, 16607, Note_off_c, 0, 75, 64
1, 16607, Note_off_c, 0, 76, 64
1, 16607, Note_off_c, 0, 79, 64
1, 16608, Note_on_c, 0, 43, 95
1, 16608, Note_off_c, 0, 46, 64
1, 16609, Note_on_c, 0, 41, 100
1, 16609, Note_off_c, 0, 43, 64
1, 16610, Note_on_c, 0, 39, 97
1, 16610, Note_off_c, 0, 41, 64
1, 16611, Note_on_c, 0, 37, 99
1, 16611, Note_off_c, 0, 39, 64
1, 16612, Note_on_c, 0, 36, 98
1, 16612, Note_off_c, 0, 37, 64
1, 16613, Note_on_c, 0, 35, 97
1, 16613, Note_off_c, 0, 36, 64
1, 16614, Note_on_c, 0, 34, 96
1, 16614, Note_off_c, 0, 35, 64
1, 16615, Note_on_c, 0, 33, 96
1, 16615, Note_off_c, 0, 34, 64
1, 16616, Note_on_c, 0, 32, 97
1, 16616, Note_off_c, 0, 33, 64
1, 16618, Note_on_c, 0, 31, 96
1, 16618, Note_off_c, 0, 32, 64
1, 16619, Note_on_c, 0, 68, 13
1, 16620, Note_on_c, 0, 30, 87
1, 16620, Note_off_c, 0, 31, 64
1, 16622, Note_off_c, 0, 30, 64
1, 16623, Note_on_c, 0, 64, 33
1, 16623, Note_on_c, 0, 70, 16
1, 16624, Note_on_c, 0, 37, 71
1, 16624, Note_off_c, 0, 68, 64
1, 16624, Note_on_c, 0, 75, 12
1, 16624, Note_on_c, 0, 99, 18
1, 16625, Note_on_c, 0, 30, 80
1, 16625, Note_off_c, 0, 37, 64
1, 16625, Note_on_c, 0, 61, 28
1, 16625, Note_on_c, 0, 68, 15
1, 16626, Note_off_c, 0, 70, 64
1, 16626, Note_on_c, 0, 71, 37
1, 16627, Note_on_c, 0, 29, 80
1, 16627, Note_off_c, 0, 30, 64
1, 16627, Note_on_c, 0, 49, 56
1, 16627, Note_off_c, 0, 75, 64
1, 16627, Note_off_c, 0, 99, 64
1, 16628, Note_off_c, 0, 29, 64
1, 16628, Note_on_c, 0, 30, 77
1, 16628, Note_on_c, 0, 67, 10
1, 16628, Note_off_c, 0, 68, 64
1, 16629, Note_off_c, 0, 61, 64
1, 16630, Note_off_c, 0, 49, 64
1, 16630, Note_off_c, 0, 64, 64
1, 16631, Note_on_c, 0, 29, 74
1, 16631, Note_off_c, 0, 30, 64
1, 16631, Note_off_c, 0, 67, 64
1, 16631, Note_on_c, 0, 68, 37
1, 16633, Note_off_c, 0, 29, 64
1, 16634, Note_on_c, 0, 44, 65
1, 16634, Note_on_c, 0, 63, 30
1, 16634, Note_on_c, 0, 73, 23
1, 16635, Note_on_c, 0, 36, 72
1, 16635, Note_off_c, 0, 44, 64
1, 16635, Note_on_c, 0, 61, 30
1, 16635, Note_off_c, 0, 71, 64
1, 16635, Note_on_c, 0, 78, 18
1, 16636, Note_on_c, 0, 30, 81
1, 16636, Note_off_c, 0, 36, 64
1, 16636, Note_off_c, 0, 68, 64
1, 16637, Note_on_c, 0, 29, 82
1, 16637, Note_off_c, 0, 30, 64
1, 16637, Note_off_c, 0, 63, 64
1, 16637, Note_on_c, 0, 64, 29
1, 16637, Note_off_c, 0, 73, 64
1, 16637, Note_on_c, 0, 77, 11
1, 16638, Note_off_c, 0, 61, 64
1, 16638, Note_off_c, 0, 78, 64
1, 16639, Note_off_c, 0, 29, 64
1, 16639, Note_on_c, 0, 30, 76
1, 16639, Note_on_c, 0, 54, 43
1, 16639, Note_on_c, 0, 71, 24
1, 16640, Note_off_c, 0, 30, 64
1, 16640, Note_on_c, 0, 34, 67
1, 16640, Note_off_c, 0, 77, 64
1, 16641, Note_off_c, 0, 54, 64
1, 16641, Note_on_c, 0, 63, 49
1, 16641, Note_off_c, 0, 64, 64
1, 16641, Note_on_c, 0, 67, 50
1, 16641, Note_on_c, 0, 70, 44
1, 16641, Note_on_c, 0, 74, 40
1, 16641, Note_on_c, 0, 76, 41
1, 16641, Note_on_c, 0, 78, 36
1, 16641, Note_on_c, 0, 81, 32
1, 16641, Note_on_c, 0, 85, 35
1, 16641, Note_on_c, 0, 89, 27
1, 16641, Note_on_c, 0, 91, 25
1, 16641, Note_on_c, 0, 92, 26
1, 16641, Note_on_c, 0, 94, 25
1, 16641, Note_on_c, 0, 95, 22
1, 16641, Note_on_c, 0, 96, 23
1, 16642, Note_off_c, 0, 34, 64
1, 16642, Note_off_c, 0, 71, 64
1, 16643, Note_on_c, 0, 53, 71
1, 16643, Note_off_c, 0, 67, 64
1, 16643, Note_off_c, 0, 74, 64
1, 16643, Note_off_c, 0, 76, 64
1, 16644, Note_on_c, 0, 48, 85
1, 16644, Note_off_c, 0, 53, 64
1, 16644, Note_off_c, 0, 70, 64
1, 16644, Note_off_c, 0, 78, 64
1, 16644, Note_off_c, 0, 81, 64
1, 16644, Note_off_c, 0, 85, 64
1, 16644, Note_off_c, 0, 89, 64
1, 16644, Note_off_c, 0, 91, 64
1, 16644, Note_off_c, 0, 92, 64
1, 16644, Note_off_c, 0, 94, 64
1, 16644, Note_off_c, 0, 95, 64
1, 16644, Note_off_c, 0, 96, 64
1, 16645, Note_on_c, 0, 45, 95
1, 16645, Note_off_c, 0, 48, 64
1, 16645, Note_on_c, 0, 70, 11
1, 16646, Note_on_c, 0, 42, 100
1, 16646, Note_off_c, 0, 45, 64
1, 16647, Note_on_c, 0, 40, 99
1, 16647, Note_off_c, 0, 42, 64
1, 16647, Note_off_c, 0, 63, 64
1, 16648, Note_on_c, 0, 38, 98
1, 16648, Note_off_c, 0, 40, 64
1, 16649, Note_on_c, 0, 37, 98
1, 16649, Note_off_c, 0, 38, 64
1, 16650, Note_on_c, 0, 35, 97
1, 16650, Note_off_c, 0, 37, 64
1, 16651, Note_on_c, 0, 34, 96
1, 16651, Note_off_c, 0, 35, 64
1, 16652, Note_on_c, 0, 33, 96
1, 16652, Note_off_c, 0, 34, 64
1, 16653, Note_off_c, 0, 70, 64
1, 16654, Note_on_c, 0, 32, 96
1, 16654, Note_off_c, 0, 33, 64
1, 16655, Note_on_c, 0, 31, 97
1, 16655, Note_off_c, 0, 32, 64
1, 16656, Note_on_c, 0, 70, 12
1, 16657, Note_on_c, 0, 30, 91
1, 16657, Note_off_c, 0, 31, 64
1, 16659, Note_off_c, 0, 70, 64
1, 16660, Note_off_c, 0, 30, 64
1, 16660, Note_on_c, 0, 80, 25
1, 16661, Note_on_c, 0, 43, 65
1, 16661, Note_on_c, 0, 61, 37
1, 16662, Note_on_c, 0, 31, 71
1, 16662, Note_off_c, 0, 43, 64
1, 16662, Note_on_c, 0, 74, 27
1, 16662, Note_on_c, 0, 78, 13
1, 16663, Note_on_c, 0, 30, 79
1, 16663, Note_off_c, 0, 31, 64
1, 16663, Note_on_c, 0, 49, 60
1, 16663, Note_on_c, 0, 72, 25
1, 16664, Note_on_c, 0, 29, 80
1, 16664, Note_off_c, 0, 30, 64
1, 16664, Note_on_c, 0, 76, 19
1, 16665, Note_off_c, 0, 61, 64
1, 16665, Note_off_c, 0, 78, 64
1, 16665, Note_off_c, 0, 80, 64
1, 16666, Note_off_c, 0, 29, 64
1, 16666, Note_on_c, 0, 30, 76
1, 16666, Note_off_c, 0, 49, 64
1, 16666, Note_on_c, 0, 63, 32
1, 16666, Note_on_c, 0, 70, 16
1, 16666, Note_off_c, 0, 74, 64
1, 16666, Note_on_c, 0, 78, 20
1, 16668, Note_on_c, 0, 29, 74
1, 16668, Note_off_c, 0, 30, 64
1, 16668, Note_on_c, 0, 62, 30
1, 16668, Note_off_c, 0, 63, 64
1, 16669, Note_on_c, 0, 66, 35
1, 16669, Note_off_c, 0, 70, 64
1, 16670, Note_off_c, 0, 29, 64
1, 16670, Note_on_c, 0, 30, 67
1, 16671, Note_off_c, 0, 30, 64
1, 16671, Note_on_c, 0, 70, 37
1, 16672, Note_on_c, 0, 35, 72
1, 16672, Note_on_c, 0, 61, 33
1, 16672, Note_off_c, 0, 62, 64
1, 16672, Note_off_c, 0, 72, 64
1, 16672, Note_off_c, 0, 76, 64
1, 16673, Note_on_c, 0, 31, 78
1, 16673, Note_off_c, 0, 35, 64
1, 16674, Note_on_c, 0, 30, 81
1, 16674, Note_off_c, 0, 31, 64
1, 16674, Note_on_c, 0, 76, 34
1, 16675, Note_on_c, 0, 29, 81
1, 16675, Note_off_c, 0, 30, 64
1, 16675, Note_on_c, 0, 49, 59
1, 16675, Note_off_c, 0, 61, 64
1, 16675, Note_off_c, 0, 70, 64
1, 16676, Note_off_c, 0, 29, 64
1, 16676, Note_on_c, 0, 30, 78
1, 16676, Note_off_c, 0, 78, 64
1, 16677, Note_off_c, 0, 30, 64
1, 16677, Note_on_c, 0, 34, 71
1, 16677, Note_off_c, 0, 49, 64
1, 16677, Note_on_c, 0, 54, 37
1, 16677, Note_off_c, 0, 66, 64
1, 16678, Note_off_c, 0, 34, 64
1, 16678, Note_on_c, 0, 60, 32
1, 16678, Note_on_c, 0, 78, 35
1, 16678, Note_on_c, 0, 81, 33
1, 16679, Note_off_c, 0, 54, 64
1, 16679, Note_on_c, 0, 75, 35
1, 16679, Note_on_c, 0, 83, 34
1, 16679, Note_on_c, 0, 85, 30
1, 16680, Note_on_c, 0, 54, 65
1, 16680, Note_off_c, 0, 60, 64
1, 16680, Note_on_c, 0, 64, 52
1, 16680, Note_off_c, 0, 76, 64
1, 16680, Note_on_c, 0, 77, 33
1, 16681, Note_on_c, 0, 50, 79
1, 16681, Note_off_c, 0, 54, 64
1, 16681, Note_on_c, 0, 69, 23
1, 16681, Note_off_c, 0, 81, 64
1, 16681, Note_off_c, 0, 83, 64
1, 16681, Note_off_c, 0, 85, 64
1, 16682, Note_on_c, 0, 46, 90
1, 16682, Note_off_c, 0, 50, 64
1, 16682, Note_off_c, 0, 64, 64
1, 16682, Note_off_c, 0, 75, 64
1, 16682, Note_off_c, 0, 77, 64
1, 16682, Note_off_c, 0, 78, 64
1, 16683, Note_on_c, 0, 42, 96
1, 16683, Note_off_c, 0, 46, 64
1, 16684, Note_on_c, 0, 41, 100
1, 16684, Note_off_c, 0, 42, 64
1, 16685, Note_on_c, 0, 39, 98
1, 16685, Note_off_c, 0, 41, 64
1, 16685, Note_off_c, 0, 69, 64
1, 16686, Note_on_c, 0, 37, 99
1, 16686, Note_off_c, 0, 39, 64
1, 16687, Note_on_c, 0, 36, 98
1, 16687, Note_off_c, 0, 37, 64
1, 16688, Note_on_c, 0, 35, 96
1, 16688, Note_off_c, 0, 36, 64
1, 16688, Note_on_c, 0, 61, 15
1, 16689, Note_on_c, 0, 34, 96
1, 16689, Note_off_c, 0, 35, 64
1, 16690, Note_on_c, 0, 33, 96
1, 16690, Note_off_c, 0, 34, 64
1, 16691, Note_on_c, 0, 32, 97
1, 16691, Note_off_c, 0, 33, 64
1, 16691, Note_off_c, 0, 61, 64
1, 16693, Note_on_c, 0, 31, 96
1, 16693, Note_off_c, 0, 32, 64
1, 16694, Note_on_c, 0, 71, 11
1, 16695, Note_on_c, 0, 30, 87
1, 16695, Note_off_c, 0, 31, 64
1, 16696, Note_on_c, 0, 65, 23
1, 16697, Note_off_c, 0, 30, 64
1, 16698, Note_on_c, 0, 61, 37
1, 16698, Note_on_c, 0, 68, 22
1, 16698, Note_on_c, 0, 75, 23
1, 16698, Note_on_c, 0, 81, 13
1, 16698, Note_on_c, 0, 85, 17
1, 16698, Note_on_c, 0, 86, 17
1, 16698, Note_on_c, 0, 88, 24
1, 16699, Note_on_c, 0, 37, 72
1, 16699, Note_on_c, 0, 64, 38
1, 16699, Note_off_c, 0, 65, 64
1, 16699, Note_off_c, 0, 71, 64
1, 16699, Note_on_c, 0, 77, 16
1, 16700, Note_on_c, 0, 31, 76
1, 16700, Note_off_c, 0, 37, 64
1, 16700, Note_on_c, 0, 54, 54
1, 16701, Note_on_c, 0, 30, 80
1, 16701, Note_off_c, 0, 31, 64
1, 16701, Note_off_c, 0, 64, 64
1, 16701, Note_off_c, 0, 86, 64
1, 16701, Note_off_c, 0, 88, 64
1, 16702, Note_on_c, 0, 29, 80
1, 16702, Note_off_c, 0, 30, 64
1, 16702, Note_off_c, 0, 54, 64
1, 16702, Note_on_c, 0, 67, 18
1, 16702, Note_off_c, 0, 68, 64
1, 16702, Note_off_c, 0, 81, 64
1, 16703, Note_off_c, 0, 29, 64
1, 16703, Note_on_c, 0, 30, 77
1, 16703, Note_on_c, 0, 64, 29
1, 16703, Note_off_c, 0, 75, 64
1, 16704, Note_off_c, 0, 85, 64
1, 16705, Note_on_c, 0, 29, 75
1, 16705, Note_off_c, 0, 30, 64
1, 16705, Note_off_c, 0, 64, 64
1, 16705, Note_on_c, 0, 65, 34
1, 16705, Note_off_c, 0, 67, 64
1, 16705, Note_on_c, 0, 70, 35
1, 16705, Note_on_c, 0, 76, 18
1, 16705, Note_off_c, 0, 77, 64
1, 16707, Note_off_c, 0, 61, 64
1, 16708, Note_off_c, 0, 29, 64
1, 16708, Note_on_c, 0, 62, 30
1, 16708, Note_on_c, 0, 68, 32
1, 16708, Note_off_c, 0, 76, 64
1, 16708, Note_on_c, 0, 81, 13
1, 16709, Note_on_c, 0, 43, 66
1, 16709, Note_on_c, 0, 87, 11
1, 16710, Note_on_c, 0, 33, 72
1, 16710, Note_off_c, 0, 43, 64
1, 16710, Note_on_c, 0, 61, 31
1, 16710, Note_off_c, 0, 62, 64
1, 16710, Note_on_c, 0, 64, 38
1, 16710, Note_off_c, 0, 65, 64
1, 16710, Note_on_c, 0, 67, 33
1, 16710, Note_off_c, 0, 68, 64
1, 16711, Note_on_c, 0, 30, 81
1, 16711, Note_off_c, 0, 33, 64
1, 16711, Note_on_c, 0, 75, 16
1, 16712, Note_on_c, 0, 29, 82
1, 16712, Note_off_c, 0, 30, 64
1, 16712, Note_on_c, 0, 78, 18
1, 16713, Note_off_c, 0, 29, 64
1, 16713, Note_on_c, 0, 30, 79
1, 16713, Note_off_c, 0, 64, 64
1, 16713, Note_off_c, 0, 87, 64
1, 16714, Note_off_c, 0, 30, 64
1, 16714, Note_on_c, 0, 33, 74
1, 16714, Note_on_c, 0, 54, 44
1, 16714, Note_off_c, 0, 75, 64
1, 16714, Note_off_c, 0, 81, 64
1, 16715, Note_off_c, 0, 61, 64
1, 16715, Note_off_c, 0, 67, 64
1, 16715, Note_off_c, 0, 78, 64
1, 16716, Note_on_c, 0, 59, 52
1, 16716, Note_on_c, 0, 63, 50
1, 16716, Note_on_c, 0, 68, 47
1, 16716, Note_on_c, 0, 79, 36
1, 16716, Note_on_c, 0, 84, 35
1, 16716, Note_on_c, 0, 85, 35
1, 16716, Note_on_c, 0, 87, 29
1, 16716, Note_on_c, 0, 89, 29
1, 16716, Note_on_c, 0, 92, 26
1, 16717, Note_off_c, 0, 33, 64
1, 16717, Note_off_c, 0, 54, 64
1, 16717, Note_off_c, 0, 70, 64
1, 16717, Note_on_c, 0, 76, 39
1, 16717, Note_on_c, 0, 81, 32
1, 16717, Note_on_c, 0, 83, 34
1, 16718, Note_on_c, 0, 50, 73
1, 16718, Note_off_c, 0, 59, 64
1, 16718, Note_off_c, 0, 63, 64
1, 16718, Note_on_c, 0, 66, 45
1, 16718, Note_off_c, 0, 68, 64
1, 16719, Note_on_c, 0, 48, 85
1, 16719, Note_off_c, 0, 50, 64
1, 16719, Note_off_c, 0, 76, 64
1, 16719, Note_off_c, 0, 79, 64
1, 16719, Note_off_c, 0, 81, 64
1, 16719, Note_off_c, 0, 83, 64
1, 16719, Note_off_c, 0, 84, 64
1, 16719, Note_off_c, 0, 85, 64
1, 16719, Note_off_c, 0, 87, 64
1, 16719, Note_off_c, 0, 89, 64
1, 16719, Note_off_c, 0, 92, 64
1, 16720, Note_on_c, 0, 45, 95
1, 16720, Note_off_c, 0, 48, 64
1, 16720, Note_off_c, 0, 66, 64
1, 16720, Note_on_c, 0, 67, 9
1, 16721, Note_on_c, 0, 42, 100
1, 16721, Note_off_c, 0, 45, 64
1, 16722, Note_on_c, 0, 40, 98
1, 16722, Note_off_c, 0, 42, 64
1, 16723, Note_on_c, 0, 38, 98
1, 16723, Note_off_c, 0, 40, 64
1, 16723, Note_off_c, 0, 67, 64
1, 16724, Note_on_c, 0, 36, 98
1, 16724, Note_off_c, 0, 38, 64
1, 16725, Note_on_c, 0, 35, 97
1, 16725, Note_off_c, 0, 36, 64
1, 16726, Note_on_c, 0, 34, 96
1, 16726, Note_off_c, 0, 35, 64
1, 16727, Note_on_c, 0, 33, 95
1, 16727, Note_off_c, 0, 34, 64
1, 16728, Note_on_c, 0, 69, 20
1, 16729, Note_on_c, 0, 32, 96
1, 16729, Note_off_c, 0, 33, 64
1, 16730, Note_on_c, 0, 31, 96
1, 16730, Note_off_c, 0, 32, 64
1, 16730, Note_on_c, 0, 67, 14
1, 16730, Note_on_c, 0, 71, 16
1, 16731, Note_on_c, 0, 63, 25
1, 16732, Note_on_c, 0, 30, 88
1, 16732, Note_off_c, 0, 31, 64
1, 16732, Note_on_c, 0, 78, 17
1, 16734, Note_off_c, 0, 67, 64
1, 16734, Note_off_c, 0, 71, 64
1, 16735, Note_off_c, 0, 30, 64
1, 16735, Note_on_c, 0, 73, 27
1, 16736, Note_on_c, 0, 66, 15
1, 16736, Note_off_c, 0, 69, 64
1, 16737, Note_on_c, 0, 71, 17
1, 16739, Note_off_c, 0, 66, 64
1, 16740, Note_off_c, 0, 63, 64
1, 16740, Note_on_c, 0, 66, 35
1, 16740, Note_on_c, 0, 75, 24
1, 16741, Note_off_c, 0, 71, 64
1, 16741, Note_off_c, 0, 78, 64
1, 16741, Note_on_c, 0, 81, 12
1, 16741, Note_on_c, 0, 83, 17
1, 16742, Note_on_c, 0, 59, 15
1, 16742, Note_on_c, 0, 69, 26
1, 16742, Note_on_c, 0, 76, 43
1, 16743, Note_off_c, 0, 73, 64
1, 16744, Note_off_c, 0, 75, 64
1, 16744, Note_off_c, 0, 81, 64
1, 16745, Note_off_c, 0, 59, 64
1, 16745, Note_on_c, 0, 68, 31
1, 16745, Note_off_c, 0, 69, 64
1, 16747, Note_on_c, 0, 70, 20
1, 16747, Note_on_c, 0, 73, 20
1, 16747, Note_on_c, 0, 74, 30
1, 16747, Note_on_c, 0, 79, 13
1, 16747, Note_on_c, 0, 81, 32
1, 16747, Note_off_c, 0, 83, 64
1, 16748, Note_on_c, 0, 59, 20
1, 16750, Note_on_c, 0, 65, 32
1, 16750, Note_off_c, 0, 66, 64
1, 16750, Note_off_c, 0, 79, 64
1, 16751, Note_off_c, 0, 70, 64
1, 16751, Note_off_c, 0, 73, 64
1, 16752, Note_off_c, 0, 59, 64
1, 16752, Note_off_c, 0, 65, 64
1, 16752, Note_on_c, 0, 66, 47
1, 16752, Note_on_c, 0, 79, 39
1, 16753, Note_on_c, 0, 57, 38
1, 16753, Note_off_c, 0, 68, 64
1, 16753, Note_on_c, 0, 73, 36
1, 16753, Note_on_c, 0, 77, 36
1, 16753, Note_on_c, 0, 84, 33
1, 16753, Note_on_c, 0, 87, 31
1, 16753, Note_on_c, 0, 90, 29
1, 16754, Note_off_c, 0, 74, 64
1, 16754, Note_on_c, 0, 80, 37
1, 16754, Note_on_c, 0, 83, 34
1, 16754, Note_on_c, 0, 86, 31
1, 16755, Note_on_c, 0, 55, 66
1, 16755, Note_off_c, 0, 57, 64
1, 16755, Note_off_c, 0, 66, 64
1, 16755, Note_on_c, 0, 70, 39
1, 16755, Note_off_c, 0, 73, 64
1, 16755, Note_off_c, 0, 77, 64
1, 16755, Note_off_c, 0, 81, 64
1, 16755, Note_off_c, 0, 87, 64
1, 16756, Note_on_c, 0, 49, 80
1, 16756, Note_off_c, 0, 55, 64
1, 16756, Note_on_c, 0, 65, 33
1, 16756, Note_off_c, 0, 80, 64
1, 16756, Note_off_c, 0, 83, 64
1, 16756, Note_off_c, 0, 84, 64
1, 16756, Note_off_c, 0, 86, 64
1, 16756, Note_off_c, 0, 90, 64
1, 16757, Note_on_c, 0, 45, 92
1, 16757, Note_off_c, 0, 49, 64
1, 16757, Note_off_c, 0, 76, 64
1, 16758, Note_on_c, 0, 42, 98
1, 16758, Note_off_c, 0, 45, 64
1, 16758, Note_off_c, 0, 70, 64
1, 16758, Note_off_c, 0, 79, 64
1, 16759, Note_on_c, 0, 41, 100
1, 16759, Note_off_c, 0, 42, 64
1, 16760, Note_on_c, 0, 38, 98
1, 16760, Note_off_c, 0, 41, 64
1, 16761, Note_on_c, 0, 37, 98
1, 16761, Note_off_c, 0, 38, 64
1, 16761, Note_on_c, 0, 70, 10
1, 16762, Note_on_c, 0, 36, 97
1, 16762, Note_off_c, 0, 37, 64
1, 16763, Note_on_c, 0, 35, 97
1, 16763, Note_off_c, 0, 36, 64
1, 16764, Note_on_c, 0, 34, 96
1, 16764, Note_off_c, 0, 35, 64
1, 16764, Note_off_c, 0, 65, 64
1, 16765, Note_on_c, 0, 33, 95
1, 16765, Note_off_c, 0, 34, 64
1, 16766, Note_on_c, 0, 32, 97
1, 16766, Note_off_c, 0, 33, 64
1, 16767, Note_off_c, 0, 70, 64
1, 16768, Note_on_c, 0, 31, 96
1, 16768, Note_off_c, 0, 32, 64
1, 16768, Note_on_c, 0, 72, 23
1, 16770, Note_on_c, 0, 30, 86
1, 16770, Note_off_c, 0, 31, 64
1, 16770, Note_on_c, 0, 67, 42
1, 16770, Note_on_c, 0, 69, 33
1, 16772, Note_off_c, 0, 30, 64
1, 16773, Note_on_c, 0, 78, 10
1, 16773, Note_on_c, 0, 83, 13
1, 16774, Note_on_c, 0, 36, 70
1, 16774, Note_on_c, 0, 61, 34
1, 16774, Note_on_c, 0, 64, 37
1, 16774, Note_on_c, 0, 87, 9
1, 16775, Note_on_c, 0, 31, 75
1, 16775, Note_off_c, 0, 36, 64
1, 16775, Note_on_c, 0, 71, 32
1, 16775, Note_off_c, 0, 72, 64
1, 16776, Note_on_c, 0, 30, 80
1, 16776, Note_off_c, 0, 31, 64
1, 16776, Note_on_c, 0, 49, 61
1, 16776, Note_on_c, 0, 80, 14
1, 16776, Note_off_c, 0, 83, 64
1, 16777, Note_on_c, 0, 29, 80
1, 16777, Note_off_c, 0, 30, 64
1, 16777, Note_off_c, 0, 78, 64
1, 16777, Note_off_c, 0, 87, 64
1, 16778, Note_off_c, 0, 29, 64
1, 16778, Note_on_c, 0, 30, 77
1, 16778, Note_off_c, 0, 49, 64
1, 16780, Note_on_c, 0, 29, 75
1, 16780, Note_off_c, 0, 30, 64
1, 16780, Note_off_c, 0, 64, 64
1, 16780, Note_off_c, 0, 80, 64
1, 16780, Note_on_c, 0, 90, 9
1, 16781, Note_off_c, 0, 71, 64
1, 16782, Note_off_c, 0, 29, 64
1, 16782, Note_on_c, 0, 30, 69
1, 16782, Note_on_c, 0, 48, 36
1, 16783, Note_off_c, 0, 61, 64
1, 16783, Note_on_c, 0, 63, 35
1, 16784, Note_off_c, 0, 30, 64
1, 16784, Note_on_c, 0, 43, 68
1, 16784, Note_off_c, 0, 48, 64
1, 16784, Note_off_c, 0, 69, 64
1, 16784, Note_on_c, 0, 72, 34
1, 16785, Note_on_c, 0, 32, 74
1, 16785, Note_off_c, 0, 43, 64
1, 16785, Note_on_c, 0, 66, 38
1, 16785, Note_off_c, 0, 67, 64
1, 16785, Note_off_c, 0, 90, 64
1, 16786, Note_on_c, 0, 30, 82
1, 16786, Note_off_c, 0, 32, 64
1, 16786, Note_off_c, 0, 63, 64
1, 16786, Note_on_c, 0, 74, 23
1, 16786, Note_on_c, 0, 80, 27
1, 16786, Note_on_c, 0, 83, 14
1, 16787, Note_on_c, 0, 29, 82
1, 16787, Note_off_c, 0, 30, 64
1, 16787, Note_on_c, 0, 63, 26
1, 16787, Note_off_c, 0, 66, 64
1, 16787, Note_on_c, 0, 85, 30
1, 16788, Note_off_c, 0, 29, 64
1, 16788, Note_on_c, 0, 30, 80
1, 16789, Note_off_c, 0, 30, 64
1, 16789, Note_on_c, 0, 33, 74
1, 16789, Note_on_c, 0, 54, 45
1, 16789, Note_off_c, 0, 74, 64
1, 16789, Note_off_c, 0, 80, 64
1, 16790, Note_off_c, 0, 63, 64
1, 16790, Note_on_c, 0, 68, 31
1, 16790, Note_on_c, 0, 71, 33
1, 16790, Note_off_c, 0, 72, 64
1, 16791, Note_on_c, 0, 73, 44
1, 16791, Note_on_c, 0, 77, 38
1, 16791, Note_on_c, 0, 78, 32
1, 16791, Note_on_c, 0, 80, 34
1, 16791, Note_on_c, 0, 82, 32
1, 16791, Note_off_c, 0, 83, 64
1, 16791, Note_on_c, 0, 84, 32
1, 16791, Note_on_c, 0, 88, 25
1, 16792, Note_off_c, 0, 33, 64
1, 16792, Note_off_c, 0, 54, 64
1, 16792, Note_on_c, 0, 64, 52
1, 16792, Note_off_c, 0, 68, 64
1, 16792, Note_off_c, 0, 71, 64
1, 16792, Note_on_c, 0, 83, 33
1, 16792, Note_on_c, 0, 86, 32
1, 16793, Note_on_c, 0, 50, 74
1, 16793, Note_on_c, 0, 72, 30
1, 16793, Note_off_c, 0, 73, 64
1, 16794, Note_on_c, 0, 48, 86
1, 16794, Note_off_c, 0, 50, 64
1, 16794, Note_on_c, 0, 63, 16
1, 16794, Note_off_c, 0, 64, 64
1, 16794, Note_off_c, 0, 77, 64
1, 16794, Note_off_c, 0, 78, 64
1, 16794, Note_off_c, 0, 80, 64
1, 16794, Note_off_c, 0, 82, 64
1, 16794, Note_off_c, 0, 83, 64
1, 16794, Note_off_c, 0, 84, 64
1, 16794, Note_off_c, 0, 85, 64
1, 16794, Note_off_c, 0, 86, 64
1, 16794, Note_off_c, 0, 88, 64
1, 16795, Note_on_c, 0, 45, 95
1, 16795, Note_off_c, 0, 48, 64
1, 16795, Note_on_c, 0, 66, 25
1, 16795, Note_off_c, 0, 72, 64
1, 16796, Note_on_c, 0, 42, 100
1, 16796, Note_off_c, 0, 45, 64
1, 16797, Note_on_c, 0, 40, 97
1, 16797, Note_off_c, 0, 42, 64
1, 16798, Note_on_c, 0, 38, 98
1, 16798, Note_off_c, 0, 40, 64
1, 16799, Note_on_c, 0, 36, 98
1, 16799, Note_off_c, 0, 38, 64
1, 16799, Note_off_c, 0, 63, 64
1, 16800, Note_on_c, 0, 35, 97
1, 16800, Note_off_c, 0, 36, 64
1, 16801, Note_on_c, 0, 34, 96
1, 16801, Note_off_c, 0, 35, 64
1, 16802, Note_on_c, 0, 33, 96
1, 16802, Note_off_c, 0, 34, 64
1, 16803, Note_on_c, 0, 65, 22
1, 16803, Note_off_c, 0, 66, 64
1, 16804, Note_on_c, 0, 32, 97
1, 16804, Note_off_c, 0, 33, 64
1, 16805, Note_on_c, 0, 31, 97
1, 16805, Note_off_c, 0, 32, 64
1, 16807, Note_on_c, 0, 30, 89
1, 16807, Note_off_c, 0, 31, 64
1, 16808, Note_off_c, 0, 65, 64
1, 16810, Note_off_c, 0, 30, 64
1, 16810, Note_on_c, 0, 55, 48
1, 16810, Note_on_c, 0, 62, 37
1, 16810, Note_on_c, 0, 77, 25
1, 16811, Note_on_c, 0, 37, 67
1, 16811, Note_on_c, 0, 76, 24
1, 16811, Note_on_c, 0, 79, 14
1, 16811, Note_on_c, 0, 81, 12
1, 16811, Note_on_c, 0, 87, 14
1, 16812, Note_on_c, 0, 31, 74
1, 16812, Note_off_c, 0, 37, 64
1, 16812, Note_off_c, 0, 55, 64
1, 16812, Note_off_c, 0, 62, 64
1, 16812, Note_on_c, 0, 63, 33
1, 16812, Note_on_c, 0, 86, 16
1, 16813, Note_on_c, 0, 30, 80
1, 16813, Note_off_c, 0, 31, 64
1, 16814, Note_on_c, 0, 29, 81
1, 16814, Note_off_c, 0, 30, 64
1, 16814, Note_off_c, 0, 63, 64
1, 16814, Note_off_c, 0, 81, 64
1, 16815, Note_off_c, 0, 29, 64
1, 16815, Note_on_c, 0, 30, 78
1, 16815, Note_on_c, 0, 67, 32
1, 16815, Note_on_c, 0, 72, 37
1, 16815, Note_off_c, 0, 79, 64
1, 16815, Note_off_c, 0, 87, 64
1, 16816, Note_on_c, 0, 63, 32
1, 16816, Note_on_c, 0, 83, 14
1, 16816, Note_on_c, 0, 85, 15
1, 16816, Note_off_c, 0, 86, 64
1, 16817, Note_off_c, 0, 76, 64
1, 16818, Note_on_c, 0, 29, 74
1, 16818, Note_off_c, 0, 30, 64
1, 16818, Note_on_c, 0, 62, 28
1, 16818, Note_off_c, 0, 63, 64
1, 16819, Note_off_c, 0, 85, 64
1, 16820, Note_off_c, 0, 29, 64
1, 16820, Note_on_c, 0, 30, 66
1, 16820, Note_on_c, 0, 47, 61
1, 16821, Note_off_c, 0, 62, 64
1, 16821, Note_on_c, 0, 78, 27
1, 16821, Note_off_c, 0, 83, 64
1, 16821, Note_on_c, 0, 90, 30
1, 16821, Note_on_c, 0, 93, 17
1, 16822, Note_off_c, 0, 30, 64
1, 16822, Note_on_c, 0, 36, 72
1, 16822, Note_off_c, 0, 47, 64
1, 16822, Note_on_c, 0, 66, 22
1, 16822, Note_off_c, 0, 67, 64
1, 16822, Note_on_c, 0, 68, 25
1, 16822, Note_off_c, 0, 77, 64
1, 16822, Note_on_c, 0, 79, 17
1, 16822, Note_on_c, 0, 83, 33
1, 16823, Note_on_c, 0, 30, 79
1, 16823, Note_off_c, 0, 36, 64
1, 16823, Note_on_c, 0, 49, 61
1, 16823, Note_on_c, 0, 75, 41
1, 16824, Note_on_c, 0, 29, 82
1, 16824, Note_off_c, 0, 30, 64
1, 16824, Note_on_c, 0, 71, 29
1, 16824, Note_off_c, 0, 72, 64
1, 16824, Note_off_c, 0, 78, 64
1, 16826, Note_off_c, 0, 29, 64
1, 16826, Note_on_c, 0, 30, 76
1, 16826, Note_on_c, 0, 48, 59
1, 16826, Note_off_c, 0, 49, 64
1, 16826, Note_off_c, 0, 66, 64
1, 16826, Note_off_c, 0, 71, 64
1, 16826, Note_on_c, 0, 72, 34
1, 16827, Note_off_c, 0, 30, 64
1, 16827, Note_on_c, 0, 34, 69
1, 16827, Note_off_c, 0, 68, 64
1, 16827, Note_off_c, 0, 79, 64
1, 16827, Note_off_c, 0, 93, 64
1, 16828, Note_off_c, 0, 48, 64
1, 16828, Note_on_c, 0, 59, 44
1, 16828, Note_on_c, 0, 65, 42
1, 16828, Note_off_c, 0, 72, 64
1, 16828, Note_on_c, 0, 73, 39
1, 16828, Note_on_c, 0, 79, 34
1, 16828, Note_on_c, 0, 81, 34
1, 16828, Note_on_c, 0, 84, 33
1, 16828, Note_on_c, 0, 86, 30
1, 16828, Note_on_c, 0, 88, 27
1, 16828, Note_on_c, 0, 94, 24
1, 16829, Note_off_c, 0, 34, 64
1, 16829, Note_on_c, 0, 80, 34
1, 16830, Note_on_c, 0, 54, 66
1, 16830, Note_off_c, 0, 59, 64
1, 16830, Note_off_c, 0, 65, 64
1, 16830, Note_on_c, 0, 76, 32
1, 16831, Note_on_c, 0, 49, 82
1, 16831, Note_off_c, 0, 54, 64
1, 16831, Note_off_c, 0, 75, 64
1, 16831, Note_off_c, 0, 79, 64
1, 16831, Note_off_c, 0, 81, 64
1, 16831, Note_off_c, 0, 83, 64
1, 16831, Note_off_c, 0, 84, 64
1, 16831, Note_off_c, 0, 86, 64
1, 16831, Note_off_c, 0, 88, 64
1, 16831, Note_off_c, 0, 90, 64
1, 16831, Note_off_c, 0, 94, 64
1, 16832, Note_on_c, 0, 45, 93
1, 16832, Note_off_c, 0, 49, 64
1, 16832, Note_off_c, 0, 76, 64
1, 16832, Note_off_c, 0, 80, 64
1, 16833, Note_on_c, 0, 42, 98
1, 16833, Note_off_c, 0, 45, 64
1, 16834, Note_on_c, 0, 41, 100
1, 16834, Note_off_c, 0, 42, 64
1, 16835, Note_on_c, 0, 38, 98
1, 16835, Note_off_c, 0, 41, 64
1, 16835, Note_on_c, 0, 64, 15
1, 16836, Note_on_c, 0, 37, 98
1, 16836, Note_off_c, 0, 38, 64
1, 16837, Note_on_c, 0, 36, 97
1, 16837, Note_off_c, 0, 37, 64
1, 16837, Note_off_c, 0, 73, 64
1, 16838, Note_on_c, 0, 34, 96
1, 16838, Note_off_c, 0, 36, 64
1, 16840, Note_on_c, 0, 33, 95
1, 16840, Note_off_c, 0, 34, 64
1, 16841, Note_on_c, 0, 32, 96
1, 16841, Note_off_c, 0, 33, 64
1, 16843, Note_on_c, 0, 31, 96
1, 16843, Note_off_c, 0, 32, 64
1, 16843, Note_on_c, 0, 63, 12
1, 16843, Note_off_c, 0, 64, 64
1, 16844, Note_on_c, 0, 30, 92
1, 16844, Note_off_c, 0, 31, 64
1, 16844, Note_on_c, 0, 74, 21
1, 16847, Note_off_c, 0, 30, 64
1, 16847, Note_on_c, 0, 71, 27
1, 16848, Note_off_c, 0, 63, 64
1, 16848, Note_on_c, 0, 76, 18
1, 16848, Note_on_c, 0, 85, 15
1, 16849, Note_on_c, 0, 36, 69
1, 16849, Note_on_c, 0, 54, 55
1, 16849, Note_on_c, 0, 61, 36
1, 16849, Note_on_c, 0, 82, 14
1, 16850, Note_on_c, 0, 30, 80
1, 16850, Note_off_c, 0, 36, 64
1, 16850, Note_off_c, 0, 71, 64
1, 16850, Note_off_c, 0, 74, 64
1, 16851, Note_on_c, 0, 60, 30
1, 16851, Note_off_c, 0, 61, 64
1, 16851, Note_on_c, 0, 63, 28
1, 16851, Note_on_c, 0, 73, 16
1, 16851, Note_on_c, 0, 75, 35
1, 16851, Note_off_c, 0, 76, 64
1, 16851, Note_on_c, 0, 80, 11
1, 16852, Note_on_c, 0, 29, 79
1, 16852, Note_off_c, 0, 30, 64
1, 16852, Note_off_c, 0, 54, 64
1, 16852, Note_off_c, 0, 82, 64
1, 16853, Note_off_c, 0, 29, 64
1, 16853, Note_on_c, 0, 30, 76
1, 16853, Note_off_c, 0, 60, 64
1, 16853, Note_on_c, 0, 61, 19
1, 16853, Note_on_c, 0, 65, 13
1, 16853, Note_on_c, 0, 71, 28
1, 16853, Note_on_c, 0, 77, 22
1, 16854, Note_off_c, 0, 63, 64
1, 16854, Note_off_c, 0, 73, 64
1, 16855, Note_on_c, 0, 29, 75
1, 16855, Note_off_c, 0, 30, 64
1, 16856, Note_off_c, 0, 61, 64
1, 16856, Note_off_c, 0, 65, 64
1, 16856, Note_off_c, 0, 71, 64
1, 16856, Note_off_c, 0, 77, 64
1, 16857, Note_off_c, 0, 29, 64
1, 16857, Note_on_c, 0, 30, 69
1, 16857, Note_on_c, 0, 74, 45
1, 16857, Note_off_c, 0, 75, 64
1, 16857, Note_on_c, 0, 77, 25
1, 16857, Note_off_c, 0, 80, 64
1, 16857, Note_off_c, 0, 85, 64
1, 16858, Note_on_c, 0, 62, 38
1, 16858, Note_on_c, 0, 72, 23
1, 16858, Note_on_c, 0, 78, 29
1, 16859, Note_off_c, 0, 30, 64
1, 16859, Note_on_c, 0, 42, 69
1, 16859, Note_on_c, 0, 70, 29
1, 16860, Note_on_c, 0, 31, 75
1, 16860, Note_off_c, 0, 42, 64
1, 16860, Note_off_c, 0, 62, 64
1, 16860, Note_on_c, 0, 64, 38
1, 16861, Note_on_c, 0, 30, 82
1, 16861, Note_off_c, 0, 31, 64
1, 16861, Note_off_c, 0, 70, 64
1, 16861, Note_off_c, 0, 72, 64
1, 16861, Note_off_c, 0, 77, 64
1, 16862, Note_on_c, 0, 29, 82
1, 16862, Note_off_c, 0, 30, 64
1, 16862, Note_on_c, 0, 84, 19
1, 16862, Note_on_c, 0, 95, 23
1, 16863, Note_off_c, 0, 29, 64
1, 16863, Note_on_c, 0, 30, 79
1, 16863, Note_off_c, 0, 64, 64
1, 16864, Note_off_c, 0, 30, 64
1, 16864, Note_on_c, 0, 34, 73
1, 16864, Note_on_c, 0, 54, 43
1, 16865, Note_on_c, 0, 33, 62
1, 16865, Note_off_c, 0, 34, 64
1, 16865, Note_on_c, 0, 83, 34
1, 16865, Note_off_c, 0, 84, 64
1, 16866, Note_off_c, 0, 54, 64
1, 16866, Note_on_c, 0, 77, 43
1, 16866, Note_off_c, 0, 78, 64
1, 16866, Note_on_c, 0, 79, 33
1, 16866, Note_on_c, 0, 85, 31
1, 16866, Note_on_c, 0, 94, 23
1, 16867, Note_off_c, 0, 33, 64
1, 16867, Note_on_c, 0, 69, 45
1, 16867, Note_on_c, 0, 72, 43
1, 16868, Note_on_c, 0, 50, 76
1, 16868, Note_off_c, 0, 83, 64
1, 16868, Note_off_c, 0, 95, 64
1, 16869, Note_on_c, 0, 48, 86
1, 16869, Note_off_c, 0, 50, 64
1, 16869, Note_off_c, 0, 69, 64
1, 16869, Note_off_c, 0, 72, 64
1, 16869, Note_on_c, 0, 75, 21
1, 16869, Note_off_c, 0, 77, 64
1, 16869, Note_off_c, 0, 79, 64
1, 16869, Note_off_c, 0, 85, 64
1, 16869, Note_off_c, 0, 94, 64
1, 16870, Note_on_c, 0, 44, 95
1, 16870, Note_off_c, 0, 48, 64
1, 16870, Note_on_c, 0, 68, 15
1, 16870, Note_off_c, 0, 74, 64
1, 16871, Note_on_c, 0, 41, 100
1, 16871, Note_off_c, 0, 44, 64
1, 16872, Note_on_c, 0, 39, 97
1, 16872, Note_off_c, 0, 41, 64
1, 16873, Note_on_c, 0, 38, 98
1, 16873, Note_off_c, 0, 39, 64
1, 16874, Note_on_c, 0, 36, 98
1, 16874, Note_off_c, 0, 38, 64
1, 16874, Note_off_c, 0, 68, 64
1, 16875, Note_on_c, 0, 35, 97
1, 16875, Note_off_c, 0, 36, 64
1, 16875, Note_off_c, 0, 75, 64
1, 16876, Note_on_c, 0, 34, 96
1, 16876, Note_off_c, 0, 35, 64
1, 16876, Note_on_c, 0, 72, 19
1, 16877, Note_on_c, 0, 33, 95
1, 16877, Note_off_c, 0, 34, 64
1, 16878, Note_on_c, 0, 32, 96
1, 16878, Note_off_c, 0, 33, 64
1, 16880, Note_on_c, 0, 31, 95
1, 16880, Note_off_c, 0, 32, 64
1, 16882, Note_on_c, 0, 30, 86
1, 16882, Note_off_c, 0, 31, 64
1, 16882, Note_on_c, 0, 66, 12
1, 16883, Note_on_c, 0, 80, 18
1, 16884, Note_off_c, 0, 72, 64
1, 16884, Note_on_c, 0, 75, 25
1, 16885, Note_off_c, 0, 30, 64
1, 16885, Note_on_c, 0, 78, 18
1, 16886, Note_off_c, 0, 66, 64
1, 16887, Note_on_c, 0, 63, 17
1, 16887, Note_on_c, 0, 70, 25
1, 16887, Note_on_c, 0, 72, 16
1, 16889, Note_on_c, 0, 67, 24
1, 16889, Note_off_c, 0, 78, 64
1, 16889, Note_off_c, 0, 80, 64
1, 16890, Note_off_c, 0, 75, 64
1, 16890, Note_on_c, 0, 76, 45
1, 16890, Note_on_c, 0, 81, 17
1, 16892, Note_off_c, 0, 72, 64
1, 16893, Note_off_c, 0, 63, 64
1, 16893, Note_off_c, 0, 67, 64
1, 16893, Note_on_c, 0, 68, 29
1, 16893, Note_off_c, 0, 70, 64
1, 16893, Note_on_c, 0, 74, 29
1, 16893, Note_on_c, 0, 83, 19
1, 16894, Note_on_c, 0, 63, 9
1, 16895, Note_on_c, 0, 58, 20
1, 16896, Note_on_c, 0, 73, 27
1, 16896, Note_off_c, 0, 74, 64
1, 16896, Note_off_c, 0, 81, 64
1, 16896, Note_on_c, 0, 94, 10
1, 16897, Note_off_c, 0, 63, 64
1, 16897, Note_on_c, 0, 84, 16
1, 16898, Note_on_c, 0, 78, 10
1, 16898, Note_on_c, 0, 81, 15
1, 16898, Note_off_c, 0, 83, 64
1, 16899, Note_on_c, 0, 75, 29
1, 16900, Note_off_c, 0, 58, 64
1, 16900, Note_on_c, 0, 85, 38
1, 16900, Note_off_c, 0, 94, 64
1, 16901, Note_off_c, 0, 73, 64
1, 16901, Note_on_c, 0, 74, 28
1, 16901, Note_off_c, 0, 76, 64
1, 16901, Note_on_c, 0, 77, 37
1, 16901, Note_off_c, 0, 78, 64
1, 16902, Note_on_c, 0, 71, 32
1, 16902, Note_off_c, 0, 75, 64
1, 16902, Note_off_c, 0, 81, 64
1, 16902, Note_off_c, 0, 84, 64
1, 16903, Note_off_c, 0, 68, 64
1, 16903, Note_on_c, 0, 69, 46
1, 16903, Note_on_c, 0, 79, 36
1, 16903, Note_on_c, 0, 82, 35
1, 16903, Note_on_c, 0, 83, 36
1, 16903, Note_on_c, 0, 84, 35
1, 16903, Note_on_c, 0, 86, 33
1, 16903, Note_on_c, 0, 88, 28
1, 16903, Note_on_c, 0, 90, 29
1, 16903, Note_on_c, 0, 92, 28
1, 16903, Note_on_c, 0, 93, 26
1, 16903, Note_on_c, 0, 99, 20
1, 16904, Note_off_c, 0, 71, 64
1, 16904, Note_on_c, 0, 72, 45
1, 16904, Note_off_c, 0, 74, 64
1, 16905, Note_on_c, 0, 50, 73
1, 16905, Note_on_c, 0, 68, 42
1, 16905, Note_on_c, 0, 76, 32
1, 16905, Note_off_c, 0, 82, 64
1, 16905, Note_off_c, 0, 86, 64
1, 16906, Note_on_c, 0, 49, 83
1, 16906, Note_off_c, 0, 50, 64
1, 16906, Note_off_c, 0, 69, 64
1, 16906, Note_off_c, 0, 77, 64
1, 16906, Note_off_c, 0, 83, 64
1, 16906, Note_off_c, 0, 84, 64
1, 16906, Note_off_c, 0, 85, 64
1, 16906, Note_off_c, 0, 88, 64
1, 16906, Note_off_c, 0, 90, 64
1, 16906, Note_off_c, 0, 92, 64
1, 16906, Note_off_c, 0, 93, 64
1, 16906, Note_off_c, 0, 99, 64
1, 16907, Note_on_c, 0, 45, 94
1, 16907, Note_off_c, 0, 49, 64
1, 16907, Note_off_c, 0, 76, 64
1, 16907, Note_on_c, 0, 78, 32
1, 16907, Note_off_c, 0, 79, 64
1, 16908, Note_on_c, 0, 42, 99
1, 16908, Note_off_c, 0, 45, 64
1, 16908, Note_off_c, 0, 68, 64
1, 16908, Note_off_c, 0, 72, 64
1, 16909, Note_on_c, 0, 41, 99
1, 16909, Note_off_c, 0, 42, 64
1, 16910, Note_on_c, 0, 38, 99
1, 16910, Note_off_c, 0, 41, 64
1, 16910, Note_on_c, 0, 74, 15
1, 16911, Note_on_c, 0, 37, 98
1, 16911, Note_off_c, 0, 38, 64
1, 16912, Note_on_c, 0, 36, 97
1, 16912, Note_off_c, 0, 37, 64
1, 16913, Note_on_c, 0, 34, 96
1, 16913, Note_off_c, 0, 36, 64
1, 16914, Note_off_c, 0, 74, 64
1, 16914, Note_on_c, 0, 75, 16
1, 16915, Note_on_c, 0, 32, 96
1, 16915, Note_off_c, 0, 34, 64
1, 16915, Note_on_c, 0, 53, 37
1, 16916, Note_off_c, 0, 78, 64
1, 16916, Note_on_c, 0, 79, 17
1, 16917, Note_on_c, 0, 76, 14
1, 16918, Note_on_c, 0, 31, 94
1, 16918, Note_off_c, 0, 32, 64
1, 16918, Note_on_c, 0, 52, 32
1, 16918, Note_off_c, 0, 53, 64
1, 16919, Note_on_c, 0, 62, 28
1, 16919, Note_on_c, 0, 78, 33
1, 16919, Note_off_c, 0, 79, 64
1, 16920, Note_on_c, 0, 30, 79
1, 16920, Note_off_c, 0, 31, 64
1, 16920, Note_off_c, 0, 52, 64
1, 16920, Note_off_c, 0, 75, 64
1, 16921, Note_on_c, 0, 74, 40
1, 16922, Note_off_c, 0, 30, 64
1, 16922, Note_off_c, 0, 76, 64
1, 16923, Note_on_c, 0, 51, 43
1, 16923, Note_on_c, 0, 76, 26
1, 16923, Note_off_c, 0, 78, 64
1, 16923, Note_on_c, 0, 80, 44
1, 16925, Note_off_c, 0, 51, 64
1, 16925, Note_on_c, 0, 61, 33
1, 16925, Note_off_c, 0, 62, 64
1, 16926, Note_on_c, 0, 51, 52
1, 16927, Note_off_c, 0, 61, 64
1, 16927, Note_off_c, 0, 76, 64
1, 16927, Note_off_c, 0, 80, 64
1, 16927, Note_on_c, 0, 81, 29
1, 16928, Note_on_c, 0, 72, 21
1, 16928, Note_off_c, 0, 74, 64
1, 16928, Note_on_c, 0, 75, 36
1, 16929, Note_on_c, 0, 74, 28
1, 16930, Note_on_c, 0, 64, 22
1, 16930, Note_off_c, 0, 81, 64
1, 16931, Note_off_c, 0, 72, 64
1, 16931, Note_on_c, 0, 78, 32
1, 16931, Note_on_c, 0, 80, 45
1, 16932, Note_off_c, 0, 51, 64
1, 16932, Note_on_c, 0, 73, 32
1, 16932, Note_off_c, 0, 74, 64
1, 16932, Note_on_c, 0, 76, 34
1, 16932, Note_on_c, 0, 84, 21
1, 16933, Note_on_c, 0, 58, 50
1, 16933, Note_off_c, 0, 64, 64
1, 16933, Note_on_c, 0, 71, 19
1, 16933, Note_off_c, 0, 75, 64
1, 16934, Note_on_c, 0, 66, 29
1, 16934, Note_off_c, 0, 73, 64
1, 16934, Note_off_c, 0, 80, 64
1, 16934, Note_on_c, 0, 81, 50
1, 16935, Note_on_c, 0, 48, 35
1, 16935, Note_on_c, 0, 68, 28
1, 16935, Note_on_c, 0, 75, 29
1, 16935, Note_on_c, 0, 79, 32
1, 16935, Note_on_c, 0, 80, 36
1, 16935, Note_off_c, 0, 84, 64
1, 16936, Note_off_c, 0, 58, 64
1, 16936, Note_off_c, 0, 66, 64
1, 16936, Note_off_c, 0, 71, 64
1, 16936, Note_on_c, 0, 72, 31
1, 16936, Note_off_c, 0, 78, 64
1, 16937, Note_on_c, 0, 64, 17
1, 16937, Note_off_c, 0, 75, 64
1, 16939, Note_on_c, 0, 47, 27
1, 16939, Note_off_c, 0, 48, 64
1, 16939, Note_off_c, 0, 68, 64
1, 16939, Note_on_c, 0, 74, 24
1, 16940, Note_on_c, 0, 78, 31
1, 16940, Note_off_c, 0, 80, 64
1, 16940, Note_on_c, 0, 83, 14
1, 16941, Note_on_c, 0, 59, 43
1, 16941, Note_off_c, 0, 64, 64
1, 16941, Note_on_c, 0, 75, 24
1, 16941, Note_off_c, 0, 76, 64
1, 16941, Note_off_c, 0, 79, 64
1, 16942, Note_on_c, 0, 68, 49
1, 16942, Note_off_c, 0, 74, 64
1, 16942, Note_on_c, 0, 79, 37
1, 16942, Note_on_c, 0, 88, 9
1, 16943, Note_on_c, 0, 58, 55
1, 16943, Note_off_c, 0, 59, 64
1, 16943, Note_off_c, 0, 72, 64
1, 16943, Note_off_c, 0, 78, 64
1, 16943, Note_off_c, 0, 81, 64
1, 16943, Note_off_c, 0, 83, 64
1, 16944, Note_off_c, 0, 47, 64
1, 16944, Note_on_c, 0, 67, 17
1, 16944, Note_off_c, 0, 68, 64
1, 16944, Note_on_c, 0, 81, 34
1, 16945, Note_on_c, 0, 47, 24
1, 16945, Note_off_c, 0, 88, 64
1, 16947, Note_on_c, 0, 63, 17
1, 16947, Note_on_c, 0, 74, 22
1, 16947, Note_off_c, 0, 75, 64
1, 16948, Note_off_c, 0, 47, 64
1, 16948, Note_off_c, 0, 67, 64
1, 16949, Note_off_c, 0, 58, 64
1, 16949, Note_off_c, 0, 79, 64
1, 16949, Note_on_c, 0, 82, 28
1, 16949, Note_on_c, 0, 83, 17
1, 16950, Note_off_c, 0, 63, 64
1, 16950, Note_on_c, 0, 64, 36
1, 16950, Note_off_c, 0, 74, 64
1, 16951, Note_on_c, 0, 50, 33
1, 16952, Note_off_c, 0, 64, 64
1, 16952, Note_on_c, 0, 67, 46
1, 16952, Note_on_c, 0, 76, 12
1, 16952, Note_on_c, 0, 80, 20
1, 16952, Note_off_c, 0, 83, 64
1, 16954, Note_off_c, 0, 50, 64
1, 16955, Note_on_c, 0, 48, 45
1, 16955, Note_on_c, 0, 66, 31
1, 16955, Note_off_c, 0, 67, 64
1, 16955, Note_off_c, 0, 80, 64
1, 16955, Note_off_c, 0, 82, 64
1, 16956, Note_on_c, 0, 64, 27
1, 16956, Note_on_c, 0, 70, 18
1, 16956, Note_on_c, 0, 74, 15
1, 16956, Note_off_c, 0, 81, 64
1, 16956, Note_on_c, 0, 82, 41
1, 16957, Note_off_c, 0, 66, 64
1, 16957, Note_on_c, 0, 83, 29
1, 16958, Note_on_c, 0, 77, 25
1, 16959, Note_off_c, 0, 64, 64
1, 16959, Note_on_c, 0, 66, 25
1, 16959, Note_on_c, 0, 73, 26
1, 16959, Note_off_c, 0, 74, 64
1, 16959, Note_off_c, 0, 76, 64
1, 16959, Note_on_c, 0, 81, 32
1, 16959, Note_off_c, 0, 83, 64
1, 16960, Note_on_c, 0, 47, 35
1, 16960, Note_off_c, 0, 48, 64
1, 16961, Note_on_c, 0, 58, 53
1, 16961, Note_off_c, 0, 70, 64
1, 16961, Note_off_c, 0, 77, 64
1, 16962, Note_off_c, 0, 47, 64
1, 16962, Note_on_c, 0, 78, 28
1, 16962, Note_off_c, 0, 82, 64
1, 16962, Note_on_c, 0, 83, 50
1, 16962, Note_on_c, 0, 88, 15
1, 16963, Note_on_c, 0, 48, 55
1, 16963, Note_on_c, 0, 64, 24
1, 16963, Note_off_c, 0, 66, 64
1, 16963, Note_on_c, 0, 75, 33
1, 16964, Note_off_c, 0, 73, 64
1, 16964, Note_on_c, 0, 74, 31
1, 16964, Note_on_c, 0, 79, 26
1, 16964, Note_on_c, 0, 85, 19
1, 16965, Note_off_c, 0, 58, 64
1, 16966, Note_on_c, 0, 47, 55
1, 16966, Note_off_c, 0, 48, 64
1, 16966, Note_off_c, 0, 75, 64
1, 16966, Note_on_c, 0, 76, 30
1, 16966, Note_off_c, 0, 88, 64
1, 16967, Note_off_c, 0, 64, 64
1, 16967, Note_off_c, 0, 81, 64
1, 16967, Note_off_c, 0, 85, 64
1, 16968, Note_off_c, 0, 76, 64
1, 16968, Note_off_c, 0, 78, 64
1, 16968, Note_on_c, 0, 82, 45
1, 16969, Note_on_c, 0, 61, 47
1, 16969, Note_on_c, 0, 67, 35
1, 16969, Note_on_c, 0, 76, 40
1, 16969, Note_on_c, 0, 78, 42
1, 16969, Note_off_c, 0, 79, 64
1, 16969, Note_on_c, 0, 81, 38
1, 16969, Note_on_c, 0, 84, 40
1, 16969, Note_on_c, 0, 100, 19
1, 16970, Note_off_c, 0, 74, 64
1, 16970, Note_off_c, 0, 82, 64
1, 16970, Note_on_c, 0, 85, 30
1, 16971, Note_off_c, 0, 47, 64
1, 16971, Note_on_c, 0, 52, 38
1, 16971, Note_on_c, 0, 58, 54
1, 16971, Note_off_c, 0, 61, 64
1, 16971, Note_off_c, 0, 67, 64
1, 16971, Note_off_c, 0, 84, 64
1, 16971, Note_on_c, 0, 86, 24
1, 16972, Note_on_c, 0, 79, 40
1, 16972, Note_off_c, 0, 81, 64
1, 16972, Note_on_c, 0, 82, 31
1, 16972, Note_on_c, 0, 92, 14
1, 16972, Note_on_c, 0, 93, 15
1, 16973, Note_on_c, 0, 84, 40
1, 16973, Note_off_c, 0, 85, 64
1, 16974, Note_on_c, 0, 51, 41
1, 16974, Note_off_c, 0, 52, 64
1, 16974, Note_on_c, 0, 71, 17
1, 16974, Note_off_c, 0, 83, 64
1, 16974, Note_off_c, 0, 100, 64
1, 16975, Note_on_c, 0, 73, 10
1, 16975, Note_on_c, 0, 75, 36
1, 16975, Note_off_c, 0, 86, 64
1, 16976, Note_off_c, 0, 51, 64
1, 16976, Note_on_c, 0, 69, 29
1, 16976, Note_off_c, 0, 76, 64
1, 16976, Note_on_c, 0, 77, 32
1, 16976, Note_off_c, 0, 79, 64
1, 16976, Note_off_c, 0, 93, 64
1, 16977, Note_on_c, 0, 51, 39
1, 16977, Note_off_c, 0, 58, 64
1, 16977, Note_off_c, 0, 71, 64
1, 16977, Note_on_c, 0, 83, 53
1, 16978, Note_on_c, 0, 64, 32
1, 16978, Note_off_c, 0, 73, 64
1, 16978, Note_on_c, 0, 74, 45
1, 16978, Note_on_c, 0, 85, 36
1, 16978, Note_on_c, 0, 86, 46
1, 16978, Note_off_c, 0, 92, 64
1, 16979, Note_off_c, 0, 51, 64
1, 16979, Note_on_c, 0, 71, 19
1, 16979, Note_off_c, 0, 75, 64
1, 16979, Note_off_c, 0, 77, 64
1, 16979, Note_off_c, 0, 78, 64
1, 16979, Note_on_c, 0, 79, 45
1, 16979, Note_on_c, 0, 81, 52
1, 16979, Note_off_c, 0, 82, 64
1, 16979, Note_off_c, 0, 84, 64
1, 16979, Note_on_c, 0, 89, 35
1, 16979, Note_on_c, 0, 94, 26
1, 16980, Note_on_c, 0, 51, 40
1, 16980, Note_off_c, 0, 64, 64
1, 16980, Note_on_c, 0, 67, 19
1, 16980, Note_on_c, 0, 84, 39
1, 16980, Note_off_c, 0, 85, 64
1, 16980, Note_on_c, 0, 90, 30
1, 16980, Note_on_c, 0, 92, 15
1, 16980, Note_on_c, 0, 97, 20
1, 16980, Note_on_c, 0, 100, 9
1, 16982, Note_off_c, 0, 51, 64
1, 16982, Note_on_c, 0, 52, 33
1, 16982, Note_off_c, 0, 69, 64
1, 16982, Note_off_c, 0, 71, 64
1, 16983, Note_on_c, 0, 71, 23
1, 16983, Note_off_c, 0, 100, 64
1, 16984, Note_off_c, 0, 84, 64
1, 16984, Note_on_c, 0, 85, 41
1, 16985, Note_on_c, 0, 30, 35
1, 16986, Note_on_c, 0, 51, 37
1, 16986, Note_off_c, 0, 52, 64
1, 16986, Note_on_c, 0, 77, 41
1, 16986, Note_off_c, 0, 92, 64
1, 16987, Note_on_c, 0, 29, 34
1, 16987, Note_off_c, 0, 30, 64
1, 16987, Note_off_c, 0, 67, 64
1, 16988, Note_on_c, 0, 61, 34
1, 16988, Note_on_c, 0, 69, 23
1, 16988, Note_on_c, 0, 84, 39
1, 16988, Note_off_c, 0, 85, 64
1, 16988, Note_off_c, 0, 94, 64
1, 16989, Note_off_c, 0, 29, 64
1, 16989, Note_on_c, 0, 87, 23
1, 16990, Note_off_c, 0, 51, 64
1, 16990, Note_on_c, 0, 53, 43
1, 16990, Note_off_c, 0, 84, 64
1, 16990, Note_on_c, 0, 85, 40
1, 16990, Note_on_c, 0, 92, 27
1, 16992, Note_on_c, 0, 52, 48
1, 16992, Note_off_c, 0, 53, 64
1, 16992, Note_off_c, 0, 61, 64
1, 16992, Note_on_c, 0, 68, 14
1, 16992, Note_off_c, 0, 69, 64
1, 16992, Note_on_c, 0, 72, 20
1, 16992, Note_on_c, 0, 88, 26
1, 16993, Note_off_c, 0, 71, 64
1, 16993, Note_off_c, 0, 85, 64
1, 16993, Note_on_c, 0, 94, 14
1, 16994, Note_on_c, 0, 61, 38
1, 16994, Note_on_c, 0, 85, 37
1, 16994, Note_off_c, 0, 87, 64
1, 16994, Note_off_c, 0, 89, 64
1, 16995, Note_on_c, 0, 47, 30
1, 16995, Note_off_c, 0, 72, 64
1, 16995, Note_on_c, 0, 73, 38
1, 16995, Note_on_c, 0, 89, 51
1, 16996, Note_off_c, 0, 52, 64
1, 16996, Note_off_c, 0, 85, 64
1, 16996, Note_on_c, 0, 87, 41
1, 16997, Note_on_c, 0, 51, 37
1, 16997, Note_off_c, 0, 61, 64
1, 16997, Note_off_c, 0, 68, 64
1, 16997, Note_off_c, 0, 74, 64
1, 16997, Note_on_c, 0, 75, 28
1, 16997, Note_off_c, 0, 77, 64
1, 16997, Note_on_c, 0, 78, 35
1, 16997, Note_off_c, 0, 88, 64
1, 16997, Note_off_c, 0, 94, 64
1, 16997, Note_off_c, 0, 97, 64
1, 16997, Note_on_c, 0, 100, 21
1, 16998, Note_off_c, 0, 47, 64
1, 16998, Note_off_c, 0, 79, 64
1, 16998, Note_on_c, 0, 84, 38
1, 16998, Note_on_c, 0, 91, 32
1, 16999, Note_off_c, 0, 51, 64
1, 16999, Note_on_c, 0, 58, 52
1, 16999, Note_on_c, 0, 67, 39
1, 16999, Note_on_c, 0, 77, 39
1, 16999, Note_on_c, 0, 85, 38
1, 16999, Note_off_c, 0, 86, 64
1, 16999, Note_off_c, 0, 92, 64
1, 16999, Note_on_c, 0, 94, 28
1, 17000, Note_on_c, 0, 48, 44
1, 17000, Note_on_c, 0, 69, 33
1, 17000, Note_off_c, 0, 78, 64
1, 17000, Note_on_c, 0, 79, 44
1, 17000, Note_off_c, 0, 84, 64
1, 17000, Note_on_c, 0, 96, 20
1, 17001, Note_on_c, 0, 88, 33
1, 17001, Note_off_c, 0, 91, 64
1, 17001, Note_on_c, 0, 98, 9
1, 17002, Note_on_c, 0, 47, 42
1, 17002, Note_off_c, 0, 48, 64
1, 17002, Note_off_c, 0, 73, 64
1, 17002, Note_on_c, 0, 74, 44
1, 17002, Note_off_c, 0, 75, 64
1, 17002, Note_off_c, 0, 90, 64
1, 17002, Note_on_c, 0, 92, 30
1, 17003, Note_off_c, 0, 67, 64
1, 17003, Note_on_c, 0, 78, 41
1, 17004, Note_off_c, 0, 47, 64
1, 17004, Note_on_c, 0, 64, 30
1, 17004, Note_on_c, 0, 71, 35
1, 17004, Note_off_c, 0, 88, 64
1, 17004, Note_off_c, 0, 98, 64
1, 17005, Note_off_c, 0, 77, 64
1, 17005, Note_off_c, 0, 79, 64
1, 17006, Note_on_c, 0, 48, 49
1, 17006, Note_off_c, 0, 69, 64
1, 17006, Note_on_c, 0, 77, 33
1, 17006, Note_off_c, 0, 100, 64
1, 17007, Note_off_c, 0, 58, 64
1, 17007, Note_off_c, 0, 64, 64
1, 17007, Note_on_c, 0, 79, 46
1, 17008, Note_on_c, 0, 58, 43
1, 17008, Note_on_c, 0, 65, 32
1, 17008, Note_on_c, 0, 67, 22
1, 17008, Note_on_c, 0, 72, 28
1, 17008, Note_off_c, 0, 77, 64
1, 17008, Note_off_c, 0, 78, 64
1, 17008, Note_on_c, 0, 98, 23
1, 17009, Note_off_c, 0, 48, 64
1, 17009, Note_on_c, 0, 49, 34
1, 17009, Note_off_c, 0, 71, 64
1, 17009, Note_on_c, 0, 77, 38
1, 17009, Note_on_c, 0, 78, 37
1, 17010, Note_on_c, 0, 57, 28
1, 17010, Note_off_c, 0, 58, 64
1, 17010, Note_off_c, 0, 65, 64
1, 17010, Note_off_c, 0, 79, 64
1, 17010, Note_on_c, 0, 90, 39
1, 17010, Note_off_c, 0, 96, 64
1, 17011, Note_off_c, 0, 49, 64
1, 17011, Note_off_c, 0, 72, 64
1, 17011, Note_off_c, 0, 78, 64
1, 17011, Note_on_c, 0, 79, 43
1, 17012, Note_on_c, 0, 48, 38
1, 17012, Note_off_c, 0, 67, 64
1, 17012, Note_on_c, 0, 71, 32
1, 17012, Note_on_c, 0, 100, 18
1, 17013, Note_off_c, 0, 57, 64
1, 17013, Note_on_c, 0, 69, 25
1, 17014, Note_off_c, 0, 71, 64
1, 17014, Note_on_c, 0, 72, 37
1, 17015, Note_off_c, 0, 81, 64
1, 17016, Note_off_c, 0, 48, 64
1, 17016, Note_on_c, 0, 49, 37
1, 17016, Note_off_c, 0, 87, 64
1, 17016, Note_on_c, 0, 88, 19
1, 17016, Note_off_c, 0, 94, 64
1, 17016, Note_off_c, 0, 98, 64
1, 17017, Note_off_c, 0, 69, 64
1, 17017, Note_off_c, 0, 72, 64
1, 17017, Note_on_c, 0, 81, 37
1, 17017, Note_off_c, 0, 85, 64
1, 17017, Note_off_c, 0, 100, 64
1, 17018, Note_on_c, 0, 48, 52
1, 17018, Note_off_c, 0, 49, 64
1, 17018, Note_on_c, 0, 58, 39
1, 17018, Note_off_c, 0, 89, 64
1, 17018, Note_off_c, 0, 92, 64
1, 17020, Note_on_c, 0, 47, 48
1, 17020, Note_off_c, 0, 48, 64
1, 17020, Note_on_c, 0, 57, 32
1, 17020, Note_off_c, 0, 58, 64
1, 17020, Note_on_c, 0, 76, 31
1, 17020, Note_off_c, 0, 77, 64
1, 17020, Note_on_c, 0, 85, 32
1, 17021, Note_on_c, 0, 71, 22
1, 17021, Note_on_c, 0, 77, 36
1, 17021, Note_off_c, 0, 88, 64
1, 17021, Note_on_c, 0, 89, 39
1, 17022, Note_off_c, 0, 74, 64
1, 17022, Note_on_c, 0, 75, 43
1, 17022, Note_off_c, 0, 76, 64
1, 17022, Note_on_c, 0, 84, 23
1, 17022, Note_on_c, 0, 88, 27
1, 17022, Note_on_c, 0, 92, 25
1, 17023, Note_on_c, 0, 73, 32
1, 17023, Note_on_c, 0, 94, 26
1, 17024, Note_off_c, 0, 47, 64
1, 17024, Note_off_c, 0, 57, 64
1, 17024, Note_on_c, 0, 68, 47
1, 17025, Note_on_c, 0, 57, 39
1, 17025, Note_off_c, 0, 71, 64
1, 17025, Note_off_c, 0, 77, 64
1, 17025, Note_on_c, 0, 78, 29
1, 17025, Note_off_c, 0, 79, 64
1, 17025, Note_off_c, 0, 84, 64
1, 17026, Note_on_c, 0, 46, 50
1, 17026, Note_off_c, 0, 81, 64
1, 17026, Note_on_c, 0, 84, 25
1, 17026, Note_off_c, 0, 88, 64
1, 17027, Note_off_c, 0, 57, 64
1, 17027, Note_on_c, 0, 60, 36
1, 17027, Note_off_c, 0, 73, 64
1, 17027, Note_off_c, 0, 78, 64
1, 17027, Note_on_c, 0, 81, 19
1, 17028, Note_off_c, 0, 46, 64
1, 17028, Note_on_c, 0, 47, 45
1, 17028, Note_on_c, 0, 74, 34
1, 17028, Note_on_c, 0, 78, 28
1, 17029, Note_off_c, 0, 60, 64
1, 17029, Note_off_c, 0, 84, 64
1, 17029, Note_on_c, 0, 96, 25
1, 17030, Note_on_c, 0, 54, 35
1, 17030, Note_on_c, 0, 60, 23
1, 17030, Note_off_c, 0, 81, 64
1, 17030, Note_off_c, 0, 85, 64
1, 17030, Note_on_c, 0, 88, 26
1, 17031, Note_on_c, 0, 46, 45
1, 17031, Note_off_c, 0, 47, 64
1, 17031, Note_off_c, 0, 78, 64
1, 17031, Note_on_c, 0, 85, 34
1, 17031, Note_on_c, 0, 93, 45
1, 17032, Note_off_c, 0, 68, 64
1, 17032, Note_on_c, 0, 69, 50
1, 17032, Note_off_c, 0, 74, 64
1, 17032, Note_on_c, 0, 78, 26
1, 17032, Note_on_c, 0, 98, 27
1, 17033, Note_off_c, 0, 46, 64
1, 17033, Note_off_c, 0, 60, 64
1, 17033, Note_on_c, 0, 74, 32
1, 17033, Note_off_c, 0, 75, 64
1, 17033, Note_on_c, 0, 76, 44
1, 17033, Note_on_c, 0, 82, 29
1, 17033, Note_on_c, 0, 84, 21
1, 17033, Note_off_c, 0, 94, 64
1, 17034, Note_on_c, 0, 66, 50
1, 17034, Note_on_c, 0, 79, 56
1, 17035, Note_off_c, 0, 78, 64
1, 17035, Note_off_c, 0, 82, 64
1, 17035, Note_on_c, 0, 99, 23
1, 17036, Note_on_c, 0, 53, 49
1, 17036, Note_off_c, 0, 54, 64
1, 17036, Note_off_c, 0, 69, 64
1, 17036, Note_on_c, 0, 71, 34
1, 17036, Note_on_c, 0, 77, 32
1, 17036, Note_off_c, 0, 84, 64
1, 17036, Note_on_c, 0, 94, 15
1, 17037, Note_on_c, 0, 58, 36
1, 17037, Note_on_c, 0, 62, 33
1, 17037, Note_off_c, 0, 66, 64
1, 17037, Note_on_c, 0, 67, 59
1, 17037, Note_off_c, 0, 74, 64
1, 17037, Note_off_c, 0, 76, 64
1, 17037, Note_on_c, 0, 84, 31
1, 17037, Note_off_c, 0, 85, 64
1, 17038, Note_on_c, 0, 51, 36
1, 17038, Note_off_c, 0, 53, 64
1, 17038, Note_on_c, 0, 87, 35
1, 17039, Note_on_c, 0, 55, 27
1, 17039, Note_off_c, 0, 58, 64
1, 17039, Note_off_c, 0, 62, 64
1, 17039, Note_off_c, 0, 84, 64
1, 17039, Note_on_c, 0, 85, 36
1, 17040, Note_off_c, 0, 51, 64
1, 17041, Note_on_c, 0, 38, 29
1, 17041, Note_off_c, 0, 71, 64
1, 17041, Note_on_c, 0, 75, 26
1, 17041, Note_off_c, 0, 88, 64
1, 17041, Note_off_c, 0, 89, 64
1, 17041, Note_off_c, 0, 94, 64
1, 17042, Note_off_c, 0, 55, 64
1, 17042, Note_on_c, 0, 62, 24
1, 17042, Note_on_c, 0, 86, 37
1, 17042, Note_on_c, 0, 88, 39
1, 17043, Note_off_c, 0, 77, 64
1, 17043, Note_on_c, 0, 78, 35
1, 17043, Note_on_c, 0, 82, 26
1, 17043, Note_on_c, 0, 89, 36
1, 17044, Note_off_c, 0, 38, 64
1, 17044, Note_on_c, 0, 57, 30
1, 17044, Note_on_c, 0, 73, 26
1, 17044, Note_off_c, 0, 87, 64
1, 17044, Note_off_c, 0, 98, 64
1, 17045, Note_off_c, 0, 62, 64
1, 17045, Note_off_c, 0, 75, 64
1, 17045, Note_on_c, 0, 77, 26
1, 17045, Note_off_c, 0, 78, 64
1, 17046, Note_on_c, 0, 56, 29
1, 17046, Note_off_c, 0, 57, 64
1, 17046, Note_on_c, 0, 74, 23
1, 17046, Note_off_c, 0, 82, 64
1, 17047, Note_off_c, 0, 92, 64
1, 17047, Note_on_c, 0, 98, 37
1, 17047, Note_off_c, 0, 99, 64
1, 17048, Note_off_c, 0, 56, 64
1, 17048, Note_off_c, 0, 73, 64
1, 17048, Note_off_c, 0, 77, 64
1, 17048, Note_off_c, 0, 85, 64
1, 17048, Note_on_c, 0, 87, 30
1, 17049, Note_on_c, 0, 62, 19
1, 17049, Note_on_c, 0, 71, 24
1, 17049, Note_off_c, 0, 74, 64
1, 17049, Note_on_c, 0, 75, 30
1, 17049, Note_on_c, 0, 78, 35
1, 17049, Note_on_c, 0, 80, 35
1, 17049, Note_off_c, 0, 83, 64
1, 17049, Note_on_c, 0, 92, 39
1, 17049, Note_on_c, 0, 99, 35
1, 17050, Note_on_c, 0, 55, 29
1, 17050, Note_on_c, 0, 85, 54
1, 17050, Note_off_c, 0, 86, 64
1, 17051, Note_on_c, 0, 74, 43
1, 17051, Note_off_c, 0, 75, 64
1, 17051, Note_off_c, 0, 80, 64
1, 17051, Note_on_c, 0, 83, 31
1, 17051, Note_off_c, 0, 87, 64
1, 17052, Note_off_c, 0, 55, 64
1, 17052, Note_on_c, 0, 66, 49
1, 17052, Note_off_c, 0, 67, 64
1, 17052, Note_on_c, 0, 77, 38
1, 17052, Note_off_c, 0, 78, 64
1, 17052, Note_on_c, 0, 82, 45
1, 17052, Note_on_c, 0, 87, 30
1, 17053, Note_on_c, 0, 60, 53
1, 17053, Note_off_c, 0, 62, 64
1, 17053, Note_on_c, 0, 63, 48
1, 17053, Note_off_c, 0, 71, 64
1, 17053, Note_on_c, 0, 78, 52
1, 17054, Note_off_c, 0, 66, 64
1, 17054, Note_on_c, 0, 69, 53
1, 17054, Note_off_c, 0, 77, 64
1, 17054, Note_off_c, 0, 79, 64
1, 17054, Note_on_c, 0, 80, 43
1, 17054, Note_off_c, 0, 83, 64
1, 17054, Note_off_c, 0, 87, 64
1, 17054, Note_off_c, 0, 90, 64
1, 17055, Note_on_c, 0, 53, 72
1, 17055, Note_off_c, 0, 60, 64
1, 17055, Note_off_c, 0, 63, 64
1, 17055, Note_on_c, 0, 73, 39
1, 17055, Note_off_c, 0, 74, 64
1, 17055, Note_on_c, 0, 75, 36
1, 17055, Note_on_c, 0, 83, 41
1, 17056, Note_on_c, 0, 48, 85
1, 17056, Note_off_c, 0, 53, 64
1, 17056, Note_on_c, 0, 63, 29
1, 17056, Note_off_c, 0, 80, 64
1, 17056, Note_on_c, 0, 87, 36
1, 17056, Note_off_c, 0, 89, 64
1, 17056, Note_off_c, 0, 96, 64
1, 17056, Note_off_c, 0, 99, 64
1, 17057, Note_on_c, 0, 45, 93
1, 17057, Note_off_c, 0, 48, 64
1, 17057, Note_on_c, 0, 68, 30
1, 17057, Note_off_c, 0, 69, 64
1, 17057, Note_off_c, 0, 73, 64
1, 17057, Note_on_c, 0, 77, 35
1, 17057, Note_on_c, 0, 84, 34
1, 17057, Note_off_c, 0, 85, 64
1, 17057, Note_off_c, 0, 93, 64
1, 17057, Note_off_c, 0, 98, 64
1, 17058, Note_on_c, 0, 42, 98
1, 17058, Note_off_c, 0, 45, 64
1, 17058, Note_off_c, 0, 63, 64
1, 17058, Note_on_c, 0, 73, 44
1, 17058, Note_off_c, 0, 75, 64
1, 17058, Note_on_c, 0, 81, 35
1, 17058, Note_off_c, 0, 92, 64
1, 17059, Note_on_c, 0, 40, 97
1, 17059, Note_off_c, 0, 42, 64
1, 17060, Note_on_c, 0, 38, 97
1, 17060, Note_off_c, 0, 40, 64
1, 17061, Note_on_c, 0, 36, 97
1, 17061, Note_off_c, 0, 38, 64
1, 17061, Note_on_c, 0, 76, 49
1, 17061, Note_off_c, 0, 82, 64
1, 17062, Note_on_c, 0, 35, 96
1, 17062, Note_off_c, 0, 36, 64
1, 17062, Note_on_c, 0, 64, 18
1, 17062, Note_off_c, 0, 68, 64
1, 17062, Note_on_c, 0, 79, 29
1, 17063, Note_on_c, 0, 34, 95
1, 17063, Note_off_c, 0, 35, 64
1, 17064, Note_on_c, 0, 33, 95
1, 17064, Note_off_c, 0, 34, 64
1, 17064, Note_on_c, 0, 67, 36
1, 17064, Note_off_c, 0, 77, 64
1, 17064, Note_off_c, 0, 88, 64
1, 17064, Note_on_c, 0, 89, 26
1, 17065, Note_on_c, 0, 49, 31
1, 17065, Note_off_c, 0, 79, 64
1, 17065, Note_on_c, 0, 82, 43
1, 17065, Note_off_c, 0, 83, 64
1, 17065, Note_on_c, 0, 86, 35
1, 17066, Note_on_c, 0, 32, 96
1, 17066, Note_off_c, 0, 33, 64
1, 17066, Note_on_c, 0, 75, 47
1, 17066, Note_off_c, 0, 78, 64
1, 17066, Note_on_c, 0, 79, 43
1, 17066, Note_on_c, 0, 80, 48
1, 17066, Note_on_c, 0, 97, 13
1, 17067, Note_on_c, 0, 31, 96
1, 17067, Note_off_c, 0, 32, 64
1, 17067, Note_on_c, 0, 71, 29
1, 17067, Note_off_c, 0, 73, 64
1, 17067, Note_off_c, 0, 76, 64
1, 17067, Note_off_c, 0, 81, 64
1, 17068, Note_off_c, 0, 49, 64
1, 17068, Note_on_c, 0, 83, 40
1, 17069, Note_on_c, 0, 30, 90
1, 17069, Note_off_c, 0, 31, 64
1, 17069, Note_off_c, 0, 71, 64
1, 17069, Note_on_c, 0, 72, 42
1, 17069, Note_on_c, 0, 77, 54
1, 17069, Note_off_c, 0, 79, 64
1, 17069, Note_off_c, 0, 82, 64
1, 17069, Note_on_c, 0, 85, 49
1, 17069, Note_off_c, 0, 86, 64
1, 17069, Note_off_c, 0, 97, 64
1, 17070, Note_off_c, 0, 64, 64
1, 17070, Note_on_c, 0, 74, 41
1, 17070, Note_off_c, 0, 75, 64
1, 17071, Note_on_c, 0, 82, 51
1, 17071, Note_off_c, 0, 83, 64
1, 17071, Note_on_c, 0, 88, 39
1, 17072, Note_off_c, 0, 30, 64
1, 17072, Note_off_c, 0, 77, 64
1, 17072, Note_on_c, 0, 90, 36
1, 17073, Note_on_c, 0, 66, 30
1, 17073, Note_off_c, 0, 67, 64
1, 17073, Note_on_c, 0, 70, 38
1, 17073, Note_on_c, 0, 78, 55
1, 17073, Note_off_c, 0, 84, 64
1, 17074, Note_on_c, 0, 31, 71
1, 17074, Note_on_c, 0, 67, 39
1, 17074, Note_off_c, 0, 74, 64
1, 17074, Note_on_c, 0, 76, 42
1, 17074, Note_off_c, 0, 80, 64
1, 17074, Note_on_c, 0, 86, 41
1, 17074, Note_off_c, 0, 87, 64
1, 17074, Note_off_c, 0, 89, 64
1, 17074, Note_on_c, 0, 96, 20
1, 17075, Note_on_c, 0, 30, 78
1, 17075, Note_off_c, 0, 31, 64
1, 17075, Note_on_c, 0, 49, 59
1, 17075, Note_off_c, 0, 66, 64
1, 17075, Note_off_c, 0, 72, 64
1, 17075, Note_on_c, 0, 73, 31
1, 17075, Note_on_c, 0, 80, 29
1, 17075, Note_on_c, 0, 95, 20
1, 17076, Note_on_c, 0, 29, 80
1, 17076, Note_off_c, 0, 30, 64
1, 17076, Note_on_c, 0, 71, 29
1, 17077, Note_off_c, 0, 49, 64
1, 17077, Note_off_c, 0, 67, 64
1, 17077, Note_off_c, 0, 70, 64
1, 17077, Note_on_c, 0, 84, 29
1, 17077, Note_on_c, 0, 89, 20
1, 17077, Note_on_c, 0, 91, 24
1, 17078, Note_off_c, 0, 29, 64
1, 17078, Note_on_c, 0, 30, 76
1, 17078, Note_on_c, 0, 68, 31
1, 17078, Note_off_c, 0, 71, 64
1, 17078, Note_on_c, 0, 72, 33
1, 17078, Note_off_c, 0, 73, 64
1, 17078, Note_on_c, 0, 79, 31
1, 17078, Note_off_c, 0, 80, 64
1, 17078, Note_on_c, 0, 92, 28
1, 17079, Note_on_c, 0, 75, 44
1, 17079, Note_off_c, 0, 76, 64
1, 17079, Note_off_c, 0, 84, 64
1, 17079, Note_on_c, 0, 93, 21
1, 17080, Note_on_c, 0, 29, 73
1, 17080, Note_off_c, 0, 30, 64
1, 17080, Note_on_c, 0, 67, 29
1, 17080, Note_off_c, 0, 68, 64
1, 17080, Note_on_c, 0, 70, 40
1, 17080, Note_off_c, 0, 79, 64
1, 17080, Note_on_c, 0, 80, 41
1, 17080, Note_off_c, 0, 85, 64
1, 17081, Note_off_c, 0, 72, 64
1, 17081, Note_on_c, 0, 73, 37
1, 17081, Note_off_c, 0, 75, 64
1, 17081, Note_on_c, 0, 87, 40
1, 17081, Note_off_c, 0, 89, 64
1, 17081, Note_off_c, 0, 91, 64
1, 17082, Note_off_c, 0, 29, 64
1, 17082, Note_off_c, 0, 67, 64
1, 17082, Note_on_c, 0, 68, 32
1, 17082, Note_on_c, 0, 75, 45
1, 17083, Note_off_c, 0, 73, 64
1, 17083, Note_off_c, 0, 80, 64
1, 17083, Note_on_c, 0, 83, 29
1, 17083, Note_on_c, 0, 85, 44
1, 17083, Note_on_c, 0, 91, 20
1, 17084, Note_on_c, 0, 41, 70
1, 17084, Note_on_c, 0, 63, 31
1, 17084, Note_off_c, 0, 68, 64
1, 17084, Note_on_c, 0, 80, 40
1, 17084, Note_off_c, 0, 86, 64
1, 17084, Note_on_c, 0, 89, 27
1, 17085, Note_on_c, 0, 30, 78
1, 17085, Note_off_c, 0, 41, 64
1, 17085, Note_on_c, 0, 68, 43
1, 17085, Note_on_c, 0, 73, 54
1, 17085, Note_off_c, 0, 83, 64
1, 17085, Note_on_c, 0, 86, 36
1, 17086, Note_on_c, 0, 29, 81
1, 17086, Note_off_c, 0, 30, 64
1, 17086, Note_off_c, 0, 63, 64
1, 17086, Note_on_c, 0, 83, 39
1, 17086, Note_off_c, 0, 91, 64
1, 17086, Note_off_c, 0, 93, 64
1, 17087, Note_on_c, 0, 77, 44
1, 17087, Note_off_c, 0, 80, 64
1, 17088, Note_off_c, 0, 29, 64
1, 17088, Note_on_c, 0, 30, 76
1, 17088, Note_on_c, 0, 48, 57
1, 17088, Note_off_c, 0, 75, 64
1, 17088, Note_on_c, 0, 79, 43
1, 17088, Note_on_c, 0, 80, 44
1, 17088, Note_off_c, 0, 86, 64
1, 17088, Note_off_c, 0, 90, 64
1, 17088, Note_on_c, 0, 93, 30
1, 17089, Note_off_c, 0, 30, 64
1, 17089, Note_on_c, 0, 34, 71
1, 17089, Note_on_c, 0, 54, 37
1, 17089, Note_off_c, 0, 70, 64
1, 17089, Note_on_c, 0, 74, 51
1, 17089, Note_on_c, 0, 76, 46
1, 17089, Note_off_c, 0, 77, 64
1, 17089, Note_on_c, 0, 84, 20
1, 17089, Note_off_c, 0, 95, 64
1, 17090, Note_off_c, 0, 34, 64
1, 17090, Note_off_c, 0, 48, 64
1, 17090, Note_off_c, 0, 73, 64
1, 17091, Note_off_c, 0, 54, 64
1, 17091, Note_on_c, 0, 73, 53
1, 17091, Note_off_c, 0, 74, 64
1, 17091, Note_off_c, 0, 85, 64
1, 17091, Note_off_c, 0, 88, 64
1, 17091, Note_on_c, 0, 97, 16
1, 17092, Note_off_c, 0, 68, 64
1, 17092, Note_off_c, 0, 76, 64
1, 17092, Note_on_c, 0, 77, 43
1, 17092, Note_off_c, 0, 80, 64
1, 17092, Note_on_c, 0, 81, 36
1, 17092, Note_off_c, 0, 82, 64
1, 17092, Note_off_c, 0, 84, 64
1, 17092, Note_on_c, 0, 88, 27
1, 17093, Note_on_c, 0, 49, 78
1, 17093, Note_on_c, 0, 75, 33
1, 17093, Note_off_c, 0, 78, 64
1, 17093, Note_off_c, 0, 89, 64
1, 17093, Note_off_c, 0, 93, 64
1, 17093, Note_off_c, 0, 96, 64
1, 17094, Note_on_c, 0, 45, 91
1, 17094, Note_off_c, 0, 49, 64
1, 17094, Note_on_c, 0, 67, 45
1, 17094, Note_on_c, 0, 70, 34
1, 17094, Note_off_c, 0, 81, 64
1, 17095, Note_on_c, 0, 42, 96
1, 17095, Note_off_c, 0, 45, 64
1, 17095, Note_off_c, 0, 73, 64
1, 17095, Note_on_c, 0, 81, 31
1, 17095, Note_off_c, 0, 92, 64
1, 17096, Note_on_c, 0, 41, 98
1, 17096, Note_off_c, 0, 42, 64
1, 17096, Note_off_c, 0, 88, 64
1, 17097, Note_on_c, 0, 38, 96
1, 17097, Note_off_c, 0, 41, 64
1, 17097, Note_off_c, 0, 75, 64
1, 17097, Note_off_c, 0, 77, 64
1, 17097, Note_off_c, 0, 87, 64
1, 17097, Note_off_c, 0, 97, 64
1, 17098, Note_on_c, 0, 37, 97
1, 17098, Note_off_c, 0, 38, 64
1, 17098, Note_on_c, 0, 75, 30
1, 17098, Note_off_c, 0, 81, 64
1, 17098, Note_on_c, 0, 88, 37
1, 17098, Note_on_c, 0, 93, 27
1, 17099, Note_on_c, 0, 36, 96
1, 17099, Note_off_c, 0, 37, 64
1, 17099, Note_off_c, 0, 70, 64
1, 17099, Note_on_c, 0, 71, 29
1, 17099, Note_on_c, 0, 74, 58
1, 17099, Note_on_c, 0, 81, 39
1, 17099, Note_on_c, 0, 85, 31
1, 17100, Note_on_c, 0, 35, 96
1, 17100, Note_off_c, 0, 36, 64
1, 17100, Note_off_c, 0, 83, 64
1, 17100, Note_on_c, 0, 84, 34
1, 17101, Note_on_c, 0, 34, 95
1, 17101, Note_off_c, 0, 35, 64
1, 17101, Note_off_c, 0, 75, 64
1, 17102, Note_on_c, 0, 33, 94
1, 17102, Note_off_c, 0, 34, 64
1, 17102, Note_on_c, 0, 82, 25
1, 17103, Note_on_c, 0, 32, 95
1, 17103, Note_off_c, 0, 33, 64
1, 17103, Note_off_c, 0, 85, 64
1, 17104, Note_on_c, 0, 78, 29
1, 17105, Note_on_c, 0, 31, 94
1, 17105, Note_off_c, 0, 32, 64
1, 17105, Note_off_c, 0, 71, 64
1, 17105, Note_off_c, 0, 82, 64
1, 17105, Note_off_c, 0, 84, 64
1, 17106, Note_on_c, 0, 71, 25
1, 17106, Note_on_c, 0, 85, 43
1, 17107, Note_on_c, 0, 30, 86
1, 17107, Note_off_c, 0, 31, 64
1, 17107, Note_on_c, 0, 70, 27
1, 17107, Note_off_c, 0, 74, 64
1, 17107, Note_on_c, 0, 75, 58
1, 17107, Note_off_c, 0, 78, 64
1, 17107, Note_off_c, 0, 79, 64
1, 17107, Note_on_c, 0, 89, 35
1, 17107, Note_on_c, 0, 92, 30
1, 17107, Note_on_c, 0, 94, 22
1, 17109, Note_off_c, 0, 30, 64
1, 17109, Note_off_c, 0, 71, 64
1, 17109, Note_on_c, 0, 80, 44
1, 17109, Note_on_c, 0, 96, 17
1, 17109, Note_on_c, 0, 98, 16
1, 17110, Note_off_c, 0, 70, 64
1, 17110, Note_on_c, 0, 78, 41
1, 17111, Note_on_c, 0, 37, 69
1, 17111, Note_on_c, 0, 61, 34
1, 17111, Note_on_c, 0, 66, 64
1, 17111, Note_off_c, 0, 67, 64
1, 17111, Note_off_c, 0, 81, 64
1, 17111, Note_on_c, 0, 82, 39
1, 17111, Note_off_c, 0, 93, 64
1, 17112, Note_on_c, 0, 30, 79
1, 17112, Note_off_c, 0, 37, 64
1, 17112, Note_on_c, 0, 70, 28
1, 17113, Note_on_c, 0, 86, 29
1, 17113, Note_off_c, 0, 96, 64
1, 17114, Note_on_c, 0, 29, 78
1, 17114, Note_off_c, 0, 30, 64
1, 17114, Note_off_c, 0, 75, 64
1, 17114, Note_on_c, 0, 76, 40
1, 17114, Note_on_c, 0, 81, 29
1, 17115, Note_off_c, 0, 29, 64
1, 17115, Note_on_c, 0, 30, 75
1, 17116, Note_on_c, 0, 83, 26
1, 17116, Note_off_c, 0, 98, 64
1, 17117, Note_on_c, 0, 29, 73
1, 17117, Note_off_c, 0, 30, 64
1, 17117, Note_on_c, 0, 48, 49
1, 17117, Note_off_c, 0, 81, 64
1, 17117, Note_off_c, 0, 94, 64
1, 17118, Note_off_c, 0, 92, 64
1, 17119, Note_off_c, 0, 48, 64
1, 17119, Note_off_c, 0, 78, 64
1, 17119, Note_off_c, 0, 82, 64
1, 17120, Note_off_c, 0, 29, 64
1, 17120, Note_on_c, 0, 77, 30
1, 17120, Note_on_c, 0, 82, 36
1, 17120, Note_off_c, 0, 83, 64
1, 17121, Note_on_c, 0, 42, 67
1, 17121, Note_off_c, 0, 70, 64
1, 17121, Note_on_c, 0, 72, 17
1, 17121, Note_on_c, 0, 87, 22
1, 17121, Note_off_c, 0, 88, 64
1, 17122, Note_on_c, 0, 32, 71
1, 17122, Note_off_c, 0, 42, 64
1, 17122, Note_off_c, 0, 77, 64
1, 17122, Note_off_c, 0, 86, 64
1, 17123, Note_on_c, 0, 30, 80
1, 17123, Note_off_c, 0, 32, 64
1, 17123, Note_on_c, 0, 86, 42
1, 17124, Note_on_c, 0, 29, 80
1, 17124, Note_off_c, 0, 30, 64
1, 17124, Note_on_c, 0, 49, 57
1, 17124, Note_on_c, 0, 70, 43
1, 17124, Note_off_c, 0, 72, 64
1, 17124, Note_off_c, 0, 87, 64
1, 17125, Note_off_c, 0, 29, 64
1, 17125, Note_on_c, 0, 30, 78
1, 17125, Note_on_c, 0, 83, 36
1, 17126, Note_off_c, 0, 30, 64
1, 17126, Note_on_c, 0, 33, 71
1, 17126, Note_on_c, 0, 48, 50
1, 17126, Note_off_c, 0, 49, 64
1, 17126, Note_on_c, 0, 54, 44
1, 17127, Note_off_c, 0, 61, 64
1, 17127, Note_off_c, 0, 66, 64
1, 17127, Note_on_c, 0, 67, 54
1, 17127, Note_on_c, 0, 74, 40
1, 17127, Note_on_c, 0, 77, 38
1, 17128, Note_off_c, 0, 54, 64
1, 17128, Note_on_c, 0, 81, 42
1, 17128, Note_off_c, 0, 82, 64
1, 17128, Note_on_c, 0, 94, 27
1, 17128, Note_on_c, 0, 96, 29
1, 17129, Note_off_c, 0, 33, 64
1, 17129, Note_off_c, 0, 48, 64
1, 17129, Note_on_c, 0, 64, 50
1, 17129, Note_on_c, 0, 73, 48
1, 17129, Note_off_c, 0, 74, 64
1, 17129, Note_off_c, 0, 76, 64
1, 17130, Note_on_c, 0, 51, 73
1, 17130, Note_on_c, 0, 62, 43
1, 17130, Note_off_c, 0, 67, 64
1, 17130, Note_off_c, 0, 70, 64
1, 17130, Note_off_c, 0, 77, 64
1, 17130, Note_on_c, 0, 78, 28
1, 17130, Note_on_c, 0, 82, 33
1, 17130, Note_off_c, 0, 83, 64
1, 17130, Note_on_c, 0, 84, 26
1, 17130, Note_on_c, 0, 88, 24
1, 17131, Note_on_c, 0, 48, 84
1, 17131, Note_off_c, 0, 51, 64
1, 17131, Note_off_c, 0, 64, 64
1, 17131, Note_on_c, 0, 68, 17
1, 17131, Note_on_c, 0, 70, 21
1, 17131, Note_off_c, 0, 80, 64
1, 17131, Note_off_c, 0, 85, 64
1, 17131, Note_off_c, 0, 96, 64
1, 17132, Note_on_c, 0, 45, 93
1, 17132, Note_off_c, 0, 48, 64
1, 17132, Note_off_c, 0, 62, 64
1, 17132, Note_on_c, 0, 76, 14
1, 17132, Note_on_c, 0, 83, 24
1, 17133, Note_on_c, 0, 42, 99
1, 17133, Note_off_c, 0, 45, 64
1, 17133, Note_on_c, 0, 77, 25
1, 17133, Note_on_c, 0, 79, 24
1, 17133, Note_off_c, 0, 81, 64
1, 17134, Note_on_c, 0, 40, 96
1, 17134, Note_off_c, 0, 42, 64
1, 17134, Note_off_c, 0, 68, 64
1, 17134, Note_off_c, 0, 70, 64
1, 17134, Note_on_c, 0, 72, 20
1, 17135, Note_on_c, 0, 38, 97
1, 17135, Note_off_c, 0, 40, 64
1, 17135, Note_on_c, 0, 58, 15
1, 17135, Note_on_c, 0, 68, 35
1, 17135, Note_off_c, 0, 73, 64
1, 17135, Note_on_c, 0, 75, 34
1, 17135, Note_off_c, 0, 76, 64
1, 17135, Note_off_c, 0, 83, 64
1, 17135, Note_off_c, 0, 84, 64
1, 17135, Note_on_c, 0, 85, 28
1, 17135, Note_off_c, 0, 89, 64
1, 17135, Note_off_c, 0, 94, 64
1, 17136, Note_on_c, 0, 36, 97
1, 17136, Note_off_c, 0, 38, 64
1, 17136, Note_off_c, 0, 79, 64
1, 17136, Note_off_c, 0, 86, 64
1, 17137, Note_on_c, 0, 35, 96
1, 17137, Note_off_c, 0, 36, 64
1, 17137, Note_on_c, 0, 73, 32
1, 17138, Note_on_c, 0, 34, 95
1, 17138, Note_off_c, 0, 35, 64
1, 17138, Note_off_c, 0, 72, 64
1, 17138, Note_off_c, 0, 78, 64
1, 17138, Note_on_c, 0, 84, 18
1, 17138, Note_on_c, 0, 86, 25
1, 17139, Note_on_c, 0, 33, 95
1, 17139, Note_off_c, 0, 34, 64
1, 17139, Note_on_c, 0, 61, 17
1, 17139, Note_on_c, 0, 66, 39
1, 17139, Note_off_c, 0, 68, 64
1, 17139, Note_off_c, 0, 75, 64
1, 17139, Note_off_c, 0, 85, 64
1, 17140, Note_on_c, 0, 83, 23
1, 17140, Note_off_c, 0, 88, 64
1, 17141, Note_on_c, 0, 32, 96
1, 17141, Note_off_c, 0, 33, 64
1, 17141, Note_off_c, 0, 77, 64
1, 17141, Note_off_c, 0, 84, 64
1, 17141, Note_on_c, 0, 88, 19
1, 17142, Note_on_c, 0, 31, 96
1, 17142, Note_off_c, 0, 32, 64
1, 17142, Note_off_c, 0, 58, 64
1, 17142, Note_off_c, 0, 61, 64
1, 17144, Note_on_c, 0, 30, 89
1, 17144, Note_off_c, 0, 31, 64
1, 17144, Note_on_c, 0, 68, 27
1, 17144, Note_off_c, 0, 83, 64
1, 17144, Note_off_c, 0, 86, 64
1, 17145, Note_off_c, 0, 88, 64
1, 17145, Note_on_c, 0, 89, 18
1, 17146, Note_on_c, 0, 76, 31
1, 17147, Note_off_c, 0, 30, 64
1, 17147, Note_on_c, 0, 61, 31
1, 17147, Note_on_c, 0, 84, 34
1, 17147, Note_on_c, 0, 87, 26
1, 17148, Note_on_c, 0, 41, 66
1, 17148, Note_off_c, 0, 68, 64
1, 17148, Note_on_c, 0, 86, 39
1, 17148, Note_off_c, 0, 89, 64
1, 17149, Note_on_c, 0, 31, 71
1, 17149, Note_off_c, 0, 41, 64
1, 17149, Note_on_c, 0, 79, 37
1, 17149, Note_on_c, 0, 90, 17
1, 17150, Note_on_c, 0, 30, 79
1, 17150, Note_off_c, 0, 31, 64
1, 17150, Note_off_c, 0, 61, 64
1, 17150, Note_off_c, 0, 73, 64
1, 17150, Note_on_c, 0, 74, 19
1, 17150, Note_on_c, 0, 77, 15
1, 17150, Note_off_c, 0, 82, 64
1, 17150, Note_on_c, 0, 85, 27
1, 17151, Note_on_c, 0, 29, 80
1, 17151, Note_off_c, 0, 30, 64
1, 17151, Note_on_c, 0, 61, 26
1, 17151, Note_on_c, 0, 64, 32
1, 17151, Note_off_c, 0, 76, 64
1, 17151, Note_on_c, 0, 83, 35
1, 17151, Note_off_c, 0, 84, 64
1, 17151, Note_on_c, 0, 89, 29
1, 17153, Note_off_c, 0, 29, 64
1, 17153, Note_on_c, 0, 30, 76
1, 17153, Note_on_c, 0, 54, 50
1, 17153, Note_off_c, 0, 64, 64
1, 17153, Note_off_c, 0, 74, 64
1, 17153, Note_off_c, 0, 85, 64
1, 17154, Note_on_c, 0, 82, 19
1, 17154, Note_on_c, 0, 85, 28
1, 17155, Note_on_c, 0, 29, 73
1, 17155, Note_off_c, 0, 30, 64
1, 17155, Note_off_c, 0, 61, 64
1, 17155, Note_on_c, 0, 73, 19
1, 17155, Note_off_c, 0, 77, 64
1, 17156, Note_off_c, 0, 29, 64
1, 17156, Note_on_c, 0, 30, 70
1, 17156, Note_on_c, 0, 76, 23
1, 17156, Note_on_c, 0, 81, 29
1, 17157, Note_on_c, 0, 61, 33
1, 17157, Note_off_c, 0, 82, 64
1, 17157, Note_on_c, 0, 84, 34
1, 17157, Note_on_c, 0, 88, 30
1, 17158, Note_off_c, 0, 54, 64
1, 17158, Note_on_c, 0, 70, 39
1, 17158, Note_on_c, 0, 72, 25
1, 17158, Note_off_c, 0, 73, 64
1, 17158, Note_off_c, 0, 83, 64
1, 17159, Note_off_c, 0, 30, 64
1, 17159, Note_on_c, 0, 36, 72
1, 17159, Note_off_c, 0, 76, 64
1, 17159, Note_on_c, 0, 77, 20
1, 17159, Note_on_c, 0, 80, 31
1, 17159, Note_off_c, 0, 81, 64
1, 17159, Note_off_c, 0, 85, 64
1, 17159, Note_off_c, 0, 87, 64
1, 17159, Note_off_c, 0, 90, 64
1, 17160, Note_on_c, 0, 30, 79
1, 17160, Note_off_c, 0, 36, 64
1, 17160, Note_off_c, 0, 79, 64
1, 17161, Note_on_c, 0, 29, 81
1, 17161, Note_off_c, 0, 30, 64
1, 17161, Note_on_c, 0, 49, 60
1, 17161, Note_off_c, 0, 61, 64
1, 17161, Note_on_c, 0, 63, 25
1, 17161, Note_off_c, 0, 72, 64
1, 17161, Note_on_c, 0, 79, 27
1, 17161, Note_on_c, 0, 83, 28
1, 17162, Note_on_c, 0, 81, 46
1, 17162, Note_off_c, 0, 84, 64
1, 17163, Note_off_c, 0, 29, 64
1, 17163, Note_on_c, 0, 30, 76
1, 17163, Note_on_c, 0, 48, 56
1, 17163, Note_off_c, 0, 49, 64
1, 17163, Note_off_c, 0, 66, 64
1, 17164, Note_off_c, 0, 30, 64
1, 17164, Note_on_c, 0, 33, 67
1, 17164, Note_on_c, 0, 73, 43
1, 17164, Note_off_c, 0, 80, 64
1, 17164, Note_on_c, 0, 87, 36
1, 17165, Note_on_c, 0, 55, 37
1, 17165, Note_off_c, 0, 63, 64
1, 17165, Note_off_c, 0, 77, 64
1, 17165, Note_off_c, 0, 83, 64
1, 17165, Note_on_c, 0, 90, 24
1, 17165, Note_on_c, 0, 92, 28
1, 17166, Note_off_c, 0, 33, 64
1, 17166, Note_on_c, 0, 65, 52
1, 17166, Note_on_c, 0, 78, 41
1, 17166, Note_off_c, 0, 79, 64
1, 17166, Note_on_c, 0, 83, 29
1, 17166, Note_off_c, 0, 89, 64
1, 17167, Note_off_c, 0, 48, 64
1, 17167, Note_on_c, 0, 54, 66
1, 17167, Note_off_c, 0, 55, 64
1, 17167, Note_on_c, 0, 69, 43
1, 17167, Note_off_c, 0, 70, 64
1, 17167, Note_on_c, 0, 76, 40
1, 17167, Note_on_c, 0, 80, 40
1, 17167, Note_off_c, 0, 81, 64
1, 17167, Note_off_c, 0, 88, 64
1, 17168, Note_on_c, 0, 49, 79
1, 17168, Note_off_c, 0, 54, 64
1, 17168, Note_off_c, 0, 65, 64
1, 17168, Note_on_c, 0, 66, 51
1, 17168, Note_off_c, 0, 83, 64
1, 17168, Note_off_c, 0, 87, 64
1, 17169, Note_on_c, 0, 45, 90
1, 17169, Note_off_c, 0, 49, 64
1, 17169, Note_off_c, 0, 69, 64
1, 17169, Note_on_c, 0, 70, 41
1, 17169, Note_off_c, 0, 73, 64
1, 17170, Note_on_c, 0, 42, 96
1, 17170, Note_off_c, 0, 45, 64
1, 17170, Note_on_c, 0, 61, 53
1, 17170, Note_off_c, 0, 78, 64
1, 17170, Note_on_c, 0, 83, 27
1, 17171, Note_on_c, 0, 41, 98
1, 17171, Note_off_c, 0, 42, 64
1, 17171, Note_off_c, 0, 92, 64
1, 17172, Note_on_c, 0, 38, 97
1, 17172, Note_off_c, 0, 41, 64
1, 17172, Note_off_c, 0, 86, 64
1, 17172, Note_on_c, 0, 91, 16
1, 17173, Note_on_c, 0, 37, 97
1, 17173, Note_off_c, 0, 38, 64
1, 17173, Note_on_c, 0, 78, 52
1, 17173, Note_on_c, 0, 81, 13
1, 17173, Note_off_c, 0, 90, 64
1, 17174, Note_on_c, 0, 36, 96
1, 17174, Note_off_c, 0, 37, 64
1, 17174, Note_off_c, 0, 83, 64
1, 17175, Note_on_c, 0, 34, 95
1, 17175, Note_off_c, 0, 36, 64
1, 17175, Note_on_c, 0, 87, 11
1, 17175, Note_on_c, 0, 89, 28
1, 17175, Note_on_c, 0, 94, 14
1, 17176, Note_off_c, 0, 81, 64
1, 17176, Note_off_c, 0, 91, 64
1, 17176, Note_on_c, 0, 96, 15
1, 17177, Note_on_c, 0, 33, 94
1, 17177, Note_off_c, 0, 34, 64
1, 17178, Note_on_c, 0, 32, 95
1, 17178, Note_off_c, 0, 33, 64
1, 17179, Note_on_c, 0, 86, 27
1, 17179, Note_off_c, 0, 87, 64
1, 17179, Note_on_c, 0, 91, 10
1, 17180, Note_on_c, 0, 31, 95
1, 17180, Note_off_c, 0, 32, 64
1, 17180, Note_off_c, 0, 96, 64
1, 17181, Note_on_c, 0, 30, 91
1, 17181, Note_off_c, 0, 31, 64
1, 17182, Note_on_c, 0, 54, 16
1, 17182, Note_on_c, 0, 84, 19
1, 17183, Note_off_c, 0, 91, 64
1, 17183, Note_on_c, 0, 93, 23
1, 17185, Note_off_c, 0, 30, 64
1, 17185, Note_on_c, 0, 36, 70
1, 17185, Note_off_c, 0, 54, 64
1, 17185, Note_off_c, 0, 84, 64
1, 17186, Note_on_c, 0, 54, 48
1, 17186, Note_on_c, 0, 75, 41
1, 17186, Note_off_c, 0, 76, 64
1, 17186, Note_off_c, 0, 80, 64
1, 17186, Note_off_c, 0, 94, 64
1, 17187, Note_on_c, 0, 30, 79
1, 17187, Note_off_c, 0, 36, 64
1, 17187, Note_on_c, 0, 49, 59
1, 17187, Note_on_c, 0, 69, 40
1, 17187, Note_off_c, 0, 70, 64
1, 17187, Note_on_c, 0, 77, 52
1, 17187, Note_off_c, 0, 78, 64
1, 17187, Note_on_c, 0, 88, 33
1, 17187, Note_on_c, 0, 92, 14
1, 17188, Note_on_c, 0, 65, 56
1, 17188, Note_off_c, 0, 66, 64
1, 17188, Note_on_c, 0, 71, 22
1, 17188, Note_on_c, 0, 91, 15
1, 17189, Note_on_c, 0, 29, 78
1, 17189, Note_off_c, 0, 30, 64
1, 17189, Note_off_c, 0, 54, 64
1, 17189, Note_on_c, 0, 74, 31
1, 17189, Note_off_c, 0, 75, 64
1, 17189, Note_on_c, 0, 79, 22
1, 17189, Note_on_c, 0, 83, 28
1, 17189, Note_on_c, 0, 85, 27
1, 17190, Note_off_c, 0, 29, 64
1, 17190, Note_on_c, 0, 30, 74
1, 17190, Note_off_c, 0, 49, 64
1, 17190, Note_on_c, 0, 64, 51
1, 17190, Note_off_c, 0, 65, 64
1, 17190, Note_on_c, 0, 68, 20
1, 17190, Note_off_c, 0, 69, 64
1, 17190, Note_off_c, 0, 77, 64
1, 17190, Note_off_c, 0, 92, 64
1, 17190, Note_off_c, 0, 93, 64
1, 17191, Note_off_c, 0, 61, 64
1, 17191, Note_on_c, 0, 73, 31
1, 17191, Note_off_c, 0, 74, 64
1, 17191, Note_on_c, 0, 81, 33
1, 17191, Note_off_c, 0, 91, 64
1, 17192, Note_on_c, 0, 29, 73
1, 17192, Note_off_c, 0, 30, 64
1, 17192, Note_off_c, 0, 86, 64
1, 17192, Note_on_c, 0, 87, 36
1, 17193, Note_off_c, 0, 68, 64
1, 17193, Note_on_c, 0, 70, 25
1, 17193, Note_off_c, 0, 71, 64
1, 17193, Note_on_c, 0, 75, 53
1, 17193, Note_off_c, 0, 79, 64
1, 17193, Note_off_c, 0, 83, 64
1, 17193, Note_off_c, 0, 89, 64
1, 17194, Note_on_c, 0, 63, 52
1, 17194, Note_off_c, 0, 64, 64
1, 17194, Note_on_c, 0, 77, 32
1, 17194, Note_on_c, 0, 83, 27
1, 17195, Note_off_c, 0, 29, 64
1, 17195, Note_on_c, 0, 66, 41
1, 17195, Note_on_c, 0, 72, 28
1, 17195, Note_off_c, 0, 73, 64
1, 17195, Note_on_c, 0, 79, 36
1, 17195, Note_on_c, 0, 80, 21
1, 17195, Note_on_c, 0, 96, 12
1, 17196, Note_on_c, 0, 42, 68
1, 17196, Note_on_c, 0, 62, 52
1, 17196, Note_off_c, 0, 63, 64
1, 17196, Note_off_c, 0, 75, 64
1, 17196, Note_on_c, 0, 82, 38
1, 17196, Note_off_c, 0, 85, 64
1, 17197, Note_on_c, 0, 32, 73
1, 17197, Note_off_c, 0, 42, 64
1, 17197, Note_off_c, 0, 70, 64
1, 17197, Note_on_c, 0, 76, 26
1, 17197, Note_off_c, 0, 81, 64
1, 17197, Note_off_c, 0, 83, 64
1, 17198, Note_on_c, 0, 30, 80
1, 17198, Note_off_c, 0, 32, 64
1, 17198, Note_off_c, 0, 62, 64
1, 17198, Note_on_c, 0, 70, 30
1, 17198, Note_off_c, 0, 72, 64
1, 17198, Note_off_c, 0, 80, 64
1, 17199, Note_on_c, 0, 29, 81
1, 17199, Note_off_c, 0, 30, 64
1, 17199, Note_on_c, 0, 61, 42
1, 17199, Note_on_c, 0, 73, 51
1, 17199, Note_off_c, 0, 77, 64
1, 17200, Note_off_c, 0, 29, 64
1, 17200, Note_on_c, 0, 30, 78
1, 17200, Note_off_c, 0, 70, 64
1, 17200, Note_on_c, 0, 75, 31
1, 17200, Note_off_c, 0, 76, 64
1, 17200, Note_on_c, 0, 77, 34
1, 17201, Note_off_c, 0, 30, 64
1, 17201, Note_on_c, 0, 33, 72
1, 17201, Note_on_c, 0, 54, 42
1, 17201, Note_on_c, 0, 86, 38
1, 17202, Note_off_c, 0, 66, 64
1, 17202, Note_off_c, 0, 75, 64
1, 17202, Note_on_c, 0, 76, 49
1, 17202, Note_off_c, 0, 77, 64
1, 17202, Note_on_c, 0, 80, 47
1, 17202, Note_on_c, 0, 83, 40
1, 17202, Note_on_c, 0, 84, 30
1, 17202, Note_off_c, 0, 88, 64
1, 17202, Note_off_c, 0, 96, 64
1, 17203, Note_off_c, 0, 54, 64
1, 17203, Note_off_c, 0, 61, 64
1, 17203, Note_on_c, 0, 66, 47
1, 17203, Note_off_c, 0, 82, 64
1, 17203, Note_on_c, 0, 89, 23
1, 17203, Note_on_c, 0, 94, 22
1, 17204, Note_off_c, 0, 33, 64
1, 17204, Note_on_c, 0, 63, 49
1, 17204, Note_on_c, 0, 70, 51
1, 17204, Note_off_c, 0, 79, 64
1, 17204, Note_off_c, 0, 84, 64
1, 17204, Note_on_c, 0, 91, 28
1, 17205, Note_on_c, 0, 50, 75
1, 17205, Note_off_c, 0, 66, 64
1, 17205, Note_on_c, 0, 67, 44
1, 17205, Note_off_c, 0, 86, 64
1, 17206, Note_on_c, 0, 48, 84
1, 17206, Note_off_c, 0, 50, 64
1, 17206, Note_off_c, 0, 80, 64
1, 17206, Note_off_c, 0, 94, 64
1, 17207, Note_on_c, 0, 44, 93
1, 17207, Note_off_c, 0, 48, 64
1, 17207, Note_off_c, 0, 63, 64
1, 17207, Note_on_c, 0, 66, 35
1, 17207, Note_off_c, 0, 67, 64
1, 17207, Note_off_c, 0, 70, 64
1, 17207, Note_on_c, 0, 71, 11
1, 17208, Note_on_c, 0, 41, 99
1, 17208, Note_off_c, 0, 44, 64
1, 17208, Note_on_c, 0, 82, 25
1, 17209, Note_on_c, 0, 40, 96
1, 17209, Note_off_c, 0, 41, 64
1, 17209, Note_off_c, 0, 89, 64
1, 17210, Note_on_c, 0, 38, 97
1, 17210, Note_off_c, 0, 40, 64
1, 17210, Note_off_c, 0, 71, 64
1, 17211, Note_on_c, 0, 36, 97
1, 17211, Note_off_c, 0, 38, 64
1, 17211, Note_on_c, 0, 70, 17
1, 17212, Note_on_c, 0, 35, 96
1, 17212, Note_off_c, 0, 36, 64
1, 17212, Note_on_c, 0, 86, 19
1, 17212, Note_on_c, 0, 89, 25
1, 17213, Note_on_c, 0, 34, 95
1, 17213, Note_off_c, 0, 35, 64
1, 17213, Note_on_c, 0, 81, 24
1, 17213, Note_off_c, 0, 82, 64
1, 17214, Note_on_c, 0, 33, 95
1, 17214, Note_off_c, 0, 34, 64
1, 17214, Note_on_c, 0, 78, 42
1, 17215, Note_off_c, 0, 70, 64
1, 17215, Note_off_c, 0, 73, 64
1, 17215, Note_on_c, 0, 82, 21
1, 17215, Note_off_c, 0, 89, 64
1, 17216, Note_on_c, 0, 32, 96
1, 17216, Note_off_c, 0, 33, 64
1, 17216, Note_on_c, 0, 49, 29
1, 17216, Note_off_c, 0, 66, 64
1, 17216, Note_off_c, 0, 76, 64
1, 17216, Note_on_c, 0, 77, 9
1, 17216, Note_off_c, 0, 86, 64
1, 17216, Note_off_c, 0, 91, 64
1, 17217, Note_on_c, 0, 31, 96
1, 17217, Note_off_c, 0, 32, 64
1, 17217, Note_off_c, 0, 81, 64
1, 17217, Note_on_c, 0, 86, 21
1, 17218, Note_off_c, 0, 49, 64
1, 17218, Note_on_c, 0, 64, 27
1, 17218, Note_off_c, 0, 82, 64
1, 17218, Note_off_c, 0, 87, 64
1, 17219, Note_on_c, 0, 30, 89
1, 17219, Note_off_c, 0, 31, 64
1, 17219, Note_on_c, 0, 67, 11
1, 17220, Note_off_c, 0, 77, 64
1, 17220, Note_on_c, 0, 79, 19
1, 17220, Note_off_c, 0, 86, 64
1, 17220, Note_on_c, 0, 87, 10
1, 17221, Note_on_c, 0, 63, 38
1, 17221, Note_off_c, 0, 64, 64
1, 17221, Note_on_c, 0, 81, 33
1, 17222, Note_off_c, 0, 30, 64
1, 17222, Note_off_c, 0, 67, 64
1, 17222, Note_on_c, 0, 85, 14
1, 17222, Note_on_c, 0, 88, 20
1, 17222, Note_on_c, 0, 98, 16
1, 17222, Note_on_c, 0, 99, 14
1, 17223, Note_on_c, 0, 37, 67
1, 17223, Note_on_c, 0, 80, 42
1, 17223, Note_off_c, 0, 87, 64
1, 17224, Note_on_c, 0, 30, 78
1, 17224, Note_off_c, 0, 37, 64
1, 17224, Note_on_c, 0, 66, 30
1, 17224, Note_on_c, 0, 70, 19
1, 17224, Note_off_c, 0, 79, 64
1, 17224, Note_off_c, 0, 81, 64
1, 17225, Note_off_c, 0, 63, 64
1, 17225, Note_on_c, 0, 76, 14
1, 17225, Note_off_c, 0, 85, 64
1, 17225, Note_on_c, 0, 86, 24
1, 17225, Note_off_c, 0, 99, 64
1, 17226, Note_on_c, 0, 29, 79
1, 17226, Note_off_c, 0, 30, 64
1, 17226, Note_on_c, 0, 73, 22
1, 17226, Note_on_c, 0, 85, 34
1, 17226, Note_off_c, 0, 98, 64
1, 17227, Note_off_c, 0, 29, 64
1, 17227, Note_on_c, 0, 30, 77
1, 17227, Note_on_c, 0, 82, 24
1, 17228, Note_off_c, 0, 66, 64
1, 17228, Note_off_c, 0, 76, 64
1, 17228, Note_off_c, 0, 83, 64
1, 17229, Note_on_c, 0, 29, 74
1, 17229, Note_off_c, 0, 30, 64
1, 17229, Note_on_c, 0, 60, 18
1, 17229, Note_on_c, 0, 66, 40
1, 17229, Note_on_c, 0, 76, 30
1, 17229, Note_on_c, 0, 83, 19
1, 17230, Note_off_c, 0, 70, 64
1, 17230, Note_off_c, 0, 73, 64
1, 17230, Note_on_c, 0, 84, 23
1, 17231, Note_off_c, 0, 82, 64
1, 17232, Note_off_c, 0, 29, 64
1, 17233, Note_off_c, 0, 60, 64
1, 17233, Note_on_c, 0, 82, 44
1, 17233, Note_off_c, 0, 83, 64
1, 17233, Note_on_c, 0, 89, 29
1, 17234, Note_on_c, 0, 36, 72
1, 17234, Note_on_c, 0, 73, 14
1, 17234, Note_on_c, 0, 83, 24
1, 17235, Note_on_c, 0, 30, 79
1, 17235, Note_off_c, 0, 36, 64
1, 17235, Note_on_c, 0, 49, 60
1, 17235, Note_on_c, 0, 71, 22
1, 17235, Note_on_c, 0, 87, 29
1, 17236, Note_on_c, 0, 29, 81
1, 17236, Note_off_c, 0, 30, 64
1, 17236, Note_on_c, 0, 70, 42
1, 17236, Note_off_c, 0, 85, 64
1, 17236, Note_off_c, 0, 88, 64
1, 17237, Note_off_c, 0, 84, 64
1, 17238, Note_off_c, 0, 29, 64
1, 17238, Note_on_c, 0, 30, 76
1, 17238, Note_on_c, 0, 48, 56
1, 17238, Note_off_c, 0, 49, 64
1, 17238, Note_off_c, 0, 71, 64
1, 17238, Note_off_c, 0, 83, 64
1, 17238, Note_on_c, 0, 84, 18
1, 17238, Note_off_c, 0, 86, 64
1, 17239, Note_off_c, 0, 30, 64
1, 17239, Note_on_c, 0, 34, 68
1, 17239, Note_on_c, 0, 54, 37
1, 17239, Note_off_c, 0, 73, 64
1, 17240, Note_off_c, 0, 34, 64
1, 17240, Note_off_c, 0, 48, 64
1, 17240, Note_off_c, 0, 66, 64
1, 17240, Note_on_c, 0, 73, 41
1, 17240, Note_on_c, 0, 75, 38
1, 17240, Note_off_c, 0, 76, 64
1, 17240, Note_on_c, 0, 83, 33
1, 17240, Note_on_c, 0, 88, 31
1, 17240, Note_on_c, 0, 91, 28
1, 17240, Note_on_c, 0, 93, 27
1, 17240, Note_on_c, 0, 96, 21
1, 17240, Note_on_c, 0, 98, 21
1, 17241, Note_off_c, 0, 54, 64
1, 17241, Note_on_c, 0, 66, 50
1, 17241, Note_off_c, 0, 84, 64
1, 17242, Note_on_c, 0, 54, 67
1, 17242, Note_off_c, 0, 75, 64
1, 17242, Note_on_c, 0, 76, 35
1, 17242, Note_on_c, 0, 86, 31
1, 17243, Note_on_c, 0, 49, 82
1, 17243, Note_off_c, 0, 54, 64
1, 17243, Note_off_c, 0, 80, 64
1, 17243, Note_off_c, 0, 83, 64
1, 17243, Note_off_c, 0, 88, 64
1, 17243, Note_off_c, 0, 91, 64
1, 17243, Note_off_c, 0, 96, 64
1, 17243, Note_off_c, 0, 98, 64
1, 17244, Note_on_c, 0, 45, 92
1, 17244, Note_off_c, 0, 49, 64
1, 17244, Note_on_c, 0, 65, 28
1, 17244, Note_off_c, 0, 66, 64
1, 17244, Note_off_c, 0, 70, 64
1, 17244, Note_off_c, 0, 73, 64
1, 17244, Note_off_c, 0, 76, 64
1, 17244, Note_off_c, 0, 78, 64
1, 17244, Note_on_c, 0, 88, 15
1, 17244, Note_off_c, 0, 89, 64
1, 17245, Note_on_c, 0, 42, 98
1, 17245, Note_off_c, 0, 45, 64
1, 17245, Note_on_c, 0, 83, 19
1, 17245, Note_off_c, 0, 86, 64
1, 17245, Note_off_c, 0, 93, 64
1, 17246, Note_on_c, 0, 41, 99
1, 17246, Note_off_c, 0, 42, 64
1, 17246, Note_on_c, 0, 81, 11
1, 17246, Note_off_c, 0, 87, 64
1, 17247, Note_on_c, 0, 38, 97
1, 17247, Note_off_c, 0, 41, 64
1, 17247, Note_off_c, 0, 65, 64
1, 17247, Note_off_c, 0, 82, 64
1, 17248, Note_on_c, 0, 37, 98
1, 17248, Note_off_c, 0, 38, 64
1, 17248, Note_on_c, 0, 75, 22
1, 17248, Note_on_c, 0, 85, 21
1, 17249, Note_on_c, 0, 35, 97
1, 17249, Note_off_c, 0, 37, 64
1, 17249, Note_on_c, 0, 63, 24
1, 17249, Note_on_c, 0, 82, 26
1, 17250, Note_on_c, 0, 34, 96
1, 17250, Note_off_c, 0, 35, 64
1, 17250, Note_off_c, 0, 88, 64
1, 17251, Note_off_c, 0, 81, 64
1, 17251, Note_off_c, 0, 83, 64
1, 17251, Note_on_c, 0, 86, 22
1, 17252, Note_on_c, 0, 33, 94
1, 17252, Note_off_c, 0, 34, 64
1, 17252, Note_off_c, 0, 75, 64
1, 17252, Note_on_c, 0, 81, 10
1, 17253, Note_on_c, 0, 32, 96
1, 17253, Note_off_c, 0, 33, 64
1, 17253, Note_on_c, 0, 62, 13
1, 17253, Note_off_c, 0, 63, 64
1, 17253, Note_off_c, 0, 85, 64
1, 17254, Note_on_c, 0, 78, 23
1, 17255, Note_on_c, 0, 31, 96
1, 17255, Note_off_c, 0, 32, 64
1, 17255, Note_off_c, 0, 81, 64
1, 17256, Note_on_c, 0, 30, 92
1, 17256, Note_off_c, 0, 31, 64
1, 17256, Note_off_c, 0, 62, 64
1, 17257, Note_on_c, 0, 66, 14
1, 17257, Note_on_c, 0, 84, 20
1, 17258, Note_on_c, 0, 72, 25
1, 17258, Note_on_c, 0, 76, 30
1, 17258, Note_on_c, 0, 80, 29
1, 17259, Note_off_c, 0, 30, 64
1, 17259, Note_on_c, 0, 85, 32
1, 17260, Note_on_c, 0, 61, 36
1, 17260, Note_off_c, 0, 66, 64
1, 17260, Note_off_c, 0, 86, 64
1, 17260, Note_on_c, 0, 88, 36
1, 17260, Note_on_c, 0, 94, 27
1, 17261, Note_on_c, 0, 36, 68
1, 17261, Note_on_c, 0, 54, 54
1, 17261, Note_on_c, 0, 64, 30
1, 17261, Note_on_c, 0, 87, 28
1, 17262, Note_on_c, 0, 30, 77
1, 17262, Note_off_c, 0, 36, 64
1, 17262, Note_off_c, 0, 72, 64
1, 17262, Note_on_c, 0, 77, 13
1, 17262, Note_off_c, 0, 84, 64
1, 17263, Note_on_c, 0, 29, 79
1, 17263, Note_off_c, 0, 30, 64
1, 17263, Note_on_c, 0, 84, 15
1, 17263, Note_off_c, 0, 88, 64
1, 17263, Note_off_c, 0, 94, 64
1, 17264, Note_off_c, 0, 54, 64
1, 17264, Note_off_c, 0, 64, 64
1, 17264, Note_off_c, 0, 82, 64
1, 17264, Note_on_c, 0, 91, 14
1, 17265, Note_off_c, 0, 29, 64
1, 17265, Note_on_c, 0, 30, 76
1, 17266, Note_off_c, 0, 61, 64
1, 17266, Note_off_c, 0, 80, 64
1, 17266, Note_on_c, 0, 83, 26
1, 17266, Note_off_c, 0, 84, 64
1, 17267, Note_on_c, 0, 29, 74
1, 17267, Note_off_c, 0, 30, 64
1, 17267, Note_off_c, 0, 77, 64
1, 17267, Note_on_c, 0, 79, 21
1, 17268, Note_off_c, 0, 78, 64
1, 17268, Note_on_c, 0, 86, 21
1, 17268, Note_off_c, 0, 87, 64
1, 17268, Note_on_c, 0, 89, 31
1, 17269, Note_off_c, 0, 29, 64
1, 17269, Note_on_c, 0, 30, 68
1, 17270, Note_off_c, 0, 30, 64
1, 17270, Note_on_c, 0, 74, 16
1, 17270, Note_on_c, 0, 78, 41
1, 17270, Note_on_c, 0, 81, 9
1, 17271, Note_on_c, 0, 42, 70
1, 17271, Note_on_c, 0, 68, 19
1, 17271, Note_off_c, 0, 79, 64
1, 17271, Note_on_c, 0, 82, 24
1, 17271, Note_off_c, 0, 83, 64
1, 17271, Note_on_c, 0, 84, 19
1, 17272, Note_on_c, 0, 31, 75
1, 17272, Note_off_c, 0, 42, 64
1, 17272, Note_on_c, 0, 61, 28
1, 17272, Note_on_c, 0, 77, 13
1, 17273, Note_on_c, 0, 30, 82
1, 17273, Note_off_c, 0, 31, 64
1, 17273, Note_on_c, 0, 64, 33
1, 17273, Note_off_c, 0, 74, 64
1, 17273, Note_off_c, 0, 76, 64
1, 17273, Note_off_c, 0, 81, 64
1, 17273, Note_off_c, 0, 85, 64
1, 17273, Note_off_c, 0, 91, 64
1, 17274, Note_on_c, 0, 29, 81
1, 17274, Note_off_c, 0, 30, 64
1, 17274, Note_on_c, 0, 81, 12
1, 17274, Note_on_c, 0, 83, 41
1, 17274, Note_off_c, 0, 84, 64
1, 17275, Note_off_c, 0, 29, 64
1, 17275, Note_on_c, 0, 30, 78
1, 17275, Note_off_c, 0, 64, 64
1, 17275, Note_on_c, 0, 76, 13
1, 17275, Note_off_c, 0, 77, 64
1, 17275, Note_off_c, 0, 82, 64
1, 17276, Note_off_c, 0, 30, 64
1, 17276, Note_on_c, 0, 34, 72
1, 17276, Note_on_c, 0, 54, 43
1, 17276, Note_off_c, 0, 86, 64
1, 17277, Note_off_c, 0, 34, 64
1, 17277, Note_off_c, 0, 61, 64
1, 17277, Note_off_c, 0, 68, 64
1, 17277, Note_off_c, 0, 81, 64
1, 17277, Note_on_c, 0, 82, 42
1, 17277, Note_on_c, 0, 91, 32
1, 17278, Note_off_c, 0, 54, 64
1, 17278, Note_on_c, 0, 73, 41
1, 17278, Note_off_c, 0, 76, 64
1, 17278, Note_on_c, 0, 86, 31
1, 17279, Note_on_c, 0, 66, 49
1, 17279, Note_on_c, 0, 80, 39
1, 17279, Note_on_c, 0, 84, 35
1, 17280, Note_on_c, 0, 50, 77
1, 17280, Note_off_c, 0, 73, 64
1, 17280, Note_on_c, 0, 76, 13
1, 17280, Note_off_c, 0, 91, 64
1, 17281, Note_on_c, 0, 46, 87
1, 17281, Note_off_c, 0, 50, 64
1, 17281, Note_off_c, 0, 82, 64
1, 17281, Note_off_c, 0, 84, 64
1, 17281, Note_off_c, 0, 86, 64
1, 17281, Note_off_c, 0, 89, 64
1, 17282, Note_on_c, 0, 44, 94
1, 17282, Note_off_c, 0, 46, 64
1, 17282, Note_on_c, 0, 85, 23
1, 17283, Note_on_c, 0, 41, 100
1, 17283, Note_off_c, 0, 44, 64
1, 17283, Note_on_c, 0, 73, 12
1, 17283, Note_off_c, 0, 76, 64
1, 17283, Note_off_c, 0, 83, 64
1, 17283, Note_on_c, 0, 86, 10
1, 17284, Note_on_c, 0, 39, 97
1, 17284, Note_off_c, 0, 41, 64
1, 17284, Note_on_c, 0, 82, 13
1, 17285, Note_on_c, 0, 37, 98
1, 17285, Note_off_c, 0, 39, 64
1, 17286, Note_on_c, 0, 36, 97
1, 17286, Note_off_c, 0, 37, 64
1, 17286, Note_off_c, 0, 73, 64
1, 17287, Note_on_c, 0, 35, 96
1, 17287, Note_off_c, 0, 36, 64
1, 17287, Note_off_c, 0, 82, 64
1, 17287, Note_on_c, 0, 83, 16
1, 17288, Note_on_c, 0, 34, 96
1, 17288, Note_off_c, 0, 35, 64
1, 17289, Note_on_c, 0, 33, 96
1, 17289, Note_off_c, 0, 34, 64
1, 17289, Note_on_c, 0, 76, 12
1, 17289, Note_on_c, 0, 87, 31
1, 17291, Note_on_c, 0, 32, 96
1, 17291, Note_off_c, 0, 33, 64
1, 17291, Note_off_c, 0, 85, 64
1, 17292, Note_on_c, 0, 31, 96
1, 17292, Note_off_c, 0, 32, 64
1, 17292, Note_off_c, 0, 86, 64
1, 17294, Note_on_c, 0, 30, 89
1, 17294, Note_off_c, 0, 31, 64
1, 17294, Note_off_c, 0, 83, 64
1, 17296, Note_on_c, 0, 82, 22
1, 17296, Note_on_c, 0, 83, 23
1, 17297, Note_off_c, 0, 30, 64
1, 17297, Note_on_c, 0, 61, 36
1, 17297, Note_off_c, 0, 66, 64
1, 17297, Note_off_c, 0, 76, 64
1, 17297, Note_on_c, 0, 85, 16
1, 17297, Note_on_c, 0, 89, 27
1, 17298, Note_on_c, 0, 37, 69
1, 17298, Note_on_c, 0, 64, 37
1, 17298, Note_on_c, 0, 68, 15
1, 17298, Note_off_c, 0, 80, 64
1, 17299, Note_on_c, 0, 30, 79
1, 17299, Note_off_c, 0, 37, 64
1, 17299, Note_on_c, 0, 86, 17
1, 17300, Note_off_c, 0, 64, 64
1, 17300, Note_off_c, 0, 78, 64
1, 17300, Note_off_c, 0, 83, 64
1, 17300, Note_off_c, 0, 85, 64
1, 17300, Note_on_c, 0, 88, 12
1, 17301, Note_on_c, 0, 29, 80
1, 17301, Note_off_c, 0, 30, 64
1, 17301, Note_off_c, 0, 89, 64
1, 17302, Note_off_c, 0, 29, 64
1, 17302, Note_on_c, 0, 30, 77
1, 17302, Note_off_c, 0, 82, 64
1, 17302, Note_on_c, 0, 83, 20
1, 17302, Note_off_c, 0, 86, 64
1, 17302, Note_off_c, 0, 87, 64
1, 17303, Note_off_c, 0, 61, 64
1, 17303, Note_on_c, 0, 81, 13
1, 17304, Note_off_c, 0, 68, 64
1, 17305, Note_on_c, 0, 29, 73
1, 17305, Note_off_c, 0, 30, 64
1, 17305, Note_on_c, 0, 75, 20
1, 17305, Note_on_c, 0, 82, 20
1, 17305, Note_off_c, 0, 83, 64
1, 17305, Note_off_c, 0, 88, 64
1, 17306, Note_on_c, 0, 85, 14
1, 17307, Note_off_c, 0, 29, 64
1, 17307, Note_off_c, 0, 81, 64
1, 17308, Note_on_c, 0, 71, 17
1, 17308, Note_off_c, 0, 82, 64
1, 17308, Note_on_c, 0, 86, 28
1, 17308, Note_on_c, 0, 89, 11
1, 17308, Note_on_c, 0, 91, 11
1, 17309, Note_on_c, 0, 36, 72
1, 17309, Note_on_c, 0, 61, 32
1, 17309, Note_on_c, 0, 68, 18
1, 17309, Note_on_c, 0, 70, 18
1, 17309, Note_off_c, 0, 75, 64
1, 17309, Note_on_c, 0, 76, 16
1, 17309, Note_on_c, 0, 79, 13
1, 17309, Note_off_c, 0, 85, 64
1, 17309, Note_on_c, 0, 87, 29
1, 17310, Note_on_c, 0, 30, 80
1, 17310, Note_off_c, 0, 36, 64
1, 17310, Note_on_c, 0, 54, 51
1, 17310, Note_on_c, 0, 82, 25
1, 17311, Note_on_c, 0, 29, 82
1, 17311, Note_off_c, 0, 30, 64
1, 17311, Note_off_c, 0, 71, 64
1, 17312, Note_off_c, 0, 54, 64
1, 17312, Note_on_c, 0, 63, 46
1, 17312, Note_off_c, 0, 70, 64
1, 17312, Note_on_c, 0, 73, 42
1, 17312, Note_off_c, 0, 76, 64
1, 17312, Note_off_c, 0, 79, 64
1, 17312, Note_off_c, 0, 89, 64
1, 17312, Note_off_c, 0, 91, 64
1, 17313, Note_off_c, 0, 29, 64
1, 17313, Note_on_c, 0, 30, 75
1, 17313, Note_on_c, 0, 48, 57
1, 17313, Note_on_c, 0, 54, 46
1, 17313, Note_off_c, 0, 61, 64
1, 17313, Note_on_c, 0, 79, 37
1, 17314, Note_off_c, 0, 30, 64
1, 17314, Note_on_c, 0, 34, 66
1, 17314, Note_off_c, 0, 68, 64
1, 17314, Note_on_c, 0, 76, 43
1, 17315, Note_on_c, 0, 80, 40
1, 17315, Note_on_c, 0, 83, 35
1, 17315, Note_on_c, 0, 84, 35
1, 17315, Note_on_c, 0, 93, 26
1, 17316, Note_off_c, 0, 34, 64
1, 17316, Note_off_c, 0, 48, 64
1, 17316, Note_off_c, 0, 54, 64
1, 17316, Note_on_c, 0, 68, 44
1, 17316, Note_off_c, 0, 82, 64
1, 17317, Note_on_c, 0, 54, 69
1, 17317, Note_off_c, 0, 63, 64
1, 17317, Note_off_c, 0, 80, 64
1, 17317, Note_on_c, 0, 81, 29
1, 17317, Note_on_c, 0, 89, 13
1, 17318, Note_on_c, 0, 48, 84
1, 17318, Note_off_c, 0, 54, 64
1, 17318, Note_off_c, 0, 73, 64
1, 17318, Note_off_c, 0, 83, 64
1, 17318, Note_on_c, 0, 85, 14
1, 17318, Note_off_c, 0, 93, 64
1, 17319, Note_on_c, 0, 45, 93
1, 17319, Note_off_c, 0, 48, 64
1, 17319, Note_off_c, 0, 68, 64
1, 17319, Note_off_c, 0, 81, 64
1, 17319, Note_off_c, 0, 84, 64
1, 17319, Note_off_c, 0, 86, 64
1, 17319, Note_off_c, 0, 87, 64
1, 17320, Note_on_c, 0, 42, 99
1, 17320, Note_off_c, 0, 45, 64
1, 17320, Note_off_c, 0, 79, 64
1, 17320, Note_off_c, 0, 89, 64
1, 17321, Note_on_c, 0, 40, 99
1, 17321, Note_off_c, 0, 42, 64
1, 17321, Note_off_c, 0, 76, 64
1, 17321, Note_off_c, 0, 85, 64
1, 17322, Note_on_c, 0, 38, 98
1, 17322, Note_off_c, 0, 40, 64
1, 17322, Note_on_c, 0, 83, 17
1, 17323, Note_on_c, 0, 37, 98
1, 17323, Note_off_c, 0, 38, 64
1, 17324, Note_on_c, 0, 35, 96
1, 17324, Note_off_c, 0, 37, 64
1, 17325, Note_on_c, 0, 34, 96
1, 17325, Note_off_c, 0, 35, 64
1, 17325, Note_on_c, 0, 85, 11
1, 17325, Note_on_c, 0, 86, 11
1, 17326, Note_on_c, 0, 33, 96
1, 17326, Note_off_c, 0, 34, 64
1, 17327, Note_off_c, 0, 83, 64
1, 17328, Note_on_c, 0, 32, 96
1, 17328, Note_off_c, 0, 33, 64
1, 17328, Note_off_c, 0, 85, 64
1, 17328, Note_off_c, 0, 86, 64
1, 17329, Note_on_c, 0, 31, 97
1, 17329, Note_off_c, 0, 32, 64
1, 17331, Note_on_c, 0, 30, 91
1, 17331, Note_off_c, 0, 31, 64
1, 17331, Note_on_c, 0, 83, 24
1, 17334, Note_off_c, 0, 30, 64
1, 17334, Note_on_c, 0, 72, 37
1, 17334, Note_on_c, 0, 79, 40
1, 17335, Note_on_c, 0, 77, 40
1, 17336, Note_on_c, 0, 31, 71
1, 17336, Note_on_c, 0, 64, 34
1, 17336, Note_on_c, 0, 68, 38
1, 17336, Note_on_c, 0, 70, 33
1, 17336, Note_off_c, 0, 72, 64
1, 17336, Note_on_c, 0, 73, 31
1, 17336, Note_on_c, 0, 88, 11
1, 17337, Note_on_c, 0, 30, 79
1, 17337, Note_off_c, 0, 31, 64
1, 17337, Note_off_c, 0, 83, 64
1, 17338, Note_on_c, 0, 29, 81
1, 17338, Note_off_c, 0, 30, 64
1, 17339, Note_off_c, 0, 29, 64
1, 17339, Note_on_c, 0, 30, 79
1, 17339, Note_off_c, 0, 64, 64
1, 17339, Note_off_c, 0, 68, 64
1, 17339, Note_off_c, 0, 70, 64
1, 17339, Note_off_c, 0, 73, 64
1, 17339, Note_off_c, 0, 79, 64
1, 17339, Note_off_c, 0, 88, 64
1, 17340, Note_on_c, 0, 66, 15
1, 17340, Note_off_c, 0, 77, 64
1, 17340, Note_on_c, 0, 82, 12
1, 17340, Note_on_c, 0, 85, 20
1, 17341, Note_on_c, 0, 78, 27
1, 17342, Note_on_c, 0, 29, 74
1, 17342, Note_off_c, 0, 30, 64
1, 17343, Note_off_c, 0, 82, 64
1, 17344, Note_off_c, 0, 29, 64
1, 17344, Note_on_c, 0, 30, 67
1, 17344, Note_off_c, 0, 66, 64
1, 17345, Note_on_c, 0, 66, 24
1, 17346, Note_off_c, 0, 30, 64
1, 17346, Note_on_c, 0, 42, 71
1, 17346, Note_on_c, 0, 61, 25
1, 17346, Note_on_c, 0, 76, 23
1, 17346, Note_on_c, 0, 87, 28
1, 17347, Note_on_c, 0, 30, 82
1, 17347, Note_off_c, 0, 42, 64
1, 17347, Note_on_c, 0, 71, 15
1, 17347, Note_on_c, 0, 83, 18
1, 17348, Note_off_c, 0, 85, 64
1, 17349, Note_on_c, 0, 29, 82
1, 17349, Note_off_c, 0, 30, 64
1, 17349, Note_on_c, 0, 49, 59
1, 17349, Note_on_c, 0, 63, 23
1, 17350, Note_off_c, 0, 29, 64
1, 17350, Note_on_c, 0, 30, 78
1, 17350, Note_off_c, 0, 66, 64
1, 17350, Note_off_c, 0, 71, 64
1, 17350, Note_off_c, 0, 76, 64
1, 17350, Note_off_c, 0, 83, 64
1, 17351, Note_off_c, 0, 30, 64
1, 17351, Note_on_c, 0, 34, 71
1, 17351, Note_off_c, 0, 49, 64
1, 17351, Note_on_c, 0, 54, 42
1, 17352, Note_off_c, 0, 34, 64
1, 17352, Note_off_c, 0, 61, 64
1, 17352, Note_on_c, 0, 77, 36
1, 17352, Note_on_c, 0, 82, 39
1, 17352, Note_on_c, 0, 84, 35
1, 17353, Note_off_c, 0, 54, 64
1, 17353, Note_off_c, 0, 63, 64
1, 17353, Note_off_c, 0, 78, 64
1, 17353, Note_on_c, 0, 85, 35
1, 17353, Note_on_c, 0, 88, 23
1, 17354, Note_on_c, 0, 62, 51
1, 17354, Note_on_c, 0, 76, 34
1, 17354, Note_off_c, 0, 77, 64
1, 17354, Note_on_c, 0, 78, 34
1, 17354, Note_on_c, 0, 81, 35
1, 17354, Note_on_c, 0, 83, 34
1, 17354, Note_off_c, 0, 84, 64
1, 17354, Note_on_c, 0, 86, 28
1, 17355, Note_on_c, 0, 50, 78
1, 17355, Note_off_c, 0, 87, 64
1, 17356, Note_on_c, 0, 46, 89
1, 17356, Note_off_c, 0, 50, 64
1, 17356, Note_off_c, 0, 62, 64
1, 17356, Note_off_c, 0, 76, 64
1, 17356, Note_off_c, 0, 78, 64
1, 17356, Note_off_c, 0, 81, 64
1, 17356, Note_off_c, 0, 83, 64
1, 17356, Note_off_c, 0, 88, 64
1, 17357, Note_on_c, 0, 43, 96
1, 17357, Note_off_c, 0, 46, 64
1, 17357, Note_off_c, 0, 86, 64
1, 17358, Note_on_c, 0, 41, 100
1, 17358, Note_off_c, 0, 43, 64
1, 17358, Note_off_c, 0, 82, 64
1, 17359, Note_on_c, 0, 39, 97
1, 17359, Note_off_c, 0, 41, 64
1, 17359, Note_off_c, 0, 85, 64
1, 17360, Note_on_c, 0, 37, 98
1, 17360, Note_off_c, 0, 39, 64
1, 17361, Note_on_c, 0, 36, 97
1, 17361, Note_off_c, 0, 37, 64
1, 17362, Note_on_c, 0, 35, 96
1, 17362, Note_off_c, 0, 36, 64
1, 17363, Note_on_c, 0, 34, 96
1, 17363, Note_off_c, 0, 35, 64
1, 17364, Note_on_c, 0, 33, 96
1, 17364, Note_off_c, 0, 34, 64
1, 17365, Note_on_c, 0, 32, 97
1, 17365, Note_off_c, 0, 33, 64
1, 17367, Note_on_c, 0, 31, 96
1, 17367, Note_off_c, 0, 32, 64
1, 17367, Note_on_c, 0, 82, 21
1, 17369, Note_on_c, 0, 30, 88
1, 17369, Note_off_c, 0, 31, 64
1, 17371, Note_on_c, 0, 76, 20
1, 17372, Note_off_c, 0, 30, 64
1, 17372, Note_on_c, 0, 66, 27
1, 17372, Note_on_c, 0, 80, 14
1, 17372, Note_on_c, 0, 85, 19
1, 17373, Note_on_c, 0, 37, 69
1, 17373, Note_off_c, 0, 82, 64
1, 17374, Note_on_c, 0, 30, 79
1, 17374, Note_off_c, 0, 37, 64
1, 17374, Note_on_c, 0, 49, 59
1, 17374, Note_on_c, 0, 63, 30
1, 17374, Note_on_c, 0, 68, 20
1, 17374, Note_on_c, 0, 71, 16
1, 17375, Note_off_c, 0, 66, 64
1, 17375, Note_off_c, 0, 76, 64
1, 17376, Note_on_c, 0, 29, 80
1, 17376, Note_off_c, 0, 30, 64
1, 17376, Note_off_c, 0, 63, 64
1, 17377, Note_on_c, 0, 63, 15
1, 17377, Note_off_c, 0, 68, 64
1, 17377, Note_on_c, 0, 70, 15
1, 17377, Note_off_c, 0, 71, 64
1, 17378, Note_off_c, 0, 29, 64
1, 17378, Note_on_c, 0, 30, 76
1, 17379, Note_off_c, 0, 49, 64
1, 17379, Note_off_c, 0, 80, 64
1, 17379, Note_on_c, 0, 83, 11
1, 17380, Note_on_c, 0, 29, 73
1, 17380, Note_off_c, 0, 30, 64
1, 17380, Note_off_c, 0, 63, 64
1, 17381, Note_off_c, 0, 70, 64
1, 17382, Note_off_c, 0, 29, 64
1, 17382, Note_off_c, 0, 85, 64
1, 17383, Note_on_c, 0, 44, 65
1, 17383, Note_on_c, 0, 74, 14
1, 17383, Note_on_c, 0, 80, 16
1, 17383, Note_on_c, 0, 89, 14
1, 17384, Note_on_c, 0, 36, 72
1, 17384, Note_off_c, 0, 44, 64
1, 17384, Note_on_c, 0, 68, 23
1, 17384, Note_on_c, 0, 73, 9
1, 17384, Note_off_c, 0, 83, 64
1, 17385, Note_on_c, 0, 30, 81
1, 17385, Note_off_c, 0, 36, 64
1, 17386, Note_on_c, 0, 29, 82
1, 17386, Note_off_c, 0, 30, 64
1, 17386, Note_off_c, 0, 74, 64
1, 17386, Note_off_c, 0, 80, 64
1, 17386, Note_off_c, 0, 89, 64
1, 17387, Note_off_c, 0, 73, 64
1, 17388, Note_off_c, 0, 29, 64
1, 17388, Note_on_c, 0, 30, 75
1, 17388, Note_on_c, 0, 54, 44
1, 17388, Note_on_c, 0, 61, 17
1, 17389, Note_off_c, 0, 30, 64
1, 17389, Note_on_c, 0, 34, 65
1, 17389, Note_off_c, 0, 68, 64
1, 17390, Note_off_c, 0, 54, 64
1, 17390, Note_on_c, 0, 63, 50
1, 17390, Note_on_c, 0, 68, 44
1, 17390, Note_on_c, 0, 71, 41
1, 17390, Note_on_c, 0, 76, 35
1, 17390, Note_on_c, 0, 84, 32
1, 17390, Note_on_c, 0, 86, 32
1, 17390, Note_on_c, 0, 89, 29
1, 17390, Note_on_c, 0, 91, 26
1, 17390, Note_on_c, 0, 99, 17
1, 17391, Note_off_c, 0, 34, 64
1, 17391, Note_off_c, 0, 61, 64
1, 17391, Note_on_c, 0, 78, 36
1, 17392, Note_on_c, 0, 53, 70
1, 17392, Note_off_c, 0, 63, 64
1, 17392, Note_off_c, 0, 68, 64
1, 17392, Note_off_c, 0, 71, 64
1, 17392, Note_off_c, 0, 76, 64
1, 17392, Note_on_c, 0, 82, 23
1, 17393, Note_on_c, 0, 48, 84
1, 17393, Note_off_c, 0, 53, 64
1, 17393, Note_off_c, 0, 78, 64
1, 17393, Note_off_c, 0, 84, 64
1, 17393, Note_off_c, 0, 86, 64
1, 17393, Note_off_c, 0, 89, 64
1, 17393, Note_off_c, 0, 91, 64
1, 17393, Note_off_c, 0, 99, 64
1, 17394, Note_on_c, 0, 45, 94
1, 17394, Note_off_c, 0, 48, 64
1, 17395, Note_on_c, 0, 42, 99
1, 17395, Note_off_c, 0, 45, 64
1, 17395, Note_off_c, 0, 82, 64
1, 17396, Note_on_c, 0, 40, 97
1, 17396, Note_off_c, 0, 42, 64
1, 17397, Note_on_c, 0, 38, 98
1, 17397, Note_off_c, 0, 40, 64
1, 17398, Note_on_c, 0, 37, 98
1, 17398, Note_off_c, 0, 38, 64
1, 17399, Note_on_c, 0, 35, 97
1, 17399, Note_off_c, 0, 37, 64
1, 17400, Note_on_c, 0, 34, 96
1, 17400, Note_off_c, 0, 35, 64
1, 17401, Note_on_c, 0, 33, 96
1, 17401, Note_off_c, 0, 34, 64
1, 17403, Note_on_c, 0, 32, 96
1, 17403, Note_off_c, 0, 33, 64
1, 17403, Note_on_c, 0, 49, 32
1, 17404, Note_on_c, 0, 31, 97
1, 17404, Note_off_c, 0, 32, 64
1, 17405, Note_on_c, 0, 48, 29
1, 17405, Note_off_c, 0, 49, 64
1, 17406, Note_on_c, 0, 30, 91
1, 17406, Note_off_c, 0, 31, 64
1, 17408, Note_off_c, 0, 48, 64
1, 17409, Note_off_c, 0, 30, 64
1, 17409, Note_on_c, 0, 43, 65
1, 17410, Note_on_c, 0, 61, 28
1, 17410, Note_on_c, 0, 82, 9
1, 17411, Note_on_c, 0, 31, 71
1, 17411, Note_off_c, 0, 43, 64
1, 17411, Note_on_c, 0, 64, 28
1, 17411, Note_on_c, 0, 74, 10
1, 17412, Note_on_c, 0, 30, 78
1, 17412, Note_off_c, 0, 31, 64
1, 17413, Note_on_c, 0, 29, 80
1, 17413, Note_off_c, 0, 30, 64
1, 17413, Note_on_c, 0, 68, 12
1, 17413, Note_off_c, 0, 82, 64
1, 17414, Note_off_c, 0, 29, 64
1, 17414, Note_on_c, 0, 30, 78
1, 17414, Note_off_c, 0, 61, 64
1, 17414, Note_on_c, 0, 63, 23
1, 17414, Note_off_c, 0, 64, 64
1, 17414, Note_off_c, 0, 74, 64
1, 17416, Note_off_c, 0, 68, 64
1, 17417, Note_on_c, 0, 29, 74
1, 17417, Note_off_c, 0, 30, 64
1, 17417, Note_off_c, 0, 63, 64
1, 17419, Note_off_c, 0, 29, 64
1, 17419, Note_on_c, 0, 30, 67
1, 17420, Note_on_c, 0, 73, 17
1, 17420, Note_on_c, 0, 81, 16
1, 17420, Note_on_c, 0, 86, 15
1, 17421, Note_off_c, 0, 30, 64
1, 17421, Note_on_c, 0, 41, 71
1, 17421, Note_on_c, 0, 61, 28
1, 17421, Note_on_c, 0, 64, 30
1, 17421, Note_on_c, 0, 68, 23
1, 17421, Note_on_c, 0, 79, 16
1, 17421, Note_on_c, 0, 83, 21
1, 17422, Note_on_c, 0, 30, 78
1, 17422, Note_off_c, 0, 41, 64
1, 17423, Note_on_c, 0, 29, 81
1, 17423, Note_off_c, 0, 30, 64
1, 17423, Note_off_c, 0, 73, 64
1, 17423, Note_off_c, 0, 81, 64
1, 17424, Note_on_c, 0, 49, 58
1, 17424, Note_off_c, 0, 64, 64
1, 17424, Note_off_c, 0, 79, 64
1, 17424, Note_off_c, 0, 83, 64
1, 17425, Note_off_c, 0, 29, 64
1, 17425, Note_on_c, 0, 30, 76
1, 17425, Note_on_c, 0, 81, 32
1, 17426, Note_off_c, 0, 30, 64
1, 17426, Note_on_c, 0, 34, 70
1, 17426, Note_off_c, 0, 49, 64
1, 17426, Note_on_c, 0, 54, 36
1, 17426, Note_off_c, 0, 68, 64
1, 17426, Note_on_c, 0, 76, 39
1, 17427, Note_off_c, 0, 34, 64
1, 17427, Note_off_c, 0, 61, 64
1, 17427, Note_on_c, 0, 79, 36
1, 17427, Note_on_c, 0, 80, 37
1, 17427, Note_on_c, 0, 83, 31
1, 17427, Note_on_c, 0, 84, 34
1, 17427, Note_off_c, 0, 86, 64
1, 17428, Note_off_c, 0, 54, 64
1, 17428, Note_on_c, 0, 68, 44
1, 17428, Note_on_c, 0, 72, 39
1, 17429, Note_on_c, 0, 74, 36
1, 17429, Note_off_c, 0, 79, 64
1, 17429, Note_off_c, 0, 81, 64
1, 17429, Note_off_c, 0, 83, 64
1, 17430, Note_on_c, 0, 50, 78
1, 17430, Note_off_c, 0, 68, 64
1, 17430, Note_off_c, 0, 84, 64
1, 17431, Note_on_c, 0, 45, 90
1, 17431, Note_off_c, 0, 50, 64
1, 17431, Note_off_c, 0, 72, 64
1, 17431, Note_off_c, 0, 74, 64
1, 17431, Note_off_c, 0, 76, 64
1, 17432, Note_on_c, 0, 42, 96
1, 17432, Note_off_c, 0, 45, 64
1, 17433, Note_on_c, 0, 41, 100
1, 17433, Note_off_c, 0, 42, 64
1, 17433, Note_off_c, 0, 80, 64
1, 17434, Note_on_c, 0, 39, 98
1, 17434, Note_off_c, 0, 41, 64
1, 17435, Note_on_c, 0, 37, 98
1, 17435, Note_off_c, 0, 39, 64
1, 17436, Note_on_c, 0, 36, 97
1, 17436, Note_off_c, 0, 37, 64
1, 17437, Note_on_c, 0, 35, 96
1, 17437, Note_off_c, 0, 36, 64
1, 17438, Note_on_c, 0, 34, 96
1, 17438, Note_off_c, 0, 35, 64
1, 17439, Note_on_c, 0, 33, 96
1, 17439, Note_off_c, 0, 34, 64
1, 17440, Note_on_c, 0, 32, 97
1, 17440, Note_off_c, 0, 33, 64
1, 17442, Note_on_c, 0, 31, 96
1, 17442, Note_off_c, 0, 32, 64
1, 17444, Note_on_c, 0, 30, 87
1, 17444, Note_off_c, 0, 31, 64
1, 17446, Note_off_c, 0, 30, 64
1, 17447, Note_on_c, 0, 82, 14
1, 17448, Note_on_c, 0, 37, 72
1, 17448, Note_on_c, 0, 61, 33
1, 17448, Note_on_c, 0, 64, 27
1, 17448, Note_on_c, 0, 68, 15
1, 17448, Note_on_c, 0, 71, 12
1, 17449, Note_on_c, 0, 31, 77
1, 17449, Note_off_c, 0, 37, 64
1, 17449, Note_on_c, 0, 49, 58
1, 17449, Note_on_c, 0, 66, 13
1, 17450, Note_on_c, 0, 30, 80
1, 17450, Note_off_c, 0, 31, 64
1, 17450, Note_off_c, 0, 82, 64
1, 17451, Note_on_c, 0, 29, 80
1, 17451, Note_off_c, 0, 30, 64
1, 17451, Note_off_c, 0, 64, 64
1, 17452, Note_off_c, 0, 29, 64
1, 17452, Note_on_c, 0, 30, 77
1, 17452, Note_off_c, 0, 49, 64
1, 17452, Note_off_c, 0, 66, 64
1, 17452, Note_off_c, 0, 71, 64
1, 17453, Note_off_c, 0, 68, 64
1, 17454, Note_on_c, 0, 29, 75
1, 17454, Note_off_c, 0, 30, 64
1, 17455, Note_off_c, 0, 61, 64
1, 17456, Note_off_c, 0, 29, 64
1, 17456, Note_on_c, 0, 30, 70
1, 17458, Note_off_c, 0, 30, 64
1, 17458, Note_on_c, 0, 43, 66
1, 17458, Note_on_c, 0, 68, 22
1, 17458, Note_on_c, 0, 78, 17
1, 17458, Note_on_c, 0, 87, 15
1, 17459, Note_on_c, 0, 32, 73
1, 17459, Note_off_c, 0, 43, 64
1, 17459, Note_on_c, 0, 64, 30
1, 17459, Note_on_c, 0, 77, 12
1, 17460, Note_on_c, 0, 30, 82
1, 17460, Note_off_c, 0, 32, 64
1, 17461, Note_on_c, 0, 29, 82
1, 17461, Note_off_c, 0, 30, 64
1, 17461, Note_off_c, 0, 87, 64
1, 17462, Note_off_c, 0, 77, 64
1, 17462, Note_off_c, 0, 78, 64
1, 17463, Note_off_c, 0, 29, 64
1, 17463, Note_on_c, 0, 33, 74
1, 17463, Note_on_c, 0, 54, 42
1, 17463, Note_off_c, 0, 64, 64
1, 17464, Note_off_c, 0, 68, 64
1, 17465, Note_off_c, 0, 33, 64
1, 17465, Note_on_c, 0, 75, 37
1, 17465, Note_on_c, 0, 78, 37
1, 17465, Note_on_c, 0, 83, 34
1, 17465, Note_on_c, 0, 85, 29
1, 17465, Note_on_c, 0, 86, 28
1, 17465, Note_on_c, 0, 89, 29
1, 17465, Note_on_c, 0, 92, 27
1, 17466, Note_off_c, 0, 54, 64
1, 17466, Note_on_c, 0, 81, 38
1, 17467, Note_on_c, 0, 50, 72
1, 17468, Note_on_c, 0, 48, 85
1, 17468, Note_off_c, 0, 50, 64
1, 17468, Note_off_c, 0, 75, 64
1, 17468, Note_off_c, 0, 78, 64
1, 17468, Note_off_c, 0, 81, 64
1, 17468, Note_off_c, 0, 83, 64
1, 17468, Note_off_c, 0, 85, 64
1, 17468, Note_off_c, 0, 86, 64
1, 17468, Note_off_c, 0, 89, 64
1, 17468, Note_off_c, 0, 92, 64
1, 17469, Note_on_c, 0, 45, 95
1, 17469, Note_off_c, 0, 48, 64
1, 17470, Note_on_c, 0, 42, 100
1, 17470, Note_off_c, 0, 45, 64
1, 17471, Note_on_c, 0, 40, 98
1, 17471, Note_off_c, 0, 42, 64
1, 17472, Note_on_c, 0, 38, 98
1, 17472, Note_off_c, 0, 40, 64
1, 17473, Note_on_c, 0, 36, 98
1, 17473, Note_off_c, 0, 38, 64
1, 17474, Note_on_c, 0, 35, 96
1, 17474, Note_off_c, 0, 36, 64
1, 17475, Note_on_c, 0, 34, 96
1, 17475, Note_off_c, 0, 35, 64
1, 17476, Note_on_c, 0, 33, 96
1, 17476, Note_off_c, 0, 34, 64
1, 17478, Note_on_c, 0, 32, 97
1, 17478, Note_off_c, 0, 33, 64
1, 17479, Note_on_c, 0, 31, 97
1, 17479, Note_off_c, 0, 32, 64
1, 17481, Note_on_c, 0, 30, 91
1, 17481, Note_off_c, 0, 31, 64
1, 17484, Note_off_c, 0, 30, 64
1, 17485, Note_on_c, 0, 41, 67
1, 17485, Note_on_c, 0, 71, 15
1, 17485, Note_on_c, 0, 85, 19
1, 17486, Note_on_c, 0, 30, 80
1, 17486, Note_off_c, 0, 41, 64
1, 17486, Note_on_c, 0, 61, 26
1, 17488, Note_on_c, 0, 29, 80
1, 17488, Note_off_c, 0, 30, 64
1, 17488, Note_on_c, 0, 63, 23
1, 17489, Note_off_c, 0, 29, 64
1, 17489, Note_on_c, 0, 30, 78
1, 17489, Note_off_c, 0, 85, 64
1, 17490, Note_off_c, 0, 71, 64
1, 17492, Note_on_c, 0, 29, 74
1, 17492, Note_off_c, 0, 30, 64
1, 17492, Note_off_c, 0, 61, 64
1, 17492, Note_off_c, 0, 63, 64
1, 17494, Note_off_c, 0, 29, 64
1, 17494, Note_on_c, 0, 30, 66
1, 17496, Note_off_c, 0, 30, 64
1, 17496, Note_on_c, 0, 36, 71
1, 17496, Note_on_c, 0, 61, 30
1, 17496, Note_on_c, 0, 68, 18
1, 17496, Note_on_c, 0, 70, 19
1, 17496, Note_on_c, 0, 74, 13
1, 17497, Note_on_c, 0, 30, 79
1, 17497, Note_off_c, 0, 36, 64
1, 17497, Note_on_c, 0, 49, 62
1, 17498, Note_on_c, 0, 29, 82
1, 17498, Note_off_c, 0, 30, 64
1, 17499, Note_on_c, 0, 63, 24
1, 17499, Note_off_c, 0, 74, 64
1, 17500, Note_off_c, 0, 29, 64
1, 17500, Note_on_c, 0, 30, 77
1, 17500, Note_on_c, 0, 48, 58
1, 17500, Note_off_c, 0, 49, 64
1, 17500, Note_off_c, 0, 61, 64
1, 17500, Note_off_c, 0, 70, 64
1, 17501, Note_off_c, 0, 30, 64
1, 17501, Note_on_c, 0, 34, 69
1, 17501, Note_on_c, 0, 54, 36
1, 17501, Note_off_c, 0, 68, 64
1, 17502, Note_off_c, 0, 34, 64
1, 17502, Note_off_c, 0, 48, 64
1, 17502, Note_off_c, 0, 63, 64
1, 17502, Note_on_c, 0, 71, 39
1, 17502, Note_on_c, 0, 80, 32
1, 17502, Note_on_c, 0, 82, 34
1, 17502, Note_on_c, 0, 89, 28
1, 17502, Note_on_c, 0, 90, 30
1, 17502, Note_on_c, 0, 91, 30
1, 17502, Note_on_c, 0, 93, 28
1, 17503, Note_off_c, 0, 54, 64
1, 17504, Note_on_c, 0, 54, 65
1, 17504, Note_on_c, 0, 70, 40
1, 17504, Note_off_c, 0, 71, 64
1, 17504, Note_on_c, 0, 72, 36
1, 17505, Note_on_c, 0, 49, 80
1, 17505, Note_off_c, 0, 54, 64
1, 17505, Note_off_c, 0, 80, 64
1, 17505, Note_off_c, 0, 82, 64
1, 17505, Note_off_c, 0, 89, 64
1, 17505, Note_off_c, 0, 90, 64
1, 17505, Note_off_c, 0, 91, 64
1, 17505, Note_off_c, 0, 93, 64
1, 17506, Note_on_c, 0, 45, 92
1, 17506, Note_off_c, 0, 49, 64
1, 17506, Note_off_c, 0, 70, 64
1, 17506, Note_off_c, 0, 72, 64
1, 17507, Note_on_c, 0, 42, 98
1, 17507, Note_off_c, 0, 45, 64
1, 17508, Note_on_c, 0, 41, 100
1, 17508, Note_off_c, 0, 42, 64
1, 17509, Note_on_c, 0, 38, 98
1, 17509, Note_off_c, 0, 41, 64
1, 17510, Note_on_c, 0, 37, 98
1, 17510, Note_off_c, 0, 38, 64
1, 17511, Note_on_c, 0, 36, 97
1, 17511, Note_off_c, 0, 37, 64
1, 17512, Note_on_c, 0, 35, 96
1, 17512, Note_off_c, 0, 36, 64
1, 17513, Note_on_c, 0, 34, 96
1, 17513, Note_off_c, 0, 35, 64
1, 17514, Note_on_c, 0, 33, 96
1, 17514, Note_off_c, 0, 34, 64
1, 17515, Note_on_c, 0, 32, 97
1, 17515, Note_off_c, 0, 33, 64
1, 17517, Note_on_c, 0, 31, 96
1, 17517, Note_off_c, 0, 32, 64
1, 17518, Note_on_c, 0, 30, 93
1, 17518, Note_off_c, 0, 31, 64
1, 17521, Note_off_c, 0, 30, 64
1, 17522, Note_on_c, 0, 36, 71
1, 17523, Note_on_c, 0, 61, 29
1, 17523, Note_on_c, 0, 64, 29
1, 17523, Note_on_c, 0, 68, 18
1, 17523, Note_on_c, 0, 70, 13
1, 17524, Note_on_c, 0, 30, 78
1, 17524, Note_off_c, 0, 36, 64
1, 17524, Note_on_c, 0, 54, 51
1, 17525, Note_on_c, 0, 29, 80
1, 17525, Note_off_c, 0, 30, 64
1, 17526, Note_off_c, 0, 54, 64
1, 17526, Note_off_c, 0, 61, 64
1, 17526, Note_off_c, 0, 64, 64
1, 17527, Note_off_c, 0, 29, 64
1, 17527, Note_on_c, 0, 30, 77
1, 17527, Note_off_c, 0, 68, 64
1, 17527, Note_off_c, 0, 70, 64
1, 17529, Note_on_c, 0, 29, 75
1, 17529, Note_off_c, 0, 30, 64
1, 17531, Note_off_c, 0, 29, 64
1, 17531, Note_on_c, 0, 30, 70
1, 17531, Note_on_c, 0, 48, 36
1, 17533, Note_off_c, 0, 30, 64
1, 17533, Note_on_c, 0, 42, 68
1, 17533, Note_off_c, 0, 48, 64
1, 17533, Note_on_c, 0, 74, 9
1, 17533, Note_on_c, 0, 85, 12
1, 17534, Note_on_c, 0, 31, 75
1, 17534, Note_off_c, 0, 42, 64
1, 17534, Note_on_c, 0, 61, 30
1, 17534, Note_on_c, 0, 64, 29
1, 17534, Note_on_c, 0, 68, 17
1, 17534, Note_on_c, 0, 71, 15
1, 17535, Note_on_c, 0, 30, 82
1, 17535, Note_off_c, 0, 31, 64
1, 17536, Note_on_c, 0, 29, 82
1, 17536, Note_off_c, 0, 30, 64
1, 17536, Note_off_c, 0, 85, 64
1, 17537, Note_off_c, 0, 29, 64
1, 17537, Note_on_c, 0, 30, 80
1, 17537, Note_off_c, 0, 61, 64
1, 17537, Note_off_c, 0, 74, 64
1, 17538, Note_off_c, 0, 30, 64
1, 17538, Note_on_c, 0, 33, 74
1, 17538, Note_on_c, 0, 54, 56
1, 17538, Note_off_c, 0, 64, 64
1, 17538, Note_off_c, 0, 68, 64
1, 17538, Note_off_c, 0, 71, 64
1, 17540, Note_on_c, 0, 59, 55
1, 17540, Note_on_c, 0, 70, 45
1, 17540, Note_on_c, 0, 76, 36
1, 17540, Note_on_c, 0, 80, 36
1, 17540, Note_on_c, 0, 84, 31
1, 17540, Note_on_c, 0, 86, 30
1, 17540, Note_on_c, 0, 87, 29
1, 17541, Note_off_c, 0, 33, 64
1, 17542, Note_on_c, 0, 50, 75
1, 17542, Note_off_c, 0, 54, 64
1, 17542, Note_off_c, 0, 59, 64
1, 17543, Note_on_c, 0, 48, 86
1, 17543, Note_off_c, 0, 50, 64
1, 17543, Note_off_c, 0, 70, 64
1, 17543, Note_off_c, 0, 76, 64
1, 17543, Note_off_c, 0, 80, 64
1, 17543, Note_off_c, 0, 84, 64
1, 17543, Note_off_c, 0, 86, 64
1, 17543, Note_off_c, 0, 87, 64
1, 17544, Note_on_c, 0, 45, 94
1, 17544, Note_off_c, 0, 48, 64
1, 17545, Note_on_c, 0, 42, 100
1, 17545, Note_off_c, 0, 45, 64
1, 17546, Note_on_c, 0, 40, 97
1, 17546, Note_off_c, 0, 42, 64
1, 17547, Note_on_c, 0, 38, 98
1, 17547, Note_off_c, 0, 40, 64
1, 17548, Note_on_c, 0, 36, 97
1, 17548, Note_off_c, 0, 38, 64
1, 17549, Note_on_c, 0, 35, 96
1, 17549, Note_off_c, 0, 36, 64
1, 17550, Note_on_c, 0, 34, 96
1, 17550, Note_off_c, 0, 35, 64
1, 17551, Note_on_c, 0, 33, 96
1, 17551, Note_off_c, 0, 34, 64
1, 17553, Note_on_c, 0, 32, 96
1, 17553, Note_off_c, 0, 33, 64
1, 17554, Note_on_c, 0, 31, 97
1, 17554, Note_off_c, 0, 32, 64
1, 17556, Note_on_c, 0, 30, 90
1, 17556, Note_off_c, 0, 31, 64
1, 17559, Note_off_c, 0, 30, 64
1, 17559, Note_on_c, 0, 77, 34
1, 17559, Note_on_c, 0, 82, 22
1, 17559, Note_on_c, 0, 87, 25
1, 17559, Note_on_c, 0, 88, 24
1, 17560, Note_on_c, 0, 37, 67
1, 17560, Note_on_c, 0, 61, 31
1, 17560, Note_on_c, 0, 72, 36
1, 17560, Note_on_c, 0, 79, 28
1, 17560, Note_on_c, 0, 85, 20
1, 17560, Note_on_c, 0, 93, 13
1, 17560, Note_on_c, 0, 95, 9
1, 17561, Note_on_c, 0, 30, 81
1, 17561, Note_off_c, 0, 37, 64
1, 17562, Note_off_c, 0, 77, 64
1, 17563, Note_on_c, 0, 29, 81
1, 17563, Note_off_c, 0, 30, 64
1, 17563, Note_on_c, 0, 49, 58
1, 17563, Note_on_c, 0, 63, 26
1, 17563, Note_on_c, 0, 71, 36
1, 17563, Note_off_c, 0, 72, 64
1, 17563, Note_on_c, 0, 78, 31
1, 17563, Note_on_c, 0, 81, 25
1, 17563, Note_off_c, 0, 82, 64
1, 17564, Note_off_c, 0, 29, 64
1, 17564, Note_on_c, 0, 30, 78
1, 17564, Note_off_c, 0, 61, 64
1, 17564, Note_on_c, 0, 82, 17
1, 17564, Note_off_c, 0, 93, 64
1, 17564, Note_off_c, 0, 95, 64
1, 17565, Note_on_c, 0, 77, 34
1, 17565, Note_off_c, 0, 78, 64
1, 17566, Note_off_c, 0, 49, 64
1, 17566, Note_off_c, 0, 63, 64
1, 17566, Note_on_c, 0, 86, 14
1, 17566, Note_off_c, 0, 87, 64
1, 17567, Note_on_c, 0, 29, 74
1, 17567, Note_off_c, 0, 30, 64
1, 17567, Note_off_c, 0, 79, 64
1, 17567, Note_off_c, 0, 82, 64
1, 17568, Note_off_c, 0, 85, 64
1, 17569, Note_off_c, 0, 29, 64
1, 17569, Note_on_c, 0, 30, 65
1, 17569, Note_on_c, 0, 79, 29
1, 17569, Note_off_c, 0, 88, 64
1, 17570, Note_on_c, 0, 82, 17
1, 17570, Note_on_c, 0, 88, 14
1, 17571, Note_off_c, 0, 30, 64
1, 17571, Note_on_c, 0, 36, 72
1, 17571, Note_on_c, 0, 54, 52
1, 17571, Note_on_c, 0, 61, 31
1, 17571, Note_on_c, 0, 70, 37
1, 17571, Note_off_c, 0, 71, 64
1, 17571, Note_on_c, 0, 80, 20
1, 17571, Note_off_c, 0, 86, 64
1, 17572, Note_on_c, 0, 30, 80
1, 17572, Note_off_c, 0, 36, 64
1, 17572, Note_off_c, 0, 81, 64
1, 17573, Note_on_c, 0, 29, 82
1, 17573, Note_off_c, 0, 30, 64
1, 17573, Note_on_c, 0, 49, 61
1, 17573, Note_off_c, 0, 88, 64
1, 17574, Note_off_c, 0, 54, 64
1, 17574, Note_on_c, 0, 63, 50
1, 17574, Note_off_c, 0, 77, 64
1, 17574, Note_off_c, 0, 82, 64
1, 17575, Note_off_c, 0, 29, 64
1, 17575, Note_on_c, 0, 30, 77
1, 17575, Note_on_c, 0, 48, 57
1, 17575, Note_off_c, 0, 49, 64
1, 17575, Note_off_c, 0, 80, 64
1, 17575, Note_on_c, 0, 81, 16
1, 17576, Note_off_c, 0, 30, 64
1, 17576, Note_on_c, 0, 34, 68
1, 17576, Note_on_c, 0, 54, 39
1, 17576, Note_off_c, 0, 61, 64
1, 17576, Note_off_c, 0, 70, 64
1, 17576, Note_off_c, 0, 79, 64
1, 17577, Note_off_c, 0, 34, 64
1, 17577, Note_off_c, 0, 48, 64
1, 17577, Note_on_c, 0, 68, 45
1, 17577, Note_on_c, 0, 71, 39
1, 17577, Note_on_c, 0, 74, 37
1, 17577, Note_on_c, 0, 79, 33
1, 17577, Note_on_c, 0, 88, 30
1, 17577, Note_on_c, 0, 90, 32
1, 17577, Note_on_c, 0, 94, 26
1, 17577, Note_on_c, 0, 97, 21
1, 17577, Note_on_c, 0, 101, 17
1, 17578, Note_off_c, 0, 54, 64
1, 17578, Note_off_c, 0, 81, 64
1, 17579, Note_on_c, 0, 55, 66
1, 17579, Note_off_c, 0, 68, 64
1, 17579, Note_off_c, 0, 71, 64
1, 17579, Note_on_c, 0, 82, 30
1, 17579, Note_on_c, 0, 84, 23
1, 17579, Note_on_c, 0, 89, 24
1, 17580, Note_on_c, 0, 49, 81
1, 17580, Note_off_c, 0, 55, 64
1, 17580, Note_off_c, 0, 63, 64
1, 17580, Note_off_c, 0, 88, 64
1, 17580, Note_off_c, 0, 90, 64
1, 17580, Note_off_c, 0, 94, 64
1, 17580, Note_off_c, 0, 97, 64
1, 17580, Note_off_c, 0, 101, 64
1, 17581, Note_on_c, 0, 45, 92
1, 17581, Note_off_c, 0, 49, 64
1, 17581, Note_off_c, 0, 74, 64
1, 17581, Note_off_c, 0, 82, 64
1, 17582, Note_on_c, 0, 42, 98
1, 17582, Note_off_c, 0, 45, 64
1, 17582, Note_off_c, 0, 89, 64
1, 17583, Note_on_c, 0, 41, 99
1, 17583, Note_off_c, 0, 42, 64
1, 17584, Note_on_c, 0, 38, 98
1, 17584, Note_off_c, 0, 41, 64
1, 17585, Note_on_c, 0, 37, 98
1, 17585, Note_off_c, 0, 38, 64
1, 17585, Note_on_c, 0, 78, 20
1, 17585, Note_off_c, 0, 79, 64
1, 17586, Note_on_c, 0, 36, 97
1, 17586, Note_off_c, 0, 37, 64
1, 17587, Note_on_c, 0, 34, 96
1, 17587, Note_off_c, 0, 36, 64
1, 17589, Note_on_c, 0, 33, 95
1, 17589, Note_off_c, 0, 34, 64
1, 17589, Note_on_c, 0, 80, 19
1, 17589, Note_on_c, 0, 91, 11
1, 17590, Note_on_c, 0, 32, 96
1, 17590, Note_off_c, 0, 33, 64
1, 17590, Note_on_c, 0, 49, 33
1, 17590, Note_off_c, 0, 78, 64
1, 17590, Note_on_c, 0, 88, 14
1, 17591, Note_on_c, 0, 75, 21
1, 17591, Note_on_c, 0, 83, 33
1, 17591, Note_off_c, 0, 84, 64
1, 17591, Note_on_c, 0, 85, 19
1, 17591, Note_on_c, 0, 90, 23
1, 17592, Note_on_c, 0, 31, 96
1, 17592, Note_off_c, 0, 32, 64
1, 17592, Note_off_c, 0, 49, 64
1, 17592, Note_on_c, 0, 77, 27
1, 17592, Note_off_c, 0, 91, 64
1, 17593, Note_on_c, 0, 30, 92
1, 17593, Note_off_c, 0, 31, 64
1, 17593, Note_on_c, 0, 81, 13
1, 17593, Note_on_c, 0, 89, 30
1, 17594, Note_on_c, 0, 79, 24
1, 17594, Note_off_c, 0, 85, 64
1, 17594, Note_on_c, 0, 87, 23
1, 17594, Note_off_c, 0, 88, 64
1, 17594, Note_on_c, 0, 97, 17
1, 17595, Note_off_c, 0, 80, 64
1, 17595, Note_on_c, 0, 85, 30
1, 17595, Note_on_c, 0, 88, 30
1, 17595, Note_on_c, 0, 94, 20
1, 17596, Note_on_c, 0, 74, 13
1, 17596, Note_off_c, 0, 75, 64
1, 17596, Note_on_c, 0, 76, 23
1, 17596, Note_off_c, 0, 77, 64
1, 17596, Note_off_c, 0, 81, 64
1, 17597, Note_off_c, 0, 30, 64
1, 17597, Note_on_c, 0, 84, 33
1, 17598, Note_on_c, 0, 36, 70
1, 17598, Note_on_c, 0, 64, 29
1, 17598, Note_on_c, 0, 66, 24
1, 17598, Note_on_c, 0, 82, 31
1, 17598, Note_on_c, 0, 92, 22
1, 17599, Note_on_c, 0, 30, 80
1, 17599, Note_off_c, 0, 36, 64
1, 17599, Note_on_c, 0, 49, 57
1, 17599, Note_off_c, 0, 90, 64
1, 17599, Note_off_c, 0, 94, 64
1, 17600, Note_off_c, 0, 74, 64
1, 17600, Note_off_c, 0, 76, 64
1, 17600, Note_on_c, 0, 77, 19
1, 17600, Note_off_c, 0, 87, 64
1, 17600, Note_off_c, 0, 89, 64
1, 17600, Note_off_c, 0, 97, 64
1, 17601, Note_on_c, 0, 29, 79
1, 17601, Note_off_c, 0, 30, 64
1, 17601, Note_off_c, 0, 64, 64
1, 17601, Note_on_c, 0, 71, 20
1, 17601, Note_off_c, 0, 79, 64
1, 17602, Note_off_c, 0, 49, 64
1, 17602, Note_on_c, 0, 81, 27
1, 17602, Note_off_c, 0, 83, 64
1, 17602, Note_off_c, 0, 92, 64
1, 17603, Note_off_c, 0, 29, 64
1, 17603, Note_on_c, 0, 30, 75
1, 17603, Note_off_c, 0, 77, 64
1, 17603, Note_on_c, 0, 83, 33
1, 17603, Note_off_c, 0, 85, 64
1, 17604, Note_on_c, 0, 29, 74
1, 17604, Note_off_c, 0, 30, 64
1, 17604, Note_off_c, 0, 71, 64
1, 17604, Note_on_c, 0, 79, 21
1, 17604, Note_off_c, 0, 84, 64
1, 17605, Note_off_c, 0, 66, 64
1, 17605, Note_off_c, 0, 83, 64
1, 17605, Note_on_c, 0, 86, 23
1, 17605, Note_on_c, 0, 87, 13
1, 17606, Note_off_c, 0, 29, 64
1, 17606, Note_on_c, 0, 30, 68
1, 17606, Note_on_c, 0, 77, 12
1, 17607, Note_off_c, 0, 30, 64
1, 17607, Note_on_c, 0, 68, 23
1, 17608, Note_on_c, 0, 42, 69
1, 17609, Note_on_c, 0, 31, 74
1, 17609, Note_off_c, 0, 42, 64
1, 17609, Note_on_c, 0, 64, 37
1, 17609, Note_on_c, 0, 71, 15
1, 17609, Note_on_c, 0, 75, 27
1, 17609, Note_off_c, 0, 77, 64
1, 17609, Note_off_c, 0, 82, 64
1, 17609, Note_off_c, 0, 87, 64
1, 17610, Note_on_c, 0, 30, 81
1, 17610, Note_off_c, 0, 31, 64
1, 17610, Note_off_c, 0, 68, 64
1, 17610, Note_off_c, 0, 88, 64
1, 17611, Note_on_c, 0, 29, 81
1, 17611, Note_off_c, 0, 30, 64
1, 17611, Note_on_c, 0, 49, 59
1, 17611, Note_off_c, 0, 81, 64
1, 17612, Note_off_c, 0, 29, 64
1, 17612, Note_on_c, 0, 30, 78
1, 17612, Note_off_c, 0, 64, 64
1, 17612, Note_off_c, 0, 71, 64
1, 17612, Note_off_c, 0, 79, 64
1, 17612, Note_off_c, 0, 86, 64
1, 17613, Note_off_c, 0, 30, 64
1, 17613, Note_on_c, 0, 33, 72
1, 17613, Note_off_c, 0, 49, 64
1, 17613, Note_on_c, 0, 54, 41
1, 17613, Note_off_c, 0, 75, 64
1, 17614, Note_on_c, 0, 81, 34
1, 17614, Note_on_c, 0, 90, 29
1, 17614, Note_on_c, 0, 91, 29
1, 17615, Note_off_c, 0, 33, 64
1, 17615, Note_off_c, 0, 54, 64
1, 17615, Note_on_c, 0, 59, 56
1, 17615, Note_on_c, 0, 65, 46
1, 17615, Note_on_c, 0, 74, 36
1, 17615, Note_on_c, 0, 76, 39
1, 17615, Note_on_c, 0, 79, 38
1, 17615, Note_on_c, 0, 84, 34
1, 17615, Note_on_c, 0, 87, 18
1, 17615, Note_on_c, 0, 92, 24
1, 17616, Note_on_c, 0, 68, 43
1, 17616, Note_on_c, 0, 70, 46
1, 17616, Note_on_c, 0, 85, 33
1, 17616, Note_off_c, 0, 91, 64
1, 17617, Note_on_c, 0, 50, 77
1, 17617, Note_off_c, 0, 59, 64
1, 17617, Note_off_c, 0, 65, 64
1, 17617, Note_off_c, 0, 90, 64
1, 17618, Note_on_c, 0, 48, 85
1, 17618, Note_off_c, 0, 50, 64
1, 17618, Note_off_c, 0, 68, 64
1, 17618, Note_off_c, 0, 76, 64
1, 17618, Note_off_c, 0, 79, 64
1, 17618, Note_off_c, 0, 81, 64
1, 17618, Note_off_c, 0, 84, 64
1, 17618, Note_off_c, 0, 85, 64
1, 17619, Note_on_c, 0, 44, 93
1, 17619, Note_off_c, 0, 48, 64
1, 17619, Note_off_c, 0, 70, 64
1, 17619, Note_on_c, 0, 81, 25
1, 17620, Note_on_c, 0, 41, 99
1, 17620, Note_off_c, 0, 44, 64
1, 17620, Note_off_c, 0, 92, 64
1, 17621, Note_on_c, 0, 39, 96
1, 17621, Note_off_c, 0, 41, 64
1, 17621, Note_off_c, 0, 74, 64
1, 17622, Note_on_c, 0, 38, 98
1, 17622, Note_off_c, 0, 39, 64
1, 17622, Note_off_c, 0, 81, 64
1, 17623, Note_on_c, 0, 36, 97
1, 17623, Note_off_c, 0, 38, 64
1, 17623, Note_off_c, 0, 87, 64
1, 17624, Note_on_c, 0, 35, 96
1, 17624, Note_off_c, 0, 36, 64
1, 17625, Note_on_c, 0, 34, 96
1, 17625, Note_off_c, 0, 35, 64
1, 17625, Note_on_c, 0, 86, 17
1, 17625, Note_on_c, 0, 91, 12
1, 17626, Note_on_c, 0, 33, 96
1, 17626, Note_off_c, 0, 34, 64
1, 17626, Note_on_c, 0, 89, 12
1, 17627, Note_on_c, 0, 84, 20
1, 17627, Note_on_c, 0, 94, 12
1, 17628, Note_on_c, 0, 32, 96
1, 17628, Note_off_c, 0, 33, 64
1, 17628, Note_on_c, 0, 85, 16
1, 17629, Note_on_c, 0, 31, 96
1, 17629, Note_off_c, 0, 32, 64
1, 17629, Note_on_c, 0, 83, 12
1, 17629, Note_off_c, 0, 86, 64
1, 17629, Note_off_c, 0, 91, 64
1, 17630, Note_off_c, 0, 89, 64
1, 17630, Note_off_c, 0, 94, 64
1, 17631, Note_on_c, 0, 30, 89
1, 17631, Note_off_c, 0, 31, 64
1, 17632, Note_off_c, 0, 84, 64
1, 17634, Note_off_c, 0, 30, 64
1, 17634, Note_on_c, 0, 68, 18
1, 17634, Note_on_c, 0, 74, 20
1, 17634, Note_on_c, 0, 82, 16
1, 17634, Note_off_c, 0, 83, 64
1, 17634, Note_on_c, 0, 84, 26
1, 17634, Note_on_c, 0, 87, 24
1, 17634, Note_on_c, 0, 88, 25
1, 17634, Note_on_c, 0, 89, 19
1, 17634, Note_on_c, 0, 92, 23
1, 17634, Note_on_c, 0, 93, 18
1, 17634, Note_on_c, 0, 94, 31
1, 17634, Note_on_c, 0, 97, 19
1, 17634, Note_on_c, 0, 98, 23
1, 17635, Note_on_c, 0, 37, 68
1, 17635, Note_on_c, 0, 73, 22
1, 17635, Note_on_c, 0, 79, 26
1, 17635, Note_on_c, 0, 81, 11
1, 17635, Note_on_c, 0, 90, 19
1, 17636, Note_on_c, 0, 31, 74
1, 17636, Note_off_c, 0, 37, 64
1, 17636, Note_off_c, 0, 85, 64
1, 17637, Note_on_c, 0, 30, 80
1, 17637, Note_off_c, 0, 31, 64
1, 17637, Note_on_c, 0, 64, 36
1, 17637, Note_off_c, 0, 74, 64
1, 17637, Note_off_c, 0, 82, 64
1, 17637, Note_on_c, 0, 83, 26
1, 17637, Note_off_c, 0, 87, 64
1, 17637, Note_off_c, 0, 93, 64
1, 17637, Note_off_c, 0, 94, 64
1, 17637, Note_off_c, 0, 97, 64
1, 17637, Note_off_c, 0, 98, 64
1, 17638, Note_on_c, 0, 29, 80
1, 17638, Note_off_c, 0, 30, 64
1, 17638, Note_on_c, 0, 49, 57
1, 17638, Note_off_c, 0, 79, 64
1, 17638, Note_off_c, 0, 88, 64
1, 17638, Note_off_c, 0, 89, 64
1, 17639, Note_off_c, 0, 29, 64
1, 17639, Note_on_c, 0, 30, 78
1, 17639, Note_on_c, 0, 63, 24
1, 17639, Note_off_c, 0, 64, 64
1, 17639, Note_off_c, 0, 73, 64
1, 17639, Note_off_c, 0, 84, 64
1, 17639, Note_off_c, 0, 90, 64
1, 17639, Note_off_c, 0, 92, 64
1, 17641, Note_off_c, 0, 49, 64
1, 17641, Note_off_c, 0, 68, 64
1, 17641, Note_off_c, 0, 83, 64
1, 17642, Note_on_c, 0, 29, 73
1, 17642, Note_off_c, 0, 30, 64
1, 17642, Note_off_c, 0, 63, 64
1, 17642, Note_off_c, 0, 81, 64
1, 17642, Note_on_c, 0, 82, 16
1, 17642, Note_on_c, 0, 95, 29
1, 17643, Note_off_c, 0, 29, 64
1, 17643, Note_on_c, 0, 30, 71
1, 17643, Note_on_c, 0, 77, 19
1, 17643, Note_on_c, 0, 86, 39
1, 17643, Note_on_c, 0, 88, 32
1, 17643, Note_on_c, 0, 90, 41
1, 17643, Note_on_c, 0, 91, 36
1, 17643, Note_on_c, 0, 92, 28
1, 17643, Note_on_c, 0, 93, 43
1, 17643, Note_on_c, 0, 94, 31
1, 17644, Note_on_c, 0, 76, 17
1, 17644, Note_on_c, 0, 78, 18
1, 17644, Note_on_c, 0, 84, 29
1, 17644, Note_on_c, 0, 96, 35
1, 17644, Note_on_c, 0, 99, 19
1, 17644, Note_on_c, 0, 101, 10
1, 17645, Note_off_c, 0, 30, 64
1, 17645, Note_on_c, 0, 74, 13
1, 17645, Note_on_c, 0, 87, 30
1, 17645, Note_on_c, 0, 97, 17
1, 17646, Note_on_c, 0, 36, 72
1, 17646, Note_on_c, 0, 61, 33
1, 17646, Note_on_c, 0, 66, 22
1, 17646, Note_on_c, 0, 68, 17
1, 17646, Note_off_c, 0, 77, 64
1, 17646, Note_off_c, 0, 86, 64
1, 17647, Note_on_c, 0, 30, 80
1, 17647, Note_off_c, 0, 36, 64
1, 17647, Note_on_c, 0, 63, 28
1, 17647, Note_on_c, 0, 70, 16
1, 17647, Note_off_c, 0, 82, 64
1, 17647, Note_on_c, 0, 83, 22
1, 17647, Note_on_c, 0, 86, 22
1, 17647, Note_on_c, 0, 89, 28
1, 17647, Note_off_c, 0, 101, 64
1, 17648, Note_on_c, 0, 29, 82
1, 17648, Note_off_c, 0, 30, 64
1, 17648, Note_off_c, 0, 74, 64
1, 17648, Note_off_c, 0, 76, 64
1, 17648, Note_off_c, 0, 78, 64
1, 17648, Note_off_c, 0, 88, 64
1, 17648, Note_off_c, 0, 97, 64
1, 17649, Note_off_c, 0, 66, 64
1, 17649, Note_off_c, 0, 84, 64
1, 17649, Note_off_c, 0, 90, 64
1, 17649, Note_off_c, 0, 92, 64
1, 17649, Note_off_c, 0, 99, 64
1, 17650, Note_off_c, 0, 29, 64
1, 17650, Note_on_c, 0, 30, 76
1, 17650, Note_on_c, 0, 48, 57
1, 17650, Note_off_c, 0, 61, 64
1, 17650, Note_off_c, 0, 86, 64
1, 17650, Note_off_c, 0, 91, 64
1, 17650, Note_off_c, 0, 96, 64
1, 17651, Note_off_c, 0, 30, 64
1, 17651, Note_on_c, 0, 34, 67
1, 17651, Note_on_c, 0, 54, 35
1, 17651, Note_off_c, 0, 68, 64
1, 17651, Note_off_c, 0, 70, 64
1, 17651, Note_off_c, 0, 87, 64
1, 17651, Note_off_c, 0, 93, 64
1, 17651, Note_off_c, 0, 94, 64
1, 17652, Note_off_c, 0, 48, 64
1, 17652, Note_off_c, 0, 63, 64
1, 17652, Note_on_c, 0, 76, 39
1, 17652, Note_on_c, 0, 78, 36
1, 17652, Note_on_c, 0, 82, 35
1, 17652, Note_on_c, 0, 86, 31
1, 17652, Note_on_c, 0, 91, 29
1, 17652, Note_on_c, 0, 92, 27
1, 17652, Note_on_c, 0, 93, 27
1, 17652, Note_on_c, 0, 96, 24
1, 17652, Note_on_c, 0, 97, 22
1, 17652, Note_on_c, 0, 99, 21
1, 17652, Note_on_c, 0, 100, 20
1, 17653, Note_off_c, 0, 34, 64
1, 17653, Note_off_c, 0, 54, 64
1, 17653, Note_on_c, 0, 63, 51
1, 17653, Note_on_c, 0, 69, 44
1, 17653, Note_off_c, 0, 83, 64
1, 17653, Note_on_c, 0, 84, 37
1, 17653, Note_off_c, 0, 95, 64
1, 17654, Note_on_c, 0, 54, 69
1, 17654, Note_on_c, 0, 74, 31
1, 17654, Note_off_c, 0, 76, 64
1, 17654, Note_off_c, 0, 82, 64
1, 17655, Note_on_c, 0, 48, 83
1, 17655, Note_off_c, 0, 54, 64
1, 17655, Note_off_c, 0, 78, 64
1, 17655, Note_off_c, 0, 84, 64
1, 17655, Note_off_c, 0, 86, 64
1, 17655, Note_off_c, 0, 89, 64
1, 17655, Note_off_c, 0, 91, 64
1, 17655, Note_off_c, 0, 92, 64
1, 17655, Note_off_c, 0, 93, 64
1, 17655, Note_off_c, 0, 96, 64
1, 17655, Note_off_c, 0, 97, 64
1, 17655, Note_off_c, 0, 99, 64
1, 17655, Note_off_c, 0, 100, 64
1, 17656, Note_on_c, 0, 45, 94
1, 17656, Note_off_c, 0, 48, 64
1, 17656, Note_off_c, 0, 69, 64
1, 17656, Note_off_c, 0, 74, 64
1, 17657, Note_on_c, 0, 42, 99
1, 17657, Note_off_c, 0, 45, 64
1, 17658, Note_on_c, 0, 40, 99
1, 17658, Note_off_c, 0, 42, 64
1, 17658, Note_off_c, 0, 63, 64
1, 17659, Note_on_c, 0, 38, 98
1, 17659, Note_off_c, 0, 40, 64
1, 17660, Note_on_c, 0, 37, 98
1, 17660, Note_off_c, 0, 38, 64
1, 17661, Note_on_c, 0, 35, 97
1, 17661, Note_off_c, 0, 37, 64
1, 17662, Note_on_c, 0, 34, 96
1, 17662, Note_off_c, 0, 35, 64
1, 17662, Note_on_c, 0, 75, 36
1, 17662, Note_on_c, 0, 77, 30
1, 17662, Note_on_c, 0, 79, 44
1, 17662, Note_on_c, 0, 84, 20
1, 17663, Note_on_c, 0, 33, 96
1, 17663, Note_off_c, 0, 34, 64
1, 17664, Note_on_c, 0, 73, 43
1, 17664, Note_off_c, 0, 75, 64
1, 17664, Note_off_c, 0, 77, 64
1, 17664, Note_on_c, 0, 82, 29
1, 17665, Note_on_c, 0, 32, 97
1, 17665, Note_off_c, 0, 33, 64
1, 17665, Note_on_c, 0, 75, 44
1, 17665, Note_on_c, 0, 83, 26
1, 17666, Note_on_c, 0, 72, 38
1, 17666, Note_off_c, 0, 73, 64
1, 17666, Note_on_c, 0, 77, 50
1, 17666, Note_off_c, 0, 84, 64
1, 17667, Note_on_c, 0, 31, 96
1, 17667, Note_off_c, 0, 32, 64
1, 17667, Note_off_c, 0, 82, 64
1, 17668, Note_on_c, 0, 30, 92
1, 17668, Note_off_c, 0, 31, 64
1, 17668, Note_on_c, 0, 74, 49
1, 17668, Note_off_c, 0, 75, 64
1, 17668, Note_off_c, 0, 79, 64
1, 17668, Note_on_c, 0, 80, 32
1, 17669, Note_on_c, 0, 71, 35
1, 17669, Note_off_c, 0, 72, 64
1, 17670, Note_on_c, 0, 72, 41
1, 17671, Note_off_c, 0, 30, 64
1, 17671, Note_on_c, 0, 68, 25
1, 17671, Note_off_c, 0, 71, 64
1, 17671, Note_off_c, 0, 74, 64
1, 17671, Note_on_c, 0, 75, 32
1, 17671, Note_off_c, 0, 77, 64
1, 17671, Note_off_c, 0, 83, 64
1, 17671, Note_on_c, 0, 89, 16
1, 17672, Note_on_c, 0, 77, 35
1, 17672, Note_on_c, 0, 81, 14
1, 17672, Note_on_c, 0, 83, 17
1, 17672, Note_on_c, 0, 86, 15
1, 17673, Note_on_c, 0, 30, 78
1, 17673, Note_on_c, 0, 54, 50
1, 17673, Note_on_c, 0, 64, 25
1, 17673, Note_on_c, 0, 70, 39
1, 17673, Note_off_c, 0, 75, 64
1, 17673, Note_on_c, 0, 76, 38
1, 17674, Note_off_c, 0, 68, 64
1, 17674, Note_off_c, 0, 72, 64
1, 17674, Note_off_c, 0, 77, 64
1, 17674, Note_on_c, 0, 79, 28
1, 17674, Note_off_c, 0, 80, 64
1, 17675, Note_on_c, 0, 29, 80
1, 17675, Note_off_c, 0, 30, 64
1, 17675, Note_on_c, 0, 61, 22
1, 17675, Note_on_c, 0, 77, 26
1, 17675, Note_off_c, 0, 86, 64
1, 17676, Note_off_c, 0, 54, 64
1, 17676, Note_off_c, 0, 64, 64
1, 17676, Note_on_c, 0, 73, 31
1, 17676, Note_off_c, 0, 89, 64
1, 17677, Note_off_c, 0, 29, 64
1, 17677, Note_on_c, 0, 30, 77
1, 17677, Note_on_c, 0, 64, 17
1, 17677, Note_off_c, 0, 83, 64
1, 17678, Note_off_c, 0, 61, 64
1, 17678, Note_on_c, 0, 75, 47
1, 17678, Note_off_c, 0, 76, 64
1, 17679, Note_on_c, 0, 29, 74
1, 17679, Note_off_c, 0, 30, 64
1, 17679, Note_off_c, 0, 77, 64
1, 17679, Note_off_c, 0, 81, 64
1, 17680, Note_off_c, 0, 64, 64
1, 17680, Note_off_c, 0, 73, 64
1, 17680, Note_off_c, 0, 79, 64
1, 17681, Note_off_c, 0, 29, 64
1, 17681, Note_on_c, 0, 30, 68
1, 17681, Note_off_c, 0, 70, 64
1, 17681, Note_on_c, 0, 78, 37
1, 17681, Note_on_c, 0, 81, 37
1, 17682, Note_off_c, 0, 30, 64
1, 17682, Note_on_c, 0, 73, 35
1, 17682, Note_on_c, 0, 84, 21
1, 17682, Note_on_c, 0, 88, 11
1, 17683, Note_on_c, 0, 42, 70
1, 17683, Note_on_c, 0, 61, 29
1, 17683, Note_on_c, 0, 64, 30
1, 17683, Note_on_c, 0, 77, 34
1, 17683, Note_off_c, 0, 78, 64
1, 17683, Note_on_c, 0, 80, 34
1, 17683, Note_off_c, 0, 81, 64
1, 17684, Note_on_c, 0, 30, 76
1, 17684, Note_off_c, 0, 42, 64
1, 17685, Note_on_c, 0, 29, 82
1, 17685, Note_off_c, 0, 30, 64
1, 17685, Note_off_c, 0, 84, 64
1, 17686, Note_on_c, 0, 49, 59
1, 17686, Note_off_c, 0, 64, 64
1, 17686, Note_off_c, 0, 77, 64
1, 17686, Note_on_c, 0, 79, 29
1, 17686, Note_on_c, 0, 82, 22
1, 17686, Note_off_c, 0, 88, 64
1, 17687, Note_off_c, 0, 29, 64
1, 17687, Note_on_c, 0, 30, 78
1, 17687, Note_off_c, 0, 61, 64
1, 17687, Note_off_c, 0, 73, 64
1, 17687, Note_on_c, 0, 76, 48
1, 17688, Note_off_c, 0, 30, 64
1, 17688, Note_on_c, 0, 34, 72
1, 17688, Note_off_c, 0, 49, 64
1, 17688, Note_on_c, 0, 54, 42
1, 17688, Note_off_c, 0, 75, 64
1, 17688, Note_off_c, 0, 80, 64
1, 17688, Note_on_c, 0, 83, 37
1, 17689, Note_off_c, 0, 34, 64
1, 17689, Note_on_c, 0, 70, 35
1, 17689, Note_on_c, 0, 77, 42
1, 17689, Note_on_c, 0, 80, 37
1, 17689, Note_on_c, 0, 85, 32
1, 17690, Note_off_c, 0, 54, 64
1, 17690, Note_on_c, 0, 73, 46
1, 17690, Note_off_c, 0, 76, 64
1, 17690, Note_off_c, 0, 79, 64
1, 17690, Note_off_c, 0, 82, 64
1, 17690, Note_on_c, 0, 86, 30
1, 17690, Note_on_c, 0, 90, 31
1, 17691, Note_on_c, 0, 64, 50
1, 17691, Note_on_c, 0, 69, 44
1, 17691, Note_off_c, 0, 70, 64
1, 17691, Note_on_c, 0, 79, 35
1, 17691, Note_off_c, 0, 80, 64
1, 17691, Note_on_c, 0, 84, 32
1, 17692, Note_on_c, 0, 51, 76
1, 17692, Note_on_c, 0, 66, 32
1, 17692, Note_on_c, 0, 72, 39
1, 17692, Note_on_c, 0, 75, 39
1, 17692, Note_off_c, 0, 90, 64
1, 17693, Note_on_c, 0, 46, 87
1, 17693, Note_off_c, 0, 51, 64
1, 17693, Note_off_c, 0, 64, 64
1, 17693, Note_off_c, 0, 69, 64
1, 17693, Note_off_c, 0, 73, 64
1, 17693, Note_off_c, 0, 79, 64
1, 17693, Note_on_c, 0, 82, 12
1, 17693, Note_off_c, 0, 84, 64
1, 17693, Note_off_c, 0, 85, 64
1, 17693, Note_off_c, 0, 86, 64
1, 17694, Note_on_c, 0, 43, 94
1, 17694, Note_off_c, 0, 46, 64
1, 17694, Note_off_c, 0, 66, 64
1, 17694, Note_on_c, 0, 79, 24
1, 17695, Note_on_c, 0, 41, 100
1, 17695, Note_off_c, 0, 43, 64
1, 17695, Note_on_c, 0, 74, 41
1, 17695, Note_off_c, 0, 75, 64
1, 17696, Note_on_c, 0, 39, 97
1, 17696, Note_off_c, 0, 41, 64
1, 17696, Note_off_c, 0, 82, 64
1, 17696, Note_off_c, 0, 83, 64
1, 17697, Note_on_c, 0, 37, 98
1, 17697, Note_off_c, 0, 39, 64
1, 17697, Note_off_c, 0, 77, 64
1, 17698, Note_on_c, 0, 36, 97
1, 17698, Note_off_c, 0, 37, 64
1, 17698, Note_on_c, 0, 75, 34
1, 17699, Note_on_c, 0, 35, 97
1, 17699, Note_off_c, 0, 36, 64
1, 17699, Note_off_c, 0, 79, 64
1, 17700, Note_on_c, 0, 34, 96
1, 17700, Note_off_c, 0, 35, 64
1, 17700, Note_off_c, 0, 72, 64
1, 17700, Note_off_c, 0, 74, 64
1, 17701, Note_on_c, 0, 33, 96
1, 17701, Note_off_c, 0, 34, 64
1, 17702, Note_on_c, 0, 32, 97
1, 17702, Note_off_c, 0, 33, 64
1, 17703, Note_off_c, 0, 75, 64
1, 17704, Note_on_c, 0, 31, 96
1, 17704, Note_off_c, 0, 32, 64
1, 17706, Note_on_c, 0, 30, 88
1, 17706, Note_off_c, 0, 31, 64
1, 17708, Note_off_c, 0, 30, 64
1, 17709, Note_on_c, 0, 64, 27
1, 17709, Note_on_c, 0, 68, 19
1, 17709, Note_on_c, 0, 89, 14
1, 17710, Note_on_c, 0, 37, 70
1, 17710, Note_on_c, 0, 61, 30
1, 17710, Note_on_c, 0, 70, 16
1, 17710, Note_on_c, 0, 77, 12
1, 17711, Note_on_c, 0, 31, 76
1, 17711, Note_off_c, 0, 37, 64
1, 17712, Note_on_c, 0, 30, 80
1, 17712, Note_off_c, 0, 31, 64
1, 17712, Note_on_c, 0, 63, 29
1, 17712, Note_off_c, 0, 64, 64
1, 17712, Note_off_c, 0, 89, 64
1, 17713, Note_on_c, 0, 29, 80
1, 17713, Note_off_c, 0, 30, 64
1, 17713, Note_off_c, 0, 77, 64
1, 17714, Note_off_c, 0, 70, 64
1, 17715, Note_off_c, 0, 29, 64
1, 17715, Note_on_c, 0, 30, 76
1, 17715, Note_off_c, 0, 61, 64
1, 17715, Note_off_c, 0, 68, 64
1, 17716, Note_on_c, 0, 29, 74
1, 17716, Note_off_c, 0, 30, 64
1, 17716, Note_off_c, 0, 63, 64
1, 17716, Note_on_c, 0, 74, 11
1, 17718, Note_off_c, 0, 29, 64
1, 17718, Note_on_c, 0, 30, 71
1, 17719, Note_off_c, 0, 74, 64
1, 17719, Note_on_c, 0, 75, 21
1, 17720, Note_off_c, 0, 30, 64
1, 17720, Note_on_c, 0, 68, 21
1, 17721, Note_on_c, 0, 36, 72
1, 17722, Note_on_c, 0, 30, 81
1, 17722, Note_off_c, 0, 36, 64
1, 17722, Note_on_c, 0, 48, 60
1, 17722, Note_on_c, 0, 74, 36
1, 17722, Note_on_c, 0, 78, 10
1, 17723, Note_on_c, 0, 29, 82
1, 17723, Note_off_c, 0, 30, 64
1, 17723, Note_off_c, 0, 75, 64
1, 17724, Note_off_c, 0, 48, 64
1, 17725, Note_off_c, 0, 29, 64
1, 17725, Note_on_c, 0, 30, 75
1, 17725, Note_on_c, 0, 48, 55
1, 17725, Note_on_c, 0, 54, 44
1, 17725, Note_on_c, 0, 61, 15
1, 17726, Note_off_c, 0, 30, 64
1, 17726, Note_on_c, 0, 34, 66
1, 17726, Note_off_c, 0, 68, 64
1, 17726, Note_on_c, 0, 76, 37
1, 17726, Note_off_c, 0, 78, 64
1, 17727, Note_on_c, 0, 67, 47
1, 17727, Note_on_c, 0, 77, 37
1, 17727, Note_on_c, 0, 83, 34
1, 17727, Note_on_c, 0, 90, 30
1, 17727, Note_on_c, 0, 92, 25
1, 17727, Note_on_c, 0, 93, 22
1, 17727, Note_on_c, 0, 94, 23
1, 17728, Note_off_c, 0, 34, 64
1, 17728, Note_off_c, 0, 48, 64
1, 17728, Note_off_c, 0, 54, 64
1, 17728, Note_off_c, 0, 61, 64
1, 17728, Note_on_c, 0, 70, 44
1, 17729, Note_on_c, 0, 53, 71
1, 17729, Note_off_c, 0, 67, 64
1, 17729, Note_on_c, 0, 68, 41
1, 17729, Note_off_c, 0, 74, 64
1, 17729, Note_on_c, 0, 75, 30
1, 17729, Note_off_c, 0, 76, 64
1, 17729, Note_off_c, 0, 83, 64
1, 17730, Note_on_c, 0, 48, 85
1, 17730, Note_off_c, 0, 53, 64
1, 17730, Note_off_c, 0, 70, 64
1, 17730, Note_off_c, 0, 77, 64
1, 17730, Note_off_c, 0, 90, 64
1, 17730, Note_off_c, 0, 92, 64
1, 17730, Note_off_c, 0, 93, 64
1, 17730, Note_off_c, 0, 94, 64
1, 17731, Note_on_c, 0, 45, 94
1, 17731, Note_off_c, 0, 48, 64
1, 17731, Note_off_c, 0, 68, 64
1, 17731, Note_off_c, 0, 75, 64
1, 17732, Note_on_c, 0, 42, 99
1, 17732, Note_off_c, 0, 45, 64
1, 17733, Note_on_c, 0, 40, 98
1, 17733, Note_off_c, 0, 42, 64
1, 17734, Note_on_c, 0, 38, 98
1, 17734, Note_off_c, 0, 40, 64
1, 17735, Note_on_c, 0, 37, 98
1, 17735, Note_off_c, 0, 38, 64
1, 17736, Note_on_c, 0, 35, 97
1, 17736, Note_off_c, 0, 37, 64
1, 17737, Note_on_c, 0, 34, 96
1, 17737, Note_off_c, 0, 35, 64
1, 17738, Note_on_c, 0, 33, 96
1, 17738, Note_off_c, 0, 34, 64
1, 17740, Note_on_c, 0, 32, 96
1, 17740, Note_off_c, 0, 33, 64
1, 17740, Note_on_c, 0, 49, 30
1, 17741, Note_on_c, 0, 31, 97
1, 17741, Note_off_c, 0, 32, 64
1, 17742, Note_off_c, 0, 49, 64
1, 17743, Note_on_c, 0, 30, 91
1, 17743, Note_off_c, 0, 31, 64
1, 17746, Note_off_c, 0, 30, 64
1, 17746, Note_on_c, 0, 74, 17
1, 17746, Note_on_c, 0, 76, 16
1, 17747, Note_on_c, 0, 78, 10
1, 17748, Note_on_c, 0, 30, 79
1, 17748, Note_on_c, 0, 61, 33
1, 17748, Note_on_c, 0, 68, 23
1, 17749, Note_on_c, 0, 71, 14
1, 17749, Note_off_c, 0, 76, 64
1, 17750, Note_on_c, 0, 29, 81
1, 17750, Note_off_c, 0, 30, 64
1, 17751, Note_off_c, 0, 61, 64
1, 17751, Note_off_c, 0, 74, 64
1, 17751, Note_off_c, 0, 78, 64
1, 17752, Note_off_c, 0, 29, 64
1, 17752, Note_on_c, 0, 30, 77
1, 17752, Note_on_c, 0, 61, 22
1, 17753, Note_off_c, 0, 68, 64
1, 17753, Note_off_c, 0, 71, 64
1, 17754, Note_on_c, 0, 29, 74
1, 17754, Note_off_c, 0, 30, 64
1, 17756, Note_off_c, 0, 29, 64
1, 17756, Note_on_c, 0, 30, 66
1, 17756, Note_off_c, 0, 61, 64
1, 17758, Note_off_c, 0, 30, 64
1, 17758, Note_on_c, 0, 41, 71
1, 17758, Note_on_c, 0, 61, 30
1, 17758, Note_on_c, 0, 68, 25
1, 17758, Note_on_c, 0, 79, 11
1, 17758, Note_on_c, 0, 86, 10
1, 17759, Note_on_c, 0, 30, 82
1, 17759, Note_off_c, 0, 41, 64
1, 17759, Note_on_c, 0, 71, 16
1, 17761, Note_on_c, 0, 29, 81
1, 17761, Note_off_c, 0, 30, 64
1, 17761, Note_on_c, 0, 49, 59
1, 17761, Note_off_c, 0, 79, 64
1, 17761, Note_off_c, 0, 86, 64
1, 17762, Note_off_c, 0, 29, 64
1, 17762, Note_on_c, 0, 30, 77
1, 17763, Note_off_c, 0, 30, 64
1, 17763, Note_on_c, 0, 34, 71
1, 17763, Note_off_c, 0, 49, 64
1, 17763, Note_on_c, 0, 54, 38
1, 17763, Note_off_c, 0, 61, 64
1, 17763, Note_off_c, 0, 68, 64
1, 17763, Note_off_c, 0, 71, 64
1, 17764, Note_off_c, 0, 34, 64
1, 17765, Note_off_c, 0, 54, 64
1, 17765, Note_on_c, 0, 69, 42
1, 17765, Note_on_c, 0, 78, 35
1, 17765, Note_on_c, 0, 80, 34
1, 17765, Note_on_c, 0, 83, 29
1, 17766, Note_on_c, 0, 73, 37
1, 17767, Note_on_c, 0, 50, 78
1, 17767, Note_on_c, 0, 63, 38
1, 17767, Note_off_c, 0, 69, 64
1, 17767, Note_off_c, 0, 80, 64
1, 17767, Note_off_c, 0, 83, 64
1, 17768, Note_on_c, 0, 45, 91
1, 17768, Note_off_c, 0, 50, 64
1, 17768, Note_off_c, 0, 73, 64
1, 17768, Note_off_c, 0, 78, 64
1, 17769, Note_on_c, 0, 43, 96
1, 17769, Note_off_c, 0, 45, 64
1, 17769, Note_off_c, 0, 63, 64
1, 17769, Note_on_c, 0, 64, 10
1, 17770, Note_on_c, 0, 41, 100
1, 17770, Note_off_c, 0, 43, 64
1, 17771, Note_on_c, 0, 38, 98
1, 17771, Note_off_c, 0, 41, 64
1, 17772, Note_on_c, 0, 37, 98
1, 17772, Note_off_c, 0, 38, 64
1, 17772, Note_off_c, 0, 64, 64
1, 17773, Note_on_c, 0, 36, 97
1, 17773, Note_off_c, 0, 37, 64
1, 17774, Note_on_c, 0, 35, 96
1, 17774, Note_off_c, 0, 36, 64
1, 17775, Note_on_c, 0, 34, 96
1, 17775, Note_off_c, 0, 35, 64
1, 17776, Note_on_c, 0, 33, 95
1, 17776, Note_off_c, 0, 34, 64
1, 17777, Note_on_c, 0, 32, 97
1, 17777, Note_off_c, 0, 33, 64
1, 17779, Note_on_c, 0, 31, 96
1, 17779, Note_off_c, 0, 32, 64
1, 17781, Note_on_c, 0, 30, 88
1, 17781, Note_off_c, 0, 31, 64
1, 17783, Note_off_c, 0, 30, 64
1, 17784, Note_on_c, 0, 68, 33
1, 17785, Note_on_c, 0, 37, 70
1, 17785, Note_on_c, 0, 61, 51
1, 17786, Note_on_c, 0, 30, 80
1, 17786, Note_off_c, 0, 37, 64
1, 17786, Note_on_c, 0, 49, 60
1, 17786, Note_on_c, 0, 66, 18
1, 17786, Note_on_c, 0, 71, 15
1, 17786, Note_on_c, 0, 77, 13
1, 17787, Note_on_c, 0, 70, 9
1, 17788, Note_on_c, 0, 29, 80
1, 17788, Note_off_c, 0, 30, 64
1, 17788, Note_off_c, 0, 61, 64
1, 17788, Note_off_c, 0, 68, 64
1, 17789, Note_off_c, 0, 29, 64
1, 17789, Note_on_c, 0, 30, 77
1, 17789, Note_off_c, 0, 49, 64
1, 17789, Note_off_c, 0, 71, 64
1, 17789, Note_off_c, 0, 77, 64
1, 17790, Note_off_c, 0, 66, 64
1, 17790, Note_off_c, 0, 70, 64
1, 17791, Note_on_c, 0, 29, 75
1, 17791, Note_off_c, 0, 30, 64
1, 17793, Note_off_c, 0, 29, 64
1, 17793, Note_on_c, 0, 30, 70
1, 17794, Note_on_c, 0, 64, 30
1, 17795, Note_off_c, 0, 30, 64
1, 17795, Note_on_c, 0, 43, 67
1, 17795, Note_on_c, 0, 75, 15
1, 17795, Note_on_c, 0, 77, 11
1, 17795, Note_on_c, 0, 90, 10
1, 17796, Note_on_c, 0, 36, 72
1, 17796, Note_off_c, 0, 43, 64
1, 17796, Note_on_c, 0, 58, 35
1, 17796, Note_on_c, 0, 79, 12
1, 17797, Note_on_c, 0, 30, 81
1, 17797, Note_off_c, 0, 36, 64
1, 17797, Note_on_c, 0, 63, 29
1, 17797, Note_off_c, 0, 64, 64
1, 17798, Note_on_c, 0, 29, 82
1, 17798, Note_off_c, 0, 30, 64
1, 17798, Note_off_c, 0, 75, 64
1, 17798, Note_off_c, 0, 90, 64
1, 17799, Note_off_c, 0, 58, 64
1, 17799, Note_off_c, 0, 63, 64
1, 17799, Note_off_c, 0, 77, 64
1, 17800, Note_off_c, 0, 29, 64
1, 17800, Note_on_c, 0, 33, 74
1, 17800, Note_on_c, 0, 54, 45
1, 17800, Note_off_c, 0, 79, 64
1, 17802, Note_off_c, 0, 33, 64
1, 17802, Note_on_c, 0, 76, 35
1, 17802, Note_on_c, 0, 78, 40
1, 17802, Note_on_c, 0, 81, 35
1, 17802, Note_on_c, 0, 85, 32
1, 17802, Note_on_c, 0, 87, 33
1, 17802, Note_on_c, 0, 89, 29
1, 17802, Note_on_c, 0, 92, 23
1, 17802, Note_on_c, 0, 96, 23
1, 17803, Note_off_c, 0, 54, 64
1, 17803, Note_on_c, 0, 66, 49
1, 17803, Note_on_c, 0, 70, 44
1, 17803, Note_on_c, 0, 73, 41
1, 17803, Note_on_c, 0, 83, 32
1, 17804, Note_on_c, 0, 50, 73
1, 17804, Note_off_c, 0, 85, 64
1, 17805, Note_on_c, 0, 48, 86
1, 17805, Note_off_c, 0, 50, 64
1, 17805, Note_off_c, 0, 70, 64
1, 17805, Note_off_c, 0, 73, 64
1, 17805, Note_off_c, 0, 76, 64
1, 17805, Note_off_c, 0, 78, 64
1, 17805, Note_off_c, 0, 81, 64
1, 17805, Note_off_c, 0, 83, 64
1, 17805, Note_off_c, 0, 87, 64
1, 17805, Note_off_c, 0, 89, 64
1, 17805, Note_off_c, 0, 92, 64
1, 17805, Note_off_c, 0, 96, 64
1, 17806, Note_on_c, 0, 45, 95
1, 17806, Note_off_c, 0, 48, 64
1, 17806, Note_off_c, 0, 66, 64
1, 17807, Note_on_c, 0, 42, 100
1, 17807, Note_off_c, 0, 45, 64
1, 17808, Note_on_c, 0, 40, 98
1, 17808, Note_off_c, 0, 42, 64
1, 17809, Note_on_c, 0, 38, 98
1, 17809, Note_off_c, 0, 40, 64
1, 17810, Note_on_c, 0, 36, 98
1, 17810, Note_off_c, 0, 38, 64
1, 17811, Note_on_c, 0, 35, 97
1, 17811, Note_off_c, 0, 36, 64
1, 17811, Note_on_c, 0, 54, 12
1, 17812, Note_on_c, 0, 34, 96
1, 17812, Note_off_c, 0, 35, 64
1, 17813, Note_on_c, 0, 33, 96
1, 17813, Note_off_c, 0, 34, 64
1, 17814, Note_off_c, 0, 54, 64
1, 17815, Note_on_c, 0, 32, 96
1, 17815, Note_off_c, 0, 33, 64
1, 17815, Note_on_c, 0, 49, 33
1, 17816, Note_on_c, 0, 31, 97
1, 17816, Note_off_c, 0, 32, 64
1, 17818, Note_on_c, 0, 30, 90
1, 17818, Note_off_c, 0, 31, 64
1, 17818, Note_off_c, 0, 49, 64
1, 17820, Note_on_c, 0, 29, 69
1, 17820, Note_off_c, 0, 30, 64
1, 17821, Note_off_c, 0, 29, 64
1, 17822, Note_on_c, 0, 42, 67
1, 17822, Note_on_c, 0, 78, 21
1, 17823, Note_on_c, 0, 30, 79
1, 17823, Note_off_c, 0, 42, 64
1, 17823, Note_on_c, 0, 64, 30
1, 17823, Note_on_c, 0, 70, 16
1, 17824, Note_on_c, 0, 49, 57
1, 17825, Note_on_c, 0, 29, 80
1, 17825, Note_off_c, 0, 30, 64
1, 17825, Note_off_c, 0, 64, 64
1, 17825, Note_on_c, 0, 66, 19
1, 17826, Note_off_c, 0, 49, 64
1, 17826, Note_off_c, 0, 70, 64
1, 17826, Note_off_c, 0, 78, 64
1, 17827, Note_off_c, 0, 29, 64
1, 17827, Note_on_c, 0, 30, 77
1, 17829, Note_on_c, 0, 29, 74
1, 17829, Note_off_c, 0, 30, 64
1, 17831, Note_off_c, 0, 29, 64
1, 17831, Note_on_c, 0, 30, 66
1, 17831, Note_off_c, 0, 66, 64
1, 17832, Note_on_c, 0, 55, 56
1, 17832, Note_on_c, 0, 77, 9
1, 17832, Note_on_c, 0, 79, 17
1, 17832, Note_on_c, 0, 81, 11
1, 17833, Note_off_c, 0, 30, 64
1, 17833, Note_on_c, 0, 41, 72
1, 17833, Note_on_c, 0, 61, 28
1, 17833, Note_on_c, 0, 64, 28
1, 17833, Note_on_c, 0, 68, 21
1, 17833, Note_on_c, 0, 76, 37
1, 17834, Note_on_c, 0, 30, 79
1, 17834, Note_off_c, 0, 41, 64
1, 17834, Note_off_c, 0, 55, 64
1, 17835, Note_on_c, 0, 29, 83
1, 17835, Note_off_c, 0, 30, 64
1, 17835, Note_on_c, 0, 71, 10
1, 17835, Note_off_c, 0, 77, 64
1, 17835, Note_off_c, 0, 79, 64
1, 17835, Note_off_c, 0, 81, 64
1, 17836, Note_off_c, 0, 64, 64
1, 17837, Note_off_c, 0, 29, 64
1, 17837, Note_on_c, 0, 30, 78
1, 17837, Note_on_c, 0, 48, 60
1, 17838, Note_off_c, 0, 30, 64
1, 17838, Note_on_c, 0, 34, 70
1, 17838, Note_on_c, 0, 54, 45
1, 17838, Note_on_c, 0, 64, 40
1, 17838, Note_off_c, 0, 68, 64
1, 17838, Note_off_c, 0, 71, 64
1, 17839, Note_off_c, 0, 34, 64
1, 17839, Note_off_c, 0, 48, 64
1, 17839, Note_off_c, 0, 61, 64
1, 17839, Note_on_c, 0, 67, 38
1, 17839, Note_on_c, 0, 82, 34
1, 17839, Note_on_c, 0, 84, 31
1, 17839, Note_on_c, 0, 87, 30
1, 17840, Note_off_c, 0, 54, 64
1, 17840, Note_on_c, 0, 80, 32
1, 17840, Note_on_c, 0, 90, 30
1, 17841, Note_on_c, 0, 54, 67
1, 17841, Note_off_c, 0, 64, 64
1, 17841, Note_off_c, 0, 67, 64
1, 17841, Note_on_c, 0, 75, 35
1, 17841, Note_off_c, 0, 76, 64
1, 17841, Note_off_c, 0, 87, 64
1, 17842, Note_on_c, 0, 49, 80
1, 17842, Note_off_c, 0, 54, 64
1, 17842, Note_off_c, 0, 80, 64
1, 17842, Note_off_c, 0, 82, 64
1, 17842, Note_off_c, 0, 84, 64
1, 17842, Note_off_c, 0, 90, 64
1, 17843, Note_on_c, 0, 45, 91
1, 17843, Note_off_c, 0, 49, 64
1, 17843, Note_off_c, 0, 75, 64
1, 17844, Note_on_c, 0, 42, 97
1, 17844, Note_off_c, 0, 45, 64
1, 17845, Note_on_c, 0, 41, 99
1, 17845, Note_off_c, 0, 42, 64
1, 17846, Note_on_c, 0, 38, 98
1, 17846, Note_off_c, 0, 41, 64
1, 17847, Note_on_c, 0, 37, 98
1, 17847, Note_off_c, 0, 38, 64
1, 17848, Note_on_c, 0, 36, 97
1, 17848, Note_off_c, 0, 37, 64
1, 17849, Note_on_c, 0, 35, 96
1, 17849, Note_off_c, 0, 36, 64
1, 17850, Note_on_c, 0, 34, 96
1, 17850, Note_off_c, 0, 35, 64
1, 17851, Note_on_c, 0, 33, 96
1, 17851, Note_off_c, 0, 34, 64
1, 17852, Note_on_c, 0, 32, 97
1, 17852, Note_off_c, 0, 33, 64
1, 17853, Note_on_c, 0, 49, 29
1, 17854, Note_on_c, 0, 31, 96
1, 17854, Note_off_c, 0, 32, 64
1, 17855, Note_on_c, 0, 30, 93
1, 17855, Note_off_c, 0, 31, 64
1, 17855, Note_off_c, 0, 49, 64
1, 17859, Note_off_c, 0, 30, 64
1, 17859, Note_on_c, 0, 66, 23
1, 17859, Note_on_c, 0, 73, 19
1, 17859, Note_on_c, 0, 80, 22
1, 17859, Note_on_c, 0, 87, 13
1, 17860, Note_on_c, 0, 37, 70
1, 17860, Note_on_c, 0, 61, 37
1, 17860, Note_on_c, 0, 74, 19
1, 17861, Note_on_c, 0, 30, 79
1, 17861, Note_off_c, 0, 37, 64
1, 17861, Note_on_c, 0, 71, 14
1, 17862, Note_on_c, 0, 68, 10
1, 17862, Note_off_c, 0, 80, 64
1, 17862, Note_off_c, 0, 87, 64
1, 17863, Note_off_c, 0, 61, 64
1, 17863, Note_off_c, 0, 73, 64
1, 17864, Note_on_c, 0, 29, 74
1, 17864, Note_off_c, 0, 30, 64
1, 17864, Note_off_c, 0, 66, 64
1, 17864, Note_off_c, 0, 74, 64
1, 17865, Note_off_c, 0, 29, 64
1, 17865, Note_on_c, 0, 30, 74
1, 17865, Note_on_c, 0, 64, 34
1, 17865, Note_off_c, 0, 68, 64
1, 17866, Note_on_c, 0, 29, 73
1, 17866, Note_off_c, 0, 30, 64
1, 17867, Note_off_c, 0, 71, 64
1, 17868, Note_off_c, 0, 29, 64
1, 17868, Note_on_c, 0, 30, 69
1, 17869, Note_on_c, 0, 68, 29
1, 17870, Note_off_c, 0, 30, 64
1, 17870, Note_on_c, 0, 43, 68
1, 17870, Note_on_c, 0, 61, 33
1, 17870, Note_on_c, 0, 83, 12
1, 17871, Note_on_c, 0, 31, 74
1, 17871, Note_off_c, 0, 43, 64
1, 17872, Note_on_c, 0, 30, 82
1, 17872, Note_off_c, 0, 31, 64
1, 17872, Note_on_c, 0, 49, 59
1, 17872, Note_off_c, 0, 61, 64
1, 17873, Note_on_c, 0, 29, 82
1, 17873, Note_off_c, 0, 30, 64
1, 17874, Note_off_c, 0, 83, 64
1, 17875, Note_off_c, 0, 29, 64
1, 17875, Note_on_c, 0, 33, 73
1, 17875, Note_off_c, 0, 49, 64
1, 17876, Note_off_c, 0, 68, 64
1, 17877, Note_on_c, 0, 69, 45
1, 17877, Note_on_c, 0, 73, 41
1, 17877, Note_on_c, 0, 74, 40
1, 17877, Note_on_c, 0, 77, 39
1, 17877, Note_on_c, 0, 82, 35
1, 17877, Note_on_c, 0, 83, 34
1, 17877, Note_on_c, 0, 88, 27
1, 17877, Note_on_c, 0, 90, 28
1, 17877, Note_on_c, 0, 91, 27
1, 17877, Note_on_c, 0, 92, 23
1, 17878, Note_off_c, 0, 33, 64
1, 17878, Note_off_c, 0, 64, 64
1, 17879, Note_on_c, 0, 50, 74
1, 17879, Note_on_c, 0, 76, 22
1, 17879, Note_off_c, 0, 77, 64
1, 17880, Note_on_c, 0, 48, 86
1, 17880, Note_off_c, 0, 50, 64
1, 17880, Note_off_c, 0, 69, 64
1, 17880, Note_off_c, 0, 73, 64
1, 17880, Note_off_c, 0, 74, 64
1, 17880, Note_off_c, 0, 82, 64
1, 17880, Note_off_c, 0, 83, 64
1, 17880, Note_off_c, 0, 88, 64
1, 17880, Note_off_c, 0, 90, 64
1, 17880, Note_off_c, 0, 91, 64
1, 17880, Note_off_c, 0, 92, 64
1, 17881, Note_on_c, 0, 45, 95
1, 17881, Note_off_c, 0, 48, 64
1, 17882, Note_on_c, 0, 42, 100
1, 17882, Note_off_c, 0, 45, 64
1, 17882, Note_off_c, 0, 76, 64
1, 17883, Note_on_c, 0, 40, 97
1, 17883, Note_off_c, 0, 42, 64
1, 17884, Note_on_c, 0, 38, 98
1, 17884, Note_off_c, 0, 40, 64
1, 17885, Note_on_c, 0, 36, 98
1, 17885, Note_off_c, 0, 38, 64
1, 17886, Note_on_c, 0, 35, 97
1, 17886, Note_off_c, 0, 36, 64
1, 17887, Note_on_c, 0, 34, 96
1, 17887, Note_off_c, 0, 35, 64
1, 17888, Note_on_c, 0, 33, 96
1, 17888, Note_off_c, 0, 34, 64
1, 17890, Note_on_c, 0, 32, 96
1, 17890, Note_off_c, 0, 33, 64
1, 17890, Note_on_c, 0, 49, 30
1, 17891, Note_on_c, 0, 31, 96
1, 17891, Note_off_c, 0, 32, 64
1, 17892, Note_on_c, 0, 48, 27
1, 17892, Note_off_c, 0, 49, 64
1, 17893, Note_on_c, 0, 30, 89
1, 17893, Note_off_c, 0, 31, 64
1, 17894, Note_on_c, 0, 64, 45
1, 17895, Note_off_c, 0, 48, 64
1, 17896, Note_off_c, 0, 30, 64
1, 17896, Note_on_c, 0, 88, 33
1, 17897, Note_on_c, 0, 37, 68
1, 17897, Note_on_c, 0, 87, 26
1, 17898, Note_on_c, 0, 31, 73
1, 17898, Note_off_c, 0, 37, 64
1, 17898, Note_on_c, 0, 75, 18
1, 17898, Note_on_c, 0, 85, 11
1, 17899, Note_on_c, 0, 30, 79
1, 17899, Note_off_c, 0, 31, 64
1, 17899, Note_on_c, 0, 78, 16
1, 17899, Note_off_c, 0, 88, 64
1, 17900, Note_on_c, 0, 29, 80
1, 17900, Note_off_c, 0, 30, 64
1, 17900, Note_on_c, 0, 71, 13
1, 17900, Note_off_c, 0, 87, 64
1, 17901, Note_off_c, 0, 75, 64
1, 17902, Note_on_c, 0, 49, 53
1, 17902, Note_off_c, 0, 78, 64
1, 17902, Note_off_c, 0, 85, 64
1, 17903, Note_off_c, 0, 29, 64
1, 17903, Note_on_c, 0, 30, 75
1, 17904, Note_on_c, 0, 48, 48
1, 17904, Note_off_c, 0, 49, 64
1, 17904, Note_on_c, 0, 54, 41
1, 17904, Note_off_c, 0, 71, 64
1, 17905, Note_off_c, 0, 64, 64
1, 17905, Note_on_c, 0, 76, 23
1, 17906, Note_off_c, 0, 48, 64
1, 17907, Note_off_c, 0, 54, 64
1, 17907, Note_on_c, 0, 55, 52
1, 17907, Note_on_c, 0, 61, 41
1, 17907, Note_on_c, 0, 70, 25
1, 17907, Note_on_c, 0, 79, 20
1, 17907, Note_on_c, 0, 81, 16
1, 17907, Note_on_c, 0, 90, 9
1, 17908, Note_off_c, 0, 30, 64
1, 17908, Note_on_c, 0, 36, 72
1, 17908, Note_on_c, 0, 68, 24
1, 17908, Note_on_c, 0, 77, 13
1, 17908, Note_on_c, 0, 85, 12
1, 17909, Note_on_c, 0, 30, 80
1, 17909, Note_off_c, 0, 36, 64
1, 17909, Note_on_c, 0, 49, 61
1, 17909, Note_off_c, 0, 55, 64
1, 17909, Note_on_c, 0, 64, 32
1, 17909, Note_on_c, 0, 78, 16
1, 17910, Note_on_c, 0, 29, 82
1, 17910, Note_off_c, 0, 30, 64
1, 17911, Note_off_c, 0, 61, 64
1, 17911, Note_off_c, 0, 76, 64
1, 17911, Note_off_c, 0, 77, 64
1, 17911, Note_off_c, 0, 81, 64
1, 17911, Note_off_c, 0, 85, 64
1, 17911, Note_off_c, 0, 90, 64
1, 17912, Note_off_c, 0, 29, 64
1, 17912, Note_on_c, 0, 30, 78
1, 17912, Note_on_c, 0, 48, 58
1, 17912, Note_off_c, 0, 49, 64
1, 17912, Note_on_c, 0, 63, 45
1, 17912, Note_off_c, 0, 64, 64
1, 17912, Note_on_c, 0, 76, 15
1, 17912, Note_off_c, 0, 79, 64
1, 17913, Note_off_c, 0, 30, 64
1, 17913, Note_on_c, 0, 33, 70
1, 17913, Note_on_c, 0, 54, 69
1, 17913, Note_off_c, 0, 68, 64
1, 17913, Note_off_c, 0, 70, 64
1, 17914, Note_off_c, 0, 48, 64
1, 17914, Note_on_c, 0, 59, 47
1, 17914, Note_on_c, 0, 72, 38
1, 17914, Note_on_c, 0, 74, 41
1, 17914, Note_on_c, 0, 77, 38
1, 17914, Note_on_c, 0, 81, 35
1, 17914, Note_on_c, 0, 87, 31
1, 17914, Note_on_c, 0, 95, 17
1, 17915, Note_off_c, 0, 33, 64
1, 17915, Note_off_c, 0, 76, 64
1, 17915, Note_off_c, 0, 78, 64
1, 17915, Note_on_c, 0, 83, 35
1, 17916, Note_off_c, 0, 59, 64
1, 17916, Note_off_c, 0, 63, 64
1, 17916, Note_on_c, 0, 69, 42
1, 17916, Note_on_c, 0, 78, 35
1, 17917, Note_on_c, 0, 49, 80
1, 17917, Note_off_c, 0, 54, 64
1, 17917, Note_off_c, 0, 81, 64
1, 17917, Note_off_c, 0, 87, 64
1, 17917, Note_off_c, 0, 95, 64
1, 17918, Note_on_c, 0, 45, 92
1, 17918, Note_off_c, 0, 49, 64
1, 17918, Note_off_c, 0, 69, 64
1, 17918, Note_off_c, 0, 72, 64
1, 17918, Note_off_c, 0, 77, 64
1, 17918, Note_off_c, 0, 78, 64
1, 17918, Note_off_c, 0, 83, 64
1, 17919, Note_on_c, 0, 42, 97
1, 17919, Note_off_c, 0, 45, 64
1, 17919, Note_on_c, 0, 64, 20
1, 17920, Note_on_c, 0, 41, 98
1, 17920, Note_off_c, 0, 42, 64
1, 17921, Note_on_c, 0, 38, 97
1, 17921, Note_off_c, 0, 41, 64
1, 17922, Note_on_c, 0, 37, 97
1, 17922, Note_off_c, 0, 38, 64
1, 17923, Note_on_c, 0, 36, 97
1, 17923, Note_off_c, 0, 37, 64
1, 17923, Note_on_c, 0, 63, 21
1, 17923, Note_off_c, 0, 64, 64
1, 17924, Note_on_c, 0, 34, 97
1, 17924, Note_off_c, 0, 36, 64
1, 17924, Note_on_c, 0, 66, 18
1, 17925, Note_off_c, 0, 74, 64
1, 17925, Note_on_c, 0, 81, 13
1, 17926, Note_on_c, 0, 33, 95
1, 17926, Note_off_c, 0, 34, 64
1, 17926, Note_off_c, 0, 63, 64
1, 17926, Note_on_c, 0, 64, 25
1, 17927, Note_on_c, 0, 32, 96
1, 17927, Note_off_c, 0, 33, 64
1, 17927, Note_off_c, 0, 66, 64
1, 17929, Note_on_c, 0, 31, 96
1, 17929, Note_off_c, 0, 32, 64
1, 17930, Note_on_c, 0, 30, 93
1, 17930, Note_off_c, 0, 31, 64
1, 17930, Note_off_c, 0, 64, 64
1, 17930, Note_off_c, 0, 81, 64
1, 17932, Note_on_c, 0, 64, 27
1, 17932, Note_on_c, 0, 73, 20
1, 17934, Note_off_c, 0, 30, 64
1, 17934, Note_on_c, 0, 70, 20
1, 17934, Note_on_c, 0, 74, 28
1, 17934, Note_on_c, 0, 77, 16
1, 17934, Note_on_c, 0, 79, 12
1, 17934, Note_on_c, 0, 87, 11
1, 17934, Note_on_c, 0, 88, 15
1, 17935, Note_on_c, 0, 37, 67
1, 17935, Note_on_c, 0, 61, 36
1, 17936, Note_on_c, 0, 31, 75
1, 17936, Note_off_c, 0, 37, 64
1, 17936, Note_off_c, 0, 73, 64
1, 17937, Note_on_c, 0, 29, 78
1, 17937, Note_off_c, 0, 31, 64
1, 17937, Note_on_c, 0, 49, 58
1, 17938, Note_off_c, 0, 64, 64
1, 17938, Note_off_c, 0, 88, 64
1, 17939, Note_off_c, 0, 29, 64
1, 17939, Note_on_c, 0, 30, 74
1, 17939, Note_off_c, 0, 49, 64
1, 17939, Note_off_c, 0, 70, 64
1, 17939, Note_off_c, 0, 87, 64
1, 17940, Note_off_c, 0, 77, 64
1, 17940, Note_off_c, 0, 79, 64
1, 17941, Note_on_c, 0, 29, 74
1, 17941, Note_off_c, 0, 30, 64
1, 17943, Note_off_c, 0, 61, 64
1, 17943, Note_on_c, 0, 66, 12
1, 17943, Note_off_c, 0, 74, 64
1, 17943, Note_on_c, 0, 76, 22
1, 17944, Note_off_c, 0, 29, 64
1, 17944, Note_on_c, 0, 73, 25
1, 17944, Note_on_c, 0, 86, 17
1, 17945, Note_on_c, 0, 42, 70
1, 17945, Note_on_c, 0, 61, 28
1, 17945, Note_on_c, 0, 68, 27
1, 17945, Note_on_c, 0, 81, 15
1, 17945, Note_on_c, 0, 82, 15
1, 17945, Note_on_c, 0, 83, 13
1, 17946, Note_on_c, 0, 30, 81
1, 17946, Note_off_c, 0, 42, 64
1, 17946, Note_off_c, 0, 66, 64
1, 17947, Note_on_c, 0, 41, 65
1, 17947, Note_on_c, 0, 71, 27
1, 17948, Note_on_c, 0, 29, 80
1, 17948, Note_off_c, 0, 30, 64
1, 17948, Note_off_c, 0, 41, 64
1, 17948, Note_on_c, 0, 70, 47
1, 17948, Note_on_c, 0, 74, 14
1, 17949, Note_off_c, 0, 29, 64
1, 17949, Note_on_c, 0, 30, 76
1, 17949, Note_off_c, 0, 73, 64
1, 17949, Note_off_c, 0, 86, 64
1, 17950, Note_off_c, 0, 30, 64
1, 17950, Note_on_c, 0, 34, 73
1, 17950, Note_on_c, 0, 54, 48
1, 17950, Note_off_c, 0, 61, 64
1, 17950, Note_off_c, 0, 82, 64
1, 17950, Note_off_c, 0, 83, 64
1, 17951, Note_on_c, 0, 63, 41
1, 17951, Note_on_c, 0, 67, 38
1, 17951, Note_off_c, 0, 68, 64
1, 17951, Note_off_c, 0, 71, 64
1, 17951, Note_on_c, 0, 72, 35
1, 17951, Note_on_c, 0, 77, 38
1, 17951, Note_off_c, 0, 81, 64
1, 17952, Note_on_c, 0, 48, 53
1, 17952, Note_off_c, 0, 54, 64
1, 17952, Note_off_c, 0, 74, 64
1, 17952, Note_off_c, 0, 76, 64
1, 17952, Note_on_c, 0, 81, 33
1, 17952, Note_on_c, 0, 85, 34
1, 17952, Note_on_c, 0, 86, 31
1, 17952, Note_on_c, 0, 88, 27
1, 17952, Note_on_c, 0, 91, 28
1, 17952, Note_on_c, 0, 92, 28
1, 17952, Note_on_c, 0, 94, 24
1, 17953, Note_off_c, 0, 63, 64
1, 17953, Note_off_c, 0, 67, 64
1, 17953, Note_off_c, 0, 72, 64
1, 17953, Note_on_c, 0, 73, 38
1, 17953, Note_on_c, 0, 76, 38
1, 17953, Note_off_c, 0, 77, 64
1, 17953, Note_on_c, 0, 78, 38
1, 17954, Note_off_c, 0, 34, 64
1, 17954, Note_off_c, 0, 48, 64
1, 17954, Note_on_c, 0, 50, 77
1, 17955, Note_on_c, 0, 46, 86
1, 17955, Note_off_c, 0, 50, 64
1, 17955, Note_off_c, 0, 70, 64
1, 17955, Note_off_c, 0, 73, 64
1, 17955, Note_off_c, 0, 76, 64
1, 17955, Note_off_c, 0, 78, 64
1, 17955, Note_off_c, 0, 81, 64
1, 17955, Note_off_c, 0, 85, 64
1, 17955, Note_off_c, 0, 86, 64
1, 17955, Note_off_c, 0, 88, 64
1, 17955, Note_off_c, 0, 91, 64
1, 17955, Note_off_c, 0, 92, 64
1, 17955, Note_off_c, 0, 94, 64
1, 17956, Note_on_c, 0, 44, 94
1, 17956, Note_off_c, 0, 46, 64
1, 17957, Note_on_c, 0, 41, 100
1, 17957, Note_off_c, 0, 44, 64
1, 17958, Note_on_c, 0, 39, 97
1, 17958, Note_off_c, 0, 41, 64
1, 17959, Note_on_c, 0, 38, 98
1, 17959, Note_off_c, 0, 39, 64
1, 17960, Note_on_c, 0, 36, 98
1, 17960, Note_off_c, 0, 38, 64
1, 17961, Note_on_c, 0, 35, 97
1, 17961, Note_off_c, 0, 36, 64
1, 17962, Note_on_c, 0, 34, 96
1, 17962, Note_off_c, 0, 35, 64
1, 17963, Note_on_c, 0, 33, 96
1, 17963, Note_off_c, 0, 34, 64
1, 17965, Note_on_c, 0, 32, 97
1, 17965, Note_off_c, 0, 33, 64
1, 17966, Note_on_c, 0, 31, 97
1, 17966, Note_off_c, 0, 32, 64
1, 17968, Note_on_c, 0, 30, 89
1, 17968, Note_off_c, 0, 31, 64
1, 17971, Note_off_c, 0, 30, 64
1, 17972, Note_on_c, 0, 37, 67
1, 17972, Note_on_c, 0, 68, 16
1, 17972, Note_on_c, 0, 78, 10
1, 17973, Note_on_c, 0, 30, 80
1, 17973, Note_off_c, 0, 37, 64
1, 17973, Note_on_c, 0, 61, 32
1, 17975, Note_on_c, 0, 29, 80
1, 17975, Note_off_c, 0, 30, 64
1, 17975, Note_on_c, 0, 63, 22
1, 17975, Note_off_c, 0, 78, 64
1, 17976, Note_off_c, 0, 29, 64
1, 17976, Note_on_c, 0, 30, 77
1, 17977, Note_off_c, 0, 61, 64
1, 17977, Note_off_c, 0, 68, 64
1, 17978, Note_on_c, 0, 29, 75
1, 17978, Note_off_c, 0, 30, 64
1, 17980, Note_off_c, 0, 29, 64
1, 17980, Note_on_c, 0, 30, 71
1, 17981, Note_off_c, 0, 63, 64
1, 17982, Note_off_c, 0, 30, 64
1, 17983, Note_on_c, 0, 36, 73
1, 17983, Note_on_c, 0, 61, 30
1, 17983, Note_on_c, 0, 66, 18
1, 17983, Note_on_c, 0, 68, 20
1, 17983, Note_on_c, 0, 70, 14
1, 17983, Note_on_c, 0, 74, 9
1, 17984, Note_on_c, 0, 30, 80
1, 17984, Note_off_c, 0, 36, 64
1, 17984, Note_on_c, 0, 49, 62
1, 17985, Note_on_c, 0, 29, 82
1, 17985, Note_off_c, 0, 30, 64
1, 17985, Note_on_c, 0, 63, 28
1, 17986, Note_off_c, 0, 66, 64
1, 17986, Note_off_c, 0, 74, 64
1, 17987, Note_off_c, 0, 29, 64
1, 17987, Note_on_c, 0, 30, 76
1, 17987, Note_on_c, 0, 48, 58
1, 17987, Note_off_c, 0, 49, 64
1, 17987, Note_off_c, 0, 70, 64
1, 17988, Note_off_c, 0, 30, 64
1, 17988, Note_on_c, 0, 34, 67
1, 17988, Note_on_c, 0, 54, 37
1, 17988, Note_off_c, 0, 68, 64
1, 17989, Note_off_c, 0, 34, 64
1, 17989, Note_off_c, 0, 48, 64
1, 17989, Note_off_c, 0, 61, 64
1, 17989, Note_off_c, 0, 63, 64
1, 17989, Note_on_c, 0, 65, 46
1, 17989, Note_on_c, 0, 70, 41
1, 17989, Note_on_c, 0, 76, 34
1, 17989, Note_on_c, 0, 80, 36
1, 17989, Note_on_c, 0, 83, 32
1, 17989, Note_on_c, 0, 89, 28
1, 17989, Note_on_c, 0, 91, 27
1, 17989, Note_on_c, 0, 93, 26
1, 17989, Note_on_c, 0, 94, 26
1, 17990, Note_off_c, 0, 54, 64
1, 17990, Note_on_c, 0, 81, 36
1, 17991, Note_on_c, 0, 54, 69
1, 17991, Note_on_c, 0, 62, 50
1, 17991, Note_off_c, 0, 65, 64
1, 17991, Note_off_c, 0, 76, 64
1, 17992, Note_on_c, 0, 48, 83
1, 17992, Note_off_c, 0, 54, 64
1, 17992, Note_off_c, 0, 70, 64
1, 17992, Note_off_c, 0, 80, 64
1, 17992, Note_off_c, 0, 81, 64
1, 17992, Note_off_c, 0, 83, 64
1, 17992, Note_off_c, 0, 89, 64
1, 17992, Note_off_c, 0, 91, 64
1, 17992, Note_off_c, 0, 93, 64
1, 17992, Note_off_c, 0, 94, 64
1, 17993, Note_on_c, 0, 45, 93
1, 17993, Note_off_c, 0, 48, 64
1, 17993, Note_off_c, 0, 62, 64
1, 17994, Note_on_c, 0, 42, 98
1, 17994, Note_off_c, 0, 45, 64
1, 17995, Note_on_c, 0, 40, 99
1, 17995, Note_off_c, 0, 42, 64
1, 17996, Note_on_c, 0, 38, 98
1, 17996, Note_off_c, 0, 40, 64
1, 17997, Note_on_c, 0, 37, 98
1, 17997, Note_off_c, 0, 38, 64
1, 17998, Note_on_c, 0, 35, 97
1, 17998, Note_off_c, 0, 37, 64
1, 17999, Note_on_c, 0, 34, 96
1, 17999, Note_off_c, 0, 35, 64
1, 18001, Note_on_c, 0, 33, 95
1, 18001, Note_off_c, 0, 34, 64
1, 18002, Note_on_c, 0, 32, 97
1, 18002, Note_off_c, 0, 33, 64
1, 18002, Note_on_c, 0, 49, 31
1, 18004, Note_on_c, 0, 31, 96
1, 18004, Note_off_c, 0, 32, 64
1, 18004, Note_off_c, 0, 49, 64
1, 18005, Note_on_c, 0, 30, 92
1, 18005, Note_off_c, 0, 31, 64
1, 18008, Note_off_c, 0, 30, 64
1, 18009, Note_on_c, 0, 71, 10
1, 18010, Note_on_c, 0, 30, 78
1, 18010, Note_on_c, 0, 61, 29
1, 18010, Note_on_c, 0, 64, 30
1, 18010, Note_on_c, 0, 68, 14
1, 18012, Note_on_c, 0, 29, 80
1, 18012, Note_off_c, 0, 30, 64
1, 18012, Note_off_c, 0, 64, 64
1, 18013, Note_off_c, 0, 61, 64
1, 18014, Note_off_c, 0, 29, 64
1, 18014, Note_on_c, 0, 30, 76
1, 18014, Note_off_c, 0, 71, 64
1, 18015, Note_off_c, 0, 68, 64
1, 18016, Note_on_c, 0, 29, 74
1, 18016, Note_off_c, 0, 30, 64
1, 18018, Note_off_c, 0, 29, 64
1, 18018, Note_on_c, 0, 30, 68
1, 18019, Note_off_c, 0, 30, 64
1, 18020, Note_on_c, 0, 42, 70
1, 18020, Note_on_c, 0, 61, 30
1, 18020, Note_on_c, 0, 77, 10
1, 18021, Note_on_c, 0, 30, 82
1, 18021, Note_off_c, 0, 42, 64
1, 18021, Note_on_c, 0, 68, 19
1, 18023, Note_on_c, 0, 29, 82
1, 18023, Note_off_c, 0, 30, 64
1, 18023, Note_on_c, 0, 49, 59
1, 18023, Note_on_c, 0, 63, 26
1, 18024, Note_off_c, 0, 29, 64
1, 18024, Note_on_c, 0, 30, 78
1, 18024, Note_off_c, 0, 61, 64
1, 18024, Note_off_c, 0, 77, 64
1, 18025, Note_off_c, 0, 30, 64
1, 18025, Note_on_c, 0, 34, 72
1, 18025, Note_off_c, 0, 49, 64
1, 18025, Note_on_c, 0, 54, 44
1, 18025, Note_off_c, 0, 68, 64
1, 18026, Note_off_c, 0, 34, 64
1, 18026, Note_off_c, 0, 63, 64
1, 18027, Note_off_c, 0, 54, 64
1, 18027, Note_on_c, 0, 76, 38
1, 18027, Note_on_c, 0, 80, 30
1, 18027, Note_on_c, 0, 81, 30
1, 18027, Note_on_c, 0, 84, 31
1, 18028, Note_on_c, 0, 75, 38
1, 18029, Note_on_c, 0, 50, 78
1, 18029, Note_off_c, 0, 76, 64
1, 18029, Note_off_c, 0, 80, 64
1, 18029, Note_off_c, 0, 81, 64
1, 18029, Note_off_c, 0, 84, 64
1, 18030, Note_on_c, 0, 46, 88
1, 18030, Note_off_c, 0, 50, 64
1, 18030, Note_off_c, 0, 75, 64
1, 18031, Note_on_c, 0, 44, 95
1, 18031, Note_off_c, 0, 46, 64
1, 18032, Note_on_c, 0, 41, 100
1, 18032, Note_off_c, 0, 44, 64
1, 18033, Note_on_c, 0, 39, 97
1, 18033, Note_off_c, 0, 41, 64
1, 18034, Note_on_c, 0, 37, 98
1, 18034, Note_off_c, 0, 39, 64
1, 18035, Note_on_c, 0, 36, 98
1, 18035, Note_off_c, 0, 37, 64
1, 18036, Note_on_c, 0, 35, 97
1, 18036, Note_off_c, 0, 36, 64
1, 18037, Note_on_c, 0, 34, 96
1, 18037, Note_off_c, 0, 35, 64
1, 18038, Note_on_c, 0, 33, 96
1, 18038, Note_off_c, 0, 34, 64
1, 18040, Note_on_c, 0, 32, 97
1, 18040, Note_off_c, 0, 33, 64
1, 18041, Note_on_c, 0, 31, 97
1, 18041, Note_off_c, 0, 32, 64
1, 18043, Note_on_c, 0, 30, 89
1, 18043, Note_off_c, 0, 31, 64
1, 18046, Note_off_c, 0, 30, 64
1, 18047, Note_on_c, 0, 37, 69
1, 18047, Note_on_c, 0, 61, 28
1, 18047, Note_on_c, 0, 68, 23
1, 18048, Note_on_c, 0, 30, 80
1, 18048, Note_off_c, 0, 37, 64
1, 18050, Note_on_c, 0, 29, 80
1, 18050, Note_off_c, 0, 30, 64
1, 18050, Note_on_c, 0, 49, 57
1, 18051, Note_off_c, 0, 29, 64
1, 18051, Note_on_c, 0, 30, 78
1, 18052, Note_off_c, 0, 61, 64
1, 18052, Note_off_c, 0, 68, 64
1, 18053, Note_on_c, 0, 29, 75
1, 18053, Note_off_c, 0, 30, 64
1, 18053, Note_off_c, 0, 49, 64
1, 18056, Note_off_c, 0, 29, 64
1, 18057, Note_on_c, 0, 68, 19
1, 18058, Note_on_c, 0, 36, 73
1, 18058, Note_on_c, 0, 61, 29
1, 18058, Note_on_c, 0, 76, 14
1, 18059, Note_on_c, 0, 30, 81
1, 18059, Note_off_c, 0, 36, 64
1, 18059, Note_on_c, 0, 63, 29
1, 18060, Note_on_c, 0, 29, 82
1, 18060, Note_off_c, 0, 30, 64
1, 18061, Note_off_c, 0, 61, 64
1, 18061, Note_off_c, 0, 76, 64
1, 18062, Note_off_c, 0, 29, 64
1, 18062, Note_on_c, 0, 30, 76
1, 18062, Note_on_c, 0, 48, 56
1, 18062, Note_on_c, 0, 54, 48
1, 18062, Note_off_c, 0, 63, 64
1, 18062, Note_off_c, 0, 68, 64
1, 18063, Note_off_c, 0, 30, 64
1, 18063, Note_on_c, 0, 33, 66
1, 18064, Note_off_c, 0, 33, 64
1, 18064, Note_off_c, 0, 48, 64
1, 18064, Note_on_c, 0, 63, 48
1, 18064, Note_on_c, 0, 77, 39
1, 18064, Note_on_c, 0, 82, 35
1, 18064, Note_on_c, 0, 88, 30
1, 18064, Note_on_c, 0, 90, 29
1, 18064, Note_on_c, 0, 91, 29
1, 18064, Note_on_c, 0, 93, 27
1, 18065, Note_on_c, 0, 53, 70
1, 18065, Note_off_c, 0, 54, 64
1, 18065, Note_on_c, 0, 69, 42
1, 18065, Note_on_c, 0, 79, 36
1, 18065, Note_on_c, 0, 84, 35
1, 18065, Note_on_c, 0, 85, 32
1, 18066, Note_on_c, 0, 62, 49
1, 18066, Note_off_c, 0, 63, 64
1, 18067, Note_on_c, 0, 48, 84
1, 18067, Note_off_c, 0, 53, 64
1, 18067, Note_off_c, 0, 69, 64
1, 18067, Note_off_c, 0, 77, 64
1, 18067, Note_off_c, 0, 79, 64
1, 18067, Note_off_c, 0, 82, 64
1, 18067, Note_off_c, 0, 84, 64
1, 18067, Note_off_c, 0, 85, 64
1, 18067, Note_off_c, 0, 88, 64
1, 18067, Note_off_c, 0, 90, 64
1, 18067, Note_off_c, 0, 91, 64
1, 18067, Note_off_c, 0, 93, 64
1, 18068, Note_on_c, 0, 45, 94
1, 18068, Note_off_c, 0, 48, 64
1, 18068, Note_off_c, 0, 62, 64
1, 18069, Note_on_c, 0, 42, 99
1, 18069, Note_off_c, 0, 45, 64
1, 18070, Note_on_c, 0, 40, 99
1, 18070, Note_off_c, 0, 42, 64
1, 18071, Note_on_c, 0, 38, 98
1, 18071, Note_off_c, 0, 40, 64
1, 18072, Note_on_c, 0, 37, 98
1, 18072, Note_off_c, 0, 38, 64
1, 18073, Note_on_c, 0, 35, 97
1, 18073, Note_off_c, 0, 37, 64
1, 18074, Note_on_c, 0, 34, 96
1, 18074, Note_off_c, 0, 35, 64
1, 18075, Note_on_c, 0, 33, 95
1, 18075, Note_off_c, 0, 34, 64
1, 18077, Note_on_c, 0, 32, 97
1, 18077, Note_off_c, 0, 33, 64
1, 18077, Note_on_c, 0, 49, 32
1, 18079, Note_on_c, 0, 31, 96
1, 18079, Note_off_c, 0, 32, 64
1, 18079, Note_off_c, 0, 49, 64
1, 18080, Note_on_c, 0, 30, 91
1, 18080, Note_off_c, 0, 31, 64
1, 18083, Note_off_c, 0, 30, 64
1, 18084, Note_on_c, 0, 45, 65
1, 18085, Note_on_c, 0, 30, 79
1, 18085, Note_off_c, 0, 45, 64
1, 18085, Note_on_c, 0, 64, 29
1, 18085, Note_on_c, 0, 68, 20
1, 18085, Note_on_c, 0, 70, 19
1, 18085, Note_on_c, 0, 73, 19
1, 18087, Note_on_c, 0, 29, 80
1, 18087, Note_off_c, 0, 30, 64
1, 18088, Note_off_c, 0, 29, 64
1, 18088, Note_on_c, 0, 30, 79
1, 18088, Note_on_c, 0, 63, 22
1, 18088, Note_off_c, 0, 64, 64
1, 18088, Note_off_c, 0, 68, 64
1, 18088, Note_off_c, 0, 73, 64
1, 18090, Note_off_c, 0, 70, 64
1, 18091, Note_on_c, 0, 29, 74
1, 18091, Note_off_c, 0, 30, 64
1, 18091, Note_off_c, 0, 63, 64
1, 18092, Note_on_c, 0, 76, 12
1, 18093, Note_off_c, 0, 29, 64
1, 18093, Note_on_c, 0, 30, 68
1, 18094, Note_on_c, 0, 83, 15
1, 18095, Note_off_c, 0, 30, 64
1, 18095, Note_on_c, 0, 41, 72
1, 18095, Note_on_c, 0, 64, 32
1, 18095, Note_on_c, 0, 70, 18
1, 18095, Note_on_c, 0, 78, 22
1, 18095, Note_on_c, 0, 80, 20
1, 18095, Note_on_c, 0, 87, 9
1, 18096, Note_on_c, 0, 30, 82
1, 18096, Note_off_c, 0, 41, 64
1, 18096, Note_on_c, 0, 68, 21
1, 18097, Note_off_c, 0, 76, 64
1, 18097, Note_off_c, 0, 83, 64
1, 18098, Note_on_c, 0, 29, 82
1, 18098, Note_off_c, 0, 30, 64
1, 18098, Note_on_c, 0, 49, 59
1, 18098, Note_off_c, 0, 64, 64
1, 18098, Note_off_c, 0, 80, 64
1, 18099, Note_off_c, 0, 29, 64
1, 18099, Note_on_c, 0, 30, 78
1, 18099, Note_off_c, 0, 70, 64
1, 18099, Note_off_c, 0, 87, 64
1, 18100, Note_off_c, 0, 30, 64
1, 18100, Note_on_c, 0, 33, 71
1, 18100, Note_off_c, 0, 49, 64
1, 18100, Note_on_c, 0, 64, 39
1, 18100, Note_off_c, 0, 68, 64
1, 18101, Note_off_c, 0, 78, 64
1, 18102, Note_off_c, 0, 33, 64
1, 18102, Note_on_c, 0, 74, 39
1, 18102, Note_on_c, 0, 76, 42
1, 18102, Note_on_c, 0, 80, 35
1, 18102, Note_on_c, 0, 83, 34
1, 18102, Note_on_c, 0, 84, 32
1, 18102, Note_on_c, 0, 90, 29
1, 18103, Note_off_c, 0, 64, 64
1, 18104, Note_on_c, 0, 51, 78
1, 18104, Note_off_c, 0, 84, 64
1, 18104, Note_off_c, 0, 90, 64
1, 18105, Note_on_c, 0, 46, 89
1, 18105, Note_off_c, 0, 51, 64
1, 18105, Note_off_c, 0, 74, 64
1, 18105, Note_off_c, 0, 76, 64
1, 18105, Note_off_c, 0, 80, 64
1, 18105, Note_off_c, 0, 83, 64
1, 18106, Note_on_c, 0, 42, 96
1, 18106, Note_off_c, 0, 46, 64
1, 18107, Note_on_c, 0, 41, 100
1, 18107, Note_off_c, 0, 42, 64
1, 18108, Note_on_c, 0, 39, 97
1, 18108, Note_off_c, 0, 41, 64
1, 18108, Note_on_c, 0, 82, 27
1, 18108, Note_on_c, 0, 83, 22
1, 18109, Note_on_c, 0, 37, 98
1, 18109, Note_off_c, 0, 39, 64
1, 18110, Note_on_c, 0, 36, 98
1, 18110, Note_off_c, 0, 37, 64
1, 18110, Note_on_c, 0, 79, 21
1, 18111, Note_on_c, 0, 35, 97
1, 18111, Note_off_c, 0, 36, 64
1, 18111, Note_off_c, 0, 83, 64
1, 18112, Note_on_c, 0, 34, 96
1, 18112, Note_off_c, 0, 35, 64
1, 18112, Note_on_c, 0, 77, 9
1, 18113, Note_on_c, 0, 33, 95
1, 18113, Note_off_c, 0, 34, 64
1, 18113, Note_off_c, 0, 82, 64
1, 18113, Note_on_c, 0, 83, 9
1, 18114, Note_on_c, 0, 32, 97
1, 18114, Note_off_c, 0, 33, 64
1, 18115, Note_off_c, 0, 79, 64
1, 18116, Note_on_c, 0, 31, 96
1, 18116, Note_off_c, 0, 32, 64
1, 18116, Note_off_c, 0, 77, 64
1, 18116, Note_on_c, 0, 80, 44
1, 18116, Note_off_c, 0, 83, 64
1, 18118, Note_on_c, 0, 30, 88
1, 18118, Note_off_c, 0, 31, 64
1, 18118, Note_on_c, 0, 73, 17
1, 18118, Note_on_c, 0, 75, 23
1, 18118, Note_on_c, 0, 77, 14
1, 18120, Note_off_c, 0, 30, 64
1, 18120, Note_on_c, 0, 88, 18
1, 18121, Note_off_c, 0, 77, 64
1, 18121, Note_on_c, 0, 79, 31
1, 18121, Note_on_c, 0, 83, 13
1, 18122, Note_on_c, 0, 37, 70
1, 18122, Note_on_c, 0, 61, 28
1, 18122, Note_on_c, 0, 68, 18
1, 18122, Note_off_c, 0, 73, 64
1, 18123, Note_on_c, 0, 30, 79
1, 18123, Note_off_c, 0, 37, 64
1, 18123, Note_on_c, 0, 49, 58
1, 18123, Note_on_c, 0, 64, 29
1, 18123, Note_on_c, 0, 70, 13
1, 18123, Note_off_c, 0, 80, 64
1, 18123, Note_on_c, 0, 82, 22
1, 18124, Note_on_c, 0, 78, 28
1, 18124, Note_off_c, 0, 79, 64
1, 18124, Note_off_c, 0, 83, 64
1, 18125, Note_on_c, 0, 29, 80
1, 18125, Note_off_c, 0, 30, 64
1, 18125, Note_off_c, 0, 61, 64
1, 18125, Note_on_c, 0, 63, 21
1, 18125, Note_off_c, 0, 64, 64
1, 18125, Note_off_c, 0, 75, 64
1, 18125, Note_on_c, 0, 76, 25
1, 18125, Note_on_c, 0, 85, 18
1, 18125, Note_off_c, 0, 88, 64
1, 18126, Note_off_c, 0, 29, 64
1, 18126, Note_on_c, 0, 30, 77
1, 18126, Note_off_c, 0, 49, 64
1, 18126, Note_on_c, 0, 72, 22
1, 18126, Note_on_c, 0, 81, 32
1, 18126, Note_off_c, 0, 82, 64
1, 18127, Note_off_c, 0, 68, 64
1, 18127, Note_off_c, 0, 70, 64
1, 18128, Note_on_c, 0, 29, 75
1, 18128, Note_off_c, 0, 30, 64
1, 18128, Note_off_c, 0, 76, 64
1, 18128, Note_on_c, 0, 80, 41
1, 18128, Note_off_c, 0, 81, 64
1, 18128, Note_on_c, 0, 83, 21
1, 18129, Note_off_c, 0, 63, 64
1, 18130, Note_on_c, 0, 75, 32
1, 18131, Note_off_c, 0, 29, 64
1, 18131, Note_off_c, 0, 72, 64
1, 18131, Note_on_c, 0, 77, 30
1, 18131, Note_off_c, 0, 78, 64
1, 18132, Note_on_c, 0, 43, 65
1, 18132, Note_on_c, 0, 81, 36
1, 18133, Note_on_c, 0, 36, 72
1, 18133, Note_off_c, 0, 43, 64
1, 18133, Note_on_c, 0, 61, 32
1, 18133, Note_on_c, 0, 78, 34
1, 18133, Note_off_c, 0, 85, 64
1, 18134, Note_on_c, 0, 30, 81
1, 18134, Note_off_c, 0, 36, 64
1, 18134, Note_on_c, 0, 63, 28
1, 18134, Note_off_c, 0, 81, 64
1, 18134, Note_on_c, 0, 82, 41
1, 18135, Note_on_c, 0, 29, 82
1, 18135, Note_off_c, 0, 30, 64
1, 18136, Note_off_c, 0, 61, 64
1, 18136, Note_off_c, 0, 75, 64
1, 18136, Note_off_c, 0, 77, 64
1, 18136, Note_off_c, 0, 80, 64
1, 18137, Note_off_c, 0, 29, 64
1, 18137, Note_on_c, 0, 30, 74
1, 18137, Note_on_c, 0, 54, 45
1, 18137, Note_off_c, 0, 63, 64
1, 18137, Note_on_c, 0, 68, 20
1, 18137, Note_on_c, 0, 80, 42
1, 18137, Note_off_c, 0, 83, 64
1, 18138, Note_off_c, 0, 30, 64
1, 18138, Note_on_c, 0, 81, 43
1, 18138, Note_on_c, 0, 83, 30
1, 18139, Note_on_c, 0, 63, 50
1, 18139, Note_on_c, 0, 70, 42
1, 18139, Note_on_c, 0, 73, 42
1, 18139, Note_on_c, 0, 77, 41
1, 18139, Note_on_c, 0, 84, 38
1, 18139, Note_on_c, 0, 86, 31
1, 18139, Note_on_c, 0, 87, 34
1, 18139, Note_on_c, 0, 91, 26
1, 18140, Note_on_c, 0, 53, 72
1, 18140, Note_off_c, 0, 54, 64
1, 18140, Note_off_c, 0, 68, 64
1, 18140, Note_off_c, 0, 78, 64
1, 18140, Note_off_c, 0, 83, 64
1, 18141, Note_off_c, 0, 63, 64
1, 18141, Note_on_c, 0, 66, 41
1, 18141, Note_off_c, 0, 70, 64
1, 18141, Note_on_c, 0, 74, 29
1, 18141, Note_off_c, 0, 82, 64
1, 18141, Note_on_c, 0, 83, 30
1, 18142, Note_on_c, 0, 48, 84
1, 18142, Note_off_c, 0, 53, 64
1, 18142, Note_off_c, 0, 73, 64
1, 18142, Note_off_c, 0, 91, 64
1, 18143, Note_on_c, 0, 45, 94
1, 18143, Note_off_c, 0, 48, 64
1, 18143, Note_off_c, 0, 66, 64
1, 18143, Note_off_c, 0, 74, 64
1, 18143, Note_on_c, 0, 76, 24
1, 18143, Note_off_c, 0, 83, 64
1, 18143, Note_off_c, 0, 87, 64
1, 18144, Note_on_c, 0, 42, 99
1, 18144, Note_off_c, 0, 45, 64
1, 18144, Note_on_c, 0, 74, 23
1, 18144, Note_off_c, 0, 77, 64
1, 18144, Note_off_c, 0, 84, 64
1, 18145, Note_on_c, 0, 40, 97
1, 18145, Note_off_c, 0, 42, 64
1, 18146, Note_on_c, 0, 38, 98
1, 18146, Note_off_c, 0, 40, 64
1, 18147, Note_on_c, 0, 37, 97
1, 18147, Note_off_c, 0, 38, 64
1, 18147, Note_on_c, 0, 83, 15
1, 18147, Note_off_c, 0, 86, 64
1, 18148, Note_on_c, 0, 35, 96
1, 18148, Note_off_c, 0, 37, 64
1, 18148, Note_off_c, 0, 76, 64
1, 18148, Note_on_c, 0, 78, 46
1, 18148, Note_off_c, 0, 80, 64
1, 18148, Note_on_c, 0, 84, 15
1, 18149, Note_on_c, 0, 34, 96
1, 18149, Note_off_c, 0, 35, 64
1, 18149, Note_on_c, 0, 71, 22
1, 18150, Note_on_c, 0, 33, 96
1, 18150, Note_off_c, 0, 34, 64
1, 18150, Note_off_c, 0, 74, 64
1, 18150, Note_on_c, 0, 76, 34
1, 18150, Note_on_c, 0, 80, 24
1, 18151, Note_on_c, 0, 82, 20
1, 18151, Note_off_c, 0, 83, 64
1, 18152, Note_on_c, 0, 32, 96
1, 18152, Note_off_c, 0, 33, 64
1, 18152, Note_on_c, 0, 49, 32
1, 18152, Note_off_c, 0, 71, 64
1, 18153, Note_on_c, 0, 31, 96
1, 18153, Note_off_c, 0, 32, 64
1, 18154, Note_off_c, 0, 49, 64
1, 18154, Note_on_c, 0, 74, 30
1, 18154, Note_on_c, 0, 83, 20
1, 18155, Note_on_c, 0, 30, 90
1, 18155, Note_off_c, 0, 31, 64
1, 18155, Note_off_c, 0, 84, 64
1, 18156, Note_off_c, 0, 81, 64
1, 18158, Note_off_c, 0, 30, 64
1, 18158, Note_on_c, 0, 43, 64
1, 18158, Note_off_c, 0, 82, 64
1, 18159, Note_on_c, 0, 81, 49
1, 18159, Note_on_c, 0, 87, 20
1, 18160, Note_on_c, 0, 30, 78
1, 18160, Note_off_c, 0, 43, 64
1, 18160, Note_on_c, 0, 71, 31
1, 18160, Note_on_c, 0, 79, 33
1, 18160, Note_off_c, 0, 80, 64
1, 18160, Note_on_c, 0, 89, 13
1, 18161, Note_on_c, 0, 63, 29
1, 18161, Note_on_c, 0, 84, 20
1, 18162, Note_on_c, 0, 29, 80
1, 18162, Note_off_c, 0, 30, 64
1, 18162, Note_on_c, 0, 61, 24
1, 18162, Note_off_c, 0, 74, 64
1, 18162, Note_off_c, 0, 79, 64
1, 18163, Note_off_c, 0, 63, 64
1, 18163, Note_off_c, 0, 71, 64
1, 18163, Note_on_c, 0, 80, 22
1, 18163, Note_off_c, 0, 87, 64
1, 18163, Note_off_c, 0, 89, 64
1, 18164, Note_off_c, 0, 29, 64
1, 18164, Note_on_c, 0, 30, 76
1, 18164, Note_on_c, 0, 74, 32
1, 18164, Note_off_c, 0, 84, 64
1, 18165, Note_off_c, 0, 81, 64
1, 18165, Note_off_c, 0, 83, 64
1, 18166, Note_on_c, 0, 29, 73
1, 18166, Note_off_c, 0, 30, 64
1, 18166, Note_off_c, 0, 61, 64
1, 18166, Note_off_c, 0, 78, 64
1, 18167, Note_off_c, 0, 80, 64
1, 18167, Note_on_c, 0, 82, 28
1, 18168, Note_off_c, 0, 29, 64
1, 18168, Note_on_c, 0, 30, 66
1, 18168, Note_off_c, 0, 76, 64
1, 18169, Note_on_c, 0, 84, 17
1, 18170, Note_off_c, 0, 30, 64
1, 18170, Note_on_c, 0, 41, 71
1, 18170, Note_on_c, 0, 61, 29
1, 18170, Note_on_c, 0, 71, 29
1, 18170, Note_on_c, 0, 78, 35
1, 18170, Note_on_c, 0, 80, 43
1, 18171, Note_on_c, 0, 30, 78
1, 18171, Note_off_c, 0, 41, 64
1, 18171, Note_on_c, 0, 88, 16
1, 18172, Note_on_c, 0, 29, 82
1, 18172, Note_off_c, 0, 30, 64
1, 18172, Note_off_c, 0, 71, 64
1, 18172, Note_on_c, 0, 72, 39
1, 18172, Note_on_c, 0, 75, 49
1, 18173, Note_off_c, 0, 74, 64
1, 18173, Note_on_c, 0, 83, 32
1, 18173, Note_off_c, 0, 84, 64
1, 18173, Note_on_c, 0, 85, 34
1, 18174, Note_off_c, 0, 29, 64
1, 18174, Note_on_c, 0, 30, 77
1, 18174, Note_on_c, 0, 48, 58
1, 18174, Note_off_c, 0, 75, 64
1, 18174, Note_on_c, 0, 76, 48
1, 18175, Note_off_c, 0, 30, 64
1, 18175, Note_on_c, 0, 34, 69
1, 18175, Note_on_c, 0, 54, 40
1, 18175, Note_off_c, 0, 72, 64
1, 18175, Note_off_c, 0, 78, 64
1, 18175, Note_off_c, 0, 88, 64
1, 18176, Note_off_c, 0, 34, 64
1, 18176, Note_off_c, 0, 48, 64
1, 18176, Note_off_c, 0, 61, 64
1, 18176, Note_on_c, 0, 86, 32
1, 18177, Note_off_c, 0, 54, 64
1, 18177, Note_on_c, 0, 70, 42
1, 18177, Note_on_c, 0, 72, 38
1, 18177, Note_on_c, 0, 79, 36
1, 18177, Note_off_c, 0, 80, 64
1, 18177, Note_on_c, 0, 81, 38
1, 18177, Note_off_c, 0, 82, 64
1, 18178, Note_on_c, 0, 75, 34
1, 18179, Note_on_c, 0, 49, 79
1, 18179, Note_on_c, 0, 78, 25
1, 18179, Note_off_c, 0, 86, 64
1, 18180, Note_on_c, 0, 45, 90
1, 18180, Note_off_c, 0, 49, 64
1, 18180, Note_off_c, 0, 70, 64
1, 18180, Note_off_c, 0, 72, 64
1, 18180, Note_off_c, 0, 75, 64
1, 18180, Note_off_c, 0, 76, 64
1, 18180, Note_off_c, 0, 79, 64
1, 18180, Note_off_c, 0, 85, 64
1, 18181, Note_on_c, 0, 42, 96
1, 18181, Note_off_c, 0, 45, 64
1, 18181, Note_on_c, 0, 69, 18
1, 18181, Note_on_c, 0, 73, 28
1, 18181, Note_on_c, 0, 80, 16
1, 18181, Note_off_c, 0, 83, 64
1, 18182, Note_on_c, 0, 41, 99
1, 18182, Note_off_c, 0, 42, 64
1, 18182, Note_on_c, 0, 79, 32
1, 18182, Note_off_c, 0, 81, 64
1, 18182, Note_on_c, 0, 82, 45
1, 18183, Note_on_c, 0, 38, 97
1, 18183, Note_off_c, 0, 41, 64
1, 18184, Note_on_c, 0, 37, 98
1, 18184, Note_off_c, 0, 38, 64
1, 18184, Note_off_c, 0, 69, 64
1, 18184, Note_on_c, 0, 76, 35
1, 18184, Note_off_c, 0, 78, 64
1, 18184, Note_off_c, 0, 80, 64
1, 18185, Note_on_c, 0, 36, 97
1, 18185, Note_off_c, 0, 37, 64
1, 18185, Note_off_c, 0, 79, 64
1, 18185, Note_on_c, 0, 80, 25
1, 18185, Note_on_c, 0, 83, 22
1, 18186, Note_on_c, 0, 35, 96
1, 18186, Note_off_c, 0, 36, 64
1, 18186, Note_on_c, 0, 78, 25
1, 18186, Note_on_c, 0, 81, 27
1, 18186, Note_off_c, 0, 82, 64
1, 18187, Note_on_c, 0, 34, 95
1, 18187, Note_off_c, 0, 35, 64
1, 18187, Note_off_c, 0, 76, 64
1, 18188, Note_on_c, 0, 33, 95
1, 18188, Note_off_c, 0, 34, 64
1, 18188, Note_on_c, 0, 76, 19
1, 18189, Note_on_c, 0, 32, 96
1, 18189, Note_off_c, 0, 33, 64
1, 18189, Note_off_c, 0, 73, 64
1, 18190, Note_off_c, 0, 78, 64
1, 18190, Note_off_c, 0, 81, 64
1, 18191, Note_on_c, 0, 31, 96
1, 18191, Note_off_c, 0, 32, 64
1, 18191, Note_on_c, 0, 59, 38
1, 18191, Note_off_c, 0, 76, 64
1, 18192, Note_on_c, 0, 82, 22
1, 18192, Note_off_c, 0, 83, 64
1, 18193, Note_on_c, 0, 30, 87
1, 18193, Note_off_c, 0, 31, 64
1, 18193, Note_on_c, 0, 78, 25
1, 18194, Note_on_c, 0, 76, 42
1, 18194, Note_off_c, 0, 80, 64
1, 18194, Note_on_c, 0, 81, 38
1, 18195, Note_off_c, 0, 30, 64
1, 18195, Note_on_c, 0, 77, 23
1, 18195, Note_off_c, 0, 82, 64
1, 18195, Note_on_c, 0, 83, 32
1, 18196, Note_on_c, 0, 72, 39
1, 18196, Note_off_c, 0, 78, 64
1, 18196, Note_on_c, 0, 79, 34
1, 18196, Note_on_c, 0, 86, 24
1, 18197, Note_on_c, 0, 37, 69
1, 18197, Note_on_c, 0, 58, 45
1, 18197, Note_off_c, 0, 59, 64
1, 18197, Note_on_c, 0, 68, 19
1, 18198, Note_on_c, 0, 31, 75
1, 18198, Note_off_c, 0, 37, 64
1, 18198, Note_off_c, 0, 72, 64
1, 18198, Note_off_c, 0, 77, 64
1, 18199, Note_on_c, 0, 30, 79
1, 18199, Note_off_c, 0, 31, 64
1, 18199, Note_on_c, 0, 49, 58
1, 18199, Note_off_c, 0, 58, 64
1, 18199, Note_off_c, 0, 86, 64
1, 18200, Note_on_c, 0, 29, 79
1, 18200, Note_off_c, 0, 30, 64
1, 18200, Note_off_c, 0, 76, 64
1, 18200, Note_on_c, 0, 77, 39
1, 18200, Note_off_c, 0, 79, 64
1, 18201, Note_off_c, 0, 29, 64
1, 18201, Note_on_c, 0, 30, 76
1, 18201, Note_off_c, 0, 49, 64
1, 18201, Note_on_c, 0, 59, 34
1, 18201, Note_on_c, 0, 75, 29
1, 18201, Note_off_c, 0, 83, 64
1, 18202, Note_off_c, 0, 68, 64
1, 18203, Note_on_c, 0, 29, 74
1, 18203, Note_off_c, 0, 30, 64
1, 18203, Note_on_c, 0, 80, 34
1, 18203, Note_off_c, 0, 81, 64
1, 18203, Note_on_c, 0, 83, 36
1, 18204, Note_off_c, 0, 59, 64
1, 18205, Note_off_c, 0, 29, 64
1, 18205, Note_on_c, 0, 30, 69
1, 18205, Note_on_c, 0, 71, 30
1, 18205, Note_off_c, 0, 75, 64
1, 18205, Note_on_c, 0, 85, 26
1, 18205, Note_on_c, 0, 88, 16
1, 18206, Note_on_c, 0, 68, 32
1, 18206, Note_on_c, 0, 73, 34
1, 18206, Note_on_c, 0, 81, 38
1, 18207, Note_off_c, 0, 30, 64
1, 18207, Note_on_c, 0, 43, 66
1, 18207, Note_on_c, 0, 64, 31
1, 18207, Note_on_c, 0, 75, 51
1, 18208, Note_on_c, 0, 32, 72
1, 18208, Note_off_c, 0, 43, 64
1, 18208, Note_on_c, 0, 78, 33
1, 18208, Note_on_c, 0, 84, 23
1, 18208, Note_on_c, 0, 91, 13
1, 18209, Note_on_c, 0, 30, 81
1, 18209, Note_off_c, 0, 32, 64
1, 18209, Note_off_c, 0, 71, 64
1, 18209, Note_off_c, 0, 77, 64
1, 18209, Note_off_c, 0, 80, 64
1, 18209, Note_off_c, 0, 85, 64
1, 18209, Note_off_c, 0, 88, 64
1, 18210, Note_on_c, 0, 29, 81
1, 18210, Note_off_c, 0, 30, 64
1, 18210, Note_off_c, 0, 68, 64
1, 18210, Note_off_c, 0, 73, 64
1, 18210, Note_off_c, 0, 83, 64
1, 18211, Note_off_c, 0, 29, 64
1, 18211, Note_on_c, 0, 30, 79
1, 18211, Note_off_c, 0, 64, 64
1, 18211, Note_off_c, 0, 91, 64
1, 18212, Note_off_c, 0, 30, 64
1, 18212, Note_on_c, 0, 33, 73
1, 18212, Note_on_c, 0, 54, 44
1, 18212, Note_on_c, 0, 64, 24
1, 18212, Note_off_c, 0, 78, 64
1, 18212, Note_on_c, 0, 79, 39
1, 18212, Note_off_c, 0, 81, 64
1, 18212, Note_off_c, 0, 84, 64
1, 18213, Note_on_c, 0, 71, 41
1, 18213, Note_on_c, 0, 81, 45
1, 18214, Note_on_c, 0, 70, 41
1, 18214, Note_on_c, 0, 73, 47
1, 18214, Note_on_c, 0, 83, 49
1, 18214, Note_on_c, 0, 84, 41
1, 18214, Note_on_c, 0, 86, 35
1, 18214, Note_on_c, 0, 88, 30
1, 18214, Note_on_c, 0, 89, 29
1, 18214, Note_on_c, 0, 92, 23
1, 18214, Note_on_c, 0, 99, 19
1, 18215, Note_off_c, 0, 33, 64
1, 18215, Note_off_c, 0, 54, 64
1, 18215, Note_off_c, 0, 64, 64
1, 18216, Note_on_c, 0, 51, 73
1, 18216, Note_on_c, 0, 62, 45
1, 18216, Note_on_c, 0, 69, 32
1, 18216, Note_off_c, 0, 71, 64
1, 18217, Note_on_c, 0, 48, 84
1, 18217, Note_off_c, 0, 51, 64
1, 18217, Note_off_c, 0, 79, 64
1, 18217, Note_on_c, 0, 82, 48
1, 18217, Note_off_c, 0, 83, 64
1, 18217, Note_off_c, 0, 89, 64
1, 18217, Note_off_c, 0, 92, 64
1, 18217, Note_off_c, 0, 99, 64
1, 18218, Note_on_c, 0, 45, 93
1, 18218, Note_off_c, 0, 48, 64
1, 18218, Note_off_c, 0, 62, 64
1, 18218, Note_on_c, 0, 68, 17
1, 18218, Note_off_c, 0, 69, 64
1, 18218, Note_off_c, 0, 86, 64
1, 18219, Note_on_c, 0, 42, 99
1, 18219, Note_off_c, 0, 45, 64
1, 18219, Note_on_c, 0, 78, 25
1, 18220, Note_on_c, 0, 40, 97
1, 18220, Note_off_c, 0, 42, 64
1, 18220, Note_off_c, 0, 70, 64
1, 18220, Note_off_c, 0, 75, 64
1, 18220, Note_on_c, 0, 76, 34
1, 18220, Note_on_c, 0, 80, 40
1, 18220, Note_off_c, 0, 82, 64
1, 18220, Note_on_c, 0, 86, 14
1, 18221, Note_on_c, 0, 38, 98
1, 18221, Note_off_c, 0, 40, 64
1, 18221, Note_off_c, 0, 68, 64
1, 18221, Note_off_c, 0, 84, 64
1, 18221, Note_off_c, 0, 88, 64
1, 18222, Note_on_c, 0, 36, 97
1, 18222, Note_off_c, 0, 38, 64
1, 18222, Note_on_c, 0, 77, 31
1, 18222, Note_off_c, 0, 78, 64
1, 18223, Note_on_c, 0, 35, 96
1, 18223, Note_off_c, 0, 36, 64
1, 18223, Note_on_c, 0, 83, 28
1, 18223, Note_off_c, 0, 86, 64
1, 18224, Note_on_c, 0, 34, 95
1, 18224, Note_off_c, 0, 35, 64
1, 18224, Note_off_c, 0, 81, 64
1, 18225, Note_on_c, 0, 33, 95
1, 18225, Note_off_c, 0, 34, 64
1, 18225, Note_on_c, 0, 81, 31
1, 18226, Note_off_c, 0, 73, 64
1, 18226, Note_on_c, 0, 74, 30
1, 18226, Note_on_c, 0, 84, 24
1, 18227, Note_on_c, 0, 32, 95
1, 18227, Note_off_c, 0, 33, 64
1, 18228, Note_on_c, 0, 31, 96
1, 18228, Note_off_c, 0, 32, 64
1, 18228, Note_off_c, 0, 74, 64
1, 18228, Note_off_c, 0, 77, 64
1, 18229, Note_on_c, 0, 68, 25
1, 18230, Note_on_c, 0, 30, 89
1, 18230, Note_off_c, 0, 31, 64
1, 18230, Note_on_c, 0, 74, 32
1, 18230, Note_on_c, 0, 77, 38
1, 18230, Note_off_c, 0, 84, 64
1, 18230, Note_on_c, 0, 88, 43
1, 18231, Note_on_c, 0, 70, 14
1, 18231, Note_off_c, 0, 80, 64
1, 18231, Note_on_c, 0, 85, 40
1, 18231, Note_on_c, 0, 92, 16
1, 18232, Note_on_c, 0, 90, 23
1, 18232, Note_on_c, 0, 91, 12
1, 18233, Note_off_c, 0, 30, 64
1, 18234, Note_on_c, 0, 41, 67
1, 18234, Note_off_c, 0, 68, 64
1, 18234, Note_off_c, 0, 76, 64
1, 18234, Note_on_c, 0, 80, 43
1, 18235, Note_on_c, 0, 31, 74
1, 18235, Note_off_c, 0, 41, 64
1, 18235, Note_on_c, 0, 73, 45
1, 18235, Note_on_c, 0, 87, 35
1, 18236, Note_on_c, 0, 30, 80
1, 18236, Note_off_c, 0, 31, 64
1, 18236, Note_on_c, 0, 49, 57
1, 18236, Note_off_c, 0, 70, 64
1, 18236, Note_off_c, 0, 74, 64
1, 18236, Note_off_c, 0, 85, 64
1, 18236, Note_off_c, 0, 88, 64
1, 18236, Note_off_c, 0, 90, 64
1, 18237, Note_on_c, 0, 29, 80
1, 18237, Note_off_c, 0, 30, 64
1, 18237, Note_on_c, 0, 68, 30
1, 18237, Note_on_c, 0, 75, 33
1, 18237, Note_on_c, 0, 82, 51
1, 18237, Note_off_c, 0, 91, 64
1, 18237, Note_off_c, 0, 92, 64
1, 18238, Note_off_c, 0, 49, 64
1, 18238, Note_on_c, 0, 78, 32
1, 18238, Note_off_c, 0, 81, 64
1, 18238, Note_off_c, 0, 83, 64
1, 18238, Note_on_c, 0, 84, 32
1, 18239, Note_off_c, 0, 29, 64
1, 18239, Note_on_c, 0, 30, 76
1, 18239, Note_off_c, 0, 77, 64
1, 18240, Note_on_c, 0, 81, 34
1, 18240, Note_on_c, 0, 89, 24
1, 18241, Note_on_c, 0, 29, 73
1, 18241, Note_off_c, 0, 30, 64
1, 18242, Note_off_c, 0, 68, 64
1, 18242, Note_off_c, 0, 82, 64
1, 18242, Note_on_c, 0, 86, 29
1, 18242, Note_off_c, 0, 87, 64
1, 18242, Note_on_c, 0, 88, 41
1, 18243, Note_off_c, 0, 29, 64
1, 18243, Note_on_c, 0, 30, 65
1, 18243, Note_off_c, 0, 81, 64
1, 18243, Note_on_c, 0, 82, 35
1, 18243, Note_on_c, 0, 93, 12
1, 18244, Note_on_c, 0, 61, 26
1, 18244, Note_on_c, 0, 68, 39
1, 18244, Note_off_c, 0, 75, 64
1, 18244, Note_on_c, 0, 76, 46
1, 18244, Note_off_c, 0, 78, 64
1, 18244, Note_on_c, 0, 91, 16
1, 18245, Note_off_c, 0, 30, 64
1, 18245, Note_on_c, 0, 36, 71
1, 18245, Note_on_c, 0, 64, 31
1, 18245, Note_on_c, 0, 79, 21
1, 18245, Note_off_c, 0, 80, 64
1, 18245, Note_off_c, 0, 82, 64
1, 18245, Note_off_c, 0, 86, 64
1, 18245, Note_on_c, 0, 87, 12
1, 18246, Note_on_c, 0, 30, 78
1, 18246, Note_off_c, 0, 36, 64
1, 18246, Note_off_c, 0, 84, 64
1, 18246, Note_off_c, 0, 93, 64
1, 18247, Note_on_c, 0, 29, 81
1, 18247, Note_off_c, 0, 30, 64
1, 18247, Note_on_c, 0, 49, 61
1, 18247, Note_off_c, 0, 91, 64
1, 18248, Note_off_c, 0, 73, 64
1, 18248, Note_on_c, 0, 77, 43
1, 18248, Note_on_c, 0, 81, 51
1, 18248, Note_on_c, 0, 82, 38
1, 18248, Note_off_c, 0, 87, 64
1, 18248, Note_off_c, 0, 89, 64
1, 18249, Note_off_c, 0, 29, 64
1, 18249, Note_on_c, 0, 30, 76
1, 18249, Note_on_c, 0, 48, 59
1, 18249, Note_off_c, 0, 49, 64
1, 18249, Note_off_c, 0, 61, 64
1, 18249, Note_off_c, 0, 64, 64
1, 18249, Note_off_c, 0, 76, 64
1, 18249, Note_off_c, 0, 79, 64
1, 18249, Note_on_c, 0, 87, 38
1, 18250, Note_off_c, 0, 30, 64
1, 18250, Note_on_c, 0, 34, 67
1, 18250, Note_on_c, 0, 54, 35
1, 18250, Note_off_c, 0, 68, 64
1, 18250, Note_on_c, 0, 69, 43
1, 18250, Note_on_c, 0, 72, 42
1, 18250, Note_on_c, 0, 86, 37
1, 18250, Note_on_c, 0, 91, 29
1, 18251, Note_off_c, 0, 34, 64
1, 18251, Note_off_c, 0, 48, 64
1, 18251, Note_on_c, 0, 75, 35
1, 18251, Note_on_c, 0, 80, 44
1, 18251, Note_on_c, 0, 90, 43
1, 18251, Note_on_c, 0, 96, 21
1, 18252, Note_off_c, 0, 54, 64
1, 18252, Note_on_c, 0, 63, 52
1, 18252, Note_on_c, 0, 84, 43
1, 18252, Note_off_c, 0, 88, 64
1, 18252, Note_on_c, 0, 95, 25
1, 18252, Note_on_c, 0, 97, 19
1, 18252, Note_on_c, 0, 100, 20
1, 18253, Note_on_c, 0, 54, 65
1, 18253, Note_on_c, 0, 79, 47
1, 18253, Note_off_c, 0, 80, 64
1, 18253, Note_on_c, 0, 85, 48
1, 18254, Note_on_c, 0, 49, 79
1, 18254, Note_off_c, 0, 54, 64
1, 18254, Note_off_c, 0, 72, 64
1, 18254, Note_on_c, 0, 73, 28
1, 18254, Note_on_c, 0, 78, 27
1, 18254, Note_off_c, 0, 96, 64
1, 18255, Note_on_c, 0, 45, 91
1, 18255, Note_off_c, 0, 49, 64
1, 18255, Note_on_c, 0, 68, 27
1, 18255, Note_off_c, 0, 69, 64
1, 18255, Note_off_c, 0, 75, 64
1, 18255, Note_on_c, 0, 76, 46
1, 18255, Note_off_c, 0, 77, 64
1, 18255, Note_off_c, 0, 79, 64
1, 18255, Note_on_c, 0, 80, 37
1, 18255, Note_off_c, 0, 82, 64
1, 18255, Note_on_c, 0, 83, 38
1, 18255, Note_off_c, 0, 84, 64
1, 18255, Note_on_c, 0, 96, 12
1, 18255, Note_off_c, 0, 100, 64
1, 18256, Note_on_c, 0, 42, 97
1, 18256, Note_off_c, 0, 45, 64
1, 18256, Note_off_c, 0, 81, 64
1, 18257, Note_on_c, 0, 41, 98
1, 18257, Note_off_c, 0, 42, 64
1, 18257, Note_off_c, 0, 63, 64
1, 18258, Note_on_c, 0, 38, 97
1, 18258, Note_off_c, 0, 41, 64
1, 18258, Note_off_c, 0, 78, 64
1, 18258, Note_off_c, 0, 87, 64
1, 18258, Note_off_c, 0, 91, 64
1, 18259, Note_on_c, 0, 37, 97
1, 18259, Note_off_c, 0, 38, 64
1, 18259, Note_off_c, 0, 68, 64
1, 18259, Note_off_c, 0, 96, 64
1, 18260, Note_on_c, 0, 36, 96
1, 18260, Note_off_c, 0, 37, 64
1, 18260, Note_on_c, 0, 64, 15
1, 18260, Note_on_c, 0, 78, 42
1, 18260, Note_on_c, 0, 84, 26
1, 18260, Note_off_c, 0, 95, 64
1, 18261, Note_on_c, 0, 35, 95
1, 18261, Note_off_c, 0, 36, 64
1, 18261, Note_off_c, 0, 73, 64
1, 18261, Note_off_c, 0, 97, 64
1, 18262, Note_on_c, 0, 34, 95
1, 18262, Note_off_c, 0, 35, 64
1, 18262, Note_on_c, 0, 73, 40
1, 18262, Note_off_c, 0, 80, 64
1, 18262, Note_on_c, 0, 82, 27
1, 18262, Note_on_c, 0, 87, 19
1, 18262, Note_on_c, 0, 92, 11
1, 18263, Note_on_c, 0, 33, 94
1, 18263, Note_off_c, 0, 34, 64
1, 18263, Note_on_c, 0, 48, 30
1, 18263, Note_off_c, 0, 84, 64
1, 18264, Note_on_c, 0, 32, 96
1, 18264, Note_off_c, 0, 33, 64
1, 18264, Note_on_c, 0, 68, 20
1, 18264, Note_on_c, 0, 81, 24
1, 18264, Note_off_c, 0, 83, 64
1, 18264, Note_off_c, 0, 85, 64
1, 18265, Note_off_c, 0, 48, 64
1, 18265, Note_on_c, 0, 72, 40
1, 18265, Note_off_c, 0, 73, 64
1, 18265, Note_on_c, 0, 75, 47
1, 18265, Note_off_c, 0, 76, 64
1, 18265, Note_on_c, 0, 77, 42
1, 18265, Note_off_c, 0, 78, 64
1, 18265, Note_on_c, 0, 79, 34
1, 18265, Note_off_c, 0, 82, 64
1, 18265, Note_on_c, 0, 83, 23
1, 18265, Note_off_c, 0, 87, 64
1, 18265, Note_off_c, 0, 90, 64
1, 18265, Note_off_c, 0, 92, 64
1, 18266, Note_on_c, 0, 31, 96
1, 18266, Note_off_c, 0, 32, 64
1, 18267, Note_on_c, 0, 30, 92
1, 18267, Note_off_c, 0, 31, 64
1, 18267, Note_on_c, 0, 74, 47
1, 18267, Note_off_c, 0, 75, 64
1, 18267, Note_off_c, 0, 77, 64
1, 18267, Note_off_c, 0, 79, 64
1, 18267, Note_on_c, 0, 80, 38
1, 18267, Note_off_c, 0, 81, 64
1, 18267, Note_on_c, 0, 82, 19
1, 18268, Note_on_c, 0, 71, 41
1, 18268, Note_off_c, 0, 72, 64
1, 18268, Note_on_c, 0, 78, 57
1, 18268, Note_on_c, 0, 85, 22
1, 18268, Note_off_c, 0, 86, 64
1, 18268, Note_on_c, 0, 87, 42
1, 18268, Note_on_c, 0, 88, 23
1, 18269, Note_off_c, 0, 68, 64
1, 18270, Note_off_c, 0, 64, 64
1, 18270, Note_off_c, 0, 71, 64
1, 18270, Note_off_c, 0, 74, 64
1, 18270, Note_on_c, 0, 76, 35
1, 18270, Note_off_c, 0, 80, 64
1, 18270, Note_off_c, 0, 82, 64
1, 18270, Note_on_c, 0, 86, 24
1, 18271, Note_off_c, 0, 30, 64
1, 18271, Note_on_c, 0, 36, 69
1, 18271, Note_on_c, 0, 66, 23
1, 18271, Note_on_c, 0, 71, 43
1, 18271, Note_on_c, 0, 80, 48
1, 18271, Note_on_c, 0, 82, 48
1, 18271, Note_off_c, 0, 83, 64
1, 18272, Note_on_c, 0, 75, 34
1, 18272, Note_off_c, 0, 76, 64
1, 18272, Note_off_c, 0, 88, 64
1, 18273, Note_on_c, 0, 31, 76
1, 18273, Note_off_c, 0, 36, 64
1, 18273, Note_on_c, 0, 64, 19
1, 18273, Note_on_c, 0, 70, 37
1, 18273, Note_off_c, 0, 71, 64
1, 18273, Note_on_c, 0, 72, 46
1, 18273, Note_off_c, 0, 85, 64
1, 18273, Note_on_c, 0, 93, 17
1, 18274, Note_on_c, 0, 30, 79
1, 18274, Note_off_c, 0, 31, 64
1, 18274, Note_on_c, 0, 73, 54
1, 18274, Note_off_c, 0, 75, 64
1, 18275, Note_on_c, 0, 29, 78
1, 18275, Note_off_c, 0, 30, 64
1, 18275, Note_on_c, 0, 49, 55
1, 18275, Note_off_c, 0, 66, 64
1, 18275, Note_off_c, 0, 72, 64
1, 18275, Note_on_c, 0, 84, 32
1, 18275, Note_on_c, 0, 89, 20
1, 18276, Note_off_c, 0, 29, 64
1, 18276, Note_on_c, 0, 30, 75
1, 18276, Note_on_c, 0, 95, 15
1, 18277, Note_off_c, 0, 64, 64
1, 18277, Note_off_c, 0, 84, 64
1, 18277, Note_off_c, 0, 86, 64
1, 18277, Note_on_c, 0, 88, 37
1, 18277, Note_on_c, 0, 91, 31
1, 18277, Note_on_c, 0, 98, 10
1, 18278, Note_on_c, 0, 29, 73
1, 18278, Note_off_c, 0, 30, 64
1, 18278, Note_off_c, 0, 49, 64
1, 18279, Note_on_c, 0, 76, 29
1, 18279, Note_on_c, 0, 83, 31
1, 18279, Note_on_c, 0, 96, 16
1, 18280, Note_off_c, 0, 29, 64
1, 18280, Note_on_c, 0, 30, 67
1, 18280, Note_off_c, 0, 70, 64
1, 18281, Note_on_c, 0, 64, 36
1, 18281, Note_on_c, 0, 70, 33
1, 18281, Note_on_c, 0, 75, 51
1, 18281, Note_off_c, 0, 76, 64
1, 18281, Note_on_c, 0, 81, 38
1, 18282, Note_off_c, 0, 30, 64
1, 18282, Note_on_c, 0, 42, 67
1, 18282, Note_off_c, 0, 80, 64
1, 18282, Note_off_c, 0, 83, 64
1, 18282, Note_on_c, 0, 84, 31
1, 18282, Note_on_c, 0, 86, 34
1, 18282, Note_off_c, 0, 95, 64
1, 18283, Note_on_c, 0, 31, 74
1, 18283, Note_off_c, 0, 42, 64
1, 18283, Note_on_c, 0, 68, 28
1, 18283, Note_on_c, 0, 80, 44
1, 18283, Note_off_c, 0, 82, 64
1, 18283, Note_off_c, 0, 89, 64
1, 18283, Note_off_c, 0, 91, 64
1, 18283, Note_off_c, 0, 93, 64
1, 18283, Note_off_c, 0, 98, 64
1, 18284, Note_on_c, 0, 30, 81
1, 18284, Note_off_c, 0, 31, 64
1, 18284, Note_off_c, 0, 81, 64
1, 18284, Note_on_c, 0, 82, 39
1, 18284, Note_on_c, 0, 91, 30
1, 18285, Note_on_c, 0, 29, 80
1, 18285, Note_off_c, 0, 30, 64
1, 18285, Note_off_c, 0, 64, 64
1, 18285, Note_on_c, 0, 83, 37
1, 18286, Note_on_c, 0, 64, 31
1, 18286, Note_off_c, 0, 68, 64
1, 18286, Note_off_c, 0, 70, 64
1, 18286, Note_on_c, 0, 76, 51
1, 18286, Note_off_c, 0, 86, 64
1, 18286, Note_on_c, 0, 93, 23
1, 18287, Note_off_c, 0, 29, 64
1, 18287, Note_on_c, 0, 33, 71
1, 18287, Note_on_c, 0, 54, 43
1, 18287, Note_off_c, 0, 73, 64
1, 18287, Note_on_c, 0, 74, 55
1, 18287, Note_off_c, 0, 75, 64
1, 18287, Note_off_c, 0, 91, 64
1, 18287, Note_off_c, 0, 96, 64
1, 18288, Note_on_c, 0, 49, 36
1, 18288, Note_off_c, 0, 64, 64
1, 18288, Note_on_c, 0, 70, 40
1, 18289, Note_on_c, 0, 59, 53
1, 18289, Note_on_c, 0, 64, 50
1, 18289, Note_on_c, 0, 73, 54
1, 18289, Note_off_c, 0, 74, 64
1, 18289, Note_off_c, 0, 76, 64
1, 18289, Note_off_c, 0, 87, 64
1, 18289, Note_on_c, 0, 89, 31
1, 18290, Note_off_c, 0, 33, 64
1, 18290, Note_off_c, 0, 49, 64
1, 18290, Note_off_c, 0, 54, 64
1, 18290, Note_on_c, 0, 69, 46
1, 18290, Note_off_c, 0, 70, 64
1, 18290, Note_on_c, 0, 77, 43
1, 18290, Note_off_c, 0, 80, 64
1, 18290, Note_off_c, 0, 84, 64
1, 18290, Note_on_c, 0, 87, 31
1, 18290, Note_off_c, 0, 88, 64
1, 18291, Note_on_c, 0, 51, 75
1, 18291, Note_off_c, 0, 59, 64
1, 18291, Note_off_c, 0, 64, 64
1, 18291, Note_on_c, 0, 79, 38
1, 18291, Note_off_c, 0, 82, 64
1, 18292, Note_on_c, 0, 48, 85
1, 18292, Note_off_c, 0, 51, 64
1, 18292, Note_off_c, 0, 69, 64
1, 18292, Note_off_c, 0, 78, 64
1, 18292, Note_on_c, 0, 82, 32
1, 18292, Note_off_c, 0, 93, 64
1, 18293, Note_on_c, 0, 44, 93
1, 18293, Note_off_c, 0, 48, 64
1, 18293, Note_on_c, 0, 70, 25
1, 18293, Note_off_c, 0, 73, 64
1, 18293, Note_off_c, 0, 89, 64
1, 18294, Note_on_c, 0, 41, 98
1, 18294, Note_off_c, 0, 44, 64
1, 18294, Note_on_c, 0, 76, 41
1, 18294, Note_on_c, 0, 80, 34
1, 18294, Note_off_c, 0, 83, 64
1, 18295, Note_on_c, 0, 40, 95
1, 18295, Note_off_c, 0, 41, 64
1, 18295, Note_on_c, 0, 73, 37
1, 18295, Note_on_c, 0, 75, 40
1, 18295, Note_off_c, 0, 77, 64
1, 18295, Note_on_c, 0, 83, 36
1, 18296, Note_on_c, 0, 38, 97
1, 18296, Note_off_c, 0, 40, 64
1, 18297, Note_on_c, 0, 36, 96
1, 18297, Note_off_c, 0, 38, 64
1, 18297, Note_on_c, 0, 67, 21
1, 18297, Note_off_c, 0, 73, 64
1, 18297, Note_on_c, 0, 74, 61
1, 18297, Note_off_c, 0, 75, 64
1, 18297, Note_off_c, 0, 76, 64
1, 18297, Note_off_c, 0, 80, 64
1, 18297, Note_off_c, 0, 82, 64
1, 18297, Note_off_c, 0, 87, 64
1, 18298, Note_on_c, 0, 35, 95
1, 18298, Note_off_c, 0, 36, 64
1, 18298, Note_off_c, 0, 70, 64
1, 18298, Note_on_c, 0, 84, 22
1, 18298, Note_on_c, 0, 88, 13
1, 18299, Note_on_c, 0, 34, 94
1, 18299, Note_off_c, 0, 35, 64
1, 18299, Note_on_c, 0, 82, 30
1, 18299, Note_on_c, 0, 90, 14
1, 18300, Note_on_c, 0, 33, 94
1, 18300, Note_off_c, 0, 34, 64
1, 18300, Note_on_c, 0, 87, 31
1, 18301, Note_on_c, 0, 77, 19
1, 18301, Note_on_c, 0, 78, 26
1, 18301, Note_off_c, 0, 84, 64
1, 18301, Note_off_c, 0, 88, 64
1, 18302, Note_on_c, 0, 32, 95
1, 18302, Note_off_c, 0, 33, 64
1, 18302, Note_on_c, 0, 65, 10
1, 18302, Note_on_c, 0, 80, 38
1, 18303, Note_on_c, 0, 31, 95
1, 18303, Note_off_c, 0, 32, 64
1, 18303, Note_off_c, 0, 67, 64
1, 18304, Note_off_c, 0, 77, 64
1, 18304, Note_off_c, 0, 79, 64
1, 18304, Note_off_c, 0, 82, 64
1, 18304, Note_off_c, 0, 90, 64
1, 18305, Note_on_c, 0, 30, 89
1, 18305, Note_off_c, 0, 31, 64
1, 18305, Note_off_c, 0, 65, 64
1, 18305, Note_on_c, 0, 70, 14
1, 18306, Note_off_c, 0, 74, 64
1, 18306, Note_on_c, 0, 75, 62
1, 18306, Note_off_c, 0, 78, 64
1, 18306, Note_on_c, 0, 79, 28
1, 18306, Note_on_c, 0, 81, 30
1, 18306, Note_on_c, 0, 84, 31
1, 18306, Note_on_c, 0, 89, 12
1, 18306, Note_on_c, 0, 94, 17
1, 18307, Note_on_c, 0, 72, 29
1, 18307, Note_on_c, 0, 78, 36
1, 18307, Note_off_c, 0, 80, 64
1, 18307, Note_on_c, 0, 82, 42
1, 18307, Note_off_c, 0, 83, 64
1, 18307, Note_off_c, 0, 87, 64
1, 18307, Note_on_c, 0, 88, 24
1, 18308, Note_off_c, 0, 30, 64
1, 18308, Note_off_c, 0, 70, 64
1, 18308, Note_off_c, 0, 81, 64
1, 18308, Note_off_c, 0, 84, 64
1, 18308, Note_on_c, 0, 85, 54
1, 18309, Note_on_c, 0, 40, 66
1, 18309, Note_on_c, 0, 66, 65
1, 18309, Note_on_c, 0, 70, 22
1, 18309, Note_on_c, 0, 77, 27
1, 18309, Note_off_c, 0, 79, 64
1, 18309, Note_on_c, 0, 86, 29
1, 18309, Note_off_c, 0, 89, 64
1, 18309, Note_on_c, 0, 91, 22
1, 18309, Note_off_c, 0, 94, 64
1, 18310, Note_on_c, 0, 30, 78
1, 18310, Note_off_c, 0, 40, 64
1, 18310, Note_off_c, 0, 72, 64
1, 18310, Note_on_c, 0, 73, 27
1, 18311, Note_off_c, 0, 88, 64
1, 18312, Note_on_c, 0, 29, 78
1, 18312, Note_off_c, 0, 30, 64
1, 18312, Note_on_c, 0, 60, 27
1, 18312, Note_on_c, 0, 93, 11
1, 18313, Note_off_c, 0, 29, 64
1, 18313, Note_on_c, 0, 30, 75
1, 18313, Note_on_c, 0, 49, 58
1, 18313, Note_off_c, 0, 77, 64
1, 18313, Note_on_c, 0, 80, 21
1, 18314, Note_on_c, 0, 88, 25
1, 18315, Note_off_c, 0, 60, 64
1, 18315, Note_off_c, 0, 73, 64
1, 18315, Note_on_c, 0, 74, 21
1, 18315, Note_off_c, 0, 75, 64
1, 18315, Note_on_c, 0, 76, 46
1, 18316, Note_on_c, 0, 29, 73
1, 18316, Note_off_c, 0, 30, 64
1, 18317, Note_off_c, 0, 49, 64
1, 18317, Note_off_c, 0, 80, 64
1, 18317, Note_off_c, 0, 93, 64
1, 18318, Note_off_c, 0, 29, 64
1, 18318, Note_off_c, 0, 70, 64
1, 18318, Note_off_c, 0, 86, 64
1, 18318, Note_on_c, 0, 89, 35
1, 18318, Note_on_c, 0, 98, 13
1, 18319, Note_off_c, 0, 74, 64
1, 18319, Note_on_c, 0, 80, 22
1, 18319, Note_on_c, 0, 86, 43
1, 18319, Note_off_c, 0, 88, 64
1, 18320, Note_on_c, 0, 36, 70
1, 18320, Note_on_c, 0, 96, 22
1, 18321, Note_on_c, 0, 30, 78
1, 18321, Note_off_c, 0, 36, 64
1, 18321, Note_on_c, 0, 49, 58
1, 18321, Note_on_c, 0, 84, 16
1, 18321, Note_on_c, 0, 93, 30
1, 18322, Note_on_c, 0, 29, 80
1, 18322, Note_off_c, 0, 30, 64
1, 18322, Note_off_c, 0, 80, 64
1, 18322, Note_off_c, 0, 91, 64
1, 18323, Note_off_c, 0, 78, 64
1, 18323, Note_off_c, 0, 98, 64
1, 18324, Note_off_c, 0, 29, 64
1, 18324, Note_on_c, 0, 30, 75
1, 18324, Note_on_c, 0, 48, 55
1, 18324, Note_off_c, 0, 49, 64
1, 18324, Note_on_c, 0, 54, 68
1, 18324, Note_off_c, 0, 84, 64
1, 18325, Note_off_c, 0, 30, 64
1, 18325, Note_on_c, 0, 34, 67
1, 18325, Note_off_c, 0, 66, 64
1, 18325, Note_on_c, 0, 67, 57
1, 18325, Note_on_c, 0, 74, 48
1, 18325, Note_on_c, 0, 80, 30
1, 18326, Note_on_c, 0, 83, 37
1, 18327, Note_off_c, 0, 34, 64
1, 18327, Note_on_c, 0, 71, 46
1, 18327, Note_off_c, 0, 80, 64
1, 18327, Note_on_c, 0, 81, 36
1, 18327, Note_off_c, 0, 82, 64
1, 18327, Note_on_c, 0, 84, 33
1, 18327, Note_off_c, 0, 85, 64
1, 18327, Note_on_c, 0, 90, 25
1, 18328, Note_off_c, 0, 48, 64
1, 18328, Note_off_c, 0, 67, 64
1, 18328, Note_on_c, 0, 68, 47
1, 18328, Note_on_c, 0, 87, 30
1, 18329, Note_on_c, 0, 48, 82
1, 18329, Note_off_c, 0, 54, 64
1, 18329, Note_on_c, 0, 77, 33
1, 18329, Note_off_c, 0, 81, 64
1, 18329, Note_on_c, 0, 82, 30
1, 18329, Note_off_c, 0, 93, 64
1, 18329, Note_off_c, 0, 96, 64
1, 18330, Note_on_c, 0, 45, 92
1, 18330, Note_off_c, 0, 48, 64
1, 18330, Note_on_c, 0, 64, 23
1, 18330, Note_off_c, 0, 71, 64
1, 18330, Note_on_c, 0, 72, 30
1, 18330, Note_on_c, 0, 81, 23
1, 18330, Note_off_c, 0, 90, 64
1, 18331, Note_on_c, 0, 42, 97
1, 18331, Note_off_c, 0, 45, 64
1, 18331, Note_off_c, 0, 83, 64
1, 18331, Note_off_c, 0, 89, 64
1, 18332, Note_on_c, 0, 41, 98
1, 18332, Note_off_c, 0, 42, 64
1, 18332, Note_off_c, 0, 76, 64
1, 18332, Note_on_c, 0, 85, 12
1, 18333, Note_on_c, 0, 38, 97
1, 18333, Note_off_c, 0, 41, 64
1, 18333, Note_off_c, 0, 74, 64
1, 18333, Note_on_c, 0, 75, 43
1, 18333, Note_off_c, 0, 81, 64
1, 18333, Note_off_c, 0, 86, 64
1, 18334, Note_on_c, 0, 37, 97
1, 18334, Note_off_c, 0, 38, 64
1, 18334, Note_off_c, 0, 64, 64
1, 18334, Note_on_c, 0, 78, 38
1, 18335, Note_on_c, 0, 35, 96
1, 18335, Note_off_c, 0, 37, 64
1, 18335, Note_on_c, 0, 54, 29
1, 18335, Note_off_c, 0, 84, 64
1, 18335, Note_off_c, 0, 85, 64
1, 18336, Note_on_c, 0, 34, 95
1, 18336, Note_off_c, 0, 35, 64
1, 18336, Note_on_c, 0, 85, 38
1, 18337, Note_off_c, 0, 72, 64
1, 18337, Note_on_c, 0, 73, 22
1, 18337, Note_off_c, 0, 75, 64
1, 18337, Note_on_c, 0, 76, 31
1, 18337, Note_off_c, 0, 77, 64
1, 18338, Note_on_c, 0, 33, 94
1, 18338, Note_off_c, 0, 34, 64
1, 18338, Note_on_c, 0, 66, 40
1, 18339, Note_on_c, 0, 32, 96
1, 18339, Note_off_c, 0, 33, 64
1, 18339, Note_on_c, 0, 61, 15
1, 18341, Note_on_c, 0, 31, 95
1, 18341, Note_off_c, 0, 32, 64
1, 18341, Note_on_c, 0, 81, 25
1, 18341, Note_off_c, 0, 82, 64
1, 18341, Note_on_c, 0, 83, 28
1, 18342, Note_on_c, 0, 30, 91
1, 18342, Note_off_c, 0, 31, 64
1, 18345, Note_off_c, 0, 30, 64
1, 18345, Note_off_c, 0, 61, 64
1, 18345, Note_off_c, 0, 87, 64
1, 18346, Note_off_c, 0, 54, 64
1, 18346, Note_on_c, 0, 55, 48
1, 18346, Note_off_c, 0, 73, 64
1, 18346, Note_on_c, 0, 74, 25
1, 18346, Note_off_c, 0, 78, 64
1, 18346, Note_off_c, 0, 81, 64
1, 18346, Note_on_c, 0, 82, 38
1, 18346, Note_off_c, 0, 83, 64
1, 18347, Note_on_c, 0, 29, 69
1, 18347, Note_on_c, 0, 61, 39
1, 18347, Note_on_c, 0, 77, 28
1, 18347, Note_on_c, 0, 81, 24
1, 18348, Note_off_c, 0, 29, 64
1, 18348, Note_on_c, 0, 30, 77
1, 18348, Note_off_c, 0, 55, 64
1, 18348, Note_off_c, 0, 76, 64
1, 18349, Note_on_c, 0, 87, 26
1, 18350, Note_on_c, 0, 29, 76
1, 18350, Note_off_c, 0, 30, 64
1, 18350, Note_off_c, 0, 68, 64
1, 18350, Note_on_c, 0, 76, 27
1, 18350, Note_off_c, 0, 81, 64
1, 18351, Note_off_c, 0, 29, 64
1, 18351, Note_on_c, 0, 30, 74
1, 18351, Note_off_c, 0, 77, 64
1, 18351, Note_on_c, 0, 92, 12
1, 18352, Note_off_c, 0, 74, 64
1, 18353, Note_on_c, 0, 29, 72
1, 18353, Note_off_c, 0, 30, 64
1, 18353, Note_on_c, 0, 54, 42
1, 18354, Note_on_c, 0, 74, 31
1, 18355, Note_off_c, 0, 29, 64
1, 18355, Note_on_c, 0, 30, 67
1, 18355, Note_on_c, 0, 68, 28
1, 18355, Note_on_c, 0, 71, 23
1, 18355, Note_off_c, 0, 76, 64
1, 18356, Note_off_c, 0, 30, 64
1, 18356, Note_off_c, 0, 54, 64
1, 18356, Note_on_c, 0, 55, 49
1, 18356, Note_off_c, 0, 61, 64
1, 18356, Note_off_c, 0, 66, 64
1, 18357, Note_on_c, 0, 42, 70
1, 18357, Note_on_c, 0, 64, 31
1, 18357, Note_on_c, 0, 77, 30
1, 18357, Note_on_c, 0, 91, 25
1, 18358, Note_on_c, 0, 31, 74
1, 18358, Note_on_c, 0, 41, 67
1, 18358, Note_off_c, 0, 42, 64
1, 18358, Note_off_c, 0, 55, 64
1, 18359, Note_on_c, 0, 29, 81
1, 18359, Note_off_c, 0, 31, 64
1, 18359, Note_off_c, 0, 41, 64
1, 18359, Note_off_c, 0, 68, 64
1, 18359, Note_off_c, 0, 71, 64
1, 18359, Note_off_c, 0, 87, 64
1, 18360, Note_on_c, 0, 49, 59
1, 18360, Note_off_c, 0, 64, 64
1, 18360, Note_on_c, 0, 78, 20
1, 18360, Note_off_c, 0, 92, 64
1, 18361, Note_off_c, 0, 29, 64
1, 18361, Note_on_c, 0, 30, 77
1, 18361, Note_on_c, 0, 72, 41
1, 18361, Note_on_c, 0, 87, 27
1, 18362, Note_off_c, 0, 30, 64
1, 18362, Note_on_c, 0, 34, 71
1, 18362, Note_off_c, 0, 49, 64
1, 18362, Note_on_c, 0, 54, 44
1, 18362, Note_on_c, 0, 67, 30
1, 18362, Note_off_c, 0, 74, 64
1, 18362, Note_on_c, 0, 75, 36
1, 18363, Note_off_c, 0, 34, 64
1, 18363, Note_off_c, 0, 77, 64
1, 18363, Note_on_c, 0, 79, 43
1, 18363, Note_off_c, 0, 85, 64
1, 18364, Note_off_c, 0, 54, 64
1, 18364, Note_on_c, 0, 70, 43
1, 18364, Note_off_c, 0, 75, 64
1, 18364, Note_on_c, 0, 76, 40
1, 18364, Note_off_c, 0, 78, 64
1, 18364, Note_on_c, 0, 81, 39
1, 18364, Note_on_c, 0, 86, 37
1, 18364, Note_on_c, 0, 90, 25
1, 18364, Note_on_c, 0, 92, 25
1, 18365, Note_off_c, 0, 67, 64
1, 18365, Note_on_c, 0, 68, 39
1, 18365, Note_off_c, 0, 72, 64
1, 18365, Note_off_c, 0, 82, 64
1, 18365, Note_on_c, 0, 84, 28
1, 18365, Note_on_c, 0, 85, 52
1, 18365, Note_off_c, 0, 87, 64
1, 18366, Note_on_c, 0, 51, 76
1, 18367, Note_on_c, 0, 46, 86
1, 18367, Note_off_c, 0, 51, 64
1, 18367, Note_on_c, 0, 66, 49
1, 18367, Note_off_c, 0, 68, 64
1, 18367, Note_on_c, 0, 73, 14
1, 18367, Note_off_c, 0, 76, 64
1, 18367, Note_on_c, 0, 78, 50
1, 18367, Note_off_c, 0, 79, 64
1, 18367, Note_off_c, 0, 81, 64
1, 18367, Note_off_c, 0, 90, 64
1, 18368, Note_on_c, 0, 44, 93
1, 18368, Note_off_c, 0, 46, 64
1, 18368, Note_off_c, 0, 84, 64
1, 18368, Note_off_c, 0, 91, 64
1, 18369, Note_on_c, 0, 41, 98
1, 18369, Note_off_c, 0, 44, 64
1, 18369, Note_on_c, 0, 80, 40
1, 18369, Note_on_c, 0, 84, 20
1, 18369, Note_off_c, 0, 92, 64
1, 18370, Note_on_c, 0, 39, 95
1, 18370, Note_off_c, 0, 41, 64
1, 18371, Note_on_c, 0, 37, 97
1, 18371, Note_off_c, 0, 39, 64
1, 18371, Note_on_c, 0, 61, 26
1, 18372, Note_on_c, 0, 36, 96
1, 18372, Note_off_c, 0, 37, 64
1, 18372, Note_off_c, 0, 73, 64
1, 18372, Note_on_c, 0, 76, 18
1, 18373, Note_on_c, 0, 35, 95
1, 18373, Note_off_c, 0, 36, 64
1, 18374, Note_on_c, 0, 34, 94
1, 18374, Note_off_c, 0, 35, 64
1, 18374, Note_off_c, 0, 84, 64
1, 18374, Note_off_c, 0, 86, 64
1, 18375, Note_on_c, 0, 33, 94
1, 18375, Note_off_c, 0, 34, 64
1, 18375, Note_off_c, 0, 76, 64
1, 18375, Note_on_c, 0, 83, 31
1, 18377, Note_on_c, 0, 32, 95
1, 18377, Note_off_c, 0, 33, 64
1, 18377, Note_on_c, 0, 48, 31
1, 18377, Note_off_c, 0, 83, 64
1, 18377, Note_on_c, 0, 84, 36
1, 18377, Note_on_c, 0, 89, 33
1, 18377, Note_on_c, 0, 91, 10
1, 18378, Note_on_c, 0, 31, 95
1, 18378, Note_off_c, 0, 32, 64
1, 18379, Note_on_c, 0, 86, 31
1, 18380, Note_on_c, 0, 30, 87
1, 18380, Note_off_c, 0, 31, 64
1, 18380, Note_on_c, 0, 76, 21
1, 18380, Note_off_c, 0, 91, 64
1, 18380, Note_on_c, 0, 93, 13
1, 18381, Note_off_c, 0, 48, 64
1, 18381, Note_on_c, 0, 83, 31
1, 18381, Note_off_c, 0, 84, 64
1, 18382, Note_on_c, 0, 84, 27
1, 18382, Note_on_c, 0, 91, 21
1, 18383, Note_off_c, 0, 30, 64
1, 18383, Note_off_c, 0, 61, 64
1, 18383, Note_on_c, 0, 74, 41
1, 18383, Note_on_c, 0, 81, 21
1, 18384, Note_on_c, 0, 37, 66
1, 18385, Note_on_c, 0, 30, 79
1, 18385, Note_off_c, 0, 37, 64
1, 18385, Note_on_c, 0, 68, 38
1, 18385, Note_off_c, 0, 70, 64
1, 18385, Note_off_c, 0, 76, 64
1, 18385, Note_off_c, 0, 84, 64
1, 18385, Note_on_c, 0, 88, 27
1, 18386, Note_on_c, 0, 72, 14
1, 18386, Note_on_c, 0, 77, 45
1, 18386, Note_off_c, 0, 78, 64
1, 18386, Note_off_c, 0, 80, 64
1, 18386, Note_on_c, 0, 82, 24
1, 18386, Note_off_c, 0, 83, 64
1, 18386, Note_on_c, 0, 84, 43
1, 18386, Note_off_c, 0, 91, 64
1, 18386, Note_on_c, 0, 92, 26
1, 18387, Note_on_c, 0, 29, 80
1, 18387, Note_off_c, 0, 30, 64
1, 18387, Note_off_c, 0, 66, 64
1, 18387, Note_off_c, 0, 81, 64
1, 18387, Note_off_c, 0, 85, 64
1, 18388, Note_on_c, 0, 64, 40
1, 18388, Note_on_c, 0, 85, 48
1, 18388, Note_off_c, 0, 89, 64
1, 18388, Note_off_c, 0, 93, 64
1, 18389, Note_off_c, 0, 29, 64
1, 18389, Note_on_c, 0, 30, 74
1, 18389, Note_on_c, 0, 49, 46
1, 18389, Note_off_c, 0, 72, 64
1, 18389, Note_on_c, 0, 76, 45
1, 18389, Note_off_c, 0, 77, 64
1, 18389, Note_on_c, 0, 83, 37
1, 18389, Note_off_c, 0, 84, 64
1, 18389, Note_off_c, 0, 86, 64
1, 18389, Note_on_c, 0, 91, 33
1, 18390, Note_on_c, 0, 75, 50
1, 18390, Note_on_c, 0, 78, 33
1, 18390, Note_off_c, 0, 92, 64
1, 18391, Note_on_c, 0, 29, 72
1, 18391, Note_off_c, 0, 30, 64
1, 18391, Note_on_c, 0, 67, 33
1, 18391, Note_off_c, 0, 68, 64
1, 18391, Note_on_c, 0, 70, 18
1, 18391, Note_off_c, 0, 74, 64
1, 18391, Note_off_c, 0, 76, 64
1, 18391, Note_off_c, 0, 82, 64
1, 18392, Note_off_c, 0, 49, 64
1, 18392, Note_on_c, 0, 63, 41
1, 18392, Note_off_c, 0, 64, 64
1, 18392, Note_on_c, 0, 77, 27
1, 18393, Note_off_c, 0, 29, 64
1, 18393, Note_off_c, 0, 78, 64
1, 18394, Note_off_c, 0, 70, 64
1, 18394, Note_on_c, 0, 78, 39
1, 18394, Note_on_c, 0, 81, 37
1, 18394, Note_on_c, 0, 84, 17
1, 18395, Note_on_c, 0, 36, 71
1, 18395, Note_on_c, 0, 54, 51
1, 18395, Note_off_c, 0, 63, 64
1, 18395, Note_off_c, 0, 67, 64
1, 18395, Note_on_c, 0, 74, 39
1, 18395, Note_off_c, 0, 75, 64
1, 18395, Note_off_c, 0, 77, 64
1, 18396, Note_on_c, 0, 30, 79
1, 18396, Note_off_c, 0, 36, 64
1, 18396, Note_on_c, 0, 71, 35
1, 18396, Note_off_c, 0, 83, 64
1, 18397, Note_on_c, 0, 29, 81
1, 18397, Note_off_c, 0, 30, 64
1, 18397, Note_off_c, 0, 54, 64
1, 18397, Note_on_c, 0, 73, 46
1, 18397, Note_off_c, 0, 74, 64
1, 18397, Note_on_c, 0, 82, 28
1, 18397, Note_on_c, 0, 89, 21
1, 18398, Note_on_c, 0, 76, 19
1, 18398, Note_on_c, 0, 80, 32
1, 18398, Note_off_c, 0, 81, 64
1, 18399, Note_off_c, 0, 29, 64
1, 18399, Note_on_c, 0, 30, 75
1, 18399, Note_on_c, 0, 48, 55
1, 18399, Note_on_c, 0, 54, 45
1, 18399, Note_off_c, 0, 71, 64
1, 18399, Note_off_c, 0, 84, 64
1, 18399, Note_off_c, 0, 91, 64
1, 18400, Note_off_c, 0, 30, 64
1, 18400, Note_on_c, 0, 33, 65
1, 18400, Note_on_c, 0, 67, 34
1, 18400, Note_on_c, 0, 84, 41
1, 18400, Note_on_c, 0, 86, 32
1, 18400, Note_off_c, 0, 89, 64
1, 18401, Note_off_c, 0, 33, 64
1, 18401, Note_on_c, 0, 69, 44
1, 18401, Note_off_c, 0, 76, 64
1, 18401, Note_on_c, 0, 79, 40
1, 18401, Note_on_c, 0, 89, 36
1, 18401, Note_on_c, 0, 95, 26
1, 18402, Note_off_c, 0, 54, 64
1, 18402, Note_on_c, 0, 66, 54
1, 18402, Note_off_c, 0, 67, 64
1, 18402, Note_on_c, 0, 76, 40
1, 18402, Note_off_c, 0, 80, 64
1, 18402, Note_off_c, 0, 82, 64
1, 18402, Note_off_c, 0, 86, 64
1, 18402, Note_on_c, 0, 87, 52
1, 18402, Note_off_c, 0, 88, 64
1, 18402, Note_on_c, 0, 98, 17
1, 18403, Note_off_c, 0, 48, 64
1, 18403, Note_on_c, 0, 53, 69
1, 18403, Note_on_c, 0, 83, 32
1, 18403, Note_off_c, 0, 84, 64
1, 18403, Note_on_c, 0, 86, 33
1, 18404, Note_on_c, 0, 48, 83
1, 18404, Note_off_c, 0, 53, 64
1, 18404, Note_off_c, 0, 69, 64
1, 18404, Note_off_c, 0, 79, 64
1, 18405, Note_on_c, 0, 45, 93
1, 18405, Note_off_c, 0, 48, 64
1, 18405, Note_off_c, 0, 76, 64
1, 18405, Note_on_c, 0, 77, 15
1, 18405, Note_on_c, 0, 88, 31
1, 18405, Note_off_c, 0, 95, 64
1, 18406, Note_on_c, 0, 42, 98
1, 18406, Note_off_c, 0, 45, 64
1, 18406, Note_off_c, 0, 89, 64
1, 18407, Note_on_c, 0, 40, 97
1, 18407, Note_off_c, 0, 42, 64
1, 18407, Note_off_c, 0, 73, 64
1, 18407, Note_off_c, 0, 88, 64
1, 18408, Note_on_c, 0, 38, 97
1, 18408, Note_off_c, 0, 40, 64
1, 18408, Note_on_c, 0, 76, 21
1, 18408, Note_off_c, 0, 77, 64
1, 18408, Note_on_c, 0, 81, 24
1, 18409, Note_on_c, 0, 37, 97
1, 18409, Note_off_c, 0, 38, 64
1, 18409, Note_off_c, 0, 98, 64
1, 18410, Note_on_c, 0, 35, 96
1, 18410, Note_off_c, 0, 37, 64
1, 18410, Note_on_c, 0, 75, 21
1, 18410, Note_off_c, 0, 83, 64
1, 18410, Note_off_c, 0, 86, 64
1, 18411, Note_on_c, 0, 34, 95
1, 18411, Note_off_c, 0, 35, 64
1, 18411, Note_on_c, 0, 74, 29
1, 18411, Note_off_c, 0, 76, 64
1, 18411, Note_on_c, 0, 83, 32
1, 18413, Note_on_c, 0, 33, 94
1, 18413, Note_off_c, 0, 34, 64
1, 18413, Note_off_c, 0, 75, 64
1, 18413, Note_off_c, 0, 78, 64
1, 18413, Note_on_c, 0, 79, 17
1, 18413, Note_on_c, 0, 84, 27
1, 18414, Note_on_c, 0, 32, 95
1, 18414, Note_off_c, 0, 33, 64
1, 18414, Note_on_c, 0, 65, 29
1, 18414, Note_off_c, 0, 66, 64
1, 18415, Note_on_c, 0, 31, 96
1, 18415, Note_off_c, 0, 32, 64
1, 18415, Note_on_c, 0, 72, 10
1, 18415, Note_off_c, 0, 81, 64
1, 18415, Note_off_c, 0, 85, 64
1, 18416, Note_on_c, 0, 78, 30
1, 18416, Note_off_c, 0, 79, 64
1, 18416, Note_off_c, 0, 84, 64
1, 18417, Note_on_c, 0, 30, 91
1, 18417, Note_off_c, 0, 31, 64
1, 18417, Note_on_c, 0, 64, 26
1, 18417, Note_off_c, 0, 65, 64
1, 18417, Note_on_c, 0, 66, 37
1, 18417, Note_off_c, 0, 74, 64
1, 18417, Note_on_c, 0, 75, 30
1, 18417, Note_on_c, 0, 81, 24
1, 18418, Note_on_c, 0, 91, 14
1, 18419, Note_off_c, 0, 87, 64
1, 18420, Note_off_c, 0, 30, 64
1, 18420, Note_off_c, 0, 64, 64
1, 18420, Note_on_c, 0, 86, 23
1, 18421, Note_off_c, 0, 72, 64
1, 18421, Note_off_c, 0, 81, 64
1, 18421, Note_on_c, 0, 85, 34
1, 18421, Note_on_c, 0, 89, 13
1, 18422, Note_on_c, 0, 31, 68
1, 18422, Note_on_c, 0, 54, 48
1, 18422, Note_on_c, 0, 70, 14
1, 18422, Note_on_c, 0, 72, 23
1, 18422, Note_on_c, 0, 81, 15
1, 18422, Note_on_c, 0, 98, 23
1, 18422, Note_on_c, 0, 100, 12
1, 18423, Note_on_c, 0, 30, 77
1, 18423, Note_off_c, 0, 31, 64
1, 18423, Note_on_c, 0, 74, 19
1, 18423, Note_off_c, 0, 75, 64
1, 18423, Note_on_c, 0, 80, 22
1, 18423, Note_off_c, 0, 83, 64
1, 18424, Note_on_c, 0, 29, 79
1, 18424, Note_off_c, 0, 30, 64
1, 18425, Note_off_c, 0, 29, 64
1, 18425, Note_on_c, 0, 30, 77
1, 18425, Note_off_c, 0, 54, 64
1, 18425, Note_off_c, 0, 70, 64
1, 18425, Note_off_c, 0, 72, 64
1, 18425, Note_off_c, 0, 81, 64
1, 18425, Note_off_c, 0, 89, 64
1, 18425, Note_off_c, 0, 98, 64
1, 18425, Note_off_c, 0, 100, 64
1, 18426, Note_off_c, 0, 66, 64
1, 18426, Note_off_c, 0, 74, 64
1, 18426, Note_on_c, 0, 88, 19
1, 18427, Note_on_c, 0, 66, 55
1, 18427, Note_on_c, 0, 76, 26
1, 18427, Note_on_c, 0, 90, 30
1, 18428, Note_on_c, 0, 29, 72
1, 18428, Note_off_c, 0, 30, 64
1, 18428, Note_off_c, 0, 78, 64
1, 18428, Note_on_c, 0, 82, 17
1, 18428, Note_off_c, 0, 86, 64
1, 18429, Note_off_c, 0, 91, 64
1, 18430, Note_off_c, 0, 29, 64
1, 18430, Note_on_c, 0, 30, 66
1, 18430, Note_on_c, 0, 54, 30
1, 18431, Note_on_c, 0, 83, 27
1, 18431, Note_on_c, 0, 87, 31
1, 18431, Note_off_c, 0, 88, 64
1, 18432, Note_off_c, 0, 30, 64
1, 18432, Note_on_c, 0, 42, 69
1, 18432, Note_off_c, 0, 54, 64
1, 18433, Note_on_c, 0, 30, 75
1, 18433, Note_off_c, 0, 42, 64
1, 18433, Note_on_c, 0, 64, 30
1, 18434, Note_on_c, 0, 29, 81
1, 18434, Note_off_c, 0, 30, 64
1, 18434, Note_off_c, 0, 83, 64
1, 18435, Note_on_c, 0, 49, 58
1, 18435, Note_off_c, 0, 64, 64
1, 18436, Note_off_c, 0, 29, 64
1, 18436, Note_on_c, 0, 30, 77
1, 18436, Note_off_c, 0, 76, 64
1, 18436, Note_on_c, 0, 89, 32
1, 18437, Note_off_c, 0, 30, 64
1, 18437, Note_on_c, 0, 34, 70
1, 18437, Note_off_c, 0, 49, 64
1, 18437, Note_on_c, 0, 54, 40
1, 18437, Note_off_c, 0, 80, 64
1, 18438, Note_off_c, 0, 34, 64
1, 18438, Note_on_c, 0, 63, 36
1, 18438, Note_on_c, 0, 73, 33
1, 18438, Note_on_c, 0, 81, 33
1, 18438, Note_on_c, 0, 83, 40
1, 18438, Note_on_c, 0, 86, 34
1, 18438, Note_off_c, 0, 87, 64
1, 18438, Note_on_c, 0, 91, 31
1, 18438, Note_on_c, 0, 94, 26
1, 18439, Note_off_c, 0, 54, 64
1, 18439, Note_off_c, 0, 82, 64
1, 18439, Note_on_c, 0, 84, 30
1, 18439, Note_off_c, 0, 85, 64
1, 18440, Note_off_c, 0, 63, 64
1, 18440, Note_on_c, 0, 72, 40
1, 18440, Note_off_c, 0, 73, 64
1, 18440, Note_on_c, 0, 77, 31
1, 18440, Note_on_c, 0, 85, 28
1, 18441, Note_on_c, 0, 50, 77
1, 18441, Note_on_c, 0, 80, 19
1, 18441, Note_off_c, 0, 89, 64
1, 18441, Note_off_c, 0, 90, 64
1, 18441, Note_off_c, 0, 91, 64
1, 18441, Note_off_c, 0, 94, 64
1, 18442, Note_on_c, 0, 46, 89
1, 18442, Note_off_c, 0, 50, 64
1, 18442, Note_off_c, 0, 72, 64
1, 18442, Note_on_c, 0, 74, 25
1, 18442, Note_off_c, 0, 81, 64
1, 18442, Note_off_c, 0, 86, 64
1, 18443, Note_on_c, 0, 43, 94
1, 18443, Note_off_c, 0, 46, 64
1, 18443, Note_on_c, 0, 65, 27
1, 18443, Note_off_c, 0, 66, 64
1, 18443, Note_off_c, 0, 83, 64
1, 18444, Note_on_c, 0, 41, 99
1, 18444, Note_off_c, 0, 43, 64
1, 18444, Note_off_c, 0, 77, 64
1, 18445, Note_on_c, 0, 39, 96
1, 18445, Note_off_c, 0, 41, 64
1, 18445, Note_on_c, 0, 78, 24
1, 18445, Note_on_c, 0, 83, 33
1, 18445, Note_off_c, 0, 84, 64
1, 18446, Note_on_c, 0, 37, 97
1, 18446, Note_off_c, 0, 39, 64
1, 18446, Note_off_c, 0, 65, 64
1, 18446, Note_off_c, 0, 74, 64
1, 18446, Note_on_c, 0, 75, 20
1, 18446, Note_off_c, 0, 85, 64
1, 18447, Note_on_c, 0, 36, 96
1, 18447, Note_off_c, 0, 37, 64
1, 18447, Note_on_c, 0, 82, 30
1, 18447, Note_off_c, 0, 83, 64
1, 18448, Note_on_c, 0, 35, 96
1, 18448, Note_off_c, 0, 36, 64
1, 18448, Note_on_c, 0, 63, 18
1, 18448, Note_off_c, 0, 80, 64
1, 18449, Note_on_c, 0, 34, 96
1, 18449, Note_off_c, 0, 35, 64
1, 18449, Note_off_c, 0, 82, 64
1, 18449, Note_on_c, 0, 85, 31
1, 18449, Note_on_c, 0, 87, 24
1, 18449, Note_on_c, 0, 88, 12
1, 18450, Note_on_c, 0, 33, 96
1, 18450, Note_off_c, 0, 34, 64
1, 18450, Note_off_c, 0, 75, 64
1, 18450, Note_on_c, 0, 80, 27
1, 18451, Note_on_c, 0, 62, 16
1, 18451, Note_off_c, 0, 63, 64
1, 18452, Note_on_c, 0, 32, 96
1, 18452, Note_off_c, 0, 33, 64
1, 18452, Note_on_c, 0, 73, 16
1, 18453, Note_on_c, 0, 31, 96
1, 18453, Note_off_c, 0, 32, 64
1, 18453, Note_on_c, 0, 66, 15
1, 18453, Note_off_c, 0, 88, 64
1, 18454, Note_off_c, 0, 62, 64
1, 18454, Note_off_c, 0, 87, 64
1, 18455, Note_on_c, 0, 30, 87
1, 18455, Note_off_c, 0, 31, 64
1, 18456, Note_on_c, 0, 84, 13
1, 18457, Note_off_c, 0, 30, 64
1, 18457, Note_off_c, 0, 73, 64
1, 18458, Note_on_c, 0, 64, 29
1, 18458, Note_off_c, 0, 66, 64
1, 18458, Note_on_c, 0, 68, 21
1, 18458, Note_on_c, 0, 82, 21
1, 18458, Note_on_c, 0, 88, 34
1, 18459, Note_on_c, 0, 37, 65
1, 18459, Note_on_c, 0, 61, 23
1, 18459, Note_on_c, 0, 71, 21
1, 18459, Note_on_c, 0, 77, 19
1, 18459, Note_off_c, 0, 84, 64
1, 18459, Note_on_c, 0, 87, 29
1, 18460, Note_on_c, 0, 30, 77
1, 18460, Note_off_c, 0, 37, 64
1, 18460, Note_on_c, 0, 81, 18
1, 18461, Note_off_c, 0, 80, 64
1, 18461, Note_off_c, 0, 82, 64
1, 18462, Note_on_c, 0, 29, 78
1, 18462, Note_off_c, 0, 30, 64
1, 18462, Note_on_c, 0, 63, 17
1, 18462, Note_off_c, 0, 64, 64
1, 18462, Note_off_c, 0, 68, 64
1, 18463, Note_off_c, 0, 29, 64
1, 18463, Note_on_c, 0, 30, 75
1, 18463, Note_off_c, 0, 78, 64
1, 18463, Note_off_c, 0, 81, 64
1, 18463, Note_on_c, 0, 90, 15
1, 18464, Note_off_c, 0, 61, 64
1, 18464, Note_off_c, 0, 71, 64
1, 18464, Note_off_c, 0, 77, 64
1, 18465, Note_on_c, 0, 29, 73
1, 18465, Note_off_c, 0, 30, 64
1, 18465, Note_off_c, 0, 63, 64
1, 18465, Note_off_c, 0, 88, 64
1, 18467, Note_off_c, 0, 29, 64
1, 18467, Note_on_c, 0, 30, 70
1, 18467, Note_on_c, 0, 48, 42
1, 18467, Note_on_c, 0, 83, 20
1, 18467, Note_off_c, 0, 87, 64
1, 18468, Note_on_c, 0, 86, 12
1, 18469, Note_off_c, 0, 30, 64
1, 18469, Note_off_c, 0, 48, 64
1, 18469, Note_on_c, 0, 68, 20
1, 18469, Note_on_c, 0, 78, 24
1, 18469, Note_on_c, 0, 88, 10
1, 18470, Note_on_c, 0, 36, 69
1, 18470, Note_on_c, 0, 61, 28
1, 18470, Note_on_c, 0, 71, 16
1, 18470, Note_on_c, 0, 84, 27
1, 18470, Note_off_c, 0, 85, 64
1, 18470, Note_off_c, 0, 90, 64
1, 18471, Note_on_c, 0, 30, 79
1, 18471, Note_off_c, 0, 36, 64
1, 18471, Note_on_c, 0, 49, 59
1, 18471, Note_on_c, 0, 75, 17
1, 18471, Note_off_c, 0, 83, 64
1, 18471, Note_on_c, 0, 85, 15
1, 18471, Note_off_c, 0, 86, 64
1, 18472, Note_on_c, 0, 29, 81
1, 18472, Note_off_c, 0, 30, 64
1, 18472, Note_on_c, 0, 64, 35
1, 18473, Note_off_c, 0, 49, 64
1, 18473, Note_off_c, 0, 61, 64
1, 18473, Note_on_c, 0, 83, 26
1, 18473, Note_off_c, 0, 84, 64
1, 18473, Note_off_c, 0, 88, 64
1, 18474, Note_off_c, 0, 29, 64
1, 18474, Note_on_c, 0, 30, 74
1, 18474, Note_on_c, 0, 54, 43
1, 18474, Note_off_c, 0, 71, 64
1, 18474, Note_off_c, 0, 85, 64
1, 18475, Note_off_c, 0, 30, 64
1, 18475, Note_on_c, 0, 33, 65
1, 18475, Note_on_c, 0, 49, 39
1, 18475, Note_off_c, 0, 64, 64
1, 18475, Note_off_c, 0, 68, 64
1, 18475, Note_on_c, 0, 74, 38
1, 18475, Note_off_c, 0, 75, 64
1, 18476, Note_off_c, 0, 33, 64
1, 18476, Note_on_c, 0, 79, 35
1, 18476, Note_on_c, 0, 81, 34
1, 18476, Note_on_c, 0, 84, 31
1, 18476, Note_on_c, 0, 85, 38
1, 18476, Note_on_c, 0, 89, 29
1, 18476, Note_on_c, 0, 92, 25
1, 18476, Note_on_c, 0, 98, 20
1, 18476, Note_on_c, 0, 100, 22
1, 18477, Note_off_c, 0, 54, 64
1, 18477, Note_on_c, 0, 70, 46
1, 18477, Note_on_c, 0, 76, 41
1, 18477, Note_on_c, 0, 77, 34
1, 18477, Note_off_c, 0, 78, 64
1, 18477, Note_off_c, 0, 83, 64
1, 18477, Note_on_c, 0, 87, 30
1, 18478, Note_off_c, 0, 49, 64
1, 18478, Note_on_c, 0, 50, 71
1, 18478, Note_on_c, 0, 80, 21
1, 18478, Note_on_c, 0, 83, 17
1, 18478, Note_off_c, 0, 84, 64
1, 18479, Note_on_c, 0, 48, 85
1, 18479, Note_off_c, 0, 50, 64
1, 18479, Note_on_c, 0, 66, 21
1, 18479, Note_off_c, 0, 70, 64
1, 18479, Note_off_c, 0, 77, 64
1, 18479, Note_off_c, 0, 79, 64
1, 18479, Note_off_c, 0, 89, 64
1, 18479, Note_off_c, 0, 92, 64
1, 18479, Note_off_c, 0, 98, 64
1, 18479, Note_off_c, 0, 100, 64
1, 18480, Note_on_c, 0, 45, 94
1, 18480, Note_off_c, 0, 48, 64
1, 18480, Note_off_c, 0, 74, 64
1, 18480, Note_off_c, 0, 76, 64
1, 18480, Note_off_c, 0, 81, 64
1, 18480, Note_off_c, 0, 87, 64
1, 18481, Note_on_c, 0, 42, 99
1, 18481, Note_off_c, 0, 45, 64
1, 18481, Note_off_c, 0, 83, 64
1, 18482, Note_on_c, 0, 40, 98
1, 18482, Note_off_c, 0, 42, 64
1, 18483, Note_on_c, 0, 38, 98
1, 18483, Note_off_c, 0, 40, 64
1, 18484, Note_on_c, 0, 37, 98
1, 18484, Note_off_c, 0, 38, 64
1, 18485, Note_on_c, 0, 35, 96
1, 18485, Note_off_c, 0, 37, 64
1, 18486, Note_on_c, 0, 34, 95
1, 18486, Note_off_c, 0, 35, 64
1, 18487, Note_on_c, 0, 33, 95
1, 18487, Note_off_c, 0, 34, 64
1, 18487, Note_on_c, 0, 87, 16
1, 18488, Note_on_c, 0, 83, 11
1, 18489, Note_on_c, 0, 32, 96
1, 18489, Note_off_c, 0, 33, 64
1, 18489, Note_on_c, 0, 49, 33
1, 18490, Note_on_c, 0, 31, 97
1, 18490, Note_off_c, 0, 32, 64
1, 18491, Note_on_c, 0, 48, 29
1, 18491, Note_off_c, 0, 49, 64
1, 18491, Note_off_c, 0, 83, 64
1, 18492, Note_on_c, 0, 30, 91
1, 18492, Note_off_c, 0, 31, 64
1, 18492, Note_off_c, 0, 80, 64
1, 18493, Note_off_c, 0, 48, 64
1, 18494, Note_off_c, 0, 87, 64
1, 18495, Note_off_c, 0, 30, 64
1, 18495, Note_on_c, 0, 80, 24
1, 18495, Note_on_c, 0, 86, 27
1, 18495, Note_on_c, 0, 88, 21
1, 18496, Note_on_c, 0, 61, 34
1, 18496, Note_off_c, 0, 66, 64
1, 18496, Note_on_c, 0, 82, 20
1, 18496, Note_on_c, 0, 87, 27
1, 18497, Note_on_c, 0, 31, 71
1, 18497, Note_on_c, 0, 64, 37
1, 18498, Note_on_c, 0, 30, 78
1, 18498, Note_off_c, 0, 31, 64
1, 18498, Note_off_c, 0, 86, 64
1, 18498, Note_off_c, 0, 88, 64
1, 18499, Note_on_c, 0, 29, 79
1, 18499, Note_off_c, 0, 30, 64
1, 18499, Note_off_c, 0, 64, 64
1, 18499, Note_on_c, 0, 84, 24
1, 18499, Note_off_c, 0, 87, 64
1, 18500, Note_off_c, 0, 80, 64
1, 18501, Note_off_c, 0, 29, 64
1, 18501, Note_on_c, 0, 30, 74
1, 18501, Note_on_c, 0, 64, 21
1, 18501, Note_on_c, 0, 78, 36
1, 18501, Note_off_c, 0, 82, 64
1, 18501, Note_off_c, 0, 85, 64
1, 18502, Note_on_c, 0, 80, 17
1, 18502, Note_on_c, 0, 83, 30
1, 18502, Note_off_c, 0, 84, 64
1, 18503, Note_on_c, 0, 29, 74
1, 18503, Note_off_c, 0, 30, 64
1, 18503, Note_on_c, 0, 69, 22
1, 18504, Note_off_c, 0, 61, 64
1, 18504, Note_off_c, 0, 64, 64
1, 18504, Note_off_c, 0, 83, 64
1, 18505, Note_off_c, 0, 29, 64
1, 18505, Note_on_c, 0, 30, 67
1, 18506, Note_off_c, 0, 30, 64
1, 18506, Note_on_c, 0, 66, 23
1, 18506, Note_on_c, 0, 84, 10
1, 18506, Note_on_c, 0, 85, 38
1, 18506, Note_on_c, 0, 87, 13
1, 18506, Note_on_c, 0, 88, 22
1, 18507, Note_on_c, 0, 41, 71
1, 18507, Note_on_c, 0, 64, 26
1, 18507, Note_on_c, 0, 71, 13
1, 18507, Note_off_c, 0, 80, 64
1, 18508, Note_on_c, 0, 30, 77
1, 18508, Note_off_c, 0, 41, 64
1, 18508, Note_on_c, 0, 49, 62
1, 18508, Note_off_c, 0, 69, 64
1, 18509, Note_on_c, 0, 29, 81
1, 18509, Note_off_c, 0, 30, 64
1, 18510, Note_on_c, 0, 63, 25
1, 18510, Note_off_c, 0, 64, 64
1, 18510, Note_off_c, 0, 66, 64
1, 18510, Note_off_c, 0, 71, 64
1, 18510, Note_on_c, 0, 80, 20
1, 18510, Note_off_c, 0, 84, 64
1, 18510, Note_off_c, 0, 88, 64
1, 18511, Note_off_c, 0, 29, 64
1, 18511, Note_on_c, 0, 30, 76
1, 18511, Note_on_c, 0, 48, 58
1, 18511, Note_off_c, 0, 49, 64
1, 18511, Note_on_c, 0, 69, 17
1, 18511, Note_off_c, 0, 87, 64
1, 18512, Note_off_c, 0, 30, 64
1, 18512, Note_on_c, 0, 34, 69
1, 18512, Note_on_c, 0, 54, 41
1, 18513, Note_off_c, 0, 34, 64
1, 18513, Note_off_c, 0, 48, 64
1, 18513, Note_off_c, 0, 63, 64
1, 18513, Note_on_c, 0, 76, 35
1, 18513, Note_on_c, 0, 79, 33
1, 18513, Note_off_c, 0, 80, 64
1, 18513, Note_on_c, 0, 81, 33
1, 18513, Note_on_c, 0, 84, 39
1, 18513, Note_on_c, 0, 92, 28
1, 18514, Note_off_c, 0, 54, 64
1, 18514, Note_off_c, 0, 69, 64
1, 18514, Note_on_c, 0, 89, 27
1, 18515, Note_on_c, 0, 62, 52
1, 18515, Note_on_c, 0, 70, 41
1, 18515, Note_on_c, 0, 72, 39
1, 18515, Note_on_c, 0, 83, 36
1, 18515, Note_off_c, 0, 84, 64
1, 18516, Note_on_c, 0, 49, 78
1, 18516, Note_off_c, 0, 79, 64
1, 18516, Note_on_c, 0, 87, 21
1, 18516, Note_off_c, 0, 92, 64
1, 18517, Note_on_c, 0, 45, 90
1, 18517, Note_off_c, 0, 49, 64
1, 18517, Note_off_c, 0, 62, 64
1, 18517, Note_off_c, 0, 70, 64
1, 18517, Note_off_c, 0, 72, 64
1, 18517, Note_off_c, 0, 76, 64
1, 18517, Note_off_c, 0, 78, 64
1, 18517, Note_off_c, 0, 89, 64
1, 18518, Note_on_c, 0, 42, 96
1, 18518, Note_off_c, 0, 45, 64
1, 18519, Note_on_c, 0, 41, 100
1, 18519, Note_off_c, 0, 42, 64
1, 18519, Note_off_c, 0, 81, 64
1, 18520, Note_on_c, 0, 39, 97
1, 18520, Note_off_c, 0, 41, 64
1, 18521, Note_on_c, 0, 37, 98
1, 18521, Note_off_c, 0, 39, 64
1, 18522, Note_on_c, 0, 36, 96
1, 18522, Note_off_c, 0, 37, 64
1, 18522, Note_off_c, 0, 83, 64
1, 18523, Note_on_c, 0, 35, 96
1, 18523, Note_off_c, 0, 36, 64
1, 18524, Note_on_c, 0, 34, 95
1, 18524, Note_off_c, 0, 35, 64
1, 18525, Note_on_c, 0, 33, 95
1, 18525, Note_off_c, 0, 34, 64
1, 18525, Note_off_c, 0, 85, 64
1, 18525, Note_off_c, 0, 87, 64
1, 18526, Note_on_c, 0, 32, 96
1, 18526, Note_off_c, 0, 33, 64
1, 18528, Note_on_c, 0, 31, 96
1, 18528, Note_off_c, 0, 32, 64
1, 18529, Note_on_c, 0, 83, 22
1, 18530, Note_on_c, 0, 30, 87
1, 18530, Note_off_c, 0, 31, 64
1, 18533, Note_off_c, 0, 30, 64
1, 18533, Note_on_c, 0, 68, 41
1, 18533, Note_on_c, 0, 77, 40
1, 18533, Note_on_c, 0, 81, 25
1, 18533, Note_on_c, 0, 84, 17
1, 18533, Note_on_c, 0, 86, 17
1, 18534, Note_on_c, 0, 37, 69
1, 18534, Note_on_c, 0, 61, 26
1, 18534, Note_on_c, 0, 64, 28
1, 18534, Note_on_c, 0, 74, 25
1, 18534, Note_on_c, 0, 79, 39
1, 18534, Note_off_c, 0, 83, 64
1, 18534, Note_on_c, 0, 85, 28
1, 18535, Note_on_c, 0, 30, 76
1, 18535, Note_off_c, 0, 37, 64
1, 18535, Note_on_c, 0, 54, 50
1, 18535, Note_on_c, 0, 83, 13
1, 18536, Note_on_c, 0, 29, 80
1, 18536, Note_off_c, 0, 30, 64
1, 18536, Note_on_c, 0, 70, 34
1, 18536, Note_on_c, 0, 78, 17
1, 18536, Note_off_c, 0, 84, 64
1, 18537, Note_on_c, 0, 49, 55
1, 18537, Note_off_c, 0, 54, 64
1, 18537, Note_off_c, 0, 68, 64
1, 18537, Note_off_c, 0, 77, 64
1, 18537, Note_off_c, 0, 79, 64
1, 18537, Note_off_c, 0, 81, 64
1, 18537, Note_off_c, 0, 86, 64
1, 18538, Note_off_c, 0, 29, 64
1, 18538, Note_on_c, 0, 30, 77
1, 18538, Note_off_c, 0, 64, 64
1, 18538, Note_off_c, 0, 70, 64
1, 18538, Note_off_c, 0, 74, 64
1, 18538, Note_off_c, 0, 83, 64
1, 18539, Note_off_c, 0, 61, 64
1, 18540, Note_on_c, 0, 29, 74
1, 18540, Note_off_c, 0, 30, 64
1, 18540, Note_off_c, 0, 49, 64
1, 18540, Note_off_c, 0, 78, 64
1, 18541, Note_on_c, 0, 78, 18
1, 18542, Note_on_c, 0, 66, 28
1, 18542, Note_on_c, 0, 70, 26
1, 18543, Note_off_c, 0, 29, 64
1, 18543, Note_on_c, 0, 76, 22
1, 18543, Note_on_c, 0, 79, 13
1, 18543, Note_on_c, 0, 80, 18
1, 18544, Note_on_c, 0, 43, 68
1, 18544, Note_off_c, 0, 78, 64
1, 18544, Note_on_c, 0, 83, 22
1, 18545, Note_on_c, 0, 33, 72
1, 18545, Note_off_c, 0, 43, 64
1, 18545, Note_on_c, 0, 68, 21
1, 18545, Note_on_c, 0, 89, 9
1, 18546, Note_on_c, 0, 30, 81
1, 18546, Note_off_c, 0, 33, 64
1, 18546, Note_off_c, 0, 66, 64
1, 18546, Note_off_c, 0, 79, 64
1, 18547, Note_on_c, 0, 29, 81
1, 18547, Note_off_c, 0, 30, 64
1, 18547, Note_on_c, 0, 61, 25
1, 18547, Note_off_c, 0, 70, 64
1, 18547, Note_on_c, 0, 71, 18
1, 18547, Note_off_c, 0, 80, 64
1, 18547, Note_off_c, 0, 83, 64
1, 18547, Note_on_c, 0, 84, 11
1, 18548, Note_off_c, 0, 29, 64
1, 18548, Note_on_c, 0, 30, 79
1, 18548, Note_off_c, 0, 76, 64
1, 18548, Note_off_c, 0, 89, 64
1, 18549, Note_off_c, 0, 30, 64
1, 18549, Note_on_c, 0, 33, 73
1, 18549, Note_on_c, 0, 54, 45
1, 18549, Note_off_c, 0, 68, 64
1, 18550, Note_off_c, 0, 61, 64
1, 18550, Note_off_c, 0, 71, 64
1, 18550, Note_off_c, 0, 84, 64
1, 18551, Note_on_c, 0, 59, 52
1, 18551, Note_on_c, 0, 72, 38
1, 18551, Note_on_c, 0, 75, 38
1, 18551, Note_on_c, 0, 77, 35
1, 18551, Note_on_c, 0, 78, 33
1, 18551, Note_on_c, 0, 83, 35
1, 18551, Note_on_c, 0, 86, 31
1, 18551, Note_on_c, 0, 88, 26
1, 18551, Note_on_c, 0, 91, 24
1, 18552, Note_off_c, 0, 33, 64
1, 18552, Note_on_c, 0, 53, 72
1, 18552, Note_off_c, 0, 54, 64
1, 18552, Note_on_c, 0, 66, 49
1, 18552, Note_on_c, 0, 81, 34
1, 18553, Note_off_c, 0, 59, 64
1, 18554, Note_on_c, 0, 48, 84
1, 18554, Note_off_c, 0, 53, 64
1, 18554, Note_off_c, 0, 66, 64
1, 18554, Note_off_c, 0, 72, 64
1, 18554, Note_off_c, 0, 75, 64
1, 18554, Note_off_c, 0, 78, 64
1, 18554, Note_off_c, 0, 81, 64
1, 18554, Note_off_c, 0, 85, 64
1, 18554, Note_off_c, 0, 86, 64
1, 18554, Note_off_c, 0, 88, 64
1, 18554, Note_off_c, 0, 91, 64
1, 18555, Note_on_c, 0, 45, 94
1, 18555, Note_off_c, 0, 48, 64
1, 18555, Note_off_c, 0, 83, 64
1, 18556, Note_on_c, 0, 42, 100
1, 18556, Note_off_c, 0, 45, 64
1, 18556, Note_off_c, 0, 77, 64
1, 18557, Note_on_c, 0, 40, 98
1, 18557, Note_off_c, 0, 42, 64
1, 18557, Note_on_c, 0, 83, 21
1, 18558, Note_on_c, 0, 38, 98
1, 18558, Note_off_c, 0, 40, 64
1, 18559, Note_on_c, 0, 36, 98
1, 18559, Note_off_c, 0, 38, 64
1, 18560, Note_on_c, 0, 35, 97
1, 18560, Note_off_c, 0, 36, 64
1, 18560, Note_off_c, 0, 83, 64
1, 18561, Note_on_c, 0, 34, 96
1, 18561, Note_off_c, 0, 35, 64
1, 18562, Note_on_c, 0, 33, 96
1, 18562, Note_off_c, 0, 34, 64
1, 18563, Note_on_c, 0, 85, 13
1, 18564, Note_on_c, 0, 32, 97
1, 18564, Note_off_c, 0, 33, 64
1, 18564, Note_on_c, 0, 49, 30
1, 18565, Note_on_c, 0, 31, 97
1, 18565, Note_off_c, 0, 32, 64
1, 18567, Note_on_c, 0, 30, 90
1, 18567, Note_off_c, 0, 31, 64
1, 18567, Note_off_c, 0, 49, 64
1, 18567, Note_on_c, 0, 80, 26
1, 18570, Note_off_c, 0, 30, 64
1, 18570, Note_on_c, 0, 76, 17
1, 18571, Note_on_c, 0, 37, 65
1, 18571, Note_on_c, 0, 64, 26
1, 18571, Note_off_c, 0, 85, 64
1, 18572, Note_on_c, 0, 30, 79
1, 18572, Note_off_c, 0, 37, 64
1, 18572, Note_on_c, 0, 68, 17
1, 18572, Note_on_c, 0, 81, 13
1, 18572, Note_on_c, 0, 87, 14
1, 18573, Note_on_c, 0, 83, 10
1, 18573, Note_on_c, 0, 85, 22
1, 18574, Note_on_c, 0, 29, 80
1, 18574, Note_off_c, 0, 30, 64
1, 18574, Note_off_c, 0, 64, 64
1, 18574, Note_off_c, 0, 76, 64
1, 18574, Note_off_c, 0, 80, 64
1, 18575, Note_off_c, 0, 81, 64
1, 18576, Note_off_c, 0, 29, 64
1, 18576, Note_on_c, 0, 30, 76
1, 18576, Note_off_c, 0, 83, 64
1, 18576, Note_off_c, 0, 87, 64
1, 18578, Note_on_c, 0, 29, 74
1, 18578, Note_off_c, 0, 30, 64
1, 18578, Note_off_c, 0, 68, 64
1, 18579, Note_on_c, 0, 71, 13
1, 18580, Note_off_c, 0, 29, 64
1, 18580, Note_on_c, 0, 30, 64
1, 18581, Note_on_c, 0, 91, 14
1, 18582, Note_off_c, 0, 30, 64
1, 18582, Note_on_c, 0, 41, 72
1, 18582, Note_on_c, 0, 61, 29
1, 18582, Note_on_c, 0, 64, 33
1, 18582, Note_on_c, 0, 68, 21
1, 18582, Note_on_c, 0, 70, 17
1, 18582, Note_off_c, 0, 71, 64
1, 18582, Note_on_c, 0, 86, 10
1, 18583, Note_on_c, 0, 30, 79
1, 18583, Note_off_c, 0, 41, 64
1, 18583, Note_off_c, 0, 85, 64
1, 18584, Note_on_c, 0, 29, 82
1, 18584, Note_off_c, 0, 30, 64
1, 18584, Note_on_c, 0, 49, 62
1, 18584, Note_off_c, 0, 91, 64
1, 18585, Note_on_c, 0, 63, 22
1, 18585, Note_off_c, 0, 64, 64
1, 18585, Note_off_c, 0, 70, 64
1, 18586, Note_off_c, 0, 29, 64
1, 18586, Note_on_c, 0, 30, 77
1, 18586, Note_on_c, 0, 48, 58
1, 18586, Note_off_c, 0, 49, 64
1, 18586, Note_off_c, 0, 61, 64
1, 18586, Note_off_c, 0, 86, 64
1, 18587, Note_off_c, 0, 30, 64
1, 18587, Note_on_c, 0, 34, 69
1, 18587, Note_on_c, 0, 54, 39
1, 18587, Note_off_c, 0, 68, 64
1, 18588, Note_off_c, 0, 34, 64
1, 18588, Note_off_c, 0, 48, 64
1, 18588, Note_off_c, 0, 63, 64
1, 18588, Note_on_c, 0, 74, 36
1, 18588, Note_on_c, 0, 75, 36
1, 18588, Note_on_c, 0, 83, 31
1, 18588, Note_on_c, 0, 85, 32
1, 18588, Note_on_c, 0, 89, 25
1, 18588, Note_on_c, 0, 94, 23
1, 18589, Note_off_c, 0, 54, 64
1, 18589, Note_on_c, 0, 70, 41
1, 18590, Note_on_c, 0, 54, 66
1, 18590, Note_on_c, 0, 64, 50
1, 18590, Note_on_c, 0, 72, 38
1, 18590, Note_off_c, 0, 75, 64
1, 18590, Note_on_c, 0, 78, 31
1, 18591, Note_on_c, 0, 49, 79
1, 18591, Note_off_c, 0, 54, 64
1, 18591, Note_off_c, 0, 74, 64
1, 18591, Note_off_c, 0, 83, 64
1, 18591, Note_off_c, 0, 89, 64
1, 18591, Note_off_c, 0, 94, 64
1, 18592, Note_on_c, 0, 45, 91
1, 18592, Note_off_c, 0, 49, 64
1, 18592, Note_off_c, 0, 70, 64
1, 18592, Note_off_c, 0, 72, 64
1, 18592, Note_off_c, 0, 78, 64
1, 18592, Note_off_c, 0, 85, 64
1, 18593, Note_on_c, 0, 42, 97
1, 18593, Note_off_c, 0, 45, 64
1, 18593, Note_off_c, 0, 64, 64
1, 18594, Note_on_c, 0, 41, 99
1, 18594, Note_off_c, 0, 42, 64
1, 18595, Note_on_c, 0, 38, 98
1, 18595, Note_off_c, 0, 41, 64
1, 18596, Note_on_c, 0, 37, 98
1, 18596, Note_off_c, 0, 38, 64
1, 18597, Note_on_c, 0, 36, 97
1, 18597, Note_off_c, 0, 37, 64
1, 18598, Note_on_c, 0, 35, 96
1, 18598, Note_off_c, 0, 36, 64
1, 18599, Note_on_c, 0, 34, 96
1, 18599, Note_off_c, 0, 35, 64
1, 18599, Note_on_c, 0, 85, 17
1, 18600, Note_on_c, 0, 33, 95
1, 18600, Note_off_c, 0, 34, 64
1, 18601, Note_on_c, 0, 32, 97
1, 18601, Note_off_c, 0, 33, 64
1, 18603, Note_on_c, 0, 31, 96
1, 18603, Note_off_c, 0, 32, 64
1, 18605, Note_on_c, 0, 30, 87
1, 18605, Note_off_c, 0, 31, 64
1, 18607, Note_off_c, 0, 30, 64
1, 18608, Note_on_c, 0, 36, 71
1, 18608, Note_on_c, 0, 80, 21
1, 18609, Note_on_c, 0, 83, 18
1, 18610, Note_on_c, 0, 31, 78
1, 18610, Note_off_c, 0, 36, 64
1, 18610, Note_on_c, 0, 49, 58
1, 18610, Note_on_c, 0, 73, 17
1, 18610, Note_on_c, 0, 88, 14
1, 18611, Note_on_c, 0, 30, 80
1, 18611, Note_off_c, 0, 31, 64
1, 18611, Note_on_c, 0, 63, 29
1, 18611, Note_on_c, 0, 70, 15
1, 18612, Note_on_c, 0, 29, 80
1, 18612, Note_off_c, 0, 30, 64
1, 18613, Note_off_c, 0, 49, 64
1, 18613, Note_off_c, 0, 63, 64
1, 18613, Note_off_c, 0, 73, 64
1, 18613, Note_off_c, 0, 83, 64
1, 18614, Note_off_c, 0, 29, 64
1, 18614, Note_on_c, 0, 30, 76
1, 18614, Note_off_c, 0, 70, 64
1, 18614, Note_on_c, 0, 83, 21
1, 18614, Note_off_c, 0, 85, 64
1, 18614, Note_on_c, 0, 86, 23
1, 18614, Note_off_c, 0, 88, 64
1, 18615, Note_on_c, 0, 29, 74
1, 18615, Note_off_c, 0, 30, 64
1, 18615, Note_on_c, 0, 77, 15
1, 18615, Note_on_c, 0, 84, 27
1, 18617, Note_off_c, 0, 29, 64
1, 18617, Note_on_c, 0, 30, 68
1, 18618, Note_off_c, 0, 30, 64
1, 18618, Note_on_c, 0, 64, 30
1, 18618, Note_off_c, 0, 77, 64
1, 18618, Note_on_c, 0, 78, 17
1, 18618, Note_on_c, 0, 85, 31
1, 18618, Note_off_c, 0, 86, 64
1, 18618, Note_on_c, 0, 87, 27
1, 18619, Note_on_c, 0, 43, 68
1, 18619, Note_on_c, 0, 81, 18
1, 18620, Note_on_c, 0, 31, 74
1, 18620, Note_off_c, 0, 43, 64
1, 18620, Note_on_c, 0, 61, 32
1, 18620, Note_on_c, 0, 68, 22
1, 18620, Note_off_c, 0, 80, 64
1, 18621, Note_on_c, 0, 30, 82
1, 18621, Note_off_c, 0, 31, 64
1, 18621, Note_on_c, 0, 49, 58
1, 18621, Note_off_c, 0, 64, 64
1, 18621, Note_on_c, 0, 82, 18
1, 18621, Note_off_c, 0, 83, 64
1, 18621, Note_off_c, 0, 84, 64
1, 18621, Note_on_c, 0, 88, 34
1, 18622, Note_on_c, 0, 29, 82
1, 18622, Note_off_c, 0, 30, 64
1, 18623, Note_off_c, 0, 29, 64
1, 18623, Note_on_c, 0, 30, 79
1, 18623, Note_off_c, 0, 49, 64
1, 18623, Note_on_c, 0, 83, 17
1, 18623, Note_on_c, 0, 86, 22
1, 18623, Note_off_c, 0, 87, 64
1, 18624, Note_off_c, 0, 30, 64
1, 18624, Note_on_c, 0, 33, 72
1, 18624, Note_on_c, 0, 54, 42
1, 18624, Note_off_c, 0, 82, 64
1, 18625, Note_off_c, 0, 61, 64
1, 18625, Note_off_c, 0, 68, 64
1, 18625, Note_on_c, 0, 73, 37
1, 18625, Note_off_c, 0, 78, 64
1, 18625, Note_on_c, 0, 79, 41
1, 18625, Note_off_c, 0, 81, 64
1, 18625, Note_on_c, 0, 84, 35
1, 18626, Note_off_c, 0, 54, 64
1, 18626, Note_on_c, 0, 65, 50
1, 18626, Note_on_c, 0, 70, 46
1, 18626, Note_on_c, 0, 76, 38
1, 18626, Note_on_c, 0, 81, 37
1, 18626, Note_off_c, 0, 83, 64
1, 18626, Note_on_c, 0, 87, 36
1, 18626, Note_on_c, 0, 90, 35
1, 18626, Note_on_c, 0, 92, 27
1, 18626, Note_on_c, 0, 94, 20
1, 18627, Note_off_c, 0, 33, 64
1, 18627, Note_on_c, 0, 69, 44
1, 18627, Note_on_c, 0, 78, 47
1, 18627, Note_off_c, 0, 79, 64
1, 18627, Note_on_c, 0, 83, 38
1, 18627, Note_off_c, 0, 85, 64
1, 18627, Note_on_c, 0, 89, 28
1, 18628, Note_on_c, 0, 50, 74
1, 18628, Note_on_c, 0, 64, 44
1, 18628, Note_off_c, 0, 65, 64
1, 18628, Note_off_c, 0, 76, 64
1, 18629, Note_on_c, 0, 48, 85
1, 18629, Note_off_c, 0, 50, 64
1, 18629, Note_off_c, 0, 69, 64
1, 18629, Note_off_c, 0, 70, 64
1, 18629, Note_off_c, 0, 78, 64
1, 18629, Note_off_c, 0, 88, 64
1, 18629, Note_off_c, 0, 90, 64
1, 18629, Note_off_c, 0, 92, 64
1, 18629, Note_off_c, 0, 94, 64
1, 18630, Note_on_c, 0, 44, 95
1, 18630, Note_off_c, 0, 48, 64
1, 18630, Note_off_c, 0, 64, 64
1, 18630, Note_off_c, 0, 84, 64
1, 18631, Note_on_c, 0, 42, 99
1, 18631, Note_off_c, 0, 44, 64
1, 18631, Note_off_c, 0, 81, 64
1, 18631, Note_off_c, 0, 89, 64
1, 18631, Note_on_c, 0, 90, 17
1, 18632, Note_on_c, 0, 40, 96
1, 18632, Note_off_c, 0, 42, 64
1, 18633, Note_on_c, 0, 38, 98
1, 18633, Note_off_c, 0, 40, 64
1, 18633, Note_off_c, 0, 73, 64
1, 18633, Note_on_c, 0, 84, 38
1, 18633, Note_off_c, 0, 86, 64
1, 18633, Note_on_c, 0, 88, 34
1, 18633, Note_on_c, 0, 91, 18
1, 18634, Note_on_c, 0, 36, 97
1, 18634, Note_off_c, 0, 38, 64
1, 18634, Note_on_c, 0, 81, 43
1, 18635, Note_on_c, 0, 35, 96
1, 18635, Note_off_c, 0, 36, 64
1, 18635, Note_on_c, 0, 76, 29
1, 18635, Note_off_c, 0, 87, 64
1, 18635, Note_on_c, 0, 89, 19
1, 18636, Note_on_c, 0, 34, 95
1, 18636, Note_off_c, 0, 35, 64
1, 18636, Note_on_c, 0, 85, 27
1, 18636, Note_off_c, 0, 91, 64
1, 18636, Note_on_c, 0, 92, 14
1, 18637, Note_on_c, 0, 33, 96
1, 18637, Note_off_c, 0, 34, 64
1, 18637, Note_off_c, 0, 76, 64
1, 18637, Note_off_c, 0, 83, 64
1, 18638, Note_on_c, 0, 73, 23
1, 18638, Note_on_c, 0, 79, 33
1, 18638, Note_on_c, 0, 83, 39
1, 18638, Note_off_c, 0, 89, 64
1, 18639, Note_on_c, 0, 32, 96
1, 18639, Note_off_c, 0, 33, 64
1, 18639, Note_on_c, 0, 82, 40
1, 18639, Note_off_c, 0, 84, 64
1, 18640, Note_on_c, 0, 31, 96
1, 18640, Note_off_c, 0, 32, 64
1, 18640, Note_on_c, 0, 77, 31
1, 18640, Note_on_c, 0, 86, 29
1, 18641, Note_off_c, 0, 79, 64
1, 18641, Note_off_c, 0, 88, 64
1, 18641, Note_off_c, 0, 90, 64
1, 18641, Note_off_c, 0, 92, 64
1, 18642, Note_on_c, 0, 30, 89
1, 18642, Note_off_c, 0, 31, 64
1, 18642, Note_off_c, 0, 73, 64
1, 18642, Note_off_c, 0, 83, 64
1, 18642, Note_off_c, 0, 85, 64
1, 18642, Note_on_c, 0, 91, 13
1, 18643, Note_on_c, 0, 80, 39
1, 18643, Note_off_c, 0, 81, 64
1, 18643, Note_on_c, 0, 85, 36
1, 18643, Note_on_c, 0, 88, 36
1, 18644, Note_off_c, 0, 86, 64
1, 18645, Note_off_c, 0, 30, 64
1, 18645, Note_on_c, 0, 78, 32
1, 18645, Note_off_c, 0, 91, 64
1, 18646, Note_on_c, 0, 37, 69
1, 18646, Note_on_c, 0, 74, 33
1, 18646, Note_off_c, 0, 77, 64
1, 18646, Note_off_c, 0, 80, 64
1, 18646, Note_on_c, 0, 83, 31
1, 18646, Note_on_c, 0, 87, 37
1, 18647, Note_on_c, 0, 31, 74
1, 18647, Note_off_c, 0, 37, 64
1, 18647, Note_on_c, 0, 68, 25
1, 18647, Note_on_c, 0, 70, 24
1, 18647, Note_on_c, 0, 81, 37
1, 18647, Note_off_c, 0, 82, 64
1, 18647, Note_off_c, 0, 85, 64
1, 18647, Note_on_c, 0, 94, 12
1, 18648, Note_on_c, 0, 30, 79
1, 18648, Note_off_c, 0, 31, 64
1, 18648, Note_on_c, 0, 60, 33
1, 18648, Note_on_c, 0, 80, 31
1, 18648, Note_on_c, 0, 85, 30
1, 18649, Note_on_c, 0, 29, 80
1, 18649, Note_off_c, 0, 30, 64
1, 18649, Note_on_c, 0, 49, 54
1, 18650, Note_off_c, 0, 29, 64
1, 18650, Note_on_c, 0, 30, 78
1, 18650, Note_off_c, 0, 70, 64
1, 18650, Note_on_c, 0, 76, 36
1, 18650, Note_off_c, 0, 81, 64
1, 18650, Note_on_c, 0, 82, 24
1, 18651, Note_off_c, 0, 60, 64
1, 18651, Note_on_c, 0, 63, 14
1, 18651, Note_off_c, 0, 74, 64
1, 18651, Note_off_c, 0, 80, 64
1, 18651, Note_off_c, 0, 83, 64
1, 18651, Note_on_c, 0, 84, 35
1, 18651, Note_off_c, 0, 85, 64
1, 18651, Note_on_c, 0, 91, 17
1, 18652, Note_off_c, 0, 49, 64
1, 18652, Note_off_c, 0, 68, 64
1, 18652, Note_on_c, 0, 73, 29
1, 18652, Note_on_c, 0, 75, 34
1, 18652, Note_off_c, 0, 76, 64
1, 18652, Note_on_c, 0, 77, 29
1, 18652, Note_off_c, 0, 78, 64
1, 18652, Note_on_c, 0, 93, 13
1, 18653, Note_on_c, 0, 29, 73
1, 18653, Note_off_c, 0, 30, 64
1, 18653, Note_off_c, 0, 94, 64
1, 18654, Note_off_c, 0, 75, 64
1, 18654, Note_on_c, 0, 80, 19
1, 18654, Note_off_c, 0, 84, 64
1, 18654, Note_on_c, 0, 85, 35
1, 18655, Note_off_c, 0, 29, 64
1, 18655, Note_on_c, 0, 30, 63
1, 18655, Note_on_c, 0, 46, 61
1, 18655, Note_off_c, 0, 63, 64
1, 18655, Note_on_c, 0, 84, 23
1, 18656, Note_on_c, 0, 64, 25
1, 18656, Note_off_c, 0, 73, 64
1, 18656, Note_on_c, 0, 76, 29
1, 18656, Note_off_c, 0, 77, 64
1, 18656, Note_off_c, 0, 82, 64
1, 18656, Note_off_c, 0, 91, 64
1, 18657, Note_off_c, 0, 30, 64
1, 18657, Note_on_c, 0, 36, 71
1, 18657, Note_off_c, 0, 46, 64
1, 18657, Note_on_c, 0, 68, 28
1, 18657, Note_on_c, 0, 74, 29
1, 18657, Note_on_c, 0, 78, 26
1, 18657, Note_on_c, 0, 91, 23
1, 18657, Note_off_c, 0, 93, 64
1, 18658, Note_on_c, 0, 30, 78
1, 18658, Note_off_c, 0, 36, 64
1, 18658, Note_on_c, 0, 49, 60
1, 18658, Note_on_c, 0, 71, 46
1, 18658, Note_off_c, 0, 80, 64
1, 18659, Note_on_c, 0, 29, 81
1, 18659, Note_off_c, 0, 30, 64
1, 18659, Note_off_c, 0, 74, 64
1, 18660, Note_off_c, 0, 64, 64
1, 18660, Note_off_c, 0, 84, 64
1, 18660, Note_off_c, 0, 91, 64
1, 18661, Note_off_c, 0, 29, 64
1, 18661, Note_on_c, 0, 30, 75
1, 18661, Note_on_c, 0, 48, 59
1, 18661, Note_off_c, 0, 49, 64
1, 18661, Note_on_c, 0, 75, 31
1, 18661, Note_off_c, 0, 76, 64
1, 18661, Note_off_c, 0, 78, 64
1, 18661, Note_on_c, 0, 89, 15
1, 18662, Note_off_c, 0, 30, 64
1, 18662, Note_on_c, 0, 34, 67
1, 18662, Note_on_c, 0, 54, 37
1, 18662, Note_on_c, 0, 63, 46
1, 18662, Note_on_c, 0, 70, 44
1, 18662, Note_off_c, 0, 71, 64
1, 18662, Note_on_c, 0, 84, 41
1, 18662, Note_on_c, 0, 91, 35
1, 18663, Note_off_c, 0, 34, 64
1, 18663, Note_off_c, 0, 48, 64
1, 18663, Note_on_c, 0, 74, 47
1, 18663, Note_off_c, 0, 75, 64
1, 18663, Note_on_c, 0, 78, 38
1, 18663, Note_on_c, 0, 93, 24
1, 18663, Note_on_c, 0, 94, 22
1, 18663, Note_on_c, 0, 98, 23
1, 18663, Note_on_c, 0, 102, 20
1, 18664, Note_off_c, 0, 54, 64
1, 18664, Note_off_c, 0, 68, 64
1, 18664, Note_off_c, 0, 88, 64
1, 18664, Note_off_c, 0, 89, 64
1, 18664, Note_on_c, 0, 92, 31
1, 18665, Note_on_c, 0, 54, 66
1, 18665, Note_off_c, 0, 63, 64
1, 18665, Note_on_c, 0, 69, 43
1, 18665, Note_off_c, 0, 70, 64
1, 18665, Note_on_c, 0, 71, 37
1, 18665, Note_on_c, 0, 72, 38
1, 18665, Note_on_c, 0, 75, 41
1, 18665, Note_on_c, 0, 80, 30
1, 18666, Note_on_c, 0, 49, 81
1, 18666, Note_off_c, 0, 54, 64
1, 18666, Note_off_c, 0, 78, 64
1, 18666, Note_off_c, 0, 87, 64
1, 18666, Note_off_c, 0, 92, 64
1, 18666, Note_off_c, 0, 94, 64
1, 18666, Note_off_c, 0, 98, 64
1, 18666, Note_off_c, 0, 102, 64
1, 18667, Note_on_c, 0, 45, 92
1, 18667, Note_off_c, 0, 49, 64
1, 18667, Note_off_c, 0, 69, 64
1, 18667, Note_off_c, 0, 71, 64
1, 18667, Note_off_c, 0, 80, 64
1, 18667, Note_off_c, 0, 85, 64
1, 18667, Note_on_c, 0, 90, 16
1, 18667, Note_off_c, 0, 91, 64
1, 18667, Note_off_c, 0, 93, 64
1, 18668, Note_on_c, 0, 42, 97
1, 18668, Note_off_c, 0, 45, 64
1, 18668, Note_off_c, 0, 72, 64
1, 18668, Note_off_c, 0, 74, 64
1, 18668, Note_off_c, 0, 75, 64
1, 18668, Note_on_c, 0, 85, 18
1, 18668, Note_on_c, 0, 88, 17
1, 18669, Note_on_c, 0, 41, 98
1, 18669, Note_off_c, 0, 42, 64
1, 18669, Note_on_c, 0, 83, 29
1, 18669, Note_off_c, 0, 84, 64
1, 18670, Note_on_c, 0, 38, 97
1, 18670, Note_off_c, 0, 41, 64
1, 18670, Note_on_c, 0, 93, 10
1, 18671, Note_on_c, 0, 37, 98
1, 18671, Note_off_c, 0, 38, 64
1, 18671, Note_on_c, 0, 80, 27
1, 18671, Note_on_c, 0, 82, 27
1, 18672, Note_on_c, 0, 36, 97
1, 18672, Note_off_c, 0, 37, 64
1, 18672, Note_on_c, 0, 87, 19
1, 18672, Note_off_c, 0, 88, 64
1, 18672, Note_off_c, 0, 90, 64
1, 18673, Note_on_c, 0, 35, 96
1, 18673, Note_off_c, 0, 36, 64
1, 18674, Note_on_c, 0, 34, 95
1, 18674, Note_off_c, 0, 35, 64
1, 18674, Note_on_c, 0, 89, 16
1, 18674, Note_on_c, 0, 91, 11
1, 18675, Note_on_c, 0, 33, 94
1, 18675, Note_off_c, 0, 34, 64
1, 18675, Note_on_c, 0, 74, 19
1, 18675, Note_on_c, 0, 76, 25
1, 18675, Note_off_c, 0, 82, 64
1, 18675, Note_off_c, 0, 93, 64
1, 18676, Note_on_c, 0, 32, 96
1, 18676, Note_off_c, 0, 33, 64
1, 18676, Note_on_c, 0, 82, 14
1, 18676, Note_off_c, 0, 83, 64
1, 18677, Note_on_c, 0, 81, 15
1, 18678, Note_on_c, 0, 31, 96
1, 18678, Note_off_c, 0, 32, 64
1, 18678, Note_off_c, 0, 74, 64
1, 18678, Note_off_c, 0, 91, 64
1, 18679, Note_on_c, 0, 30, 92
1, 18679, Note_off_c, 0, 31, 64
1, 18679, Note_off_c, 0, 82, 64
1, 18679, Note_off_c, 0, 87, 64
1, 18680, Note_on_c, 0, 72, 18
1, 18680, Note_on_c, 0, 75, 19
1, 18680, Note_off_c, 0, 76, 64
1, 18680, Note_on_c, 0, 77, 17
1, 18680, Note_on_c, 0, 79, 24
1, 18680, Note_off_c, 0, 81, 64
1, 18680, Note_off_c, 0, 85, 64
1, 18680, Note_on_c, 0, 86, 12
1, 18681, Note_on_c, 0, 83, 38
1, 18681, Note_on_c, 0, 85, 26
1, 18681, Note_on_c, 0, 87, 34
1, 18681, Note_off_c, 0, 89, 64
1, 18682, Note_off_c, 0, 30, 64
1, 18683, Note_off_c, 0, 72, 64
1, 18683, Note_off_c, 0, 86, 64
1, 18683, Note_on_c, 0, 90, 19
1, 18684, Note_on_c, 0, 36, 70
1, 18684, Note_on_c, 0, 68, 13
1, 18684, Note_off_c, 0, 77, 64
1, 18684, Note_off_c, 0, 79, 64
1, 18684, Note_off_c, 0, 80, 64
1, 18684, Note_on_c, 0, 81, 22
1, 18685, Note_on_c, 0, 30, 78
1, 18685, Note_off_c, 0, 36, 64
1, 18685, Note_on_c, 0, 49, 56
1, 18685, Note_on_c, 0, 63, 30
1, 18686, Note_on_c, 0, 29, 79
1, 18686, Note_off_c, 0, 30, 64
1, 18686, Note_on_c, 0, 71, 25
1, 18686, Note_off_c, 0, 75, 64
1, 18686, Note_on_c, 0, 79, 17
1, 18686, Note_on_c, 0, 80, 14
1, 18686, Note_off_c, 0, 85, 64
1, 18686, Note_off_c, 0, 90, 64
1, 18687, Note_off_c, 0, 29, 64
1, 18687, Note_on_c, 0, 30, 78
1, 18688, Note_off_c, 0, 49, 64
1, 18688, Note_off_c, 0, 63, 64
1, 18688, Note_off_c, 0, 81, 64
1, 18688, Note_on_c, 0, 85, 21
1, 18689, Note_off_c, 0, 68, 64
1, 18689, Note_on_c, 0, 74, 22
1, 18689, Note_off_c, 0, 79, 64
1, 18689, Note_off_c, 0, 80, 64
1, 18689, Note_on_c, 0, 88, 35
1, 18690, Note_on_c, 0, 29, 74
1, 18690, Note_off_c, 0, 30, 64
1, 18690, Note_off_c, 0, 71, 64
1, 18690, Note_on_c, 0, 91, 26
1, 18691, Note_on_c, 0, 76, 21
1, 18691, Note_on_c, 0, 81, 20
1, 18691, Note_off_c, 0, 85, 64
1, 18691, Note_on_c, 0, 89, 27
1, 18692, Note_on_c, 0, 85, 37
1, 18692, Note_off_c, 0, 87, 64
1, 18692, Note_on_c, 0, 90, 26
1, 18692, Note_on_c, 0, 96, 9
1, 18693, Note_off_c, 0, 29, 64
1, 18693, Note_on_c, 0, 61, 32
1, 18693, Note_on_c, 0, 78, 22
1, 18693, Note_on_c, 0, 86, 32
1, 18693, Note_on_c, 0, 87, 24
1, 18694, Note_on_c, 0, 42, 70
1, 18694, Note_off_c, 0, 76, 64
1, 18694, Note_on_c, 0, 94, 12
1, 18695, Note_on_c, 0, 31, 75
1, 18695, Note_off_c, 0, 42, 64
1, 18695, Note_on_c, 0, 68, 26
1, 18696, Note_on_c, 0, 30, 81
1, 18696, Note_off_c, 0, 31, 64
1, 18696, Note_off_c, 0, 74, 64
1, 18696, Note_on_c, 0, 75, 20
1, 18696, Note_off_c, 0, 81, 64
1, 18696, Note_off_c, 0, 90, 64
1, 18697, Note_on_c, 0, 29, 80
1, 18697, Note_off_c, 0, 30, 64
1, 18697, Note_on_c, 0, 63, 25
1, 18697, Note_on_c, 0, 81, 26
1, 18697, Note_off_c, 0, 87, 64
1, 18697, Note_off_c, 0, 94, 64
1, 18698, Note_off_c, 0, 29, 64
1, 18698, Note_on_c, 0, 30, 77
1, 18698, Note_off_c, 0, 61, 64
1, 18698, Note_off_c, 0, 78, 64
1, 18699, Note_off_c, 0, 30, 64
1, 18699, Note_on_c, 0, 33, 72
1, 18699, Note_on_c, 0, 54, 41
1, 18699, Note_off_c, 0, 68, 64
1, 18699, Note_off_c, 0, 75, 64
1, 18699, Note_on_c, 0, 82, 42
1, 18699, Note_off_c, 0, 83, 64
1, 18700, Note_off_c, 0, 63, 64
1, 18700, Note_on_c, 0, 76, 34
1, 18700, Note_off_c, 0, 81, 64
1, 18700, Note_off_c, 0, 96, 64
1, 18701, Note_off_c, 0, 33, 64
1, 18701, Note_off_c, 0, 54, 64
1, 18701, Note_on_c, 0, 74, 37
1, 18701, Note_on_c, 0, 84, 39
1, 18701, Note_on_c, 0, 92, 24
1, 18702, Note_on_c, 0, 72, 41
1, 18702, Note_off_c, 0, 76, 64
1, 18702, Note_on_c, 0, 77, 38
1, 18702, Note_on_c, 0, 80, 23
1, 18702, Note_on_c, 0, 81, 43
1, 18702, Note_off_c, 0, 82, 64
1, 18702, Note_on_c, 0, 83, 41
1, 18702, Note_off_c, 0, 85, 64
1, 18702, Note_off_c, 0, 89, 64
1, 18703, Note_on_c, 0, 50, 75
1, 18703, Note_off_c, 0, 74, 64
1, 18703, Note_on_c, 0, 76, 21
1, 18704, Note_on_c, 0, 46, 87
1, 18704, Note_off_c, 0, 50, 64
1, 18704, Note_off_c, 0, 72, 64
1, 18704, Note_off_c, 0, 81, 64
1, 18704, Note_off_c, 0, 84, 64
1, 18704, Note_off_c, 0, 86, 64
1, 18704, Note_off_c, 0, 92, 64
1, 18705, Note_on_c, 0, 44, 94
1, 18705, Note_off_c, 0, 46, 64
1, 18705, Note_off_c, 0, 77, 64
1, 18705, Note_off_c, 0, 80, 64
1, 18706, Note_on_c, 0, 41, 100
1, 18706, Note_off_c, 0, 44, 64
1, 18706, Note_on_c, 0, 82, 11
1, 18706, Note_on_c, 0, 84, 20
1, 18706, Note_off_c, 0, 91, 64
1, 18707, Note_on_c, 0, 39, 96
1, 18707, Note_off_c, 0, 41, 64
1, 18707, Note_on_c, 0, 74, 11
1, 18707, Note_off_c, 0, 83, 64
1, 18707, Note_on_c, 0, 85, 11
1, 18707, Note_on_c, 0, 90, 12
1, 18708, Note_on_c, 0, 38, 98
1, 18708, Note_off_c, 0, 39, 64
1, 18708, Note_on_c, 0, 71, 11
1, 18708, Note_off_c, 0, 88, 64
1, 18709, Note_on_c, 0, 36, 97
1, 18709, Note_off_c, 0, 38, 64
1, 18709, Note_on_c, 0, 79, 16
1, 18709, Note_off_c, 0, 82, 64
1, 18710, Note_on_c, 0, 35, 96
1, 18710, Note_off_c, 0, 36, 64
1, 18710, Note_off_c, 0, 74, 64
1, 18710, Note_off_c, 0, 76, 64
1, 18710, Note_on_c, 0, 87, 22
1, 18711, Note_on_c, 0, 34, 95
1, 18711, Note_off_c, 0, 35, 64
1, 18711, Note_off_c, 0, 71, 64
1, 18711, Note_off_c, 0, 85, 64
1, 18712, Note_on_c, 0, 33, 96
1, 18712, Note_off_c, 0, 34, 64
1, 18712, Note_off_c, 0, 79, 64
1, 18713, Note_on_c, 0, 76, 23
1, 18713, Note_on_c, 0, 82, 10
1, 18713, Note_off_c, 0, 84, 64
1, 18713, Note_on_c, 0, 85, 23
1, 18714, Note_on_c, 0, 32, 96
1, 18714, Note_off_c, 0, 33, 64
1, 18714, Note_on_c, 0, 71, 20
1, 18715, Note_on_c, 0, 31, 96
1, 18715, Note_off_c, 0, 32, 64
1, 18715, Note_on_c, 0, 48, 28
1, 18715, Note_on_c, 0, 75, 14
1, 18716, Note_off_c, 0, 82, 64
1, 18717, Note_on_c, 0, 30, 89
1, 18717, Note_off_c, 0, 31, 64
1, 18717, Note_off_c, 0, 71, 64
1, 18717, Note_on_c, 0, 88, 26
1, 18718, Note_off_c, 0, 48, 64
1, 18718, Note_off_c, 0, 75, 64
1, 18718, Note_off_c, 0, 87, 64
1, 18718, Note_off_c, 0, 90, 64
1, 18719, Note_on_c, 0, 84, 24
1, 18719, Note_on_c, 0, 86, 17
1, 18720, Note_off_c, 0, 30, 64
1, 18720, Note_on_c, 0, 64, 30
1, 18720, Note_off_c, 0, 85, 64
1, 18720, Note_on_c, 0, 87, 21
1, 18721, Note_on_c, 0, 37, 66
1, 18721, Note_on_c, 0, 61, 28
1, 18721, Note_on_c, 0, 79, 26
1, 18721, Note_off_c, 0, 88, 64
1, 18722, Note_on_c, 0, 30, 78
1, 18722, Note_off_c, 0, 37, 64
1, 18722, Note_on_c, 0, 70, 16
1, 18722, Note_off_c, 0, 76, 64
1, 18722, Note_off_c, 0, 86, 64
1, 18723, Note_on_c, 0, 81, 17
1, 18723, Note_off_c, 0, 87, 64
1, 18724, Note_on_c, 0, 29, 79
1, 18724, Note_off_c, 0, 30, 64
1, 18724, Note_on_c, 0, 49, 55
1, 18724, Note_on_c, 0, 63, 23
1, 18724, Note_off_c, 0, 64, 64
1, 18724, Note_on_c, 0, 86, 15
1, 18725, Note_off_c, 0, 29, 64
1, 18725, Note_on_c, 0, 30, 76
1, 18725, Note_on_c, 0, 85, 16
1, 18726, Note_off_c, 0, 61, 64
1, 18726, Note_on_c, 0, 77, 27
1, 18726, Note_off_c, 0, 79, 64
1, 18726, Note_on_c, 0, 82, 19
1, 18726, Note_on_c, 0, 83, 19
1, 18726, Note_off_c, 0, 84, 64
1, 18726, Note_on_c, 0, 87, 22
1, 18727, Note_on_c, 0, 29, 73
1, 18727, Note_off_c, 0, 30, 64
1, 18727, Note_on_c, 0, 48, 50
1, 18727, Note_off_c, 0, 49, 64
1, 18727, Note_off_c, 0, 63, 64
1, 18727, Note_off_c, 0, 70, 64
1, 18727, Note_off_c, 0, 86, 64
1, 18727, Note_on_c, 0, 88, 22
1, 18728, Note_off_c, 0, 81, 64
1, 18729, Note_off_c, 0, 29, 64
1, 18729, Note_on_c, 0, 30, 71
1, 18729, Note_off_c, 0, 48, 64
1, 18729, Note_off_c, 0, 83, 64
1, 18730, Note_on_c, 0, 45, 63
1, 18730, Note_on_c, 0, 83, 19
1, 18730, Note_off_c, 0, 88, 64
1, 18730, Note_on_c, 0, 90, 20
1, 18730, Note_on_c, 0, 91, 31
1, 18731, Note_off_c, 0, 30, 64
1, 18731, Note_on_c, 0, 74, 21
1, 18731, Note_on_c, 0, 84, 21
1, 18731, Note_off_c, 0, 85, 64
1, 18732, Note_on_c, 0, 36, 73
1, 18732, Note_off_c, 0, 45, 64
1, 18732, Note_on_c, 0, 61, 33
1, 18732, Note_off_c, 0, 77, 64
1, 18732, Note_off_c, 0, 82, 64
1, 18733, Note_on_c, 0, 30, 80
1, 18733, Note_off_c, 0, 36, 64
1, 18733, Note_off_c, 0, 83, 64
1, 18734, Note_on_c, 0, 29, 82
1, 18734, Note_off_c, 0, 30, 64
1, 18734, Note_on_c, 0, 49, 61
1, 18734, Note_on_c, 0, 66, 14
1, 18735, Note_on_c, 0, 63, 25
1, 18735, Note_off_c, 0, 74, 64
1, 18735, Note_on_c, 0, 82, 20
1, 18735, Note_off_c, 0, 87, 64
1, 18735, Note_off_c, 0, 90, 64
1, 18736, Note_off_c, 0, 29, 64
1, 18736, Note_on_c, 0, 30, 76
1, 18736, Note_on_c, 0, 48, 57
1, 18736, Note_off_c, 0, 49, 64
1, 18736, Note_on_c, 0, 54, 45
1, 18736, Note_off_c, 0, 61, 64
1, 18736, Note_on_c, 0, 77, 24
1, 18736, Note_on_c, 0, 81, 17
1, 18737, Note_off_c, 0, 30, 64
1, 18737, Note_on_c, 0, 34, 66
1, 18737, Note_off_c, 0, 66, 64
1, 18737, Note_off_c, 0, 84, 64
1, 18738, Note_off_c, 0, 48, 64
1, 18738, Note_off_c, 0, 63, 64
1, 18738, Note_on_c, 0, 70, 39
1, 18738, Note_on_c, 0, 80, 31
1, 18738, Note_on_c, 0, 83, 37
1, 18738, Note_on_c, 0, 84, 36
1, 18738, Note_on_c, 0, 87, 30
1, 18738, Note_on_c, 0, 90, 34
1, 18738, Note_on_c, 0, 93, 26
1, 18738, Note_on_c, 0, 100, 19
1, 18738, Note_on_c, 0, 101, 17
1, 18739, Note_off_c, 0, 34, 64
1, 18739, Note_off_c, 0, 54, 64
1, 18739, Note_on_c, 0, 73, 40
1, 18739, Note_off_c, 0, 77, 64
1, 18739, Note_on_c, 0, 78, 36
1, 18739, Note_off_c, 0, 81, 64
1, 18739, Note_off_c, 0, 82, 64
1, 18740, Note_on_c, 0, 54, 68
1, 18740, Note_on_c, 0, 69, 36
1, 18741, Note_on_c, 0, 48, 83
1, 18741, Note_off_c, 0, 54, 64
1, 18741, Note_off_c, 0, 70, 64
1, 18741, Note_off_c, 0, 73, 64
1, 18741, Note_off_c, 0, 78, 64
1, 18741, Note_off_c, 0, 80, 64
1, 18741, Note_off_c, 0, 83, 64
1, 18741, Note_off_c, 0, 90, 64
1, 18741, Note_off_c, 0, 91, 64
1, 18741, Note_off_c, 0, 93, 64
1, 18741, Note_off_c, 0, 100, 64
1, 18741, Note_off_c, 0, 101, 64
1, 18742, Note_on_c, 0, 45, 93
1, 18742, Note_off_c, 0, 48, 64
1, 18742, Note_off_c, 0, 69, 64
1, 18742, Note_off_c, 0, 84, 64
1, 18743, Note_on_c, 0, 42, 98
1, 18743, Note_off_c, 0, 45, 64
1, 18743, Note_on_c, 0, 83, 14
1, 18744, Note_on_c, 0, 40, 98
1, 18744, Note_off_c, 0, 42, 64
1, 18744, Note_on_c, 0, 88, 17
1, 18745, Note_on_c, 0, 38, 98
1, 18745, Note_off_c, 0, 40, 64
1, 18746, Note_on_c, 0, 37, 97
1, 18746, Note_off_c, 0, 38, 64
1, 18746, Note_off_c, 0, 83, 64
1, 18746, Note_off_c, 0, 87, 64
1, 18747, Note_on_c, 0, 35, 96
1, 18747, Note_off_c, 0, 37, 64
1, 18748, Note_on_c, 0, 34, 96
1, 18748, Note_off_c, 0, 35, 64
1, 18748, Note_off_c, 0, 88, 64
1, 18748, Note_on_c, 0, 90, 13
1, 18749, Note_on_c, 0, 33, 96
1, 18749, Note_off_c, 0, 34, 64
1, 18751, Note_on_c, 0, 32, 96
1, 18751, Note_off_c, 0, 33, 64
1, 18751, Note_off_c, 0, 90, 64
1, 18753, Note_on_c, 0, 31, 95
1, 18753, Note_off_c, 0, 32, 64
1, 18754, Note_on_c, 0, 30, 91
1, 18754, Note_off_c, 0, 31, 64
1, 18755, Note_on_c, 0, 89, 22
1, 18757, Note_off_c, 0, 30, 64
1, 18757, Note_on_c, 0, 63, 30
1, 18757, Note_on_c, 0, 77, 37
1, 18757, Note_on_c, 0, 81, 30
1, 18757, Note_on_c, 0, 91, 21
1, 18758, Note_on_c, 0, 45, 65
1, 18758, Note_on_c, 0, 83, 35
1, 18758, Note_on_c, 0, 85, 29
1, 18758, Note_on_c, 0, 88, 27
1, 18758, Note_on_c, 0, 92, 13
1, 18759, Note_on_c, 0, 30, 72
1, 18759, Note_off_c, 0, 45, 64
1, 18759, Note_on_c, 0, 54, 53
1, 18759, Note_on_c, 0, 61, 34
1, 18759, Note_off_c, 0, 63, 64
1, 18759, Note_on_c, 0, 71, 18
1, 18759, Note_off_c, 0, 81, 64
1, 18760, Note_off_c, 0, 30, 64
1, 18760, Note_on_c, 0, 31, 79
1, 18760, Note_on_c, 0, 94, 10
1, 18761, Note_on_c, 0, 30, 80
1, 18761, Note_off_c, 0, 31, 64
1, 18761, Note_on_c, 0, 76, 26
1, 18761, Note_off_c, 0, 77, 64
1, 18761, Note_on_c, 0, 78, 43
1, 18761, Note_on_c, 0, 82, 29
1, 18761, Note_on_c, 0, 87, 13
1, 18761, Note_off_c, 0, 89, 64
1, 18761, Note_off_c, 0, 91, 64
1, 18762, Note_on_c, 0, 29, 78
1, 18762, Note_off_c, 0, 30, 64
1, 18762, Note_off_c, 0, 54, 64
1, 18762, Note_on_c, 0, 80, 15
1, 18762, Note_on_c, 0, 84, 33
1, 18762, Note_off_c, 0, 85, 64
1, 18763, Note_off_c, 0, 29, 64
1, 18763, Note_on_c, 0, 30, 74
1, 18763, Note_off_c, 0, 61, 64
1, 18763, Note_off_c, 0, 83, 64
1, 18763, Note_off_c, 0, 88, 64
1, 18763, Note_on_c, 0, 89, 9
1, 18763, Note_on_c, 0, 91, 20
1, 18763, Note_off_c, 0, 92, 64
1, 18764, Note_on_c, 0, 77, 41
1, 18764, Note_off_c, 0, 78, 64
1, 18764, Note_off_c, 0, 87, 64
1, 18764, Note_off_c, 0, 94, 64
1, 18765, Note_on_c, 0, 29, 73
1, 18765, Note_off_c, 0, 30, 64
1, 18765, Note_off_c, 0, 76, 64
1, 18765, Note_on_c, 0, 78, 30
1, 18765, Note_off_c, 0, 80, 64
1, 18766, Note_off_c, 0, 89, 64
1, 18767, Note_off_c, 0, 29, 64
1, 18767, Note_on_c, 0, 30, 67
1, 18767, Note_on_c, 0, 70, 16
1, 18767, Note_off_c, 0, 71, 64
1, 18767, Note_on_c, 0, 80, 26
1, 18767, Note_on_c, 0, 83, 19
1, 18767, Note_off_c, 0, 84, 64
1, 18768, Note_on_c, 0, 64, 27
1, 18769, Note_off_c, 0, 30, 64
1, 18769, Note_on_c, 0, 42, 69
1, 18769, Note_on_c, 0, 68, 32
1, 18769, Note_off_c, 0, 82, 64
1, 18769, Note_on_c, 0, 85, 35
1, 18770, Note_on_c, 0, 30, 82
1, 18770, Note_off_c, 0, 42, 64
1, 18770, Note_off_c, 0, 70, 64
1, 18770, Note_off_c, 0, 83, 64
1, 18771, Note_off_c, 0, 68, 64
1, 18771, Note_on_c, 0, 70, 22
1, 18771, Note_off_c, 0, 77, 64
1, 18772, Note_on_c, 0, 29, 82
1, 18772, Note_off_c, 0, 30, 64
1, 18772, Note_on_c, 0, 79, 13
1, 18772, Note_on_c, 0, 88, 29
1, 18772, Note_off_c, 0, 91, 64
1, 18773, Note_off_c, 0, 29, 64
1, 18773, Note_on_c, 0, 30, 78
1, 18773, Note_off_c, 0, 80, 64
1, 18773, Note_on_c, 0, 81, 41
1, 18774, Note_off_c, 0, 30, 64
1, 18774, Note_on_c, 0, 34, 70
1, 18774, Note_on_c, 0, 54, 40
1, 18774, Note_off_c, 0, 64, 64
1, 18774, Note_off_c, 0, 78, 64
1, 18775, Note_off_c, 0, 34, 64
1, 18775, Note_off_c, 0, 70, 64
1, 18775, Note_off_c, 0, 79, 64
1, 18775, Note_on_c, 0, 91, 30
1, 18776, Note_off_c, 0, 54, 64
1, 18776, Note_on_c, 0, 75, 34
1, 18776, Note_on_c, 0, 78, 35
1, 18776, Note_on_c, 0, 79, 37
1, 18776, Note_on_c, 0, 84, 34
1, 18776, Note_on_c, 0, 86, 28
1, 18776, Note_on_c, 0, 94, 25
1, 18776, Note_on_c, 0, 95, 26
1, 18777, Note_on_c, 0, 70, 41
1, 18777, Note_on_c, 0, 74, 35
1, 18777, Note_off_c, 0, 85, 64
1, 18777, Note_on_c, 0, 92, 24
1, 18778, Note_on_c, 0, 50, 77
1, 18778, Note_off_c, 0, 88, 64
1, 18779, Note_on_c, 0, 46, 88
1, 18779, Note_off_c, 0, 50, 64
1, 18779, Note_off_c, 0, 70, 64
1, 18779, Note_off_c, 0, 74, 64
1, 18779, Note_off_c, 0, 78, 64
1, 18779, Note_off_c, 0, 84, 64
1, 18779, Note_off_c, 0, 91, 64
1, 18779, Note_off_c, 0, 94, 64
1, 18780, Note_on_c, 0, 43, 95
1, 18780, Note_off_c, 0, 46, 64
1, 18780, Note_on_c, 0, 84, 18
1, 18781, Note_on_c, 0, 41, 100
1, 18781, Note_off_c, 0, 43, 64
1, 18781, Note_on_c, 0, 76, 16
1, 18781, Note_off_c, 0, 92, 64
1, 18781, Note_off_c, 0, 95, 64
1, 18782, Note_on_c, 0, 39, 96
1, 18782, Note_off_c, 0, 41, 64
1, 18782, Note_on_c, 0, 83, 20
1, 18783, Note_on_c, 0, 37, 98
1, 18783, Note_off_c, 0, 39, 64
1, 18783, Note_on_c, 0, 78, 14
1, 18783, Note_on_c, 0, 80, 31
1, 18783, Note_off_c, 0, 81, 64
1, 18784, Note_on_c, 0, 36, 97
1, 18784, Note_off_c, 0, 37, 64
1, 18784, Note_off_c, 0, 76, 64
1, 18784, Note_off_c, 0, 79, 64
1, 18784, Note_on_c, 0, 81, 19
1, 18784, Note_on_c, 0, 85, 22
1, 18784, Note_off_c, 0, 86, 64
1, 18784, Note_on_c, 0, 88, 13
1, 18785, Note_on_c, 0, 35, 96
1, 18785, Note_off_c, 0, 36, 64
1, 18785, Note_off_c, 0, 83, 64
1, 18786, Note_on_c, 0, 34, 95
1, 18786, Note_off_c, 0, 35, 64
1, 18786, Note_off_c, 0, 84, 64
1, 18787, Note_on_c, 0, 33, 95
1, 18787, Note_off_c, 0, 34, 64
1, 18787, Note_off_c, 0, 78, 64
1, 18787, Note_off_c, 0, 81, 64
1, 18787, Note_on_c, 0, 84, 12
1, 18788, Note_off_c, 0, 75, 64
1, 18789, Note_on_c, 0, 32, 96
1, 18789, Note_off_c, 0, 33, 64
1, 18789, Note_on_c, 0, 78, 23
1, 18790, Note_on_c, 0, 31, 96
1, 18790, Note_off_c, 0, 32, 64
1, 18790, Note_on_c, 0, 81, 24
1, 18790, Note_on_c, 0, 83, 27
1, 18790, Note_on_c, 0, 87, 15
1, 18790, Note_off_c, 0, 88, 64
1, 18791, Note_on_c, 0, 77, 15
1, 18791, Note_on_c, 0, 79, 31
1, 18791, Note_off_c, 0, 80, 64
1, 18791, Note_off_c, 0, 84, 64
1, 18791, Note_on_c, 0, 88, 23
1, 18791, Note_on_c, 0, 89, 26
1, 18791, Note_on_c, 0, 94, 20
1, 18792, Note_on_c, 0, 30, 88
1, 18792, Note_off_c, 0, 31, 64
1, 18792, Note_off_c, 0, 78, 64
1, 18793, Note_on_c, 0, 84, 29
1, 18793, Note_off_c, 0, 85, 64
1, 18793, Note_on_c, 0, 86, 20
1, 18794, Note_off_c, 0, 30, 64
1, 18794, Note_off_c, 0, 77, 64
1, 18794, Note_off_c, 0, 87, 64
1, 18794, Note_on_c, 0, 90, 19
1, 18795, Note_off_c, 0, 83, 64
1, 18795, Note_on_c, 0, 87, 27
1, 18796, Note_on_c, 0, 37, 68
1, 18796, Note_on_c, 0, 64, 37
1, 18796, Note_on_c, 0, 83, 36
1, 18796, Note_off_c, 0, 84, 64
1, 18796, Note_on_c, 0, 92, 16
1, 18797, Note_on_c, 0, 31, 73
1, 18797, Note_off_c, 0, 37, 64
1, 18797, Note_on_c, 0, 49, 57
1, 18797, Note_on_c, 0, 68, 20
1, 18797, Note_on_c, 0, 78, 32
1, 18797, Note_off_c, 0, 79, 64
1, 18797, Note_off_c, 0, 86, 64
1, 18797, Note_off_c, 0, 88, 64
1, 18797, Note_off_c, 0, 94, 64
1, 18798, Note_on_c, 0, 30, 78
1, 18798, Note_off_c, 0, 31, 64
1, 18798, Note_on_c, 0, 63, 32
1, 18798, Note_off_c, 0, 64, 64
1, 18798, Note_off_c, 0, 81, 64
1, 18798, Note_on_c, 0, 82, 25
1, 18798, Note_off_c, 0, 83, 64
1, 18798, Note_on_c, 0, 84, 31
1, 18798, Note_on_c, 0, 85, 24
1, 18798, Note_on_c, 0, 88, 23
1, 18799, Note_on_c, 0, 29, 80
1, 18799, Note_off_c, 0, 30, 64
1, 18799, Note_on_c, 0, 83, 36
1, 18800, Note_off_c, 0, 49, 64
1, 18800, Note_off_c, 0, 63, 64
1, 18800, Note_off_c, 0, 68, 64
1, 18800, Note_on_c, 0, 76, 33
1, 18800, Note_off_c, 0, 84, 64
1, 18800, Note_off_c, 0, 87, 64
1, 18801, Note_off_c, 0, 29, 64
1, 18801, Note_on_c, 0, 30, 74
1, 18801, Note_on_c, 0, 63, 26
1, 18801, Note_on_c, 0, 66, 17
1, 18801, Note_on_c, 0, 69, 13
1, 18801, Note_off_c, 0, 78, 64
1, 18801, Note_on_c, 0, 79, 21
1, 18801, Note_off_c, 0, 89, 64
1, 18801, Note_off_c, 0, 92, 64
1, 18802, Note_on_c, 0, 78, 25
1, 18802, Note_on_c, 0, 81, 29
1, 18802, Note_off_c, 0, 82, 64
1, 18802, Note_off_c, 0, 90, 64
1, 18803, Note_on_c, 0, 29, 72
1, 18803, Note_off_c, 0, 30, 64
1, 18803, Note_on_c, 0, 74, 22
1, 18803, Note_off_c, 0, 83, 64
1, 18804, Note_off_c, 0, 29, 64
1, 18804, Note_on_c, 0, 30, 70
1, 18804, Note_off_c, 0, 63, 64
1, 18804, Note_off_c, 0, 69, 64
1, 18804, Note_on_c, 0, 83, 29
1, 18805, Note_on_c, 0, 65, 35
1, 18805, Note_off_c, 0, 66, 64
1, 18805, Note_on_c, 0, 71, 19
1, 18805, Note_off_c, 0, 76, 64
1, 18805, Note_off_c, 0, 78, 64
1, 18805, Note_off_c, 0, 79, 64
1, 18806, Note_off_c, 0, 30, 64
1, 18806, Note_on_c, 0, 68, 27
1, 18806, Note_on_c, 0, 79, 27
1, 18806, Note_on_c, 0, 90, 12
1, 18806, Note_on_c, 0, 96, 9
1, 18807, Note_on_c, 0, 36, 72
1, 18807, Note_on_c, 0, 54, 53
1, 18807, Note_off_c, 0, 65, 64
1, 18807, Note_on_c, 0, 73, 16
1, 18807, Note_off_c, 0, 74, 64
1, 18807, Note_on_c, 0, 75, 16
1, 18807, Note_on_c, 0, 86, 20
1, 18807, Note_on_c, 0, 87, 18
1, 18807, Note_off_c, 0, 88, 64
1, 18808, Note_on_c, 0, 30, 80
1, 18808, Note_off_c, 0, 36, 64
1, 18808, Note_off_c, 0, 85, 64
1, 18809, Note_on_c, 0, 29, 82
1, 18809, Note_off_c, 0, 30, 64
1, 18809, Note_off_c, 0, 71, 64
1, 18809, Note_off_c, 0, 83, 64
1, 18809, Note_off_c, 0, 90, 64
1, 18809, Note_off_c, 0, 96, 64
1, 18810, Note_off_c, 0, 54, 64
1, 18810, Note_off_c, 0, 79, 64
1, 18811, Note_off_c, 0, 29, 64
1, 18811, Note_on_c, 0, 32, 74
1, 18811, Note_on_c, 0, 48, 54
1, 18811, Note_off_c, 0, 73, 64
1, 18811, Note_off_c, 0, 75, 64
1, 18811, Note_off_c, 0, 81, 64
1, 18811, Note_off_c, 0, 86, 64
1, 18812, Note_off_c, 0, 32, 64
1, 18812, Note_on_c, 0, 34, 64
1, 18812, Note_on_c, 0, 54, 35
1, 18812, Note_off_c, 0, 68, 64
1, 18812, Note_on_c, 0, 84, 30
1, 18813, Note_on_c, 0, 59, 49
1, 18813, Note_on_c, 0, 74, 44
1, 18813, Note_on_c, 0, 79, 33
1, 18813, Note_on_c, 0, 81, 29
1, 18813, Note_on_c, 0, 85, 24
1, 18813, Note_off_c, 0, 87, 64
1, 18813, Note_on_c, 0, 89, 25
1, 18813, Note_on_c, 0, 92, 29
1, 18813, Note_on_c, 0, 94, 23
1, 18813, Note_on_c, 0, 95, 17
1, 18813, Note_on_c, 0, 99, 20
1, 18814, Note_off_c, 0, 34, 64
1, 18814, Note_off_c, 0, 48, 64
1, 18814, Note_on_c, 0, 53, 69
1, 18814, Note_off_c, 0, 54, 64
1, 18814, Note_on_c, 0, 70, 43
1, 18814, Note_on_c, 0, 77, 37
1, 18814, Note_on_c, 0, 83, 39
1, 18814, Note_off_c, 0, 84, 64
1, 18814, Note_on_c, 0, 87, 32
1, 18815, Note_off_c, 0, 59, 64
1, 18815, Note_on_c, 0, 62, 49
1, 18815, Note_on_c, 0, 69, 34
1, 18815, Note_on_c, 0, 72, 33
1, 18815, Note_off_c, 0, 79, 64
1, 18816, Note_on_c, 0, 48, 83
1, 18816, Note_off_c, 0, 53, 64
1, 18816, Note_off_c, 0, 74, 64
1, 18816, Note_off_c, 0, 81, 64
1, 18816, Note_off_c, 0, 83, 64
1, 18816, Note_off_c, 0, 85, 64
1, 18816, Note_off_c, 0, 89, 64
1, 18816, Note_off_c, 0, 92, 64
1, 18816, Note_off_c, 0, 99, 64
1, 18817, Note_on_c, 0, 45, 93
1, 18817, Note_off_c, 0, 48, 64
1, 18817, Note_off_c, 0, 62, 64
1, 18817, Note_off_c, 0, 69, 64
1, 18817, Note_on_c, 0, 74, 14
1, 18817, Note_on_c, 0, 81, 30
1, 18818, Note_on_c, 0, 42, 99
1, 18818, Note_off_c, 0, 45, 64
1, 18818, Note_off_c, 0, 94, 64
1, 18819, Note_on_c, 0, 40, 98
1, 18819, Note_off_c, 0, 42, 64
1, 18819, Note_off_c, 0, 70, 64
1, 18819, Note_off_c, 0, 72, 64
1, 18819, Note_off_c, 0, 95, 64
1, 18820, Note_on_c, 0, 38, 97
1, 18820, Note_off_c, 0, 40, 64
1, 18820, Note_off_c, 0, 74, 64
1, 18821, Note_on_c, 0, 37, 97
1, 18821, Note_off_c, 0, 38, 64
1, 18821, Note_off_c, 0, 87, 64
1, 18821, Note_on_c, 0, 91, 16
1, 18822, Note_on_c, 0, 35, 96
1, 18822, Note_off_c, 0, 37, 64
1, 18822, Note_off_c, 0, 77, 64
1, 18822, Note_on_c, 0, 78, 14
1, 18822, Note_off_c, 0, 81, 64
1, 18823, Note_on_c, 0, 34, 95
1, 18823, Note_off_c, 0, 35, 64
1, 18824, Note_on_c, 0, 33, 95
1, 18824, Note_off_c, 0, 34, 64
1, 18824, Note_on_c, 0, 85, 24
1, 18824, Note_on_c, 0, 87, 22
1, 18824, Note_on_c, 0, 92, 11
1, 18825, Note_on_c, 0, 84, 20
1, 18826, Note_on_c, 0, 32, 96
1, 18826, Note_off_c, 0, 33, 64
1, 18827, Note_on_c, 0, 31, 97
1, 18827, Note_off_c, 0, 32, 64
1, 18827, Note_off_c, 0, 87, 64
1, 18827, Note_on_c, 0, 88, 26
1, 18827, Note_off_c, 0, 92, 64
1, 18828, Note_off_c, 0, 91, 64
1, 18829, Note_on_c, 0, 30, 91
1, 18829, Note_off_c, 0, 31, 64
1, 18829, Note_off_c, 0, 78, 64
1, 18829, Note_on_c, 0, 80, 11
1, 18829, Note_on_c, 0, 83, 30
1, 18829, Note_off_c, 0, 85, 64
1, 18829, Note_on_c, 0, 89, 28
1, 18830, Note_off_c, 0, 84, 64
1, 18832, Note_off_c, 0, 30, 64
1, 18832, Note_on_c, 0, 85, 11
1, 18832, Note_on_c, 0, 92, 25
1, 18832, Note_on_c, 0, 93, 22
1, 18832, Note_on_c, 0, 94, 28
1, 18833, Note_on_c, 0, 79, 16
1, 18833, Note_off_c, 0, 80, 64
1, 18833, Note_on_c, 0, 81, 20
1, 18833, Note_on_c, 0, 87, 26
1, 18833, Note_on_c, 0, 90, 37
1, 18834, Note_on_c, 0, 30, 78
1, 18834, Note_on_c, 0, 54, 54
1, 18834, Note_on_c, 0, 64, 35
1, 18834, Note_on_c, 0, 84, 21
1, 18835, Note_on_c, 0, 49, 58
1, 18835, Note_on_c, 0, 80, 24
1, 18835, Note_off_c, 0, 85, 64
1, 18835, Note_off_c, 0, 88, 64
1, 18836, Note_on_c, 0, 29, 80
1, 18836, Note_off_c, 0, 30, 64
1, 18836, Note_off_c, 0, 64, 64
1, 18836, Note_off_c, 0, 79, 64
1, 18836, Note_off_c, 0, 87, 64
1, 18836, Note_off_c, 0, 89, 64
1, 18837, Note_off_c, 0, 49, 64
1, 18837, Note_off_c, 0, 54, 64
1, 18837, Note_on_c, 0, 64, 28
1, 18837, Note_off_c, 0, 83, 64
1, 18837, Note_on_c, 0, 88, 32
1, 18837, Note_off_c, 0, 92, 64
1, 18837, Note_off_c, 0, 94, 64
1, 18838, Note_off_c, 0, 81, 64
1, 18838, Note_off_c, 0, 93, 64
1, 18839, Note_off_c, 0, 29, 64
1, 18839, Note_on_c, 0, 30, 74
1, 18839, Note_on_c, 0, 79, 13
1, 18839, Note_off_c, 0, 84, 64
1, 18839, Note_on_c, 0, 91, 37
1, 18840, Note_on_c, 0, 29, 73
1, 18840, Note_off_c, 0, 30, 64
1, 18840, Note_off_c, 0, 64, 64
1, 18840, Note_off_c, 0, 80, 64
1, 18840, Note_on_c, 0, 81, 18
1, 18840, Note_on_c, 0, 86, 38
1, 18841, Note_off_c, 0, 29, 64
1, 18841, Note_on_c, 0, 30, 71
1, 18841, Note_on_c, 0, 77, 15
1, 18841, Note_on_c, 0, 83, 14
1, 18841, Note_on_c, 0, 84, 30
1, 18841, Note_on_c, 0, 93, 43
1, 18841, Note_on_c, 0, 94, 28
1, 18841, Note_on_c, 0, 95, 24
1, 18841, Note_on_c, 0, 96, 31
1, 18842, Note_on_c, 0, 78, 18
1, 18842, Note_off_c, 0, 79, 64
1, 18842, Note_on_c, 0, 87, 30
1, 18842, Note_on_c, 0, 101, 13
1, 18843, Note_on_c, 0, 79, 20
1, 18844, Note_off_c, 0, 30, 64
1, 18844, Note_on_c, 0, 36, 71
1, 18844, Note_on_c, 0, 61, 25
1, 18844, Note_on_c, 0, 64, 28
1, 18844, Note_on_c, 0, 68, 17
1, 18844, Note_off_c, 0, 77, 64
1, 18844, Note_off_c, 0, 83, 64
1, 18844, Note_on_c, 0, 97, 11
1, 18845, Note_on_c, 0, 31, 77
1, 18845, Note_off_c, 0, 36, 64
1, 18845, Note_on_c, 0, 49, 62
1, 18845, Note_on_c, 0, 89, 27
1, 18845, Note_off_c, 0, 96, 64
1, 18846, Note_on_c, 0, 30, 81
1, 18846, Note_off_c, 0, 31, 64
1, 18846, Note_off_c, 0, 79, 64
1, 18846, Note_on_c, 0, 80, 19
1, 18846, Note_off_c, 0, 81, 64
1, 18846, Note_off_c, 0, 86, 64
1, 18846, Note_on_c, 0, 92, 24
1, 18846, Note_off_c, 0, 94, 64
1, 18847, Note_on_c, 0, 29, 81
1, 18847, Note_off_c, 0, 30, 64
1, 18847, Note_off_c, 0, 61, 64
1, 18847, Note_on_c, 0, 63, 53
1, 18847, Note_off_c, 0, 64, 64
1, 18847, Note_off_c, 0, 84, 64
1, 18847, Note_on_c, 0, 94, 21
1, 18848, Note_off_c, 0, 29, 64
1, 18848, Note_on_c, 0, 30, 77
1, 18848, Note_on_c, 0, 48, 59
1, 18848, Note_off_c, 0, 49, 64
1, 18848, Note_off_c, 0, 88, 64
1, 18848, Note_off_c, 0, 90, 64
1, 18848, Note_off_c, 0, 91, 64
1, 18848, Note_off_c, 0, 95, 64
1, 18848, Note_off_c, 0, 97, 64
1, 18848, Note_off_c, 0, 101, 64
1, 18849, Note_off_c, 0, 30, 64
1, 18849, Note_on_c, 0, 34, 71
1, 18849, Note_on_c, 0, 54, 42
1, 18849, Note_off_c, 0, 68, 64
1, 18849, Note_off_c, 0, 78, 64
1, 18849, Note_off_c, 0, 80, 64
1, 18849, Note_off_c, 0, 93, 64
1, 18850, Note_off_c, 0, 34, 64
1, 18850, Note_off_c, 0, 48, 64
1, 18850, Note_on_c, 0, 78, 34
1, 18850, Note_on_c, 0, 82, 33
1, 18850, Note_on_c, 0, 84, 40
1, 18850, Note_on_c, 0, 90, 35
1, 18850, Note_on_c, 0, 93, 27
1, 18851, Note_off_c, 0, 54, 64
1, 18851, Note_on_c, 0, 74, 36
1, 18851, Note_on_c, 0, 83, 30
1, 18851, Note_on_c, 0, 91, 35
1, 18852, Note_on_c, 0, 69, 44
1, 18852, Note_on_c, 0, 77, 35
1, 18852, Note_off_c, 0, 78, 64
1, 18852, Note_off_c, 0, 82, 64
1, 18853, Note_on_c, 0, 50, 77
1, 18853, Note_off_c, 0, 74, 64
1, 18853, Note_off_c, 0, 83, 64
1, 18853, Note_off_c, 0, 84, 64
1, 18853, Note_off_c, 0, 89, 64
1, 18853, Note_off_c, 0, 91, 64
1, 18853, Note_off_c, 0, 94, 64
1, 18854, Note_on_c, 0, 45, 90
1, 18854, Note_off_c, 0, 50, 64
1, 18854, Note_off_c, 0, 69, 64
1, 18854, Note_off_c, 0, 77, 64
1, 18854, Note_off_c, 0, 93, 64
1, 18855, Note_on_c, 0, 42, 96
1, 18855, Note_off_c, 0, 45, 64
1, 18855, Note_off_c, 0, 90, 64
1, 18855, Note_off_c, 0, 92, 64
1, 18856, Note_on_c, 0, 41, 100
1, 18856, Note_off_c, 0, 42, 64
1, 18856, Note_off_c, 0, 63, 64
1, 18856, Note_off_c, 0, 87, 64
1, 18857, Note_on_c, 0, 39, 97
1, 18857, Note_off_c, 0, 41, 64
1, 18857, Note_on_c, 0, 81, 18
1, 18858, Note_on_c, 0, 37, 98
1, 18858, Note_off_c, 0, 39, 64
1, 18859, Note_on_c, 0, 36, 97
1, 18859, Note_off_c, 0, 37, 64
1, 18860, Note_on_c, 0, 35, 96
1, 18860, Note_off_c, 0, 36, 64
1, 18860, Note_off_c, 0, 81, 64
1, 18861, Note_on_c, 0, 34, 96
1, 18861, Note_off_c, 0, 35, 64
1, 18861, Note_on_c, 0, 73, 43
1, 18861, Note_on_c, 0, 79, 42
1, 18862, Note_on_c, 0, 33, 95
1, 18862, Note_off_c, 0, 34, 64
1, 18862, Note_on_c, 0, 76, 43
1, 18863, Note_on_c, 0, 78, 43
1, 18863, Note_off_c, 0, 79, 64
1, 18864, Note_on_c, 0, 32, 96
1, 18864, Note_off_c, 0, 33, 64
1, 18864, Note_on_c, 0, 75, 45
1, 18865, Note_on_c, 0, 31, 96
1, 18865, Note_off_c, 0, 32, 64
1, 18865, Note_off_c, 0, 73, 64
1, 18865, Note_off_c, 0, 76, 64
1, 18865, Note_on_c, 0, 82, 18
1, 18865, Note_on_c, 0, 89, 13
1, 18866, Note_on_c, 0, 71, 39
1, 18866, Note_on_c, 0, 74, 49
1, 18866, Note_off_c, 0, 75, 64
1, 18866, Note_on_c, 0, 80, 31
1, 18867, Note_on_c, 0, 30, 87
1, 18867, Note_off_c, 0, 31, 64
1, 18867, Note_on_c, 0, 77, 47
1, 18868, Note_off_c, 0, 78, 64
1, 18868, Note_off_c, 0, 80, 64
1, 18868, Note_on_c, 0, 81, 28
1, 18868, Note_off_c, 0, 82, 64
1, 18868, Note_on_c, 0, 84, 22
1, 18868, Note_on_c, 0, 88, 19
1, 18868, Note_off_c, 0, 89, 64
1, 18869, Note_off_c, 0, 71, 64
1, 18869, Note_on_c, 0, 72, 39
1, 18869, Note_off_c, 0, 74, 64
1, 18869, Note_on_c, 0, 75, 38
1, 18870, Note_off_c, 0, 30, 64
1, 18870, Note_on_c, 0, 78, 33
1, 18870, Note_on_c, 0, 95, 16
1, 18871, Note_on_c, 0, 37, 70
1, 18871, Note_on_c, 0, 61, 30
1, 18871, Note_on_c, 0, 64, 30
1, 18871, Note_off_c, 0, 75, 64
1, 18871, Note_on_c, 0, 76, 36
1, 18871, Note_off_c, 0, 77, 64
1, 18871, Note_off_c, 0, 88, 64
1, 18872, Note_on_c, 0, 30, 79
1, 18872, Note_off_c, 0, 37, 64
1, 18872, Note_on_c, 0, 49, 59
1, 18872, Note_on_c, 0, 70, 33
1, 18872, Note_off_c, 0, 72, 64
1, 18872, Note_on_c, 0, 73, 34
1, 18872, Note_on_c, 0, 80, 22
1, 18872, Note_on_c, 0, 83, 13
1, 18873, Note_on_c, 0, 63, 31
1, 18873, Note_off_c, 0, 64, 64
1, 18873, Note_on_c, 0, 74, 30
1, 18873, Note_off_c, 0, 78, 64
1, 18873, Note_on_c, 0, 79, 28
1, 18873, Note_off_c, 0, 84, 64
1, 18873, Note_off_c, 0, 95, 64
1, 18874, Note_on_c, 0, 29, 79
1, 18874, Note_off_c, 0, 30, 64
1, 18874, Note_off_c, 0, 73, 64
1, 18874, Note_off_c, 0, 81, 64
1, 18875, Note_off_c, 0, 29, 64
1, 18875, Note_on_c, 0, 30, 77
1, 18875, Note_off_c, 0, 74, 64
1, 18875, Note_on_c, 0, 75, 47
1, 18875, Note_on_c, 0, 81, 26
1, 18875, Note_on_c, 0, 89, 14
1, 18876, Note_off_c, 0, 61, 64
1, 18876, Note_off_c, 0, 76, 64
1, 18876, Note_on_c, 0, 77, 30
1, 18876, Note_off_c, 0, 80, 64
1, 18876, Note_off_c, 0, 83, 64
1, 18877, Note_on_c, 0, 29, 74
1, 18877, Note_off_c, 0, 30, 64
1, 18877, Note_off_c, 0, 49, 64
1, 18877, Note_off_c, 0, 63, 64
1, 18877, Note_on_c, 0, 78, 34
1, 18878, Note_off_c, 0, 77, 64
1, 18878, Note_off_c, 0, 79, 64
1, 18878, Note_off_c, 0, 89, 64
1, 18879, Note_off_c, 0, 29, 64
1, 18879, Note_on_c, 0, 30, 69
1, 18879, Note_on_c, 0, 48, 40
1, 18879, Note_off_c, 0, 70, 64
1, 18880, Note_on_c, 0, 79, 34
1, 18881, Note_off_c, 0, 30, 64
1, 18881, Note_off_c, 0, 48, 64
1, 18881, Note_on_c, 0, 61, 31
1, 18881, Note_on_c, 0, 70, 24
1, 18881, Note_off_c, 0, 81, 64
1, 18881, Note_on_c, 0, 82, 35
1, 18882, Note_on_c, 0, 36, 71
1, 18882, Note_on_c, 0, 77, 26
1, 18882, Note_off_c, 0, 78, 64
1, 18883, Note_on_c, 0, 30, 80
1, 18883, Note_off_c, 0, 36, 64
1, 18883, Note_on_c, 0, 73, 31
1, 18884, Note_on_c, 0, 29, 81
1, 18884, Note_off_c, 0, 30, 64
1, 18884, Note_off_c, 0, 75, 64
1, 18884, Note_on_c, 0, 76, 49
1, 18885, Note_off_c, 0, 70, 64
1, 18885, Note_off_c, 0, 73, 64
1, 18885, Note_on_c, 0, 74, 46
1, 18885, Note_off_c, 0, 77, 64
1, 18885, Note_on_c, 0, 80, 33
1, 18886, Note_off_c, 0, 29, 64
1, 18886, Note_on_c, 0, 33, 74
1, 18886, Note_on_c, 0, 54, 43
1, 18886, Note_off_c, 0, 79, 64
1, 18886, Note_on_c, 0, 87, 25
1, 18887, Note_off_c, 0, 33, 64
1, 18887, Note_on_c, 0, 34, 64
1, 18887, Note_off_c, 0, 61, 64
1, 18888, Note_on_c, 0, 71, 40
1, 18888, Note_on_c, 0, 77, 42
1, 18888, Note_on_c, 0, 81, 38
1, 18888, Note_on_c, 0, 85, 35
1, 18888, Note_on_c, 0, 90, 36
1, 18889, Note_off_c, 0, 34, 64
1, 18889, Note_off_c, 0, 54, 64
1, 18889, Note_on_c, 0, 73, 46
1, 18889, Note_off_c, 0, 74, 64
1, 18889, Note_off_c, 0, 76, 64
1, 18889, Note_on_c, 0, 79, 36
1, 18889, Note_off_c, 0, 80, 64
1, 18889, Note_off_c, 0, 87, 64
1, 18889, Note_on_c, 0, 88, 29
1, 18890, Note_on_c, 0, 50, 72
1, 18890, Note_off_c, 0, 71, 64
1, 18890, Note_on_c, 0, 75, 35
1, 18890, Note_off_c, 0, 77, 64
1, 18890, Note_on_c, 0, 78, 35
1, 18890, Note_off_c, 0, 82, 64
1, 18891, Note_on_c, 0, 48, 85
1, 18891, Note_off_c, 0, 50, 64
1, 18891, Note_off_c, 0, 79, 64
1, 18891, Note_off_c, 0, 85, 64
1, 18891, Note_off_c, 0, 88, 64
1, 18891, Note_off_c, 0, 90, 64
1, 18892, Note_on_c, 0, 45, 94
1, 18892, Note_off_c, 0, 48, 64
1, 18892, Note_on_c, 0, 70, 26
1, 18892, Note_on_c, 0, 72, 34
1, 18892, Note_off_c, 0, 73, 64
1, 18892, Note_on_c, 0, 77, 29
1, 18892, Note_off_c, 0, 78, 64
1, 18893, Note_on_c, 0, 42, 99
1, 18893, Note_off_c, 0, 45, 64
1, 18893, Note_on_c, 0, 79, 20
1, 18893, Note_off_c, 0, 81, 64
1, 18894, Note_on_c, 0, 40, 97
1, 18894, Note_off_c, 0, 42, 64
1, 18894, Note_off_c, 0, 72, 64
1, 18894, Note_on_c, 0, 74, 40
1, 18895, Note_on_c, 0, 38, 97
1, 18895, Note_off_c, 0, 40, 64
1, 18895, Note_off_c, 0, 70, 64
1, 18895, Note_off_c, 0, 75, 64
1, 18895, Note_on_c, 0, 80, 13
1, 18896, Note_on_c, 0, 36, 97
1, 18896, Note_off_c, 0, 38, 64
1, 18896, Note_on_c, 0, 75, 36
1, 18897, Note_on_c, 0, 35, 96
1, 18897, Note_off_c, 0, 36, 64
1, 18897, Note_on_c, 0, 70, 14
1, 18897, Note_off_c, 0, 77, 64
1, 18897, Note_off_c, 0, 79, 64
1, 18898, Note_on_c, 0, 34, 95
1, 18898, Note_off_c, 0, 35, 64
1, 18898, Note_off_c, 0, 74, 64
1, 18899, Note_on_c, 0, 33, 95
1, 18899, Note_off_c, 0, 34, 64
1, 18899, Note_off_c, 0, 80, 64
1, 18900, Note_off_c, 0, 70, 64
1, 18900, Note_off_c, 0, 75, 64
1, 18901, Note_on_c, 0, 32, 96
1, 18901, Note_off_c, 0, 33, 64
1, 18901, Note_on_c, 0, 49, 32
1, 18902, Note_on_c, 0, 31, 96
1, 18902, Note_off_c, 0, 32, 64
1, 18903, Note_on_c, 0, 48, 29
1, 18903, Note_off_c, 0, 49, 64
1, 18904, Note_on_c, 0, 30, 90
1, 18904, Note_off_c, 0, 31, 64
1, 18905, Note_off_c, 0, 48, 64
1, 18907, Note_off_c, 0, 30, 64
1, 18907, Note_on_c, 0, 43, 66
1, 18908, Note_on_c, 0, 68, 17
1, 18908, Note_on_c, 0, 71, 20
1, 18908, Note_on_c, 0, 84, 14
1, 18908, Note_on_c, 0, 85, 10
1, 18908, Note_on_c, 0, 89, 12
1, 18909, Note_on_c, 0, 31, 78
1, 18909, Note_off_c, 0, 43, 64
1, 18909, Note_on_c, 0, 61, 31
1, 18909, Note_on_c, 0, 77, 21
1, 18910, Note_on_c, 0, 49, 57
1, 18910, Note_on_c, 0, 75, 18
1, 18911, Note_on_c, 0, 29, 79
1, 18911, Note_off_c, 0, 31, 64
1, 18911, Note_on_c, 0, 63, 26
1, 18911, Note_on_c, 0, 70, 12
1, 18911, Note_off_c, 0, 71, 64
1, 18911, Note_off_c, 0, 85, 64
1, 18911, Note_off_c, 0, 89, 64
1, 18912, Note_off_c, 0, 49, 64
1, 18912, Note_off_c, 0, 61, 64
1, 18912, Note_off_c, 0, 68, 64
1, 18913, Note_off_c, 0, 77, 64
1, 18913, Note_off_c, 0, 84, 64
1, 18914, Note_off_c, 0, 29, 64
1, 18914, Note_on_c, 0, 30, 73
1, 18914, Note_off_c, 0, 63, 64
1, 18914, Note_off_c, 0, 70, 64
1, 18915, Note_on_c, 0, 29, 73
1, 18915, Note_off_c, 0, 30, 64
1, 18916, Note_off_c, 0, 29, 64
1, 18916, Note_on_c, 0, 30, 71
1, 18916, Note_off_c, 0, 75, 64
1, 18916, Note_on_c, 0, 76, 22
1, 18916, Note_on_c, 0, 80, 16
1, 18918, Note_on_c, 0, 66, 17
1, 18918, Note_on_c, 0, 85, 19
1, 18919, Note_off_c, 0, 30, 64
1, 18919, Note_on_c, 0, 36, 70
1, 18919, Note_on_c, 0, 61, 33
1, 18919, Note_on_c, 0, 64, 31
1, 18919, Note_on_c, 0, 68, 16
1, 18919, Note_on_c, 0, 83, 23
1, 18920, Note_on_c, 0, 30, 80
1, 18920, Note_off_c, 0, 36, 64
1, 18920, Note_on_c, 0, 49, 62
1, 18920, Note_on_c, 0, 70, 14
1, 18920, Note_off_c, 0, 76, 64
1, 18921, Note_off_c, 0, 66, 64
1, 18921, Note_on_c, 0, 74, 29
1, 18921, Note_on_c, 0, 78, 15
1, 18921, Note_off_c, 0, 85, 64
1, 18922, Note_on_c, 0, 29, 80
1, 18922, Note_off_c, 0, 30, 64
1, 18922, Note_off_c, 0, 64, 64
1, 18922, Note_off_c, 0, 83, 64
1, 18923, Note_off_c, 0, 29, 64
1, 18923, Note_on_c, 0, 30, 77
1, 18923, Note_on_c, 0, 48, 58
1, 18923, Note_off_c, 0, 49, 64
1, 18923, Note_off_c, 0, 61, 64
1, 18923, Note_off_c, 0, 68, 64
1, 18923, Note_off_c, 0, 70, 64
1, 18923, Note_off_c, 0, 80, 64
1, 18923, Note_on_c, 0, 86, 33
1, 18924, Note_off_c, 0, 30, 64
1, 18924, Note_on_c, 0, 34, 70
1, 18924, Note_on_c, 0, 54, 39
1, 18924, Note_on_c, 0, 63, 41
1, 18924, Note_off_c, 0, 74, 64
1, 18924, Note_on_c, 0, 76, 38
1, 18924, Note_off_c, 0, 78, 64
1, 18925, Note_off_c, 0, 34, 64
1, 18925, Note_off_c, 0, 48, 64
1, 18925, Note_on_c, 0, 71, 40
1, 18925, Note_on_c, 0, 74, 36
1, 18925, Note_on_c, 0, 77, 36
1, 18925, Note_on_c, 0, 82, 31
1, 18925, Note_on_c, 0, 85, 34
1, 18925, Note_on_c, 0, 87, 29
1, 18925, Note_on_c, 0, 91, 32
1, 18925, Note_on_c, 0, 92, 26
1, 18926, Note_off_c, 0, 54, 64
1, 18927, Note_on_c, 0, 54, 65
1, 18927, Note_off_c, 0, 63, 64
1, 18927, Note_on_c, 0, 70, 39
1, 18927, Note_off_c, 0, 71, 64
1, 18927, Note_off_c, 0, 74, 64
1, 18927, Note_on_c, 0, 75, 33
1, 18927, Note_off_c, 0, 76, 64
1, 18927, Note_on_c, 0, 78, 30
1, 18927, Note_off_c, 0, 91, 64
1, 18928, Note_on_c, 0, 49, 79
1, 18928, Note_off_c, 0, 54, 64
1, 18928, Note_off_c, 0, 82, 64
1, 18928, Note_off_c, 0, 85, 64
1, 18928, Note_off_c, 0, 86, 64
1, 18928, Note_off_c, 0, 87, 64
1, 18928, Note_off_c, 0, 92, 64
1, 18929, Note_on_c, 0, 45, 91
1, 18929, Note_off_c, 0, 49, 64
1, 18929, Note_off_c, 0, 70, 64
1, 18929, Note_off_c, 0, 77, 64
1, 18929, Note_off_c, 0, 78, 64
1, 18930, Note_on_c, 0, 42, 97
1, 18930, Note_off_c, 0, 45, 64
1, 18930, Note_off_c, 0, 75, 64
1, 18931, Note_on_c, 0, 41, 99
1, 18931, Note_off_c, 0, 42, 64
1, 18932, Note_on_c, 0, 39, 97
1, 18932, Note_off_c, 0, 41, 64
1, 18933, Note_on_c, 0, 37, 98
1, 18933, Note_off_c, 0, 39, 64
1, 18934, Note_on_c, 0, 36, 97
1, 18934, Note_off_c, 0, 37, 64
1, 18935, Note_on_c, 0, 35, 96
1, 18935, Note_off_c, 0, 36, 64
1, 18936, Note_on_c, 0, 34, 95
1, 18936, Note_off_c, 0, 35, 64
1, 18937, Note_on_c, 0, 33, 95
1, 18937, Note_off_c, 0, 34, 64
1, 18939, Note_on_c, 0, 32, 96
1, 18939, Note_off_c, 0, 33, 64
1, 18940, Note_on_c, 0, 31, 95
1, 18940, Note_off_c, 0, 32, 64
1, 18942, Note_on_c, 0, 30, 86
1, 18942, Note_off_c, 0, 31, 64
1, 18944, Note_on_c, 0, 74, 14
1, 18945, Note_off_c, 0, 30, 64
1, 18945, Note_on_c, 0, 64, 31
1, 18945, Note_on_c, 0, 68, 27
1, 18946, Note_on_c, 0, 37, 72
1, 18946, Note_on_c, 0, 61, 28
1, 18946, Note_on_c, 0, 71, 13
1, 18946, Note_on_c, 0, 83, 22
1, 18947, Note_on_c, 0, 31, 75
1, 18947, Note_off_c, 0, 37, 64
1, 18947, Note_on_c, 0, 49, 59
1, 18948, Note_on_c, 0, 30, 78
1, 18948, Note_off_c, 0, 31, 64
1, 18949, Note_on_c, 0, 29, 77
1, 18949, Note_off_c, 0, 30, 64
1, 18949, Note_off_c, 0, 61, 64
1, 18950, Note_off_c, 0, 29, 64
1, 18950, Note_on_c, 0, 30, 75
1, 18950, Note_off_c, 0, 64, 64
1, 18950, Note_off_c, 0, 71, 64
1, 18950, Note_on_c, 0, 77, 16
1, 18951, Note_off_c, 0, 74, 64
1, 18952, Note_off_c, 0, 49, 64
1, 18952, Note_on_c, 0, 61, 25
1, 18952, Note_on_c, 0, 75, 13
1, 18952, Note_off_c, 0, 83, 64
1, 18953, Note_on_c, 0, 86, 19
1, 18955, Note_off_c, 0, 30, 64
1, 18955, Note_off_c, 0, 61, 64
1, 18955, Note_on_c, 0, 73, 19
1, 18955, Note_off_c, 0, 75, 64
1, 18955, Note_on_c, 0, 102, 11
1, 18956, Note_on_c, 0, 42, 67
1, 18956, Note_off_c, 0, 77, 64
1, 18956, Note_on_c, 0, 82, 18
1, 18957, Note_on_c, 0, 41, 69
1, 18957, Note_off_c, 0, 42, 64
1, 18957, Note_on_c, 0, 77, 20
1, 18957, Note_on_c, 0, 83, 11
1, 18958, Note_on_c, 0, 30, 76
1, 18959, Note_on_c, 0, 29, 77
1, 18959, Note_off_c, 0, 30, 64
1, 18959, Note_off_c, 0, 41, 64
1, 18959, Note_on_c, 0, 71, 15
1, 18959, Note_on_c, 0, 78, 10
1, 18959, Note_off_c, 0, 86, 64
1, 18959, Note_off_c, 0, 102, 64
1, 18960, Note_off_c, 0, 29, 64
1, 18960, Note_on_c, 0, 30, 75
1, 18960, Note_off_c, 0, 73, 64
1, 18960, Note_on_c, 0, 74, 14
1, 18960, Note_off_c, 0, 77, 64
1, 18960, Note_off_c, 0, 82, 64
1, 18961, Note_off_c, 0, 30, 64
1, 18961, Note_on_c, 0, 33, 72
1, 18961, Note_on_c, 0, 48, 52
1, 18961, Note_on_c, 0, 54, 42
1, 18961, Note_off_c, 0, 83, 64
1, 18961, Note_on_c, 0, 84, 29
1, 18962, Note_off_c, 0, 33, 64
1, 18962, Note_on_c, 0, 34, 63
1, 18962, Note_on_c, 0, 63, 30
1, 18962, Note_off_c, 0, 68, 64
1, 18962, Note_off_c, 0, 71, 64
1, 18963, Note_off_c, 0, 54, 64
1, 18963, Note_on_c, 0, 59, 53
1, 18963, Note_off_c, 0, 74, 64
1, 18963, Note_on_c, 0, 77, 36
1, 18963, Note_off_c, 0, 78, 64
1, 18963, Note_on_c, 0, 79, 36
1, 18963, Note_on_c, 0, 86, 32
1, 18963, Note_on_c, 0, 88, 24
1, 18963, Note_on_c, 0, 90, 28
1, 18963, Note_on_c, 0, 92, 24
1, 18964, Note_off_c, 0, 34, 64
1, 18964, Note_off_c, 0, 48, 64
1, 18964, Note_off_c, 0, 63, 64
1, 18964, Note_on_c, 0, 73, 42
1, 18964, Note_on_c, 0, 83, 35
1, 18964, Note_off_c, 0, 84, 64
1, 18965, Note_on_c, 0, 50, 73
1, 18965, Note_off_c, 0, 59, 64
1, 18965, Note_off_c, 0, 77, 64
1, 18966, Note_on_c, 0, 48, 85
1, 18966, Note_off_c, 0, 50, 64
1, 18966, Note_off_c, 0, 73, 64
1, 18966, Note_off_c, 0, 79, 64
1, 18966, Note_off_c, 0, 83, 64
1, 18966, Note_off_c, 0, 86, 64
1, 18966, Note_off_c, 0, 88, 64
1, 18966, Note_off_c, 0, 90, 64
1, 18966, Note_off_c, 0, 92, 64
1, 18967, Note_on_c, 0, 45, 94
1, 18967, Note_off_c, 0, 48, 64
1, 18968, Note_on_c, 0, 42, 99
1, 18968, Note_off_c, 0, 45, 64
1, 18969, Note_on_c, 0, 40, 97
1, 18969, Note_off_c, 0, 42, 64
1, 18970, Note_on_c, 0, 38, 97
1, 18970, Note_off_c, 0, 40, 64
1, 18971, Note_on_c, 0, 36, 96
1, 18971, Note_off_c, 0, 38, 64
1, 18972, Note_on_c, 0, 35, 95
1, 18972, Note_off_c, 0, 36, 64
1, 18973, Note_on_c, 0, 34, 94
1, 18973, Note_off_c, 0, 35, 64
1, 18974, Note_on_c, 0, 33, 94
1, 18974, Note_off_c, 0, 34, 64
1, 18976, Note_on_c, 0, 32, 94
1, 18976, Note_off_c, 0, 33, 64
1, 18976, Note_on_c, 0, 49, 30
1, 18978, Note_on_c, 0, 31, 92
1, 18978, Note_off_c, 0, 32, 64
1, 18979, Note_off_c, 0, 49, 64
1, 18980, Note_on_c, 0, 30, 80
1, 18980, Note_off_c, 0, 31, 64
1, 18982, Note_off_c, 0, 30, 64
1, 18982, Note_on_c, 0, 63, 47
1, 18982, Note_on_c, 0, 68, 34
1, 18982, Note_on_c, 0, 78, 16
1, 18982, Note_on_c, 0, 86, 14
1, 18982, Note_on_c, 0, 87, 11
1, 18983, Note_on_c, 0, 42, 65
1, 18983, Note_on_c, 0, 91, 10
1, 18984, Note_on_c, 0, 31, 74
1, 18984, Note_off_c, 0, 42, 64
1, 18984, Note_on_c, 0, 61, 45
1, 18984, Note_off_c, 0, 63, 64
1, 18984, Note_on_c, 0, 71, 16
1, 18985, Note_off_c, 0, 78, 64
1, 18985, Note_off_c, 0, 86, 64
1, 18985, Note_off_c, 0, 87, 64
1, 18986, Note_on_c, 0, 30, 74
1, 18986, Note_off_c, 0, 31, 64
1, 18986, Note_off_c, 0, 91, 64
1, 18987, Note_off_c, 0, 61, 64
1, 18987, Note_off_c, 0, 68, 64
1, 18987, Note_on_c, 0, 70, 19
1, 18987, Note_off_c, 0, 71, 64
1, 18988, Note_on_c, 0, 29, 71
1, 18988, Note_off_c, 0, 30, 64
1, 18988, Note_on_c, 0, 63, 31
1, 18988, Note_on_c, 0, 85, 16
1, 18989, Note_on_c, 0, 78, 13
1, 18990, Note_off_c, 0, 70, 64
1, 18992, Note_off_c, 0, 29, 64
1, 18992, Note_on_c, 0, 49, 56
1, 18992, Note_off_c, 0, 63, 64
1, 18992, Note_on_c, 0, 64, 45
1, 18992, Note_on_c, 0, 74, 19
1, 18993, Note_on_c, 0, 80, 14
1, 18993, Note_on_c, 0, 82, 13
1, 18993, Note_on_c, 0, 84, 18
1, 18993, Note_on_c, 0, 98, 14
1, 18994, Note_on_c, 0, 41, 71
1, 18994, Note_off_c, 0, 49, 64
1, 18995, Note_on_c, 0, 31, 70
1, 18995, Note_off_c, 0, 41, 64
1, 18995, Note_on_c, 0, 49, 62
1, 18995, Note_on_c, 0, 70, 18
1, 18995, Note_on_c, 0, 77, 17
1, 18995, Note_off_c, 0, 78, 64
1, 18995, Note_off_c, 0, 85, 64
1, 18996, Note_on_c, 0, 30, 73
1, 18996, Note_off_c, 0, 31, 64
1, 18996, Note_on_c, 0, 66, 33
1, 18996, Note_off_c, 0, 80, 64
1, 18996, Note_off_c, 0, 82, 64
1, 18996, Note_off_c, 0, 84, 64
1, 18996, Note_off_c, 0, 98, 64
1, 18997, Note_on_c, 0, 29, 73
1, 18997, Note_off_c, 0, 30, 64
1, 18997, Note_off_c, 0, 64, 64
1, 18997, Note_off_c, 0, 74, 64
1, 18998, Note_off_c, 0, 29, 64
1, 18998, Note_on_c, 0, 30, 70
1, 18998, Note_on_c, 0, 48, 58
1, 18998, Note_off_c, 0, 49, 64
1, 18998, Note_off_c, 0, 66, 64
1, 18999, Note_off_c, 0, 30, 64
1, 18999, Note_on_c, 0, 35, 66
1, 18999, Note_on_c, 0, 54, 39
1, 18999, Note_on_c, 0, 61, 40
1, 19000, Note_off_c, 0, 35, 64
1, 19000, Note_off_c, 0, 48, 64
1, 19000, Note_on_c, 0, 66, 47
1, 19000, Note_on_c, 0, 69, 46
1, 19000, Note_off_c, 0, 70, 64
1, 19000, Note_on_c, 0, 76, 37
1, 19000, Note_on_c, 0, 79, 36
1, 19000, Note_on_c, 0, 82, 31
1, 19000, Note_on_c, 0, 83, 35
1, 19000, Note_on_c, 0, 86, 30
1, 19000, Note_on_c, 0, 89, 31
1, 19000, Note_on_c, 0, 92, 27
1, 19001, Note_off_c, 0, 54, 64
1, 19001, Note_on_c, 0, 73, 41
1, 19001, Note_off_c, 0, 77, 64
1, 19002, Note_on_c, 0, 54, 68
1, 19002, Note_off_c, 0, 61, 64
1, 19002, Note_on_c, 0, 62, 49
1, 19002, Note_off_c, 0, 82, 64
1, 19002, Note_off_c, 0, 86, 64
1, 19003, Note_on_c, 0, 49, 80
1, 19003, Note_off_c, 0, 54, 64
1, 19003, Note_off_c, 0, 76, 64
1, 19003, Note_off_c, 0, 79, 64
1, 19003, Note_off_c, 0, 83, 64
1, 19003, Note_off_c, 0, 89, 64
1, 19003, Note_off_c, 0, 92, 64
1, 19004, Note_on_c, 0, 45, 91
1, 19004, Note_off_c, 0, 49, 64
1, 19004, Note_off_c, 0, 62, 64
1, 19004, Note_off_c, 0, 66, 64
1, 19004, Note_off_c, 0, 69, 64
1, 19004, Note_off_c, 0, 73, 64
1, 19005, Note_on_c, 0, 42, 97
1, 19005, Note_off_c, 0, 45, 64
1, 19006, Note_on_c, 0, 41, 99
1, 19006, Note_off_c, 0, 42, 64
1, 19007, Note_on_c, 0, 38, 96
1, 19007, Note_off_c, 0, 41, 64
1, 19008, Note_on_c, 0, 37, 96
1, 19008, Note_off_c, 0, 38, 64
1, 19009, Note_on_c, 0, 36, 95
1, 19009, Note_off_c, 0, 37, 64
1, 19010, Note_on_c, 0, 35, 93
1, 19010, Note_off_c, 0, 36, 64
1, 19011, Note_on_c, 0, 34, 92
1, 19011, Note_off_c, 0, 35, 64
1, 19012, Note_on_c, 0, 33, 91
1, 19012, Note_off_c, 0, 34, 64
1, 19012, Note_on_c, 0, 48, 36
1, 19013, Note_on_c, 0, 32, 91
1, 19013, Note_off_c, 0, 33, 64
1, 19014, Note_off_c, 0, 48, 64
1, 19014, Note_on_c, 0, 49, 34
1, 19015, Note_on_c, 0, 31, 90
1, 19015, Note_off_c, 0, 32, 64
1, 19016, Note_off_c, 0, 49, 64
1, 19017, Note_on_c, 0, 30, 80
1, 19017, Note_off_c, 0, 31, 64
1, 19017, Note_on_c, 0, 64, 23
1, 19017, Note_on_c, 0, 68, 13
1, 19020, Note_off_c, 0, 30, 64
1, 19020, Note_off_c, 0, 64, 64
1, 19020, Note_off_c, 0, 68, 64
1, 19020, Note_on_c, 0, 78, 27
1, 19020, Note_on_c, 0, 86, 16
1, 19020, Note_on_c, 0, 87, 13
1, 19021, Note_on_c, 0, 41, 68
1, 19021, Note_on_c, 0, 54, 57
1, 19021, Note_on_c, 0, 64, 39
1, 19021, Note_on_c, 0, 70, 33
1, 19021, Note_on_c, 0, 80, 16
1, 19021, Note_on_c, 0, 85, 24
1, 19021, Note_on_c, 0, 98, 18
1, 19021, Note_on_c, 0, 99, 21
1, 19022, Note_on_c, 0, 31, 67
1, 19022, Note_off_c, 0, 41, 64
1, 19023, Note_on_c, 0, 30, 67
1, 19023, Note_off_c, 0, 31, 64
1, 19023, Note_on_c, 0, 49, 58
1, 19023, Note_on_c, 0, 71, 17
1, 19023, Note_on_c, 0, 73, 14
1, 19024, Note_off_c, 0, 54, 64
1, 19024, Note_off_c, 0, 64, 64
1, 19024, Note_off_c, 0, 70, 64
1, 19024, Note_off_c, 0, 87, 64
1, 19024, Note_off_c, 0, 99, 64
1, 19025, Note_on_c, 0, 48, 57
1, 19025, Note_off_c, 0, 49, 64
1, 19025, Note_on_c, 0, 68, 28
1, 19025, Note_off_c, 0, 78, 64
1, 19025, Note_off_c, 0, 80, 64
1, 19025, Note_off_c, 0, 85, 64
1, 19025, Note_off_c, 0, 98, 64
1, 19026, Note_off_c, 0, 73, 64
1, 19027, Note_on_c, 0, 29, 60
1, 19027, Note_off_c, 0, 30, 64
1, 19027, Note_on_c, 0, 64, 43
1, 19028, Note_off_c, 0, 48, 64
1, 19028, Note_off_c, 0, 68, 64
1, 19028, Note_off_c, 0, 71, 64
1, 19028, Note_on_c, 0, 85, 25
1, 19029, Note_off_c, 0, 29, 64
1, 19029, Note_on_c, 0, 69, 29
1, 19030, Note_on_c, 0, 77, 17
1, 19030, Note_on_c, 0, 91, 18
1, 19031, Note_on_c, 0, 44, 65
1, 19031, Note_on_c, 0, 68, 31
1, 19031, Note_off_c, 0, 69, 64
1, 19031, Note_on_c, 0, 78, 23
1, 19031, Note_on_c, 0, 81, 14
1, 19031, Note_off_c, 0, 86, 64
1, 19032, Note_on_c, 0, 41, 66
1, 19032, Note_off_c, 0, 44, 64
1, 19032, Note_on_c, 0, 61, 34
1, 19032, Note_on_c, 0, 86, 20
1, 19033, Note_on_c, 0, 30, 69
1, 19033, Note_off_c, 0, 77, 64
1, 19033, Note_off_c, 0, 85, 64
1, 19034, Note_on_c, 0, 29, 69
1, 19034, Note_off_c, 0, 30, 64
1, 19034, Note_off_c, 0, 41, 64
1, 19034, Note_on_c, 0, 42, 61
1, 19034, Note_off_c, 0, 61, 64
1, 19034, Note_off_c, 0, 81, 64
1, 19035, Note_off_c, 0, 29, 64
1, 19035, Note_on_c, 0, 30, 68
1, 19035, Note_off_c, 0, 64, 64
1, 19035, Note_on_c, 0, 85, 25
1, 19036, Note_off_c, 0, 30, 64
1, 19036, Note_on_c, 0, 34, 66
1, 19036, Note_off_c, 0, 42, 64
1, 19036, Note_on_c, 0, 54, 43
1, 19036, Note_on_c, 0, 64, 35
1, 19036, Note_off_c, 0, 91, 64
1, 19037, Note_off_c, 0, 68, 64
1, 19037, Note_on_c, 0, 76, 38
1, 19037, Note_off_c, 0, 86, 64
1, 19037, Note_on_c, 0, 87, 30
1, 19038, Note_off_c, 0, 54, 64
1, 19038, Note_on_c, 0, 69, 46
1, 19038, Note_on_c, 0, 72, 42
1, 19038, Note_on_c, 0, 74, 37
1, 19038, Note_off_c, 0, 78, 64
1, 19038, Note_on_c, 0, 79, 35
1, 19038, Note_on_c, 0, 83, 31
1, 19038, Note_on_c, 0, 89, 23
1, 19038, Note_on_c, 0, 102, 18
1, 19039, Note_off_c, 0, 34, 64
1, 19039, Note_off_c, 0, 64, 64
1, 19040, Note_on_c, 0, 50, 76
1, 19040, Note_on_c, 0, 65, 41
1, 19040, Note_off_c, 0, 85, 64
1, 19041, Note_on_c, 0, 48, 86
1, 19041, Note_off_c, 0, 50, 64
1, 19041, Note_off_c, 0, 69, 64
1, 19041, Note_off_c, 0, 74, 64
1, 19041, Note_off_c, 0, 76, 64
1, 19041, Note_off_c, 0, 79, 64
1, 19041, Note_off_c, 0, 83, 64
1, 19041, Note_off_c, 0, 102, 64
1, 19042, Note_on_c, 0, 45, 93
1, 19042, Note_off_c, 0, 48, 64
1, 19042, Note_off_c, 0, 65, 64
1, 19042, Note_off_c, 0, 72, 64
1, 19042, Note_off_c, 0, 87, 64
1, 19042, Note_off_c, 0, 89, 64
1, 19043, Note_on_c, 0, 42, 98
1, 19043, Note_off_c, 0, 45, 64
1, 19043, Note_on_c, 0, 58, 14
1, 19044, Note_on_c, 0, 40, 95
1, 19044, Note_off_c, 0, 42, 64
1, 19045, Note_on_c, 0, 38, 94
1, 19045, Note_off_c, 0, 40, 64
1, 19046, Note_on_c, 0, 37, 93
1, 19046, Note_off_c, 0, 38, 64
1, 19046, Note_off_c, 0, 58, 64
1, 19047, Note_on_c, 0, 35, 90
1, 19047, Note_off_c, 0, 37, 64
1, 19048, Note_on_c, 0, 34, 89
1, 19048, Note_off_c, 0, 35, 64
1, 19049, Note_on_c, 0, 33, 88
1, 19049, Note_off_c, 0, 34, 64
1, 19050, Note_on_c, 0, 61, 14
1, 19050, Note_on_c, 0, 68, 18
1, 19051, Note_on_c, 0, 32, 87
1, 19051, Note_off_c, 0, 33, 64
1, 19051, Note_on_c, 0, 49, 32
1, 19053, Note_on_c, 0, 31, 83
1, 19053, Note_off_c, 0, 32, 64
1, 19053, Note_off_c, 0, 61, 64
1, 19053, Note_off_c, 0, 68, 64
1, 19054, Note_off_c, 0, 49, 64
1, 19055, Note_on_c, 0, 30, 69
1, 19055, Note_off_c, 0, 31, 64
1, 19055, Note_on_c, 0, 58, 33
1, 19056, Note_on_c, 0, 75, 24
1, 19057, Note_off_c, 0, 30, 64
1, 19057, Note_on_c, 0, 82, 16
1, 19058, Note_on_c, 0, 42, 66
1, 19058, Note_off_c, 0, 58, 64
1, 19058, Note_on_c, 0, 76, 22
1, 19058, Note_on_c, 0, 80, 19
1, 19059, Note_off_c, 0, 42, 64
1, 19059, Note_on_c, 0, 61, 38
1, 19059, Note_off_c, 0, 75, 64
1, 19060, Note_on_c, 0, 42, 59
1, 19060, Note_on_c, 0, 49, 57
1, 19060, Note_on_c, 0, 66, 41
1, 19060, Note_off_c, 0, 82, 64
1, 19060, Note_on_c, 0, 86, 10
1, 19061, Note_on_c, 0, 71, 9
1, 19061, Note_off_c, 0, 76, 64
1, 19062, Note_off_c, 0, 49, 64
1, 19062, Note_off_c, 0, 61, 64
1, 19062, Note_on_c, 0, 74, 30
1, 19062, Note_off_c, 0, 80, 64
1, 19063, Note_off_c, 0, 42, 64
1, 19063, Note_off_c, 0, 66, 64
1, 19063, Note_on_c, 0, 67, 34
1, 19063, Note_off_c, 0, 86, 64
1, 19064, Note_on_c, 0, 82, 11
1, 19064, Note_on_c, 0, 88, 18
1, 19065, Note_on_c, 0, 41, 58
1, 19065, Note_off_c, 0, 67, 64
1, 19065, Note_on_c, 0, 68, 35
1, 19065, Note_off_c, 0, 71, 64
1, 19065, Note_on_c, 0, 72, 27
1, 19066, Note_on_c, 0, 70, 29
1, 19066, Note_on_c, 0, 77, 19
1, 19066, Note_on_c, 0, 79, 12
1, 19066, Note_on_c, 0, 85, 13
1, 19067, Note_off_c, 0, 41, 64
1, 19067, Note_on_c, 0, 53, 48
1, 19067, Note_off_c, 0, 68, 64
1, 19067, Note_off_c, 0, 82, 64
1, 19067, Note_off_c, 0, 88, 64
1, 19068, Note_on_c, 0, 89, 21
1, 19068, Note_on_c, 0, 91, 12
1, 19068, Note_on_c, 0, 93, 9
1, 19069, Note_on_c, 0, 41, 66
1, 19069, Note_off_c, 0, 53, 64
1, 19069, Note_on_c, 0, 64, 45
1, 19069, Note_off_c, 0, 70, 64
1, 19069, Note_on_c, 0, 71, 32
1, 19069, Note_off_c, 0, 72, 64
1, 19069, Note_off_c, 0, 79, 64
1, 19070, Note_off_c, 0, 41, 64
1, 19070, Note_on_c, 0, 42, 63
1, 19071, Note_on_c, 0, 49, 61
1, 19071, Note_on_c, 0, 68, 37
1, 19071, Note_on_c, 0, 82, 37
1, 19071, Note_off_c, 0, 85, 64
1, 19071, Note_on_c, 0, 87, 21
1, 19071, Note_off_c, 0, 91, 64
1, 19071, Note_off_c, 0, 93, 64
1, 19072, Note_on_c, 0, 63, 39
1, 19072, Note_off_c, 0, 64, 64
1, 19072, Note_off_c, 0, 77, 64
1, 19072, Note_off_c, 0, 89, 64
1, 19073, Note_off_c, 0, 42, 64
1, 19073, Note_on_c, 0, 48, 58
1, 19073, Note_off_c, 0, 49, 64
1, 19074, Note_on_c, 0, 54, 33
1, 19074, Note_off_c, 0, 63, 64
1, 19074, Note_off_c, 0, 71, 64
1, 19075, Note_off_c, 0, 48, 64
1, 19075, Note_on_c, 0, 49, 38
1, 19075, Note_on_c, 0, 59, 50
1, 19075, Note_on_c, 0, 63, 49
1, 19075, Note_off_c, 0, 68, 64
1, 19075, Note_on_c, 0, 69, 42
1, 19075, Note_on_c, 0, 78, 39
1, 19075, Note_on_c, 0, 83, 35
1, 19075, Note_on_c, 0, 86, 35
1, 19075, Note_on_c, 0, 91, 33
1, 19075, Note_on_c, 0, 93, 26
1, 19075, Note_on_c, 0, 96, 21
1, 19075, Note_on_c, 0, 99, 22
1, 19075, Note_on_c, 0, 100, 22
1, 19075, Note_on_c, 0, 101, 20
1, 19076, Note_off_c, 0, 54, 64
1, 19076, Note_on_c, 0, 73, 42
1, 19076, Note_off_c, 0, 74, 64
1, 19076, Note_off_c, 0, 87, 64
1, 19076, Note_on_c, 0, 88, 32
1, 19077, Note_off_c, 0, 49, 64
1, 19077, Note_on_c, 0, 54, 67
1, 19077, Note_off_c, 0, 59, 64
1, 19077, Note_off_c, 0, 63, 64
1, 19077, Note_on_c, 0, 64, 51
1, 19077, Note_on_c, 0, 67, 45
1, 19077, Note_off_c, 0, 69, 64
1, 19077, Note_on_c, 0, 77, 30
1, 19078, Note_on_c, 0, 48, 82
1, 19078, Note_off_c, 0, 54, 64
1, 19078, Note_on_c, 0, 61, 31
1, 19078, Note_off_c, 0, 78, 64
1, 19078, Note_off_c, 0, 82, 64
1, 19078, Note_off_c, 0, 83, 64
1, 19078, Note_off_c, 0, 88, 64
1, 19078, Note_off_c, 0, 91, 64
1, 19078, Note_off_c, 0, 93, 64
1, 19078, Note_off_c, 0, 96, 64
1, 19078, Note_off_c, 0, 99, 64
1, 19078, Note_off_c, 0, 100, 64
1, 19078, Note_off_c, 0, 101, 64
1, 19079, Note_on_c, 0, 45, 90
1, 19079, Note_off_c, 0, 48, 64
1, 19079, Note_on_c, 0, 66, 18
1, 19079, Note_off_c, 0, 67, 64
1, 19079, Note_off_c, 0, 73, 64
1, 19079, Note_off_c, 0, 77, 64
1, 19079, Note_off_c, 0, 86, 64
1, 19080, Note_on_c, 0, 42, 94
1, 19080, Note_off_c, 0, 45, 64
1, 19081, Note_on_c, 0, 41, 95
1, 19081, Note_off_c, 0, 42, 64
1, 19081, Note_off_c, 0, 61, 64
1, 19081, Note_off_c, 0, 64, 64
1, 19081, Note_on_c, 0, 68, 17
1, 19081, Note_on_c, 0, 73, 13
1, 19082, Note_on_c, 0, 38, 91
1, 19082, Note_off_c, 0, 41, 64
1, 19082, Note_off_c, 0, 66, 64
1, 19083, Note_on_c, 0, 37, 90
1, 19083, Note_off_c, 0, 38, 64
1, 19084, Note_on_c, 0, 36, 88
1, 19084, Note_off_c, 0, 37, 64
1, 19084, Note_on_c, 0, 64, 12
1, 19084, Note_on_c, 0, 71, 13
1, 19085, Note_on_c, 0, 35, 85
1, 19085, Note_off_c, 0, 36, 64
1, 19085, Note_on_c, 0, 53, 36
1, 19085, Note_off_c, 0, 68, 64
1, 19086, Note_on_c, 0, 33, 83
1, 19086, Note_off_c, 0, 35, 64
1, 19086, Note_off_c, 0, 73, 64
1, 19088, Note_off_c, 0, 53, 64
1, 19088, Note_off_c, 0, 64, 64
1, 19088, Note_on_c, 0, 68, 25
1, 19088, Note_on_c, 0, 70, 15
1, 19088, Note_off_c, 0, 71, 64
1, 19088, Note_on_c, 0, 76, 18
1, 19089, Note_on_c, 0, 32, 80
1, 19089, Note_off_c, 0, 33, 64
1, 19089, Note_on_c, 0, 74, 16
1, 19089, Note_on_c, 0, 85, 26
1, 19090, Note_on_c, 0, 31, 77
1, 19090, Note_off_c, 0, 32, 64
1, 19090, Note_on_c, 0, 64, 49
1, 19092, Note_off_c, 0, 74, 64
1, 19092, Note_off_c, 0, 76, 64
1, 19093, Note_off_c, 0, 70, 64
1, 19094, Note_off_c, 0, 68, 64
1, 19094, Note_on_c, 0, 74, 19
1, 19094, Note_on_c, 0, 79, 27
1, 19094, Note_on_c, 0, 89, 28
1, 19095, Note_off_c, 0, 31, 64
1, 19095, Note_on_c, 0, 82, 10
1, 19096, Note_on_c, 0, 41, 65
1, 19096, Note_on_c, 0, 54, 52
1, 19096, Note_on_c, 0, 75, 29
1, 19096, Note_on_c, 0, 80, 16
1, 19097, Note_off_c, 0, 41, 64
1, 19097, Note_on_c, 0, 42, 63
1, 19097, Note_on_c, 0, 68, 33
1, 19097, Note_on_c, 0, 73, 26
1, 19097, Note_off_c, 0, 74, 64
1, 19097, Note_off_c, 0, 89, 64
1, 19098, Note_on_c, 0, 48, 60
1, 19098, Note_on_c, 0, 70, 31
1, 19098, Note_on_c, 0, 78, 32
1, 19098, Note_off_c, 0, 79, 64
1, 19098, Note_off_c, 0, 82, 64
1, 19099, Note_off_c, 0, 54, 64
1, 19099, Note_on_c, 0, 58, 35
1, 19099, Note_off_c, 0, 64, 64
1, 19099, Note_off_c, 0, 68, 64
1, 19099, Note_on_c, 0, 77, 24
1, 19099, Note_on_c, 0, 83, 20
1, 19100, Note_off_c, 0, 42, 64
1, 19100, Note_off_c, 0, 48, 64
1, 19100, Note_on_c, 0, 64, 39
1, 19100, Note_off_c, 0, 70, 64
1, 19100, Note_off_c, 0, 78, 64
1, 19101, Note_on_c, 0, 54, 52
1, 19101, Note_off_c, 0, 58, 64
1, 19101, Note_off_c, 0, 73, 64
1, 19101, Note_off_c, 0, 85, 64
1, 19102, Note_on_c, 0, 41, 49
1, 19102, Note_on_c, 0, 48, 51
1, 19102, Note_off_c, 0, 75, 64
1, 19102, Note_off_c, 0, 83, 64
1, 19103, Note_off_c, 0, 64, 64
1, 19104, Note_off_c, 0, 41, 64
1, 19104, Note_on_c, 0, 61, 32
1, 19104, Note_on_c, 0, 90, 18
1, 19105, Note_off_c, 0, 48, 64
1, 19105, Note_off_c, 0, 54, 64
1, 19105, Note_on_c, 0, 72, 26
1, 19105, Note_on_c, 0, 79, 27
1, 19105, Note_off_c, 0, 80, 64
1, 19105, Note_on_c, 0, 82, 15
1, 19105, Note_on_c, 0, 95, 14
1, 19106, Note_on_c, 0, 64, 31
1, 19106, Note_off_c, 0, 77, 64
1, 19106, Note_on_c, 0, 78, 34
1, 19106, Note_on_c, 0, 88, 16
1, 19107, Note_on_c, 0, 42, 62
1, 19107, Note_on_c, 0, 68, 41
1, 19107, Note_off_c, 0, 90, 64
1, 19108, Note_off_c, 0, 61, 64
1, 19108, Note_off_c, 0, 72, 64
1, 19108, Note_on_c, 0, 76, 32
1, 19108, Note_off_c, 0, 79, 64
1, 19108, Note_off_c, 0, 82, 64
1, 19108, Note_off_c, 0, 95, 64
1, 19109, Note_on_c, 0, 49, 57
1, 19109, Note_on_c, 0, 74, 52
1, 19110, Note_off_c, 0, 42, 64
1, 19110, Note_off_c, 0, 64, 64
1, 19110, Note_on_c, 0, 93, 11
1, 19111, Note_off_c, 0, 49, 64
1, 19111, Note_on_c, 0, 58, 34
1, 19111, Note_off_c, 0, 68, 64
1, 19111, Note_off_c, 0, 76, 64
1, 19111, Note_off_c, 0, 78, 64
1, 19111, Note_off_c, 0, 88, 64
1, 19112, Note_on_c, 0, 49, 35
1, 19112, Note_on_c, 0, 71, 44
1, 19112, Note_on_c, 0, 78, 39
1, 19112, Note_on_c, 0, 82, 34
1, 19112, Note_on_c, 0, 89, 24
1, 19112, Note_on_c, 0, 95, 25
1, 19113, Note_on_c, 0, 33, 27
1, 19113, Note_on_c, 0, 79, 36
1, 19113, Note_on_c, 0, 87, 31
1, 19113, Note_on_c, 0, 88, 25
1, 19113, Note_off_c, 0, 93, 64
1, 19114, Note_off_c, 0, 49, 64
1, 19114, Note_off_c, 0, 58, 64
1, 19114, Note_on_c, 0, 81, 32
1, 19114, Note_off_c, 0, 82, 64
1, 19115, Note_on_c, 0, 51, 76
1, 19115, Note_off_c, 0, 71, 64
1, 19115, Note_on_c, 0, 72, 18
1, 19115, Note_off_c, 0, 79, 64
1, 19115, Note_on_c, 0, 80, 17
1, 19115, Note_off_c, 0, 89, 64
1, 19116, Note_off_c, 0, 33, 64
1, 19116, Note_on_c, 0, 46, 83
1, 19116, Note_off_c, 0, 51, 64
1, 19116, Note_off_c, 0, 78, 64
1, 19116, Note_off_c, 0, 81, 64
1, 19116, Note_off_c, 0, 88, 64
1, 19116, Note_off_c, 0, 95, 64
1, 19117, Note_on_c, 0, 45, 90
1, 19117, Note_off_c, 0, 46, 64
1, 19117, Note_on_c, 0, 79, 17
1, 19117, Note_off_c, 0, 87, 64
1, 19118, Note_on_c, 0, 42, 92
1, 19118, Note_off_c, 0, 45, 64
1, 19118, Note_on_c, 0, 64, 21
1, 19118, Note_off_c, 0, 74, 64
1, 19118, Note_off_c, 0, 80, 64
1, 19119, Note_on_c, 0, 40, 87
1, 19119, Note_off_c, 0, 42, 64
1, 19119, Note_on_c, 0, 70, 15
1, 19119, Note_off_c, 0, 72, 64
1, 19120, Note_on_c, 0, 38, 86
1, 19120, Note_off_c, 0, 40, 64
1, 19120, Note_on_c, 0, 68, 15
1, 19120, Note_off_c, 0, 79, 64
1, 19120, Note_on_c, 0, 81, 21
1, 19121, Note_on_c, 0, 36, 83
1, 19121, Note_off_c, 0, 38, 64
1, 19121, Note_on_c, 0, 63, 16
1, 19121, Note_off_c, 0, 64, 64
1, 19121, Note_on_c, 0, 66, 17
1, 19122, Note_on_c, 0, 35, 79
1, 19122, Note_off_c, 0, 36, 64
1, 19123, Note_on_c, 0, 34, 76
1, 19123, Note_off_c, 0, 35, 64
1, 19123, Note_off_c, 0, 70, 64
1, 19123, Note_on_c, 0, 85, 12
1, 19124, Note_off_c, 0, 63, 64
1, 19124, Note_on_c, 0, 64, 27
1, 19124, Note_off_c, 0, 66, 64
1, 19124, Note_on_c, 0, 87, 10
1, 19125, Note_on_c, 0, 33, 70
1, 19125, Note_off_c, 0, 34, 64
1, 19125, Note_on_c, 0, 75, 15
1, 19126, Note_on_c, 0, 32, 72
1, 19126, Note_off_c, 0, 33, 64
1, 19126, Note_on_c, 0, 49, 33
1, 19126, Note_off_c, 0, 85, 64
1, 19127, Note_on_c, 0, 31, 72
1, 19127, Note_off_c, 0, 32, 64
1, 19127, Note_off_c, 0, 68, 64
1, 19127, Note_on_c, 0, 70, 21
1, 19127, Note_off_c, 0, 87, 64
1, 19127, Note_on_c, 0, 89, 10
1, 19128, Note_off_c, 0, 49, 64
1, 19128, Note_off_c, 0, 64, 64
1, 19128, Note_off_c, 0, 75, 64
1, 19128, Note_on_c, 0, 78, 19
1, 19129, Note_on_c, 0, 30, 65
1, 19129, Note_off_c, 0, 31, 64
1, 19129, Note_on_c, 0, 73, 32
1, 19129, Note_on_c, 0, 79, 14
1, 19130, Note_on_c, 0, 64, 29
1, 19130, Note_off_c, 0, 70, 64
1, 19130, Note_off_c, 0, 89, 64
1, 19130, Note_on_c, 0, 90, 23
1, 19131, Note_on_c, 0, 29, 41
1, 19131, Note_off_c, 0, 30, 64
1, 19132, Note_on_c, 0, 82, 12
1, 19132, Note_on_c, 0, 87, 20
1, 19132, Note_on_c, 0, 92, 11
1, 19133, Note_off_c, 0, 29, 64
1, 19133, Note_on_c, 0, 69, 31
1, 19133, Note_off_c, 0, 73, 64
1, 19133, Note_off_c, 0, 79, 64
1, 19133, Note_on_c, 0, 83, 22
1, 19134, Note_on_c, 0, 31, 49
1, 19134, Note_on_c, 0, 49, 62
1, 19134, Note_on_c, 0, 74, 29
1, 19135, Note_off_c, 0, 82, 64
1, 19135, Note_off_c, 0, 92, 64
1, 19135, Note_on_c, 0, 94, 13
1, 19136, Note_off_c, 0, 31, 64
1, 19136, Note_off_c, 0, 69, 64
1, 19136, Note_on_c, 0, 70, 25
1, 19136, Note_on_c, 0, 77, 24
1, 19136, Note_off_c, 0, 78, 64
1, 19137, Note_off_c, 0, 64, 64
1, 19138, Note_on_c, 0, 41, 41
1, 19138, Note_off_c, 0, 83, 64
1, 19139, Note_on_c, 0, 29, 41
1, 19139, Note_off_c, 0, 70, 64
1, 19139, Note_off_c, 0, 74, 64
1, 19139, Note_off_c, 0, 77, 64
1, 19139, Note_on_c, 0, 78, 36
1, 19139, Note_on_c, 0, 80, 26
1, 19139, Note_off_c, 0, 81, 64
1, 19139, Note_off_c, 0, 94, 64
1, 19140, Note_on_c, 0, 75, 29
1, 19140, Note_on_c, 0, 85, 19
1, 19141, Note_off_c, 0, 29, 64
1, 19141, Note_off_c, 0, 41, 64
1, 19141, Note_off_c, 0, 49, 64
1, 19141, Note_on_c, 0, 55, 34
1, 19141, Note_on_c, 0, 74, 33
1, 19141, Note_off_c, 0, 87, 64
1, 19141, Note_off_c, 0, 90, 64
1, 19142, Note_on_c, 0, 63, 33
1, 19142, Note_on_c, 0, 70, 39
1, 19142, Note_on_c, 0, 72, 21
1, 19142, Note_off_c, 0, 75, 64
1, 19142, Note_on_c, 0, 83, 18
1, 19143, Note_on_c, 0, 54, 58
1, 19143, Note_off_c, 0, 55, 64
1, 19143, Note_on_c, 0, 76, 35
1, 19143, Note_on_c, 0, 87, 24
1, 19143, Note_on_c, 0, 89, 11
1, 19143, Note_on_c, 0, 93, 19
1, 19144, Note_on_c, 0, 61, 40
1, 19144, Note_on_c, 0, 73, 43
1, 19144, Note_off_c, 0, 74, 64
1, 19144, Note_off_c, 0, 80, 64
1, 19144, Note_on_c, 0, 92, 16
1, 19145, Note_on_c, 0, 30, 58
1, 19145, Note_on_c, 0, 49, 60
1, 19145, Note_off_c, 0, 63, 64
1, 19145, Note_off_c, 0, 72, 64
1, 19145, Note_off_c, 0, 85, 64
1, 19146, Note_on_c, 0, 68, 27
1, 19146, Note_on_c, 0, 71, 29
1, 19146, Note_on_c, 0, 74, 35
1, 19146, Note_on_c, 0, 96, 23
1, 19147, Note_off_c, 0, 54, 64
1, 19147, Note_off_c, 0, 70, 64
1, 19147, Note_off_c, 0, 73, 64
1, 19147, Note_off_c, 0, 76, 64
1, 19147, Note_on_c, 0, 77, 32
1, 19147, Note_off_c, 0, 78, 64
1, 19147, Note_on_c, 0, 79, 39
1, 19147, Note_on_c, 0, 81, 35
1, 19147, Note_off_c, 0, 83, 64
1, 19147, Note_on_c, 0, 84, 19
1, 19147, Note_off_c, 0, 92, 64
1, 19147, Note_off_c, 0, 93, 64
1, 19148, Note_on_c, 0, 48, 56
1, 19148, Note_off_c, 0, 49, 64
1, 19148, Note_on_c, 0, 54, 51
1, 19148, Note_off_c, 0, 61, 64
1, 19148, Note_on_c, 0, 70, 48
1, 19148, Note_off_c, 0, 71, 64
1, 19148, Note_off_c, 0, 87, 64
1, 19148, Note_off_c, 0, 89, 64
1, 19148, Note_on_c, 0, 90, 30
1, 19149, Note_off_c, 0, 30, 64
1, 19149, Note_on_c, 0, 67, 46
1, 19149, Note_off_c, 0, 68, 64
1, 19149, Note_on_c, 0, 72, 38
1, 19149, Note_off_c, 0, 77, 64
1, 19149, Note_on_c, 0, 78, 47
1, 19149, Note_on_c, 0, 83, 37
1, 19149, Note_on_c, 0, 86, 36
1, 19150, Note_off_c, 0, 54, 64
1, 19150, Note_on_c, 0, 64, 53
1, 19150, Note_off_c, 0, 84, 64
1, 19150, Note_on_c, 0, 85, 38
1, 19150, Note_on_c, 0, 88, 29
1, 19150, Note_on_c, 0, 94, 29
1, 19150, Note_on_c, 0, 99, 24
1, 19150, Note_on_c, 0, 101, 21
1, 19151, Note_on_c, 0, 30, 55
1, 19151, Note_off_c, 0, 72, 64
1, 19151, Note_off_c, 0, 74, 64
1, 19151, Note_off_c, 0, 78, 64
1, 19151, Note_on_c, 0, 89, 30
1, 19152, Note_off_c, 0, 48, 64
1, 19152, Note_on_c, 0, 54, 70
1, 19152, Note_off_c, 0, 67, 64
1, 19152, Note_on_c, 0, 68, 41
1, 19153, Note_off_c, 0, 30, 64
1, 19153, Note_on_c, 0, 49, 78
1, 19153, Note_off_c, 0, 54, 64
1, 19153, Note_off_c, 0, 79, 64
1, 19153, Note_off_c, 0, 81, 64
1, 19153, Note_off_c, 0, 85, 64
1, 19153, Note_off_c, 0, 86, 64
1, 19153, Note_off_c, 0, 88, 64
1, 19153, Note_off_c, 0, 94, 64
1, 19153, Note_off_c, 0, 96, 64
1, 19153, Note_off_c, 0, 99, 64
1, 19153, Note_off_c, 0, 101, 64
1, 19154, Note_on_c, 0, 45, 85
1, 19154, Note_off_c, 0, 49, 64
1, 19154, Note_off_c, 0, 64, 64
1, 19154, Note_off_c, 0, 68, 64
1, 19154, Note_off_c, 0, 70, 64
1, 19154, Note_off_c, 0, 83, 64
1, 19154, Note_off_c, 0, 89, 64
1, 19154, Note_off_c, 0, 90, 64
1, 19155, Note_on_c, 0, 42, 87
1, 19155, Note_off_c, 0, 45, 64
1, 19156, Note_on_c, 0, 41, 85
1, 19156, Note_off_c, 0, 42, 64
1, 19156, Note_on_c, 0, 77, 16
1, 19157, Note_on_c, 0, 38, 80
1, 19157, Note_off_c, 0, 41, 64
1, 19158, Note_on_c, 0, 37, 77
1, 19158, Note_off_c, 0, 38, 64
1, 19158, Note_on_c, 0, 81, 13
1, 19159, Note_on_c, 0, 35, 72
1, 19159, Note_off_c, 0, 37, 64
1, 19160, Note_on_c, 0, 34, 68
1, 19160, Note_off_c, 0, 35, 64
1, 19160, Note_off_c, 0, 77, 64
1, 19161, Note_on_c, 0, 33, 66
1, 19161, Note_off_c, 0, 34, 64
1, 19161, Note_on_c, 0, 76, 18
1, 19163, Note_on_c, 0, 32, 65
1, 19163, Note_off_c, 0, 33, 64
1, 19163, Note_on_c, 0, 49, 29
1, 19163, Note_on_c, 0, 74, 21
1, 19164, Note_off_c, 0, 76, 64
1, 19164, Note_off_c, 0, 81, 64
1, 19165, Note_on_c, 0, 31, 61
1, 19165, Note_off_c, 0, 32, 64
1, 19165, Note_off_c, 0, 49, 64
1, 19165, Note_on_c, 0, 77, 33
1, 19167, Note_off_c, 0, 74, 64
1, 19167, Note_on_c, 0, 81, 26
1, 19167, Note_on_c, 0, 82, 30
1, 19169, Note_on_c, 0, 74, 35
1, 19170, Note_off_c, 0, 31, 64
1, 19170, Note_on_c, 0, 84, 30
1, 19170, Note_on_c, 0, 87, 14
1, 19171, Note_on_c, 0, 61, 32
1, 19171, Note_on_c, 0, 68, 17
1, 19171, Note_on_c, 0, 80, 31
1, 19172, Note_on_c, 0, 42, 49
1, 19172, Note_on_c, 0, 49, 56
1, 19172, Note_off_c, 0, 81, 64
1, 19173, Note_on_c, 0, 30, 40
1, 19173, Note_on_c, 0, 85, 14
1, 19173, Note_on_c, 0, 90, 13
1, 19174, Note_off_c, 0, 61, 64
1, 19174, Note_off_c, 0, 68, 64
1, 19174, Note_off_c, 0, 87, 64
1, 19175, Note_off_c, 0, 30, 64
1, 19175, Note_off_c, 0, 42, 64
1, 19175, Note_off_c, 0, 77, 64
1, 19175, Note_off_c, 0, 80, 64
1, 19175, Note_on_c, 0, 81, 24
1, 19176, Note_on_c, 0, 48, 49
1, 19176, Note_off_c, 0, 49, 64
1, 19176, Note_off_c, 0, 74, 64
1, 19176, Note_on_c, 0, 77, 26
1, 19176, Note_off_c, 0, 85, 64
1, 19177, Note_on_c, 0, 74, 28
1, 19177, Note_on_c, 0, 91, 30
1, 19178, Note_off_c, 0, 48, 64
1, 19178, Note_off_c, 0, 81, 64
1, 19178, Note_off_c, 0, 90, 64
1, 19179, Note_on_c, 0, 48, 57
1, 19179, Note_on_c, 0, 78, 30
1, 19180, Note_on_c, 0, 87, 20
1, 19180, Note_on_c, 0, 88, 16
1, 19180, Note_on_c, 0, 92, 20
1, 19181, Note_on_c, 0, 61, 30
1, 19181, Note_on_c, 0, 64, 33
1, 19181, Note_on_c, 0, 70, 18
1, 19181, Note_off_c, 0, 74, 64
1, 19181, Note_off_c, 0, 77, 64
1, 19181, Note_on_c, 0, 83, 21
1, 19182, Note_off_c, 0, 48, 64
1, 19182, Note_on_c, 0, 49, 56
1, 19182, Note_on_c, 0, 77, 16
1, 19182, Note_on_c, 0, 81, 17
1, 19182, Note_on_c, 0, 89, 32
1, 19183, Note_off_c, 0, 61, 64
1, 19183, Note_on_c, 0, 63, 33
1, 19183, Note_off_c, 0, 64, 64
1, 19183, Note_on_c, 0, 73, 34
1, 19183, Note_off_c, 0, 78, 64
1, 19183, Note_on_c, 0, 79, 39
1, 19183, Note_off_c, 0, 84, 64
1, 19184, Note_off_c, 0, 82, 64
1, 19184, Note_off_c, 0, 83, 64
1, 19184, Note_on_c, 0, 84, 34
1, 19184, Note_off_c, 0, 87, 64
1, 19184, Note_off_c, 0, 92, 64
1, 19184, Note_on_c, 0, 95, 23
1, 19185, Note_off_c, 0, 63, 64
1, 19185, Note_off_c, 0, 88, 64
1, 19185, Note_on_c, 0, 94, 30
1, 19186, Note_on_c, 0, 48, 45
1, 19186, Note_off_c, 0, 49, 64
1, 19186, Note_on_c, 0, 54, 38
1, 19186, Note_off_c, 0, 70, 64
1, 19186, Note_off_c, 0, 73, 64
1, 19186, Note_on_c, 0, 76, 32
1, 19186, Note_off_c, 0, 81, 64
1, 19186, Note_on_c, 0, 83, 34
1, 19187, Note_on_c, 0, 74, 41
1, 19187, Note_off_c, 0, 77, 64
1, 19187, Note_on_c, 0, 82, 32
1, 19187, Note_on_c, 0, 87, 32
1, 19187, Note_on_c, 0, 92, 25
1, 19188, Note_off_c, 0, 54, 64
1, 19189, Note_off_c, 0, 48, 64
1, 19189, Note_on_c, 0, 62, 52
1, 19189, Note_on_c, 0, 70, 44
1, 19189, Note_on_c, 0, 73, 43
1, 19189, Note_off_c, 0, 74, 64
1, 19189, Note_off_c, 0, 83, 64
1, 19189, Note_off_c, 0, 84, 64
1, 19189, Note_off_c, 0, 87, 64
1, 19190, Note_on_c, 0, 51, 72
1, 19190, Note_off_c, 0, 76, 64
1, 19190, Note_off_c, 0, 89, 64
1, 19190, Note_off_c, 0, 91, 64
1, 19190, Note_off_c, 0, 92, 64
1, 19190, Note_off_c, 0, 94, 64
1, 19190, Note_off_c, 0, 95, 64
1, 19191, Note_on_c, 0, 48, 76
1, 19191, Note_off_c, 0, 51, 64
1, 19191, Note_off_c, 0, 62, 64
1, 19191, Note_off_c, 0, 70, 64
1, 19191, Note_off_c, 0, 79, 64
1, 19192, Note_on_c, 0, 45, 80
1, 19192, Note_off_c, 0, 48, 64
1, 19192, Note_off_c, 0, 73, 64
1, 19192, Note_on_c, 0, 74, 20
1, 19193, Note_on_c, 0, 41, 80
1, 19193, Note_off_c, 0, 45, 64
1, 19193, Note_off_c, 0, 82, 64
1, 19194, Note_on_c, 0, 39, 73
1, 19194, Note_off_c, 0, 41, 64
1, 19195, Note_on_c, 0, 37, 71
1, 19195, Note_off_c, 0, 39, 64
1, 19195, Note_off_c, 0, 74, 64
1, 19195, Note_on_c, 0, 83, 19
1, 19196, Note_on_c, 0, 36, 65
1, 19196, Note_off_c, 0, 37, 64
1, 19197, Note_off_c, 0, 36, 64
1, 19197, Note_on_c, 0, 85, 20
1, 19199, Note_on_c, 0, 33, 57
1, 19199, Note_off_c, 0, 83, 64
1, 19201, Note_off_c, 0, 33, 64
1, 19201, Note_on_c, 0, 49, 27
1, 19202, Note_on_c, 0, 31, 53
1, 19202, Note_on_c, 0, 77, 14
1, 19202, Note_on_c, 0, 79, 23
1, 19202, Note_on_c, 0, 81, 15
1, 19202, Note_on_c, 0, 83, 19
1, 19202, Note_on_c, 0, 92, 11
1, 19203, Note_on_c, 0, 84, 16
1, 19204, Note_off_c, 0, 49, 64
1, 19206, Note_off_c, 0, 77, 64
1, 19206, Note_off_c, 0, 79, 64
1, 19206, Note_off_c, 0, 81, 64
1, 19206, Note_off_c, 0, 84, 64
1, 19206, Note_on_c, 0, 96, 11
1, 19207, Note_off_c, 0, 31, 64
1, 19207, Note_on_c, 0, 78, 30
1, 19207, Note_on_c, 0, 82, 26
1, 19207, Note_off_c, 0, 83, 64
1, 19207, Note_on_c, 0, 84, 37
1, 19207, Note_off_c, 0, 85, 64
1, 19207, Note_on_c, 0, 88, 24
1, 19207, Note_off_c, 0, 92, 64
1, 19208, Note_on_c, 0, 61, 32
1, 19208, Note_on_c, 0, 68, 20
1, 19208, Note_on_c, 0, 81, 26
1, 19209, Note_on_c, 0, 49, 53
1, 19209, Note_on_c, 0, 71, 16
1, 19209, Note_on_c, 0, 79, 36
1, 19209, Note_on_c, 0, 92, 21
1, 19209, Note_on_c, 0, 98, 11
1, 19210, Note_off_c, 0, 82, 64
1, 19210, Note_off_c, 0, 88, 64
1, 19211, Note_off_c, 0, 61, 64
1, 19211, Note_on_c, 0, 63, 22
1, 19211, Note_on_c, 0, 76, 23
1, 19211, Note_off_c, 0, 78, 64
1, 19211, Note_on_c, 0, 85, 27
1, 19211, Note_off_c, 0, 96, 64
1, 19212, Note_off_c, 0, 49, 64
1, 19212, Note_off_c, 0, 71, 64
1, 19212, Note_on_c, 0, 78, 37
1, 19212, Note_on_c, 0, 87, 29
1, 19212, Note_off_c, 0, 98, 64
1, 19213, Note_on_c, 0, 49, 43
1, 19213, Note_off_c, 0, 68, 64
1, 19213, Note_off_c, 0, 92, 64
1, 19214, Note_on_c, 0, 82, 22
1, 19214, Note_off_c, 0, 84, 64
1, 19214, Note_on_c, 0, 96, 18
1, 19215, Note_off_c, 0, 63, 64
1, 19215, Note_on_c, 0, 83, 20
1, 19215, Note_on_c, 0, 84, 27
1, 19215, Note_off_c, 0, 85, 64
1, 19215, Note_on_c, 0, 100, 12
1, 19216, Note_off_c, 0, 49, 64
1, 19216, Note_off_c, 0, 79, 64
1, 19216, Note_on_c, 0, 80, 35
1, 19216, Note_off_c, 0, 81, 64
1, 19217, Note_on_c, 0, 94, 22
1, 19218, Note_on_c, 0, 55, 51
1, 19218, Note_off_c, 0, 76, 64
1, 19218, Note_off_c, 0, 82, 64
1, 19218, Note_on_c, 0, 85, 36
1, 19218, Note_on_c, 0, 93, 24
1, 19219, Note_on_c, 0, 61, 30
1, 19219, Note_on_c, 0, 64, 28
1, 19219, Note_on_c, 0, 68, 19
1, 19219, Note_on_c, 0, 74, 17
1, 19219, Note_off_c, 0, 84, 64
1, 19219, Note_on_c, 0, 86, 28
1, 19219, Note_off_c, 0, 87, 64
1, 19219, Note_off_c, 0, 96, 64
1, 19220, Note_on_c, 0, 54, 49
1, 19220, Note_off_c, 0, 55, 64
1, 19220, Note_off_c, 0, 80, 64
1, 19220, Note_on_c, 0, 87, 23
1, 19220, Note_off_c, 0, 94, 64
1, 19220, Note_on_c, 0, 96, 9
1, 19221, Note_on_c, 0, 49, 47
1, 19221, Note_off_c, 0, 93, 64
1, 19221, Note_off_c, 0, 100, 64
1, 19222, Note_off_c, 0, 61, 64
1, 19222, Note_off_c, 0, 64, 64
1, 19222, Note_off_c, 0, 74, 64
1, 19222, Note_off_c, 0, 83, 64
1, 19222, Note_on_c, 0, 92, 28
1, 19223, Note_on_c, 0, 48, 44
1, 19223, Note_off_c, 0, 49, 64
1, 19223, Note_off_c, 0, 68, 64
1, 19223, Note_on_c, 0, 83, 36
1, 19223, Note_off_c, 0, 86, 64
1, 19223, Note_off_c, 0, 87, 64
1, 19223, Note_on_c, 0, 93, 29
1, 19223, Note_on_c, 0, 98, 21
1, 19224, Note_on_c, 0, 77, 30
1, 19224, Note_on_c, 0, 82, 35
1, 19224, Note_off_c, 0, 96, 64
1, 19225, Note_off_c, 0, 54, 64
1, 19225, Note_on_c, 0, 80, 37
1, 19225, Note_on_c, 0, 86, 33
1, 19225, Note_on_c, 0, 87, 30
1, 19225, Note_on_c, 0, 96, 24
1, 19226, Note_off_c, 0, 48, 64
1, 19226, Note_on_c, 0, 71, 43
1, 19226, Note_off_c, 0, 77, 64
1, 19226, Note_off_c, 0, 82, 64
1, 19226, Note_on_c, 0, 88, 33
1, 19227, Note_on_c, 0, 53, 65
1, 19227, Note_on_c, 0, 62, 48
1, 19227, Note_off_c, 0, 85, 64
1, 19227, Note_off_c, 0, 98, 64
1, 19228, Note_on_c, 0, 48, 71
1, 19228, Note_off_c, 0, 53, 64
1, 19228, Note_off_c, 0, 71, 64
1, 19228, Note_off_c, 0, 80, 64
1, 19228, Note_off_c, 0, 86, 64
1, 19228, Note_off_c, 0, 88, 64
1, 19228, Note_off_c, 0, 92, 64
1, 19228, Note_off_c, 0, 93, 64
1, 19228, Note_off_c, 0, 96, 64
1, 19229, Note_on_c, 0, 45, 74
1, 19229, Note_off_c, 0, 48, 64
1, 19229, Note_off_c, 0, 78, 64
1, 19229, Note_off_c, 0, 83, 64
1, 19229, Note_off_c, 0, 87, 64
1, 19230, Note_on_c, 0, 42, 73
1, 19230, Note_off_c, 0, 45, 64
1, 19230, Note_off_c, 0, 62, 64
1, 19230, Note_on_c, 0, 86, 15
1, 19231, Note_on_c, 0, 41, 68
1, 19231, Note_off_c, 0, 42, 64
1, 19232, Note_off_c, 0, 41, 64
1, 19233, Note_on_c, 0, 77, 11
1, 19234, Note_on_c, 0, 80, 21
1, 19234, Note_on_c, 0, 85, 11
1, 19236, Note_off_c, 0, 77, 64
1, 19236, Note_off_c, 0, 86, 64
1, 19237, Note_on_c, 0, 32, 48
1, 19237, Note_off_c, 0, 80, 64
1, 19237, Note_on_c, 0, 84, 19
1, 19238, Note_on_c, 0, 49, 25
1, 19238, Note_on_c, 0, 82, 18
1, 19238, Note_off_c, 0, 85, 64
1, 19238, Note_on_c, 0, 88, 14
1, 19239, Note_on_c, 0, 87, 23
1, 19239, Note_on_c, 0, 97, 12
1, 19240, Note_on_c, 0, 31, 42
1, 19240, Note_off_c, 0, 32, 64
1, 19240, Note_on_c, 0, 80, 9
1, 19240, Note_off_c, 0, 84, 64
1, 19240, Note_on_c, 0, 85, 19
1, 19241, Note_off_c, 0, 49, 64
1, 19241, Note_off_c, 0, 82, 64
1, 19241, Note_on_c, 0, 89, 16
1, 19242, Note_off_c, 0, 31, 64
1, 19242, Note_off_c, 0, 88, 64
1, 19242, Note_off_c, 0, 97, 64
1, 19244, Note_on_c, 0, 61, 33
1, 19244, Note_off_c, 0, 80, 64
1, 19244, Note_on_c, 0, 81, 16
1, 19245, Note_on_c, 0, 76, 13
1, 19245, Note_on_c, 0, 80, 17
1, 19245, Note_off_c, 0, 85, 64
1, 19245, Note_on_c, 0, 90, 19
1, 19245, Note_on_c, 0, 94, 14
1, 19246, Note_on_c, 0, 54, 46
1, 19246, Note_on_c, 0, 64, 33
1, 19246, Note_on_c, 0, 68, 20
1, 19246, Note_on_c, 0, 85, 27
1, 19246, Note_on_c, 0, 88, 15
1, 19247, Note_off_c, 0, 61, 64
1, 19247, Note_on_c, 0, 79, 23
1, 19247, Note_on_c, 0, 86, 20
1, 19247, Note_off_c, 0, 87, 64
1, 19247, Note_off_c, 0, 89, 64
1, 19247, Note_on_c, 0, 101, 11
1, 19248, Note_on_c, 0, 63, 26
1, 19248, Note_off_c, 0, 64, 64
1, 19248, Note_off_c, 0, 76, 64
1, 19248, Note_off_c, 0, 81, 64
1, 19248, Note_on_c, 0, 83, 30
1, 19248, Note_off_c, 0, 90, 64
1, 19248, Note_on_c, 0, 93, 25
1, 19248, Note_off_c, 0, 94, 64
1, 19248, Note_on_c, 0, 96, 12
1, 19249, Note_on_c, 0, 41, 29
1, 19249, Note_on_c, 0, 87, 16
1, 19249, Note_off_c, 0, 88, 64
1, 19250, Note_off_c, 0, 54, 64
1, 19250, Note_off_c, 0, 86, 64
1, 19251, Note_off_c, 0, 41, 64
1, 19251, Note_off_c, 0, 63, 64
1, 19251, Note_off_c, 0, 68, 64
1, 19251, Note_off_c, 0, 79, 64
1, 19251, Note_on_c, 0, 88, 15
1, 19251, Note_on_c, 0, 90, 15
1, 19251, Note_on_c, 0, 94, 9
1, 19252, Note_off_c, 0, 87, 64
1, 19252, Note_on_c, 0, 92, 34
1, 19252, Note_off_c, 0, 96, 64
1, 19252, Note_off_c, 0, 101, 64
1, 19253, Note_on_c, 0, 87, 28
1, 19253, Note_on_c, 0, 89, 31
1, 19254, Note_off_c, 0, 80, 64
1, 19254, Note_on_c, 0, 81, 23
1, 19254, Note_off_c, 0, 88, 64
1, 19254, Note_off_c, 0, 94, 64
1, 19254, Note_on_c, 0, 96, 29
1, 19255, Note_on_c, 0, 78, 11
1, 19255, Note_on_c, 0, 80, 24
1, 19256, Note_on_c, 0, 61, 32
1, 19256, Note_on_c, 0, 64, 31
1, 19256, Note_on_c, 0, 68, 31
1, 19256, Note_off_c, 0, 85, 64
1, 19256, Note_on_c, 0, 86, 24
1, 19256, Note_on_c, 0, 91, 27
1, 19256, Note_on_c, 0, 94, 33
1, 19257, Note_on_c, 0, 49, 40
1, 19257, Note_on_c, 0, 54, 42
1, 19257, Note_off_c, 0, 90, 64
1, 19257, Note_off_c, 0, 96, 64
1, 19258, Note_on_c, 0, 70, 18
1, 19258, Note_off_c, 0, 78, 64
1, 19258, Note_off_c, 0, 80, 64
1, 19258, Note_off_c, 0, 81, 64
1, 19258, Note_on_c, 0, 90, 31
1, 19259, Note_off_c, 0, 64, 64
1, 19259, Note_on_c, 0, 85, 35
1, 19259, Note_off_c, 0, 86, 64
1, 19260, Note_on_c, 0, 48, 39
1, 19260, Note_off_c, 0, 49, 64
1, 19260, Note_off_c, 0, 54, 64
1, 19260, Note_off_c, 0, 68, 64
1, 19260, Note_off_c, 0, 83, 64
1, 19260, Note_on_c, 0, 88, 35
1, 19260, Note_on_c, 0, 96, 21
1, 19261, Note_on_c, 0, 54, 29
1, 19261, Note_off_c, 0, 61, 64
1, 19261, Note_off_c, 0, 70, 64
1, 19262, Note_on_c, 0, 75, 36
1, 19262, Note_on_c, 0, 79, 37
1, 19262, Note_on_c, 0, 81, 38
1, 19262, Note_on_c, 0, 83, 35
1, 19262, Note_on_c, 0, 84, 38
1, 19262, Note_on_c, 0, 98, 18
1, 19263, Note_off_c, 0, 54, 64
1, 19263, Note_on_c, 0, 70, 42
1, 19263, Note_on_c, 0, 76, 34
1, 19263, Note_off_c, 0, 87, 64
1, 19264, Note_off_c, 0, 48, 64
1, 19264, Note_off_c, 0, 75, 64
1, 19264, Note_off_c, 0, 93, 64
1, 19265, Note_off_c, 0, 79, 64
1, 19265, Note_off_c, 0, 81, 64
1, 19265, Note_off_c, 0, 83, 64
1, 19265, Note_off_c, 0, 85, 64
1, 19265, Note_off_c, 0, 88, 64
1, 19265, Note_off_c, 0, 89, 64
1, 19265, Note_off_c, 0, 90, 64
1, 19265, Note_off_c, 0, 91, 64
1, 19265, Note_off_c, 0, 92, 64
1, 19265, Note_off_c, 0, 98, 64
1, 19266, Note_off_c, 0, 70, 64
1, 19266, Note_off_c, 0, 76, 64
1, 19266, Note_on_c, 0, 85, 24
1, 19266, Note_off_c, 0, 94, 64
1, 19267, Note_off_c, 0, 84, 64
1, 19267, Note_off_c, 0, 96, 64
1, 19268, Note_on_c, 0, 82, 17
1, 19271, Note_on_c, 0, 87, 20
1, 19273, Note_off_c, 0, 82, 64
1, 19275, Note_on_c, 0, 32, 37
1, 19276, Note_off_c, 0, 85, 64
1, 19276, Note_off_c, 0, 87, 64
1, 19276, Note_on_c, 0, 92, 32
1, 19277, Note_on_c, 0, 31, 35
1, 19277, Note_off_c, 0, 32, 64
1, 19277, Note_on_c, 0, 89, 30
1, 19279, Note_off_c, 0, 31, 64
1, 19279, Note_on_c, 0, 96, 14
1, 19280, Note_on_c, 0, 85, 32
1, 19281, Note_on_c, 0, 99, 12
1, 19282, Note_on_c, 0, 55, 39
1, 19282, Note_on_c, 0, 70, 18
1, 19282, Note_on_c, 0, 91, 27
1, 19282, Note_on_c, 0, 93, 27
1, 19282, Note_on_c, 0, 95, 19
1, 19282, Note_on_c, 0, 98, 13
1, 19283, Note_on_c, 0, 61, 29
1, 19283, Note_on_c, 0, 64, 27
1, 19283, Note_on_c, 0, 66, 18
1, 19283, Note_on_c, 0, 74, 11
1, 19283, Note_on_c, 0, 84, 24
1, 19283, Note_on_c, 0, 94, 24
1, 19284, Note_on_c, 0, 49, 36
1, 19284, Note_off_c, 0, 55, 64
1, 19284, Note_on_c, 0, 82, 27
1, 19285, Note_on_c, 0, 87, 38
1, 19285, Note_off_c, 0, 95, 64
1, 19285, Note_off_c, 0, 99, 64
1, 19286, Note_on_c, 0, 63, 19
1, 19286, Note_off_c, 0, 64, 64
1, 19286, Note_off_c, 0, 74, 64
1, 19286, Note_off_c, 0, 84, 64
1, 19286, Note_off_c, 0, 93, 64
1, 19286, Note_off_c, 0, 96, 64
1, 19287, Note_off_c, 0, 61, 64
1, 19287, Note_off_c, 0, 70, 64
1, 19288, Note_on_c, 0, 54, 25
1, 19288, Note_off_c, 0, 66, 64
1, 19288, Note_off_c, 0, 89, 64
1, 19288, Note_on_c, 0, 95, 37
1, 19289, Note_off_c, 0, 49, 64
1, 19289, Note_off_c, 0, 63, 64
1, 19289, Note_off_c, 0, 85, 64
1, 19289, Note_on_c, 0, 93, 25
1, 19290, Note_off_c, 0, 82, 64
1, 19290, Note_on_c, 0, 83, 15
1, 19290, Note_on_c, 0, 85, 29
1, 19290, Note_on_c, 0, 100, 20
1, 19291, Note_on_c, 0, 53, 37
1, 19291, Note_off_c, 0, 54, 64
1, 19291, Note_on_c, 0, 88, 33
1, 19291, Note_on_c, 0, 90, 16
1, 19291, Note_off_c, 0, 98, 64
1, 19292, Note_on_c, 0, 82, 29
1, 19292, Note_on_c, 0, 96, 25
1, 19292, Note_on_c, 0, 102, 23
1, 19293, Note_on_c, 0, 61, 27
1, 19293, Note_on_c, 0, 66, 26
1, 19293, Note_on_c, 0, 81, 10
1, 19293, Note_off_c, 0, 83, 64
1, 19293, Note_on_c, 0, 89, 25
1, 19294, Note_on_c, 0, 49, 33
1, 19294, Note_off_c, 0, 53, 64
1, 19294, Note_on_c, 0, 54, 36
1, 19294, Note_off_c, 0, 85, 64
1, 19294, Note_off_c, 0, 90, 64
1, 19294, Note_off_c, 0, 100, 64
1, 19295, Note_on_c, 0, 84, 19
1, 19295, Note_off_c, 0, 93, 64
1, 19295, Note_on_c, 0, 97, 24
1, 19295, Note_on_c, 0, 98, 26
1, 19296, Note_off_c, 0, 49, 64
1, 19296, Note_on_c, 0, 85, 35
1, 19297, Note_off_c, 0, 66, 64
1, 19297, Note_off_c, 0, 81, 64
1, 19297, Note_off_c, 0, 92, 64
1, 19297, Note_on_c, 0, 93, 31
1, 19298, Note_on_c, 0, 48, 27
1, 19298, Note_on_c, 0, 90, 28
1, 19299, Note_off_c, 0, 84, 64
1, 19299, Note_on_c, 0, 86, 33
1, 19299, Note_off_c, 0, 87, 64
1, 19299, Note_off_c, 0, 89, 64
1, 19299, Note_off_c, 0, 91, 64
1, 19300, Note_off_c, 0, 54, 64
1, 19300, Note_off_c, 0, 61, 64
1, 19300, Note_on_c, 0, 77, 38
1, 19300, Note_on_c, 0, 81, 33
1, 19300, Note_on_c, 0, 83, 36
1, 19300, Note_on_c, 0, 87, 30
1, 19300, Note_off_c, 0, 88, 64
1, 19300, Note_on_c, 0, 91, 28
1, 19300, Note_on_c, 0, 92, 31
1, 19301, Note_off_c, 0, 48, 64
1, 19301, Note_on_c, 0, 76, 38
1, 19301, Note_on_c, 0, 80, 35
1, 19301, Note_off_c, 0, 82, 64
1, 19302, Note_on_c, 0, 62, 43
1, 19302, Note_off_c, 0, 90, 64
1, 19302, Note_off_c, 0, 92, 64
1, 19302, Note_off_c, 0, 94, 64
1, 19302, Note_off_c, 0, 95, 64
1, 19302, Note_off_c, 0, 96, 64
1, 19302, Note_off_c, 0, 97, 64
1, 19302, Note_off_c, 0, 98, 64
1, 19302, Note_off_c, 0, 102, 64
1, 19303, Note_off_c, 0, 76, 64
1, 19303, Note_off_c, 0, 77, 64
1, 19303, Note_off_c, 0, 80, 64
1, 19303, Note_off_c, 0, 81, 64
1, 19303, Note_off_c, 0, 83, 64
1, 19303, Note_off_c, 0, 85, 64
1, 19303, Note_off_c, 0, 86, 64
1, 19303, Note_off_c, 0, 91, 64
1, 19304, Note_off_c, 0, 62, 64
1, 19304, Note_off_c, 0, 93, 64
1, 19307, Note_off_c, 0, 87, 64
1, 19307, Note_on_c, 0, 88, 19
1, 19308, Note_on_c, 0, 91, 19
1, 19312, Note_off_c, 0, 91, 64
1, 19312, Note_on_c, 0, 93, 10
1, 19313, Note_on_c, 0, 96, 9
1, 19314, Note_on_c, 0, 92, 19
1, 19315, Note_on_c, 0, 89, 33
1, 19316, Note_on_c, 0, 85, 24
1, 19316, Note_on_c, 0, 99, 12
1, 19317, Note_off_c, 0, 93, 64
1, 19317, Note_on_c, 0, 94, 31
1, 19317, Note_on_c, 0, 95, 29
1, 19318, Note_on_c, 0, 87, 27
1, 19318, Note_off_c, 0, 96, 64
1, 19319, Note_on_c, 0, 93, 25
1, 19319, Note_on_c, 0, 102, 16
1, 19321, Note_on_c, 0, 54, 33
1, 19321, Note_on_c, 0, 61, 19
1, 19321, Note_on_c, 0, 68, 14
1, 19321, Note_on_c, 0, 98, 29
1, 19322, Note_on_c, 0, 71, 12
1, 19322, Note_off_c, 0, 92, 64
1, 19322, Note_off_c, 0, 99, 64
1, 19322, Note_on_c, 0, 100, 23
1, 19322, Note_off_c, 0, 102, 64
1, 19323, Note_off_c, 0, 88, 64
1, 19323, Note_on_c, 0, 92, 32
1, 19324, Note_on_c, 0, 90, 27
1, 19324, Note_off_c, 0, 95, 64
1, 19324, Note_on_c, 0, 97, 25
1, 19325, Note_on_c, 0, 49, 21
1, 19325, Note_off_c, 0, 71, 64
1, 19325, Note_on_c, 0, 95, 33
1, 19325, Note_on_c, 0, 103, 11
1, 19326, Note_off_c, 0, 54, 64
1, 19326, Note_off_c, 0, 61, 64
1, 19326, Note_off_c, 0, 68, 64
1, 19327, Note_off_c, 0, 85, 64
1, 19327, Note_on_c, 0, 96, 30
1, 19328, Note_off_c, 0, 49, 64
1, 19329, Note_off_c, 0, 87, 64
1, 19329, Note_on_c, 0, 91, 35
1, 19330, Note_on_c, 0, 68, 23
1, 19330, Note_on_c, 0, 76, 13
1, 19330, Note_on_c, 0, 84, 14
1, 19330, Note_on_c, 0, 87, 18
1, 19331, Note_on_c, 0, 61, 23
1, 19331, Note_on_c, 0, 64, 22
1, 19331, Note_on_c, 0, 71, 17
1, 19331, Note_on_c, 0, 78, 12
1, 19331, Note_on_c, 0, 79, 9
1, 19331, Note_off_c, 0, 103, 64
1, 19332, Note_on_c, 0, 88, 31
1, 19333, Note_off_c, 0, 76, 64
1, 19333, Note_off_c, 0, 84, 64
1, 19333, Note_on_c, 0, 86, 16
1, 19333, Note_off_c, 0, 87, 64
1, 19333, Note_off_c, 0, 90, 64
1, 19333, Note_on_c, 0, 102, 23
1, 19334, Note_on_c, 0, 54, 25
1, 19334, Note_off_c, 0, 78, 64
1, 19334, Note_off_c, 0, 79, 64
1, 19335, Note_on_c, 0, 48, 19
1, 19335, Note_off_c, 0, 64, 64
1, 19335, Note_off_c, 0, 71, 64
1, 19335, Note_on_c, 0, 90, 30
1, 19335, Note_off_c, 0, 97, 64
1, 19336, Note_off_c, 0, 61, 64
1, 19336, Note_off_c, 0, 68, 64
1, 19336, Note_off_c, 0, 86, 64
1, 19337, Note_off_c, 0, 54, 64
1, 19337, Note_on_c, 0, 83, 34
1, 19337, Note_on_c, 0, 84, 35
1, 19337, Note_on_c, 0, 87, 31
1, 19337, Note_on_c, 0, 97, 18
1, 19338, Note_on_c, 0, 72, 42
1, 19339, Note_off_c, 0, 48, 64
1, 19339, Note_on_c, 0, 64, 45
1, 19339, Note_on_c, 0, 69, 41
1, 19340, Note_off_c, 0, 72, 64
1, 19340, Note_off_c, 0, 83, 64
1, 19340, Note_off_c, 0, 84, 64
1, 19340, Note_off_c, 0, 87, 64
1, 19340, Note_off_c, 0, 89, 64
1, 19340, Note_off_c, 0, 90, 64
1, 19340, Note_off_c, 0, 91, 64
1, 19340, Note_off_c, 0, 93, 64
1, 19340, Note_off_c, 0, 94, 64
1, 19340, Note_off_c, 0, 95, 64
1, 19340, Note_off_c, 0, 96, 64
1, 19340, Note_off_c, 0, 97, 64
1, 19340, Note_off_c, 0, 98, 64
1, 19341, Note_off_c, 0, 64, 64
1, 19341, Note_off_c, 0, 69, 64
1, 19341, Note_off_c, 0, 88, 64
1, 19341, Note_off_c, 0, 92, 64
1, 19341, Note_off_c, 0, 100, 64
1, 19342, Note_off_c, 0, 102, 64
1, 19345, Note_on_c, 0, 95, 16
1, 19346, Note_on_c, 0, 91, 20
1, 19348, Note_on_c, 0, 33, 21
1, 19348, Note_on_c, 0, 96, 35
1, 19349, Note_on_c, 0, 98, 19
1, 19350, Note_off_c, 0, 95, 64
1, 19351, Note_on_c, 0, 31, 18
1, 19351, Note_off_c, 0, 33, 64
1, 19353, Note_on_c, 0, 92, 19
1, 19353, Note_on_c, 0, 95, 19
1, 19353, Note_off_c, 0, 98, 64
1, 19354, Note_on_c, 0, 101, 28
1, 19355, Note_off_c, 0, 31, 64
1, 19355, Note_on_c, 0, 93, 27
1, 19355, Note_on_c, 0, 97, 21
1, 19356, Note_on_c, 0, 99, 30
1, 19356, Note_on_c, 0, 100, 32
1, 19357, Note_on_c, 0, 68, 18
1, 19357, Note_on_c, 0, 71, 13
1, 19357, Note_on_c, 0, 81, 21
1, 19357, Note_on_c, 0, 88, 19
1, 19357, Note_on_c, 0, 98, 32
1, 19357, Note_on_c, 0, 102, 24
1, 19358, Note_on_c, 0, 77, 12
1, 19358, Note_on_c, 0, 85, 38
1, 19358, Note_on_c, 0, 89, 12
1, 19359, Note_on_c, 0, 49, 22
1, 19359, Note_on_c, 0, 90, 19
1, 19360, Note_off_c, 0, 81, 64
1, 19361, Note_off_c, 0, 71, 64
1, 19361, Note_off_c, 0, 77, 64
1, 19361, Note_off_c, 0, 85, 64
1, 19361, Note_off_c, 0, 89, 64
1, 19361, Note_off_c, 0, 97, 64
1, 19362, Note_off_c, 0, 49, 64
1, 19362, Note_off_c, 0, 68, 64
1, 19362, Note_on_c, 0, 97, 33
1, 19363, Note_on_c, 0, 94, 27
1, 19364, Note_off_c, 0, 90, 64
1, 19364, Note_off_c, 0, 102, 64
1, 19366, Note_on_c, 0, 102, 23
1, 19367, Note_on_c, 0, 79, 17
1, 19367, Note_on_c, 0, 90, 31
1, 19367, Note_off_c, 0, 95, 64
1, 19368, Note_on_c, 0, 68, 20
1, 19368, Note_on_c, 0, 76, 14
1, 19368, Note_on_c, 0, 84, 9
1, 19368, Note_on_c, 0, 87, 11
1, 19368, Note_off_c, 0, 91, 64
1, 19368, Note_on_c, 0, 95, 28
1, 19369, Note_off_c, 0, 92, 64
1, 19370, Note_off_c, 0, 90, 64
1, 19370, Note_on_c, 0, 91, 39
1, 19371, Note_off_c, 0, 79, 64
1, 19371, Note_off_c, 0, 84, 64
1, 19371, Note_off_c, 0, 87, 64
1, 19371, Note_off_c, 0, 88, 64
1, 19371, Note_on_c, 0, 90, 38
1, 19372, Note_on_c, 0, 64, 19
1, 19372, Note_off_c, 0, 76, 64
1, 19372, Note_off_c, 0, 93, 64
1, 19373, Note_off_c, 0, 68, 64
1, 19373, Note_on_c, 0, 89, 33
1, 19374, Note_on_c, 0, 93, 26
1, 19374, Note_off_c, 0, 97, 64
1, 19375, Note_on_c, 0, 67, 42
1, 19375, Note_on_c, 0, 74, 39
1, 19375, Note_on_c, 0, 79, 50
1, 19375, Note_on_c, 0, 81, 41
1, 19375, Note_on_c, 0, 83, 45
1, 19375, Note_on_c, 0, 85, 47
1, 19375, Note_on_c, 0, 86, 52
1, 19375, Note_on_c, 0, 87, 37
1, 19376, Note_on_c, 0, 62, 36
1, 19376, Note_off_c, 0, 64, 64
1, 19376, Note_on_c, 0, 72, 40
1, 19376, Note_on_c, 0, 77, 39
1, 19376, Note_on_c, 0, 92, 31
1, 19377, Note_on_c, 0, 58, 36
1, 19377, Note_on_c, 0, 66, 30
1, 19377, Note_off_c, 0, 67, 64
1, 19377, Note_off_c, 0, 93, 64
1, 19377, Note_off_c, 0, 100, 64
1, 19378, Note_off_c, 0, 62, 64
1, 19379, Note_off_c, 0, 58, 64
1, 19379, Note_on_c, 0, 65, 13
1, 19379, Note_off_c, 0, 66, 64
1, 19379, Note_off_c, 0, 72, 64
1, 19379, Note_off_c, 0, 92, 64
1, 19379, Note_off_c, 0, 95, 64
1, 19380, Note_off_c, 0, 74, 64
1, 19380, Note_on_c, 0, 100, 16
1, 19381, Note_off_c, 0, 85, 64
1, 19381, Note_off_c, 0, 102, 64
1, 19383, Note_on_c, 0, 84, 39
1, 19383, Note_off_c, 0, 100, 64
1, 19385, Note_off_c, 0, 94, 64
1, 19385, Note_off_c, 0, 98, 64
1, 19386, Note_off_c, 0, 65, 64
1, 19386, Note_on_c, 0, 74, 26
1, 19386, Note_on_c, 0, 85, 33
1, 19386, Note_off_c, 0, 99, 64
1, 19387, Note_on_c, 0, 71, 33
1, 19387, Note_off_c, 0, 84, 64
1, 19387, Note_off_c, 0, 96, 64
1, 19388, Note_off_c, 0, 101, 64
1, 19389, Note_on_c, 0, 92, 11
1, 19390, Note_off_c, 0, 90, 64
1, 19390, Note_on_c, 0, 96, 30
1, 19391, Note_on_c, 0, 94, 28
1, 19391, Note_on_c, 0, 101, 34
1, 19392, Note_on_c, 0, 84, 30
1, 19392, Note_off_c, 0, 85, 64
1, 19392, Note_off_c, 0, 89, 64
1, 19392, Note_off_c, 0, 92, 64
1, 19393, Note_on_c, 0, 85, 36
1, 19393, Note_on_c, 0, 100, 27
1, 19394, Note_off_c, 0, 84, 64
1, 19394, Note_on_c, 0, 89, 41
1, 19394, Note_on_c, 0, 90, 35
1, 19394, Note_on_c, 0, 92, 18
1, 19395, Note_off_c, 0, 74, 64
1, 19395, Note_on_c, 0, 75, 31
1, 19395, Note_off_c, 0, 77, 64
1, 19395, Note_on_c, 0, 78, 36
1, 19395, Note_off_c, 0, 87, 64
1, 19395, Note_on_c, 0, 88, 31
1, 19396, Note_on_c, 0, 74, 41
1, 19396, Note_off_c, 0, 86, 64
1, 19396, Note_off_c, 0, 96, 64
1, 19397, Note_off_c, 0, 71, 64
1, 19397, Note_off_c, 0, 75, 64
1, 19397, Note_on_c, 0, 96, 41
1, 19398, Note_on_c, 0, 67, 32
1, 19398, Note_on_c, 0, 69, 14
1, 19398, Note_on_c, 0, 72, 15
1, 19398, Note_off_c, 0, 85, 64
1, 19398, Note_off_c, 0, 92, 64
1, 19399, Note_off_c, 0, 88, 64
1, 19399, Note_on_c, 0, 99, 35
1, 19400, Note_off_c, 0, 94, 64
1, 19401, Note_off_c, 0, 72, 64
1, 19401, Note_on_c, 0, 85, 23
1, 19401, Note_on_c, 0, 88, 21
1, 19401, Note_on_c, 0, 94, 25
1, 19402, Note_off_c, 0, 69, 64
1, 19402, Note_on_c, 0, 86, 50
1, 19404, Note_off_c, 0, 79, 64
1, 19404, Note_off_c, 0, 88, 64
1, 19404, Note_off_c, 0, 91, 64
1, 19404, Note_on_c, 0, 92, 29
1, 19405, Note_off_c, 0, 81, 64
1, 19405, Note_on_c, 0, 84, 32
1, 19405, Note_off_c, 0, 85, 64
1, 19405, Note_off_c, 0, 96, 64
1, 19406, Note_on_c, 0, 87, 27
1, 19407, Note_on_c, 0, 49, 11
1, 19407, Note_on_c, 0, 71, 32
1, 19407, Note_on_c, 0, 79, 40
1, 19407, Note_off_c, 0, 84, 64
1, 19407, Note_on_c, 0, 85, 36
1, 19407, Note_off_c, 0, 94, 64
1, 19407, Note_on_c, 0, 96, 30
1, 19409, Note_on_c, 0, 80, 26
1, 19409, Note_on_c, 0, 84, 36
1, 19409, Note_off_c, 0, 85, 64
1, 19410, Note_off_c, 0, 49, 64
1, 19410, Note_on_c, 0, 94, 26
1, 19411, Note_off_c, 0, 67, 64
1, 19411, Note_off_c, 0, 84, 64
1, 19411, Note_on_c, 0, 85, 31
1, 19411, Note_on_c, 0, 103, 17
1, 19412, Note_on_c, 0, 56, 26
1, 19412, Note_on_c, 0, 68, 41
1, 19412, Note_on_c, 0, 77, 40
1, 19412, Note_off_c, 0, 78, 64
1, 19412, Note_on_c, 0, 88, 27
1, 19413, Note_on_c, 0, 64, 31
1, 19413, Note_off_c, 0, 71, 64
1, 19413, Note_off_c, 0, 80, 64
1, 19413, Note_off_c, 0, 85, 64
1, 19413, Note_off_c, 0, 87, 64
1, 19414, Note_off_c, 0, 68, 64
1, 19414, Note_on_c, 0, 69, 36
1, 19414, Note_on_c, 0, 73, 31
1, 19414, Note_on_c, 0, 84, 22
1, 19415, Note_off_c, 0, 56, 64
1, 19415, Note_off_c, 0, 92, 64
1, 19415, Note_off_c, 0, 94, 64
1, 19415, Note_off_c, 0, 96, 64
1, 19415, Note_off_c, 0, 101, 64
1, 19416, Note_off_c, 0, 64, 64
1, 19416, Note_off_c, 0, 69, 64
1, 19416, Note_off_c, 0, 73, 64
1, 19416, Note_off_c, 0, 88, 64
1, 19416, Note_off_c, 0, 89, 64
1, 19416, Note_off_c, 0, 100, 64
1, 19417, Note_off_c, 0, 103, 64
1, 19418, Note_off_c, 0, 90, 64
1, 19418, Note_off_c, 0, 99, 64
1, 19419, Note_on_c, 0, 68, 51
1, 19419, Note_off_c, 0, 74, 64
1, 19419, Note_on_c, 0, 75, 56
1, 19419, Note_on_c, 0, 81, 26
1, 19419, Note_off_c, 0, 84, 64
1, 19420, Note_on_c, 0, 84, 39
1, 19420, Note_on_c, 0, 88, 29
1, 19421, Note_on_c, 0, 72, 22
1, 19421, Note_off_c, 0, 77, 64
1, 19422, Note_off_c, 0, 83, 64
1, 19422, Note_on_c, 0, 90, 43
1, 19422, Note_on_c, 0, 94, 29
1, 19422, Note_on_c, 0, 97, 23
1, 19422, Note_on_c, 0, 101, 18
1, 19423, Note_off_c, 0, 79, 64
1, 19423, Note_on_c, 0, 83, 42
1, 19424, Note_off_c, 0, 72, 64
1, 19425, Note_on_c, 0, 72, 24
1, 19425, Note_off_c, 0, 88, 64
1, 19426, Note_on_c, 0, 85, 17
1, 19427, Note_on_c, 0, 79, 17
1, 19427, Note_off_c, 0, 97, 64
1, 19428, Note_off_c, 0, 81, 64
1, 19428, Note_on_c, 0, 88, 30
1, 19428, Note_off_c, 0, 94, 64
1, 19429, Note_off_c, 0, 68, 64
1, 19429, Note_on_c, 0, 69, 58
1, 19429, Note_off_c, 0, 72, 64
1, 19429, Note_off_c, 0, 75, 64
1, 19429, Note_on_c, 0, 76, 47
1, 19429, Note_on_c, 0, 93, 37
1, 19429, Note_on_c, 0, 99, 29
1, 19429, Note_on_c, 0, 103, 22
1, 19430, Note_on_c, 0, 72, 24
1, 19430, Note_off_c, 0, 79, 64
1, 19430, Note_off_c, 0, 85, 64
1, 19431, Note_on_c, 0, 79, 34
1, 19431, Note_on_c, 0, 91, 45
1, 19432, Note_off_c, 0, 69, 64
1, 19432, Note_on_c, 0, 92, 36
1, 19432, Note_on_c, 0, 94, 12
1, 19433, Note_on_c, 0, 67, 68
1, 19433, Note_on_c, 0, 89, 28
1, 19434, Note_off_c, 0, 72, 64
1, 19434, Note_on_c, 0, 77, 38
1, 19434, Note_off_c, 0, 88, 64
1, 19435, Note_on_c, 0, 71, 18
1, 19435, Note_off_c, 0, 76, 64
1, 19435, Note_off_c, 0, 84, 64
1, 19435, Note_on_c, 0, 85, 28
1, 19435, Note_on_c, 0, 87, 25
1, 19436, Note_on_c, 0, 74, 27
1, 19437, Note_off_c, 0, 94, 64
1, 19437, Note_on_c, 0, 96, 20
1, 19438, Note_on_c, 0, 84, 19
1, 19438, Note_off_c, 0, 85, 64
1, 19438, Note_off_c, 0, 101, 64
1, 19439, Note_off_c, 0, 71, 64
1, 19439, Note_on_c, 0, 100, 32
1, 19439, Note_on_c, 0, 101, 36
1, 19440, Note_off_c, 0, 103, 64
1, 19442, Note_off_c, 0, 74, 64
1, 19442, Note_on_c, 0, 88, 17
1, 19443, Note_off_c, 0, 87, 64
1, 19443, Note_off_c, 0, 89, 64
1, 19444, Note_on_c, 0, 74, 29
1, 19445, Note_off_c, 0, 91, 64
1, 19445, Note_off_c, 0, 96, 64
1, 19446, Note_on_c, 0, 71, 19
1, 19447, Note_off_c, 0, 88, 64
1, 19448, Note_off_c, 0, 74, 64
1, 19449, Note_on_c, 0, 66, 53
1, 19449, Note_off_c, 0, 67, 64
1, 19449, Note_on_c, 0, 76, 45
1, 19449, Note_off_c, 0, 79, 64
1, 19449, Note_on_c, 0, 80, 36
1, 19449, Note_on_c, 0, 91, 34
1, 19449, Note_on_c, 0, 94, 33
1, 19449, Note_on_c, 0, 96, 32
1, 19450, Note_on_c, 0, 53, 58
1, 19450, Note_on_c, 0, 68, 58
1, 19450, Note_off_c, 0, 71, 64
1, 19450, Note_on_c, 0, 73, 47
1, 19450, Note_off_c, 0, 77, 64
1, 19450, Note_off_c, 0, 84, 64
1, 19450, Note_on_c, 0, 88, 45
1, 19450, Note_on_c, 0, 97, 36
1, 19451, Note_off_c, 0, 66, 64
1, 19451, Note_on_c, 0, 85, 50
1, 19451, Note_on_c, 0, 89, 37
1, 19452, Note_on_c, 0, 51, 73
1, 19452, Note_off_c, 0, 53, 64
1, 19452, Note_off_c, 0, 68, 64
1, 19452, Note_off_c, 0, 101, 64
1, 19453, Note_on_c, 0, 45, 85
1, 19453, Note_off_c, 0, 51, 64
1, 19453, Note_off_c, 0, 76, 64
1, 19453, Note_off_c, 0, 80, 64
1, 19453, Note_on_c, 0, 84, 30
1, 19453, Note_off_c, 0, 85, 64
1, 19453, Note_off_c, 0, 93, 64
1, 19453, Note_off_c, 0, 96, 64
1, 19453, Note_off_c, 0, 97, 64
1, 19453, Note_off_c, 0, 100, 64
1, 19454, Note_on_c, 0, 42, 93
1, 19454, Note_off_c, 0, 45, 64
1, 19454, Note_off_c, 0, 73, 64
1, 19454, Note_off_c, 0, 86, 64
1, 19454, Note_on_c, 0, 93, 20
1, 19454, Note_off_c, 0, 99, 64
1, 19455, Note_on_c, 0, 41, 97
1, 19455, Note_off_c, 0, 42, 64
1, 19456, Note_on_c, 0, 38, 97
1, 19456, Note_off_c, 0, 41, 64
1, 19456, Note_on_c, 0, 69, 23
1, 19456, Note_on_c, 0, 85, 29
1, 19457, Note_on_c, 0, 37, 98
1, 19457, Note_off_c, 0, 38, 64
1, 19457, Note_off_c, 0, 84, 64
1, 19458, Note_on_c, 0, 36, 96
1, 19458, Note_off_c, 0, 37, 64
1, 19458, Note_on_c, 0, 74, 42
1, 19458, Note_on_c, 0, 82, 34
1, 19459, Note_on_c, 0, 34, 95
1, 19459, Note_off_c, 0, 36, 64
1, 19459, Note_on_c, 0, 70, 25
1, 19459, Note_off_c, 0, 83, 64
1, 19459, Note_on_c, 0, 84, 32
1, 19460, Note_on_c, 0, 33, 95
1, 19460, Note_off_c, 0, 34, 64
1, 19460, Note_on_c, 0, 64, 13
1, 19460, Note_off_c, 0, 69, 64
1, 19460, Note_on_c, 0, 77, 36
1, 19460, Note_off_c, 0, 94, 64
1, 19461, Note_on_c, 0, 67, 38
1, 19461, Note_on_c, 0, 76, 42
1, 19461, Note_on_c, 0, 78, 42
1, 19462, Note_on_c, 0, 32, 97
1, 19462, Note_off_c, 0, 33, 64
1, 19462, Note_off_c, 0, 74, 64
1, 19462, Note_off_c, 0, 77, 64
1, 19462, Note_off_c, 0, 84, 64
1, 19463, Note_off_c, 0, 64, 64
1, 19463, Note_on_c, 0, 75, 42
1, 19463, Note_off_c, 0, 76, 64
1, 19463, Note_on_c, 0, 81, 29
1, 19463, Note_on_c, 0, 83, 44
1, 19463, Note_on_c, 0, 84, 32
1, 19463, Note_off_c, 0, 85, 64
1, 19464, Note_on_c, 0, 31, 96
1, 19464, Note_off_c, 0, 32, 64
1, 19464, Note_off_c, 0, 70, 64
1, 19464, Note_off_c, 0, 78, 64
1, 19464, Note_off_c, 0, 93, 64
1, 19465, Note_on_c, 0, 30, 94
1, 19465, Note_off_c, 0, 31, 64
1, 19465, Note_on_c, 0, 71, 40
1, 19465, Note_on_c, 0, 74, 55
1, 19465, Note_off_c, 0, 75, 64
1, 19465, Note_on_c, 0, 77, 56
1, 19465, Note_on_c, 0, 80, 39
1, 19465, Note_off_c, 0, 81, 64
1, 19465, Note_off_c, 0, 91, 64
1, 19465, Note_on_c, 0, 93, 24
1, 19466, Note_on_c, 0, 79, 39
1, 19466, Note_off_c, 0, 82, 64
1, 19466, Note_off_c, 0, 84, 64
1, 19466, Note_off_c, 0, 88, 64
1, 19468, Note_on_c, 0, 75, 36
1, 19468, Note_on_c, 0, 81, 47
1, 19468, Note_on_c, 0, 85, 37
1, 19468, Note_off_c, 0, 89, 64
1, 19469, Note_off_c, 0, 30, 64
1, 19469, Note_on_c, 0, 72, 36
1, 19469, Note_off_c, 0, 74, 64
1, 19469, Note_off_c, 0, 79, 64
1, 19469, Note_on_c, 0, 88, 44
1, 19469, Note_on_c, 0, 94, 18
1, 19470, Note_on_c, 0, 37, 70
1, 19470, Note_on_c, 0, 61, 26
1, 19470, Note_on_c, 0, 70, 40
1, 19470, Note_off_c, 0, 71, 64
1, 19470, Note_off_c, 0, 77, 64
1, 19470, Note_on_c, 0, 78, 42
1, 19470, Note_on_c, 0, 89, 15
1, 19471, Note_on_c, 0, 31, 76
1, 19471, Note_off_c, 0, 37, 64
1, 19471, Note_on_c, 0, 49, 62
1, 19471, Note_off_c, 0, 72, 64
1, 19471, Note_off_c, 0, 75, 64
1, 19471, Note_on_c, 0, 76, 35
1, 19471, Note_off_c, 0, 93, 64
1, 19472, Note_on_c, 0, 30, 80
1, 19472, Note_off_c, 0, 31, 64
1, 19472, Note_on_c, 0, 74, 36
1, 19472, Note_off_c, 0, 80, 64
1, 19472, Note_on_c, 0, 96, 19
1, 19473, Note_on_c, 0, 29, 80
1, 19473, Note_off_c, 0, 30, 64
1, 19473, Note_off_c, 0, 61, 64
1, 19473, Note_on_c, 0, 63, 18
1, 19473, Note_on_c, 0, 72, 27
1, 19473, Note_off_c, 0, 76, 64
1, 19473, Note_off_c, 0, 89, 64
1, 19474, Note_on_c, 0, 73, 31
1, 19474, Note_off_c, 0, 74, 64
1, 19475, Note_off_c, 0, 29, 64
1, 19475, Note_on_c, 0, 30, 75
1, 19475, Note_off_c, 0, 70, 64
1, 19475, Note_on_c, 0, 89, 30
1, 19476, Note_off_c, 0, 49, 64
1, 19476, Note_off_c, 0, 63, 64
1, 19476, Note_off_c, 0, 72, 64
1, 19476, Note_on_c, 0, 75, 28
1, 19476, Note_on_c, 0, 79, 38
1, 19476, Note_off_c, 0, 90, 64
1, 19476, Note_on_c, 0, 99, 12
1, 19477, Note_on_c, 0, 29, 72
1, 19477, Note_off_c, 0, 30, 64
1, 19477, Note_off_c, 0, 85, 64
1, 19477, Note_off_c, 0, 94, 64
1, 19477, Note_on_c, 0, 97, 15
1, 19478, Note_off_c, 0, 78, 64
1, 19478, Note_on_c, 0, 80, 42
1, 19478, Note_off_c, 0, 89, 64
1, 19479, Note_off_c, 0, 29, 64
1, 19479, Note_off_c, 0, 75, 64
1, 19479, Note_on_c, 0, 76, 37
1, 19479, Note_off_c, 0, 79, 64
1, 19479, Note_on_c, 0, 89, 22
1, 19480, Note_on_c, 0, 42, 66
1, 19480, Note_on_c, 0, 90, 36
1, 19480, Note_on_c, 0, 94, 10
1, 19481, Note_on_c, 0, 32, 72
1, 19481, Note_off_c, 0, 42, 64
1, 19481, Note_on_c, 0, 61, 30
1, 19481, Note_on_c, 0, 64, 27
1, 19481, Note_off_c, 0, 67, 64
1, 19481, Note_on_c, 0, 70, 25
1, 19481, Note_off_c, 0, 73, 64
1, 19481, Note_off_c, 0, 76, 64
1, 19481, Note_on_c, 0, 77, 44
1, 19481, Note_on_c, 0, 87, 31
1, 19481, Note_off_c, 0, 96, 64
1, 19482, Note_on_c, 0, 30, 81
1, 19482, Note_off_c, 0, 32, 64
1, 19482, Note_on_c, 0, 49, 60
1, 19482, Note_on_c, 0, 74, 42
1, 19482, Note_off_c, 0, 81, 64
1, 19482, Note_off_c, 0, 89, 64
1, 19482, Note_off_c, 0, 97, 64
1, 19483, Note_on_c, 0, 76, 49
1, 19483, Note_off_c, 0, 77, 64
1, 19483, Note_on_c, 0, 78, 35
1, 19483, Note_off_c, 0, 87, 64
1, 19484, Note_off_c, 0, 64, 64
1, 19484, Note_off_c, 0, 70, 64
1, 19484, Note_off_c, 0, 74, 64
1, 19484, Note_on_c, 0, 85, 36
1, 19484, Note_on_c, 0, 89, 45
1, 19484, Note_off_c, 0, 99, 64
1, 19485, Note_off_c, 0, 49, 64
1, 19485, Note_on_c, 0, 54, 42
1, 19485, Note_on_c, 0, 74, 44
1, 19485, Note_on_c, 0, 82, 30
1, 19485, Note_off_c, 0, 83, 64
1, 19485, Note_on_c, 0, 84, 25
1, 19485, Note_on_c, 0, 87, 34
1, 19486, Note_off_c, 0, 30, 64
1, 19486, Note_on_c, 0, 33, 61
1, 19486, Note_off_c, 0, 61, 64
1, 19486, Note_on_c, 0, 83, 32
1, 19486, Note_on_c, 0, 91, 27
1, 19487, Note_off_c, 0, 54, 64
1, 19487, Note_on_c, 0, 65, 49
1, 19487, Note_off_c, 0, 74, 64
1, 19487, Note_on_c, 0, 75, 43
1, 19487, Note_off_c, 0, 78, 64
1, 19487, Note_on_c, 0, 81, 39
1, 19487, Note_off_c, 0, 82, 64
1, 19487, Note_on_c, 0, 86, 40
1, 19487, Note_off_c, 0, 90, 64
1, 19488, Note_off_c, 0, 33, 64
1, 19488, Note_on_c, 0, 53, 73
1, 19488, Note_on_c, 0, 73, 45
1, 19488, Note_off_c, 0, 76, 64
1, 19488, Note_on_c, 0, 78, 39
1, 19488, Note_off_c, 0, 84, 64
1, 19488, Note_off_c, 0, 88, 64
1, 19488, Note_on_c, 0, 90, 39
1, 19488, Note_off_c, 0, 94, 64
1, 19489, Note_off_c, 0, 65, 64
1, 19489, Note_on_c, 0, 67, 47
1, 19489, Note_on_c, 0, 69, 36
1, 19489, Note_off_c, 0, 80, 64
1, 19490, Note_on_c, 0, 48, 85
1, 19490, Note_off_c, 0, 53, 64
1, 19490, Note_off_c, 0, 87, 64
1, 19490, Note_off_c, 0, 91, 64
1, 19491, Note_on_c, 0, 45, 94
1, 19491, Note_off_c, 0, 48, 64
1, 19491, Note_off_c, 0, 69, 64
1, 19491, Note_on_c, 0, 72, 34
1, 19491, Note_off_c, 0, 73, 64
1, 19491, Note_on_c, 0, 77, 35
1, 19491, Note_off_c, 0, 78, 64
1, 19491, Note_off_c, 0, 83, 64
1, 19491, Note_off_c, 0, 85, 64
1, 19492, Note_on_c, 0, 42, 99
1, 19492, Note_off_c, 0, 45, 64
1, 19493, Note_on_c, 0, 40, 97
1, 19493, Note_off_c, 0, 42, 64
1, 19493, Note_on_c, 0, 74, 42
1, 19494, Note_on_c, 0, 38, 97
1, 19494, Note_off_c, 0, 40, 64
1, 19494, Note_off_c, 0, 75, 64
1, 19494, Note_on_c, 0, 78, 41
1, 19494, Note_on_c, 0, 83, 18
1, 19495, Note_on_c, 0, 37, 96
1, 19495, Note_off_c, 0, 38, 64
1, 19495, Note_off_c, 0, 72, 64
1, 19495, Note_on_c, 0, 91, 25
1, 19495, Note_off_c, 0, 92, 64
1, 19496, Note_on_c, 0, 35, 95
1, 19496, Note_off_c, 0, 37, 64
1, 19496, Note_off_c, 0, 77, 64
1, 19497, Note_on_c, 0, 34, 94
1, 19497, Note_off_c, 0, 35, 64
1, 19497, Note_off_c, 0, 74, 64
1, 19498, Note_on_c, 0, 33, 94
1, 19498, Note_off_c, 0, 34, 64
1, 19498, Note_on_c, 0, 74, 41
1, 19498, Note_on_c, 0, 80, 36
1, 19500, Note_on_c, 0, 32, 95
1, 19500, Note_off_c, 0, 33, 64
1, 19500, Note_on_c, 0, 49, 31
1, 19500, Note_off_c, 0, 81, 64
1, 19500, Note_on_c, 0, 82, 31
1, 19500, Note_off_c, 0, 83, 64
1, 19500, Note_on_c, 0, 87, 15
1, 19501, Note_on_c, 0, 31, 96
1, 19501, Note_off_c, 0, 32, 64
1, 19501, Note_off_c, 0, 80, 64
1, 19501, Note_off_c, 0, 90, 64
1, 19501, Note_off_c, 0, 91, 64
1, 19502, Note_on_c, 0, 48, 26
1, 19502, Note_off_c, 0, 49, 64
1, 19502, Note_on_c, 0, 71, 29
1, 19502, Note_off_c, 0, 78, 64
1, 19502, Note_on_c, 0, 83, 35
1, 19502, Note_on_c, 0, 85, 43
1, 19503, Note_on_c, 0, 30, 89
1, 19503, Note_off_c, 0, 31, 64
1, 19503, Note_on_c, 0, 78, 44
1, 19503, Note_off_c, 0, 82, 64
1, 19503, Note_off_c, 0, 87, 64
1, 19503, Note_on_c, 0, 88, 20
1, 19504, Note_off_c, 0, 74, 64
1, 19504, Note_on_c, 0, 75, 39
1, 19504, Note_on_c, 0, 92, 35
1, 19504, Note_on_c, 0, 94, 23
1, 19505, Note_off_c, 0, 48, 64
1, 19505, Note_on_c, 0, 81, 34
1, 19506, Note_off_c, 0, 30, 64
1, 19506, Note_on_c, 0, 43, 66
1, 19506, Note_on_c, 0, 70, 32
1, 19506, Note_off_c, 0, 71, 64
1, 19506, Note_on_c, 0, 84, 22
1, 19506, Note_off_c, 0, 88, 64
1, 19506, Note_on_c, 0, 96, 22
1, 19506, Note_on_c, 0, 100, 27
1, 19507, Note_on_c, 0, 72, 24
1, 19508, Note_on_c, 0, 31, 72
1, 19508, Note_off_c, 0, 43, 64
1, 19508, Note_on_c, 0, 61, 32
1, 19508, Note_on_c, 0, 66, 60
1, 19508, Note_off_c, 0, 67, 64
1, 19508, Note_off_c, 0, 75, 64
1, 19508, Note_on_c, 0, 76, 43
1, 19508, Note_off_c, 0, 78, 64
1, 19508, Note_on_c, 0, 79, 32
1, 19509, Note_on_c, 0, 30, 79
1, 19509, Note_off_c, 0, 31, 64
1, 19509, Note_off_c, 0, 84, 64
1, 19509, Note_off_c, 0, 86, 64
1, 19510, Note_on_c, 0, 29, 81
1, 19510, Note_off_c, 0, 30, 64
1, 19510, Note_off_c, 0, 72, 64
1, 19511, Note_off_c, 0, 29, 64
1, 19511, Note_on_c, 0, 30, 79
1, 19511, Note_on_c, 0, 49, 55
1, 19512, Note_off_c, 0, 61, 64
1, 19512, Note_on_c, 0, 74, 38
1, 19512, Note_off_c, 0, 76, 64
1, 19512, Note_off_c, 0, 79, 64
1, 19512, Note_off_c, 0, 100, 64
1, 19513, Note_off_c, 0, 49, 64
1, 19513, Note_off_c, 0, 83, 64
1, 19513, Note_on_c, 0, 84, 25
1, 19513, Note_on_c, 0, 87, 29
1, 19513, Note_on_c, 0, 91, 36
1, 19514, Note_on_c, 0, 29, 73
1, 19514, Note_off_c, 0, 30, 64
1, 19515, Note_off_c, 0, 70, 64
1, 19515, Note_on_c, 0, 77, 27
1, 19515, Note_off_c, 0, 81, 64
1, 19515, Note_on_c, 0, 83, 41
1, 19515, Note_off_c, 0, 87, 64
1, 19516, Note_off_c, 0, 29, 64
1, 19516, Note_on_c, 0, 30, 65
1, 19516, Note_on_c, 0, 80, 27
1, 19516, Note_off_c, 0, 84, 64
1, 19517, Note_on_c, 0, 71, 27
1, 19517, Note_on_c, 0, 93, 11
1, 19517, Note_off_c, 0, 96, 64
1, 19518, Note_off_c, 0, 30, 64
1, 19518, Note_on_c, 0, 36, 71
1, 19518, Note_on_c, 0, 75, 31
1, 19518, Note_off_c, 0, 94, 64
1, 19519, Note_on_c, 0, 30, 79
1, 19519, Note_off_c, 0, 36, 64
1, 19519, Note_on_c, 0, 81, 39
1, 19520, Note_on_c, 0, 29, 81
1, 19520, Note_off_c, 0, 30, 64
1, 19520, Note_on_c, 0, 61, 26
1, 19520, Note_on_c, 0, 79, 41
1, 19520, Note_off_c, 0, 80, 64
1, 19520, Note_on_c, 0, 90, 29
1, 19520, Note_off_c, 0, 93, 64
1, 19521, Note_off_c, 0, 71, 64
1, 19521, Note_off_c, 0, 75, 64
1, 19521, Note_off_c, 0, 77, 64
1, 19521, Note_on_c, 0, 84, 35
1, 19521, Note_off_c, 0, 92, 64
1, 19522, Note_off_c, 0, 29, 64
1, 19522, Note_on_c, 0, 30, 77
1, 19522, Note_on_c, 0, 48, 54
1, 19523, Note_off_c, 0, 30, 64
1, 19523, Note_on_c, 0, 31, 68
1, 19523, Note_on_c, 0, 54, 33
1, 19523, Note_off_c, 0, 61, 64
1, 19523, Note_on_c, 0, 77, 29
1, 19523, Note_on_c, 0, 92, 28
1, 19524, Note_off_c, 0, 31, 64
1, 19524, Note_on_c, 0, 32, 57
1, 19524, Note_off_c, 0, 48, 64
1, 19524, Note_off_c, 0, 66, 64
1, 19524, Note_on_c, 0, 70, 44
1, 19524, Note_on_c, 0, 72, 41
1, 19524, Note_on_c, 0, 76, 39
1, 19524, Note_off_c, 0, 79, 64
1, 19524, Note_on_c, 0, 87, 34
1, 19524, Note_on_c, 0, 94, 25
1, 19525, Note_off_c, 0, 54, 64
1, 19525, Note_on_c, 0, 66, 56
1, 19525, Note_off_c, 0, 74, 64
1, 19525, Note_off_c, 0, 81, 64
1, 19525, Note_off_c, 0, 85, 64
1, 19526, Note_off_c, 0, 32, 64
1, 19526, Note_off_c, 0, 77, 64
1, 19526, Note_on_c, 0, 81, 33
1, 19526, Note_on_c, 0, 85, 25
1, 19527, Note_on_c, 0, 49, 78
1, 19527, Note_on_c, 0, 64, 44
1, 19527, Note_off_c, 0, 70, 64
1, 19527, Note_off_c, 0, 72, 64
1, 19527, Note_on_c, 0, 79, 22
1, 19527, Note_on_c, 0, 86, 32
1, 19527, Note_off_c, 0, 89, 64
1, 19527, Note_off_c, 0, 94, 64
1, 19528, Note_on_c, 0, 45, 90
1, 19528, Note_off_c, 0, 49, 64
1, 19528, Note_off_c, 0, 66, 64
1, 19528, Note_on_c, 0, 74, 31
1, 19528, Note_off_c, 0, 84, 64
1, 19528, Note_off_c, 0, 91, 64
1, 19529, Note_on_c, 0, 42, 96
1, 19529, Note_off_c, 0, 45, 64
1, 19529, Note_off_c, 0, 76, 64
1, 19530, Note_on_c, 0, 41, 98
1, 19530, Note_off_c, 0, 42, 64
1, 19530, Note_off_c, 0, 64, 64
1, 19530, Note_on_c, 0, 73, 32
1, 19530, Note_on_c, 0, 76, 24
1, 19530, Note_off_c, 0, 79, 64
1, 19530, Note_on_c, 0, 84, 20
1, 19531, Note_on_c, 0, 39, 96
1, 19531, Note_off_c, 0, 41, 64
1, 19531, Note_on_c, 0, 68, 28
1, 19531, Note_off_c, 0, 87, 64
1, 19532, Note_on_c, 0, 37, 97
1, 19532, Note_off_c, 0, 39, 64
1, 19532, Note_off_c, 0, 74, 64
1, 19532, Note_on_c, 0, 75, 38
1, 19532, Note_off_c, 0, 85, 64
1, 19532, Note_on_c, 0, 91, 16
1, 19533, Note_on_c, 0, 36, 96
1, 19533, Note_off_c, 0, 37, 64
1, 19533, Note_on_c, 0, 61, 15
1, 19533, Note_on_c, 0, 64, 27
1, 19533, Note_off_c, 0, 76, 64
1, 19533, Note_on_c, 0, 80, 31
1, 19534, Note_on_c, 0, 35, 95
1, 19534, Note_off_c, 0, 36, 64
1, 19534, Note_on_c, 0, 89, 24
1, 19535, Note_on_c, 0, 34, 95
1, 19535, Note_off_c, 0, 35, 64
1, 19535, Note_on_c, 0, 58, 11
1, 19535, Note_on_c, 0, 82, 30
1, 19535, Note_off_c, 0, 83, 64
1, 19535, Note_off_c, 0, 92, 64
1, 19536, Note_on_c, 0, 33, 94
1, 19536, Note_off_c, 0, 34, 64
1, 19536, Note_off_c, 0, 61, 64
1, 19536, Note_off_c, 0, 68, 64
1, 19536, Note_off_c, 0, 75, 64
1, 19536, Note_off_c, 0, 81, 64
1, 19537, Note_on_c, 0, 32, 96
1, 19537, Note_off_c, 0, 33, 64
1, 19537, Note_on_c, 0, 66, 46
1, 19537, Note_on_c, 0, 75, 31
1, 19538, Note_off_c, 0, 58, 64
1, 19538, Note_on_c, 0, 61, 21
1, 19538, Note_on_c, 0, 83, 26
1, 19539, Note_on_c, 0, 31, 96
1, 19539, Note_off_c, 0, 32, 64
1, 19539, Note_off_c, 0, 75, 64
1, 19539, Note_off_c, 0, 80, 64
1, 19539, Note_on_c, 0, 81, 23
1, 19539, Note_on_c, 0, 85, 39
1, 19539, Note_off_c, 0, 91, 64
1, 19540, Note_on_c, 0, 30, 93
1, 19540, Note_off_c, 0, 31, 64
1, 19540, Note_off_c, 0, 84, 64
1, 19541, Note_off_c, 0, 89, 64
1, 19542, Note_off_c, 0, 64, 64
1, 19542, Note_on_c, 0, 80, 26
1, 19542, Note_off_c, 0, 81, 64
1, 19542, Note_off_c, 0, 86, 64
1, 19542, Note_on_c, 0, 87, 29
1, 19543, Note_off_c, 0, 30, 64
1, 19543, Note_off_c, 0, 61, 64
1, 19543, Note_on_c, 0, 75, 31
1, 19543, Note_on_c, 0, 86, 42
1, 19544, Note_on_c, 0, 54, 56
1, 19544, Note_on_c, 0, 77, 38
1, 19544, Note_on_c, 0, 96, 16
1, 19544, Note_on_c, 0, 100, 25
1, 19545, Note_on_c, 0, 37, 70
1, 19545, Note_on_c, 0, 61, 29
1, 19545, Note_on_c, 0, 70, 26
1, 19545, Note_off_c, 0, 73, 64
1, 19545, Note_on_c, 0, 74, 22
1, 19545, Note_off_c, 0, 75, 64
1, 19545, Note_on_c, 0, 88, 33
1, 19546, Note_on_c, 0, 31, 75
1, 19546, Note_off_c, 0, 37, 64
1, 19546, Note_off_c, 0, 80, 64
1, 19546, Note_off_c, 0, 82, 64
1, 19546, Note_off_c, 0, 83, 64
1, 19547, Note_on_c, 0, 30, 78
1, 19547, Note_off_c, 0, 31, 64
1, 19547, Note_on_c, 0, 80, 33
1, 19547, Note_on_c, 0, 91, 14
1, 19548, Note_off_c, 0, 70, 64
1, 19549, Note_off_c, 0, 54, 64
1, 19549, Note_off_c, 0, 74, 64
1, 19549, Note_on_c, 0, 83, 34
1, 19549, Note_off_c, 0, 87, 64
1, 19549, Note_off_c, 0, 100, 64
1, 19550, Note_on_c, 0, 54, 48
1, 19550, Note_off_c, 0, 61, 64
1, 19550, Note_off_c, 0, 77, 64
1, 19550, Note_on_c, 0, 79, 31
1, 19550, Note_off_c, 0, 85, 64
1, 19550, Note_on_c, 0, 89, 17
1, 19551, Note_on_c, 0, 29, 72
1, 19551, Note_off_c, 0, 30, 64
1, 19551, Note_on_c, 0, 70, 25
1, 19551, Note_on_c, 0, 77, 33
1, 19551, Note_on_c, 0, 85, 24
1, 19551, Note_on_c, 0, 93, 19
1, 19552, Note_off_c, 0, 54, 64
1, 19552, Note_on_c, 0, 73, 31
1, 19552, Note_off_c, 0, 90, 64
1, 19553, Note_off_c, 0, 89, 64
1, 19553, Note_on_c, 0, 90, 17
1, 19554, Note_off_c, 0, 29, 64
1, 19554, Note_off_c, 0, 88, 64
1, 19554, Note_off_c, 0, 91, 64
1, 19554, Note_off_c, 0, 93, 64
1, 19555, Note_on_c, 0, 42, 67
1, 19555, Note_off_c, 0, 66, 64
1, 19555, Note_off_c, 0, 70, 64
1, 19555, Note_on_c, 0, 71, 28
1, 19555, Note_on_c, 0, 74, 46
1, 19555, Note_off_c, 0, 80, 64
1, 19555, Note_on_c, 0, 93, 12
1, 19556, Note_on_c, 0, 32, 72
1, 19556, Note_off_c, 0, 42, 64
1, 19556, Note_on_c, 0, 54, 52
1, 19556, Note_on_c, 0, 68, 39
1, 19556, Note_off_c, 0, 73, 64
1, 19556, Note_on_c, 0, 76, 32
1, 19556, Note_off_c, 0, 77, 64
1, 19556, Note_off_c, 0, 90, 64
1, 19557, Note_on_c, 0, 30, 81
1, 19557, Note_off_c, 0, 32, 64
1, 19557, Note_off_c, 0, 85, 64
1, 19557, Note_off_c, 0, 86, 64
1, 19557, Note_off_c, 0, 96, 64
1, 19558, Note_on_c, 0, 29, 82
1, 19558, Note_off_c, 0, 30, 64
1, 19558, Note_on_c, 0, 78, 35
1, 19558, Note_off_c, 0, 83, 64
1, 19558, Note_on_c, 0, 91, 39
1, 19558, Note_off_c, 0, 93, 64
1, 19559, Note_off_c, 0, 29, 64
1, 19559, Note_on_c, 0, 30, 79
1, 19559, Note_off_c, 0, 54, 64
1, 19559, Note_off_c, 0, 76, 64
1, 19559, Note_on_c, 0, 83, 35
1, 19559, Note_on_c, 0, 85, 36
1, 19560, Note_on_c, 0, 54, 46
1, 19560, Note_on_c, 0, 60, 21
1, 19560, Note_on_c, 0, 64, 32
1, 19560, Note_off_c, 0, 71, 64
1, 19560, Note_on_c, 0, 72, 35
1, 19560, Note_off_c, 0, 78, 64
1, 19560, Note_on_c, 0, 81, 44
1, 19561, Note_off_c, 0, 30, 64
1, 19561, Note_on_c, 0, 70, 31
1, 19561, Note_on_c, 0, 94, 29
1, 19562, Note_off_c, 0, 54, 64
1, 19562, Note_off_c, 0, 74, 64
1, 19562, Note_on_c, 0, 75, 41
1, 19562, Note_on_c, 0, 77, 40
1, 19562, Note_on_c, 0, 89, 45
1, 19562, Note_on_c, 0, 99, 15
1, 19563, Note_off_c, 0, 60, 64
1, 19563, Note_off_c, 0, 64, 64
1, 19563, Note_on_c, 0, 66, 58
1, 19563, Note_off_c, 0, 68, 64
1, 19563, Note_off_c, 0, 70, 64
1, 19563, Note_off_c, 0, 72, 64
1, 19563, Note_off_c, 0, 79, 64
1, 19564, Note_on_c, 0, 50, 73
1, 19564, Note_on_c, 0, 74, 34
1, 19564, Note_off_c, 0, 75, 64
1, 19564, Note_on_c, 0, 76, 32
1, 19564, Note_off_c, 0, 77, 64
1, 19564, Note_on_c, 0, 80, 32
1, 19564, Note_off_c, 0, 81, 64
1, 19564, Note_on_c, 0, 82, 30
1, 19565, Note_on_c, 0, 48, 85
1, 19565, Note_off_c, 0, 50, 64
1, 19565, Note_on_c, 0, 86, 38
1, 19565, Note_off_c, 0, 99, 64
1, 19566, Note_on_c, 0, 45, 94
1, 19566, Note_off_c, 0, 48, 64
1, 19566, Note_on_c, 0, 70, 32
1, 19566, Note_off_c, 0, 74, 64
1, 19567, Note_on_c, 0, 42, 99
1, 19567, Note_off_c, 0, 45, 64
1, 19567, Note_on_c, 0, 61, 54
1, 19567, Note_off_c, 0, 82, 64
1, 19568, Note_on_c, 0, 40, 96
1, 19568, Note_off_c, 0, 42, 64
1, 19568, Note_on_c, 0, 74, 28
1, 19569, Note_on_c, 0, 38, 97
1, 19569, Note_off_c, 0, 40, 64
1, 19569, Note_off_c, 0, 83, 64
1, 19569, Note_on_c, 0, 84, 29
1, 19569, Note_on_c, 0, 93, 20
1, 19570, Note_on_c, 0, 36, 96
1, 19570, Note_off_c, 0, 38, 64
1, 19570, Note_off_c, 0, 76, 64
1, 19571, Note_on_c, 0, 35, 95
1, 19571, Note_off_c, 0, 36, 64
1, 19572, Note_on_c, 0, 34, 94
1, 19572, Note_off_c, 0, 35, 64
1, 19572, Note_on_c, 0, 54, 29
1, 19572, Note_off_c, 0, 74, 64
1, 19572, Note_on_c, 0, 83, 33
1, 19572, Note_off_c, 0, 84, 64
1, 19572, Note_off_c, 0, 94, 64
1, 19573, Note_on_c, 0, 33, 94
1, 19573, Note_off_c, 0, 34, 64
1, 19573, Note_on_c, 0, 74, 17
1, 19573, Note_off_c, 0, 85, 64
1, 19573, Note_off_c, 0, 91, 64
1, 19573, Note_on_c, 0, 94, 14
1, 19574, Note_on_c, 0, 85, 27
1, 19575, Note_on_c, 0, 32, 96
1, 19575, Note_off_c, 0, 33, 64
1, 19575, Note_on_c, 0, 49, 31
1, 19575, Note_on_c, 0, 76, 20
1, 19576, Note_on_c, 0, 31, 96
1, 19576, Note_off_c, 0, 32, 64
1, 19576, Note_off_c, 0, 54, 64
1, 19576, Note_on_c, 0, 91, 11
1, 19576, Note_on_c, 0, 96, 14
1, 19577, Note_off_c, 0, 49, 64
1, 19577, Note_off_c, 0, 74, 64
1, 19578, Note_on_c, 0, 30, 89
1, 19578, Note_off_c, 0, 31, 64
1, 19578, Note_on_c, 0, 84, 26
1, 19579, Note_off_c, 0, 76, 64
1, 19579, Note_off_c, 0, 83, 64
1, 19580, Note_on_c, 0, 87, 17
1, 19580, Note_off_c, 0, 91, 64
1, 19581, Note_off_c, 0, 30, 64
1, 19581, Note_on_c, 0, 74, 39
1, 19581, Note_on_c, 0, 83, 33
1, 19581, Note_off_c, 0, 94, 64
1, 19582, Note_on_c, 0, 37, 65
1, 19582, Note_off_c, 0, 84, 64
1, 19583, Note_on_c, 0, 30, 76
1, 19583, Note_off_c, 0, 37, 64
1, 19583, Note_on_c, 0, 60, 49
1, 19583, Note_off_c, 0, 61, 64
1, 19583, Note_on_c, 0, 69, 26
1, 19583, Note_off_c, 0, 70, 64
1, 19583, Note_off_c, 0, 74, 64
1, 19583, Note_on_c, 0, 75, 22
1, 19583, Note_off_c, 0, 80, 64
1, 19583, Note_on_c, 0, 84, 26
1, 19583, Note_off_c, 0, 85, 64
1, 19583, Note_on_c, 0, 88, 24
1, 19583, Note_on_c, 0, 91, 19
1, 19583, Note_off_c, 0, 93, 64
1, 19584, Note_on_c, 0, 65, 56
1, 19584, Note_off_c, 0, 66, 64
1, 19584, Note_off_c, 0, 96, 64
1, 19585, Note_on_c, 0, 29, 78
1, 19585, Note_off_c, 0, 30, 64
1, 19585, Note_on_c, 0, 80, 35
1, 19585, Note_on_c, 0, 82, 37
1, 19585, Note_off_c, 0, 87, 64
1, 19585, Note_on_c, 0, 93, 26
1, 19586, Note_off_c, 0, 29, 64
1, 19586, Note_on_c, 0, 30, 78
1, 19586, Note_off_c, 0, 60, 64
1, 19586, Note_off_c, 0, 75, 64
1, 19586, Note_on_c, 0, 76, 39
1, 19586, Note_off_c, 0, 83, 64
1, 19586, Note_on_c, 0, 87, 18
1, 19587, Note_on_c, 0, 64, 49
1, 19587, Note_off_c, 0, 65, 64
1, 19587, Note_on_c, 0, 68, 29
1, 19587, Note_off_c, 0, 69, 64
1, 19587, Note_on_c, 0, 74, 41
1, 19588, Note_on_c, 0, 29, 75
1, 19588, Note_off_c, 0, 30, 64
1, 19588, Note_on_c, 0, 49, 49
1, 19588, Note_on_c, 0, 78, 34
1, 19589, Note_off_c, 0, 74, 64
1, 19589, Note_on_c, 0, 75, 47
1, 19589, Note_off_c, 0, 76, 64
1, 19589, Note_on_c, 0, 81, 39
1, 19589, Note_off_c, 0, 82, 64
1, 19589, Note_on_c, 0, 90, 36
1, 19590, Note_off_c, 0, 49, 64
1, 19590, Note_on_c, 0, 63, 45
1, 19590, Note_off_c, 0, 64, 64
1, 19590, Note_on_c, 0, 72, 21
1, 19590, Note_on_c, 0, 82, 30
1, 19590, Note_on_c, 0, 95, 13
1, 19591, Note_off_c, 0, 29, 64
1, 19591, Note_off_c, 0, 68, 64
1, 19591, Note_on_c, 0, 83, 42
1, 19591, Note_off_c, 0, 84, 64
1, 19591, Note_off_c, 0, 87, 64
1, 19591, Note_on_c, 0, 97, 17
1, 19592, Note_on_c, 0, 62, 45
1, 19592, Note_off_c, 0, 63, 64
1, 19592, Note_on_c, 0, 66, 36
1, 19592, Note_on_c, 0, 69, 20
1, 19592, Note_on_c, 0, 79, 29
1, 19592, Note_off_c, 0, 80, 64
1, 19592, Note_off_c, 0, 82, 64
1, 19592, Note_off_c, 0, 93, 64
1, 19593, Note_on_c, 0, 36, 70
1, 19593, Note_off_c, 0, 75, 64
1, 19593, Note_on_c, 0, 85, 35
1, 19593, Note_off_c, 0, 86, 64
1, 19594, Note_on_c, 0, 30, 77
1, 19594, Note_off_c, 0, 36, 64
1, 19594, Note_off_c, 0, 62, 64
1, 19594, Note_off_c, 0, 72, 64
1, 19594, Note_on_c, 0, 73, 56
1, 19594, Note_on_c, 0, 80, 39
1, 19594, Note_on_c, 0, 82, 36
1, 19594, Note_off_c, 0, 83, 64
1, 19594, Note_on_c, 0, 84, 35
1, 19594, Note_off_c, 0, 97, 64
1, 19595, Note_on_c, 0, 29, 80
1, 19595, Note_off_c, 0, 30, 64
1, 19595, Note_on_c, 0, 61, 39
1, 19595, Note_off_c, 0, 69, 64
1, 19595, Note_on_c, 0, 70, 42
1, 19595, Note_off_c, 0, 79, 64
1, 19595, Note_off_c, 0, 81, 64
1, 19595, Note_on_c, 0, 86, 42
1, 19595, Note_off_c, 0, 88, 64
1, 19595, Note_off_c, 0, 91, 64
1, 19595, Note_off_c, 0, 95, 64
1, 19596, Note_on_c, 0, 65, 39
1, 19596, Note_off_c, 0, 66, 64
1, 19596, Note_on_c, 0, 68, 30
1, 19596, Note_on_c, 0, 75, 42
1, 19597, Note_off_c, 0, 29, 64
1, 19597, Note_on_c, 0, 30, 77
1, 19597, Note_off_c, 0, 78, 64
1, 19597, Note_off_c, 0, 85, 64
1, 19598, Note_off_c, 0, 30, 64
1, 19598, Note_on_c, 0, 31, 67
1, 19598, Note_on_c, 0, 49, 44
1, 19598, Note_on_c, 0, 54, 66
1, 19598, Note_off_c, 0, 68, 64
1, 19598, Note_on_c, 0, 78, 44
1, 19599, Note_off_c, 0, 31, 64
1, 19599, Note_on_c, 0, 32, 57
1, 19599, Note_off_c, 0, 61, 64
1, 19599, Note_on_c, 0, 64, 48
1, 19599, Note_off_c, 0, 65, 64
1, 19599, Note_on_c, 0, 68, 45
1, 19599, Note_on_c, 0, 74, 42
1, 19599, Note_off_c, 0, 75, 64
1, 19599, Note_off_c, 0, 80, 64
1, 19599, Note_on_c, 0, 88, 39
1, 19599, Note_on_c, 0, 93, 25
1, 19599, Note_on_c, 0, 95, 32
1, 19600, Note_off_c, 0, 49, 64
1, 19600, Note_off_c, 0, 82, 64
1, 19600, Note_on_c, 0, 83, 42
1, 19600, Note_off_c, 0, 84, 64
1, 19600, Note_off_c, 0, 90, 64
1, 19600, Note_on_c, 0, 99, 19
1, 19601, Note_off_c, 0, 32, 64
1, 19601, Note_off_c, 0, 70, 64
1, 19601, Note_on_c, 0, 71, 38
1, 19601, Note_off_c, 0, 74, 64
1, 19601, Note_on_c, 0, 84, 36
1, 19601, Note_on_c, 0, 87, 42
1, 19602, Note_on_c, 0, 49, 80
1, 19602, Note_off_c, 0, 54, 64
1, 19602, Note_off_c, 0, 64, 64
1, 19602, Note_off_c, 0, 68, 64
1, 19602, Note_off_c, 0, 86, 64
1, 19602, Note_off_c, 0, 88, 64
1, 19603, Note_on_c, 0, 45, 91
1, 19603, Note_off_c, 0, 49, 64
1, 19603, Note_on_c, 0, 66, 30
1, 19603, Note_off_c, 0, 71, 64
1, 19603, Note_off_c, 0, 73, 64
1, 19603, Note_on_c, 0, 76, 18
1, 19603, Note_on_c, 0, 82, 18
1, 19603, Note_off_c, 0, 84, 64
1, 19603, Note_on_c, 0, 85, 38
1, 19603, Note_off_c, 0, 99, 64
1, 19604, Note_on_c, 0, 42, 97
1, 19604, Note_off_c, 0, 45, 64
1, 19604, Note_on_c, 0, 86, 34
1, 19604, Note_on_c, 0, 88, 32
1, 19605, Note_on_c, 0, 41, 98
1, 19605, Note_off_c, 0, 42, 64
1, 19606, Note_on_c, 0, 38, 97
1, 19606, Note_off_c, 0, 41, 64
1, 19606, Note_on_c, 0, 61, 16
1, 19606, Note_off_c, 0, 95, 64
1, 19607, Note_on_c, 0, 37, 97
1, 19607, Note_off_c, 0, 38, 64
1, 19607, Note_on_c, 0, 81, 31
1, 19607, Note_off_c, 0, 82, 64
1, 19607, Note_off_c, 0, 89, 64
1, 19607, Note_off_c, 0, 93, 64
1, 19608, Note_on_c, 0, 36, 96
1, 19608, Note_off_c, 0, 37, 64
1, 19608, Note_on_c, 0, 89, 32
1, 19609, Note_on_c, 0, 35, 95
1, 19609, Note_off_c, 0, 36, 64
1, 19610, Note_on_c, 0, 34, 95
1, 19610, Note_off_c, 0, 35, 64
1, 19610, Note_off_c, 0, 61, 64
1, 19610, Note_on_c, 0, 74, 31
1, 19610, Note_off_c, 0, 88, 64
1, 19611, Note_on_c, 0, 33, 94
1, 19611, Note_off_c, 0, 34, 64
1, 19611, Note_on_c, 0, 49, 32
1, 19611, Note_off_c, 0, 76, 64
1, 19612, Note_on_c, 0, 32, 96
1, 19612, Note_off_c, 0, 33, 64
1, 19612, Note_on_c, 0, 65, 21
1, 19612, Note_off_c, 0, 66, 64
1, 19612, Note_on_c, 0, 77, 30
1, 19614, Note_on_c, 0, 31, 95
1, 19614, Note_off_c, 0, 32, 64
1, 19614, Note_off_c, 0, 49, 64
1, 19614, Note_off_c, 0, 85, 64
1, 19615, Note_off_c, 0, 65, 64
1, 19615, Note_on_c, 0, 82, 22
1, 19615, Note_on_c, 0, 84, 22
1, 19615, Note_on_c, 0, 88, 18
1, 19615, Note_off_c, 0, 89, 64
1, 19616, Note_on_c, 0, 30, 85
1, 19616, Note_off_c, 0, 31, 64
1, 19616, Note_on_c, 0, 68, 17
1, 19616, Note_on_c, 0, 72, 29
1, 19616, Note_on_c, 0, 80, 31
1, 19616, Note_off_c, 0, 81, 64
1, 19616, Note_off_c, 0, 86, 64
1, 19617, Note_on_c, 0, 63, 25
1, 19617, Note_on_c, 0, 81, 25
1, 19618, Note_off_c, 0, 30, 64
1, 19618, Note_off_c, 0, 74, 64
1, 19618, Note_on_c, 0, 75, 43
1, 19618, Note_on_c, 0, 86, 21
1, 19619, Note_off_c, 0, 68, 64
1, 19619, Note_off_c, 0, 78, 64
1, 19619, Note_off_c, 0, 82, 64
1, 19619, Note_on_c, 0, 90, 25
1, 19620, Note_on_c, 0, 37, 66
1, 19620, Note_off_c, 0, 77, 64
1, 19620, Note_on_c, 0, 78, 32
1, 19620, Note_off_c, 0, 88, 64
1, 19620, Note_on_c, 0, 89, 33
1, 19621, Note_on_c, 0, 31, 74
1, 19621, Note_off_c, 0, 37, 64
1, 19621, Note_off_c, 0, 72, 64
1, 19621, Note_on_c, 0, 74, 36
1, 19621, Note_off_c, 0, 84, 64
1, 19621, Note_on_c, 0, 85, 29
1, 19622, Note_on_c, 0, 29, 78
1, 19622, Note_off_c, 0, 31, 64
1, 19622, Note_on_c, 0, 72, 34
1, 19622, Note_off_c, 0, 75, 64
1, 19622, Note_on_c, 0, 79, 28
1, 19622, Note_off_c, 0, 81, 64
1, 19623, Note_off_c, 0, 63, 64
1, 19623, Note_off_c, 0, 83, 64
1, 19623, Note_off_c, 0, 90, 64
1, 19624, Note_off_c, 0, 29, 64
1, 19624, Note_on_c, 0, 30, 75
1, 19624, Note_on_c, 0, 66, 33
1, 19624, Note_on_c, 0, 83, 25
1, 19624, Note_off_c, 0, 86, 64
1, 19624, Note_on_c, 0, 88, 30
1, 19625, Note_on_c, 0, 76, 33
1, 19625, Note_off_c, 0, 79, 64
1, 19625, Note_on_c, 0, 82, 35
1, 19626, Note_on_c, 0, 29, 74
1, 19626, Note_off_c, 0, 30, 64
1, 19626, Note_off_c, 0, 87, 64
1, 19627, Note_off_c, 0, 74, 64
1, 19627, Note_on_c, 0, 91, 11
1, 19628, Note_off_c, 0, 85, 64
1, 19628, Note_on_c, 0, 87, 35
1, 19629, Note_off_c, 0, 29, 64
1, 19630, Note_on_c, 0, 42, 68
1, 19630, Note_off_c, 0, 83, 64
1, 19630, Note_on_c, 0, 93, 14
1, 19631, Note_on_c, 0, 31, 73
1, 19631, Note_off_c, 0, 42, 64
1, 19631, Note_on_c, 0, 64, 27
1, 19631, Note_off_c, 0, 72, 64
1, 19631, Note_on_c, 0, 77, 25
1, 19632, Note_on_c, 0, 30, 81
1, 19632, Note_off_c, 0, 31, 64
1, 19632, Note_off_c, 0, 91, 64
1, 19633, Note_on_c, 0, 29, 81
1, 19633, Note_off_c, 0, 30, 64
1, 19633, Note_off_c, 0, 76, 64
1, 19633, Note_on_c, 0, 83, 38
1, 19633, Note_off_c, 0, 93, 64
1, 19634, Note_off_c, 0, 29, 64
1, 19634, Note_on_c, 0, 30, 78
1, 19634, Note_on_c, 0, 60, 25
1, 19634, Note_off_c, 0, 64, 64
1, 19634, Note_off_c, 0, 77, 64
1, 19634, Note_on_c, 0, 79, 21
1, 19634, Note_off_c, 0, 88, 64
1, 19635, Note_on_c, 0, 54, 43
1, 19635, Note_off_c, 0, 66, 64
1, 19635, Note_on_c, 0, 75, 38
1, 19635, Note_off_c, 0, 80, 64
1, 19636, Note_off_c, 0, 30, 64
1, 19636, Note_on_c, 0, 64, 30
1, 19637, Note_off_c, 0, 54, 64
1, 19637, Note_off_c, 0, 60, 64
1, 19637, Note_on_c, 0, 68, 47
1, 19637, Note_on_c, 0, 77, 39
1, 19637, Note_off_c, 0, 78, 64
1, 19637, Note_off_c, 0, 79, 64
1, 19637, Note_on_c, 0, 81, 32
1, 19637, Note_on_c, 0, 86, 34
1, 19637, Note_on_c, 0, 88, 25
1, 19637, Note_on_c, 0, 92, 27
1, 19638, Note_on_c, 0, 63, 49
1, 19638, Note_off_c, 0, 64, 64
1, 19638, Note_on_c, 0, 72, 35
1, 19638, Note_off_c, 0, 75, 64
1, 19638, Note_on_c, 0, 78, 38
1, 19638, Note_off_c, 0, 82, 64
1, 19638, Note_on_c, 0, 85, 27
1, 19638, Note_off_c, 0, 89, 64
1, 19639, Note_on_c, 0, 51, 75
1, 19639, Note_off_c, 0, 68, 64
1, 19640, Note_on_c, 0, 46, 85
1, 19640, Note_off_c, 0, 51, 64
1, 19640, Note_off_c, 0, 72, 64
1, 19640, Note_off_c, 0, 78, 64
1, 19640, Note_off_c, 0, 92, 64
1, 19641, Note_on_c, 0, 44, 94
1, 19641, Note_off_c, 0, 46, 64
1, 19641, Note_off_c, 0, 63, 64
1, 19641, Note_on_c, 0, 71, 16
1, 19641, Note_on_c, 0, 78, 21
1, 19641, Note_off_c, 0, 83, 64
1, 19642, Note_on_c, 0, 41, 100
1, 19642, Note_off_c, 0, 44, 64
1, 19642, Note_on_c, 0, 76, 31
1, 19642, Note_off_c, 0, 77, 64
1, 19642, Note_off_c, 0, 88, 64
1, 19643, Note_on_c, 0, 40, 96
1, 19643, Note_off_c, 0, 41, 64
1, 19643, Note_on_c, 0, 64, 19
1, 19643, Note_off_c, 0, 87, 64
1, 19644, Note_on_c, 0, 38, 97
1, 19644, Note_off_c, 0, 40, 64
1, 19644, Note_off_c, 0, 71, 64
1, 19644, Note_off_c, 0, 81, 64
1, 19644, Note_on_c, 0, 84, 17
1, 19645, Note_on_c, 0, 36, 96
1, 19645, Note_off_c, 0, 38, 64
1, 19645, Note_on_c, 0, 73, 21
1, 19645, Note_off_c, 0, 85, 64
1, 19646, Note_on_c, 0, 35, 96
1, 19646, Note_off_c, 0, 36, 64
1, 19646, Note_off_c, 0, 64, 64
1, 19646, Note_on_c, 0, 75, 34
1, 19646, Note_off_c, 0, 76, 64
1, 19647, Note_on_c, 0, 34, 95
1, 19647, Note_off_c, 0, 35, 64
1, 19647, Note_on_c, 0, 81, 21
1, 19647, Note_on_c, 0, 83, 29
1, 19647, Note_off_c, 0, 84, 64
1, 19648, Note_on_c, 0, 33, 94
1, 19648, Note_off_c, 0, 34, 64
1, 19648, Note_on_c, 0, 66, 12
1, 19648, Note_off_c, 0, 73, 64
1, 19648, Note_off_c, 0, 75, 64
1, 19648, Note_on_c, 0, 85, 21
1, 19649, Note_on_c, 0, 69, 11
1, 19649, Note_on_c, 0, 82, 19
1, 19650, Note_on_c, 0, 32, 96
1, 19650, Note_off_c, 0, 33, 64
1, 19650, Note_off_c, 0, 86, 64
1, 19651, Note_on_c, 0, 31, 96
1, 19651, Note_off_c, 0, 32, 64
1, 19651, Note_on_c, 0, 48, 26
1, 19651, Note_on_c, 0, 73, 24
1, 19651, Note_on_c, 0, 80, 27
1, 19651, Note_off_c, 0, 81, 64
1, 19652, Note_off_c, 0, 69, 64
1, 19652, Note_off_c, 0, 85, 64
1, 19653, Note_on_c, 0, 30, 89
1, 19653, Note_off_c, 0, 31, 64
1, 19653, Note_off_c, 0, 82, 64
1, 19654, Note_off_c, 0, 48, 64
1, 19655, Note_off_c, 0, 66, 64
1, 19655, Note_on_c, 0, 70, 32
1, 19655, Note_on_c, 0, 85, 35
1, 19656, Note_off_c, 0, 30, 64
1, 19656, Note_on_c, 0, 66, 37
1, 19656, Note_off_c, 0, 78, 64
1, 19656, Note_on_c, 0, 81, 32
1, 19656, Note_on_c, 0, 88, 45
1, 19656, Note_on_c, 0, 91, 17
1, 19656, Note_on_c, 0, 95, 29
1, 19656, Note_on_c, 0, 99, 28
1, 19657, Note_on_c, 0, 41, 66
1, 19657, Note_on_c, 0, 71, 27
1, 19657, Note_on_c, 0, 87, 33
1, 19657, Note_on_c, 0, 96, 18
1, 19657, Note_on_c, 0, 101, 18
1, 19658, Note_on_c, 0, 31, 73
1, 19658, Note_off_c, 0, 41, 64
1, 19658, Note_on_c, 0, 61, 27
1, 19658, Note_off_c, 0, 70, 64
1, 19658, Note_off_c, 0, 73, 64
1, 19658, Note_on_c, 0, 76, 16
1, 19658, Note_off_c, 0, 80, 64
1, 19658, Note_on_c, 0, 86, 30
1, 19658, Note_on_c, 0, 89, 17
1, 19659, Note_on_c, 0, 30, 79
1, 19659, Note_off_c, 0, 31, 64
1, 19659, Note_off_c, 0, 95, 64
1, 19659, Note_off_c, 0, 99, 64
1, 19660, Note_on_c, 0, 29, 80
1, 19660, Note_off_c, 0, 30, 64
1, 19660, Note_off_c, 0, 96, 64
1, 19660, Note_off_c, 0, 101, 64
1, 19661, Note_off_c, 0, 29, 64
1, 19661, Note_on_c, 0, 30, 77
1, 19661, Note_on_c, 0, 63, 12
1, 19661, Note_off_c, 0, 71, 64
1, 19661, Note_off_c, 0, 76, 64
1, 19661, Note_off_c, 0, 89, 64
1, 19661, Note_off_c, 0, 91, 64
1, 19662, Note_off_c, 0, 61, 64
1, 19662, Note_on_c, 0, 71, 31
1, 19662, Note_on_c, 0, 76, 34
1, 19662, Note_on_c, 0, 84, 18
1, 19662, Note_on_c, 0, 89, 31
1, 19663, Note_on_c, 0, 29, 74
1, 19663, Note_off_c, 0, 30, 64
1, 19664, Note_off_c, 0, 63, 64
1, 19664, Note_on_c, 0, 80, 16
1, 19664, Note_off_c, 0, 87, 64
1, 19664, Note_off_c, 0, 88, 64
1, 19665, Note_off_c, 0, 81, 64
1, 19665, Note_off_c, 0, 84, 64
1, 19666, Note_off_c, 0, 29, 64
1, 19666, Note_on_c, 0, 30, 65
1, 19667, Note_off_c, 0, 30, 64
1, 19667, Note_off_c, 0, 66, 64
1, 19667, Note_on_c, 0, 68, 33
1, 19667, Note_on_c, 0, 75, 22
1, 19667, Note_off_c, 0, 76, 64
1, 19667, Note_on_c, 0, 77, 37
1, 19667, Note_off_c, 0, 89, 64
1, 19668, Note_on_c, 0, 36, 71
1, 19668, Note_on_c, 0, 54, 53
1, 19668, Note_on_c, 0, 61, 33
1, 19668, Note_on_c, 0, 64, 28
1, 19668, Note_on_c, 0, 79, 29
1, 19668, Note_off_c, 0, 80, 64
1, 19668, Note_on_c, 0, 82, 18
1, 19668, Note_off_c, 0, 83, 64
1, 19668, Note_off_c, 0, 86, 64
1, 19669, Note_on_c, 0, 30, 78
1, 19669, Note_off_c, 0, 36, 64
1, 19669, Note_on_c, 0, 86, 15
1, 19670, Note_on_c, 0, 29, 80
1, 19670, Note_off_c, 0, 30, 64
1, 19670, Note_on_c, 0, 49, 58
1, 19670, Note_off_c, 0, 68, 64
1, 19670, Note_off_c, 0, 71, 64
1, 19670, Note_on_c, 0, 74, 30
1, 19670, Note_off_c, 0, 75, 64
1, 19670, Note_off_c, 0, 79, 64
1, 19671, Note_off_c, 0, 54, 64
1, 19671, Note_off_c, 0, 64, 64
1, 19671, Note_off_c, 0, 77, 64
1, 19671, Note_on_c, 0, 78, 21
1, 19671, Note_on_c, 0, 81, 35
1, 19671, Note_off_c, 0, 82, 64
1, 19671, Note_on_c, 0, 83, 35
1, 19672, Note_off_c, 0, 29, 64
1, 19672, Note_on_c, 0, 30, 76
1, 19672, Note_off_c, 0, 49, 64
1, 19672, Note_off_c, 0, 61, 64
1, 19672, Note_off_c, 0, 85, 64
1, 19672, Note_off_c, 0, 86, 64
1, 19673, Note_off_c, 0, 30, 64
1, 19673, Note_on_c, 0, 31, 65
1, 19673, Note_on_c, 0, 54, 36
1, 19673, Note_on_c, 0, 63, 50
1, 19673, Note_on_c, 0, 70, 43
1, 19674, Note_off_c, 0, 31, 64
1, 19674, Note_on_c, 0, 48, 42
1, 19674, Note_off_c, 0, 74, 64
1, 19674, Note_on_c, 0, 77, 39
1, 19674, Note_off_c, 0, 78, 64
1, 19674, Note_on_c, 0, 85, 26
1, 19674, Note_on_c, 0, 90, 35
1, 19674, Note_on_c, 0, 94, 22
1, 19674, Note_on_c, 0, 96, 21
1, 19674, Note_on_c, 0, 98, 23
1, 19675, Note_off_c, 0, 54, 64
1, 19675, Note_on_c, 0, 84, 34
1, 19676, Note_off_c, 0, 48, 64
1, 19676, Note_on_c, 0, 54, 69
1, 19676, Note_off_c, 0, 70, 64
1, 19676, Note_on_c, 0, 74, 34
1, 19676, Note_on_c, 0, 76, 35
1, 19676, Note_off_c, 0, 77, 64
1, 19676, Note_on_c, 0, 79, 25
1, 19676, Note_off_c, 0, 81, 64
1, 19677, Note_on_c, 0, 49, 82
1, 19677, Note_off_c, 0, 54, 64
1, 19677, Note_off_c, 0, 63, 64
1, 19677, Note_off_c, 0, 83, 64
1, 19677, Note_off_c, 0, 94, 64
1, 19677, Note_off_c, 0, 96, 64
1, 19677, Note_off_c, 0, 98, 64
1, 19678, Note_on_c, 0, 45, 93
1, 19678, Note_off_c, 0, 49, 64
1, 19678, Note_off_c, 0, 76, 64
1, 19678, Note_on_c, 0, 78, 25
1, 19678, Note_off_c, 0, 84, 64
1, 19679, Note_on_c, 0, 42, 98
1, 19679, Note_off_c, 0, 45, 64
1, 19679, Note_on_c, 0, 73, 18
1, 19679, Note_off_c, 0, 74, 64
1, 19679, Note_off_c, 0, 79, 64
1, 19679, Note_on_c, 0, 80, 28
1, 19679, Note_on_c, 0, 82, 20
1, 19680, Note_on_c, 0, 40, 99
1, 19680, Note_off_c, 0, 42, 64
1, 19680, Note_off_c, 0, 90, 64
1, 19681, Note_on_c, 0, 38, 98
1, 19681, Note_off_c, 0, 40, 64
1, 19682, Note_on_c, 0, 37, 98
1, 19682, Note_off_c, 0, 38, 64
1, 19682, Note_on_c, 0, 84, 16
1, 19683, Note_on_c, 0, 35, 97
1, 19683, Note_off_c, 0, 37, 64
1, 19683, Note_off_c, 0, 73, 64
1, 19684, Note_on_c, 0, 34, 96
1, 19684, Note_off_c, 0, 35, 64
1, 19684, Note_on_c, 0, 66, 13
1, 19684, Note_off_c, 0, 85, 64
1, 19685, Note_on_c, 0, 33, 95
1, 19685, Note_off_c, 0, 34, 64
1, 19685, Note_on_c, 0, 83, 23
1, 19685, Note_off_c, 0, 84, 64
1, 19685, Note_on_c, 0, 85, 15
1, 19685, Note_on_c, 0, 86, 19
1, 19685, Note_on_c, 0, 87, 37
1, 19686, Note_off_c, 0, 82, 64
1, 19687, Note_on_c, 0, 32, 96
1, 19687, Note_off_c, 0, 33, 64
1, 19687, Note_on_c, 0, 49, 32
1, 19688, Note_on_c, 0, 73, 14
1, 19688, Note_on_c, 0, 89, 32
1, 19689, Note_on_c, 0, 31, 96
1, 19689, Note_off_c, 0, 32, 64
1, 19689, Note_off_c, 0, 49, 64
1, 19689, Note_off_c, 0, 85, 64
1, 19690, Note_on_c, 0, 30, 92
1, 19690, Note_off_c, 0, 31, 64
1, 19690, Note_on_c, 0, 82, 22
1, 19690, Note_on_c, 0, 88, 15
1, 19691, Note_off_c, 0, 66, 64
1, 19691, Note_on_c, 0, 69, 15
1, 19691, Note_on_c, 0, 77, 28
1, 19692, Note_off_c, 0, 73, 64
1, 19693, Note_off_c, 0, 30, 64
1, 19693, Note_on_c, 0, 71, 15
1, 19693, Note_off_c, 0, 82, 64
1, 19693, Note_on_c, 0, 84, 25
1, 19693, Note_on_c, 0, 85, 28
1, 19693, Note_off_c, 0, 88, 64
1, 19694, Note_on_c, 0, 61, 32
1, 19694, Note_on_c, 0, 66, 24
1, 19694, Note_off_c, 0, 69, 64
1, 19694, Note_off_c, 0, 78, 64
1, 19694, Note_on_c, 0, 82, 23
1, 19694, Note_off_c, 0, 83, 64
1, 19694, Note_off_c, 0, 86, 64
1, 19694, Note_on_c, 0, 91, 23
1, 19694, Note_on_c, 0, 98, 12
1, 19695, Note_on_c, 0, 30, 79
1, 19695, Note_on_c, 0, 54, 50
1, 19695, Note_on_c, 0, 86, 27
1, 19695, Note_on_c, 0, 88, 21
1, 19696, Note_on_c, 0, 49, 58
1, 19696, Note_off_c, 0, 61, 64
1, 19696, Note_on_c, 0, 64, 26
1, 19696, Note_on_c, 0, 81, 15
1, 19697, Note_off_c, 0, 66, 64
1, 19697, Note_off_c, 0, 71, 64
1, 19697, Note_off_c, 0, 77, 64
1, 19697, Note_on_c, 0, 78, 22
1, 19697, Note_off_c, 0, 80, 64
1, 19698, Note_off_c, 0, 49, 64
1, 19698, Note_off_c, 0, 54, 64
1, 19698, Note_on_c, 0, 71, 34
1, 19698, Note_on_c, 0, 76, 29
1, 19698, Note_off_c, 0, 89, 64
1, 19698, Note_off_c, 0, 91, 64
1, 19699, Note_off_c, 0, 64, 64
1, 19699, Note_off_c, 0, 81, 64
1, 19699, Note_off_c, 0, 82, 64
1, 19699, Note_off_c, 0, 84, 64
1, 19699, Note_off_c, 0, 87, 64
1, 19700, Note_on_c, 0, 68, 26
1, 19700, Note_on_c, 0, 82, 15
1, 19700, Note_on_c, 0, 89, 11
1, 19700, Note_off_c, 0, 98, 64
1, 19701, Note_on_c, 0, 29, 73
1, 19701, Note_off_c, 0, 30, 64
1, 19701, Note_off_c, 0, 85, 64
1, 19702, Note_off_c, 0, 88, 64
1, 19703, Note_off_c, 0, 29, 64
1, 19703, Note_on_c, 0, 30, 67
1, 19703, Note_off_c, 0, 71, 64
1, 19703, Note_on_c, 0, 75, 30
1, 19703, Note_off_c, 0, 76, 64
1, 19703, Note_on_c, 0, 77, 23
1, 19703, Note_on_c, 0, 81, 23
1, 19703, Note_off_c, 0, 82, 64
1, 19703, Note_off_c, 0, 89, 64
1, 19704, Note_off_c, 0, 30, 64
1, 19704, Note_on_c, 0, 73, 26
1, 19704, Note_off_c, 0, 78, 64
1, 19704, Note_on_c, 0, 88, 25
1, 19705, Note_on_c, 0, 42, 70
1, 19705, Note_off_c, 0, 68, 64
1, 19705, Note_off_c, 0, 75, 64
1, 19705, Note_on_c, 0, 85, 28
1, 19705, Note_off_c, 0, 86, 64
1, 19706, Note_on_c, 0, 30, 77
1, 19706, Note_off_c, 0, 42, 64
1, 19706, Note_off_c, 0, 77, 64
1, 19706, Note_on_c, 0, 79, 30
1, 19706, Note_off_c, 0, 81, 64
1, 19707, Note_on_c, 0, 29, 82
1, 19707, Note_off_c, 0, 30, 64
1, 19707, Note_on_c, 0, 77, 26
1, 19708, Note_on_c, 0, 63, 26
1, 19708, Note_on_c, 0, 69, 32
1, 19708, Note_on_c, 0, 71, 25
1, 19708, Note_on_c, 0, 82, 31
1, 19708, Note_off_c, 0, 85, 64
1, 19709, Note_off_c, 0, 29, 64
1, 19709, Note_on_c, 0, 30, 78
1, 19709, Note_off_c, 0, 79, 64
1, 19709, Note_on_c, 0, 80, 40
1, 19709, Note_off_c, 0, 88, 64
1, 19710, Note_off_c, 0, 30, 64
1, 19710, Note_on_c, 0, 31, 71
1, 19710, Note_on_c, 0, 54, 61
1, 19710, Note_off_c, 0, 73, 64
1, 19711, Note_off_c, 0, 31, 64
1, 19711, Note_off_c, 0, 63, 64
1, 19711, Note_on_c, 0, 67, 37
1, 19711, Note_off_c, 0, 69, 64
1, 19711, Note_on_c, 0, 70, 43
1, 19711, Note_off_c, 0, 71, 64
1, 19712, Note_off_c, 0, 77, 64
1, 19712, Note_on_c, 0, 78, 34
1, 19712, Note_on_c, 0, 85, 37
1, 19712, Note_on_c, 0, 86, 34
1, 19712, Note_on_c, 0, 87, 31
1, 19712, Note_on_c, 0, 91, 28
1, 19713, Note_off_c, 0, 67, 64
1, 19713, Note_on_c, 0, 84, 36
1, 19714, Note_on_c, 0, 50, 78
1, 19714, Note_off_c, 0, 54, 64
1, 19714, Note_on_c, 0, 76, 22
1, 19715, Note_on_c, 0, 46, 88
1, 19715, Note_off_c, 0, 50, 64
1, 19715, Note_off_c, 0, 70, 64
1, 19715, Note_off_c, 0, 82, 64
1, 19715, Note_on_c, 0, 83, 14
1, 19715, Note_off_c, 0, 84, 64
1, 19715, Note_off_c, 0, 86, 64
1, 19715, Note_on_c, 0, 89, 9
1, 19715, Note_off_c, 0, 91, 64
1, 19716, Note_on_c, 0, 43, 94
1, 19716, Note_off_c, 0, 46, 64
1, 19717, Note_on_c, 0, 41, 99
1, 19717, Note_off_c, 0, 43, 64
1, 19717, Note_off_c, 0, 76, 64
1, 19717, Note_off_c, 0, 80, 64
1, 19718, Note_on_c, 0, 39, 96
1, 19718, Note_off_c, 0, 41, 64
1, 19718, Note_off_c, 0, 87, 64
1, 19718, Note_off_c, 0, 89, 64
1, 19719, Note_on_c, 0, 37, 98
1, 19719, Note_off_c, 0, 39, 64
1, 19720, Note_on_c, 0, 36, 97
1, 19720, Note_off_c, 0, 37, 64
1, 19720, Note_off_c, 0, 83, 64
1, 19720, Note_off_c, 0, 85, 64
1, 19721, Note_on_c, 0, 35, 96
1, 19721, Note_off_c, 0, 36, 64
1, 19721, Note_on_c, 0, 83, 18
1, 19722, Note_on_c, 0, 34, 96
1, 19722, Note_off_c, 0, 35, 64
1, 19722, Note_on_c, 0, 81, 14
1, 19722, Note_on_c, 0, 86, 20
1, 19722, Note_on_c, 0, 96, 12
1, 19722, Note_on_c, 0, 101, 14
1, 19723, Note_on_c, 0, 33, 96
1, 19723, Note_off_c, 0, 34, 64
1, 19724, Note_on_c, 0, 77, 20
1, 19724, Note_off_c, 0, 78, 64
1, 19724, Note_off_c, 0, 83, 64
1, 19725, Note_on_c, 0, 32, 96
1, 19725, Note_off_c, 0, 33, 64
1, 19725, Note_on_c, 0, 49, 31
1, 19725, Note_off_c, 0, 96, 64
1, 19725, Note_off_c, 0, 101, 64
1, 19726, Note_on_c, 0, 31, 96
1, 19726, Note_off_c, 0, 32, 64
1, 19726, Note_off_c, 0, 86, 64
1, 19726, Note_on_c, 0, 87, 13
1, 19727, Note_off_c, 0, 49, 64
1, 19727, Note_on_c, 0, 71, 25
1, 19728, Note_on_c, 0, 30, 88
1, 19728, Note_off_c, 0, 31, 64
1, 19728, Note_on_c, 0, 76, 15
1, 19728, Note_off_c, 0, 81, 64
1, 19729, Note_off_c, 0, 77, 64
1, 19729, Note_on_c, 0, 81, 16
1, 19730, Note_on_c, 0, 68, 38
1, 19730, Note_on_c, 0, 77, 44
1, 19730, Note_off_c, 0, 87, 64
1, 19731, Note_off_c, 0, 30, 64
1, 19731, Note_on_c, 0, 66, 36
1, 19731, Note_off_c, 0, 76, 64
1, 19731, Note_on_c, 0, 78, 39
1, 19731, Note_on_c, 0, 82, 22
1, 19732, Note_on_c, 0, 37, 67
1, 19732, Note_on_c, 0, 61, 30
1, 19732, Note_off_c, 0, 71, 64
1, 19732, Note_on_c, 0, 72, 31
1, 19732, Note_off_c, 0, 81, 64
1, 19732, Note_on_c, 0, 85, 20
1, 19733, Note_on_c, 0, 30, 79
1, 19733, Note_off_c, 0, 37, 64
1, 19733, Note_on_c, 0, 49, 62
1, 19733, Note_on_c, 0, 70, 24
1, 19733, Note_off_c, 0, 78, 64
1, 19733, Note_on_c, 0, 86, 20
1, 19734, Note_off_c, 0, 61, 64
1, 19734, Note_off_c, 0, 66, 64
1, 19734, Note_off_c, 0, 72, 64
1, 19734, Note_off_c, 0, 82, 64
1, 19735, Note_on_c, 0, 29, 79
1, 19735, Note_off_c, 0, 30, 64
1, 19735, Note_on_c, 0, 75, 14
1, 19736, Note_off_c, 0, 29, 64
1, 19736, Note_on_c, 0, 30, 76
1, 19736, Note_off_c, 0, 68, 64
1, 19736, Note_off_c, 0, 70, 64
1, 19737, Note_on_c, 0, 84, 20
1, 19738, Note_on_c, 0, 29, 74
1, 19738, Note_off_c, 0, 30, 64
1, 19738, Note_off_c, 0, 49, 64
1, 19738, Note_on_c, 0, 65, 21
1, 19738, Note_on_c, 0, 82, 33
1, 19739, Note_off_c, 0, 75, 64
1, 19740, Note_on_c, 0, 68, 27
1, 19741, Note_off_c, 0, 29, 64
1, 19741, Note_off_c, 0, 65, 64
1, 19741, Note_on_c, 0, 74, 20
1, 19741, Note_on_c, 0, 76, 32
1, 19741, Note_off_c, 0, 77, 64
1, 19741, Note_on_c, 0, 78, 32
1, 19742, Note_on_c, 0, 81, 21
1, 19742, Note_off_c, 0, 84, 64
1, 19742, Note_on_c, 0, 87, 31
1, 19743, Note_on_c, 0, 36, 71
1, 19743, Note_on_c, 0, 64, 21
1, 19743, Note_on_c, 0, 84, 16
1, 19744, Note_on_c, 0, 30, 80
1, 19744, Note_off_c, 0, 36, 64
1, 19744, Note_on_c, 0, 43, 65
1, 19744, Note_on_c, 0, 72, 30
1, 19744, Note_off_c, 0, 74, 64
1, 19744, Note_off_c, 0, 82, 64
1, 19744, Note_off_c, 0, 86, 64
1, 19745, Note_on_c, 0, 29, 82
1, 19745, Note_off_c, 0, 30, 64
1, 19745, Note_off_c, 0, 43, 64
1, 19745, Note_off_c, 0, 76, 64
1, 19745, Note_off_c, 0, 78, 64
1, 19745, Note_off_c, 0, 85, 64
1, 19746, Note_off_c, 0, 29, 64
1, 19746, Note_on_c, 0, 30, 80
1, 19746, Note_off_c, 0, 64, 64
1, 19746, Note_on_c, 0, 82, 26
1, 19746, Note_on_c, 0, 83, 20
1, 19747, Note_on_c, 0, 70, 26
1, 19747, Note_off_c, 0, 72, 64
1, 19747, Note_off_c, 0, 81, 64
1, 19747, Note_on_c, 0, 85, 35
1, 19748, Note_off_c, 0, 30, 64
1, 19748, Note_on_c, 0, 54, 36
1, 19748, Note_off_c, 0, 68, 64
1, 19748, Note_off_c, 0, 84, 64
1, 19749, Note_on_c, 0, 71, 42
1, 19749, Note_on_c, 0, 75, 37
1, 19749, Note_on_c, 0, 79, 35
1, 19749, Note_on_c, 0, 89, 24
1, 19749, Note_on_c, 0, 93, 24
1, 19749, Note_on_c, 0, 94, 26
1, 19749, Note_on_c, 0, 95, 36
1, 19749, Note_on_c, 0, 96, 30
1, 19749, Note_on_c, 0, 100, 27
1, 19749, Note_on_c, 0, 101, 31
1, 19750, Note_on_c, 0, 53, 70
1, 19750, Note_off_c, 0, 54, 64
1, 19750, Note_on_c, 0, 68, 45
1, 19750, Note_off_c, 0, 70, 64
1, 19750, Note_on_c, 0, 77, 39
1, 19750, Note_on_c, 0, 81, 34
1, 19750, Note_off_c, 0, 82, 64
1, 19750, Note_off_c, 0, 83, 64
1, 19750, Note_on_c, 0, 97, 35
1, 19751, Note_off_c, 0, 79, 64
1, 19751, Note_on_c, 0, 84, 16
1, 19752, Note_on_c, 0, 48, 84
1, 19752, Note_off_c, 0, 53, 64
1, 19752, Note_on_c, 0, 62, 16
1, 19752, Note_off_c, 0, 71, 64
1, 19752, Note_off_c, 0, 75, 64
1, 19752, Note_off_c, 0, 93, 64
1, 19752, Note_off_c, 0, 94, 64
1, 19752, Note_off_c, 0, 95, 64
1, 19752, Note_off_c, 0, 96, 64
1, 19752, Note_off_c, 0, 97, 64
1, 19752, Note_off_c, 0, 100, 64
1, 19753, Note_on_c, 0, 45, 94
1, 19753, Note_off_c, 0, 48, 64
1, 19753, Note_off_c, 0, 68, 64
1, 19753, Note_off_c, 0, 87, 64
1, 19753, Note_off_c, 0, 89, 64
1, 19753, Note_off_c, 0, 101, 64
1, 19754, Note_on_c, 0, 42, 99
1, 19754, Note_off_c, 0, 45, 64
1, 19755, Note_on_c, 0, 40, 98
1, 19755, Note_off_c, 0, 42, 64
1, 19755, Note_off_c, 0, 62, 64
1, 19755, Note_off_c, 0, 77, 64
1, 19755, Note_off_c, 0, 84, 64
1, 19756, Note_on_c, 0, 38, 98
1, 19756, Note_off_c, 0, 40, 64
1, 19756, Note_off_c, 0, 81, 64
1, 19756, Note_off_c, 0, 85, 64
1, 19757, Note_on_c, 0, 37, 97
1, 19757, Note_off_c, 0, 38, 64
1, 19758, Note_on_c, 0, 35, 97
1, 19758, Note_off_c, 0, 37, 64
1, 19758, Note_on_c, 0, 75, 21
1, 19758, Note_on_c, 0, 78, 12
1, 19758, Note_on_c, 0, 80, 9
1, 19758, Note_on_c, 0, 83, 16
1, 19759, Note_on_c, 0, 34, 96
1, 19759, Note_off_c, 0, 35, 64
1, 19760, Note_on_c, 0, 33, 95
1, 19760, Note_off_c, 0, 34, 64
1, 19761, Note_off_c, 0, 78, 64
1, 19761, Note_off_c, 0, 80, 64
1, 19761, Note_on_c, 0, 82, 18
1, 19762, Note_on_c, 0, 32, 96
1, 19762, Note_off_c, 0, 33, 64
1, 19762, Note_on_c, 0, 49, 31
1, 19762, Note_off_c, 0, 75, 64
1, 19763, Note_on_c, 0, 31, 97
1, 19763, Note_off_c, 0, 32, 64
1, 19764, Note_off_c, 0, 49, 64
1, 19764, Note_off_c, 0, 82, 64
1, 19765, Note_on_c, 0, 30, 91
1, 19765, Note_off_c, 0, 31, 64
1, 19766, Note_off_c, 0, 83, 64
1, 19767, Note_on_c, 0, 72, 21
1, 19768, Note_off_c, 0, 30, 64
1, 19768, Note_on_c, 0, 44, 64
1, 19769, Note_on_c, 0, 82, 12
1, 19769, Note_on_c, 0, 86, 17
1, 19769, Note_on_c, 0, 88, 15
1, 19770, Note_on_c, 0, 30, 78
1, 19770, Note_off_c, 0, 44, 64
1, 19770, Note_on_c, 0, 68, 27
1, 19770, Note_on_c, 0, 71, 27
1, 19770, Note_off_c, 0, 72, 64
1, 19770, Note_on_c, 0, 73, 19
1, 19770, Note_on_c, 0, 78, 22
1, 19770, Note_on_c, 0, 87, 20
1, 19771, Note_on_c, 0, 49, 58
1, 19772, Note_on_c, 0, 29, 80
1, 19772, Note_off_c, 0, 30, 64
1, 19772, Note_on_c, 0, 64, 25
1, 19772, Note_off_c, 0, 82, 64
1, 19772, Note_on_c, 0, 89, 15
1, 19773, Note_off_c, 0, 29, 64
1, 19773, Note_on_c, 0, 30, 78
1, 19773, Note_off_c, 0, 49, 64
1, 19773, Note_off_c, 0, 71, 64
1, 19773, Note_off_c, 0, 73, 64
1, 19773, Note_off_c, 0, 86, 64
1, 19773, Note_off_c, 0, 87, 64
1, 19774, Note_on_c, 0, 66, 19
1, 19774, Note_off_c, 0, 68, 64
1, 19774, Note_on_c, 0, 74, 20
1, 19774, Note_off_c, 0, 88, 64
1, 19775, Note_off_c, 0, 78, 64
1, 19775, Note_on_c, 0, 79, 15
1, 19775, Note_on_c, 0, 85, 22
1, 19776, Note_on_c, 0, 29, 74
1, 19776, Note_off_c, 0, 30, 64
1, 19776, Note_on_c, 0, 63, 32
1, 19776, Note_off_c, 0, 64, 64
1, 19776, Note_on_c, 0, 76, 26
1, 19776, Note_off_c, 0, 89, 64
1, 19777, Note_off_c, 0, 66, 64
1, 19777, Note_on_c, 0, 81, 15
1, 19778, Note_off_c, 0, 29, 64
1, 19778, Note_on_c, 0, 30, 66
1, 19778, Note_off_c, 0, 85, 64
1, 19779, Note_off_c, 0, 30, 64
1, 19779, Note_off_c, 0, 79, 64
1, 19780, Note_on_c, 0, 41, 71
1, 19780, Note_on_c, 0, 68, 20
1, 19780, Note_on_c, 0, 89, 19
1, 19781, Note_on_c, 0, 30, 75
1, 19781, Note_on_c, 0, 73, 15
1, 19781, Note_off_c, 0, 76, 64
1, 19782, Note_on_c, 0, 29, 81
1, 19782, Note_off_c, 0, 30, 64
1, 19782, Note_off_c, 0, 41, 64
1, 19782, Note_on_c, 0, 61, 33
1, 19782, Note_off_c, 0, 63, 64
1, 19782, Note_off_c, 0, 74, 64
1, 19782, Note_on_c, 0, 76, 20
1, 19782, Note_on_c, 0, 82, 34
1, 19783, Note_on_c, 0, 49, 59
1, 19783, Note_on_c, 0, 78, 33
1, 19783, Note_on_c, 0, 80, 32
1, 19783, Note_off_c, 0, 81, 64
1, 19784, Note_off_c, 0, 29, 64
1, 19784, Note_on_c, 0, 30, 77
1, 19784, Note_off_c, 0, 68, 64
1, 19785, Note_off_c, 0, 30, 64
1, 19785, Note_on_c, 0, 31, 69
1, 19785, Note_off_c, 0, 49, 64
1, 19785, Note_on_c, 0, 54, 38
1, 19785, Note_off_c, 0, 76, 64
1, 19785, Note_on_c, 0, 77, 32
1, 19785, Note_off_c, 0, 89, 64
1, 19786, Note_off_c, 0, 31, 64
1, 19786, Note_off_c, 0, 61, 64
1, 19786, Note_on_c, 0, 63, 49
1, 19786, Note_on_c, 0, 70, 38
1, 19786, Note_off_c, 0, 73, 64
1, 19786, Note_on_c, 0, 84, 26
1, 19786, Note_on_c, 0, 85, 33
1, 19787, Note_on_c, 0, 33, 51
1, 19787, Note_off_c, 0, 54, 64
1, 19787, Note_on_c, 0, 91, 29
1, 19788, Note_on_c, 0, 55, 65
1, 19788, Note_off_c, 0, 70, 64
1, 19788, Note_on_c, 0, 76, 35
1, 19788, Note_off_c, 0, 77, 64
1, 19788, Note_off_c, 0, 80, 64
1, 19789, Note_off_c, 0, 33, 64
1, 19789, Note_on_c, 0, 50, 79
1, 19789, Note_off_c, 0, 55, 64
1, 19789, Note_off_c, 0, 63, 64
1, 19789, Note_off_c, 0, 82, 64
1, 19789, Note_off_c, 0, 91, 64
1, 19790, Note_on_c, 0, 45, 90
1, 19790, Note_off_c, 0, 50, 64
1, 19791, Note_on_c, 0, 43, 95
1, 19791, Note_off_c, 0, 45, 64
1, 19791, Note_off_c, 0, 84, 64
1, 19792, Note_on_c, 0, 41, 99
1, 19792, Note_off_c, 0, 43, 64
1, 19792, Note_off_c, 0, 76, 64
1, 19793, Note_on_c, 0, 39, 97
1, 19793, Note_off_c, 0, 41, 64
1, 19793, Note_off_c, 0, 78, 64
1, 19794, Note_on_c, 0, 37, 98
1, 19794, Note_off_c, 0, 39, 64
1, 19795, Note_on_c, 0, 36, 97
1, 19795, Note_off_c, 0, 37, 64
1, 19795, Note_off_c, 0, 85, 64
1, 19796, Note_on_c, 0, 35, 96
1, 19796, Note_off_c, 0, 36, 64
1, 19797, Note_on_c, 0, 34, 95
1, 19797, Note_off_c, 0, 35, 64
1, 19798, Note_on_c, 0, 33, 95
1, 19798, Note_off_c, 0, 34, 64
1, 19799, Note_on_c, 0, 32, 96
1, 19799, Note_off_c, 0, 33, 64
1, 19801, Note_on_c, 0, 31, 96
1, 19801, Note_off_c, 0, 32, 64
1, 19801, Note_on_c, 0, 81, 9
1, 19803, Note_on_c, 0, 30, 87
1, 19803, Note_off_c, 0, 31, 64
1, 19803, Note_on_c, 0, 83, 28
1, 19804, Note_on_c, 0, 76, 22
1, 19804, Note_off_c, 0, 81, 64
1, 19805, Note_on_c, 0, 77, 28
1, 19806, Note_off_c, 0, 30, 64
1, 19806, Note_on_c, 0, 73, 17
1, 19806, Note_on_c, 0, 79, 17
1, 19806, Note_on_c, 0, 88, 25
1, 19806, Note_on_c, 0, 97, 15
1, 19807, Note_on_c, 0, 37, 70
1, 19807, Note_on_c, 0, 63, 29
1, 19807, Note_on_c, 0, 68, 14
1, 19807, Note_off_c, 0, 76, 64
1, 19807, Note_on_c, 0, 85, 34
1, 19807, Note_on_c, 0, 92, 13
1, 19808, Note_on_c, 0, 31, 75
1, 19808, Note_off_c, 0, 37, 64
1, 19808, Note_on_c, 0, 49, 61
1, 19808, Note_on_c, 0, 81, 12
1, 19809, Note_on_c, 0, 30, 79
1, 19809, Note_off_c, 0, 31, 64
1, 19809, Note_off_c, 0, 77, 64
1, 19809, Note_off_c, 0, 83, 64
1, 19810, Note_on_c, 0, 29, 80
1, 19810, Note_off_c, 0, 30, 64
1, 19810, Note_off_c, 0, 73, 64
1, 19810, Note_off_c, 0, 88, 64
1, 19810, Note_off_c, 0, 97, 64
1, 19811, Note_off_c, 0, 68, 64
1, 19811, Note_off_c, 0, 92, 64
1, 19812, Note_off_c, 0, 29, 64
1, 19812, Note_on_c, 0, 30, 76
1, 19812, Note_off_c, 0, 63, 64
1, 19812, Note_off_c, 0, 85, 64
1, 19812, Note_on_c, 0, 86, 34
1, 19813, Note_on_c, 0, 29, 75
1, 19813, Note_off_c, 0, 30, 64
1, 19813, Note_off_c, 0, 49, 64
1, 19813, Note_on_c, 0, 72, 16
1, 19813, Note_off_c, 0, 81, 64
1, 19814, Note_off_c, 0, 79, 64
1, 19814, Note_on_c, 0, 85, 19
1, 19815, Note_on_c, 0, 83, 20
1, 19816, Note_off_c, 0, 29, 64
1, 19816, Note_off_c, 0, 72, 64
1, 19817, Note_on_c, 0, 43, 67
1, 19817, Note_on_c, 0, 63, 31
1, 19817, Note_on_c, 0, 68, 26
1, 19817, Note_on_c, 0, 73, 18
1, 19817, Note_on_c, 0, 76, 21
1, 19817, Note_on_c, 0, 77, 38
1, 19817, Note_on_c, 0, 81, 28
1, 19818, Note_on_c, 0, 36, 71
1, 19818, Note_off_c, 0, 43, 64
1, 19818, Note_on_c, 0, 70, 23
1, 19818, Note_off_c, 0, 83, 64
1, 19819, Note_on_c, 0, 30, 81
1, 19819, Note_off_c, 0, 36, 64
1, 19819, Note_off_c, 0, 63, 64
1, 19819, Note_on_c, 0, 64, 29
1, 19819, Note_off_c, 0, 85, 64
1, 19820, Note_on_c, 0, 29, 82
1, 19820, Note_off_c, 0, 30, 64
1, 19820, Note_off_c, 0, 73, 64
1, 19820, Note_off_c, 0, 76, 64
1, 19820, Note_off_c, 0, 81, 64
1, 19821, Note_off_c, 0, 64, 64
1, 19822, Note_off_c, 0, 29, 64
1, 19822, Note_on_c, 0, 30, 76
1, 19822, Note_on_c, 0, 54, 44
1, 19822, Note_off_c, 0, 68, 64
1, 19822, Note_on_c, 0, 81, 37
1, 19823, Note_off_c, 0, 30, 64
1, 19823, Note_off_c, 0, 70, 64
1, 19823, Note_on_c, 0, 80, 38
1, 19824, Note_on_c, 0, 68, 46
1, 19824, Note_on_c, 0, 84, 36
1, 19824, Note_on_c, 0, 85, 34
1, 19824, Note_on_c, 0, 87, 30
1, 19824, Note_on_c, 0, 90, 29
1, 19825, Note_off_c, 0, 54, 64
1, 19825, Note_on_c, 0, 75, 40
1, 19826, Note_on_c, 0, 50, 72
1, 19826, Note_off_c, 0, 68, 64
1, 19826, Note_off_c, 0, 77, 64
1, 19827, Note_on_c, 0, 48, 85
1, 19827, Note_off_c, 0, 50, 64
1, 19827, Note_off_c, 0, 75, 64
1, 19827, Note_off_c, 0, 80, 64
1, 19827, Note_off_c, 0, 81, 64
1, 19827, Note_off_c, 0, 84, 64
1, 19827, Note_off_c, 0, 85, 64
1, 19827, Note_off_c, 0, 86, 64
1, 19827, Note_off_c, 0, 87, 64
1, 19827, Note_off_c, 0, 90, 64
1, 19828, Note_on_c, 0, 45, 95
1, 19828, Note_off_c, 0, 48, 64
1, 19829, Note_on_c, 0, 42, 100
1, 19829, Note_off_c, 0, 45, 64
1, 19830, Note_on_c, 0, 40, 98
1, 19830, Note_off_c, 0, 42, 64
1, 19831, Note_on_c, 0, 38, 98
1, 19831, Note_off_c, 0, 40, 64
1, 19832, Note_on_c, 0, 36, 98
1, 19832, Note_off_c, 0, 38, 64
1, 19833, Note_on_c, 0, 35, 96
1, 19833, Note_off_c, 0, 36, 64
1, 19834, Note_on_c, 0, 34, 95
1, 19834, Note_off_c, 0, 35, 64
1, 19835, Note_on_c, 0, 33, 96
1, 19835, Note_off_c, 0, 34, 64
1, 19836, Note_on_c, 0, 49, 32
1, 19837, Note_on_c, 0, 32, 96
1, 19837, Note_off_c, 0, 33, 64
1, 19838, Note_on_c, 0, 31, 97
1, 19838, Note_off_c, 0, 32, 64
1, 19839, Note_on_c, 0, 48, 26
1, 19839, Note_off_c, 0, 49, 64
1, 19840, Note_on_c, 0, 30, 90
1, 19840, Note_off_c, 0, 31, 64
1, 19842, Note_off_c, 0, 48, 64
1, 19843, Note_off_c, 0, 30, 64
1, 19843, Note_on_c, 0, 85, 36
1, 19844, Note_on_c, 0, 42, 66
1, 19844, Note_on_c, 0, 68, 20
1, 19844, Note_on_c, 0, 87, 17
1, 19844, Note_on_c, 0, 88, 11
1, 19844, Note_on_c, 0, 91, 14
1, 19844, Note_on_c, 0, 101, 17
1, 19845, Note_on_c, 0, 30, 77
1, 19845, Note_on_c, 0, 41, 65
1, 19845, Note_off_c, 0, 42, 64
1, 19846, Note_off_c, 0, 41, 64
1, 19846, Note_on_c, 0, 49, 57
1, 19847, Note_on_c, 0, 29, 80
1, 19847, Note_off_c, 0, 30, 64
1, 19847, Note_on_c, 0, 63, 25
1, 19847, Note_on_c, 0, 72, 9
1, 19847, Note_off_c, 0, 85, 64
1, 19847, Note_off_c, 0, 88, 64
1, 19847, Note_off_c, 0, 101, 64
1, 19848, Note_off_c, 0, 49, 64
1, 19848, Note_off_c, 0, 68, 64
1, 19848, Note_on_c, 0, 85, 12
1, 19849, Note_off_c, 0, 29, 64
1, 19849, Note_on_c, 0, 30, 76
1, 19849, Note_on_c, 0, 76, 13
1, 19849, Note_off_c, 0, 91, 64
1, 19850, Note_on_c, 0, 82, 22
1, 19850, Note_off_c, 0, 87, 64
1, 19851, Note_on_c, 0, 29, 74
1, 19851, Note_off_c, 0, 30, 64
1, 19851, Note_off_c, 0, 85, 64
1, 19852, Note_off_c, 0, 63, 64
1, 19852, Note_off_c, 0, 72, 64
1, 19853, Note_off_c, 0, 29, 64
1, 19853, Note_on_c, 0, 30, 65
1, 19854, Note_on_c, 0, 72, 22
1, 19854, Note_on_c, 0, 74, 16
1, 19854, Note_off_c, 0, 76, 64
1, 19854, Note_on_c, 0, 79, 20
1, 19854, Note_on_c, 0, 83, 33
1, 19854, Note_on_c, 0, 87, 30
1, 19855, Note_off_c, 0, 30, 64
1, 19855, Note_on_c, 0, 36, 72
1, 19855, Note_on_c, 0, 61, 33
1, 19855, Note_on_c, 0, 64, 30
1, 19855, Note_on_c, 0, 68, 22
1, 19855, Note_on_c, 0, 77, 25
1, 19856, Note_on_c, 0, 31, 78
1, 19856, Note_off_c, 0, 36, 64
1, 19857, Note_on_c, 0, 30, 81
1, 19857, Note_off_c, 0, 31, 64
1, 19857, Note_on_c, 0, 63, 41
1, 19857, Note_off_c, 0, 64, 64
1, 19857, Note_off_c, 0, 72, 64
1, 19857, Note_off_c, 0, 74, 64
1, 19858, Note_on_c, 0, 29, 81
1, 19858, Note_off_c, 0, 30, 64
1, 19858, Note_on_c, 0, 49, 57
1, 19858, Note_off_c, 0, 82, 64
1, 19859, Note_off_c, 0, 29, 64
1, 19859, Note_on_c, 0, 30, 77
1, 19860, Note_off_c, 0, 30, 64
1, 19860, Note_on_c, 0, 31, 70
1, 19860, Note_on_c, 0, 54, 37
1, 19860, Note_off_c, 0, 61, 64
1, 19860, Note_off_c, 0, 77, 64
1, 19860, Note_off_c, 0, 79, 64
1, 19861, Note_off_c, 0, 31, 64
1, 19861, Note_off_c, 0, 68, 64
1, 19861, Note_on_c, 0, 70, 40
1, 19861, Note_on_c, 0, 76, 36
1, 19861, Note_on_c, 0, 85, 29
1, 19861, Note_on_c, 0, 92, 27
1, 19862, Note_off_c, 0, 49, 64
1, 19862, Note_off_c, 0, 54, 64
1, 19862, Note_on_c, 0, 73, 41
1, 19862, Note_on_c, 0, 81, 31
1, 19862, Note_on_c, 0, 89, 30
1, 19862, Note_on_c, 0, 90, 29
1, 19863, Note_on_c, 0, 21, 39
1, 19863, Note_on_c, 0, 54, 65
1, 19863, Note_off_c, 0, 63, 64
1, 19863, Note_off_c, 0, 70, 64
1, 19863, Note_off_c, 0, 76, 64
1, 19863, Note_on_c, 0, 78, 31
1, 19863, Note_off_c, 0, 87, 64
1, 19864, Note_on_c, 0, 49, 79
1, 19864, Note_off_c, 0, 54, 64
1, 19864, Note_off_c, 0, 81, 64
1, 19864, Note_off_c, 0, 83, 64
1, 19864, Note_off_c, 0, 85, 64
1, 19864, Note_off_c, 0, 89, 64
1, 19864, Note_off_c, 0, 90, 64
1, 19864, Note_off_c, 0, 92, 64
1, 19865, Note_off_c, 0, 21, 64
1, 19865, Note_on_c, 0, 45, 91
1, 19865, Note_off_c, 0, 49, 64
1, 19865, Note_off_c, 0, 73, 64
1, 19865, Note_off_c, 0, 78, 64
1, 19866, Note_on_c, 0, 42, 96
1, 19866, Note_off_c, 0, 45, 64
1, 19867, Note_on_c, 0, 41, 99
1, 19867, Note_off_c, 0, 42, 64
1, 19868, Note_on_c, 0, 38, 97
1, 19868, Note_off_c, 0, 41, 64
1, 19869, Note_on_c, 0, 37, 98
1, 19869, Note_off_c, 0, 38, 64
1, 19870, Note_on_c, 0, 36, 97
1, 19870, Note_off_c, 0, 37, 64
1, 19871, Note_on_c, 0, 35, 96
1, 19871, Note_off_c, 0, 36, 64
1, 19871, Note_on_c, 0, 95, 22
1, 19871, Note_on_c, 0, 97, 20
1, 19872, Note_on_c, 0, 34, 96
1, 19872, Note_off_c, 0, 35, 64
1, 19873, Note_on_c, 0, 33, 96
1, 19873, Note_off_c, 0, 34, 64
1, 19874, Note_on_c, 0, 32, 96
1, 19874, Note_off_c, 0, 33, 64
1, 19874, Note_off_c, 0, 95, 64
1, 19875, Note_off_c, 0, 97, 64
1, 19876, Note_on_c, 0, 31, 96
1, 19876, Note_off_c, 0, 32, 64
1, 19877, Note_on_c, 0, 30, 93
1, 19877, Note_off_c, 0, 31, 64
1, 19877, Note_on_c, 0, 85, 13
1, 19880, Note_off_c, 0, 85, 64
1, 19881, Note_off_c, 0, 30, 64
1, 19881, Note_on_c, 0, 77, 28
1, 19881, Note_on_c, 0, 86, 18
1, 19882, Note_on_c, 0, 37, 72
1, 19882, Note_on_c, 0, 61, 27
1, 19882, Note_on_c, 0, 66, 16
1, 19882, Note_on_c, 0, 68, 16
1, 19882, Note_on_c, 0, 72, 19
1, 19883, Note_on_c, 0, 30, 78
1, 19883, Note_off_c, 0, 37, 64
1, 19883, Note_on_c, 0, 49, 57
1, 19884, Note_on_c, 0, 29, 81
1, 19884, Note_off_c, 0, 30, 64
1, 19885, Note_on_c, 0, 54, 47
1, 19885, Note_off_c, 0, 66, 64
1, 19885, Note_off_c, 0, 68, 64
1, 19886, Note_off_c, 0, 29, 64
1, 19886, Note_on_c, 0, 30, 77
1, 19886, Note_off_c, 0, 49, 64
1, 19886, Note_off_c, 0, 72, 64
1, 19886, Note_on_c, 0, 81, 13
1, 19887, Note_off_c, 0, 54, 64
1, 19887, Note_off_c, 0, 77, 64
1, 19888, Note_on_c, 0, 29, 74
1, 19888, Note_off_c, 0, 30, 64
1, 19888, Note_off_c, 0, 61, 64
1, 19889, Note_off_c, 0, 81, 64
1, 19889, Note_off_c, 0, 86, 64
1, 19890, Note_off_c, 0, 29, 64
1, 19890, Note_on_c, 0, 30, 70
1, 19890, Note_on_c, 0, 79, 14
1, 19890, Note_on_c, 0, 85, 17
1, 19891, Note_on_c, 0, 77, 24
1, 19891, Note_on_c, 0, 83, 20
1, 19891, Note_on_c, 0, 87, 13
1, 19892, Note_off_c, 0, 30, 64
1, 19892, Note_on_c, 0, 43, 67
1, 19892, Note_on_c, 0, 73, 19
1, 19893, Note_on_c, 0, 32, 73
1, 19893, Note_off_c, 0, 43, 64
1, 19893, Note_on_c, 0, 61, 33
1, 19893, Note_on_c, 0, 68, 18
1, 19893, Note_on_c, 0, 70, 22
1, 19893, Note_off_c, 0, 79, 64
1, 19893, Note_on_c, 0, 80, 28
1, 19893, Note_off_c, 0, 85, 64
1, 19893, Note_on_c, 0, 88, 15
1, 19894, Note_on_c, 0, 30, 81
1, 19894, Note_off_c, 0, 32, 64
1, 19894, Note_off_c, 0, 83, 64
1, 19894, Note_on_c, 0, 86, 14
1, 19894, Note_off_c, 0, 87, 64
1, 19895, Note_on_c, 0, 29, 81
1, 19895, Note_off_c, 0, 30, 64
1, 19895, Note_off_c, 0, 73, 64
1, 19896, Note_off_c, 0, 29, 64
1, 19896, Note_on_c, 0, 30, 79
1, 19896, Note_off_c, 0, 68, 64
1, 19896, Note_off_c, 0, 70, 64
1, 19896, Note_on_c, 0, 78, 19
1, 19896, Note_off_c, 0, 88, 64
1, 19897, Note_on_c, 0, 83, 30
1, 19898, Note_off_c, 0, 30, 64
1, 19898, Note_off_c, 0, 61, 64
1, 19898, Note_off_c, 0, 77, 64
1, 19898, Note_off_c, 0, 86, 64
1, 19899, Note_on_c, 0, 54, 55
1, 19899, Note_on_c, 0, 63, 49
1, 19899, Note_on_c, 0, 70, 45
1, 19899, Note_off_c, 0, 78, 64
1, 19899, Note_on_c, 0, 85, 38
1, 19899, Note_on_c, 0, 86, 31
1, 19899, Note_on_c, 0, 95, 33
1, 19899, Note_on_c, 0, 100, 30
1, 19899, Note_on_c, 0, 101, 35
1, 19900, Note_on_c, 0, 78, 39
1, 19900, Note_off_c, 0, 80, 64
1, 19900, Note_on_c, 0, 81, 36
1, 19900, Note_on_c, 0, 91, 29
1, 19900, Note_on_c, 0, 99, 12
1, 19901, Note_on_c, 0, 51, 73
1, 19901, Note_off_c, 0, 54, 64
1, 19901, Note_off_c, 0, 70, 64
1, 19902, Note_on_c, 0, 48, 85
1, 19902, Note_off_c, 0, 51, 64
1, 19902, Note_off_c, 0, 78, 64
1, 19902, Note_off_c, 0, 81, 64
1, 19902, Note_off_c, 0, 83, 64
1, 19902, Note_off_c, 0, 86, 64
1, 19902, Note_off_c, 0, 91, 64
1, 19902, Note_off_c, 0, 95, 64
1, 19902, Note_off_c, 0, 100, 64
1, 19902, Note_off_c, 0, 101, 64
1, 19903, Note_on_c, 0, 44, 95
1, 19903, Note_off_c, 0, 48, 64
1, 19903, Note_off_c, 0, 63, 64
1, 19903, Note_off_c, 0, 99, 64
1, 19904, Note_on_c, 0, 42, 100
1, 19904, Note_off_c, 0, 44, 64
1, 19905, Note_on_c, 0, 40, 97
1, 19905, Note_off_c, 0, 42, 64
1, 19905, Note_off_c, 0, 85, 64
1, 19906, Note_on_c, 0, 38, 98
1, 19906, Note_off_c, 0, 40, 64
1, 19907, Note_on_c, 0, 36, 98
1, 19907, Note_off_c, 0, 38, 64
1, 19908, Note_on_c, 0, 35, 96
1, 19908, Note_off_c, 0, 36, 64
1, 19909, Note_on_c, 0, 34, 96
1, 19909, Note_off_c, 0, 35, 64
1, 19910, Note_on_c, 0, 33, 96
1, 19910, Note_off_c, 0, 34, 64
1, 19912, Note_on_c, 0, 32, 97
1, 19912, Note_off_c, 0, 33, 64
1, 19912, Note_on_c, 0, 49, 32
1, 19913, Note_on_c, 0, 31, 97
1, 19913, Note_off_c, 0, 32, 64
1, 19915, Note_on_c, 0, 30, 90
1, 19915, Note_off_c, 0, 31, 64
1, 19915, Note_off_c, 0, 49, 64
1, 19918, Note_off_c, 0, 30, 64
1, 19918, Note_on_c, 0, 76, 23
1, 19919, Note_on_c, 0, 41, 68
1, 19919, Note_on_c, 0, 78, 24
1, 19919, Note_on_c, 0, 83, 13
1, 19920, Note_on_c, 0, 31, 73
1, 19920, Note_off_c, 0, 41, 64
1, 19920, Note_on_c, 0, 68, 16
1, 19920, Note_on_c, 0, 71, 10
1, 19921, Note_on_c, 0, 30, 79
1, 19921, Note_off_c, 0, 31, 64
1, 19921, Note_off_c, 0, 76, 64
1, 19922, Note_on_c, 0, 29, 81
1, 19922, Note_off_c, 0, 30, 64
1, 19922, Note_on_c, 0, 49, 56
1, 19922, Note_on_c, 0, 63, 26
1, 19922, Note_off_c, 0, 78, 64
1, 19923, Note_off_c, 0, 68, 64
1, 19923, Note_off_c, 0, 71, 64
1, 19923, Note_off_c, 0, 83, 64
1, 19924, Note_off_c, 0, 29, 64
1, 19924, Note_on_c, 0, 30, 75
1, 19924, Note_off_c, 0, 49, 64
1, 19925, Note_off_c, 0, 63, 64
1, 19926, Note_on_c, 0, 29, 74
1, 19926, Note_off_c, 0, 30, 64
1, 19926, Note_on_c, 0, 79, 23
1, 19928, Note_off_c, 0, 29, 64
1, 19928, Note_on_c, 0, 30, 66
1, 19928, Note_on_c, 0, 49, 57
1, 19928, Note_on_c, 0, 82, 19
1, 19929, Note_off_c, 0, 30, 64
1, 19929, Note_on_c, 0, 85, 20
1, 19930, Note_on_c, 0, 36, 73
1, 19930, Note_off_c, 0, 49, 64
1, 19930, Note_on_c, 0, 61, 32
1, 19930, Note_on_c, 0, 77, 36
1, 19930, Note_on_c, 0, 84, 17
1, 19931, Note_on_c, 0, 30, 80
1, 19931, Note_off_c, 0, 36, 64
1, 19931, Note_on_c, 0, 49, 60
1, 19931, Note_on_c, 0, 64, 29
1, 19931, Note_on_c, 0, 68, 14
1, 19931, Note_on_c, 0, 70, 14
1, 19932, Note_on_c, 0, 29, 82
1, 19932, Note_off_c, 0, 30, 64
1, 19932, Note_off_c, 0, 61, 64
1, 19932, Note_off_c, 0, 82, 64
1, 19933, Note_off_c, 0, 64, 64
1, 19933, Note_on_c, 0, 75, 12
1, 19933, Note_off_c, 0, 84, 64
1, 19933, Note_off_c, 0, 85, 64
1, 19934, Note_off_c, 0, 29, 64
1, 19934, Note_on_c, 0, 30, 77
1, 19934, Note_off_c, 0, 49, 64
1, 19934, Note_off_c, 0, 68, 64
1, 19934, Note_off_c, 0, 70, 64
1, 19935, Note_off_c, 0, 30, 64
1, 19935, Note_on_c, 0, 31, 68
1, 19935, Note_on_c, 0, 54, 37
1, 19935, Note_off_c, 0, 79, 64
1, 19936, Note_off_c, 0, 31, 64
1, 19936, Note_on_c, 0, 32, 58
1, 19936, Note_on_c, 0, 48, 45
1, 19936, Note_on_c, 0, 83, 34
1, 19936, Note_on_c, 0, 85, 33
1, 19936, Note_on_c, 0, 87, 28
1, 19936, Note_on_c, 0, 88, 28
1, 19936, Note_on_c, 0, 90, 31
1, 19936, Note_on_c, 0, 91, 29
1, 19936, Note_on_c, 0, 93, 25
1, 19936, Note_on_c, 0, 94, 25
1, 19937, Note_off_c, 0, 54, 64
1, 19937, Note_on_c, 0, 69, 41
1, 19937, Note_off_c, 0, 75, 64
1, 19938, Note_off_c, 0, 32, 64
1, 19938, Note_off_c, 0, 48, 64
1, 19938, Note_on_c, 0, 54, 66
1, 19938, Note_on_c, 0, 76, 32
1, 19938, Note_off_c, 0, 77, 64
1, 19939, Note_on_c, 0, 49, 81
1, 19939, Note_off_c, 0, 54, 64
1, 19939, Note_off_c, 0, 83, 64
1, 19939, Note_off_c, 0, 85, 64
1, 19939, Note_off_c, 0, 87, 64
1, 19939, Note_off_c, 0, 88, 64
1, 19939, Note_off_c, 0, 90, 64
1, 19939, Note_off_c, 0, 91, 64
1, 19939, Note_off_c, 0, 93, 64
1, 19939, Note_off_c, 0, 94, 64
1, 19940, Note_on_c, 0, 45, 92
1, 19940, Note_off_c, 0, 49, 64
1, 19940, Note_off_c, 0, 69, 64
1, 19940, Note_off_c, 0, 76, 64
1, 19941, Note_on_c, 0, 42, 98
1, 19941, Note_off_c, 0, 45, 64
1, 19942, Note_on_c, 0, 41, 99
1, 19942, Note_off_c, 0, 42, 64
1, 19943, Note_on_c, 0, 38, 98
1, 19943, Note_off_c, 0, 41, 64
1, 19944, Note_on_c, 0, 37, 98
1, 19944, Note_off_c, 0, 38, 64
1, 19945, Note_on_c, 0, 36, 97
1, 19945, Note_off_c, 0, 37, 64
1, 19946, Note_on_c, 0, 34, 96
1, 19946, Note_off_c, 0, 36, 64
1, 19948, Note_on_c, 0, 33, 95
1, 19948, Note_off_c, 0, 34, 64
1, 19949, Note_on_c, 0, 32, 97
1, 19949, Note_off_c, 0, 33, 64
1, 19951, Note_on_c, 0, 31, 96
1, 19951, Note_off_c, 0, 32, 64
1, 19952, Note_on_c, 0, 30, 93
1, 19952, Note_off_c, 0, 31, 64
1, 19955, Note_off_c, 0, 30, 64
1, 19955, Note_on_c, 0, 77, 32
1, 19955, Note_on_c, 0, 86, 31
1, 19955, Note_on_c, 0, 87, 28
1, 19956, Note_on_c, 0, 61, 32
1, 19956, Note_on_c, 0, 72, 30
1, 19956, Note_on_c, 0, 91, 15
1, 19956, Note_on_c, 0, 93, 25
1, 19956, Note_on_c, 0, 97, 18
1, 19956, Note_on_c, 0, 101, 14
1, 19956, Note_on_c, 0, 102, 14
1, 19957, Note_on_c, 0, 36, 68
1, 19957, Note_on_c, 0, 54, 51
1, 19957, Note_on_c, 0, 70, 10
1, 19957, Note_on_c, 0, 81, 20
1, 19957, Note_on_c, 0, 84, 44
1, 19957, Note_on_c, 0, 92, 17
1, 19958, Note_on_c, 0, 30, 78
1, 19958, Note_off_c, 0, 36, 64
1, 19958, Note_on_c, 0, 63, 31
1, 19958, Note_on_c, 0, 80, 25
1, 19958, Note_on_c, 0, 83, 32
1, 19958, Note_on_c, 0, 85, 31
1, 19958, Note_off_c, 0, 86, 64
1, 19959, Note_on_c, 0, 29, 80
1, 19959, Note_off_c, 0, 30, 64
1, 19959, Note_off_c, 0, 54, 64
1, 19959, Note_off_c, 0, 77, 64
1, 19959, Note_on_c, 0, 78, 28
1, 19959, Note_on_c, 0, 79, 14
1, 19959, Note_off_c, 0, 84, 64
1, 19959, Note_on_c, 0, 88, 21
1, 19959, Note_off_c, 0, 97, 64
1, 19959, Note_off_c, 0, 101, 64
1, 19959, Note_off_c, 0, 102, 64
1, 19960, Note_off_c, 0, 63, 64
1, 19960, Note_off_c, 0, 70, 64
1, 19960, Note_on_c, 0, 71, 40
1, 19960, Note_off_c, 0, 72, 64
1, 19960, Note_off_c, 0, 81, 64
1, 19960, Note_off_c, 0, 85, 64
1, 19960, Note_off_c, 0, 91, 64
1, 19960, Note_off_c, 0, 93, 64
1, 19961, Note_off_c, 0, 29, 64
1, 19961, Note_on_c, 0, 30, 76
1, 19961, Note_off_c, 0, 61, 64
1, 19961, Note_off_c, 0, 92, 64
1, 19962, Note_on_c, 0, 77, 35
1, 19962, Note_off_c, 0, 78, 64
1, 19962, Note_off_c, 0, 79, 64
1, 19962, Note_on_c, 0, 81, 24
1, 19963, Note_on_c, 0, 29, 74
1, 19963, Note_off_c, 0, 30, 64
1, 19963, Note_on_c, 0, 78, 30
1, 19963, Note_off_c, 0, 80, 64
1, 19963, Note_off_c, 0, 87, 64
1, 19963, Note_on_c, 0, 91, 15
1, 19964, Note_on_c, 0, 86, 31
1, 19965, Note_off_c, 0, 29, 64
1, 19965, Note_on_c, 0, 30, 68
1, 19965, Note_on_c, 0, 74, 20
1, 19966, Note_off_c, 0, 30, 64
1, 19966, Note_on_c, 0, 61, 33
1, 19966, Note_off_c, 0, 91, 64
1, 19967, Note_on_c, 0, 42, 69
1, 19967, Note_off_c, 0, 81, 64
1, 19968, Note_on_c, 0, 31, 74
1, 19968, Note_off_c, 0, 42, 64
1, 19968, Note_on_c, 0, 64, 28
1, 19968, Note_on_c, 0, 70, 38
1, 19968, Note_off_c, 0, 71, 64
1, 19968, Note_on_c, 0, 72, 31
1, 19968, Note_off_c, 0, 78, 64
1, 19968, Note_on_c, 0, 79, 34
1, 19969, Note_on_c, 0, 30, 80
1, 19969, Note_off_c, 0, 31, 64
1, 19969, Note_off_c, 0, 61, 64
1, 19969, Note_off_c, 0, 74, 64
1, 19969, Note_on_c, 0, 85, 16
1, 19969, Note_off_c, 0, 88, 64
1, 19970, Note_on_c, 0, 29, 80
1, 19970, Note_off_c, 0, 30, 64
1, 19971, Note_on_c, 0, 63, 33
1, 19971, Note_off_c, 0, 64, 64
1, 19971, Note_off_c, 0, 72, 64
1, 19971, Note_off_c, 0, 77, 64
1, 19972, Note_off_c, 0, 29, 64
1, 19972, Note_on_c, 0, 30, 73
1, 19972, Note_on_c, 0, 54, 57
1, 19972, Note_off_c, 0, 83, 64
1, 19972, Note_off_c, 0, 85, 64
1, 19973, Note_off_c, 0, 30, 64
1, 19973, Note_off_c, 0, 70, 64
1, 19973, Note_on_c, 0, 77, 34
1, 19974, Note_on_c, 0, 67, 51
1, 19974, Note_on_c, 0, 70, 45
1, 19974, Note_on_c, 0, 74, 37
1, 19974, Note_on_c, 0, 85, 27
1, 19974, Note_on_c, 0, 96, 20
1, 19975, Note_off_c, 0, 63, 64
1, 19975, Note_on_c, 0, 64, 50
1, 19976, Note_on_c, 0, 51, 75
1, 19976, Note_off_c, 0, 54, 64
1, 19976, Note_off_c, 0, 70, 64
1, 19976, Note_on_c, 0, 71, 30
1, 19976, Note_off_c, 0, 77, 64
1, 19977, Note_on_c, 0, 46, 86
1, 19977, Note_off_c, 0, 51, 64
1, 19977, Note_off_c, 0, 64, 64
1, 19977, Note_off_c, 0, 74, 64
1, 19977, Note_on_c, 0, 81, 16
1, 19977, Note_off_c, 0, 86, 64
1, 19977, Note_off_c, 0, 96, 64
1, 19978, Note_on_c, 0, 44, 94
1, 19978, Note_off_c, 0, 46, 64
1, 19978, Note_off_c, 0, 67, 64
1, 19978, Note_off_c, 0, 71, 64
1, 19978, Note_off_c, 0, 85, 64
1, 19979, Note_on_c, 0, 41, 100
1, 19979, Note_off_c, 0, 44, 64
1, 19979, Note_on_c, 0, 84, 24
1, 19980, Note_on_c, 0, 39, 96
1, 19980, Note_off_c, 0, 41, 64
1, 19981, Note_on_c, 0, 38, 98
1, 19981, Note_off_c, 0, 39, 64
1, 19981, Note_on_c, 0, 78, 21
1, 19981, Note_off_c, 0, 79, 64
1, 19981, Note_off_c, 0, 81, 64
1, 19982, Note_on_c, 0, 36, 97
1, 19982, Note_off_c, 0, 38, 64
1, 19982, Note_on_c, 0, 79, 17
1, 19982, Note_on_c, 0, 87, 11
1, 19983, Note_on_c, 0, 35, 96
1, 19983, Note_off_c, 0, 36, 64
1, 19984, Note_on_c, 0, 34, 96
1, 19984, Note_off_c, 0, 35, 64
1, 19985, Note_on_c, 0, 33, 96
1, 19985, Note_off_c, 0, 34, 64
1, 19985, Note_on_c, 0, 73, 10
1, 19985, Note_on_c, 0, 76, 11
1, 19985, Note_off_c, 0, 79, 64
1, 19987, Note_on_c, 0, 32, 96
1, 19987, Note_off_c, 0, 33, 64
1, 19987, Note_off_c, 0, 78, 64
1, 19987, Note_on_c, 0, 80, 22
1, 19987, Note_on_c, 0, 85, 29
1, 19987, Note_off_c, 0, 87, 64
1, 19987, Note_on_c, 0, 90, 27
1, 19988, Note_on_c, 0, 31, 96
1, 19988, Note_off_c, 0, 32, 64
1, 19988, Note_on_c, 0, 65, 16
1, 19988, Note_off_c, 0, 73, 64
1, 19988, Note_on_c, 0, 75, 20
1, 19988, Note_off_c, 0, 76, 64
1, 19988, Note_on_c, 0, 83, 36
1, 19988, Note_off_c, 0, 84, 64
1, 19989, Note_on_c, 0, 77, 30
1, 19990, Note_on_c, 0, 30, 89
1, 19990, Note_off_c, 0, 31, 64
1, 19991, Note_off_c, 0, 65, 64
1, 19991, Note_off_c, 0, 80, 64
1, 19991, Note_on_c, 0, 87, 25
1, 19991, Note_on_c, 0, 88, 34
1, 19992, Note_on_c, 0, 76, 28
1, 19992, Note_on_c, 0, 79, 27
1, 19992, Note_on_c, 0, 94, 25
1, 19993, Note_off_c, 0, 30, 64
1, 19993, Note_on_c, 0, 74, 14
1, 19993, Note_off_c, 0, 75, 64
1, 19993, Note_off_c, 0, 77, 64
1, 19993, Note_on_c, 0, 92, 28
1, 19993, Note_on_c, 0, 96, 22
1, 19994, Note_on_c, 0, 37, 68
1, 19994, Note_on_c, 0, 72, 25
1, 19994, Note_on_c, 0, 77, 28
1, 19994, Note_on_c, 0, 82, 32
1, 19994, Note_on_c, 0, 84, 43
1, 19994, Note_off_c, 0, 90, 64
1, 19995, Note_on_c, 0, 30, 79
1, 19995, Note_off_c, 0, 37, 64
1, 19995, Note_on_c, 0, 63, 28
1, 19995, Note_off_c, 0, 85, 64
1, 19996, Note_off_c, 0, 76, 64
1, 19996, Note_on_c, 0, 85, 25
1, 19996, Note_off_c, 0, 96, 64
1, 19997, Note_on_c, 0, 29, 79
1, 19997, Note_off_c, 0, 30, 64
1, 19997, Note_on_c, 0, 71, 20
1, 19997, Note_off_c, 0, 72, 64
1, 19997, Note_off_c, 0, 83, 64
1, 19997, Note_off_c, 0, 92, 64
1, 19997, Note_off_c, 0, 94, 64
1, 19998, Note_off_c, 0, 29, 64
1, 19998, Note_on_c, 0, 30, 76
1, 19998, Note_off_c, 0, 74, 64
1, 19998, Note_off_c, 0, 77, 64
1, 19998, Note_on_c, 0, 92, 16
1, 19999, Note_on_c, 0, 81, 23
1, 19999, Note_on_c, 0, 83, 34
1, 20000, Note_on_c, 0, 29, 73
1, 20000, Note_off_c, 0, 30, 64
1, 20000, Note_off_c, 0, 71, 64
1, 20000, Note_off_c, 0, 82, 64
1, 20000, Note_off_c, 0, 84, 64
1, 20000, Note_off_c, 0, 85, 64
1, 20001, Note_on_c, 0, 48, 45
1, 20001, Note_off_c, 0, 63, 64
1, 20001, Note_on_c, 0, 82, 27
1, 20001, Note_off_c, 0, 92, 64
1, 20002, Note_on_c, 0, 66, 23
1, 20002, Note_on_c, 0, 73, 20
1, 20002, Note_off_c, 0, 83, 64
1, 20002, Note_on_c, 0, 85, 28
1, 20002, Note_on_c, 0, 86, 27
1, 20003, Note_off_c, 0, 29, 64
1, 20003, Note_off_c, 0, 48, 64
1, 20004, Note_on_c, 0, 75, 28
1, 20005, Note_on_c, 0, 36, 71
1, 20005, Note_on_c, 0, 61, 35
1, 20005, Note_off_c, 0, 66, 64
1, 20005, Note_off_c, 0, 81, 64
1, 20005, Note_off_c, 0, 86, 64
1, 20006, Note_on_c, 0, 30, 81
1, 20006, Note_off_c, 0, 36, 64
1, 20006, Note_on_c, 0, 64, 33
1, 20006, Note_off_c, 0, 73, 64
1, 20006, Note_off_c, 0, 88, 64
1, 20007, Note_on_c, 0, 29, 82
1, 20007, Note_off_c, 0, 30, 64
1, 20007, Note_off_c, 0, 61, 64
1, 20007, Note_on_c, 0, 73, 20
1, 20007, Note_on_c, 0, 77, 20
1, 20007, Note_off_c, 0, 85, 64
1, 20007, Note_off_c, 0, 87, 64
1, 20008, Note_off_c, 0, 64, 64
1, 20009, Note_off_c, 0, 29, 64
1, 20009, Note_on_c, 0, 30, 77
1, 20009, Note_on_c, 0, 54, 46
1, 20009, Note_off_c, 0, 75, 64
1, 20009, Note_on_c, 0, 76, 23
1, 20009, Note_off_c, 0, 79, 64
1, 20009, Note_off_c, 0, 82, 64
1, 20010, Note_off_c, 0, 30, 64
1, 20010, Note_on_c, 0, 31, 66
1, 20010, Note_off_c, 0, 73, 64
1, 20010, Note_off_c, 0, 77, 64
1, 20010, Note_on_c, 0, 81, 34
1, 20011, Note_off_c, 0, 31, 64
1, 20011, Note_on_c, 0, 32, 56
1, 20011, Note_on_c, 0, 48, 45
1, 20011, Note_on_c, 0, 59, 51
1, 20011, Note_on_c, 0, 78, 37
1, 20011, Note_on_c, 0, 79, 37
1, 20011, Note_on_c, 0, 84, 32
1, 20011, Note_on_c, 0, 85, 29
1, 20011, Note_on_c, 0, 87, 22
1, 20011, Note_on_c, 0, 92, 24
1, 20011, Note_on_c, 0, 94, 24
1, 20011, Note_on_c, 0, 98, 22
1, 20011, Note_on_c, 0, 99, 24
1, 20011, Note_on_c, 0, 100, 23
1, 20012, Note_off_c, 0, 54, 64
1, 20012, Note_on_c, 0, 65, 46
1, 20012, Note_off_c, 0, 76, 64
1, 20012, Note_on_c, 0, 82, 33
1, 20012, Note_on_c, 0, 89, 32
1, 20013, Note_off_c, 0, 32, 64
1, 20013, Note_off_c, 0, 48, 64
1, 20013, Note_on_c, 0, 53, 70
1, 20013, Note_off_c, 0, 59, 64
1, 20013, Note_on_c, 0, 70, 38
1, 20013, Note_on_c, 0, 74, 34
1, 20013, Note_off_c, 0, 78, 64
1, 20013, Note_on_c, 0, 80, 27
1, 20013, Note_on_c, 0, 90, 15
1, 20014, Note_on_c, 0, 49, 82
1, 20014, Note_off_c, 0, 53, 64
1, 20014, Note_off_c, 0, 65, 64
1, 20014, Note_off_c, 0, 79, 64
1, 20014, Note_off_c, 0, 81, 64
1, 20014, Note_on_c, 0, 83, 21
1, 20014, Note_off_c, 0, 84, 64
1, 20014, Note_off_c, 0, 85, 64
1, 20014, Note_off_c, 0, 89, 64
1, 20014, Note_off_c, 0, 98, 64
1, 20014, Note_off_c, 0, 99, 64
1, 20014, Note_off_c, 0, 100, 64
1, 20015, Note_on_c, 0, 45, 92
1, 20015, Note_off_c, 0, 49, 64
1, 20015, Note_off_c, 0, 70, 64
1, 20015, Note_off_c, 0, 82, 64
1, 20015, Note_off_c, 0, 92, 64
1, 20016, Note_on_c, 0, 42, 98
1, 20016, Note_off_c, 0, 45, 64
1, 20016, Note_off_c, 0, 80, 64
1, 20016, Note_on_c, 0, 81, 24
1, 20016, Note_on_c, 0, 84, 11
1, 20016, Note_off_c, 0, 94, 64
1, 20017, Note_on_c, 0, 40, 98
1, 20017, Note_off_c, 0, 42, 64
1, 20017, Note_off_c, 0, 83, 64
1, 20017, Note_off_c, 0, 90, 64
1, 20018, Note_on_c, 0, 38, 98
1, 20018, Note_off_c, 0, 40, 64
1, 20018, Note_off_c, 0, 74, 64
1, 20019, Note_on_c, 0, 37, 98
1, 20019, Note_off_c, 0, 38, 64
1, 20019, Note_off_c, 0, 81, 64
1, 20019, Note_on_c, 0, 82, 15
1, 20020, Note_on_c, 0, 36, 97
1, 20020, Note_off_c, 0, 37, 64
1, 20020, Note_off_c, 0, 84, 64
1, 20020, Note_off_c, 0, 87, 64
1, 20021, Note_on_c, 0, 34, 96
1, 20021, Note_off_c, 0, 36, 64
1, 20021, Note_on_c, 0, 96, 24
1, 20021, Note_on_c, 0, 97, 23
1, 20021, Note_on_c, 0, 101, 17
1, 20022, Note_on_c, 0, 33, 95
1, 20022, Note_off_c, 0, 34, 64
1, 20022, Note_on_c, 0, 73, 16
1, 20022, Note_on_c, 0, 85, 27
1, 20022, Note_on_c, 0, 86, 26
1, 20022, Note_on_c, 0, 92, 16
1, 20022, Note_on_c, 0, 94, 20
1, 20023, Note_on_c, 0, 90, 9
1, 20023, Note_on_c, 0, 99, 10
1, 20024, Note_on_c, 0, 32, 97
1, 20024, Note_off_c, 0, 33, 64
1, 20024, Note_off_c, 0, 82, 64
1, 20025, Note_off_c, 0, 73, 64
1, 20025, Note_off_c, 0, 86, 64
1, 20025, Note_off_c, 0, 94, 64
1, 20025, Note_off_c, 0, 96, 64
1, 20025, Note_off_c, 0, 97, 64
1, 20025, Note_off_c, 0, 101, 64
1, 20026, Note_on_c, 0, 31, 96
1, 20026, Note_off_c, 0, 32, 64
1, 20026, Note_on_c, 0, 84, 22
1, 20026, Note_off_c, 0, 85, 64
1, 20026, Note_off_c, 0, 90, 64
1, 20026, Note_off_c, 0, 99, 64
1, 20027, Note_on_c, 0, 30, 91
1, 20027, Note_off_c, 0, 31, 64
1, 20027, Note_on_c, 0, 83, 19
1, 20027, Note_off_c, 0, 92, 64
1, 20029, Note_on_c, 0, 77, 19
1, 20029, Note_on_c, 0, 86, 13
1, 20030, Note_off_c, 0, 30, 64
1, 20030, Note_on_c, 0, 81, 16
1, 20030, Note_off_c, 0, 83, 64
1, 20030, Note_on_c, 0, 87, 18
1, 20031, Note_on_c, 0, 79, 23
1, 20031, Note_on_c, 0, 82, 17
1, 20031, Note_on_c, 0, 88, 31
1, 20031, Note_on_c, 0, 90, 14
1, 20031, Note_on_c, 0, 92, 24
1, 20031, Note_on_c, 0, 94, 22
1, 20032, Note_on_c, 0, 30, 78
1, 20033, Note_on_c, 0, 64, 41
1, 20033, Note_on_c, 0, 83, 24
1, 20033, Note_off_c, 0, 86, 64
1, 20033, Note_off_c, 0, 87, 64
1, 20034, Note_on_c, 0, 48, 58
1, 20034, Note_on_c, 0, 68, 19
1, 20034, Note_off_c, 0, 77, 64
1, 20034, Note_off_c, 0, 79, 64
1, 20034, Note_off_c, 0, 82, 64
1, 20035, Note_off_c, 0, 88, 64
1, 20035, Note_off_c, 0, 92, 64
1, 20036, Note_on_c, 0, 29, 76
1, 20036, Note_off_c, 0, 30, 64
1, 20036, Note_off_c, 0, 48, 64
1, 20036, Note_on_c, 0, 69, 12
1, 20036, Note_off_c, 0, 84, 64
1, 20036, Note_off_c, 0, 90, 64
1, 20036, Note_off_c, 0, 94, 64
1, 20037, Note_off_c, 0, 29, 64
1, 20037, Note_on_c, 0, 30, 75
1, 20037, Note_off_c, 0, 68, 64
1, 20037, Note_off_c, 0, 81, 64
1, 20037, Note_on_c, 0, 82, 13
1, 20038, Note_on_c, 0, 29, 74
1, 20038, Note_off_c, 0, 30, 64
1, 20038, Note_off_c, 0, 64, 64
1, 20038, Note_on_c, 0, 77, 25
1, 20038, Note_on_c, 0, 79, 28
1, 20039, Note_off_c, 0, 69, 64
1, 20039, Note_on_c, 0, 85, 29
1, 20039, Note_on_c, 0, 86, 41
1, 20039, Note_on_c, 0, 88, 31
1, 20039, Note_on_c, 0, 93, 40
1, 20039, Note_on_c, 0, 94, 25
1, 20039, Note_on_c, 0, 95, 32
1, 20040, Note_off_c, 0, 29, 64
1, 20040, Note_on_c, 0, 30, 67
1, 20040, Note_on_c, 0, 54, 30
1, 20040, Note_on_c, 0, 90, 41
1, 20040, Note_on_c, 0, 91, 36
1, 20040, Note_on_c, 0, 99, 19
1, 20041, Note_on_c, 0, 61, 32
1, 20041, Note_on_c, 0, 72, 19
1, 20041, Note_off_c, 0, 82, 64
1, 20041, Note_on_c, 0, 84, 27
1, 20041, Note_on_c, 0, 96, 32
1, 20042, Note_off_c, 0, 30, 64
1, 20042, Note_on_c, 0, 35, 70
1, 20042, Note_off_c, 0, 54, 64
1, 20042, Note_off_c, 0, 85, 64
1, 20042, Note_on_c, 0, 87, 28
1, 20042, Note_off_c, 0, 88, 64
1, 20042, Note_off_c, 0, 94, 64
1, 20043, Note_on_c, 0, 30, 77
1, 20043, Note_off_c, 0, 35, 64
1, 20043, Note_on_c, 0, 68, 19
1, 20043, Note_on_c, 0, 89, 25
1, 20043, Note_off_c, 0, 95, 64
1, 20043, Note_off_c, 0, 96, 64
1, 20044, Note_on_c, 0, 29, 82
1, 20044, Note_off_c, 0, 30, 64
1, 20044, Note_off_c, 0, 72, 64
1, 20044, Note_off_c, 0, 77, 64
1, 20044, Note_on_c, 0, 81, 16
1, 20044, Note_off_c, 0, 83, 64
1, 20044, Note_on_c, 0, 95, 30
1, 20045, Note_off_c, 0, 90, 64
1, 20045, Note_off_c, 0, 99, 64
1, 20046, Note_off_c, 0, 29, 64
1, 20046, Note_on_c, 0, 30, 78
1, 20046, Note_off_c, 0, 84, 64
1, 20046, Note_off_c, 0, 86, 64
1, 20047, Note_on_c, 0, 54, 62
1, 20047, Note_off_c, 0, 68, 64
1, 20047, Note_on_c, 0, 75, 37
1, 20047, Note_off_c, 0, 79, 64
1, 20047, Note_on_c, 0, 82, 33
1, 20047, Note_on_c, 0, 84, 30
1, 20047, Note_off_c, 0, 91, 64
1, 20047, Note_off_c, 0, 93, 64
1, 20048, Note_off_c, 0, 30, 64
1, 20048, Note_off_c, 0, 61, 64
1, 20048, Note_on_c, 0, 80, 31
1, 20048, Note_off_c, 0, 81, 64
1, 20048, Note_off_c, 0, 87, 64
1, 20048, Note_on_c, 0, 96, 31
1, 20049, Note_on_c, 0, 69, 46
1, 20049, Note_on_c, 0, 83, 29
1, 20049, Note_on_c, 0, 86, 32
1, 20049, Note_on_c, 0, 97, 35
1, 20049, Note_on_c, 0, 99, 17
1, 20049, Note_on_c, 0, 101, 32
1, 20050, Note_on_c, 0, 64, 54
1, 20050, Note_off_c, 0, 75, 64
1, 20050, Note_on_c, 0, 85, 32
1, 20051, Note_on_c, 0, 50, 77
1, 20051, Note_off_c, 0, 54, 64
1, 20051, Note_on_c, 0, 78, 9
1, 20051, Note_off_c, 0, 82, 64
1, 20051, Note_off_c, 0, 83, 64
1, 20051, Note_off_c, 0, 84, 64
1, 20051, Note_off_c, 0, 86, 64
1, 20051, Note_off_c, 0, 89, 64
1, 20052, Note_on_c, 0, 46, 88
1, 20052, Note_off_c, 0, 50, 64
1, 20052, Note_off_c, 0, 64, 64
1, 20052, Note_off_c, 0, 69, 64
1, 20052, Note_off_c, 0, 95, 64
1, 20052, Note_off_c, 0, 99, 64
1, 20053, Note_on_c, 0, 43, 95
1, 20053, Note_off_c, 0, 46, 64
1, 20053, Note_off_c, 0, 80, 64
1, 20053, Note_off_c, 0, 85, 64
1, 20053, Note_off_c, 0, 96, 64
1, 20053, Note_off_c, 0, 101, 64
1, 20054, Note_on_c, 0, 41, 100
1, 20054, Note_off_c, 0, 43, 64
1, 20054, Note_off_c, 0, 78, 64
1, 20054, Note_off_c, 0, 97, 64
1, 20055, Note_on_c, 0, 39, 97
1, 20055, Note_off_c, 0, 41, 64
1, 20056, Note_on_c, 0, 37, 98
1, 20056, Note_off_c, 0, 39, 64
1, 20057, Note_on_c, 0, 36, 97
1, 20057, Note_off_c, 0, 37, 64
1, 20058, Note_on_c, 0, 35, 96
1, 20058, Note_off_c, 0, 36, 64
1, 20059, Note_on_c, 0, 34, 96
1, 20059, Note_off_c, 0, 35, 64
1, 20059, Note_on_c, 0, 75, 42
1, 20059, Note_on_c, 0, 82, 27
1, 20059, Note_on_c, 0, 84, 28
1, 20060, Note_on_c, 0, 33, 95
1, 20060, Note_off_c, 0, 34, 64
1, 20060, Note_on_c, 0, 73, 42
1, 20060, Note_on_c, 0, 78, 42
1, 20061, Note_off_c, 0, 75, 64
1, 20062, Note_on_c, 0, 32, 96
1, 20062, Note_off_c, 0, 33, 64
1, 20062, Note_on_c, 0, 75, 42
1, 20062, Note_on_c, 0, 80, 30
1, 20062, Note_on_c, 0, 83, 23
1, 20062, Note_off_c, 0, 84, 64
1, 20063, Note_on_c, 0, 31, 96
1, 20063, Note_off_c, 0, 32, 64
1, 20063, Note_on_c, 0, 79, 42
1, 20064, Note_off_c, 0, 73, 64
1, 20064, Note_off_c, 0, 75, 64
1, 20064, Note_off_c, 0, 78, 64
1, 20064, Note_off_c, 0, 82, 64
1, 20064, Note_on_c, 0, 84, 19
1, 20065, Note_on_c, 0, 30, 88
1, 20065, Note_off_c, 0, 31, 64
1, 20065, Note_on_c, 0, 71, 37
1, 20065, Note_on_c, 0, 74, 49
1, 20065, Note_on_c, 0, 77, 48
1, 20065, Note_off_c, 0, 79, 64
1, 20067, Note_on_c, 0, 72, 40
1, 20067, Note_off_c, 0, 74, 64
1, 20067, Note_on_c, 0, 75, 40
1, 20067, Note_off_c, 0, 77, 64
1, 20067, Note_off_c, 0, 80, 64
1, 20068, Note_off_c, 0, 30, 64
1, 20068, Note_on_c, 0, 70, 36
1, 20068, Note_off_c, 0, 71, 64
1, 20068, Note_on_c, 0, 77, 36
1, 20068, Note_on_c, 0, 80, 28
1, 20068, Note_on_c, 0, 88, 16
1, 20069, Note_on_c, 0, 37, 68
1, 20069, Note_off_c, 0, 83, 64
1, 20070, Note_on_c, 0, 31, 75
1, 20070, Note_off_c, 0, 37, 64
1, 20070, Note_off_c, 0, 72, 64
1, 20070, Note_off_c, 0, 75, 64
1, 20070, Note_on_c, 0, 76, 40
1, 20070, Note_off_c, 0, 77, 64
1, 20070, Note_on_c, 0, 78, 27
1, 20070, Note_on_c, 0, 83, 14
1, 20071, Note_on_c, 0, 30, 80
1, 20071, Note_off_c, 0, 31, 64
1, 20071, Note_on_c, 0, 74, 29
1, 20071, Note_off_c, 0, 88, 64
1, 20072, Note_on_c, 0, 29, 80
1, 20072, Note_off_c, 0, 30, 64
1, 20072, Note_on_c, 0, 63, 25
1, 20073, Note_off_c, 0, 29, 64
1, 20073, Note_on_c, 0, 30, 76
1, 20073, Note_on_c, 0, 61, 21
1, 20073, Note_on_c, 0, 73, 29
1, 20073, Note_off_c, 0, 74, 64
1, 20073, Note_on_c, 0, 75, 30
1, 20073, Note_on_c, 0, 77, 25
1, 20073, Note_off_c, 0, 84, 64
1, 20074, Note_off_c, 0, 76, 64
1, 20074, Note_off_c, 0, 78, 64
1, 20074, Note_off_c, 0, 80, 64
1, 20075, Note_off_c, 0, 63, 64
1, 20075, Note_off_c, 0, 75, 64
1, 20075, Note_off_c, 0, 83, 64
1, 20076, Note_on_c, 0, 29, 72
1, 20076, Note_off_c, 0, 30, 64
1, 20076, Note_off_c, 0, 61, 64
1, 20076, Note_off_c, 0, 70, 64
1, 20077, Note_off_c, 0, 73, 64
1, 20077, Note_on_c, 0, 74, 35
1, 20077, Note_on_c, 0, 83, 28
1, 20077, Note_on_c, 0, 85, 22
1, 20078, Note_off_c, 0, 29, 64
1, 20078, Note_on_c, 0, 73, 39
1, 20078, Note_off_c, 0, 77, 64
1, 20078, Note_on_c, 0, 78, 35
1, 20079, Note_on_c, 0, 45, 65
1, 20079, Note_off_c, 0, 74, 64
1, 20079, Note_on_c, 0, 75, 46
1, 20079, Note_on_c, 0, 84, 15
1, 20080, Note_on_c, 0, 36, 72
1, 20080, Note_off_c, 0, 45, 64
1, 20080, Note_on_c, 0, 61, 30
1, 20080, Note_on_c, 0, 77, 34
1, 20080, Note_off_c, 0, 78, 64
1, 20080, Note_on_c, 0, 80, 38
1, 20080, Note_on_c, 0, 81, 18
1, 20081, Note_on_c, 0, 30, 80
1, 20081, Note_off_c, 0, 36, 64
1, 20081, Note_off_c, 0, 83, 64
1, 20081, Note_off_c, 0, 85, 64
1, 20082, Note_on_c, 0, 29, 82
1, 20082, Note_off_c, 0, 30, 64
1, 20082, Note_off_c, 0, 73, 64
1, 20082, Note_off_c, 0, 77, 64
1, 20082, Note_off_c, 0, 84, 64
1, 20083, Note_off_c, 0, 61, 64
1, 20083, Note_on_c, 0, 79, 35
1, 20083, Note_off_c, 0, 80, 64
1, 20083, Note_on_c, 0, 82, 34
1, 20084, Note_off_c, 0, 29, 64
1, 20084, Note_on_c, 0, 30, 76
1, 20084, Note_on_c, 0, 74, 46
1, 20084, Note_off_c, 0, 75, 64
1, 20084, Note_off_c, 0, 81, 64
1, 20085, Note_off_c, 0, 30, 64
1, 20085, Note_on_c, 0, 54, 70
1, 20085, Note_on_c, 0, 77, 43
1, 20085, Note_on_c, 0, 80, 30
1, 20086, Note_on_c, 0, 59, 50
1, 20086, Note_off_c, 0, 79, 64
1, 20086, Note_on_c, 0, 83, 33
1, 20086, Note_on_c, 0, 87, 29
1, 20086, Note_on_c, 0, 90, 31
1, 20086, Note_on_c, 0, 91, 31
1, 20086, Note_on_c, 0, 93, 24
1, 20086, Note_on_c, 0, 96, 16
1, 20087, Note_on_c, 0, 69, 44
1, 20087, Note_on_c, 0, 73, 47
1, 20087, Note_off_c, 0, 74, 64
1, 20087, Note_on_c, 0, 79, 36
1, 20087, Note_off_c, 0, 80, 64
1, 20087, Note_on_c, 0, 84, 33
1, 20087, Note_on_c, 0, 86, 28
1, 20088, Note_off_c, 0, 59, 64
1, 20088, Note_on_c, 0, 72, 42
1, 20088, Note_on_c, 0, 75, 36
1, 20088, Note_on_c, 0, 78, 34
1, 20089, Note_on_c, 0, 48, 83
1, 20089, Note_off_c, 0, 54, 64
1, 20089, Note_off_c, 0, 73, 64
1, 20089, Note_off_c, 0, 77, 64
1, 20089, Note_off_c, 0, 79, 64
1, 20089, Note_off_c, 0, 84, 64
1, 20089, Note_off_c, 0, 90, 64
1, 20089, Note_off_c, 0, 91, 64
1, 20089, Note_off_c, 0, 93, 64
1, 20089, Note_off_c, 0, 96, 64
1, 20090, Note_on_c, 0, 45, 93
1, 20090, Note_off_c, 0, 48, 64
1, 20090, Note_off_c, 0, 69, 64
1, 20090, Note_on_c, 0, 74, 29
1, 20090, Note_on_c, 0, 77, 32
1, 20090, Note_off_c, 0, 78, 64
1, 20090, Note_on_c, 0, 79, 18
1, 20090, Note_off_c, 0, 83, 64
1, 20090, Note_off_c, 0, 86, 64
1, 20091, Note_on_c, 0, 42, 99
1, 20091, Note_off_c, 0, 45, 64
1, 20091, Note_off_c, 0, 75, 64
1, 20091, Note_off_c, 0, 87, 64
1, 20092, Note_on_c, 0, 40, 98
1, 20092, Note_off_c, 0, 42, 64
1, 20092, Note_off_c, 0, 72, 64
1, 20092, Note_off_c, 0, 82, 64
1, 20093, Note_on_c, 0, 38, 97
1, 20093, Note_off_c, 0, 40, 64
1, 20093, Note_off_c, 0, 74, 64
1, 20094, Note_on_c, 0, 37, 98
1, 20094, Note_off_c, 0, 38, 64
1, 20094, Note_on_c, 0, 74, 42
1, 20095, Note_on_c, 0, 35, 97
1, 20095, Note_off_c, 0, 37, 64
1, 20095, Note_on_c, 0, 75, 27
1, 20095, Note_off_c, 0, 77, 64
1, 20096, Note_on_c, 0, 34, 96
1, 20096, Note_off_c, 0, 35, 64
1, 20096, Note_off_c, 0, 79, 64
1, 20097, Note_on_c, 0, 33, 95
1, 20097, Note_off_c, 0, 34, 64
1, 20097, Note_off_c, 0, 74, 64
1, 20099, Note_on_c, 0, 32, 96
1, 20099, Note_off_c, 0, 33, 64
1, 20099, Note_on_c, 0, 49, 32
1, 20099, Note_off_c, 0, 75, 64
1, 20100, Note_on_c, 0, 31, 97
1, 20100, Note_off_c, 0, 32, 64
1, 20101, Note_on_c, 0, 74, 9
1, 20102, Note_on_c, 0, 30, 91
1, 20102, Note_off_c, 0, 31, 64
1, 20102, Note_off_c, 0, 49, 64
1, 20104, Note_off_c, 0, 74, 64
1, 20105, Note_off_c, 0, 30, 64
1, 20105, Note_on_c, 0, 43, 65
1, 20105, Note_on_c, 0, 78, 16
1, 20105, Note_on_c, 0, 80, 20
1, 20105, Note_on_c, 0, 82, 23
1, 20105, Note_on_c, 0, 84, 34
1, 20105, Note_on_c, 0, 87, 22
1, 20106, Note_on_c, 0, 61, 32
1, 20106, Note_on_c, 0, 68, 23
1, 20106, Note_on_c, 0, 91, 10
1, 20106, Note_on_c, 0, 95, 18
1, 20106, Note_on_c, 0, 97, 18
1, 20106, Note_on_c, 0, 101, 9
1, 20107, Note_on_c, 0, 30, 79
1, 20107, Note_off_c, 0, 43, 64
1, 20107, Note_on_c, 0, 75, 20
1, 20107, Note_off_c, 0, 84, 64
1, 20107, Note_on_c, 0, 85, 33
1, 20108, Note_on_c, 0, 81, 13
1, 20108, Note_off_c, 0, 82, 64
1, 20109, Note_on_c, 0, 29, 80
1, 20109, Note_off_c, 0, 30, 64
1, 20109, Note_off_c, 0, 78, 64
1, 20109, Note_off_c, 0, 80, 64
1, 20109, Note_off_c, 0, 85, 64
1, 20109, Note_off_c, 0, 91, 64
1, 20109, Note_off_c, 0, 95, 64
1, 20109, Note_off_c, 0, 97, 64
1, 20109, Note_off_c, 0, 101, 64
1, 20110, Note_off_c, 0, 61, 64
1, 20110, Note_on_c, 0, 85, 25
1, 20111, Note_off_c, 0, 29, 64
1, 20111, Note_on_c, 0, 30, 75
1, 20111, Note_off_c, 0, 68, 64
1, 20111, Note_off_c, 0, 87, 64
1, 20112, Note_on_c, 0, 74, 19
1, 20112, Note_on_c, 0, 77, 17
1, 20112, Note_off_c, 0, 81, 64
1, 20113, Note_on_c, 0, 29, 73
1, 20113, Note_off_c, 0, 30, 64
1, 20113, Note_off_c, 0, 75, 64
1, 20115, Note_off_c, 0, 29, 64
1, 20115, Note_on_c, 0, 30, 67
1, 20116, Note_on_c, 0, 81, 12
1, 20116, Note_on_c, 0, 88, 20
1, 20117, Note_off_c, 0, 30, 64
1, 20117, Note_on_c, 0, 41, 71
1, 20117, Note_on_c, 0, 63, 30
1, 20117, Note_on_c, 0, 68, 17
1, 20117, Note_off_c, 0, 74, 64
1, 20118, Note_on_c, 0, 30, 78
1, 20118, Note_off_c, 0, 41, 64
1, 20118, Note_on_c, 0, 61, 29
1, 20118, Note_on_c, 0, 74, 38
1, 20119, Note_on_c, 0, 29, 82
1, 20119, Note_off_c, 0, 30, 64
1, 20119, Note_off_c, 0, 85, 64
1, 20119, Note_off_c, 0, 88, 64
1, 20120, Note_on_c, 0, 49, 58
1, 20120, Note_off_c, 0, 77, 64
1, 20121, Note_off_c, 0, 29, 64
1, 20121, Note_on_c, 0, 30, 79
1, 20121, Note_off_c, 0, 63, 64
1, 20121, Note_off_c, 0, 81, 64
1, 20122, Note_on_c, 0, 54, 39
1, 20122, Note_off_c, 0, 68, 64
1, 20123, Note_off_c, 0, 30, 64
1, 20123, Note_off_c, 0, 61, 64
1, 20123, Note_on_c, 0, 71, 41
1, 20123, Note_on_c, 0, 76, 38
1, 20123, Note_on_c, 0, 77, 34
1, 20124, Note_off_c, 0, 49, 64
1, 20124, Note_off_c, 0, 54, 64
1, 20124, Note_on_c, 0, 82, 33
1, 20125, Note_on_c, 0, 68, 47
1, 20125, Note_on_c, 0, 70, 43
1, 20125, Note_off_c, 0, 71, 64
1, 20125, Note_off_c, 0, 74, 64
1, 20125, Note_on_c, 0, 75, 39
1, 20125, Note_off_c, 0, 76, 64
1, 20126, Note_on_c, 0, 50, 79
1, 20126, Note_off_c, 0, 77, 64
1, 20126, Note_off_c, 0, 82, 64
1, 20127, Note_on_c, 0, 45, 90
1, 20127, Note_off_c, 0, 50, 64
1, 20127, Note_off_c, 0, 68, 64
1, 20127, Note_off_c, 0, 70, 64
1, 20127, Note_off_c, 0, 75, 64
1, 20128, Note_on_c, 0, 42, 97
1, 20128, Note_off_c, 0, 45, 64
1, 20129, Note_on_c, 0, 41, 100
1, 20129, Note_off_c, 0, 42, 64
1, 20130, Note_on_c, 0, 39, 97
1, 20130, Note_off_c, 0, 41, 64
1, 20131, Note_on_c, 0, 37, 98
1, 20131, Note_off_c, 0, 39, 64
1, 20132, Note_on_c, 0, 36, 97
1, 20132, Note_off_c, 0, 37, 64
1, 20133, Note_on_c, 0, 35, 96
1, 20133, Note_off_c, 0, 36, 64
1, 20134, Note_on_c, 0, 34, 95
1, 20134, Note_off_c, 0, 35, 64
1, 20135, Note_on_c, 0, 33, 95
1, 20135, Note_off_c, 0, 34, 64
1, 20136, Note_on_c, 0, 32, 97
1, 20136, Note_off_c, 0, 33, 64
1, 20138, Note_on_c, 0, 31, 96
1, 20138, Note_off_c, 0, 32, 64
1, 20140, Note_on_c, 0, 30, 87
1, 20140, Note_off_c, 0, 31, 64
1, 20142, Note_off_c, 0, 30, 64
1, 20143, Note_on_c, 0, 73, 12
1, 20143, Note_on_c, 0, 79, 17
1, 20143, Note_on_c, 0, 82, 24
1, 20143, Note_on_c, 0, 85, 37
1, 20143, Note_on_c, 0, 92, 20
1, 20143, Note_on_c, 0, 95, 26
1, 20143, Note_on_c, 0, 96, 17
1, 20143, Note_on_c, 0, 102, 15
1, 20144, Note_on_c, 0, 37, 72
1, 20144, Note_on_c, 0, 61, 22
1, 20144, Note_on_c, 0, 76, 16
1, 20144, Note_on_c, 0, 93, 18
1, 20145, Note_on_c, 0, 31, 78
1, 20145, Note_off_c, 0, 37, 64
1, 20145, Note_on_c, 0, 49, 59
1, 20145, Note_on_c, 0, 68, 15
1, 20145, Note_on_c, 0, 78, 12
1, 20146, Note_on_c, 0, 30, 80
1, 20146, Note_off_c, 0, 31, 64
1, 20146, Note_off_c, 0, 79, 64
1, 20146, Note_off_c, 0, 85, 64
1, 20146, Note_off_c, 0, 92, 64
1, 20146, Note_off_c, 0, 96, 64
1, 20146, Note_off_c, 0, 102, 64
1, 20147, Note_on_c, 0, 29, 80
1, 20147, Note_off_c, 0, 30, 64
1, 20147, Note_on_c, 0, 63, 20
1, 20147, Note_off_c, 0, 76, 64
1, 20147, Note_on_c, 0, 81, 10
1, 20147, Note_off_c, 0, 95, 64
1, 20148, Note_off_c, 0, 29, 64
1, 20148, Note_on_c, 0, 30, 76
1, 20148, Note_off_c, 0, 73, 64
1, 20148, Note_off_c, 0, 78, 64
1, 20148, Note_off_c, 0, 82, 64
1, 20148, Note_on_c, 0, 85, 12
1, 20148, Note_off_c, 0, 93, 64
1, 20149, Note_off_c, 0, 61, 64
1, 20149, Note_off_c, 0, 68, 64
1, 20150, Note_on_c, 0, 29, 75
1, 20150, Note_off_c, 0, 30, 64
1, 20150, Note_on_c, 0, 48, 52
1, 20150, Note_off_c, 0, 49, 64
1, 20150, Note_off_c, 0, 63, 64
1, 20150, Note_on_c, 0, 75, 20
1, 20150, Note_off_c, 0, 81, 64
1, 20151, Note_off_c, 0, 85, 64
1, 20152, Note_off_c, 0, 29, 64
1, 20152, Note_on_c, 0, 30, 69
1, 20152, Note_off_c, 0, 48, 64
1, 20153, Note_off_c, 0, 30, 64
1, 20153, Note_off_c, 0, 75, 64
1, 20154, Note_on_c, 0, 43, 66
1, 20154, Note_on_c, 0, 73, 16
1, 20154, Note_on_c, 0, 85, 17
1, 20154, Note_on_c, 0, 86, 16
1, 20155, Note_on_c, 0, 32, 74
1, 20155, Note_off_c, 0, 43, 64
1, 20155, Note_on_c, 0, 68, 17
1, 20156, Note_on_c, 0, 30, 82
1, 20156, Note_off_c, 0, 32, 64
1, 20157, Note_on_c, 0, 29, 82
1, 20157, Note_off_c, 0, 30, 64
1, 20157, Note_on_c, 0, 61, 24
1, 20157, Note_off_c, 0, 85, 64
1, 20158, Note_off_c, 0, 29, 64
1, 20158, Note_on_c, 0, 30, 80
1, 20158, Note_off_c, 0, 73, 64
1, 20158, Note_on_c, 0, 79, 17
1, 20158, Note_off_c, 0, 86, 64
1, 20160, Note_off_c, 0, 30, 64
1, 20160, Note_off_c, 0, 61, 64
1, 20160, Note_off_c, 0, 68, 64
1, 20161, Note_on_c, 0, 63, 51
1, 20161, Note_on_c, 0, 73, 45
1, 20161, Note_on_c, 0, 78, 36
1, 20161, Note_off_c, 0, 79, 64
1, 20161, Note_on_c, 0, 83, 35
1, 20161, Note_on_c, 0, 84, 32
1, 20161, Note_on_c, 0, 86, 31
1, 20161, Note_on_c, 0, 88, 26
1, 20162, Note_on_c, 0, 81, 35
1, 20163, Note_on_c, 0, 51, 73
1, 20163, Note_off_c, 0, 63, 64
1, 20163, Note_off_c, 0, 78, 64
1, 20163, Note_off_c, 0, 86, 64
1, 20164, Note_on_c, 0, 48, 86
1, 20164, Note_off_c, 0, 51, 64
1, 20164, Note_off_c, 0, 73, 64
1, 20164, Note_off_c, 0, 81, 64
1, 20164, Note_off_c, 0, 83, 64
1, 20164, Note_off_c, 0, 84, 64
1, 20164, Note_off_c, 0, 88, 64
1, 20165, Note_on_c, 0, 45, 95
1, 20165, Note_off_c, 0, 48, 64
1, 20166, Note_on_c, 0, 42, 100
1, 20166, Note_off_c, 0, 45, 64
1, 20167, Note_on_c, 0, 40, 98
1, 20167, Note_off_c, 0, 42, 64
1, 20168, Note_on_c, 0, 38, 98
1, 20168, Note_off_c, 0, 40, 64
1, 20169, Note_on_c, 0, 36, 98
1, 20169, Note_off_c, 0, 38, 64
1, 20170, Note_on_c, 0, 35, 97
1, 20170, Note_off_c, 0, 36, 64
1, 20171, Note_on_c, 0, 34, 96
1, 20171, Note_off_c, 0, 35, 64
1, 20171, Note_on_c, 0, 84, 28
1, 20171, Note_on_c, 0, 97, 19
1, 20171, Note_on_c, 0, 101, 19
1, 20172, Note_on_c, 0, 33, 96
1, 20172, Note_off_c, 0, 34, 64
1, 20174, Note_on_c, 0, 32, 97
1, 20174, Note_off_c, 0, 33, 64
1, 20174, Note_off_c, 0, 97, 64
1, 20174, Note_off_c, 0, 101, 64
1, 20175, Note_on_c, 0, 31, 97
1, 20175, Note_off_c, 0, 32, 64
1, 20175, Note_off_c, 0, 84, 64
1, 20176, Note_on_c, 0, 48, 28
1, 20177, Note_on_c, 0, 30, 90
1, 20177, Note_off_c, 0, 31, 64
1, 20179, Note_off_c, 0, 48, 64
1, 20180, Note_off_c, 0, 30, 64
1, 20180, Note_on_c, 0, 68, 34
1, 20181, Note_on_c, 0, 41, 66
1, 20181, Note_on_c, 0, 61, 50
1, 20181, Note_on_c, 0, 86, 9
1, 20182, Note_on_c, 0, 31, 72
1, 20182, Note_off_c, 0, 41, 64
1, 20182, Note_on_c, 0, 77, 15
1, 20183, Note_on_c, 0, 30, 79
1, 20183, Note_off_c, 0, 31, 64
1, 20183, Note_off_c, 0, 68, 64
1, 20183, Note_on_c, 0, 70, 14
1, 20184, Note_on_c, 0, 29, 80
1, 20184, Note_off_c, 0, 30, 64
1, 20184, Note_off_c, 0, 86, 64
1, 20185, Note_off_c, 0, 29, 64
1, 20185, Note_on_c, 0, 30, 79
1, 20185, Note_off_c, 0, 61, 64
1, 20187, Note_on_c, 0, 63, 17
1, 20187, Note_off_c, 0, 70, 64
1, 20188, Note_on_c, 0, 29, 72
1, 20188, Note_off_c, 0, 30, 64
1, 20188, Note_off_c, 0, 77, 64
1, 20190, Note_off_c, 0, 29, 64
1, 20190, Note_on_c, 0, 30, 66
1, 20190, Note_on_c, 0, 49, 58
1, 20191, Note_off_c, 0, 63, 64
1, 20191, Note_on_c, 0, 64, 29
1, 20191, Note_on_c, 0, 70, 18
1, 20191, Note_on_c, 0, 80, 21
1, 20191, Note_on_c, 0, 84, 13
1, 20191, Note_on_c, 0, 90, 12
1, 20192, Note_off_c, 0, 30, 64
1, 20192, Note_on_c, 0, 41, 71
1, 20192, Note_off_c, 0, 49, 64
1, 20192, Note_on_c, 0, 61, 34
1, 20192, Note_on_c, 0, 66, 24
1, 20192, Note_on_c, 0, 68, 20
1, 20193, Note_on_c, 0, 30, 77
1, 20193, Note_off_c, 0, 41, 64
1, 20193, Note_on_c, 0, 49, 62
1, 20194, Note_on_c, 0, 29, 81
1, 20194, Note_off_c, 0, 30, 64
1, 20194, Note_off_c, 0, 61, 64
1, 20194, Note_off_c, 0, 80, 64
1, 20194, Note_on_c, 0, 81, 15
1, 20194, Note_off_c, 0, 90, 64
1, 20195, Note_on_c, 0, 63, 40
1, 20195, Note_off_c, 0, 64, 64
1, 20195, Note_off_c, 0, 84, 64
1, 20196, Note_off_c, 0, 29, 64
1, 20196, Note_on_c, 0, 30, 77
1, 20196, Note_off_c, 0, 49, 64
1, 20196, Note_off_c, 0, 66, 64
1, 20196, Note_off_c, 0, 68, 64
1, 20196, Note_off_c, 0, 70, 64
1, 20197, Note_off_c, 0, 30, 64
1, 20197, Note_on_c, 0, 31, 69
1, 20197, Note_on_c, 0, 54, 67
1, 20197, Note_off_c, 0, 81, 64
1, 20197, Note_on_c, 0, 82, 34
1, 20198, Note_off_c, 0, 31, 64
1, 20198, Note_on_c, 0, 48, 46
1, 20198, Note_on_c, 0, 71, 37
1, 20198, Note_on_c, 0, 76, 38
1, 20198, Note_on_c, 0, 78, 39
1, 20198, Note_on_c, 0, 86, 34
1, 20198, Note_on_c, 0, 91, 27
1, 20198, Note_on_c, 0, 96, 30
1, 20198, Note_on_c, 0, 97, 35
1, 20198, Note_on_c, 0, 100, 31
1, 20198, Note_on_c, 0, 101, 33
1, 20199, Note_on_c, 0, 69, 40
1, 20199, Note_on_c, 0, 73, 39
1, 20199, Note_on_c, 0, 99, 17
1, 20200, Note_off_c, 0, 48, 64
1, 20200, Note_off_c, 0, 63, 64
1, 20200, Note_off_c, 0, 71, 64
1, 20200, Note_off_c, 0, 76, 64
1, 20200, Note_off_c, 0, 78, 64
1, 20201, Note_on_c, 0, 49, 80
1, 20201, Note_off_c, 0, 54, 64
1, 20201, Note_off_c, 0, 82, 64
1, 20201, Note_off_c, 0, 91, 64
1, 20201, Note_off_c, 0, 96, 64
1, 20201, Note_off_c, 0, 100, 64
1, 20202, Note_on_c, 0, 45, 91
1, 20202, Note_off_c, 0, 49, 64
1, 20202, Note_off_c, 0, 69, 64
1, 20202, Note_off_c, 0, 73, 64
1, 20202, Note_off_c, 0, 86, 64
1, 20202, Note_off_c, 0, 97, 64
1, 20202, Note_off_c, 0, 99, 64
1, 20202, Note_off_c, 0, 101, 64
1, 20203, Note_on_c, 0, 42, 97
1, 20203, Note_off_c, 0, 45, 64
1, 20204, Note_on_c, 0, 41, 99
1, 20204, Note_off_c, 0, 42, 64
1, 20205, Note_on_c, 0, 38, 98
1, 20205, Note_off_c, 0, 41, 64
1, 20206, Note_on_c, 0, 37, 98
1, 20206, Note_off_c, 0, 38, 64
1, 20207, Note_on_c, 0, 36, 97
1, 20207, Note_off_c, 0, 37, 64
1, 20208, Note_on_c, 0, 35, 96
1, 20208, Note_off_c, 0, 36, 64
1, 20209, Note_on_c, 0, 34, 96
1, 20209, Note_off_c, 0, 35, 64
1, 20210, Note_on_c, 0, 33, 95
1, 20210, Note_off_c, 0, 34, 64
1, 20210, Note_on_c, 0, 57, 11
1, 20211, Note_on_c, 0, 32, 97
1, 20211, Note_off_c, 0, 33, 64
1, 20211, Note_on_c, 0, 49, 30
1, 20213, Note_on_c, 0, 31, 96
1, 20213, Note_off_c, 0, 32, 64
1, 20213, Note_off_c, 0, 49, 64
1, 20213, Note_off_c, 0, 57, 64
1, 20214, Note_on_c, 0, 30, 93
1, 20214, Note_off_c, 0, 31, 64
1, 20217, Note_off_c, 0, 30, 64
1, 20218, Note_on_c, 0, 68, 22
1, 20218, Note_on_c, 0, 83, 10
1, 20219, Note_on_c, 0, 37, 71
1, 20219, Note_on_c, 0, 54, 51
1, 20219, Note_on_c, 0, 64, 31
1, 20219, Note_on_c, 0, 70, 18
1, 20220, Note_on_c, 0, 31, 77
1, 20220, Note_off_c, 0, 37, 64
1, 20221, Note_on_c, 0, 30, 79
1, 20221, Note_off_c, 0, 31, 64
1, 20221, Note_on_c, 0, 61, 22
1, 20221, Note_off_c, 0, 83, 64
1, 20222, Note_on_c, 0, 29, 79
1, 20222, Note_off_c, 0, 30, 64
1, 20222, Note_off_c, 0, 54, 64
1, 20222, Note_on_c, 0, 63, 15
1, 20222, Note_off_c, 0, 64, 64
1, 20222, Note_off_c, 0, 70, 64
1, 20223, Note_off_c, 0, 29, 64
1, 20223, Note_on_c, 0, 30, 77
1, 20223, Note_on_c, 0, 66, 9
1, 20224, Note_off_c, 0, 61, 64
1, 20225, Note_on_c, 0, 29, 75
1, 20225, Note_off_c, 0, 30, 64
1, 20225, Note_off_c, 0, 63, 64
1, 20225, Note_off_c, 0, 68, 64
1, 20226, Note_off_c, 0, 66, 64
1, 20227, Note_off_c, 0, 29, 64
1, 20227, Note_on_c, 0, 30, 69
1, 20228, Note_on_c, 0, 80, 20
1, 20228, Note_on_c, 0, 85, 19
1, 20229, Note_off_c, 0, 30, 64
1, 20229, Note_on_c, 0, 42, 67
1, 20229, Note_on_c, 0, 76, 17
1, 20229, Note_on_c, 0, 79, 16
1, 20230, Note_on_c, 0, 31, 74
1, 20230, Note_off_c, 0, 42, 64
1, 20230, Note_on_c, 0, 68, 19
1, 20230, Note_on_c, 0, 70, 16
1, 20231, Note_on_c, 0, 29, 82
1, 20231, Note_off_c, 0, 31, 64
1, 20231, Note_off_c, 0, 80, 64
1, 20232, Note_on_c, 0, 61, 34
1, 20232, Note_off_c, 0, 79, 64
1, 20233, Note_off_c, 0, 29, 64
1, 20233, Note_on_c, 0, 30, 79
1, 20233, Note_off_c, 0, 70, 64
1, 20233, Note_off_c, 0, 85, 64
1, 20234, Note_on_c, 0, 54, 44
1, 20234, Note_off_c, 0, 76, 64
1, 20235, Note_off_c, 0, 30, 64
1, 20235, Note_off_c, 0, 61, 64
1, 20235, Note_off_c, 0, 68, 64
1, 20236, Note_on_c, 0, 77, 37
1, 20236, Note_on_c, 0, 79, 35
1, 20236, Note_on_c, 0, 82, 34
1, 20236, Note_on_c, 0, 85, 29
1, 20236, Note_on_c, 0, 87, 30
1, 20236, Note_on_c, 0, 88, 28
1, 20237, Note_off_c, 0, 54, 64
1, 20237, Note_on_c, 0, 70, 42
1, 20237, Note_on_c, 0, 75, 39
1, 20237, Note_on_c, 0, 81, 34
1, 20238, Note_on_c, 0, 50, 75
1, 20239, Note_on_c, 0, 48, 86
1, 20239, Note_off_c, 0, 50, 64
1, 20239, Note_off_c, 0, 70, 64
1, 20239, Note_off_c, 0, 75, 64
1, 20239, Note_off_c, 0, 77, 64
1, 20239, Note_off_c, 0, 79, 64
1, 20239, Note_off_c, 0, 81, 64
1, 20239, Note_off_c, 0, 82, 64
1, 20239, Note_off_c, 0, 85, 64
1, 20239, Note_off_c, 0, 87, 64
1, 20239, Note_off_c, 0, 88, 64
1, 20240, Note_on_c, 0, 44, 94
1, 20240, Note_off_c, 0, 48, 64
1, 20241, Note_on_c, 0, 41, 100
1, 20241, Note_off_c, 0, 44, 64
1, 20242, Note_on_c, 0, 40, 97
1, 20242, Note_off_c, 0, 41, 64
1, 20243, Note_on_c, 0, 38, 98
1, 20243, Note_off_c, 0, 40, 64
1, 20244, Note_on_c, 0, 36, 98
1, 20244, Note_off_c, 0, 38, 64
1, 20245, Note_on_c, 0, 35, 96
1, 20245, Note_off_c, 0, 36, 64
1, 20246, Note_on_c, 0, 34, 96
1, 20246, Note_off_c, 0, 35, 64
1, 20247, Note_on_c, 0, 33, 95
1, 20247, Note_off_c, 0, 34, 64
1, 20249, Note_on_c, 0, 32, 96
1, 20249, Note_off_c, 0, 33, 64
1, 20250, Note_on_c, 0, 31, 96
1, 20250, Note_off_c, 0, 32, 64
1, 20252, Note_on_c, 0, 30, 89
1, 20252, Note_off_c, 0, 31, 64
1, 20253, Note_on_c, 0, 58, 27
1, 20255, Note_off_c, 0, 30, 64
1, 20255, Note_on_c, 0, 73, 11
1, 20255, Note_on_c, 0, 81, 25
1, 20255, Note_on_c, 0, 85, 35
1, 20255, Note_on_c, 0, 86, 21
1, 20255, Note_on_c, 0, 87, 25
1, 20255, Note_on_c, 0, 100, 19
1, 20256, Note_on_c, 0, 37, 70
1, 20256, Note_off_c, 0, 58, 64
1, 20256, Note_on_c, 0, 78, 16
1, 20257, Note_on_c, 0, 31, 74
1, 20257, Note_off_c, 0, 37, 64
1, 20257, Note_on_c, 0, 66, 19
1, 20257, Note_on_c, 0, 80, 14
1, 20258, Note_on_c, 0, 30, 78
1, 20258, Note_off_c, 0, 31, 64
1, 20258, Note_on_c, 0, 49, 55
1, 20258, Note_on_c, 0, 71, 16
1, 20258, Note_off_c, 0, 73, 64
1, 20258, Note_on_c, 0, 74, 10
1, 20258, Note_off_c, 0, 81, 64
1, 20258, Note_off_c, 0, 86, 64
1, 20258, Note_off_c, 0, 87, 64
1, 20259, Note_on_c, 0, 29, 78
1, 20259, Note_off_c, 0, 30, 64
1, 20259, Note_off_c, 0, 85, 64
1, 20259, Note_off_c, 0, 100, 64
1, 20260, Note_off_c, 0, 29, 64
1, 20260, Note_on_c, 0, 30, 75
1, 20260, Note_off_c, 0, 49, 64
1, 20260, Note_off_c, 0, 80, 64
1, 20261, Note_off_c, 0, 74, 64
1, 20261, Note_off_c, 0, 78, 64
1, 20262, Note_on_c, 0, 29, 73
1, 20262, Note_off_c, 0, 30, 64
1, 20262, Note_off_c, 0, 66, 64
1, 20262, Note_off_c, 0, 71, 64
1, 20265, Note_off_c, 0, 29, 64
1, 20265, Note_on_c, 0, 59, 31
1, 20266, Note_on_c, 0, 64, 35
1, 20266, Note_on_c, 0, 66, 24
1, 20266, Note_on_c, 0, 80, 26
1, 20266, Note_on_c, 0, 84, 12
1, 20267, Note_on_c, 0, 36, 73
1, 20267, Note_off_c, 0, 59, 64
1, 20267, Note_on_c, 0, 61, 30
1, 20267, Note_on_c, 0, 68, 25
1, 20268, Note_on_c, 0, 30, 80
1, 20268, Note_off_c, 0, 36, 64
1, 20268, Note_on_c, 0, 49, 59
1, 20269, Note_on_c, 0, 29, 82
1, 20269, Note_off_c, 0, 30, 64
1, 20269, Note_off_c, 0, 61, 64
1, 20270, Note_off_c, 0, 64, 64
1, 20270, Note_off_c, 0, 66, 64
1, 20270, Note_off_c, 0, 84, 64
1, 20271, Note_off_c, 0, 29, 64
1, 20271, Note_on_c, 0, 30, 77
1, 20271, Note_off_c, 0, 49, 64
1, 20271, Note_on_c, 0, 64, 30
1, 20272, Note_off_c, 0, 30, 64
1, 20272, Note_on_c, 0, 31, 68
1, 20272, Note_off_c, 0, 68, 64
1, 20273, Note_on_c, 0, 48, 46
1, 20273, Note_on_c, 0, 54, 39
1, 20273, Note_on_c, 0, 73, 40
1, 20273, Note_on_c, 0, 78, 40
1, 20273, Note_on_c, 0, 82, 34
1, 20273, Note_on_c, 0, 83, 33
1, 20273, Note_on_c, 0, 86, 31
1, 20273, Note_on_c, 0, 88, 25
1, 20273, Note_on_c, 0, 89, 28
1, 20273, Note_on_c, 0, 92, 27
1, 20274, Note_off_c, 0, 31, 64
1, 20274, Note_off_c, 0, 64, 64
1, 20274, Note_off_c, 0, 80, 64
1, 20275, Note_off_c, 0, 48, 64
1, 20275, Note_off_c, 0, 54, 64
1, 20275, Note_on_c, 0, 55, 66
1, 20275, Note_on_c, 0, 74, 32
1, 20276, Note_on_c, 0, 48, 81
1, 20276, Note_off_c, 0, 55, 64
1, 20276, Note_on_c, 0, 64, 28
1, 20276, Note_off_c, 0, 83, 64
1, 20276, Note_off_c, 0, 86, 64
1, 20276, Note_off_c, 0, 88, 64
1, 20276, Note_off_c, 0, 89, 64
1, 20276, Note_off_c, 0, 92, 64
1, 20277, Note_on_c, 0, 45, 92
1, 20277, Note_off_c, 0, 48, 64
1, 20277, Note_off_c, 0, 73, 64
1, 20277, Note_off_c, 0, 74, 64
1, 20277, Note_off_c, 0, 82, 64
1, 20278, Note_on_c, 0, 42, 98
1, 20278, Note_off_c, 0, 45, 64
1, 20279, Note_on_c, 0, 41, 99
1, 20279, Note_off_c, 0, 42, 64
1, 20280, Note_on_c, 0, 38, 98
1, 20280, Note_off_c, 0, 41, 64
1, 20280, Note_off_c, 0, 64, 64
1, 20281, Note_on_c, 0, 37, 98
1, 20281, Note_off_c, 0, 38, 64
1, 20282, Note_on_c, 0, 36, 97
1, 20282, Note_off_c, 0, 37, 64
1, 20283, Note_on_c, 0, 34, 97
1, 20283, Note_off_c, 0, 36, 64
1, 20283, Note_off_c, 0, 78, 64
1, 20285, Note_on_c, 0, 33, 95
1, 20285, Note_off_c, 0, 34, 64
1, 20285, Note_on_c, 0, 48, 35
1, 20286, Note_on_c, 0, 32, 96
1, 20286, Note_off_c, 0, 33, 64
1, 20287, Note_off_c, 0, 48, 64
1, 20287, Note_on_c, 0, 49, 30
1, 20288, Note_on_c, 0, 31, 95
1, 20288, Note_off_c, 0, 32, 64
1, 20289, Note_on_c, 0, 30, 91
1, 20289, Note_off_c, 0, 31, 64
1, 20289, Note_off_c, 0, 49, 64
1, 20290, Note_on_c, 0, 64, 43
1, 20292, Note_off_c, 0, 30, 64
1, 20292, Note_on_c, 0, 88, 29
1, 20292, Note_on_c, 0, 91, 26
1, 20293, Note_on_c, 0, 82, 18
1, 20293, Note_on_c, 0, 87, 28
1, 20293, Note_on_c, 0, 92, 23
1, 20293, Note_on_c, 0, 95, 24
1, 20293, Note_on_c, 0, 96, 21
1, 20293, Note_on_c, 0, 97, 12
1, 20293, Note_on_c, 0, 101, 13
1, 20294, Note_on_c, 0, 36, 69
1, 20294, Note_on_c, 0, 54, 58
1, 20294, Note_on_c, 0, 80, 16
1, 20294, Note_on_c, 0, 85, 26
1, 20295, Note_on_c, 0, 30, 80
1, 20295, Note_off_c, 0, 36, 64
1, 20295, Note_off_c, 0, 88, 64
1, 20296, Note_on_c, 0, 71, 18
1, 20296, Note_off_c, 0, 82, 64
1, 20296, Note_off_c, 0, 87, 64
1, 20296, Note_off_c, 0, 92, 64
1, 20296, Note_off_c, 0, 95, 64
1, 20296, Note_off_c, 0, 97, 64
1, 20296, Note_off_c, 0, 101, 64
1, 20297, Note_on_c, 0, 49, 56
1, 20297, Note_off_c, 0, 54, 64
1, 20297, Note_off_c, 0, 80, 64
1, 20297, Note_off_c, 0, 91, 64
1, 20297, Note_off_c, 0, 96, 64
1, 20299, Note_off_c, 0, 71, 64
1, 20300, Note_on_c, 0, 29, 75
1, 20300, Note_off_c, 0, 30, 64
1, 20300, Note_off_c, 0, 49, 64
1, 20300, Note_on_c, 0, 54, 43
1, 20302, Note_off_c, 0, 29, 64
1, 20302, Note_on_c, 0, 30, 66
1, 20302, Note_on_c, 0, 48, 50
1, 20302, Note_off_c, 0, 85, 64
1, 20303, Note_off_c, 0, 30, 64
1, 20303, Note_off_c, 0, 54, 64
1, 20303, Note_on_c, 0, 55, 51
1, 20303, Note_on_c, 0, 71, 23
1, 20303, Note_on_c, 0, 79, 20
1, 20304, Note_on_c, 0, 42, 69
1, 20304, Note_off_c, 0, 48, 64
1, 20304, Note_off_c, 0, 64, 64
1, 20304, Note_on_c, 0, 85, 19
1, 20304, Note_on_c, 0, 87, 16
1, 20305, Note_on_c, 0, 31, 76
1, 20305, Note_off_c, 0, 42, 64
1, 20305, Note_off_c, 0, 55, 64
1, 20305, Note_on_c, 0, 64, 29
1, 20305, Note_on_c, 0, 68, 24
1, 20305, Note_on_c, 0, 70, 21
1, 20305, Note_on_c, 0, 78, 37
1, 20306, Note_on_c, 0, 30, 83
1, 20306, Note_off_c, 0, 31, 64
1, 20306, Note_off_c, 0, 71, 64
1, 20306, Note_off_c, 0, 79, 64
1, 20307, Note_on_c, 0, 29, 83
1, 20307, Note_off_c, 0, 30, 64
1, 20307, Note_on_c, 0, 76, 31
1, 20307, Note_off_c, 0, 85, 64
1, 20308, Note_on_c, 0, 63, 37
1, 20308, Note_off_c, 0, 64, 64
1, 20308, Note_off_c, 0, 70, 64
1, 20308, Note_off_c, 0, 87, 64
1, 20309, Note_off_c, 0, 29, 64
1, 20309, Note_on_c, 0, 30, 75
1, 20309, Note_on_c, 0, 77, 37
1, 20310, Note_off_c, 0, 30, 64
1, 20310, Note_on_c, 0, 86, 31
1, 20311, Note_on_c, 0, 54, 62
1, 20311, Note_off_c, 0, 68, 64
1, 20311, Note_on_c, 0, 73, 36
1, 20311, Note_on_c, 0, 81, 31
1, 20311, Note_on_c, 0, 84, 30
1, 20311, Note_on_c, 0, 87, 22
1, 20312, Note_on_c, 0, 19, 44
1, 20312, Note_off_c, 0, 63, 64
1, 20312, Note_on_c, 0, 69, 45
1, 20312, Note_on_c, 0, 74, 40
1, 20312, Note_off_c, 0, 76, 64
1, 20313, Note_on_c, 0, 51, 77
1, 20313, Note_off_c, 0, 54, 64
1, 20314, Note_off_c, 0, 19, 64
1, 20314, Note_on_c, 0, 46, 87
1, 20314, Note_off_c, 0, 51, 64
1, 20314, Note_off_c, 0, 69, 64
1, 20314, Note_off_c, 0, 73, 64
1, 20314, Note_off_c, 0, 77, 64
1, 20314, Note_off_c, 0, 78, 64
1, 20314, Note_off_c, 0, 84, 64
1, 20314, Note_off_c, 0, 86, 64
1, 20314, Note_off_c, 0, 87, 64
1, 20315, Note_on_c, 0, 44, 95
1, 20315, Note_off_c, 0, 46, 64
1, 20315, Note_off_c, 0, 81, 64
1, 20316, Note_on_c, 0, 41, 100
1, 20316, Note_off_c, 0, 44, 64
1, 20317, Note_on_c, 0, 39, 96
1, 20317, Note_off_c, 0, 41, 64
1, 20318, Note_on_c, 0, 38, 98
1, 20318, Note_off_c, 0, 39, 64
1, 20319, Note_on_c, 0, 36, 97
1, 20319, Note_off_c, 0, 38, 64
1, 20319, Note_on_c, 0, 63, 19
1, 20319, Note_on_c, 0, 66, 22
1, 20320, Note_on_c, 0, 35, 96
1, 20320, Note_off_c, 0, 36, 64
1, 20321, Note_on_c, 0, 34, 95
1, 20321, Note_off_c, 0, 35, 64
1, 20321, Note_off_c, 0, 74, 64
1, 20321, Note_on_c, 0, 84, 31
1, 20321, Note_on_c, 0, 97, 20
1, 20321, Note_on_c, 0, 101, 18
1, 20322, Note_on_c, 0, 33, 95
1, 20322, Note_off_c, 0, 34, 64
1, 20323, Note_off_c, 0, 63, 64
1, 20323, Note_on_c, 0, 64, 22
1, 20323, Note_on_c, 0, 81, 13
1, 20324, Note_on_c, 0, 32, 96
1, 20324, Note_off_c, 0, 33, 64
1, 20324, Note_off_c, 0, 97, 64
1, 20324, Note_off_c, 0, 101, 64
1, 20325, Note_on_c, 0, 31, 96
1, 20325, Note_off_c, 0, 32, 64
1, 20325, Note_off_c, 0, 66, 64
1, 20325, Note_off_c, 0, 84, 64
1, 20326, Note_on_c, 0, 66, 17
1, 20327, Note_on_c, 0, 30, 89
1, 20327, Note_off_c, 0, 31, 64
1, 20327, Note_off_c, 0, 64, 64
1, 20327, Note_on_c, 0, 73, 15
1, 20328, Note_on_c, 0, 64, 25
1, 20329, Note_off_c, 0, 66, 64
1, 20329, Note_off_c, 0, 81, 64
1, 20330, Note_off_c, 0, 30, 64
1, 20330, Note_on_c, 0, 70, 13
1, 20330, Note_on_c, 0, 79, 17
1, 20330, Note_on_c, 0, 87, 18
1, 20331, Note_on_c, 0, 41, 68
1, 20331, Note_off_c, 0, 73, 64
1, 20331, Note_on_c, 0, 74, 25
1, 20332, Note_on_c, 0, 31, 69
1, 20332, Note_on_c, 0, 54, 50
1, 20332, Note_on_c, 0, 61, 35
1, 20333, Note_on_c, 0, 30, 76
1, 20333, Note_off_c, 0, 31, 64
1, 20333, Note_off_c, 0, 41, 64
1, 20333, Note_off_c, 0, 64, 64
1, 20334, Note_on_c, 0, 29, 76
1, 20334, Note_off_c, 0, 30, 64
1, 20334, Note_on_c, 0, 49, 58
1, 20334, Note_off_c, 0, 54, 64
1, 20335, Note_off_c, 0, 87, 64
1, 20336, Note_off_c, 0, 29, 64
1, 20336, Note_on_c, 0, 30, 75
1, 20336, Note_off_c, 0, 70, 64
1, 20336, Note_off_c, 0, 79, 64
1, 20337, Note_off_c, 0, 49, 64
1, 20338, Note_on_c, 0, 29, 73
1, 20338, Note_off_c, 0, 30, 64
1, 20338, Note_on_c, 0, 49, 42
1, 20338, Note_on_c, 0, 76, 14
1, 20339, Note_off_c, 0, 61, 64
1, 20340, Note_off_c, 0, 29, 64
1, 20340, Note_off_c, 0, 49, 64
1, 20340, Note_off_c, 0, 74, 64
1, 20341, Note_on_c, 0, 71, 28
1, 20341, Note_on_c, 0, 73, 24
1, 20341, Note_off_c, 0, 76, 64
1, 20341, Note_on_c, 0, 82, 31
1, 20341, Note_on_c, 0, 86, 19
1, 20342, Note_on_c, 0, 41, 72
1, 20342, Note_on_c, 0, 54, 60
1, 20342, Note_on_c, 0, 61, 31
1, 20342, Note_on_c, 0, 68, 25
1, 20342, Note_on_c, 0, 81, 21
1, 20343, Note_on_c, 0, 30, 79
1, 20343, Note_off_c, 0, 41, 64
1, 20344, Note_on_c, 0, 29, 81
1, 20344, Note_off_c, 0, 30, 64
1, 20344, Note_off_c, 0, 86, 64
1, 20345, Note_off_c, 0, 54, 64
1, 20345, Note_off_c, 0, 61, 64
1, 20345, Note_off_c, 0, 73, 64
1, 20345, Note_off_c, 0, 81, 64
1, 20346, Note_off_c, 0, 29, 64
1, 20346, Note_on_c, 0, 30, 73
1, 20346, Note_on_c, 0, 54, 51
1, 20346, Note_on_c, 0, 70, 47
1, 20346, Note_on_c, 0, 76, 29
1, 20347, Note_off_c, 0, 30, 64
1, 20347, Note_on_c, 0, 67, 46
1, 20347, Note_off_c, 0, 68, 64
1, 20347, Note_on_c, 0, 77, 38
1, 20348, Note_off_c, 0, 54, 64
1, 20348, Note_on_c, 0, 55, 39
1, 20348, Note_on_c, 0, 64, 52
1, 20348, Note_off_c, 0, 71, 64
1, 20348, Note_on_c, 0, 83, 33
1, 20348, Note_on_c, 0, 85, 36
1, 20348, Note_on_c, 0, 86, 35
1, 20348, Note_on_c, 0, 92, 27
1, 20348, Note_on_c, 0, 93, 26
1, 20348, Note_on_c, 0, 96, 32
1, 20348, Note_on_c, 0, 99, 19
1, 20348, Note_on_c, 0, 100, 26
1, 20348, Note_on_c, 0, 101, 32
1, 20349, Note_on_c, 0, 49, 83
1, 20349, Note_off_c, 0, 76, 64
1, 20349, Note_on_c, 0, 81, 34
1, 20350, Note_off_c, 0, 55, 64
1, 20350, Note_off_c, 0, 67, 64
1, 20350, Note_on_c, 0, 74, 35
1, 20350, Note_off_c, 0, 77, 64
1, 20350, Note_off_c, 0, 83, 64
1, 20351, Note_off_c, 0, 64, 64
1, 20351, Note_off_c, 0, 81, 64
1, 20351, Note_off_c, 0, 96, 64
1, 20352, Note_on_c, 0, 45, 94
1, 20352, Note_off_c, 0, 49, 64
1, 20352, Note_off_c, 0, 70, 64
1, 20352, Note_off_c, 0, 74, 64
1, 20352, Note_off_c, 0, 82, 64
1, 20352, Note_off_c, 0, 85, 64
1, 20352, Note_off_c, 0, 86, 64
1, 20352, Note_off_c, 0, 92, 64
1, 20352, Note_off_c, 0, 93, 64
1, 20352, Note_off_c, 0, 99, 64
1, 20352, Note_off_c, 0, 100, 64
1, 20352, Note_off_c, 0, 101, 64
1, 20353, Note_on_c, 0, 42, 99
1, 20353, Note_off_c, 0, 45, 64
1, 20354, Note_on_c, 0, 40, 98
1, 20354, Note_off_c, 0, 42, 64
1, 20355, Note_on_c, 0, 38, 98
1, 20355, Note_off_c, 0, 40, 64
1, 20356, Note_on_c, 0, 37, 98
1, 20356, Note_off_c, 0, 38, 64
1, 20357, Note_on_c, 0, 35, 97
1, 20357, Note_off_c, 0, 37, 64
1, 20358, Note_on_c, 0, 34, 96
1, 20358, Note_off_c, 0, 35, 64
1, 20359, Note_on_c, 0, 33, 95
1, 20359, Note_off_c, 0, 34, 64
1, 20361, Note_on_c, 0, 32, 97
1, 20361, Note_off_c, 0, 33, 64
1, 20363, Note_on_c, 0, 31, 96
1, 20363, Note_off_c, 0, 32, 64
1, 20364, Note_on_c, 0, 30, 92
1, 20364, Note_off_c, 0, 31, 64
1, 20367, Note_off_c, 0, 30, 64
1, 20368, Note_on_c, 0, 70, 20
1, 20369, Note_on_c, 0, 31, 71
1, 20369, Note_on_c, 0, 61, 30
1, 20369, Note_on_c, 0, 68, 16
1, 20370, Note_on_c, 0, 30, 79
1, 20370, Note_off_c, 0, 31, 64
1, 20371, Note_on_c, 0, 29, 81
1, 20371, Note_off_c, 0, 30, 64
1, 20373, Note_off_c, 0, 29, 64
1, 20373, Note_on_c, 0, 30, 77
1, 20373, Note_off_c, 0, 68, 64
1, 20373, Note_off_c, 0, 70, 64
1, 20374, Note_off_c, 0, 61, 64
1, 20375, Note_on_c, 0, 29, 74
1, 20375, Note_off_c, 0, 30, 64
1, 20377, Note_off_c, 0, 29, 64
1, 20377, Note_on_c, 0, 30, 67
1, 20378, Note_on_c, 0, 81, 21
1, 20379, Note_off_c, 0, 30, 64
1, 20379, Note_on_c, 0, 42, 70
1, 20379, Note_on_c, 0, 61, 31
1, 20379, Note_on_c, 0, 68, 18
1, 20380, Note_on_c, 0, 30, 81
1, 20380, Note_off_c, 0, 42, 64
1, 20380, Note_on_c, 0, 64, 29
1, 20381, Note_on_c, 0, 70, 10
1, 20381, Note_off_c, 0, 81, 64
1, 20382, Note_on_c, 0, 29, 81
1, 20382, Note_off_c, 0, 30, 64
1, 20382, Note_on_c, 0, 49, 59
1, 20382, Note_off_c, 0, 61, 64
1, 20382, Note_on_c, 0, 63, 36
1, 20382, Note_off_c, 0, 64, 64
1, 20383, Note_off_c, 0, 29, 64
1, 20383, Note_on_c, 0, 30, 78
1, 20384, Note_off_c, 0, 49, 64
1, 20384, Note_on_c, 0, 54, 62
1, 20384, Note_off_c, 0, 68, 64
1, 20384, Note_off_c, 0, 70, 64
1, 20385, Note_off_c, 0, 30, 64
1, 20386, Note_on_c, 0, 70, 43
1, 20386, Note_on_c, 0, 81, 33
1, 20386, Note_on_c, 0, 88, 29
1, 20387, Note_off_c, 0, 63, 64
1, 20387, Note_on_c, 0, 72, 40
1, 20387, Note_on_c, 0, 76, 34
1, 20387, Note_on_c, 0, 78, 34
1, 20388, Note_on_c, 0, 50, 78
1, 20388, Note_off_c, 0, 54, 64
1, 20388, Note_off_c, 0, 81, 64
1, 20388, Note_off_c, 0, 88, 64
1, 20389, Note_on_c, 0, 46, 89
1, 20389, Note_off_c, 0, 50, 64
1, 20389, Note_off_c, 0, 70, 64
1, 20389, Note_off_c, 0, 72, 64
1, 20389, Note_off_c, 0, 76, 64
1, 20389, Note_off_c, 0, 78, 64
1, 20390, Note_on_c, 0, 43, 95
1, 20390, Note_off_c, 0, 46, 64
1, 20391, Note_on_c, 0, 41, 100
1, 20391, Note_off_c, 0, 43, 64
1, 20392, Note_on_c, 0, 39, 97
1, 20392, Note_off_c, 0, 41, 64
1, 20393, Note_on_c, 0, 37, 98
1, 20393, Note_off_c, 0, 39, 64
1, 20394, Note_on_c, 0, 36, 98
1, 20394, Note_off_c, 0, 37, 64
1, 20395, Note_on_c, 0, 35, 97
1, 20395, Note_off_c, 0, 36, 64
1, 20396, Note_on_c, 0, 34, 96
1, 20396, Note_off_c, 0, 35, 64
1, 20397, Note_on_c, 0, 33, 96
1, 20397, Note_off_c, 0, 34, 64
1, 20399, Note_on_c, 0, 32, 97
1, 20399, Note_off_c, 0, 33, 64
1, 20400, Note_on_c, 0, 31, 96
1, 20400, Note_off_c, 0, 32, 64
1, 20402, Note_on_c, 0, 30, 88
1, 20402, Note_off_c, 0, 31, 64
1, 20405, Note_off_c, 0, 30, 64
1, 20405, Note_on_c, 0, 83, 14
1, 20405, Note_on_c, 0, 87, 11
1, 20405, Note_on_c, 0, 97, 17
1, 20405, Note_on_c, 0, 100, 13
1, 20406, Note_on_c, 0, 37, 71
1, 20406, Note_on_c, 0, 61, 26
1, 20406, Note_on_c, 0, 68, 12
1, 20406, Note_on_c, 0, 80, 13
1, 20406, Note_on_c, 0, 85, 36
1, 20407, Note_on_c, 0, 30, 79
1, 20407, Note_off_c, 0, 37, 64
1, 20408, Note_off_c, 0, 83, 64
1, 20408, Note_off_c, 0, 97, 64
1, 20408, Note_off_c, 0, 100, 64
1, 20409, Note_on_c, 0, 29, 79
1, 20409, Note_off_c, 0, 30, 64
1, 20409, Note_on_c, 0, 49, 57
1, 20409, Note_off_c, 0, 61, 64
1, 20409, Note_on_c, 0, 63, 25
1, 20409, Note_off_c, 0, 87, 64
1, 20410, Note_off_c, 0, 68, 64
1, 20410, Note_off_c, 0, 80, 64
1, 20411, Note_off_c, 0, 29, 64
1, 20411, Note_on_c, 0, 30, 75
1, 20412, Note_off_c, 0, 49, 64
1, 20412, Note_off_c, 0, 63, 64
1, 20412, Note_off_c, 0, 85, 64
1, 20413, Note_on_c, 0, 29, 73
1, 20413, Note_off_c, 0, 30, 64
1, 20414, Note_on_c, 0, 48, 41
1, 20415, Note_off_c, 0, 29, 64
1, 20416, Note_off_c, 0, 48, 64
1, 20416, Note_on_c, 0, 76, 15
1, 20416, Note_on_c, 0, 82, 15
1, 20417, Note_on_c, 0, 36, 71
1, 20417, Note_on_c, 0, 63, 31
1, 20417, Note_on_c, 0, 77, 16
1, 20418, Note_on_c, 0, 30, 80
1, 20418, Note_off_c, 0, 36, 64
1, 20418, Note_on_c, 0, 58, 41
1, 20419, Note_on_c, 0, 29, 82
1, 20419, Note_off_c, 0, 30, 64
1, 20419, Note_on_c, 0, 61, 29
1, 20419, Note_off_c, 0, 63, 64
1, 20419, Note_off_c, 0, 76, 64
1, 20420, Note_off_c, 0, 58, 64
1, 20420, Note_off_c, 0, 77, 64
1, 20420, Note_off_c, 0, 82, 64
1, 20421, Note_off_c, 0, 29, 64
1, 20421, Note_on_c, 0, 30, 77
1, 20422, Note_off_c, 0, 30, 64
1, 20422, Note_on_c, 0, 31, 66
1, 20422, Note_off_c, 0, 61, 64
1, 20423, Note_off_c, 0, 31, 64
1, 20423, Note_on_c, 0, 63, 49
1, 20423, Note_on_c, 0, 78, 35
1, 20423, Note_on_c, 0, 83, 32
1, 20423, Note_on_c, 0, 85, 31
1, 20423, Note_on_c, 0, 89, 27
1, 20423, Note_on_c, 0, 91, 25
1, 20423, Note_on_c, 0, 92, 27
1, 20423, Note_on_c, 0, 93, 26
1, 20425, Note_on_c, 0, 53, 71
1, 20425, Note_off_c, 0, 63, 64
1, 20426, Note_on_c, 0, 48, 85
1, 20426, Note_off_c, 0, 53, 64
1, 20426, Note_off_c, 0, 78, 64
1, 20426, Note_off_c, 0, 83, 64
1, 20426, Note_off_c, 0, 85, 64
1, 20426, Note_off_c, 0, 89, 64
1, 20426, Note_off_c, 0, 91, 64
1, 20426, Note_off_c, 0, 92, 64
1, 20426, Note_off_c, 0, 93, 64
1, 20427, Note_on_c, 0, 45, 95
1, 20427, Note_off_c, 0, 48, 64
1, 20428, Note_on_c, 0, 42, 100
1, 20428, Note_off_c, 0, 45, 64
1, 20429, Note_on_c, 0, 40, 98
1, 20429, Note_off_c, 0, 42, 64
1, 20430, Note_on_c, 0, 38, 98
1, 20430, Note_off_c, 0, 40, 64
1, 20431, Note_on_c, 0, 37, 98
1, 20431, Note_off_c, 0, 38, 64
1, 20432, Note_on_c, 0, 35, 97
1, 20432, Note_off_c, 0, 37, 64
1, 20433, Note_on_c, 0, 34, 96
1, 20433, Note_off_c, 0, 35, 64
1, 20434, Note_on_c, 0, 33, 96
1, 20434, Note_off_c, 0, 34, 64
1, 20436, Note_on_c, 0, 32, 96
1, 20436, Note_off_c, 0, 33, 64
1, 20436, Note_on_c, 0, 49, 29
1, 20437, Note_on_c, 0, 31, 97
1, 20437, Note_off_c, 0, 32, 64
1, 20438, Note_off_c, 0, 49, 64
1, 20439, Note_on_c, 0, 30, 91
1, 20439, Note_off_c, 0, 31, 64
1, 20442, Note_off_c, 0, 30, 64
1, 20442, Note_on_c, 0, 83, 23
1, 20442, Note_on_c, 0, 84, 33
1, 20442, Note_on_c, 0, 95, 23
1, 20443, Note_on_c, 0, 37, 67
1, 20443, Note_on_c, 0, 71, 18
1, 20443, Note_on_c, 0, 79, 11
1, 20443, Note_on_c, 0, 91, 13
1, 20443, Note_on_c, 0, 92, 17
1, 20443, Note_on_c, 0, 101, 17
1, 20444, Note_on_c, 0, 31, 74
1, 20444, Note_off_c, 0, 37, 64
1, 20444, Note_on_c, 0, 68, 16
1, 20444, Note_off_c, 0, 84, 64
1, 20444, Note_on_c, 0, 85, 34
1, 20445, Note_on_c, 0, 30, 80
1, 20445, Note_off_c, 0, 31, 64
1, 20445, Note_off_c, 0, 83, 64
1, 20445, Note_off_c, 0, 95, 64
1, 20446, Note_on_c, 0, 29, 81
1, 20446, Note_off_c, 0, 30, 64
1, 20446, Note_off_c, 0, 71, 64
1, 20446, Note_off_c, 0, 79, 64
1, 20446, Note_off_c, 0, 85, 64
1, 20446, Note_off_c, 0, 91, 64
1, 20447, Note_on_c, 0, 85, 10
1, 20447, Note_off_c, 0, 92, 64
1, 20447, Note_off_c, 0, 101, 64
1, 20448, Note_on_c, 0, 61, 20
1, 20448, Note_off_c, 0, 68, 64
1, 20449, Note_off_c, 0, 29, 64
1, 20449, Note_on_c, 0, 30, 75
1, 20450, Note_on_c, 0, 29, 73
1, 20450, Note_off_c, 0, 30, 64
1, 20450, Note_off_c, 0, 85, 64
1, 20451, Note_off_c, 0, 61, 64
1, 20452, Note_off_c, 0, 29, 64
1, 20452, Note_on_c, 0, 30, 66
1, 20453, Note_off_c, 0, 30, 64
1, 20453, Note_on_c, 0, 66, 19
1, 20453, Note_on_c, 0, 68, 17
1, 20454, Note_on_c, 0, 36, 73
1, 20454, Note_on_c, 0, 61, 35
1, 20454, Note_on_c, 0, 74, 13
1, 20454, Note_on_c, 0, 77, 17
1, 20455, Note_on_c, 0, 31, 79
1, 20455, Note_off_c, 0, 36, 64
1, 20455, Note_on_c, 0, 70, 12
1, 20456, Note_on_c, 0, 30, 82
1, 20456, Note_off_c, 0, 31, 64
1, 20456, Note_off_c, 0, 66, 64
1, 20457, Note_on_c, 0, 29, 81
1, 20457, Note_off_c, 0, 30, 64
1, 20457, Note_off_c, 0, 61, 64
1, 20457, Note_on_c, 0, 63, 41
1, 20457, Note_off_c, 0, 74, 64
1, 20457, Note_off_c, 0, 77, 64
1, 20458, Note_off_c, 0, 29, 64
1, 20458, Note_on_c, 0, 30, 78
1, 20459, Note_on_c, 0, 49, 46
1, 20459, Note_on_c, 0, 54, 64
1, 20459, Note_off_c, 0, 68, 64
1, 20459, Note_off_c, 0, 70, 64
1, 20460, Note_off_c, 0, 30, 64
1, 20460, Note_on_c, 0, 74, 36
1, 20460, Note_on_c, 0, 81, 34
1, 20460, Note_on_c, 0, 83, 35
1, 20461, Note_off_c, 0, 49, 64
1, 20461, Note_on_c, 0, 77, 33
1, 20461, Note_on_c, 0, 85, 30
1, 20461, Note_on_c, 0, 91, 29
1, 20462, Note_off_c, 0, 63, 64
1, 20462, Note_off_c, 0, 74, 64
1, 20462, Note_off_c, 0, 83, 64
1, 20463, Note_on_c, 0, 49, 78
1, 20463, Note_off_c, 0, 54, 64
1, 20463, Note_off_c, 0, 77, 64
1, 20463, Note_off_c, 0, 81, 64
1, 20463, Note_off_c, 0, 85, 64
1, 20463, Note_off_c, 0, 91, 64
1, 20464, Note_on_c, 0, 45, 90
1, 20464, Note_off_c, 0, 49, 64
1, 20465, Note_on_c, 0, 42, 96
1, 20465, Note_off_c, 0, 45, 64
1, 20466, Note_on_c, 0, 41, 99
1, 20466, Note_off_c, 0, 42, 64
1, 20467, Note_on_c, 0, 39, 97
1, 20467, Note_off_c, 0, 41, 64
1, 20468, Note_on_c, 0, 37, 98
1, 20468, Note_off_c, 0, 39, 64
1, 20469, Note_on_c, 0, 36, 97
1, 20469, Note_off_c, 0, 37, 64
1, 20470, Note_on_c, 0, 35, 96
1, 20470, Note_off_c, 0, 36, 64
1, 20471, Note_on_c, 0, 34, 95
1, 20471, Note_off_c, 0, 35, 64
1, 20471, Note_on_c, 0, 96, 12
1, 20471, Note_on_c, 0, 97, 18
1, 20471, Note_on_c, 0, 101, 19
1, 20472, Note_on_c, 0, 33, 95
1, 20472, Note_off_c, 0, 34, 64
1, 20473, Note_on_c, 0, 32, 96
1, 20473, Note_off_c, 0, 33, 64
1, 20474, Note_off_c, 0, 96, 64
1, 20474, Note_off_c, 0, 97, 64
1, 20474, Note_off_c, 0, 101, 64
1, 20475, Note_on_c, 0, 31, 96
1, 20475, Note_off_c, 0, 32, 64
1, 20476, Note_on_c, 0, 30, 94
1, 20476, Note_off_c, 0, 31, 64
1, 20480, Note_off_c, 0, 30, 64
1, 20480, Note_on_c, 0, 64, 26
1, 20480, Note_on_c, 0, 72, 16
1, 20481, Note_on_c, 0, 37, 70
1, 20481, Note_on_c, 0, 66, 17
1, 20481, Note_on_c, 0, 68, 15
1, 20481, Note_on_c, 0, 70, 14
1, 20482, Note_on_c, 0, 30, 80
1, 20482, Note_off_c, 0, 37, 64
1, 20483, Note_off_c, 0, 72, 64
1, 20484, Note_on_c, 0, 29, 80
1, 20484, Note_off_c, 0, 30, 64
1, 20484, Note_on_c, 0, 63, 24
1, 20484, Note_off_c, 0, 64, 64
1, 20484, Note_off_c, 0, 66, 64
1, 20485, Note_off_c, 0, 29, 64
1, 20485, Note_on_c, 0, 30, 77
1, 20486, Note_off_c, 0, 68, 64
1, 20486, Note_off_c, 0, 70, 64
1, 20488, Note_on_c, 0, 29, 72
1, 20488, Note_off_c, 0, 30, 64
1, 20488, Note_off_c, 0, 63, 64
1, 20489, Note_off_c, 0, 29, 64
1, 20489, Note_on_c, 0, 30, 69
1, 20491, Note_off_c, 0, 30, 64
1, 20491, Note_on_c, 0, 43, 68
1, 20491, Note_on_c, 0, 70, 14
1, 20491, Note_on_c, 0, 80, 13
1, 20492, Note_on_c, 0, 32, 74
1, 20492, Note_off_c, 0, 43, 64
1, 20492, Note_on_c, 0, 61, 31
1, 20492, Note_on_c, 0, 64, 30
1, 20492, Note_on_c, 0, 68, 16
1, 20493, Note_on_c, 0, 30, 82
1, 20493, Note_off_c, 0, 32, 64
1, 20494, Note_on_c, 0, 29, 82
1, 20494, Note_off_c, 0, 30, 64
1, 20494, Note_off_c, 0, 64, 64
1, 20494, Note_off_c, 0, 80, 64
1, 20495, Note_off_c, 0, 29, 64
1, 20495, Note_on_c, 0, 30, 79
1, 20495, Note_off_c, 0, 61, 64
1, 20496, Note_on_c, 0, 63, 49
1, 20496, Note_off_c, 0, 68, 64
1, 20496, Note_off_c, 0, 70, 64
1, 20497, Note_off_c, 0, 30, 64
1, 20498, Note_on_c, 0, 54, 54
1, 20498, Note_on_c, 0, 82, 32
1, 20498, Note_on_c, 0, 83, 28
1, 20498, Note_on_c, 0, 85, 38
1, 20498, Note_on_c, 0, 86, 29
1, 20498, Note_on_c, 0, 90, 28
1, 20498, Note_on_c, 0, 91, 26
1, 20498, Note_on_c, 0, 92, 25
1, 20498, Note_on_c, 0, 95, 35
1, 20498, Note_on_c, 0, 101, 31
1, 20499, Note_on_c, 0, 73, 40
1, 20499, Note_on_c, 0, 78, 37
1, 20499, Note_on_c, 0, 81, 36
1, 20499, Note_on_c, 0, 96, 32
1, 20499, Note_on_c, 0, 99, 11
1, 20500, Note_on_c, 0, 50, 73
1, 20500, Note_off_c, 0, 54, 64
1, 20500, Note_off_c, 0, 63, 64
1, 20501, Note_on_c, 0, 48, 85
1, 20501, Note_off_c, 0, 50, 64
1, 20501, Note_off_c, 0, 73, 64
1, 20501, Note_off_c, 0, 78, 64
1, 20501, Note_off_c, 0, 81, 64
1, 20501, Note_off_c, 0, 82, 64
1, 20501, Note_off_c, 0, 83, 64
1, 20501, Note_off_c, 0, 86, 64
1, 20501, Note_off_c, 0, 90, 64
1, 20501, Note_off_c, 0, 91, 64
1, 20501, Note_off_c, 0, 95, 64
1, 20501, Note_off_c, 0, 101, 64
1, 20502, Note_on_c, 0, 45, 95
1, 20502, Note_off_c, 0, 48, 64
1, 20502, Note_off_c, 0, 85, 64
1, 20502, Note_off_c, 0, 92, 64
1, 20502, Note_off_c, 0, 96, 64
1, 20502, Note_off_c, 0, 99, 64
1, 20503, Note_on_c, 0, 42, 100
1, 20503, Note_off_c, 0, 45, 64
1, 20504, Note_on_c, 0, 40, 97
1, 20504, Note_off_c, 0, 42, 64
1, 20505, Note_on_c, 0, 38, 98
1, 20505, Note_off_c, 0, 40, 64
1, 20506, Note_on_c, 0, 36, 98
1, 20506, Note_off_c, 0, 38, 64
1, 20507, Note_on_c, 0, 35, 97
1, 20507, Note_off_c, 0, 36, 64
1, 20508, Note_on_c, 0, 34, 96
1, 20508, Note_off_c, 0, 35, 64
1, 20509, Note_on_c, 0, 33, 96
1, 20509, Note_off_c, 0, 34, 64
1, 20511, Note_on_c, 0, 32, 96
1, 20511, Note_off_c, 0, 33, 64
1, 20512, Note_on_c, 0, 31, 97
1, 20512, Note_off_c, 0, 32, 64
1, 20514, Note_on_c, 0, 30, 90
1, 20514, Note_off_c, 0, 31, 64
1, 20517, Note_off_c, 0, 30, 64
1, 20518, Note_on_c, 0, 41, 66
1, 20519, Note_on_c, 0, 30, 78
1, 20519, Note_off_c, 0, 41, 64
1, 20519, Note_on_c, 0, 68, 14
1, 20519, Note_on_c, 0, 70, 16
1, 20521, Note_on_c, 0, 29, 80
1, 20521, Note_off_c, 0, 30, 64
1, 20521, Note_on_c, 0, 49, 57
1, 20522, Note_off_c, 0, 29, 64
1, 20522, Note_on_c, 0, 30, 77
1, 20522, Note_on_c, 0, 63, 19
1, 20522, Note_off_c, 0, 70, 64
1, 20523, Note_off_c, 0, 68, 64
1, 20525, Note_on_c, 0, 29, 74
1, 20525, Note_off_c, 0, 30, 64
1, 20525, Note_off_c, 0, 63, 64
1, 20526, Note_off_c, 0, 49, 64
1, 20527, Note_off_c, 0, 29, 64
1, 20527, Note_on_c, 0, 30, 65
1, 20528, Note_off_c, 0, 30, 64
1, 20528, Note_on_c, 0, 61, 34
1, 20528, Note_on_c, 0, 64, 29
1, 20529, Note_on_c, 0, 36, 71
1, 20529, Note_on_c, 0, 68, 20
1, 20529, Note_on_c, 0, 71, 16
1, 20530, Note_on_c, 0, 30, 80
1, 20530, Note_off_c, 0, 36, 64
1, 20531, Note_on_c, 0, 29, 83
1, 20531, Note_off_c, 0, 30, 64
1, 20532, Note_off_c, 0, 64, 64
1, 20533, Note_off_c, 0, 29, 64
1, 20533, Note_on_c, 0, 30, 78
1, 20533, Note_off_c, 0, 71, 64
1, 20534, Note_off_c, 0, 30, 64
1, 20534, Note_on_c, 0, 31, 70
1, 20534, Note_on_c, 0, 54, 37
1, 20534, Note_off_c, 0, 61, 64
1, 20534, Note_on_c, 0, 63, 42
1, 20534, Note_off_c, 0, 68, 64
1, 20535, Note_on_c, 0, 48, 47
1, 20535, Note_on_c, 0, 77, 36
1, 20535, Note_on_c, 0, 81, 31
1, 20535, Note_on_c, 0, 83, 32
1, 20535, Note_on_c, 0, 86, 28
1, 20535, Note_on_c, 0, 90, 28
1, 20536, Note_off_c, 0, 31, 64
1, 20536, Note_off_c, 0, 54, 64
1, 20536, Note_on_c, 0, 80, 34
1, 20537, Note_off_c, 0, 48, 64
1, 20537, Note_on_c, 0, 54, 67
1, 20537, Note_off_c, 0, 63, 64
1, 20537, Note_on_c, 0, 70, 40
1, 20537, Note_off_c, 0, 77, 64
1, 20537, Note_off_c, 0, 81, 64
1, 20538, Note_on_c, 0, 49, 80
1, 20538, Note_off_c, 0, 54, 64
1, 20538, Note_off_c, 0, 80, 64
1, 20538, Note_off_c, 0, 83, 64
1, 20538, Note_off_c, 0, 86, 64
1, 20538, Note_off_c, 0, 90, 64
1, 20539, Note_on_c, 0, 45, 92
1, 20539, Note_off_c, 0, 49, 64
1, 20539, Note_off_c, 0, 70, 64
1, 20540, Note_on_c, 0, 42, 98
1, 20540, Note_off_c, 0, 45, 64
1, 20541, Note_on_c, 0, 41, 99
1, 20541, Note_off_c, 0, 42, 64
1, 20542, Note_on_c, 0, 38, 98
1, 20542, Note_off_c, 0, 41, 64
1, 20543, Note_on_c, 0, 37, 98
1, 20543, Note_off_c, 0, 38, 64
1, 20544, Note_on_c, 0, 36, 97
1, 20544, Note_off_c, 0, 37, 64
1, 20545, Note_on_c, 0, 35, 96
1, 20545, Note_off_c, 0, 36, 64
1, 20546, Note_on_c, 0, 34, 95
1, 20546, Note_off_c, 0, 35, 64
1, 20547, Note_on_c, 0, 33, 95
1, 20547, Note_off_c, 0, 34, 64
1, 20548, Note_on_c, 0, 32, 97
1, 20548, Note_off_c, 0, 33, 64
1, 20550, Note_on_c, 0, 31, 96
1, 20550, Note_off_c, 0, 32, 64
1, 20551, Note_on_c, 0, 30, 93
1, 20551, Note_off_c, 0, 31, 64
1, 20554, Note_off_c, 0, 30, 64
1, 20555, Note_on_c, 0, 85, 34
1, 20555, Note_on_c, 0, 87, 22
1, 20555, Note_on_c, 0, 92, 19
1, 20555, Note_on_c, 0, 95, 16
1, 20555, Note_on_c, 0, 101, 20
1, 20556, Note_on_c, 0, 36, 71
1, 20556, Note_on_c, 0, 68, 13
1, 20557, Note_on_c, 0, 30, 82
1, 20557, Note_off_c, 0, 36, 64
1, 20557, Note_on_c, 0, 49, 55
1, 20558, Note_off_c, 0, 87, 64
1, 20558, Note_off_c, 0, 95, 64
1, 20558, Note_off_c, 0, 101, 64
1, 20559, Note_on_c, 0, 29, 80
1, 20559, Note_off_c, 0, 30, 64
1, 20559, Note_off_c, 0, 85, 64
1, 20559, Note_off_c, 0, 92, 64
1, 20560, Note_off_c, 0, 29, 64
1, 20560, Note_on_c, 0, 30, 76
1, 20560, Note_off_c, 0, 49, 64
1, 20560, Note_off_c, 0, 68, 64
1, 20562, Note_on_c, 0, 29, 74
1, 20562, Note_off_c, 0, 30, 64
1, 20564, Note_off_c, 0, 29, 64
1, 20564, Note_on_c, 0, 30, 69
1, 20565, Note_off_c, 0, 30, 64
1, 20566, Note_on_c, 0, 42, 69
1, 20566, Note_on_c, 0, 68, 18
1, 20566, Note_on_c, 0, 79, 11
1, 20567, Note_on_c, 0, 32, 75
1, 20567, Note_off_c, 0, 42, 64
1, 20567, Note_on_c, 0, 61, 34
1, 20568, Note_on_c, 0, 30, 83
1, 20568, Note_off_c, 0, 32, 64
1, 20569, Note_on_c, 0, 29, 83
1, 20569, Note_off_c, 0, 30, 64
1, 20569, Note_off_c, 0, 79, 64
1, 20570, Note_off_c, 0, 29, 64
1, 20570, Note_on_c, 0, 30, 80
1, 20570, Note_off_c, 0, 61, 64
1, 20571, Note_on_c, 0, 54, 45
1, 20571, Note_off_c, 0, 68, 64
1, 20572, Note_off_c, 0, 30, 64
1, 20573, Note_off_c, 0, 54, 64
1, 20573, Note_on_c, 0, 76, 38
1, 20573, Note_on_c, 0, 80, 34
1, 20573, Note_on_c, 0, 82, 33
1, 20573, Note_on_c, 0, 83, 31
1, 20573, Note_on_c, 0, 85, 28
1, 20573, Note_on_c, 0, 87, 28
1, 20574, Note_on_c, 0, 84, 30
1, 20575, Note_on_c, 0, 50, 75
1, 20575, Note_off_c, 0, 76, 64
1, 20576, Note_on_c, 0, 48, 86
1, 20576, Note_off_c, 0, 50, 64
1, 20576, Note_off_c, 0, 80, 64
1, 20576, Note_off_c, 0, 82, 64
1, 20576, Note_off_c, 0, 83, 64
1, 20576, Note_off_c, 0, 84, 64
1, 20576, Note_off_c, 0, 85, 64
1, 20576, Note_off_c, 0, 87, 64
1, 20577, Note_on_c, 0, 44, 95
1, 20577, Note_off_c, 0, 48, 64
1, 20578, Note_on_c, 0, 41, 100
1, 20578, Note_off_c, 0, 44, 64
1, 20579, Note_on_c, 0, 40, 97
1, 20579, Note_off_c, 0, 41, 64
1, 20580, Note_on_c, 0, 38, 98
1, 20580, Note_off_c, 0, 40, 64
1, 20581, Note_on_c, 0, 36, 98
1, 20581, Note_off_c, 0, 38, 64
1, 20582, Note_on_c, 0, 35, 96
1, 20582, Note_off_c, 0, 36, 64
1, 20583, Note_on_c, 0, 34, 96
1, 20583, Note_off_c, 0, 35, 64
1, 20584, Note_on_c, 0, 33, 95
1, 20584, Note_off_c, 0, 34, 64
1, 20586, Note_on_c, 0, 32, 97
1, 20586, Note_off_c, 0, 33, 64
1, 20587, Note_on_c, 0, 31, 97
1, 20587, Note_off_c, 0, 32, 64
1, 20589, Note_on_c, 0, 30, 89
1, 20589, Note_off_c, 0, 31, 64
1, 20592, Note_off_c, 0, 30, 64
1, 20592, Note_on_c, 0, 64, 28
1, 20592, Note_on_c, 0, 85, 35
1, 20592, Note_on_c, 0, 100, 23
1, 20592, Note_on_c, 0, 102, 30
1, 20593, Note_on_c, 0, 37, 68
1, 20593, Note_on_c, 0, 87, 21
1, 20593, Note_on_c, 0, 96, 22
1, 20593, Note_on_c, 0, 101, 16
1, 20594, Note_on_c, 0, 30, 79
1, 20594, Note_off_c, 0, 37, 64
1, 20594, Note_on_c, 0, 61, 26
1, 20594, Note_on_c, 0, 66, 17
1, 20594, Note_on_c, 0, 71, 12
1, 20595, Note_off_c, 0, 64, 64
1, 20595, Note_off_c, 0, 100, 64
1, 20595, Note_off_c, 0, 102, 64
1, 20596, Note_on_c, 0, 29, 80
1, 20596, Note_off_c, 0, 30, 64
1, 20596, Note_on_c, 0, 49, 57
1, 20596, Note_off_c, 0, 85, 64
1, 20596, Note_off_c, 0, 96, 64
1, 20597, Note_off_c, 0, 29, 64
1, 20597, Note_on_c, 0, 30, 78
1, 20597, Note_off_c, 0, 61, 64
1, 20597, Note_off_c, 0, 66, 64
1, 20597, Note_off_c, 0, 71, 64
1, 20597, Note_off_c, 0, 87, 64
1, 20597, Note_off_c, 0, 101, 64
1, 20598, Note_on_c, 0, 48, 56
1, 20598, Note_off_c, 0, 49, 64
1, 20599, Note_on_c, 0, 29, 75
1, 20599, Note_off_c, 0, 30, 64
1, 20600, Note_off_c, 0, 48, 64
1, 20602, Note_off_c, 0, 29, 64
1, 20602, Note_on_c, 0, 30, 65
1, 20603, Note_off_c, 0, 30, 64
1, 20603, Note_on_c, 0, 80, 14
1, 20604, Note_on_c, 0, 36, 72
1, 20604, Note_on_c, 0, 61, 26
1, 20604, Note_on_c, 0, 66, 16
1, 20604, Note_on_c, 0, 68, 14
1, 20604, Note_on_c, 0, 76, 13
1, 20605, Note_on_c, 0, 30, 80
1, 20605, Note_off_c, 0, 36, 64
1, 20605, Note_on_c, 0, 49, 60
1, 20605, Note_on_c, 0, 63, 27
1, 20605, Note_on_c, 0, 70, 12
1, 20606, Note_on_c, 0, 29, 83
1, 20606, Note_off_c, 0, 30, 64
1, 20607, Note_off_c, 0, 76, 64
1, 20608, Note_off_c, 0, 29, 64
1, 20608, Note_on_c, 0, 30, 77
1, 20608, Note_off_c, 0, 49, 64
1, 20608, Note_off_c, 0, 63, 64
1, 20608, Note_off_c, 0, 66, 64
1, 20608, Note_off_c, 0, 70, 64
1, 20608, Note_off_c, 0, 80, 64
1, 20609, Note_off_c, 0, 30, 64
1, 20609, Note_on_c, 0, 31, 70
1, 20609, Note_on_c, 0, 54, 37
1, 20609, Note_off_c, 0, 68, 64
1, 20610, Note_off_c, 0, 31, 64
1, 20610, Note_on_c, 0, 48, 46
1, 20610, Note_on_c, 0, 70, 40
1, 20610, Note_on_c, 0, 78, 35
1, 20610, Note_on_c, 0, 84, 34
1, 20610, Note_on_c, 0, 85, 31
1, 20610, Note_on_c, 0, 87, 31
1, 20610, Note_on_c, 0, 89, 31
1, 20610, Note_on_c, 0, 92, 27
1, 20611, Note_off_c, 0, 54, 64
1, 20611, Note_off_c, 0, 61, 64
1, 20611, Note_on_c, 0, 72, 39
1, 20611, Note_on_c, 0, 81, 37
1, 20612, Note_off_c, 0, 48, 64
1, 20612, Note_on_c, 0, 54, 67
1, 20612, Note_off_c, 0, 70, 64
1, 20613, Note_on_c, 0, 49, 82
1, 20613, Note_off_c, 0, 54, 64
1, 20613, Note_off_c, 0, 72, 64
1, 20613, Note_off_c, 0, 78, 64
1, 20613, Note_off_c, 0, 81, 64
1, 20613, Note_off_c, 0, 84, 64
1, 20613, Note_off_c, 0, 85, 64
1, 20613, Note_off_c, 0, 87, 64
1, 20613, Note_off_c, 0, 89, 64
1, 20613, Note_off_c, 0, 92, 64
1, 20614, Note_on_c, 0, 45, 93
1, 20614, Note_off_c, 0, 49, 64
1, 20615, Note_on_c, 0, 42, 98
1, 20615, Note_off_c, 0, 45, 64
1, 20616, Note_on_c, 0, 41, 99
1, 20616, Note_off_c, 0, 42, 64
1, 20617, Note_on_c, 0, 38, 98
1, 20617, Note_off_c, 0, 41, 64
1, 20618, Note_on_c, 0, 37, 98
1, 20618, Note_off_c, 0, 38, 64
1, 20619, Note_on_c, 0, 36, 97
1, 20619, Note_off_c, 0, 37, 64
1, 20620, Note_on_c, 0, 34, 96
1, 20620, Note_off_c, 0, 36, 64
1, 20620, Note_on_c, 0, 85, 25
1, 20620, Note_on_c, 0, 95, 20
1, 20620, Note_on_c, 0, 101, 20
1, 20621, Note_on_c, 0, 99, 10
1, 20622, Note_on_c, 0, 33, 96
1, 20622, Note_off_c, 0, 34, 64
1, 20623, Note_on_c, 0, 32, 97
1, 20623, Note_off_c, 0, 33, 64
1, 20623, Note_off_c, 0, 85, 64
1, 20623, Note_off_c, 0, 95, 64
1, 20624, Note_off_c, 0, 99, 64
1, 20624, Note_off_c, 0, 101, 64
1, 20625, Note_on_c, 0, 31, 96
1, 20625, Note_off_c, 0, 32, 64
1, 20626, Note_on_c, 0, 30, 92
1, 20626, Note_off_c, 0, 31, 64
1, 20629, Note_off_c, 0, 30, 64
1, 20630, Note_on_c, 0, 61, 33
1, 20630, Note_on_c, 0, 68, 15
1, 20630, Note_on_c, 0, 76, 11
1, 20631, Note_on_c, 0, 36, 72
1, 20631, Note_on_c, 0, 63, 26
1, 20631, Note_on_c, 0, 70, 10
1, 20632, Note_on_c, 0, 30, 78
1, 20632, Note_off_c, 0, 36, 64
1, 20632, Note_on_c, 0, 54, 45
1, 20633, Note_on_c, 0, 29, 78
1, 20633, Note_off_c, 0, 30, 64
1, 20634, Note_off_c, 0, 54, 64
1, 20634, Note_off_c, 0, 63, 64
1, 20634, Note_off_c, 0, 70, 64
1, 20634, Note_off_c, 0, 76, 64
1, 20635, Note_off_c, 0, 29, 64
1, 20635, Note_on_c, 0, 30, 76
1, 20636, Note_off_c, 0, 61, 64
1, 20636, Note_off_c, 0, 68, 64
1, 20637, Note_on_c, 0, 29, 74
1, 20637, Note_off_c, 0, 30, 64
1, 20639, Note_off_c, 0, 29, 64
1, 20639, Note_on_c, 0, 30, 68
1, 20640, Note_off_c, 0, 30, 64
1, 20641, Note_on_c, 0, 42, 70
1, 20641, Note_on_c, 0, 71, 21
1, 20641, Note_on_c, 0, 80, 12
1, 20642, Note_on_c, 0, 30, 83
1, 20642, Note_off_c, 0, 42, 64
1, 20642, Note_on_c, 0, 68, 16
1, 20643, Note_on_c, 0, 63, 27
1, 20644, Note_on_c, 0, 29, 82
1, 20644, Note_off_c, 0, 30, 64
1, 20644, Note_off_c, 0, 80, 64
1, 20645, Note_off_c, 0, 29, 64
1, 20645, Note_on_c, 0, 30, 79
1, 20645, Note_off_c, 0, 71, 64
1, 20646, Note_on_c, 0, 54, 43
1, 20646, Note_off_c, 0, 68, 64
1, 20647, Note_off_c, 0, 30, 64
1, 20647, Note_off_c, 0, 63, 64
1, 20648, Note_off_c, 0, 54, 64
1, 20648, Note_on_c, 0, 66, 50
1, 20648, Note_on_c, 0, 79, 35
1, 20648, Note_on_c, 0, 83, 47
1, 20648, Note_on_c, 0, 85, 53
1, 20648, Note_on_c, 0, 86, 48
1, 20648, Note_on_c, 0, 89, 29
1, 20648, Note_on_c, 0, 90, 46
1, 20648, Note_on_c, 0, 92, 27
1, 20648, Note_on_c, 0, 93, 24
1, 20648, Note_on_c, 0, 94, 26
1, 20648, Note_on_c, 0, 96, 27
1, 20648, Note_on_c, 0, 99, 21
1, 20648, Note_on_c, 0, 101, 31
1, 20649, Note_on_c, 0, 72, 39
1, 20649, Note_on_c, 0, 75, 41
1, 20649, Note_on_c, 0, 80, 23
1, 20649, Note_on_c, 0, 82, 45
1, 20650, Note_on_c, 0, 50, 76
1, 20650, Note_on_c, 0, 63, 41
1, 20650, Note_off_c, 0, 66, 64
1, 20650, Note_on_c, 0, 71, 17
1, 20650, Note_on_c, 0, 78, 31
1, 20650, Note_off_c, 0, 79, 64
1, 20650, Note_off_c, 0, 89, 64
1, 20651, Note_on_c, 0, 46, 87
1, 20651, Note_off_c, 0, 50, 64
1, 20651, Note_off_c, 0, 72, 64
1, 20651, Note_off_c, 0, 83, 64
1, 20651, Note_on_c, 0, 89, 18
1, 20651, Note_off_c, 0, 96, 64
1, 20652, Note_on_c, 0, 44, 94
1, 20652, Note_off_c, 0, 46, 64
1, 20652, Note_off_c, 0, 63, 64
1, 20652, Note_on_c, 0, 74, 20
1, 20652, Note_off_c, 0, 75, 64
1, 20652, Note_on_c, 0, 83, 37
1, 20652, Note_on_c, 0, 88, 14
1, 20652, Note_off_c, 0, 101, 64
1, 20653, Note_on_c, 0, 41, 99
1, 20653, Note_off_c, 0, 44, 64
1, 20653, Note_off_c, 0, 71, 64
1, 20653, Note_off_c, 0, 80, 64
1, 20653, Note_off_c, 0, 99, 64
1, 20654, Note_on_c, 0, 39, 96
1, 20654, Note_off_c, 0, 41, 64
1, 20654, Note_off_c, 0, 83, 64
1, 20655, Note_on_c, 0, 37, 98
1, 20655, Note_off_c, 0, 39, 64
1, 20655, Note_on_c, 0, 83, 39
1, 20656, Note_on_c, 0, 36, 97
1, 20656, Note_off_c, 0, 37, 64
1, 20656, Note_off_c, 0, 74, 64
1, 20656, Note_on_c, 0, 80, 44
1, 20657, Note_on_c, 0, 35, 96
1, 20657, Note_off_c, 0, 36, 64
1, 20657, Note_off_c, 0, 88, 64
1, 20658, Note_on_c, 0, 34, 95
1, 20658, Note_off_c, 0, 35, 64
1, 20658, Note_off_c, 0, 94, 64
1, 20659, Note_on_c, 0, 33, 95
1, 20659, Note_off_c, 0, 34, 64
1, 20659, Note_on_c, 0, 73, 41
1, 20659, Note_on_c, 0, 76, 41
1, 20659, Note_off_c, 0, 78, 64
1, 20659, Note_on_c, 0, 79, 40
1, 20659, Note_off_c, 0, 83, 64
1, 20659, Note_on_c, 0, 84, 37
1, 20659, Note_off_c, 0, 89, 64
1, 20660, Note_off_c, 0, 93, 64
1, 20661, Note_on_c, 0, 32, 96
1, 20661, Note_off_c, 0, 33, 64
1, 20661, Note_on_c, 0, 75, 48
1, 20661, Note_off_c, 0, 76, 64
1, 20661, Note_on_c, 0, 83, 29
1, 20661, Note_off_c, 0, 84, 64
1, 20661, Note_off_c, 0, 92, 64
1, 20662, Note_on_c, 0, 31, 96
1, 20662, Note_off_c, 0, 32, 64
1, 20662, Note_off_c, 0, 73, 64
1, 20662, Note_on_c, 0, 76, 52
1, 20663, Note_off_c, 0, 75, 64
1, 20664, Note_on_c, 0, 30, 88
1, 20664, Note_off_c, 0, 31, 64
1, 20664, Note_on_c, 0, 71, 34
1, 20664, Note_on_c, 0, 74, 47
1, 20664, Note_off_c, 0, 76, 64
1, 20664, Note_on_c, 0, 77, 49
1, 20664, Note_on_c, 0, 78, 60
1, 20664, Note_off_c, 0, 79, 64
1, 20665, Note_off_c, 0, 83, 64
1, 20665, Note_on_c, 0, 84, 35
1, 20666, Note_off_c, 0, 71, 64
1, 20666, Note_off_c, 0, 77, 64
1, 20667, Note_off_c, 0, 30, 64
1, 20667, Note_on_c, 0, 72, 48
1, 20667, Note_on_c, 0, 75, 39
1, 20667, Note_on_c, 0, 88, 35
1, 20667, Note_on_c, 0, 89, 28
1, 20667, Note_on_c, 0, 91, 10
1, 20668, Note_on_c, 0, 37, 68
1, 20668, Note_on_c, 0, 61, 28
1, 20668, Note_on_c, 0, 81, 30
1, 20669, Note_on_c, 0, 30, 78
1, 20669, Note_off_c, 0, 37, 64
1, 20669, Note_on_c, 0, 49, 59
1, 20669, Note_on_c, 0, 70, 35
1, 20669, Note_off_c, 0, 72, 64
1, 20669, Note_on_c, 0, 73, 58
1, 20669, Note_off_c, 0, 74, 64
1, 20669, Note_on_c, 0, 76, 38
1, 20670, Note_off_c, 0, 75, 64
1, 20670, Note_off_c, 0, 81, 64
1, 20670, Note_off_c, 0, 86, 64
1, 20671, Note_on_c, 0, 29, 79
1, 20671, Note_off_c, 0, 30, 64
1, 20671, Note_on_c, 0, 66, 33
1, 20671, Note_off_c, 0, 70, 64
1, 20671, Note_off_c, 0, 82, 64
1, 20671, Note_on_c, 0, 83, 28
1, 20671, Note_on_c, 0, 86, 38
1, 20671, Note_off_c, 0, 91, 64
1, 20672, Note_off_c, 0, 29, 64
1, 20672, Note_on_c, 0, 30, 76
1, 20672, Note_off_c, 0, 49, 64
1, 20672, Note_off_c, 0, 84, 64
1, 20672, Note_on_c, 0, 87, 26
1, 20674, Note_on_c, 0, 29, 73
1, 20674, Note_off_c, 0, 30, 64
1, 20674, Note_on_c, 0, 75, 36
1, 20674, Note_off_c, 0, 76, 64
1, 20674, Note_off_c, 0, 80, 64
1, 20675, Note_on_c, 0, 79, 36
1, 20675, Note_on_c, 0, 84, 33
1, 20676, Note_off_c, 0, 29, 64
1, 20676, Note_on_c, 0, 30, 69
1, 20676, Note_on_c, 0, 70, 23
1, 20676, Note_off_c, 0, 75, 64
1, 20676, Note_off_c, 0, 85, 64
1, 20676, Note_off_c, 0, 87, 64
1, 20676, Note_off_c, 0, 89, 64
1, 20677, Note_off_c, 0, 61, 64
1, 20677, Note_on_c, 0, 75, 45
1, 20677, Note_on_c, 0, 80, 38
1, 20677, Note_on_c, 0, 93, 19
1, 20678, Note_off_c, 0, 30, 64
1, 20678, Note_on_c, 0, 63, 29
1, 20678, Note_off_c, 0, 79, 64
1, 20678, Note_on_c, 0, 82, 41
1, 20679, Note_on_c, 0, 36, 69
1, 20679, Note_off_c, 0, 70, 64
1, 20679, Note_on_c, 0, 89, 31
1, 20680, Note_on_c, 0, 30, 78
1, 20680, Note_off_c, 0, 36, 64
1, 20680, Note_off_c, 0, 63, 64
1, 20680, Note_off_c, 0, 75, 64
1, 20680, Note_on_c, 0, 76, 50
1, 20680, Note_off_c, 0, 83, 64
1, 20680, Note_off_c, 0, 90, 64
1, 20681, Note_on_c, 0, 29, 81
1, 20681, Note_off_c, 0, 30, 64
1, 20681, Note_on_c, 0, 49, 58
1, 20681, Note_on_c, 0, 68, 30
1, 20681, Note_on_c, 0, 70, 41
1, 20681, Note_off_c, 0, 80, 64
1, 20681, Note_off_c, 0, 93, 64
1, 20681, Note_on_c, 0, 95, 16
1, 20682, Note_off_c, 0, 29, 64
1, 20682, Note_on_c, 0, 30, 80
1, 20683, Note_off_c, 0, 49, 64
1, 20683, Note_off_c, 0, 66, 64
1, 20683, Note_on_c, 0, 74, 49
1, 20683, Note_on_c, 0, 79, 40
1, 20683, Note_off_c, 0, 84, 64
1, 20683, Note_off_c, 0, 88, 64
1, 20684, Note_off_c, 0, 30, 64
1, 20684, Note_on_c, 0, 31, 67
1, 20684, Note_on_c, 0, 54, 31
1, 20684, Note_off_c, 0, 68, 64
1, 20684, Note_off_c, 0, 73, 64
1, 20684, Note_on_c, 0, 93, 28
1, 20685, Note_off_c, 0, 31, 64
1, 20685, Note_on_c, 0, 32, 57
1, 20685, Note_on_c, 0, 48, 43
1, 20685, Note_on_c, 0, 80, 47
1, 20685, Note_on_c, 0, 83, 30
1, 20685, Note_on_c, 0, 96, 19
1, 20686, Note_off_c, 0, 54, 64
1, 20686, Note_on_c, 0, 66, 47
1, 20686, Note_on_c, 0, 72, 44
1, 20686, Note_off_c, 0, 76, 64
1, 20686, Note_off_c, 0, 78, 64
1, 20686, Note_off_c, 0, 79, 64
1, 20686, Note_off_c, 0, 95, 64
1, 20687, Note_off_c, 0, 32, 64
1, 20687, Note_off_c, 0, 48, 64
1, 20687, Note_on_c, 0, 53, 68
1, 20687, Note_on_c, 0, 69, 33
1, 20687, Note_off_c, 0, 70, 64
1, 20687, Note_off_c, 0, 74, 64
1, 20687, Note_on_c, 0, 75, 37
1, 20687, Note_on_c, 0, 79, 34
1, 20688, Note_on_c, 0, 48, 82
1, 20688, Note_off_c, 0, 53, 64
1, 20688, Note_off_c, 0, 80, 64
1, 20688, Note_off_c, 0, 82, 64
1, 20688, Note_off_c, 0, 83, 64
1, 20688, Note_off_c, 0, 86, 64
1, 20688, Note_off_c, 0, 89, 64
1, 20688, Note_off_c, 0, 96, 64
1, 20689, Note_on_c, 0, 45, 92
1, 20689, Note_off_c, 0, 48, 64
1, 20689, Note_on_c, 0, 64, 9
1, 20689, Note_off_c, 0, 66, 64
1, 20689, Note_off_c, 0, 69, 64
1, 20689, Note_off_c, 0, 75, 64
1, 20689, Note_on_c, 0, 77, 35
1, 20689, Note_off_c, 0, 79, 64
1, 20689, Note_on_c, 0, 82, 26
1, 20689, Note_on_c, 0, 83, 30
1, 20689, Note_off_c, 0, 93, 64
1, 20690, Note_on_c, 0, 42, 98
1, 20690, Note_off_c, 0, 45, 64
1, 20690, Note_off_c, 0, 72, 64
1, 20690, Note_on_c, 0, 73, 39
1, 20691, Note_on_c, 0, 40, 97
1, 20691, Note_off_c, 0, 42, 64
1, 20691, Note_on_c, 0, 86, 25
1, 20691, Note_on_c, 0, 88, 21
1, 20692, Note_on_c, 0, 38, 97
1, 20692, Note_off_c, 0, 40, 64
1, 20692, Note_off_c, 0, 73, 64
1, 20692, Note_on_c, 0, 74, 64
1, 20692, Note_on_c, 0, 79, 43
1, 20693, Note_on_c, 0, 37, 97
1, 20693, Note_off_c, 0, 38, 64
1, 20693, Note_off_c, 0, 64, 64
1, 20693, Note_on_c, 0, 75, 45
1, 20693, Note_off_c, 0, 77, 64
1, 20693, Note_on_c, 0, 85, 51
1, 20693, Note_on_c, 0, 89, 18
1, 20694, Note_on_c, 0, 35, 96
1, 20694, Note_off_c, 0, 37, 64
1, 20694, Note_on_c, 0, 71, 19
1, 20695, Note_on_c, 0, 34, 95
1, 20695, Note_off_c, 0, 35, 64
1, 20695, Note_on_c, 0, 67, 21
1, 20695, Note_off_c, 0, 82, 64
1, 20695, Note_off_c, 0, 83, 64
1, 20695, Note_on_c, 0, 84, 22
1, 20696, Note_off_c, 0, 75, 64
1, 20696, Note_on_c, 0, 78, 53
1, 20696, Note_off_c, 0, 86, 64
1, 20696, Note_off_c, 0, 88, 64
1, 20697, Note_on_c, 0, 33, 94
1, 20697, Note_off_c, 0, 34, 64
1, 20697, Note_off_c, 0, 71, 64
1, 20697, Note_on_c, 0, 82, 14
1, 20697, Note_off_c, 0, 89, 64
1, 20698, Note_on_c, 0, 32, 95
1, 20698, Note_off_c, 0, 33, 64
1, 20698, Note_on_c, 0, 49, 32
1, 20698, Note_on_c, 0, 83, 13
1, 20698, Note_off_c, 0, 84, 64
1, 20698, Note_on_c, 0, 93, 21
1, 20699, Note_on_c, 0, 31, 96
1, 20699, Note_off_c, 0, 32, 64
1, 20699, Note_on_c, 0, 88, 15
1, 20699, Note_on_c, 0, 94, 26
1, 20700, Note_off_c, 0, 49, 64
1, 20700, Note_off_c, 0, 79, 64
1, 20700, Note_on_c, 0, 80, 43
1, 20701, Note_on_c, 0, 30, 91
1, 20701, Note_off_c, 0, 31, 64
1, 20701, Note_off_c, 0, 67, 64
1, 20701, Note_on_c, 0, 68, 32
1, 20701, Note_on_c, 0, 84, 20
1, 20702, Note_off_c, 0, 74, 64
1, 20702, Note_on_c, 0, 75, 63
1, 20702, Note_off_c, 0, 83, 64
1, 20702, Note_off_c, 0, 93, 64
1, 20703, Note_on_c, 0, 70, 28
1, 20704, Note_off_c, 0, 30, 64
1, 20704, Note_off_c, 0, 82, 64
1, 20704, Note_on_c, 0, 83, 32
1, 20704, Note_off_c, 0, 88, 64
1, 20704, Note_on_c, 0, 96, 20
1, 20705, Note_on_c, 0, 66, 58
1, 20705, Note_off_c, 0, 80, 64
1, 20705, Note_off_c, 0, 84, 64
1, 20705, Note_on_c, 0, 89, 27
1, 20705, Note_on_c, 0, 93, 27
1, 20705, Note_on_c, 0, 98, 14
1, 20706, Note_on_c, 0, 30, 78
1, 20706, Note_off_c, 0, 68, 64
1, 20706, Note_on_c, 0, 73, 37
1, 20706, Note_on_c, 0, 82, 39
1, 20706, Note_on_c, 0, 86, 31
1, 20707, Note_off_c, 0, 70, 64
1, 20707, Note_off_c, 0, 75, 64
1, 20707, Note_on_c, 0, 76, 37
1, 20707, Note_off_c, 0, 83, 64
1, 20707, Note_on_c, 0, 84, 25
1, 20708, Note_on_c, 0, 29, 79
1, 20708, Note_off_c, 0, 30, 64
1, 20708, Note_on_c, 0, 61, 23
1, 20708, Note_on_c, 0, 70, 42
1, 20709, Note_off_c, 0, 29, 64
1, 20709, Note_on_c, 0, 30, 77
1, 20710, Note_on_c, 0, 83, 18
1, 20710, Note_off_c, 0, 84, 64
1, 20710, Note_off_c, 0, 96, 64
1, 20711, Note_off_c, 0, 61, 64
1, 20711, Note_off_c, 0, 98, 64
1, 20712, Note_on_c, 0, 29, 72
1, 20712, Note_off_c, 0, 30, 64
1, 20713, Note_off_c, 0, 83, 64
1, 20713, Note_off_c, 0, 89, 64
1, 20714, Note_on_c, 0, 80, 38
1, 20714, Note_on_c, 0, 83, 34
1, 20715, Note_off_c, 0, 29, 64
1, 20716, Note_on_c, 0, 42, 68
1, 20716, Note_on_c, 0, 89, 15
1, 20716, Note_off_c, 0, 94, 64
1, 20717, Note_on_c, 0, 30, 77
1, 20717, Note_off_c, 0, 42, 64
1, 20718, Note_on_c, 0, 29, 81
1, 20718, Note_off_c, 0, 30, 64
1, 20718, Note_on_c, 0, 91, 26
1, 20719, Note_on_c, 0, 49, 56
1, 20719, Note_off_c, 0, 83, 64
1, 20720, Note_on_c, 0, 83, 36
1, 20720, Note_off_c, 0, 93, 64
1, 20721, Note_off_c, 0, 29, 64
1, 20721, Note_on_c, 0, 30, 71
1, 20721, Note_off_c, 0, 49, 64
1, 20721, Note_on_c, 0, 54, 61
1, 20721, Note_off_c, 0, 73, 64
1, 20721, Note_on_c, 0, 74, 49
1, 20721, Note_off_c, 0, 86, 64
1, 20722, Note_off_c, 0, 30, 64
1, 20722, Note_on_c, 0, 79, 35
1, 20723, Note_off_c, 0, 78, 64
1, 20723, Note_off_c, 0, 83, 64
1, 20724, Note_off_c, 0, 76, 64
1, 20724, Note_on_c, 0, 81, 40
1, 20724, Note_on_c, 0, 84, 36
1, 20724, Note_off_c, 0, 89, 64
1, 20725, Note_on_c, 0, 51, 77
1, 20725, Note_off_c, 0, 54, 64
1, 20726, Note_on_c, 0, 46, 88
1, 20726, Note_off_c, 0, 51, 64
1, 20726, Note_off_c, 0, 70, 64
1, 20726, Note_off_c, 0, 80, 64
1, 20726, Note_off_c, 0, 82, 64
1, 20726, Note_off_c, 0, 91, 64
1, 20727, Note_on_c, 0, 42, 94
1, 20727, Note_off_c, 0, 46, 64
1, 20727, Note_on_c, 0, 83, 15
1, 20727, Note_off_c, 0, 85, 64
1, 20727, Note_on_c, 0, 87, 18
1, 20728, Note_on_c, 0, 41, 99
1, 20728, Note_off_c, 0, 42, 64
1, 20728, Note_on_c, 0, 85, 19
1, 20729, Note_on_c, 0, 39, 96
1, 20729, Note_off_c, 0, 41, 64
1, 20730, Note_on_c, 0, 37, 97
1, 20730, Note_off_c, 0, 39, 64
1, 20730, Note_off_c, 0, 79, 64
1, 20730, Note_off_c, 0, 83, 64
1, 20731, Note_on_c, 0, 36, 96
1, 20731, Note_off_c, 0, 37, 64
1, 20731, Note_off_c, 0, 74, 64
1, 20731, Note_on_c, 0, 75, 41
1, 20731, Note_off_c, 0, 84, 64
1, 20731, Note_on_c, 0, 88, 22
1, 20732, Note_on_c, 0, 35, 95
1, 20732, Note_off_c, 0, 36, 64
1, 20732, Note_on_c, 0, 80, 31
1, 20732, Note_off_c, 0, 87, 64
1, 20733, Note_on_c, 0, 34, 94
1, 20733, Note_off_c, 0, 35, 64
1, 20733, Note_off_c, 0, 66, 64
1, 20733, Note_on_c, 0, 72, 35
1, 20733, Note_on_c, 0, 82, 27
1, 20733, Note_off_c, 0, 85, 64
1, 20734, Note_on_c, 0, 33, 95
1, 20734, Note_off_c, 0, 34, 64
1, 20734, Note_on_c, 0, 66, 18
1, 20734, Note_on_c, 0, 73, 33
1, 20734, Note_off_c, 0, 81, 64
1, 20735, Note_on_c, 0, 32, 96
1, 20735, Note_off_c, 0, 33, 64
1, 20735, Note_off_c, 0, 72, 64
1, 20735, Note_off_c, 0, 75, 64
1, 20735, Note_on_c, 0, 76, 21
1, 20736, Note_on_c, 0, 93, 14
1, 20737, Note_on_c, 0, 31, 96
1, 20737, Note_off_c, 0, 32, 64
1, 20737, Note_on_c, 0, 83, 18
1, 20738, Note_on_c, 0, 54, 15
1, 20738, Note_on_c, 0, 61, 16
1, 20738, Note_on_c, 0, 68, 16
1, 20739, Note_on_c, 0, 30, 87
1, 20739, Note_off_c, 0, 31, 64
1, 20739, Note_off_c, 0, 66, 64
1, 20740, Note_on_c, 0, 91, 17
1, 20741, Note_off_c, 0, 76, 64
1, 20741, Note_off_c, 0, 83, 64
1, 20742, Note_off_c, 0, 30, 64
1, 20742, Note_off_c, 0, 54, 64
1, 20742, Note_off_c, 0, 61, 64
1, 20742, Note_off_c, 0, 68, 64
1, 20742, Note_on_c, 0, 76, 40
1, 20742, Note_on_c, 0, 83, 21
1, 20742, Note_on_c, 0, 85, 47
1, 20742, Note_on_c, 0, 87, 21
1, 20742, Note_on_c, 0, 96, 21
1, 20742, Note_on_c, 0, 102, 20
1, 20743, Note_on_c, 0, 37, 65
1, 20743, Note_on_c, 0, 64, 37
1, 20743, Note_on_c, 0, 68, 40
1, 20743, Note_on_c, 0, 81, 20
1, 20743, Note_off_c, 0, 82, 64
1, 20743, Note_on_c, 0, 86, 19
1, 20743, Note_off_c, 0, 88, 64
1, 20744, Note_on_c, 0, 30, 78
1, 20744, Note_off_c, 0, 37, 64
1, 20744, Note_off_c, 0, 93, 64
1, 20745, Note_on_c, 0, 61, 27
1, 20745, Note_on_c, 0, 84, 21
1, 20745, Note_off_c, 0, 87, 64
1, 20745, Note_off_c, 0, 102, 64
1, 20746, Note_on_c, 0, 29, 77
1, 20746, Note_off_c, 0, 30, 64
1, 20746, Note_on_c, 0, 54, 51
1, 20746, Note_on_c, 0, 78, 26
1, 20746, Note_on_c, 0, 82, 21
1, 20746, Note_on_c, 0, 87, 24
1, 20746, Note_off_c, 0, 96, 64
1, 20747, Note_off_c, 0, 29, 64
1, 20747, Note_on_c, 0, 30, 73
1, 20747, Note_off_c, 0, 73, 64
1, 20747, Note_on_c, 0, 74, 48
1, 20747, Note_off_c, 0, 81, 64
1, 20747, Note_off_c, 0, 83, 64
1, 20747, Note_on_c, 0, 89, 19
1, 20748, Note_off_c, 0, 64, 64
1, 20748, Note_on_c, 0, 81, 26
1, 20749, Note_on_c, 0, 29, 72
1, 20749, Note_off_c, 0, 30, 64
1, 20749, Note_on_c, 0, 48, 50
1, 20749, Note_on_c, 0, 64, 33
1, 20749, Note_off_c, 0, 68, 64
1, 20749, Note_off_c, 0, 78, 64
1, 20749, Note_on_c, 0, 79, 28
1, 20749, Note_off_c, 0, 82, 64
1, 20749, Note_on_c, 0, 83, 9
1, 20750, Note_off_c, 0, 86, 64
1, 20751, Note_off_c, 0, 29, 64
1, 20751, Note_on_c, 0, 30, 69
1, 20751, Note_off_c, 0, 48, 64
1, 20751, Note_off_c, 0, 61, 64
1, 20751, Note_on_c, 0, 77, 31
1, 20752, Note_off_c, 0, 54, 64
1, 20752, Note_on_c, 0, 61, 37
1, 20752, Note_off_c, 0, 81, 64
1, 20752, Note_on_c, 0, 82, 20
1, 20752, Note_off_c, 0, 83, 64
1, 20753, Note_off_c, 0, 30, 64
1, 20753, Note_on_c, 0, 78, 40
1, 20753, Note_off_c, 0, 79, 64
1, 20753, Note_on_c, 0, 81, 28
1, 20753, Note_off_c, 0, 87, 64
1, 20753, Note_off_c, 0, 91, 64
1, 20754, Note_on_c, 0, 36, 73
1, 20754, Note_on_c, 0, 68, 28
1, 20754, Note_off_c, 0, 76, 64
1, 20754, Note_off_c, 0, 80, 64
1, 20754, Note_off_c, 0, 84, 64
1, 20755, Note_on_c, 0, 30, 81
1, 20755, Note_off_c, 0, 36, 64
1, 20755, Note_on_c, 0, 49, 53
1, 20755, Note_off_c, 0, 64, 64
1, 20755, Note_off_c, 0, 77, 64
1, 20755, Note_off_c, 0, 89, 64
1, 20756, Note_on_c, 0, 29, 81
1, 20756, Note_off_c, 0, 30, 64
1, 20756, Note_off_c, 0, 82, 64
1, 20757, Note_off_c, 0, 49, 64
1, 20757, Note_on_c, 0, 84, 20
1, 20757, Note_on_c, 0, 92, 28
1, 20758, Note_off_c, 0, 29, 64
1, 20758, Note_on_c, 0, 30, 74
1, 20758, Note_off_c, 0, 61, 64
1, 20758, Note_on_c, 0, 70, 39
1, 20758, Note_on_c, 0, 72, 29
1, 20758, Note_on_c, 0, 87, 39
1, 20759, Note_off_c, 0, 30, 64
1, 20759, Note_on_c, 0, 64, 53
1, 20760, Note_on_c, 0, 48, 42
1, 20760, Note_on_c, 0, 60, 53
1, 20760, Note_off_c, 0, 68, 64
1, 20760, Note_off_c, 0, 74, 64
1, 20760, Note_on_c, 0, 75, 34
1, 20760, Note_on_c, 0, 80, 40
1, 20760, Note_off_c, 0, 81, 64
1, 20760, Note_on_c, 0, 89, 30
1, 20760, Note_on_c, 0, 91, 30
1, 20760, Note_on_c, 0, 94, 14
1, 20760, Note_on_c, 0, 95, 18
1, 20761, Note_off_c, 0, 70, 64
1, 20761, Note_off_c, 0, 72, 64
1, 20761, Note_off_c, 0, 84, 64
1, 20762, Note_off_c, 0, 48, 64
1, 20762, Note_on_c, 0, 53, 71
1, 20762, Note_off_c, 0, 60, 64
1, 20762, Note_on_c, 0, 66, 61
1, 20762, Note_on_c, 0, 70, 35
1, 20762, Note_off_c, 0, 75, 64
1, 20762, Note_on_c, 0, 86, 21
1, 20763, Note_on_c, 0, 48, 83
1, 20763, Note_off_c, 0, 53, 64
1, 20763, Note_on_c, 0, 73, 37
1, 20763, Note_off_c, 0, 89, 64
1, 20763, Note_off_c, 0, 91, 64
1, 20763, Note_off_c, 0, 92, 64
1, 20763, Note_off_c, 0, 95, 64
1, 20764, Note_on_c, 0, 45, 94
1, 20764, Note_off_c, 0, 48, 64
1, 20764, Note_off_c, 0, 64, 64
1, 20764, Note_off_c, 0, 70, 64
1, 20764, Note_off_c, 0, 87, 64
1, 20764, Note_on_c, 0, 89, 24
1, 20765, Note_on_c, 0, 42, 99
1, 20765, Note_off_c, 0, 45, 64
1, 20765, Note_off_c, 0, 94, 64
1, 20766, Note_on_c, 0, 40, 97
1, 20766, Note_off_c, 0, 42, 64
1, 20766, Note_off_c, 0, 86, 64
1, 20766, Note_on_c, 0, 91, 16
1, 20767, Note_on_c, 0, 38, 97
1, 20767, Note_off_c, 0, 40, 64
1, 20768, Note_on_c, 0, 37, 96
1, 20768, Note_off_c, 0, 38, 64
1, 20768, Note_on_c, 0, 70, 15
1, 20769, Note_on_c, 0, 35, 95
1, 20769, Note_off_c, 0, 37, 64
1, 20770, Note_on_c, 0, 34, 94
1, 20770, Note_off_c, 0, 35, 64
1, 20770, Note_off_c, 0, 80, 64
1, 20771, Note_on_c, 0, 33, 94
1, 20771, Note_off_c, 0, 34, 64
1, 20771, Note_off_c, 0, 70, 64
1, 20771, Note_on_c, 0, 86, 24
1, 20771, Note_on_c, 0, 92, 12
1, 20771, Note_on_c, 0, 99, 16
1, 20773, Note_on_c, 0, 32, 95
1, 20773, Note_off_c, 0, 33, 64
1, 20773, Note_on_c, 0, 49, 29
1, 20773, Note_on_c, 0, 84, 27
1, 20773, Note_off_c, 0, 91, 64
1, 20774, Note_on_c, 0, 31, 96
1, 20774, Note_off_c, 0, 32, 64
1, 20774, Note_off_c, 0, 92, 64
1, 20774, Note_off_c, 0, 99, 64
1, 20775, Note_on_c, 0, 80, 32
1, 20776, Note_on_c, 0, 30, 90
1, 20776, Note_off_c, 0, 31, 64
1, 20776, Note_off_c, 0, 49, 64
1, 20776, Note_on_c, 0, 83, 30
1, 20776, Note_off_c, 0, 84, 64
1, 20777, Note_on_c, 0, 96, 16
1, 20778, Note_off_c, 0, 83, 64
1, 20778, Note_on_c, 0, 84, 36
1, 20779, Note_off_c, 0, 30, 64
1, 20779, Note_on_c, 0, 43, 63
1, 20779, Note_on_c, 0, 61, 46
1, 20779, Note_on_c, 0, 69, 31
1, 20779, Note_on_c, 0, 76, 28
1, 20780, Note_on_c, 0, 74, 40
1, 20781, Note_on_c, 0, 31, 70
1, 20781, Note_off_c, 0, 43, 64
1, 20781, Note_off_c, 0, 61, 64
1, 20781, Note_on_c, 0, 72, 24
1, 20781, Note_off_c, 0, 73, 64
1, 20781, Note_on_c, 0, 79, 34
1, 20781, Note_off_c, 0, 80, 64
1, 20781, Note_off_c, 0, 86, 64
1, 20781, Note_on_c, 0, 87, 27
1, 20782, Note_on_c, 0, 30, 77
1, 20782, Note_off_c, 0, 31, 64
1, 20782, Note_on_c, 0, 49, 59
1, 20782, Note_off_c, 0, 69, 64
1, 20782, Note_off_c, 0, 76, 64
1, 20782, Note_on_c, 0, 77, 35
1, 20782, Note_off_c, 0, 78, 64
1, 20782, Note_off_c, 0, 85, 64
1, 20783, Note_on_c, 0, 29, 78
1, 20783, Note_off_c, 0, 30, 64
1, 20783, Note_on_c, 0, 65, 57
1, 20783, Note_off_c, 0, 66, 64
1, 20783, Note_on_c, 0, 71, 19
1, 20783, Note_on_c, 0, 82, 31
1, 20783, Note_on_c, 0, 85, 27
1, 20784, Note_off_c, 0, 72, 64
1, 20784, Note_off_c, 0, 87, 64
1, 20784, Note_off_c, 0, 89, 64
1, 20784, Note_on_c, 0, 90, 16
1, 20784, Note_off_c, 0, 96, 64
1, 20785, Note_off_c, 0, 29, 64
1, 20785, Note_on_c, 0, 30, 73
1, 20785, Note_on_c, 0, 64, 59
1, 20785, Note_off_c, 0, 65, 64
1, 20785, Note_on_c, 0, 70, 24
1, 20785, Note_on_c, 0, 78, 31
1, 20785, Note_off_c, 0, 79, 64
1, 20785, Note_on_c, 0, 83, 38
1, 20785, Note_on_c, 0, 87, 23
1, 20786, Note_off_c, 0, 49, 64
1, 20786, Note_off_c, 0, 71, 64
1, 20786, Note_off_c, 0, 77, 64
1, 20787, Note_on_c, 0, 29, 73
1, 20787, Note_off_c, 0, 30, 64
1, 20787, Note_on_c, 0, 73, 29
1, 20787, Note_off_c, 0, 74, 64
1, 20787, Note_on_c, 0, 75, 35
1, 20787, Note_on_c, 0, 81, 30
1, 20787, Note_off_c, 0, 82, 64
1, 20787, Note_on_c, 0, 89, 26
1, 20788, Note_on_c, 0, 63, 59
1, 20788, Note_off_c, 0, 64, 64
1, 20788, Note_on_c, 0, 80, 36
1, 20788, Note_on_c, 0, 82, 41
1, 20788, Note_off_c, 0, 83, 64
1, 20788, Note_on_c, 0, 86, 25
1, 20788, Note_off_c, 0, 87, 64
1, 20788, Note_off_c, 0, 90, 64
1, 20789, Note_off_c, 0, 29, 64
1, 20789, Note_on_c, 0, 30, 65
1, 20789, Note_off_c, 0, 70, 64
1, 20789, Note_off_c, 0, 81, 64
1, 20790, Note_on_c, 0, 67, 29
1, 20790, Note_on_c, 0, 70, 22
1, 20790, Note_off_c, 0, 75, 64
1, 20790, Note_on_c, 0, 77, 29
1, 20790, Note_off_c, 0, 78, 64
1, 20790, Note_on_c, 0, 83, 13
1, 20790, Note_off_c, 0, 85, 64
1, 20790, Note_on_c, 0, 90, 29
1, 20791, Note_off_c, 0, 30, 64
1, 20791, Note_on_c, 0, 41, 68
1, 20791, Note_on_c, 0, 62, 60
1, 20791, Note_off_c, 0, 63, 64
1, 20791, Note_off_c, 0, 73, 64
1, 20791, Note_on_c, 0, 78, 43
1, 20791, Note_on_c, 0, 85, 40
1, 20792, Note_on_c, 0, 30, 76
1, 20792, Note_off_c, 0, 41, 64
1, 20792, Note_on_c, 0, 66, 32
1, 20792, Note_off_c, 0, 67, 64
1, 20792, Note_on_c, 0, 68, 24
1, 20792, Note_off_c, 0, 77, 64
1, 20792, Note_off_c, 0, 84, 64
1, 20793, Note_on_c, 0, 29, 82
1, 20793, Note_off_c, 0, 30, 64
1, 20793, Note_off_c, 0, 70, 64
1, 20793, Note_off_c, 0, 83, 64
1, 20794, Note_on_c, 0, 65, 37
1, 20794, Note_off_c, 0, 66, 64
1, 20794, Note_on_c, 0, 73, 40
1, 20794, Note_on_c, 0, 75, 35
1, 20794, Note_off_c, 0, 86, 64
1, 20794, Note_on_c, 0, 88, 26
1, 20795, Note_off_c, 0, 62, 64
1, 20795, Note_on_c, 0, 76, 27
1, 20795, Note_off_c, 0, 80, 64
1, 20795, Note_off_c, 0, 82, 64
1, 20795, Note_on_c, 0, 83, 38
1, 20796, Note_off_c, 0, 29, 64
1, 20796, Note_on_c, 0, 30, 71
1, 20796, Note_on_c, 0, 49, 46
1, 20796, Note_on_c, 0, 54, 38
1, 20796, Note_on_c, 0, 74, 32
1, 20796, Note_off_c, 0, 75, 64
1, 20796, Note_on_c, 0, 80, 43
1, 20796, Note_off_c, 0, 89, 64
1, 20797, Note_off_c, 0, 30, 64
1, 20797, Note_off_c, 0, 65, 64
1, 20797, Note_off_c, 0, 68, 64
1, 20797, Note_on_c, 0, 77, 39
1, 20797, Note_off_c, 0, 78, 64
1, 20797, Note_on_c, 0, 86, 33
1, 20797, Note_on_c, 0, 87, 29
1, 20797, Note_on_c, 0, 93, 26
1, 20797, Note_on_c, 0, 96, 34
1, 20798, Note_off_c, 0, 49, 64
1, 20798, Note_off_c, 0, 54, 64
1, 20798, Note_on_c, 0, 63, 49
1, 20798, Note_on_c, 0, 70, 48
1, 20798, Note_off_c, 0, 73, 64
1, 20798, Note_off_c, 0, 74, 64
1, 20798, Note_off_c, 0, 76, 64
1, 20798, Note_off_c, 0, 88, 64
1, 20798, Note_on_c, 0, 101, 31
1, 20799, Note_on_c, 0, 66, 52
1, 20799, Note_on_c, 0, 76, 41
1, 20800, Note_on_c, 0, 50, 77
1, 20800, Note_on_c, 0, 73, 20
1, 20800, Note_off_c, 0, 77, 64
1, 20800, Note_off_c, 0, 87, 64
1, 20801, Note_on_c, 0, 46, 88
1, 20801, Note_off_c, 0, 50, 64
1, 20801, Note_off_c, 0, 63, 64
1, 20801, Note_off_c, 0, 76, 64
1, 20801, Note_on_c, 0, 77, 14
1, 20801, Note_on_c, 0, 81, 21
1, 20801, Note_off_c, 0, 86, 64
1, 20801, Note_off_c, 0, 101, 64
1, 20802, Note_on_c, 0, 42, 95
1, 20802, Note_off_c, 0, 46, 64
1, 20802, Note_off_c, 0, 70, 64
1, 20802, Note_off_c, 0, 80, 64
1, 20802, Note_off_c, 0, 96, 64
1, 20803, Note_on_c, 0, 41, 98
1, 20803, Note_off_c, 0, 42, 64
1, 20804, Note_on_c, 0, 39, 96
1, 20804, Note_off_c, 0, 41, 64
1, 20804, Note_off_c, 0, 77, 64
1, 20805, Note_on_c, 0, 37, 97
1, 20805, Note_off_c, 0, 39, 64
1, 20805, Note_on_c, 0, 71, 10
1, 20805, Note_on_c, 0, 79, 20
1, 20806, Note_on_c, 0, 36, 96
1, 20806, Note_off_c, 0, 37, 64
1, 20806, Note_off_c, 0, 73, 64
1, 20806, Note_on_c, 0, 75, 20
1, 20807, Note_on_c, 0, 35, 95
1, 20807, Note_off_c, 0, 36, 64
1, 20807, Note_on_c, 0, 77, 17
1, 20807, Note_off_c, 0, 90, 64
1, 20807, Note_off_c, 0, 93, 64
1, 20808, Note_on_c, 0, 34, 95
1, 20808, Note_off_c, 0, 35, 64
1, 20808, Note_off_c, 0, 71, 64
1, 20808, Note_off_c, 0, 79, 64
1, 20808, Note_on_c, 0, 86, 20
1, 20809, Note_on_c, 0, 33, 94
1, 20809, Note_off_c, 0, 34, 64
1, 20809, Note_on_c, 0, 74, 35
1, 20809, Note_off_c, 0, 75, 64
1, 20810, Note_on_c, 0, 84, 26
1, 20811, Note_on_c, 0, 32, 96
1, 20811, Note_off_c, 0, 33, 64
1, 20811, Note_off_c, 0, 66, 64
1, 20811, Note_on_c, 0, 78, 23
1, 20811, Note_on_c, 0, 82, 28
1, 20812, Note_on_c, 0, 31, 96
1, 20812, Note_off_c, 0, 32, 64
1, 20812, Note_on_c, 0, 79, 15
1, 20812, Note_off_c, 0, 81, 64
1, 20812, Note_off_c, 0, 83, 64
1, 20813, Note_on_c, 0, 64, 27
1, 20813, Note_off_c, 0, 77, 64
1, 20813, Note_on_c, 0, 81, 27
1, 20813, Note_on_c, 0, 83, 24
1, 20813, Note_off_c, 0, 84, 64
1, 20813, Note_off_c, 0, 86, 64
1, 20814, Note_on_c, 0, 30, 87
1, 20814, Note_off_c, 0, 31, 64
1, 20814, Note_off_c, 0, 74, 64
1, 20814, Note_on_c, 0, 75, 31
1, 20814, Note_off_c, 0, 82, 64
1, 20814, Note_on_c, 0, 84, 24
1, 20815, Note_on_c, 0, 71, 21
1, 20815, Note_off_c, 0, 79, 64
1, 20815, Note_on_c, 0, 82, 32
1, 20816, Note_off_c, 0, 81, 64
1, 20816, Note_off_c, 0, 83, 64
1, 20816, Note_on_c, 0, 86, 26
1, 20817, Note_off_c, 0, 30, 64
1, 20817, Note_on_c, 0, 68, 21
1, 20817, Note_off_c, 0, 75, 64
1, 20817, Note_off_c, 0, 78, 64
1, 20817, Note_on_c, 0, 80, 27
1, 20817, Note_on_c, 0, 87, 26
1, 20818, Note_on_c, 0, 37, 70
1, 20818, Note_on_c, 0, 61, 30
1, 20818, Note_on_c, 0, 100, 21
1, 20818, Note_on_c, 0, 101, 14
1, 20819, Note_on_c, 0, 31, 76
1, 20819, Note_off_c, 0, 37, 64
1, 20819, Note_off_c, 0, 84, 64
1, 20820, Note_on_c, 0, 30, 79
1, 20820, Note_off_c, 0, 31, 64
1, 20820, Note_off_c, 0, 61, 64
1, 20820, Note_off_c, 0, 71, 64
1, 20820, Note_on_c, 0, 84, 12
1, 20820, Note_off_c, 0, 87, 64
1, 20821, Note_on_c, 0, 49, 56
1, 20821, Note_off_c, 0, 64, 64
1, 20821, Note_on_c, 0, 73, 29
1, 20821, Note_on_c, 0, 78, 42
1, 20821, Note_off_c, 0, 101, 64
1, 20822, Note_off_c, 0, 100, 64
1, 20823, Note_off_c, 0, 86, 64
1, 20824, Note_on_c, 0, 29, 73
1, 20824, Note_off_c, 0, 30, 64
1, 20824, Note_on_c, 0, 48, 50
1, 20824, Note_off_c, 0, 49, 64
1, 20824, Note_off_c, 0, 68, 64
1, 20824, Note_on_c, 0, 76, 25
1, 20824, Note_off_c, 0, 84, 64
1, 20824, Note_on_c, 0, 93, 12
1, 20825, Note_on_c, 0, 74, 25
1, 20825, Note_off_c, 0, 80, 64
1, 20825, Note_on_c, 0, 84, 18
1, 20826, Note_off_c, 0, 48, 64
1, 20826, Note_off_c, 0, 73, 64
1, 20827, Note_off_c, 0, 29, 64
1, 20827, Note_on_c, 0, 73, 30
1, 20827, Note_on_c, 0, 80, 25
1, 20827, Note_off_c, 0, 82, 64
1, 20827, Note_on_c, 0, 89, 26
1, 20827, Note_off_c, 0, 93, 64
1, 20828, Note_on_c, 0, 64, 29
1, 20828, Note_on_c, 0, 71, 23
1, 20828, Note_off_c, 0, 74, 64
1, 20828, Note_on_c, 0, 83, 31
1, 20828, Note_off_c, 0, 84, 64
1, 20828, Note_on_c, 0, 86, 22
1, 20828, Note_on_c, 0, 93, 16
1, 20829, Note_on_c, 0, 33, 69
1, 20829, Note_on_c, 0, 54, 49
1, 20829, Note_on_c, 0, 82, 39
1, 20830, Note_on_c, 0, 29, 81
1, 20830, Note_off_c, 0, 33, 64
1, 20830, Note_off_c, 0, 83, 64
1, 20830, Note_on_c, 0, 95, 10
1, 20831, Note_on_c, 0, 61, 24
1, 20831, Note_on_c, 0, 68, 16
1, 20831, Note_off_c, 0, 93, 64
1, 20832, Note_off_c, 0, 29, 64
1, 20832, Note_on_c, 0, 30, 79
1, 20832, Note_off_c, 0, 54, 64
1, 20832, Note_off_c, 0, 64, 64
1, 20832, Note_off_c, 0, 76, 64
1, 20833, Note_on_c, 0, 63, 48
1, 20833, Note_off_c, 0, 71, 64
1, 20833, Note_on_c, 0, 84, 34
1, 20833, Note_off_c, 0, 95, 64
1, 20834, Note_off_c, 0, 30, 64
1, 20834, Note_off_c, 0, 61, 64
1, 20834, Note_on_c, 0, 67, 29
1, 20834, Note_off_c, 0, 68, 64
1, 20834, Note_off_c, 0, 80, 64
1, 20834, Note_on_c, 0, 81, 30
1, 20834, Note_off_c, 0, 86, 64
1, 20835, Note_on_c, 0, 54, 50
1, 20835, Note_on_c, 0, 59, 53
1, 20835, Note_on_c, 0, 70, 44
1, 20835, Note_on_c, 0, 74, 41
1, 20835, Note_on_c, 0, 83, 31
1, 20835, Note_on_c, 0, 88, 33
1, 20835, Note_on_c, 0, 91, 24
1, 20835, Note_on_c, 0, 92, 25
1, 20836, Note_off_c, 0, 67, 64
1, 20836, Note_off_c, 0, 73, 64
1, 20836, Note_on_c, 0, 76, 41
1, 20836, Note_off_c, 0, 81, 64
1, 20837, Note_on_c, 0, 50, 73
1, 20837, Note_off_c, 0, 54, 64
1, 20837, Note_off_c, 0, 59, 64
1, 20837, Note_off_c, 0, 63, 64
1, 20837, Note_on_c, 0, 65, 47
1, 20837, Note_off_c, 0, 70, 64
1, 20837, Note_on_c, 0, 71, 35
1, 20837, Note_off_c, 0, 78, 64
1, 20837, Note_on_c, 0, 79, 23
1, 20837, Note_on_c, 0, 80, 13
1, 20837, Note_off_c, 0, 82, 64
1, 20838, Note_on_c, 0, 48, 84
1, 20838, Note_off_c, 0, 50, 64
1, 20838, Note_off_c, 0, 84, 64
1, 20838, Note_off_c, 0, 89, 64
1, 20838, Note_off_c, 0, 92, 64
1, 20839, Note_on_c, 0, 45, 93
1, 20839, Note_off_c, 0, 48, 64
1, 20839, Note_off_c, 0, 71, 64
1, 20839, Note_off_c, 0, 76, 64
1, 20839, Note_on_c, 0, 78, 31
1, 20839, Note_off_c, 0, 88, 64
1, 20839, Note_off_c, 0, 91, 64
1, 20840, Note_on_c, 0, 42, 99
1, 20840, Note_off_c, 0, 45, 64
1, 20840, Note_off_c, 0, 79, 64
1, 20841, Note_on_c, 0, 40, 97
1, 20841, Note_off_c, 0, 42, 64
1, 20841, Note_on_c, 0, 64, 21
1, 20841, Note_off_c, 0, 65, 64
1, 20841, Note_off_c, 0, 80, 64
1, 20841, Note_on_c, 0, 87, 12
1, 20842, Note_on_c, 0, 38, 98
1, 20842, Note_off_c, 0, 40, 64
1, 20843, Note_on_c, 0, 36, 97
1, 20843, Note_off_c, 0, 38, 64
1, 20843, Note_on_c, 0, 73, 12
1, 20843, Note_off_c, 0, 74, 64
1, 20843, Note_on_c, 0, 75, 21
1, 20843, Note_on_c, 0, 88, 15
1, 20844, Note_on_c, 0, 35, 96
1, 20844, Note_off_c, 0, 36, 64
1, 20844, Note_on_c, 0, 63, 20
1, 20844, Note_off_c, 0, 64, 64
1, 20844, Note_on_c, 0, 80, 20
1, 20844, Note_on_c, 0, 82, 27
1, 20844, Note_off_c, 0, 83, 64
1, 20844, Note_on_c, 0, 86, 15
1, 20844, Note_off_c, 0, 87, 64
1, 20845, Note_on_c, 0, 34, 96
1, 20845, Note_off_c, 0, 35, 64
1, 20846, Note_on_c, 0, 33, 96
1, 20846, Note_off_c, 0, 34, 64
1, 20846, Note_off_c, 0, 73, 64
1, 20846, Note_off_c, 0, 75, 64
1, 20847, Note_on_c, 0, 62, 15
1, 20847, Note_off_c, 0, 63, 64
1, 20848, Note_on_c, 0, 32, 96
1, 20848, Note_off_c, 0, 33, 64
1, 20848, Note_off_c, 0, 86, 64
1, 20848, Note_off_c, 0, 88, 64
1, 20849, Note_on_c, 0, 31, 96
1, 20849, Note_off_c, 0, 32, 64
1, 20849, Note_off_c, 0, 82, 64
1, 20850, Note_off_c, 0, 62, 64
1, 20851, Note_on_c, 0, 30, 90
1, 20851, Note_off_c, 0, 31, 64
1, 20851, Note_on_c, 0, 88, 38
1, 20852, Note_on_c, 0, 83, 20
1, 20853, Note_on_c, 0, 72, 25
1, 20853, Note_on_c, 0, 82, 36
1, 20854, Note_off_c, 0, 30, 64
1, 20854, Note_on_c, 0, 64, 29
1, 20854, Note_on_c, 0, 86, 28
1, 20854, Note_on_c, 0, 95, 35
1, 20854, Note_on_c, 0, 101, 18
1, 20855, Note_off_c, 0, 80, 64
1, 20855, Note_off_c, 0, 83, 64
1, 20855, Note_on_c, 0, 96, 18
1, 20855, Note_on_c, 0, 99, 21
1, 20856, Note_on_c, 0, 30, 75
1, 20856, Note_on_c, 0, 80, 26
1, 20857, Note_off_c, 0, 64, 64
1, 20857, Note_on_c, 0, 71, 16
1, 20857, Note_off_c, 0, 72, 64
1, 20857, Note_off_c, 0, 86, 64
1, 20857, Note_on_c, 0, 87, 13
1, 20857, Note_off_c, 0, 101, 64
1, 20858, Note_on_c, 0, 29, 77
1, 20858, Note_off_c, 0, 30, 64
1, 20858, Note_off_c, 0, 95, 64
1, 20858, Note_off_c, 0, 96, 64
1, 20859, Note_off_c, 0, 99, 64
1, 20860, Note_off_c, 0, 71, 64
1, 20861, Note_off_c, 0, 29, 64
1, 20861, Note_on_c, 0, 30, 74
1, 20861, Note_on_c, 0, 83, 30
1, 20861, Note_off_c, 0, 85, 64
1, 20862, Note_on_c, 0, 29, 74
1, 20862, Note_off_c, 0, 30, 64
1, 20862, Note_off_c, 0, 78, 64
1, 20862, Note_on_c, 0, 79, 10
1, 20863, Note_off_c, 0, 88, 64
1, 20863, Note_on_c, 0, 91, 10
1, 20864, Note_off_c, 0, 29, 64
1, 20864, Note_on_c, 0, 30, 65
1, 20864, Note_on_c, 0, 47, 60
1, 20864, Note_on_c, 0, 74, 26
1, 20864, Note_off_c, 0, 80, 64
1, 20864, Note_on_c, 0, 85, 39
1, 20864, Note_off_c, 0, 87, 64
1, 20865, Note_on_c, 0, 66, 22
1, 20865, Note_on_c, 0, 77, 24
1, 20865, Note_off_c, 0, 79, 64
1, 20865, Note_on_c, 0, 88, 12
1, 20866, Note_off_c, 0, 30, 64
1, 20866, Note_on_c, 0, 41, 72
1, 20866, Note_off_c, 0, 47, 64
1, 20866, Note_on_c, 0, 61, 29
1, 20866, Note_on_c, 0, 68, 39
1, 20867, Note_on_c, 0, 30, 80
1, 20867, Note_off_c, 0, 41, 64
1, 20867, Note_off_c, 0, 91, 64
1, 20868, Note_on_c, 0, 49, 60
1, 20868, Note_off_c, 0, 66, 64
1, 20868, Note_on_c, 0, 78, 18
1, 20868, Note_off_c, 0, 88, 64
1, 20869, Note_on_c, 0, 29, 80
1, 20869, Note_off_c, 0, 30, 64
1, 20869, Note_on_c, 0, 64, 27
1, 20870, Note_off_c, 0, 29, 64
1, 20870, Note_on_c, 0, 30, 77
1, 20870, Note_on_c, 0, 48, 57
1, 20870, Note_off_c, 0, 49, 64
1, 20870, Note_off_c, 0, 77, 64
1, 20870, Note_on_c, 0, 84, 31
1, 20871, Note_off_c, 0, 30, 64
1, 20871, Note_on_c, 0, 31, 70
1, 20871, Note_on_c, 0, 54, 64
1, 20871, Note_off_c, 0, 61, 64
1, 20871, Note_off_c, 0, 74, 64
1, 20871, Note_off_c, 0, 78, 64
1, 20872, Note_off_c, 0, 31, 64
1, 20872, Note_off_c, 0, 64, 64
1, 20872, Note_on_c, 0, 76, 36
1, 20872, Note_on_c, 0, 78, 38
1, 20872, Note_on_c, 0, 86, 36
1, 20872, Note_on_c, 0, 91, 31
1, 20873, Note_off_c, 0, 82, 64
1, 20874, Note_off_c, 0, 48, 64
1, 20874, Note_off_c, 0, 68, 64
1, 20874, Note_on_c, 0, 72, 37
1, 20874, Note_on_c, 0, 82, 25
1, 20874, Note_off_c, 0, 84, 64
1, 20875, Note_on_c, 0, 49, 79
1, 20875, Note_off_c, 0, 54, 64
1, 20875, Note_off_c, 0, 83, 64
1, 20875, Note_off_c, 0, 91, 64
1, 20876, Note_on_c, 0, 45, 91
1, 20876, Note_off_c, 0, 49, 64
1, 20876, Note_off_c, 0, 72, 64
1, 20876, Note_off_c, 0, 76, 64
1, 20877, Note_on_c, 0, 42, 96
1, 20877, Note_off_c, 0, 45, 64
1, 20877, Note_on_c, 0, 73, 10
1, 20877, Note_on_c, 0, 76, 16
1, 20877, Note_off_c, 0, 86, 64
1, 20878, Note_on_c, 0, 41, 99
1, 20878, Note_off_c, 0, 42, 64
1, 20879, Note_on_c, 0, 38, 98
1, 20879, Note_off_c, 0, 41, 64
1, 20880, Note_on_c, 0, 37, 98
1, 20880, Note_off_c, 0, 38, 64
1, 20880, Note_off_c, 0, 78, 64
1, 20881, Note_on_c, 0, 36, 97
1, 20881, Note_off_c, 0, 37, 64
1, 20881, Note_off_c, 0, 73, 64
1, 20881, Note_on_c, 0, 80, 16
1, 20882, Note_on_c, 0, 35, 96
1, 20882, Note_off_c, 0, 36, 64
1, 20882, Note_on_c, 0, 78, 22
1, 20883, Note_on_c, 0, 34, 95
1, 20883, Note_off_c, 0, 35, 64
1, 20883, Note_on_c, 0, 73, 9
1, 20884, Note_on_c, 0, 33, 94
1, 20884, Note_off_c, 0, 34, 64
1, 20885, Note_on_c, 0, 32, 96
1, 20885, Note_off_c, 0, 33, 64
1, 20885, Note_off_c, 0, 76, 64
1, 20885, Note_off_c, 0, 80, 64
1, 20887, Note_on_c, 0, 31, 96
1, 20887, Note_off_c, 0, 32, 64
1, 20887, Note_on_c, 0, 80, 20
1, 20888, Note_on_c, 0, 30, 93
1, 20888, Note_off_c, 0, 31, 64
1, 20888, Note_off_c, 0, 73, 64
1, 20889, Note_on_c, 0, 84, 18
1, 20889, Note_on_c, 0, 89, 25
1, 20890, Note_off_c, 0, 82, 64
1, 20891, Note_on_c, 0, 74, 26
1, 20891, Note_on_c, 0, 83, 28
1, 20892, Note_off_c, 0, 30, 64
1, 20892, Note_off_c, 0, 84, 64
1, 20892, Note_on_c, 0, 92, 25
1, 20892, Note_on_c, 0, 96, 17
1, 20892, Note_on_c, 0, 98, 16
1, 20893, Note_on_c, 0, 37, 69
1, 20893, Note_on_c, 0, 54, 50
1, 20893, Note_on_c, 0, 61, 31
1, 20893, Note_on_c, 0, 64, 36
1, 20893, Note_on_c, 0, 68, 14
1, 20893, Note_on_c, 0, 81, 26
1, 20893, Note_on_c, 0, 84, 36
1, 20893, Note_off_c, 0, 85, 64
1, 20893, Note_on_c, 0, 87, 22
1, 20894, Note_on_c, 0, 30, 79
1, 20894, Note_off_c, 0, 37, 64
1, 20894, Note_on_c, 0, 49, 59
1, 20894, Note_on_c, 0, 71, 20
1, 20894, Note_on_c, 0, 77, 19
1, 20894, Note_off_c, 0, 78, 64
1, 20894, Note_off_c, 0, 80, 64
1, 20895, Note_off_c, 0, 54, 64
1, 20895, Note_off_c, 0, 84, 64
1, 20895, Note_off_c, 0, 89, 64
1, 20895, Note_off_c, 0, 96, 64
1, 20895, Note_off_c, 0, 98, 64
1, 20896, Note_on_c, 0, 29, 79
1, 20896, Note_off_c, 0, 30, 64
1, 20896, Note_on_c, 0, 54, 47
1, 20896, Note_off_c, 0, 64, 64
1, 20896, Note_off_c, 0, 92, 64
1, 20897, Note_off_c, 0, 49, 64
1, 20897, Note_on_c, 0, 64, 20
1, 20897, Note_off_c, 0, 71, 64
1, 20897, Note_on_c, 0, 78, 15
1, 20897, Note_off_c, 0, 81, 64
1, 20897, Note_on_c, 0, 85, 19
1, 20898, Note_off_c, 0, 29, 64
1, 20898, Note_on_c, 0, 30, 75
1, 20898, Note_off_c, 0, 54, 64
1, 20898, Note_off_c, 0, 61, 64
1, 20898, Note_off_c, 0, 68, 64
1, 20898, Note_off_c, 0, 87, 64
1, 20899, Note_on_c, 0, 29, 73
1, 20899, Note_off_c, 0, 30, 64
1, 20899, Note_on_c, 0, 48, 53
1, 20899, Note_off_c, 0, 74, 64
1, 20899, Note_off_c, 0, 77, 64
1, 20900, Note_off_c, 0, 64, 64
1, 20900, Note_on_c, 0, 79, 15
1, 20900, Note_on_c, 0, 82, 38
1, 20901, Note_off_c, 0, 29, 64
1, 20901, Note_on_c, 0, 30, 68
1, 20901, Note_off_c, 0, 48, 64
1, 20901, Note_on_c, 0, 88, 15
1, 20902, Note_on_c, 0, 80, 21
1, 20902, Note_off_c, 0, 85, 64
1, 20902, Note_on_c, 0, 86, 13
1, 20903, Note_off_c, 0, 30, 64
1, 20903, Note_on_c, 0, 43, 67
1, 20903, Note_on_c, 0, 68, 25
1, 20903, Note_off_c, 0, 78, 64
1, 20903, Note_off_c, 0, 79, 64
1, 20903, Note_off_c, 0, 83, 64
1, 20904, Note_on_c, 0, 32, 72
1, 20904, Note_off_c, 0, 43, 64
1, 20904, Note_on_c, 0, 61, 30
1, 20904, Note_off_c, 0, 88, 64
1, 20905, Note_on_c, 0, 30, 80
1, 20905, Note_off_c, 0, 32, 64
1, 20905, Note_on_c, 0, 49, 61
1, 20905, Note_on_c, 0, 78, 28
1, 20905, Note_on_c, 0, 79, 17
1, 20905, Note_off_c, 0, 80, 64
1, 20905, Note_on_c, 0, 84, 37
1, 20906, Note_on_c, 0, 29, 80
1, 20906, Note_off_c, 0, 30, 64
1, 20906, Note_on_c, 0, 76, 10
1, 20906, Note_on_c, 0, 83, 16
1, 20907, Note_off_c, 0, 49, 64
1, 20908, Note_off_c, 0, 29, 64
1, 20908, Note_on_c, 0, 30, 74
1, 20908, Note_off_c, 0, 68, 64
1, 20908, Note_off_c, 0, 79, 64
1, 20908, Note_on_c, 0, 80, 38
1, 20909, Note_off_c, 0, 30, 64
1, 20909, Note_off_c, 0, 61, 64
1, 20909, Note_off_c, 0, 86, 64
1, 20910, Note_on_c, 0, 54, 54
1, 20910, Note_on_c, 0, 63, 50
1, 20910, Note_on_c, 0, 73, 40
1, 20910, Note_off_c, 0, 76, 64
1, 20910, Note_on_c, 0, 77, 35
1, 20910, Note_off_c, 0, 83, 64
1, 20910, Note_on_c, 0, 86, 34
1, 20910, Note_on_c, 0, 91, 25
1, 20911, Note_on_c, 0, 70, 46
1, 20911, Note_off_c, 0, 78, 64
1, 20911, Note_on_c, 0, 83, 43
1, 20911, Note_off_c, 0, 84, 64
1, 20912, Note_on_c, 0, 51, 73
1, 20912, Note_off_c, 0, 54, 64
1, 20912, Note_off_c, 0, 63, 64
1, 20912, Note_off_c, 0, 77, 64
1, 20912, Note_on_c, 0, 78, 21
1, 20912, Note_off_c, 0, 86, 64
1, 20913, Note_on_c, 0, 48, 85
1, 20913, Note_off_c, 0, 51, 64
1, 20913, Note_off_c, 0, 70, 64
1, 20913, Note_off_c, 0, 73, 64
1, 20913, Note_off_c, 0, 91, 64
1, 20914, Note_on_c, 0, 45, 95
1, 20914, Note_off_c, 0, 48, 64
1, 20914, Note_off_c, 0, 80, 64
1, 20915, Note_on_c, 0, 42, 100
1, 20915, Note_off_c, 0, 45, 64
1, 20916, Note_on_c, 0, 40, 97
1, 20916, Note_off_c, 0, 42, 64
1, 20917, Note_on_c, 0, 38, 98
1, 20917, Note_off_c, 0, 40, 64
1, 20918, Note_on_c, 0, 36, 97
1, 20918, Note_off_c, 0, 38, 64
1, 20919, Note_on_c, 0, 35, 96
1, 20919, Note_off_c, 0, 36, 64
1, 20919, Note_off_c, 0, 78, 64
1, 20919, Note_off_c, 0, 83, 64
1, 20919, Note_on_c, 0, 84, 30
1, 20920, Note_on_c, 0, 34, 95
1, 20920, Note_off_c, 0, 35, 64
1, 20920, Note_off_c, 0, 82, 64
1, 20920, Note_on_c, 0, 83, 20
1, 20920, Note_on_c, 0, 97, 18
1, 20920, Note_on_c, 0, 101, 23
1, 20921, Note_on_c, 0, 33, 95
1, 20921, Note_off_c, 0, 34, 64
1, 20921, Note_on_c, 0, 81, 13
1, 20922, Note_on_c, 0, 85, 28
1, 20923, Note_on_c, 0, 32, 96
1, 20923, Note_off_c, 0, 33, 64
1, 20923, Note_off_c, 0, 97, 64
1, 20923, Note_off_c, 0, 101, 64
1, 20924, Note_on_c, 0, 31, 97
1, 20924, Note_off_c, 0, 32, 64
1, 20925, Note_off_c, 0, 84, 64
1, 20926, Note_on_c, 0, 30, 89
1, 20926, Note_off_c, 0, 31, 64
1, 20926, Note_on_c, 0, 75, 14
1, 20926, Note_off_c, 0, 81, 64
1, 20927, Note_on_c, 0, 81, 16
1, 20927, Note_off_c, 0, 85, 64
1, 20929, Note_off_c, 0, 30, 64
1, 20929, Note_off_c, 0, 75, 64
1, 20929, Note_on_c, 0, 77, 41
1, 20929, Note_on_c, 0, 82, 28
1, 20929, Note_off_c, 0, 83, 64
1, 20929, Note_on_c, 0, 84, 21
1, 20930, Note_on_c, 0, 37, 65
1, 20930, Note_on_c, 0, 68, 37
1, 20930, Note_on_c, 0, 71, 32
1, 20930, Note_off_c, 0, 81, 64
1, 20931, Note_on_c, 0, 31, 73
1, 20931, Note_off_c, 0, 37, 64
1, 20931, Note_on_c, 0, 73, 19
1, 20932, Note_on_c, 0, 30, 80
1, 20932, Note_off_c, 0, 31, 64
1, 20932, Note_off_c, 0, 68, 64
1, 20932, Note_on_c, 0, 70, 19
1, 20932, Note_off_c, 0, 71, 64
1, 20932, Note_off_c, 0, 82, 64
1, 20932, Note_off_c, 0, 84, 64
1, 20933, Note_on_c, 0, 29, 80
1, 20933, Note_off_c, 0, 30, 64
1, 20933, Note_on_c, 0, 76, 15
1, 20934, Note_off_c, 0, 29, 64
1, 20934, Note_on_c, 0, 30, 77
1, 20934, Note_off_c, 0, 77, 64
1, 20934, Note_on_c, 0, 85, 39
1, 20935, Note_off_c, 0, 70, 64
1, 20935, Note_on_c, 0, 82, 16
1, 20936, Note_on_c, 0, 29, 74
1, 20936, Note_off_c, 0, 30, 64
1, 20936, Note_on_c, 0, 78, 34
1, 20937, Note_off_c, 0, 73, 64
1, 20937, Note_on_c, 0, 79, 11
1, 20939, Note_off_c, 0, 29, 64
1, 20939, Note_on_c, 0, 30, 63
1, 20939, Note_off_c, 0, 82, 64
1, 20940, Note_off_c, 0, 76, 64
1, 20940, Note_off_c, 0, 79, 64
1, 20940, Note_on_c, 0, 80, 12
1, 20941, Note_off_c, 0, 30, 64
1, 20941, Note_on_c, 0, 36, 70
1, 20941, Note_on_c, 0, 61, 28
1, 20941, Note_on_c, 0, 68, 17
1, 20942, Note_on_c, 0, 30, 78
1, 20942, Note_off_c, 0, 36, 64
1, 20943, Note_on_c, 0, 29, 81
1, 20943, Note_off_c, 0, 30, 64
1, 20943, Note_on_c, 0, 49, 59
1, 20944, Note_off_c, 0, 61, 64
1, 20944, Note_on_c, 0, 82, 22
1, 20945, Note_off_c, 0, 29, 64
1, 20945, Note_on_c, 0, 30, 78
1, 20945, Note_off_c, 0, 49, 64
1, 20946, Note_off_c, 0, 80, 64
1, 20947, Note_off_c, 0, 30, 64
1, 20947, Note_on_c, 0, 48, 46
1, 20947, Note_off_c, 0, 68, 64
1, 20947, Note_on_c, 0, 72, 36
1, 20947, Note_on_c, 0, 74, 39
1, 20947, Note_on_c, 0, 76, 39
1, 20947, Note_on_c, 0, 79, 34
1, 20947, Note_on_c, 0, 81, 35
1, 20947, Note_on_c, 0, 89, 28
1, 20947, Note_on_c, 0, 92, 22
1, 20947, Note_on_c, 0, 95, 33
1, 20947, Note_on_c, 0, 96, 33
1, 20947, Note_on_c, 0, 101, 34
1, 20948, Note_off_c, 0, 82, 64
1, 20948, Note_on_c, 0, 83, 29
1, 20948, Note_on_c, 0, 99, 17
1, 20949, Note_off_c, 0, 48, 64
1, 20949, Note_on_c, 0, 55, 66
1, 20949, Note_on_c, 0, 62, 50
1, 20949, Note_on_c, 0, 69, 42
1, 20949, Note_off_c, 0, 72, 64
1, 20949, Note_off_c, 0, 79, 64
1, 20950, Note_on_c, 0, 49, 81
1, 20950, Note_off_c, 0, 55, 64
1, 20950, Note_off_c, 0, 76, 64
1, 20950, Note_off_c, 0, 78, 64
1, 20950, Note_off_c, 0, 83, 64
1, 20950, Note_off_c, 0, 89, 64
1, 20950, Note_off_c, 0, 92, 64
1, 20950, Note_off_c, 0, 95, 64
1, 20950, Note_off_c, 0, 96, 64
1, 20951, Note_on_c, 0, 45, 93
1, 20951, Note_off_c, 0, 49, 64
1, 20951, Note_off_c, 0, 62, 64
1, 20951, Note_off_c, 0, 69, 64
1, 20951, Note_off_c, 0, 81, 64
1, 20951, Note_off_c, 0, 99, 64
1, 20951, Note_off_c, 0, 101, 64
1, 20952, Note_on_c, 0, 42, 98
1, 20952, Note_off_c, 0, 45, 64
1, 20953, Note_on_c, 0, 41, 99
1, 20953, Note_off_c, 0, 42, 64
1, 20953, Note_off_c, 0, 85, 64
1, 20954, Note_on_c, 0, 38, 97
1, 20954, Note_off_c, 0, 41, 64
1, 20954, Note_on_c, 0, 83, 14
1, 20955, Note_on_c, 0, 37, 98
1, 20955, Note_off_c, 0, 38, 64
1, 20955, Note_off_c, 0, 74, 64
1, 20956, Note_on_c, 0, 36, 97
1, 20956, Note_off_c, 0, 37, 64
1, 20957, Note_on_c, 0, 34, 96
1, 20957, Note_off_c, 0, 36, 64
1, 20957, Note_on_c, 0, 82, 16
1, 20957, Note_off_c, 0, 83, 64
1, 20959, Note_on_c, 0, 33, 96
1, 20959, Note_off_c, 0, 34, 64
1, 20960, Note_on_c, 0, 32, 97
1, 20960, Note_off_c, 0, 33, 64
1, 20960, Note_on_c, 0, 78, 23
1, 20962, Note_on_c, 0, 31, 96
1, 20962, Note_off_c, 0, 32, 64
1, 20962, Note_off_c, 0, 82, 64
1, 20963, Note_on_c, 0, 30, 92
1, 20963, Note_off_c, 0, 31, 64
1, 20967, Note_off_c, 0, 30, 64
1, 20967, Note_on_c, 0, 74, 19
1, 20967, Note_on_c, 0, 82, 12
1, 20967, Note_on_c, 0, 83, 16
1, 20968, Note_on_c, 0, 36, 69
1, 20968, Note_on_c, 0, 54, 52
1, 20968, Note_on_c, 0, 61, 25
1, 20969, Note_on_c, 0, 30, 77
1, 20969, Note_off_c, 0, 36, 64
1, 20970, Note_on_c, 0, 29, 80
1, 20970, Note_off_c, 0, 30, 64
1, 20970, Note_on_c, 0, 68, 14
1, 20971, Note_off_c, 0, 54, 64
1, 20971, Note_off_c, 0, 78, 64
1, 20972, Note_off_c, 0, 29, 64
1, 20972, Note_on_c, 0, 30, 76
1, 20972, Note_off_c, 0, 83, 64
1, 20973, Note_off_c, 0, 61, 64
1, 20973, Note_off_c, 0, 68, 64
1, 20973, Note_off_c, 0, 74, 64
1, 20974, Note_on_c, 0, 29, 74
1, 20974, Note_off_c, 0, 30, 64
1, 20975, Note_off_c, 0, 29, 64
1, 20975, Note_on_c, 0, 30, 72
1, 20976, Note_on_c, 0, 83, 14
1, 20977, Note_off_c, 0, 30, 64
1, 20977, Note_on_c, 0, 78, 19
1, 20977, Note_off_c, 0, 82, 64
1, 20977, Note_on_c, 0, 85, 10
1, 20978, Note_on_c, 0, 34, 69
1, 20979, Note_on_c, 0, 31, 75
1, 20979, Note_off_c, 0, 34, 64
1, 20979, Note_on_c, 0, 61, 27
1, 20979, Note_on_c, 0, 68, 18
1, 20979, Note_off_c, 0, 83, 64
1, 20979, Note_on_c, 0, 84, 21
1, 20980, Note_on_c, 0, 30, 81
1, 20980, Note_off_c, 0, 31, 64
1, 20980, Note_on_c, 0, 75, 13
1, 20980, Note_on_c, 0, 79, 10
1, 20980, Note_off_c, 0, 85, 64
1, 20980, Note_on_c, 0, 87, 15
1, 20981, Note_on_c, 0, 29, 81
1, 20981, Note_off_c, 0, 30, 64
1, 20982, Note_off_c, 0, 29, 64
1, 20982, Note_on_c, 0, 30, 78
1, 20982, Note_off_c, 0, 61, 64
1, 20982, Note_off_c, 0, 78, 64
1, 20982, Note_off_c, 0, 84, 64
1, 20983, Note_off_c, 0, 68, 64
1, 20983, Note_off_c, 0, 87, 64
1, 20984, Note_off_c, 0, 30, 64
1, 20984, Note_off_c, 0, 75, 64
1, 20985, Note_on_c, 0, 54, 59
1, 20985, Note_on_c, 0, 75, 35
1, 20985, Note_on_c, 0, 77, 34
1, 20985, Note_off_c, 0, 79, 64
1, 20985, Note_on_c, 0, 80, 33
1, 20987, Note_on_c, 0, 50, 76
1, 20987, Note_off_c, 0, 54, 64
1, 20988, Note_on_c, 0, 46, 86
1, 20988, Note_off_c, 0, 50, 64
1, 20988, Note_off_c, 0, 75, 64
1, 20988, Note_off_c, 0, 77, 64
1, 20988, Note_off_c, 0, 80, 64
1, 20989, Note_on_c, 0, 44, 94
1, 20989, Note_off_c, 0, 46, 64
1, 20990, Note_on_c, 0, 41, 100
1, 20990, Note_off_c, 0, 44, 64
1, 20991, Note_on_c, 0, 39, 97
1, 20991, Note_off_c, 0, 41, 64
1, 20992, Note_on_c, 0, 38, 98
1, 20992, Note_off_c, 0, 39, 64
1, 20993, Note_on_c, 0, 36, 98
1, 20993, Note_off_c, 0, 38, 64
1, 20994, Note_on_c, 0, 35, 96
1, 20994, Note_off_c, 0, 36, 64
1, 20995, Note_on_c, 0, 34, 96
1, 20995, Note_off_c, 0, 35, 64
1, 20996, Note_on_c, 0, 33, 95
1, 20996, Note_off_c, 0, 34, 64
1, 20998, Note_on_c, 0, 32, 96
1, 20998, Note_off_c, 0, 33, 64
1, 20998, Note_on_c, 0, 85, 35
1, 20999, Note_on_c, 0, 31, 96
1, 20999, Note_off_c, 0, 32, 64
1, 21001, Note_on_c, 0, 30, 89
1, 21001, Note_off_c, 0, 31, 64
1, 21004, Note_off_c, 0, 30, 64
1, 21004, Note_on_c, 0, 80, 18
1, 21004, Note_on_c, 0, 84, 38
1, 21004, Note_on_c, 0, 88, 18
1, 21005, Note_on_c, 0, 37, 70
1, 21005, Note_on_c, 0, 61, 30
1, 21005, Note_on_c, 0, 90, 9
1, 21005, Note_on_c, 0, 101, 13
1, 21006, Note_on_c, 0, 30, 80
1, 21006, Note_off_c, 0, 37, 64
1, 21006, Note_on_c, 0, 49, 60
1, 21006, Note_on_c, 0, 71, 14
1, 21006, Note_on_c, 0, 74, 14
1, 21006, Note_on_c, 0, 79, 12
1, 21006, Note_on_c, 0, 83, 18
1, 21006, Note_off_c, 0, 84, 64
1, 21007, Note_on_c, 0, 77, 10
1, 21008, Note_on_c, 0, 29, 81
1, 21008, Note_off_c, 0, 30, 64
1, 21008, Note_off_c, 0, 85, 64
1, 21008, Note_on_c, 0, 87, 19
1, 21008, Note_off_c, 0, 90, 64
1, 21009, Note_off_c, 0, 29, 64
1, 21009, Note_on_c, 0, 30, 77
1, 21009, Note_off_c, 0, 71, 64
1, 21009, Note_off_c, 0, 74, 64
1, 21009, Note_off_c, 0, 79, 64
1, 21009, Note_on_c, 0, 85, 15
1, 21009, Note_on_c, 0, 86, 20
1, 21009, Note_off_c, 0, 101, 64
1, 21010, Note_off_c, 0, 49, 64
1, 21010, Note_off_c, 0, 61, 64
1, 21010, Note_off_c, 0, 77, 64
1, 21010, Note_off_c, 0, 83, 64
1, 21010, Note_off_c, 0, 88, 64
1, 21011, Note_on_c, 0, 68, 15
1, 21011, Note_off_c, 0, 80, 64
1, 21011, Note_on_c, 0, 83, 16
1, 21012, Note_on_c, 0, 84, 22
1, 21012, Note_off_c, 0, 85, 64
1, 21012, Note_off_c, 0, 87, 64
1, 21013, Note_on_c, 0, 88, 14
1, 21014, Note_off_c, 0, 83, 64
1, 21014, Note_on_c, 0, 85, 24
1, 21014, Note_off_c, 0, 86, 64
1, 21015, Note_off_c, 0, 30, 64
1, 21015, Note_on_c, 0, 64, 29
1, 21015, Note_off_c, 0, 68, 64
1, 21015, Note_on_c, 0, 73, 22
1, 21015, Note_on_c, 0, 78, 12
1, 21015, Note_on_c, 0, 80, 18
1, 21015, Note_on_c, 0, 93, 16
1, 21016, Note_on_c, 0, 36, 72
1, 21016, Note_on_c, 0, 61, 32
1, 21016, Note_on_c, 0, 68, 19
1, 21016, Note_on_c, 0, 75, 18
1, 21016, Note_on_c, 0, 87, 19
1, 21016, Note_off_c, 0, 88, 64
1, 21016, Note_on_c, 0, 89, 14
1, 21016, Note_on_c, 0, 90, 14
1, 21017, Note_on_c, 0, 30, 80
1, 21017, Note_off_c, 0, 36, 64
1, 21017, Note_on_c, 0, 49, 59
1, 21017, Note_off_c, 0, 64, 64
1, 21017, Note_on_c, 0, 82, 24
1, 21017, Note_off_c, 0, 84, 64
1, 21017, Note_off_c, 0, 85, 64
1, 21018, Note_on_c, 0, 29, 81
1, 21018, Note_off_c, 0, 30, 64
1, 21018, Note_on_c, 0, 63, 29
1, 21018, Note_off_c, 0, 73, 64
1, 21018, Note_on_c, 0, 77, 17
1, 21018, Note_off_c, 0, 80, 64
1, 21018, Note_on_c, 0, 85, 29
1, 21018, Note_on_c, 0, 91, 17
1, 21018, Note_off_c, 0, 93, 64
1, 21019, Note_off_c, 0, 75, 64
1, 21019, Note_on_c, 0, 86, 17
1, 21019, Note_off_c, 0, 87, 64
1, 21019, Note_off_c, 0, 89, 64
1, 21019, Note_on_c, 0, 95, 24
1, 21020, Note_off_c, 0, 29, 64
1, 21020, Note_on_c, 0, 30, 76
1, 21020, Note_off_c, 0, 49, 64
1, 21020, Note_on_c, 0, 54, 43
1, 21020, Note_off_c, 0, 63, 64
1, 21020, Note_on_c, 0, 74, 37
1, 21020, Note_off_c, 0, 78, 64
1, 21020, Note_on_c, 0, 83, 36
1, 21020, Note_on_c, 0, 89, 18
1, 21020, Note_off_c, 0, 90, 64
1, 21021, Note_off_c, 0, 30, 64
1, 21021, Note_on_c, 0, 31, 68
1, 21021, Note_off_c, 0, 68, 64
1, 21021, Note_off_c, 0, 77, 64
1, 21021, Note_on_c, 0, 78, 45
1, 21021, Note_on_c, 0, 92, 24
1, 21022, Note_off_c, 0, 31, 64
1, 21022, Note_on_c, 0, 48, 45
1, 21022, Note_off_c, 0, 61, 64
1, 21022, Note_on_c, 0, 71, 46
1, 21022, Note_on_c, 0, 80, 35
1, 21022, Note_on_c, 0, 81, 38
1, 21022, Note_on_c, 0, 84, 34
1, 21022, Note_on_c, 0, 87, 33
1, 21022, Note_on_c, 0, 88, 35
1, 21022, Note_on_c, 0, 98, 19
1, 21023, Note_off_c, 0, 54, 64
1, 21023, Note_off_c, 0, 82, 64
1, 21023, Note_off_c, 0, 86, 64
1, 21023, Note_off_c, 0, 89, 64
1, 21023, Note_off_c, 0, 91, 64
1, 21024, Note_off_c, 0, 48, 64
1, 21024, Note_on_c, 0, 54, 68
1, 21024, Note_on_c, 0, 70, 39
1, 21024, Note_off_c, 0, 71, 64
1, 21024, Note_on_c, 0, 73, 31
1, 21024, Note_on_c, 0, 77, 31
1, 21024, Note_off_c, 0, 95, 64
1, 21025, Note_on_c, 0, 48, 83
1, 21025, Note_off_c, 0, 54, 64
1, 21025, Note_off_c, 0, 74, 64
1, 21025, Note_off_c, 0, 78, 64
1, 21025, Note_off_c, 0, 80, 64
1, 21025, Note_off_c, 0, 84, 64
1, 21025, Note_off_c, 0, 85, 64
1, 21025, Note_off_c, 0, 88, 64
1, 21025, Note_off_c, 0, 92, 64
1, 21025, Note_off_c, 0, 98, 64
1, 21026, Note_on_c, 0, 45, 93
1, 21026, Note_off_c, 0, 48, 64
1, 21026, Note_off_c, 0, 70, 64
1, 21026, Note_off_c, 0, 81, 64
1, 21027, Note_on_c, 0, 42, 98
1, 21027, Note_off_c, 0, 45, 64
1, 21027, Note_off_c, 0, 77, 64
1, 21027, Note_on_c, 0, 78, 10
1, 21027, Note_on_c, 0, 90, 19
1, 21028, Note_on_c, 0, 40, 98
1, 21028, Note_off_c, 0, 42, 64
1, 21028, Note_on_c, 0, 88, 32
1, 21029, Note_on_c, 0, 38, 97
1, 21029, Note_off_c, 0, 40, 64
1, 21029, Note_on_c, 0, 84, 24
1, 21030, Note_on_c, 0, 37, 97
1, 21030, Note_off_c, 0, 38, 64
1, 21030, Note_off_c, 0, 73, 64
1, 21030, Note_off_c, 0, 78, 64
1, 21030, Note_on_c, 0, 81, 34
1, 21031, Note_on_c, 0, 35, 96
1, 21031, Note_off_c, 0, 37, 64
1, 21031, Note_off_c, 0, 83, 64
1, 21032, Note_on_c, 0, 34, 95
1, 21032, Note_off_c, 0, 35, 64
1, 21032, Note_off_c, 0, 87, 64
1, 21032, Note_on_c, 0, 92, 17
1, 21033, Note_on_c, 0, 80, 32
1, 21033, Note_off_c, 0, 81, 64
1, 21033, Note_on_c, 0, 83, 41
1, 21033, Note_off_c, 0, 84, 64
1, 21034, Note_on_c, 0, 33, 94
1, 21034, Note_off_c, 0, 34, 64
1, 21034, Note_on_c, 0, 48, 31
1, 21034, Note_on_c, 0, 73, 21
1, 21034, Note_on_c, 0, 81, 41
1, 21035, Note_on_c, 0, 32, 96
1, 21035, Note_off_c, 0, 33, 64
1, 21035, Note_on_c, 0, 79, 31
1, 21035, Note_off_c, 0, 80, 64
1, 21035, Note_off_c, 0, 90, 64
1, 21036, Note_off_c, 0, 48, 64
1, 21036, Note_on_c, 0, 86, 25
1, 21037, Note_on_c, 0, 31, 95
1, 21037, Note_off_c, 0, 32, 64
1, 21037, Note_on_c, 0, 77, 30
1, 21037, Note_off_c, 0, 79, 64
1, 21037, Note_on_c, 0, 85, 51
1, 21037, Note_on_c, 0, 89, 32
1, 21037, Note_off_c, 0, 92, 64
1, 21038, Note_on_c, 0, 30, 91
1, 21038, Note_off_c, 0, 31, 64
1, 21038, Note_on_c, 0, 72, 25
1, 21038, Note_off_c, 0, 73, 64
1, 21038, Note_off_c, 0, 88, 64
1, 21038, Note_on_c, 0, 91, 23
1, 21039, Note_on_c, 0, 80, 36
1, 21039, Note_off_c, 0, 81, 64
1, 21039, Note_on_c, 0, 82, 39
1, 21039, Note_off_c, 0, 83, 64
1, 21039, Note_off_c, 0, 86, 64
1, 21039, Note_on_c, 0, 87, 19
1, 21040, Note_on_c, 0, 75, 27
1, 21040, Note_on_c, 0, 78, 34
1, 21041, Note_off_c, 0, 30, 64
1, 21041, Note_on_c, 0, 71, 19
1, 21041, Note_off_c, 0, 80, 64
1, 21041, Note_on_c, 0, 96, 21
1, 21042, Note_off_c, 0, 72, 64
1, 21042, Note_off_c, 0, 77, 64
1, 21042, Note_on_c, 0, 81, 36
1, 21042, Note_on_c, 0, 86, 30
1, 21042, Note_on_c, 0, 99, 23
1, 21042, Note_on_c, 0, 100, 16
1, 21043, Note_on_c, 0, 31, 68
1, 21043, Note_on_c, 0, 61, 34
1, 21043, Note_on_c, 0, 68, 20
1, 21043, Note_on_c, 0, 80, 34
1, 21043, Note_off_c, 0, 82, 64
1, 21043, Note_on_c, 0, 84, 51
1, 21043, Note_off_c, 0, 85, 64
1, 21043, Note_on_c, 0, 88, 28
1, 21043, Note_on_c, 0, 94, 16
1, 21044, Note_on_c, 0, 30, 78
1, 21044, Note_off_c, 0, 31, 64
1, 21044, Note_on_c, 0, 64, 29
1, 21044, Note_off_c, 0, 75, 64
1, 21044, Note_off_c, 0, 81, 64
1, 21044, Note_off_c, 0, 87, 64
1, 21045, Note_on_c, 0, 29, 80
1, 21045, Note_off_c, 0, 30, 64
1, 21045, Note_off_c, 0, 71, 64
1, 21045, Note_on_c, 0, 76, 38
1, 21045, Note_off_c, 0, 86, 64
1, 21045, Note_off_c, 0, 99, 64
1, 21046, Note_off_c, 0, 64, 64
1, 21046, Note_off_c, 0, 84, 64
1, 21046, Note_off_c, 0, 91, 64
1, 21046, Note_off_c, 0, 100, 64
1, 21047, Note_off_c, 0, 29, 64
1, 21047, Note_on_c, 0, 30, 77
1, 21047, Note_on_c, 0, 48, 56
1, 21047, Note_on_c, 0, 72, 30
1, 21047, Note_on_c, 0, 82, 19
1, 21047, Note_on_c, 0, 84, 35
1, 21047, Note_on_c, 0, 86, 13
1, 21047, Note_on_c, 0, 95, 13
1, 21047, Note_off_c, 0, 96, 64
1, 21048, Note_off_c, 0, 61, 64
1, 21048, Note_off_c, 0, 68, 64
1, 21048, Note_on_c, 0, 79, 23
1, 21048, Note_off_c, 0, 80, 64
1, 21048, Note_off_c, 0, 94, 64
1, 21049, Note_on_c, 0, 29, 72
1, 21049, Note_off_c, 0, 30, 64
1, 21049, Note_off_c, 0, 48, 64
1, 21049, Note_on_c, 0, 70, 34
1, 21049, Note_off_c, 0, 72, 64
1, 21049, Note_on_c, 0, 73, 28
1, 21049, Note_on_c, 0, 77, 27
1, 21049, Note_off_c, 0, 78, 64
1, 21050, Note_off_c, 0, 76, 64
1, 21051, Note_off_c, 0, 29, 64
1, 21051, Note_on_c, 0, 30, 65
1, 21051, Note_off_c, 0, 70, 64
1, 21051, Note_on_c, 0, 85, 30
1, 21051, Note_on_c, 0, 87, 38
1, 21051, Note_off_c, 0, 89, 64
1, 21051, Note_on_c, 0, 90, 24
1, 21051, Note_off_c, 0, 95, 64
1, 21052, Note_off_c, 0, 30, 64
1, 21052, Note_off_c, 0, 73, 64
1, 21052, Note_on_c, 0, 74, 25
1, 21052, Note_off_c, 0, 77, 64
1, 21052, Note_on_c, 0, 78, 24
1, 21052, Note_off_c, 0, 79, 64
1, 21052, Note_off_c, 0, 86, 64
1, 21052, Note_on_c, 0, 98, 13
1, 21053, Note_on_c, 0, 35, 68
1, 21053, Note_on_c, 0, 68, 28
1, 21053, Note_on_c, 0, 71, 45
1, 21053, Note_off_c, 0, 82, 64
1, 21053, Note_on_c, 0, 91, 15
1, 21054, Note_on_c, 0, 31, 74
1, 21054, Note_off_c, 0, 35, 64
1, 21054, Note_on_c, 0, 75, 29
1, 21054, Note_off_c, 0, 84, 64
1, 21055, Note_on_c, 0, 30, 80
1, 21055, Note_off_c, 0, 31, 64
1, 21055, Note_off_c, 0, 74, 64
1, 21055, Note_on_c, 0, 79, 18
1, 21055, Note_on_c, 0, 86, 20
1, 21055, Note_off_c, 0, 98, 64
1, 21056, Note_on_c, 0, 29, 81
1, 21056, Note_off_c, 0, 30, 64
1, 21056, Note_off_c, 0, 68, 64
1, 21056, Note_off_c, 0, 91, 64
1, 21057, Note_off_c, 0, 29, 64
1, 21057, Note_on_c, 0, 30, 78
1, 21057, Note_on_c, 0, 68, 23
1, 21057, Note_off_c, 0, 78, 64
1, 21057, Note_on_c, 0, 82, 35
1, 21057, Note_on_c, 0, 84, 20
1, 21057, Note_off_c, 0, 85, 64
1, 21058, Note_on_c, 0, 54, 58
1, 21058, Note_on_c, 0, 63, 38
1, 21058, Note_off_c, 0, 71, 64
1, 21058, Note_on_c, 0, 74, 38
1, 21058, Note_off_c, 0, 86, 64
1, 21059, Note_off_c, 0, 30, 64
1, 21059, Note_on_c, 0, 70, 39
1, 21059, Note_off_c, 0, 75, 64
1, 21059, Note_on_c, 0, 78, 38
1, 21059, Note_off_c, 0, 79, 64
1, 21059, Note_on_c, 0, 85, 35
1, 21059, Note_on_c, 0, 89, 28
1, 21059, Note_on_c, 0, 91, 34
1, 21060, Note_off_c, 0, 68, 64
1, 21060, Note_on_c, 0, 77, 31
1, 21060, Note_off_c, 0, 84, 64
1, 21060, Note_off_c, 0, 88, 64
1, 21060, Note_off_c, 0, 90, 64
1, 21060, Note_on_c, 0, 92, 29
1, 21060, Note_on_c, 0, 96, 21
1, 21061, Note_off_c, 0, 63, 64
1, 21061, Note_on_c, 0, 64, 53
1, 21061, Note_on_c, 0, 69, 44
1, 21061, Note_off_c, 0, 70, 64
1, 21061, Note_on_c, 0, 71, 42
1, 21061, Note_on_c, 0, 73, 40
1, 21061, Note_off_c, 0, 74, 64
1, 21061, Note_on_c, 0, 75, 40
1, 21061, Note_on_c, 0, 79, 35
1, 21061, Note_on_c, 0, 84, 42
1, 21061, Note_off_c, 0, 87, 64
1, 21062, Note_on_c, 0, 51, 76
1, 21062, Note_off_c, 0, 54, 64
1, 21062, Note_off_c, 0, 92, 64
1, 21063, Note_on_c, 0, 46, 87
1, 21063, Note_off_c, 0, 51, 64
1, 21063, Note_off_c, 0, 73, 64
1, 21063, Note_off_c, 0, 78, 64
1, 21063, Note_off_c, 0, 91, 64
1, 21064, Note_on_c, 0, 43, 94
1, 21064, Note_off_c, 0, 46, 64
1, 21064, Note_off_c, 0, 64, 64
1, 21064, Note_off_c, 0, 69, 64
1, 21064, Note_off_c, 0, 71, 64
1, 21064, Note_off_c, 0, 77, 64
1, 21064, Note_off_c, 0, 85, 64
1, 21064, Note_on_c, 0, 86, 20
1, 21064, Note_on_c, 0, 88, 19
1, 21064, Note_off_c, 0, 89, 64
1, 21064, Note_off_c, 0, 96, 64
1, 21065, Note_on_c, 0, 41, 99
1, 21065, Note_off_c, 0, 43, 64
1, 21065, Note_on_c, 0, 69, 19
1, 21065, Note_off_c, 0, 75, 64
1, 21065, Note_on_c, 0, 90, 13
1, 21066, Note_on_c, 0, 39, 96
1, 21066, Note_off_c, 0, 41, 64
1, 21066, Note_on_c, 0, 73, 18
1, 21066, Note_off_c, 0, 79, 64
1, 21066, Note_on_c, 0, 80, 32
1, 21066, Note_off_c, 0, 82, 64
1, 21066, Note_off_c, 0, 84, 64
1, 21066, Note_on_c, 0, 87, 23
1, 21066, Note_on_c, 0, 93, 12
1, 21067, Note_on_c, 0, 37, 98
1, 21067, Note_off_c, 0, 39, 64
1, 21067, Note_on_c, 0, 84, 23
1, 21068, Note_on_c, 0, 36, 97
1, 21068, Note_off_c, 0, 37, 64
1, 21068, Note_off_c, 0, 69, 64
1, 21068, Note_off_c, 0, 86, 64
1, 21068, Note_off_c, 0, 88, 64
1, 21069, Note_on_c, 0, 35, 96
1, 21069, Note_off_c, 0, 36, 64
1, 21069, Note_off_c, 0, 73, 64
1, 21069, Note_on_c, 0, 78, 17
1, 21069, Note_on_c, 0, 82, 32
1, 21069, Note_on_c, 0, 88, 16
1, 21069, Note_off_c, 0, 90, 64
1, 21069, Note_on_c, 0, 95, 26
1, 21070, Note_on_c, 0, 34, 95
1, 21070, Note_off_c, 0, 35, 64
1, 21070, Note_off_c, 0, 87, 64
1, 21070, Note_on_c, 0, 91, 15
1, 21070, Note_off_c, 0, 93, 64
1, 21070, Note_on_c, 0, 97, 18
1, 21071, Note_on_c, 0, 33, 95
1, 21071, Note_off_c, 0, 34, 64
1, 21071, Note_on_c, 0, 81, 21
1, 21071, Note_on_c, 0, 89, 17
1, 21072, Note_on_c, 0, 75, 20
1, 21072, Note_off_c, 0, 80, 64
1, 21072, Note_off_c, 0, 82, 64
1, 21072, Note_off_c, 0, 95, 64
1, 21073, Note_on_c, 0, 32, 96
1, 21073, Note_off_c, 0, 33, 64
1, 21073, Note_off_c, 0, 88, 64
1, 21073, Note_off_c, 0, 97, 64
1, 21074, Note_on_c, 0, 31, 96
1, 21074, Note_off_c, 0, 32, 64
1, 21074, Note_off_c, 0, 78, 64
1, 21074, Note_off_c, 0, 81, 64
1, 21074, Note_off_c, 0, 91, 64
1, 21075, Note_off_c, 0, 75, 64
1, 21075, Note_on_c, 0, 76, 28
1, 21075, Note_on_c, 0, 86, 27
1, 21076, Note_on_c, 0, 30, 88
1, 21076, Note_off_c, 0, 31, 64
1, 21076, Note_on_c, 0, 72, 12
1, 21077, Note_on_c, 0, 74, 18
1, 21077, Note_on_c, 0, 79, 27
1, 21077, Note_on_c, 0, 81, 19
1, 21077, Note_on_c, 0, 87, 27
1, 21078, Note_off_c, 0, 30, 64
1, 21078, Note_off_c, 0, 76, 64
1, 21078, Note_on_c, 0, 77, 18
1, 21078, Note_off_c, 0, 84, 64
1, 21079, Note_on_c, 0, 64, 24
1, 21079, Note_off_c, 0, 72, 64
1, 21080, Note_on_c, 0, 37, 70
1, 21080, Note_on_c, 0, 61, 25
1, 21080, Note_off_c, 0, 74, 64
1, 21081, Note_on_c, 0, 31, 76
1, 21081, Note_off_c, 0, 37, 64
1, 21081, Note_on_c, 0, 49, 57
1, 21081, Note_off_c, 0, 79, 64
1, 21081, Note_off_c, 0, 89, 64
1, 21082, Note_on_c, 0, 30, 80
1, 21082, Note_off_c, 0, 31, 64
1, 21082, Note_on_c, 0, 68, 15
1, 21082, Note_on_c, 0, 70, 9
1, 21082, Note_on_c, 0, 80, 18
1, 21082, Note_off_c, 0, 81, 64
1, 21083, Note_on_c, 0, 29, 79
1, 21083, Note_off_c, 0, 30, 64
1, 21083, Note_off_c, 0, 64, 64
1, 21083, Note_on_c, 0, 71, 26
1, 21083, Note_off_c, 0, 77, 64
1, 21083, Note_on_c, 0, 79, 20
1, 21083, Note_on_c, 0, 83, 31
1, 21084, Note_off_c, 0, 49, 64
1, 21084, Note_off_c, 0, 86, 64
1, 21085, Note_off_c, 0, 29, 64
1, 21085, Note_on_c, 0, 30, 75
1, 21085, Note_on_c, 0, 49, 50
1, 21085, Note_off_c, 0, 61, 64
1, 21085, Note_off_c, 0, 70, 64
1, 21085, Note_off_c, 0, 80, 64
1, 21085, Note_on_c, 0, 88, 24
1, 21086, Note_off_c, 0, 71, 64
1, 21086, Note_on_c, 0, 81, 23
1, 21086, Note_on_c, 0, 89, 18
1, 21087, Note_on_c, 0, 29, 73
1, 21087, Note_off_c, 0, 30, 64
1, 21087, Note_off_c, 0, 68, 64
1, 21087, Note_off_c, 0, 83, 64
1, 21087, Note_off_c, 0, 87, 64
1, 21088, Note_off_c, 0, 29, 64
1, 21088, Note_on_c, 0, 30, 70
1, 21088, Note_off_c, 0, 49, 64
1, 21088, Note_on_c, 0, 85, 30
1, 21088, Note_on_c, 0, 86, 32
1, 21088, Note_on_c, 0, 92, 19
1, 21089, Note_off_c, 0, 81, 64
1, 21090, Note_off_c, 0, 30, 64
1, 21090, Note_on_c, 0, 71, 24
1, 21090, Note_on_c, 0, 74, 23
1, 21090, Note_on_c, 0, 78, 19
1, 21090, Note_off_c, 0, 79, 64
1, 21090, Note_on_c, 0, 81, 31
1, 21090, Note_on_c, 0, 83, 39
1, 21091, Note_on_c, 0, 36, 72
1, 21091, Note_on_c, 0, 61, 28
1, 21091, Note_on_c, 0, 64, 29
1, 21091, Note_off_c, 0, 89, 64
1, 21091, Note_off_c, 0, 92, 64
1, 21092, Note_on_c, 0, 30, 80
1, 21092, Note_off_c, 0, 36, 64
1, 21092, Note_on_c, 0, 48, 57
1, 21093, Note_on_c, 0, 29, 81
1, 21093, Note_off_c, 0, 30, 64
1, 21093, Note_off_c, 0, 71, 64
1, 21093, Note_on_c, 0, 77, 24
1, 21094, Note_off_c, 0, 61, 64
1, 21094, Note_on_c, 0, 63, 22
1, 21094, Note_off_c, 0, 64, 64
1, 21094, Note_off_c, 0, 78, 64
1, 21095, Note_off_c, 0, 29, 64
1, 21095, Note_on_c, 0, 30, 75
1, 21095, Note_off_c, 0, 74, 64
1, 21095, Note_on_c, 0, 82, 38
1, 21095, Note_on_c, 0, 87, 22
1, 21095, Note_off_c, 0, 88, 64
1, 21096, Note_off_c, 0, 30, 64
1, 21096, Note_on_c, 0, 31, 66
1, 21096, Note_off_c, 0, 48, 64
1, 21096, Note_off_c, 0, 77, 64
1, 21096, Note_on_c, 0, 80, 29
1, 21096, Note_off_c, 0, 81, 64
1, 21096, Note_on_c, 0, 88, 34
1, 21097, Note_off_c, 0, 31, 64
1, 21097, Note_on_c, 0, 54, 46
1, 21097, Note_off_c, 0, 63, 64
1, 21097, Note_on_c, 0, 72, 40
1, 21097, Note_on_c, 0, 76, 38
1, 21097, Note_on_c, 0, 90, 29
1, 21097, Note_on_c, 0, 91, 25
1, 21097, Note_on_c, 0, 93, 23
1, 21097, Note_on_c, 0, 97, 36
1, 21097, Note_on_c, 0, 101, 33
1, 21098, Note_on_c, 0, 77, 38
1, 21098, Note_off_c, 0, 80, 64
1, 21098, Note_off_c, 0, 87, 64
1, 21098, Note_on_c, 0, 99, 17
1, 21099, Note_on_c, 0, 53, 70
1, 21099, Note_off_c, 0, 54, 64
1, 21099, Note_on_c, 0, 62, 48
1, 21099, Note_on_c, 0, 75, 31
1, 21099, Note_on_c, 0, 80, 20
1, 21099, Note_on_c, 0, 81, 31
1, 21099, Note_off_c, 0, 82, 64
1, 21100, Note_on_c, 0, 48, 84
1, 21100, Note_off_c, 0, 53, 64
1, 21100, Note_off_c, 0, 72, 64
1, 21100, Note_off_c, 0, 76, 64
1, 21100, Note_off_c, 0, 77, 64
1, 21100, Note_on_c, 0, 78, 20
1, 21100, Note_off_c, 0, 93, 64
1, 21100, Note_off_c, 0, 101, 64
1, 21101, Note_on_c, 0, 45, 94
1, 21101, Note_off_c, 0, 48, 64
1, 21101, Note_off_c, 0, 75, 64
1, 21101, Note_on_c, 0, 84, 21
1, 21101, Note_off_c, 0, 85, 64
1, 21101, Note_off_c, 0, 86, 64
1, 21101, Note_off_c, 0, 97, 64
1, 21101, Note_off_c, 0, 99, 64
1, 21102, Note_on_c, 0, 42, 99
1, 21102, Note_off_c, 0, 45, 64
1, 21102, Note_off_c, 0, 62, 64
1, 21102, Note_off_c, 0, 80, 64
1, 21102, Note_off_c, 0, 88, 64
1, 21102, Note_off_c, 0, 91, 64
1, 21103, Note_on_c, 0, 40, 98
1, 21103, Note_off_c, 0, 42, 64
1, 21103, Note_off_c, 0, 78, 64
1, 21103, Note_on_c, 0, 80, 14
1, 21103, Note_off_c, 0, 81, 64
1, 21103, Note_off_c, 0, 83, 64
1, 21103, Note_on_c, 0, 85, 15
1, 21104, Note_on_c, 0, 38, 98
1, 21104, Note_off_c, 0, 40, 64
1, 21104, Note_on_c, 0, 71, 15
1, 21104, Note_off_c, 0, 84, 64
1, 21105, Note_on_c, 0, 37, 98
1, 21105, Note_off_c, 0, 38, 64
1, 21106, Note_on_c, 0, 35, 97
1, 21106, Note_off_c, 0, 37, 64
1, 21106, Note_on_c, 0, 84, 13
1, 21107, Note_on_c, 0, 34, 96
1, 21107, Note_off_c, 0, 35, 64
1, 21107, Note_on_c, 0, 76, 11
1, 21107, Note_on_c, 0, 78, 12
1, 21108, Note_on_c, 0, 33, 95
1, 21108, Note_off_c, 0, 34, 64
1, 21108, Note_off_c, 0, 71, 64
1, 21108, Note_off_c, 0, 80, 64
1, 21108, Note_on_c, 0, 87, 17
1, 21109, Note_off_c, 0, 84, 64
1, 21110, Note_on_c, 0, 32, 96
1, 21110, Note_off_c, 0, 33, 64
1, 21110, Note_on_c, 0, 71, 22
1, 21110, Note_off_c, 0, 76, 64
1, 21111, Note_off_c, 0, 90, 64
1, 21112, Note_on_c, 0, 31, 95
1, 21112, Note_off_c, 0, 32, 64
1, 21112, Note_on_c, 0, 48, 28
1, 21112, Note_on_c, 0, 75, 9
1, 21113, Note_on_c, 0, 30, 91
1, 21113, Note_off_c, 0, 31, 64
1, 21113, Note_off_c, 0, 78, 64
1, 21113, Note_on_c, 0, 88, 22
1, 21114, Note_off_c, 0, 71, 64
1, 21114, Note_off_c, 0, 87, 64
1, 21115, Note_off_c, 0, 48, 64
1, 21115, Note_on_c, 0, 84, 19
1, 21115, Note_off_c, 0, 85, 64
1, 21116, Note_off_c, 0, 30, 64
1, 21116, Note_on_c, 0, 44, 65
1, 21116, Note_off_c, 0, 75, 64
1, 21116, Note_on_c, 0, 76, 16
1, 21116, Note_on_c, 0, 86, 19
1, 21117, Note_on_c, 0, 79, 21
1, 21117, Note_off_c, 0, 88, 64
1, 21118, Note_on_c, 0, 31, 72
1, 21118, Note_off_c, 0, 44, 64
1, 21118, Note_on_c, 0, 61, 30
1, 21118, Note_on_c, 0, 70, 20
1, 21119, Note_on_c, 0, 30, 79
1, 21119, Note_off_c, 0, 31, 64
1, 21119, Note_off_c, 0, 76, 64
1, 21120, Note_on_c, 0, 29, 80
1, 21120, Note_off_c, 0, 30, 64
1, 21121, Note_off_c, 0, 61, 64
1, 21121, Note_off_c, 0, 70, 64
1, 21121, Note_off_c, 0, 79, 64
1, 21121, Note_on_c, 0, 80, 17
1, 21121, Note_on_c, 0, 83, 22
1, 21122, Note_off_c, 0, 29, 64
1, 21122, Note_on_c, 0, 30, 75
1, 21122, Note_off_c, 0, 84, 64
1, 21123, Note_off_c, 0, 86, 64
1, 21124, Note_on_c, 0, 29, 74
1, 21124, Note_off_c, 0, 30, 64
1, 21126, Note_off_c, 0, 29, 64
1, 21126, Note_on_c, 0, 30, 67
1, 21126, Note_off_c, 0, 80, 64
1, 21126, Note_on_c, 0, 81, 14
1, 21126, Note_on_c, 0, 92, 15
1, 21127, Note_on_c, 0, 87, 13
1, 21127, Note_on_c, 0, 89, 19
1, 21128, Note_off_c, 0, 30, 64
1, 21128, Note_on_c, 0, 35, 70
1, 21128, Note_on_c, 0, 61, 30
1, 21128, Note_on_c, 0, 68, 19
1, 21128, Note_on_c, 0, 84, 32
1, 21129, Note_on_c, 0, 31, 77
1, 21129, Note_off_c, 0, 35, 64
1, 21129, Note_on_c, 0, 49, 61
1, 21129, Note_on_c, 0, 86, 20
1, 21129, Note_off_c, 0, 92, 64
1, 21130, Note_on_c, 0, 29, 82
1, 21130, Note_off_c, 0, 31, 64
1, 21130, Note_off_c, 0, 81, 64
1, 21130, Note_off_c, 0, 87, 64
1, 21130, Note_on_c, 0, 88, 26
1, 21131, Note_off_c, 0, 89, 64
1, 21132, Note_off_c, 0, 29, 64
1, 21132, Note_on_c, 0, 30, 78
1, 21133, Note_on_c, 0, 54, 41
1, 21133, Note_off_c, 0, 61, 64
1, 21133, Note_off_c, 0, 68, 64
1, 21133, Note_on_c, 0, 78, 31
1, 21133, Note_off_c, 0, 83, 64
1, 21133, Note_on_c, 0, 93, 29
1, 21134, Note_off_c, 0, 30, 64
1, 21134, Note_on_c, 0, 90, 33
1, 21134, Note_on_c, 0, 91, 27
1, 21134, Note_on_c, 0, 92, 27
1, 21135, Note_off_c, 0, 49, 64
1, 21135, Note_off_c, 0, 54, 64
1, 21135, Note_on_c, 0, 69, 42
1, 21135, Note_on_c, 0, 73, 41
1, 21135, Note_on_c, 0, 80, 30
1, 21135, Note_on_c, 0, 82, 32
1, 21135, Note_on_c, 0, 83, 33
1, 21135, Note_on_c, 0, 87, 29
1, 21136, Note_on_c, 0, 54, 65
1, 21136, Note_on_c, 0, 77, 29
1, 21136, Note_off_c, 0, 78, 64
1, 21136, Note_off_c, 0, 88, 64
1, 21137, Note_on_c, 0, 50, 77
1, 21137, Note_off_c, 0, 54, 64
1, 21137, Note_off_c, 0, 83, 64
1, 21137, Note_off_c, 0, 86, 64
1, 21137, Note_off_c, 0, 90, 64
1, 21137, Note_off_c, 0, 91, 64
1, 21137, Note_off_c, 0, 92, 64
1, 21137, Note_off_c, 0, 93, 64
1, 21138, Note_on_c, 0, 46, 89
1, 21138, Note_off_c, 0, 50, 64
1, 21138, Note_off_c, 0, 69, 64
1, 21138, Note_off_c, 0, 73, 64
1, 21138, Note_off_c, 0, 77, 64
1, 21138, Note_off_c, 0, 84, 64
1, 21139, Note_on_c, 0, 42, 95
1, 21139, Note_off_c, 0, 46, 64
1, 21140, Note_on_c, 0, 41, 99
1, 21140, Note_off_c, 0, 42, 64
1, 21140, Note_off_c, 0, 82, 64
1, 21140, Note_on_c, 0, 83, 15
1, 21140, Note_on_c, 0, 88, 15
1, 21141, Note_on_c, 0, 39, 97
1, 21141, Note_off_c, 0, 41, 64
1, 21141, Note_off_c, 0, 80, 64
1, 21142, Note_on_c, 0, 37, 98
1, 21142, Note_off_c, 0, 39, 64
1, 21143, Note_on_c, 0, 36, 98
1, 21143, Note_off_c, 0, 37, 64
1, 21143, Note_off_c, 0, 83, 64
1, 21144, Note_on_c, 0, 35, 96
1, 21144, Note_off_c, 0, 36, 64
1, 21144, Note_off_c, 0, 88, 64
1, 21145, Note_on_c, 0, 34, 95
1, 21145, Note_off_c, 0, 35, 64
1, 21146, Note_on_c, 0, 33, 95
1, 21146, Note_off_c, 0, 34, 64
1, 21146, Note_off_c, 0, 87, 64
1, 21147, Note_on_c, 0, 32, 96
1, 21147, Note_off_c, 0, 33, 64
1, 21149, Note_on_c, 0, 31, 96
1, 21149, Note_off_c, 0, 32, 64
1, 21150, Note_on_c, 0, 81, 21
1, 21151, Note_on_c, 0, 30, 88
1, 21151, Note_off_c, 0, 31, 64
1, 21153, Note_off_c, 0, 30, 64
1, 21153, Note_off_c, 0, 81, 64
1, 21153, Note_on_c, 0, 82, 29
1, 21154, Note_on_c, 0, 78, 40
1, 21154, Note_on_c, 0, 85, 43
1, 21154, Note_on_c, 0, 89, 24
1, 21154, Note_on_c, 0, 91, 18
1, 21154, Note_on_c, 0, 95, 21
1, 21154, Note_on_c, 0, 99, 18
1, 21155, Note_on_c, 0, 37, 70
1, 21155, Note_on_c, 0, 61, 32
1, 21155, Note_on_c, 0, 64, 33
1, 21155, Note_on_c, 0, 80, 25
1, 21155, Note_on_c, 0, 83, 36
1, 21155, Note_on_c, 0, 86, 20
1, 21155, Note_on_c, 0, 96, 19
1, 21156, Note_on_c, 0, 30, 79
1, 21156, Note_off_c, 0, 37, 64
1, 21156, Note_on_c, 0, 71, 17
1, 21156, Note_on_c, 0, 81, 31
1, 21156, Note_on_c, 0, 88, 28
1, 21157, Note_on_c, 0, 68, 15
1, 21157, Note_off_c, 0, 82, 64
1, 21157, Note_on_c, 0, 84, 34
1, 21157, Note_off_c, 0, 85, 64
1, 21157, Note_off_c, 0, 91, 64
1, 21157, Note_off_c, 0, 95, 64
1, 21157, Note_off_c, 0, 99, 64
1, 21158, Note_on_c, 0, 29, 78
1, 21158, Note_off_c, 0, 30, 64
1, 21158, Note_on_c, 0, 49, 57
1, 21158, Note_on_c, 0, 63, 17
1, 21158, Note_off_c, 0, 64, 64
1, 21158, Note_off_c, 0, 80, 64
1, 21158, Note_off_c, 0, 86, 64
1, 21159, Note_off_c, 0, 61, 64
1, 21159, Note_on_c, 0, 82, 24
1, 21159, Note_off_c, 0, 88, 64
1, 21159, Note_off_c, 0, 96, 64
1, 21160, Note_off_c, 0, 29, 64
1, 21160, Note_on_c, 0, 30, 74
1, 21160, Note_on_c, 0, 77, 38
1, 21160, Note_off_c, 0, 89, 64
1, 21161, Note_off_c, 0, 49, 64
1, 21161, Note_off_c, 0, 63, 64
1, 21161, Note_off_c, 0, 68, 64
1, 21161, Note_on_c, 0, 69, 19
1, 21161, Note_off_c, 0, 78, 64
1, 21161, Note_on_c, 0, 80, 19
1, 21161, Note_off_c, 0, 83, 64
1, 21161, Note_on_c, 0, 91, 14
1, 21162, Note_on_c, 0, 29, 71
1, 21162, Note_off_c, 0, 30, 64
1, 21162, Note_off_c, 0, 82, 64
1, 21163, Note_off_c, 0, 29, 64
1, 21163, Note_on_c, 0, 30, 69
1, 21163, Note_off_c, 0, 81, 64
1, 21164, Note_on_c, 0, 68, 28
1, 21164, Note_off_c, 0, 69, 64
1, 21164, Note_off_c, 0, 71, 64
1, 21164, Note_on_c, 0, 72, 28
1, 21164, Note_on_c, 0, 81, 30
1, 21164, Note_on_c, 0, 82, 41
1, 21164, Note_on_c, 0, 87, 19
1, 21164, Note_on_c, 0, 90, 16
1, 21165, Note_off_c, 0, 30, 64
1, 21165, Note_on_c, 0, 78, 25
1, 21166, Note_on_c, 0, 36, 71
1, 21166, Note_on_c, 0, 61, 30
1, 21166, Note_on_c, 0, 64, 28
1, 21166, Note_off_c, 0, 80, 64
1, 21166, Note_off_c, 0, 91, 64
1, 21167, Note_on_c, 0, 30, 79
1, 21167, Note_off_c, 0, 36, 64
1, 21167, Note_off_c, 0, 77, 64
1, 21167, Note_off_c, 0, 90, 64
1, 21168, Note_on_c, 0, 29, 81
1, 21168, Note_off_c, 0, 30, 64
1, 21168, Note_on_c, 0, 70, 22
1, 21168, Note_on_c, 0, 79, 16
1, 21169, Note_off_c, 0, 61, 64
1, 21169, Note_off_c, 0, 64, 64
1, 21169, Note_off_c, 0, 68, 64
1, 21169, Note_off_c, 0, 72, 64
1, 21169, Note_off_c, 0, 84, 64
1, 21170, Note_off_c, 0, 29, 64
1, 21170, Note_on_c, 0, 30, 75
1, 21170, Note_on_c, 0, 74, 24
1, 21170, Note_on_c, 0, 77, 26
1, 21170, Note_off_c, 0, 78, 64
1, 21171, Note_off_c, 0, 30, 64
1, 21171, Note_off_c, 0, 70, 64
1, 21171, Note_off_c, 0, 81, 64
1, 21171, Note_off_c, 0, 87, 64
1, 21171, Note_on_c, 0, 88, 26
1, 21171, Note_on_c, 0, 102, 18
1, 21172, Note_on_c, 0, 75, 37
1, 21172, Note_off_c, 0, 79, 64
1, 21172, Note_on_c, 0, 81, 42
1, 21172, Note_on_c, 0, 85, 37
1, 21172, Note_on_c, 0, 89, 26
1, 21172, Note_on_c, 0, 90, 31
1, 21172, Note_on_c, 0, 91, 32
1, 21172, Note_on_c, 0, 92, 27
1, 21172, Note_on_c, 0, 95, 25
1, 21172, Note_on_c, 0, 96, 20
1, 21173, Note_off_c, 0, 74, 64
1, 21173, Note_off_c, 0, 77, 64
1, 21173, Note_on_c, 0, 79, 38
1, 21174, Note_on_c, 0, 53, 71
1, 21174, Note_on_c, 0, 80, 31
1, 21174, Note_on_c, 0, 84, 21
1, 21174, Note_on_c, 0, 86, 18
1, 21174, Note_off_c, 0, 102, 64
1, 21175, Note_on_c, 0, 48, 84
1, 21175, Note_off_c, 0, 53, 64
1, 21175, Note_off_c, 0, 88, 64
1, 21175, Note_off_c, 0, 89, 64
1, 21175, Note_off_c, 0, 90, 64
1, 21175, Note_off_c, 0, 91, 64
1, 21175, Note_off_c, 0, 95, 64
1, 21175, Note_off_c, 0, 96, 64
1, 21176, Note_on_c, 0, 45, 94
1, 21176, Note_off_c, 0, 48, 64
1, 21176, Note_off_c, 0, 80, 64
1, 21176, Note_off_c, 0, 85, 64
1, 21177, Note_on_c, 0, 42, 99
1, 21177, Note_off_c, 0, 45, 64
1, 21177, Note_off_c, 0, 75, 64
1, 21177, Note_on_c, 0, 76, 18
1, 21177, Note_off_c, 0, 82, 64
1, 21177, Note_off_c, 0, 92, 64
1, 21178, Note_on_c, 0, 40, 97
1, 21178, Note_off_c, 0, 42, 64
1, 21178, Note_on_c, 0, 75, 20
1, 21179, Note_on_c, 0, 38, 98
1, 21179, Note_off_c, 0, 40, 64
1, 21180, Note_on_c, 0, 36, 98
1, 21180, Note_off_c, 0, 38, 64
1, 21180, Note_off_c, 0, 76, 64
1, 21180, Note_on_c, 0, 80, 29
1, 21180, Note_off_c, 0, 81, 64
1, 21180, Note_off_c, 0, 84, 64
1, 21180, Note_off_c, 0, 86, 64
1, 21181, Note_on_c, 0, 35, 97
1, 21181, Note_off_c, 0, 36, 64
1, 21181, Note_on_c, 0, 78, 19
1, 21181, Note_on_c, 0, 88, 25
1, 21182, Note_on_c, 0, 34, 95
1, 21182, Note_off_c, 0, 35, 64
1, 21182, Note_off_c, 0, 79, 64
1, 21182, Note_on_c, 0, 84, 22
1, 21183, Note_on_c, 0, 33, 95
1, 21183, Note_off_c, 0, 34, 64
1, 21184, Note_off_c, 0, 78, 64
1, 21184, Note_on_c, 0, 85, 20
1, 21184, Note_on_c, 0, 87, 33
1, 21185, Note_on_c, 0, 32, 96
1, 21185, Note_off_c, 0, 33, 64
1, 21185, Note_off_c, 0, 75, 64
1, 21185, Note_on_c, 0, 79, 28
1, 21185, Note_off_c, 0, 84, 64
1, 21186, Note_on_c, 0, 31, 96
1, 21186, Note_off_c, 0, 32, 64
1, 21186, Note_on_c, 0, 83, 31
1, 21186, Note_on_c, 0, 90, 11
1, 21187, Note_on_c, 0, 89, 19
1, 21187, Note_on_c, 0, 94, 23
1, 21188, Note_on_c, 0, 30, 91
1, 21188, Note_off_c, 0, 31, 64
1, 21188, Note_on_c, 0, 77, 16
1, 21188, Note_off_c, 0, 80, 64
1, 21188, Note_on_c, 0, 81, 15
1, 21188, Note_on_c, 0, 93, 18
1, 21189, Note_on_c, 0, 75, 23
1, 21189, Note_off_c, 0, 83, 64
1, 21189, Note_on_c, 0, 84, 28
1, 21189, Note_off_c, 0, 85, 64
1, 21189, Note_on_c, 0, 86, 17
1, 21189, Note_off_c, 0, 90, 64
1, 21189, Note_on_c, 0, 97, 25
1, 21190, Note_on_c, 0, 83, 44
1, 21190, Note_on_c, 0, 90, 22
1, 21191, Note_off_c, 0, 30, 64
1, 21191, Note_on_c, 0, 43, 65
1, 21191, Note_on_c, 0, 70, 11
1, 21191, Note_on_c, 0, 76, 27
1, 21191, Note_off_c, 0, 77, 64
1, 21191, Note_on_c, 0, 85, 37
1, 21192, Note_on_c, 0, 61, 39
1, 21192, Note_off_c, 0, 81, 64
1, 21192, Note_off_c, 0, 84, 64
1, 21192, Note_off_c, 0, 86, 64
1, 21192, Note_off_c, 0, 89, 64
1, 21192, Note_on_c, 0, 92, 16
1, 21193, Note_on_c, 0, 31, 71
1, 21193, Note_off_c, 0, 43, 64
1, 21193, Note_on_c, 0, 71, 15
1, 21193, Note_on_c, 0, 74, 22
1, 21193, Note_off_c, 0, 75, 64
1, 21193, Note_on_c, 0, 78, 29
1, 21194, Note_on_c, 0, 30, 78
1, 21194, Note_off_c, 0, 31, 64
1, 21194, Note_on_c, 0, 68, 20
1, 21194, Note_off_c, 0, 70, 64
1, 21194, Note_off_c, 0, 79, 64
1, 21194, Note_on_c, 0, 80, 26
1, 21194, Note_on_c, 0, 82, 18
1, 21194, Note_on_c, 0, 84, 36
1, 21194, Note_off_c, 0, 90, 64
1, 21195, Note_on_c, 0, 29, 79
1, 21195, Note_off_c, 0, 30, 64
1, 21195, Note_off_c, 0, 76, 64
1, 21195, Note_off_c, 0, 83, 64
1, 21195, Note_off_c, 0, 94, 64
1, 21195, Note_on_c, 0, 103, 18
1, 21196, Note_off_c, 0, 61, 64
1, 21196, Note_off_c, 0, 71, 64
1, 21196, Note_off_c, 0, 74, 64
1, 21196, Note_on_c, 0, 76, 28
1, 21196, Note_on_c, 0, 83, 30
1, 21196, Note_off_c, 0, 84, 64
1, 21196, Note_off_c, 0, 93, 64
1, 21196, Note_on_c, 0, 102, 17
1, 21197, Note_off_c, 0, 29, 64
1, 21197, Note_on_c, 0, 30, 77
1, 21197, Note_on_c, 0, 77, 35
1, 21197, Note_off_c, 0, 85, 64
1, 21198, Note_off_c, 0, 68, 64
1, 21198, Note_on_c, 0, 74, 28
1, 21198, Note_off_c, 0, 78, 64
1, 21198, Note_on_c, 0, 81, 27
1, 21198, Note_off_c, 0, 82, 64
1, 21198, Note_off_c, 0, 97, 64
1, 21199, Note_on_c, 0, 29, 73
1, 21199, Note_off_c, 0, 30, 64
1, 21199, Note_on_c, 0, 66, 17
1, 21199, Note_off_c, 0, 77, 64
1, 21199, Note_off_c, 0, 80, 64
1, 21199, Note_off_c, 0, 83, 64
1, 21199, Note_on_c, 0, 84, 24
1, 21199, Note_off_c, 0, 102, 64
1, 21200, Note_off_c, 0, 29, 64
1, 21200, Note_on_c, 0, 30, 70
1, 21200, Note_on_c, 0, 62, 22
1, 21200, Note_off_c, 0, 87, 64
1, 21200, Note_off_c, 0, 92, 64
1, 21201, Note_off_c, 0, 76, 64
1, 21201, Note_on_c, 0, 77, 29
1, 21201, Note_off_c, 0, 81, 64
1, 21201, Note_on_c, 0, 94, 9
1, 21201, Note_off_c, 0, 103, 64
1, 21202, Note_off_c, 0, 30, 64
1, 21202, Note_off_c, 0, 66, 64
1, 21202, Note_on_c, 0, 71, 17
1, 21202, Note_off_c, 0, 74, 64
1, 21202, Note_on_c, 0, 79, 13
1, 21202, Note_off_c, 0, 84, 64
1, 21202, Note_on_c, 0, 86, 42
1, 21202, Note_off_c, 0, 88, 64
1, 21203, Note_on_c, 0, 41, 71
1, 21203, Note_on_c, 0, 61, 32
1, 21203, Note_off_c, 0, 62, 64
1, 21203, Note_on_c, 0, 64, 32
1, 21203, Note_on_c, 0, 87, 13
1, 21204, Note_on_c, 0, 30, 81
1, 21204, Note_off_c, 0, 41, 64
1, 21205, Note_off_c, 0, 64, 64
1, 21205, Note_off_c, 0, 94, 64
1, 21206, Note_on_c, 0, 29, 80
1, 21206, Note_off_c, 0, 30, 64
1, 21206, Note_off_c, 0, 71, 64
1, 21206, Note_off_c, 0, 79, 64
1, 21207, Note_off_c, 0, 29, 64
1, 21207, Note_on_c, 0, 30, 77
1, 21207, Note_on_c, 0, 48, 58
1, 21207, Note_off_c, 0, 61, 64
1, 21207, Note_off_c, 0, 77, 64
1, 21207, Note_off_c, 0, 87, 64
1, 21208, Note_on_c, 0, 54, 38
1, 21209, Note_off_c, 0, 30, 64
1, 21209, Note_on_c, 0, 69, 40
1, 21209, Note_on_c, 0, 74, 41
1, 21209, Note_on_c, 0, 83, 40
1, 21209, Note_on_c, 0, 87, 29
1, 21209, Note_on_c, 0, 88, 28
1, 21209, Note_on_c, 0, 91, 32
1, 21209, Note_on_c, 0, 94, 29
1, 21209, Note_on_c, 0, 96, 28
1, 21210, Note_off_c, 0, 54, 64
1, 21210, Note_on_c, 0, 80, 29
1, 21210, Note_on_c, 0, 82, 28
1, 21210, Note_on_c, 0, 97, 22
1, 21211, Note_off_c, 0, 48, 64
1, 21211, Note_off_c, 0, 69, 64
1, 21211, Note_on_c, 0, 70, 43
1, 21211, Note_on_c, 0, 76, 33
1, 21212, Note_on_c, 0, 50, 79
1, 21212, Note_off_c, 0, 88, 64
1, 21213, Note_on_c, 0, 45, 90
1, 21213, Note_off_c, 0, 50, 64
1, 21213, Note_off_c, 0, 74, 64
1, 21213, Note_off_c, 0, 76, 64
1, 21213, Note_off_c, 0, 80, 64
1, 21213, Note_on_c, 0, 81, 33
1, 21213, Note_off_c, 0, 83, 64
1, 21213, Note_off_c, 0, 91, 64
1, 21213, Note_off_c, 0, 94, 64
1, 21214, Note_on_c, 0, 42, 96
1, 21214, Note_off_c, 0, 45, 64
1, 21214, Note_off_c, 0, 70, 64
1, 21214, Note_on_c, 0, 74, 15
1, 21214, Note_off_c, 0, 82, 64
1, 21214, Note_on_c, 0, 89, 15
1, 21214, Note_off_c, 0, 96, 64
1, 21214, Note_off_c, 0, 97, 64
1, 21215, Note_on_c, 0, 41, 99
1, 21215, Note_off_c, 0, 42, 64
1, 21216, Note_on_c, 0, 38, 97
1, 21216, Note_off_c, 0, 41, 64
1, 21217, Note_on_c, 0, 37, 98
1, 21217, Note_off_c, 0, 38, 64
1, 21217, Note_off_c, 0, 74, 64
1, 21217, Note_on_c, 0, 79, 16
1, 21217, Note_off_c, 0, 86, 64
1, 21217, Note_off_c, 0, 89, 64
1, 21218, Note_on_c, 0, 36, 97
1, 21218, Note_off_c, 0, 37, 64
1, 21218, Note_off_c, 0, 81, 64
1, 21218, Note_off_c, 0, 87, 64
1, 21219, Note_on_c, 0, 35, 96
1, 21219, Note_off_c, 0, 36, 64
1, 21219, Note_on_c, 0, 82, 14
1, 21219, Note_on_c, 0, 84, 29
1, 21219, Note_on_c, 0, 97, 23
1, 21219, Note_on_c, 0, 100, 21
1, 21220, Note_on_c, 0, 34, 96
1, 21220, Note_off_c, 0, 35, 64
1, 21220, Note_on_c, 0, 75, 21
1, 21220, Note_on_c, 0, 89, 16
1, 21220, Note_on_c, 0, 93, 11
1, 21220, Note_on_c, 0, 99, 12
1, 21221, Note_on_c, 0, 33, 95
1, 21221, Note_off_c, 0, 34, 64
1, 21221, Note_off_c, 0, 79, 64
1, 21221, Note_on_c, 0, 85, 29
1, 21221, Note_on_c, 0, 90, 15
1, 21221, Note_on_c, 0, 94, 16
1, 21222, Note_on_c, 0, 32, 96
1, 21222, Note_off_c, 0, 33, 64
1, 21222, Note_on_c, 0, 80, 16
1, 21222, Note_off_c, 0, 82, 64
1, 21223, Note_off_c, 0, 75, 64
1, 21223, Note_off_c, 0, 89, 64
1, 21223, Note_off_c, 0, 93, 64
1, 21223, Note_off_c, 0, 97, 64
1, 21223, Note_off_c, 0, 99, 64
1, 21223, Note_off_c, 0, 100, 64
1, 21224, Note_on_c, 0, 31, 96
1, 21224, Note_off_c, 0, 32, 64
1, 21224, Note_on_c, 0, 88, 28
1, 21224, Note_off_c, 0, 90, 64
1, 21224, Note_off_c, 0, 94, 64
1, 21225, Note_on_c, 0, 83, 29
1, 21225, Note_off_c, 0, 84, 64
1, 21226, Note_on_c, 0, 30, 87
1, 21226, Note_off_c, 0, 31, 64
1, 21227, Note_off_c, 0, 80, 64
1, 21228, Note_off_c, 0, 85, 64
1, 21228, Note_on_c, 0, 89, 29
1, 21229, Note_off_c, 0, 30, 64
1, 21229, Note_on_c, 0, 87, 22
1, 21229, Note_on_c, 0, 92, 20
1, 21229, Note_on_c, 0, 93, 25
1, 21229, Note_on_c, 0, 96, 11
1, 21229, Note_on_c, 0, 97, 18
1, 21229, Note_on_c, 0, 98, 16
1, 21230, Note_on_c, 0, 37, 68
1, 21230, Note_on_c, 0, 63, 34
1, 21230, Note_on_c, 0, 77, 18
1, 21230, Note_on_c, 0, 79, 13
1, 21230, Note_on_c, 0, 81, 16
1, 21230, Note_on_c, 0, 84, 29
1, 21231, Note_on_c, 0, 30, 80
1, 21231, Note_off_c, 0, 37, 64
1, 21231, Note_on_c, 0, 49, 60
1, 21231, Note_off_c, 0, 83, 64
1, 21231, Note_off_c, 0, 89, 64
1, 21232, Note_on_c, 0, 68, 16
1, 21233, Note_on_c, 0, 29, 80
1, 21233, Note_off_c, 0, 30, 64
1, 21233, Note_off_c, 0, 77, 64
1, 21233, Note_off_c, 0, 92, 64
1, 21233, Note_off_c, 0, 98, 64
1, 21234, Note_off_c, 0, 29, 64
1, 21234, Note_on_c, 0, 30, 76
1, 21234, Note_off_c, 0, 63, 64
1, 21234, Note_off_c, 0, 79, 64
1, 21234, Note_off_c, 0, 93, 64
1, 21234, Note_off_c, 0, 96, 64
1, 21235, Note_off_c, 0, 68, 64
1, 21235, Note_off_c, 0, 81, 64
1, 21235, Note_off_c, 0, 97, 64
1, 21236, Note_on_c, 0, 29, 75
1, 21236, Note_off_c, 0, 30, 64
1, 21236, Note_off_c, 0, 49, 64
1, 21236, Note_on_c, 0, 77, 18
1, 21236, Note_on_c, 0, 83, 23
1, 21236, Note_off_c, 0, 84, 64
1, 21236, Note_on_c, 0, 95, 34
1, 21236, Note_on_c, 0, 97, 24
1, 21237, Note_on_c, 0, 81, 16
1, 21237, Note_on_c, 0, 86, 44
1, 21237, Note_on_c, 0, 90, 34
1, 21238, Note_off_c, 0, 29, 64
1, 21238, Note_on_c, 0, 30, 70
1, 21238, Note_off_c, 0, 87, 64
1, 21238, Note_on_c, 0, 91, 37
1, 21238, Note_on_c, 0, 93, 43
1, 21238, Note_on_c, 0, 94, 21
1, 21238, Note_on_c, 0, 96, 33
1, 21238, Note_on_c, 0, 99, 21
1, 21239, Note_on_c, 0, 79, 18
1, 21239, Note_off_c, 0, 83, 64
1, 21239, Note_on_c, 0, 84, 31
1, 21239, Note_on_c, 0, 87, 31
1, 21239, Note_on_c, 0, 101, 14
1, 21240, Note_off_c, 0, 30, 64
1, 21240, Note_on_c, 0, 43, 65
1, 21240, Note_off_c, 0, 81, 64
1, 21240, Note_off_c, 0, 93, 64
1, 21240, Note_off_c, 0, 96, 64
1, 21241, Note_on_c, 0, 32, 71
1, 21241, Note_off_c, 0, 43, 64
1, 21241, Note_on_c, 0, 64, 34
1, 21241, Note_on_c, 0, 68, 19
1, 21241, Note_on_c, 0, 71, 14
1, 21241, Note_off_c, 0, 77, 64
1, 21241, Note_on_c, 0, 89, 30
1, 21241, Note_on_c, 0, 93, 29
1, 21242, Note_on_c, 0, 30, 81
1, 21242, Note_off_c, 0, 32, 64
1, 21242, Note_on_c, 0, 81, 20
1, 21242, Note_on_c, 0, 85, 33
1, 21242, Note_off_c, 0, 86, 64
1, 21242, Note_off_c, 0, 88, 64
1, 21242, Note_on_c, 0, 92, 21
1, 21243, Note_on_c, 0, 29, 81
1, 21243, Note_off_c, 0, 30, 64
1, 21243, Note_off_c, 0, 97, 64
1, 21243, Note_off_c, 0, 99, 64
1, 21243, Note_off_c, 0, 101, 64
1, 21244, Note_off_c, 0, 29, 64
1, 21244, Note_on_c, 0, 30, 80
1, 21244, Note_on_c, 0, 63, 20
1, 21244, Note_off_c, 0, 64, 64
1, 21244, Note_off_c, 0, 79, 64
1, 21244, Note_off_c, 0, 90, 64
1, 21245, Note_off_c, 0, 68, 64
1, 21245, Note_off_c, 0, 71, 64
1, 21245, Note_off_c, 0, 81, 64
1, 21245, Note_on_c, 0, 83, 32
1, 21245, Note_off_c, 0, 84, 64
1, 21245, Note_on_c, 0, 90, 29
1, 21245, Note_off_c, 0, 91, 64
1, 21245, Note_off_c, 0, 95, 64
1, 21246, Note_off_c, 0, 30, 64
1, 21246, Note_on_c, 0, 84, 32
1, 21246, Note_off_c, 0, 87, 64
1, 21247, Note_on_c, 0, 54, 53
1, 21247, Note_off_c, 0, 63, 64
1, 21247, Note_on_c, 0, 77, 37
1, 21247, Note_on_c, 0, 81, 31
1, 21247, Note_on_c, 0, 87, 30
1, 21247, Note_on_c, 0, 88, 27
1, 21247, Note_on_c, 0, 91, 27
1, 21247, Note_on_c, 0, 95, 33
1, 21247, Note_on_c, 0, 96, 34
1, 21247, Note_on_c, 0, 101, 31
1, 21248, Note_off_c, 0, 94, 64
1, 21249, Note_on_c, 0, 50, 72
1, 21249, Note_off_c, 0, 54, 64
1, 21249, Note_off_c, 0, 84, 64
1, 21250, Note_on_c, 0, 48, 84
1, 21250, Note_off_c, 0, 50, 64
1, 21250, Note_on_c, 0, 63, 18
1, 21250, Note_off_c, 0, 77, 64
1, 21250, Note_off_c, 0, 81, 64
1, 21250, Note_off_c, 0, 83, 64
1, 21250, Note_off_c, 0, 88, 64
1, 21250, Note_off_c, 0, 89, 64
1, 21250, Note_off_c, 0, 91, 64
1, 21250, Note_off_c, 0, 92, 64
1, 21250, Note_off_c, 0, 95, 64
1, 21250, Note_off_c, 0, 101, 64
1, 21251, Note_on_c, 0, 45, 94
1, 21251, Note_off_c, 0, 48, 64
1, 21251, Note_off_c, 0, 85, 64
1, 21251, Note_off_c, 0, 93, 64
1, 21251, Note_off_c, 0, 96, 64
1, 21252, Note_on_c, 0, 42, 100
1, 21252, Note_off_c, 0, 45, 64
1, 21252, Note_off_c, 0, 90, 64
1, 21253, Note_on_c, 0, 40, 98
1, 21253, Note_off_c, 0, 42, 64
1, 21253, Note_off_c, 0, 63, 64
1, 21254, Note_on_c, 0, 38, 98
1, 21254, Note_off_c, 0, 40, 64
1, 21254, Note_off_c, 0, 87, 64
1, 21255, Note_on_c, 0, 36, 97
1, 21255, Note_off_c, 0, 38, 64
1, 21255, Note_on_c, 0, 80, 29
1, 21256, Note_on_c, 0, 35, 96
1, 21256, Note_off_c, 0, 36, 64
1, 21257, Note_on_c, 0, 34, 95
1, 21257, Note_off_c, 0, 35, 64
1, 21257, Note_on_c, 0, 75, 38
1, 21257, Note_on_c, 0, 85, 21
1, 21258, Note_on_c, 0, 33, 96
1, 21258, Note_off_c, 0, 34, 64
1, 21258, Note_on_c, 0, 73, 41
1, 21258, Note_on_c, 0, 79, 41
1, 21258, Note_on_c, 0, 82, 29
1, 21258, Note_on_c, 0, 83, 29
1, 21259, Note_on_c, 0, 49, 33
1, 21259, Note_on_c, 0, 70, 23
1, 21259, Note_off_c, 0, 75, 64
1, 21260, Note_on_c, 0, 32, 96
1, 21260, Note_off_c, 0, 33, 64
1, 21260, Note_on_c, 0, 75, 44
1, 21260, Note_on_c, 0, 77, 33
1, 21260, Note_on_c, 0, 78, 42
1, 21260, Note_off_c, 0, 79, 64
1, 21260, Note_off_c, 0, 85, 64
1, 21261, Note_on_c, 0, 31, 97
1, 21261, Note_off_c, 0, 32, 64
1, 21261, Note_on_c, 0, 72, 34
1, 21261, Note_off_c, 0, 73, 64
1, 21261, Note_on_c, 0, 79, 41
1, 21261, Note_off_c, 0, 83, 64
1, 21262, Note_off_c, 0, 70, 64
1, 21262, Note_on_c, 0, 74, 50
1, 21262, Note_off_c, 0, 75, 64
1, 21262, Note_off_c, 0, 77, 64
1, 21262, Note_off_c, 0, 78, 64
1, 21263, Note_on_c, 0, 30, 90
1, 21263, Note_off_c, 0, 31, 64
1, 21263, Note_off_c, 0, 49, 64
1, 21263, Note_on_c, 0, 71, 38
1, 21263, Note_off_c, 0, 72, 64
1, 21263, Note_on_c, 0, 77, 50
1, 21263, Note_off_c, 0, 79, 64
1, 21265, Note_on_c, 0, 81, 19
1, 21265, Note_off_c, 0, 82, 64
1, 21265, Note_on_c, 0, 88, 11
1, 21266, Note_off_c, 0, 30, 64
1, 21266, Note_on_c, 0, 72, 44
1, 21266, Note_off_c, 0, 74, 64
1, 21266, Note_on_c, 0, 75, 34
1, 21267, Note_on_c, 0, 41, 66
1, 21268, Note_on_c, 0, 30, 78
1, 21268, Note_off_c, 0, 41, 64
1, 21268, Note_on_c, 0, 70, 42
1, 21268, Note_off_c, 0, 71, 64
1, 21268, Note_off_c, 0, 75, 64
1, 21268, Note_on_c, 0, 76, 41
1, 21268, Note_off_c, 0, 77, 64
1, 21268, Note_on_c, 0, 78, 26
1, 21268, Note_on_c, 0, 79, 28
1, 21268, Note_off_c, 0, 81, 64
1, 21268, Note_off_c, 0, 88, 64
1, 21269, Note_off_c, 0, 72, 64
1, 21269, Note_off_c, 0, 80, 64
1, 21270, Note_on_c, 0, 29, 79
1, 21270, Note_off_c, 0, 30, 64
1, 21270, Note_on_c, 0, 49, 58
1, 21271, Note_off_c, 0, 29, 64
1, 21271, Note_on_c, 0, 30, 75
1, 21271, Note_on_c, 0, 73, 36
1, 21271, Note_off_c, 0, 79, 64
1, 21271, Note_on_c, 0, 83, 22
1, 21272, Note_on_c, 0, 77, 30
1, 21272, Note_off_c, 0, 78, 64
1, 21272, Note_on_c, 0, 79, 18
1, 21273, Note_on_c, 0, 29, 73
1, 21273, Note_off_c, 0, 30, 64
1, 21273, Note_off_c, 0, 49, 64
1, 21273, Note_on_c, 0, 75, 33
1, 21273, Note_off_c, 0, 76, 64
1, 21273, Note_on_c, 0, 81, 27
1, 21274, Note_off_c, 0, 77, 64
1, 21275, Note_off_c, 0, 75, 64
1, 21275, Note_off_c, 0, 79, 64
1, 21275, Note_off_c, 0, 83, 64
1, 21276, Note_off_c, 0, 29, 64
1, 21276, Note_on_c, 0, 30, 65
1, 21276, Note_off_c, 0, 70, 64
1, 21276, Note_on_c, 0, 75, 43
1, 21276, Note_on_c, 0, 78, 38
1, 21277, Note_on_c, 0, 80, 42
1, 21278, Note_off_c, 0, 30, 64
1, 21278, Note_on_c, 0, 36, 72
1, 21278, Note_on_c, 0, 64, 31
1, 21278, Note_on_c, 0, 77, 38
1, 21278, Note_off_c, 0, 78, 64
1, 21278, Note_off_c, 0, 81, 64
1, 21279, Note_on_c, 0, 30, 79
1, 21279, Note_off_c, 0, 36, 64
1, 21279, Note_on_c, 0, 68, 19
1, 21279, Note_on_c, 0, 70, 19
1, 21279, Note_on_c, 0, 72, 26
1, 21279, Note_on_c, 0, 100, 19
1, 21280, Note_on_c, 0, 29, 82
1, 21280, Note_off_c, 0, 30, 64
1, 21280, Note_on_c, 0, 61, 30
1, 21280, Note_off_c, 0, 64, 64
1, 21280, Note_off_c, 0, 75, 64
1, 21281, Note_on_c, 0, 49, 56
1, 21281, Note_off_c, 0, 73, 64
1, 21281, Note_off_c, 0, 77, 64
1, 21281, Note_on_c, 0, 79, 29
1, 21281, Note_on_c, 0, 82, 33
1, 21281, Note_on_c, 0, 88, 29
1, 21282, Note_off_c, 0, 29, 64
1, 21282, Note_on_c, 0, 30, 78
1, 21282, Note_off_c, 0, 61, 64
1, 21282, Note_off_c, 0, 68, 64
1, 21282, Note_off_c, 0, 70, 64
1, 21282, Note_off_c, 0, 72, 64
1, 21282, Note_on_c, 0, 74, 45
1, 21282, Note_on_c, 0, 76, 49
1, 21282, Note_on_c, 0, 83, 18
1, 21283, Note_off_c, 0, 30, 64
1, 21283, Note_on_c, 0, 31, 70
1, 21283, Note_on_c, 0, 54, 39
1, 21284, Note_on_c, 0, 48, 48
1, 21284, Note_off_c, 0, 49, 64
1, 21284, Note_on_c, 0, 70, 39
1, 21284, Note_off_c, 0, 79, 64
1, 21284, Note_on_c, 0, 85, 34
1, 21284, Note_on_c, 0, 90, 34
1, 21284, Note_on_c, 0, 91, 30
1, 21284, Note_on_c, 0, 95, 28
1, 21284, Note_on_c, 0, 96, 23
1, 21284, Note_on_c, 0, 99, 24
1, 21285, Note_off_c, 0, 31, 64
1, 21285, Note_off_c, 0, 54, 64
1, 21285, Note_on_c, 0, 73, 42
1, 21285, Note_off_c, 0, 74, 64
1, 21285, Note_off_c, 0, 76, 64
1, 21285, Note_on_c, 0, 77, 41
1, 21285, Note_off_c, 0, 83, 64
1, 21286, Note_off_c, 0, 48, 64
1, 21286, Note_on_c, 0, 54, 65
1, 21286, Note_on_c, 0, 62, 53
1, 21286, Note_on_c, 0, 69, 42
1, 21286, Note_off_c, 0, 70, 64
1, 21286, Note_on_c, 0, 72, 40
1, 21286, Note_on_c, 0, 75, 35
1, 21286, Note_on_c, 0, 78, 36
1, 21286, Note_on_c, 0, 79, 29
1, 21286, Note_off_c, 0, 80, 64
1, 21286, Note_off_c, 0, 82, 64
1, 21286, Note_on_c, 0, 83, 27
1, 21287, Note_on_c, 0, 49, 79
1, 21287, Note_off_c, 0, 54, 64
1, 21287, Note_off_c, 0, 77, 64
1, 21287, Note_off_c, 0, 85, 64
1, 21287, Note_off_c, 0, 88, 64
1, 21287, Note_off_c, 0, 90, 64
1, 21287, Note_off_c, 0, 91, 64
1, 21287, Note_off_c, 0, 95, 64
1, 21287, Note_off_c, 0, 96, 64
1, 21287, Note_off_c, 0, 99, 64
1, 21287, Note_off_c, 0, 100, 64
1, 21288, Note_on_c, 0, 45, 91
1, 21288, Note_off_c, 0, 49, 64
1, 21288, Note_off_c, 0, 62, 64
1, 21288, Note_off_c, 0, 69, 64
1, 21288, Note_off_c, 0, 73, 64
1, 21288, Note_off_c, 0, 75, 64
1, 21288, Note_on_c, 0, 77, 37
1, 21288, Note_off_c, 0, 79, 64
1, 21289, Note_on_c, 0, 42, 97
1, 21289, Note_off_c, 0, 45, 64
1, 21289, Note_on_c, 0, 75, 25
1, 21289, Note_off_c, 0, 78, 64
1, 21289, Note_on_c, 0, 79, 23
1, 21289, Note_off_c, 0, 83, 64
1, 21290, Note_on_c, 0, 41, 99
1, 21290, Note_off_c, 0, 42, 64
1, 21291, Note_on_c, 0, 38, 97
1, 21291, Note_off_c, 0, 41, 64
1, 21291, Note_on_c, 0, 80, 18
1, 21292, Note_on_c, 0, 37, 98
1, 21292, Note_off_c, 0, 38, 64
1, 21292, Note_off_c, 0, 72, 64
1, 21292, Note_on_c, 0, 74, 39
1, 21292, Note_off_c, 0, 75, 64
1, 21293, Note_on_c, 0, 36, 97
1, 21293, Note_off_c, 0, 37, 64
1, 21293, Note_on_c, 0, 75, 30
1, 21293, Note_off_c, 0, 77, 64
1, 21294, Note_on_c, 0, 35, 96
1, 21294, Note_off_c, 0, 36, 64
1, 21294, Note_on_c, 0, 84, 9
1, 21295, Note_on_c, 0, 34, 96
1, 21295, Note_off_c, 0, 35, 64
1, 21295, Note_on_c, 0, 50, 32
1, 21295, Note_off_c, 0, 80, 64
1, 21296, Note_on_c, 0, 33, 96
1, 21296, Note_off_c, 0, 34, 64
1, 21296, Note_off_c, 0, 74, 64
1, 21296, Note_off_c, 0, 75, 64
1, 21296, Note_off_c, 0, 79, 64
1, 21297, Note_on_c, 0, 32, 96
1, 21297, Note_off_c, 0, 33, 64
1, 21297, Note_off_c, 0, 50, 64
1, 21297, Note_off_c, 0, 84, 64
1, 21299, Note_on_c, 0, 31, 96
1, 21299, Note_off_c, 0, 32, 64
1, 21300, Note_on_c, 0, 30, 93
1, 21300, Note_off_c, 0, 31, 64
1, 21303, Note_on_c, 0, 85, 36
1, 21304, Note_off_c, 0, 30, 64
1, 21304, Note_on_c, 0, 36, 67
1, 21304, Note_on_c, 0, 64, 29
1, 21304, Note_on_c, 0, 68, 16
1, 21304, Note_on_c, 0, 71, 13
1, 21304, Note_on_c, 0, 80, 19
1, 21304, Note_on_c, 0, 87, 14
1, 21304, Note_on_c, 0, 89, 10
1, 21304, Note_on_c, 0, 96, 12
1, 21304, Note_on_c, 0, 99, 16
1, 21304, Note_on_c, 0, 102, 9
1, 21305, Note_on_c, 0, 61, 29
1, 21306, Note_on_c, 0, 30, 78
1, 21306, Note_off_c, 0, 36, 64
1, 21306, Note_on_c, 0, 54, 52
1, 21306, Note_on_c, 0, 75, 25
1, 21306, Note_on_c, 0, 90, 9
1, 21307, Note_on_c, 0, 63, 30
1, 21307, Note_off_c, 0, 64, 64
1, 21307, Note_off_c, 0, 87, 64
1, 21307, Note_off_c, 0, 89, 64
1, 21307, Note_off_c, 0, 96, 64
1, 21307, Note_off_c, 0, 102, 64
1, 21308, Note_on_c, 0, 29, 79
1, 21308, Note_off_c, 0, 30, 64
1, 21308, Note_off_c, 0, 54, 64
1, 21308, Note_off_c, 0, 61, 64
1, 21308, Note_off_c, 0, 71, 64
1, 21308, Note_off_c, 0, 80, 64
1, 21308, Note_off_c, 0, 85, 64
1, 21308, Note_off_c, 0, 99, 64
1, 21309, Note_off_c, 0, 68, 64
1, 21309, Note_on_c, 0, 84, 13
1, 21309, Note_off_c, 0, 90, 64
1, 21310, Note_off_c, 0, 29, 64
1, 21310, Note_on_c, 0, 30, 74
1, 21310, Note_on_c, 0, 49, 49
1, 21310, Note_off_c, 0, 75, 64
1, 21311, Note_off_c, 0, 63, 64
1, 21312, Note_on_c, 0, 29, 71
1, 21312, Note_off_c, 0, 30, 64
1, 21312, Note_off_c, 0, 49, 64
1, 21312, Note_off_c, 0, 84, 64
1, 21312, Note_on_c, 0, 85, 15
1, 21312, Note_on_c, 0, 98, 10
1, 21314, Note_off_c, 0, 29, 64
1, 21314, Note_on_c, 0, 55, 48
1, 21314, Note_on_c, 0, 86, 19
1, 21315, Note_on_c, 0, 42, 67
1, 21315, Note_on_c, 0, 68, 20
1, 21315, Note_off_c, 0, 98, 64
1, 21316, Note_on_c, 0, 32, 73
1, 21316, Note_off_c, 0, 42, 64
1, 21316, Note_off_c, 0, 55, 64
1, 21316, Note_on_c, 0, 102, 19
1, 21317, Note_on_c, 0, 30, 81
1, 21317, Note_off_c, 0, 32, 64
1, 21317, Note_on_c, 0, 74, 22
1, 21317, Note_on_c, 0, 82, 10
1, 21317, Note_off_c, 0, 85, 64
1, 21318, Note_on_c, 0, 29, 81
1, 21318, Note_off_c, 0, 30, 64
1, 21318, Note_on_c, 0, 61, 18
1, 21318, Note_on_c, 0, 63, 26
1, 21319, Note_off_c, 0, 29, 64
1, 21319, Note_on_c, 0, 30, 79
1, 21320, Note_on_c, 0, 54, 43
1, 21320, Note_off_c, 0, 74, 64
1, 21320, Note_off_c, 0, 82, 64
1, 21320, Note_off_c, 0, 86, 64
1, 21320, Note_on_c, 0, 90, 27
1, 21321, Note_off_c, 0, 30, 64
1, 21321, Note_off_c, 0, 61, 64
1, 21321, Note_off_c, 0, 68, 64
1, 21321, Note_on_c, 0, 74, 39
1, 21321, Note_on_c, 0, 103, 24
1, 21322, Note_on_c, 0, 59, 53
1, 21322, Note_on_c, 0, 76, 39
1, 21322, Note_on_c, 0, 81, 30
1, 21322, Note_on_c, 0, 82, 39
1, 21322, Note_on_c, 0, 85, 30
1, 21322, Note_on_c, 0, 89, 32
1, 21322, Note_on_c, 0, 91, 30
1, 21323, Note_off_c, 0, 54, 64
1, 21323, Note_off_c, 0, 63, 64
1, 21323, Note_off_c, 0, 90, 64
1, 21324, Note_on_c, 0, 50, 75
1, 21324, Note_off_c, 0, 59, 64
1, 21324, Note_off_c, 0, 81, 64
1, 21324, Note_off_c, 0, 89, 64
1, 21324, Note_off_c, 0, 91, 64
1, 21324, Note_off_c, 0, 103, 64
1, 21325, Note_on_c, 0, 48, 86
1, 21325, Note_off_c, 0, 50, 64
1, 21325, Note_off_c, 0, 74, 64
1, 21325, Note_off_c, 0, 76, 64
1, 21325, Note_off_c, 0, 82, 64
1, 21325, Note_off_c, 0, 85, 64
1, 21326, Note_on_c, 0, 45, 94
1, 21326, Note_off_c, 0, 48, 64
1, 21327, Note_on_c, 0, 42, 100
1, 21327, Note_off_c, 0, 45, 64
1, 21328, Note_on_c, 0, 40, 97
1, 21328, Note_off_c, 0, 42, 64
1, 21328, Note_off_c, 0, 102, 64
1, 21329, Note_on_c, 0, 38, 98
1, 21329, Note_off_c, 0, 40, 64
1, 21330, Note_on_c, 0, 36, 98
1, 21330, Note_off_c, 0, 38, 64
1, 21331, Note_on_c, 0, 35, 97
1, 21331, Note_off_c, 0, 36, 64
1, 21332, Note_on_c, 0, 34, 96
1, 21332, Note_off_c, 0, 35, 64
1, 21333, Note_on_c, 0, 33, 96
1, 21333, Note_off_c, 0, 34, 64
1, 21335, Note_on_c, 0, 32, 96
1, 21335, Note_off_c, 0, 33, 64
1, 21335, Note_on_c, 0, 49, 31
1, 21336, Note_on_c, 0, 31, 97
1, 21336, Note_off_c, 0, 32, 64
1, 21337, Note_off_c, 0, 49, 64
1, 21338, Note_on_c, 0, 30, 90
1, 21338, Note_off_c, 0, 31, 64
1, 21341, Note_off_c, 0, 30, 64
1, 21341, Note_on_c, 0, 74, 12
1, 21341, Note_on_c, 0, 82, 20
1, 21341, Note_on_c, 0, 85, 36
1, 21341, Note_on_c, 0, 88, 23
1, 21341, Note_on_c, 0, 94, 25
1, 21341, Note_on_c, 0, 95, 23
1, 21341, Note_on_c, 0, 96, 16
1, 21341, Note_on_c, 0, 98, 24
1, 21341, Note_on_c, 0, 102, 13
1, 21342, Note_on_c, 0, 37, 66
1, 21342, Note_on_c, 0, 61, 32
1, 21342, Note_on_c, 0, 80, 14
1, 21342, Note_on_c, 0, 89, 12
1, 21342, Note_on_c, 0, 92, 23
1, 21343, Note_on_c, 0, 30, 78
1, 21343, Note_off_c, 0, 37, 64
1, 21343, Note_on_c, 0, 68, 23
1, 21344, Note_off_c, 0, 61, 64
1, 21344, Note_on_c, 0, 78, 11
1, 21344, Note_off_c, 0, 94, 64
1, 21344, Note_off_c, 0, 95, 64
1, 21344, Note_off_c, 0, 98, 64
1, 21344, Note_off_c, 0, 102, 64
1, 21345, Note_on_c, 0, 29, 79
1, 21345, Note_off_c, 0, 30, 64
1, 21345, Note_off_c, 0, 85, 64
1, 21345, Note_off_c, 0, 89, 64
1, 21345, Note_off_c, 0, 96, 64
1, 21346, Note_off_c, 0, 29, 64
1, 21346, Note_on_c, 0, 30, 77
1, 21346, Note_off_c, 0, 80, 64
1, 21346, Note_off_c, 0, 88, 64
1, 21347, Note_off_c, 0, 74, 64
1, 21347, Note_off_c, 0, 78, 64
1, 21348, Note_on_c, 0, 29, 74
1, 21348, Note_off_c, 0, 30, 64
1, 21348, Note_on_c, 0, 75, 12
1, 21348, Note_off_c, 0, 82, 64
1, 21350, Note_off_c, 0, 29, 64
1, 21350, Note_on_c, 0, 30, 70
1, 21350, Note_off_c, 0, 68, 64
1, 21350, Note_off_c, 0, 92, 64
1, 21351, Note_off_c, 0, 75, 64
1, 21351, Note_on_c, 0, 76, 16
1, 21352, Note_off_c, 0, 30, 64
1, 21352, Note_on_c, 0, 79, 14
1, 21353, Note_on_c, 0, 36, 73
1, 21353, Note_on_c, 0, 61, 31
1, 21354, Note_on_c, 0, 30, 80
1, 21354, Note_off_c, 0, 36, 64
1, 21354, Note_off_c, 0, 76, 64
1, 21355, Note_on_c, 0, 29, 83
1, 21355, Note_off_c, 0, 30, 64
1, 21355, Note_on_c, 0, 68, 23
1, 21356, Note_off_c, 0, 79, 64
1, 21357, Note_off_c, 0, 29, 64
1, 21357, Note_on_c, 0, 30, 76
1, 21357, Note_on_c, 0, 88, 28
1, 21358, Note_off_c, 0, 30, 64
1, 21358, Note_on_c, 0, 31, 68
1, 21358, Note_on_c, 0, 54, 40
1, 21358, Note_off_c, 0, 61, 64
1, 21358, Note_off_c, 0, 68, 64
1, 21359, Note_off_c, 0, 31, 64
1, 21359, Note_on_c, 0, 48, 47
1, 21359, Note_on_c, 0, 71, 40
1, 21359, Note_on_c, 0, 80, 34
1, 21359, Note_on_c, 0, 86, 29
1, 21359, Note_on_c, 0, 87, 28
1, 21359, Note_on_c, 0, 90, 25
1, 21359, Note_on_c, 0, 94, 26
1, 21360, Note_off_c, 0, 54, 64
1, 21361, Note_on_c, 0, 21, 37
1, 21361, Note_off_c, 0, 48, 64
1, 21361, Note_on_c, 0, 54, 65
1, 21361, Note_on_c, 0, 70, 40
1, 21361, Note_off_c, 0, 71, 64
1, 21362, Note_on_c, 0, 49, 81
1, 21362, Note_off_c, 0, 54, 64
1, 21362, Note_off_c, 0, 80, 64
1, 21362, Note_off_c, 0, 87, 64
1, 21362, Note_off_c, 0, 88, 64
1, 21362, Note_off_c, 0, 90, 64
1, 21362, Note_off_c, 0, 94, 64
1, 21363, Note_off_c, 0, 21, 64
1, 21363, Note_on_c, 0, 45, 92
1, 21363, Note_off_c, 0, 49, 64
1, 21363, Note_off_c, 0, 70, 64
1, 21363, Note_off_c, 0, 86, 64
1, 21364, Note_on_c, 0, 42, 98
1, 21364, Note_off_c, 0, 45, 64
1, 21365, Note_on_c, 0, 41, 99
1, 21365, Note_off_c, 0, 42, 64
1, 21366, Note_on_c, 0, 38, 98
1, 21366, Note_off_c, 0, 41, 64
1, 21367, Note_on_c, 0, 37, 98
1, 21367, Note_off_c, 0, 38, 64
1, 21368, Note_on_c, 0, 36, 97
1, 21368, Note_off_c, 0, 37, 64
1, 21369, Note_on_c, 0, 35, 96
1, 21369, Note_off_c, 0, 36, 64
1, 21369, Note_on_c, 0, 84, 28
1, 21369, Note_on_c, 0, 95, 9
1, 21369, Note_on_c, 0, 97, 21
1, 21370, Note_on_c, 0, 33, 95
1, 21370, Note_off_c, 0, 35, 64
1, 21371, Note_on_c, 0, 93, 16
1, 21372, Note_on_c, 0, 32, 96
1, 21372, Note_off_c, 0, 33, 64
1, 21372, Note_off_c, 0, 95, 64
1, 21373, Note_off_c, 0, 84, 64
1, 21373, Note_off_c, 0, 97, 64
1, 21374, Note_on_c, 0, 31, 96
1, 21374, Note_off_c, 0, 32, 64
1, 21374, Note_off_c, 0, 93, 64
1, 21375, Note_on_c, 0, 30, 92
1, 21375, Note_off_c, 0, 31, 64
1, 21375, Note_on_c, 0, 94, 13
1, 21378, Note_off_c, 0, 30, 64
1, 21378, Note_on_c, 0, 68, 30
1, 21379, Note_on_c, 0, 86, 16
1, 21379, Note_off_c, 0, 94, 64
1, 21380, Note_on_c, 0, 36, 70
1, 21380, Note_on_c, 0, 54, 48
1, 21380, Note_on_c, 0, 77, 15
1, 21381, Note_on_c, 0, 30, 80
1, 21381, Note_off_c, 0, 36, 64
1, 21381, Note_on_c, 0, 63, 30
1, 21382, Note_off_c, 0, 54, 64
1, 21382, Note_on_c, 0, 61, 24
1, 21383, Note_on_c, 0, 49, 54
1, 21383, Note_off_c, 0, 63, 64
1, 21383, Note_off_c, 0, 68, 64
1, 21383, Note_off_c, 0, 77, 64
1, 21383, Note_off_c, 0, 86, 64
1, 21385, Note_off_c, 0, 61, 64
1, 21385, Note_on_c, 0, 63, 21
1, 21386, Note_on_c, 0, 29, 72
1, 21386, Note_off_c, 0, 30, 64
1, 21386, Note_off_c, 0, 49, 64
1, 21388, Note_on_c, 0, 48, 39
1, 21389, Note_off_c, 0, 29, 64
1, 21389, Note_on_c, 0, 61, 35
1, 21389, Note_off_c, 0, 63, 64
1, 21389, Note_on_c, 0, 95, 25
1, 21390, Note_on_c, 0, 35, 70
1, 21390, Note_off_c, 0, 48, 64
1, 21390, Note_on_c, 0, 70, 22
1, 21390, Note_on_c, 0, 77, 10
1, 21390, Note_on_c, 0, 79, 17
1, 21391, Note_on_c, 0, 32, 75
1, 21391, Note_off_c, 0, 35, 64
1, 21392, Note_on_c, 0, 30, 82
1, 21392, Note_off_c, 0, 32, 64
1, 21392, Note_off_c, 0, 61, 64
1, 21392, Note_on_c, 0, 65, 38
1, 21392, Note_off_c, 0, 95, 64
1, 21393, Note_on_c, 0, 29, 81
1, 21393, Note_off_c, 0, 30, 64
1, 21394, Note_off_c, 0, 29, 64
1, 21394, Note_on_c, 0, 30, 78
1, 21394, Note_off_c, 0, 65, 64
1, 21394, Note_off_c, 0, 70, 64
1, 21394, Note_off_c, 0, 77, 64
1, 21394, Note_off_c, 0, 79, 64
1, 21394, Note_on_c, 0, 95, 33
1, 21395, Note_on_c, 0, 54, 58
1, 21396, Note_off_c, 0, 30, 64
1, 21397, Note_on_c, 0, 77, 36
1, 21397, Note_on_c, 0, 79, 37
1, 21397, Note_on_c, 0, 81, 36
1, 21397, Note_on_c, 0, 85, 34
1, 21397, Note_on_c, 0, 86, 31
1, 21397, Note_on_c, 0, 88, 23
1, 21397, Note_on_c, 0, 96, 32
1, 21397, Note_on_c, 0, 100, 28
1, 21397, Note_on_c, 0, 101, 32
1, 21398, Note_on_c, 0, 67, 47
1, 21398, Note_on_c, 0, 73, 39
1, 21398, Note_on_c, 0, 75, 36
1, 21398, Note_on_c, 0, 99, 13
1, 21399, Note_on_c, 0, 50, 76
1, 21399, Note_off_c, 0, 54, 64
1, 21399, Note_off_c, 0, 77, 64
1, 21400, Note_on_c, 0, 46, 86
1, 21400, Note_off_c, 0, 50, 64
1, 21400, Note_off_c, 0, 67, 64
1, 21400, Note_off_c, 0, 75, 64
1, 21400, Note_off_c, 0, 79, 64
1, 21400, Note_off_c, 0, 81, 64
1, 21400, Note_off_c, 0, 86, 64
1, 21400, Note_off_c, 0, 88, 64
1, 21400, Note_off_c, 0, 95, 64
1, 21400, Note_off_c, 0, 100, 64
1, 21401, Note_on_c, 0, 44, 95
1, 21401, Note_off_c, 0, 46, 64
1, 21401, Note_on_c, 0, 65, 10
1, 21401, Note_off_c, 0, 73, 64
1, 21401, Note_off_c, 0, 99, 64
1, 21402, Note_on_c, 0, 41, 100
1, 21402, Note_off_c, 0, 44, 64
1, 21402, Note_off_c, 0, 85, 64
1, 21402, Note_off_c, 0, 101, 64
1, 21403, Note_on_c, 0, 40, 97
1, 21403, Note_off_c, 0, 41, 64
1, 21404, Note_on_c, 0, 38, 98
1, 21404, Note_off_c, 0, 40, 64
1, 21404, Note_on_c, 0, 54, 16
1, 21404, Note_off_c, 0, 65, 64
1, 21405, Note_on_c, 0, 36, 97
1, 21405, Note_off_c, 0, 38, 64
1, 21406, Note_on_c, 0, 35, 96
1, 21406, Note_off_c, 0, 36, 64
1, 21407, Note_on_c, 0, 34, 95
1, 21407, Note_off_c, 0, 35, 64
1, 21407, Note_off_c, 0, 54, 64
1, 21408, Note_on_c, 0, 33, 95
1, 21408, Note_off_c, 0, 34, 64
1, 21410, Note_on_c, 0, 32, 96
1, 21410, Note_off_c, 0, 33, 64
1, 21410, Note_off_c, 0, 96, 64
1, 21411, Note_on_c, 0, 31, 97
1, 21411, Note_off_c, 0, 32, 64
1, 21411, Note_on_c, 0, 68, 20
1, 21413, Note_on_c, 0, 30, 88
1, 21413, Note_off_c, 0, 31, 64
1, 21414, Note_on_c, 0, 71, 13
1, 21415, Note_on_c, 0, 29, 65
1, 21415, Note_off_c, 0, 30, 64
1, 21416, Note_off_c, 0, 29, 64
1, 21416, Note_on_c, 0, 97, 32
1, 21416, Note_on_c, 0, 102, 18
1, 21417, Note_on_c, 0, 41, 68
1, 21417, Note_on_c, 0, 64, 35
1, 21417, Note_on_c, 0, 70, 22
1, 21417, Note_off_c, 0, 71, 64
1, 21417, Note_on_c, 0, 85, 10
1, 21417, Note_on_c, 0, 86, 10
1, 21417, Note_on_c, 0, 100, 19
1, 21418, Note_on_c, 0, 30, 78
1, 21419, Note_off_c, 0, 41, 64
1, 21419, Note_on_c, 0, 71, 33
1, 21420, Note_on_c, 0, 29, 80
1, 21420, Note_off_c, 0, 30, 64
1, 21420, Note_on_c, 0, 61, 20
1, 21420, Note_off_c, 0, 85, 64
1, 21420, Note_off_c, 0, 86, 64
1, 21421, Note_off_c, 0, 29, 64
1, 21421, Note_on_c, 0, 30, 78
1, 21421, Note_off_c, 0, 64, 64
1, 21421, Note_off_c, 0, 70, 64
1, 21421, Note_off_c, 0, 100, 64
1, 21421, Note_off_c, 0, 102, 64
1, 21422, Note_off_c, 0, 68, 64
1, 21423, Note_off_c, 0, 61, 64
1, 21424, Note_on_c, 0, 29, 73
1, 21424, Note_off_c, 0, 30, 64
1, 21425, Note_on_c, 0, 68, 36
1, 21426, Note_off_c, 0, 29, 64
1, 21427, Note_on_c, 0, 55, 52
1, 21427, Note_on_c, 0, 76, 15
1, 21427, Note_on_c, 0, 85, 9
1, 21428, Note_on_c, 0, 36, 72
1, 21428, Note_on_c, 0, 61, 34
1, 21428, Note_on_c, 0, 64, 29
1, 21429, Note_on_c, 0, 30, 81
1, 21429, Note_off_c, 0, 36, 64
1, 21429, Note_on_c, 0, 49, 60
1, 21429, Note_on_c, 0, 54, 51
1, 21429, Note_off_c, 0, 55, 64
1, 21430, Note_on_c, 0, 29, 84
1, 21430, Note_off_c, 0, 30, 64
1, 21430, Note_off_c, 0, 85, 64
1, 21431, Note_off_c, 0, 54, 64
1, 21431, Note_off_c, 0, 64, 64
1, 21431, Note_off_c, 0, 71, 64
1, 21431, Note_on_c, 0, 98, 21
1, 21432, Note_off_c, 0, 29, 64
1, 21432, Note_on_c, 0, 30, 78
1, 21432, Note_off_c, 0, 49, 64
1, 21432, Note_on_c, 0, 71, 17
1, 21432, Note_off_c, 0, 97, 64
1, 21433, Note_off_c, 0, 30, 64
1, 21433, Note_on_c, 0, 31, 67
1, 21433, Note_on_c, 0, 54, 42
1, 21433, Note_off_c, 0, 61, 64
1, 21433, Note_on_c, 0, 63, 49
1, 21433, Note_off_c, 0, 68, 64
1, 21433, Note_on_c, 0, 97, 18
1, 21434, Note_off_c, 0, 31, 64
1, 21434, Note_on_c, 0, 32, 59
1, 21434, Note_on_c, 0, 48, 47
1, 21434, Note_on_c, 0, 67, 44
1, 21434, Note_on_c, 0, 69, 37
1, 21434, Note_on_c, 0, 73, 42
1, 21434, Note_off_c, 0, 76, 64
1, 21434, Note_on_c, 0, 82, 34
1, 21434, Note_on_c, 0, 84, 32
1, 21434, Note_on_c, 0, 87, 34
1, 21434, Note_on_c, 0, 88, 31
1, 21434, Note_on_c, 0, 89, 29
1, 21434, Note_on_c, 0, 90, 30
1, 21434, Note_on_c, 0, 93, 24
1, 21435, Note_off_c, 0, 54, 64
1, 21435, Note_off_c, 0, 71, 64
1, 21436, Note_off_c, 0, 32, 64
1, 21436, Note_off_c, 0, 48, 64
1, 21436, Note_on_c, 0, 54, 68
1, 21436, Note_off_c, 0, 67, 64
1, 21436, Note_off_c, 0, 69, 64
1, 21436, Note_off_c, 0, 90, 64
1, 21437, Note_on_c, 0, 48, 83
1, 21437, Note_off_c, 0, 54, 64
1, 21437, Note_off_c, 0, 73, 64
1, 21437, Note_off_c, 0, 82, 64
1, 21437, Note_off_c, 0, 84, 64
1, 21437, Note_off_c, 0, 87, 64
1, 21437, Note_off_c, 0, 88, 64
1, 21437, Note_off_c, 0, 89, 64
1, 21437, Note_off_c, 0, 93, 64
1, 21437, Note_off_c, 0, 97, 64
1, 21437, Note_off_c, 0, 98, 64
1, 21438, Note_on_c, 0, 45, 92
1, 21438, Note_off_c, 0, 48, 64
1, 21439, Note_on_c, 0, 42, 98
1, 21439, Note_off_c, 0, 45, 64
1, 21439, Note_off_c, 0, 63, 64
1, 21440, Note_on_c, 0, 41, 99
1, 21440, Note_off_c, 0, 42, 64
1, 21441, Note_on_c, 0, 38, 98
1, 21441, Note_off_c, 0, 41, 64
1, 21442, Note_on_c, 0, 37, 98
1, 21442, Note_off_c, 0, 38, 64
1, 21443, Note_on_c, 0, 35, 97
1, 21443, Note_off_c, 0, 37, 64
1, 21443, Note_on_c, 0, 70, 24
1, 21444, Note_on_c, 0, 34, 96
1, 21444, Note_off_c, 0, 35, 64
1, 21446, Note_on_c, 0, 33, 96
1, 21446, Note_off_c, 0, 34, 64
1, 21447, Note_on_c, 0, 32, 97
1, 21447, Note_off_c, 0, 33, 64
1, 21449, Note_on_c, 0, 31, 96
1, 21449, Note_off_c, 0, 32, 64
1, 21450, Note_on_c, 0, 30, 92
1, 21450, Note_off_c, 0, 31, 64
1, 21453, Note_off_c, 0, 30, 64
1, 21453, Note_on_c, 0, 75, 23
1, 21453, Note_on_c, 0, 80, 23
1, 21453, Note_on_c, 0, 86, 27
1, 21453, Note_on_c, 0, 99, 26
1, 21454, Note_on_c, 0, 61, 34
1, 21454, Note_on_c, 0, 66, 25
1, 21454, Note_off_c, 0, 70, 64
1, 21454, Note_on_c, 0, 85, 32
1, 21454, Note_on_c, 0, 87, 25
1, 21454, Note_on_c, 0, 90, 15
1, 21454, Note_on_c, 0, 101, 17
1, 21454, Note_on_c, 0, 103, 11
1, 21455, Note_on_c, 0, 36, 71
1, 21456, Note_on_c, 0, 30, 79
1, 21456, Note_off_c, 0, 36, 64
1, 21456, Note_on_c, 0, 58, 36
1, 21456, Note_off_c, 0, 61, 64
1, 21456, Note_on_c, 0, 74, 23
1, 21456, Note_off_c, 0, 75, 64
1, 21456, Note_off_c, 0, 86, 64
1, 21457, Note_on_c, 0, 29, 79
1, 21457, Note_off_c, 0, 30, 64
1, 21457, Note_on_c, 0, 49, 57
1, 21457, Note_off_c, 0, 87, 64
1, 21457, Note_off_c, 0, 90, 64
1, 21457, Note_off_c, 0, 103, 64
1, 21458, Note_off_c, 0, 58, 64
1, 21458, Note_on_c, 0, 76, 15
1, 21458, Note_off_c, 0, 80, 64
1, 21458, Note_off_c, 0, 85, 64
1, 21458, Note_off_c, 0, 101, 64
1, 21459, Note_off_c, 0, 29, 64
1, 21459, Note_on_c, 0, 30, 75
1, 21459, Note_off_c, 0, 49, 64
1, 21459, Note_on_c, 0, 63, 29
1, 21459, Note_off_c, 0, 66, 64
1, 21460, Note_on_c, 0, 72, 28
1, 21461, Note_on_c, 0, 29, 72
1, 21461, Note_off_c, 0, 30, 64
1, 21461, Note_off_c, 0, 63, 64
1, 21462, Note_off_c, 0, 29, 64
1, 21462, Note_on_c, 0, 30, 69
1, 21462, Note_on_c, 0, 66, 36
1, 21463, Note_on_c, 0, 71, 20
1, 21463, Note_off_c, 0, 72, 64
1, 21464, Note_off_c, 0, 30, 64
1, 21464, Note_off_c, 0, 74, 64
1, 21464, Note_off_c, 0, 76, 64
1, 21464, Note_on_c, 0, 82, 12
1, 21464, Note_on_c, 0, 100, 24
1, 21465, Note_on_c, 0, 35, 70
1, 21465, Note_on_c, 0, 61, 30
1, 21465, Note_on_c, 0, 86, 19
1, 21465, Note_on_c, 0, 98, 19
1, 21466, Note_on_c, 0, 31, 78
1, 21466, Note_off_c, 0, 35, 64
1, 21466, Note_on_c, 0, 68, 29
1, 21466, Note_off_c, 0, 99, 64
1, 21467, Note_on_c, 0, 30, 82
1, 21467, Note_off_c, 0, 31, 64
1, 21467, Note_off_c, 0, 61, 64
1, 21467, Note_on_c, 0, 63, 37
1, 21467, Note_off_c, 0, 66, 64
1, 21467, Note_off_c, 0, 71, 64
1, 21467, Note_on_c, 0, 72, 32
1, 21467, Note_on_c, 0, 74, 27
1, 21467, Note_on_c, 0, 76, 33
1, 21468, Note_on_c, 0, 29, 80
1, 21468, Note_off_c, 0, 30, 64
1, 21468, Note_on_c, 0, 58, 34
1, 21468, Note_off_c, 0, 86, 64
1, 21469, Note_off_c, 0, 29, 64
1, 21469, Note_on_c, 0, 30, 77
1, 21469, Note_off_c, 0, 63, 64
1, 21469, Note_on_c, 0, 64, 34
1, 21469, Note_off_c, 0, 82, 64
1, 21470, Note_on_c, 0, 49, 49
1, 21470, Note_on_c, 0, 97, 21
1, 21470, Note_off_c, 0, 98, 64
1, 21470, Note_off_c, 0, 100, 64
1, 21471, Note_off_c, 0, 30, 64
1, 21471, Note_on_c, 0, 63, 51
1, 21471, Note_off_c, 0, 64, 64
1, 21471, Note_on_c, 0, 67, 33
1, 21471, Note_off_c, 0, 68, 64
1, 21471, Note_off_c, 0, 74, 64
1, 21471, Note_on_c, 0, 99, 19
1, 21472, Note_off_c, 0, 49, 64
1, 21472, Note_on_c, 0, 54, 59
1, 21472, Note_on_c, 0, 70, 43
1, 21472, Note_on_c, 0, 83, 32
1, 21472, Note_on_c, 0, 86, 27
1, 21473, Note_off_c, 0, 58, 64
1, 21473, Note_off_c, 0, 67, 64
1, 21473, Note_off_c, 0, 72, 64
1, 21473, Note_on_c, 0, 74, 36
1, 21473, Note_off_c, 0, 76, 64
1, 21473, Note_on_c, 0, 77, 37
1, 21473, Note_on_c, 0, 79, 32
1, 21474, Note_on_c, 0, 50, 76
1, 21474, Note_off_c, 0, 54, 64
1, 21474, Note_off_c, 0, 63, 64
1, 21474, Note_off_c, 0, 70, 64
1, 21474, Note_off_c, 0, 83, 64
1, 21474, Note_off_c, 0, 97, 64
1, 21474, Note_off_c, 0, 99, 64
1, 21475, Note_on_c, 0, 46, 87
1, 21475, Note_off_c, 0, 50, 64
1, 21475, Note_off_c, 0, 74, 64
1, 21475, Note_off_c, 0, 77, 64
1, 21475, Note_off_c, 0, 79, 64
1, 21475, Note_off_c, 0, 86, 64
1, 21476, Note_on_c, 0, 44, 94
1, 21476, Note_off_c, 0, 46, 64
1, 21476, Note_on_c, 0, 61, 19
1, 21476, Note_on_c, 0, 66, 20
1, 21476, Note_on_c, 0, 68, 15
1, 21477, Note_on_c, 0, 41, 100
1, 21477, Note_off_c, 0, 44, 64
1, 21478, Note_on_c, 0, 39, 96
1, 21478, Note_off_c, 0, 41, 64
1, 21479, Note_on_c, 0, 37, 98
1, 21479, Note_off_c, 0, 39, 64
1, 21479, Note_off_c, 0, 61, 64
1, 21479, Note_off_c, 0, 66, 64
1, 21480, Note_on_c, 0, 36, 97
1, 21480, Note_off_c, 0, 37, 64
1, 21481, Note_on_c, 0, 35, 97
1, 21481, Note_off_c, 0, 36, 64
1, 21481, Note_off_c, 0, 68, 64
1, 21482, Note_on_c, 0, 34, 96
1, 21482, Note_off_c, 0, 35, 64
1, 21483, Note_on_c, 0, 33, 96
1, 21483, Note_off_c, 0, 34, 64
1, 21483, Note_on_c, 0, 50, 34
1, 21483, Note_on_c, 0, 65, 9
1, 21485, Note_on_c, 0, 32, 96
1, 21485, Note_off_c, 0, 33, 64
1, 21485, Note_on_c, 0, 49, 30
1, 21485, Note_off_c, 0, 50, 64
1, 21486, Note_on_c, 0, 31, 96
1, 21486, Note_off_c, 0, 32, 64
1, 21486, Note_off_c, 0, 65, 64
1, 21487, Note_off_c, 0, 49, 64
1, 21488, Note_on_c, 0, 30, 87
1, 21488, Note_off_c, 0, 31, 64
1, 21489, Note_on_c, 0, 64, 46
1, 21489, Note_on_c, 0, 101, 37
1, 21490, Note_on_c, 0, 81, 19
1, 21490, Note_on_c, 0, 94, 26
1, 21491, Note_off_c, 0, 30, 64
1, 21491, Note_on_c, 0, 86, 24
1, 21491, Note_on_c, 0, 88, 30
1, 21491, Note_on_c, 0, 92, 29
1, 21491, Note_on_c, 0, 93, 25
1, 21491, Note_on_c, 0, 95, 25
1, 21491, Note_on_c, 0, 96, 18
1, 21491, Note_on_c, 0, 97, 16
1, 21491, Note_on_c, 0, 102, 33
1, 21492, Note_on_c, 0, 37, 67
1, 21492, Note_on_c, 0, 79, 12
1, 21492, Note_on_c, 0, 82, 20
1, 21492, Note_on_c, 0, 85, 29
1, 21492, Note_on_c, 0, 99, 21
1, 21493, Note_on_c, 0, 31, 73
1, 21493, Note_off_c, 0, 37, 64
1, 21493, Note_on_c, 0, 54, 60
1, 21493, Note_on_c, 0, 72, 19
1, 21493, Note_off_c, 0, 102, 64
1, 21494, Note_on_c, 0, 30, 79
1, 21494, Note_off_c, 0, 31, 64
1, 21494, Note_on_c, 0, 74, 18
1, 21494, Note_off_c, 0, 86, 64
1, 21494, Note_off_c, 0, 88, 64
1, 21494, Note_off_c, 0, 93, 64
1, 21494, Note_off_c, 0, 95, 64
1, 21494, Note_off_c, 0, 97, 64
1, 21495, Note_on_c, 0, 29, 80
1, 21495, Note_off_c, 0, 30, 64
1, 21495, Note_off_c, 0, 64, 64
1, 21495, Note_off_c, 0, 81, 64
1, 21495, Note_off_c, 0, 82, 64
1, 21495, Note_on_c, 0, 83, 15
1, 21495, Note_off_c, 0, 85, 64
1, 21495, Note_off_c, 0, 92, 64
1, 21495, Note_off_c, 0, 94, 64
1, 21495, Note_off_c, 0, 99, 64
1, 21496, Note_off_c, 0, 29, 64
1, 21496, Note_on_c, 0, 30, 77
1, 21496, Note_off_c, 0, 54, 64
1, 21496, Note_on_c, 0, 61, 36
1, 21496, Note_on_c, 0, 64, 40
1, 21497, Note_on_c, 0, 54, 47
1, 21497, Note_on_c, 0, 70, 32
1, 21497, Note_off_c, 0, 72, 64
1, 21497, Note_off_c, 0, 74, 64
1, 21497, Note_off_c, 0, 96, 64
1, 21498, Note_on_c, 0, 48, 54
1, 21499, Note_on_c, 0, 29, 71
1, 21499, Note_off_c, 0, 30, 64
1, 21499, Note_off_c, 0, 64, 64
1, 21499, Note_off_c, 0, 79, 64
1, 21499, Note_off_c, 0, 83, 64
1, 21499, Note_on_c, 0, 102, 29
1, 21500, Note_off_c, 0, 48, 64
1, 21500, Note_on_c, 0, 49, 42
1, 21500, Note_on_c, 0, 74, 20
1, 21500, Note_off_c, 0, 101, 64
1, 21501, Note_off_c, 0, 29, 64
1, 21501, Note_on_c, 0, 64, 41
1, 21501, Note_on_c, 0, 68, 32
1, 21501, Note_on_c, 0, 88, 15
1, 21502, Note_off_c, 0, 49, 64
1, 21502, Note_off_c, 0, 54, 64
1, 21502, Note_on_c, 0, 55, 49
1, 21502, Note_on_c, 0, 81, 34
1, 21502, Note_on_c, 0, 83, 10
1, 21503, Note_on_c, 0, 36, 71
1, 21503, Note_off_c, 0, 68, 64
1, 21503, Note_off_c, 0, 74, 64
1, 21503, Note_on_c, 0, 77, 14
1, 21504, Note_on_c, 0, 29, 82
1, 21504, Note_off_c, 0, 36, 64
1, 21504, Note_on_c, 0, 43, 65
1, 21504, Note_off_c, 0, 55, 64
1, 21504, Note_on_c, 0, 75, 21
1, 21504, Note_on_c, 0, 95, 10
1, 21504, Note_on_c, 0, 97, 15
1, 21504, Note_off_c, 0, 102, 64
1, 21504, Note_on_c, 0, 103, 28
1, 21505, Note_off_c, 0, 43, 64
1, 21505, Note_off_c, 0, 83, 64
1, 21505, Note_off_c, 0, 88, 64
1, 21506, Note_off_c, 0, 61, 64
1, 21506, Note_off_c, 0, 64, 64
1, 21506, Note_on_c, 0, 76, 18
1, 21506, Note_off_c, 0, 77, 64
1, 21506, Note_on_c, 0, 78, 23
1, 21506, Note_on_c, 0, 102, 23
1, 21507, Note_off_c, 0, 29, 64
1, 21507, Note_on_c, 0, 30, 76
1, 21507, Note_on_c, 0, 68, 40
1, 21507, Note_off_c, 0, 75, 64
1, 21507, Note_off_c, 0, 95, 64
1, 21507, Note_off_c, 0, 103, 64
1, 21508, Note_off_c, 0, 30, 64
1, 21508, Note_on_c, 0, 31, 66
1, 21508, Note_off_c, 0, 70, 64
1, 21508, Note_off_c, 0, 97, 64
1, 21509, Note_off_c, 0, 31, 64
1, 21509, Note_on_c, 0, 48, 40
1, 21509, Note_on_c, 0, 54, 69
1, 21509, Note_on_c, 0, 71, 42
1, 21509, Note_on_c, 0, 74, 37
1, 21509, Note_on_c, 0, 77, 38
1, 21509, Note_on_c, 0, 79, 38
1, 21509, Note_on_c, 0, 84, 36
1, 21509, Note_on_c, 0, 87, 34
1, 21509, Note_on_c, 0, 88, 26
1, 21509, Note_on_c, 0, 90, 30
1, 21509, Note_on_c, 0, 92, 26
1, 21509, Note_on_c, 0, 97, 18
1, 21509, Note_on_c, 0, 98, 20
1, 21510, Note_off_c, 0, 76, 64
1, 21510, Note_off_c, 0, 78, 64
1, 21511, Note_on_c, 0, 21, 42
1, 21511, Note_off_c, 0, 48, 64
1, 21511, Note_off_c, 0, 68, 64
1, 21511, Note_off_c, 0, 71, 64
1, 21511, Note_on_c, 0, 72, 36
1, 21512, Note_on_c, 0, 48, 82
1, 21512, Note_off_c, 0, 54, 64
1, 21512, Note_on_c, 0, 66, 21
1, 21512, Note_off_c, 0, 74, 64
1, 21512, Note_off_c, 0, 77, 64
1, 21512, Note_off_c, 0, 81, 64
1, 21512, Note_off_c, 0, 87, 64
1, 21512, Note_off_c, 0, 88, 64
1, 21512, Note_off_c, 0, 90, 64
1, 21512, Note_off_c, 0, 92, 64
1, 21512, Note_off_c, 0, 97, 64
1, 21512, Note_off_c, 0, 98, 64
1, 21512, Note_off_c, 0, 102, 64
1, 21513, Note_off_c, 0, 21, 64
1, 21513, Note_on_c, 0, 45, 93
1, 21513, Note_off_c, 0, 48, 64
1, 21513, Note_off_c, 0, 72, 64
1, 21514, Note_on_c, 0, 42, 98
1, 21514, Note_off_c, 0, 45, 64
1, 21514, Note_on_c, 0, 74, 13
1, 21514, Note_off_c, 0, 84, 64
1, 21515, Note_on_c, 0, 40, 98
1, 21515, Note_off_c, 0, 42, 64
1, 21515, Note_on_c, 0, 64, 17
1, 21515, Note_off_c, 0, 66, 64
1, 21515, Note_off_c, 0, 79, 64
1, 21516, Note_on_c, 0, 38, 97
1, 21516, Note_off_c, 0, 40, 64
1, 21517, Note_on_c, 0, 37, 97
1, 21517, Note_off_c, 0, 38, 64
1, 21518, Note_on_c, 0, 35, 96
1, 21518, Note_off_c, 0, 37, 64
1, 21518, Note_on_c, 0, 63, 12
1, 21518, Note_off_c, 0, 64, 64
1, 21519, Note_on_c, 0, 34, 96
1, 21519, Note_off_c, 0, 35, 64
1, 21519, Note_on_c, 0, 95, 20
1, 21519, Note_on_c, 0, 97, 20
1, 21519, Note_on_c, 0, 101, 23
1, 21521, Note_on_c, 0, 33, 95
1, 21521, Note_off_c, 0, 34, 64
1, 21521, Note_off_c, 0, 63, 64
1, 21522, Note_on_c, 0, 32, 96
1, 21522, Note_off_c, 0, 33, 64
1, 21522, Note_on_c, 0, 81, 16
1, 21522, Note_off_c, 0, 95, 64
1, 21522, Note_off_c, 0, 97, 64
1, 21522, Note_off_c, 0, 101, 64
1, 21523, Note_off_c, 0, 74, 64
1, 21524, Note_on_c, 0, 31, 96
1, 21524, Note_off_c, 0, 32, 64
1, 21524, Note_on_c, 0, 69, 21
1, 21525, Note_on_c, 0, 30, 92
1, 21525, Note_off_c, 0, 31, 64
1, 21525, Note_on_c, 0, 63, 38
1, 21525, Note_on_c, 0, 78, 10
1, 21527, Note_off_c, 0, 69, 64
1, 21527, Note_on_c, 0, 73, 33
1, 21528, Note_off_c, 0, 30, 64
1, 21528, Note_off_c, 0, 63, 64
1, 21528, Note_on_c, 0, 64, 35
1, 21528, Note_on_c, 0, 70, 18
1, 21528, Note_off_c, 0, 78, 64
1, 21528, Note_on_c, 0, 79, 14
1, 21529, Note_on_c, 0, 45, 66
1, 21529, Note_on_c, 0, 77, 23
1, 21529, Note_off_c, 0, 81, 64
1, 21529, Note_on_c, 0, 88, 14
1, 21530, Note_on_c, 0, 36, 69
1, 21530, Note_off_c, 0, 45, 64
1, 21530, Note_off_c, 0, 64, 64
1, 21530, Note_on_c, 0, 82, 19
1, 21531, Note_on_c, 0, 31, 73
1, 21531, Note_off_c, 0, 36, 64
1, 21531, Note_on_c, 0, 49, 61
1, 21531, Note_on_c, 0, 74, 23
1, 21531, Note_on_c, 0, 78, 17
1, 21531, Note_off_c, 0, 79, 64
1, 21531, Note_on_c, 0, 87, 10
1, 21532, Note_on_c, 0, 29, 73
1, 21532, Note_off_c, 0, 31, 64
1, 21532, Note_off_c, 0, 70, 64
1, 21532, Note_on_c, 0, 71, 22
1, 21532, Note_off_c, 0, 73, 64
1, 21532, Note_off_c, 0, 77, 64
1, 21532, Note_on_c, 0, 81, 14
1, 21533, Note_off_c, 0, 29, 64
1, 21533, Note_on_c, 0, 30, 71
1, 21534, Note_on_c, 0, 66, 41
1, 21534, Note_off_c, 0, 88, 64
1, 21535, Note_off_c, 0, 49, 64
1, 21535, Note_off_c, 0, 74, 64
1, 21536, Note_on_c, 0, 29, 71
1, 21536, Note_off_c, 0, 30, 64
1, 21536, Note_off_c, 0, 71, 64
1, 21536, Note_on_c, 0, 76, 23
1, 21536, Note_off_c, 0, 81, 64
1, 21536, Note_off_c, 0, 82, 64
1, 21536, Note_off_c, 0, 87, 64
1, 21537, Note_on_c, 0, 73, 26
1, 21537, Note_on_c, 0, 79, 20
1, 21537, Note_on_c, 0, 101, 19
1, 21538, Note_on_c, 0, 68, 33
1, 21538, Note_on_c, 0, 75, 34
1, 21538, Note_on_c, 0, 93, 11
1, 21538, Note_on_c, 0, 100, 22
1, 21538, Note_on_c, 0, 103, 19
1, 21539, Note_off_c, 0, 29, 64
1, 21540, Note_on_c, 0, 42, 71
1, 21540, Note_off_c, 0, 76, 64
1, 21540, Note_on_c, 0, 81, 16
1, 21540, Note_on_c, 0, 86, 21
1, 21541, Note_on_c, 0, 30, 79
1, 21541, Note_on_c, 0, 41, 68
1, 21541, Note_off_c, 0, 42, 64
1, 21541, Note_on_c, 0, 61, 21
1, 21541, Note_on_c, 0, 74, 31
1, 21541, Note_off_c, 0, 75, 64
1, 21541, Note_on_c, 0, 76, 29
1, 21541, Note_off_c, 0, 78, 64
1, 21542, Note_off_c, 0, 41, 64
1, 21542, Note_off_c, 0, 73, 64
1, 21542, Note_off_c, 0, 93, 64
1, 21543, Note_on_c, 0, 29, 79
1, 21543, Note_off_c, 0, 30, 64
1, 21543, Note_on_c, 0, 54, 55
1, 21543, Note_off_c, 0, 81, 64
1, 21543, Note_on_c, 0, 89, 29
1, 21544, Note_off_c, 0, 29, 64
1, 21544, Note_on_c, 0, 30, 75
1, 21544, Note_off_c, 0, 61, 64
1, 21544, Note_off_c, 0, 76, 64
1, 21544, Note_on_c, 0, 77, 37
1, 21544, Note_off_c, 0, 79, 64
1, 21544, Note_on_c, 0, 81, 31
1, 21544, Note_on_c, 0, 83, 32
1, 21544, Note_off_c, 0, 101, 64
1, 21545, Note_off_c, 0, 30, 64
1, 21545, Note_on_c, 0, 34, 68
1, 21545, Note_on_c, 0, 48, 52
1, 21545, Note_off_c, 0, 66, 64
1, 21545, Note_on_c, 0, 70, 48
1, 21545, Note_off_c, 0, 100, 64
1, 21545, Note_off_c, 0, 103, 64
1, 21546, Note_off_c, 0, 34, 64
1, 21546, Note_on_c, 0, 63, 39
1, 21546, Note_off_c, 0, 68, 64
1, 21546, Note_on_c, 0, 72, 34
1, 21546, Note_on_c, 0, 85, 36
1, 21546, Note_on_c, 0, 88, 29
1, 21547, Note_off_c, 0, 54, 64
1, 21547, Note_off_c, 0, 74, 64
1, 21547, Note_on_c, 0, 79, 39
1, 21547, Note_off_c, 0, 86, 64
1, 21547, Note_on_c, 0, 92, 21
1, 21547, Note_on_c, 0, 94, 23
1, 21547, Note_on_c, 0, 98, 24
1, 21547, Note_on_c, 0, 99, 21
1, 21547, Note_on_c, 0, 101, 30
1, 21548, Note_off_c, 0, 48, 64
1, 21548, Note_off_c, 0, 63, 64
1, 21548, Note_off_c, 0, 72, 64
1, 21548, Note_on_c, 0, 74, 41
1, 21548, Note_on_c, 0, 76, 42
1, 21548, Note_off_c, 0, 77, 64
1, 21548, Note_on_c, 0, 80, 34
1, 21548, Note_off_c, 0, 81, 64
1, 21548, Note_off_c, 0, 89, 64
1, 21549, Note_on_c, 0, 50, 77
1, 21549, Note_on_c, 0, 65, 47
1, 21549, Note_on_c, 0, 68, 29
1, 21550, Note_on_c, 0, 45, 88
1, 21550, Note_off_c, 0, 50, 64
1, 21550, Note_off_c, 0, 70, 64
1, 21550, Note_off_c, 0, 74, 64
1, 21550, Note_off_c, 0, 83, 64
1, 21550, Note_off_c, 0, 85, 64
1, 21550, Note_off_c, 0, 88, 64
1, 21550, Note_off_c, 0, 94, 64
1, 21550, Note_off_c, 0, 98, 64
1, 21551, Note_on_c, 0, 43, 94
1, 21551, Note_off_c, 0, 45, 64
1, 21551, Note_off_c, 0, 68, 64
1, 21551, Note_off_c, 0, 76, 64
1, 21551, Note_off_c, 0, 79, 64
1, 21551, Note_off_c, 0, 80, 64
1, 21551, Note_off_c, 0, 92, 64
1, 21551, Note_off_c, 0, 99, 64
1, 21551, Note_off_c, 0, 101, 64
1, 21552, Note_on_c, 0, 41, 100
1, 21552, Note_off_c, 0, 43, 64
1, 21553, Note_on_c, 0, 39, 97
1, 21553, Note_off_c, 0, 41, 64
1, 21554, Note_on_c, 0, 37, 98
1, 21554, Note_off_c, 0, 39, 64
1, 21555, Note_on_c, 0, 36, 97
1, 21555, Note_off_c, 0, 37, 64
1, 21556, Note_on_c, 0, 35, 96
1, 21556, Note_off_c, 0, 36, 64
1, 21557, Note_on_c, 0, 34, 96
1, 21557, Note_off_c, 0, 35, 64
1, 21557, Note_off_c, 0, 65, 64
1, 21558, Note_on_c, 0, 33, 95
1, 21558, Note_off_c, 0, 34, 64
1, 21559, Note_on_c, 0, 32, 96
1, 21559, Note_off_c, 0, 33, 64
1, 21561, Note_on_c, 0, 31, 96
1, 21561, Note_off_c, 0, 32, 64
1, 21563, Note_on_c, 0, 30, 88
1, 21563, Note_off_c, 0, 31, 64
1, 21563, Note_on_c, 0, 69, 27
1, 21564, Note_on_c, 0, 67, 41
1, 21565, Note_off_c, 0, 30, 64
1, 21567, Note_on_c, 0, 37, 69
1, 21567, Note_on_c, 0, 61, 34
1, 21567, Note_on_c, 0, 64, 38
1, 21567, Note_on_c, 0, 77, 11
1, 21568, Note_on_c, 0, 30, 78
1, 21568, Note_off_c, 0, 37, 64
1, 21568, Note_off_c, 0, 69, 64
1, 21568, Note_on_c, 0, 71, 29
1, 21568, Note_on_c, 0, 101, 14
1, 21569, Note_on_c, 0, 69, 29
1, 21570, Note_on_c, 0, 29, 78
1, 21570, Note_off_c, 0, 30, 64
1, 21570, Note_on_c, 0, 49, 58
1, 21570, Note_off_c, 0, 77, 64
1, 21571, Note_off_c, 0, 101, 64
1, 21572, Note_off_c, 0, 29, 64
1, 21572, Note_on_c, 0, 30, 74
1, 21572, Note_on_c, 0, 48, 56
1, 21572, Note_off_c, 0, 49, 64
1, 21572, Note_off_c, 0, 64, 64
1, 21572, Note_off_c, 0, 69, 64
1, 21573, Note_on_c, 0, 69, 26
1, 21573, Note_off_c, 0, 71, 64
1, 21573, Note_on_c, 0, 90, 10
1, 21574, Note_on_c, 0, 29, 72
1, 21574, Note_off_c, 0, 30, 64
1, 21574, Note_off_c, 0, 48, 64
1, 21574, Note_off_c, 0, 61, 64
1, 21574, Note_on_c, 0, 103, 12
1, 21575, Note_off_c, 0, 29, 64
1, 21575, Note_on_c, 0, 30, 69
1, 21576, Note_on_c, 0, 63, 27
1, 21576, Note_off_c, 0, 90, 64
1, 21577, Note_off_c, 0, 30, 64
1, 21577, Note_on_c, 0, 82, 35
1, 21578, Note_on_c, 0, 36, 70
1, 21578, Note_on_c, 0, 54, 54
1, 21578, Note_off_c, 0, 67, 64
1, 21578, Note_off_c, 0, 69, 64
1, 21578, Note_on_c, 0, 72, 18
1, 21578, Note_on_c, 0, 101, 17
1, 21579, Note_on_c, 0, 30, 80
1, 21579, Note_off_c, 0, 36, 64
1, 21579, Note_off_c, 0, 63, 64
1, 21579, Note_on_c, 0, 83, 12
1, 21579, Note_on_c, 0, 99, 14
1, 21579, Note_off_c, 0, 103, 64
1, 21580, Note_on_c, 0, 29, 82
1, 21580, Note_off_c, 0, 30, 64
1, 21580, Note_on_c, 0, 69, 29
1, 21580, Note_on_c, 0, 85, 31
1, 21580, Note_on_c, 0, 102, 16
1, 21581, Note_off_c, 0, 29, 64
1, 21581, Note_on_c, 0, 30, 79
1, 21581, Note_off_c, 0, 54, 64
1, 21581, Note_off_c, 0, 72, 64
1, 21581, Note_on_c, 0, 74, 31
1, 21581, Note_on_c, 0, 75, 11
1, 21582, Note_off_c, 0, 69, 64
1, 21582, Note_on_c, 0, 79, 38
1, 21582, Note_off_c, 0, 99, 64
1, 21582, Note_off_c, 0, 101, 64
1, 21583, Note_off_c, 0, 30, 64
1, 21583, Note_on_c, 0, 54, 37
1, 21583, Note_on_c, 0, 67, 46
1, 21583, Note_off_c, 0, 83, 64
1, 21583, Note_on_c, 0, 84, 33
1, 21584, Note_on_c, 0, 48, 41
1, 21584, Note_off_c, 0, 75, 64
1, 21584, Note_on_c, 0, 76, 36
1, 21584, Note_on_c, 0, 89, 29
1, 21584, Note_on_c, 0, 90, 26
1, 21584, Note_on_c, 0, 93, 23
1, 21584, Note_on_c, 0, 95, 18
1, 21584, Note_on_c, 0, 100, 23
1, 21585, Note_off_c, 0, 54, 64
1, 21585, Note_off_c, 0, 74, 64
1, 21586, Note_off_c, 0, 48, 64
1, 21586, Note_on_c, 0, 53, 69
1, 21586, Note_on_c, 0, 63, 47
1, 21586, Note_off_c, 0, 67, 64
1, 21586, Note_on_c, 0, 68, 40
1, 21586, Note_off_c, 0, 82, 64
1, 21587, Note_on_c, 0, 48, 83
1, 21587, Note_off_c, 0, 53, 64
1, 21587, Note_off_c, 0, 76, 64
1, 21587, Note_off_c, 0, 79, 64
1, 21587, Note_off_c, 0, 84, 64
1, 21587, Note_off_c, 0, 85, 64
1, 21587, Note_off_c, 0, 89, 64
1, 21587, Note_off_c, 0, 90, 64
1, 21587, Note_off_c, 0, 93, 64
1, 21587, Note_off_c, 0, 95, 64
1, 21587, Note_off_c, 0, 100, 64
1, 21587, Note_off_c, 0, 102, 64
1, 21588, Note_on_c, 0, 45, 93
1, 21588, Note_off_c, 0, 48, 64
1, 21588, Note_on_c, 0, 66, 26
1, 21589, Note_on_c, 0, 42, 98
1, 21589, Note_off_c, 0, 45, 64
1, 21589, Note_off_c, 0, 68, 64
1, 21590, Note_on_c, 0, 40, 97
1, 21590, Note_off_c, 0, 42, 64
1, 21591, Note_on_c, 0, 38, 98
1, 21591, Note_off_c, 0, 40, 64
1, 21591, Note_off_c, 0, 63, 64
1, 21592, Note_on_c, 0, 37, 98
1, 21592, Note_off_c, 0, 38, 64
1, 21593, Note_on_c, 0, 35, 96
1, 21593, Note_off_c, 0, 37, 64
1, 21593, Note_on_c, 0, 63, 10
1, 21594, Note_on_c, 0, 34, 95
1, 21594, Note_off_c, 0, 35, 64
1, 21595, Note_on_c, 0, 33, 95
1, 21595, Note_off_c, 0, 34, 64
1, 21596, Note_off_c, 0, 63, 64
1, 21597, Note_on_c, 0, 32, 96
1, 21597, Note_off_c, 0, 33, 64
1, 21597, Note_on_c, 0, 65, 17
1, 21597, Note_off_c, 0, 66, 64
1, 21599, Note_on_c, 0, 31, 95
1, 21599, Note_off_c, 0, 32, 64
1, 21600, Note_on_c, 0, 30, 91
1, 21600, Note_off_c, 0, 31, 64
1, 21601, Note_off_c, 0, 65, 64
1, 21602, Note_on_c, 0, 65, 29
1, 21603, Note_off_c, 0, 30, 64
1, 21603, Note_on_c, 0, 62, 38
1, 21603, Note_on_c, 0, 83, 24
1, 21603, Note_on_c, 0, 85, 29
1, 21603, Note_on_c, 0, 96, 18
1, 21603, Note_on_c, 0, 100, 20
1, 21604, Note_on_c, 0, 68, 15
1, 21604, Note_on_c, 0, 71, 22
1, 21604, Note_on_c, 0, 79, 18
1, 21604, Note_on_c, 0, 87, 19
1, 21604, Note_on_c, 0, 92, 16
1, 21605, Note_on_c, 0, 31, 76
1, 21605, Note_off_c, 0, 62, 64
1, 21605, Note_off_c, 0, 65, 64
1, 21605, Note_on_c, 0, 76, 20
1, 21605, Note_on_c, 0, 101, 11
1, 21606, Note_on_c, 0, 58, 35
1, 21606, Note_off_c, 0, 83, 64
1, 21606, Note_off_c, 0, 100, 64
1, 21607, Note_on_c, 0, 29, 79
1, 21607, Note_off_c, 0, 31, 64
1, 21607, Note_on_c, 0, 67, 28
1, 21607, Note_off_c, 0, 68, 64
1, 21608, Note_off_c, 0, 58, 64
1, 21608, Note_off_c, 0, 79, 64
1, 21608, Note_off_c, 0, 92, 64
1, 21609, Note_off_c, 0, 29, 64
1, 21609, Note_on_c, 0, 30, 75
1, 21609, Note_on_c, 0, 63, 31
1, 21609, Note_off_c, 0, 71, 64
1, 21609, Note_off_c, 0, 101, 64
1, 21610, Note_on_c, 0, 77, 17
1, 21610, Note_off_c, 0, 96, 64
1, 21611, Note_on_c, 0, 29, 73
1, 21611, Note_off_c, 0, 30, 64
1, 21611, Note_off_c, 0, 63, 64
1, 21611, Note_off_c, 0, 76, 64
1, 21612, Note_off_c, 0, 85, 64
1, 21613, Note_off_c, 0, 29, 64
1, 21613, Note_on_c, 0, 30, 64
1, 21613, Note_off_c, 0, 77, 64
1, 21613, Note_on_c, 0, 84, 14
1, 21613, Note_off_c, 0, 87, 64
1, 21614, Note_on_c, 0, 75, 15
1, 21614, Note_on_c, 0, 90, 15
1, 21615, Note_off_c, 0, 30, 64
1, 21615, Note_on_c, 0, 35, 70
1, 21615, Note_off_c, 0, 67, 64
1, 21615, Note_on_c, 0, 68, 22
1, 21615, Note_on_c, 0, 72, 22
1, 21615, Note_on_c, 0, 78, 19
1, 21616, Note_on_c, 0, 31, 75
1, 21616, Note_off_c, 0, 35, 64
1, 21616, Note_on_c, 0, 61, 40
1, 21616, Note_on_c, 0, 91, 27
1, 21617, Note_on_c, 0, 30, 80
1, 21617, Note_off_c, 0, 31, 64
1, 21617, Note_off_c, 0, 75, 64
1, 21617, Note_on_c, 0, 83, 27
1, 21617, Note_off_c, 0, 84, 64
1, 21617, Note_off_c, 0, 90, 64
1, 21618, Note_on_c, 0, 29, 81
1, 21618, Note_off_c, 0, 30, 64
1, 21618, Note_off_c, 0, 72, 64
1, 21618, Note_on_c, 0, 75, 35
1, 21618, Note_off_c, 0, 78, 64
1, 21619, Note_off_c, 0, 29, 64
1, 21619, Note_on_c, 0, 30, 77
1, 21619, Note_on_c, 0, 48, 58
1, 21619, Note_on_c, 0, 101, 22
1, 21620, Note_on_c, 0, 54, 38
1, 21620, Note_off_c, 0, 61, 64
1, 21620, Note_off_c, 0, 68, 64
1, 21621, Note_off_c, 0, 30, 64
1, 21621, Note_on_c, 0, 59, 37
1, 21621, Note_on_c, 0, 77, 31
1, 21621, Note_on_c, 0, 78, 32
1, 21621, Note_on_c, 0, 81, 33
1, 21621, Note_on_c, 0, 86, 30
1, 21622, Note_off_c, 0, 54, 64
1, 21622, Note_on_c, 0, 80, 29
1, 21622, Note_on_c, 0, 84, 30
1, 21623, Note_off_c, 0, 48, 64
1, 21623, Note_off_c, 0, 59, 64
1, 21623, Note_on_c, 0, 64, 51
1, 21623, Note_on_c, 0, 70, 39
1, 21623, Note_on_c, 0, 73, 36
1, 21623, Note_off_c, 0, 77, 64
1, 21623, Note_off_c, 0, 83, 64
1, 21624, Note_on_c, 0, 50, 78
1, 21624, Note_off_c, 0, 75, 64
1, 21624, Note_off_c, 0, 80, 64
1, 21624, Note_off_c, 0, 81, 64
1, 21624, Note_off_c, 0, 84, 64
1, 21624, Note_off_c, 0, 86, 64
1, 21624, Note_off_c, 0, 91, 64
1, 21624, Note_off_c, 0, 101, 64
1, 21625, Note_on_c, 0, 46, 90
1, 21625, Note_off_c, 0, 50, 64
1, 21625, Note_off_c, 0, 64, 64
1, 21625, Note_off_c, 0, 70, 64
1, 21625, Note_off_c, 0, 73, 64
1, 21625, Note_off_c, 0, 78, 64
1, 21626, Note_on_c, 0, 42, 96
1, 21626, Note_off_c, 0, 46, 64
1, 21627, Note_on_c, 0, 41, 100
1, 21627, Note_off_c, 0, 42, 64
1, 21628, Note_on_c, 0, 39, 97
1, 21628, Note_off_c, 0, 41, 64
1, 21629, Note_on_c, 0, 37, 98
1, 21629, Note_off_c, 0, 39, 64
1, 21630, Note_on_c, 0, 36, 97
1, 21630, Note_off_c, 0, 37, 64
1, 21631, Note_on_c, 0, 35, 97
1, 21631, Note_off_c, 0, 36, 64
1, 21632, Note_on_c, 0, 34, 96
1, 21632, Note_off_c, 0, 35, 64
1, 21633, Note_on_c, 0, 33, 95
1, 21633, Note_off_c, 0, 34, 64
1, 21633, Note_on_c, 0, 64, 16
1, 21634, Note_on_c, 0, 32, 97
1, 21634, Note_off_c, 0, 33, 64
1, 21636, Note_on_c, 0, 31, 97
1, 21636, Note_off_c, 0, 32, 64
1, 21637, Note_on_c, 0, 63, 10
1, 21637, Note_off_c, 0, 64, 64
1, 21638, Note_on_c, 0, 30, 88
1, 21638, Note_off_c, 0, 31, 64
1, 21640, Note_off_c, 0, 30, 64
1, 21641, Note_off_c, 0, 63, 64
1, 21641, Note_on_c, 0, 68, 20
1, 21641, Note_on_c, 0, 71, 20
1, 21641, Note_on_c, 0, 74, 19
1, 21641, Note_on_c, 0, 85, 35
1, 21641, Note_on_c, 0, 91, 9
1, 21641, Note_on_c, 0, 92, 20
1, 21641, Note_on_c, 0, 94, 15
1, 21641, Note_on_c, 0, 96, 26
1, 21641, Note_on_c, 0, 101, 17
1, 21642, Note_on_c, 0, 37, 70
1, 21642, Note_on_c, 0, 61, 31
1, 21642, Note_on_c, 0, 88, 11
1, 21643, Note_on_c, 0, 30, 78
1, 21643, Note_off_c, 0, 37, 64
1, 21643, Note_on_c, 0, 49, 59
1, 21643, Note_on_c, 0, 99, 20
1, 21644, Note_on_c, 0, 63, 29
1, 21644, Note_off_c, 0, 71, 64
1, 21644, Note_off_c, 0, 74, 64
1, 21644, Note_off_c, 0, 91, 64
1, 21644, Note_off_c, 0, 101, 64
1, 21645, Note_on_c, 0, 29, 78
1, 21645, Note_off_c, 0, 30, 64
1, 21645, Note_off_c, 0, 61, 64
1, 21645, Note_off_c, 0, 92, 64
1, 21645, Note_off_c, 0, 96, 64
1, 21646, Note_off_c, 0, 49, 64
1, 21646, Note_on_c, 0, 61, 27
1, 21646, Note_off_c, 0, 63, 64
1, 21646, Note_off_c, 0, 68, 64
1, 21647, Note_on_c, 0, 71, 14
1, 21647, Note_off_c, 0, 94, 64
1, 21647, Note_off_c, 0, 99, 64
1, 21648, Note_off_c, 0, 88, 64
1, 21648, Note_on_c, 0, 95, 21
1, 21649, Note_off_c, 0, 29, 64
1, 21649, Note_on_c, 0, 30, 73
1, 21649, Note_off_c, 0, 61, 64
1, 21649, Note_off_c, 0, 85, 64
1, 21650, Note_off_c, 0, 71, 64
1, 21651, Note_on_c, 0, 43, 62
1, 21651, Note_on_c, 0, 66, 31
1, 21651, Note_on_c, 0, 77, 20
1, 21651, Note_off_c, 0, 95, 64
1, 21652, Note_off_c, 0, 30, 64
1, 21652, Note_on_c, 0, 81, 14
1, 21653, Note_on_c, 0, 32, 70
1, 21653, Note_off_c, 0, 43, 64
1, 21653, Note_on_c, 0, 64, 32
1, 21653, Note_off_c, 0, 66, 64
1, 21653, Note_on_c, 0, 88, 16
1, 21654, Note_on_c, 0, 30, 80
1, 21654, Note_off_c, 0, 32, 64
1, 21654, Note_on_c, 0, 43, 65
1, 21654, Note_on_c, 0, 74, 22
1, 21655, Note_on_c, 0, 29, 81
1, 21655, Note_off_c, 0, 30, 64
1, 21655, Note_off_c, 0, 43, 64
1, 21656, Note_off_c, 0, 77, 64
1, 21656, Note_off_c, 0, 81, 64
1, 21657, Note_off_c, 0, 29, 64
1, 21657, Note_on_c, 0, 30, 75
1, 21657, Note_on_c, 0, 54, 42
1, 21657, Note_off_c, 0, 64, 64
1, 21657, Note_on_c, 0, 77, 29
1, 21657, Note_off_c, 0, 88, 64
1, 21658, Note_off_c, 0, 30, 64
1, 21658, Note_on_c, 0, 70, 41
1, 21658, Note_off_c, 0, 74, 64
1, 21658, Note_on_c, 0, 94, 22
1, 21658, Note_on_c, 0, 95, 17
1, 21659, Note_on_c, 0, 48, 41
1, 21659, Note_on_c, 0, 59, 49
1, 21659, Note_on_c, 0, 63, 49
1, 21659, Note_on_c, 0, 74, 37
1, 21659, Note_on_c, 0, 83, 31
1, 21659, Note_on_c, 0, 87, 27
1, 21659, Note_on_c, 0, 88, 26
1, 21659, Note_on_c, 0, 89, 29
1, 21659, Note_on_c, 0, 91, 31
1, 21659, Note_on_c, 0, 92, 27
1, 21659, Note_on_c, 0, 97, 18
1, 21660, Note_on_c, 0, 53, 72
1, 21660, Note_off_c, 0, 54, 64
1, 21660, Note_on_c, 0, 76, 41
1, 21660, Note_off_c, 0, 77, 64
1, 21660, Note_on_c, 0, 79, 36
1, 21660, Note_on_c, 0, 102, 12
1, 21661, Note_off_c, 0, 48, 64
1, 21661, Note_off_c, 0, 59, 64
1, 21661, Note_off_c, 0, 63, 64
1, 21661, Note_off_c, 0, 95, 64
1, 21662, Note_on_c, 0, 48, 85
1, 21662, Note_off_c, 0, 53, 64
1, 21662, Note_off_c, 0, 70, 64
1, 21662, Note_off_c, 0, 74, 64
1, 21662, Note_off_c, 0, 79, 64
1, 21662, Note_off_c, 0, 83, 64
1, 21662, Note_off_c, 0, 87, 64
1, 21662, Note_off_c, 0, 88, 64
1, 21662, Note_off_c, 0, 89, 64
1, 21662, Note_off_c, 0, 91, 64
1, 21662, Note_off_c, 0, 92, 64
1, 21662, Note_off_c, 0, 94, 64
1, 21663, Note_on_c, 0, 45, 95
1, 21663, Note_off_c, 0, 48, 64
1, 21663, Note_on_c, 0, 68, 16
1, 21663, Note_off_c, 0, 76, 64
1, 21663, Note_off_c, 0, 102, 64
1, 21664, Note_on_c, 0, 42, 99
1, 21664, Note_off_c, 0, 45, 64
1, 21664, Note_off_c, 0, 97, 64
1, 21665, Note_on_c, 0, 40, 97
1, 21665, Note_off_c, 0, 42, 64
1, 21666, Note_on_c, 0, 38, 98
1, 21666, Note_off_c, 0, 40, 64
1, 21667, Note_on_c, 0, 36, 98
1, 21667, Note_off_c, 0, 38, 64
1, 21668, Note_on_c, 0, 35, 97
1, 21668, Note_off_c, 0, 36, 64
1, 21668, Note_off_c, 0, 68, 64
1, 21669, Note_on_c, 0, 34, 96
1, 21669, Note_off_c, 0, 35, 64
1, 21669, Note_on_c, 0, 96, 10
1, 21669, Note_on_c, 0, 97, 14
1, 21670, Note_on_c, 0, 33, 95
1, 21670, Note_off_c, 0, 34, 64
1, 21670, Note_on_c, 0, 92, 9
1, 21672, Note_on_c, 0, 32, 96
1, 21672, Note_off_c, 0, 33, 64
1, 21672, Note_off_c, 0, 96, 64
1, 21672, Note_off_c, 0, 97, 64
1, 21673, Note_on_c, 0, 31, 96
1, 21673, Note_off_c, 0, 32, 64
1, 21673, Note_off_c, 0, 92, 64
1, 21674, Note_on_c, 0, 48, 25
1, 21675, Note_on_c, 0, 30, 90
1, 21675, Note_off_c, 0, 31, 64
1, 21677, Note_off_c, 0, 48, 64
1, 21678, Note_off_c, 0, 30, 64
1, 21678, Note_on_c, 0, 43, 67
1, 21679, Note_on_c, 0, 61, 35
1, 21679, Note_on_c, 0, 85, 14
1, 21679, Note_on_c, 0, 86, 12
1, 21680, Note_on_c, 0, 31, 72
1, 21680, Note_off_c, 0, 43, 64
1, 21680, Note_on_c, 0, 70, 25
1, 21681, Note_on_c, 0, 30, 78
1, 21681, Note_off_c, 0, 31, 64
1, 21681, Note_on_c, 0, 89, 14
1, 21681, Note_on_c, 0, 94, 10
1, 21682, Note_on_c, 0, 29, 79
1, 21682, Note_off_c, 0, 30, 64
1, 21682, Note_off_c, 0, 86, 64
1, 21683, Note_on_c, 0, 69, 22
1, 21684, Note_off_c, 0, 29, 64
1, 21684, Note_on_c, 0, 30, 74
1, 21684, Note_off_c, 0, 70, 64
1, 21684, Note_off_c, 0, 85, 64
1, 21684, Note_off_c, 0, 94, 64
1, 21685, Note_off_c, 0, 89, 64
1, 21685, Note_on_c, 0, 91, 9
1, 21686, Note_on_c, 0, 29, 73
1, 21686, Note_off_c, 0, 30, 64
1, 21686, Note_on_c, 0, 101, 12
1, 21687, Note_off_c, 0, 61, 64
1, 21687, Note_on_c, 0, 68, 34
1, 21687, Note_off_c, 0, 69, 64
1, 21687, Note_on_c, 0, 83, 13
1, 21687, Note_on_c, 0, 84, 9
1, 21688, Note_off_c, 0, 29, 64
1, 21688, Note_on_c, 0, 30, 66
1, 21688, Note_on_c, 0, 49, 50
1, 21689, Note_off_c, 0, 30, 64
1, 21689, Note_on_c, 0, 77, 37
1, 21690, Note_on_c, 0, 36, 69
1, 21690, Note_off_c, 0, 49, 64
1, 21690, Note_off_c, 0, 84, 64
1, 21690, Note_on_c, 0, 86, 9
1, 21690, Note_off_c, 0, 91, 64
1, 21690, Note_on_c, 0, 97, 10
1, 21691, Note_on_c, 0, 30, 82
1, 21691, Note_off_c, 0, 36, 64
1, 21691, Note_on_c, 0, 64, 31
1, 21691, Note_off_c, 0, 101, 64
1, 21692, Note_on_c, 0, 61, 28
1, 21693, Note_on_c, 0, 29, 82
1, 21693, Note_off_c, 0, 30, 64
1, 21693, Note_off_c, 0, 64, 64
1, 21693, Note_on_c, 0, 72, 43
1, 21693, Note_off_c, 0, 97, 64
1, 21694, Note_on_c, 0, 48, 57
1, 21694, Note_on_c, 0, 71, 23
1, 21694, Note_on_c, 0, 85, 33
1, 21694, Note_off_c, 0, 86, 64
1, 21695, Note_off_c, 0, 29, 64
1, 21695, Note_on_c, 0, 31, 69
1, 21695, Note_on_c, 0, 54, 40
1, 21695, Note_off_c, 0, 61, 64
1, 21695, Note_off_c, 0, 68, 64
1, 21695, Note_off_c, 0, 83, 64
1, 21696, Note_off_c, 0, 31, 64
1, 21696, Note_on_c, 0, 32, 57
1, 21696, Note_on_c, 0, 69, 46
1, 21696, Note_on_c, 0, 78, 35
1, 21696, Note_on_c, 0, 83, 30
1, 21696, Note_on_c, 0, 88, 28
1, 21696, Note_on_c, 0, 91, 26
1, 21696, Note_on_c, 0, 95, 32
1, 21696, Note_on_c, 0, 96, 31
1, 21696, Note_on_c, 0, 97, 33
1, 21696, Note_on_c, 0, 100, 28
1, 21696, Note_on_c, 0, 101, 32
1, 21697, Note_off_c, 0, 54, 64
1, 21697, Note_off_c, 0, 71, 64
1, 21697, Note_on_c, 0, 75, 33
1, 21697, Note_on_c, 0, 80, 33
1, 21697, Note_on_c, 0, 86, 29
1, 21697, Note_on_c, 0, 99, 12
1, 21698, Note_off_c, 0, 32, 64
1, 21698, Note_off_c, 0, 48, 64
1, 21699, Note_on_c, 0, 49, 79
1, 21699, Note_off_c, 0, 77, 64
1, 21699, Note_off_c, 0, 78, 64
1, 21699, Note_off_c, 0, 80, 64
1, 21699, Note_off_c, 0, 83, 64
1, 21699, Note_off_c, 0, 86, 64
1, 21699, Note_off_c, 0, 88, 64
1, 21699, Note_off_c, 0, 91, 64
1, 21699, Note_off_c, 0, 96, 64
1, 21699, Note_off_c, 0, 100, 64
1, 21700, Note_on_c, 0, 45, 91
1, 21700, Note_off_c, 0, 49, 64
1, 21700, Note_off_c, 0, 69, 64
1, 21700, Note_off_c, 0, 72, 64
1, 21700, Note_off_c, 0, 75, 64
1, 21700, Note_off_c, 0, 95, 64
1, 21700, Note_off_c, 0, 97, 64
1, 21700, Note_off_c, 0, 99, 64
1, 21700, Note_off_c, 0, 101, 64
1, 21701, Note_on_c, 0, 42, 96
1, 21701, Note_off_c, 0, 45, 64
1, 21701, Note_off_c, 0, 85, 64
1, 21702, Note_on_c, 0, 41, 100
1, 21702, Note_off_c, 0, 42, 64
1, 21703, Note_on_c, 0, 38, 97
1, 21703, Note_off_c, 0, 41, 64
1, 21704, Note_on_c, 0, 37, 98
1, 21704, Note_off_c, 0, 38, 64
1, 21705, Note_on_c, 0, 36, 97
1, 21705, Note_off_c, 0, 37, 64
1, 21706, Note_on_c, 0, 35, 96
1, 21706, Note_off_c, 0, 36, 64
1, 21707, Note_on_c, 0, 34, 95
1, 21707, Note_off_c, 0, 35, 64
1, 21708, Note_on_c, 0, 33, 95
1, 21708, Note_off_c, 0, 34, 64
1, 21710, Note_on_c, 0, 32, 97
1, 21710, Note_off_c, 0, 33, 64
1, 21711, Note_on_c, 0, 31, 97
1, 21711, Note_off_c, 0, 32, 64
1, 21712, Note_on_c, 0, 30, 94
1, 21712, Note_off_c, 0, 31, 64
1, 21715, Note_on_c, 0, 61, 32
1, 21716, Note_off_c, 0, 30, 64
1, 21716, Note_on_c, 0, 70, 25
1, 21716, Note_on_c, 0, 77, 15
1, 21717, Note_on_c, 0, 37, 70
1, 21717, Note_on_c, 0, 66, 19
1, 21717, Note_on_c, 0, 79, 19
1, 21717, Note_on_c, 0, 88, 11
1, 21717, Note_on_c, 0, 93, 14
1, 21718, Note_on_c, 0, 30, 76
1, 21718, Note_off_c, 0, 37, 64
1, 21718, Note_on_c, 0, 49, 59
1, 21718, Note_on_c, 0, 63, 25
1, 21718, Note_on_c, 0, 74, 11
1, 21719, Note_on_c, 0, 29, 79
1, 21719, Note_off_c, 0, 30, 64
1, 21719, Note_off_c, 0, 70, 64
1, 21719, Note_off_c, 0, 77, 64
1, 21720, Note_off_c, 0, 66, 64
1, 21721, Note_off_c, 0, 29, 64
1, 21721, Note_on_c, 0, 30, 76
1, 21721, Note_off_c, 0, 61, 64
1, 21721, Note_off_c, 0, 74, 64
1, 21721, Note_off_c, 0, 79, 64
1, 21721, Note_off_c, 0, 88, 64
1, 21722, Note_off_c, 0, 49, 64
1, 21723, Note_on_c, 0, 29, 74
1, 21723, Note_off_c, 0, 30, 64
1, 21723, Note_off_c, 0, 63, 64
1, 21723, Note_on_c, 0, 79, 17
1, 21723, Note_on_c, 0, 100, 12
1, 21724, Note_on_c, 0, 102, 10
1, 21725, Note_on_c, 0, 76, 26
1, 21725, Note_on_c, 0, 95, 16
1, 21726, Note_off_c, 0, 29, 64
1, 21726, Note_on_c, 0, 61, 35
1, 21726, Note_on_c, 0, 68, 32
1, 21726, Note_off_c, 0, 79, 64
1, 21726, Note_on_c, 0, 81, 14
1, 21726, Note_on_c, 0, 84, 16
1, 21727, Note_on_c, 0, 44, 65
1, 21727, Note_on_c, 0, 83, 31
1, 21727, Note_on_c, 0, 86, 10
1, 21728, Note_on_c, 0, 31, 73
1, 21728, Note_off_c, 0, 44, 64
1, 21728, Note_on_c, 0, 97, 9
1, 21729, Note_on_c, 0, 30, 80
1, 21729, Note_off_c, 0, 31, 64
1, 21729, Note_on_c, 0, 49, 60
1, 21729, Note_on_c, 0, 64, 29
1, 21729, Note_off_c, 0, 81, 64
1, 21729, Note_off_c, 0, 84, 64
1, 21729, Note_off_c, 0, 93, 64
1, 21729, Note_off_c, 0, 100, 64
1, 21730, Note_on_c, 0, 29, 80
1, 21730, Note_off_c, 0, 30, 64
1, 21730, Note_off_c, 0, 76, 64
1, 21730, Note_off_c, 0, 86, 64
1, 21730, Note_on_c, 0, 90, 22
1, 21730, Note_off_c, 0, 102, 64
1, 21731, Note_off_c, 0, 29, 64
1, 21731, Note_on_c, 0, 30, 77
1, 21731, Note_off_c, 0, 49, 64
1, 21731, Note_off_c, 0, 61, 64
1, 21731, Note_off_c, 0, 64, 64
1, 21731, Note_on_c, 0, 91, 25
1, 21732, Note_on_c, 0, 54, 53
1, 21732, Note_on_c, 0, 61, 15
1, 21732, Note_off_c, 0, 68, 64
1, 21732, Note_off_c, 0, 95, 64
1, 21733, Note_off_c, 0, 30, 64
1, 21733, Note_off_c, 0, 97, 64
1, 21734, Note_on_c, 0, 70, 44
1, 21734, Note_on_c, 0, 76, 39
1, 21734, Note_on_c, 0, 81, 34
1, 21734, Note_on_c, 0, 87, 32
1, 21734, Note_on_c, 0, 92, 24
1, 21734, Note_on_c, 0, 94, 24
1, 21734, Note_on_c, 0, 96, 22
1, 21734, Note_on_c, 0, 98, 21
1, 21735, Note_off_c, 0, 61, 64
1, 21735, Note_on_c, 0, 80, 37
1, 21736, Note_on_c, 0, 50, 73
1, 21736, Note_off_c, 0, 54, 64
1, 21736, Note_on_c, 0, 72, 32
1, 21736, Note_off_c, 0, 81, 64
1, 21737, Note_on_c, 0, 48, 85
1, 21737, Note_off_c, 0, 50, 64
1, 21737, Note_off_c, 0, 70, 64
1, 21737, Note_off_c, 0, 76, 64
1, 21737, Note_off_c, 0, 87, 64
1, 21737, Note_off_c, 0, 90, 64
1, 21737, Note_off_c, 0, 91, 64
1, 21738, Note_on_c, 0, 45, 94
1, 21738, Note_off_c, 0, 48, 64
1, 21738, Note_off_c, 0, 72, 64
1, 21738, Note_off_c, 0, 80, 64
1, 21738, Note_off_c, 0, 83, 64
1, 21738, Note_off_c, 0, 92, 64
1, 21738, Note_off_c, 0, 94, 64
1, 21738, Note_off_c, 0, 96, 64
1, 21738, Note_off_c, 0, 98, 64
1, 21739, Note_on_c, 0, 42, 99
1, 21739, Note_off_c, 0, 45, 64
1, 21740, Note_on_c, 0, 40, 97
1, 21740, Note_off_c, 0, 42, 64
1, 21741, Note_on_c, 0, 38, 98
1, 21741, Note_off_c, 0, 40, 64
1, 21742, Note_on_c, 0, 36, 98
1, 21742, Note_off_c, 0, 38, 64
1, 21743, Note_on_c, 0, 35, 97
1, 21743, Note_off_c, 0, 36, 64
1, 21744, Note_on_c, 0, 34, 96
1, 21744, Note_off_c, 0, 35, 64
1, 21745, Note_on_c, 0, 33, 95
1, 21745, Note_off_c, 0, 34, 64
1, 21747, Note_on_c, 0, 32, 96
1, 21747, Note_off_c, 0, 33, 64
1, 21747, Note_on_c, 0, 49, 32
1, 21748, Note_on_c, 0, 31, 97
1, 21748, Note_off_c, 0, 32, 64
1, 21749, Note_off_c, 0, 49, 64
1, 21750, Note_on_c, 0, 30, 90
1, 21750, Note_off_c, 0, 31, 64
1, 21753, Note_off_c, 0, 30, 64
1, 21753, Note_on_c, 0, 62, 34
1, 21753, Note_on_c, 0, 85, 34
1, 21753, Note_on_c, 0, 95, 24
1, 21753, Note_on_c, 0, 96, 21
1, 21754, Note_on_c, 0, 40, 67
1, 21754, Note_on_c, 0, 83, 16
1, 21754, Note_on_c, 0, 88, 17
1, 21754, Note_on_c, 0, 92, 16
1, 21754, Note_on_c, 0, 101, 18
1, 21755, Note_on_c, 0, 30, 78
1, 21755, Note_off_c, 0, 40, 64
1, 21755, Note_on_c, 0, 61, 29
1, 21755, Note_off_c, 0, 62, 64
1, 21755, Note_on_c, 0, 66, 26
1, 21755, Note_on_c, 0, 79, 9
1, 21755, Note_on_c, 0, 99, 11
1, 21756, Note_off_c, 0, 95, 64
1, 21757, Note_on_c, 0, 29, 78
1, 21757, Note_off_c, 0, 30, 64
1, 21757, Note_on_c, 0, 72, 24
1, 21757, Note_on_c, 0, 75, 23
1, 21757, Note_off_c, 0, 83, 64
1, 21757, Note_off_c, 0, 85, 64
1, 21757, Note_off_c, 0, 92, 64
1, 21758, Note_off_c, 0, 29, 64
1, 21758, Note_on_c, 0, 30, 76
1, 21758, Note_off_c, 0, 61, 64
1, 21758, Note_off_c, 0, 88, 64
1, 21758, Note_off_c, 0, 96, 64
1, 21758, Note_off_c, 0, 99, 64
1, 21759, Note_off_c, 0, 79, 64
1, 21759, Note_off_c, 0, 101, 64
1, 21760, Note_on_c, 0, 29, 76
1, 21760, Note_off_c, 0, 30, 64
1, 21760, Note_on_c, 0, 49, 48
1, 21761, Note_off_c, 0, 75, 64
1, 21761, Note_on_c, 0, 77, 22
1, 21762, Note_off_c, 0, 29, 64
1, 21762, Note_on_c, 0, 30, 70
1, 21762, Note_off_c, 0, 49, 64
1, 21762, Note_on_c, 0, 75, 18
1, 21763, Note_on_c, 0, 47, 60
1, 21764, Note_off_c, 0, 30, 64
1, 21764, Note_on_c, 0, 68, 26
1, 21764, Note_off_c, 0, 72, 64
1, 21764, Note_on_c, 0, 82, 21
1, 21764, Note_on_c, 0, 87, 23
1, 21765, Note_on_c, 0, 36, 73
1, 21765, Note_off_c, 0, 47, 64
1, 21765, Note_on_c, 0, 61, 34
1, 21765, Note_on_c, 0, 74, 22
1, 21765, Note_off_c, 0, 75, 64
1, 21765, Note_off_c, 0, 77, 64
1, 21765, Note_on_c, 0, 85, 16
1, 21765, Note_on_c, 0, 102, 10
1, 21766, Note_on_c, 0, 30, 80
1, 21766, Note_off_c, 0, 36, 64
1, 21766, Note_on_c, 0, 63, 30
1, 21767, Note_on_c, 0, 29, 81
1, 21767, Note_off_c, 0, 30, 64
1, 21767, Note_on_c, 0, 49, 60
1, 21767, Note_off_c, 0, 66, 64
1, 21767, Note_on_c, 0, 71, 29
1, 21767, Note_off_c, 0, 87, 64
1, 21767, Note_on_c, 0, 100, 15
1, 21768, Note_off_c, 0, 63, 64
1, 21768, Note_on_c, 0, 64, 30
1, 21768, Note_off_c, 0, 74, 64
1, 21768, Note_on_c, 0, 91, 25
1, 21769, Note_off_c, 0, 29, 64
1, 21769, Note_on_c, 0, 30, 75
1, 21769, Note_off_c, 0, 49, 64
1, 21769, Note_off_c, 0, 71, 64
1, 21769, Note_off_c, 0, 85, 64
1, 21769, Note_off_c, 0, 102, 64
1, 21770, Note_off_c, 0, 30, 64
1, 21770, Note_on_c, 0, 31, 66
1, 21770, Note_on_c, 0, 54, 33
1, 21770, Note_off_c, 0, 61, 64
1, 21770, Note_on_c, 0, 63, 42
1, 21770, Note_off_c, 0, 64, 64
1, 21770, Note_off_c, 0, 68, 64
1, 21770, Note_on_c, 0, 69, 47
1, 21770, Note_on_c, 0, 92, 26
1, 21771, Note_off_c, 0, 31, 64
1, 21771, Note_on_c, 0, 32, 56
1, 21771, Note_on_c, 0, 48, 42
1, 21771, Note_on_c, 0, 73, 37
1, 21771, Note_on_c, 0, 83, 53
1, 21771, Note_on_c, 0, 88, 33
1, 21771, Note_on_c, 0, 89, 35
1, 21771, Note_on_c, 0, 94, 28
1, 21771, Note_on_c, 0, 96, 30
1, 21771, Note_on_c, 0, 98, 18
1, 21772, Note_off_c, 0, 54, 64
1, 21772, Note_off_c, 0, 82, 64
1, 21773, Note_off_c, 0, 32, 64
1, 21773, Note_off_c, 0, 48, 64
1, 21773, Note_off_c, 0, 63, 64
1, 21773, Note_on_c, 0, 74, 42
1, 21773, Note_on_c, 0, 78, 28
1, 21773, Note_on_c, 0, 79, 34
1, 21773, Note_on_c, 0, 82, 33
1, 21773, Note_on_c, 0, 87, 24
1, 21774, Note_on_c, 0, 49, 80
1, 21774, Note_off_c, 0, 73, 64
1, 21774, Note_off_c, 0, 100, 64
1, 21775, Note_on_c, 0, 45, 91
1, 21775, Note_off_c, 0, 49, 64
1, 21775, Note_off_c, 0, 69, 64
1, 21775, Note_on_c, 0, 71, 15
1, 21775, Note_off_c, 0, 79, 64
1, 21775, Note_off_c, 0, 82, 64
1, 21775, Note_off_c, 0, 88, 64
1, 21776, Note_on_c, 0, 42, 96
1, 21776, Note_off_c, 0, 45, 64
1, 21776, Note_on_c, 0, 67, 19
1, 21776, Note_off_c, 0, 94, 64
1, 21777, Note_on_c, 0, 41, 99
1, 21777, Note_off_c, 0, 42, 64
1, 21777, Note_off_c, 0, 87, 64
1, 21778, Note_on_c, 0, 38, 97
1, 21778, Note_off_c, 0, 41, 64
1, 21778, Note_on_c, 0, 69, 13
1, 21778, Note_off_c, 0, 78, 64
1, 21778, Note_on_c, 0, 82, 14
1, 21778, Note_off_c, 0, 92, 64
1, 21779, Note_on_c, 0, 37, 97
1, 21779, Note_off_c, 0, 38, 64
1, 21779, Note_off_c, 0, 67, 64
1, 21779, Note_off_c, 0, 71, 64
1, 21779, Note_on_c, 0, 87, 15
1, 21779, Note_off_c, 0, 98, 64
1, 21780, Note_on_c, 0, 36, 96
1, 21780, Note_off_c, 0, 37, 64
1, 21781, Note_on_c, 0, 34, 95
1, 21781, Note_off_c, 0, 36, 64
1, 21781, Note_off_c, 0, 74, 64
1, 21781, Note_off_c, 0, 82, 64
1, 21781, Note_on_c, 0, 84, 15
1, 21781, Note_off_c, 0, 91, 64
1, 21783, Note_on_c, 0, 33, 95
1, 21783, Note_off_c, 0, 34, 64
1, 21783, Note_on_c, 0, 81, 22
1, 21783, Note_off_c, 0, 96, 64
1, 21784, Note_on_c, 0, 32, 96
1, 21784, Note_off_c, 0, 33, 64
1, 21784, Note_off_c, 0, 69, 64
1, 21784, Note_on_c, 0, 70, 15
1, 21784, Note_off_c, 0, 84, 64
1, 21784, Note_on_c, 0, 86, 11
1, 21785, Note_on_c, 0, 79, 50
1, 21785, Note_off_c, 0, 87, 64
1, 21786, Note_on_c, 0, 31, 95
1, 21786, Note_off_c, 0, 32, 64
1, 21786, Note_off_c, 0, 89, 64
1, 21787, Note_on_c, 0, 30, 92
1, 21787, Note_off_c, 0, 31, 64
1, 21788, Note_off_c, 0, 70, 64
1, 21788, Note_on_c, 0, 74, 20
1, 21788, Note_on_c, 0, 77, 39
1, 21788, Note_on_c, 0, 85, 21
1, 21789, Note_on_c, 0, 84, 14
1, 21790, Note_off_c, 0, 30, 64
1, 21790, Note_on_c, 0, 68, 19
1, 21790, Note_off_c, 0, 81, 64
1, 21790, Note_off_c, 0, 86, 64
1, 21791, Note_on_c, 0, 61, 27
1, 21791, Note_off_c, 0, 85, 64
1, 21791, Note_on_c, 0, 86, 31
1, 21791, Note_on_c, 0, 90, 23
1, 21791, Note_on_c, 0, 92, 34
1, 21791, Note_on_c, 0, 94, 25
1, 21791, Note_on_c, 0, 96, 20
1, 21791, Note_on_c, 0, 97, 19
1, 21791, Note_on_c, 0, 99, 21
1, 21791, Note_on_c, 0, 100, 17
1, 21792, Note_on_c, 0, 36, 69
1, 21792, Note_on_c, 0, 75, 22
1, 21792, Note_on_c, 0, 81, 43
1, 21792, Note_off_c, 0, 84, 64
1, 21792, Note_on_c, 0, 85, 35
1, 21793, Note_on_c, 0, 31, 76
1, 21793, Note_off_c, 0, 36, 64
1, 21793, Note_on_c, 0, 48, 51
1, 21793, Note_on_c, 0, 54, 46
1, 21793, Note_off_c, 0, 68, 64
1, 21793, Note_on_c, 0, 72, 30
1, 21793, Note_off_c, 0, 74, 64
1, 21794, Note_on_c, 0, 30, 78
1, 21794, Note_off_c, 0, 31, 64
1, 21794, Note_on_c, 0, 74, 34
1, 21794, Note_on_c, 0, 88, 17
1, 21795, Note_on_c, 0, 29, 76
1, 21795, Note_off_c, 0, 30, 64
1, 21795, Note_off_c, 0, 48, 64
1, 21795, Note_off_c, 0, 54, 64
1, 21795, Note_on_c, 0, 63, 22
1, 21795, Note_off_c, 0, 72, 64
1, 21795, Note_off_c, 0, 75, 64
1, 21795, Note_off_c, 0, 86, 64
1, 21795, Note_off_c, 0, 90, 64
1, 21796, Note_off_c, 0, 29, 64
1, 21796, Note_on_c, 0, 30, 73
1, 21796, Note_off_c, 0, 61, 64
1, 21796, Note_off_c, 0, 94, 64
1, 21797, Note_on_c, 0, 69, 20
1, 21797, Note_on_c, 0, 86, 35
1, 21797, Note_on_c, 0, 94, 22
1, 21797, Note_off_c, 0, 96, 64
1, 21797, Note_off_c, 0, 99, 64
1, 21798, Note_on_c, 0, 29, 72
1, 21798, Note_off_c, 0, 30, 64
1, 21798, Note_off_c, 0, 63, 64
1, 21798, Note_on_c, 0, 87, 18
1, 21798, Note_off_c, 0, 88, 64
1, 21799, Note_on_c, 0, 84, 34
1, 21799, Note_off_c, 0, 85, 64
1, 21800, Note_off_c, 0, 29, 64
1, 21800, Note_on_c, 0, 30, 67
1, 21800, Note_off_c, 0, 97, 64
1, 21801, Note_on_c, 0, 67, 31
1, 21801, Note_off_c, 0, 69, 64
1, 21801, Note_on_c, 0, 75, 35
1, 21801, Note_off_c, 0, 87, 64
1, 21801, Note_on_c, 0, 90, 26
1, 21802, Note_off_c, 0, 30, 64
1, 21802, Note_on_c, 0, 42, 68
1, 21802, Note_on_c, 0, 64, 30
1, 21802, Note_on_c, 0, 72, 22
1, 21802, Note_off_c, 0, 100, 64
1, 21803, Note_on_c, 0, 31, 73
1, 21803, Note_off_c, 0, 42, 64
1, 21803, Note_on_c, 0, 61, 32
1, 21803, Note_off_c, 0, 67, 64
1, 21803, Note_on_c, 0, 68, 30
1, 21803, Note_off_c, 0, 75, 64
1, 21803, Note_off_c, 0, 94, 64
1, 21804, Note_on_c, 0, 30, 81
1, 21804, Note_off_c, 0, 31, 64
1, 21804, Note_off_c, 0, 64, 64
1, 21804, Note_on_c, 0, 85, 27
1, 21804, Note_on_c, 0, 87, 13
1, 21805, Note_on_c, 0, 29, 81
1, 21805, Note_off_c, 0, 30, 64
1, 21805, Note_off_c, 0, 72, 64
1, 21805, Note_on_c, 0, 88, 34
1, 21806, Note_on_c, 0, 71, 27
1, 21807, Note_off_c, 0, 29, 64
1, 21807, Note_on_c, 0, 30, 72
1, 21807, Note_on_c, 0, 54, 57
1, 21807, Note_on_c, 0, 76, 33
1, 21807, Note_off_c, 0, 77, 64
1, 21807, Note_off_c, 0, 84, 64
1, 21807, Note_off_c, 0, 87, 64
1, 21808, Note_off_c, 0, 30, 64
1, 21808, Note_off_c, 0, 61, 64
1, 21808, Note_on_c, 0, 65, 30
1, 21808, Note_off_c, 0, 68, 64
1, 21809, Note_on_c, 0, 69, 46
1, 21809, Note_off_c, 0, 74, 64
1, 21809, Note_on_c, 0, 75, 43
1, 21809, Note_off_c, 0, 76, 64
1, 21809, Note_on_c, 0, 77, 40
1, 21809, Note_on_c, 0, 82, 36
1, 21810, Note_off_c, 0, 65, 64
1, 21810, Note_off_c, 0, 71, 64
1, 21810, Note_off_c, 0, 81, 64
1, 21810, Note_off_c, 0, 85, 64
1, 21811, Note_on_c, 0, 50, 74
1, 21811, Note_off_c, 0, 54, 64
1, 21811, Note_off_c, 0, 90, 64
1, 21812, Note_on_c, 0, 48, 84
1, 21812, Note_off_c, 0, 50, 64
1, 21812, Note_off_c, 0, 69, 64
1, 21812, Note_off_c, 0, 77, 64
1, 21812, Note_on_c, 0, 81, 29
1, 21812, Note_off_c, 0, 82, 64
1, 21812, Note_on_c, 0, 85, 20
1, 21812, Note_off_c, 0, 88, 64
1, 21812, Note_off_c, 0, 92, 64
1, 21813, Note_on_c, 0, 44, 94
1, 21813, Note_off_c, 0, 48, 64
1, 21813, Note_off_c, 0, 75, 64
1, 21813, Note_off_c, 0, 79, 64
1, 21814, Note_on_c, 0, 42, 99
1, 21814, Note_off_c, 0, 44, 64
1, 21814, Note_on_c, 0, 77, 14
1, 21814, Note_on_c, 0, 88, 15
1, 21815, Note_on_c, 0, 40, 95
1, 21815, Note_off_c, 0, 42, 64
1, 21815, Note_on_c, 0, 75, 33
1, 21815, Note_off_c, 0, 81, 64
1, 21815, Note_off_c, 0, 83, 64
1, 21815, Note_on_c, 0, 84, 26
1, 21815, Note_off_c, 0, 85, 64
1, 21816, Note_on_c, 0, 38, 97
1, 21816, Note_off_c, 0, 40, 64
1, 21816, Note_off_c, 0, 86, 64
1, 21817, Note_on_c, 0, 36, 96
1, 21817, Note_off_c, 0, 38, 64
1, 21817, Note_on_c, 0, 76, 25
1, 21817, Note_on_c, 0, 83, 44
1, 21817, Note_on_c, 0, 92, 20
1, 21818, Note_on_c, 0, 35, 95
1, 21818, Note_off_c, 0, 36, 64
1, 21818, Note_on_c, 0, 72, 33
1, 21818, Note_off_c, 0, 77, 64
1, 21818, Note_on_c, 0, 85, 34
1, 21819, Note_on_c, 0, 34, 94
1, 21819, Note_off_c, 0, 35, 64
1, 21819, Note_on_c, 0, 68, 31
1, 21819, Note_on_c, 0, 86, 13
1, 21819, Note_on_c, 0, 90, 22
1, 21819, Note_on_c, 0, 91, 25
1, 21819, Note_on_c, 0, 94, 16
1, 21820, Note_on_c, 0, 33, 94
1, 21820, Note_off_c, 0, 34, 64
1, 21820, Note_on_c, 0, 74, 37
1, 21820, Note_on_c, 0, 81, 29
1, 21821, Note_on_c, 0, 32, 95
1, 21821, Note_off_c, 0, 33, 64
1, 21821, Note_off_c, 0, 76, 64
1, 21821, Note_on_c, 0, 79, 42
1, 21821, Note_off_c, 0, 84, 64
1, 21822, Note_on_c, 0, 84, 40
1, 21823, Note_on_c, 0, 31, 96
1, 21823, Note_off_c, 0, 32, 64
1, 21823, Note_on_c, 0, 77, 29
1, 21823, Note_off_c, 0, 91, 64
1, 21824, Note_off_c, 0, 81, 64
1, 21824, Note_off_c, 0, 85, 64
1, 21824, Note_off_c, 0, 86, 64
1, 21825, Note_on_c, 0, 30, 89
1, 21825, Note_off_c, 0, 31, 64
1, 21825, Note_off_c, 0, 68, 64
1, 21825, Note_on_c, 0, 69, 43
1, 21825, Note_off_c, 0, 88, 64
1, 21825, Note_off_c, 0, 94, 64
1, 21826, Note_on_c, 0, 71, 28
1, 21826, Note_off_c, 0, 75, 64
1, 21826, Note_on_c, 0, 76, 40
1, 21826, Note_off_c, 0, 92, 64
1, 21827, Note_off_c, 0, 72, 64
1, 21827, Note_off_c, 0, 77, 64
1, 21827, Note_off_c, 0, 84, 64
1, 21827, Note_on_c, 0, 85, 38
1, 21827, Note_on_c, 0, 89, 24
1, 21828, Note_off_c, 0, 30, 64
1, 21828, Note_on_c, 0, 77, 31
1, 21828, Note_on_c, 0, 84, 31
1, 21829, Note_on_c, 0, 37, 65
1, 21829, Note_off_c, 0, 69, 64
1, 21829, Note_off_c, 0, 74, 64
1, 21829, Note_on_c, 0, 75, 32
1, 21829, Note_off_c, 0, 76, 64
1, 21829, Note_on_c, 0, 98, 23
1, 21830, Note_on_c, 0, 30, 76
1, 21830, Note_off_c, 0, 37, 64
1, 21830, Note_on_c, 0, 61, 24
1, 21830, Note_on_c, 0, 67, 64
1, 21830, Note_on_c, 0, 82, 29
1, 21831, Note_off_c, 0, 71, 64
1, 21831, Note_on_c, 0, 74, 30
1, 21831, Note_off_c, 0, 75, 64
1, 21831, Note_off_c, 0, 77, 64
1, 21831, Note_off_c, 0, 84, 64
1, 21831, Note_off_c, 0, 90, 64
1, 21832, Note_on_c, 0, 29, 77
1, 21832, Note_off_c, 0, 30, 64
1, 21832, Note_on_c, 0, 49, 57
1, 21832, Note_on_c, 0, 81, 38
1, 21833, Note_off_c, 0, 61, 64
1, 21833, Note_off_c, 0, 82, 64
1, 21833, Note_on_c, 0, 92, 18
1, 21833, Note_on_c, 0, 96, 17
1, 21833, Note_on_c, 0, 103, 17
1, 21834, Note_off_c, 0, 29, 64
1, 21834, Note_on_c, 0, 30, 74
1, 21834, Note_off_c, 0, 49, 64
1, 21836, Note_on_c, 0, 29, 71
1, 21836, Note_off_c, 0, 30, 64
1, 21837, Note_on_c, 0, 71, 15
1, 21837, Note_on_c, 0, 84, 25
1, 21837, Note_off_c, 0, 85, 64
1, 21837, Note_on_c, 0, 90, 31
1, 21837, Note_off_c, 0, 96, 64
1, 21838, Note_off_c, 0, 29, 64
1, 21838, Note_on_c, 0, 30, 61
1, 21838, Note_on_c, 0, 46, 61
1, 21839, Note_off_c, 0, 74, 64
1, 21839, Note_on_c, 0, 76, 23
1, 21839, Note_off_c, 0, 92, 64
1, 21840, Note_off_c, 0, 30, 64
1, 21840, Note_on_c, 0, 36, 73
1, 21840, Note_off_c, 0, 46, 64
1, 21840, Note_on_c, 0, 54, 53
1, 21840, Note_off_c, 0, 71, 64
1, 21840, Note_off_c, 0, 89, 64
1, 21841, Note_on_c, 0, 30, 78
1, 21841, Note_off_c, 0, 36, 64
1, 21841, Note_on_c, 0, 70, 18
1, 21841, Note_on_c, 0, 85, 29
1, 21841, Note_on_c, 0, 100, 13
1, 21841, Note_off_c, 0, 103, 64
1, 21842, Note_on_c, 0, 29, 79
1, 21842, Note_off_c, 0, 30, 64
1, 21842, Note_off_c, 0, 54, 64
1, 21842, Note_off_c, 0, 76, 64
1, 21842, Note_on_c, 0, 77, 39
1, 21842, Note_off_c, 0, 79, 64
1, 21842, Note_off_c, 0, 84, 64
1, 21842, Note_on_c, 0, 101, 13
1, 21844, Note_off_c, 0, 29, 64
1, 21844, Note_on_c, 0, 30, 74
1, 21844, Note_on_c, 0, 54, 44
1, 21844, Note_off_c, 0, 70, 64
1, 21844, Note_on_c, 0, 71, 19
1, 21844, Note_on_c, 0, 88, 34
1, 21845, Note_off_c, 0, 30, 64
1, 21845, Note_on_c, 0, 66, 49
1, 21845, Note_on_c, 0, 84, 36
1, 21845, Note_off_c, 0, 85, 64
1, 21846, Note_on_c, 0, 48, 40
1, 21846, Note_off_c, 0, 67, 64
1, 21846, Note_on_c, 0, 72, 25
1, 21846, Note_on_c, 0, 82, 39
1, 21846, Note_off_c, 0, 101, 64
1, 21847, Note_off_c, 0, 54, 64
1, 21847, Note_off_c, 0, 66, 64
1, 21847, Note_on_c, 0, 67, 47
1, 21847, Note_off_c, 0, 71, 64
1, 21847, Note_on_c, 0, 80, 36
1, 21847, Note_off_c, 0, 81, 64
1, 21847, Note_off_c, 0, 83, 64
1, 21847, Note_on_c, 0, 85, 48
1, 21847, Note_on_c, 0, 95, 23
1, 21847, Note_on_c, 0, 99, 29
1, 21848, Note_on_c, 0, 83, 29
1, 21848, Note_on_c, 0, 86, 45
1, 21849, Note_off_c, 0, 48, 64
1, 21849, Note_on_c, 0, 66, 23
1, 21849, Note_off_c, 0, 67, 64
1, 21849, Note_on_c, 0, 68, 18
1, 21849, Note_off_c, 0, 72, 64
1, 21849, Note_off_c, 0, 100, 64
1, 21850, Note_on_c, 0, 61, 11
1, 21850, Note_on_c, 0, 78, 39
1, 21850, Note_on_c, 0, 81, 31
1, 21851, Note_on_c, 0, 75, 31
1, 21851, Note_off_c, 0, 80, 64
1, 21851, Note_off_c, 0, 83, 64
1, 21852, Note_on_c, 0, 71, 31
1, 21852, Note_off_c, 0, 77, 64
1, 21852, Note_off_c, 0, 81, 64
1, 21852, Note_on_c, 0, 83, 37
1, 21852, Note_off_c, 0, 84, 64
1, 21853, Note_off_c, 0, 61, 64
1, 21853, Note_off_c, 0, 68, 64
1, 21853, Note_on_c, 0, 74, 37
1, 21853, Note_off_c, 0, 75, 64
1, 21853, Note_on_c, 0, 76, 28
1, 21853, Note_off_c, 0, 78, 64
1, 21854, Note_on_c, 0, 68, 41
1, 21854, Note_off_c, 0, 71, 64
1, 21854, Note_on_c, 0, 81, 33
1, 21855, Note_on_c, 0, 96, 21
1, 21856, Note_on_c, 0, 61, 14
1, 21856, Note_on_c, 0, 64, 17
1, 21856, Note_off_c, 0, 66, 64
1, 21856, Note_on_c, 0, 73, 21
1, 21856, Note_off_c, 0, 88, 64
1, 21856, Note_off_c, 0, 98, 64
1, 21857, Note_off_c, 0, 74, 64
1, 21857, Note_on_c, 0, 88, 35
1, 21858, Note_off_c, 0, 76, 64
1, 21859, Note_on_c, 0, 67, 43
1, 21859, Note_off_c, 0, 68, 64
1, 21859, Note_off_c, 0, 73, 64
1, 21859, Note_on_c, 0, 76, 34
1, 21859, Note_on_c, 0, 78, 22
1, 21859, Note_off_c, 0, 81, 64
1, 21861, Note_off_c, 0, 85, 64
1, 21861, Note_off_c, 0, 96, 64
1, 21862, Note_on_c, 0, 71, 26
1, 21862, Note_off_c, 0, 78, 64
1, 21862, Note_on_c, 0, 84, 32
1, 21863, Note_on_c, 0, 81, 31
1, 21863, Note_off_c, 0, 83, 64
1, 21863, Note_on_c, 0, 87, 30
1, 21863, Note_on_c, 0, 89, 15
1, 21863, Note_off_c, 0, 99, 64
1, 21864, Note_off_c, 0, 61, 64
1, 21864, Note_off_c, 0, 82, 64
1, 21864, Note_on_c, 0, 83, 45
1, 21864, Note_off_c, 0, 95, 64
1, 21865, Note_on_c, 0, 75, 22
1, 21865, Note_off_c, 0, 76, 64
1, 21865, Note_on_c, 0, 78, 56
1, 21865, Note_off_c, 0, 84, 64
1, 21865, Note_on_c, 0, 85, 45
1, 21865, Note_on_c, 0, 92, 26
1, 21866, Note_off_c, 0, 64, 64
1, 21866, Note_on_c, 0, 94, 21
1, 21867, Note_on_c, 0, 73, 37
1, 21867, Note_off_c, 0, 81, 64
1, 21867, Note_off_c, 0, 89, 64
1, 21868, Note_off_c, 0, 71, 64
1, 21868, Note_on_c, 0, 84, 41
1, 21868, Note_off_c, 0, 88, 64
1, 21868, Note_on_c, 0, 89, 28
1, 21869, Note_off_c, 0, 75, 64
1, 21869, Note_on_c, 0, 76, 42
1, 21869, Note_off_c, 0, 85, 64
1, 21870, Note_off_c, 0, 84, 64
1, 21870, Note_on_c, 0, 85, 40
1, 21871, Note_on_c, 0, 80, 45
1, 21872, Note_on_c, 0, 81, 26
1, 21872, Note_off_c, 0, 94, 64
1, 21873, Note_on_c, 0, 77, 39
1, 21873, Note_on_c, 0, 94, 18
1, 21874, Note_on_c, 0, 82, 35
1, 21874, Note_on_c, 0, 84, 40
1, 21874, Note_off_c, 0, 85, 64
1, 21875, Note_off_c, 0, 76, 64
1, 21875, Note_off_c, 0, 81, 64
1, 21875, Note_on_c, 0, 85, 38
1, 21875, Note_on_c, 0, 93, 24
1, 21876, Note_on_c, 0, 66, 31
1, 21876, Note_off_c, 0, 67, 64
1, 21876, Note_on_c, 0, 74, 37
1, 21876, Note_off_c, 0, 77, 64
1, 21876, Note_off_c, 0, 90, 64
1, 21877, Note_on_c, 0, 68, 28
1, 21877, Note_off_c, 0, 73, 64
1, 21877, Note_on_c, 0, 88, 36
1, 21878, Note_on_c, 0, 61, 14
1, 21878, Note_off_c, 0, 84, 64
1, 21879, Note_on_c, 0, 73, 31
1, 21879, Note_off_c, 0, 74, 64
1, 21879, Note_off_c, 0, 85, 64
1, 21879, Note_off_c, 0, 89, 64
1, 21879, Note_off_c, 0, 93, 64
1, 21880, Note_on_c, 0, 76, 46
1, 21880, Note_on_c, 0, 85, 44
1, 21880, Note_off_c, 0, 86, 64
1, 21881, Note_on_c, 0, 77, 39
1, 21881, Note_on_c, 0, 84, 36
1, 21881, Note_on_c, 0, 86, 42
1, 21881, Note_on_c, 0, 93, 28
1, 21882, Note_off_c, 0, 66, 64
1, 21882, Note_off_c, 0, 68, 64
1, 21882, Note_on_c, 0, 79, 36
1, 21882, Note_off_c, 0, 80, 64
1, 21882, Note_off_c, 0, 87, 64
1, 21882, Note_off_c, 0, 94, 64
1, 21883, Note_off_c, 0, 61, 64
1, 21883, Note_off_c, 0, 73, 64
1, 21883, Note_off_c, 0, 77, 64
1, 21883, Note_on_c, 0, 87, 30
1, 21884, Note_on_c, 0, 74, 32
1, 21884, Note_off_c, 0, 79, 64
1, 21884, Note_off_c, 0, 88, 64
1, 21885, Note_on_c, 0, 67, 53
1, 21885, Note_on_c, 0, 89, 26
1, 21886, Note_off_c, 0, 82, 64
1, 21886, Note_off_c, 0, 84, 64
1, 21886, Note_off_c, 0, 92, 64
1, 21887, Note_on_c, 0, 71, 26
1, 21887, Note_on_c, 0, 92, 28
1, 21888, Note_off_c, 0, 74, 64
1, 21888, Note_off_c, 0, 78, 64
1, 21888, Note_on_c, 0, 84, 39
1, 21888, Note_off_c, 0, 87, 64
1, 21889, Note_off_c, 0, 76, 64
1, 21889, Note_on_c, 0, 81, 39
1, 21889, Note_on_c, 0, 90, 28
1, 21890, Note_on_c, 0, 58, 16
1, 21890, Note_off_c, 0, 71, 64
1, 21890, Note_on_c, 0, 72, 35
1, 21890, Note_on_c, 0, 76, 36
1, 21890, Note_off_c, 0, 85, 64
1, 21892, Note_off_c, 0, 89, 64
1, 21892, Note_off_c, 0, 93, 64
1, 21893, Note_off_c, 0, 72, 64
1, 21893, Note_on_c, 0, 74, 38
1, 21893, Note_off_c, 0, 76, 64
1, 21893, Note_on_c, 0, 89, 29
1, 21894, Note_off_c, 0, 58, 64
1, 21894, Note_on_c, 0, 78, 38
1, 21894, Note_off_c, 0, 83, 64
1, 21894, Note_on_c, 0, 94, 27
1, 21895, Note_on_c, 0, 73, 47
1, 21895, Note_on_c, 0, 95, 21
1, 21896, Note_on_c, 0, 69, 37
1, 21896, Note_off_c, 0, 74, 64
1, 21896, Note_off_c, 0, 81, 64
1, 21896, Note_on_c, 0, 82, 23
1, 21897, Note_on_c, 0, 80, 46
1, 21897, Note_on_c, 0, 81, 43
1, 21897, Note_on_c, 0, 83, 45
1, 21898, Note_on_c, 0, 75, 31
1, 21898, Note_off_c, 0, 84, 64
1, 21898, Note_on_c, 0, 87, 39
1, 21898, Note_off_c, 0, 95, 64
1, 21899, Note_on_c, 0, 74, 37
1, 21899, Note_on_c, 0, 77, 36
1, 21899, Note_off_c, 0, 86, 64
1, 21899, Note_off_c, 0, 89, 64
1, 21899, Note_off_c, 0, 94, 64
1, 21900, Note_off_c, 0, 69, 64
1, 21900, Note_off_c, 0, 75, 64
1, 21900, Note_off_c, 0, 78, 64
1, 21900, Note_off_c, 0, 82, 64
1, 21901, Note_off_c, 0, 67, 64
1, 21901, Note_on_c, 0, 68, 41
1, 21901, Note_off_c, 0, 74, 64
1, 21901, Note_on_c, 0, 75, 45
1, 21901, Note_on_c, 0, 82, 38
1, 21901, Note_on_c, 0, 84, 45
1, 21902, Note_on_c, 0, 76, 26
1, 21902, Note_off_c, 0, 77, 64
1, 21902, Note_on_c, 0, 78, 51
1, 21902, Note_off_c, 0, 81, 64
1, 21903, Note_off_c, 0, 68, 64
1, 21903, Note_off_c, 0, 73, 64
1, 21903, Note_on_c, 0, 74, 39
1, 21903, Note_off_c, 0, 75, 64
1, 21903, Note_off_c, 0, 80, 64
1, 21903, Note_on_c, 0, 85, 44
1, 21903, Note_on_c, 0, 88, 26
1, 21903, Note_off_c, 0, 90, 64
1, 21904, Note_on_c, 0, 66, 61
1, 21904, Note_on_c, 0, 70, 42
1, 21904, Note_on_c, 0, 75, 37
1, 21904, Note_on_c, 0, 81, 37
1, 21904, Note_off_c, 0, 82, 64
1, 21905, Note_on_c, 0, 61, 16
1, 21905, Note_off_c, 0, 74, 64
1, 21905, Note_off_c, 0, 76, 64
1, 21905, Note_on_c, 0, 77, 37
1, 21906, Note_off_c, 0, 75, 64
1, 21906, Note_on_c, 0, 86, 45
1, 21906, Note_off_c, 0, 87, 64
1, 21907, Note_on_c, 0, 74, 29
1, 21907, Note_off_c, 0, 77, 64
1, 21909, Note_on_c, 0, 80, 42
1, 21909, Note_off_c, 0, 84, 64
1, 21910, Note_off_c, 0, 81, 64
1, 21911, Note_off_c, 0, 74, 64
1, 21912, Note_on_c, 0, 87, 29
1, 21913, Note_on_c, 0, 73, 26
1, 21913, Note_on_c, 0, 76, 36
1, 21913, Note_off_c, 0, 88, 64
1, 21914, Note_on_c, 0, 96, 12
1, 21915, Note_off_c, 0, 87, 64
1, 21916, Note_off_c, 0, 61, 64
1, 21916, Note_on_c, 0, 87, 23
1, 21917, Note_off_c, 0, 96, 64
1, 21919, Note_on_c, 0, 81, 38
1, 21919, Note_off_c, 0, 86, 64
1, 21920, Note_off_c, 0, 73, 64
1, 21920, Note_on_c, 0, 79, 37
1, 21920, Note_off_c, 0, 80, 64
1, 21920, Note_on_c, 0, 86, 23
1, 21921, Note_off_c, 0, 66, 64
1, 21921, Note_on_c, 0, 75, 36
1, 21921, Note_off_c, 0, 76, 64
1, 21921, Note_on_c, 0, 80, 40
1, 21921, Note_off_c, 0, 81, 64
1, 21921, Note_on_c, 0, 84, 42
1, 21921, Note_off_c, 0, 85, 64
1, 21921, Note_on_c, 0, 88, 38
1, 21921, Note_off_c, 0, 92, 64
1, 21922, Note_on_c, 0, 61, 30
1, 21922, Note_off_c, 0, 70, 64
1, 21922, Note_on_c, 0, 71, 35
1, 21922, Note_off_c, 0, 79, 64
1, 21922, Note_on_c, 0, 81, 41
1, 21922, Note_on_c, 0, 85, 31
1, 21923, Note_on_c, 0, 73, 30
1, 21923, Note_on_c, 0, 79, 38
1, 21923, Note_off_c, 0, 83, 64
1, 21923, Note_off_c, 0, 87, 64
1, 21924, Note_on_c, 0, 54, 24
1, 21924, Note_on_c, 0, 66, 38
1, 21924, Note_off_c, 0, 75, 64
1, 21924, Note_on_c, 0, 76, 38
1, 21924, Note_off_c, 0, 78, 64
1, 21924, Note_off_c, 0, 80, 64
1, 21924, Note_off_c, 0, 81, 64
1, 21924, Note_on_c, 0, 82, 45
1, 21924, Note_on_c, 0, 87, 32
1, 21924, Note_on_c, 0, 89, 36
1, 21925, Note_on_c, 0, 77, 38
1, 21925, Note_on_c, 0, 80, 30
1, 21925, Note_on_c, 0, 83, 46
1, 21925, Note_off_c, 0, 86, 64
1, 21926, Note_on_c, 0, 67, 33
1, 21926, Note_off_c, 0, 76, 64
1, 21926, Note_off_c, 0, 79, 64
1, 21926, Note_off_c, 0, 88, 64
1, 21927, Note_on_c, 0, 64, 29
1, 21927, Note_off_c, 0, 66, 64
1, 21927, Note_on_c, 0, 70, 33
1, 21927, Note_on_c, 0, 74, 34
1, 21927, Note_off_c, 0, 82, 64
1, 21927, Note_off_c, 0, 84, 64
1, 21927, Note_on_c, 0, 93, 19
1, 21928, Note_off_c, 0, 71, 64
1, 21928, Note_on_c, 0, 79, 36
1, 21929, Note_off_c, 0, 67, 64
1, 21929, Note_off_c, 0, 73, 64
1, 21930, Note_off_c, 0, 61, 64
1, 21930, Note_on_c, 0, 73, 38
1, 21930, Note_off_c, 0, 80, 64
1, 21930, Note_on_c, 0, 84, 37
1, 21930, Note_off_c, 0, 85, 64
1, 21931, Note_on_c, 0, 66, 42
1, 21931, Note_on_c, 0, 68, 34
1, 21931, Note_on_c, 0, 86, 40
1, 21931, Note_on_c, 0, 90, 38
1, 21932, Note_off_c, 0, 74, 64
1, 21932, Note_off_c, 0, 79, 64
1, 21932, Note_on_c, 0, 82, 45
1, 21932, Note_off_c, 0, 84, 64
1, 21932, Note_off_c, 0, 87, 64
1, 21933, Note_on_c, 0, 58, 12
1, 21933, Note_on_c, 0, 79, 35
1, 21933, Note_on_c, 0, 84, 30
1, 21934, Note_off_c, 0, 70, 64
1, 21934, Note_on_c, 0, 87, 28
1, 21935, Note_off_c, 0, 64, 64
1, 21935, Note_off_c, 0, 84, 64
1, 21935, Note_on_c, 0, 88, 26
1, 21935, Note_on_c, 0, 97, 13
1, 21936, Note_off_c, 0, 58, 64
1, 21936, Note_on_c, 0, 84, 35
1, 21937, Note_on_c, 0, 61, 14
1, 21937, Note_on_c, 0, 76, 39
1, 21937, Note_on_c, 0, 81, 32
1, 21937, Note_off_c, 0, 82, 64
1, 21938, Note_off_c, 0, 87, 64
1, 21938, Note_off_c, 0, 97, 64
1, 21939, Note_off_c, 0, 77, 64
1, 21939, Note_off_c, 0, 79, 64
1, 21939, Note_off_c, 0, 84, 64
1, 21939, Note_on_c, 0, 87, 35
1, 21939, Note_off_c, 0, 93, 64
1, 21940, Note_off_c, 0, 61, 64
1, 21940, Note_off_c, 0, 81, 64
1, 21940, Note_on_c, 0, 82, 40
1, 21940, Note_off_c, 0, 86, 64
1, 21940, Note_on_c, 0, 91, 26
1, 21941, Note_off_c, 0, 68, 64
1, 21941, Note_off_c, 0, 73, 64
1, 21941, Note_on_c, 0, 75, 34
1, 21941, Note_on_c, 0, 96, 16
1, 21942, Note_on_c, 0, 61, 37
1, 21942, Note_on_c, 0, 64, 29
1, 21942, Note_off_c, 0, 66, 64
1, 21942, Note_on_c, 0, 67, 42
1, 21942, Note_on_c, 0, 70, 32
1, 21942, Note_off_c, 0, 76, 64
1, 21942, Note_on_c, 0, 86, 48
1, 21943, Note_on_c, 0, 79, 45
1, 21943, Note_off_c, 0, 82, 64
1, 21943, Note_off_c, 0, 87, 64
1, 21944, Note_off_c, 0, 54, 64
1, 21944, Note_off_c, 0, 89, 64
1, 21945, Note_off_c, 0, 64, 64
1, 21945, Note_on_c, 0, 66, 40
1, 21945, Note_off_c, 0, 67, 64
1, 21945, Note_off_c, 0, 70, 64
1, 21945, Note_on_c, 0, 80, 36
1, 21945, Note_on_c, 0, 82, 24
1, 21945, Note_on_c, 0, 84, 31
1, 21945, Note_off_c, 0, 96, 64
1, 21946, Note_on_c, 0, 54, 31
1, 21946, Note_on_c, 0, 89, 28
1, 21947, Note_off_c, 0, 75, 64
1, 21947, Note_on_c, 0, 76, 44
1, 21947, Note_on_c, 0, 78, 47
1, 21947, Note_off_c, 0, 79, 64
1, 21947, Note_off_c, 0, 83, 64
1, 21948, Note_on_c, 0, 72, 32
1, 21948, Note_on_c, 0, 81, 43
1, 21948, Note_off_c, 0, 82, 64
1, 21948, Note_off_c, 0, 91, 64
1, 21949, Note_off_c, 0, 66, 64
1, 21949, Note_off_c, 0, 84, 64
1, 21950, Note_on_c, 0, 66, 38
1, 21950, Note_on_c, 0, 84, 35
1, 21950, Note_off_c, 0, 89, 64
1, 21951, Note_on_c, 0, 69, 22
1, 21951, Note_off_c, 0, 72, 64
1, 21951, Note_off_c, 0, 76, 64
1, 21951, Note_on_c, 0, 87, 29
1, 21951, Note_off_c, 0, 88, 64
1, 21951, Note_on_c, 0, 89, 16
1, 21952, Note_off_c, 0, 66, 64
1, 21952, Note_on_c, 0, 76, 47
1, 21952, Note_off_c, 0, 78, 64
1, 21952, Note_on_c, 0, 82, 30
1, 21953, Note_on_c, 0, 67, 34
1, 21953, Note_off_c, 0, 81, 64
1, 21953, Note_on_c, 0, 85, 39
1, 21954, Note_off_c, 0, 69, 64
1, 21954, Note_on_c, 0, 70, 23
1, 21954, Note_on_c, 0, 81, 42
1, 21954, Note_on_c, 0, 83, 36
1, 21955, Note_off_c, 0, 82, 64
1, 21955, Note_off_c, 0, 86, 64
1, 21956, Note_off_c, 0, 67, 64
1, 21956, Note_on_c, 0, 78, 37
1, 21956, Note_off_c, 0, 80, 64
1, 21956, Note_off_c, 0, 84, 64
1, 21956, Note_off_c, 0, 89, 64
1, 21956, Note_on_c, 0, 91, 28
1, 21957, Note_on_c, 0, 82, 39
1, 21957, Note_on_c, 0, 84, 37
1, 21957, Note_on_c, 0, 89, 32
1, 21957, Note_off_c, 0, 90, 64
1, 21957, Note_on_c, 0, 92, 29
1, 21958, Note_off_c, 0, 54, 64
1, 21958, Note_off_c, 0, 61, 64
1, 21958, Note_off_c, 0, 76, 64
1, 21959, Note_on_c, 0, 66, 58
1, 21959, Note_on_c, 0, 80, 30
1, 21959, Note_off_c, 0, 81, 64
1, 21960, Note_on_c, 0, 73, 34
1, 21960, Note_off_c, 0, 85, 64
1, 21960, Note_on_c, 0, 86, 33
1, 21960, Note_off_c, 0, 87, 64
1, 21961, Note_off_c, 0, 70, 64
1, 21961, Note_on_c, 0, 77, 32
1, 21961, Note_off_c, 0, 78, 64
1, 21961, Note_on_c, 0, 79, 46
1, 21961, Note_off_c, 0, 80, 64
1, 21961, Note_on_c, 0, 81, 37
1, 21961, Note_off_c, 0, 82, 64
1, 21962, Note_off_c, 0, 84, 64
1, 21962, Note_on_c, 0, 85, 47
1, 21963, Note_on_c, 0, 61, 18
1, 21963, Note_on_c, 0, 76, 38
1, 21964, Note_on_c, 0, 70, 29
1, 21964, Note_on_c, 0, 87, 22
1, 21965, Note_off_c, 0, 77, 64
1, 21965, Note_off_c, 0, 81, 64
1, 21965, Note_on_c, 0, 82, 36
1, 21966, Note_on_c, 0, 77, 25
1, 21967, Note_on_c, 0, 54, 10
1, 21967, Note_on_c, 0, 81, 19
1, 21967, Note_off_c, 0, 83, 64
1, 21967, Note_off_c, 0, 87, 64
1, 21967, Note_on_c, 0, 88, 40
1, 21967, Note_on_c, 0, 95, 23
1, 21968, Note_off_c, 0, 79, 64
1, 21969, Note_off_c, 0, 61, 64
1, 21969, Note_off_c, 0, 77, 64
1, 21969, Note_on_c, 0, 84, 26
1, 21970, Note_on_c, 0, 61, 38
1, 21970, Note_off_c, 0, 86, 64
1, 21970, Note_on_c, 0, 87, 37
1, 21971, Note_on_c, 0, 80, 43
1, 21971, Note_off_c, 0, 81, 64
1, 21972, Note_off_c, 0, 70, 64
1, 21972, Note_off_c, 0, 84, 64
1, 21972, Note_on_c, 0, 86, 43
1, 21973, Note_off_c, 0, 73, 64
1, 21973, Note_off_c, 0, 87, 64
1, 21973, Note_on_c, 0, 93, 29
1, 21974, Note_on_c, 0, 71, 19
1, 21975, Note_on_c, 0, 83, 35
1, 21976, Note_on_c, 0, 74, 23
1, 21977, Note_off_c, 0, 71, 64
1, 21978, Note_off_c, 0, 76, 64
1, 21978, Note_off_c, 0, 83, 64
1, 21979, Note_off_c, 0, 54, 64
1, 21979, Note_off_c, 0, 74, 64
1, 21979, Note_off_c, 0, 89, 64
1, 21979, Note_off_c, 0, 92, 64
1, 21980, Note_on_c, 0, 75, 33
1, 21980, Note_on_c, 0, 77, 33
1, 21980, Note_on_c, 0, 83, 54
1, 21981, Note_off_c, 0, 61, 64
1, 21981, Note_on_c, 0, 65, 60
1, 21981, Note_off_c, 0, 66, 64
1, 21981, Note_on_c, 0, 68, 39
1, 21981, Note_off_c, 0, 95, 64
1, 21982, Note_on_c, 0, 78, 23
1, 21982, Note_off_c, 0, 85, 64
1, 21982, Note_off_c, 0, 91, 64
1, 21983, Note_off_c, 0, 75, 64
1, 21983, Note_on_c, 0, 76, 38
1, 21983, Note_off_c, 0, 77, 64
1, 21983, Note_on_c, 0, 91, 25
1, 21984, Note_on_c, 0, 64, 58
1, 21984, Note_off_c, 0, 65, 64
1, 21984, Note_on_c, 0, 81, 23
1, 21984, Note_on_c, 0, 87, 37
1, 21985, Note_on_c, 0, 73, 37
1, 21985, Note_off_c, 0, 78, 64
1, 21985, Note_off_c, 0, 86, 64
1, 21986, Note_on_c, 0, 70, 26
1, 21986, Note_off_c, 0, 82, 64
1, 21987, Note_on_c, 0, 63, 55
1, 21987, Note_off_c, 0, 64, 64
1, 21987, Note_on_c, 0, 67, 37
1, 21987, Note_off_c, 0, 68, 64
1, 21987, Note_off_c, 0, 76, 64
1, 21988, Note_off_c, 0, 81, 64
1, 21988, Note_on_c, 0, 84, 33
1, 21988, Note_off_c, 0, 88, 64
1, 21988, Note_on_c, 0, 89, 22
1, 21989, Note_on_c, 0, 72, 39
1, 21989, Note_off_c, 0, 73, 64
1, 21989, Note_on_c, 0, 74, 33
1, 21989, Note_on_c, 0, 81, 34
1, 21989, Note_off_c, 0, 83, 64
1, 21989, Note_on_c, 0, 85, 21
1, 21989, Note_on_c, 0, 86, 35
1, 21989, Note_on_c, 0, 88, 38
1, 21989, Note_off_c, 0, 91, 64
1, 21989, Note_on_c, 0, 94, 25
1, 21990, Note_on_c, 0, 62, 49
1, 21990, Note_off_c, 0, 63, 64
1, 21990, Note_on_c, 0, 66, 39
1, 21990, Note_off_c, 0, 67, 64
1, 21990, Note_on_c, 0, 83, 32
1, 21990, Note_off_c, 0, 87, 64
1, 21991, Note_off_c, 0, 72, 64
1, 21991, Note_on_c, 0, 77, 23
1, 21991, Note_on_c, 0, 79, 35
1, 21991, Note_off_c, 0, 80, 64
1, 21992, Note_on_c, 0, 65, 32
1, 21992, Note_off_c, 0, 66, 64
1, 21992, Note_on_c, 0, 80, 41
1, 21992, Note_off_c, 0, 81, 64
1, 21992, Note_off_c, 0, 84, 64
1, 21992, Note_off_c, 0, 85, 64
1, 21993, Note_on_c, 0, 61, 33
1, 21993, Note_off_c, 0, 62, 64
1, 21993, Note_on_c, 0, 76, 32
1, 21993, Note_on_c, 0, 85, 46
1, 21993, Note_off_c, 0, 89, 64
1, 21993, Note_off_c, 0, 93, 64
1, 21994, Note_off_c, 0, 70, 64
1, 21994, Note_off_c, 0, 74, 64
1, 21994, Note_off_c, 0, 77, 64
1, 21994, Note_on_c, 0, 78, 36
1, 21994, Note_off_c, 0, 79, 64
1, 21994, Note_off_c, 0, 86, 64
1, 21994, Note_on_c, 0, 87, 32
1, 21995, Note_off_c, 0, 61, 64
1, 21995, Note_on_c, 0, 82, 32
1, 21995, Note_on_c, 0, 86, 33
1, 21995, Note_off_c, 0, 88, 64
1, 21996, Note_off_c, 0, 65, 64
1, 21996, Note_off_c, 0, 83, 64
1, 21997, Note_on_c, 0, 73, 22
1, 21997, Note_on_c, 0, 75, 21
1, 21997, Note_off_c, 0, 76, 64
1, 21997, Note_off_c, 0, 80, 64
1, 21997, Note_on_c, 0, 81, 34
1, 21997, Note_on_c, 0, 83, 52
1, 21997, Note_off_c, 0, 87, 64
1, 21997, Note_on_c, 0, 88, 32
1, 21998, Note_on_c, 0, 66, 29
1, 21998, Note_on_c, 0, 84, 28
1, 21998, Note_on_c, 0, 87, 45
1, 21999, Note_on_c, 0, 80, 39
1, 21999, Note_on_c, 0, 89, 25
1, 22000, Note_off_c, 0, 73, 64
1, 22000, Note_off_c, 0, 81, 64
1, 22000, Note_off_c, 0, 82, 64
1, 22000, Note_off_c, 0, 86, 64
1, 22001, Note_on_c, 0, 74, 22
1, 22001, Note_off_c, 0, 75, 64
1, 22001, Note_off_c, 0, 84, 64
1, 22001, Note_on_c, 0, 86, 40
1, 22001, Note_off_c, 0, 87, 64
1, 22002, Note_on_c, 0, 61, 14
1, 22002, Note_on_c, 0, 76, 33
1, 22002, Note_on_c, 0, 84, 36
1, 22003, Note_off_c, 0, 86, 64
1, 22003, Note_on_c, 0, 87, 45
1, 22004, Note_off_c, 0, 84, 64
1, 22004, Note_on_c, 0, 86, 38
1, 22005, Note_on_c, 0, 73, 20
1, 22005, Note_off_c, 0, 74, 64
1, 22005, Note_on_c, 0, 82, 30
1, 22005, Note_off_c, 0, 87, 64
1, 22006, Note_on_c, 0, 91, 24
1, 22006, Note_on_c, 0, 96, 12
1, 22007, Note_on_c, 0, 65, 22
1, 22007, Note_off_c, 0, 66, 64
1, 22007, Note_on_c, 0, 81, 41
1, 22007, Note_on_c, 0, 84, 36
1, 22007, Note_off_c, 0, 85, 64
1, 22007, Note_off_c, 0, 89, 64
1, 22008, Note_off_c, 0, 73, 64
1, 22008, Note_on_c, 0, 74, 23
1, 22008, Note_off_c, 0, 76, 64
1, 22008, Note_on_c, 0, 79, 31
1, 22008, Note_off_c, 0, 80, 64
1, 22008, Note_on_c, 0, 85, 39
1, 22009, Note_off_c, 0, 61, 64
1, 22009, Note_on_c, 0, 77, 31
1, 22009, Note_off_c, 0, 78, 64
1, 22009, Note_off_c, 0, 96, 64
1, 22010, Note_off_c, 0, 82, 64
1, 22010, Note_on_c, 0, 87, 33
1, 22011, Note_off_c, 0, 84, 64
1, 22011, Note_off_c, 0, 86, 64
1, 22011, Note_off_c, 0, 88, 64
1, 22011, Note_on_c, 0, 92, 11
1, 22012, Note_on_c, 0, 64, 24
1, 22012, Note_off_c, 0, 65, 64
1, 22012, Note_off_c, 0, 77, 64
1, 22012, Note_off_c, 0, 79, 64
1, 22012, Note_off_c, 0, 91, 64
1, 22013, Note_off_c, 0, 74, 64
1, 22013, Note_on_c, 0, 76, 32
1, 22013, Note_on_c, 0, 77, 20
1, 22013, Note_on_c, 0, 80, 28
1, 22013, Note_on_c, 0, 82, 29
1, 22014, Note_off_c, 0, 81, 64
1, 22015, Note_on_c, 0, 63, 20
1, 22015, Note_off_c, 0, 64, 64
1, 22015, Note_on_c, 0, 73, 29
1, 22015, Note_on_c, 0, 75, 31
1, 22015, Note_on_c, 0, 90, 23
1, 22015, Note_off_c, 0, 94, 64
1, 22016, Note_off_c, 0, 76, 64
1, 22016, Note_off_c, 0, 80, 64
1, 22016, Note_on_c, 0, 86, 35
1, 22016, Note_on_c, 0, 91, 29
1, 22016, Note_off_c, 0, 92, 64
1, 22017, Note_on_c, 0, 70, 16
1, 22017, Note_on_c, 0, 79, 33
1, 22017, Note_on_c, 0, 81, 30
1, 22017, Note_off_c, 0, 82, 64
1, 22018, Note_off_c, 0, 63, 64
1, 22018, Note_off_c, 0, 75, 64
1, 22018, Note_on_c, 0, 84, 29
1, 22018, Note_off_c, 0, 85, 64
1, 22018, Note_off_c, 0, 87, 64
1, 22018, Note_on_c, 0, 88, 17
1, 22018, Note_on_c, 0, 94, 19
1, 22019, Note_off_c, 0, 73, 64
1, 22019, Note_on_c, 0, 74, 30
1, 22019, Note_on_c, 0, 82, 23
1, 22020, Note_off_c, 0, 70, 64
1, 22020, Note_off_c, 0, 77, 64
1, 22020, Note_off_c, 0, 86, 64
1, 22021, Note_on_c, 0, 66, 25
1, 22021, Note_on_c, 0, 70, 12
1, 22021, Note_on_c, 0, 73, 17
1, 22021, Note_off_c, 0, 74, 64
1, 22021, Note_off_c, 0, 83, 64
1, 22021, Note_on_c, 0, 85, 38
1, 22021, Note_on_c, 0, 87, 25
1, 22021, Note_on_c, 0, 89, 22
1, 22022, Note_off_c, 0, 84, 64
1, 22023, Note_off_c, 0, 82, 64
1, 22023, Note_on_c, 0, 83, 30
1, 22023, Note_on_c, 0, 84, 18
1, 22024, Note_off_c, 0, 73, 64
1, 22024, Note_on_c, 0, 76, 22
1, 22024, Note_on_c, 0, 82, 32
1, 22024, Note_on_c, 0, 86, 33
1, 22024, Note_off_c, 0, 87, 64
1, 22025, Note_on_c, 0, 73, 13
1, 22025, Note_on_c, 0, 78, 43
1, 22025, Note_on_c, 0, 80, 25
1, 22025, Note_on_c, 0, 87, 34
1, 22025, Note_off_c, 0, 90, 64
1, 22026, Note_off_c, 0, 79, 64
1, 22026, Note_off_c, 0, 81, 64
1, 22027, Note_off_c, 0, 70, 64
1, 22027, Note_off_c, 0, 94, 64
1, 22028, Note_off_c, 0, 73, 64
1, 22028, Note_off_c, 0, 85, 64
1, 22028, Note_off_c, 0, 88, 64
1, 22029, Note_on_c, 0, 61, 11
1, 22029, Note_off_c, 0, 76, 64
1, 22029, Note_off_c, 0, 84, 64
1, 22029, Note_on_c, 0, 85, 39
1, 22029, Note_on_c, 0, 93, 10
1, 22030, Note_on_c, 0, 74, 12
1, 22030, Note_on_c, 0, 76, 21
1, 22030, Note_on_c, 0, 81, 30
1, 22030, Note_off_c, 0, 86, 64
1, 22030, Note_on_c, 0, 88, 31
1, 22031, Note_off_c, 0, 82, 64
1, 22031, Note_off_c, 0, 83, 64
1, 22031, Note_on_c, 0, 84, 29
1, 22031, Note_off_c, 0, 91, 64
1, 22032, Note_off_c, 0, 80, 64
1, 22032, Note_on_c, 0, 86, 36
1, 22032, Note_off_c, 0, 93, 64
1, 22033, Note_on_c, 0, 82, 24
1, 22033, Note_off_c, 0, 85, 64
1, 22033, Note_off_c, 0, 87, 64
1, 22034, Note_off_c, 0, 74, 64
1, 22034, Note_on_c, 0, 80, 33
1, 22034, Note_off_c, 0, 81, 64
1, 22034, Note_on_c, 0, 83, 39
1, 22034, Note_on_c, 0, 85, 32
1, 22034, Note_off_c, 0, 89, 64
1, 22035, Note_on_c, 0, 69, 9
1, 22035, Note_on_c, 0, 74, 25
1, 22036, Note_on_c, 0, 65, 21
1, 22036, Note_off_c, 0, 66, 64
1, 22036, Note_on_c, 0, 77, 32
1, 22036, Note_on_c, 0, 91, 17
1, 22037, Note_off_c, 0, 61, 64
1, 22037, Note_off_c, 0, 78, 64
1, 22037, Note_off_c, 0, 80, 64
1, 22037, Note_off_c, 0, 82, 64
1, 22037, Note_on_c, 0, 89, 32
1, 22038, Note_on_c, 0, 68, 19
1, 22038, Note_off_c, 0, 69, 64
1, 22038, Note_off_c, 0, 74, 64
1, 22038, Note_off_c, 0, 76, 64
1, 22038, Note_on_c, 0, 78, 33
1, 22038, Note_on_c, 0, 82, 30
1, 22038, Note_off_c, 0, 85, 64
1, 22039, Note_off_c, 0, 84, 64
1, 22039, Note_on_c, 0, 85, 25
1, 22040, Note_on_c, 0, 64, 17
1, 22040, Note_off_c, 0, 65, 64
1, 22040, Note_on_c, 0, 76, 36
1, 22040, Note_off_c, 0, 77, 64
1, 22040, Note_off_c, 0, 86, 64
1, 22040, Note_on_c, 0, 87, 27
1, 22040, Note_on_c, 0, 93, 12
1, 22041, Note_on_c, 0, 73, 19
1, 22041, Note_off_c, 0, 91, 64
1, 22042, Note_on_c, 0, 80, 29
1, 22042, Note_on_c, 0, 91, 31
1, 22043, Note_off_c, 0, 64, 64
1, 22043, Note_off_c, 0, 68, 64
1, 22043, Note_on_c, 0, 75, 27
1, 22043, Note_off_c, 0, 76, 64
1, 22043, Note_off_c, 0, 87, 64
1, 22043, Note_off_c, 0, 93, 64
1, 22044, Note_on_c, 0, 84, 28
1, 22044, Note_on_c, 0, 87, 32
1, 22044, Note_off_c, 0, 88, 64
1, 22045, Note_on_c, 0, 66, 22
1, 22045, Note_off_c, 0, 73, 64
1, 22045, Note_on_c, 0, 74, 26
1, 22045, Note_off_c, 0, 83, 64
1, 22045, Note_off_c, 0, 85, 64
1, 22046, Note_off_c, 0, 75, 64
1, 22046, Note_off_c, 0, 82, 64
1, 22046, Note_on_c, 0, 83, 38
1, 22046, Note_on_c, 0, 86, 32
1, 22046, Note_off_c, 0, 91, 64
1, 22047, Note_on_c, 0, 75, 29
1, 22048, Note_off_c, 0, 66, 64
1, 22048, Note_on_c, 0, 73, 30
1, 22048, Note_off_c, 0, 74, 64
1, 22048, Note_on_c, 0, 79, 25
1, 22048, Note_on_c, 0, 85, 38
1, 22048, Note_off_c, 0, 89, 64
1, 22049, Note_on_c, 0, 70, 14
1, 22049, Note_off_c, 0, 78, 64
1, 22049, Note_off_c, 0, 84, 64
1, 22050, Note_off_c, 0, 75, 64
1, 22050, Note_on_c, 0, 76, 28
1, 22050, Note_off_c, 0, 87, 64
1, 22050, Note_on_c, 0, 88, 29
1, 22051, Note_on_c, 0, 72, 13
1, 22051, Note_off_c, 0, 73, 64
1, 22051, Note_off_c, 0, 80, 64
1, 22052, Note_on_c, 0, 66, 14
1, 22052, Note_off_c, 0, 70, 64
1, 22052, Note_on_c, 0, 78, 32
1, 22053, Note_off_c, 0, 88, 64
1, 22053, Note_on_c, 0, 92, 20
1, 22054, Note_off_c, 0, 72, 64
1, 22054, Note_on_c, 0, 73, 10
1, 22054, Note_off_c, 0, 76, 64
1, 22054, Note_off_c, 0, 79, 64
1, 22054, Note_on_c, 0, 80, 26
1, 22054, Note_on_c, 0, 88, 19
1, 22054, Note_on_c, 0, 91, 14
1, 22057, Note_on_c, 0, 94, 16
1, 22058, Note_off_c, 0, 73, 64
1, 22058, Note_off_c, 0, 86, 64
1, 22058, Note_off_c, 0, 92, 64
1, 22059, Note_on_c, 0, 86, 32
1, 22059, Note_off_c, 0, 88, 64
1, 22059, Note_on_c, 0, 89, 23
1, 22059, Note_off_c, 0, 91, 64
1, 22060, Note_on_c, 0, 76, 20
1, 22060, Note_on_c, 0, 88, 23
1, 22061, Note_on_c, 0, 81, 35
1, 22062, Note_off_c, 0, 80, 64
1, 22062, Note_off_c, 0, 94, 64
1, 22063, Note_off_c, 0, 66, 64
1, 22063, Note_off_c, 0, 88, 64
1, 22063, Note_on_c, 0, 91, 14
1, 22064, Note_on_c, 0, 79, 24
1, 22064, Note_on_c, 0, 84, 25
1, 22064, Note_off_c, 0, 85, 64
1, 22065, Note_off_c, 0, 76, 64
1, 22065, Note_on_c, 0, 77, 22
1, 22065, Note_off_c, 0, 78, 64
1, 22065, Note_on_c, 0, 85, 28
1, 22067, Note_on_c, 0, 78, 17
1, 22067, Note_on_c, 0, 92, 10
1, 22068, Note_off_c, 0, 79, 64
1, 22068, Note_off_c, 0, 84, 64
1, 22068, Note_off_c, 0, 91, 64
1, 22069, Note_on_c, 0, 76, 24
1, 22069, Note_off_c, 0, 77, 64
1, 22069, Note_off_c, 0, 83, 64
1, 22069, Note_on_c, 0, 90, 21
1, 22070, Note_off_c, 0, 81, 64
1, 22070, Note_on_c, 0, 91, 21
1, 22071, Note_on_c, 0, 81, 24
1, 22071, Note_on_c, 0, 83, 24
1, 22071, Note_off_c, 0, 86, 64
1, 22071, Note_on_c, 0, 87, 28
1, 22072, Note_off_c, 0, 76, 64
1, 22072, Note_off_c, 0, 78, 64
1, 22072, Note_on_c, 0, 79, 26
1, 22072, Note_on_c, 0, 86, 20
1, 22072, Note_off_c, 0, 92, 64
1, 22073, Note_on_c, 0, 74, 20
1, 22073, Note_off_c, 0, 89, 64
1, 22075, Note_off_c, 0, 85, 64
1, 22075, Note_off_c, 0, 87, 64
1, 22076, Note_on_c, 0, 85, 33
1, 22076, Note_on_c, 0, 89, 15
1, 22077, Note_off_c, 0, 74, 64
1, 22077, Note_off_c, 0, 83, 64
1, 22077, Note_off_c, 0, 86, 64
1, 22077, Note_on_c, 0, 87, 15
1, 22078, Note_off_c, 0, 81, 64
1, 22079, Note_on_c, 0, 81, 18
1, 22079, Note_on_c, 0, 88, 14
1, 22080, Note_on_c, 0, 82, 31
1, 22080, Note_on_c, 0, 86, 29
1, 22080, Note_off_c, 0, 87, 64
1, 22081, Note_on_c, 0, 78, 39
1, 22081, Note_off_c, 0, 89, 64
1, 22081, Note_off_c, 0, 90, 64
1, 22082, Note_off_c, 0, 79, 64
1, 22082, Note_on_c, 0, 80, 19
1, 22082, Note_off_c, 0, 81, 64
1, 22082, Note_on_c, 0, 83, 27
1, 22082, Note_on_c, 0, 84, 25
1, 22083, Note_on_c, 0, 89, 22
1, 22084, Note_off_c, 0, 88, 64
1, 22086, Note_on_c, 0, 81, 23
1, 22087, Note_off_c, 0, 82, 64
1, 22087, Note_off_c, 0, 83, 64
1, 22087, Note_off_c, 0, 86, 64
1, 22087, Note_off_c, 0, 91, 64
1, 22088, Note_on_c, 0, 76, 13
1, 22088, Note_off_c, 0, 80, 64
1, 22088, Note_on_c, 0, 86, 28
1, 22089, Note_on_c, 0, 82, 19
1, 22089, Note_off_c, 0, 85, 64
1, 22090, Note_on_c, 0, 80, 22
1, 22090, Note_off_c, 0, 81, 64
1, 22091, Note_off_c, 0, 76, 64
1, 22091, Note_on_c, 0, 83, 30
1, 22091, Note_on_c, 0, 85, 20
1, 22091, Note_on_c, 0, 87, 10
1, 22092, Note_on_c, 0, 93, 11
1, 22092, Note_on_c, 0, 102, 16
1, 22093, Note_on_c, 0, 75, 11
1, 22093, Note_on_c, 0, 77, 17
1, 22093, Note_off_c, 0, 80, 64
1, 22093, Note_off_c, 0, 82, 64
1, 22094, Note_off_c, 0, 78, 64
1, 22094, Note_off_c, 0, 85, 64
1, 22094, Note_off_c, 0, 87, 64
1, 22094, Note_on_c, 0, 99, 11
1, 22095, Note_on_c, 0, 81, 21
1, 22095, Note_off_c, 0, 84, 64
1, 22095, Note_on_c, 0, 85, 25
1, 22095, Note_off_c, 0, 102, 64
1, 22096, Note_off_c, 0, 75, 64
1, 22096, Note_on_c, 0, 76, 25
1, 22096, Note_off_c, 0, 77, 64
1, 22096, Note_on_c, 0, 88, 27
1, 22096, Note_on_c, 0, 92, 13
1, 22097, Note_on_c, 0, 78, 18
1, 22097, Note_off_c, 0, 93, 64
1, 22097, Note_off_c, 0, 99, 64
1, 22098, Note_on_c, 0, 80, 28
1, 22098, Note_off_c, 0, 85, 64
1, 22098, Note_on_c, 0, 91, 25
1, 22099, Note_on_c, 0, 75, 18
1, 22099, Note_off_c, 0, 76, 64
1, 22099, Note_on_c, 0, 82, 19
1, 22099, Note_off_c, 0, 89, 64
1, 22099, Note_on_c, 0, 90, 24
1, 22099, Note_off_c, 0, 92, 64
1, 22100, Note_off_c, 0, 81, 64
1, 22100, Note_on_c, 0, 84, 26
1, 22101, Note_off_c, 0, 83, 64
1, 22101, Note_on_c, 0, 101, 17
1, 22102, Note_on_c, 0, 74, 14
1, 22102, Note_off_c, 0, 75, 64
1, 22102, Note_off_c, 0, 82, 64
1, 22102, Note_on_c, 0, 89, 13
1, 22103, Note_on_c, 0, 83, 24
1, 22103, Note_off_c, 0, 84, 64
1, 22103, Note_off_c, 0, 86, 64
1, 22103, Note_off_c, 0, 91, 64
1, 22104, Note_on_c, 0, 79, 20
1, 22104, Note_on_c, 0, 86, 20
1, 22105, Note_off_c, 0, 74, 64
1, 22105, Note_off_c, 0, 78, 64
1, 22105, Note_off_c, 0, 88, 64
1, 22105, Note_off_c, 0, 89, 64
1, 22106, Note_on_c, 0, 76, 17
1, 22106, Note_on_c, 0, 85, 30
1, 22106, Note_off_c, 0, 101, 64
1, 22107, Note_off_c, 0, 80, 64
1, 22107, Note_off_c, 0, 83, 64
1, 22107, Note_on_c, 0, 84, 12
1, 22107, Note_on_c, 0, 87, 19
1, 22107, Note_off_c, 0, 90, 64
1, 22109, Note_off_c, 0, 76, 64
1, 22110, Note_on_c, 0, 78, 24
1, 22110, Note_on_c, 0, 83, 28
1, 22110, Note_off_c, 0, 84, 64
1, 22110, Note_off_c, 0, 86, 64
1, 22112, Note_off_c, 0, 79, 64
1, 22112, Note_on_c, 0, 80, 19
1, 22112, Note_on_c, 0, 86, 27
1, 22112, Note_off_c, 0, 87, 64
1, 22112, Note_on_c, 0, 89, 23
1, 22116, Note_on_c, 0, 88, 16
1, 22119, Note_on_c, 0, 71, 35
1, 22119, Note_on_c, 0, 79, 18
1, 22119, Note_off_c, 0, 80, 64
1, 22119, Note_on_c, 0, 81, 29
1, 22120, Note_off_c, 0, 88, 64
1, 22121, Note_on_c, 0, 70, 45
1, 22121, Note_off_c, 0, 71, 64
1, 22121, Note_on_c, 0, 77, 20
1, 22121, Note_off_c, 0, 78, 64
1, 22121, Note_on_c, 0, 84, 18
1, 22121, Note_on_c, 0, 88, 28
1, 22122, Note_on_c, 0, 73, 43
1, 22123, Note_on_c, 0, 69, 34
1, 22123, Note_off_c, 0, 70, 64
1, 22123, Note_on_c, 0, 76, 22
1, 22123, Note_on_c, 0, 78, 13
1, 22123, Note_off_c, 0, 79, 64
1, 22124, Note_off_c, 0, 77, 64
1, 22124, Note_off_c, 0, 81, 64
1, 22124, Note_off_c, 0, 83, 64
1, 22124, Note_off_c, 0, 84, 64
1, 22124, Note_off_c, 0, 86, 64
1, 22124, Note_on_c, 0, 87, 20
1, 22124, Note_off_c, 0, 88, 64
1, 22125, Note_on_c, 0, 68, 41
1, 22125, Note_off_c, 0, 69, 64
1, 22125, Note_on_c, 0, 72, 33
1, 22125, Note_off_c, 0, 73, 64
1, 22125, Note_on_c, 0, 86, 30
1, 22125, Note_on_c, 0, 91, 17
1, 22126, Note_on_c, 0, 64, 13
1, 22126, Note_off_c, 0, 78, 64
1, 22127, Note_off_c, 0, 72, 64
1, 22127, Note_on_c, 0, 75, 14
1, 22127, Note_off_c, 0, 86, 64
1, 22127, Note_off_c, 0, 89, 64
1, 22128, Note_off_c, 0, 68, 64
1, 22128, Note_on_c, 0, 69, 32
1, 22128, Note_on_c, 0, 86, 28
1, 22128, Note_on_c, 0, 101, 14
1, 22128, Note_on_c, 0, 102, 19
1, 22129, Note_off_c, 0, 85, 64
1, 22129, Note_off_c, 0, 87, 64
1, 22129, Note_on_c, 0, 103, 25
1, 22130, Note_off_c, 0, 64, 64
1, 22130, Note_off_c, 0, 69, 64
1, 22130, Note_on_c, 0, 74, 13
1, 22130, Note_off_c, 0, 75, 64
1, 22130, Note_off_c, 0, 76, 64
1, 22130, Note_on_c, 0, 79, 13
1, 22130, Note_on_c, 0, 84, 21
1, 22130, Note_on_c, 0, 90, 18
1, 22130, Note_on_c, 0, 92, 12
1, 22130, Note_on_c, 0, 97, 10
1, 22131, Note_off_c, 0, 91, 64
1, 22132, Note_on_c, 0, 81, 14
1, 22133, Note_off_c, 0, 74, 64
1, 22133, Note_off_c, 0, 102, 64
1, 22135, Note_on_c, 0, 85, 30
1, 22135, Note_on_c, 0, 88, 11
1, 22135, Note_off_c, 0, 92, 64
1, 22135, Note_off_c, 0, 97, 64
1, 22135, Note_off_c, 0, 101, 64
1, 22135, Note_off_c, 0, 103, 64
1, 22136, Note_on_c, 0, 78, 23
1, 22136, Note_on_c, 0, 82, 24
1, 22137, Note_off_c, 0, 79, 64
1, 22137, Note_off_c, 0, 81, 64
1, 22138, Note_on_c, 0, 66, 43
1, 22138, Note_on_c, 0, 80, 19
1, 22138, Note_off_c, 0, 84, 64
1, 22138, Note_on_c, 0, 91, 24
1, 22138, Note_on_c, 0, 96, 35
1, 22138, Note_on_c, 0, 100, 22
1, 22138, Note_on_c, 0, 102, 36
1, 22139, Note_on_c, 0, 83, 26
1, 22139, Note_off_c, 0, 86, 64
1, 22139, Note_on_c, 0, 87, 20
1, 22139, Note_on_c, 0, 93, 26
1, 22139, Note_on_c, 0, 98, 22
1, 22139, Note_on_c, 0, 101, 35
1, 22140, Note_off_c, 0, 66, 64
1, 22140, Note_on_c, 0, 67, 54
1, 22140, Note_on_c, 0, 84, 27
1, 22140, Note_off_c, 0, 88, 64
1, 22140, Note_on_c, 0, 89, 22
1, 22140, Note_off_c, 0, 90, 64
1, 22140, Note_on_c, 0, 94, 46
1, 22140, Note_on_c, 0, 99, 32
1, 22141, Note_off_c, 0, 85, 64
1, 22141, Note_on_c, 0, 86, 24
1, 22141, Note_on_c, 0, 95, 42
1, 22142, Note_on_c, 0, 61, 24
1, 22142, Note_off_c, 0, 67, 64
1, 22142, Note_on_c, 0, 68, 63
1, 22142, Note_off_c, 0, 87, 64
1, 22142, Note_on_c, 0, 97, 31
1, 22143, Note_off_c, 0, 82, 64
1, 22143, Note_off_c, 0, 83, 64
1, 22145, Note_off_c, 0, 61, 64
1, 22145, Note_on_c, 0, 62, 18
1, 22145, Note_off_c, 0, 68, 64
1, 22145, Note_on_c, 0, 69, 63
1, 22145, Note_off_c, 0, 80, 64
1, 22145, Note_off_c, 0, 100, 64
1, 22145, Note_off_c, 0, 101, 64
1, 22145, Note_off_c, 0, 102, 64
1, 22146, Note_on_c, 0, 82, 11
1, 22146, Note_on_c, 0, 90, 23
1, 22146, Note_off_c, 0, 91, 64
1, 22146, Note_off_c, 0, 95, 64
1, 22147, Note_on_c, 0, 83, 25
1, 22147, Note_on_c, 0, 85, 12
1, 22147, Note_on_c, 0, 88, 20
1, 22147, Note_off_c, 0, 89, 64
1, 22147, Note_on_c, 0, 103, 9
1, 22148, Note_off_c, 0, 62, 64
1, 22148, Note_off_c, 0, 93, 64
1, 22148, Note_off_c, 0, 98, 64
1, 22149, Note_off_c, 0, 78, 64
1, 22149, Note_off_c, 0, 82, 64
1, 22149, Note_off_c, 0, 86, 64
1, 22149, Note_on_c, 0, 89, 14
1, 22149, Note_off_c, 0, 96, 64
1, 22150, Note_off_c, 0, 69, 64
1, 22150, Note_off_c, 0, 85, 64
1, 22150, Note_on_c, 0, 91, 10
1, 22150, Note_off_c, 0, 97, 64
1, 22150, Note_off_c, 0, 99, 64
1, 22150, Note_off_c, 0, 103, 64
1, 22151, Note_off_c, 0, 84, 64
1, 22151, Note_off_c, 0, 94, 64
1, 22152, Note_on_c, 0, 76, 16
1, 22153, Note_on_c, 0, 86, 21
1, 22153, Note_off_c, 0, 89, 64
1, 22154, Note_on_c, 0, 80, 17
1, 22154, Note_off_c, 0, 91, 64
1, 22155, Note_off_c, 0, 76, 64
1, 22155, Note_on_c, 0, 91, 18
1, 22156, Note_on_c, 0, 84, 19
1, 22156, Note_off_c, 0, 90, 64
1, 22157, Note_off_c, 0, 83, 64
1, 22157, Note_off_c, 0, 88, 64
1, 22157, Note_on_c, 0, 99, 24
1, 22157, Note_on_c, 0, 100, 18
1, 22157, Note_on_c, 0, 102, 16
1, 22157, Note_on_c, 0, 103, 22
1, 22158, Note_on_c, 0, 78, 15
1, 22158, Note_on_c, 0, 98, 22
1, 22159, Note_on_c, 0, 60, 42
1, 22159, Note_on_c, 0, 83, 23
1, 22159, Note_off_c, 0, 84, 64
1, 22159, Note_off_c, 0, 91, 64
1, 22162, Note_off_c, 0, 99, 64
1, 22162, Note_off_c, 0, 100, 64
1, 22162, Note_off_c, 0, 102, 64
1, 22162, Note_off_c, 0, 103, 64
1, 22163, Note_on_c, 0, 71, 20
1, 22163, Note_off_c, 0, 78, 64
1, 22163, Note_off_c, 0, 80, 64
1, 22163, Note_on_c, 0, 95, 30
1, 22164, Note_on_c, 0, 96, 19
1, 22164, Note_on_c, 0, 97, 29
1, 22165, Note_on_c, 0, 59, 41
1, 22165, Note_off_c, 0, 60, 64
1, 22165, Note_off_c, 0, 83, 64
1, 22165, Note_on_c, 0, 92, 12
1, 22165, Note_on_c, 0, 93, 22
1, 22165, Note_on_c, 0, 94, 23
1, 22165, Note_on_c, 0, 99, 19
1, 22165, Note_on_c, 0, 101, 23
1, 22165, Note_on_c, 0, 102, 35
1, 22166, Note_on_c, 0, 85, 23
1, 22166, Note_on_c, 0, 100, 32
1, 22167, Note_on_c, 0, 83, 22
1, 22167, Note_off_c, 0, 86, 64
1, 22168, Note_off_c, 0, 59, 64
1, 22168, Note_off_c, 0, 71, 64
1, 22168, Note_on_c, 0, 80, 15
1, 22168, Note_on_c, 0, 91, 20
1, 22169, Note_on_c, 0, 68, 28
1, 22169, Note_off_c, 0, 92, 64
1, 22170, Note_on_c, 0, 90, 17
1, 22170, Note_off_c, 0, 99, 64
1, 22171, Note_off_c, 0, 85, 64
1, 22171, Note_off_c, 0, 93, 64
1, 22171, Note_off_c, 0, 98, 64
1, 22171, Note_off_c, 0, 101, 64
1, 22172, Note_off_c, 0, 68, 64
1, 22172, Note_on_c, 0, 69, 35
1, 22172, Note_on_c, 0, 85, 31
1, 22172, Note_on_c, 0, 89, 22
1, 22172, Note_off_c, 0, 91, 64
1, 22172, Note_off_c, 0, 96, 64
1, 22172, Note_off_c, 0, 100, 64
1, 22172, Note_off_c, 0, 102, 64
1, 22173, Note_off_c, 0, 95, 64
1, 22174, Note_on_c, 0, 78, 12
1, 22174, Note_on_c, 0, 86, 43
1, 22174, Note_on_c, 0, 88, 21
1, 22174, Note_on_c, 0, 99, 33
1, 22174, Note_on_c, 0, 102, 35
1, 22174, Note_on_c, 0, 103, 31
1, 22175, Note_off_c, 0, 80, 64
1, 22175, Note_off_c, 0, 83, 64
1, 22175, Note_on_c, 0, 92, 27
1, 22175, Note_on_c, 0, 96, 19
1, 22175, Note_on_c, 0, 100, 34
1, 22175, Note_on_c, 0, 101, 37
1, 22176, Note_on_c, 0, 83, 17
1, 22176, Note_on_c, 0, 87, 35
1, 22176, Note_off_c, 0, 90, 64
1, 22177, Note_off_c, 0, 69, 64
1, 22177, Note_on_c, 0, 84, 27
1, 22178, Note_off_c, 0, 85, 64
1, 22178, Note_on_c, 0, 95, 17
1, 22179, Note_off_c, 0, 83, 64
1, 22179, Note_off_c, 0, 88, 64
1, 22180, Note_off_c, 0, 78, 64
1, 22181, Note_off_c, 0, 84, 64
1, 22181, Note_on_c, 0, 88, 29
1, 22181, Note_off_c, 0, 89, 64
1, 22181, Note_on_c, 0, 91, 20
1, 22181, Note_off_c, 0, 94, 64
1, 22182, Note_on_c, 0, 85, 21
1, 22182, Note_off_c, 0, 87, 64
1, 22182, Note_off_c, 0, 92, 64
1, 22182, Note_off_c, 0, 95, 64
1, 22182, Note_off_c, 0, 96, 64
1, 22182, Note_off_c, 0, 97, 64
1, 22182, Note_off_c, 0, 101, 64
1, 22182, Note_off_c, 0, 102, 64
1, 22182, Note_off_c, 0, 103, 64
1, 22183, Note_on_c, 0, 67, 39
1, 22183, Note_on_c, 0, 83, 19
1, 22183, Note_on_c, 0, 87, 42
1, 22183, Note_off_c, 0, 99, 64
1, 22183, Note_off_c, 0, 100, 64
1, 22184, Note_on_c, 0, 89, 26
1, 22184, Note_on_c, 0, 90, 15
1, 22185, Note_off_c, 0, 67, 64
1, 22185, Note_on_c, 0, 92, 30
1, 22186, Note_on_c, 0, 65, 43
1, 22186, Note_off_c, 0, 83, 64
1, 22186, Note_on_c, 0, 94, 39
1, 22186, Note_on_c, 0, 102, 21
1, 22187, Note_on_c, 0, 81, 18
1, 22187, Note_off_c, 0, 89, 64
1, 22187, Note_off_c, 0, 90, 64
1, 22188, Note_off_c, 0, 65, 64
1, 22188, Note_on_c, 0, 72, 19
1, 22188, Note_off_c, 0, 85, 64
1, 22188, Note_off_c, 0, 88, 64
1, 22188, Note_on_c, 0, 95, 32
1, 22188, Note_on_c, 0, 97, 15
1, 22189, Note_on_c, 0, 56, 12
1, 22189, Note_on_c, 0, 63, 33
1, 22189, Note_on_c, 0, 68, 16
1, 22189, Note_on_c, 0, 96, 30
1, 22190, Note_on_c, 0, 85, 27
1, 22190, Note_off_c, 0, 102, 64
1, 22191, Note_on_c, 0, 62, 28
1, 22191, Note_off_c, 0, 63, 64
1, 22191, Note_on_c, 0, 71, 15
1, 22191, Note_off_c, 0, 72, 64
1, 22191, Note_off_c, 0, 86, 64
1, 22191, Note_off_c, 0, 91, 64
1, 22191, Note_off_c, 0, 92, 64
1, 22191, Note_off_c, 0, 97, 64
1, 22192, Note_off_c, 0, 56, 64
1, 22192, Note_off_c, 0, 87, 64
1, 22192, Note_off_c, 0, 94, 64
1, 22193, Note_off_c, 0, 68, 64
1, 22193, Note_off_c, 0, 81, 64
1, 22193, Note_on_c, 0, 82, 17
1, 22193, Note_on_c, 0, 97, 45
1, 22194, Note_off_c, 0, 71, 64
1, 22194, Note_on_c, 0, 78, 19
1, 22194, Note_on_c, 0, 98, 22
1, 22194, Note_on_c, 0, 99, 21
1, 22195, Note_on_c, 0, 83, 17
1, 22195, Note_on_c, 0, 100, 38
1, 22195, Note_on_c, 0, 102, 24
1, 22196, Note_off_c, 0, 62, 64
1, 22196, Note_on_c, 0, 91, 17
1, 22196, Note_on_c, 0, 101, 16
1, 22197, Note_on_c, 0, 55, 14
1, 22197, Note_on_c, 0, 68, 43
1, 22197, Note_on_c, 0, 71, 28
1, 22197, Note_off_c, 0, 85, 64
1, 22197, Note_on_c, 0, 86, 25
1, 22198, Note_on_c, 0, 62, 32
1, 22198, Note_off_c, 0, 83, 64
1, 22198, Note_on_c, 0, 93, 27
1, 22198, Note_off_c, 0, 99, 64
1, 22199, Note_on_c, 0, 94, 32
1, 22199, Note_off_c, 0, 98, 64
1, 22200, Note_off_c, 0, 82, 64
1, 22200, Note_off_c, 0, 91, 64
1, 22200, Note_on_c, 0, 99, 36
1, 22200, Note_off_c, 0, 102, 64
1, 22201, Note_off_c, 0, 68, 64
1, 22201, Note_on_c, 0, 98, 41
1, 22202, Note_on_c, 0, 68, 63
1, 22202, Note_on_c, 0, 84, 20
1, 22202, Note_off_c, 0, 95, 64
1, 22202, Note_off_c, 0, 101, 64
1, 22203, Note_off_c, 0, 62, 64
1, 22203, Note_on_c, 0, 63, 24
1, 22203, Note_on_c, 0, 85, 21
1, 22203, Note_off_c, 0, 86, 64
1, 22203, Note_on_c, 0, 91, 17
1, 22203, Note_on_c, 0, 95, 29
1, 22203, Note_off_c, 0, 96, 64
1, 22203, Note_on_c, 0, 101, 35
1, 22203, Note_on_c, 0, 102, 29
1, 22203, Note_on_c, 0, 103, 17
1, 22204, Note_off_c, 0, 55, 64
1, 22204, Note_off_c, 0, 71, 64
1, 22204, Note_on_c, 0, 96, 45
1, 22205, Note_on_c, 0, 57, 12
1, 22205, Note_on_c, 0, 83, 16
1, 22205, Note_on_c, 0, 86, 19
1, 22205, Note_on_c, 0, 87, 25
1, 22206, Note_off_c, 0, 63, 64
1, 22206, Note_on_c, 0, 64, 33
1, 22206, Note_off_c, 0, 68, 64
1, 22206, Note_on_c, 0, 69, 62
1, 22206, Note_off_c, 0, 78, 64
1, 22206, Note_off_c, 0, 84, 64
1, 22206, Note_on_c, 0, 89, 21
1, 22206, Note_off_c, 0, 103, 64
1, 22207, Note_on_c, 0, 74, 22
1, 22207, Note_on_c, 0, 77, 22
1, 22207, Note_on_c, 0, 84, 17
1, 22207, Note_off_c, 0, 85, 64
1, 22207, Note_on_c, 0, 90, 16
1, 22207, Note_off_c, 0, 102, 64
1, 22207, Note_on_c, 0, 103, 30
1, 22208, Note_off_c, 0, 57, 64
1, 22208, Note_on_c, 0, 58, 22
1, 22208, Note_off_c, 0, 64, 64
1, 22208, Note_on_c, 0, 65, 50
1, 22208, Note_off_c, 0, 69, 64
1, 22208, Note_on_c, 0, 70, 49
1, 22208, Note_off_c, 0, 86, 64
1, 22208, Note_off_c, 0, 95, 64
1, 22208, Note_on_c, 0, 102, 27
1, 22209, Note_off_c, 0, 94, 64
1, 22209, Note_on_c, 0, 95, 24
1, 22209, Note_off_c, 0, 96, 64
1, 22210, Note_off_c, 0, 83, 64
1, 22210, Note_off_c, 0, 89, 64
1, 22210, Note_off_c, 0, 90, 64
1, 22210, Note_off_c, 0, 91, 64
1, 22210, Note_off_c, 0, 93, 64
1, 22210, Note_on_c, 0, 96, 41
1, 22211, Note_on_c, 0, 83, 15
1, 22211, Note_off_c, 0, 84, 64
1, 22211, Note_off_c, 0, 87, 64
1, 22211, Note_off_c, 0, 100, 64
1, 22212, Note_on_c, 0, 89, 26
1, 22212, Note_on_c, 0, 100, 33
1, 22213, Note_on_c, 0, 87, 28
1, 22213, Note_on_c, 0, 90, 25
1, 22214, Note_off_c, 0, 83, 64
1, 22215, Note_on_c, 0, 83, 21
1, 22215, Note_on_c, 0, 94, 20
1, 22216, Note_on_c, 0, 92, 29
1, 22217, Note_off_c, 0, 77, 64
1, 22217, Note_on_c, 0, 91, 23
1, 22218, Note_off_c, 0, 58, 64
1, 22218, Note_off_c, 0, 65, 64
1, 22218, Note_off_c, 0, 103, 64
1, 22219, Note_off_c, 0, 70, 64
1, 22219, Note_off_c, 0, 74, 64
1, 22219, Note_off_c, 0, 89, 64
1, 22219, Note_off_c, 0, 90, 64
1, 22219, Note_off_c, 0, 92, 64
1, 22219, Note_off_c, 0, 94, 64
1, 22219, Note_off_c, 0, 95, 64
1, 22219, Note_off_c, 0, 96, 64
1, 22219, Note_off_c, 0, 97, 64
1, 22219, Note_off_c, 0, 98, 64
1, 22219, Note_off_c, 0, 99, 64
1, 22219, Note_off_c, 0, 101, 64
1, 22220, Note_off_c, 0, 83, 64
1, 22220, Note_off_c, 0, 87, 64
1, 22220, Note_off_c, 0, 91, 64
1, 22220, Note_off_c, 0, 102, 64
1, 22221, Note_on_c, 0, 95, 19
1, 22221, Note_on_c, 0, 97, 20
1, 22222, Note_on_c, 0, 81, 10
1, 22222, Note_on_c, 0, 94, 11
1, 22223, Note_on_c, 0, 85, 25
1, 22223, Note_on_c, 0, 92, 9
1, 22223, Note_on_c, 0, 101, 15
1, 22224, Note_on_c, 0, 96, 16
1, 22224, Note_on_c, 0, 98, 13
1, 22225, Note_off_c, 0, 100, 64
1, 22226, Note_off_c, 0, 81, 64
1, 22226, Note_off_c, 0, 97, 64
1, 22226, Note_off_c, 0, 101, 64
1, 22227, Note_on_c, 0, 83, 22
1, 22227, Note_on_c, 0, 86, 17
1, 22227, Note_on_c, 0, 89, 23
1, 22227, Note_off_c, 0, 92, 64
1, 22227, Note_off_c, 0, 94, 64
1, 22227, Note_off_c, 0, 96, 64
1, 22227, Note_off_c, 0, 98, 64
1, 22228, Note_on_c, 0, 69, 24
1, 22228, Note_off_c, 0, 95, 64
1, 22229, Note_on_c, 0, 94, 9
1, 22230, Note_on_c, 0, 67, 34
1, 22230, Note_on_c, 0, 71, 35
1, 22231, Note_off_c, 0, 69, 64
1, 22231, Note_off_c, 0, 86, 64
1, 22231, Note_on_c, 0, 91, 35
1, 22231, Note_on_c, 0, 92, 24
1, 22231, Note_on_c, 0, 93, 27
1, 22231, Note_on_c, 0, 96, 23
1, 22231, Note_on_c, 0, 97, 26
1, 22231, Note_on_c, 0, 98, 20
1, 22232, Note_off_c, 0, 67, 64
1, 22232, Note_on_c, 0, 81, 26
1, 22232, Note_on_c, 0, 99, 17
1, 22232, Note_on_c, 0, 100, 21
1, 22233, Note_on_c, 0, 62, 18
1, 22233, Note_on_c, 0, 67, 44
1, 22233, Note_on_c, 0, 86, 22
1, 22233, Note_off_c, 0, 89, 64
1, 22233, Note_on_c, 0, 90, 28
1, 22233, Note_on_c, 0, 95, 23
1, 22234, Note_on_c, 0, 76, 13
1, 22234, Note_off_c, 0, 85, 64
1, 22234, Note_on_c, 0, 89, 23
1, 22234, Note_off_c, 0, 92, 64
1, 22234, Note_off_c, 0, 96, 64
1, 22235, Note_on_c, 0, 70, 44
1, 22235, Note_off_c, 0, 71, 64
1, 22235, Note_on_c, 0, 80, 16
1, 22235, Note_off_c, 0, 81, 64
1, 22235, Note_on_c, 0, 87, 17
1, 22235, Note_off_c, 0, 94, 64
1, 22235, Note_off_c, 0, 100, 64
1, 22236, Note_off_c, 0, 62, 64
1, 22236, Note_off_c, 0, 67, 64
1, 22236, Note_off_c, 0, 99, 64
1, 22237, Note_on_c, 0, 65, 19
1, 22237, Note_off_c, 0, 83, 64
1, 22237, Note_off_c, 0, 89, 64
1, 22237, Note_off_c, 0, 93, 64
1, 22237, Note_off_c, 0, 98, 64
1, 22238, Note_off_c, 0, 76, 64
1, 22238, Note_off_c, 0, 80, 64
1, 22238, Note_off_c, 0, 90, 64
1, 22238, Note_off_c, 0, 91, 64
1, 22238, Note_off_c, 0, 95, 64
1, 22238, Note_on_c, 0, 96, 27
1, 22239, Note_off_c, 0, 86, 64
1, 22239, Note_on_c, 0, 88, 18
1, 22240, Note_off_c, 0, 87, 64
1, 22240, Note_on_c, 0, 89, 16
1, 22240, Note_on_c, 0, 91, 22
1, 22240, Note_on_c, 0, 92, 29
1, 22240, Note_on_c, 0, 94, 20
1, 22240, Note_on_c, 0, 95, 28
1, 22240, Note_off_c, 0, 97, 64
1, 22240, Note_on_c, 0, 98, 32
1, 22240, Note_on_c, 0, 102, 15
1, 22241, Note_on_c, 0, 84, 18
1, 22241, Note_on_c, 0, 90, 28
1, 22241, Note_on_c, 0, 93, 32
1, 22241, Note_on_c, 0, 97, 33
1, 22241, Note_on_c, 0, 99, 30
1, 22241, Note_on_c, 0, 101, 18
1, 22242, Note_on_c, 0, 87, 17
1, 22243, Note_off_c, 0, 88, 64
1, 22243, Note_off_c, 0, 89, 64
1, 22243, Note_on_c, 0, 100, 18
1, 22244, Note_off_c, 0, 70, 64
1, 22244, Note_on_c, 0, 80, 19
1, 22244, Note_off_c, 0, 94, 64
1, 22244, Note_off_c, 0, 95, 64
1, 22245, Note_off_c, 0, 65, 64
1, 22245, Note_off_c, 0, 87, 64
1, 22245, Note_on_c, 0, 95, 31
1, 22245, Note_off_c, 0, 96, 64
1, 22246, Note_off_c, 0, 99, 64
1, 22246, Note_off_c, 0, 100, 64
1, 22246, Note_off_c, 0, 101, 64
1, 22246, Note_off_c, 0, 102, 64
1, 22247, Note_off_c, 0, 80, 64
1, 22247, Note_off_c, 0, 84, 64
1, 22247, Note_on_c, 0, 85, 25
1, 22247, Note_on_c, 0, 89, 31
1, 22247, Note_off_c, 0, 90, 64
1, 22247, Note_off_c, 0, 92, 64
1, 22247, Note_off_c, 0, 93, 64
1, 22247, Note_off_c, 0, 95, 64
1, 22247, Note_off_c, 0, 97, 64
1, 22248, Note_off_c, 0, 91, 64
1, 22248, Note_off_c, 0, 98, 64
1, 22249, Note_on_c, 0, 86, 32
1, 22249, Note_on_c, 0, 91, 46
1, 22249, Note_on_c, 0, 92, 28
1, 22249, Note_on_c, 0, 95, 40
1, 22249, Note_on_c, 0, 97, 33
1, 22249, Note_on_c, 0, 98, 35
1, 22249, Note_on_c, 0, 100, 34
1, 22249, Note_on_c, 0, 102, 24
1, 22250, Note_on_c, 0, 82, 24
1, 22250, Note_on_c, 0, 94, 36
1, 22251, Note_on_c, 0, 88, 20
1, 22251, Note_on_c, 0, 93, 34
1, 22251, Note_on_c, 0, 96, 33
1, 22252, Note_off_c, 0, 92, 64
1, 22252, Note_off_c, 0, 94, 64
1, 22253, Note_on_c, 0, 90, 32
1, 22253, Note_on_c, 0, 94, 26
1, 22254, Note_on_c, 0, 68, 13
1, 22254, Note_on_c, 0, 78, 11
1, 22254, Note_on_c, 0, 84, 43
1, 22254, Note_off_c, 0, 85, 64
1, 22254, Note_off_c, 0, 93, 64
1, 22255, Note_off_c, 0, 88, 64
1, 22255, Note_on_c, 0, 92, 27
1, 22255, Note_on_c, 0, 93, 20
1, 22255, Note_off_c, 0, 100, 64
1, 22255, Note_off_c, 0, 102, 64
1, 22256, Note_on_c, 0, 88, 39
1, 22256, Note_off_c, 0, 89, 64
1, 22256, Note_off_c, 0, 90, 64
1, 22256, Note_off_c, 0, 94, 64
1, 22256, Note_off_c, 0, 96, 64
1, 22256, Note_off_c, 0, 97, 64
1, 22256, Note_off_c, 0, 98, 64
1, 22256, Note_on_c, 0, 99, 18
1, 22257, Note_off_c, 0, 68, 64
1, 22257, Note_off_c, 0, 78, 64
1, 22257, Note_off_c, 0, 82, 64
1, 22257, Note_on_c, 0, 83, 33
1, 22257, Note_off_c, 0, 86, 64
1, 22257, Note_off_c, 0, 95, 64
1, 22258, Note_on_c, 0, 82, 38
1, 22258, Note_off_c, 0, 92, 64
1, 22259, Note_on_c, 0, 68, 30
1, 22259, Note_on_c, 0, 78, 45
1, 22259, Note_on_c, 0, 80, 49
1, 22259, Note_on_c, 0, 86, 47
1, 22259, Note_on_c, 0, 97, 13
1, 22260, Note_on_c, 0, 79, 66
1, 22260, Note_off_c, 0, 83, 64
1, 22260, Note_on_c, 0, 85, 42
1, 22260, Note_on_c, 0, 87, 46
1, 22261, Note_on_c, 0, 77, 51
1, 22261, Note_off_c, 0, 78, 64
1, 22261, Note_off_c, 0, 80, 64
1, 22261, Note_on_c, 0, 83, 42
1, 22262, Note_on_c, 0, 62, 16
1, 22262, Note_off_c, 0, 68, 64
1, 22262, Note_on_c, 0, 69, 27
1, 22262, Note_on_c, 0, 74, 27
1, 22262, Note_on_c, 0, 81, 47
1, 22262, Note_off_c, 0, 85, 64
1, 22262, Note_off_c, 0, 93, 64
1, 22262, Note_off_c, 0, 99, 64
1, 22263, Note_on_c, 0, 76, 52
1, 22263, Note_off_c, 0, 77, 64
1, 22263, Note_off_c, 0, 82, 64
1, 22263, Note_off_c, 0, 91, 64
1, 22264, Note_on_c, 0, 82, 44
1, 22264, Note_off_c, 0, 83, 64
1, 22264, Note_off_c, 0, 97, 64
1, 22265, Note_on_c, 0, 61, 32
1, 22265, Note_off_c, 0, 62, 64
1, 22265, Note_off_c, 0, 69, 64
1, 22265, Note_on_c, 0, 73, 41
1, 22265, Note_off_c, 0, 74, 64
1, 22265, Note_on_c, 0, 78, 64
1, 22265, Note_off_c, 0, 79, 64
1, 22265, Note_on_c, 0, 89, 30
1, 22266, Note_on_c, 0, 80, 47
1, 22266, Note_off_c, 0, 81, 64
1, 22266, Note_off_c, 0, 86, 64
1, 22267, Note_on_c, 0, 91, 31
1, 22267, Note_on_c, 0, 93, 29
1, 22268, Note_on_c, 0, 98, 30
1, 22269, Note_off_c, 0, 84, 64
1, 22269, Note_off_c, 0, 87, 64
1, 22269, Note_on_c, 0, 95, 34
1, 22269, Note_on_c, 0, 96, 30
1, 22270, Note_off_c, 0, 89, 64
1, 22271, Note_off_c, 0, 78, 64
1, 22271, Note_off_c, 0, 80, 64
1, 22271, Note_off_c, 0, 82, 64
1, 22271, Note_on_c, 0, 89, 16
1, 22272, Note_on_c, 0, 54, 19
1, 22272, Note_on_c, 0, 80, 15
1, 22273, Note_off_c, 0, 88, 64
1, 22274, Note_off_c, 0, 89, 64
1, 22274, Note_off_c, 0, 95, 64
1, 22274, Note_off_c, 0, 96, 64
1, 22274, Note_off_c, 0, 98, 64
1, 22275, Note_off_c, 0, 61, 64
1, 22275, Note_off_c, 0, 73, 64
1, 22275, Note_off_c, 0, 76, 64
1, 22275, Note_off_c, 0, 80, 64
1, 22275, Note_off_c, 0, 93, 64
1, 22276, Note_off_c, 0, 91, 64
1, 22277, Note_on_c, 0, 53, 16
1, 22277, Note_off_c, 0, 54, 64
1, 22277, Note_on_c, 0, 72, 35
1, 22277, Note_on_c, 0, 91, 37
1, 22277, Note_on_c, 0, 92, 39
1, 22277, Note_on_c, 0, 94, 32
1, 22277, Note_on_c, 0, 98, 25
1, 22278, Note_on_c, 0, 60, 37
1, 22278, Note_on_c, 0, 75, 47
1, 22278, Note_on_c, 0, 77, 30
1, 22278, Note_on_c, 0, 82, 21
1, 22278, Note_on_c, 0, 90, 35
1, 22278, Note_on_c, 0, 95, 32
1, 22278, Note_on_c, 0, 97, 25
1, 22278, Note_on_c, 0, 99, 18
1, 22278, Note_on_c, 0, 101, 23
1, 22279, Note_on_c, 0, 86, 31
1, 22279, Note_on_c, 0, 96, 29
1, 22280, Note_on_c, 0, 74, 63
1, 22280, Note_off_c, 0, 75, 64
1, 22280, Note_on_c, 0, 76, 42
1, 22280, Note_off_c, 0, 77, 64
1, 22280, Note_on_c, 0, 80, 32
1, 22280, Note_on_c, 0, 85, 16
1, 22280, Note_on_c, 0, 87, 28
1, 22280, Note_on_c, 0, 93, 31
1, 22280, Note_on_c, 0, 100, 19
1, 22281, Note_on_c, 0, 78, 39
1, 22281, Note_on_c, 0, 88, 44
1, 22281, Note_on_c, 0, 89, 45
1, 22282, Note_off_c, 0, 53, 64
1, 22282, Note_on_c, 0, 59, 24
1, 22282, Note_off_c, 0, 60, 64
1, 22282, Note_on_c, 0, 71, 30
1, 22282, Note_off_c, 0, 72, 64
1, 22282, Note_off_c, 0, 90, 64
1, 22283, Note_off_c, 0, 85, 64
1, 22283, Note_off_c, 0, 86, 64
1, 22283, Note_off_c, 0, 88, 64
1, 22283, Note_off_c, 0, 101, 64
1, 22284, Note_on_c, 0, 73, 57
1, 22284, Note_off_c, 0, 74, 64
1, 22284, Note_on_c, 0, 79, 29
1, 22284, Note_off_c, 0, 80, 64
1, 22284, Note_off_c, 0, 82, 64
1, 22284, Note_off_c, 0, 93, 64
1, 22284, Note_off_c, 0, 95, 64
1, 22284, Note_off_c, 0, 97, 64
1, 22284, Note_off_c, 0, 98, 64
1, 22284, Note_off_c, 0, 99, 64
1, 22284, Note_off_c, 0, 100, 64
1, 22285, Note_off_c, 0, 59, 64
1, 22285, Note_on_c, 0, 63, 13
1, 22285, Note_on_c, 0, 67, 32
1, 22285, Note_on_c, 0, 70, 43
1, 22285, Note_off_c, 0, 71, 64
1, 22285, Note_on_c, 0, 86, 45
1, 22285, Note_off_c, 0, 87, 64
1, 22285, Note_off_c, 0, 96, 64
1, 22286, Note_on_c, 0, 58, 19
1, 22286, Note_off_c, 0, 76, 64
1, 22286, Note_on_c, 0, 77, 26
1, 22286, Note_off_c, 0, 78, 64
1, 22286, Note_on_c, 0, 87, 40
1, 22286, Note_off_c, 0, 89, 64
1, 22286, Note_off_c, 0, 92, 64
1, 22287, Note_off_c, 0, 79, 64
1, 22287, Note_off_c, 0, 91, 64
1, 22287, Note_on_c, 0, 92, 32
1, 22287, Note_on_c, 0, 93, 32
1, 22287, Note_on_c, 0, 95, 32
1, 22288, Note_on_c, 0, 66, 30
1, 22288, Note_off_c, 0, 67, 64
1, 22288, Note_off_c, 0, 73, 64
1, 22288, Note_on_c, 0, 96, 16
1, 22288, Note_on_c, 0, 101, 15
1, 22289, Note_on_c, 0, 57, 14
1, 22289, Note_off_c, 0, 58, 64
1, 22289, Note_on_c, 0, 83, 17
1, 22289, Note_on_c, 0, 84, 29
1, 22289, Note_on_c, 0, 91, 37
1, 22289, Note_off_c, 0, 94, 64
1, 22289, Note_on_c, 0, 97, 26
1, 22290, Note_off_c, 0, 63, 64
1, 22290, Note_on_c, 0, 76, 29
1, 22290, Note_on_c, 0, 79, 40
1, 22290, Note_on_c, 0, 81, 30
1, 22290, Note_on_c, 0, 89, 30
1, 22290, Note_on_c, 0, 94, 24
1, 22291, Note_off_c, 0, 70, 64
1, 22291, Note_off_c, 0, 77, 64
1, 22292, Note_on_c, 0, 70, 18
1, 22292, Note_on_c, 0, 82, 25
1, 22292, Note_off_c, 0, 83, 64
1, 22292, Note_off_c, 0, 96, 64
1, 22293, Note_off_c, 0, 57, 64
1, 22293, Note_off_c, 0, 66, 64
1, 22293, Note_on_c, 0, 73, 19
1, 22293, Note_off_c, 0, 91, 64
1, 22293, Note_off_c, 0, 93, 64
1, 22293, Note_off_c, 0, 94, 64
1, 22293, Note_off_c, 0, 101, 64
1, 22294, Note_on_c, 0, 78, 37
1, 22294, Note_off_c, 0, 79, 64
1, 22294, Note_off_c, 0, 89, 64
1, 22294, Note_off_c, 0, 92, 64
1, 22294, Note_off_c, 0, 97, 64
1, 22295, Note_off_c, 0, 70, 64
1, 22295, Note_off_c, 0, 81, 64
1, 22295, Note_off_c, 0, 84, 64
1, 22295, Note_off_c, 0, 87, 64
1, 22295, Note_off_c, 0, 95, 64
1, 22296, Note_off_c, 0, 82, 64
1, 22296, Note_on_c, 0, 83, 15
1, 22296, Note_on_c, 0, 91, 22
1, 22296, Note_on_c, 0, 97, 18
1, 22297, Note_on_c, 0, 80, 15
1, 22297, Note_on_c, 0, 93, 17
1, 22298, Note_off_c, 0, 78, 64
1, 22298, Note_on_c, 0, 82, 16
1, 22298, Note_on_c, 0, 94, 19
1, 22299, Note_on_c, 0, 89, 22
1, 22300, Note_off_c, 0, 80, 64
1, 22300, Note_off_c, 0, 86, 64
1, 22300, Note_on_c, 0, 87, 20
1, 22301, Note_off_c, 0, 82, 64
1, 22301, Note_off_c, 0, 97, 64
1, 22302, Note_off_c, 0, 73, 64
1, 22302, Note_off_c, 0, 76, 64
1, 22303, Note_off_c, 0, 83, 64
1, 22303, Note_off_c, 0, 87, 64
1, 22303, Note_off_c, 0, 89, 64
1, 22303, Note_off_c, 0, 91, 64
1, 22303, Note_off_c, 0, 93, 64
1, 22303, Note_off_c, 0, 94, 64
1, 22305, Note_on_c, 0, 91, 28
1, 22305, Note_on_c, 0, 92, 19
1, 22306, Note_on_c, 0, 85, 22
1, 22306, Note_on_c, 0, 93, 12
1, 22307, Note_on_c, 0, 72, 9
1, 22307, Note_on_c, 0, 74, 37
1, 22307, Note_on_c, 0, 87, 16
1, 22307, Note_on_c, 0, 89, 26
1, 22308, Note_on_c, 0, 88, 27
1, 22308, Note_off_c, 0, 92, 64
1, 22309, Note_on_c, 0, 76, 22
1, 22310, Note_off_c, 0, 72, 64
1, 22310, Note_on_c, 0, 78, 27
1, 22310, Note_on_c, 0, 83, 17
1, 22311, Note_off_c, 0, 85, 64
1, 22311, Note_off_c, 0, 87, 64
1, 22311, Note_off_c, 0, 93, 64
1, 22312, Note_on_c, 0, 73, 32
1, 22312, Note_off_c, 0, 74, 64
1, 22312, Note_off_c, 0, 91, 64
1, 22313, Note_off_c, 0, 78, 64
1, 22313, Note_off_c, 0, 83, 64
1, 22313, Note_on_c, 0, 86, 34
1, 22313, Note_off_c, 0, 89, 64
1, 22314, Note_off_c, 0, 76, 64
1, 22314, Note_on_c, 0, 89, 42
1, 22314, Note_on_c, 0, 94, 29
1, 22315, Note_off_c, 0, 73, 64
1, 22315, Note_on_c, 0, 82, 28
1, 22315, Note_on_c, 0, 85, 27
1, 22315, Note_on_c, 0, 91, 55
1, 22315, Note_on_c, 0, 92, 48
1, 22315, Note_on_c, 0, 93, 37
1, 22315, Note_on_c, 0, 95, 28
1, 22315, Note_on_c, 0, 99, 32
1, 22316, Note_on_c, 0, 97, 28
1, 22317, Note_on_c, 0, 79, 44
1, 22317, Note_off_c, 0, 88, 64
1, 22317, Note_on_c, 0, 100, 23
1, 22317, Note_on_c, 0, 102, 16
1, 22318, Note_on_c, 0, 87, 34
1, 22319, Note_on_c, 0, 74, 55
1, 22319, Note_on_c, 0, 90, 39
1, 22319, Note_on_c, 0, 98, 36
1, 22320, Note_on_c, 0, 77, 34
1, 22320, Note_off_c, 0, 86, 64
1, 22320, Note_off_c, 0, 99, 64
1, 22320, Note_off_c, 0, 102, 64
1, 22321, Note_on_c, 0, 55, 13
1, 22321, Note_on_c, 0, 62, 19
1, 22321, Note_on_c, 0, 71, 59
1, 22321, Note_off_c, 0, 100, 64
1, 22322, Note_on_c, 0, 78, 38
1, 22322, Note_off_c, 0, 79, 64
1, 22322, Note_on_c, 0, 80, 37
1, 22323, Note_off_c, 0, 71, 64
1, 22323, Note_on_c, 0, 72, 66
1, 22323, Note_off_c, 0, 82, 64
1, 22323, Note_on_c, 0, 83, 29
1, 22323, Note_off_c, 0, 87, 64
1, 22323, Note_on_c, 0, 88, 39
1, 22324, Note_off_c, 0, 55, 64
1, 22324, Note_off_c, 0, 62, 64
1, 22324, Note_off_c, 0, 74, 64
1, 22324, Note_on_c, 0, 75, 62
1, 22324, Note_off_c, 0, 78, 64
1, 22324, Note_on_c, 0, 82, 26
1, 22324, Note_on_c, 0, 96, 21
1, 22325, Note_on_c, 0, 68, 18
1, 22325, Note_off_c, 0, 90, 64
1, 22327, Note_off_c, 0, 77, 64
1, 22327, Note_on_c, 0, 78, 39
1, 22327, Note_on_c, 0, 86, 43
1, 22327, Note_off_c, 0, 93, 64
1, 22328, Note_off_c, 0, 85, 64
1, 22328, Note_on_c, 0, 93, 42
1, 22329, Note_off_c, 0, 68, 64
1, 22329, Note_off_c, 0, 72, 64
1, 22329, Note_on_c, 0, 73, 41
1, 22329, Note_off_c, 0, 75, 64
1, 22329, Note_on_c, 0, 76, 37
1, 22329, Note_on_c, 0, 81, 30
1, 22329, Note_off_c, 0, 82, 64
1, 22330, Note_off_c, 0, 83, 64
1, 22330, Note_off_c, 0, 98, 64
1, 22331, Note_off_c, 0, 78, 64
1, 22331, Note_off_c, 0, 89, 64
1, 22331, Note_off_c, 0, 92, 64
1, 22331, Note_off_c, 0, 94, 64
1, 22331, Note_off_c, 0, 96, 64
1, 22331, Note_off_c, 0, 97, 64
1, 22332, Note_off_c, 0, 73, 64
1, 22332, Note_off_c, 0, 76, 64
1, 22332, Note_off_c, 0, 80, 64
1, 22332, Note_off_c, 0, 81, 64
1, 22332, Note_off_c, 0, 86, 64
1, 22332, Note_off_c, 0, 88, 64
1, 22332, Note_off_c, 0, 91, 64
1, 22332, Note_off_c, 0, 93, 64
1, 22332, Note_off_c, 0, 95, 64
1, 22333, Note_on_c, 0, 91, 25
1, 22334, Note_on_c, 0, 77, 18
1, 22334, Note_on_c, 0, 87, 22
1, 22334, Note_on_c, 0, 88, 14
1, 22335, Note_on_c, 0, 92, 22
1, 22336, Note_on_c, 0, 74, 37
1, 22336, Note_on_c, 0, 90, 38
1, 22337, Note_on_c, 0, 83, 22
1, 22337, Note_on_c, 0, 85, 18
1, 22338, Note_off_c, 0, 77, 64
1, 22339, Note_on_c, 0, 78, 19
1, 22339, Note_off_c, 0, 87, 64
1, 22339, Note_off_c, 0, 88, 64
1, 22339, Note_off_c, 0, 91, 64
1, 22339, Note_off_c, 0, 92, 64
1, 22340, Note_off_c, 0, 74, 64
1, 22340, Note_off_c, 0, 83, 64
1, 22340, Note_off_c, 0, 85, 64
1, 22341, Note_on_c, 0, 70, 42
1, 22341, Note_on_c, 0, 88, 44
1, 22341, Note_on_c, 0, 91, 36
1, 22342, Note_on_c, 0, 64, 29
1, 22342, Note_on_c, 0, 85, 19
1, 22342, Note_on_c, 0, 93, 33
1, 22342, Note_on_c, 0, 94, 24
1, 22343, Note_off_c, 0, 70, 64
1, 22343, Note_on_c, 0, 89, 40
1, 22343, Note_on_c, 0, 92, 29
1, 22344, Note_off_c, 0, 64, 64
1, 22344, Note_on_c, 0, 68, 48
1, 22344, Note_on_c, 0, 84, 29
1, 22345, Note_on_c, 0, 79, 31
1, 22345, Note_off_c, 0, 85, 64
1, 22345, Note_on_c, 0, 86, 43
1, 22345, Note_off_c, 0, 94, 64
1, 22346, Note_on_c, 0, 65, 31
1, 22346, Note_off_c, 0, 68, 64
1, 22346, Note_on_c, 0, 69, 36
1, 22346, Note_off_c, 0, 78, 64
1, 22346, Note_on_c, 0, 87, 39
1, 22346, Note_off_c, 0, 93, 64
1, 22347, Note_off_c, 0, 88, 64
1, 22347, Note_off_c, 0, 91, 64
1, 22348, Note_off_c, 0, 65, 64
1, 22348, Note_on_c, 0, 68, 44
1, 22348, Note_off_c, 0, 69, 64
1, 22348, Note_on_c, 0, 71, 37
1, 22348, Note_on_c, 0, 81, 19
1, 22348, Note_on_c, 0, 88, 37
1, 22348, Note_on_c, 0, 91, 39
1, 22349, Note_on_c, 0, 82, 13
1, 22349, Note_off_c, 0, 89, 64
1, 22349, Note_off_c, 0, 92, 64
1, 22350, Note_on_c, 0, 78, 28
1, 22350, Note_off_c, 0, 79, 64
1, 22350, Note_on_c, 0, 89, 21
1, 22351, Note_off_c, 0, 68, 64
1, 22351, Note_off_c, 0, 71, 64
1, 22351, Note_on_c, 0, 72, 43
1, 22351, Note_on_c, 0, 77, 22
1, 22351, Note_off_c, 0, 81, 64
1, 22351, Note_off_c, 0, 84, 64
1, 22351, Note_on_c, 0, 85, 32
1, 22351, Note_on_c, 0, 92, 30
1, 22352, Note_on_c, 0, 75, 42
1, 22352, Note_on_c, 0, 80, 28
1, 22352, Note_off_c, 0, 82, 64
1, 22352, Note_on_c, 0, 83, 26
1, 22352, Note_off_c, 0, 87, 64
1, 22352, Note_on_c, 0, 94, 19
1, 22353, Note_off_c, 0, 90, 64
1, 22354, Note_off_c, 0, 72, 64
1, 22354, Note_off_c, 0, 77, 64
1, 22355, Note_on_c, 0, 72, 17
1, 22355, Note_off_c, 0, 83, 64
1, 22355, Note_off_c, 0, 85, 64
1, 22356, Note_off_c, 0, 78, 64
1, 22356, Note_on_c, 0, 85, 22
1, 22356, Note_off_c, 0, 94, 64
1, 22357, Note_off_c, 0, 75, 64
1, 22357, Note_on_c, 0, 76, 24
1, 22358, Note_on_c, 0, 83, 40
1, 22358, Note_on_c, 0, 87, 37
1, 22358, Note_off_c, 0, 89, 64
1, 22358, Note_off_c, 0, 91, 64
1, 22359, Note_off_c, 0, 72, 64
1, 22359, Note_on_c, 0, 73, 34
1, 22359, Note_off_c, 0, 80, 64
1, 22359, Note_off_c, 0, 85, 64
1, 22359, Note_off_c, 0, 86, 64
1, 22359, Note_off_c, 0, 88, 64
1, 22359, Note_off_c, 0, 92, 64
1, 22360, Note_on_c, 0, 75, 37
1, 22360, Note_on_c, 0, 96, 25
1, 22361, Note_on_c, 0, 61, 39
1, 22361, Note_off_c, 0, 76, 64
1, 22361, Note_on_c, 0, 78, 29
1, 22361, Note_on_c, 0, 82, 26
1, 22361, Note_on_c, 0, 86, 42
1, 22361, Note_on_c, 0, 91, 34
1, 22361, Note_on_c, 0, 93, 37
1, 22361, Note_on_c, 0, 94, 34
1, 22361, Note_on_c, 0, 100, 22
1, 22362, Note_on_c, 0, 79, 36
1, 22362, Note_on_c, 0, 88, 30
1, 22362, Note_on_c, 0, 90, 36
1, 22362, Note_on_c, 0, 92, 22
1, 22362, Note_on_c, 0, 97, 24
1, 22363, Note_on_c, 0, 72, 29
1, 22363, Note_off_c, 0, 73, 64
1, 22363, Note_on_c, 0, 77, 26
1, 22363, Note_off_c, 0, 78, 64
1, 22363, Note_on_c, 0, 84, 38
1, 22364, Note_on_c, 0, 53, 17
1, 22364, Note_on_c, 0, 60, 39
1, 22364, Note_off_c, 0, 61, 64
1, 22364, Note_on_c, 0, 81, 35
1, 22364, Note_off_c, 0, 82, 64
1, 22365, Note_off_c, 0, 79, 64
1, 22365, Note_off_c, 0, 84, 64
1, 22365, Note_on_c, 0, 85, 37
1, 22365, Note_on_c, 0, 89, 34
1, 22365, Note_off_c, 0, 90, 64
1, 22366, Note_on_c, 0, 82, 44
1, 22366, Note_off_c, 0, 83, 64
1, 22366, Note_on_c, 0, 84, 33
1, 22366, Note_off_c, 0, 94, 64
1, 22367, Note_off_c, 0, 77, 64
1, 22367, Note_off_c, 0, 87, 64
1, 22367, Note_off_c, 0, 89, 64
1, 22367, Note_off_c, 0, 91, 64
1, 22368, Note_off_c, 0, 72, 64
1, 22368, Note_off_c, 0, 88, 64
1, 22368, Note_off_c, 0, 96, 64
1, 22368, Note_off_c, 0, 97, 64
1, 22368, Note_off_c, 0, 100, 64
1, 22369, Note_on_c, 0, 59, 15
1, 22369, Note_off_c, 0, 60, 64
1, 22369, Note_off_c, 0, 75, 64
1, 22369, Note_off_c, 0, 81, 64
1, 22369, Note_off_c, 0, 82, 64
1, 22369, Note_off_c, 0, 85, 64
1, 22369, Note_off_c, 0, 86, 64
1, 22369, Note_off_c, 0, 93, 64
1, 22370, Note_off_c, 0, 53, 64
1, 22370, Note_off_c, 0, 84, 64
1, 22370, Note_on_c, 0, 91, 18
1, 22370, Note_off_c, 0, 92, 64
1, 22371, Note_on_c, 0, 89, 24
1, 22371, Note_on_c, 0, 90, 22
1, 22371, Note_on_c, 0, 92, 14
1, 22372, Note_off_c, 0, 59, 64
1, 22372, Note_on_c, 0, 68, 24
1, 22372, Note_on_c, 0, 85, 33
1, 22372, Note_on_c, 0, 86, 17
1, 22372, Note_on_c, 0, 87, 31
1, 22373, Note_on_c, 0, 82, 26
1, 22374, Note_on_c, 0, 79, 33
1, 22374, Note_on_c, 0, 84, 27
1, 22375, Note_on_c, 0, 76, 18
1, 22375, Note_off_c, 0, 85, 64
1, 22375, Note_off_c, 0, 89, 64
1, 22375, Note_off_c, 0, 91, 64
1, 22376, Note_off_c, 0, 82, 64
1, 22376, Note_off_c, 0, 92, 64
1, 22377, Note_on_c, 0, 71, 31
1, 22377, Note_on_c, 0, 82, 29
1, 22377, Note_off_c, 0, 84, 64
1, 22377, Note_on_c, 0, 88, 23
1, 22377, Note_on_c, 0, 91, 34
1, 22378, Note_on_c, 0, 74, 33
1, 22378, Note_on_c, 0, 78, 32
1, 22378, Note_off_c, 0, 79, 64
1, 22378, Note_off_c, 0, 87, 64
1, 22378, Note_on_c, 0, 89, 20
1, 22379, Note_off_c, 0, 71, 64
1, 22379, Note_on_c, 0, 72, 38
1, 22379, Note_off_c, 0, 76, 64
1, 22379, Note_on_c, 0, 92, 29
1, 22380, Note_off_c, 0, 68, 64
1, 22380, Note_off_c, 0, 74, 64
1, 22380, Note_on_c, 0, 75, 36
1, 22380, Note_on_c, 0, 85, 30
1, 22381, Note_on_c, 0, 77, 21
1, 22381, Note_off_c, 0, 86, 64
1, 22381, Note_off_c, 0, 90, 64
1, 22382, Note_on_c, 0, 64, 22
1, 22382, Note_off_c, 0, 72, 64
1, 22382, Note_off_c, 0, 78, 64
1, 22382, Note_on_c, 0, 80, 29
1, 22383, Note_on_c, 0, 59, 14
1, 22384, Note_on_c, 0, 73, 17
1, 22384, Note_off_c, 0, 89, 64
1, 22384, Note_on_c, 0, 90, 16
1, 22384, Note_off_c, 0, 91, 64
1, 22385, Note_off_c, 0, 75, 64
1, 22386, Note_off_c, 0, 59, 64
1, 22386, Note_on_c, 0, 60, 11
1, 22386, Note_off_c, 0, 64, 64
1, 22386, Note_on_c, 0, 65, 38
1, 22386, Note_off_c, 0, 80, 64
1, 22386, Note_off_c, 0, 82, 64
1, 22386, Note_off_c, 0, 88, 64
1, 22386, Note_off_c, 0, 92, 64
1, 22387, Note_on_c, 0, 53, 10
1, 22387, Note_off_c, 0, 77, 64
1, 22387, Note_off_c, 0, 85, 64
1, 22388, Note_on_c, 0, 68, 23
1, 22388, Note_off_c, 0, 73, 64
1, 22388, Note_off_c, 0, 90, 64
1, 22388, Note_on_c, 0, 91, 25
1, 22389, Note_off_c, 0, 60, 64
1, 22389, Note_on_c, 0, 83, 32
1, 22390, Note_off_c, 0, 53, 64
1, 22390, Note_off_c, 0, 65, 64
1, 22390, Note_on_c, 0, 78, 25
1, 22390, Note_on_c, 0, 80, 34
1, 22390, Note_on_c, 0, 86, 41
1, 22390, Note_on_c, 0, 88, 28
1, 22391, Note_on_c, 0, 75, 32
1, 22391, Note_on_c, 0, 84, 26
1, 22392, Note_off_c, 0, 68, 64
1, 22392, Note_on_c, 0, 82, 33
1, 22392, Note_on_c, 0, 92, 37
1, 22392, Note_on_c, 0, 93, 14
1, 22393, Note_off_c, 0, 78, 64
1, 22393, Note_off_c, 0, 83, 64
1, 22395, Note_off_c, 0, 75, 64
1, 22395, Note_off_c, 0, 82, 64
1, 22395, Note_on_c, 0, 83, 37
1, 22395, Note_on_c, 0, 85, 18
1, 22396, Note_on_c, 0, 73, 17
1, 22396, Note_off_c, 0, 91, 64
1, 22396, Note_off_c, 0, 92, 64
1, 22396, Note_off_c, 0, 93, 64
1, 22397, Note_off_c, 0, 80, 64
1, 22397, Note_off_c, 0, 84, 64
1, 22397, Note_off_c, 0, 88, 64
1, 22398, Note_on_c, 0, 88, 27
1, 22398, Note_on_c, 0, 92, 25
1, 22399, Note_on_c, 0, 65, 37
1, 22399, Note_on_c, 0, 69, 29
1, 22399, Note_off_c, 0, 85, 64
1, 22399, Note_on_c, 0, 91, 28
1, 22399, Note_on_c, 0, 94, 26
1, 22400, Note_on_c, 0, 79, 42
1, 22400, Note_on_c, 0, 81, 35
1, 22400, Note_on_c, 0, 87, 23
1, 22400, Note_on_c, 0, 96, 17
1, 22401, Note_on_c, 0, 54, 17
1, 22401, Note_on_c, 0, 61, 21
1, 22401, Note_off_c, 0, 65, 64
1, 22401, Note_on_c, 0, 66, 45
1, 22401, Note_off_c, 0, 69, 64
1, 22401, Note_on_c, 0, 70, 29
1, 22401, Note_off_c, 0, 73, 64
1, 22401, Note_on_c, 0, 82, 41
1, 22401, Note_off_c, 0, 86, 64
1, 22401, Note_on_c, 0, 90, 23
1, 22401, Note_on_c, 0, 98, 10
1, 22402, Note_on_c, 0, 84, 43
1, 22402, Note_on_c, 0, 86, 44
1, 22402, Note_off_c, 0, 88, 64
1, 22403, Note_off_c, 0, 82, 64
1, 22403, Note_off_c, 0, 87, 64
1, 22404, Note_off_c, 0, 79, 64
1, 22404, Note_on_c, 0, 80, 37
1, 22404, Note_off_c, 0, 98, 64
1, 22405, Note_on_c, 0, 69, 56
1, 22405, Note_off_c, 0, 70, 64
1, 22405, Note_off_c, 0, 81, 64
1, 22405, Note_on_c, 0, 87, 19
1, 22405, Note_on_c, 0, 88, 18
1, 22405, Note_off_c, 0, 90, 64
1, 22405, Note_off_c, 0, 96, 64
1, 22406, Note_off_c, 0, 54, 64
1, 22406, Note_off_c, 0, 61, 64
1, 22406, Note_off_c, 0, 84, 64
1, 22407, Note_on_c, 0, 79, 22
1, 22407, Note_off_c, 0, 80, 64
1, 22408, Note_on_c, 0, 72, 34
1, 22408, Note_on_c, 0, 75, 30
1, 22408, Note_on_c, 0, 82, 27
1, 22408, Note_off_c, 0, 83, 64
1, 22408, Note_off_c, 0, 87, 64
1, 22408, Note_off_c, 0, 94, 64
1, 22409, Note_on_c, 0, 65, 38
1, 22409, Note_off_c, 0, 66, 64
1, 22409, Note_on_c, 0, 87, 43
1, 22409, Note_off_c, 0, 88, 64
1, 22410, Note_on_c, 0, 85, 32
1, 22410, Note_off_c, 0, 86, 64
1, 22411, Note_on_c, 0, 60, 12
1, 22411, Note_on_c, 0, 88, 31
1, 22411, Note_on_c, 0, 90, 15
1, 22412, Note_off_c, 0, 75, 64
1, 22412, Note_off_c, 0, 79, 64
1, 22413, Note_on_c, 0, 86, 49
1, 22413, Note_off_c, 0, 87, 64
1, 22413, Note_off_c, 0, 91, 64
1, 22414, Note_on_c, 0, 74, 30
1, 22415, Note_on_c, 0, 68, 51
1, 22415, Note_off_c, 0, 69, 64
1, 22415, Note_on_c, 0, 71, 32
1, 22415, Note_off_c, 0, 72, 64
1, 22415, Note_on_c, 0, 76, 19
1, 22415, Note_off_c, 0, 88, 64
1, 22415, Note_off_c, 0, 92, 64
1, 22416, Note_off_c, 0, 65, 64
1, 22416, Note_off_c, 0, 74, 64
1, 22416, Note_off_c, 0, 85, 64
1, 22417, Note_off_c, 0, 60, 64
1, 22417, Note_off_c, 0, 71, 64
1, 22417, Note_on_c, 0, 87, 11
1, 22418, Note_off_c, 0, 76, 64
1, 22418, Note_off_c, 0, 90, 64
1, 22419, Note_off_c, 0, 68, 64
1, 22419, Note_on_c, 0, 75, 17
1, 22420, Note_on_c, 0, 88, 14
1, 22420, Note_on_c, 0, 90, 23
1, 22421, Note_on_c, 0, 68, 12
1, 22421, Note_on_c, 0, 77, 22
1, 22421, Note_on_c, 0, 81, 34
1, 22421, Note_off_c, 0, 82, 64
1, 22421, Note_on_c, 0, 83, 22
1, 22421, Note_off_c, 0, 87, 64
1, 22423, Note_off_c, 0, 75, 64
1, 22423, Note_off_c, 0, 88, 64
1, 22424, Note_off_c, 0, 68, 64
1, 22424, Note_off_c, 0, 77, 64
1, 22424, Note_on_c, 0, 78, 21
1, 22424, Note_off_c, 0, 83, 64
1, 22424, Note_off_c, 0, 86, 64
1, 22424, Note_off_c, 0, 90, 64
1, 22425, Note_off_c, 0, 81, 64
1, 22428, Note_on_c, 0, 76, 34
1, 22428, Note_off_c, 0, 78, 64
1, 22428, Note_on_c, 0, 87, 24
1, 22428, Note_on_c, 0, 90, 27
1, 22428, Note_on_c, 0, 91, 19
1, 22429, Note_on_c, 0, 74, 42
1, 22429, Note_on_c, 0, 82, 34
1, 22429, Note_on_c, 0, 84, 34
1, 22430, Note_on_c, 0, 66, 23
1, 22430, Note_on_c, 0, 78, 49
1, 22430, Note_on_c, 0, 85, 27
1, 22430, Note_on_c, 0, 89, 26
1, 22431, Note_off_c, 0, 76, 64
1, 22431, Note_on_c, 0, 77, 31
1, 22431, Note_off_c, 0, 87, 64
1, 22431, Note_on_c, 0, 93, 25
1, 22432, Note_off_c, 0, 82, 64
1, 22432, Note_on_c, 0, 83, 32
1, 22432, Note_on_c, 0, 87, 29
1, 22433, Note_on_c, 0, 72, 38
1, 22433, Note_off_c, 0, 78, 64
1, 22433, Note_on_c, 0, 79, 39
1, 22433, Note_off_c, 0, 91, 64
1, 22433, Note_on_c, 0, 92, 29
1, 22434, Note_off_c, 0, 74, 64
1, 22434, Note_on_c, 0, 75, 42
1, 22434, Note_off_c, 0, 77, 64
1, 22434, Note_off_c, 0, 83, 64
1, 22434, Note_off_c, 0, 85, 64
1, 22435, Note_on_c, 0, 65, 9
1, 22435, Note_off_c, 0, 66, 64
1, 22435, Note_off_c, 0, 79, 64
1, 22435, Note_on_c, 0, 80, 23
1, 22435, Note_on_c, 0, 94, 22
1, 22436, Note_off_c, 0, 84, 64
1, 22436, Note_on_c, 0, 88, 29
1, 22436, Note_off_c, 0, 89, 64
1, 22437, Note_off_c, 0, 72, 64
1, 22437, Note_on_c, 0, 73, 32
1, 22437, Note_on_c, 0, 83, 47
1, 22437, Note_off_c, 0, 90, 64
1, 22438, Note_off_c, 0, 65, 64
1, 22438, Note_on_c, 0, 77, 42
1, 22438, Note_on_c, 0, 79, 37
1, 22438, Note_on_c, 0, 82, 37
1, 22438, Note_on_c, 0, 84, 33
1, 22438, Note_off_c, 0, 94, 64
1, 22439, Note_on_c, 0, 58, 18
1, 22439, Note_off_c, 0, 73, 64
1, 22440, Note_on_c, 0, 73, 46
1, 22440, Note_off_c, 0, 80, 64
1, 22440, Note_on_c, 0, 81, 23
1, 22440, Note_off_c, 0, 84, 64
1, 22440, Note_off_c, 0, 87, 64
1, 22441, Note_on_c, 0, 69, 21
1, 22442, Note_off_c, 0, 58, 64
1, 22442, Note_off_c, 0, 73, 64
1, 22442, Note_on_c, 0, 74, 46
1, 22442, Note_off_c, 0, 75, 64
1, 22442, Note_on_c, 0, 78, 39
1, 22442, Note_off_c, 0, 79, 64
1, 22442, Note_off_c, 0, 83, 64
1, 22442, Note_off_c, 0, 92, 64
1, 22443, Note_on_c, 0, 79, 31
1, 22444, Note_off_c, 0, 69, 64
1, 22444, Note_off_c, 0, 77, 64
1, 22444, Note_off_c, 0, 78, 64
1, 22444, Note_off_c, 0, 81, 64
1, 22444, Note_on_c, 0, 85, 19
1, 22444, Note_off_c, 0, 88, 64
1, 22444, Note_on_c, 0, 92, 40
1, 22444, Note_off_c, 0, 93, 64
1, 22445, Note_off_c, 0, 82, 64
1, 22446, Note_on_c, 0, 73, 42
1, 22446, Note_off_c, 0, 74, 64
1, 22446, Note_on_c, 0, 87, 24
1, 22446, Note_on_c, 0, 90, 42
1, 22447, Note_off_c, 0, 79, 64
1, 22447, Note_on_c, 0, 81, 14
1, 22447, Note_on_c, 0, 83, 10
1, 22447, Note_on_c, 0, 91, 40
1, 22448, Note_on_c, 0, 72, 34
1, 22448, Note_on_c, 0, 75, 44
1, 22448, Note_on_c, 0, 86, 14
1, 22449, Note_on_c, 0, 56, 18
1, 22449, Note_on_c, 0, 63, 13
1, 22449, Note_on_c, 0, 82, 30
1, 22449, Note_on_c, 0, 93, 35
1, 22449, Note_on_c, 0, 95, 16
1, 22450, Note_off_c, 0, 73, 64
1, 22450, Note_on_c, 0, 80, 18
1, 22450, Note_off_c, 0, 83, 64
1, 22450, Note_off_c, 0, 85, 64
1, 22451, Note_on_c, 0, 78, 25
1, 22451, Note_off_c, 0, 86, 64
1, 22452, Note_off_c, 0, 81, 64
1, 22452, Note_on_c, 0, 88, 27
1, 22452, Note_off_c, 0, 95, 64
1, 22454, Note_on_c, 0, 68, 18
1, 22455, Note_off_c, 0, 63, 64
1, 22455, Note_on_c, 0, 71, 31
1, 22455, Note_off_c, 0, 72, 64
1, 22455, Note_on_c, 0, 77, 27
1, 22455, Note_off_c, 0, 80, 64
1, 22455, Note_on_c, 0, 86, 32
1, 22456, Note_off_c, 0, 56, 64
1, 22456, Note_off_c, 0, 87, 64
1, 22456, Note_off_c, 0, 93, 64
1, 22457, Note_off_c, 0, 68, 64
1, 22457, Note_off_c, 0, 75, 64
1, 22457, Note_off_c, 0, 78, 64
1, 22457, Note_on_c, 0, 87, 12
1, 22458, Note_on_c, 0, 75, 24
1, 22458, Note_off_c, 0, 90, 64
1, 22459, Note_on_c, 0, 73, 16
1, 22459, Note_off_c, 0, 77, 64
1, 22459, Note_on_c, 0, 84, 18
1, 22460, Note_on_c, 0, 69, 23
1, 22460, Note_off_c, 0, 82, 64
1, 22460, Note_off_c, 0, 88, 64
1, 22460, Note_off_c, 0, 92, 64
1, 22461, Note_off_c, 0, 71, 64
1, 22461, Note_off_c, 0, 75, 64
1, 22461, Note_off_c, 0, 87, 64
1, 22462, Note_off_c, 0, 73, 64
1, 22462, Note_off_c, 0, 84, 64
1, 22463, Note_off_c, 0, 86, 64
1, 22464, Note_on_c, 0, 74, 41
1, 22464, Note_on_c, 0, 76, 34
1, 22465, Note_on_c, 0, 77, 30
1, 22465, Note_on_c, 0, 83, 17
1, 22466, Note_on_c, 0, 75, 46
1, 22466, Note_off_c, 0, 76, 64
1, 22466, Note_on_c, 0, 80, 31
1, 22466, Note_on_c, 0, 88, 14
1, 22467, Note_on_c, 0, 85, 37
1, 22467, Note_on_c, 0, 90, 16
1, 22468, Note_on_c, 0, 78, 47
1, 22468, Note_off_c, 0, 80, 64
1, 22468, Note_off_c, 0, 83, 64
1, 22469, Note_on_c, 0, 72, 35
1, 22469, Note_off_c, 0, 75, 64
1, 22469, Note_off_c, 0, 77, 64
1, 22469, Note_off_c, 0, 88, 64
1, 22469, Note_off_c, 0, 91, 64
1, 22470, Note_on_c, 0, 73, 30
1, 22470, Note_off_c, 0, 74, 64
1, 22470, Note_on_c, 0, 77, 21
1, 22470, Note_off_c, 0, 90, 64
1, 22471, Note_off_c, 0, 69, 64
1, 22471, Note_on_c, 0, 93, 9
1, 22472, Note_off_c, 0, 73, 64
1, 22473, Note_off_c, 0, 72, 64
1, 22473, Note_off_c, 0, 85, 64
1, 22474, Note_off_c, 0, 93, 64
1, 22475, Note_on_c, 0, 72, 28
1, 22475, Note_on_c, 0, 80, 25
1, 22475, Note_on_c, 0, 83, 30
1, 22475, Note_on_c, 0, 87, 16
1, 22476, Note_on_c, 0, 75, 41
1, 22476, Note_off_c, 0, 77, 64
1, 22476, Note_on_c, 0, 88, 17
1, 22476, Note_on_c, 0, 93, 15
1, 22477, Note_on_c, 0, 63, 16
1, 22477, Note_on_c, 0, 81, 44
1, 22477, Note_on_c, 0, 85, 29
1, 22477, Note_on_c, 0, 89, 19
1, 22477, Note_on_c, 0, 94, 13
1, 22478, Note_on_c, 0, 71, 41
1, 22478, Note_off_c, 0, 72, 64
1, 22478, Note_off_c, 0, 80, 64
1, 22478, Note_on_c, 0, 86, 24
1, 22478, Note_off_c, 0, 87, 64
1, 22478, Note_on_c, 0, 92, 14
1, 22479, Note_on_c, 0, 74, 38
1, 22479, Note_off_c, 0, 75, 64
1, 22479, Note_off_c, 0, 85, 64
1, 22480, Note_off_c, 0, 63, 64
1, 22480, Note_off_c, 0, 78, 64
1, 22480, Note_off_c, 0, 83, 64
1, 22480, Note_off_c, 0, 88, 64
1, 22480, Note_off_c, 0, 89, 64
1, 22480, Note_on_c, 0, 91, 21
1, 22480, Note_off_c, 0, 94, 64
1, 22481, Note_on_c, 0, 65, 28
1, 22481, Note_on_c, 0, 70, 25
1, 22481, Note_off_c, 0, 71, 64
1, 22481, Note_off_c, 0, 74, 64
1, 22481, Note_off_c, 0, 81, 64
1, 22481, Note_off_c, 0, 86, 64
1, 22481, Note_off_c, 0, 93, 64
1, 22482, Note_off_c, 0, 92, 64
1, 22483, Note_on_c, 0, 75, 12
1, 22484, Note_on_c, 0, 64, 18
1, 22484, Note_off_c, 0, 65, 64
1, 22484, Note_on_c, 0, 79, 17
1, 22485, Note_off_c, 0, 70, 64
1, 22485, Note_on_c, 0, 82, 23
1, 22485, Note_on_c, 0, 85, 15
1, 22485, Note_on_c, 0, 86, 16
1, 22486, Note_off_c, 0, 91, 64
1, 22487, Note_off_c, 0, 64, 64
1, 22487, Note_off_c, 0, 75, 64
1, 22487, Note_on_c, 0, 80, 17
1, 22488, Note_off_c, 0, 86, 64
1, 22489, Note_on_c, 0, 70, 30
1, 22489, Note_off_c, 0, 82, 64
1, 22489, Note_off_c, 0, 85, 64
1, 22489, Note_on_c, 0, 88, 11
1, 22490, Note_on_c, 0, 75, 19
1, 22490, Note_off_c, 0, 79, 64
1, 22490, Note_on_c, 0, 91, 9
1, 22491, Note_off_c, 0, 70, 64
1, 22491, Note_on_c, 0, 86, 21
1, 22492, Note_on_c, 0, 70, 26
1, 22492, Note_on_c, 0, 72, 29
1, 22493, Note_off_c, 0, 75, 64
1, 22493, Note_on_c, 0, 79, 23
1, 22493, Note_off_c, 0, 80, 64
1, 22493, Note_on_c, 0, 87, 23
1, 22493, Note_off_c, 0, 88, 64
1, 22494, Note_off_c, 0, 72, 64
1, 22494, Note_on_c, 0, 75, 26
1, 22494, Note_on_c, 0, 77, 24
1, 22494, Note_off_c, 0, 86, 64
1, 22495, Note_off_c, 0, 91, 64
1, 22496, Note_on_c, 0, 69, 20
1, 22496, Note_off_c, 0, 70, 64
1, 22496, Note_on_c, 0, 73, 35
1, 22497, Note_off_c, 0, 75, 64
1, 22497, Note_on_c, 0, 86, 22
1, 22497, Note_off_c, 0, 87, 64
1, 22498, Note_off_c, 0, 77, 64
1, 22499, Note_on_c, 0, 68, 18
1, 22499, Note_off_c, 0, 69, 64
1, 22499, Note_off_c, 0, 73, 64
1, 22499, Note_off_c, 0, 79, 64
1, 22501, Note_off_c, 0, 86, 64
1, 22502, Note_on_c, 0, 80, 26
1, 22503, Note_on_c, 0, 65, 22
1, 22503, Note_on_c, 0, 72, 38
1, 22503, Note_on_c, 0, 88, 14
1, 22504, Note_off_c, 0, 68, 64
1, 22504, Note_on_c, 0, 75, 34
1, 22504, Note_on_c, 0, 82, 17
1, 22504, Note_on_c, 0, 86, 11
1, 22505, Note_on_c, 0, 71, 35
1, 22505, Note_off_c, 0, 72, 64
1, 22505, Note_on_c, 0, 73, 41
1, 22505, Note_off_c, 0, 80, 64
1, 22506, Note_off_c, 0, 65, 64
1, 22506, Note_off_c, 0, 88, 64
1, 22506, Note_on_c, 0, 90, 20
1, 22507, Note_off_c, 0, 71, 64
1, 22507, Note_off_c, 0, 75, 64
1, 22507, Note_off_c, 0, 86, 64
1, 22508, Note_on_c, 0, 72, 31
1, 22508, Note_off_c, 0, 73, 64
1, 22508, Note_off_c, 0, 82, 64
1, 22509, Note_on_c, 0, 73, 44
1, 22510, Note_on_c, 0, 91, 22
1, 22511, Note_off_c, 0, 72, 64
1, 22511, Note_on_c, 0, 77, 42
1, 22511, Note_on_c, 0, 79, 33
1, 22512, Note_on_c, 0, 70, 34
1, 22512, Note_on_c, 0, 81, 34
1, 22512, Note_on_c, 0, 83, 26
1, 22513, Note_on_c, 0, 78, 38
1, 22513, Note_off_c, 0, 79, 64
1, 22513, Note_on_c, 0, 86, 26
1, 22513, Note_on_c, 0, 88, 15
1, 22514, Note_off_c, 0, 70, 64
1, 22514, Note_on_c, 0, 76, 49
1, 22514, Note_off_c, 0, 77, 64
1, 22514, Note_off_c, 0, 81, 64
1, 22515, Note_on_c, 0, 62, 17
1, 22515, Note_on_c, 0, 71, 32
1, 22515, Note_off_c, 0, 78, 64
1, 22515, Note_on_c, 0, 79, 21
1, 22515, Note_off_c, 0, 90, 64
1, 22516, Note_on_c, 0, 68, 35
1, 22516, Note_off_c, 0, 73, 64
1, 22516, Note_off_c, 0, 83, 64
1, 22516, Note_off_c, 0, 88, 64
1, 22516, Note_off_c, 0, 91, 64
1, 22518, Note_off_c, 0, 62, 64
1, 22518, Note_off_c, 0, 68, 64
1, 22518, Note_off_c, 0, 76, 64
1, 22518, Note_off_c, 0, 79, 64
1, 22518, Note_off_c, 0, 86, 64
1, 22519, Note_on_c, 0, 75, 19
1, 22520, Note_off_c, 0, 71, 64
1, 22521, Note_on_c, 0, 80, 18
1, 22522, Note_on_c, 0, 69, 21
1, 22523, Note_on_c, 0, 72, 21
1, 22523, Note_on_c, 0, 79, 18
1, 22524, Note_off_c, 0, 75, 64
1, 22524, Note_off_c, 0, 80, 64
1, 22524, Note_on_c, 0, 88, 13
1, 22526, Note_off_c, 0, 69, 64
1, 22526, Note_off_c, 0, 72, 64
1, 22526, Note_on_c, 0, 86, 20
1, 22527, Note_off_c, 0, 88, 64
1, 22528, Note_off_c, 0, 79, 64
1, 22529, Note_on_c, 0, 73, 21
1, 22529, Note_off_c, 0, 86, 64
1, 22531, Note_on_c, 0, 78, 21
1, 22533, Note_off_c, 0, 73, 64
1, 22533, Note_on_c, 0, 84, 14
1, 22534, Note_on_c, 0, 71, 29
1, 22534, Note_on_c, 0, 76, 14
1, 22534, Note_off_c, 0, 78, 64
1, 22536, Note_off_c, 0, 71, 64
1, 22536, Note_on_c, 0, 72, 17
1, 22536, Note_off_c, 0, 84, 64
1, 22536, Note_on_c, 0, 90, 10
1, 22537, Note_off_c, 0, 76, 64
1, 22539, Note_off_c, 0, 72, 64
1, 22539, Note_on_c, 0, 91, 13
1, 22540, Note_on_c, 0, 70, 39
1, 22540, Note_off_c, 0, 90, 64
1, 22541, Note_on_c, 0, 73, 42
1, 22541, Note_on_c, 0, 76, 25
1, 22542, Note_on_c, 0, 79, 22
1, 22542, Note_on_c, 0, 80, 28
1, 22542, Note_on_c, 0, 84, 28
1, 22544, Note_on_c, 0, 81, 21
1, 22544, Note_off_c, 0, 91, 64
1, 22545, Note_on_c, 0, 75, 14
1, 22545, Note_off_c, 0, 80, 64
1, 22545, Note_off_c, 0, 84, 64
1, 22546, Note_off_c, 0, 70, 64
1, 22546, Note_off_c, 0, 76, 64
1, 22546, Note_off_c, 0, 79, 64
1, 22547, Note_on_c, 0, 72, 34
1, 22547, Note_off_c, 0, 73, 64
1, 22547, Note_off_c, 0, 81, 64
1, 22548, Note_off_c, 0, 75, 64
1, 22548, Note_on_c, 0, 77, 43
1, 22549, Note_on_c, 0, 82, 27
1, 22549, Note_on_c, 0, 91, 11
1, 22550, Note_on_c, 0, 67, 34
1, 22550, Note_on_c, 0, 74, 38
1, 22550, Note_on_c, 0, 85, 19
1, 22550, Note_on_c, 0, 87, 14
1, 22551, Note_on_c, 0, 92, 13
1, 22552, Note_on_c, 0, 69, 45
1, 22552, Note_off_c, 0, 74, 64
1, 22552, Note_on_c, 0, 76, 28
1, 22553, Note_off_c, 0, 72, 64
1, 22553, Note_off_c, 0, 77, 64
1, 22553, Note_off_c, 0, 87, 64
1, 22553, Note_off_c, 0, 91, 64
1, 22554, Note_off_c, 0, 67, 64
1, 22554, Note_on_c, 0, 72, 50
1, 22554, Note_off_c, 0, 82, 64
1, 22554, Note_off_c, 0, 85, 64
1, 22554, Note_off_c, 0, 92, 64
1, 22555, Note_off_c, 0, 76, 64
1, 22556, Note_on_c, 0, 75, 21
1, 22557, Note_off_c, 0, 69, 64
1, 22557, Note_on_c, 0, 70, 11
1, 22557, Note_off_c, 0, 72, 64
1, 22559, Note_on_c, 0, 81, 11
1, 22560, Note_off_c, 0, 70, 64
1, 22561, Note_on_c, 0, 70, 24
1, 22563, Note_off_c, 0, 75, 64
1, 22563, Note_off_c, 0, 81, 64
1, 22564, Note_on_c, 0, 90, 11
1, 22565, Note_off_c, 0, 70, 64
1, 22569, Note_off_c, 0, 90, 64
1, 22569, End_track
0, 0, End_of_file
